<svg width="688" height="278" viewBox="0 0 688 278" fill="none" xmlns="http://www.w3.org/2000/svg">
<rect width="688" height="278" fill="#F6F6F6"/>
<rect x="144" y="80" width="400" height="118" rx="8" fill="white"/>
<circle opacity="0.5" cx="344" cy="116" r="10.5" stroke="#9AC1FE" stroke-width="3"/>
<path d="M333.5 116C333.5 110.201 338.201 105.5 344 105.5" stroke="#0063FB" stroke-width="3" stroke-linecap="round"/>
<path d="M301.126 168C300.912 168 300.806 167.893 300.806 167.68V156.96C300.806 156.747 300.912 156.64 301.126 156.64H305.43C306.528 156.64 307.414 156.928 308.086 157.504C308.758 158.08 309.094 158.896 309.094 159.952C309.094 161.008 308.758 161.829 308.086 162.416C307.414 162.992 306.528 163.28 305.43 163.28H301.942V167.68C301.942 167.893 301.835 168 301.622 168H301.126ZM305.286 162.336C306.118 162.336 306.774 162.133 307.254 161.728C307.734 161.323 307.974 160.731 307.974 159.952C307.974 159.184 307.734 158.597 307.254 158.192C306.774 157.787 306.118 157.584 305.286 157.584H301.942V162.336H305.286ZM311.137 168C310.924 168 310.817 167.893 310.817 167.68V156.96C310.817 156.747 310.924 156.64 311.137 156.64H311.553C311.767 156.64 311.873 156.747 311.873 156.96V167.68C311.873 167.893 311.767 168 311.553 168H311.137ZM319.998 166.128C320.073 166.053 320.153 166.016 320.238 166.016C320.313 166.016 320.382 166.048 320.446 166.112L320.654 166.304C320.729 166.379 320.766 166.459 320.766 166.544C320.766 166.608 320.734 166.683 320.67 166.768C320.148 167.291 319.641 167.664 319.15 167.888C318.66 168.101 318.11 168.208 317.502 168.208C316.734 168.208 316.068 168.037 315.502 167.696C314.937 167.355 314.5 166.88 314.19 166.272C313.881 165.653 313.726 164.939 313.726 164.128C313.726 163.307 313.876 162.581 314.174 161.952C314.484 161.312 314.916 160.816 315.47 160.464C316.025 160.101 316.665 159.92 317.39 159.92C318.468 159.92 319.316 160.256 319.934 160.928C320.553 161.6 320.862 162.507 320.862 163.648V163.84C320.852 163.936 320.814 164.011 320.75 164.064C320.697 164.117 320.622 164.144 320.526 164.144H314.798C314.83 165.04 315.065 165.797 315.502 166.416C315.95 167.024 316.617 167.328 317.502 167.328C317.982 167.328 318.404 167.243 318.766 167.072C319.14 166.891 319.55 166.576 319.998 166.128ZM317.39 160.8C316.686 160.8 316.105 161.019 315.646 161.456C315.198 161.883 314.926 162.512 314.83 163.344H319.806C319.785 162.565 319.561 161.947 319.134 161.488C318.708 161.029 318.126 160.8 317.39 160.8ZM325.654 159.92C326.624 159.92 327.382 160.155 327.926 160.624C328.47 161.083 328.742 161.691 328.742 162.448V167.68C328.742 167.893 328.635 168 328.422 168H328.102C327.888 168 327.782 167.893 327.782 167.68V166.96C327.515 167.387 327.136 167.707 326.646 167.92C326.166 168.133 325.627 168.24 325.03 168.24C324.198 168.24 323.52 168.064 322.998 167.712C322.475 167.36 322.214 166.816 322.214 166.08C322.214 165.493 322.379 165.024 322.71 164.672C323.04 164.309 323.472 164.037 324.006 163.856C324.539 163.664 325.206 163.493 326.006 163.344L327.734 163.04V162.528C327.734 161.984 327.547 161.563 327.174 161.264C326.8 160.955 326.31 160.8 325.702 160.8C325.243 160.8 324.827 160.885 324.454 161.056C324.08 161.227 323.68 161.52 323.254 161.936C323.179 162.011 323.099 162.048 323.014 162.048C322.939 162.048 322.87 162.016 322.806 161.952L322.598 161.76C322.523 161.685 322.486 161.605 322.486 161.52C322.486 161.424 322.523 161.339 322.598 161.264C323.046 160.795 323.515 160.453 324.006 160.24C324.507 160.027 325.056 159.92 325.654 159.92ZM325.078 167.36C325.846 167.36 326.48 167.157 326.982 166.752C327.483 166.347 327.734 165.829 327.734 165.2V163.856L326.246 164.144C325.552 164.283 325.003 164.416 324.598 164.544C324.192 164.672 323.867 164.859 323.622 165.104C323.376 165.349 323.254 165.669 323.254 166.064C323.254 166.469 323.414 166.789 323.734 167.024C324.064 167.248 324.512 167.36 325.078 167.36ZM333.834 168.208C333.184 168.208 332.608 168.117 332.106 167.936C331.616 167.744 331.098 167.424 330.554 166.976C330.458 166.912 330.41 166.837 330.41 166.752C330.41 166.677 330.448 166.603 330.522 166.528L330.73 166.304C330.794 166.219 330.874 166.176 330.97 166.176C331.045 166.176 331.114 166.208 331.178 166.272C331.69 166.667 332.144 166.944 332.538 167.104C332.933 167.253 333.365 167.328 333.834 167.328C334.421 167.328 334.901 167.2 335.274 166.944C335.648 166.677 335.834 166.32 335.834 165.872C335.834 165.424 335.642 165.093 335.258 164.88C334.874 164.667 334.282 164.475 333.482 164.304C332.778 164.155 332.224 164 331.818 163.84C331.424 163.669 331.13 163.456 330.938 163.2C330.746 162.944 330.65 162.608 330.65 162.192C330.65 161.509 330.928 160.96 331.482 160.544C332.037 160.128 332.736 159.92 333.578 159.92C334.154 159.92 334.666 159.995 335.114 160.144C335.573 160.283 336.032 160.517 336.49 160.848C336.586 160.923 336.634 161.003 336.634 161.088C336.634 161.141 336.608 161.211 336.554 161.296L336.362 161.536C336.309 161.621 336.234 161.664 336.138 161.664C336.053 161.664 335.978 161.637 335.914 161.584C335.477 161.275 335.088 161.067 334.746 160.96C334.416 160.853 334.037 160.8 333.61 160.8C333.024 160.8 332.554 160.928 332.202 161.184C331.85 161.44 331.674 161.765 331.674 162.16C331.674 162.405 331.754 162.603 331.914 162.752C332.074 162.901 332.304 163.029 332.602 163.136C332.901 163.232 333.338 163.344 333.914 163.472C334.981 163.707 335.738 163.995 336.186 164.336C336.645 164.677 336.874 165.173 336.874 165.824C336.874 166.539 336.592 167.115 336.026 167.552C335.461 167.989 334.73 168.208 333.834 168.208ZM344.405 166.128C344.479 166.053 344.559 166.016 344.645 166.016C344.719 166.016 344.789 166.048 344.853 166.112L345.061 166.304C345.135 166.379 345.173 166.459 345.173 166.544C345.173 166.608 345.141 166.683 345.077 166.768C344.554 167.291 344.047 167.664 343.557 167.888C343.066 168.101 342.517 168.208 341.909 168.208C341.141 168.208 340.474 168.037 339.909 167.696C339.343 167.355 338.906 166.88 338.597 166.272C338.287 165.653 338.133 164.939 338.133 164.128C338.133 163.307 338.282 162.581 338.581 161.952C338.89 161.312 339.322 160.816 339.877 160.464C340.431 160.101 341.071 159.92 341.797 159.92C342.874 159.92 343.722 160.256 344.341 160.928C344.959 161.6 345.269 162.507 345.269 163.648V163.84C345.258 163.936 345.221 164.011 345.157 164.064C345.103 164.117 345.029 164.144 344.933 164.144H339.205C339.237 165.04 339.471 165.797 339.909 166.416C340.357 167.024 341.023 167.328 341.909 167.328C342.389 167.328 342.81 167.243 343.173 167.072C343.546 166.891 343.957 166.576 344.405 166.128ZM341.797 160.8C341.093 160.8 340.511 161.019 340.053 161.456C339.605 161.883 339.333 162.512 339.237 163.344H344.213C344.191 162.565 343.967 161.947 343.541 161.488C343.114 161.029 342.533 160.8 341.797 160.8ZM359.648 160.384C359.691 160.203 359.813 160.112 360.016 160.112H360.448C360.565 160.112 360.645 160.144 360.688 160.208C360.741 160.272 360.752 160.357 360.72 160.464L358.656 167.728C358.613 167.909 358.491 168 358.288 168H357.568C357.387 168 357.269 167.909 357.216 167.728L356.48 165.28C356.096 164 355.739 162.688 355.408 161.344C355.088 162.645 354.736 163.968 354.352 165.312L353.648 167.728C353.605 167.909 353.483 168 353.28 168H352.592C352.389 168 352.267 167.909 352.224 167.728L350.16 160.464C350.149 160.443 350.144 160.405 350.144 160.352C350.144 160.277 350.171 160.219 350.224 160.176C350.277 160.133 350.347 160.112 350.432 160.112H350.864C351.067 160.112 351.189 160.203 351.232 160.384L352 163.216C352.352 164.507 352.677 165.792 352.976 167.072C353.211 166.123 353.557 164.837 354.016 163.216L354.832 160.384C354.875 160.203 354.997 160.112 355.2 160.112H355.68C355.872 160.112 355.989 160.203 356.032 160.384L356.864 163.216C357.227 164.528 357.568 165.819 357.888 167.088C358.133 166.021 358.464 164.731 358.88 163.216L359.648 160.384ZM365.372 159.92C366.343 159.92 367.1 160.155 367.644 160.624C368.188 161.083 368.46 161.691 368.46 162.448V167.68C368.46 167.893 368.354 168 368.14 168H367.82C367.607 168 367.5 167.893 367.5 167.68V166.96C367.234 167.387 366.855 167.707 366.364 167.92C365.884 168.133 365.346 168.24 364.748 168.24C363.916 168.24 363.239 168.064 362.716 167.712C362.194 167.36 361.932 166.816 361.932 166.08C361.932 165.493 362.098 165.024 362.428 164.672C362.759 164.309 363.191 164.037 363.724 163.856C364.258 163.664 364.924 163.493 365.724 163.344L367.452 163.04V162.528C367.452 161.984 367.266 161.563 366.892 161.264C366.519 160.955 366.028 160.8 365.42 160.8C364.962 160.8 364.546 160.885 364.172 161.056C363.799 161.227 363.399 161.52 362.972 161.936C362.898 162.011 362.818 162.048 362.732 162.048C362.658 162.048 362.588 162.016 362.524 161.952L362.316 161.76C362.242 161.685 362.204 161.605 362.204 161.52C362.204 161.424 362.242 161.339 362.316 161.264C362.764 160.795 363.234 160.453 363.724 160.24C364.226 160.027 364.775 159.92 365.372 159.92ZM364.796 167.36C365.564 167.36 366.199 167.157 366.7 166.752C367.202 166.347 367.452 165.829 367.452 165.2V163.856L365.964 164.144C365.271 164.283 364.722 164.416 364.316 164.544C363.911 164.672 363.586 164.859 363.34 165.104C363.095 165.349 362.972 165.669 362.972 166.064C362.972 166.469 363.132 166.789 363.452 167.024C363.783 167.248 364.231 167.36 364.796 167.36ZM371.329 158.112C371.116 158.112 370.935 158.037 370.785 157.888C370.647 157.739 370.577 157.557 370.577 157.344C370.577 157.131 370.647 156.955 370.785 156.816C370.935 156.677 371.116 156.608 371.329 156.608C371.553 156.608 371.735 156.677 371.873 156.816C372.023 156.955 372.097 157.131 372.097 157.344C372.097 157.557 372.023 157.739 371.873 157.888C371.735 158.037 371.553 158.112 371.329 158.112ZM371.121 168C370.908 168 370.801 167.893 370.801 167.68V160.432C370.801 160.219 370.908 160.112 371.121 160.112H371.537C371.751 160.112 371.857 160.219 371.857 160.432V167.68C371.857 167.893 371.751 168 371.537 168H371.121ZM377.759 167.12C377.791 167.109 377.834 167.104 377.887 167.104C377.951 167.104 378.01 167.125 378.063 167.168C378.117 167.211 378.149 167.269 378.159 167.344L378.207 167.568C378.218 167.589 378.223 167.627 378.223 167.68C378.223 167.829 378.143 167.92 377.983 167.952C377.599 168.069 377.189 168.128 376.751 168.128C376.058 168.128 375.562 167.973 375.263 167.664C374.975 167.344 374.831 166.885 374.831 166.288V160.912H373.647C373.434 160.912 373.327 160.805 373.327 160.592V160.432C373.327 160.219 373.434 160.112 373.647 160.112H374.831V157.68C374.831 157.467 374.938 157.36 375.151 157.36H375.567C375.781 157.36 375.887 157.467 375.887 157.68V160.112H377.807C378.021 160.112 378.127 160.219 378.127 160.432V160.592C378.127 160.805 378.021 160.912 377.807 160.912H375.887V166.16C375.887 166.555 375.962 166.832 376.111 166.992C376.261 167.152 376.517 167.232 376.879 167.232C377.135 167.232 377.429 167.195 377.759 167.12ZM380.483 168.112C380.259 168.112 380.067 168.032 379.907 167.872C379.747 167.712 379.667 167.52 379.667 167.296C379.667 167.072 379.747 166.88 379.907 166.72C380.067 166.56 380.259 166.48 380.483 166.48C380.707 166.48 380.899 166.56 381.059 166.72C381.219 166.88 381.299 167.072 381.299 167.296C381.299 167.52 381.219 167.712 381.059 167.872C380.899 168.032 380.707 168.112 380.483 168.112ZM383.718 168.112C383.494 168.112 383.302 168.032 383.142 167.872C382.982 167.712 382.902 167.52 382.902 167.296C382.902 167.072 382.982 166.88 383.142 166.72C383.302 166.56 383.494 166.48 383.718 166.48C383.942 166.48 384.134 166.56 384.294 166.72C384.454 166.88 384.534 167.072 384.534 167.296C384.534 167.52 384.454 167.712 384.294 167.872C384.134 168.032 383.942 168.112 383.718 168.112ZM386.952 168.112C386.728 168.112 386.536 168.032 386.376 167.872C386.216 167.712 386.136 167.52 386.136 167.296C386.136 167.072 386.216 166.88 386.376 166.72C386.536 166.56 386.728 166.48 386.952 166.48C387.176 166.48 387.368 166.56 387.528 166.72C387.688 166.88 387.768 167.072 387.768 167.296C387.768 167.52 387.688 167.712 387.528 167.872C387.368 168.032 387.176 168.112 386.952 168.112Z" fill="#1B1B1F"/>
</svg>
