<svg width="688" height="350" viewBox="0 0 688 350" fill="none" xmlns="http://www.w3.org/2000/svg">
<rect width="688" height="350" fill="#F6F6F6"/>
<rect x="144" y="80" width="400" height="190" rx="8" fill="white"/>
<path d="M344 160C344 160 318 146 318 129.5C318 125.92 319.422 122.486 321.954 119.954C324.486 117.422 327.92 116 331.5 116C337.148 116 341.985 119.077 344 124C346.015 119.077 350.852 116 356.5 116C360.08 116 363.514 117.422 366.046 119.954C368.578 122.486 370 125.92 370 129.5C370 146 344 160 344 160Z" stroke="#0063FB" stroke-width="4" stroke-linecap="round" stroke-linejoin="round"/>
<path d="M290.615 198.15C290.615 197.901 290.681 197.71 290.813 197.578C290.96 197.446 291.15 197.38 291.385 197.38H292.287C292.536 197.38 292.727 197.446 292.859 197.578C292.991 197.71 293.057 197.901 293.057 198.15V212.23C293.057 212.465 292.991 212.655 292.859 212.802C292.727 212.934 292.536 213 292.287 213H290.923C290.512 213 290.204 212.831 289.999 212.494L285.995 206.246C284.47 203.87 283.326 201.993 282.563 200.614C282.636 202.183 282.673 204.215 282.673 206.708V212.23C282.673 212.465 282.607 212.655 282.475 212.802C282.343 212.934 282.152 213 281.903 213H281.001C280.766 213 280.576 212.934 280.429 212.802C280.297 212.655 280.231 212.465 280.231 212.23V198.15C280.231 197.901 280.297 197.71 280.429 197.578C280.576 197.446 280.766 197.38 281.001 197.38H282.409C282.82 197.38 283.128 197.549 283.333 197.886L287.469 204.376C288.936 206.664 290.014 208.424 290.703 209.656C290.644 208.087 290.615 206.151 290.615 203.848V198.15ZM300.984 213.33C299.913 213.33 298.96 213.088 298.124 212.604C297.302 212.12 296.657 211.445 296.188 210.58C295.718 209.7 295.484 208.695 295.484 207.566C295.484 206.437 295.718 205.439 296.188 204.574C296.657 203.709 297.302 203.034 298.124 202.55C298.96 202.066 299.913 201.824 300.984 201.824C302.04 201.824 302.986 202.066 303.822 202.55C304.658 203.034 305.31 203.716 305.78 204.596C306.249 205.461 306.484 206.451 306.484 207.566C306.484 208.695 306.249 209.7 305.78 210.58C305.31 211.445 304.658 212.12 303.822 212.604C302.986 213.088 302.04 213.33 300.984 213.33ZM300.984 211.372C301.922 211.372 302.678 211.027 303.25 210.338C303.822 209.634 304.108 208.71 304.108 207.566C304.108 206.437 303.822 205.527 303.25 204.838C302.678 204.149 301.922 203.804 300.984 203.804C300.045 203.804 299.29 204.149 298.718 204.838C298.146 205.527 297.86 206.437 297.86 207.566C297.86 208.71 298.146 209.634 298.718 210.338C299.29 211.027 300.045 211.372 300.984 211.372ZM318.233 199.008C317.72 199.008 317.346 199.133 317.111 199.382C316.877 199.631 316.759 200.057 316.759 200.658V202.154H318.541C318.791 202.154 318.981 202.22 319.113 202.352C319.245 202.484 319.311 202.675 319.311 202.924V203.166C319.311 203.401 319.245 203.591 319.113 203.738C318.981 203.87 318.791 203.936 318.541 203.936H316.759V212.23C316.759 212.465 316.693 212.655 316.561 212.802C316.429 212.934 316.239 213 315.989 213H315.197C314.963 213 314.772 212.934 314.625 212.802C314.493 212.655 314.427 212.465 314.427 212.23V203.936H313.261C313.027 203.936 312.836 203.87 312.689 203.738C312.557 203.591 312.491 203.401 312.491 203.166V202.924C312.491 202.675 312.557 202.484 312.689 202.352C312.836 202.22 313.027 202.154 313.261 202.154H314.427V200.504C314.427 199.375 314.713 198.524 315.285 197.952C315.872 197.365 316.715 197.072 317.815 197.072C318.314 197.072 318.82 197.123 319.333 197.226C319.715 197.329 319.905 197.563 319.905 197.93C319.905 198.033 319.898 198.113 319.883 198.172L319.817 198.48C319.729 198.861 319.443 199.052 318.959 199.052L318.695 199.03C318.593 199.015 318.439 199.008 318.233 199.008ZM325.426 201.824C326.892 201.824 328.022 202.169 328.814 202.858C329.606 203.533 330.002 204.435 330.002 205.564V212.23C330.002 212.465 329.936 212.655 329.804 212.802C329.672 212.934 329.481 213 329.232 213H328.66C328.425 213 328.234 212.934 328.088 212.802C327.956 212.655 327.89 212.465 327.89 212.23V211.746C327.538 212.259 327.054 212.655 326.438 212.934C325.822 213.213 325.103 213.352 324.282 213.352C323.152 213.352 322.221 213.103 321.488 212.604C320.769 212.091 320.41 211.321 320.41 210.294C320.41 209.15 320.835 208.307 321.686 207.764C322.551 207.207 323.746 206.789 325.272 206.51L327.758 206.048V205.652C327.758 205.051 327.545 204.589 327.12 204.266C326.709 203.929 326.159 203.76 325.47 203.76C324.883 203.76 324.37 203.863 323.93 204.068C323.504 204.259 323.042 204.581 322.544 205.036C322.353 205.197 322.17 205.278 321.994 205.278C321.818 205.278 321.634 205.197 321.444 205.036L321.092 204.728C320.901 204.552 320.806 204.361 320.806 204.156C320.806 203.965 320.894 203.782 321.07 203.606C321.7 203.005 322.368 202.557 323.072 202.264C323.776 201.971 324.56 201.824 325.426 201.824ZM324.612 211.482C325.492 211.482 326.232 211.247 326.834 210.778C327.45 210.309 327.758 209.634 327.758 208.754V207.742L325.844 208.138C324.773 208.358 323.981 208.607 323.468 208.886C322.954 209.165 322.698 209.59 322.698 210.162C322.698 210.573 322.866 210.895 323.204 211.13C323.541 211.365 324.01 211.482 324.612 211.482ZM339.009 202.792C339.141 202.367 339.427 202.154 339.867 202.154H340.681C341.136 202.154 341.363 202.337 341.363 202.704C341.363 202.807 341.341 202.917 341.297 203.034L338.107 212.384C337.975 212.795 337.682 213 337.227 213H335.665C335.21 213 334.917 212.795 334.785 212.384L331.595 203.034C331.551 202.917 331.529 202.807 331.529 202.704C331.529 202.337 331.756 202.154 332.211 202.154H333.091C333.531 202.154 333.817 202.367 333.949 202.792L334.961 205.938C335.621 208.05 336.127 209.766 336.479 211.086C336.948 209.341 337.454 207.625 337.997 205.938L339.009 202.792ZM347.949 213.33C346.878 213.33 345.925 213.088 345.089 212.604C344.267 212.12 343.622 211.445 343.153 210.58C342.683 209.7 342.449 208.695 342.449 207.566C342.449 206.437 342.683 205.439 343.153 204.574C343.622 203.709 344.267 203.034 345.089 202.55C345.925 202.066 346.878 201.824 347.949 201.824C349.005 201.824 349.951 202.066 350.787 202.55C351.623 203.034 352.275 203.716 352.745 204.596C353.214 205.461 353.449 206.451 353.449 207.566C353.449 208.695 353.214 209.7 352.745 210.58C352.275 211.445 351.623 212.12 350.787 212.604C349.951 213.088 349.005 213.33 347.949 213.33ZM347.949 211.372C348.887 211.372 349.643 211.027 350.215 210.338C350.787 209.634 351.073 208.71 351.073 207.566C351.073 206.437 350.787 205.527 350.215 204.838C349.643 204.149 348.887 203.804 347.949 203.804C347.01 203.804 346.255 204.149 345.683 204.838C345.111 205.527 344.825 206.437 344.825 207.566C344.825 208.71 345.111 209.634 345.683 210.338C346.255 211.027 347.01 211.372 347.949 211.372ZM362.39 202.924C362.39 202.675 362.456 202.484 362.588 202.352C362.735 202.22 362.925 202.154 363.16 202.154H363.952C364.201 202.154 364.392 202.22 364.524 202.352C364.656 202.484 364.722 202.675 364.722 202.924V212.23C364.722 212.465 364.656 212.655 364.524 212.802C364.392 212.934 364.201 213 363.952 213H363.358C363.123 213 362.933 212.934 362.786 212.802C362.654 212.655 362.588 212.465 362.588 212.23V211.724C362.295 212.223 361.869 212.619 361.312 212.912C360.755 213.191 360.095 213.33 359.332 213.33C358.041 213.33 357.081 213.015 356.45 212.384C355.819 211.739 355.504 210.888 355.504 209.832V202.924C355.504 202.675 355.57 202.484 355.702 202.352C355.849 202.22 356.039 202.154 356.274 202.154H357.066C357.315 202.154 357.506 202.22 357.638 202.352C357.77 202.484 357.836 202.675 357.836 202.924V209.216C357.836 209.891 358.005 210.411 358.342 210.778C358.694 211.13 359.2 211.306 359.86 211.306C360.623 211.306 361.231 211.086 361.686 210.646C362.155 210.206 362.39 209.568 362.39 208.732V202.924ZM372.29 202.044C372.613 202.044 372.943 202.081 373.28 202.154C373.676 202.242 373.874 202.477 373.874 202.858C373.874 202.961 373.867 203.034 373.852 203.078L373.742 203.606C373.654 204.017 373.434 204.222 373.082 204.222L372.884 204.2C372.62 204.156 372.386 204.134 372.18 204.134C371.447 204.134 370.853 204.427 370.398 205.014C369.958 205.586 369.738 206.385 369.738 207.412V212.23C369.738 212.465 369.672 212.655 369.54 212.802C369.408 212.934 369.218 213 368.968 213H368.176C367.942 213 367.751 212.934 367.604 212.802C367.472 212.655 367.406 212.465 367.406 212.23V202.924C367.406 202.675 367.472 202.484 367.604 202.352C367.751 202.22 367.942 202.154 368.176 202.154H368.814C369.064 202.154 369.254 202.22 369.386 202.352C369.518 202.484 369.584 202.675 369.584 202.924V203.782C369.848 203.239 370.208 202.814 370.662 202.506C371.117 202.198 371.66 202.044 372.29 202.044ZM376.759 200.042C376.333 200.042 375.974 199.903 375.681 199.624C375.387 199.331 375.241 198.986 375.241 198.59C375.241 198.179 375.387 197.835 375.681 197.556C375.974 197.277 376.333 197.138 376.759 197.138C377.184 197.138 377.543 197.277 377.837 197.556C378.13 197.835 378.277 198.179 378.277 198.59C378.277 198.986 378.13 199.331 377.837 199.624C377.543 199.903 377.184 200.042 376.759 200.042ZM376.341 213C376.106 213 375.915 212.934 375.769 212.802C375.637 212.655 375.571 212.465 375.571 212.23V202.924C375.571 202.675 375.637 202.484 375.769 202.352C375.915 202.22 376.106 202.154 376.341 202.154H377.133C377.382 202.154 377.573 202.22 377.705 202.352C377.837 202.484 377.903 202.675 377.903 202.924V212.23C377.903 212.465 377.837 212.655 377.705 212.802C377.573 212.934 377.382 213 377.133 213H376.341ZM385.834 211.152C385.878 211.137 385.944 211.13 386.032 211.13C386.399 211.13 386.619 211.343 386.692 211.768L386.758 212.12C386.773 212.164 386.78 212.237 386.78 212.34C386.78 212.707 386.575 212.941 386.164 213.044C385.577 213.176 385.042 213.242 384.558 213.242C383.517 213.242 382.761 213 382.292 212.516C381.837 212.032 381.61 211.306 381.61 210.338V203.936H380.4C380.165 203.936 379.975 203.87 379.828 203.738C379.696 203.591 379.63 203.401 379.63 203.166V202.924C379.63 202.675 379.696 202.484 379.828 202.352C379.975 202.22 380.165 202.154 380.4 202.154H381.61V199.426C381.61 199.177 381.676 198.986 381.808 198.854C381.955 198.722 382.145 198.656 382.38 198.656H383.172C383.421 198.656 383.612 198.722 383.744 198.854C383.876 198.986 383.942 199.177 383.942 199.426V202.154H385.922C386.171 202.154 386.362 202.22 386.494 202.352C386.626 202.484 386.692 202.675 386.692 202.924V203.166C386.692 203.401 386.626 203.591 386.494 203.738C386.362 203.87 386.171 203.936 385.922 203.936H383.942V210.052C383.942 210.477 384.03 210.778 384.206 210.954C384.397 211.13 384.697 211.218 385.108 211.218C385.284 211.218 385.526 211.196 385.834 211.152ZM396.034 210.228C396.224 210.067 396.408 209.986 396.584 209.986C396.76 209.986 396.943 210.081 397.134 210.272L397.442 210.602C397.603 210.793 397.684 210.976 397.684 211.152C397.684 211.343 397.588 211.526 397.398 211.702C396.723 212.289 396.048 212.707 395.374 212.956C394.714 213.205 393.98 213.33 393.174 213.33C392.044 213.33 391.062 213.095 390.226 212.626C389.404 212.157 388.766 211.497 388.312 210.646C387.872 209.781 387.652 208.783 387.652 207.654C387.652 206.539 387.864 205.542 388.29 204.662C388.73 203.767 389.346 203.071 390.138 202.572C390.944 202.073 391.883 201.824 392.954 201.824C394.552 201.824 395.784 202.301 396.65 203.254C397.515 204.193 397.948 205.491 397.948 207.148V207.346C397.933 207.581 397.86 207.764 397.728 207.896C397.596 208.028 397.405 208.094 397.156 208.094H389.94C390.028 209.062 390.343 209.854 390.886 210.47C391.443 211.071 392.22 211.372 393.218 211.372C393.76 211.372 394.237 211.291 394.648 211.13C395.058 210.954 395.52 210.653 396.034 210.228ZM392.91 203.672C392.103 203.672 391.45 203.914 390.952 204.398C390.468 204.867 390.152 205.535 390.006 206.4H395.66C395.601 205.549 395.337 204.882 394.868 204.398C394.398 203.914 393.746 203.672 392.91 203.672ZM404.307 213.33C403.412 213.33 402.613 213.22 401.909 213C401.22 212.765 400.516 212.362 399.797 211.79C399.577 211.629 399.467 211.445 399.467 211.24C399.467 211.079 399.548 210.903 399.709 210.712L400.039 210.338C400.215 210.133 400.406 210.03 400.611 210.03C400.772 210.03 400.948 210.103 401.139 210.25C401.755 210.705 402.298 211.02 402.767 211.196C403.236 211.357 403.764 211.438 404.351 211.438C404.982 211.438 405.495 211.313 405.891 211.064C406.302 210.8 406.507 210.448 406.507 210.008C406.507 209.671 406.39 209.407 406.155 209.216C405.935 209.011 405.642 208.857 405.275 208.754C404.908 208.637 404.366 208.505 403.647 208.358C402.635 208.138 401.843 207.903 401.271 207.654C400.714 207.39 400.31 207.06 400.061 206.664C399.812 206.268 399.687 205.762 399.687 205.146C399.687 204.515 399.863 203.951 400.215 203.452C400.582 202.953 401.088 202.557 401.733 202.264C402.393 201.971 403.163 201.824 404.043 201.824C404.835 201.824 405.539 201.912 406.155 202.088C406.786 202.264 407.402 202.565 408.003 202.99C408.238 203.166 408.355 203.364 408.355 203.584C408.355 203.731 408.282 203.899 408.135 204.09L407.849 204.442C407.688 204.647 407.49 204.75 407.255 204.75C407.079 204.75 406.91 204.691 406.749 204.574C406.265 204.251 405.818 204.031 405.407 203.914C404.996 203.782 404.534 203.716 404.021 203.716C403.39 203.716 402.884 203.841 402.503 204.09C402.122 204.339 401.931 204.662 401.931 205.058C401.931 205.322 402.019 205.535 402.195 205.696C402.386 205.843 402.65 205.975 402.987 206.092C403.339 206.195 403.889 206.327 404.637 206.488C405.649 206.708 406.448 206.957 407.035 207.236C407.636 207.5 408.076 207.845 408.355 208.27C408.648 208.681 408.795 209.216 408.795 209.876C408.795 210.903 408.384 211.739 407.563 212.384C406.756 213.015 405.671 213.33 404.307 213.33Z" fill="#1B1B1F"/>
<path d="M206.467 228.848C206.541 228.709 206.669 228.64 206.851 228.64H207.395C207.576 228.64 207.667 228.709 207.667 228.848C207.667 228.912 207.645 228.971 207.603 229.024L203.811 235.12V239.68C203.811 239.893 203.704 240 203.491 240H202.995C202.781 240 202.675 239.893 202.675 239.68V235.104L198.915 229.024C198.872 228.971 198.851 228.912 198.851 228.848C198.851 228.709 198.941 228.64 199.123 228.64H199.683C199.864 228.64 199.992 228.709 200.067 228.848L203.267 234.112L206.467 228.848ZM210.971 240.208C210.235 240.208 209.579 240.032 209.003 239.68C208.427 239.328 207.979 238.843 207.659 238.224C207.339 237.595 207.179 236.875 207.179 236.064C207.179 235.253 207.339 234.539 207.659 233.92C207.979 233.291 208.427 232.8 209.003 232.448C209.579 232.096 210.235 231.92 210.971 231.92C211.707 231.92 212.363 232.096 212.939 232.448C213.515 232.8 213.963 233.291 214.283 233.92C214.603 234.539 214.763 235.253 214.763 236.064C214.763 236.875 214.603 237.595 214.283 238.224C213.963 238.843 213.515 239.328 212.939 239.68C212.363 240.032 211.707 240.208 210.971 240.208ZM210.971 239.328C211.793 239.328 212.449 239.029 212.939 238.432C213.43 237.824 213.675 237.035 213.675 236.064C213.675 235.093 213.43 234.309 212.939 233.712C212.449 233.104 211.793 232.8 210.971 232.8C210.15 232.8 209.494 233.104 209.003 233.712C208.513 234.309 208.267 235.093 208.267 236.064C208.267 237.035 208.513 237.824 209.003 238.432C209.494 239.029 210.15 239.328 210.971 239.328ZM221.718 232.432C221.718 232.219 221.825 232.112 222.038 232.112H222.454C222.667 232.112 222.774 232.219 222.774 232.432V239.68C222.774 239.893 222.667 240 222.454 240H222.118C221.905 240 221.798 239.893 221.798 239.68V238.96C221.563 239.376 221.227 239.691 220.79 239.904C220.363 240.107 219.894 240.208 219.382 240.208C218.422 240.208 217.713 239.968 217.254 239.488C216.795 238.997 216.566 238.368 216.566 237.6V232.432C216.566 232.219 216.673 232.112 216.886 232.112H217.302C217.515 232.112 217.622 232.219 217.622 232.432V237.376C217.622 238.005 217.777 238.485 218.086 238.816C218.406 239.136 218.859 239.296 219.446 239.296C220.107 239.296 220.651 239.093 221.078 238.688C221.505 238.283 221.718 237.707 221.718 236.96V232.432ZM232.352 231.92C233.27 231.92 233.968 232.181 234.448 232.704C234.928 233.216 235.168 233.851 235.168 234.608V239.68C235.168 239.893 235.062 240 234.848 240H234.432C234.219 240 234.112 239.893 234.112 239.68V234.96C234.112 234.256 233.942 233.723 233.6 233.36C233.259 232.997 232.768 232.816 232.128 232.816C231.723 232.816 231.35 232.917 231.008 233.12C230.667 233.312 230.395 233.579 230.192 233.92C229.99 234.261 229.888 234.635 229.888 235.04V239.68C229.888 239.893 229.782 240 229.568 240H229.152C228.939 240 228.832 239.893 228.832 239.68V228.96C228.832 228.747 228.939 228.64 229.152 228.64H229.568C229.782 228.64 229.888 228.747 229.888 228.96V233.136C230.144 232.731 230.486 232.427 230.912 232.224C231.35 232.021 231.83 231.92 232.352 231.92ZM240.544 231.92C241.515 231.92 242.272 232.155 242.816 232.624C243.36 233.083 243.632 233.691 243.632 234.448V239.68C243.632 239.893 243.526 240 243.312 240H242.992C242.779 240 242.672 239.893 242.672 239.68V238.96C242.406 239.387 242.027 239.707 241.536 239.92C241.056 240.133 240.518 240.24 239.92 240.24C239.088 240.24 238.411 240.064 237.888 239.712C237.366 239.36 237.104 238.816 237.104 238.08C237.104 237.493 237.27 237.024 237.6 236.672C237.931 236.309 238.363 236.037 238.896 235.856C239.43 235.664 240.096 235.493 240.896 235.344L242.624 235.04V234.528C242.624 233.984 242.438 233.563 242.064 233.264C241.691 232.955 241.2 232.8 240.592 232.8C240.134 232.8 239.718 232.885 239.344 233.056C238.971 233.227 238.571 233.52 238.144 233.936C238.07 234.011 237.99 234.048 237.904 234.048C237.83 234.048 237.76 234.016 237.696 233.952L237.488 233.76C237.414 233.685 237.376 233.605 237.376 233.52C237.376 233.424 237.414 233.339 237.488 233.264C237.936 232.795 238.406 232.453 238.896 232.24C239.398 232.027 239.947 231.92 240.544 231.92ZM239.968 239.36C240.736 239.36 241.371 239.157 241.872 238.752C242.374 238.347 242.624 237.829 242.624 237.2V235.856L241.136 236.144C240.443 236.283 239.894 236.416 239.488 236.544C239.083 236.672 238.758 236.859 238.512 237.104C238.267 237.349 238.144 237.669 238.144 238.064C238.144 238.469 238.304 238.789 238.624 239.024C238.955 239.248 239.403 239.36 239.968 239.36ZM250.665 232.368C250.729 232.197 250.852 232.112 251.033 232.112H251.449C251.535 232.112 251.604 232.133 251.657 232.176C251.711 232.219 251.737 232.277 251.737 232.352L251.705 232.48L249.161 239.744C249.097 239.915 248.975 240 248.793 240H247.945C247.764 240 247.641 239.915 247.577 239.744L245.049 232.48L245.017 232.352C245.017 232.277 245.044 232.219 245.097 232.176C245.151 232.133 245.22 232.112 245.305 232.112H245.737C245.919 232.112 246.041 232.197 246.105 232.368L247.081 235.184C247.487 236.357 247.919 237.707 248.377 239.232C248.399 239.168 248.457 238.987 248.553 238.688C248.991 237.248 249.369 236.08 249.689 235.184L250.665 232.368ZM258.951 238.128C259.026 238.053 259.106 238.016 259.191 238.016C259.266 238.016 259.335 238.048 259.399 238.112L259.607 238.304C259.682 238.379 259.719 238.459 259.719 238.544C259.719 238.608 259.687 238.683 259.623 238.768C259.101 239.291 258.594 239.664 258.103 239.888C257.613 240.101 257.063 240.208 256.455 240.208C255.687 240.208 255.021 240.037 254.455 239.696C253.89 239.355 253.453 238.88 253.143 238.272C252.834 237.653 252.679 236.939 252.679 236.128C252.679 235.307 252.829 234.581 253.127 233.952C253.437 233.312 253.869 232.816 254.423 232.464C254.978 232.101 255.618 231.92 256.343 231.92C257.421 231.92 258.269 232.256 258.887 232.928C259.506 233.6 259.815 234.507 259.815 235.648V235.84C259.805 235.936 259.767 236.011 259.703 236.064C259.65 236.117 259.575 236.144 259.479 236.144H253.751C253.783 237.04 254.018 237.797 254.455 238.416C254.903 239.024 255.57 239.328 256.455 239.328C256.935 239.328 257.357 239.243 257.719 239.072C258.093 238.891 258.503 238.576 258.951 238.128ZM256.343 232.8C255.639 232.8 255.058 233.019 254.599 233.456C254.151 233.883 253.879 234.512 253.783 235.344H258.759C258.738 234.565 258.514 233.947 258.087 233.488C257.661 233.029 257.079 232.8 256.343 232.8ZM265.227 231.92C266.155 231.92 266.854 232.176 267.323 232.688C267.803 233.2 268.043 233.84 268.043 234.608V239.68C268.043 239.893 267.937 240 267.723 240H267.307C267.094 240 266.987 239.893 266.987 239.68V234.96C266.987 234.256 266.817 233.723 266.475 233.36C266.134 232.997 265.643 232.816 265.003 232.816C264.598 232.816 264.225 232.917 263.883 233.12C263.542 233.312 263.27 233.579 263.067 233.92C262.865 234.261 262.763 234.635 262.763 235.04V239.68C262.763 239.893 262.657 240 262.443 240H262.027C261.814 240 261.707 239.893 261.707 239.68V232.432C261.707 232.219 261.814 232.112 262.027 232.112H262.379C262.593 232.112 262.699 232.219 262.699 232.432V233.2C262.966 232.773 263.318 232.453 263.755 232.24C264.193 232.027 264.683 231.92 265.227 231.92ZM269.981 228.576C270.258 228.576 270.482 228.683 270.653 228.896C270.834 229.099 270.925 229.403 270.925 229.808C270.925 230.224 270.807 230.629 270.573 231.024C270.338 231.408 270.013 231.659 269.597 231.776C269.575 231.787 269.543 231.792 269.501 231.792C269.426 231.792 269.362 231.765 269.309 231.712C269.266 231.648 269.245 231.573 269.245 231.488C269.245 231.445 269.266 231.408 269.309 231.376C269.362 231.333 269.426 231.296 269.501 231.264C269.703 231.168 269.874 231.013 270.013 230.8C270.162 230.576 270.247 230.331 270.269 230.064C270.173 230.107 270.071 230.128 269.965 230.128C269.751 230.128 269.57 230.059 269.421 229.92C269.271 229.771 269.197 229.584 269.197 229.36C269.197 229.136 269.271 228.949 269.421 228.8C269.581 228.651 269.767 228.576 269.981 228.576ZM276.088 239.12C276.12 239.109 276.162 239.104 276.216 239.104C276.28 239.104 276.338 239.125 276.392 239.168C276.445 239.211 276.477 239.269 276.488 239.344L276.536 239.568C276.546 239.589 276.552 239.627 276.552 239.68C276.552 239.829 276.472 239.92 276.312 239.952C275.928 240.069 275.517 240.128 275.08 240.128C274.386 240.128 273.89 239.973 273.592 239.664C273.304 239.344 273.16 238.885 273.16 238.288V232.912H271.976C271.762 232.912 271.656 232.805 271.656 232.592V232.432C271.656 232.219 271.762 232.112 271.976 232.112H273.16V229.68C273.16 229.467 273.266 229.36 273.48 229.36H273.896C274.109 229.36 274.216 229.467 274.216 229.68V232.112H276.136C276.349 232.112 276.456 232.219 276.456 232.432V232.592C276.456 232.805 276.349 232.912 276.136 232.912H274.216V238.16C274.216 238.555 274.29 238.832 274.44 238.992C274.589 239.152 274.845 239.232 275.208 239.232C275.464 239.232 275.757 239.195 276.088 239.12ZM284.506 240.208C283.856 240.208 283.28 240.117 282.778 239.936C282.288 239.744 281.77 239.424 281.226 238.976C281.13 238.912 281.082 238.837 281.082 238.752C281.082 238.677 281.12 238.603 281.194 238.528L281.402 238.304C281.466 238.219 281.546 238.176 281.642 238.176C281.717 238.176 281.786 238.208 281.85 238.272C282.362 238.667 282.816 238.944 283.21 239.104C283.605 239.253 284.037 239.328 284.506 239.328C285.093 239.328 285.573 239.2 285.946 238.944C286.32 238.677 286.506 238.32 286.506 237.872C286.506 237.424 286.314 237.093 285.93 236.88C285.546 236.667 284.954 236.475 284.154 236.304C283.45 236.155 282.896 236 282.49 235.84C282.096 235.669 281.802 235.456 281.61 235.2C281.418 234.944 281.322 234.608 281.322 234.192C281.322 233.509 281.6 232.96 282.154 232.544C282.709 232.128 283.408 231.92 284.25 231.92C284.826 231.92 285.338 231.995 285.786 232.144C286.245 232.283 286.704 232.517 287.162 232.848C287.258 232.923 287.306 233.003 287.306 233.088C287.306 233.141 287.28 233.211 287.226 233.296L287.034 233.536C286.981 233.621 286.906 233.664 286.81 233.664C286.725 233.664 286.65 233.637 286.586 233.584C286.149 233.275 285.76 233.067 285.418 232.96C285.088 232.853 284.709 232.8 284.282 232.8C283.696 232.8 283.226 232.928 282.874 233.184C282.522 233.44 282.346 233.765 282.346 234.16C282.346 234.405 282.426 234.603 282.586 234.752C282.746 234.901 282.976 235.029 283.274 235.136C283.573 235.232 284.01 235.344 284.586 235.472C285.653 235.707 286.41 235.995 286.858 236.336C287.317 236.677 287.546 237.173 287.546 237.824C287.546 238.539 287.264 239.115 286.698 239.552C286.133 239.989 285.402 240.208 284.506 240.208ZM292.435 231.92C293.406 231.92 294.163 232.155 294.707 232.624C295.251 233.083 295.523 233.691 295.523 234.448V239.68C295.523 239.893 295.416 240 295.203 240H294.883C294.67 240 294.563 239.893 294.563 239.68V238.96C294.296 239.387 293.918 239.707 293.427 239.92C292.947 240.133 292.408 240.24 291.811 240.24C290.979 240.24 290.302 240.064 289.779 239.712C289.256 239.36 288.995 238.816 288.995 238.08C288.995 237.493 289.16 237.024 289.491 236.672C289.822 236.309 290.254 236.037 290.787 235.856C291.32 235.664 291.987 235.493 292.787 235.344L294.515 235.04V234.528C294.515 233.984 294.328 233.563 293.955 233.264C293.582 232.955 293.091 232.8 292.483 232.8C292.024 232.8 291.608 232.885 291.235 233.056C290.862 233.227 290.462 233.52 290.035 233.936C289.96 234.011 289.88 234.048 289.795 234.048C289.72 234.048 289.651 234.016 289.587 233.952L289.379 233.76C289.304 233.685 289.267 233.605 289.267 233.52C289.267 233.424 289.304 233.339 289.379 233.264C289.827 232.795 290.296 232.453 290.787 232.24C291.288 232.027 291.838 231.92 292.435 231.92ZM291.859 239.36C292.627 239.36 293.262 239.157 293.763 238.752C294.264 238.347 294.515 237.829 294.515 237.2V235.856L293.027 236.144C292.334 236.283 291.784 236.416 291.379 236.544C290.974 236.672 290.648 236.859 290.403 237.104C290.158 237.349 290.035 237.669 290.035 238.064C290.035 238.469 290.195 238.789 290.515 239.024C290.846 239.248 291.294 239.36 291.859 239.36ZM302.556 232.368C302.62 232.197 302.742 232.112 302.924 232.112H303.34C303.425 232.112 303.494 232.133 303.548 232.176C303.601 232.219 303.628 232.277 303.628 232.352L303.596 232.48L301.052 239.744C300.988 239.915 300.865 240 300.684 240H299.836C299.654 240 299.532 239.915 299.468 239.744L296.94 232.48L296.908 232.352C296.908 232.277 296.934 232.219 296.988 232.176C297.041 232.133 297.11 232.112 297.196 232.112H297.628C297.809 232.112 297.932 232.197 297.996 232.368L298.972 235.184C299.377 236.357 299.809 237.707 300.268 239.232C300.289 239.168 300.348 238.987 300.444 238.688C300.881 237.248 301.26 236.08 301.58 235.184L302.556 232.368ZM310.842 238.128C310.917 238.053 310.997 238.016 311.082 238.016C311.157 238.016 311.226 238.048 311.29 238.112L311.498 238.304C311.573 238.379 311.61 238.459 311.61 238.544C311.61 238.608 311.578 238.683 311.514 238.768C310.991 239.291 310.485 239.664 309.994 239.888C309.503 240.101 308.954 240.208 308.346 240.208C307.578 240.208 306.911 240.037 306.346 239.696C305.781 239.355 305.343 238.88 305.034 238.272C304.725 237.653 304.57 236.939 304.57 236.128C304.57 235.307 304.719 234.581 305.018 233.952C305.327 233.312 305.759 232.816 306.314 232.464C306.869 232.101 307.509 231.92 308.234 231.92C309.311 231.92 310.159 232.256 310.778 232.928C311.397 233.6 311.706 234.507 311.706 235.648V235.84C311.695 235.936 311.658 236.011 311.594 236.064C311.541 236.117 311.466 236.144 311.37 236.144H305.642C305.674 237.04 305.909 237.797 306.346 238.416C306.794 239.024 307.461 239.328 308.346 239.328C308.826 239.328 309.247 239.243 309.61 239.072C309.983 238.891 310.394 238.576 310.842 238.128ZM308.234 232.8C307.53 232.8 306.949 233.019 306.49 233.456C306.042 233.883 305.77 234.512 305.674 235.344H310.65C310.629 234.565 310.405 233.947 309.978 233.488C309.551 233.029 308.97 232.8 308.234 232.8ZM319.31 228.96C319.31 228.747 319.416 228.64 319.63 228.64H320.046C320.259 228.64 320.366 228.747 320.366 228.96V239.68C320.366 239.893 320.259 240 320.046 240H319.71C319.496 240 319.39 239.893 319.39 239.68V238.64C319.102 239.141 318.723 239.525 318.254 239.792C317.784 240.059 317.23 240.192 316.59 240.192C315.918 240.192 315.32 240.021 314.798 239.68C314.275 239.328 313.864 238.843 313.566 238.224C313.267 237.595 313.118 236.875 313.118 236.064C313.118 235.253 313.267 234.539 313.566 233.92C313.875 233.291 314.296 232.805 314.83 232.464C315.363 232.112 315.96 231.936 316.622 231.936C317.838 231.936 318.734 232.389 319.31 233.296V228.96ZM316.67 239.296C317.47 239.296 318.115 239.013 318.606 238.448C319.107 237.872 319.358 237.077 319.358 236.064C319.358 235.061 319.107 234.272 318.606 233.696C318.115 233.12 317.47 232.832 316.67 232.832C315.934 232.832 315.336 233.131 314.878 233.728C314.43 234.325 314.206 235.104 314.206 236.064C314.206 237.035 314.43 237.819 314.878 238.416C315.326 239.003 315.923 239.296 316.67 239.296ZM329.466 231.92C330.437 231.92 331.194 232.155 331.738 232.624C332.282 233.083 332.554 233.691 332.554 234.448V239.68C332.554 239.893 332.448 240 332.234 240H331.914C331.701 240 331.594 239.893 331.594 239.68V238.96C331.328 239.387 330.949 239.707 330.458 239.92C329.978 240.133 329.44 240.24 328.842 240.24C328.01 240.24 327.333 240.064 326.81 239.712C326.288 239.36 326.026 238.816 326.026 238.08C326.026 237.493 326.192 237.024 326.522 236.672C326.853 236.309 327.285 236.037 327.818 235.856C328.352 235.664 329.018 235.493 329.818 235.344L331.546 235.04V234.528C331.546 233.984 331.36 233.563 330.986 233.264C330.613 232.955 330.122 232.8 329.514 232.8C329.056 232.8 328.64 232.885 328.266 233.056C327.893 233.227 327.493 233.52 327.066 233.936C326.992 234.011 326.912 234.048 326.826 234.048C326.752 234.048 326.682 234.016 326.618 233.952L326.41 233.76C326.336 233.685 326.298 233.605 326.298 233.52C326.298 233.424 326.336 233.339 326.41 233.264C326.858 232.795 327.328 232.453 327.818 232.24C328.32 232.027 328.869 231.92 329.466 231.92ZM328.89 239.36C329.658 239.36 330.293 239.157 330.794 238.752C331.296 238.347 331.546 237.829 331.546 237.2V235.856L330.058 236.144C329.365 236.283 328.816 236.416 328.41 236.544C328.005 236.672 327.68 236.859 327.434 237.104C327.189 237.349 327.066 237.669 327.066 238.064C327.066 238.469 327.226 238.789 327.546 239.024C327.877 239.248 328.325 239.36 328.89 239.36ZM338.415 231.92C339.343 231.92 340.042 232.176 340.511 232.688C340.991 233.2 341.231 233.84 341.231 234.608V239.68C341.231 239.893 341.124 240 340.911 240H340.495C340.282 240 340.175 239.893 340.175 239.68V234.96C340.175 234.256 340.004 233.723 339.663 233.36C339.322 232.997 338.831 232.816 338.191 232.816C337.786 232.816 337.412 232.917 337.071 233.12C336.73 233.312 336.458 233.579 336.255 233.92C336.052 234.261 335.951 234.635 335.951 235.04V239.68C335.951 239.893 335.844 240 335.631 240H335.215C335.002 240 334.895 239.893 334.895 239.68V232.432C334.895 232.219 335.002 232.112 335.215 232.112H335.567C335.78 232.112 335.887 232.219 335.887 232.432V233.2C336.154 232.773 336.506 232.453 336.943 232.24C337.38 232.027 337.871 231.92 338.415 231.92ZM348.244 232.368C348.308 232.197 348.431 232.112 348.612 232.112H349.044C349.129 232.112 349.199 232.133 349.252 232.176C349.305 232.219 349.332 232.277 349.332 232.352L349.3 232.48L346.212 241.2C346.041 241.68 345.876 242.053 345.716 242.32C345.556 242.587 345.337 242.789 345.06 242.928C344.793 243.067 344.441 243.136 344.004 243.136C343.727 243.136 343.481 243.115 343.268 243.072C343.161 243.061 343.087 243.019 343.044 242.944C343.012 242.869 343.007 242.784 343.028 242.688L343.076 242.48C343.119 242.288 343.241 242.203 343.444 242.224C343.636 242.256 343.801 242.272 343.94 242.272C344.281 242.272 344.548 242.176 344.74 241.984C344.943 241.792 345.135 241.429 345.316 240.896L345.46 240.448L342.644 232.48L342.612 232.352C342.612 232.277 342.639 232.219 342.692 232.176C342.745 232.133 342.815 232.112 342.9 232.112H343.364C343.535 232.112 343.652 232.197 343.716 232.368L344.612 235.008C344.697 235.275 344.911 235.909 345.252 236.912L345.972 239.072C346.324 238.08 346.788 236.715 347.364 234.976L348.244 232.368ZM354.985 230.112C354.772 230.112 354.591 230.037 354.441 229.888C354.303 229.739 354.233 229.557 354.233 229.344C354.233 229.131 354.303 228.955 354.441 228.816C354.591 228.677 354.772 228.608 354.985 228.608C355.209 228.608 355.391 228.677 355.529 228.816C355.679 228.955 355.753 229.131 355.753 229.344C355.753 229.557 355.679 229.739 355.529 229.888C355.391 230.037 355.209 230.112 354.985 230.112ZM354.777 240C354.564 240 354.457 239.893 354.457 239.68V232.432C354.457 232.219 354.564 232.112 354.777 232.112H355.193C355.407 232.112 355.513 232.219 355.513 232.432V239.68C355.513 239.893 355.407 240 355.193 240H354.777ZM361.416 239.12C361.448 239.109 361.49 239.104 361.544 239.104C361.608 239.104 361.666 239.125 361.72 239.168C361.773 239.211 361.805 239.269 361.816 239.344L361.864 239.568C361.874 239.589 361.88 239.627 361.88 239.68C361.88 239.829 361.8 239.92 361.64 239.952C361.256 240.069 360.845 240.128 360.408 240.128C359.714 240.128 359.218 239.973 358.92 239.664C358.632 239.344 358.488 238.885 358.488 238.288V232.912H357.304C357.09 232.912 356.984 232.805 356.984 232.592V232.432C356.984 232.219 357.09 232.112 357.304 232.112H358.488V229.68C358.488 229.467 358.594 229.36 358.808 229.36H359.224C359.437 229.36 359.544 229.467 359.544 229.68V232.112H361.464C361.677 232.112 361.784 232.219 361.784 232.432V232.592C361.784 232.805 361.677 232.912 361.464 232.912H359.544V238.16C359.544 238.555 359.618 238.832 359.768 238.992C359.917 239.152 360.173 239.232 360.536 239.232C360.792 239.232 361.085 239.195 361.416 239.12ZM368.842 238.128C368.917 238.053 368.997 238.016 369.082 238.016C369.157 238.016 369.226 238.048 369.29 238.112L369.498 238.304C369.573 238.379 369.61 238.459 369.61 238.544C369.61 238.608 369.578 238.683 369.514 238.768C368.991 239.291 368.485 239.664 367.994 239.888C367.503 240.101 366.954 240.208 366.346 240.208C365.578 240.208 364.911 240.037 364.346 239.696C363.781 239.355 363.343 238.88 363.034 238.272C362.725 237.653 362.57 236.939 362.57 236.128C362.57 235.307 362.719 234.581 363.018 233.952C363.327 233.312 363.759 232.816 364.314 232.464C364.869 232.101 365.509 231.92 366.234 231.92C367.311 231.92 368.159 232.256 368.778 232.928C369.397 233.6 369.706 234.507 369.706 235.648V235.84C369.695 235.936 369.658 236.011 369.594 236.064C369.541 236.117 369.466 236.144 369.37 236.144H363.642C363.674 237.04 363.909 237.797 364.346 238.416C364.794 239.024 365.461 239.328 366.346 239.328C366.826 239.328 367.247 239.243 367.61 239.072C367.983 238.891 368.394 238.576 368.842 238.128ZM366.234 232.8C365.53 232.8 364.949 233.019 364.49 233.456C364.042 233.883 363.77 234.512 363.674 235.344H368.65C368.629 234.565 368.405 233.947 367.978 233.488C367.551 233.029 366.97 232.8 366.234 232.8ZM379.614 231.92C380.467 231.92 381.118 232.165 381.566 232.656C382.025 233.136 382.254 233.755 382.254 234.512V239.68C382.254 239.893 382.147 240 381.934 240H381.518C381.305 240 381.198 239.893 381.198 239.68V234.8C381.198 234.16 381.049 233.669 380.75 233.328C380.462 232.987 380.03 232.816 379.454 232.816C378.846 232.816 378.361 233.019 377.998 233.424C377.635 233.829 377.454 234.352 377.454 234.992V239.68C377.454 239.893 377.347 240 377.134 240H376.718C376.505 240 376.398 239.893 376.398 239.68V234.8C376.398 234.16 376.249 233.669 375.95 233.328C375.662 232.987 375.225 232.816 374.638 232.816C374.094 232.816 373.641 232.987 373.278 233.328C372.926 233.669 372.718 234.117 372.654 234.672V239.68C372.654 239.893 372.547 240 372.334 240H371.918C371.705 240 371.598 239.893 371.598 239.68V232.432C371.598 232.219 371.705 232.112 371.918 232.112H372.27C372.483 232.112 372.59 232.219 372.59 232.432V233.088C373.07 232.309 373.833 231.92 374.878 231.92C375.422 231.92 375.886 232.043 376.27 232.288C376.665 232.523 376.958 232.843 377.15 233.248C377.715 232.363 378.537 231.92 379.614 231.92ZM387.334 240.208C386.684 240.208 386.108 240.117 385.606 239.936C385.116 239.744 384.598 239.424 384.054 238.976C383.958 238.912 383.91 238.837 383.91 238.752C383.91 238.677 383.948 238.603 384.022 238.528L384.23 238.304C384.294 238.219 384.374 238.176 384.47 238.176C384.545 238.176 384.614 238.208 384.678 238.272C385.19 238.667 385.644 238.944 386.038 239.104C386.433 239.253 386.865 239.328 387.334 239.328C387.921 239.328 388.401 239.2 388.774 238.944C389.148 238.677 389.334 238.32 389.334 237.872C389.334 237.424 389.142 237.093 388.758 236.88C388.374 236.667 387.782 236.475 386.982 236.304C386.278 236.155 385.724 236 385.318 235.84C384.924 235.669 384.63 235.456 384.438 235.2C384.246 234.944 384.15 234.608 384.15 234.192C384.15 233.509 384.428 232.96 384.982 232.544C385.537 232.128 386.236 231.92 387.078 231.92C387.654 231.92 388.166 231.995 388.614 232.144C389.073 232.283 389.532 232.517 389.99 232.848C390.086 232.923 390.134 233.003 390.134 233.088C390.134 233.141 390.108 233.211 390.054 233.296L389.862 233.536C389.809 233.621 389.734 233.664 389.638 233.664C389.553 233.664 389.478 233.637 389.414 233.584C388.977 233.275 388.588 233.067 388.246 232.96C387.916 232.853 387.537 232.8 387.11 232.8C386.524 232.8 386.054 232.928 385.702 233.184C385.35 233.44 385.174 233.765 385.174 234.16C385.174 234.405 385.254 234.603 385.414 234.752C385.574 234.901 385.804 235.029 386.102 235.136C386.401 235.232 386.838 235.344 387.414 235.472C388.481 235.707 389.238 235.995 389.686 236.336C390.145 236.677 390.374 237.173 390.374 237.824C390.374 238.539 390.092 239.115 389.526 239.552C388.961 239.989 388.23 240.208 387.334 240.208ZM399.4 239.12C399.432 239.109 399.475 239.104 399.528 239.104C399.592 239.104 399.651 239.125 399.704 239.168C399.757 239.211 399.789 239.269 399.8 239.344L399.848 239.568C399.859 239.589 399.864 239.627 399.864 239.68C399.864 239.829 399.784 239.92 399.624 239.952C399.24 240.069 398.829 240.128 398.392 240.128C397.699 240.128 397.203 239.973 396.904 239.664C396.616 239.344 396.472 238.885 396.472 238.288V232.912H395.288C395.075 232.912 394.968 232.805 394.968 232.592V232.432C394.968 232.219 395.075 232.112 395.288 232.112H396.472V229.68C396.472 229.467 396.579 229.36 396.792 229.36H397.208C397.421 229.36 397.528 229.467 397.528 229.68V232.112H399.448C399.661 232.112 399.768 232.219 399.768 232.432V232.592C399.768 232.805 399.661 232.912 399.448 232.912H397.528V238.16C397.528 238.555 397.603 238.832 397.752 238.992C397.901 239.152 398.157 239.232 398.52 239.232C398.776 239.232 399.069 239.195 399.4 239.12ZM404.346 240.208C403.61 240.208 402.954 240.032 402.378 239.68C401.802 239.328 401.354 238.843 401.034 238.224C400.714 237.595 400.554 236.875 400.554 236.064C400.554 235.253 400.714 234.539 401.034 233.92C401.354 233.291 401.802 232.8 402.378 232.448C402.954 232.096 403.61 231.92 404.346 231.92C405.082 231.92 405.738 232.096 406.314 232.448C406.89 232.8 407.338 233.291 407.658 233.92C407.978 234.539 408.138 235.253 408.138 236.064C408.138 236.875 407.978 237.595 407.658 238.224C407.338 238.843 406.89 239.328 406.314 239.68C405.738 240.032 405.082 240.208 404.346 240.208ZM404.346 239.328C405.168 239.328 405.824 239.029 406.314 238.432C406.805 237.824 407.05 237.035 407.05 236.064C407.05 235.093 406.805 234.309 406.314 233.712C405.824 233.104 405.168 232.8 404.346 232.8C403.525 232.8 402.869 233.104 402.378 233.712C401.888 234.309 401.642 235.093 401.642 236.064C401.642 237.035 401.888 237.824 402.378 238.432C402.869 239.029 403.525 239.328 404.346 239.328ZM417.213 239.12C417.245 239.109 417.287 239.104 417.341 239.104C417.405 239.104 417.463 239.125 417.517 239.168C417.57 239.211 417.602 239.269 417.613 239.344L417.661 239.568C417.671 239.589 417.677 239.627 417.677 239.68C417.677 239.829 417.597 239.92 417.437 239.952C417.053 240.069 416.642 240.128 416.205 240.128C415.511 240.128 415.015 239.973 414.717 239.664C414.429 239.344 414.285 238.885 414.285 238.288V232.912H413.101C412.887 232.912 412.781 232.805 412.781 232.592V232.432C412.781 232.219 412.887 232.112 413.101 232.112H414.285V229.68C414.285 229.467 414.391 229.36 414.605 229.36H415.021C415.234 229.36 415.341 229.467 415.341 229.68V232.112H417.261C417.474 232.112 417.581 232.219 417.581 232.432V232.592C417.581 232.805 417.474 232.912 417.261 232.912H415.341V238.16C415.341 238.555 415.415 238.832 415.565 238.992C415.714 239.152 415.97 239.232 416.333 239.232C416.589 239.232 416.882 239.195 417.213 239.12ZM422.712 231.92C423.629 231.92 424.328 232.181 424.808 232.704C425.288 233.216 425.528 233.851 425.528 234.608V239.68C425.528 239.893 425.421 240 425.208 240H424.792C424.578 240 424.472 239.893 424.472 239.68V234.96C424.472 234.256 424.301 233.723 423.96 233.36C423.618 232.997 423.128 232.816 422.488 232.816C422.082 232.816 421.709 232.917 421.368 233.12C421.026 233.312 420.754 233.579 420.552 233.92C420.349 234.261 420.248 234.635 420.248 235.04V239.68C420.248 239.893 420.141 240 419.928 240H419.512C419.298 240 419.192 239.893 419.192 239.68V228.96C419.192 228.747 419.298 228.64 419.512 228.64H419.928C420.141 228.64 420.248 228.747 420.248 228.96V233.136C420.504 232.731 420.845 232.427 421.272 232.224C421.709 232.021 422.189 231.92 422.712 231.92ZM428.392 230.112C428.178 230.112 427.997 230.037 427.848 229.888C427.709 229.739 427.64 229.557 427.64 229.344C427.64 229.131 427.709 228.955 427.848 228.816C427.997 228.677 428.178 228.608 428.392 228.608C428.616 228.608 428.797 228.677 428.936 228.816C429.085 228.955 429.16 229.131 429.16 229.344C429.16 229.557 429.085 229.739 428.936 229.888C428.797 230.037 428.616 230.112 428.392 230.112ZM428.184 240C427.97 240 427.864 239.893 427.864 239.68V232.432C427.864 232.219 427.97 232.112 428.184 232.112H428.6C428.813 232.112 428.92 232.219 428.92 232.432V239.68C428.92 239.893 428.813 240 428.6 240H428.184ZM434.022 240.208C433.371 240.208 432.795 240.117 432.294 239.936C431.803 239.744 431.286 239.424 430.742 238.976C430.646 238.912 430.598 238.837 430.598 238.752C430.598 238.677 430.635 238.603 430.71 238.528L430.918 238.304C430.982 238.219 431.062 238.176 431.158 238.176C431.233 238.176 431.302 238.208 431.366 238.272C431.878 238.667 432.331 238.944 432.726 239.104C433.121 239.253 433.553 239.328 434.022 239.328C434.609 239.328 435.089 239.2 435.462 238.944C435.835 238.677 436.022 238.32 436.022 237.872C436.022 237.424 435.83 237.093 435.446 236.88C435.062 236.667 434.47 236.475 433.67 236.304C432.966 236.155 432.411 236 432.006 235.84C431.611 235.669 431.318 235.456 431.126 235.2C430.934 234.944 430.838 234.608 430.838 234.192C430.838 233.509 431.115 232.96 431.67 232.544C432.225 232.128 432.923 231.92 433.766 231.92C434.342 231.92 434.854 231.995 435.302 232.144C435.761 232.283 436.219 232.517 436.678 232.848C436.774 232.923 436.822 233.003 436.822 233.088C436.822 233.141 436.795 233.211 436.742 233.296L436.55 233.536C436.497 233.621 436.422 233.664 436.326 233.664C436.241 233.664 436.166 233.637 436.102 233.584C435.665 233.275 435.275 233.067 434.934 232.96C434.603 232.853 434.225 232.8 433.798 232.8C433.211 232.8 432.742 232.928 432.39 233.184C432.038 233.44 431.862 233.765 431.862 234.16C431.862 234.405 431.942 234.603 432.102 234.752C432.262 234.901 432.491 235.029 432.79 235.136C433.089 235.232 433.526 235.344 434.102 235.472C435.169 235.707 435.926 235.995 436.374 236.336C436.833 236.677 437.062 237.173 437.062 237.824C437.062 238.539 436.779 239.115 436.214 239.552C435.649 239.989 434.918 240.208 434.022 240.208ZM442.872 240C442.658 240 442.552 239.893 442.552 239.68V228.96C442.552 228.747 442.658 228.64 442.872 228.64H443.288C443.501 228.64 443.608 228.747 443.608 228.96V239.68C443.608 239.893 443.501 240 443.288 240H442.872ZM446.517 230.112C446.303 230.112 446.122 230.037 445.973 229.888C445.834 229.739 445.765 229.557 445.765 229.344C445.765 229.131 445.834 228.955 445.973 228.816C446.122 228.677 446.303 228.608 446.517 228.608C446.741 228.608 446.922 228.677 447.061 228.816C447.21 228.955 447.285 229.131 447.285 229.344C447.285 229.557 447.21 229.739 447.061 229.888C446.922 230.037 446.741 230.112 446.517 230.112ZM446.309 240C446.095 240 445.989 239.893 445.989 239.68V232.432C445.989 232.219 446.095 232.112 446.309 232.112H446.725C446.938 232.112 447.045 232.219 447.045 232.432V239.68C447.045 239.893 446.938 240 446.725 240H446.309ZM452.147 240.208C451.496 240.208 450.92 240.117 450.419 239.936C449.928 239.744 449.411 239.424 448.867 238.976C448.771 238.912 448.723 238.837 448.723 238.752C448.723 238.677 448.76 238.603 448.835 238.528L449.043 238.304C449.107 238.219 449.187 238.176 449.283 238.176C449.358 238.176 449.427 238.208 449.491 238.272C450.003 238.667 450.456 238.944 450.851 239.104C451.246 239.253 451.678 239.328 452.147 239.328C452.734 239.328 453.214 239.2 453.587 238.944C453.96 238.677 454.147 238.32 454.147 237.872C454.147 237.424 453.955 237.093 453.571 236.88C453.187 236.667 452.595 236.475 451.795 236.304C451.091 236.155 450.536 236 450.131 235.84C449.736 235.669 449.443 235.456 449.251 235.2C449.059 234.944 448.963 234.608 448.963 234.192C448.963 233.509 449.24 232.96 449.795 232.544C450.35 232.128 451.048 231.92 451.891 231.92C452.467 231.92 452.979 231.995 453.427 232.144C453.886 232.283 454.344 232.517 454.803 232.848C454.899 232.923 454.947 233.003 454.947 233.088C454.947 233.141 454.92 233.211 454.867 233.296L454.675 233.536C454.622 233.621 454.547 233.664 454.451 233.664C454.366 233.664 454.291 233.637 454.227 233.584C453.79 233.275 453.4 233.067 453.059 232.96C452.728 232.853 452.35 232.8 451.923 232.8C451.336 232.8 450.867 232.928 450.515 233.184C450.163 233.44 449.987 233.765 449.987 234.16C449.987 234.405 450.067 234.603 450.227 234.752C450.387 234.901 450.616 235.029 450.915 235.136C451.214 235.232 451.651 235.344 452.227 235.472C453.294 235.707 454.051 235.995 454.499 236.336C454.958 236.677 455.187 237.173 455.187 237.824C455.187 238.539 454.904 239.115 454.339 239.552C453.774 239.989 453.043 240.208 452.147 240.208ZM460.494 239.12C460.526 239.109 460.568 239.104 460.622 239.104C460.686 239.104 460.744 239.125 460.798 239.168C460.851 239.211 460.883 239.269 460.894 239.344L460.942 239.568C460.952 239.589 460.958 239.627 460.958 239.68C460.958 239.829 460.878 239.92 460.718 239.952C460.334 240.069 459.923 240.128 459.486 240.128C458.792 240.128 458.296 239.973 457.998 239.664C457.71 239.344 457.566 238.885 457.566 238.288V232.912H456.382C456.168 232.912 456.062 232.805 456.062 232.592V232.432C456.062 232.219 456.168 232.112 456.382 232.112H457.566V229.68C457.566 229.467 457.672 229.36 457.886 229.36H458.302C458.515 229.36 458.622 229.467 458.622 229.68V232.112H460.542C460.755 232.112 460.862 232.219 460.862 232.432V232.592C460.862 232.805 460.755 232.912 460.542 232.912H458.622V238.16C458.622 238.555 458.696 238.832 458.846 238.992C458.995 239.152 459.251 239.232 459.614 239.232C459.87 239.232 460.163 239.195 460.494 239.12ZM470.9 232.368C470.964 232.197 471.087 232.112 471.268 232.112H471.7C471.786 232.112 471.855 232.133 471.908 232.176C471.962 232.219 471.988 232.277 471.988 232.352L471.956 232.48L468.868 241.2C468.698 241.68 468.532 242.053 468.372 242.32C468.212 242.587 467.994 242.789 467.716 242.928C467.45 243.067 467.098 243.136 466.66 243.136C466.383 243.136 466.138 243.115 465.924 243.072C465.818 243.061 465.743 243.019 465.7 242.944C465.668 242.869 465.663 242.784 465.684 242.688L465.732 242.48C465.775 242.288 465.898 242.203 466.1 242.224C466.292 242.256 466.458 242.272 466.596 242.272C466.938 242.272 467.204 242.176 467.396 241.984C467.599 241.792 467.791 241.429 467.972 240.896L468.116 240.448L465.3 232.48L465.268 232.352C465.268 232.277 465.295 232.219 465.348 232.176C465.402 232.133 465.471 232.112 465.556 232.112H466.02C466.191 232.112 466.308 232.197 466.372 232.368L467.268 235.008C467.354 235.275 467.567 235.909 467.908 236.912L468.628 239.072C468.98 238.08 469.444 236.715 470.02 234.976L470.9 232.368ZM479.201 238.128C479.276 238.053 479.356 238.016 479.441 238.016C479.516 238.016 479.585 238.048 479.649 238.112L479.857 238.304C479.932 238.379 479.969 238.459 479.969 238.544C479.969 238.608 479.937 238.683 479.873 238.768C479.351 239.291 478.844 239.664 478.353 239.888C477.863 240.101 477.313 240.208 476.705 240.208C475.937 240.208 475.271 240.037 474.705 239.696C474.14 239.355 473.703 238.88 473.393 238.272C473.084 237.653 472.929 236.939 472.929 236.128C472.929 235.307 473.079 234.581 473.377 233.952C473.687 233.312 474.119 232.816 474.673 232.464C475.228 232.101 475.868 231.92 476.593 231.92C477.671 231.92 478.519 232.256 479.137 232.928C479.756 233.6 480.065 234.507 480.065 235.648V235.84C480.055 235.936 480.017 236.011 479.953 236.064C479.9 236.117 479.825 236.144 479.729 236.144H474.001C474.033 237.04 474.268 237.797 474.705 238.416C475.153 239.024 475.82 239.328 476.705 239.328C477.185 239.328 477.607 239.243 477.969 239.072C478.343 238.891 478.753 238.576 479.201 238.128ZM476.593 232.8C475.889 232.8 475.308 233.019 474.849 233.456C474.401 233.883 474.129 234.512 474.033 235.344H479.009C478.988 234.565 478.764 233.947 478.337 233.488C477.911 233.029 477.329 232.8 476.593 232.8ZM485.431 239.12C485.463 239.109 485.506 239.104 485.559 239.104C485.623 239.104 485.682 239.125 485.735 239.168C485.789 239.211 485.821 239.269 485.831 239.344L485.879 239.568C485.89 239.589 485.895 239.627 485.895 239.68C485.895 239.829 485.815 239.92 485.655 239.952C485.271 240.069 484.861 240.128 484.423 240.128C483.73 240.128 483.234 239.973 482.935 239.664C482.647 239.344 482.503 238.885 482.503 238.288V232.912H481.319C481.106 232.912 480.999 232.805 480.999 232.592V232.432C480.999 232.219 481.106 232.112 481.319 232.112H482.503V229.68C482.503 229.467 482.61 229.36 482.823 229.36H483.239C483.453 229.36 483.559 229.467 483.559 229.68V232.112H485.479C485.693 232.112 485.799 232.219 485.799 232.432V232.592C485.799 232.805 485.693 232.912 485.479 232.912H483.559V238.16C483.559 238.555 483.634 238.832 483.783 238.992C483.933 239.152 484.189 239.232 484.551 239.232C484.807 239.232 485.101 239.195 485.431 239.12ZM488.155 240.112C487.931 240.112 487.739 240.032 487.579 239.872C487.419 239.712 487.339 239.52 487.339 239.296C487.339 239.072 487.419 238.88 487.579 238.72C487.739 238.56 487.931 238.48 488.155 238.48C488.379 238.48 488.571 238.56 488.731 238.72C488.891 238.88 488.971 239.072 488.971 239.296C488.971 239.52 488.891 239.712 488.731 239.872C488.571 240.032 488.379 240.112 488.155 240.112Z" fill="#1B1B1F"/>
</svg>
