<svg width="688" height="372" viewBox="0 0 688 372" fill="none" xmlns="http://www.w3.org/2000/svg">
<rect width="688" height="372" fill="#F6F6F6"/>
<rect x="144" y="80" width="400" height="212" rx="8" fill="white"/>
<path d="M336.001 132H352.001M336.001 140H352.001M331.983 156.778C337.024 159.696 342.955 160.68 348.669 159.548C354.382 158.417 359.49 155.245 363.038 150.626C366.586 146.007 368.334 140.255 367.954 134.443C367.575 128.63 365.094 123.154 360.976 119.035C356.857 114.917 351.381 112.436 345.568 112.057C339.756 111.677 334.004 113.425 329.385 116.973C324.766 120.521 321.594 125.629 320.463 131.342C319.331 137.056 320.315 142.986 323.233 148.028L320.106 157.365C319.988 157.718 319.971 158.096 320.056 158.457C320.142 158.819 320.326 159.15 320.589 159.412C320.851 159.675 321.182 159.859 321.544 159.945C321.905 160.03 322.283 160.013 322.636 159.895L331.983 156.778Z" stroke="#0063FB" stroke-width="4" stroke-linecap="round" stroke-linejoin="round"/>
<path d="M290.25 198.15C290.25 197.901 290.316 197.71 290.448 197.578C290.595 197.446 290.785 197.38 291.02 197.38H291.922C292.171 197.38 292.362 197.446 292.494 197.578C292.626 197.71 292.692 197.901 292.692 198.15V212.23C292.692 212.465 292.626 212.655 292.494 212.802C292.362 212.934 292.171 213 291.922 213H290.558C290.147 213 289.839 212.831 289.634 212.494L285.63 206.246C284.105 203.87 282.961 201.993 282.198 200.614C282.271 202.183 282.308 204.215 282.308 206.708V212.23C282.308 212.465 282.242 212.655 282.11 212.802C281.978 212.934 281.787 213 281.538 213H280.636C280.401 213 280.211 212.934 280.064 212.802C279.932 212.655 279.866 212.465 279.866 212.23V198.15C279.866 197.901 279.932 197.71 280.064 197.578C280.211 197.446 280.401 197.38 280.636 197.38H282.044C282.455 197.38 282.763 197.549 282.968 197.886L287.104 204.376C288.571 206.664 289.649 208.424 290.338 209.656C290.279 208.087 290.25 206.151 290.25 203.848V198.15ZM300.619 213.33C299.548 213.33 298.595 213.088 297.759 212.604C296.937 212.12 296.292 211.445 295.823 210.58C295.353 209.7 295.119 208.695 295.119 207.566C295.119 206.437 295.353 205.439 295.823 204.574C296.292 203.709 296.937 203.034 297.759 202.55C298.595 202.066 299.548 201.824 300.619 201.824C301.675 201.824 302.621 202.066 303.457 202.55C304.293 203.034 304.945 203.716 305.415 204.596C305.884 205.461 306.119 206.451 306.119 207.566C306.119 208.695 305.884 209.7 305.415 210.58C304.945 211.445 304.293 212.12 303.457 212.604C302.621 213.088 301.675 213.33 300.619 213.33ZM300.619 211.372C301.557 211.372 302.313 211.027 302.885 210.338C303.457 209.634 303.743 208.71 303.743 207.566C303.743 206.437 303.457 205.527 302.885 204.838C302.313 204.149 301.557 203.804 300.619 203.804C299.68 203.804 298.925 204.149 298.353 204.838C297.781 205.527 297.495 206.437 297.495 207.566C297.495 208.71 297.781 209.634 298.353 210.338C298.925 211.027 299.68 211.372 300.619 211.372ZM324.732 201.824C325.891 201.824 326.785 202.154 327.416 202.814C328.047 203.459 328.362 204.332 328.362 205.432V212.23C328.362 212.465 328.296 212.655 328.164 212.802C328.032 212.934 327.841 213 327.592 213H326.8C326.565 213 326.375 212.934 326.228 212.802C326.096 212.655 326.03 212.465 326.03 212.23V206.136C326.03 205.417 325.869 204.853 325.546 204.442C325.223 204.031 324.732 203.826 324.072 203.826C323.397 203.826 322.862 204.053 322.466 204.508C322.085 204.963 321.894 205.549 321.894 206.268V212.23C321.894 212.465 321.828 212.655 321.696 212.802C321.564 212.934 321.373 213 321.124 213H320.332C320.097 213 319.907 212.934 319.76 212.802C319.628 212.655 319.562 212.465 319.562 212.23V206.136C319.562 205.417 319.401 204.853 319.078 204.442C318.77 204.031 318.286 203.826 317.626 203.826C316.981 203.826 316.46 204.039 316.064 204.464C315.668 204.889 315.455 205.439 315.426 206.114V212.23C315.426 212.465 315.36 212.655 315.228 212.802C315.096 212.934 314.905 213 314.656 213H313.864C313.629 213 313.439 212.934 313.292 212.802C313.16 212.655 313.094 212.465 313.094 212.23V202.924C313.094 202.675 313.16 202.484 313.292 202.352C313.439 202.22 313.629 202.154 313.864 202.154H314.502C314.751 202.154 314.942 202.22 315.074 202.352C315.206 202.484 315.272 202.675 315.272 202.924V203.408C315.947 202.352 316.988 201.824 318.396 201.824C319.1 201.824 319.716 201.971 320.244 202.264C320.772 202.557 321.175 202.968 321.454 203.496C322.202 202.381 323.295 201.824 324.732 201.824ZM338.799 210.228C338.99 210.067 339.173 209.986 339.349 209.986C339.525 209.986 339.709 210.081 339.899 210.272L340.207 210.602C340.369 210.793 340.449 210.976 340.449 211.152C340.449 211.343 340.354 211.526 340.163 211.702C339.489 212.289 338.814 212.707 338.139 212.956C337.479 213.205 336.746 213.33 335.939 213.33C334.81 213.33 333.827 213.095 332.991 212.626C332.17 212.157 331.532 211.497 331.077 210.646C330.637 209.781 330.417 208.783 330.417 207.654C330.417 206.539 330.63 205.542 331.055 204.662C331.495 203.767 332.111 203.071 332.903 202.572C333.71 202.073 334.649 201.824 335.719 201.824C337.318 201.824 338.55 202.301 339.415 203.254C340.281 204.193 340.713 205.491 340.713 207.148V207.346C340.699 207.581 340.625 207.764 340.493 207.896C340.361 208.028 340.171 208.094 339.921 208.094H332.705C332.793 209.062 333.109 209.854 333.651 210.47C334.209 211.071 334.986 211.372 335.983 211.372C336.526 211.372 337.003 211.291 337.413 211.13C337.824 210.954 338.286 210.653 338.799 210.228ZM335.675 203.672C334.869 203.672 334.216 203.914 333.717 204.398C333.233 204.867 332.918 205.535 332.771 206.4H338.425C338.367 205.549 338.103 204.882 337.633 204.398C337.164 203.914 336.511 203.672 335.675 203.672ZM347.073 213.33C346.178 213.33 345.379 213.22 344.675 213C343.985 212.765 343.281 212.362 342.563 211.79C342.343 211.629 342.233 211.445 342.233 211.24C342.233 211.079 342.313 210.903 342.475 210.712L342.805 210.338C342.981 210.133 343.171 210.03 343.377 210.03C343.538 210.03 343.714 210.103 343.905 210.25C344.521 210.705 345.063 211.02 345.533 211.196C346.002 211.357 346.53 211.438 347.117 211.438C347.747 211.438 348.261 211.313 348.657 211.064C349.067 210.8 349.273 210.448 349.273 210.008C349.273 209.671 349.155 209.407 348.921 209.216C348.701 209.011 348.407 208.857 348.041 208.754C347.674 208.637 347.131 208.505 346.413 208.358C345.401 208.138 344.609 207.903 344.037 207.654C343.479 207.39 343.076 207.06 342.827 206.664C342.577 206.268 342.453 205.762 342.453 205.146C342.453 204.515 342.629 203.951 342.981 203.452C343.347 202.953 343.853 202.557 344.499 202.264C345.159 201.971 345.929 201.824 346.809 201.824C347.601 201.824 348.305 201.912 348.921 202.088C349.551 202.264 350.167 202.565 350.769 202.99C351.003 203.166 351.121 203.364 351.121 203.584C351.121 203.731 351.047 203.899 350.901 204.09L350.615 204.442C350.453 204.647 350.255 204.75 350.021 204.75C349.845 204.75 349.676 204.691 349.515 204.574C349.031 204.251 348.583 204.031 348.173 203.914C347.762 203.782 347.3 203.716 346.787 203.716C346.156 203.716 345.65 203.841 345.269 204.09C344.887 204.339 344.697 204.662 344.697 205.058C344.697 205.322 344.785 205.535 344.961 205.696C345.151 205.843 345.415 205.975 345.753 206.092C346.105 206.195 346.655 206.327 347.403 206.488C348.415 206.708 349.214 206.957 349.801 207.236C350.402 207.5 350.842 207.845 351.121 208.27C351.414 208.681 351.561 209.216 351.561 209.876C351.561 210.903 351.15 211.739 350.329 212.384C349.522 213.015 348.437 213.33 347.073 213.33ZM357.751 213.33C356.856 213.33 356.057 213.22 355.353 213C354.663 212.765 353.959 212.362 353.241 211.79C353.021 211.629 352.911 211.445 352.911 211.24C352.911 211.079 352.991 210.903 353.153 210.712L353.483 210.338C353.659 210.133 353.849 210.03 354.055 210.03C354.216 210.03 354.392 210.103 354.583 210.25C355.199 210.705 355.741 211.02 356.211 211.196C356.68 211.357 357.208 211.438 357.795 211.438C358.425 211.438 358.939 211.313 359.335 211.064C359.745 210.8 359.951 210.448 359.951 210.008C359.951 209.671 359.833 209.407 359.599 209.216C359.379 209.011 359.085 208.857 358.719 208.754C358.352 208.637 357.809 208.505 357.091 208.358C356.079 208.138 355.287 207.903 354.715 207.654C354.157 207.39 353.754 207.06 353.505 206.664C353.255 206.268 353.131 205.762 353.131 205.146C353.131 204.515 353.307 203.951 353.659 203.452C354.025 202.953 354.531 202.557 355.177 202.264C355.837 201.971 356.607 201.824 357.487 201.824C358.279 201.824 358.983 201.912 359.599 202.088C360.229 202.264 360.845 202.565 361.447 202.99C361.681 203.166 361.799 203.364 361.799 203.584C361.799 203.731 361.725 203.899 361.579 204.09L361.293 204.442C361.131 204.647 360.933 204.75 360.699 204.75C360.523 204.75 360.354 204.691 360.193 204.574C359.709 204.251 359.261 204.031 358.851 203.914C358.44 203.782 357.978 203.716 357.465 203.716C356.834 203.716 356.328 203.841 355.947 204.09C355.565 204.339 355.375 204.662 355.375 205.058C355.375 205.322 355.463 205.535 355.639 205.696C355.829 205.843 356.093 205.975 356.431 206.092C356.783 206.195 357.333 206.327 358.081 206.488C359.093 206.708 359.892 206.957 360.479 207.236C361.08 207.5 361.52 207.845 361.799 208.27C362.092 208.681 362.239 209.216 362.239 209.876C362.239 210.903 361.828 211.739 361.007 212.384C360.2 213.015 359.115 213.33 357.751 213.33ZM368.91 201.824C370.377 201.824 371.506 202.169 372.298 202.858C373.09 203.533 373.486 204.435 373.486 205.564V212.23C373.486 212.465 373.42 212.655 373.288 212.802C373.156 212.934 372.966 213 372.716 213H372.144C371.91 213 371.719 212.934 371.572 212.802C371.44 212.655 371.374 212.465 371.374 212.23V211.746C371.022 212.259 370.538 212.655 369.922 212.934C369.306 213.213 368.588 213.352 367.766 213.352C366.637 213.352 365.706 213.103 364.972 212.604C364.254 212.091 363.894 211.321 363.894 210.294C363.894 209.15 364.32 208.307 365.17 207.764C366.036 207.207 367.231 206.789 368.756 206.51L371.242 206.048V205.652C371.242 205.051 371.03 204.589 370.604 204.266C370.194 203.929 369.644 203.76 368.954 203.76C368.368 203.76 367.854 203.863 367.414 204.068C366.989 204.259 366.527 204.581 366.028 205.036C365.838 205.197 365.654 205.278 365.478 205.278C365.302 205.278 365.119 205.197 364.928 205.036L364.576 204.728C364.386 204.552 364.29 204.361 364.29 204.156C364.29 203.965 364.378 203.782 364.554 203.606C365.185 203.005 365.852 202.557 366.556 202.264C367.26 201.971 368.045 201.824 368.91 201.824ZM368.096 211.482C368.976 211.482 369.717 211.247 370.318 210.778C370.934 210.309 371.242 209.634 371.242 208.754V207.742L369.328 208.138C368.258 208.358 367.466 208.607 366.952 208.886C366.439 209.165 366.182 209.59 366.182 210.162C366.182 210.573 366.351 210.895 366.688 211.13C367.026 211.365 367.495 211.482 368.096 211.482ZM383.785 202.858C383.785 202.638 383.851 202.469 383.983 202.352C384.129 202.22 384.32 202.154 384.555 202.154H385.171C385.42 202.154 385.611 202.22 385.743 202.352C385.875 202.484 385.941 202.675 385.941 202.924V212.604C385.941 214.056 385.471 215.185 384.533 215.992C383.609 216.799 382.377 217.202 380.837 217.202C379.297 217.202 377.845 216.806 376.481 216.014C376.202 215.867 376.063 215.669 376.063 215.42C376.063 215.288 376.121 215.127 376.239 214.936L376.525 214.518C376.686 214.269 376.884 214.144 377.119 214.144C377.28 214.144 377.441 214.195 377.603 214.298C378.189 214.635 378.732 214.877 379.231 215.024C379.729 215.185 380.257 215.266 380.815 215.266C381.665 215.266 382.347 215.031 382.861 214.562C383.389 214.107 383.653 213.389 383.653 212.406V211.24C382.919 212.281 381.819 212.802 380.353 212.802C379.443 212.802 378.622 212.575 377.889 212.12C377.17 211.651 376.605 211.005 376.195 210.184C375.799 209.348 375.601 208.395 375.601 207.324C375.601 206.253 375.799 205.307 376.195 204.486C376.605 203.65 377.17 202.997 377.889 202.528C378.622 202.059 379.443 201.824 380.353 201.824C381.907 201.824 383.051 202.403 383.785 203.562V202.858ZM380.815 210.844C381.665 210.844 382.362 210.521 382.905 209.876C383.447 209.216 383.719 208.365 383.719 207.324C383.719 206.297 383.447 205.461 382.905 204.816C382.377 204.156 381.68 203.826 380.815 203.826C379.935 203.826 379.238 204.149 378.725 204.794C378.211 205.439 377.955 206.283 377.955 207.324C377.955 208.38 378.211 209.231 378.725 209.876C379.238 210.521 379.935 210.844 380.815 210.844ZM396.399 210.228C396.59 210.067 396.773 209.986 396.949 209.986C397.125 209.986 397.308 210.081 397.499 210.272L397.807 210.602C397.968 210.793 398.049 210.976 398.049 211.152C398.049 211.343 397.954 211.526 397.763 211.702C397.088 212.289 396.414 212.707 395.739 212.956C395.079 213.205 394.346 213.33 393.539 213.33C392.41 213.33 391.427 213.095 390.591 212.626C389.77 212.157 389.132 211.497 388.677 210.646C388.237 209.781 388.017 208.783 388.017 207.654C388.017 206.539 388.23 205.542 388.655 204.662C389.095 203.767 389.711 203.071 390.503 202.572C391.31 202.073 392.248 201.824 393.319 201.824C394.918 201.824 396.15 202.301 397.015 203.254C397.88 204.193 398.313 205.491 398.313 207.148V207.346C398.298 207.581 398.225 207.764 398.093 207.896C397.961 208.028 397.77 208.094 397.521 208.094H390.305C390.393 209.062 390.708 209.854 391.251 210.47C391.808 211.071 392.586 211.372 393.583 211.372C394.126 211.372 394.602 211.291 395.013 211.13C395.424 210.954 395.886 210.653 396.399 210.228ZM393.275 203.672C392.468 203.672 391.816 203.914 391.317 204.398C390.833 204.867 390.518 205.535 390.371 206.4H396.025C395.966 205.549 395.702 204.882 395.233 204.398C394.764 203.914 394.111 203.672 393.275 203.672ZM404.672 213.33C403.778 213.33 402.978 213.22 402.274 213C401.585 212.765 400.881 212.362 400.162 211.79C399.942 211.629 399.832 211.445 399.832 211.24C399.832 211.079 399.913 210.903 400.074 210.712L400.404 210.338C400.58 210.133 400.771 210.03 400.976 210.03C401.138 210.03 401.314 210.103 401.504 210.25C402.12 210.705 402.663 211.02 403.132 211.196C403.602 211.357 404.13 211.438 404.716 211.438C405.347 211.438 405.86 211.313 406.256 211.064C406.667 210.8 406.872 210.448 406.872 210.008C406.872 209.671 406.755 209.407 406.52 209.216C406.3 209.011 406.007 208.857 405.64 208.754C405.274 208.637 404.731 208.505 404.012 208.358C403 208.138 402.208 207.903 401.636 207.654C401.079 207.39 400.676 207.06 400.426 206.664C400.177 206.268 400.052 205.762 400.052 205.146C400.052 204.515 400.228 203.951 400.58 203.452C400.947 202.953 401.453 202.557 402.098 202.264C402.758 201.971 403.528 201.824 404.408 201.824C405.2 201.824 405.904 201.912 406.52 202.088C407.151 202.264 407.767 202.565 408.368 202.99C408.603 203.166 408.72 203.364 408.72 203.584C408.72 203.731 408.647 203.899 408.5 204.09L408.214 204.442C408.053 204.647 407.855 204.75 407.62 204.75C407.444 204.75 407.276 204.691 407.114 204.574C406.63 204.251 406.183 204.031 405.772 203.914C405.362 203.782 404.9 203.716 404.386 203.716C403.756 203.716 403.25 203.841 402.868 204.09C402.487 204.339 402.296 204.662 402.296 205.058C402.296 205.322 402.384 205.535 402.56 205.696C402.751 205.843 403.015 205.975 403.352 206.092C403.704 206.195 404.254 206.327 405.002 206.488C406.014 206.708 406.814 206.957 407.4 207.236C408.002 207.5 408.442 207.845 408.72 208.27C409.014 208.681 409.16 209.216 409.16 209.876C409.16 210.903 408.75 211.739 407.928 212.384C407.122 213.015 406.036 213.33 404.672 213.33Z" fill="#1B1B1F"/>
<path d="M176.334 228.848C176.408 228.709 176.536 228.64 176.718 228.64H177.262C177.443 228.64 177.534 228.709 177.534 228.848C177.534 228.912 177.512 228.971 177.47 229.024L173.678 235.12V239.68C173.678 239.893 173.571 240 173.358 240H172.862C172.648 240 172.542 239.893 172.542 239.68V235.104L168.782 229.024C168.739 228.971 168.718 228.912 168.718 228.848C168.718 228.709 168.808 228.64 168.99 228.64H169.55C169.731 228.64 169.859 228.709 169.934 228.848L173.134 234.112L176.334 228.848ZM180.839 240.208C180.103 240.208 179.447 240.032 178.871 239.68C178.295 239.328 177.847 238.843 177.527 238.224C177.207 237.595 177.047 236.875 177.047 236.064C177.047 235.253 177.207 234.539 177.527 233.92C177.847 233.291 178.295 232.8 178.871 232.448C179.447 232.096 180.103 231.92 180.839 231.92C181.575 231.92 182.231 232.096 182.807 232.448C183.383 232.8 183.831 233.291 184.151 233.92C184.471 234.539 184.631 235.253 184.631 236.064C184.631 236.875 184.471 237.595 184.151 238.224C183.831 238.843 183.383 239.328 182.807 239.68C182.231 240.032 181.575 240.208 180.839 240.208ZM180.839 239.328C181.66 239.328 182.316 239.029 182.807 238.432C183.297 237.824 183.543 237.035 183.543 236.064C183.543 235.093 183.297 234.309 182.807 233.712C182.316 233.104 181.66 232.8 180.839 232.8C180.017 232.8 179.361 233.104 178.871 233.712C178.38 234.309 178.135 235.093 178.135 236.064C178.135 237.035 178.38 237.824 178.871 238.432C179.361 239.029 180.017 239.328 180.839 239.328ZM191.585 232.432C191.585 232.219 191.692 232.112 191.905 232.112H192.321C192.535 232.112 192.641 232.219 192.641 232.432V239.68C192.641 239.893 192.535 240 192.321 240H191.985C191.772 240 191.665 239.893 191.665 239.68V238.96C191.431 239.376 191.095 239.691 190.657 239.904C190.231 240.107 189.761 240.208 189.249 240.208C188.289 240.208 187.58 239.968 187.121 239.488C186.663 238.997 186.433 238.368 186.433 237.6V232.432C186.433 232.219 186.54 232.112 186.753 232.112H187.169C187.383 232.112 187.489 232.219 187.489 232.432V237.376C187.489 238.005 187.644 238.485 187.953 238.816C188.273 239.136 188.727 239.296 189.313 239.296C189.975 239.296 190.519 239.093 190.945 238.688C191.372 238.283 191.585 237.707 191.585 236.96V232.432ZM197.956 232.048C198.223 232.048 198.537 232.091 198.9 232.176C199.092 232.24 199.167 232.373 199.124 232.576L199.06 232.832C199.007 233.035 198.873 233.109 198.66 233.056C198.404 232.992 198.169 232.96 197.956 232.96C197.412 232.96 196.959 233.195 196.596 233.664C196.244 234.133 196.068 234.784 196.068 235.616V239.68C196.068 239.893 195.961 240 195.748 240H195.332C195.119 240 195.012 239.893 195.012 239.68V232.432C195.012 232.219 195.119 232.112 195.332 232.112H195.684C195.897 232.112 196.004 232.219 196.004 232.432V233.312C196.185 232.917 196.441 232.608 196.772 232.384C197.113 232.16 197.508 232.048 197.956 232.048ZM204.775 230.112C204.561 230.112 204.38 230.037 204.231 229.888C204.092 229.739 204.023 229.557 204.023 229.344C204.023 229.131 204.092 228.955 204.231 228.816C204.38 228.677 204.561 228.608 204.775 228.608C204.999 228.608 205.18 228.677 205.319 228.816C205.468 228.955 205.543 229.131 205.543 229.344C205.543 229.557 205.468 229.739 205.319 229.888C205.18 230.037 204.999 230.112 204.775 230.112ZM204.567 240C204.353 240 204.247 239.893 204.247 239.68V232.432C204.247 232.219 204.353 232.112 204.567 232.112H204.983C205.196 232.112 205.303 232.219 205.303 232.432V239.68C205.303 239.893 205.196 240 204.983 240H204.567ZM211.173 231.92C212.101 231.92 212.799 232.176 213.269 232.688C213.749 233.2 213.989 233.84 213.989 234.608V239.68C213.989 239.893 213.882 240 213.669 240H213.253C213.039 240 212.933 239.893 212.933 239.68V234.96C212.933 234.256 212.762 233.723 212.421 233.36C212.079 232.997 211.589 232.816 210.949 232.816C210.543 232.816 210.17 232.917 209.829 233.12C209.487 233.312 209.215 233.579 209.013 233.92C208.81 234.261 208.709 234.635 208.709 235.04V239.68C208.709 239.893 208.602 240 208.389 240H207.973C207.759 240 207.653 239.893 207.653 239.68V232.432C207.653 232.219 207.759 232.112 207.973 232.112H208.325C208.538 232.112 208.645 232.219 208.645 232.432V233.2C208.911 232.773 209.263 232.453 209.701 232.24C210.138 232.027 210.629 231.92 211.173 231.92ZM220.101 231.936C220.773 231.936 221.37 232.112 221.893 232.464C222.426 232.805 222.837 233.291 223.125 233.92C223.423 234.539 223.573 235.253 223.573 236.064C223.573 236.875 223.423 237.595 223.125 238.224C222.826 238.843 222.41 239.328 221.877 239.68C221.354 240.021 220.762 240.192 220.101 240.192C218.831 240.192 217.903 239.701 217.317 238.72V239.68C217.317 239.893 217.21 240 216.997 240H216.645C216.431 240 216.325 239.893 216.325 239.68V228.944C216.325 228.731 216.431 228.624 216.645 228.624H217.061C217.274 228.624 217.381 228.731 217.381 228.944V233.36C217.967 232.411 218.874 231.936 220.101 231.936ZM220.021 239.296C220.757 239.296 221.349 238.997 221.797 238.4C222.255 237.803 222.485 237.024 222.485 236.064C222.485 235.104 222.255 234.325 221.797 233.728C221.349 233.131 220.757 232.832 220.021 232.832C219.231 232.832 218.586 233.12 218.085 233.696C217.583 234.272 217.333 235.061 217.333 236.064C217.333 237.077 217.578 237.872 218.069 238.448C218.57 239.013 219.221 239.296 220.021 239.296ZM228.807 240.208C228.071 240.208 227.415 240.032 226.839 239.68C226.263 239.328 225.815 238.843 225.495 238.224C225.175 237.595 225.015 236.875 225.015 236.064C225.015 235.253 225.175 234.539 225.495 233.92C225.815 233.291 226.263 232.8 226.839 232.448C227.415 232.096 228.071 231.92 228.807 231.92C229.543 231.92 230.199 232.096 230.775 232.448C231.351 232.8 231.799 233.291 232.119 233.92C232.439 234.539 232.599 235.253 232.599 236.064C232.599 236.875 232.439 237.595 232.119 238.224C231.799 238.843 231.351 239.328 230.775 239.68C230.199 240.032 229.543 240.208 228.807 240.208ZM228.807 239.328C229.629 239.328 230.285 239.029 230.775 238.432C231.266 237.824 231.511 237.035 231.511 236.064C231.511 235.093 231.266 234.309 230.775 233.712C230.285 233.104 229.629 232.8 228.807 232.8C227.986 232.8 227.33 233.104 226.839 233.712C226.349 234.309 226.103 235.093 226.103 236.064C226.103 237.035 226.349 237.824 226.839 238.432C227.33 239.029 227.986 239.328 228.807 239.328ZM239.945 239.616C239.987 239.691 240.009 239.755 240.009 239.808C240.009 239.936 239.923 240 239.753 240H239.273C239.113 240 238.985 239.931 238.889 239.792L236.713 236.592L234.553 239.792C234.457 239.931 234.329 240 234.169 240H233.721C233.635 240 233.566 239.984 233.513 239.952C233.47 239.909 233.449 239.861 233.449 239.808C233.449 239.733 233.47 239.669 233.513 239.616L236.105 235.888L233.721 232.496C233.678 232.443 233.657 232.384 233.657 232.32C233.657 232.181 233.747 232.112 233.929 232.112H234.393C234.553 232.112 234.681 232.181 234.777 232.32L236.729 235.184L238.665 232.32C238.761 232.181 238.889 232.112 239.049 232.112H239.481C239.566 232.112 239.63 232.133 239.673 232.176C239.726 232.208 239.753 232.251 239.753 232.304C239.753 232.379 239.731 232.443 239.689 232.496L237.353 235.84L239.945 239.616ZM245.853 230.112C245.639 230.112 245.458 230.037 245.309 229.888C245.17 229.739 245.101 229.557 245.101 229.344C245.101 229.131 245.17 228.955 245.309 228.816C245.458 228.677 245.639 228.608 245.853 228.608C246.077 228.608 246.258 228.677 246.397 228.816C246.546 228.955 246.621 229.131 246.621 229.344C246.621 229.557 246.546 229.739 246.397 229.888C246.258 230.037 246.077 230.112 245.853 230.112ZM245.645 240C245.431 240 245.325 239.893 245.325 239.68V232.432C245.325 232.219 245.431 232.112 245.645 232.112H246.061C246.274 232.112 246.381 232.219 246.381 232.432V239.68C246.381 239.893 246.274 240 246.061 240H245.645ZM251.483 240.208C250.832 240.208 250.256 240.117 249.755 239.936C249.264 239.744 248.747 239.424 248.203 238.976C248.107 238.912 248.059 238.837 248.059 238.752C248.059 238.677 248.096 238.603 248.171 238.528L248.379 238.304C248.443 238.219 248.523 238.176 248.619 238.176C248.694 238.176 248.763 238.208 248.827 238.272C249.339 238.667 249.792 238.944 250.187 239.104C250.582 239.253 251.014 239.328 251.483 239.328C252.07 239.328 252.55 239.2 252.923 238.944C253.296 238.677 253.483 238.32 253.483 237.872C253.483 237.424 253.291 237.093 252.907 236.88C252.523 236.667 251.931 236.475 251.131 236.304C250.427 236.155 249.872 236 249.467 235.84C249.072 235.669 248.779 235.456 248.587 235.2C248.395 234.944 248.299 234.608 248.299 234.192C248.299 233.509 248.576 232.96 249.131 232.544C249.686 232.128 250.384 231.92 251.227 231.92C251.803 231.92 252.315 231.995 252.763 232.144C253.222 232.283 253.68 232.517 254.139 232.848C254.235 232.923 254.283 233.003 254.283 233.088C254.283 233.141 254.256 233.211 254.203 233.296L254.011 233.536C253.958 233.621 253.883 233.664 253.787 233.664C253.702 233.664 253.627 233.637 253.563 233.584C253.126 233.275 252.736 233.067 252.395 232.96C252.064 232.853 251.686 232.8 251.259 232.8C250.672 232.8 250.203 232.928 249.851 233.184C249.499 233.44 249.323 233.765 249.323 234.16C249.323 234.405 249.403 234.603 249.563 234.752C249.723 234.901 249.952 235.029 250.251 235.136C250.55 235.232 250.987 235.344 251.563 235.472C252.63 235.707 253.387 235.995 253.835 236.336C254.294 236.677 254.523 237.173 254.523 237.824C254.523 238.539 254.24 239.115 253.675 239.552C253.11 239.989 252.379 240.208 251.483 240.208ZM263.197 240.208C262.439 240.208 261.778 240.037 261.213 239.696C260.658 239.344 260.226 238.859 259.917 238.24C259.618 237.611 259.469 236.885 259.469 236.064C259.469 235.253 259.618 234.533 259.917 233.904C260.226 233.275 260.658 232.789 261.213 232.448C261.778 232.096 262.429 231.92 263.165 231.92C263.762 231.92 264.285 232.021 264.733 232.224C265.181 232.416 265.613 232.736 266.029 233.184C266.093 233.248 266.125 233.317 266.125 233.392C266.125 233.488 266.082 233.568 265.997 233.632L265.773 233.84C265.709 233.904 265.634 233.936 265.549 233.936C265.474 233.936 265.394 233.893 265.309 233.808C264.935 233.435 264.578 233.173 264.237 233.024C263.906 232.875 263.538 232.8 263.133 232.8C262.578 232.8 262.103 232.955 261.709 233.264C261.325 233.573 261.037 233.979 260.845 234.48C260.653 234.971 260.557 235.499 260.557 236.064C260.557 236.629 260.653 237.163 260.845 237.664C261.037 238.155 261.33 238.555 261.725 238.864C262.119 239.163 262.605 239.312 263.181 239.312C263.607 239.312 263.981 239.237 264.301 239.088C264.631 238.928 264.999 238.629 265.405 238.192C265.49 238.107 265.57 238.064 265.645 238.064C265.73 238.064 265.805 238.096 265.869 238.16L266.093 238.336C266.167 238.4 266.205 238.475 266.205 238.56C266.205 238.645 266.157 238.747 266.061 238.864C265.613 239.355 265.165 239.701 264.717 239.904C264.269 240.107 263.762 240.208 263.197 240.208ZM272.992 232.432C272.992 232.219 273.098 232.112 273.312 232.112H273.728C273.941 232.112 274.048 232.219 274.048 232.432V239.68C274.048 239.893 273.941 240 273.728 240H273.392C273.178 240 273.072 239.893 273.072 239.68V238.96C272.837 239.376 272.501 239.691 272.064 239.904C271.637 240.107 271.168 240.208 270.656 240.208C269.696 240.208 268.986 239.968 268.528 239.488C268.069 238.997 267.84 238.368 267.84 237.6V232.432C267.84 232.219 267.946 232.112 268.16 232.112H268.576C268.789 232.112 268.896 232.219 268.896 232.432V237.376C268.896 238.005 269.05 238.485 269.36 238.816C269.68 239.136 270.133 239.296 270.72 239.296C271.381 239.296 271.925 239.093 272.352 238.688C272.778 238.283 272.992 237.707 272.992 236.96V232.432ZM279.362 232.048C279.629 232.048 279.944 232.091 280.306 232.176C280.498 232.24 280.573 232.373 280.53 232.576L280.466 232.832C280.413 233.035 280.28 233.109 280.066 233.056C279.81 232.992 279.576 232.96 279.362 232.96C278.818 232.96 278.365 233.195 278.002 233.664C277.65 234.133 277.474 234.784 277.474 235.616V239.68C277.474 239.893 277.368 240 277.154 240H276.738C276.525 240 276.418 239.893 276.418 239.68V232.432C276.418 232.219 276.525 232.112 276.738 232.112H277.09C277.304 232.112 277.41 232.219 277.41 232.432V233.312C277.592 232.917 277.848 232.608 278.178 232.384C278.52 232.16 278.914 232.048 279.362 232.048ZM284.909 232.048C285.176 232.048 285.491 232.091 285.853 232.176C286.045 232.24 286.12 232.373 286.077 232.576L286.013 232.832C285.96 233.035 285.827 233.109 285.613 233.056C285.357 232.992 285.123 232.96 284.909 232.96C284.365 232.96 283.912 233.195 283.549 233.664C283.197 234.133 283.021 234.784 283.021 235.616V239.68C283.021 239.893 282.915 240 282.701 240H282.285C282.072 240 281.965 239.893 281.965 239.68V232.432C281.965 232.219 282.072 232.112 282.285 232.112H282.637C282.851 232.112 282.957 232.219 282.957 232.432V233.312C283.139 232.917 283.395 232.608 283.725 232.384C284.067 232.16 284.461 232.048 284.909 232.048ZM292.819 238.128C292.893 238.053 292.973 238.016 293.059 238.016C293.133 238.016 293.203 238.048 293.267 238.112L293.475 238.304C293.549 238.379 293.587 238.459 293.587 238.544C293.587 238.608 293.555 238.683 293.491 238.768C292.968 239.291 292.461 239.664 291.971 239.888C291.48 240.101 290.931 240.208 290.323 240.208C289.555 240.208 288.888 240.037 288.323 239.696C287.757 239.355 287.32 238.88 287.011 238.272C286.701 237.653 286.547 236.939 286.547 236.128C286.547 235.307 286.696 234.581 286.995 233.952C287.304 233.312 287.736 232.816 288.291 232.464C288.845 232.101 289.485 231.92 290.211 231.92C291.288 231.92 292.136 232.256 292.755 232.928C293.373 233.6 293.683 234.507 293.683 235.648V235.84C293.672 235.936 293.635 236.011 293.571 236.064C293.517 236.117 293.443 236.144 293.347 236.144H287.619C287.651 237.04 287.885 237.797 288.323 238.416C288.771 239.024 289.437 239.328 290.323 239.328C290.803 239.328 291.224 239.243 291.587 239.072C291.96 238.891 292.371 238.576 292.819 238.128ZM290.211 232.8C289.507 232.8 288.925 233.019 288.467 233.456C288.019 233.883 287.747 234.512 287.651 235.344H292.627C292.605 234.565 292.381 233.947 291.955 233.488C291.528 233.029 290.947 232.8 290.211 232.8ZM299.095 231.92C300.023 231.92 300.721 232.176 301.191 232.688C301.671 233.2 301.911 233.84 301.911 234.608V239.68C301.911 239.893 301.804 240 301.591 240H301.175C300.961 240 300.855 239.893 300.855 239.68V234.96C300.855 234.256 300.684 233.723 300.343 233.36C300.001 232.997 299.511 232.816 298.871 232.816C298.465 232.816 298.092 232.917 297.751 233.12C297.409 233.312 297.137 233.579 296.935 233.92C296.732 234.261 296.631 234.635 296.631 235.04V239.68C296.631 239.893 296.524 240 296.311 240H295.895C295.681 240 295.575 239.893 295.575 239.68V232.432C295.575 232.219 295.681 232.112 295.895 232.112H296.247C296.46 232.112 296.567 232.219 296.567 232.432V233.2C296.833 232.773 297.185 232.453 297.623 232.24C298.06 232.027 298.551 231.92 299.095 231.92ZM307.58 239.12C307.612 239.109 307.654 239.104 307.708 239.104C307.772 239.104 307.83 239.125 307.884 239.168C307.937 239.211 307.969 239.269 307.98 239.344L308.028 239.568C308.038 239.589 308.044 239.627 308.044 239.68C308.044 239.829 307.964 239.92 307.804 239.952C307.42 240.069 307.009 240.128 306.572 240.128C305.878 240.128 305.382 239.973 305.084 239.664C304.796 239.344 304.652 238.885 304.652 238.288V232.912H303.468C303.254 232.912 303.148 232.805 303.148 232.592V232.432C303.148 232.219 303.254 232.112 303.468 232.112H304.652V229.68C304.652 229.467 304.758 229.36 304.972 229.36H305.388C305.601 229.36 305.708 229.467 305.708 229.68V232.112H307.628C307.841 232.112 307.948 232.219 307.948 232.432V232.592C307.948 232.805 307.841 232.912 307.628 232.912H305.708V238.16C305.708 238.555 305.782 238.832 305.932 238.992C306.081 239.152 306.337 239.232 306.7 239.232C306.956 239.232 307.249 239.195 307.58 239.12ZM309.895 240C309.682 240 309.575 239.893 309.575 239.68V228.96C309.575 228.747 309.682 228.64 309.895 228.64H310.311C310.524 228.64 310.631 228.747 310.631 228.96V239.68C310.631 239.893 310.524 240 310.311 240H309.895ZM317.908 232.368C317.972 232.197 318.095 232.112 318.276 232.112H318.708C318.793 232.112 318.863 232.133 318.916 232.176C318.969 232.219 318.996 232.277 318.996 232.352L318.964 232.48L315.876 241.2C315.705 241.68 315.54 242.053 315.38 242.32C315.22 242.587 315.001 242.789 314.724 242.928C314.457 243.067 314.105 243.136 313.668 243.136C313.391 243.136 313.145 243.115 312.932 243.072C312.825 243.061 312.751 243.019 312.708 242.944C312.676 242.869 312.671 242.784 312.692 242.688L312.74 242.48C312.783 242.288 312.905 242.203 313.108 242.224C313.3 242.256 313.465 242.272 313.604 242.272C313.945 242.272 314.212 242.176 314.404 241.984C314.607 241.792 314.799 241.429 314.98 240.896L315.124 240.448L312.308 232.48L312.276 232.352C312.276 232.277 312.303 232.219 312.356 232.176C312.409 232.133 312.479 232.112 312.564 232.112H313.028C313.199 232.112 313.316 232.197 313.38 232.368L314.276 235.008C314.361 235.275 314.575 235.909 314.916 236.912L315.636 239.072C315.988 238.08 316.452 236.715 317.028 234.976L317.908 232.368ZM329.866 238.128C329.94 238.053 330.02 238.016 330.106 238.016C330.18 238.016 330.25 238.048 330.314 238.112L330.522 238.304C330.596 238.379 330.634 238.459 330.634 238.544C330.634 238.608 330.602 238.683 330.538 238.768C330.015 239.291 329.508 239.664 329.018 239.888C328.527 240.101 327.978 240.208 327.37 240.208C326.602 240.208 325.935 240.037 325.37 239.696C324.804 239.355 324.367 238.88 324.058 238.272C323.748 237.653 323.594 236.939 323.594 236.128C323.594 235.307 323.743 234.581 324.042 233.952C324.351 233.312 324.783 232.816 325.338 232.464C325.892 232.101 326.532 231.92 327.258 231.92C328.335 231.92 329.183 232.256 329.802 232.928C330.42 233.6 330.73 234.507 330.73 235.648V235.84C330.719 235.936 330.682 236.011 330.618 236.064C330.564 236.117 330.49 236.144 330.394 236.144H324.666C324.698 237.04 324.932 237.797 325.37 238.416C325.818 239.024 326.484 239.328 327.37 239.328C327.85 239.328 328.271 239.243 328.634 239.072C329.007 238.891 329.418 238.576 329.866 238.128ZM327.258 232.8C326.554 232.8 325.972 233.019 325.514 233.456C325.066 233.883 324.794 234.512 324.698 235.344H329.674C329.652 234.565 329.428 233.947 329.002 233.488C328.575 233.029 327.994 232.8 327.258 232.8ZM340.638 231.92C341.491 231.92 342.142 232.165 342.59 232.656C343.048 233.136 343.278 233.755 343.278 234.512V239.68C343.278 239.893 343.171 240 342.958 240H342.542C342.328 240 342.222 239.893 342.222 239.68V234.8C342.222 234.16 342.072 233.669 341.774 233.328C341.486 232.987 341.054 232.816 340.477 232.816C339.87 232.816 339.384 233.019 339.022 233.424C338.659 233.829 338.478 234.352 338.478 234.992V239.68C338.478 239.893 338.371 240 338.158 240H337.742C337.528 240 337.422 239.893 337.422 239.68V234.8C337.422 234.16 337.272 233.669 336.974 233.328C336.686 232.987 336.248 232.816 335.661 232.816C335.118 232.816 334.664 232.987 334.302 233.328C333.95 233.669 333.742 234.117 333.678 234.672V239.68C333.678 239.893 333.571 240 333.358 240H332.942C332.728 240 332.622 239.893 332.622 239.68V232.432C332.622 232.219 332.728 232.112 332.942 232.112H333.294C333.507 232.112 333.614 232.219 333.614 232.432V233.088C334.094 232.309 334.856 231.92 335.902 231.92C336.446 231.92 336.91 232.043 337.294 232.288C337.688 232.523 337.982 232.843 338.174 233.248C338.739 232.363 339.56 231.92 340.638 231.92ZM349.382 231.936C350.043 231.936 350.635 232.112 351.158 232.464C351.691 232.805 352.107 233.291 352.406 233.92C352.705 234.539 352.854 235.248 352.854 236.048C352.854 236.859 352.705 237.579 352.406 238.208C352.107 238.837 351.697 239.328 351.174 239.68C350.651 240.021 350.054 240.192 349.382 240.192C348.145 240.192 347.238 239.739 346.662 238.832V242.624C346.662 242.837 346.555 242.944 346.342 242.944H345.926C345.713 242.944 345.606 242.837 345.606 242.624V232.432C345.606 232.219 345.713 232.112 345.926 232.112H346.278C346.491 232.112 346.598 232.219 346.598 232.432V233.44C346.886 232.949 347.265 232.576 347.734 232.32C348.203 232.064 348.753 231.936 349.382 231.936ZM349.302 239.296C350.049 239.296 350.646 238.997 351.094 238.4C351.542 237.803 351.766 237.019 351.766 236.048C351.766 235.088 351.542 234.315 351.094 233.728C350.646 233.131 350.049 232.832 349.302 232.832C348.502 232.832 347.851 233.12 347.35 233.696C346.859 234.261 346.614 235.045 346.614 236.048C346.614 237.051 346.865 237.845 347.366 238.432C347.867 239.008 348.513 239.296 349.302 239.296ZM358.049 239.12C358.081 239.109 358.123 239.104 358.177 239.104C358.241 239.104 358.299 239.125 358.353 239.168C358.406 239.211 358.438 239.269 358.449 239.344L358.497 239.568C358.507 239.589 358.513 239.627 358.513 239.68C358.513 239.829 358.433 239.92 358.273 239.952C357.889 240.069 357.478 240.128 357.041 240.128C356.347 240.128 355.851 239.973 355.553 239.664C355.265 239.344 355.121 238.885 355.121 238.288V232.912H353.937C353.723 232.912 353.617 232.805 353.617 232.592V232.432C353.617 232.219 353.723 232.112 353.937 232.112H355.121V229.68C355.121 229.467 355.227 229.36 355.441 229.36H355.857C356.07 229.36 356.177 229.467 356.177 229.68V232.112H358.097C358.31 232.112 358.417 232.219 358.417 232.432V232.592C358.417 232.805 358.31 232.912 358.097 232.912H356.177V238.16C356.177 238.555 356.251 238.832 356.401 238.992C356.55 239.152 356.806 239.232 357.169 239.232C357.425 239.232 357.718 239.195 358.049 239.12ZM365.096 232.368C365.16 232.197 365.282 232.112 365.464 232.112H365.896C365.981 232.112 366.05 232.133 366.104 232.176C366.157 232.219 366.184 232.277 366.184 232.352L366.152 232.48L363.064 241.2C362.893 241.68 362.728 242.053 362.568 242.32C362.408 242.587 362.189 242.789 361.912 242.928C361.645 243.067 361.293 243.136 360.856 243.136C360.578 243.136 360.333 243.115 360.12 243.072C360.013 243.061 359.938 243.019 359.896 242.944C359.864 242.869 359.858 242.784 359.88 242.688L359.928 242.48C359.97 242.288 360.093 242.203 360.296 242.224C360.488 242.256 360.653 242.272 360.792 242.272C361.133 242.272 361.4 242.176 361.592 241.984C361.794 241.792 361.986 241.429 362.168 240.896L362.312 240.448L359.496 232.48L359.464 232.352C359.464 232.277 359.49 232.219 359.544 232.176C359.597 232.133 359.666 232.112 359.752 232.112H360.216C360.386 232.112 360.504 232.197 360.568 232.368L361.464 235.008C361.549 235.275 361.762 235.909 362.104 236.912L362.824 239.072C363.176 238.08 363.64 236.715 364.216 234.976L365.096 232.368ZM367.257 240.112C367.033 240.112 366.841 240.032 366.681 239.872C366.521 239.712 366.441 239.52 366.441 239.296C366.441 239.072 366.521 238.88 366.681 238.72C366.841 238.56 367.033 238.48 367.257 238.48C367.481 238.48 367.673 238.56 367.833 238.72C367.993 238.88 368.073 239.072 368.073 239.296C368.073 239.52 367.993 239.712 367.833 239.872C367.673 240.032 367.481 240.112 367.257 240.112ZM381.294 240C381.112 240 380.99 239.915 380.926 239.744L379.87 236.816H374.702L373.662 239.744C373.598 239.915 373.475 240 373.294 240H372.798C372.712 240 372.643 239.979 372.59 239.936C372.536 239.893 372.51 239.835 372.51 239.76L372.542 239.632L376.462 228.896C376.526 228.725 376.648 228.64 376.83 228.64H377.758C377.939 228.64 378.062 228.725 378.126 228.896L382.046 239.632L382.078 239.76C382.078 239.835 382.051 239.893 381.998 239.936C381.944 239.979 381.875 240 381.79 240H381.294ZM379.518 235.856L378.958 234.288L378.83 233.952C378.68 233.547 378.435 232.869 378.094 231.92C377.763 230.971 377.491 230.165 377.278 229.504C376.99 230.411 376.536 231.728 375.918 233.456C375.875 233.573 375.827 233.701 375.774 233.84C375.72 233.979 375.667 234.128 375.614 234.288L375.054 235.856H379.518ZM386.436 240.208C385.785 240.208 385.209 240.117 384.708 239.936C384.217 239.744 383.7 239.424 383.156 238.976C383.06 238.912 383.012 238.837 383.012 238.752C383.012 238.677 383.049 238.603 383.124 238.528L383.332 238.304C383.396 238.219 383.476 238.176 383.572 238.176C383.647 238.176 383.716 238.208 383.78 238.272C384.292 238.667 384.745 238.944 385.14 239.104C385.535 239.253 385.967 239.328 386.436 239.328C387.023 239.328 387.503 239.2 387.876 238.944C388.249 238.677 388.436 238.32 388.436 237.872C388.436 237.424 388.244 237.093 387.86 236.88C387.476 236.667 386.884 236.475 386.084 236.304C385.38 236.155 384.825 236 384.42 235.84C384.025 235.669 383.732 235.456 383.54 235.2C383.348 234.944 383.252 234.608 383.252 234.192C383.252 233.509 383.529 232.96 384.084 232.544C384.639 232.128 385.337 231.92 386.18 231.92C386.756 231.92 387.268 231.995 387.716 232.144C388.175 232.283 388.633 232.517 389.092 232.848C389.188 232.923 389.236 233.003 389.236 233.088C389.236 233.141 389.209 233.211 389.156 233.296L388.964 233.536C388.911 233.621 388.836 233.664 388.74 233.664C388.655 233.664 388.58 233.637 388.516 233.584C388.079 233.275 387.689 233.067 387.348 232.96C387.017 232.853 386.639 232.8 386.212 232.8C385.625 232.8 385.156 232.928 384.804 233.184C384.452 233.44 384.276 233.765 384.276 234.16C384.276 234.405 384.356 234.603 384.516 234.752C384.676 234.901 384.905 235.029 385.204 235.136C385.503 235.232 385.94 235.344 386.516 235.472C387.583 235.707 388.34 235.995 388.788 236.336C389.247 236.677 389.476 237.173 389.476 237.824C389.476 238.539 389.193 239.115 388.628 239.552C388.063 239.989 387.332 240.208 386.436 240.208ZM399.689 232.368C399.753 232.197 399.876 232.112 400.057 232.112H400.489C400.575 232.112 400.644 232.133 400.697 232.176C400.751 232.219 400.777 232.277 400.777 232.352L400.745 232.48L397.657 241.2C397.487 241.68 397.321 242.053 397.161 242.32C397.001 242.587 396.783 242.789 396.505 242.928C396.239 243.067 395.887 243.136 395.449 243.136C395.172 243.136 394.927 243.115 394.713 243.072C394.607 243.061 394.532 243.019 394.489 242.944C394.457 242.869 394.452 242.784 394.473 242.688L394.521 242.48C394.564 242.288 394.687 242.203 394.889 242.224C395.081 242.256 395.247 242.272 395.385 242.272C395.727 242.272 395.993 242.176 396.185 241.984C396.388 241.792 396.58 241.429 396.761 240.896L396.905 240.448L394.089 232.48L394.057 232.352C394.057 232.277 394.084 232.219 394.137 232.176C394.191 232.133 394.26 232.112 394.345 232.112H394.809C394.98 232.112 395.097 232.197 395.161 232.368L396.057 235.008C396.143 235.275 396.356 235.909 396.697 236.912L397.417 239.072C397.769 238.08 398.233 236.715 398.809 234.976L399.689 232.368ZM405.511 240.208C404.775 240.208 404.119 240.032 403.543 239.68C402.967 239.328 402.519 238.843 402.199 238.224C401.879 237.595 401.719 236.875 401.719 236.064C401.719 235.253 401.879 234.539 402.199 233.92C402.519 233.291 402.967 232.8 403.543 232.448C404.119 232.096 404.775 231.92 405.511 231.92C406.247 231.92 406.903 232.096 407.479 232.448C408.055 232.8 408.503 233.291 408.823 233.92C409.143 234.539 409.303 235.253 409.303 236.064C409.303 236.875 409.143 237.595 408.823 238.224C408.503 238.843 408.055 239.328 407.479 239.68C406.903 240.032 406.247 240.208 405.511 240.208ZM405.511 239.328C406.332 239.328 406.988 239.029 407.479 238.432C407.969 237.824 408.215 237.035 408.215 236.064C408.215 235.093 407.969 234.309 407.479 233.712C406.988 233.104 406.332 232.8 405.511 232.8C404.689 232.8 404.033 233.104 403.543 233.712C403.052 234.309 402.807 235.093 402.807 236.064C402.807 237.035 403.052 237.824 403.543 238.432C404.033 239.029 404.689 239.328 405.511 239.328ZM416.257 232.432C416.257 232.219 416.364 232.112 416.577 232.112H416.993C417.206 232.112 417.313 232.219 417.313 232.432V239.68C417.313 239.893 417.206 240 416.993 240H416.657C416.444 240 416.337 239.893 416.337 239.68V238.96C416.102 239.376 415.766 239.691 415.329 239.904C414.902 240.107 414.433 240.208 413.921 240.208C412.961 240.208 412.252 239.968 411.793 239.488C411.334 238.997 411.105 238.368 411.105 237.6V232.432C411.105 232.219 411.212 232.112 411.425 232.112H411.841C412.054 232.112 412.161 232.219 412.161 232.432V237.376C412.161 238.005 412.316 238.485 412.625 238.816C412.945 239.136 413.398 239.296 413.985 239.296C414.646 239.296 415.19 239.093 415.617 238.688C416.044 238.283 416.257 237.707 416.257 236.96V232.432ZM426.924 239.12C426.956 239.109 426.998 239.104 427.052 239.104C427.116 239.104 427.174 239.125 427.228 239.168C427.281 239.211 427.313 239.269 427.324 239.344L427.372 239.568C427.382 239.589 427.388 239.627 427.388 239.68C427.388 239.829 427.308 239.92 427.148 239.952C426.764 240.069 426.353 240.128 425.916 240.128C425.222 240.128 424.726 239.973 424.428 239.664C424.14 239.344 423.996 238.885 423.996 238.288V232.912H422.812C422.598 232.912 422.492 232.805 422.492 232.592V232.432C422.492 232.219 422.598 232.112 422.812 232.112H423.996V229.68C423.996 229.467 424.102 229.36 424.316 229.36H424.732C424.945 229.36 425.052 229.467 425.052 229.68V232.112H426.972C427.185 232.112 427.292 232.219 427.292 232.432V232.592C427.292 232.805 427.185 232.912 426.972 232.912H425.052V238.16C425.052 238.555 425.126 238.832 425.276 238.992C425.425 239.152 425.681 239.232 426.044 239.232C426.3 239.232 426.593 239.195 426.924 239.12ZM431.958 231.92C432.929 231.92 433.686 232.155 434.23 232.624C434.774 233.083 435.046 233.691 435.046 234.448V239.68C435.046 239.893 434.94 240 434.726 240H434.406C434.193 240 434.086 239.893 434.086 239.68V238.96C433.82 239.387 433.441 239.707 432.95 239.92C432.47 240.133 431.932 240.24 431.334 240.24C430.502 240.24 429.825 240.064 429.302 239.712C428.78 239.36 428.518 238.816 428.518 238.08C428.518 237.493 428.684 237.024 429.014 236.672C429.345 236.309 429.777 236.037 430.31 235.856C430.844 235.664 431.51 235.493 432.31 235.344L434.038 235.04V234.528C434.038 233.984 433.852 233.563 433.478 233.264C433.105 232.955 432.614 232.8 432.006 232.8C431.548 232.8 431.132 232.885 430.758 233.056C430.385 233.227 429.985 233.52 429.558 233.936C429.484 234.011 429.404 234.048 429.318 234.048C429.244 234.048 429.174 234.016 429.11 233.952L428.902 233.76C428.828 233.685 428.79 233.605 428.79 233.52C428.79 233.424 428.828 233.339 428.902 233.264C429.35 232.795 429.82 232.453 430.31 232.24C430.812 232.027 431.361 231.92 431.958 231.92ZM431.382 239.36C432.15 239.36 432.785 239.157 433.286 238.752C433.788 238.347 434.038 237.829 434.038 237.2V235.856L432.55 236.144C431.857 236.283 431.308 236.416 430.902 236.544C430.497 236.672 430.172 236.859 429.926 237.104C429.681 237.349 429.558 237.669 429.558 238.064C429.558 238.469 429.718 238.789 430.038 239.024C430.369 239.248 430.817 239.36 431.382 239.36ZM437.723 240C437.51 240 437.403 239.893 437.403 239.68V228.96C437.403 228.747 437.51 228.64 437.723 228.64H438.139C438.352 228.64 438.459 228.747 438.459 228.96V239.68C438.459 239.893 438.352 240 438.139 240H437.723ZM446.536 240C446.376 240 446.248 239.931 446.152 239.792L443.448 235.856L441.896 237.44V239.68C441.896 239.893 441.79 240 441.576 240H441.16C440.947 240 440.84 239.893 440.84 239.68V228.96C440.84 228.747 440.947 228.64 441.16 228.64H441.576C441.79 228.64 441.896 228.747 441.896 228.96V236.24L445.736 232.256C445.832 232.149 445.966 232.096 446.136 232.096H446.584C446.67 232.096 446.734 232.117 446.776 232.16C446.83 232.192 446.856 232.235 446.856 232.288C446.856 232.341 446.824 232.411 446.76 232.496L444.184 235.184L447.208 239.616C447.251 239.691 447.272 239.755 447.272 239.808C447.272 239.936 447.187 240 447.016 240H446.536ZM456.049 239.12C456.081 239.109 456.123 239.104 456.177 239.104C456.241 239.104 456.299 239.125 456.353 239.168C456.406 239.211 456.438 239.269 456.449 239.344L456.497 239.568C456.507 239.589 456.513 239.627 456.513 239.68C456.513 239.829 456.433 239.92 456.273 239.952C455.889 240.069 455.478 240.128 455.041 240.128C454.347 240.128 453.851 239.973 453.553 239.664C453.265 239.344 453.121 238.885 453.121 238.288V232.912H451.937C451.723 232.912 451.617 232.805 451.617 232.592V232.432C451.617 232.219 451.723 232.112 451.937 232.112H453.121V229.68C453.121 229.467 453.227 229.36 453.441 229.36H453.857C454.07 229.36 454.177 229.467 454.177 229.68V232.112H456.097C456.31 232.112 456.417 232.219 456.417 232.432V232.592C456.417 232.805 456.31 232.912 456.097 232.912H454.177V238.16C454.177 238.555 454.251 238.832 454.401 238.992C454.55 239.152 454.806 239.232 455.169 239.232C455.425 239.232 455.718 239.195 456.049 239.12ZM460.995 240.208C460.259 240.208 459.603 240.032 459.027 239.68C458.451 239.328 458.003 238.843 457.683 238.224C457.363 237.595 457.203 236.875 457.203 236.064C457.203 235.253 457.363 234.539 457.683 233.92C458.003 233.291 458.451 232.8 459.027 232.448C459.603 232.096 460.259 231.92 460.995 231.92C461.731 231.92 462.387 232.096 462.963 232.448C463.539 232.8 463.987 233.291 464.307 233.92C464.627 234.539 464.787 235.253 464.787 236.064C464.787 236.875 464.627 237.595 464.307 238.224C463.987 238.843 463.539 239.328 462.963 239.68C462.387 240.032 461.731 240.208 460.995 240.208ZM460.995 239.328C461.816 239.328 462.472 239.029 462.963 238.432C463.454 237.824 463.699 237.035 463.699 236.064C463.699 235.093 463.454 234.309 462.963 233.712C462.472 233.104 461.816 232.8 460.995 232.8C460.174 232.8 459.518 233.104 459.027 233.712C458.536 234.309 458.291 235.093 458.291 236.064C458.291 237.035 458.536 237.824 459.027 238.432C459.518 239.029 460.174 239.328 460.995 239.328ZM474.085 231.936C474.746 231.936 475.338 232.112 475.861 232.464C476.394 232.805 476.81 233.291 477.109 233.92C477.408 234.539 477.557 235.248 477.557 236.048C477.557 236.859 477.408 237.579 477.109 238.208C476.81 238.837 476.4 239.328 475.877 239.68C475.354 240.021 474.757 240.192 474.085 240.192C472.848 240.192 471.941 239.739 471.365 238.832V242.624C471.365 242.837 471.258 242.944 471.045 242.944H470.629C470.416 242.944 470.309 242.837 470.309 242.624V232.432C470.309 232.219 470.416 232.112 470.629 232.112H470.981C471.194 232.112 471.301 232.219 471.301 232.432V233.44C471.589 232.949 471.968 232.576 472.437 232.32C472.906 232.064 473.456 231.936 474.085 231.936ZM474.005 239.296C474.752 239.296 475.349 238.997 475.797 238.4C476.245 237.803 476.469 237.019 476.469 236.048C476.469 235.088 476.245 234.315 475.797 233.728C475.349 233.131 474.752 232.832 474.005 232.832C473.205 232.832 472.554 233.12 472.053 233.696C471.562 234.261 471.317 235.045 471.317 236.048C471.317 237.051 471.568 237.845 472.069 238.432C472.57 239.008 473.216 239.296 474.005 239.296ZM485.272 238.128C485.346 238.053 485.426 238.016 485.512 238.016C485.586 238.016 485.656 238.048 485.72 238.112L485.928 238.304C486.002 238.379 486.04 238.459 486.04 238.544C486.04 238.608 486.008 238.683 485.944 238.768C485.421 239.291 484.914 239.664 484.424 239.888C483.933 240.101 483.384 240.208 482.776 240.208C482.008 240.208 481.341 240.037 480.776 239.696C480.21 239.355 479.773 238.88 479.464 238.272C479.154 237.653 479 236.939 479 236.128C479 235.307 479.149 234.581 479.448 233.952C479.757 233.312 480.189 232.816 480.744 232.464C481.298 232.101 481.938 231.92 482.664 231.92C483.741 231.92 484.589 232.256 485.208 232.928C485.826 233.6 486.136 234.507 486.136 235.648V235.84C486.125 235.936 486.088 236.011 486.024 236.064C485.97 236.117 485.896 236.144 485.8 236.144H480.072C480.104 237.04 480.338 237.797 480.776 238.416C481.224 239.024 481.89 239.328 482.776 239.328C483.256 239.328 483.677 239.243 484.04 239.072C484.413 238.891 484.824 238.576 485.272 238.128ZM482.664 232.8C481.96 232.8 481.378 233.019 480.92 233.456C480.472 233.883 480.2 234.512 480.104 235.344H485.08C485.058 234.565 484.834 233.947 484.408 233.488C483.981 233.029 483.4 232.8 482.664 232.8ZM491.307 240.208C490.571 240.208 489.915 240.032 489.339 239.68C488.763 239.328 488.315 238.843 487.995 238.224C487.675 237.595 487.515 236.875 487.515 236.064C487.515 235.253 487.675 234.539 487.995 233.92C488.315 233.291 488.763 232.8 489.339 232.448C489.915 232.096 490.571 231.92 491.307 231.92C492.043 231.92 492.699 232.096 493.275 232.448C493.851 232.8 494.299 233.291 494.619 233.92C494.939 234.539 495.099 235.253 495.099 236.064C495.099 236.875 494.939 237.595 494.619 238.224C494.299 238.843 493.851 239.328 493.275 239.68C492.699 240.032 492.043 240.208 491.307 240.208ZM491.307 239.328C492.129 239.328 492.785 239.029 493.275 238.432C493.766 237.824 494.011 237.035 494.011 236.064C494.011 235.093 493.766 234.309 493.275 233.712C492.785 233.104 492.129 232.8 491.307 232.8C490.486 232.8 489.83 233.104 489.339 233.712C488.849 234.309 488.603 235.093 488.603 236.064C488.603 237.035 488.849 237.824 489.339 238.432C489.83 239.029 490.486 239.328 491.307 239.328ZM500.71 231.936C501.371 231.936 501.963 232.112 502.486 232.464C503.019 232.805 503.435 233.291 503.734 233.92C504.033 234.539 504.182 235.248 504.182 236.048C504.182 236.859 504.033 237.579 503.734 238.208C503.435 238.837 503.025 239.328 502.502 239.68C501.979 240.021 501.382 240.192 500.71 240.192C499.473 240.192 498.566 239.739 497.99 238.832V242.624C497.99 242.837 497.883 242.944 497.67 242.944H497.254C497.041 242.944 496.934 242.837 496.934 242.624V232.432C496.934 232.219 497.041 232.112 497.254 232.112H497.606C497.819 232.112 497.926 232.219 497.926 232.432V233.44C498.214 232.949 498.593 232.576 499.062 232.32C499.531 232.064 500.081 231.936 500.71 231.936ZM500.63 239.296C501.377 239.296 501.974 238.997 502.422 238.4C502.87 237.803 503.094 237.019 503.094 236.048C503.094 235.088 502.87 234.315 502.422 233.728C501.974 233.131 501.377 232.832 500.63 232.832C499.83 232.832 499.179 233.12 498.678 233.696C498.187 234.261 497.942 235.045 497.942 236.048C497.942 237.051 498.193 237.845 498.694 238.432C499.195 239.008 499.841 239.296 500.63 239.296ZM506.395 240C506.182 240 506.075 239.893 506.075 239.68V228.96C506.075 228.747 506.182 228.64 506.395 228.64H506.811C507.024 228.64 507.131 228.747 507.131 228.96V239.68C507.131 239.893 507.024 240 506.811 240H506.395ZM515.256 238.128C515.331 238.053 515.411 238.016 515.496 238.016C515.571 238.016 515.64 238.048 515.704 238.112L515.912 238.304C515.987 238.379 516.024 238.459 516.024 238.544C516.024 238.608 515.992 238.683 515.928 238.768C515.405 239.291 514.899 239.664 514.408 239.888C513.917 240.101 513.368 240.208 512.76 240.208C511.992 240.208 511.325 240.037 510.76 239.696C510.195 239.355 509.757 238.88 509.448 238.272C509.139 237.653 508.984 236.939 508.984 236.128C508.984 235.307 509.133 234.581 509.432 233.952C509.741 233.312 510.173 232.816 510.728 232.464C511.283 232.101 511.923 231.92 512.648 231.92C513.725 231.92 514.573 232.256 515.192 232.928C515.811 233.6 516.12 234.507 516.12 235.648V235.84C516.109 235.936 516.072 236.011 516.008 236.064C515.955 236.117 515.88 236.144 515.784 236.144H510.056C510.088 237.04 510.323 237.797 510.76 238.416C511.208 239.024 511.875 239.328 512.76 239.328C513.24 239.328 513.661 239.243 514.024 239.072C514.397 238.891 514.808 238.576 515.256 238.128ZM512.648 232.8C511.944 232.8 511.363 233.019 510.904 233.456C510.456 233.883 510.184 234.512 510.088 235.344H515.064C515.043 234.565 514.819 233.947 514.392 233.488C513.965 233.029 513.384 232.8 512.648 232.8ZM518.444 238.48C518.732 238.48 518.967 238.592 519.148 238.816C519.34 239.029 519.436 239.355 519.436 239.792C519.436 240.229 519.308 240.656 519.052 241.072C518.807 241.499 518.465 241.771 518.028 241.888L517.948 241.904C517.863 241.904 517.793 241.872 517.74 241.808C517.697 241.755 517.676 241.68 517.676 241.584C517.676 241.52 517.697 241.467 517.74 241.424C517.783 241.392 517.847 241.355 517.932 241.312C518.145 241.216 518.327 241.056 518.476 240.832C518.625 240.608 518.711 240.352 518.732 240.064C518.636 240.096 518.535 240.112 518.428 240.112C518.204 240.112 518.012 240.037 517.852 239.888C517.703 239.739 517.628 239.547 517.628 239.312C517.628 239.077 517.708 238.88 517.868 238.72C518.028 238.56 518.22 238.48 518.444 238.48ZM239.76 254.368C239.824 254.197 239.946 254.112 240.128 254.112H240.56C240.645 254.112 240.714 254.133 240.768 254.176C240.821 254.219 240.848 254.277 240.848 254.352L240.816 254.48L237.728 263.2C237.557 263.68 237.392 264.053 237.232 264.32C237.072 264.587 236.853 264.789 236.576 264.928C236.309 265.067 235.957 265.136 235.52 265.136C235.242 265.136 234.997 265.115 234.784 265.072C234.677 265.061 234.602 265.019 234.56 264.944C234.528 264.869 234.522 264.784 234.544 264.688L234.592 264.48C234.634 264.288 234.757 264.203 234.96 264.224C235.152 264.256 235.317 264.272 235.456 264.272C235.797 264.272 236.064 264.176 236.256 263.984C236.458 263.792 236.65 263.429 236.832 262.896L236.976 262.448L234.16 254.48L234.128 254.352C234.128 254.277 234.154 254.219 234.208 254.176C234.261 254.133 234.33 254.112 234.416 254.112H234.88C235.05 254.112 235.168 254.197 235.232 254.368L236.128 257.008C236.213 257.275 236.426 257.909 236.768 258.912L237.488 261.072C237.84 260.08 238.304 258.715 238.88 256.976L239.76 254.368ZM245.581 262.208C244.845 262.208 244.189 262.032 243.613 261.68C243.037 261.328 242.589 260.843 242.269 260.224C241.949 259.595 241.789 258.875 241.789 258.064C241.789 257.253 241.949 256.539 242.269 255.92C242.589 255.291 243.037 254.8 243.613 254.448C244.189 254.096 244.845 253.92 245.581 253.92C246.317 253.92 246.973 254.096 247.549 254.448C248.125 254.8 248.573 255.291 248.893 255.92C249.213 256.539 249.373 257.253 249.373 258.064C249.373 258.875 249.213 259.595 248.893 260.224C248.573 260.843 248.125 261.328 247.549 261.68C246.973 262.032 246.317 262.208 245.581 262.208ZM245.581 261.328C246.402 261.328 247.058 261.029 247.549 260.432C248.039 259.824 248.285 259.035 248.285 258.064C248.285 257.093 248.039 256.309 247.549 255.712C247.058 255.104 246.402 254.8 245.581 254.8C244.759 254.8 244.103 255.104 243.613 255.712C243.122 256.309 242.877 257.093 242.877 258.064C242.877 259.035 243.122 259.824 243.613 260.432C244.103 261.029 244.759 261.328 245.581 261.328ZM256.327 254.432C256.327 254.219 256.434 254.112 256.647 254.112H257.063C257.277 254.112 257.383 254.219 257.383 254.432V261.68C257.383 261.893 257.277 262 257.063 262H256.727C256.514 262 256.407 261.893 256.407 261.68V260.96C256.173 261.376 255.837 261.691 255.399 261.904C254.973 262.107 254.503 262.208 253.991 262.208C253.031 262.208 252.322 261.968 251.863 261.488C251.405 260.997 251.175 260.368 251.175 259.6V254.432C251.175 254.219 251.282 254.112 251.495 254.112H251.911C252.125 254.112 252.231 254.219 252.231 254.432V259.376C252.231 260.005 252.386 260.485 252.695 260.816C253.015 261.136 253.469 261.296 254.055 261.296C254.717 261.296 255.261 261.093 255.687 260.688C256.114 260.283 256.327 259.707 256.327 258.96V254.432ZM262.698 254.048C262.965 254.048 263.28 254.091 263.642 254.176C263.834 254.24 263.909 254.373 263.866 254.576L263.802 254.832C263.749 255.035 263.616 255.109 263.402 255.056C263.146 254.992 262.912 254.96 262.698 254.96C262.154 254.96 261.701 255.195 261.338 255.664C260.986 256.133 260.81 256.784 260.81 257.616V261.68C260.81 261.893 260.704 262 260.49 262H260.074C259.861 262 259.754 261.893 259.754 261.68V254.432C259.754 254.219 259.861 254.112 260.074 254.112H260.426C260.64 254.112 260.746 254.219 260.746 254.432V255.312C260.928 254.917 261.184 254.608 261.514 254.384C261.856 254.16 262.25 254.048 262.698 254.048ZM277.005 253.92C277.858 253.92 278.509 254.165 278.957 254.656C279.415 255.136 279.645 255.755 279.645 256.512V261.68C279.645 261.893 279.538 262 279.325 262H278.909C278.695 262 278.589 261.893 278.589 261.68V256.8C278.589 256.16 278.439 255.669 278.141 255.328C277.853 254.987 277.421 254.816 276.845 254.816C276.237 254.816 275.751 255.019 275.389 255.424C275.026 255.829 274.845 256.352 274.845 256.992V261.68C274.845 261.893 274.738 262 274.525 262H274.109C273.895 262 273.789 261.893 273.789 261.68V256.8C273.789 256.16 273.639 255.669 273.341 255.328C273.053 254.987 272.615 254.816 272.029 254.816C271.485 254.816 271.031 254.987 270.669 255.328C270.317 255.669 270.109 256.117 270.045 256.672V261.68C270.045 261.893 269.938 262 269.725 262H269.309C269.095 262 268.989 261.893 268.989 261.68V254.432C268.989 254.219 269.095 254.112 269.309 254.112H269.661C269.874 254.112 269.981 254.219 269.981 254.432V255.088C270.461 254.309 271.223 253.92 272.269 253.92C272.813 253.92 273.277 254.043 273.661 254.288C274.055 254.523 274.349 254.843 274.541 255.248C275.106 254.363 275.927 253.92 277.005 253.92ZM287.717 260.128C287.792 260.053 287.872 260.016 287.957 260.016C288.032 260.016 288.101 260.048 288.165 260.112L288.373 260.304C288.448 260.379 288.485 260.459 288.485 260.544C288.485 260.608 288.453 260.683 288.389 260.768C287.866 261.291 287.36 261.664 286.869 261.888C286.378 262.101 285.829 262.208 285.221 262.208C284.453 262.208 283.786 262.037 283.221 261.696C282.656 261.355 282.218 260.88 281.909 260.272C281.6 259.653 281.445 258.939 281.445 258.128C281.445 257.307 281.594 256.581 281.893 255.952C282.202 255.312 282.634 254.816 283.189 254.464C283.744 254.101 284.384 253.92 285.109 253.92C286.186 253.92 287.034 254.256 287.653 254.928C288.272 255.6 288.581 256.507 288.581 257.648V257.84C288.57 257.936 288.533 258.011 288.469 258.064C288.416 258.117 288.341 258.144 288.245 258.144H282.517C282.549 259.04 282.784 259.797 283.221 260.416C283.669 261.024 284.336 261.328 285.221 261.328C285.701 261.328 286.122 261.243 286.485 261.072C286.858 260.891 287.269 260.576 287.717 260.128ZM285.109 254.8C284.405 254.8 283.824 255.019 283.365 255.456C282.917 255.883 282.645 256.512 282.549 257.344H287.525C287.504 256.565 287.28 255.947 286.853 255.488C286.426 255.029 285.845 254.8 285.109 254.8ZM293.288 262.208C292.637 262.208 292.061 262.117 291.56 261.936C291.069 261.744 290.552 261.424 290.008 260.976C289.912 260.912 289.864 260.837 289.864 260.752C289.864 260.677 289.901 260.603 289.976 260.528L290.184 260.304C290.248 260.219 290.328 260.176 290.424 260.176C290.498 260.176 290.568 260.208 290.632 260.272C291.144 260.667 291.597 260.944 291.992 261.104C292.386 261.253 292.818 261.328 293.288 261.328C293.874 261.328 294.354 261.2 294.728 260.944C295.101 260.677 295.288 260.32 295.288 259.872C295.288 259.424 295.096 259.093 294.712 258.88C294.328 258.667 293.736 258.475 292.936 258.304C292.232 258.155 291.677 258 291.272 257.84C290.877 257.669 290.584 257.456 290.392 257.2C290.2 256.944 290.104 256.608 290.104 256.192C290.104 255.509 290.381 254.96 290.936 254.544C291.49 254.128 292.189 253.92 293.032 253.92C293.608 253.92 294.12 253.995 294.568 254.144C295.026 254.283 295.485 254.517 295.944 254.848C296.04 254.923 296.088 255.003 296.088 255.088C296.088 255.141 296.061 255.211 296.008 255.296L295.816 255.536C295.762 255.621 295.688 255.664 295.592 255.664C295.506 255.664 295.432 255.637 295.368 255.584C294.93 255.275 294.541 255.067 294.2 254.96C293.869 254.853 293.49 254.8 293.064 254.8C292.477 254.8 292.008 254.928 291.656 255.184C291.304 255.44 291.128 255.765 291.128 256.16C291.128 256.405 291.208 256.603 291.368 256.752C291.528 256.901 291.757 257.029 292.056 257.136C292.354 257.232 292.792 257.344 293.368 257.472C294.434 257.707 295.192 257.995 295.64 258.336C296.098 258.677 296.328 259.173 296.328 259.824C296.328 260.539 296.045 261.115 295.48 261.552C294.914 261.989 294.184 262.208 293.288 262.208ZM300.866 262.208C300.215 262.208 299.639 262.117 299.138 261.936C298.647 261.744 298.13 261.424 297.586 260.976C297.49 260.912 297.442 260.837 297.442 260.752C297.442 260.677 297.479 260.603 297.554 260.528L297.762 260.304C297.826 260.219 297.906 260.176 298.002 260.176C298.076 260.176 298.146 260.208 298.21 260.272C298.722 260.667 299.175 260.944 299.57 261.104C299.964 261.253 300.396 261.328 300.866 261.328C301.452 261.328 301.932 261.2 302.306 260.944C302.679 260.677 302.866 260.32 302.866 259.872C302.866 259.424 302.674 259.093 302.29 258.88C301.906 258.667 301.314 258.475 300.514 258.304C299.81 258.155 299.255 258 298.85 257.84C298.455 257.669 298.162 257.456 297.97 257.2C297.778 256.944 297.682 256.608 297.682 256.192C297.682 255.509 297.959 254.96 298.514 254.544C299.068 254.128 299.767 253.92 300.61 253.92C301.186 253.92 301.698 253.995 302.146 254.144C302.604 254.283 303.063 254.517 303.522 254.848C303.618 254.923 303.666 255.003 303.666 255.088C303.666 255.141 303.639 255.211 303.586 255.296L303.394 255.536C303.34 255.621 303.266 255.664 303.17 255.664C303.084 255.664 303.01 255.637 302.946 255.584C302.508 255.275 302.119 255.067 301.778 254.96C301.447 254.853 301.068 254.8 300.642 254.8C300.055 254.8 299.586 254.928 299.234 255.184C298.882 255.44 298.706 255.765 298.706 256.16C298.706 256.405 298.786 256.603 298.946 256.752C299.106 256.901 299.335 257.029 299.634 257.136C299.932 257.232 300.37 257.344 300.946 257.472C302.012 257.707 302.77 257.995 303.218 258.336C303.676 258.677 303.906 259.173 303.906 259.824C303.906 260.539 303.623 261.115 303.058 261.552C302.492 261.989 301.762 262.208 300.866 262.208ZM308.794 253.92C309.765 253.92 310.522 254.155 311.066 254.624C311.61 255.083 311.882 255.691 311.882 256.448V261.68C311.882 261.893 311.776 262 311.562 262H311.242C311.029 262 310.922 261.893 310.922 261.68V260.96C310.656 261.387 310.277 261.707 309.786 261.92C309.306 262.133 308.768 262.24 308.17 262.24C307.338 262.24 306.661 262.064 306.138 261.712C305.616 261.36 305.354 260.816 305.354 260.08C305.354 259.493 305.52 259.024 305.85 258.672C306.181 258.309 306.613 258.037 307.146 257.856C307.68 257.664 308.346 257.493 309.146 257.344L310.874 257.04V256.528C310.874 255.984 310.688 255.563 310.314 255.264C309.941 254.955 309.45 254.8 308.842 254.8C308.384 254.8 307.968 254.885 307.594 255.056C307.221 255.227 306.821 255.52 306.394 255.936C306.32 256.011 306.24 256.048 306.154 256.048C306.08 256.048 306.01 256.016 305.946 255.952L305.738 255.76C305.664 255.685 305.626 255.605 305.626 255.52C305.626 255.424 305.664 255.339 305.738 255.264C306.186 254.795 306.656 254.453 307.146 254.24C307.648 254.027 308.197 253.92 308.794 253.92ZM308.218 261.36C308.986 261.36 309.621 261.157 310.122 260.752C310.624 260.347 310.874 259.829 310.874 259.2V257.856L309.386 258.144C308.693 258.283 308.144 258.416 307.738 258.544C307.333 258.672 307.008 258.859 306.762 259.104C306.517 259.349 306.394 259.669 306.394 260.064C306.394 260.469 306.554 260.789 306.874 261.024C307.205 261.248 307.653 261.36 308.218 261.36ZM319.887 254.432C319.887 254.219 319.994 254.112 320.207 254.112H320.543C320.756 254.112 320.863 254.219 320.863 254.432V261.92C320.863 262.912 320.564 263.691 319.967 264.256C319.37 264.832 318.532 265.12 317.455 265.12C316.292 265.12 315.22 264.789 314.239 264.128C314.132 264.064 314.079 263.984 314.079 263.888C314.079 263.813 314.1 263.749 314.143 263.696L314.335 263.424C314.399 263.317 314.484 263.264 314.591 263.264C314.634 263.264 314.698 263.285 314.783 263.328C315.252 263.627 315.69 263.851 316.095 264C316.511 264.149 316.964 264.224 317.455 264.224C318.159 264.224 318.73 264.027 319.167 263.632C319.604 263.248 319.823 262.651 319.823 261.84V260.56C319.247 261.488 318.372 261.952 317.199 261.952C316.516 261.952 315.914 261.781 315.391 261.44C314.868 261.088 314.463 260.608 314.175 260C313.898 259.392 313.759 258.704 313.759 257.936C313.759 257.168 313.898 256.48 314.175 255.872C314.463 255.264 314.868 254.789 315.391 254.448C315.914 254.096 316.516 253.92 317.199 253.92C317.818 253.92 318.351 254.053 318.799 254.32C319.258 254.576 319.62 254.944 319.887 255.424V254.432ZM317.311 261.056C318.079 261.056 318.692 260.768 319.151 260.192C319.61 259.605 319.839 258.853 319.839 257.936C319.839 257.019 319.61 256.272 319.151 255.696C318.692 255.109 318.079 254.816 317.311 254.816C316.532 254.816 315.924 255.104 315.487 255.68C315.06 256.256 314.847 257.008 314.847 257.936C314.847 258.864 315.06 259.616 315.487 260.192C315.924 260.768 316.532 261.056 317.311 261.056ZM328.983 260.128C329.057 260.053 329.137 260.016 329.223 260.016C329.297 260.016 329.367 260.048 329.431 260.112L329.639 260.304C329.713 260.379 329.751 260.459 329.751 260.544C329.751 260.608 329.719 260.683 329.655 260.768C329.132 261.291 328.625 261.664 328.135 261.888C327.644 262.101 327.095 262.208 326.487 262.208C325.719 262.208 325.052 262.037 324.487 261.696C323.921 261.355 323.484 260.88 323.175 260.272C322.865 259.653 322.711 258.939 322.711 258.128C322.711 257.307 322.86 256.581 323.159 255.952C323.468 255.312 323.9 254.816 324.455 254.464C325.009 254.101 325.649 253.92 326.375 253.92C327.452 253.92 328.3 254.256 328.919 254.928C329.537 255.6 329.847 256.507 329.847 257.648V257.84C329.836 257.936 329.799 258.011 329.735 258.064C329.681 258.117 329.607 258.144 329.511 258.144H323.783C323.815 259.04 324.049 259.797 324.487 260.416C324.935 261.024 325.601 261.328 326.487 261.328C326.967 261.328 327.388 261.243 327.751 261.072C328.124 260.891 328.535 260.576 328.983 260.128ZM326.375 254.8C325.671 254.8 325.089 255.019 324.631 255.456C324.183 255.883 323.911 256.512 323.815 257.344H328.791C328.769 256.565 328.545 255.947 328.119 255.488C327.692 255.029 327.111 254.8 326.375 254.8ZM334.553 262.208C333.903 262.208 333.327 262.117 332.825 261.936C332.335 261.744 331.817 261.424 331.273 260.976C331.177 260.912 331.129 260.837 331.129 260.752C331.129 260.677 331.167 260.603 331.241 260.528L331.449 260.304C331.513 260.219 331.593 260.176 331.689 260.176C331.764 260.176 331.833 260.208 331.897 260.272C332.409 260.667 332.863 260.944 333.257 261.104C333.652 261.253 334.084 261.328 334.553 261.328C335.14 261.328 335.62 261.2 335.993 260.944C336.367 260.677 336.553 260.32 336.553 259.872C336.553 259.424 336.361 259.093 335.977 258.88C335.593 258.667 335.001 258.475 334.201 258.304C333.497 258.155 332.943 258 332.537 257.84C332.143 257.669 331.849 257.456 331.657 257.2C331.465 256.944 331.369 256.608 331.369 256.192C331.369 255.509 331.647 254.96 332.201 254.544C332.756 254.128 333.455 253.92 334.297 253.92C334.873 253.92 335.385 253.995 335.833 254.144C336.292 254.283 336.751 254.517 337.209 254.848C337.305 254.923 337.353 255.003 337.353 255.088C337.353 255.141 337.327 255.211 337.273 255.296L337.081 255.536C337.028 255.621 336.953 255.664 336.857 255.664C336.772 255.664 336.697 255.637 336.633 255.584C336.196 255.275 335.807 255.067 335.465 254.96C335.135 254.853 334.756 254.8 334.329 254.8C333.743 254.8 333.273 254.928 332.921 255.184C332.569 255.44 332.393 255.765 332.393 256.16C332.393 256.405 332.473 256.603 332.633 256.752C332.793 256.901 333.023 257.029 333.321 257.136C333.62 257.232 334.057 257.344 334.633 257.472C335.7 257.707 336.457 257.995 336.905 258.336C337.364 258.677 337.593 259.173 337.593 259.824C337.593 260.539 337.311 261.115 336.745 261.552C336.18 261.989 335.449 262.208 334.553 262.208ZM351.867 254.384C351.909 254.203 352.032 254.112 352.235 254.112H352.667C352.784 254.112 352.864 254.144 352.907 254.208C352.96 254.272 352.971 254.357 352.939 254.464L350.875 261.728C350.832 261.909 350.709 262 350.507 262H349.787C349.605 262 349.488 261.909 349.435 261.728L348.699 259.28C348.315 258 347.957 256.688 347.627 255.344C347.307 256.645 346.955 257.968 346.571 259.312L345.867 261.728C345.824 261.909 345.701 262 345.499 262H344.811C344.608 262 344.485 261.909 344.443 261.728L342.379 254.464C342.368 254.443 342.363 254.405 342.363 254.352C342.363 254.277 342.389 254.219 342.443 254.176C342.496 254.133 342.565 254.112 342.651 254.112H343.083C343.285 254.112 343.408 254.203 343.451 254.384L344.219 257.216C344.571 258.507 344.896 259.792 345.195 261.072C345.429 260.123 345.776 258.837 346.235 257.216L347.051 254.384C347.093 254.203 347.216 254.112 347.419 254.112H347.899C348.091 254.112 348.208 254.203 348.251 254.384L349.083 257.216C349.445 258.528 349.787 259.819 350.107 261.088C350.352 260.021 350.683 258.731 351.099 257.216L351.867 254.384ZM355.142 252.112C354.928 252.112 354.747 252.037 354.598 251.888C354.459 251.739 354.39 251.557 354.39 251.344C354.39 251.131 354.459 250.955 354.598 250.816C354.747 250.677 354.928 250.608 355.142 250.608C355.366 250.608 355.547 250.677 355.686 250.816C355.835 250.955 355.91 251.131 355.91 251.344C355.91 251.557 355.835 251.739 355.686 251.888C355.547 252.037 355.366 252.112 355.142 252.112ZM354.934 262C354.72 262 354.614 261.893 354.614 261.68V254.432C354.614 254.219 354.72 254.112 354.934 254.112H355.35C355.563 254.112 355.67 254.219 355.67 254.432V261.68C355.67 261.893 355.563 262 355.35 262H354.934ZM358.356 262C358.143 262 358.036 261.893 358.036 261.68V250.96C358.036 250.747 358.143 250.64 358.356 250.64H358.772C358.985 250.64 359.092 250.747 359.092 250.96V261.68C359.092 261.893 358.985 262 358.772 262H358.356ZM361.809 262C361.596 262 361.489 261.893 361.489 261.68V250.96C361.489 250.747 361.596 250.64 361.809 250.64H362.225C362.438 250.64 362.545 250.747 362.545 250.96V261.68C362.545 261.893 362.438 262 362.225 262H361.809ZM371.654 253.92C372.624 253.92 373.382 254.155 373.926 254.624C374.47 255.083 374.742 255.691 374.742 256.448V261.68C374.742 261.893 374.635 262 374.422 262H374.102C373.888 262 373.782 261.893 373.782 261.68V260.96C373.515 261.387 373.136 261.707 372.646 261.92C372.166 262.133 371.627 262.24 371.03 262.24C370.198 262.24 369.52 262.064 368.998 261.712C368.475 261.36 368.214 260.816 368.214 260.08C368.214 259.493 368.379 259.024 368.71 258.672C369.04 258.309 369.472 258.037 370.006 257.856C370.539 257.664 371.206 257.493 372.006 257.344L373.734 257.04V256.528C373.734 255.984 373.547 255.563 373.174 255.264C372.8 254.955 372.31 254.8 371.702 254.8C371.243 254.8 370.827 254.885 370.454 255.056C370.08 255.227 369.68 255.52 369.254 255.936C369.179 256.011 369.099 256.048 369.014 256.048C368.939 256.048 368.87 256.016 368.806 255.952L368.598 255.76C368.523 255.685 368.486 255.605 368.486 255.52C368.486 255.424 368.523 255.339 368.598 255.264C369.046 254.795 369.515 254.453 370.006 254.24C370.507 254.027 371.056 253.92 371.654 253.92ZM371.078 261.36C371.846 261.36 372.48 261.157 372.982 260.752C373.483 260.347 373.734 259.829 373.734 259.2V257.856L372.246 258.144C371.552 258.283 371.003 258.416 370.598 258.544C370.192 258.672 369.867 258.859 369.622 259.104C369.376 259.349 369.254 259.669 369.254 260.064C369.254 260.469 369.414 260.789 369.734 261.024C370.064 261.248 370.512 261.36 371.078 261.36ZM380.858 253.936C381.52 253.936 382.112 254.112 382.634 254.464C383.168 254.805 383.584 255.291 383.882 255.92C384.181 256.539 384.33 257.248 384.33 258.048C384.33 258.859 384.181 259.579 383.882 260.208C383.584 260.837 383.173 261.328 382.65 261.68C382.128 262.021 381.53 262.192 380.858 262.192C379.621 262.192 378.714 261.739 378.138 260.832V264.624C378.138 264.837 378.032 264.944 377.818 264.944H377.402C377.189 264.944 377.082 264.837 377.082 264.624V254.432C377.082 254.219 377.189 254.112 377.402 254.112H377.754C377.968 254.112 378.074 254.219 378.074 254.432V255.44C378.362 254.949 378.741 254.576 379.21 254.32C379.68 254.064 380.229 253.936 380.858 253.936ZM380.778 261.296C381.525 261.296 382.122 260.997 382.57 260.4C383.018 259.803 383.242 259.019 383.242 258.048C383.242 257.088 383.018 256.315 382.57 255.728C382.122 255.131 381.525 254.832 380.778 254.832C379.978 254.832 379.328 255.12 378.826 255.696C378.336 256.261 378.09 257.045 378.09 258.048C378.09 259.051 378.341 259.845 378.842 260.432C379.344 261.008 379.989 261.296 380.778 261.296ZM389.983 253.936C390.645 253.936 391.237 254.112 391.759 254.464C392.293 254.805 392.709 255.291 393.007 255.92C393.306 256.539 393.455 257.248 393.455 258.048C393.455 258.859 393.306 259.579 393.007 260.208C392.709 260.837 392.298 261.328 391.775 261.68C391.253 262.021 390.655 262.192 389.983 262.192C388.746 262.192 387.839 261.739 387.263 260.832V264.624C387.263 264.837 387.157 264.944 386.943 264.944H386.527C386.314 264.944 386.207 264.837 386.207 264.624V254.432C386.207 254.219 386.314 254.112 386.527 254.112H386.879C387.093 254.112 387.199 254.219 387.199 254.432V255.44C387.487 254.949 387.866 254.576 388.335 254.32C388.805 254.064 389.354 253.936 389.983 253.936ZM389.903 261.296C390.65 261.296 391.247 260.997 391.695 260.4C392.143 259.803 392.367 259.019 392.367 258.048C392.367 257.088 392.143 256.315 391.695 255.728C391.247 255.131 390.65 254.832 389.903 254.832C389.103 254.832 388.453 255.12 387.951 255.696C387.461 256.261 387.215 257.045 387.215 258.048C387.215 259.051 387.466 259.845 387.967 260.432C388.469 261.008 389.114 261.296 389.903 261.296ZM401.17 260.128C401.245 260.053 401.325 260.016 401.41 260.016C401.485 260.016 401.554 260.048 401.618 260.112L401.826 260.304C401.901 260.379 401.938 260.459 401.938 260.544C401.938 260.608 401.906 260.683 401.842 260.768C401.32 261.291 400.813 261.664 400.322 261.888C399.832 262.101 399.282 262.208 398.674 262.208C397.906 262.208 397.24 262.037 396.674 261.696C396.109 261.355 395.672 260.88 395.362 260.272C395.053 259.653 394.898 258.939 394.898 258.128C394.898 257.307 395.048 256.581 395.346 255.952C395.656 255.312 396.088 254.816 396.642 254.464C397.197 254.101 397.837 253.92 398.562 253.92C399.64 253.92 400.488 254.256 401.106 254.928C401.725 255.6 402.034 256.507 402.034 257.648V257.84C402.024 257.936 401.986 258.011 401.922 258.064C401.869 258.117 401.794 258.144 401.698 258.144H395.97C396.002 259.04 396.237 259.797 396.674 260.416C397.122 261.024 397.789 261.328 398.674 261.328C399.154 261.328 399.576 261.243 399.938 261.072C400.312 260.891 400.722 260.576 401.17 260.128ZM398.562 254.8C397.858 254.8 397.277 255.019 396.818 255.456C396.37 255.883 396.098 256.512 396.002 257.344H400.978C400.957 256.565 400.733 255.947 400.306 255.488C399.88 255.029 399.298 254.8 398.562 254.8ZM406.826 253.92C407.796 253.92 408.554 254.155 409.098 254.624C409.642 255.083 409.914 255.691 409.914 256.448V261.68C409.914 261.893 409.807 262 409.594 262H409.274C409.06 262 408.954 261.893 408.954 261.68V260.96C408.687 261.387 408.308 261.707 407.818 261.92C407.338 262.133 406.799 262.24 406.202 262.24C405.37 262.24 404.692 262.064 404.17 261.712C403.647 261.36 403.386 260.816 403.386 260.08C403.386 259.493 403.551 259.024 403.882 258.672C404.212 258.309 404.644 258.037 405.178 257.856C405.711 257.664 406.378 257.493 407.178 257.344L408.906 257.04V256.528C408.906 255.984 408.719 255.563 408.346 255.264C407.972 254.955 407.482 254.8 406.874 254.8C406.415 254.8 405.999 254.885 405.626 255.056C405.252 255.227 404.852 255.52 404.426 255.936C404.351 256.011 404.271 256.048 404.186 256.048C404.111 256.048 404.042 256.016 403.978 255.952L403.77 255.76C403.695 255.685 403.658 255.605 403.658 255.52C403.658 255.424 403.695 255.339 403.77 255.264C404.218 254.795 404.687 254.453 405.178 254.24C405.679 254.027 406.228 253.92 406.826 253.92ZM406.25 261.36C407.018 261.36 407.652 261.157 408.154 260.752C408.655 260.347 408.906 259.829 408.906 259.2V257.856L407.418 258.144C406.724 258.283 406.175 258.416 405.77 258.544C405.364 258.672 405.039 258.859 404.794 259.104C404.548 259.349 404.426 259.669 404.426 260.064C404.426 260.469 404.586 260.789 404.906 261.024C405.236 261.248 405.684 261.36 406.25 261.36ZM415.198 254.048C415.465 254.048 415.78 254.091 416.142 254.176C416.334 254.24 416.409 254.373 416.366 254.576L416.302 254.832C416.249 255.035 416.116 255.109 415.902 255.056C415.646 254.992 415.412 254.96 415.198 254.96C414.654 254.96 414.201 255.195 413.838 255.664C413.486 256.133 413.31 256.784 413.31 257.616V261.68C413.31 261.893 413.204 262 412.99 262H412.574C412.361 262 412.254 261.893 412.254 261.68V254.432C412.254 254.219 412.361 254.112 412.574 254.112H412.926C413.14 254.112 413.246 254.219 413.246 254.432V255.312C413.428 254.917 413.684 254.608 414.014 254.384C414.356 254.16 414.75 254.048 415.198 254.048ZM425.009 253.92C425.926 253.92 426.625 254.181 427.105 254.704C427.585 255.216 427.825 255.851 427.825 256.608V261.68C427.825 261.893 427.718 262 427.505 262H427.089C426.875 262 426.769 261.893 426.769 261.68V256.96C426.769 256.256 426.598 255.723 426.257 255.36C425.915 254.997 425.425 254.816 424.785 254.816C424.379 254.816 424.006 254.917 423.665 255.12C423.323 255.312 423.051 255.579 422.849 255.92C422.646 256.261 422.545 256.635 422.545 257.04V261.68C422.545 261.893 422.438 262 422.225 262H421.809C421.595 262 421.489 261.893 421.489 261.68V250.96C421.489 250.747 421.595 250.64 421.809 250.64H422.225C422.438 250.64 422.545 250.747 422.545 250.96V255.136C422.801 254.731 423.142 254.427 423.569 254.224C424.006 254.021 424.486 253.92 425.009 253.92ZM435.905 260.128C435.979 260.053 436.059 260.016 436.145 260.016C436.219 260.016 436.289 260.048 436.353 260.112L436.561 260.304C436.635 260.379 436.673 260.459 436.673 260.544C436.673 260.608 436.641 260.683 436.577 260.768C436.054 261.291 435.547 261.664 435.057 261.888C434.566 262.101 434.017 262.208 433.409 262.208C432.641 262.208 431.974 262.037 431.409 261.696C430.843 261.355 430.406 260.88 430.097 260.272C429.787 259.653 429.633 258.939 429.633 258.128C429.633 257.307 429.782 256.581 430.081 255.952C430.39 255.312 430.822 254.816 431.377 254.464C431.931 254.101 432.571 253.92 433.297 253.92C434.374 253.92 435.222 254.256 435.841 254.928C436.459 255.6 436.769 256.507 436.769 257.648V257.84C436.758 257.936 436.721 258.011 436.657 258.064C436.603 258.117 436.529 258.144 436.433 258.144H430.705C430.737 259.04 430.971 259.797 431.409 260.416C431.857 261.024 432.523 261.328 433.409 261.328C433.889 261.328 434.31 261.243 434.673 261.072C435.046 260.891 435.457 260.576 435.905 260.128ZM433.297 254.8C432.593 254.8 432.011 255.019 431.553 255.456C431.105 255.883 430.833 256.512 430.737 257.344H435.713C435.691 256.565 435.467 255.947 435.041 255.488C434.614 255.029 434.033 254.8 433.297 254.8ZM441.605 254.048C441.871 254.048 442.186 254.091 442.549 254.176C442.741 254.24 442.815 254.373 442.773 254.576L442.709 254.832C442.655 255.035 442.522 255.109 442.309 255.056C442.053 254.992 441.818 254.96 441.605 254.96C441.061 254.96 440.607 255.195 440.245 255.664C439.893 256.133 439.717 256.784 439.717 257.616V261.68C439.717 261.893 439.61 262 439.397 262H438.981C438.767 262 438.661 261.893 438.661 261.68V254.432C438.661 254.219 438.767 254.112 438.981 254.112H439.333C439.546 254.112 439.653 254.219 439.653 254.432V255.312C439.834 254.917 440.09 254.608 440.421 254.384C440.762 254.16 441.157 254.048 441.605 254.048ZM449.514 260.128C449.589 260.053 449.669 260.016 449.754 260.016C449.829 260.016 449.898 260.048 449.962 260.112L450.17 260.304C450.245 260.379 450.282 260.459 450.282 260.544C450.282 260.608 450.25 260.683 450.186 260.768C449.663 261.291 449.157 261.664 448.666 261.888C448.175 262.101 447.626 262.208 447.018 262.208C446.25 262.208 445.583 262.037 445.018 261.696C444.453 261.355 444.015 260.88 443.706 260.272C443.397 259.653 443.242 258.939 443.242 258.128C443.242 257.307 443.391 256.581 443.69 255.952C443.999 255.312 444.431 254.816 444.986 254.464C445.541 254.101 446.181 253.92 446.906 253.92C447.983 253.92 448.831 254.256 449.45 254.928C450.069 255.6 450.378 256.507 450.378 257.648V257.84C450.367 257.936 450.33 258.011 450.266 258.064C450.213 258.117 450.138 258.144 450.042 258.144H444.314C444.346 259.04 444.581 259.797 445.018 260.416C445.466 261.024 446.133 261.328 447.018 261.328C447.498 261.328 447.919 261.243 448.282 261.072C448.655 260.891 449.066 260.576 449.514 260.128ZM446.906 254.8C446.202 254.8 445.621 255.019 445.162 255.456C444.714 255.883 444.442 256.512 444.346 257.344H449.322C449.301 256.565 449.077 255.947 448.65 255.488C448.223 255.029 447.642 254.8 446.906 254.8ZM452.702 262.112C452.478 262.112 452.286 262.032 452.126 261.872C451.966 261.712 451.886 261.52 451.886 261.296C451.886 261.072 451.966 260.88 452.126 260.72C452.286 260.56 452.478 260.48 452.702 260.48C452.926 260.48 453.118 260.56 453.278 260.72C453.438 260.88 453.518 261.072 453.518 261.296C453.518 261.52 453.438 261.712 453.278 261.872C453.118 262.032 452.926 262.112 452.702 262.112Z" fill="#1B1B1F"/>
</svg>
