<svg width="688" height="444" viewBox="0 0 688 444" fill="none" xmlns="http://www.w3.org/2000/svg">
<rect width="688" height="444" fill="#F6F6F6"/>
<rect x="144" y="80" width="400" height="284" rx="8" fill="white"/>
<path d="M344 156V154M370 127.297C362.669 121.284 353.481 117.999 344 117.999C334.519 117.999 325.331 121.284 318 127.297M362 136.249C356.877 132.194 350.534 129.987 344 129.987C337.466 129.987 331.123 132.194 326 136.249M354 145.249C351.094 143.136 347.593 141.997 344 141.997C340.407 141.997 336.906 143.136 334 145.249" stroke="#0063FB" stroke-width="4" stroke-linecap="round" stroke-linejoin="round"/>
<path d="M314.248 213.352C312.708 213.352 311.366 213 310.222 212.296C309.078 211.592 308.198 210.624 307.582 209.392C306.98 208.145 306.68 206.745 306.68 205.19C306.68 203.635 306.98 202.242 307.582 201.01C308.198 199.763 309.078 198.788 310.222 198.084C311.366 197.38 312.708 197.028 314.248 197.028C315.773 197.028 317.108 197.38 318.252 198.084C319.396 198.788 320.268 199.763 320.87 201.01C321.486 202.242 321.794 203.635 321.794 205.19C321.794 206.745 321.486 208.145 320.87 209.392C320.268 210.624 319.396 211.592 318.252 212.296C317.108 213 315.773 213.352 314.248 213.352ZM314.248 211.152C315.23 211.152 316.096 210.903 316.844 210.404C317.606 209.905 318.193 209.209 318.604 208.314C319.014 207.405 319.22 206.363 319.22 205.19C319.22 204.017 319.014 202.983 318.604 202.088C318.193 201.179 317.606 200.475 316.844 199.976C316.096 199.477 315.23 199.228 314.248 199.228C313.25 199.228 312.37 199.477 311.608 199.976C310.86 200.475 310.28 201.179 309.87 202.088C309.459 202.983 309.254 204.017 309.254 205.19C309.254 206.363 309.459 207.405 309.87 208.314C310.28 209.209 310.86 209.905 311.608 210.404C312.37 210.903 313.25 211.152 314.248 211.152ZM328.932 199.008C328.419 199.008 328.045 199.133 327.81 199.382C327.576 199.631 327.458 200.057 327.458 200.658V202.154H329.24C329.49 202.154 329.68 202.22 329.812 202.352C329.944 202.484 330.01 202.675 330.01 202.924V203.166C330.01 203.401 329.944 203.591 329.812 203.738C329.68 203.87 329.49 203.936 329.24 203.936H327.458V212.23C327.458 212.465 327.392 212.655 327.26 212.802C327.128 212.934 326.938 213 326.688 213H325.896C325.662 213 325.471 212.934 325.324 212.802C325.192 212.655 325.126 212.465 325.126 212.23V203.936H323.96C323.726 203.936 323.535 203.87 323.388 203.738C323.256 203.591 323.19 203.401 323.19 203.166V202.924C323.19 202.675 323.256 202.484 323.388 202.352C323.535 202.22 323.726 202.154 323.96 202.154H325.126V200.504C325.126 199.375 325.412 198.524 325.984 197.952C326.571 197.365 327.414 197.072 328.514 197.072C329.013 197.072 329.519 197.123 330.032 197.226C330.414 197.329 330.604 197.563 330.604 197.93C330.604 198.033 330.597 198.113 330.582 198.172L330.516 198.48C330.428 198.861 330.142 199.052 329.658 199.052L329.394 199.03C329.292 199.015 329.138 199.008 328.932 199.008ZM336.602 199.008C336.089 199.008 335.715 199.133 335.48 199.382C335.246 199.631 335.128 200.057 335.128 200.658V202.154H336.91C337.16 202.154 337.35 202.22 337.482 202.352C337.614 202.484 337.68 202.675 337.68 202.924V203.166C337.68 203.401 337.614 203.591 337.482 203.738C337.35 203.87 337.16 203.936 336.91 203.936H335.128V212.23C335.128 212.465 335.062 212.655 334.93 212.802C334.798 212.934 334.608 213 334.358 213H333.566C333.332 213 333.141 212.934 332.994 212.802C332.862 212.655 332.796 212.465 332.796 212.23V203.936H331.63C331.396 203.936 331.205 203.87 331.058 203.738C330.926 203.591 330.86 203.401 330.86 203.166V202.924C330.86 202.675 330.926 202.484 331.058 202.352C331.205 202.22 331.396 202.154 331.63 202.154H332.796V200.504C332.796 199.375 333.082 198.524 333.654 197.952C334.241 197.365 335.084 197.072 336.184 197.072C336.683 197.072 337.189 197.123 337.702 197.226C338.084 197.329 338.274 197.563 338.274 197.93C338.274 198.033 338.267 198.113 338.252 198.172L338.186 198.48C338.098 198.861 337.812 199.052 337.328 199.052L337.064 199.03C336.962 199.015 336.808 199.008 336.602 199.008ZM340.292 213C340.057 213 339.866 212.934 339.72 212.802C339.588 212.655 339.522 212.465 339.522 212.23V198.15C339.522 197.901 339.588 197.71 339.72 197.578C339.866 197.446 340.057 197.38 340.292 197.38H341.084C341.333 197.38 341.524 197.446 341.656 197.578C341.788 197.71 341.854 197.901 341.854 198.15V212.23C341.854 212.465 341.788 212.655 341.656 212.802C341.524 212.934 341.333 213 341.084 213H340.292ZM345.821 200.042C345.396 200.042 345.036 199.903 344.743 199.624C344.45 199.331 344.303 198.986 344.303 198.59C344.303 198.179 344.45 197.835 344.743 197.556C345.036 197.277 345.396 197.138 345.821 197.138C346.246 197.138 346.606 197.277 346.899 197.556C347.192 197.835 347.339 198.179 347.339 198.59C347.339 198.986 347.192 199.331 346.899 199.624C346.606 199.903 346.246 200.042 345.821 200.042ZM345.403 213C345.168 213 344.978 212.934 344.831 212.802C344.699 212.655 344.633 212.465 344.633 212.23V202.924C344.633 202.675 344.699 202.484 344.831 202.352C344.978 202.22 345.168 202.154 345.403 202.154H346.195C346.444 202.154 346.635 202.22 346.767 202.352C346.899 202.484 346.965 202.675 346.965 202.924V212.23C346.965 212.465 346.899 212.655 346.767 212.802C346.635 212.934 346.444 213 346.195 213H345.403ZM355.182 201.824C356.429 201.824 357.382 202.176 358.042 202.88C358.717 203.569 359.054 204.464 359.054 205.564V212.23C359.054 212.465 358.988 212.655 358.856 212.802C358.724 212.934 358.534 213 358.284 213H357.492C357.258 213 357.067 212.934 356.92 212.802C356.788 212.655 356.722 212.465 356.722 212.23V206.29C356.722 205.498 356.524 204.889 356.128 204.464C355.747 204.039 355.197 203.826 354.478 203.826C353.774 203.826 353.18 204.068 352.696 204.552C352.227 205.036 351.992 205.645 351.992 206.378V212.23C351.992 212.465 351.926 212.655 351.794 212.802C351.662 212.934 351.472 213 351.222 213H350.43C350.196 213 350.005 212.934 349.858 212.802C349.726 212.655 349.66 212.465 349.66 212.23V202.924C349.66 202.675 349.726 202.484 349.858 202.352C350.005 202.22 350.196 202.154 350.43 202.154H351.068C351.318 202.154 351.508 202.22 351.64 202.352C351.772 202.484 351.838 202.675 351.838 202.924V203.496C352.19 202.953 352.652 202.543 353.224 202.264C353.796 201.971 354.449 201.824 355.182 201.824ZM369.501 210.228C369.691 210.067 369.875 209.986 370.051 209.986C370.227 209.986 370.41 210.081 370.601 210.272L370.909 210.602C371.07 210.793 371.151 210.976 371.151 211.152C371.151 211.343 371.055 211.526 370.865 211.702C370.19 212.289 369.515 212.707 368.841 212.956C368.181 213.205 367.447 213.33 366.641 213.33C365.511 213.33 364.529 213.095 363.693 212.626C362.871 212.157 362.233 211.497 361.779 210.646C361.339 209.781 361.119 208.783 361.119 207.654C361.119 206.539 361.331 205.542 361.757 204.662C362.197 203.767 362.813 203.071 363.605 202.572C364.411 202.073 365.35 201.824 366.421 201.824C368.019 201.824 369.251 202.301 370.117 203.254C370.982 204.193 371.415 205.491 371.415 207.148V207.346C371.4 207.581 371.327 207.764 371.195 207.896C371.063 208.028 370.872 208.094 370.623 208.094H363.407C363.495 209.062 363.81 209.854 364.353 210.47C364.91 211.071 365.687 211.372 366.685 211.372C367.227 211.372 367.704 211.291 368.115 211.13C368.525 210.954 368.987 210.653 369.501 210.228ZM366.377 203.672C365.57 203.672 364.917 203.914 364.419 204.398C363.935 204.867 363.619 205.535 363.473 206.4H369.127C369.068 205.549 368.804 204.882 368.335 204.398C367.865 203.914 367.213 203.672 366.377 203.672ZM375.93 208.446C375.68 208.446 375.49 208.395 375.358 208.292C375.226 208.175 375.16 208.013 375.16 207.808C375.16 207.236 375.204 206.774 375.292 206.422C375.394 206.07 375.592 205.711 375.886 205.344C376.179 204.977 376.641 204.523 377.272 203.98C377.565 203.731 377.704 203.613 377.69 203.628C378.262 203.144 378.68 202.733 378.944 202.396C379.222 202.044 379.362 201.626 379.362 201.142C379.362 200.555 379.134 200.086 378.68 199.734C378.225 199.367 377.631 199.184 376.898 199.184C376.355 199.184 375.842 199.287 375.358 199.492C374.874 199.697 374.324 200.027 373.708 200.482C373.532 200.614 373.356 200.68 373.18 200.68C372.974 200.68 372.784 200.577 372.608 200.372L372.212 199.91C372.065 199.749 371.992 199.58 371.992 199.404C371.992 199.184 372.094 198.993 372.3 198.832C373.048 198.216 373.796 197.761 374.544 197.468C375.306 197.175 376.12 197.028 376.986 197.028C378.408 197.028 379.574 197.395 380.484 198.128C381.393 198.847 381.848 199.844 381.848 201.12C381.848 201.692 381.738 202.205 381.518 202.66C381.312 203.1 381.041 203.496 380.704 203.848C380.381 204.185 379.926 204.603 379.34 205.102L378.988 205.41C378.357 205.967 377.924 206.4 377.69 206.708C377.455 207.016 377.301 207.412 377.228 207.896C377.213 208.072 377.132 208.211 376.986 208.314C376.854 208.402 376.67 208.446 376.436 208.446H375.93ZM376.15 213.22C375.71 213.22 375.328 213.066 375.006 212.758C374.683 212.435 374.522 212.047 374.522 211.592C374.522 211.167 374.683 210.8 375.006 210.492C375.328 210.169 375.71 210.008 376.15 210.008C376.59 210.008 376.964 210.169 377.272 210.492C377.594 210.8 377.756 211.167 377.756 211.592C377.756 212.047 377.594 212.435 377.272 212.758C376.964 213.066 376.59 213.22 376.15 213.22Z" fill="#1B1B1F"/>
<path d="M196.025 228.912C196.078 228.731 196.195 228.64 196.377 228.64H196.841C196.947 228.64 197.027 228.672 197.081 228.736C197.134 228.8 197.15 228.885 197.129 228.992L194.537 239.728C194.483 239.909 194.366 240 194.185 240H193.305C193.102 240 192.979 239.909 192.937 239.728L191.481 234.368C191.022 232.651 190.654 231.211 190.377 230.048C190.078 231.36 189.715 232.805 189.289 234.384L187.833 239.728C187.79 239.909 187.667 240 187.465 240H186.537C186.355 240 186.238 239.909 186.185 239.728L183.593 228.992L183.577 228.896C183.577 228.725 183.678 228.64 183.881 228.64H184.377C184.558 228.64 184.675 228.731 184.729 228.912L186.025 234.368C186.377 235.851 186.718 237.387 187.049 238.976C187.454 237.28 187.849 235.744 188.233 234.368L189.737 228.912C189.779 228.731 189.902 228.64 190.105 228.64H190.713C190.915 228.64 191.038 228.731 191.081 228.912L192.553 234.368C192.969 235.893 193.358 237.419 193.721 238.944C193.998 237.536 194.334 236.011 194.729 234.368L196.025 228.912ZM204.147 238.128C204.221 238.053 204.301 238.016 204.387 238.016C204.461 238.016 204.531 238.048 204.595 238.112L204.803 238.304C204.877 238.379 204.915 238.459 204.915 238.544C204.915 238.608 204.883 238.683 204.819 238.768C204.296 239.291 203.789 239.664 203.299 239.888C202.808 240.101 202.259 240.208 201.651 240.208C200.883 240.208 200.216 240.037 199.651 239.696C199.085 239.355 198.648 238.88 198.339 238.272C198.029 237.653 197.875 236.939 197.875 236.128C197.875 235.307 198.024 234.581 198.323 233.952C198.632 233.312 199.064 232.816 199.619 232.464C200.173 232.101 200.813 231.92 201.539 231.92C202.616 231.92 203.464 232.256 204.083 232.928C204.701 233.6 205.011 234.507 205.011 235.648V235.84C205 235.936 204.963 236.011 204.899 236.064C204.845 236.117 204.771 236.144 204.675 236.144H198.947C198.979 237.04 199.213 237.797 199.651 238.416C200.099 239.024 200.765 239.328 201.651 239.328C202.131 239.328 202.552 239.243 202.915 239.072C203.288 238.891 203.699 238.576 204.147 238.128ZM201.539 232.8C200.835 232.8 200.253 233.019 199.795 233.456C199.347 233.883 199.075 234.512 198.979 235.344H203.955C203.933 234.565 203.709 233.947 203.283 233.488C202.856 233.029 202.275 232.8 201.539 232.8ZM207.127 232.064C207.031 232.064 206.951 232.037 206.887 231.984C206.823 231.92 206.791 231.84 206.791 231.744L206.695 228.96C206.695 228.747 206.796 228.64 206.999 228.64H207.367C207.569 228.64 207.671 228.747 207.671 228.96L207.575 231.744C207.575 231.84 207.543 231.92 207.479 231.984C207.415 232.037 207.335 232.064 207.239 232.064H207.127ZM212.769 232.048C213.035 232.048 213.35 232.091 213.713 232.176C213.905 232.24 213.979 232.373 213.937 232.576L213.873 232.832C213.819 233.035 213.686 233.109 213.473 233.056C213.217 232.992 212.982 232.96 212.769 232.96C212.225 232.96 211.771 233.195 211.409 233.664C211.057 234.133 210.881 234.784 210.881 235.616V239.68C210.881 239.893 210.774 240 210.561 240H210.145C209.931 240 209.825 239.893 209.825 239.68V232.432C209.825 232.219 209.931 232.112 210.145 232.112H210.497C210.71 232.112 210.817 232.219 210.817 232.432V233.312C210.998 232.917 211.254 232.608 211.585 232.384C211.926 232.16 212.321 232.048 212.769 232.048ZM220.678 238.128C220.753 238.053 220.833 238.016 220.918 238.016C220.993 238.016 221.062 238.048 221.126 238.112L221.334 238.304C221.409 238.379 221.446 238.459 221.446 238.544C221.446 238.608 221.414 238.683 221.35 238.768C220.827 239.291 220.321 239.664 219.83 239.888C219.339 240.101 218.79 240.208 218.182 240.208C217.414 240.208 216.747 240.037 216.182 239.696C215.617 239.355 215.179 238.88 214.87 238.272C214.561 237.653 214.406 236.939 214.406 236.128C214.406 235.307 214.555 234.581 214.854 233.952C215.163 233.312 215.595 232.816 216.15 232.464C216.705 232.101 217.345 231.92 218.07 231.92C219.147 231.92 219.995 232.256 220.614 232.928C221.233 233.6 221.542 234.507 221.542 235.648V235.84C221.531 235.936 221.494 236.011 221.43 236.064C221.377 236.117 221.302 236.144 221.206 236.144H215.478C215.51 237.04 215.745 237.797 216.182 238.416C216.63 239.024 217.297 239.328 218.182 239.328C218.662 239.328 219.083 239.243 219.446 239.072C219.819 238.891 220.23 238.576 220.678 238.128ZM218.07 232.8C217.366 232.8 216.785 233.019 216.326 233.456C215.878 233.883 215.606 234.512 215.51 235.344H220.486C220.465 234.565 220.241 233.947 219.814 233.488C219.387 233.029 218.806 232.8 218.07 232.8ZM230.641 231.92C231.57 231.92 232.268 232.176 232.738 232.688C233.218 233.2 233.458 233.84 233.458 234.608V239.68C233.458 239.893 233.351 240 233.138 240H232.722C232.508 240 232.402 239.893 232.402 239.68V234.96C232.402 234.256 232.231 233.723 231.89 233.36C231.548 232.997 231.058 232.816 230.418 232.816C230.012 232.816 229.639 232.917 229.298 233.12C228.956 233.312 228.684 233.579 228.482 233.92C228.279 234.261 228.178 234.635 228.178 235.04V239.68C228.178 239.893 228.071 240 227.858 240H227.442C227.228 240 227.122 239.893 227.122 239.68V232.432C227.122 232.219 227.228 232.112 227.442 232.112H227.794C228.007 232.112 228.114 232.219 228.114 232.432V233.2C228.38 232.773 228.732 232.453 229.17 232.24C229.607 232.027 230.098 231.92 230.641 231.92ZM239.057 240.208C238.321 240.208 237.665 240.032 237.089 239.68C236.513 239.328 236.065 238.843 235.745 238.224C235.425 237.595 235.265 236.875 235.265 236.064C235.265 235.253 235.425 234.539 235.745 233.92C236.065 233.291 236.513 232.8 237.089 232.448C237.665 232.096 238.321 231.92 239.057 231.92C239.793 231.92 240.449 232.096 241.025 232.448C241.601 232.8 242.049 233.291 242.369 233.92C242.689 234.539 242.849 235.253 242.849 236.064C242.849 236.875 242.689 237.595 242.369 238.224C242.049 238.843 241.601 239.328 241.025 239.68C240.449 240.032 239.793 240.208 239.057 240.208ZM239.057 239.328C239.879 239.328 240.535 239.029 241.025 238.432C241.516 237.824 241.761 237.035 241.761 236.064C241.761 235.093 241.516 234.309 241.025 233.712C240.535 233.104 239.879 232.8 239.057 232.8C238.236 232.8 237.58 233.104 237.089 233.712C236.599 234.309 236.353 235.093 236.353 236.064C236.353 237.035 236.599 237.824 237.089 238.432C237.58 239.029 238.236 239.328 239.057 239.328ZM248.002 239.12C248.034 239.109 248.076 239.104 248.13 239.104C248.194 239.104 248.252 239.125 248.306 239.168C248.359 239.211 248.391 239.269 248.402 239.344L248.45 239.568C248.46 239.589 248.466 239.627 248.466 239.68C248.466 239.829 248.386 239.92 248.226 239.952C247.842 240.069 247.431 240.128 246.994 240.128C246.3 240.128 245.804 239.973 245.506 239.664C245.218 239.344 245.074 238.885 245.074 238.288V232.912H243.89C243.676 232.912 243.57 232.805 243.57 232.592V232.432C243.57 232.219 243.676 232.112 243.89 232.112H245.074V229.68C245.074 229.467 245.18 229.36 245.394 229.36H245.81C246.023 229.36 246.13 229.467 246.13 229.68V232.112H248.05C248.263 232.112 248.37 232.219 248.37 232.432V232.592C248.37 232.805 248.263 232.912 248.05 232.912H246.13V238.16C246.13 238.555 246.204 238.832 246.354 238.992C246.503 239.152 246.759 239.232 247.122 239.232C247.378 239.232 247.671 239.195 248.002 239.12ZM256.708 231.92C257.679 231.92 258.436 232.155 258.98 232.624C259.524 233.083 259.796 233.691 259.796 234.448V239.68C259.796 239.893 259.69 240 259.476 240H259.156C258.943 240 258.836 239.893 258.836 239.68V238.96C258.57 239.387 258.191 239.707 257.7 239.92C257.22 240.133 256.682 240.24 256.084 240.24C255.252 240.24 254.575 240.064 254.052 239.712C253.53 239.36 253.268 238.816 253.268 238.08C253.268 237.493 253.434 237.024 253.764 236.672C254.095 236.309 254.527 236.037 255.06 235.856C255.594 235.664 256.26 235.493 257.06 235.344L258.788 235.04V234.528C258.788 233.984 258.602 233.563 258.228 233.264C257.855 232.955 257.364 232.8 256.756 232.8C256.298 232.8 255.882 232.885 255.508 233.056C255.135 233.227 254.735 233.52 254.308 233.936C254.234 234.011 254.154 234.048 254.068 234.048C253.994 234.048 253.924 234.016 253.86 233.952L253.652 233.76C253.578 233.685 253.54 233.605 253.54 233.52C253.54 233.424 253.578 233.339 253.652 233.264C254.1 232.795 254.57 232.453 255.06 232.24C255.562 232.027 256.111 231.92 256.708 231.92ZM256.132 239.36C256.9 239.36 257.535 239.157 258.036 238.752C258.538 238.347 258.788 237.829 258.788 237.2V235.856L257.3 236.144C256.607 236.283 256.058 236.416 255.652 236.544C255.247 236.672 254.922 236.859 254.676 237.104C254.431 237.349 254.308 237.669 254.308 238.064C254.308 238.469 254.468 238.789 254.788 239.024C255.119 239.248 255.567 239.36 256.132 239.36ZM265.913 231.936C266.585 231.936 267.182 232.112 267.705 232.464C268.238 232.805 268.649 233.291 268.937 233.92C269.236 234.539 269.385 235.253 269.385 236.064C269.385 236.875 269.236 237.595 268.937 238.224C268.638 238.843 268.222 239.328 267.689 239.68C267.166 240.021 266.574 240.192 265.913 240.192C264.644 240.192 263.716 239.701 263.129 238.72V239.68C263.129 239.893 263.022 240 262.809 240H262.457C262.244 240 262.137 239.893 262.137 239.68V228.944C262.137 228.731 262.244 228.624 262.457 228.624H262.873C263.086 228.624 263.193 228.731 263.193 228.944V233.36C263.78 232.411 264.686 231.936 265.913 231.936ZM265.833 239.296C266.569 239.296 267.161 238.997 267.609 238.4C268.068 237.803 268.297 237.024 268.297 236.064C268.297 235.104 268.068 234.325 267.609 233.728C267.161 233.131 266.569 232.832 265.833 232.832C265.044 232.832 264.398 233.12 263.897 233.696C263.396 234.272 263.145 235.061 263.145 236.064C263.145 237.077 263.39 237.872 263.881 238.448C264.382 239.013 265.033 239.296 265.833 239.296ZM271.598 240C271.385 240 271.278 239.893 271.278 239.68V228.96C271.278 228.747 271.385 228.64 271.598 228.64H272.014C272.227 228.64 272.334 228.747 272.334 228.96V239.68C272.334 239.893 272.227 240 272.014 240H271.598ZM280.459 238.128C280.534 238.053 280.614 238.016 280.699 238.016C280.774 238.016 280.843 238.048 280.907 238.112L281.115 238.304C281.19 238.379 281.227 238.459 281.227 238.544C281.227 238.608 281.195 238.683 281.131 238.768C280.609 239.291 280.102 239.664 279.611 239.888C279.121 240.101 278.571 240.208 277.963 240.208C277.195 240.208 276.529 240.037 275.963 239.696C275.398 239.355 274.961 238.88 274.651 238.272C274.342 237.653 274.187 236.939 274.187 236.128C274.187 235.307 274.337 234.581 274.635 233.952C274.945 233.312 275.377 232.816 275.931 232.464C276.486 232.101 277.126 231.92 277.851 231.92C278.929 231.92 279.777 232.256 280.395 232.928C281.014 233.6 281.323 234.507 281.323 235.648V235.84C281.313 235.936 281.275 236.011 281.211 236.064C281.158 236.117 281.083 236.144 280.987 236.144H275.259C275.291 237.04 275.526 237.797 275.963 238.416C276.411 239.024 277.078 239.328 277.963 239.328C278.443 239.328 278.865 239.243 279.227 239.072C279.601 238.891 280.011 238.576 280.459 238.128ZM277.851 232.8C277.147 232.8 276.566 233.019 276.107 233.456C275.659 233.883 275.387 234.512 275.291 235.344H280.267C280.246 234.565 280.022 233.947 279.595 233.488C279.169 233.029 278.587 232.8 277.851 232.8ZM290.455 239.12C290.487 239.109 290.529 239.104 290.583 239.104C290.647 239.104 290.705 239.125 290.759 239.168C290.812 239.211 290.844 239.269 290.855 239.344L290.903 239.568C290.913 239.589 290.919 239.627 290.919 239.68C290.919 239.829 290.839 239.92 290.679 239.952C290.295 240.069 289.884 240.128 289.447 240.128C288.753 240.128 288.257 239.973 287.959 239.664C287.671 239.344 287.527 238.885 287.527 238.288V232.912H286.343C286.129 232.912 286.023 232.805 286.023 232.592V232.432C286.023 232.219 286.129 232.112 286.343 232.112H287.527V229.68C287.527 229.467 287.633 229.36 287.847 229.36H288.263C288.476 229.36 288.583 229.467 288.583 229.68V232.112H290.503C290.716 232.112 290.823 232.219 290.823 232.432V232.592C290.823 232.805 290.716 232.912 290.503 232.912H288.583V238.16C288.583 238.555 288.657 238.832 288.807 238.992C288.956 239.152 289.212 239.232 289.575 239.232C289.831 239.232 290.124 239.195 290.455 239.12ZM295.401 240.208C294.665 240.208 294.009 240.032 293.433 239.68C292.857 239.328 292.409 238.843 292.089 238.224C291.769 237.595 291.609 236.875 291.609 236.064C291.609 235.253 291.769 234.539 292.089 233.92C292.409 233.291 292.857 232.8 293.433 232.448C294.009 232.096 294.665 231.92 295.401 231.92C296.137 231.92 296.793 232.096 297.369 232.448C297.945 232.8 298.393 233.291 298.713 233.92C299.033 234.539 299.193 235.253 299.193 236.064C299.193 236.875 299.033 237.595 298.713 238.224C298.393 238.843 297.945 239.328 297.369 239.68C296.793 240.032 296.137 240.208 295.401 240.208ZM295.401 239.328C296.222 239.328 296.878 239.029 297.369 238.432C297.86 237.824 298.105 237.035 298.105 236.064C298.105 235.093 297.86 234.309 297.369 233.712C296.878 233.104 296.222 232.8 295.401 232.8C294.58 232.8 293.924 233.104 293.433 233.712C292.942 234.309 292.697 235.093 292.697 236.064C292.697 237.035 292.942 237.824 293.433 238.432C293.924 239.029 294.58 239.328 295.401 239.328ZM307.915 240.208C307.158 240.208 306.497 240.037 305.931 239.696C305.377 239.344 304.945 238.859 304.635 238.24C304.337 237.611 304.187 236.885 304.187 236.064C304.187 235.253 304.337 234.533 304.635 233.904C304.945 233.275 305.377 232.789 305.931 232.448C306.497 232.096 307.147 231.92 307.883 231.92C308.481 231.92 309.003 232.021 309.451 232.224C309.899 232.416 310.331 232.736 310.747 233.184C310.811 233.248 310.843 233.317 310.843 233.392C310.843 233.488 310.801 233.568 310.715 233.632L310.491 233.84C310.427 233.904 310.353 233.936 310.267 233.936C310.193 233.936 310.113 233.893 310.027 233.808C309.654 233.435 309.297 233.173 308.955 233.024C308.625 232.875 308.257 232.8 307.851 232.8C307.297 232.8 306.822 232.955 306.427 233.264C306.043 233.573 305.755 233.979 305.563 234.48C305.371 234.971 305.275 235.499 305.275 236.064C305.275 236.629 305.371 237.163 305.563 237.664C305.755 238.155 306.049 238.555 306.443 238.864C306.838 239.163 307.323 239.312 307.899 239.312C308.326 239.312 308.699 239.237 309.019 239.088C309.35 238.928 309.718 238.629 310.123 238.192C310.209 238.107 310.289 238.064 310.363 238.064C310.449 238.064 310.523 238.096 310.587 238.16L310.811 238.336C310.886 238.4 310.923 238.475 310.923 238.56C310.923 238.645 310.875 238.747 310.779 238.864C310.331 239.355 309.883 239.701 309.435 239.904C308.987 240.107 308.481 240.208 307.915 240.208ZM315.745 240.208C315.009 240.208 314.353 240.032 313.777 239.68C313.201 239.328 312.753 238.843 312.433 238.224C312.113 237.595 311.953 236.875 311.953 236.064C311.953 235.253 312.113 234.539 312.433 233.92C312.753 233.291 313.201 232.8 313.777 232.448C314.353 232.096 315.009 231.92 315.745 231.92C316.481 231.92 317.137 232.096 317.713 232.448C318.289 232.8 318.737 233.291 319.057 233.92C319.377 234.539 319.537 235.253 319.537 236.064C319.537 236.875 319.377 237.595 319.057 238.224C318.737 238.843 318.289 239.328 317.713 239.68C317.137 240.032 316.481 240.208 315.745 240.208ZM315.745 239.328C316.566 239.328 317.222 239.029 317.713 238.432C318.204 237.824 318.449 237.035 318.449 236.064C318.449 235.093 318.204 234.309 317.713 233.712C317.222 233.104 316.566 232.8 315.745 232.8C314.924 232.8 314.268 233.104 313.777 233.712C313.286 234.309 313.041 235.093 313.041 236.064C313.041 237.035 313.286 237.824 313.777 238.432C314.268 239.029 314.924 239.328 315.745 239.328ZM329.388 231.92C330.241 231.92 330.892 232.165 331.34 232.656C331.798 233.136 332.028 233.755 332.028 234.512V239.68C332.028 239.893 331.921 240 331.708 240H331.292C331.078 240 330.972 239.893 330.972 239.68V234.8C330.972 234.16 330.822 233.669 330.524 233.328C330.236 232.987 329.804 232.816 329.227 232.816C328.62 232.816 328.134 233.019 327.772 233.424C327.409 233.829 327.228 234.352 327.228 234.992V239.68C327.228 239.893 327.121 240 326.908 240H326.492C326.278 240 326.172 239.893 326.172 239.68V234.8C326.172 234.16 326.022 233.669 325.724 233.328C325.436 232.987 324.998 232.816 324.411 232.816C323.868 232.816 323.414 232.987 323.052 233.328C322.7 233.669 322.492 234.117 322.428 234.672V239.68C322.428 239.893 322.321 240 322.108 240H321.692C321.478 240 321.372 239.893 321.372 239.68V232.432C321.372 232.219 321.478 232.112 321.692 232.112H322.044C322.257 232.112 322.364 232.219 322.364 232.432V233.088C322.844 232.309 323.606 231.92 324.652 231.92C325.196 231.92 325.66 232.043 326.044 232.288C326.438 232.523 326.732 232.843 326.924 233.248C327.489 232.363 328.31 231.92 329.388 231.92ZM342.372 231.92C343.225 231.92 343.876 232.165 344.324 232.656C344.783 233.136 345.012 233.755 345.012 234.512V239.68C345.012 239.893 344.905 240 344.692 240H344.276C344.063 240 343.956 239.893 343.956 239.68V234.8C343.956 234.16 343.807 233.669 343.508 233.328C343.22 232.987 342.788 232.816 342.212 232.816C341.604 232.816 341.119 233.019 340.756 233.424C340.393 233.829 340.212 234.352 340.212 234.992V239.68C340.212 239.893 340.105 240 339.892 240H339.476C339.263 240 339.156 239.893 339.156 239.68V234.8C339.156 234.16 339.007 233.669 338.708 233.328C338.42 232.987 337.983 232.816 337.396 232.816C336.852 232.816 336.399 232.987 336.036 233.328C335.684 233.669 335.476 234.117 335.412 234.672V239.68C335.412 239.893 335.305 240 335.092 240H334.676C334.463 240 334.356 239.893 334.356 239.68V232.432C334.356 232.219 334.463 232.112 334.676 232.112H335.028C335.241 232.112 335.348 232.219 335.348 232.432V233.088C335.828 232.309 336.591 231.92 337.636 231.92C338.18 231.92 338.644 232.043 339.028 232.288C339.423 232.523 339.716 232.843 339.908 233.248C340.473 232.363 341.295 231.92 342.372 231.92ZM352.413 232.432C352.413 232.219 352.52 232.112 352.733 232.112H353.149C353.363 232.112 353.469 232.219 353.469 232.432V239.68C353.469 239.893 353.363 240 353.149 240H352.813C352.6 240 352.493 239.893 352.493 239.68V238.96C352.259 239.376 351.923 239.691 351.485 239.904C351.059 240.107 350.589 240.208 350.077 240.208C349.117 240.208 348.408 239.968 347.949 239.488C347.491 238.997 347.261 238.368 347.261 237.6V232.432C347.261 232.219 347.368 232.112 347.581 232.112H347.997C348.211 232.112 348.317 232.219 348.317 232.432V237.376C348.317 238.005 348.472 238.485 348.781 238.816C349.101 239.136 349.555 239.296 350.141 239.296C350.803 239.296 351.347 239.093 351.773 238.688C352.2 238.283 352.413 237.707 352.413 236.96V232.432ZM359.36 231.92C360.288 231.92 360.987 232.176 361.456 232.688C361.936 233.2 362.176 233.84 362.176 234.608V239.68C362.176 239.893 362.07 240 361.856 240H361.44C361.227 240 361.12 239.893 361.12 239.68V234.96C361.12 234.256 360.95 233.723 360.608 233.36C360.267 232.997 359.776 232.816 359.136 232.816C358.731 232.816 358.358 232.917 358.016 233.12C357.675 233.312 357.403 233.579 357.2 233.92C356.998 234.261 356.896 234.635 356.896 235.04V239.68C356.896 239.893 356.79 240 356.576 240H356.16C355.947 240 355.84 239.893 355.84 239.68V232.432C355.84 232.219 355.947 232.112 356.16 232.112H356.512C356.726 232.112 356.832 232.219 356.832 232.432V233.2C357.099 232.773 357.451 232.453 357.888 232.24C358.326 232.027 358.816 231.92 359.36 231.92ZM365.04 230.112C364.827 230.112 364.645 230.037 364.496 229.888C364.357 229.739 364.288 229.557 364.288 229.344C364.288 229.131 364.357 228.955 364.496 228.816C364.645 228.677 364.827 228.608 365.04 228.608C365.264 228.608 365.445 228.677 365.584 228.816C365.733 228.955 365.808 229.131 365.808 229.344C365.808 229.557 365.733 229.739 365.584 229.888C365.445 230.037 365.264 230.112 365.04 230.112ZM364.832 240C364.619 240 364.512 239.893 364.512 239.68V232.432C364.512 232.219 364.619 232.112 364.832 232.112H365.248C365.461 232.112 365.568 232.219 365.568 232.432V239.68C365.568 239.893 365.461 240 365.248 240H364.832ZM371.118 240.208C370.361 240.208 369.7 240.037 369.134 239.696C368.58 239.344 368.148 238.859 367.838 238.24C367.54 237.611 367.39 236.885 367.39 236.064C367.39 235.253 367.54 234.533 367.838 233.904C368.148 233.275 368.58 232.789 369.134 232.448C369.7 232.096 370.35 231.92 371.086 231.92C371.684 231.92 372.206 232.021 372.654 232.224C373.102 232.416 373.534 232.736 373.95 233.184C374.014 233.248 374.046 233.317 374.046 233.392C374.046 233.488 374.004 233.568 373.918 233.632L373.694 233.84C373.63 233.904 373.556 233.936 373.47 233.936C373.396 233.936 373.316 233.893 373.23 233.808C372.857 233.435 372.5 233.173 372.158 233.024C371.828 232.875 371.46 232.8 371.054 232.8C370.5 232.8 370.025 232.955 369.63 233.264C369.246 233.573 368.958 233.979 368.766 234.48C368.574 234.971 368.478 235.499 368.478 236.064C368.478 236.629 368.574 237.163 368.766 237.664C368.958 238.155 369.252 238.555 369.646 238.864C370.041 239.163 370.526 239.312 371.102 239.312C371.529 239.312 371.902 239.237 372.222 239.088C372.553 238.928 372.921 238.629 373.326 238.192C373.412 238.107 373.492 238.064 373.566 238.064C373.652 238.064 373.726 238.096 373.79 238.16L374.014 238.336C374.089 238.4 374.126 238.475 374.126 238.56C374.126 238.645 374.078 238.747 373.982 238.864C373.534 239.355 373.086 239.701 372.638 239.904C372.19 240.107 371.684 240.208 371.118 240.208ZM379.021 231.92C379.992 231.92 380.749 232.155 381.293 232.624C381.837 233.083 382.109 233.691 382.109 234.448V239.68C382.109 239.893 382.002 240 381.789 240H381.469C381.256 240 381.149 239.893 381.149 239.68V238.96C380.882 239.387 380.504 239.707 380.013 239.92C379.533 240.133 378.994 240.24 378.397 240.24C377.565 240.24 376.888 240.064 376.365 239.712C375.842 239.36 375.581 238.816 375.581 238.08C375.581 237.493 375.746 237.024 376.077 236.672C376.408 236.309 376.84 236.037 377.373 235.856C377.906 235.664 378.573 235.493 379.373 235.344L381.101 235.04V234.528C381.101 233.984 380.914 233.563 380.541 233.264C380.168 232.955 379.677 232.8 379.069 232.8C378.61 232.8 378.194 232.885 377.821 233.056C377.448 233.227 377.048 233.52 376.621 233.936C376.546 234.011 376.466 234.048 376.381 234.048C376.306 234.048 376.237 234.016 376.173 233.952L375.965 233.76C375.89 233.685 375.853 233.605 375.853 233.52C375.853 233.424 375.89 233.339 375.965 233.264C376.413 232.795 376.882 232.453 377.373 232.24C377.874 232.027 378.424 231.92 379.021 231.92ZM378.445 239.36C379.213 239.36 379.848 239.157 380.349 238.752C380.85 238.347 381.101 237.829 381.101 237.2V235.856L379.613 236.144C378.92 236.283 378.37 236.416 377.965 236.544C377.56 236.672 377.234 236.859 376.989 237.104C376.744 237.349 376.621 237.669 376.621 238.064C376.621 238.469 376.781 238.789 377.101 239.024C377.432 239.248 377.88 239.36 378.445 239.36ZM387.783 239.12C387.815 239.109 387.858 239.104 387.911 239.104C387.975 239.104 388.034 239.125 388.087 239.168C388.14 239.211 388.172 239.269 388.183 239.344L388.231 239.568C388.242 239.589 388.247 239.627 388.247 239.68C388.247 239.829 388.167 239.92 388.007 239.952C387.623 240.069 387.212 240.128 386.775 240.128C386.082 240.128 385.586 239.973 385.287 239.664C384.999 239.344 384.855 238.885 384.855 238.288V232.912H383.671C383.458 232.912 383.351 232.805 383.351 232.592V232.432C383.351 232.219 383.458 232.112 383.671 232.112H384.855V229.68C384.855 229.467 384.962 229.36 385.175 229.36H385.591C385.804 229.36 385.911 229.467 385.911 229.68V232.112H387.831C388.044 232.112 388.151 232.219 388.151 232.432V232.592C388.151 232.805 388.044 232.912 387.831 232.912H385.911V238.16C385.911 238.555 385.986 238.832 386.135 238.992C386.284 239.152 386.54 239.232 386.903 239.232C387.159 239.232 387.452 239.195 387.783 239.12ZM395.209 238.128C395.284 238.053 395.364 238.016 395.449 238.016C395.524 238.016 395.593 238.048 395.657 238.112L395.865 238.304C395.94 238.379 395.977 238.459 395.977 238.544C395.977 238.608 395.945 238.683 395.881 238.768C395.359 239.291 394.852 239.664 394.361 239.888C393.871 240.101 393.321 240.208 392.713 240.208C391.945 240.208 391.279 240.037 390.713 239.696C390.148 239.355 389.711 238.88 389.401 238.272C389.092 237.653 388.937 236.939 388.937 236.128C388.937 235.307 389.087 234.581 389.385 233.952C389.695 233.312 390.127 232.816 390.681 232.464C391.236 232.101 391.876 231.92 392.601 231.92C393.679 231.92 394.527 232.256 395.145 232.928C395.764 233.6 396.073 234.507 396.073 235.648V235.84C396.063 235.936 396.025 236.011 395.961 236.064C395.908 236.117 395.833 236.144 395.737 236.144H390.009C390.041 237.04 390.276 237.797 390.713 238.416C391.161 239.024 391.828 239.328 392.713 239.328C393.193 239.328 393.615 239.243 393.977 239.072C394.351 238.891 394.761 238.576 395.209 238.128ZM392.601 232.8C391.897 232.8 391.316 233.019 390.857 233.456C390.409 233.883 390.137 234.512 390.041 235.344H395.017C394.996 234.565 394.772 233.947 394.345 233.488C393.919 233.029 393.337 232.8 392.601 232.8ZM410.453 232.384C410.495 232.203 410.618 232.112 410.821 232.112H411.253C411.37 232.112 411.45 232.144 411.493 232.208C411.546 232.272 411.557 232.357 411.525 232.464L409.461 239.728C409.418 239.909 409.295 240 409.093 240H408.373C408.191 240 408.074 239.909 408.021 239.728L407.285 237.28C406.901 236 406.543 234.688 406.213 233.344C405.893 234.645 405.541 235.968 405.157 237.312L404.453 239.728C404.41 239.909 404.287 240 404.085 240H403.397C403.194 240 403.071 239.909 403.029 239.728L400.965 232.464C400.954 232.443 400.949 232.405 400.949 232.352C400.949 232.277 400.975 232.219 401.029 232.176C401.082 232.133 401.151 232.112 401.237 232.112H401.669C401.871 232.112 401.994 232.203 402.037 232.384L402.805 235.216C403.157 236.507 403.482 237.792 403.781 239.072C404.015 238.123 404.362 236.837 404.821 235.216L405.637 232.384C405.679 232.203 405.802 232.112 406.005 232.112H406.485C406.677 232.112 406.794 232.203 406.837 232.384L407.669 235.216C408.031 236.528 408.373 237.819 408.693 239.088C408.938 238.021 409.269 236.731 409.685 235.216L410.453 232.384ZM413.728 230.112C413.514 230.112 413.333 230.037 413.184 229.888C413.045 229.739 412.976 229.557 412.976 229.344C412.976 229.131 413.045 228.955 413.184 228.816C413.333 228.677 413.514 228.608 413.728 228.608C413.952 228.608 414.133 228.677 414.272 228.816C414.421 228.955 414.496 229.131 414.496 229.344C414.496 229.557 414.421 229.739 414.272 229.888C414.133 230.037 413.952 230.112 413.728 230.112ZM413.52 240C413.306 240 413.2 239.893 413.2 239.68V232.432C413.2 232.219 413.306 232.112 413.52 232.112H413.936C414.149 232.112 414.256 232.219 414.256 232.432V239.68C414.256 239.893 414.149 240 413.936 240H413.52ZM420.158 239.12C420.19 239.109 420.233 239.104 420.286 239.104C420.35 239.104 420.409 239.125 420.462 239.168C420.515 239.211 420.547 239.269 420.558 239.344L420.606 239.568C420.617 239.589 420.622 239.627 420.622 239.68C420.622 239.829 420.542 239.92 420.382 239.952C419.998 240.069 419.587 240.128 419.15 240.128C418.457 240.128 417.961 239.973 417.662 239.664C417.374 239.344 417.23 238.885 417.23 238.288V232.912H416.046C415.833 232.912 415.726 232.805 415.726 232.592V232.432C415.726 232.219 415.833 232.112 416.046 232.112H417.23V229.68C417.23 229.467 417.337 229.36 417.55 229.36H417.966C418.179 229.36 418.286 229.467 418.286 229.68V232.112H420.206C420.419 232.112 420.526 232.219 420.526 232.432V232.592C420.526 232.805 420.419 232.912 420.206 232.912H418.286V238.16C418.286 238.555 418.361 238.832 418.51 238.992C418.659 239.152 418.915 239.232 419.278 239.232C419.534 239.232 419.827 239.195 420.158 239.12ZM425.657 231.92C426.574 231.92 427.273 232.181 427.753 232.704C428.233 233.216 428.473 233.851 428.473 234.608V239.68C428.473 239.893 428.366 240 428.153 240H427.737C427.524 240 427.417 239.893 427.417 239.68V234.96C427.417 234.256 427.246 233.723 426.905 233.36C426.564 232.997 426.073 232.816 425.433 232.816C425.028 232.816 424.654 232.917 424.313 233.12C423.972 233.312 423.7 233.579 423.497 233.92C423.294 234.261 423.193 234.635 423.193 235.04V239.68C423.193 239.893 423.086 240 422.873 240H422.457C422.244 240 422.137 239.893 422.137 239.68V228.96C422.137 228.747 422.244 228.64 422.457 228.64H422.873C423.086 228.64 423.193 228.747 423.193 228.96V233.136C423.449 232.731 423.79 232.427 424.217 232.224C424.654 232.021 425.134 231.92 425.657 231.92ZM438.049 239.12C438.081 239.109 438.123 239.104 438.177 239.104C438.241 239.104 438.299 239.125 438.353 239.168C438.406 239.211 438.438 239.269 438.449 239.344L438.497 239.568C438.507 239.589 438.513 239.627 438.513 239.68C438.513 239.829 438.433 239.92 438.273 239.952C437.889 240.069 437.478 240.128 437.041 240.128C436.347 240.128 435.851 239.973 435.553 239.664C435.265 239.344 435.121 238.885 435.121 238.288V232.912H433.937C433.723 232.912 433.617 232.805 433.617 232.592V232.432C433.617 232.219 433.723 232.112 433.937 232.112H435.121V229.68C435.121 229.467 435.227 229.36 435.441 229.36H435.857C436.07 229.36 436.177 229.467 436.177 229.68V232.112H438.097C438.31 232.112 438.417 232.219 438.417 232.432V232.592C438.417 232.805 438.31 232.912 438.097 232.912H436.177V238.16C436.177 238.555 436.251 238.832 436.401 238.992C436.55 239.152 436.806 239.232 437.169 239.232C437.425 239.232 437.718 239.195 438.049 239.12ZM443.548 231.92C444.465 231.92 445.164 232.181 445.644 232.704C446.124 233.216 446.364 233.851 446.364 234.608V239.68C446.364 239.893 446.257 240 446.044 240H445.628C445.414 240 445.308 239.893 445.308 239.68V234.96C445.308 234.256 445.137 233.723 444.796 233.36C444.454 232.997 443.964 232.816 443.324 232.816C442.918 232.816 442.545 232.917 442.204 233.12C441.862 233.312 441.59 233.579 441.388 233.92C441.185 234.261 441.084 234.635 441.084 235.04V239.68C441.084 239.893 440.977 240 440.764 240H440.348C440.134 240 440.028 239.893 440.028 239.68V228.96C440.028 228.747 440.134 228.64 440.348 228.64H440.764C440.977 228.64 441.084 228.747 441.084 228.96V233.136C441.34 232.731 441.681 232.427 442.108 232.224C442.545 232.021 443.025 231.92 443.548 231.92ZM454.444 238.128C454.518 238.053 454.598 238.016 454.684 238.016C454.758 238.016 454.828 238.048 454.892 238.112L455.1 238.304C455.174 238.379 455.212 238.459 455.212 238.544C455.212 238.608 455.18 238.683 455.116 238.768C454.593 239.291 454.086 239.664 453.596 239.888C453.105 240.101 452.556 240.208 451.948 240.208C451.18 240.208 450.513 240.037 449.948 239.696C449.382 239.355 448.945 238.88 448.636 238.272C448.326 237.653 448.172 236.939 448.172 236.128C448.172 235.307 448.321 234.581 448.62 233.952C448.929 233.312 449.361 232.816 449.916 232.464C450.47 232.101 451.11 231.92 451.836 231.92C452.913 231.92 453.761 232.256 454.38 232.928C454.998 233.6 455.308 234.507 455.308 235.648V235.84C455.297 235.936 455.26 236.011 455.196 236.064C455.142 236.117 455.068 236.144 454.972 236.144H449.244C449.276 237.04 449.51 237.797 449.948 238.416C450.396 239.024 451.062 239.328 451.948 239.328C452.428 239.328 452.849 239.243 453.212 239.072C453.585 238.891 453.996 238.576 454.444 238.128ZM451.836 232.8C451.132 232.8 450.55 233.019 450.092 233.456C449.644 233.883 449.372 234.512 449.276 235.344H454.252C454.23 234.565 454.006 233.947 453.58 233.488C453.153 233.029 452.572 232.8 451.836 232.8ZM463.639 240.208C462.988 240.208 462.412 240.117 461.911 239.936C461.42 239.744 460.903 239.424 460.359 238.976C460.263 238.912 460.215 238.837 460.215 238.752C460.215 238.677 460.252 238.603 460.327 238.528L460.535 238.304C460.599 238.219 460.679 238.176 460.775 238.176C460.85 238.176 460.919 238.208 460.983 238.272C461.495 238.667 461.948 238.944 462.343 239.104C462.738 239.253 463.17 239.328 463.639 239.328C464.226 239.328 464.706 239.2 465.079 238.944C465.452 238.677 465.639 238.32 465.639 237.872C465.639 237.424 465.447 237.093 465.063 236.88C464.679 236.667 464.087 236.475 463.287 236.304C462.583 236.155 462.028 236 461.623 235.84C461.228 235.669 460.935 235.456 460.743 235.2C460.551 234.944 460.455 234.608 460.455 234.192C460.455 233.509 460.732 232.96 461.287 232.544C461.842 232.128 462.54 231.92 463.383 231.92C463.959 231.92 464.471 231.995 464.919 232.144C465.378 232.283 465.836 232.517 466.295 232.848C466.391 232.923 466.439 233.003 466.439 233.088C466.439 233.141 466.412 233.211 466.359 233.296L466.167 233.536C466.114 233.621 466.039 233.664 465.943 233.664C465.858 233.664 465.783 233.637 465.719 233.584C465.282 233.275 464.892 233.067 464.551 232.96C464.22 232.853 463.842 232.8 463.415 232.8C462.828 232.8 462.359 232.928 462.007 233.184C461.655 233.44 461.479 233.765 461.479 234.16C461.479 234.405 461.559 234.603 461.719 234.752C461.879 234.901 462.108 235.029 462.407 235.136C462.706 235.232 463.143 235.344 463.719 235.472C464.786 235.707 465.543 235.995 465.991 236.336C466.45 236.677 466.679 237.173 466.679 237.824C466.679 238.539 466.396 239.115 465.831 239.552C465.266 239.989 464.535 240.208 463.639 240.208ZM474.209 238.128C474.284 238.053 474.364 238.016 474.449 238.016C474.524 238.016 474.593 238.048 474.657 238.112L474.865 238.304C474.94 238.379 474.977 238.459 474.977 238.544C474.977 238.608 474.945 238.683 474.881 238.768C474.359 239.291 473.852 239.664 473.361 239.888C472.871 240.101 472.321 240.208 471.713 240.208C470.945 240.208 470.279 240.037 469.713 239.696C469.148 239.355 468.711 238.88 468.401 238.272C468.092 237.653 467.937 236.939 467.937 236.128C467.937 235.307 468.087 234.581 468.385 233.952C468.695 233.312 469.127 232.816 469.681 232.464C470.236 232.101 470.876 231.92 471.601 231.92C472.679 231.92 473.527 232.256 474.145 232.928C474.764 233.6 475.073 234.507 475.073 235.648V235.84C475.063 235.936 475.025 236.011 474.961 236.064C474.908 236.117 474.833 236.144 474.737 236.144H469.009C469.041 237.04 469.276 237.797 469.713 238.416C470.161 239.024 470.828 239.328 471.713 239.328C472.193 239.328 472.615 239.243 472.977 239.072C473.351 238.891 473.761 238.576 474.209 238.128ZM471.601 232.8C470.897 232.8 470.316 233.019 469.857 233.456C469.409 233.883 469.137 234.512 469.041 235.344H474.017C473.996 234.565 473.772 233.947 473.345 233.488C472.919 233.029 472.337 232.8 471.601 232.8ZM479.909 232.048C480.176 232.048 480.491 232.091 480.853 232.176C481.045 232.24 481.12 232.373 481.077 232.576L481.013 232.832C480.96 233.035 480.827 233.109 480.613 233.056C480.357 232.992 480.123 232.96 479.909 232.96C479.365 232.96 478.912 233.195 478.549 233.664C478.197 234.133 478.021 234.784 478.021 235.616V239.68C478.021 239.893 477.915 240 477.701 240H477.285C477.072 240 476.965 239.893 476.965 239.68V232.432C476.965 232.219 477.072 232.112 477.285 232.112H477.637C477.851 232.112 477.957 232.219 477.957 232.432V233.312C478.139 232.917 478.395 232.608 478.725 232.384C479.067 232.16 479.461 232.048 479.909 232.048ZM487.673 232.368C487.737 232.197 487.86 232.112 488.041 232.112H488.457C488.542 232.112 488.612 232.133 488.665 232.176C488.718 232.219 488.745 232.277 488.745 232.352L488.713 232.48L486.169 239.744C486.105 239.915 485.982 240 485.801 240H484.953C484.772 240 484.649 239.915 484.585 239.744L482.057 232.48L482.025 232.352C482.025 232.277 482.052 232.219 482.105 232.176C482.158 232.133 482.228 232.112 482.313 232.112H482.745C482.926 232.112 483.049 232.197 483.113 232.368L484.089 235.184C484.494 236.357 484.926 237.707 485.385 239.232C485.406 239.168 485.465 238.987 485.561 238.688C485.998 237.248 486.377 236.08 486.697 235.184L487.673 232.368ZM495.959 238.128C496.034 238.053 496.114 238.016 496.199 238.016C496.274 238.016 496.343 238.048 496.407 238.112L496.615 238.304C496.69 238.379 496.727 238.459 496.727 238.544C496.727 238.608 496.695 238.683 496.631 238.768C496.109 239.291 495.602 239.664 495.111 239.888C494.621 240.101 494.071 240.208 493.463 240.208C492.695 240.208 492.029 240.037 491.463 239.696C490.898 239.355 490.461 238.88 490.151 238.272C489.842 237.653 489.687 236.939 489.687 236.128C489.687 235.307 489.837 234.581 490.135 233.952C490.445 233.312 490.877 232.816 491.431 232.464C491.986 232.101 492.626 231.92 493.351 231.92C494.429 231.92 495.277 232.256 495.895 232.928C496.514 233.6 496.823 234.507 496.823 235.648V235.84C496.813 235.936 496.775 236.011 496.711 236.064C496.658 236.117 496.583 236.144 496.487 236.144H490.759C490.791 237.04 491.026 237.797 491.463 238.416C491.911 239.024 492.578 239.328 493.463 239.328C493.943 239.328 494.365 239.243 494.727 239.072C495.101 238.891 495.511 238.576 495.959 238.128ZM493.351 232.8C492.647 232.8 492.066 233.019 491.607 233.456C491.159 233.883 490.887 234.512 490.791 235.344H495.767C495.746 234.565 495.522 233.947 495.095 233.488C494.669 233.029 494.087 232.8 493.351 232.8ZM501.659 232.048C501.926 232.048 502.241 232.091 502.603 232.176C502.795 232.24 502.87 232.373 502.827 232.576L502.763 232.832C502.71 233.035 502.577 233.109 502.363 233.056C502.107 232.992 501.873 232.96 501.659 232.96C501.115 232.96 500.662 233.195 500.299 233.664C499.947 234.133 499.771 234.784 499.771 235.616V239.68C499.771 239.893 499.665 240 499.451 240H499.035C498.822 240 498.715 239.893 498.715 239.68V232.432C498.715 232.219 498.822 232.112 499.035 232.112H499.387C499.601 232.112 499.707 232.219 499.707 232.432V233.312C499.889 232.917 500.145 232.608 500.475 232.384C500.817 232.16 501.211 232.048 501.659 232.048ZM503.569 240.112C503.345 240.112 503.153 240.032 502.993 239.872C502.833 239.712 502.753 239.52 502.753 239.296C502.753 239.072 502.833 238.88 502.993 238.72C503.153 238.56 503.345 238.48 503.569 238.48C503.793 238.48 503.985 238.56 504.145 238.72C504.305 238.88 504.385 239.072 504.385 239.296C504.385 239.52 504.305 239.712 504.145 239.872C503.985 240.032 503.793 240.112 503.569 240.112ZM205.406 262.24C204.318 262.24 203.379 261.989 202.59 261.488C201.8 260.976 201.198 260.272 200.782 259.376C200.366 258.48 200.158 257.461 200.158 256.32C200.158 255.168 200.366 254.144 200.782 253.248C201.198 252.352 201.806 251.653 202.606 251.152C203.416 250.651 204.387 250.4 205.518 250.4C206.168 250.4 206.776 250.507 207.342 250.72C207.907 250.923 208.51 251.275 209.15 251.776C209.246 251.84 209.294 251.915 209.294 252C209.294 252.064 209.262 252.139 209.198 252.224L208.974 252.512C208.91 252.597 208.835 252.64 208.75 252.64C208.664 252.64 208.584 252.608 208.51 252.544C207.934 252.096 207.411 251.792 206.942 251.632C206.483 251.461 206.008 251.376 205.518 251.376C204.654 251.376 203.902 251.589 203.262 252.016C202.632 252.432 202.147 253.013 201.806 253.76C201.464 254.507 201.294 255.36 201.294 256.32C201.294 257.269 201.464 258.123 201.806 258.88C202.147 259.627 202.627 260.213 203.246 260.64C203.864 261.056 204.579 261.264 205.39 261.264C206.03 261.264 206.595 261.141 207.086 260.896C207.587 260.64 208.12 260.245 208.686 259.712C208.771 259.648 208.846 259.616 208.91 259.616C208.995 259.616 209.075 259.653 209.15 259.728L209.406 260.016C209.47 260.08 209.502 260.149 209.502 260.224C209.502 260.32 209.448 260.416 209.342 260.512C208.68 261.141 208.051 261.589 207.454 261.856C206.856 262.112 206.174 262.24 205.406 262.24ZM214.72 253.92C215.637 253.92 216.336 254.181 216.816 254.704C217.296 255.216 217.536 255.851 217.536 256.608V261.68C217.536 261.893 217.429 262 217.216 262H216.8C216.586 262 216.48 261.893 216.48 261.68V256.96C216.48 256.256 216.309 255.723 215.968 255.36C215.626 254.997 215.136 254.816 214.496 254.816C214.09 254.816 213.717 254.917 213.376 255.12C213.034 255.312 212.762 255.579 212.56 255.92C212.357 256.261 212.256 256.635 212.256 257.04V261.68C212.256 261.893 212.149 262 211.936 262H211.52C211.306 262 211.2 261.893 211.2 261.68V250.96C211.2 250.747 211.306 250.64 211.52 250.64H211.936C212.149 250.64 212.256 250.747 212.256 250.96V255.136C212.512 254.731 212.853 254.427 213.28 254.224C213.717 254.021 214.197 253.92 214.72 253.92ZM225.616 260.128C225.69 260.053 225.77 260.016 225.856 260.016C225.93 260.016 226 260.048 226.064 260.112L226.272 260.304C226.346 260.379 226.384 260.459 226.384 260.544C226.384 260.608 226.352 260.683 226.288 260.768C225.765 261.291 225.258 261.664 224.768 261.888C224.277 262.101 223.728 262.208 223.12 262.208C222.352 262.208 221.685 262.037 221.12 261.696C220.554 261.355 220.117 260.88 219.808 260.272C219.498 259.653 219.344 258.939 219.344 258.128C219.344 257.307 219.493 256.581 219.792 255.952C220.101 255.312 220.533 254.816 221.088 254.464C221.642 254.101 222.282 253.92 223.008 253.92C224.085 253.92 224.933 254.256 225.552 254.928C226.17 255.6 226.48 256.507 226.48 257.648V257.84C226.469 257.936 226.432 258.011 226.368 258.064C226.314 258.117 226.24 258.144 226.144 258.144H220.416C220.448 259.04 220.682 259.797 221.12 260.416C221.568 261.024 222.234 261.328 223.12 261.328C223.6 261.328 224.021 261.243 224.384 261.072C224.757 260.891 225.168 260.576 225.616 260.128ZM223.008 254.8C222.304 254.8 221.722 255.019 221.264 255.456C220.816 255.883 220.544 256.512 220.448 257.344H225.424C225.402 256.565 225.178 255.947 224.752 255.488C224.325 255.029 223.744 254.8 223.008 254.8ZM231.587 262.208C230.83 262.208 230.168 262.037 229.603 261.696C229.048 261.344 228.616 260.859 228.307 260.24C228.008 259.611 227.859 258.885 227.859 258.064C227.859 257.253 228.008 256.533 228.307 255.904C228.616 255.275 229.048 254.789 229.603 254.448C230.168 254.096 230.819 253.92 231.555 253.92C232.152 253.92 232.675 254.021 233.123 254.224C233.571 254.416 234.003 254.736 234.419 255.184C234.483 255.248 234.515 255.317 234.515 255.392C234.515 255.488 234.472 255.568 234.387 255.632L234.163 255.84C234.099 255.904 234.024 255.936 233.939 255.936C233.864 255.936 233.784 255.893 233.699 255.808C233.326 255.435 232.968 255.173 232.627 255.024C232.296 254.875 231.928 254.8 231.523 254.8C230.968 254.8 230.494 254.955 230.099 255.264C229.715 255.573 229.427 255.979 229.235 256.48C229.043 256.971 228.947 257.499 228.947 258.064C228.947 258.629 229.043 259.163 229.235 259.664C229.427 260.155 229.72 260.555 230.115 260.864C230.51 261.163 230.995 261.312 231.571 261.312C231.998 261.312 232.371 261.237 232.691 261.088C233.022 260.928 233.39 260.629 233.795 260.192C233.88 260.107 233.96 260.064 234.035 260.064C234.12 260.064 234.195 260.096 234.259 260.16L234.483 260.336C234.558 260.4 234.595 260.475 234.595 260.56C234.595 260.645 234.547 260.747 234.451 260.864C234.003 261.355 233.555 261.701 233.107 261.904C232.659 262.107 232.152 262.208 231.587 262.208ZM242.005 262C241.845 262 241.717 261.931 241.621 261.792L238.917 257.856L237.365 259.44V261.68C237.365 261.893 237.258 262 237.045 262H236.629C236.416 262 236.309 261.893 236.309 261.68V250.96C236.309 250.747 236.416 250.64 236.629 250.64H237.045C237.258 250.64 237.365 250.747 237.365 250.96V258.24L241.205 254.256C241.301 254.149 241.434 254.096 241.605 254.096H242.053C242.138 254.096 242.202 254.117 242.245 254.16C242.298 254.192 242.325 254.235 242.325 254.288C242.325 254.341 242.293 254.411 242.229 254.496L239.653 257.184L242.677 261.616C242.72 261.691 242.741 261.755 242.741 261.808C242.741 261.936 242.656 262 242.485 262H242.005ZM252.705 254.368C252.769 254.197 252.892 254.112 253.073 254.112H253.505C253.59 254.112 253.66 254.133 253.713 254.176C253.766 254.219 253.793 254.277 253.793 254.352L253.761 254.48L250.673 263.2C250.502 263.68 250.337 264.053 250.177 264.32C250.017 264.587 249.798 264.789 249.521 264.928C249.254 265.067 248.902 265.136 248.465 265.136C248.188 265.136 247.942 265.115 247.729 265.072C247.622 265.061 247.548 265.019 247.505 264.944C247.473 264.869 247.468 264.784 247.489 264.688L247.537 264.48C247.58 264.288 247.702 264.203 247.905 264.224C248.097 264.256 248.262 264.272 248.401 264.272C248.742 264.272 249.009 264.176 249.201 263.984C249.404 263.792 249.596 263.429 249.777 262.896L249.921 262.448L247.105 254.48L247.073 254.352C247.073 254.277 247.1 254.219 247.153 254.176C247.206 254.133 247.276 254.112 247.361 254.112H247.825C247.996 254.112 248.113 254.197 248.177 254.368L249.073 257.008C249.158 257.275 249.372 257.909 249.713 258.912L250.433 261.072C250.785 260.08 251.249 258.715 251.825 256.976L252.705 254.368ZM258.526 262.208C257.79 262.208 257.134 262.032 256.558 261.68C255.982 261.328 255.534 260.843 255.214 260.224C254.894 259.595 254.734 258.875 254.734 258.064C254.734 257.253 254.894 256.539 255.214 255.92C255.534 255.291 255.982 254.8 256.558 254.448C257.134 254.096 257.79 253.92 258.526 253.92C259.262 253.92 259.918 254.096 260.494 254.448C261.07 254.8 261.518 255.291 261.838 255.92C262.158 256.539 262.318 257.253 262.318 258.064C262.318 258.875 262.158 259.595 261.838 260.224C261.518 260.843 261.07 261.328 260.494 261.68C259.918 262.032 259.262 262.208 258.526 262.208ZM258.526 261.328C259.347 261.328 260.003 261.029 260.494 260.432C260.985 259.824 261.23 259.035 261.23 258.064C261.23 257.093 260.985 256.309 260.494 255.712C260.003 255.104 259.347 254.8 258.526 254.8C257.705 254.8 257.049 255.104 256.558 255.712C256.067 256.309 255.822 257.093 255.822 258.064C255.822 259.035 256.067 259.824 256.558 260.432C257.049 261.029 257.705 261.328 258.526 261.328ZM269.273 254.432C269.273 254.219 269.379 254.112 269.593 254.112H270.009C270.222 254.112 270.329 254.219 270.329 254.432V261.68C270.329 261.893 270.222 262 270.009 262H269.673C269.459 262 269.353 261.893 269.353 261.68V260.96C269.118 261.376 268.782 261.691 268.345 261.904C267.918 262.107 267.449 262.208 266.937 262.208C265.977 262.208 265.267 261.968 264.809 261.488C264.35 260.997 264.121 260.368 264.121 259.6V254.432C264.121 254.219 264.227 254.112 264.441 254.112H264.857C265.07 254.112 265.177 254.219 265.177 254.432V259.376C265.177 260.005 265.331 260.485 265.641 260.816C265.961 261.136 266.414 261.296 267.001 261.296C267.662 261.296 268.206 261.093 268.633 260.688C269.059 260.283 269.273 259.707 269.273 258.96V254.432ZM275.644 254.048C275.91 254.048 276.225 254.091 276.588 254.176C276.78 254.24 276.854 254.373 276.812 254.576L276.748 254.832C276.694 255.035 276.561 255.109 276.348 255.056C276.092 254.992 275.857 254.96 275.644 254.96C275.1 254.96 274.646 255.195 274.284 255.664C273.932 256.133 273.756 256.784 273.756 257.616V261.68C273.756 261.893 273.649 262 273.436 262H273.02C272.806 262 272.7 261.893 272.7 261.68V254.432C272.7 254.219 272.806 254.112 273.02 254.112H273.372C273.585 254.112 273.692 254.219 273.692 254.432V255.312C273.873 254.917 274.129 254.608 274.46 254.384C274.801 254.16 275.196 254.048 275.644 254.048ZM290.734 254.384C290.777 254.203 290.899 254.112 291.102 254.112H291.534C291.651 254.112 291.731 254.144 291.774 254.208C291.827 254.272 291.838 254.357 291.806 254.464L289.742 261.728C289.699 261.909 289.577 262 289.374 262H288.654C288.473 262 288.355 261.909 288.302 261.728L287.566 259.28C287.182 258 286.825 256.688 286.494 255.344C286.174 256.645 285.822 257.968 285.438 259.312L284.734 261.728C284.691 261.909 284.569 262 284.366 262H283.678C283.475 262 283.353 261.909 283.31 261.728L281.246 254.464C281.235 254.443 281.23 254.405 281.23 254.352C281.23 254.277 281.257 254.219 281.31 254.176C281.363 254.133 281.433 254.112 281.518 254.112H281.95C282.153 254.112 282.275 254.203 282.318 254.384L283.086 257.216C283.438 258.507 283.763 259.792 284.062 261.072C284.297 260.123 284.643 258.837 285.102 257.216L285.918 254.384C285.961 254.203 286.083 254.112 286.286 254.112H286.766C286.958 254.112 287.075 254.203 287.118 254.384L287.95 257.216C288.313 258.528 288.654 259.819 288.974 261.088C289.219 260.021 289.55 258.731 289.966 257.216L290.734 254.384ZM294.009 252.112C293.796 252.112 293.614 252.037 293.465 251.888C293.326 251.739 293.257 251.557 293.257 251.344C293.257 251.131 293.326 250.955 293.465 250.816C293.614 250.677 293.796 250.608 294.009 250.608C294.233 250.608 294.414 250.677 294.553 250.816C294.702 250.955 294.777 251.131 294.777 251.344C294.777 251.557 294.702 251.739 294.553 251.888C294.414 252.037 294.233 252.112 294.009 252.112ZM293.801 262C293.588 262 293.481 261.893 293.481 261.68V254.432C293.481 254.219 293.588 254.112 293.801 254.112H294.217C294.43 254.112 294.537 254.219 294.537 254.432V261.68C294.537 261.893 294.43 262 294.217 262H293.801ZM299.831 254.048C300.098 254.048 300.412 254.091 300.775 254.176C300.967 254.24 301.042 254.373 300.999 254.576L300.935 254.832C300.882 255.035 300.748 255.109 300.535 255.056C300.279 254.992 300.044 254.96 299.831 254.96C299.287 254.96 298.834 255.195 298.471 255.664C298.119 256.133 297.943 256.784 297.943 257.616V261.68C297.943 261.893 297.836 262 297.623 262H297.207C296.994 262 296.887 261.893 296.887 261.68V254.432C296.887 254.219 296.994 254.112 297.207 254.112H297.559C297.772 254.112 297.879 254.219 297.879 254.432V255.312C298.06 254.917 298.316 254.608 298.647 254.384C298.988 254.16 299.383 254.048 299.831 254.048ZM307.741 260.128C307.815 260.053 307.895 260.016 307.981 260.016C308.055 260.016 308.125 260.048 308.189 260.112L308.397 260.304C308.471 260.379 308.509 260.459 308.509 260.544C308.509 260.608 308.477 260.683 308.413 260.768C307.89 261.291 307.383 261.664 306.893 261.888C306.402 262.101 305.853 262.208 305.245 262.208C304.477 262.208 303.81 262.037 303.245 261.696C302.679 261.355 302.242 260.88 301.933 260.272C301.623 259.653 301.469 258.939 301.469 258.128C301.469 257.307 301.618 256.581 301.917 255.952C302.226 255.312 302.658 254.816 303.213 254.464C303.767 254.101 304.407 253.92 305.133 253.92C306.21 253.92 307.058 254.256 307.677 254.928C308.295 255.6 308.605 256.507 308.605 257.648V257.84C308.594 257.936 308.557 258.011 308.493 258.064C308.439 258.117 308.365 258.144 308.269 258.144H302.541C302.573 259.04 302.807 259.797 303.245 260.416C303.693 261.024 304.359 261.328 305.245 261.328C305.725 261.328 306.146 261.243 306.509 261.072C306.882 260.891 307.293 260.576 307.741 260.128ZM305.133 254.8C304.429 254.8 303.847 255.019 303.389 255.456C302.941 255.883 302.669 256.512 302.573 257.344H307.549C307.527 256.565 307.303 255.947 306.877 255.488C306.45 255.029 305.869 254.8 305.133 254.8ZM310.833 262C310.619 262 310.513 261.893 310.513 261.68V250.96C310.513 250.747 310.619 250.64 310.833 250.64H311.249C311.462 250.64 311.569 250.747 311.569 250.96V261.68C311.569 261.893 311.462 262 311.249 262H310.833ZM319.694 260.128C319.768 260.053 319.848 260.016 319.934 260.016C320.008 260.016 320.078 260.048 320.142 260.112L320.35 260.304C320.424 260.379 320.462 260.459 320.462 260.544C320.462 260.608 320.43 260.683 320.366 260.768C319.843 261.291 319.336 261.664 318.846 261.888C318.355 262.101 317.806 262.208 317.198 262.208C316.43 262.208 315.763 262.037 315.198 261.696C314.632 261.355 314.195 260.88 313.886 260.272C313.576 259.653 313.422 258.939 313.422 258.128C313.422 257.307 313.571 256.581 313.87 255.952C314.179 255.312 314.611 254.816 315.166 254.464C315.72 254.101 316.36 253.92 317.086 253.92C318.163 253.92 319.011 254.256 319.63 254.928C320.248 255.6 320.558 256.507 320.558 257.648V257.84C320.547 257.936 320.51 258.011 320.446 258.064C320.392 258.117 320.318 258.144 320.222 258.144H314.494C314.526 259.04 314.76 259.797 315.198 260.416C315.646 261.024 316.312 261.328 317.198 261.328C317.678 261.328 318.099 261.243 318.462 261.072C318.835 260.891 319.246 260.576 319.694 260.128ZM317.086 254.8C316.382 254.8 315.8 255.019 315.342 255.456C314.894 255.883 314.622 256.512 314.526 257.344H319.502C319.48 256.565 319.256 255.947 318.83 255.488C318.403 255.029 317.822 254.8 317.086 254.8ZM325.264 262.208C324.613 262.208 324.037 262.117 323.536 261.936C323.045 261.744 322.528 261.424 321.984 260.976C321.888 260.912 321.84 260.837 321.84 260.752C321.84 260.677 321.877 260.603 321.952 260.528L322.16 260.304C322.224 260.219 322.304 260.176 322.4 260.176C322.475 260.176 322.544 260.208 322.608 260.272C323.12 260.667 323.573 260.944 323.968 261.104C324.363 261.253 324.795 261.328 325.264 261.328C325.851 261.328 326.331 261.2 326.704 260.944C327.077 260.677 327.264 260.32 327.264 259.872C327.264 259.424 327.072 259.093 326.688 258.88C326.304 258.667 325.712 258.475 324.912 258.304C324.208 258.155 323.653 258 323.248 257.84C322.853 257.669 322.56 257.456 322.368 257.2C322.176 256.944 322.08 256.608 322.08 256.192C322.08 255.509 322.357 254.96 322.912 254.544C323.467 254.128 324.165 253.92 325.008 253.92C325.584 253.92 326.096 253.995 326.544 254.144C327.003 254.283 327.461 254.517 327.92 254.848C328.016 254.923 328.064 255.003 328.064 255.088C328.064 255.141 328.037 255.211 327.984 255.296L327.792 255.536C327.739 255.621 327.664 255.664 327.568 255.664C327.483 255.664 327.408 255.637 327.344 255.584C326.907 255.275 326.517 255.067 326.176 254.96C325.845 254.853 325.467 254.8 325.04 254.8C324.453 254.8 323.984 254.928 323.632 255.184C323.28 255.44 323.104 255.765 323.104 256.16C323.104 256.405 323.184 256.603 323.344 256.752C323.504 256.901 323.733 257.029 324.032 257.136C324.331 257.232 324.768 257.344 325.344 257.472C326.411 257.707 327.168 257.995 327.616 258.336C328.075 258.677 328.304 259.173 328.304 259.824C328.304 260.539 328.021 261.115 327.456 261.552C326.891 261.989 326.16 262.208 325.264 262.208ZM332.842 262.208C332.192 262.208 331.616 262.117 331.114 261.936C330.624 261.744 330.106 261.424 329.562 260.976C329.466 260.912 329.418 260.837 329.418 260.752C329.418 260.677 329.456 260.603 329.53 260.528L329.738 260.304C329.802 260.219 329.882 260.176 329.978 260.176C330.053 260.176 330.122 260.208 330.186 260.272C330.698 260.667 331.152 260.944 331.546 261.104C331.941 261.253 332.373 261.328 332.842 261.328C333.429 261.328 333.909 261.2 334.282 260.944C334.656 260.677 334.842 260.32 334.842 259.872C334.842 259.424 334.65 259.093 334.266 258.88C333.882 258.667 333.29 258.475 332.49 258.304C331.786 258.155 331.232 258 330.826 257.84C330.432 257.669 330.138 257.456 329.946 257.2C329.754 256.944 329.658 256.608 329.658 256.192C329.658 255.509 329.936 254.96 330.49 254.544C331.045 254.128 331.744 253.92 332.586 253.92C333.162 253.92 333.674 253.995 334.122 254.144C334.581 254.283 335.04 254.517 335.498 254.848C335.594 254.923 335.642 255.003 335.642 255.088C335.642 255.141 335.616 255.211 335.562 255.296L335.37 255.536C335.317 255.621 335.242 255.664 335.146 255.664C335.061 255.664 334.986 255.637 334.922 255.584C334.485 255.275 334.096 255.067 333.754 254.96C333.424 254.853 333.045 254.8 332.618 254.8C332.032 254.8 331.562 254.928 331.21 255.184C330.858 255.44 330.682 255.765 330.682 256.16C330.682 256.405 330.762 256.603 330.922 256.752C331.082 256.901 331.312 257.029 331.61 257.136C331.909 257.232 332.346 257.344 332.922 257.472C333.989 257.707 334.746 257.995 335.194 258.336C335.653 258.677 335.882 259.173 335.882 259.824C335.882 260.539 335.6 261.115 335.034 261.552C334.469 261.989 333.738 262.208 332.842 262.208ZM344.62 262.208C343.884 262.208 343.228 262.032 342.652 261.68C342.076 261.328 341.628 260.843 341.308 260.224C340.988 259.595 340.828 258.875 340.828 258.064C340.828 257.253 340.988 256.539 341.308 255.92C341.628 255.291 342.076 254.8 342.652 254.448C343.228 254.096 343.884 253.92 344.62 253.92C345.356 253.92 346.012 254.096 346.588 254.448C347.164 254.8 347.612 255.291 347.932 255.92C348.252 256.539 348.412 257.253 348.412 258.064C348.412 258.875 348.252 259.595 347.932 260.224C347.612 260.843 347.164 261.328 346.588 261.68C346.012 262.032 345.356 262.208 344.62 262.208ZM344.62 261.328C345.441 261.328 346.097 261.029 346.588 260.432C347.079 259.824 347.324 259.035 347.324 258.064C347.324 257.093 347.079 256.309 346.588 255.712C346.097 255.104 345.441 254.8 344.62 254.8C343.799 254.8 343.143 255.104 342.652 255.712C342.161 256.309 341.916 257.093 341.916 258.064C341.916 259.035 342.161 259.824 342.652 260.432C343.143 261.029 343.799 261.328 344.62 261.328ZM353.191 254.048C353.457 254.048 353.772 254.091 354.135 254.176C354.327 254.24 354.401 254.373 354.359 254.576L354.295 254.832C354.241 255.035 354.108 255.109 353.895 255.056C353.639 254.992 353.404 254.96 353.191 254.96C352.647 254.96 352.193 255.195 351.831 255.664C351.479 256.133 351.303 256.784 351.303 257.616V261.68C351.303 261.893 351.196 262 350.983 262H350.567C350.353 262 350.247 261.893 350.247 261.68V254.432C350.247 254.219 350.353 254.112 350.567 254.112H350.919C351.132 254.112 351.239 254.219 351.239 254.432V255.312C351.42 254.917 351.676 254.608 352.007 254.384C352.348 254.16 352.743 254.048 353.191 254.048ZM367.497 253.92C368.35 253.92 369.001 254.165 369.449 254.656C369.908 255.136 370.137 255.755 370.137 256.512V261.68C370.137 261.893 370.03 262 369.817 262H369.401C369.188 262 369.081 261.893 369.081 261.68V256.8C369.081 256.16 368.932 255.669 368.633 255.328C368.345 254.987 367.913 254.816 367.337 254.816C366.729 254.816 366.244 255.019 365.881 255.424C365.518 255.829 365.337 256.352 365.337 256.992V261.68C365.337 261.893 365.23 262 365.017 262H364.601C364.388 262 364.281 261.893 364.281 261.68V256.8C364.281 256.16 364.132 255.669 363.833 255.328C363.545 254.987 363.108 254.816 362.521 254.816C361.977 254.816 361.524 254.987 361.161 255.328C360.809 255.669 360.601 256.117 360.537 256.672V261.68C360.537 261.893 360.43 262 360.217 262H359.801C359.588 262 359.481 261.893 359.481 261.68V254.432C359.481 254.219 359.588 254.112 359.801 254.112H360.153C360.366 254.112 360.473 254.219 360.473 254.432V255.088C360.953 254.309 361.716 253.92 362.761 253.92C363.305 253.92 363.769 254.043 364.153 254.288C364.548 254.523 364.841 254.843 365.033 255.248C365.598 254.363 366.42 253.92 367.497 253.92ZM375.729 262.208C374.993 262.208 374.337 262.032 373.761 261.68C373.185 261.328 372.737 260.843 372.417 260.224C372.097 259.595 371.937 258.875 371.937 258.064C371.937 257.253 372.097 256.539 372.417 255.92C372.737 255.291 373.185 254.8 373.761 254.448C374.337 254.096 374.993 253.92 375.729 253.92C376.465 253.92 377.121 254.096 377.697 254.448C378.273 254.8 378.721 255.291 379.041 255.92C379.361 256.539 379.521 257.253 379.521 258.064C379.521 258.875 379.361 259.595 379.041 260.224C378.721 260.843 378.273 261.328 377.697 261.68C377.121 262.032 376.465 262.208 375.729 262.208ZM375.729 261.328C376.551 261.328 377.207 261.029 377.697 260.432C378.188 259.824 378.433 259.035 378.433 258.064C378.433 257.093 378.188 256.309 377.697 255.712C377.207 255.104 376.551 254.8 375.729 254.8C374.908 254.8 374.252 255.104 373.761 255.712C373.271 256.309 373.025 257.093 373.025 258.064C373.025 259.035 373.271 259.824 373.761 260.432C374.252 261.029 374.908 261.328 375.729 261.328ZM385.132 253.936C385.804 253.936 386.401 254.112 386.924 254.464C387.457 254.805 387.868 255.291 388.156 255.92C388.455 256.539 388.604 257.253 388.604 258.064C388.604 258.875 388.455 259.595 388.156 260.224C387.857 260.843 387.441 261.328 386.908 261.68C386.385 262.021 385.793 262.192 385.132 262.192C383.863 262.192 382.935 261.701 382.348 260.72V261.68C382.348 261.893 382.241 262 382.028 262H381.676C381.463 262 381.356 261.893 381.356 261.68V250.944C381.356 250.731 381.463 250.624 381.676 250.624H382.092C382.305 250.624 382.412 250.731 382.412 250.944V255.36C382.999 254.411 383.905 253.936 385.132 253.936ZM385.052 261.296C385.788 261.296 386.38 260.997 386.828 260.4C387.287 259.803 387.516 259.024 387.516 258.064C387.516 257.104 387.287 256.325 386.828 255.728C386.38 255.131 385.788 254.832 385.052 254.832C384.263 254.832 383.617 255.12 383.116 255.696C382.615 256.272 382.364 257.061 382.364 258.064C382.364 259.077 382.609 259.872 383.1 260.448C383.601 261.013 384.252 261.296 385.052 261.296ZM391.009 252.112C390.796 252.112 390.614 252.037 390.465 251.888C390.326 251.739 390.257 251.557 390.257 251.344C390.257 251.131 390.326 250.955 390.465 250.816C390.614 250.677 390.796 250.608 391.009 250.608C391.233 250.608 391.414 250.677 391.553 250.816C391.702 250.955 391.777 251.131 391.777 251.344C391.777 251.557 391.702 251.739 391.553 251.888C391.414 252.037 391.233 252.112 391.009 252.112ZM390.801 262C390.588 262 390.481 261.893 390.481 261.68V254.432C390.481 254.219 390.588 254.112 390.801 254.112H391.217C391.43 254.112 391.537 254.219 391.537 254.432V261.68C391.537 261.893 391.43 262 391.217 262H390.801ZM394.223 262C394.01 262 393.903 261.893 393.903 261.68V250.96C393.903 250.747 394.01 250.64 394.223 250.64H394.639C394.852 250.64 394.959 250.747 394.959 250.96V261.68C394.959 261.893 394.852 262 394.639 262H394.223ZM403.084 260.128C403.159 260.053 403.239 260.016 403.324 260.016C403.399 260.016 403.468 260.048 403.532 260.112L403.74 260.304C403.815 260.379 403.852 260.459 403.852 260.544C403.852 260.608 403.82 260.683 403.756 260.768C403.234 261.291 402.727 261.664 402.236 261.888C401.746 262.101 401.196 262.208 400.588 262.208C399.82 262.208 399.154 262.037 398.588 261.696C398.023 261.355 397.586 260.88 397.276 260.272C396.967 259.653 396.812 258.939 396.812 258.128C396.812 257.307 396.962 256.581 397.26 255.952C397.57 255.312 398.002 254.816 398.556 254.464C399.111 254.101 399.751 253.92 400.476 253.92C401.554 253.92 402.402 254.256 403.02 254.928C403.639 255.6 403.948 256.507 403.948 257.648V257.84C403.938 257.936 403.9 258.011 403.836 258.064C403.783 258.117 403.708 258.144 403.612 258.144H397.884C397.916 259.04 398.151 259.797 398.588 260.416C399.036 261.024 399.703 261.328 400.588 261.328C401.068 261.328 401.49 261.243 401.852 261.072C402.226 260.891 402.636 260.576 403.084 260.128ZM400.476 254.8C399.772 254.8 399.191 255.019 398.732 255.456C398.284 255.883 398.012 256.512 397.916 257.344H402.892C402.871 256.565 402.647 255.947 402.22 255.488C401.794 255.029 401.212 254.8 400.476 254.8ZM412.728 262.208C411.97 262.208 411.309 262.037 410.744 261.696C410.189 261.344 409.757 260.859 409.448 260.24C409.149 259.611 409 258.885 409 258.064C409 257.253 409.149 256.533 409.448 255.904C409.757 255.275 410.189 254.789 410.744 254.448C411.309 254.096 411.96 253.92 412.696 253.92C413.293 253.92 413.816 254.021 414.264 254.224C414.712 254.416 415.144 254.736 415.56 255.184C415.624 255.248 415.656 255.317 415.656 255.392C415.656 255.488 415.613 255.568 415.528 255.632L415.304 255.84C415.24 255.904 415.165 255.936 415.08 255.936C415.005 255.936 414.925 255.893 414.84 255.808C414.466 255.435 414.109 255.173 413.768 255.024C413.437 254.875 413.069 254.8 412.664 254.8C412.109 254.8 411.634 254.955 411.24 255.264C410.856 255.573 410.568 255.979 410.376 256.48C410.184 256.971 410.088 257.499 410.088 258.064C410.088 258.629 410.184 259.163 410.376 259.664C410.568 260.155 410.861 260.555 411.256 260.864C411.65 261.163 412.136 261.312 412.712 261.312C413.138 261.312 413.512 261.237 413.832 261.088C414.162 260.928 414.53 260.629 414.936 260.192C415.021 260.107 415.101 260.064 415.176 260.064C415.261 260.064 415.336 260.096 415.4 260.16L415.624 260.336C415.698 260.4 415.736 260.475 415.736 260.56C415.736 260.645 415.688 260.747 415.592 260.864C415.144 261.355 414.696 261.701 414.248 261.904C413.8 262.107 413.293 262.208 412.728 262.208ZM420.557 262.208C419.821 262.208 419.165 262.032 418.589 261.68C418.013 261.328 417.565 260.843 417.245 260.224C416.925 259.595 416.765 258.875 416.765 258.064C416.765 257.253 416.925 256.539 417.245 255.92C417.565 255.291 418.013 254.8 418.589 254.448C419.165 254.096 419.821 253.92 420.557 253.92C421.293 253.92 421.949 254.096 422.525 254.448C423.101 254.8 423.549 255.291 423.869 255.92C424.189 256.539 424.349 257.253 424.349 258.064C424.349 258.875 424.189 259.595 423.869 260.224C423.549 260.843 423.101 261.328 422.525 261.68C421.949 262.032 421.293 262.208 420.557 262.208ZM420.557 261.328C421.379 261.328 422.035 261.029 422.525 260.432C423.016 259.824 423.261 259.035 423.261 258.064C423.261 257.093 423.016 256.309 422.525 255.712C422.035 255.104 421.379 254.8 420.557 254.8C419.736 254.8 419.08 255.104 418.589 255.712C418.099 256.309 417.853 257.093 417.853 258.064C417.853 259.035 418.099 259.824 418.589 260.432C419.08 261.029 419.736 261.328 420.557 261.328ZM429.704 253.92C430.632 253.92 431.331 254.176 431.8 254.688C432.28 255.2 432.52 255.84 432.52 256.608V261.68C432.52 261.893 432.413 262 432.2 262H431.784C431.571 262 431.464 261.893 431.464 261.68V256.96C431.464 256.256 431.293 255.723 430.952 255.36C430.611 254.997 430.12 254.816 429.48 254.816C429.075 254.816 428.701 254.917 428.36 255.12C428.019 255.312 427.747 255.579 427.544 255.92C427.341 256.261 427.24 256.635 427.24 257.04V261.68C427.24 261.893 427.133 262 426.92 262H426.504C426.291 262 426.184 261.893 426.184 261.68V254.432C426.184 254.219 426.291 254.112 426.504 254.112H426.856C427.069 254.112 427.176 254.219 427.176 254.432V255.2C427.443 254.773 427.795 254.453 428.232 254.24C428.669 254.027 429.16 253.92 429.704 253.92ZM438.376 253.92C439.304 253.92 440.003 254.176 440.472 254.688C440.952 255.2 441.192 255.84 441.192 256.608V261.68C441.192 261.893 441.085 262 440.872 262H440.456C440.243 262 440.136 261.893 440.136 261.68V256.96C440.136 256.256 439.965 255.723 439.624 255.36C439.283 254.997 438.792 254.816 438.152 254.816C437.747 254.816 437.373 254.917 437.032 255.12C436.691 255.312 436.419 255.579 436.216 255.92C436.013 256.261 435.912 256.635 435.912 257.04V261.68C435.912 261.893 435.805 262 435.592 262H435.176C434.963 262 434.856 261.893 434.856 261.68V254.432C434.856 254.219 434.963 254.112 435.176 254.112H435.528C435.741 254.112 435.848 254.219 435.848 254.432V255.2C436.115 254.773 436.467 254.453 436.904 254.24C437.341 254.027 437.832 253.92 438.376 253.92ZM449.272 260.128C449.346 260.053 449.426 260.016 449.512 260.016C449.586 260.016 449.656 260.048 449.72 260.112L449.928 260.304C450.002 260.379 450.04 260.459 450.04 260.544C450.04 260.608 450.008 260.683 449.944 260.768C449.421 261.291 448.914 261.664 448.424 261.888C447.933 262.101 447.384 262.208 446.776 262.208C446.008 262.208 445.341 262.037 444.776 261.696C444.21 261.355 443.773 260.88 443.464 260.272C443.154 259.653 443 258.939 443 258.128C443 257.307 443.149 256.581 443.448 255.952C443.757 255.312 444.189 254.816 444.744 254.464C445.298 254.101 445.938 253.92 446.664 253.92C447.741 253.92 448.589 254.256 449.208 254.928C449.826 255.6 450.136 256.507 450.136 257.648V257.84C450.125 257.936 450.088 258.011 450.024 258.064C449.97 258.117 449.896 258.144 449.8 258.144H444.072C444.104 259.04 444.338 259.797 444.776 260.416C445.224 261.024 445.89 261.328 446.776 261.328C447.256 261.328 447.677 261.243 448.04 261.072C448.413 260.891 448.824 260.576 449.272 260.128ZM446.664 254.8C445.96 254.8 445.378 255.019 444.92 255.456C444.472 255.883 444.2 256.512 444.104 257.344H449.08C449.058 256.565 448.834 255.947 448.408 255.488C447.981 255.029 447.4 254.8 446.664 254.8ZM455.243 262.208C454.486 262.208 453.825 262.037 453.259 261.696C452.705 261.344 452.273 260.859 451.963 260.24C451.665 259.611 451.515 258.885 451.515 258.064C451.515 257.253 451.665 256.533 451.963 255.904C452.273 255.275 452.705 254.789 453.259 254.448C453.825 254.096 454.475 253.92 455.211 253.92C455.809 253.92 456.331 254.021 456.779 254.224C457.227 254.416 457.659 254.736 458.075 255.184C458.139 255.248 458.171 255.317 458.171 255.392C458.171 255.488 458.129 255.568 458.043 255.632L457.819 255.84C457.755 255.904 457.681 255.936 457.595 255.936C457.521 255.936 457.441 255.893 457.355 255.808C456.982 255.435 456.625 255.173 456.283 255.024C455.953 254.875 455.585 254.8 455.179 254.8C454.625 254.8 454.15 254.955 453.755 255.264C453.371 255.573 453.083 255.979 452.891 256.48C452.699 256.971 452.603 257.499 452.603 258.064C452.603 258.629 452.699 259.163 452.891 259.664C453.083 260.155 453.377 260.555 453.771 260.864C454.166 261.163 454.651 261.312 455.227 261.312C455.654 261.312 456.027 261.237 456.347 261.088C456.678 260.928 457.046 260.629 457.451 260.192C457.537 260.107 457.617 260.064 457.691 260.064C457.777 260.064 457.851 260.096 457.915 260.16L458.139 260.336C458.214 260.4 458.251 260.475 458.251 260.56C458.251 260.645 458.203 260.747 458.107 260.864C457.659 261.355 457.211 261.701 456.763 261.904C456.315 262.107 455.809 262.208 455.243 262.208ZM463.564 261.12C463.596 261.109 463.639 261.104 463.692 261.104C463.756 261.104 463.815 261.125 463.868 261.168C463.921 261.211 463.953 261.269 463.964 261.344L464.012 261.568C464.023 261.589 464.028 261.627 464.028 261.68C464.028 261.829 463.948 261.92 463.788 261.952C463.404 262.069 462.993 262.128 462.556 262.128C461.863 262.128 461.367 261.973 461.068 261.664C460.78 261.344 460.636 260.885 460.636 260.288V254.912H459.452C459.239 254.912 459.132 254.805 459.132 254.592V254.432C459.132 254.219 459.239 254.112 459.452 254.112H460.636V251.68C460.636 251.467 460.743 251.36 460.956 251.36H461.372C461.585 251.36 461.692 251.467 461.692 251.68V254.112H463.612C463.825 254.112 463.932 254.219 463.932 254.432V254.592C463.932 254.805 463.825 254.912 463.612 254.912H461.692V260.16C461.692 260.555 461.767 260.832 461.916 260.992C462.065 261.152 462.321 261.232 462.684 261.232C462.94 261.232 463.233 261.195 463.564 261.12ZM466.071 252.112C465.858 252.112 465.677 252.037 465.527 251.888C465.389 251.739 465.319 251.557 465.319 251.344C465.319 251.131 465.389 250.955 465.527 250.816C465.677 250.677 465.858 250.608 466.071 250.608C466.295 250.608 466.477 250.677 466.615 250.816C466.765 250.955 466.839 251.131 466.839 251.344C466.839 251.557 466.765 251.739 466.615 251.888C466.477 252.037 466.295 252.112 466.071 252.112ZM465.863 262C465.65 262 465.543 261.893 465.543 261.68V254.432C465.543 254.219 465.65 254.112 465.863 254.112H466.279C466.493 254.112 466.599 254.219 466.599 254.432V261.68C466.599 261.893 466.493 262 466.279 262H465.863ZM472.214 262.208C471.478 262.208 470.822 262.032 470.246 261.68C469.67 261.328 469.222 260.843 468.902 260.224C468.582 259.595 468.422 258.875 468.422 258.064C468.422 257.253 468.582 256.539 468.902 255.92C469.222 255.291 469.67 254.8 470.246 254.448C470.822 254.096 471.478 253.92 472.214 253.92C472.95 253.92 473.606 254.096 474.182 254.448C474.758 254.8 475.206 255.291 475.526 255.92C475.846 256.539 476.006 257.253 476.006 258.064C476.006 258.875 475.846 259.595 475.526 260.224C475.206 260.843 474.758 261.328 474.182 261.68C473.606 262.032 472.95 262.208 472.214 262.208ZM472.214 261.328C473.035 261.328 473.691 261.029 474.182 260.432C474.672 259.824 474.918 259.035 474.918 258.064C474.918 257.093 474.672 256.309 474.182 255.712C473.691 255.104 473.035 254.8 472.214 254.8C471.392 254.8 470.736 255.104 470.246 255.712C469.755 256.309 469.51 257.093 469.51 258.064C469.51 259.035 469.755 259.824 470.246 260.432C470.736 261.029 471.392 261.328 472.214 261.328ZM481.36 253.92C482.288 253.92 482.987 254.176 483.456 254.688C483.936 255.2 484.176 255.84 484.176 256.608V261.68C484.176 261.893 484.07 262 483.856 262H483.44C483.227 262 483.12 261.893 483.12 261.68V256.96C483.12 256.256 482.95 255.723 482.608 255.36C482.267 254.997 481.776 254.816 481.136 254.816C480.731 254.816 480.358 254.917 480.016 255.12C479.675 255.312 479.403 255.579 479.2 255.92C478.998 256.261 478.896 256.635 478.896 257.04V261.68C478.896 261.893 478.79 262 478.576 262H478.16C477.947 262 477.84 261.893 477.84 261.68V254.432C477.84 254.219 477.947 254.112 478.16 254.112H478.512C478.726 254.112 478.832 254.219 478.832 254.432V255.2C479.099 254.773 479.451 254.453 479.888 254.24C480.326 254.027 480.816 253.92 481.36 253.92ZM486.944 262.112C486.72 262.112 486.528 262.032 486.368 261.872C486.208 261.712 486.128 261.52 486.128 261.296C486.128 261.072 486.208 260.88 486.368 260.72C486.528 260.56 486.72 260.48 486.944 260.48C487.168 260.48 487.36 260.56 487.52 260.72C487.68 260.88 487.76 261.072 487.76 261.296C487.76 261.52 487.68 261.712 487.52 261.872C487.36 262.032 487.168 262.112 486.944 262.112Z" fill="#1B1B1F"/>
<rect x="295.5" y="292" width="97" height="48" rx="8" fill="#0063FB"/>
<path d="M316.16 321C315.989 321 315.85 320.952 315.744 320.856C315.648 320.749 315.6 320.611 315.6 320.44V311.192H312.688C312.517 311.192 312.378 311.144 312.272 311.048C312.176 310.941 312.128 310.803 312.128 310.632V310.2C312.128 310.019 312.176 309.88 312.272 309.784C312.378 309.688 312.517 309.64 312.688 309.64H320.32C320.501 309.64 320.64 309.688 320.736 309.784C320.832 309.88 320.88 310.019 320.88 310.2V310.632C320.88 310.803 320.832 310.941 320.736 311.048C320.64 311.144 320.501 311.192 320.32 311.192H317.424V320.44C317.424 320.611 317.376 320.749 317.28 320.856C317.184 320.952 317.045 321 316.864 321H316.16ZM324.567 313.032C324.802 313.032 325.042 313.059 325.287 313.112C325.575 313.176 325.719 313.347 325.719 313.624C325.719 313.699 325.714 313.752 325.703 313.784L325.623 314.168C325.559 314.467 325.399 314.616 325.143 314.616L324.999 314.6C324.807 314.568 324.636 314.552 324.487 314.552C323.954 314.552 323.522 314.765 323.191 315.192C322.871 315.608 322.711 316.189 322.711 316.936V320.44C322.711 320.611 322.663 320.749 322.567 320.856C322.471 320.952 322.332 321 322.151 321H321.575C321.404 321 321.266 320.952 321.159 320.856C321.063 320.749 321.015 320.611 321.015 320.44V313.672C321.015 313.491 321.063 313.352 321.159 313.256C321.266 313.16 321.404 313.112 321.575 313.112H322.039C322.22 313.112 322.359 313.16 322.455 313.256C322.551 313.352 322.599 313.491 322.599 313.672V314.296C322.791 313.901 323.052 313.592 323.383 313.368C323.714 313.144 324.108 313.032 324.567 313.032ZM332.097 313.576C332.193 313.267 332.401 313.112 332.721 313.112H333.297C333.457 313.112 333.58 313.149 333.665 313.224C333.75 313.299 333.793 313.4 333.793 313.528C333.793 313.592 333.777 313.667 333.745 313.752L330.881 321.976C330.625 322.723 330.305 323.251 329.921 323.56C329.548 323.88 329.014 324.04 328.321 324.04C328.001 324.04 327.729 324.019 327.505 323.976C327.356 323.965 327.244 323.912 327.169 323.816C327.094 323.731 327.057 323.624 327.057 323.496C327.057 323.421 327.062 323.363 327.073 323.32L327.121 323.112C327.196 322.813 327.356 322.664 327.601 322.664C327.697 322.664 327.788 322.669 327.873 322.68C327.958 322.691 328.044 322.696 328.129 322.696C328.438 322.696 328.694 322.616 328.897 322.456C329.11 322.296 329.286 322.003 329.425 321.576L329.473 321.448L326.737 313.752C326.705 313.667 326.689 313.587 326.689 313.512C326.689 313.384 326.732 313.288 326.817 313.224C326.913 313.149 327.041 313.112 327.201 313.112H327.809C328.14 313.112 328.353 313.267 328.449 313.576L329.073 315.448C329.542 316.792 329.942 318.024 330.273 319.144L330.737 317.72C330.812 317.496 330.924 317.144 331.073 316.664C331.222 316.184 331.356 315.773 331.473 315.432L332.097 313.576ZM341.921 312.872C342.988 312.872 343.809 313.123 344.385 313.624C344.961 314.115 345.249 314.771 345.249 315.592V320.44C345.249 320.611 345.201 320.749 345.105 320.856C345.009 320.952 344.871 321 344.689 321H344.273C344.103 321 343.964 320.952 343.857 320.856C343.761 320.749 343.713 320.611 343.713 320.44V320.088C343.457 320.461 343.105 320.749 342.657 320.952C342.209 321.155 341.687 321.256 341.089 321.256C340.268 321.256 339.591 321.075 339.057 320.712C338.535 320.339 338.273 319.779 338.273 319.032C338.273 318.2 338.583 317.587 339.201 317.192C339.831 316.787 340.7 316.483 341.809 316.28L343.617 315.944V315.656C343.617 315.219 343.463 314.883 343.153 314.648C342.855 314.403 342.455 314.28 341.953 314.28C341.527 314.28 341.153 314.355 340.833 314.504C340.524 314.643 340.188 314.877 339.825 315.208C339.687 315.325 339.553 315.384 339.425 315.384C339.297 315.384 339.164 315.325 339.025 315.208L338.769 314.984C338.631 314.856 338.561 314.717 338.561 314.568C338.561 314.429 338.625 314.296 338.753 314.168C339.212 313.731 339.697 313.405 340.209 313.192C340.721 312.979 341.292 312.872 341.921 312.872ZM341.329 319.896C341.969 319.896 342.508 319.725 342.945 319.384C343.393 319.043 343.617 318.552 343.617 317.912V317.176L342.225 317.464C341.447 317.624 340.871 317.805 340.497 318.008C340.124 318.211 339.937 318.52 339.937 318.936C339.937 319.235 340.06 319.469 340.305 319.64C340.551 319.811 340.892 319.896 341.329 319.896ZM352.739 313.624C352.739 313.464 352.787 313.341 352.883 313.256C352.99 313.16 353.128 313.112 353.299 313.112H353.747C353.928 313.112 354.067 313.16 354.163 313.256C354.259 313.352 354.307 313.491 354.307 313.672V320.712C354.307 321.768 353.966 322.589 353.283 323.176C352.611 323.763 351.715 324.056 350.595 324.056C349.475 324.056 348.419 323.768 347.427 323.192C347.224 323.085 347.123 322.941 347.123 322.76C347.123 322.664 347.166 322.547 347.251 322.408L347.459 322.104C347.576 321.923 347.72 321.832 347.891 321.832C348.008 321.832 348.126 321.869 348.243 321.944C348.67 322.189 349.064 322.365 349.427 322.472C349.79 322.589 350.174 322.648 350.579 322.648C351.198 322.648 351.694 322.477 352.067 322.136C352.451 321.805 352.643 321.283 352.643 320.568V319.72C352.11 320.477 351.31 320.856 350.243 320.856C349.582 320.856 348.984 320.691 348.451 320.36C347.928 320.019 347.518 319.549 347.219 318.952C346.931 318.344 346.787 317.651 346.787 316.872C346.787 316.093 346.931 315.405 347.219 314.808C347.518 314.2 347.928 313.725 348.451 313.384C348.984 313.043 349.582 312.872 350.243 312.872C351.374 312.872 352.206 313.293 352.739 314.136V313.624ZM350.579 319.432C351.198 319.432 351.704 319.197 352.099 318.728C352.494 318.248 352.691 317.629 352.691 316.872C352.691 316.125 352.494 315.517 352.099 315.048C351.715 314.568 351.208 314.328 350.579 314.328C349.939 314.328 349.432 314.563 349.059 315.032C348.686 315.501 348.499 316.115 348.499 316.872C348.499 317.64 348.686 318.259 349.059 318.728C349.432 319.197 349.939 319.432 350.579 319.432ZM359.593 312.872C360.66 312.872 361.481 313.123 362.057 313.624C362.633 314.115 362.921 314.771 362.921 315.592V320.44C362.921 320.611 362.873 320.749 362.777 320.856C362.681 320.952 362.542 321 362.361 321H361.945C361.774 321 361.636 320.952 361.529 320.856C361.433 320.749 361.385 320.611 361.385 320.44V320.088C361.129 320.461 360.777 320.749 360.329 320.952C359.881 321.155 359.358 321.256 358.761 321.256C357.94 321.256 357.262 321.075 356.729 320.712C356.206 320.339 355.945 319.779 355.945 319.032C355.945 318.2 356.254 317.587 356.873 317.192C357.502 316.787 358.372 316.483 359.481 316.28L361.289 315.944V315.656C361.289 315.219 361.134 314.883 360.825 314.648C360.526 314.403 360.126 314.28 359.625 314.28C359.198 314.28 358.825 314.355 358.505 314.504C358.196 314.643 357.86 314.877 357.497 315.208C357.358 315.325 357.225 315.384 357.097 315.384C356.969 315.384 356.836 315.325 356.697 315.208L356.441 314.984C356.302 314.856 356.233 314.717 356.233 314.568C356.233 314.429 356.297 314.296 356.425 314.168C356.884 313.731 357.369 313.405 357.881 313.192C358.393 312.979 358.964 312.872 359.593 312.872ZM359.001 319.896C359.641 319.896 360.18 319.725 360.617 319.384C361.065 319.043 361.289 318.552 361.289 317.912V317.176L359.897 317.464C359.118 317.624 358.542 317.805 358.169 318.008C357.796 318.211 357.609 318.52 357.609 318.936C357.609 319.235 357.732 319.469 357.977 319.64C358.222 319.811 358.564 319.896 359.001 319.896ZM365.723 311.576C365.413 311.576 365.152 311.475 364.939 311.272C364.725 311.059 364.619 310.808 364.619 310.52C364.619 310.221 364.725 309.971 364.939 309.768C365.152 309.565 365.413 309.464 365.723 309.464C366.032 309.464 366.293 309.565 366.507 309.768C366.72 309.971 366.827 310.221 366.827 310.52C366.827 310.808 366.72 311.059 366.507 311.272C366.293 311.475 366.032 311.576 365.723 311.576ZM365.419 321C365.248 321 365.109 320.952 365.003 320.856C364.907 320.749 364.859 320.611 364.859 320.44V313.672C364.859 313.491 364.907 313.352 365.003 313.256C365.109 313.16 365.248 313.112 365.419 313.112H365.995C366.176 313.112 366.315 313.16 366.411 313.256C366.507 313.352 366.555 313.491 366.555 313.672V320.44C366.555 320.611 366.507 320.749 366.411 320.856C366.315 320.952 366.176 321 365.995 321H365.419ZM372.531 312.872C373.438 312.872 374.131 313.128 374.611 313.64C375.102 314.141 375.347 314.792 375.347 315.592V320.44C375.347 320.611 375.299 320.749 375.203 320.856C375.107 320.952 374.968 321 374.787 321H374.211C374.04 321 373.902 320.952 373.795 320.856C373.699 320.749 373.651 320.611 373.651 320.44V316.12C373.651 315.544 373.507 315.101 373.219 314.792C372.942 314.483 372.542 314.328 372.019 314.328C371.507 314.328 371.075 314.504 370.723 314.856C370.382 315.208 370.211 315.651 370.211 316.184V320.44C370.211 320.611 370.163 320.749 370.067 320.856C369.971 320.952 369.832 321 369.651 321H369.075C368.904 321 368.766 320.952 368.659 320.856C368.563 320.749 368.515 320.611 368.515 320.44V313.672C368.515 313.491 368.563 313.352 368.659 313.256C368.766 313.16 368.904 313.112 369.075 313.112H369.539C369.72 313.112 369.859 313.16 369.955 313.256C370.051 313.352 370.099 313.491 370.099 313.672V314.088C370.355 313.693 370.691 313.395 371.107 313.192C371.523 312.979 371.998 312.872 372.531 312.872Z" fill="white"/>
</svg>
