<svg width="688" height="422" viewBox="0 0 688 422" fill="none" xmlns="http://www.w3.org/2000/svg">
<rect width="688" height="422" fill="#F6F6F6"/>
<rect x="144" y="80" width="400" height="262" rx="8" fill="white"/>
<path d="M354 146H362M342 146H346M318 128H370M320 118H368C369.105 118 370 118.895 370 120V152C370 153.105 369.105 154 368 154H320C318.895 154 318 153.105 318 152V120C318 118.895 318.895 118 320 118Z" stroke="#0063FB" stroke-width="4" stroke-linecap="round" stroke-linejoin="round"/>
<path d="M278.938 198.15C278.938 197.901 279.004 197.71 279.136 197.578C279.283 197.446 279.474 197.38 279.708 197.38H280.61C280.86 197.38 281.05 197.446 281.182 197.578C281.314 197.71 281.38 197.901 281.38 198.15V212.23C281.38 212.465 281.314 212.655 281.182 212.802C281.05 212.934 280.86 213 280.61 213H279.246C278.836 213 278.528 212.831 278.322 212.494L274.318 206.246C272.793 203.87 271.649 201.993 270.886 200.614C270.96 202.183 270.996 204.215 270.996 206.708V212.23C270.996 212.465 270.93 212.655 270.798 212.802C270.666 212.934 270.476 213 270.226 213H269.324C269.09 213 268.899 212.934 268.752 212.802C268.62 212.655 268.554 212.465 268.554 212.23V198.15C268.554 197.901 268.62 197.71 268.752 197.578C268.899 197.446 269.09 197.38 269.324 197.38H270.732C271.143 197.38 271.451 197.549 271.656 197.886L275.792 204.376C277.259 206.664 278.337 208.424 279.026 209.656C278.968 208.087 278.938 206.151 278.938 203.848V198.15ZM289.307 213.33C288.236 213.33 287.283 213.088 286.447 212.604C285.626 212.12 284.98 211.445 284.511 210.58C284.042 209.7 283.807 208.695 283.807 207.566C283.807 206.437 284.042 205.439 284.511 204.574C284.98 203.709 285.626 203.034 286.447 202.55C287.283 202.066 288.236 201.824 289.307 201.824C290.363 201.824 291.309 202.066 292.145 202.55C292.981 203.034 293.634 203.716 294.103 204.596C294.572 205.461 294.807 206.451 294.807 207.566C294.807 208.695 294.572 209.7 294.103 210.58C293.634 211.445 292.981 212.12 292.145 212.604C291.309 213.088 290.363 213.33 289.307 213.33ZM289.307 211.372C290.246 211.372 291.001 211.027 291.573 210.338C292.145 209.634 292.431 208.71 292.431 207.566C292.431 206.437 292.145 205.527 291.573 204.838C291.001 204.149 290.246 203.804 289.307 203.804C288.368 203.804 287.613 204.149 287.041 204.838C286.469 205.527 286.183 206.437 286.183 207.566C286.183 208.71 286.469 209.634 287.041 210.338C287.613 211.027 288.368 211.372 289.307 211.372ZM306.556 213.33C305.486 213.33 304.54 213.095 303.718 212.626C302.912 212.157 302.281 211.489 301.826 210.624C301.386 209.744 301.166 208.725 301.166 207.566C301.166 206.407 301.394 205.395 301.848 204.53C302.303 203.665 302.941 202.997 303.762 202.528C304.584 202.059 305.53 201.824 306.6 201.824C307.378 201.824 308.074 201.941 308.69 202.176C309.321 202.396 309.922 202.777 310.494 203.32C310.67 203.496 310.758 203.679 310.758 203.87C310.758 204.046 310.663 204.229 310.472 204.42L310.098 204.794C309.937 204.955 309.761 205.036 309.57 205.036C309.38 205.036 309.182 204.948 308.976 204.772C308.551 204.405 308.148 204.156 307.766 204.024C307.4 203.877 307.004 203.804 306.578 203.804C305.61 203.804 304.862 204.163 304.334 204.882C303.806 205.601 303.542 206.495 303.542 207.566C303.542 208.637 303.806 209.539 304.334 210.272C304.862 210.991 305.61 211.35 306.578 211.35C307.048 211.35 307.48 211.262 307.876 211.086C308.272 210.895 308.698 210.58 309.152 210.14C309.343 209.949 309.541 209.854 309.746 209.854C309.922 209.854 310.091 209.927 310.252 210.074L310.626 210.382C310.817 210.543 310.912 210.727 310.912 210.932C310.912 211.152 310.802 211.387 310.582 211.636C309.981 212.252 309.358 212.692 308.712 212.956C308.082 213.205 307.363 213.33 306.556 213.33ZM317.616 201.824C319.083 201.824 320.212 202.169 321.004 202.858C321.796 203.533 322.192 204.435 322.192 205.564V212.23C322.192 212.465 322.126 212.655 321.994 212.802C321.862 212.934 321.672 213 321.422 213H320.85C320.616 213 320.425 212.934 320.278 212.802C320.146 212.655 320.08 212.465 320.08 212.23V211.746C319.728 212.259 319.244 212.655 318.628 212.934C318.012 213.213 317.294 213.352 316.472 213.352C315.343 213.352 314.412 213.103 313.678 212.604C312.96 212.091 312.6 211.321 312.6 210.294C312.6 209.15 313.026 208.307 313.876 207.764C314.742 207.207 315.937 206.789 317.462 206.51L319.948 206.048V205.652C319.948 205.051 319.736 204.589 319.31 204.266C318.9 203.929 318.35 203.76 317.66 203.76C317.074 203.76 316.56 203.863 316.12 204.068C315.695 204.259 315.233 204.581 314.734 205.036C314.544 205.197 314.36 205.278 314.184 205.278C314.008 205.278 313.825 205.197 313.634 205.036L313.282 204.728C313.092 204.552 312.996 204.361 312.996 204.156C312.996 203.965 313.084 203.782 313.26 203.606C313.891 203.005 314.558 202.557 315.262 202.264C315.966 201.971 316.751 201.824 317.616 201.824ZM316.802 211.482C317.682 211.482 318.423 211.247 319.024 210.778C319.64 210.309 319.948 209.634 319.948 208.754V207.742L318.034 208.138C316.964 208.358 316.172 208.607 315.658 208.886C315.145 209.165 314.888 209.59 314.888 210.162C314.888 210.573 315.057 210.895 315.394 211.13C315.732 211.365 316.201 211.482 316.802 211.482ZM329.741 202.044C330.063 202.044 330.393 202.081 330.731 202.154C331.127 202.242 331.325 202.477 331.325 202.858C331.325 202.961 331.317 203.034 331.303 203.078L331.193 203.606C331.105 204.017 330.885 204.222 330.533 204.222L330.335 204.2C330.071 204.156 329.836 204.134 329.631 204.134C328.897 204.134 328.303 204.427 327.849 205.014C327.409 205.586 327.189 206.385 327.189 207.412V212.23C327.189 212.465 327.123 212.655 326.991 212.802C326.859 212.934 326.668 213 326.419 213H325.627C325.392 213 325.201 212.934 325.055 212.802C324.923 212.655 324.857 212.465 324.857 212.23V202.924C324.857 202.675 324.923 202.484 325.055 202.352C325.201 202.22 325.392 202.154 325.627 202.154H326.265C326.514 202.154 326.705 202.22 326.837 202.352C326.969 202.484 327.035 202.675 327.035 202.924V203.782C327.299 203.239 327.658 202.814 328.113 202.506C328.567 202.198 329.11 202.044 329.741 202.044ZM340.139 198.128C340.139 197.879 340.205 197.688 340.337 197.556C340.484 197.424 340.674 197.358 340.909 197.358H341.701C341.95 197.358 342.141 197.424 342.273 197.556C342.405 197.688 342.471 197.879 342.471 198.128V212.23C342.471 212.465 342.405 212.655 342.273 212.802C342.141 212.934 341.95 213 341.701 213H341.063C340.828 213 340.638 212.934 340.491 212.802C340.359 212.655 340.293 212.465 340.293 212.23V211.46C339.53 212.692 338.335 213.308 336.707 213.308C335.798 213.308 334.976 213.073 334.243 212.604C333.524 212.135 332.96 211.467 332.549 210.602C332.138 209.737 331.933 208.732 331.933 207.588C331.933 206.459 332.138 205.461 332.549 204.596C332.974 203.731 333.554 203.063 334.287 202.594C335.02 202.125 335.842 201.89 336.751 201.89C338.247 201.89 339.376 202.411 340.139 203.452V198.128ZM337.191 211.306C338.086 211.306 338.819 210.976 339.391 210.316C339.963 209.641 340.249 208.732 340.249 207.588C340.249 206.444 339.963 205.542 339.391 204.882C338.819 204.222 338.086 203.892 337.191 203.892C336.326 203.892 335.629 204.229 335.101 204.904C334.573 205.579 334.309 206.473 334.309 207.588C334.309 208.717 334.566 209.619 335.079 210.294C335.607 210.969 336.311 211.306 337.191 211.306ZM349.361 213.33C348.466 213.33 347.667 213.22 346.963 213C346.274 212.765 345.57 212.362 344.851 211.79C344.631 211.629 344.521 211.445 344.521 211.24C344.521 211.079 344.602 210.903 344.763 210.712L345.093 210.338C345.269 210.133 345.46 210.03 345.665 210.03C345.826 210.03 346.002 210.103 346.193 210.25C346.809 210.705 347.352 211.02 347.821 211.196C348.29 211.357 348.818 211.438 349.405 211.438C350.036 211.438 350.549 211.313 350.945 211.064C351.356 210.8 351.561 210.448 351.561 210.008C351.561 209.671 351.444 209.407 351.209 209.216C350.989 209.011 350.696 208.857 350.329 208.754C349.962 208.637 349.42 208.505 348.701 208.358C347.689 208.138 346.897 207.903 346.325 207.654C345.768 207.39 345.364 207.06 345.115 206.664C344.866 206.268 344.741 205.762 344.741 205.146C344.741 204.515 344.917 203.951 345.269 203.452C345.636 202.953 346.142 202.557 346.787 202.264C347.447 201.971 348.217 201.824 349.097 201.824C349.889 201.824 350.593 201.912 351.209 202.088C351.84 202.264 352.456 202.565 353.057 202.99C353.292 203.166 353.409 203.364 353.409 203.584C353.409 203.731 353.336 203.899 353.189 204.09L352.903 204.442C352.742 204.647 352.544 204.75 352.309 204.75C352.133 204.75 351.964 204.691 351.803 204.574C351.319 204.251 350.872 204.031 350.461 203.914C350.05 203.782 349.588 203.716 349.075 203.716C348.444 203.716 347.938 203.841 347.557 204.09C347.176 204.339 346.985 204.662 346.985 205.058C346.985 205.322 347.073 205.535 347.249 205.696C347.44 205.843 347.704 205.975 348.041 206.092C348.393 206.195 348.943 206.327 349.691 206.488C350.703 206.708 351.502 206.957 352.089 207.236C352.69 207.5 353.13 207.845 353.409 208.27C353.702 208.681 353.849 209.216 353.849 209.876C353.849 210.903 353.438 211.739 352.617 212.384C351.81 213.015 350.725 213.33 349.361 213.33ZM365.355 201.824C366.821 201.824 367.951 202.169 368.743 202.858C369.535 203.533 369.931 204.435 369.931 205.564V212.23C369.931 212.465 369.865 212.655 369.733 212.802C369.601 212.934 369.41 213 369.161 213H368.589C368.354 213 368.163 212.934 368.017 212.802C367.885 212.655 367.819 212.465 367.819 212.23V211.746C367.467 212.259 366.983 212.655 366.367 212.934C365.751 213.213 365.032 213.352 364.211 213.352C363.081 213.352 362.15 213.103 361.417 212.604C360.698 212.091 360.339 211.321 360.339 210.294C360.339 209.15 360.764 208.307 361.615 207.764C362.48 207.207 363.675 206.789 365.201 206.51L367.687 206.048V205.652C367.687 205.051 367.474 204.589 367.049 204.266C366.638 203.929 366.088 203.76 365.399 203.76C364.812 203.76 364.299 203.863 363.859 204.068C363.433 204.259 362.971 204.581 362.473 205.036C362.282 205.197 362.099 205.278 361.923 205.278C361.747 205.278 361.563 205.197 361.373 205.036L361.021 204.728C360.83 204.552 360.735 204.361 360.735 204.156C360.735 203.965 360.823 203.782 360.999 203.606C361.629 203.005 362.297 202.557 363.001 202.264C363.705 201.971 364.489 201.824 365.355 201.824ZM364.541 211.482C365.421 211.482 366.161 211.247 366.763 210.778C367.379 210.309 367.687 209.634 367.687 208.754V207.742L365.773 208.138C364.702 208.358 363.91 208.607 363.397 208.886C362.883 209.165 362.627 209.59 362.627 210.162C362.627 210.573 362.795 210.895 363.133 211.13C363.47 211.365 363.939 211.482 364.541 211.482ZM380.229 198.128C380.229 197.879 380.295 197.688 380.427 197.556C380.574 197.424 380.764 197.358 380.999 197.358H381.791C382.04 197.358 382.231 197.424 382.363 197.556C382.495 197.688 382.561 197.879 382.561 198.128V212.23C382.561 212.465 382.495 212.655 382.363 212.802C382.231 212.934 382.04 213 381.791 213H381.153C380.918 213 380.728 212.934 380.581 212.802C380.449 212.655 380.383 212.465 380.383 212.23V211.46C379.62 212.692 378.425 213.308 376.797 213.308C375.888 213.308 375.066 213.073 374.333 212.604C373.614 212.135 373.05 211.467 372.639 210.602C372.228 209.737 372.023 208.732 372.023 207.588C372.023 206.459 372.228 205.461 372.639 204.596C373.064 203.731 373.644 203.063 374.377 202.594C375.11 202.125 375.932 201.89 376.841 201.89C378.337 201.89 379.466 202.411 380.229 203.452V198.128ZM377.281 211.306C378.176 211.306 378.909 210.976 379.481 210.316C380.053 209.641 380.339 208.732 380.339 207.588C380.339 206.444 380.053 205.542 379.481 204.882C378.909 204.222 378.176 203.892 377.281 203.892C376.416 203.892 375.719 204.229 375.191 204.904C374.663 205.579 374.399 206.473 374.399 207.588C374.399 208.717 374.656 209.619 375.169 210.294C375.697 210.969 376.401 211.306 377.281 211.306ZM392.905 198.128C392.905 197.879 392.971 197.688 393.103 197.556C393.249 197.424 393.44 197.358 393.675 197.358H394.467C394.716 197.358 394.907 197.424 395.039 197.556C395.171 197.688 395.237 197.879 395.237 198.128V212.23C395.237 212.465 395.171 212.655 395.039 212.802C394.907 212.934 394.716 213 394.467 213H393.829C393.594 213 393.403 212.934 393.257 212.802C393.125 212.655 393.059 212.465 393.059 212.23V211.46C392.296 212.692 391.101 213.308 389.473 213.308C388.563 213.308 387.742 213.073 387.009 212.604C386.29 212.135 385.725 211.467 385.315 210.602C384.904 209.737 384.699 208.732 384.699 207.588C384.699 206.459 384.904 205.461 385.315 204.596C385.74 203.731 386.319 203.063 387.053 202.594C387.786 202.125 388.607 201.89 389.517 201.89C391.013 201.89 392.142 202.411 392.905 203.452V198.128ZM389.957 211.306C390.851 211.306 391.585 210.976 392.157 210.316C392.729 209.641 393.015 208.732 393.015 207.588C393.015 206.444 392.729 205.542 392.157 204.882C391.585 204.222 390.851 203.892 389.957 203.892C389.091 203.892 388.395 204.229 387.867 204.904C387.339 205.579 387.075 206.473 387.075 207.588C387.075 208.717 387.331 209.619 387.845 210.294C388.373 210.969 389.077 211.306 389.957 211.306ZM405.712 210.228C405.903 210.067 406.086 209.986 406.262 209.986C406.438 209.986 406.622 210.081 406.812 210.272L407.12 210.602C407.282 210.793 407.362 210.976 407.362 211.152C407.362 211.343 407.267 211.526 407.076 211.702C406.402 212.289 405.727 212.707 405.052 212.956C404.392 213.205 403.659 213.33 402.852 213.33C401.723 213.33 400.74 213.095 399.904 212.626C399.083 212.157 398.445 211.497 397.99 210.646C397.55 209.781 397.33 208.783 397.33 207.654C397.33 206.539 397.543 205.542 397.968 204.662C398.408 203.767 399.024 203.071 399.816 202.572C400.623 202.073 401.562 201.824 402.632 201.824C404.231 201.824 405.463 202.301 406.328 203.254C407.194 204.193 407.626 205.491 407.626 207.148V207.346C407.612 207.581 407.538 207.764 407.406 207.896C407.274 208.028 407.084 208.094 406.834 208.094H399.618C399.706 209.062 400.022 209.854 400.564 210.47C401.122 211.071 401.899 211.372 402.896 211.372C403.439 211.372 403.916 211.291 404.326 211.13C404.737 210.954 405.199 210.653 405.712 210.228ZM402.588 203.672C401.782 203.672 401.129 203.914 400.63 204.398C400.146 204.867 399.831 205.535 399.684 206.4H405.338C405.28 205.549 405.016 204.882 404.546 204.398C404.077 203.914 403.424 203.672 402.588 203.672ZM417.44 198.128C417.44 197.879 417.506 197.688 417.638 197.556C417.785 197.424 417.975 197.358 418.21 197.358H419.002C419.251 197.358 419.442 197.424 419.574 197.556C419.706 197.688 419.772 197.879 419.772 198.128V212.23C419.772 212.465 419.706 212.655 419.574 212.802C419.442 212.934 419.251 213 419.002 213H418.364C418.129 213 417.939 212.934 417.792 212.802C417.66 212.655 417.594 212.465 417.594 212.23V211.46C416.831 212.692 415.636 213.308 414.008 213.308C413.099 213.308 412.277 213.073 411.544 212.604C410.825 212.135 410.261 211.467 409.85 210.602C409.439 209.737 409.234 208.732 409.234 207.588C409.234 206.459 409.439 205.461 409.85 204.596C410.275 203.731 410.855 203.063 411.588 202.594C412.321 202.125 413.143 201.89 414.052 201.89C415.548 201.89 416.677 202.411 417.44 203.452V198.128ZM414.492 211.306C415.387 211.306 416.12 210.976 416.692 210.316C417.264 209.641 417.55 208.732 417.55 207.588C417.55 206.444 417.264 205.542 416.692 204.882C416.12 204.222 415.387 203.892 414.492 203.892C413.627 203.892 412.93 204.229 412.402 204.904C411.874 205.579 411.61 206.473 411.61 207.588C411.61 208.717 411.867 209.619 412.38 210.294C412.908 210.969 413.612 211.306 414.492 211.306Z" fill="#1B1B1F"/>
<path d="M190.223 240C190.042 240 189.919 239.915 189.855 239.744L188.799 236.816H183.631L182.591 239.744C182.527 239.915 182.405 240 182.223 240H181.727C181.642 240 181.573 239.979 181.519 239.936C181.466 239.893 181.439 239.835 181.439 239.76L181.471 239.632L185.391 228.896C185.455 228.725 185.578 228.64 185.759 228.64H186.687C186.869 228.64 186.991 228.725 187.055 228.896L190.975 239.632L191.007 239.76C191.007 239.835 190.981 239.893 190.927 239.936C190.874 239.979 190.805 240 190.719 240H190.223ZM188.447 235.856L187.887 234.288L187.759 233.952C187.61 233.547 187.365 232.869 187.023 231.92C186.693 230.971 186.421 230.165 186.207 229.504C185.919 230.411 185.466 231.728 184.847 233.456C184.805 233.573 184.757 233.701 184.703 233.84C184.65 233.979 184.597 234.128 184.543 234.288L183.983 235.856H188.447ZM198.278 228.96C198.278 228.747 198.385 228.64 198.598 228.64H199.014C199.228 228.64 199.334 228.747 199.334 228.96V239.68C199.334 239.893 199.228 240 199.014 240H198.678C198.465 240 198.358 239.893 198.358 239.68V238.64C198.07 239.141 197.692 239.525 197.222 239.792C196.753 240.059 196.198 240.192 195.558 240.192C194.886 240.192 194.289 240.021 193.766 239.68C193.244 239.328 192.833 238.843 192.534 238.224C192.236 237.595 192.086 236.875 192.086 236.064C192.086 235.253 192.236 234.539 192.534 233.92C192.844 233.291 193.265 232.805 193.798 232.464C194.332 232.112 194.929 231.936 195.59 231.936C196.806 231.936 197.702 232.389 198.278 233.296V228.96ZM195.638 239.296C196.438 239.296 197.084 239.013 197.574 238.448C198.076 237.872 198.326 237.077 198.326 236.064C198.326 235.061 198.076 234.272 197.574 233.696C197.084 233.12 196.438 232.832 195.638 232.832C194.902 232.832 194.305 233.131 193.846 233.728C193.398 234.325 193.174 235.104 193.174 236.064C193.174 237.035 193.398 237.819 193.846 238.416C194.294 239.003 194.892 239.296 195.638 239.296ZM207.403 228.96C207.403 228.747 207.51 228.64 207.723 228.64H208.139C208.353 228.64 208.459 228.747 208.459 228.96V239.68C208.459 239.893 208.353 240 208.139 240H207.803C207.59 240 207.483 239.893 207.483 239.68V238.64C207.195 239.141 206.817 239.525 206.347 239.792C205.878 240.059 205.323 240.192 204.683 240.192C204.011 240.192 203.414 240.021 202.891 239.68C202.369 239.328 201.958 238.843 201.659 238.224C201.361 237.595 201.211 236.875 201.211 236.064C201.211 235.253 201.361 234.539 201.659 233.92C201.969 233.291 202.39 232.805 202.923 232.464C203.457 232.112 204.054 231.936 204.715 231.936C205.931 231.936 206.827 232.389 207.403 233.296V228.96ZM204.763 239.296C205.563 239.296 206.209 239.013 206.699 238.448C207.201 237.872 207.451 237.077 207.451 236.064C207.451 235.061 207.201 234.272 206.699 233.696C206.209 233.12 205.563 232.832 204.763 232.832C204.027 232.832 203.43 233.131 202.971 233.728C202.523 234.325 202.299 235.104 202.299 236.064C202.299 237.035 202.523 237.819 202.971 238.416C203.419 239.003 204.017 239.296 204.763 239.296ZM217.56 231.92C218.531 231.92 219.288 232.155 219.832 232.624C220.376 233.083 220.648 233.691 220.648 234.448V239.68C220.648 239.893 220.541 240 220.328 240H220.008C219.795 240 219.688 239.893 219.688 239.68V238.96C219.421 239.387 219.043 239.707 218.552 239.92C218.072 240.133 217.533 240.24 216.936 240.24C216.104 240.24 215.427 240.064 214.904 239.712C214.381 239.36 214.12 238.816 214.12 238.08C214.12 237.493 214.285 237.024 214.616 236.672C214.947 236.309 215.379 236.037 215.912 235.856C216.445 235.664 217.112 235.493 217.912 235.344L219.64 235.04V234.528C219.64 233.984 219.453 233.563 219.08 233.264C218.707 232.955 218.216 232.8 217.608 232.8C217.149 232.8 216.733 232.885 216.36 233.056C215.987 233.227 215.587 233.52 215.16 233.936C215.085 234.011 215.005 234.048 214.92 234.048C214.845 234.048 214.776 234.016 214.712 233.952L214.504 233.76C214.429 233.685 214.392 233.605 214.392 233.52C214.392 233.424 214.429 233.339 214.504 233.264C214.952 232.795 215.421 232.453 215.912 232.24C216.413 232.027 216.963 231.92 217.56 231.92ZM216.984 239.36C217.752 239.36 218.387 239.157 218.888 238.752C219.389 238.347 219.64 237.829 219.64 237.2V235.856L218.152 236.144C217.459 236.283 216.909 236.416 216.504 236.544C216.099 236.672 215.773 236.859 215.528 237.104C215.283 237.349 215.16 237.669 215.16 238.064C215.16 238.469 215.32 238.789 215.64 239.024C215.971 239.248 216.419 239.36 216.984 239.36ZM230.452 231.936C231.114 231.936 231.706 232.112 232.228 232.464C232.762 232.805 233.178 233.291 233.476 233.92C233.775 234.539 233.924 235.248 233.924 236.048C233.924 236.859 233.775 237.579 233.476 238.208C233.178 238.837 232.767 239.328 232.244 239.68C231.722 240.021 231.124 240.192 230.452 240.192C229.215 240.192 228.308 239.739 227.732 238.832V242.624C227.732 242.837 227.626 242.944 227.412 242.944H226.996C226.783 242.944 226.676 242.837 226.676 242.624V232.432C226.676 232.219 226.783 232.112 226.996 232.112H227.348C227.562 232.112 227.668 232.219 227.668 232.432V233.44C227.956 232.949 228.335 232.576 228.804 232.32C229.274 232.064 229.823 231.936 230.452 231.936ZM230.372 239.296C231.119 239.296 231.716 238.997 232.164 238.4C232.612 237.803 232.836 237.019 232.836 236.048C232.836 235.088 232.612 234.315 232.164 233.728C231.716 233.131 231.119 232.832 230.372 232.832C229.572 232.832 228.922 233.12 228.42 233.696C227.93 234.261 227.684 235.045 227.684 236.048C227.684 237.051 227.935 237.845 228.436 238.432C228.938 239.008 229.583 239.296 230.372 239.296ZM238.841 231.92C239.812 231.92 240.569 232.155 241.113 232.624C241.657 233.083 241.929 233.691 241.929 234.448V239.68C241.929 239.893 241.823 240 241.609 240H241.289C241.076 240 240.969 239.893 240.969 239.68V238.96C240.703 239.387 240.324 239.707 239.833 239.92C239.353 240.133 238.815 240.24 238.217 240.24C237.385 240.24 236.708 240.064 236.185 239.712C235.663 239.36 235.401 238.816 235.401 238.08C235.401 237.493 235.567 237.024 235.897 236.672C236.228 236.309 236.66 236.037 237.193 235.856C237.727 235.664 238.393 235.493 239.193 235.344L240.921 235.04V234.528C240.921 233.984 240.735 233.563 240.361 233.264C239.988 232.955 239.497 232.8 238.889 232.8C238.431 232.8 238.015 232.885 237.641 233.056C237.268 233.227 236.868 233.52 236.441 233.936C236.367 234.011 236.287 234.048 236.201 234.048C236.127 234.048 236.057 234.016 235.993 233.952L235.785 233.76C235.711 233.685 235.673 233.605 235.673 233.52C235.673 233.424 235.711 233.339 235.785 233.264C236.233 232.795 236.703 232.453 237.193 232.24C237.695 232.027 238.244 231.92 238.841 231.92ZM238.265 239.36C239.033 239.36 239.668 239.157 240.169 238.752C240.671 238.347 240.921 237.829 240.921 237.2V235.856L239.433 236.144C238.74 236.283 238.191 236.416 237.785 236.544C237.38 236.672 237.055 236.859 236.809 237.104C236.564 237.349 236.441 237.669 236.441 238.064C236.441 238.469 236.601 238.789 236.921 239.024C237.252 239.248 237.7 239.36 238.265 239.36ZM248.947 232.368C249.011 232.197 249.134 232.112 249.315 232.112H249.747C249.833 232.112 249.902 232.133 249.955 232.176C250.009 232.219 250.035 232.277 250.035 232.352L250.003 232.48L246.915 241.2C246.745 241.68 246.579 242.053 246.419 242.32C246.259 242.587 246.041 242.789 245.763 242.928C245.497 243.067 245.145 243.136 244.707 243.136C244.43 243.136 244.185 243.115 243.971 243.072C243.865 243.061 243.79 243.019 243.747 242.944C243.715 242.869 243.71 242.784 243.731 242.688L243.779 242.48C243.822 242.288 243.945 242.203 244.147 242.224C244.339 242.256 244.505 242.272 244.643 242.272C244.985 242.272 245.251 242.176 245.443 241.984C245.646 241.792 245.838 241.429 246.019 240.896L246.163 240.448L243.347 232.48L243.315 232.352C243.315 232.277 243.342 232.219 243.395 232.176C243.449 232.133 243.518 232.112 243.603 232.112H244.067C244.238 232.112 244.355 232.197 244.419 232.368L245.315 235.008C245.401 235.275 245.614 235.909 245.955 236.912L246.675 239.072C247.027 238.08 247.491 236.715 248.067 234.976L248.947 232.368ZM259.645 231.92C260.499 231.92 261.149 232.165 261.597 232.656C262.056 233.136 262.285 233.755 262.285 234.512V239.68C262.285 239.893 262.179 240 261.965 240H261.549C261.336 240 261.229 239.893 261.229 239.68V234.8C261.229 234.16 261.08 233.669 260.781 233.328C260.493 232.987 260.061 232.816 259.485 232.816C258.877 232.816 258.392 233.019 258.029 233.424C257.667 233.829 257.485 234.352 257.485 234.992V239.68C257.485 239.893 257.379 240 257.165 240H256.749C256.536 240 256.429 239.893 256.429 239.68V234.8C256.429 234.16 256.28 233.669 255.981 233.328C255.693 232.987 255.256 232.816 254.669 232.816C254.125 232.816 253.672 232.987 253.309 233.328C252.957 233.669 252.749 234.117 252.685 234.672V239.68C252.685 239.893 252.579 240 252.365 240H251.949C251.736 240 251.629 239.893 251.629 239.68V232.432C251.629 232.219 251.736 232.112 251.949 232.112H252.301C252.515 232.112 252.621 232.219 252.621 232.432V233.088C253.101 232.309 253.864 231.92 254.909 231.92C255.453 231.92 255.917 232.043 256.301 232.288C256.696 232.523 256.989 232.843 257.181 233.248C257.747 232.363 258.568 231.92 259.645 231.92ZM270.358 238.128C270.432 238.053 270.512 238.016 270.598 238.016C270.672 238.016 270.742 238.048 270.806 238.112L271.014 238.304C271.088 238.379 271.126 238.459 271.126 238.544C271.126 238.608 271.094 238.683 271.03 238.768C270.507 239.291 270 239.664 269.51 239.888C269.019 240.101 268.47 240.208 267.862 240.208C267.094 240.208 266.427 240.037 265.862 239.696C265.296 239.355 264.859 238.88 264.55 238.272C264.24 237.653 264.086 236.939 264.086 236.128C264.086 235.307 264.235 234.581 264.534 233.952C264.843 233.312 265.275 232.816 265.83 232.464C266.384 232.101 267.024 231.92 267.75 231.92C268.827 231.92 269.675 232.256 270.294 232.928C270.912 233.6 271.222 234.507 271.222 235.648V235.84C271.211 235.936 271.174 236.011 271.11 236.064C271.056 236.117 270.982 236.144 270.886 236.144H265.158C265.19 237.04 265.424 237.797 265.862 238.416C266.31 239.024 266.976 239.328 267.862 239.328C268.342 239.328 268.763 239.243 269.126 239.072C269.499 238.891 269.91 238.576 270.358 238.128ZM267.75 232.8C267.046 232.8 266.464 233.019 266.006 233.456C265.558 233.883 265.286 234.512 265.19 235.344H270.166C270.144 234.565 269.92 233.947 269.494 233.488C269.067 233.029 268.486 232.8 267.75 232.8ZM276.634 231.92C277.562 231.92 278.26 232.176 278.73 232.688C279.21 233.2 279.45 233.84 279.45 234.608V239.68C279.45 239.893 279.343 240 279.13 240H278.714C278.5 240 278.394 239.893 278.394 239.68V234.96C278.394 234.256 278.223 233.723 277.882 233.36C277.54 232.997 277.05 232.816 276.41 232.816C276.004 232.816 275.631 232.917 275.29 233.12C274.948 233.312 274.676 233.579 274.474 233.92C274.271 234.261 274.17 234.635 274.17 235.04V239.68C274.17 239.893 274.063 240 273.85 240H273.434C273.22 240 273.114 239.893 273.114 239.68V232.432C273.114 232.219 273.22 232.112 273.434 232.112H273.786C273.999 232.112 274.106 232.219 274.106 232.432V233.2C274.372 232.773 274.724 232.453 275.162 232.24C275.599 232.027 276.09 231.92 276.634 231.92ZM285.119 239.12C285.151 239.109 285.193 239.104 285.247 239.104C285.311 239.104 285.369 239.125 285.423 239.168C285.476 239.211 285.508 239.269 285.519 239.344L285.567 239.568C285.577 239.589 285.583 239.627 285.583 239.68C285.583 239.829 285.503 239.92 285.343 239.952C284.959 240.069 284.548 240.128 284.111 240.128C283.417 240.128 282.921 239.973 282.623 239.664C282.335 239.344 282.191 238.885 282.191 238.288V232.912H281.007C280.793 232.912 280.687 232.805 280.687 232.592V232.432C280.687 232.219 280.793 232.112 281.007 232.112H282.191V229.68C282.191 229.467 282.297 229.36 282.511 229.36H282.927C283.14 229.36 283.247 229.467 283.247 229.68V232.112H285.167C285.38 232.112 285.487 232.219 285.487 232.432V232.592C285.487 232.805 285.38 232.912 285.167 232.912H283.247V238.16C283.247 238.555 283.321 238.832 283.471 238.992C283.62 239.152 283.876 239.232 284.239 239.232C284.495 239.232 284.788 239.195 285.119 239.12ZM293.986 240.208C293.228 240.208 292.567 240.037 292.002 239.696C291.447 239.344 291.015 238.859 290.706 238.24C290.407 237.611 290.258 236.885 290.258 236.064C290.258 235.253 290.407 234.533 290.706 233.904C291.015 233.275 291.447 232.789 292.002 232.448C292.567 232.096 293.218 231.92 293.954 231.92C294.551 231.92 295.074 232.021 295.522 232.224C295.97 232.416 296.402 232.736 296.818 233.184C296.882 233.248 296.914 233.317 296.914 233.392C296.914 233.488 296.871 233.568 296.786 233.632L296.562 233.84C296.498 233.904 296.423 233.936 296.338 233.936C296.263 233.936 296.183 233.893 296.098 233.808C295.724 233.435 295.367 233.173 295.026 233.024C294.695 232.875 294.327 232.8 293.922 232.8C293.367 232.8 292.892 232.955 292.498 233.264C292.114 233.573 291.826 233.979 291.634 234.48C291.442 234.971 291.346 235.499 291.346 236.064C291.346 236.629 291.442 237.163 291.634 237.664C291.826 238.155 292.119 238.555 292.514 238.864C292.908 239.163 293.394 239.312 293.97 239.312C294.396 239.312 294.77 239.237 295.09 239.088C295.42 238.928 295.788 238.629 296.194 238.192C296.279 238.107 296.359 238.064 296.434 238.064C296.519 238.064 296.594 238.096 296.658 238.16L296.882 238.336C296.956 238.4 296.994 238.475 296.994 238.56C296.994 238.645 296.946 238.747 296.85 238.864C296.402 239.355 295.954 239.701 295.506 239.904C295.058 240.107 294.551 240.208 293.986 240.208ZM301.888 231.92C302.859 231.92 303.616 232.155 304.16 232.624C304.704 233.083 304.976 233.691 304.976 234.448V239.68C304.976 239.893 304.869 240 304.656 240H304.336C304.123 240 304.016 239.893 304.016 239.68V238.96C303.749 239.387 303.371 239.707 302.88 239.92C302.4 240.133 301.861 240.24 301.264 240.24C300.432 240.24 299.755 240.064 299.232 239.712C298.709 239.36 298.448 238.816 298.448 238.08C298.448 237.493 298.613 237.024 298.944 236.672C299.275 236.309 299.707 236.037 300.24 235.856C300.773 235.664 301.44 235.493 302.24 235.344L303.968 235.04V234.528C303.968 233.984 303.781 233.563 303.408 233.264C303.035 232.955 302.544 232.8 301.936 232.8C301.477 232.8 301.061 232.885 300.688 233.056C300.315 233.227 299.915 233.52 299.488 233.936C299.413 234.011 299.333 234.048 299.248 234.048C299.173 234.048 299.104 234.016 299.04 233.952L298.832 233.76C298.757 233.685 298.72 233.605 298.72 233.52C298.72 233.424 298.757 233.339 298.832 233.264C299.28 232.795 299.749 232.453 300.24 232.24C300.741 232.027 301.291 231.92 301.888 231.92ZM301.312 239.36C302.08 239.36 302.715 239.157 303.216 238.752C303.717 238.347 303.968 237.829 303.968 237.2V235.856L302.48 236.144C301.787 236.283 301.237 236.416 300.832 236.544C300.427 236.672 300.101 236.859 299.856 237.104C299.611 237.349 299.488 237.669 299.488 238.064C299.488 238.469 299.648 238.789 299.968 239.024C300.299 239.248 300.747 239.36 301.312 239.36ZM310.261 232.048C310.527 232.048 310.842 232.091 311.205 232.176C311.397 232.24 311.471 232.373 311.429 232.576L311.365 232.832C311.311 233.035 311.178 233.109 310.965 233.056C310.709 232.992 310.474 232.96 310.261 232.96C309.717 232.96 309.263 233.195 308.901 233.664C308.549 234.133 308.373 234.784 308.373 235.616V239.68C308.373 239.893 308.266 240 308.053 240H307.637C307.423 240 307.317 239.893 307.317 239.68V232.432C307.317 232.219 307.423 232.112 307.637 232.112H307.989C308.202 232.112 308.309 232.219 308.309 232.432V233.312C308.49 232.917 308.746 232.608 309.077 232.384C309.418 232.16 309.813 232.048 310.261 232.048ZM318.122 228.96C318.122 228.747 318.229 228.64 318.442 228.64H318.858C319.072 228.64 319.178 228.747 319.178 228.96V239.68C319.178 239.893 319.072 240 318.858 240H318.522C318.309 240 318.202 239.893 318.202 239.68V238.64C317.914 239.141 317.536 239.525 317.066 239.792C316.597 240.059 316.042 240.192 315.402 240.192C314.73 240.192 314.133 240.021 313.61 239.68C313.088 239.328 312.677 238.843 312.378 238.224C312.08 237.595 311.93 236.875 311.93 236.064C311.93 235.253 312.08 234.539 312.378 233.92C312.688 233.291 313.109 232.805 313.642 232.464C314.176 232.112 314.773 231.936 315.434 231.936C316.65 231.936 317.546 232.389 318.122 233.296V228.96ZM315.482 239.296C316.282 239.296 316.928 239.013 317.418 238.448C317.92 237.872 318.17 237.077 318.17 236.064C318.17 235.061 317.92 234.272 317.418 233.696C316.928 233.12 316.282 232.832 315.482 232.832C314.746 232.832 314.149 233.131 313.69 233.728C313.242 234.325 313.018 235.104 313.018 236.064C313.018 237.035 313.242 237.819 313.69 238.416C314.138 239.003 314.736 239.296 315.482 239.296ZM328.791 239.12C328.823 239.109 328.865 239.104 328.919 239.104C328.983 239.104 329.041 239.125 329.095 239.168C329.148 239.211 329.18 239.269 329.191 239.344L329.239 239.568C329.249 239.589 329.255 239.627 329.255 239.68C329.255 239.829 329.175 239.92 329.015 239.952C328.631 240.069 328.22 240.128 327.783 240.128C327.089 240.128 326.593 239.973 326.295 239.664C326.007 239.344 325.863 238.885 325.863 238.288V232.912H324.679C324.465 232.912 324.359 232.805 324.359 232.592V232.432C324.359 232.219 324.465 232.112 324.679 232.112H325.863V229.68C325.863 229.467 325.969 229.36 326.183 229.36H326.599C326.812 229.36 326.919 229.467 326.919 229.68V232.112H328.839C329.052 232.112 329.159 232.219 329.159 232.432V232.592C329.159 232.805 329.052 232.912 328.839 232.912H326.919V238.16C326.919 238.555 326.993 238.832 327.143 238.992C327.292 239.152 327.548 239.232 327.911 239.232C328.167 239.232 328.46 239.195 328.791 239.12ZM333.737 240.208C333.001 240.208 332.345 240.032 331.769 239.68C331.193 239.328 330.745 238.843 330.425 238.224C330.105 237.595 329.945 236.875 329.945 236.064C329.945 235.253 330.105 234.539 330.425 233.92C330.745 233.291 331.193 232.8 331.769 232.448C332.345 232.096 333.001 231.92 333.737 231.92C334.473 231.92 335.129 232.096 335.705 232.448C336.281 232.8 336.729 233.291 337.049 233.92C337.369 234.539 337.529 235.253 337.529 236.064C337.529 236.875 337.369 237.595 337.049 238.224C336.729 238.843 336.281 239.328 335.705 239.68C335.129 240.032 334.473 240.208 333.737 240.208ZM333.737 239.328C334.558 239.328 335.214 239.029 335.705 238.432C336.196 237.824 336.441 237.035 336.441 236.064C336.441 235.093 336.196 234.309 335.705 233.712C335.214 233.104 334.558 232.8 333.737 232.8C332.916 232.8 332.26 233.104 331.769 233.712C331.278 234.309 331.033 235.093 331.033 236.064C331.033 237.035 331.278 237.824 331.769 238.432C332.26 239.029 332.916 239.328 333.737 239.328ZM351.067 231.92C351.921 231.92 352.571 232.165 353.019 232.656C353.478 233.136 353.707 233.755 353.707 234.512V239.68C353.707 239.893 353.601 240 353.387 240H352.971C352.758 240 352.651 239.893 352.651 239.68V234.8C352.651 234.16 352.502 233.669 352.203 233.328C351.915 232.987 351.483 232.816 350.907 232.816C350.299 232.816 349.814 233.019 349.451 233.424C349.089 233.829 348.907 234.352 348.907 234.992V239.68C348.907 239.893 348.801 240 348.587 240H348.171C347.958 240 347.851 239.893 347.851 239.68V234.8C347.851 234.16 347.702 233.669 347.403 233.328C347.115 232.987 346.678 232.816 346.091 232.816C345.547 232.816 345.094 232.987 344.731 233.328C344.379 233.669 344.171 234.117 344.107 234.672V239.68C344.107 239.893 344.001 240 343.787 240H343.371C343.158 240 343.051 239.893 343.051 239.68V232.432C343.051 232.219 343.158 232.112 343.371 232.112H343.723C343.937 232.112 344.043 232.219 344.043 232.432V233.088C344.523 232.309 345.286 231.92 346.331 231.92C346.875 231.92 347.339 232.043 347.723 232.288C348.118 232.523 348.411 232.843 348.603 233.248C349.169 232.363 349.99 231.92 351.067 231.92ZM359.076 231.92C360.046 231.92 360.804 232.155 361.348 232.624C361.892 233.083 362.164 233.691 362.164 234.448V239.68C362.164 239.893 362.057 240 361.844 240H361.524C361.31 240 361.204 239.893 361.204 239.68V238.96C360.937 239.387 360.558 239.707 360.068 239.92C359.588 240.133 359.049 240.24 358.452 240.24C357.62 240.24 356.942 240.064 356.42 239.712C355.897 239.36 355.636 238.816 355.636 238.08C355.636 237.493 355.801 237.024 356.132 236.672C356.462 236.309 356.894 236.037 357.428 235.856C357.961 235.664 358.628 235.493 359.428 235.344L361.156 235.04V234.528C361.156 233.984 360.969 233.563 360.596 233.264C360.222 232.955 359.732 232.8 359.124 232.8C358.665 232.8 358.249 232.885 357.876 233.056C357.502 233.227 357.102 233.52 356.676 233.936C356.601 234.011 356.521 234.048 356.436 234.048C356.361 234.048 356.292 234.016 356.228 233.952L356.02 233.76C355.945 233.685 355.908 233.605 355.908 233.52C355.908 233.424 355.945 233.339 356.02 233.264C356.468 232.795 356.937 232.453 357.428 232.24C357.929 232.027 358.478 231.92 359.076 231.92ZM358.5 239.36C359.268 239.36 359.902 239.157 360.404 238.752C360.905 238.347 361.156 237.829 361.156 237.2V235.856L359.668 236.144C358.974 236.283 358.425 236.416 358.02 236.544C357.614 236.672 357.289 236.859 357.044 237.104C356.798 237.349 356.676 237.669 356.676 238.064C356.676 238.469 356.836 238.789 357.156 239.024C357.486 239.248 357.934 239.36 358.5 239.36ZM370.2 240C370.04 240 369.912 239.931 369.816 239.792L367.112 235.856L365.56 237.44V239.68C365.56 239.893 365.454 240 365.24 240H364.824C364.611 240 364.504 239.893 364.504 239.68V228.96C364.504 228.747 364.611 228.64 364.824 228.64H365.24C365.454 228.64 365.56 228.747 365.56 228.96V236.24L369.4 232.256C369.496 232.149 369.63 232.096 369.8 232.096H370.248C370.334 232.096 370.398 232.117 370.44 232.16C370.494 232.192 370.52 232.235 370.52 232.288C370.52 232.341 370.488 232.411 370.424 232.496L367.848 235.184L370.872 239.616C370.915 239.691 370.936 239.755 370.936 239.808C370.936 239.936 370.851 240 370.68 240H370.2ZM378.076 238.128C378.151 238.053 378.231 238.016 378.316 238.016C378.391 238.016 378.46 238.048 378.524 238.112L378.732 238.304C378.807 238.379 378.844 238.459 378.844 238.544C378.844 238.608 378.812 238.683 378.748 238.768C378.226 239.291 377.719 239.664 377.228 239.888C376.738 240.101 376.188 240.208 375.58 240.208C374.812 240.208 374.146 240.037 373.58 239.696C373.015 239.355 372.578 238.88 372.268 238.272C371.959 237.653 371.804 236.939 371.804 236.128C371.804 235.307 371.954 234.581 372.252 233.952C372.562 233.312 372.994 232.816 373.548 232.464C374.103 232.101 374.743 231.92 375.468 231.92C376.546 231.92 377.394 232.256 378.012 232.928C378.631 233.6 378.94 234.507 378.94 235.648V235.84C378.93 235.936 378.892 236.011 378.828 236.064C378.775 236.117 378.7 236.144 378.604 236.144H372.876C372.908 237.04 373.143 237.797 373.58 238.416C374.028 239.024 374.695 239.328 375.58 239.328C376.06 239.328 376.482 239.243 376.844 239.072C377.218 238.891 377.628 238.576 378.076 238.128ZM375.468 232.8C374.764 232.8 374.183 233.019 373.724 233.456C373.276 233.883 373.004 234.512 372.908 235.344H377.884C377.863 234.565 377.639 233.947 377.212 233.488C376.786 233.029 376.204 232.8 375.468 232.8ZM385.048 230.112C384.835 230.112 384.653 230.037 384.504 229.888C384.365 229.739 384.296 229.557 384.296 229.344C384.296 229.131 384.365 228.955 384.504 228.816C384.653 228.677 384.835 228.608 385.048 228.608C385.272 228.608 385.453 228.677 385.592 228.816C385.741 228.955 385.816 229.131 385.816 229.344C385.816 229.557 385.741 229.739 385.592 229.888C385.453 230.037 385.272 230.112 385.048 230.112ZM384.84 240C384.627 240 384.52 239.893 384.52 239.68V232.432C384.52 232.219 384.627 232.112 384.84 232.112H385.256C385.469 232.112 385.576 232.219 385.576 232.432V239.68C385.576 239.893 385.469 240 385.256 240H384.84ZM391.446 231.92C392.374 231.92 393.073 232.176 393.542 232.688C394.022 233.2 394.262 233.84 394.262 234.608V239.68C394.262 239.893 394.156 240 393.942 240H393.526C393.313 240 393.206 239.893 393.206 239.68V234.96C393.206 234.256 393.036 233.723 392.694 233.36C392.353 232.997 391.862 232.816 391.222 232.816C390.817 232.816 390.444 232.917 390.102 233.12C389.761 233.312 389.489 233.579 389.286 233.92C389.084 234.261 388.982 234.635 388.982 235.04V239.68C388.982 239.893 388.876 240 388.662 240H388.246C388.033 240 387.926 239.893 387.926 239.68V232.432C387.926 232.219 388.033 232.112 388.246 232.112H388.598C388.812 232.112 388.918 232.219 388.918 232.432V233.2C389.185 232.773 389.537 232.453 389.974 232.24C390.412 232.027 390.902 231.92 391.446 231.92ZM396.616 235.888C396.403 235.888 396.296 235.781 396.296 235.568V235.264C396.296 235.051 396.403 234.944 396.616 234.944H400.488C400.701 234.944 400.808 235.051 400.808 235.264V235.568C400.808 235.781 400.701 235.888 400.488 235.888H396.616ZM405.997 231.92C406.968 231.92 407.725 232.155 408.269 232.624C408.813 233.083 409.085 233.691 409.085 234.448V239.68C409.085 239.893 408.979 240 408.765 240H408.445C408.232 240 408.125 239.893 408.125 239.68V238.96C407.859 239.387 407.48 239.707 406.989 239.92C406.509 240.133 405.971 240.24 405.373 240.24C404.541 240.24 403.864 240.064 403.341 239.712C402.819 239.36 402.557 238.816 402.557 238.08C402.557 237.493 402.723 237.024 403.053 236.672C403.384 236.309 403.816 236.037 404.349 235.856C404.883 235.664 405.549 235.493 406.349 235.344L408.077 235.04V234.528C408.077 233.984 407.891 233.563 407.517 233.264C407.144 232.955 406.653 232.8 406.045 232.8C405.587 232.8 405.171 232.885 404.797 233.056C404.424 233.227 404.024 233.52 403.597 233.936C403.523 234.011 403.443 234.048 403.357 234.048C403.283 234.048 403.213 234.016 403.149 233.952L402.941 233.76C402.867 233.685 402.829 233.605 402.829 233.52C402.829 233.424 402.867 233.339 402.941 233.264C403.389 232.795 403.859 232.453 404.349 232.24C404.851 232.027 405.4 231.92 405.997 231.92ZM405.421 239.36C406.189 239.36 406.824 239.157 407.325 238.752C407.827 238.347 408.077 237.829 408.077 237.2V235.856L406.589 236.144C405.896 236.283 405.347 236.416 404.941 236.544C404.536 236.672 404.211 236.859 403.965 237.104C403.72 237.349 403.597 237.669 403.597 238.064C403.597 238.469 403.757 238.789 404.077 239.024C404.408 239.248 404.856 239.36 405.421 239.36ZM415.202 231.936C415.864 231.936 416.456 232.112 416.978 232.464C417.512 232.805 417.928 233.291 418.226 233.92C418.525 234.539 418.674 235.248 418.674 236.048C418.674 236.859 418.525 237.579 418.226 238.208C417.928 238.837 417.517 239.328 416.994 239.68C416.472 240.021 415.874 240.192 415.202 240.192C413.965 240.192 413.058 239.739 412.482 238.832V242.624C412.482 242.837 412.376 242.944 412.162 242.944H411.746C411.533 242.944 411.426 242.837 411.426 242.624V232.432C411.426 232.219 411.533 232.112 411.746 232.112H412.098C412.312 232.112 412.418 232.219 412.418 232.432V233.44C412.706 232.949 413.085 232.576 413.554 232.32C414.024 232.064 414.573 231.936 415.202 231.936ZM415.122 239.296C415.869 239.296 416.466 238.997 416.914 238.4C417.362 237.803 417.586 237.019 417.586 236.048C417.586 235.088 417.362 234.315 416.914 233.728C416.466 233.131 415.869 232.832 415.122 232.832C414.322 232.832 413.672 233.12 413.17 233.696C412.68 234.261 412.434 235.045 412.434 236.048C412.434 237.051 412.685 237.845 413.186 238.432C413.688 239.008 414.333 239.296 415.122 239.296ZM424.327 231.936C424.989 231.936 425.581 232.112 426.103 232.464C426.637 232.805 427.053 233.291 427.351 233.92C427.65 234.539 427.799 235.248 427.799 236.048C427.799 236.859 427.65 237.579 427.351 238.208C427.053 238.837 426.642 239.328 426.119 239.68C425.597 240.021 424.999 240.192 424.327 240.192C423.09 240.192 422.183 239.739 421.607 238.832V242.624C421.607 242.837 421.501 242.944 421.287 242.944H420.871C420.658 242.944 420.551 242.837 420.551 242.624V232.432C420.551 232.219 420.658 232.112 420.871 232.112H421.223C421.437 232.112 421.543 232.219 421.543 232.432V233.44C421.831 232.949 422.21 232.576 422.679 232.32C423.149 232.064 423.698 231.936 424.327 231.936ZM424.247 239.296C424.994 239.296 425.591 238.997 426.039 238.4C426.487 237.803 426.711 237.019 426.711 236.048C426.711 235.088 426.487 234.315 426.039 233.728C425.591 233.131 424.994 232.832 424.247 232.832C423.447 232.832 422.797 233.12 422.295 233.696C421.805 234.261 421.559 235.045 421.559 236.048C421.559 237.051 421.81 237.845 422.311 238.432C422.813 239.008 423.458 239.296 424.247 239.296ZM437.14 231.936C437.801 231.936 438.393 232.112 438.916 232.464C439.449 232.805 439.865 233.291 440.164 233.92C440.462 234.539 440.612 235.248 440.612 236.048C440.612 236.859 440.462 237.579 440.164 238.208C439.865 238.837 439.454 239.328 438.932 239.68C438.409 240.021 437.812 240.192 437.14 240.192C435.902 240.192 434.996 239.739 434.42 238.832V242.624C434.42 242.837 434.313 242.944 434.1 242.944H433.684C433.47 242.944 433.364 242.837 433.364 242.624V232.432C433.364 232.219 433.47 232.112 433.684 232.112H434.036C434.249 232.112 434.356 232.219 434.356 232.432V233.44C434.644 232.949 435.022 232.576 435.492 232.32C435.961 232.064 436.51 231.936 437.14 231.936ZM437.06 239.296C437.806 239.296 438.404 238.997 438.852 238.4C439.3 237.803 439.524 237.019 439.524 236.048C439.524 235.088 439.3 234.315 438.852 233.728C438.404 233.131 437.806 232.832 437.06 232.832C436.26 232.832 435.609 233.12 435.108 233.696C434.617 234.261 434.372 235.045 434.372 236.048C434.372 237.051 434.622 237.845 435.124 238.432C435.625 239.008 436.27 239.296 437.06 239.296ZM447.609 232.432C447.609 232.219 447.715 232.112 447.929 232.112H448.345C448.558 232.112 448.665 232.219 448.665 232.432V239.68C448.665 239.893 448.558 240 448.345 240H448.009C447.795 240 447.689 239.893 447.689 239.68V238.96C447.454 239.376 447.118 239.691 446.681 239.904C446.254 240.107 445.785 240.208 445.273 240.208C444.313 240.208 443.603 239.968 443.145 239.488C442.686 238.997 442.457 238.368 442.457 237.6V232.432C442.457 232.219 442.563 232.112 442.777 232.112H443.193C443.406 232.112 443.513 232.219 443.513 232.432V237.376C443.513 238.005 443.667 238.485 443.977 238.816C444.297 239.136 444.75 239.296 445.337 239.296C445.998 239.296 446.542 239.093 446.969 238.688C447.395 238.283 447.609 237.707 447.609 236.96V232.432ZM453.98 232.048C454.246 232.048 454.561 232.091 454.924 232.176C455.116 232.24 455.19 232.373 455.148 232.576L455.084 232.832C455.03 233.035 454.897 233.109 454.684 233.056C454.428 232.992 454.193 232.96 453.98 232.96C453.436 232.96 452.982 233.195 452.62 233.664C452.268 234.133 452.092 234.784 452.092 235.616V239.68C452.092 239.893 451.985 240 451.772 240H451.356C451.142 240 451.036 239.893 451.036 239.68V232.432C451.036 232.219 451.142 232.112 451.356 232.112H451.708C451.921 232.112 452.028 232.219 452.028 232.432V233.312C452.209 232.917 452.465 232.608 452.796 232.384C453.137 232.16 453.532 232.048 453.98 232.048ZM459.345 240.208C458.588 240.208 457.926 240.037 457.361 239.696C456.806 239.344 456.374 238.859 456.065 238.24C455.766 237.611 455.617 236.885 455.617 236.064C455.617 235.253 455.766 234.533 456.065 233.904C456.374 233.275 456.806 232.789 457.361 232.448C457.926 232.096 458.577 231.92 459.313 231.92C459.91 231.92 460.433 232.021 460.881 232.224C461.329 232.416 461.761 232.736 462.177 233.184C462.241 233.248 462.273 233.317 462.273 233.392C462.273 233.488 462.23 233.568 462.145 233.632L461.921 233.84C461.857 233.904 461.782 233.936 461.697 233.936C461.622 233.936 461.542 233.893 461.457 233.808C461.084 233.435 460.726 233.173 460.385 233.024C460.054 232.875 459.686 232.8 459.281 232.8C458.726 232.8 458.252 232.955 457.857 233.264C457.473 233.573 457.185 233.979 456.993 234.48C456.801 234.971 456.705 235.499 456.705 236.064C456.705 236.629 456.801 237.163 456.993 237.664C457.185 238.155 457.478 238.555 457.873 238.864C458.268 239.163 458.753 239.312 459.329 239.312C459.756 239.312 460.129 239.237 460.449 239.088C460.78 238.928 461.148 238.629 461.553 238.192C461.638 238.107 461.718 238.064 461.793 238.064C461.878 238.064 461.953 238.096 462.017 238.16L462.241 238.336C462.316 238.4 462.353 238.475 462.353 238.56C462.353 238.645 462.305 238.747 462.209 238.864C461.761 239.355 461.313 239.701 460.865 239.904C460.417 240.107 459.91 240.208 459.345 240.208ZM467.587 231.92C468.504 231.92 469.203 232.181 469.683 232.704C470.163 233.216 470.403 233.851 470.403 234.608V239.68C470.403 239.893 470.296 240 470.083 240H469.667C469.453 240 469.347 239.893 469.347 239.68V234.96C469.347 234.256 469.176 233.723 468.835 233.36C468.493 232.997 468.003 232.816 467.363 232.816C466.957 232.816 466.584 232.917 466.243 233.12C465.901 233.312 465.629 233.579 465.427 233.92C465.224 234.261 465.123 234.635 465.123 235.04V239.68C465.123 239.893 465.016 240 464.803 240H464.387C464.173 240 464.067 239.893 464.067 239.68V228.96C464.067 228.747 464.173 228.64 464.387 228.64H464.803C465.016 228.64 465.123 228.747 465.123 228.96V233.136C465.379 232.731 465.72 232.427 466.147 232.224C466.584 232.021 467.064 231.92 467.587 231.92ZM475.779 231.92C476.749 231.92 477.507 232.155 478.051 232.624C478.595 233.083 478.867 233.691 478.867 234.448V239.68C478.867 239.893 478.76 240 478.547 240H478.227C478.013 240 477.907 239.893 477.907 239.68V238.96C477.64 239.387 477.261 239.707 476.771 239.92C476.291 240.133 475.752 240.24 475.155 240.24C474.323 240.24 473.645 240.064 473.123 239.712C472.6 239.36 472.339 238.816 472.339 238.08C472.339 237.493 472.504 237.024 472.835 236.672C473.165 236.309 473.597 236.037 474.131 235.856C474.664 235.664 475.331 235.493 476.131 235.344L477.859 235.04V234.528C477.859 233.984 477.672 233.563 477.299 233.264C476.925 232.955 476.435 232.8 475.827 232.8C475.368 232.8 474.952 232.885 474.579 233.056C474.205 233.227 473.805 233.52 473.379 233.936C473.304 234.011 473.224 234.048 473.139 234.048C473.064 234.048 472.995 234.016 472.931 233.952L472.723 233.76C472.648 233.685 472.611 233.605 472.611 233.52C472.611 233.424 472.648 233.339 472.723 233.264C473.171 232.795 473.64 232.453 474.131 232.24C474.632 232.027 475.181 231.92 475.779 231.92ZM475.203 239.36C475.971 239.36 476.605 239.157 477.107 238.752C477.608 238.347 477.859 237.829 477.859 237.2V235.856L476.371 236.144C475.677 236.283 475.128 236.416 474.723 236.544C474.317 236.672 473.992 236.859 473.747 237.104C473.501 237.349 473.379 237.669 473.379 238.064C473.379 238.469 473.539 238.789 473.859 239.024C474.189 239.248 474.637 239.36 475.203 239.36ZM483.959 240.208C483.309 240.208 482.733 240.117 482.231 239.936C481.741 239.744 481.223 239.424 480.679 238.976C480.583 238.912 480.535 238.837 480.535 238.752C480.535 238.677 480.573 238.603 480.647 238.528L480.855 238.304C480.919 238.219 480.999 238.176 481.095 238.176C481.17 238.176 481.239 238.208 481.303 238.272C481.815 238.667 482.269 238.944 482.663 239.104C483.058 239.253 483.49 239.328 483.959 239.328C484.546 239.328 485.026 239.2 485.399 238.944C485.773 238.677 485.959 238.32 485.959 237.872C485.959 237.424 485.767 237.093 485.383 236.88C484.999 236.667 484.407 236.475 483.607 236.304C482.903 236.155 482.349 236 481.943 235.84C481.549 235.669 481.255 235.456 481.063 235.2C480.871 234.944 480.775 234.608 480.775 234.192C480.775 233.509 481.053 232.96 481.607 232.544C482.162 232.128 482.861 231.92 483.703 231.92C484.279 231.92 484.791 231.995 485.239 232.144C485.698 232.283 486.157 232.517 486.615 232.848C486.711 232.923 486.759 233.003 486.759 233.088C486.759 233.141 486.733 233.211 486.679 233.296L486.487 233.536C486.434 233.621 486.359 233.664 486.263 233.664C486.178 233.664 486.103 233.637 486.039 233.584C485.602 233.275 485.213 233.067 484.871 232.96C484.541 232.853 484.162 232.8 483.735 232.8C483.149 232.8 482.679 232.928 482.327 233.184C481.975 233.44 481.799 233.765 481.799 234.16C481.799 234.405 481.879 234.603 482.039 234.752C482.199 234.901 482.429 235.029 482.727 235.136C483.026 235.232 483.463 235.344 484.039 235.472C485.106 235.707 485.863 235.995 486.311 236.336C486.77 236.677 486.999 237.173 486.999 237.824C486.999 238.539 486.717 239.115 486.151 239.552C485.586 239.989 484.855 240.208 483.959 240.208ZM494.53 238.128C494.604 238.053 494.684 238.016 494.77 238.016C494.844 238.016 494.914 238.048 494.978 238.112L495.186 238.304C495.26 238.379 495.298 238.459 495.298 238.544C495.298 238.608 495.266 238.683 495.202 238.768C494.679 239.291 494.172 239.664 493.682 239.888C493.191 240.101 492.642 240.208 492.034 240.208C491.266 240.208 490.599 240.037 490.034 239.696C489.468 239.355 489.031 238.88 488.722 238.272C488.412 237.653 488.258 236.939 488.258 236.128C488.258 235.307 488.407 234.581 488.706 233.952C489.015 233.312 489.447 232.816 490.002 232.464C490.556 232.101 491.196 231.92 491.922 231.92C492.999 231.92 493.847 232.256 494.466 232.928C495.084 233.6 495.394 234.507 495.394 235.648V235.84C495.383 235.936 495.346 236.011 495.282 236.064C495.228 236.117 495.154 236.144 495.058 236.144H489.33C489.362 237.04 489.596 237.797 490.034 238.416C490.482 239.024 491.148 239.328 492.034 239.328C492.514 239.328 492.935 239.243 493.298 239.072C493.671 238.891 494.082 238.576 494.53 238.128ZM491.922 232.8C491.218 232.8 490.636 233.019 490.178 233.456C489.73 233.883 489.458 234.512 489.362 235.344H494.338C494.316 234.565 494.092 233.947 493.666 233.488C493.239 233.029 492.658 232.8 491.922 232.8ZM500.1 240.208C499.449 240.208 498.873 240.117 498.372 239.936C497.881 239.744 497.364 239.424 496.82 238.976C496.724 238.912 496.676 238.837 496.676 238.752C496.676 238.677 496.713 238.603 496.788 238.528L496.996 238.304C497.06 238.219 497.14 238.176 497.236 238.176C497.311 238.176 497.38 238.208 497.444 238.272C497.956 238.667 498.409 238.944 498.804 239.104C499.199 239.253 499.631 239.328 500.1 239.328C500.687 239.328 501.167 239.2 501.54 238.944C501.913 238.677 502.1 238.32 502.1 237.872C502.1 237.424 501.908 237.093 501.524 236.88C501.14 236.667 500.548 236.475 499.748 236.304C499.044 236.155 498.489 236 498.084 235.84C497.689 235.669 497.396 235.456 497.204 235.2C497.012 234.944 496.916 234.608 496.916 234.192C496.916 233.509 497.193 232.96 497.748 232.544C498.303 232.128 499.001 231.92 499.844 231.92C500.42 231.92 500.932 231.995 501.38 232.144C501.839 232.283 502.297 232.517 502.756 232.848C502.852 232.923 502.9 233.003 502.9 233.088C502.9 233.141 502.873 233.211 502.82 233.296L502.628 233.536C502.575 233.621 502.5 233.664 502.404 233.664C502.319 233.664 502.244 233.637 502.18 233.584C501.743 233.275 501.353 233.067 501.012 232.96C500.681 232.853 500.303 232.8 499.876 232.8C499.289 232.8 498.82 232.928 498.468 233.184C498.116 233.44 497.94 233.765 497.94 234.16C497.94 234.405 498.02 234.603 498.18 234.752C498.34 234.901 498.569 235.029 498.868 235.136C499.167 235.232 499.604 235.344 500.18 235.472C501.247 235.707 502.004 235.995 502.452 236.336C502.911 236.677 503.14 237.173 503.14 237.824C503.14 238.539 502.857 239.115 502.292 239.552C501.727 239.989 500.996 240.208 500.1 240.208ZM505.358 240.112C505.134 240.112 504.942 240.032 504.782 239.872C504.622 239.712 504.542 239.52 504.542 239.296C504.542 239.072 504.622 238.88 504.782 238.72C504.942 238.56 505.134 238.48 505.358 238.48C505.582 238.48 505.774 238.56 505.934 238.72C506.094 238.88 506.174 239.072 506.174 239.296C506.174 239.52 506.094 239.712 505.934 239.872C505.774 240.032 505.582 240.112 505.358 240.112Z" fill="#1B1B1F"/>
<rect x="295.5" y="270" width="97" height="48" rx="8" fill="#0063FB"/>
<path d="M321.126 299C320.806 299 320.593 298.851 320.486 298.552L319.734 296.392H314.71L313.958 298.552C313.852 298.851 313.638 299 313.318 299H312.646C312.486 299 312.358 298.968 312.262 298.904C312.177 298.829 312.134 298.728 312.134 298.6C312.134 298.536 312.15 298.456 312.182 298.36L315.894 288.088C316.001 287.789 316.214 287.64 316.534 287.64H317.958C318.278 287.64 318.492 287.789 318.598 288.088L322.31 298.36C322.342 298.456 322.358 298.536 322.358 298.6C322.358 298.728 322.31 298.829 322.214 298.904C322.129 298.968 322.006 299 321.846 299H321.126ZM319.222 294.872L318.726 293.464C318.716 293.443 318.598 293.107 318.374 292.456C317.809 290.856 317.425 289.715 317.222 289.032C316.913 290.013 316.502 291.229 315.99 292.68L315.718 293.48L315.238 294.872H319.222ZM329.216 288.184C329.216 288.003 329.264 287.864 329.36 287.768C329.466 287.672 329.605 287.624 329.776 287.624H330.352C330.533 287.624 330.672 287.672 330.767 287.768C330.863 287.864 330.911 288.003 330.911 288.184V298.44C330.911 298.611 330.863 298.749 330.767 298.856C330.672 298.952 330.533 299 330.352 299H329.888C329.717 299 329.578 298.952 329.472 298.856C329.376 298.749 329.328 298.611 329.328 298.44V297.88C328.773 298.776 327.904 299.224 326.72 299.224C326.058 299.224 325.461 299.053 324.928 298.712C324.405 298.371 323.994 297.885 323.696 297.256C323.397 296.627 323.248 295.896 323.248 295.064C323.248 294.243 323.397 293.517 323.696 292.888C324.005 292.259 324.426 291.773 324.96 291.432C325.493 291.091 326.09 290.92 326.752 290.92C327.84 290.92 328.661 291.299 329.216 292.056V288.184ZM327.072 297.768C327.722 297.768 328.256 297.528 328.672 297.048C329.088 296.557 329.296 295.896 329.296 295.064C329.296 294.232 329.088 293.576 328.672 293.096C328.256 292.616 327.722 292.376 327.072 292.376C326.442 292.376 325.936 292.621 325.552 293.112C325.168 293.603 324.976 294.253 324.976 295.064C324.976 295.885 325.162 296.541 325.536 297.032C325.92 297.523 326.432 297.768 327.072 297.768ZM338.434 288.184C338.434 288.003 338.482 287.864 338.578 287.768C338.685 287.672 338.824 287.624 338.994 287.624H339.57C339.752 287.624 339.89 287.672 339.986 287.768C340.082 287.864 340.13 288.003 340.13 288.184V298.44C340.13 298.611 340.082 298.749 339.986 298.856C339.89 298.952 339.752 299 339.57 299H339.106C338.936 299 338.797 298.952 338.69 298.856C338.594 298.749 338.546 298.611 338.546 298.44V297.88C337.992 298.776 337.122 299.224 335.938 299.224C335.277 299.224 334.68 299.053 334.146 298.712C333.624 298.371 333.213 297.885 332.914 297.256C332.616 296.627 332.466 295.896 332.466 295.064C332.466 294.243 332.616 293.517 332.914 292.888C333.224 292.259 333.645 291.773 334.178 291.432C334.712 291.091 335.309 290.92 335.97 290.92C337.058 290.92 337.88 291.299 338.434 292.056V288.184ZM336.29 297.768C336.941 297.768 337.474 297.528 337.89 297.048C338.306 296.557 338.514 295.896 338.514 295.064C338.514 294.232 338.306 293.576 337.89 293.096C337.474 292.616 336.941 292.376 336.29 292.376C335.661 292.376 335.154 292.621 334.77 293.112C334.386 293.603 334.194 294.253 334.194 295.064C334.194 295.885 334.381 296.541 334.754 297.032C335.138 297.523 335.65 297.768 336.29 297.768ZM349.151 299.24C348.372 299.24 347.684 299.069 347.087 298.728C346.5 298.387 346.042 297.901 345.711 297.272C345.391 296.632 345.231 295.891 345.231 295.048C345.231 294.205 345.396 293.469 345.727 292.84C346.058 292.211 346.522 291.725 347.119 291.384C347.716 291.043 348.404 290.872 349.183 290.872C349.748 290.872 350.255 290.957 350.703 291.128C351.162 291.288 351.599 291.565 352.015 291.96C352.143 292.088 352.207 292.221 352.207 292.36C352.207 292.488 352.138 292.621 351.999 292.76L351.727 293.032C351.61 293.149 351.482 293.208 351.343 293.208C351.204 293.208 351.06 293.144 350.911 293.016C350.602 292.749 350.308 292.568 350.031 292.472C349.764 292.365 349.476 292.312 349.167 292.312C348.463 292.312 347.919 292.573 347.535 293.096C347.151 293.619 346.959 294.269 346.959 295.048C346.959 295.827 347.151 296.483 347.535 297.016C347.919 297.539 348.463 297.8 349.167 297.8C349.508 297.8 349.823 297.736 350.111 297.608C350.399 297.469 350.708 297.24 351.039 296.92C351.178 296.781 351.322 296.712 351.471 296.712C351.599 296.712 351.722 296.765 351.839 296.872L352.111 297.096C352.25 297.213 352.319 297.347 352.319 297.496C352.319 297.656 352.239 297.827 352.079 298.008C351.642 298.456 351.188 298.776 350.719 298.968C350.26 299.149 349.738 299.24 349.151 299.24ZM357.195 290.872C358.261 290.872 359.083 291.123 359.659 291.624C360.235 292.115 360.523 292.771 360.523 293.592V298.44C360.523 298.611 360.475 298.749 360.379 298.856C360.283 298.952 360.144 299 359.963 299H359.547C359.376 299 359.237 298.952 359.131 298.856C359.035 298.749 358.987 298.611 358.987 298.44V298.088C358.731 298.461 358.379 298.749 357.931 298.952C357.483 299.155 356.96 299.256 356.363 299.256C355.541 299.256 354.864 299.075 354.331 298.712C353.808 298.339 353.547 297.779 353.547 297.032C353.547 296.2 353.856 295.587 354.475 295.192C355.104 294.787 355.973 294.483 357.083 294.28L358.891 293.944V293.656C358.891 293.219 358.736 292.883 358.427 292.648C358.128 292.403 357.728 292.28 357.227 292.28C356.8 292.28 356.427 292.355 356.107 292.504C355.797 292.643 355.461 292.877 355.099 293.208C354.96 293.325 354.827 293.384 354.699 293.384C354.571 293.384 354.437 293.325 354.299 293.208L354.043 292.984C353.904 292.856 353.835 292.717 353.835 292.568C353.835 292.429 353.899 292.296 354.027 292.168C354.485 291.731 354.971 291.405 355.483 291.192C355.995 290.979 356.565 290.872 357.195 290.872ZM356.603 297.896C357.243 297.896 357.781 297.725 358.219 297.384C358.667 297.043 358.891 296.552 358.891 295.912V295.176L357.499 295.464C356.72 295.624 356.144 295.805 355.771 296.008C355.397 296.211 355.211 296.52 355.211 296.936C355.211 297.235 355.333 297.469 355.579 297.64C355.824 297.811 356.165 297.896 356.603 297.896ZM366.012 291.032C366.247 291.032 366.487 291.059 366.732 291.112C367.02 291.176 367.164 291.347 367.164 291.624C367.164 291.699 367.159 291.752 367.148 291.784L367.068 292.168C367.004 292.467 366.844 292.616 366.588 292.616L366.444 292.6C366.252 292.568 366.082 292.552 365.932 292.552C365.399 292.552 364.967 292.765 364.636 293.192C364.316 293.608 364.156 294.189 364.156 294.936V298.44C364.156 298.611 364.108 298.749 364.012 298.856C363.916 298.952 363.778 299 363.596 299H363.02C362.85 299 362.711 298.952 362.604 298.856C362.508 298.749 362.46 298.611 362.46 298.44V291.672C362.46 291.491 362.508 291.352 362.604 291.256C362.711 291.16 362.85 291.112 363.02 291.112H363.484C363.666 291.112 363.804 291.16 363.9 291.256C363.996 291.352 364.044 291.491 364.044 291.672V292.296C364.236 291.901 364.498 291.592 364.828 291.368C365.159 291.144 365.554 291.032 366.012 291.032ZM373.575 288.184C373.575 288.003 373.623 287.864 373.719 287.768C373.826 287.672 373.964 287.624 374.135 287.624H374.711C374.892 287.624 375.031 287.672 375.127 287.768C375.223 287.864 375.271 288.003 375.271 288.184V298.44C375.271 298.611 375.223 298.749 375.127 298.856C375.031 298.952 374.892 299 374.711 299H374.247C374.076 299 373.938 298.952 373.831 298.856C373.735 298.749 373.687 298.611 373.687 298.44V297.88C373.132 298.776 372.263 299.224 371.079 299.224C370.418 299.224 369.82 299.053 369.287 298.712C368.764 298.371 368.354 297.885 368.055 297.256C367.756 296.627 367.607 295.896 367.607 295.064C367.607 294.243 367.756 293.517 368.055 292.888C368.364 292.259 368.786 291.773 369.319 291.432C369.852 291.091 370.45 290.92 371.111 290.92C372.199 290.92 373.02 291.299 373.575 292.056V288.184ZM371.431 297.768C372.082 297.768 372.615 297.528 373.031 297.048C373.447 296.557 373.655 295.896 373.655 295.064C373.655 294.232 373.447 293.576 373.031 293.096C372.615 292.616 372.082 292.376 371.431 292.376C370.802 292.376 370.295 292.621 369.911 293.112C369.527 293.603 369.335 294.253 369.335 295.064C369.335 295.885 369.522 296.541 369.895 297.032C370.279 297.523 370.791 297.768 371.431 297.768Z" fill="white"/>
</svg>
