<svg width="688" height="504" viewBox="0 0 688 504" fill="none" xmlns="http://www.w3.org/2000/svg">
<rect width="688" height="504" fill="#F6F6F6"/>
<rect x="144" y="80" width="400" height="344" rx="8" fill="white"/>
<path d="M344 141V138C348.418 138 352 134.865 352 131C352 127.135 348.418 124 344 124C339.582 124 336 127.135 336 131V132M344 150V148M368 136C368 149.255 357.255 160 344 160C330.745 160 320 149.255 320 136C320 122.745 330.745 112 344 112C357.255 112 368 122.745 368 136Z" stroke="#0063FB" stroke-width="4" stroke-linecap="round" stroke-linejoin="round"/>
<path d="M272.107 213C271.872 213 271.681 212.934 271.535 212.802C271.403 212.655 271.337 212.465 271.337 212.23V198.15C271.337 197.901 271.403 197.71 271.535 197.578C271.681 197.446 271.872 197.38 272.107 197.38H278.421C279.975 197.38 281.215 197.813 282.139 198.678C283.063 199.529 283.525 200.695 283.525 202.176C283.525 203.657 283.063 204.823 282.139 205.674C281.215 206.525 279.975 206.95 278.421 206.95H273.845V212.23C273.845 212.465 273.779 212.655 273.647 212.802C273.515 212.934 273.324 213 273.075 213H272.107ZM278.025 204.86C278.963 204.86 279.697 204.633 280.225 204.178C280.767 203.709 281.039 203.041 281.039 202.176C281.039 201.296 280.767 200.629 280.225 200.174C279.697 199.705 278.963 199.47 278.025 199.47H273.845V204.86H278.025ZM289.891 201.824C291.357 201.824 292.487 202.169 293.279 202.858C294.071 203.533 294.467 204.435 294.467 205.564V212.23C294.467 212.465 294.401 212.655 294.269 212.802C294.137 212.934 293.946 213 293.697 213H293.125C292.89 213 292.699 212.934 292.553 212.802C292.421 212.655 292.355 212.465 292.355 212.23V211.746C292.003 212.259 291.519 212.655 290.903 212.934C290.287 213.213 289.568 213.352 288.747 213.352C287.617 213.352 286.686 213.103 285.953 212.604C285.234 212.091 284.875 211.321 284.875 210.294C284.875 209.15 285.3 208.307 286.151 207.764C287.016 207.207 288.211 206.789 289.737 206.51L292.223 206.048V205.652C292.223 205.051 292.01 204.589 291.585 204.266C291.174 203.929 290.624 203.76 289.935 203.76C289.348 203.76 288.835 203.863 288.395 204.068C287.969 204.259 287.507 204.581 287.009 205.036C286.818 205.197 286.635 205.278 286.459 205.278C286.283 205.278 286.099 205.197 285.909 205.036L285.557 204.728C285.366 204.552 285.271 204.361 285.271 204.156C285.271 203.965 285.359 203.782 285.535 203.606C286.165 203.005 286.833 202.557 287.537 202.264C288.241 201.971 289.025 201.824 289.891 201.824ZM289.077 211.482C289.957 211.482 290.697 211.247 291.299 210.778C291.915 210.309 292.223 209.634 292.223 208.754V207.742L290.309 208.138C289.238 208.358 288.446 208.607 287.933 208.886C287.419 209.165 287.163 209.59 287.163 210.162C287.163 210.573 287.331 210.895 287.669 211.13C288.006 211.365 288.475 211.482 289.077 211.482ZM304.765 202.858C304.765 202.638 304.831 202.469 304.963 202.352C305.11 202.22 305.3 202.154 305.535 202.154H306.151C306.4 202.154 306.591 202.22 306.723 202.352C306.855 202.484 306.921 202.675 306.921 202.924V212.604C306.921 214.056 306.452 215.185 305.513 215.992C304.589 216.799 303.357 217.202 301.817 217.202C300.277 217.202 298.825 216.806 297.461 216.014C297.182 215.867 297.043 215.669 297.043 215.42C297.043 215.288 297.102 215.127 297.219 214.936L297.505 214.518C297.666 214.269 297.864 214.144 298.099 214.144C298.26 214.144 298.422 214.195 298.583 214.298C299.17 214.635 299.712 214.877 300.211 215.024C300.71 215.185 301.238 215.266 301.795 215.266C302.646 215.266 303.328 215.031 303.841 214.562C304.369 214.107 304.633 213.389 304.633 212.406V211.24C303.9 212.281 302.8 212.802 301.333 212.802C300.424 212.802 299.602 212.575 298.869 212.12C298.15 211.651 297.586 211.005 297.175 210.184C296.779 209.348 296.581 208.395 296.581 207.324C296.581 206.253 296.779 205.307 297.175 204.486C297.586 203.65 298.15 202.997 298.869 202.528C299.602 202.059 300.424 201.824 301.333 201.824C302.888 201.824 304.032 202.403 304.765 203.562V202.858ZM301.795 210.844C302.646 210.844 303.342 210.521 303.885 209.876C304.428 209.216 304.699 208.365 304.699 207.324C304.699 206.297 304.428 205.461 303.885 204.816C303.357 204.156 302.66 203.826 301.795 203.826C300.915 203.826 300.218 204.149 299.705 204.794C299.192 205.439 298.935 206.283 298.935 207.324C298.935 208.38 299.192 209.231 299.705 209.876C300.218 210.521 300.915 210.844 301.795 210.844ZM317.379 210.228C317.57 210.067 317.753 209.986 317.929 209.986C318.105 209.986 318.289 210.081 318.479 210.272L318.787 210.602C318.949 210.793 319.029 210.976 319.029 211.152C319.029 211.343 318.934 211.526 318.743 211.702C318.069 212.289 317.394 212.707 316.719 212.956C316.059 213.205 315.326 213.33 314.519 213.33C313.39 213.33 312.407 213.095 311.571 212.626C310.75 212.157 310.112 211.497 309.657 210.646C309.217 209.781 308.997 208.783 308.997 207.654C308.997 206.539 309.21 205.542 309.635 204.662C310.075 203.767 310.691 203.071 311.483 202.572C312.29 202.073 313.229 201.824 314.299 201.824C315.898 201.824 317.13 202.301 317.995 203.254C318.861 204.193 319.293 205.491 319.293 207.148V207.346C319.279 207.581 319.205 207.764 319.073 207.896C318.941 208.028 318.751 208.094 318.501 208.094H311.285C311.373 209.062 311.689 209.854 312.231 210.47C312.789 211.071 313.566 211.372 314.563 211.372C315.106 211.372 315.583 211.291 315.993 211.13C316.404 210.954 316.866 210.653 317.379 210.228ZM314.255 203.672C313.449 203.672 312.796 203.914 312.297 204.398C311.813 204.867 311.498 205.535 311.351 206.4H317.005C316.947 205.549 316.683 204.882 316.213 204.398C315.744 203.914 315.091 203.672 314.255 203.672ZM331.872 201.824C333.118 201.824 334.072 202.176 334.732 202.88C335.406 203.569 335.744 204.464 335.744 205.564V212.23C335.744 212.465 335.678 212.655 335.546 212.802C335.414 212.934 335.223 213 334.974 213H334.182C333.947 213 333.756 212.934 333.61 212.802C333.478 212.655 333.412 212.465 333.412 212.23V206.29C333.412 205.498 333.214 204.889 332.818 204.464C332.436 204.039 331.886 203.826 331.168 203.826C330.464 203.826 329.87 204.068 329.386 204.552C328.916 205.036 328.682 205.645 328.682 206.378V212.23C328.682 212.465 328.616 212.655 328.484 212.802C328.352 212.934 328.161 213 327.912 213H327.12C326.885 213 326.694 212.934 326.548 212.802C326.416 212.655 326.35 212.465 326.35 212.23V202.924C326.35 202.675 326.416 202.484 326.548 202.352C326.694 202.22 326.885 202.154 327.12 202.154H327.758C328.007 202.154 328.198 202.22 328.33 202.352C328.462 202.484 328.528 202.675 328.528 202.924V203.496C328.88 202.953 329.342 202.543 329.914 202.264C330.486 201.971 331.138 201.824 331.872 201.824ZM343.308 213.33C342.237 213.33 341.284 213.088 340.448 212.604C339.627 212.12 338.981 211.445 338.512 210.58C338.043 209.7 337.808 208.695 337.808 207.566C337.808 206.437 338.043 205.439 338.512 204.574C338.981 203.709 339.627 203.034 340.448 202.55C341.284 202.066 342.237 201.824 343.308 201.824C344.364 201.824 345.31 202.066 346.146 202.55C346.982 203.034 347.635 203.716 348.104 204.596C348.573 205.461 348.808 206.451 348.808 207.566C348.808 208.695 348.573 209.7 348.104 210.58C347.635 211.445 346.982 212.12 346.146 212.604C345.31 213.088 344.364 213.33 343.308 213.33ZM343.308 211.372C344.247 211.372 345.002 211.027 345.574 210.338C346.146 209.634 346.432 208.71 346.432 207.566C346.432 206.437 346.146 205.527 345.574 204.838C345.002 204.149 344.247 203.804 343.308 203.804C342.369 203.804 341.614 204.149 341.042 204.838C340.47 205.527 340.184 206.437 340.184 207.566C340.184 208.71 340.47 209.634 341.042 210.338C341.614 211.027 342.369 211.372 343.308 211.372ZM355.734 211.152C355.778 211.137 355.844 211.13 355.932 211.13C356.299 211.13 356.519 211.343 356.592 211.768L356.658 212.12C356.673 212.164 356.68 212.237 356.68 212.34C356.68 212.707 356.475 212.941 356.064 213.044C355.478 213.176 354.942 213.242 354.458 213.242C353.417 213.242 352.662 213 352.192 212.516C351.738 212.032 351.51 211.306 351.51 210.338V203.936H350.3C350.066 203.936 349.875 203.87 349.728 203.738C349.596 203.591 349.53 203.401 349.53 203.166V202.924C349.53 202.675 349.596 202.484 349.728 202.352C349.875 202.22 350.066 202.154 350.3 202.154H351.51V199.426C351.51 199.177 351.576 198.986 351.708 198.854C351.855 198.722 352.046 198.656 352.28 198.656H353.072C353.322 198.656 353.512 198.722 353.644 198.854C353.776 198.986 353.842 199.177 353.842 199.426V202.154H355.822C356.072 202.154 356.262 202.22 356.394 202.352C356.526 202.484 356.592 202.675 356.592 202.924V203.166C356.592 203.401 356.526 203.591 356.394 203.738C356.262 203.87 356.072 203.936 355.822 203.936H353.842V210.052C353.842 210.477 353.93 210.778 354.106 210.954C354.297 211.13 354.598 211.218 355.008 211.218C355.184 211.218 355.426 211.196 355.734 211.152ZM368.206 199.008C367.693 199.008 367.319 199.133 367.084 199.382C366.849 199.631 366.732 200.057 366.732 200.658V202.154H368.514C368.763 202.154 368.954 202.22 369.086 202.352C369.218 202.484 369.284 202.675 369.284 202.924V203.166C369.284 203.401 369.218 203.591 369.086 203.738C368.954 203.87 368.763 203.936 368.514 203.936H366.732V212.23C366.732 212.465 366.666 212.655 366.534 212.802C366.402 212.934 366.211 213 365.962 213H365.17C364.935 213 364.745 212.934 364.598 212.802C364.466 212.655 364.4 212.465 364.4 212.23V203.936H363.234C362.999 203.936 362.809 203.87 362.662 203.738C362.53 203.591 362.464 203.401 362.464 203.166V202.924C362.464 202.675 362.53 202.484 362.662 202.352C362.809 202.22 362.999 202.154 363.234 202.154H364.4V200.504C364.4 199.375 364.686 198.524 365.258 197.952C365.845 197.365 366.688 197.072 367.788 197.072C368.287 197.072 368.793 197.123 369.306 197.226C369.687 197.329 369.878 197.563 369.878 197.93C369.878 198.033 369.871 198.113 369.856 198.172L369.79 198.48C369.702 198.861 369.416 199.052 368.932 199.052L368.668 199.03C368.565 199.015 368.411 199.008 368.206 199.008ZM375.492 213.33C374.421 213.33 373.468 213.088 372.632 212.604C371.81 212.12 371.165 211.445 370.696 210.58C370.226 209.7 369.992 208.695 369.992 207.566C369.992 206.437 370.226 205.439 370.696 204.574C371.165 203.709 371.81 203.034 372.632 202.55C373.468 202.066 374.421 201.824 375.492 201.824C376.548 201.824 377.494 202.066 378.33 202.55C379.166 203.034 379.818 203.716 380.288 204.596C380.757 205.461 380.992 206.451 380.992 207.566C380.992 208.695 380.757 209.7 380.288 210.58C379.818 211.445 379.166 212.12 378.33 212.604C377.494 213.088 376.548 213.33 375.492 213.33ZM375.492 211.372C376.43 211.372 377.186 211.027 377.758 210.338C378.33 209.634 378.616 208.71 378.616 207.566C378.616 206.437 378.33 205.527 377.758 204.838C377.186 204.149 376.43 203.804 375.492 203.804C374.553 203.804 373.798 204.149 373.226 204.838C372.654 205.527 372.368 206.437 372.368 207.566C372.368 208.71 372.654 209.634 373.226 210.338C373.798 211.027 374.553 211.372 375.492 211.372ZM389.933 202.924C389.933 202.675 389.999 202.484 390.131 202.352C390.278 202.22 390.468 202.154 390.703 202.154H391.495C391.744 202.154 391.935 202.22 392.067 202.352C392.199 202.484 392.265 202.675 392.265 202.924V212.23C392.265 212.465 392.199 212.655 392.067 212.802C391.935 212.934 391.744 213 391.495 213H390.901C390.666 213 390.476 212.934 390.329 212.802C390.197 212.655 390.131 212.465 390.131 212.23V211.724C389.838 212.223 389.412 212.619 388.855 212.912C388.298 213.191 387.638 213.33 386.875 213.33C385.584 213.33 384.624 213.015 383.993 212.384C383.362 211.739 383.047 210.888 383.047 209.832V202.924C383.047 202.675 383.113 202.484 383.245 202.352C383.392 202.22 383.582 202.154 383.817 202.154H384.609C384.858 202.154 385.049 202.22 385.181 202.352C385.313 202.484 385.379 202.675 385.379 202.924V209.216C385.379 209.891 385.548 210.411 385.885 210.778C386.237 211.13 386.743 211.306 387.403 211.306C388.166 211.306 388.774 211.086 389.229 210.646C389.698 210.206 389.933 209.568 389.933 208.732V202.924ZM400.471 201.824C401.718 201.824 402.671 202.176 403.331 202.88C404.006 203.569 404.343 204.464 404.343 205.564V212.23C404.343 212.465 404.277 212.655 404.145 212.802C404.013 212.934 403.823 213 403.573 213H402.781C402.547 213 402.356 212.934 402.209 212.802C402.077 212.655 402.011 212.465 402.011 212.23V206.29C402.011 205.498 401.813 204.889 401.417 204.464C401.036 204.039 400.486 203.826 399.767 203.826C399.063 203.826 398.469 204.068 397.985 204.552C397.516 205.036 397.281 205.645 397.281 206.378V212.23C397.281 212.465 397.215 212.655 397.083 212.802C396.951 212.934 396.761 213 396.511 213H395.719C395.485 213 395.294 212.934 395.147 212.802C395.015 212.655 394.949 212.465 394.949 212.23V202.924C394.949 202.675 395.015 202.484 395.147 202.352C395.294 202.22 395.485 202.154 395.719 202.154H396.357C396.607 202.154 396.797 202.22 396.929 202.352C397.061 202.484 397.127 202.675 397.127 202.924V203.496C397.479 202.953 397.941 202.543 398.513 202.264C399.085 201.971 399.738 201.824 400.471 201.824ZM414.658 198.128C414.658 197.879 414.724 197.688 414.856 197.556C415.002 197.424 415.193 197.358 415.428 197.358H416.22C416.469 197.358 416.66 197.424 416.792 197.556C416.924 197.688 416.99 197.879 416.99 198.128V212.23C416.99 212.465 416.924 212.655 416.792 212.802C416.66 212.934 416.469 213 416.22 213H415.582C415.347 213 415.156 212.934 415.01 212.802C414.878 212.655 414.812 212.465 414.812 212.23V211.46C414.049 212.692 412.854 213.308 411.226 213.308C410.316 213.308 409.495 213.073 408.762 212.604C408.043 212.135 407.478 211.467 407.068 210.602C406.657 209.737 406.452 208.732 406.452 207.588C406.452 206.459 406.657 205.461 407.068 204.596C407.493 203.731 408.072 203.063 408.806 202.594C409.539 202.125 410.36 201.89 411.27 201.89C412.766 201.89 413.895 202.411 414.658 203.452V198.128ZM411.71 211.306C412.604 211.306 413.338 210.976 413.91 210.316C414.482 209.641 414.768 208.732 414.768 207.588C414.768 206.444 414.482 205.542 413.91 204.882C413.338 204.222 412.604 203.892 411.71 203.892C410.844 203.892 410.148 204.229 409.62 204.904C409.092 205.579 408.828 206.473 408.828 207.588C408.828 208.717 409.084 209.619 409.598 210.294C410.126 210.969 410.83 211.306 411.71 211.306Z" fill="#1B1B1F"/>
<path d="M183.857 228.848C183.932 228.709 184.06 228.64 184.241 228.64H184.785C184.967 228.64 185.057 228.709 185.057 228.848C185.057 228.912 185.036 228.971 184.993 229.024L181.201 235.12V239.68C181.201 239.893 181.095 240 180.881 240H180.385C180.172 240 180.065 239.893 180.065 239.68V235.104L176.305 229.024C176.263 228.971 176.241 228.912 176.241 228.848C176.241 228.709 176.332 228.64 176.513 228.64H177.073C177.255 228.64 177.383 228.709 177.457 228.848L180.657 234.112L183.857 228.848ZM188.362 240.208C187.626 240.208 186.97 240.032 186.394 239.68C185.818 239.328 185.37 238.843 185.05 238.224C184.73 237.595 184.57 236.875 184.57 236.064C184.57 235.253 184.73 234.539 185.05 233.92C185.37 233.291 185.818 232.8 186.394 232.448C186.97 232.096 187.626 231.92 188.362 231.92C189.098 231.92 189.754 232.096 190.33 232.448C190.906 232.8 191.354 233.291 191.674 233.92C191.994 234.539 192.154 235.253 192.154 236.064C192.154 236.875 191.994 237.595 191.674 238.224C191.354 238.843 190.906 239.328 190.33 239.68C189.754 240.032 189.098 240.208 188.362 240.208ZM188.362 239.328C189.183 239.328 189.839 239.029 190.33 238.432C190.821 237.824 191.066 237.035 191.066 236.064C191.066 235.093 190.821 234.309 190.33 233.712C189.839 233.104 189.183 232.8 188.362 232.8C187.541 232.8 186.885 233.104 186.394 233.712C185.903 234.309 185.658 235.093 185.658 236.064C185.658 237.035 185.903 237.824 186.394 238.432C186.885 239.029 187.541 239.328 188.362 239.328ZM199.109 232.432C199.109 232.219 199.215 232.112 199.429 232.112H199.845C200.058 232.112 200.165 232.219 200.165 232.432V239.68C200.165 239.893 200.058 240 199.845 240H199.509C199.295 240 199.189 239.893 199.189 239.68V238.96C198.954 239.376 198.618 239.691 198.181 239.904C197.754 240.107 197.285 240.208 196.773 240.208C195.813 240.208 195.103 239.968 194.645 239.488C194.186 238.997 193.957 238.368 193.957 237.6V232.432C193.957 232.219 194.063 232.112 194.277 232.112H194.693C194.906 232.112 195.013 232.219 195.013 232.432V237.376C195.013 238.005 195.167 238.485 195.477 238.816C195.797 239.136 196.25 239.296 196.837 239.296C197.498 239.296 198.042 239.093 198.469 238.688C198.895 238.283 199.109 237.707 199.109 236.96V232.432ZM209.423 240.208C208.666 240.208 208.004 240.037 207.439 239.696C206.884 239.344 206.452 238.859 206.143 238.24C205.844 237.611 205.695 236.885 205.695 236.064C205.695 235.253 205.844 234.533 206.143 233.904C206.452 233.275 206.884 232.789 207.439 232.448C208.004 232.096 208.655 231.92 209.391 231.92C209.988 231.92 210.511 232.021 210.959 232.224C211.407 232.416 211.839 232.736 212.255 233.184C212.319 233.248 212.351 233.317 212.351 233.392C212.351 233.488 212.308 233.568 212.223 233.632L211.999 233.84C211.935 233.904 211.86 233.936 211.775 233.936C211.7 233.936 211.62 233.893 211.535 233.808C211.162 233.435 210.804 233.173 210.463 233.024C210.132 232.875 209.764 232.8 209.359 232.8C208.804 232.8 208.33 232.955 207.935 233.264C207.551 233.573 207.263 233.979 207.071 234.48C206.879 234.971 206.783 235.499 206.783 236.064C206.783 236.629 206.879 237.163 207.071 237.664C207.263 238.155 207.556 238.555 207.951 238.864C208.346 239.163 208.831 239.312 209.407 239.312C209.834 239.312 210.207 239.237 210.527 239.088C210.858 238.928 211.226 238.629 211.631 238.192C211.716 238.107 211.796 238.064 211.871 238.064C211.956 238.064 212.031 238.096 212.095 238.16L212.319 238.336C212.394 238.4 212.431 238.475 212.431 238.56C212.431 238.645 212.383 238.747 212.287 238.864C211.839 239.355 211.391 239.701 210.943 239.904C210.495 240.107 209.988 240.208 209.423 240.208ZM217.326 231.92C218.296 231.92 219.054 232.155 219.598 232.624C220.142 233.083 220.414 233.691 220.414 234.448V239.68C220.414 239.893 220.307 240 220.094 240H219.774C219.56 240 219.454 239.893 219.454 239.68V238.96C219.187 239.387 218.808 239.707 218.318 239.92C217.838 240.133 217.299 240.24 216.702 240.24C215.87 240.24 215.192 240.064 214.67 239.712C214.147 239.36 213.886 238.816 213.886 238.08C213.886 237.493 214.051 237.024 214.382 236.672C214.712 236.309 215.144 236.037 215.678 235.856C216.211 235.664 216.878 235.493 217.678 235.344L219.406 235.04V234.528C219.406 233.984 219.219 233.563 218.846 233.264C218.472 232.955 217.982 232.8 217.374 232.8C216.915 232.8 216.499 232.885 216.126 233.056C215.752 233.227 215.352 233.52 214.926 233.936C214.851 234.011 214.771 234.048 214.686 234.048C214.611 234.048 214.542 234.016 214.478 233.952L214.27 233.76C214.195 233.685 214.158 233.605 214.158 233.52C214.158 233.424 214.195 233.339 214.27 233.264C214.718 232.795 215.187 232.453 215.678 232.24C216.179 232.027 216.728 231.92 217.326 231.92ZM216.75 239.36C217.518 239.36 218.152 239.157 218.654 238.752C219.155 238.347 219.406 237.829 219.406 237.2V235.856L217.918 236.144C217.224 236.283 216.675 236.416 216.27 236.544C215.864 236.672 215.539 236.859 215.294 237.104C215.048 237.349 214.926 237.669 214.926 238.064C214.926 238.469 215.086 238.789 215.406 239.024C215.736 239.248 216.184 239.36 216.75 239.36ZM226.274 231.92C227.202 231.92 227.901 232.176 228.37 232.688C228.85 233.2 229.09 233.84 229.09 234.608V239.68C229.09 239.893 228.984 240 228.77 240H228.354C228.141 240 228.034 239.893 228.034 239.68V234.96C228.034 234.256 227.864 233.723 227.522 233.36C227.181 232.997 226.69 232.816 226.05 232.816C225.645 232.816 225.272 232.917 224.93 233.12C224.589 233.312 224.317 233.579 224.114 233.92C223.912 234.261 223.81 234.635 223.81 235.04V239.68C223.81 239.893 223.704 240 223.49 240H223.074C222.861 240 222.754 239.893 222.754 239.68V232.432C222.754 232.219 222.861 232.112 223.074 232.112H223.426C223.64 232.112 223.746 232.219 223.746 232.432V233.2C224.013 232.773 224.365 232.453 224.802 232.24C225.24 232.027 225.73 231.92 226.274 231.92ZM238.122 229.328C237.642 229.328 237.3 229.456 237.098 229.712C236.895 229.957 236.794 230.373 236.794 230.96V232.112H238.554C238.767 232.112 238.874 232.219 238.874 232.432V232.592C238.874 232.805 238.767 232.912 238.554 232.912H236.794V239.68C236.794 239.893 236.687 240 236.474 240H236.058C235.844 240 235.738 239.893 235.738 239.68V232.912H234.554C234.34 232.912 234.234 232.805 234.234 232.592V232.432C234.234 232.219 234.34 232.112 234.554 232.112H235.738V230.784C235.738 230.048 235.93 229.472 236.314 229.056C236.708 228.64 237.268 228.432 237.994 228.432C238.399 228.432 238.815 228.491 239.242 228.608C239.444 228.672 239.519 228.805 239.466 229.008L239.402 229.232C239.348 229.381 239.242 229.456 239.082 229.456C239.05 229.456 238.98 229.445 238.874 229.424C238.639 229.36 238.388 229.328 238.122 229.328ZM240.954 230.112C240.741 230.112 240.56 230.037 240.41 229.888C240.272 229.739 240.202 229.557 240.202 229.344C240.202 229.131 240.272 228.955 240.41 228.816C240.56 228.677 240.741 228.608 240.954 228.608C241.178 228.608 241.36 228.677 241.498 228.816C241.648 228.955 241.722 229.131 241.722 229.344C241.722 229.557 241.648 229.739 241.498 229.888C241.36 230.037 241.178 230.112 240.954 230.112ZM240.746 240C240.533 240 240.426 239.893 240.426 239.68V232.432C240.426 232.219 240.533 232.112 240.746 232.112H241.162C241.376 232.112 241.482 232.219 241.482 232.432V239.68C241.482 239.893 241.376 240 241.162 240H240.746ZM247.352 231.92C248.28 231.92 248.979 232.176 249.448 232.688C249.928 233.2 250.168 233.84 250.168 234.608V239.68C250.168 239.893 250.062 240 249.848 240H249.432C249.219 240 249.112 239.893 249.112 239.68V234.96C249.112 234.256 248.942 233.723 248.6 233.36C248.259 232.997 247.768 232.816 247.128 232.816C246.723 232.816 246.35 232.917 246.008 233.12C245.667 233.312 245.395 233.579 245.192 233.92C244.99 234.261 244.888 234.635 244.888 235.04V239.68C244.888 239.893 244.782 240 244.568 240H244.152C243.939 240 243.832 239.893 243.832 239.68V232.432C243.832 232.219 243.939 232.112 244.152 232.112H244.504C244.718 232.112 244.824 232.219 244.824 232.432V233.2C245.091 232.773 245.443 232.453 245.88 232.24C246.318 232.027 246.808 231.92 247.352 231.92ZM258.2 228.96C258.2 228.747 258.307 228.64 258.52 228.64H258.936C259.15 228.64 259.256 228.747 259.256 228.96V239.68C259.256 239.893 259.15 240 258.936 240H258.6C258.387 240 258.28 239.893 258.28 239.68V238.64C257.992 239.141 257.614 239.525 257.144 239.792C256.675 240.059 256.12 240.192 255.48 240.192C254.808 240.192 254.211 240.021 253.688 239.68C253.166 239.328 252.755 238.843 252.456 238.224C252.158 237.595 252.008 236.875 252.008 236.064C252.008 235.253 252.158 234.539 252.456 233.92C252.766 233.291 253.187 232.805 253.72 232.464C254.254 232.112 254.851 231.936 255.512 231.936C256.728 231.936 257.624 232.389 258.2 233.296V228.96ZM255.56 239.296C256.36 239.296 257.006 239.013 257.496 238.448C257.998 237.872 258.248 237.077 258.248 236.064C258.248 235.061 257.998 234.272 257.496 233.696C257.006 233.12 256.36 232.832 255.56 232.832C254.824 232.832 254.227 233.131 253.768 233.728C253.32 234.325 253.096 235.104 253.096 236.064C253.096 237.035 253.32 237.819 253.768 238.416C254.216 239.003 254.814 239.296 255.56 239.296ZM271.061 238.128C271.135 238.053 271.215 238.016 271.301 238.016C271.375 238.016 271.445 238.048 271.509 238.112L271.717 238.304C271.791 238.379 271.829 238.459 271.829 238.544C271.829 238.608 271.797 238.683 271.733 238.768C271.21 239.291 270.703 239.664 270.213 239.888C269.722 240.101 269.173 240.208 268.565 240.208C267.797 240.208 267.13 240.037 266.565 239.696C265.999 239.355 265.562 238.88 265.253 238.272C264.943 237.653 264.789 236.939 264.789 236.128C264.789 235.307 264.938 234.581 265.237 233.952C265.546 233.312 265.978 232.816 266.533 232.464C267.087 232.101 267.727 231.92 268.453 231.92C269.53 231.92 270.378 232.256 270.997 232.928C271.615 233.6 271.925 234.507 271.925 235.648V235.84C271.914 235.936 271.877 236.011 271.813 236.064C271.759 236.117 271.685 236.144 271.589 236.144H265.861C265.893 237.04 266.127 237.797 266.565 238.416C267.013 239.024 267.679 239.328 268.565 239.328C269.045 239.328 269.466 239.243 269.829 239.072C270.202 238.891 270.613 238.576 271.061 238.128ZM268.453 232.8C267.749 232.8 267.167 233.019 266.709 233.456C266.261 233.883 265.989 234.512 265.893 235.344H270.869C270.847 234.565 270.623 233.947 270.197 233.488C269.77 233.029 269.189 232.8 268.453 232.8ZM278.65 232.368C278.714 232.197 278.836 232.112 279.018 232.112H279.434C279.519 232.112 279.588 232.133 279.642 232.176C279.695 232.219 279.722 232.277 279.722 232.352L279.69 232.48L277.146 239.744C277.082 239.915 276.959 240 276.778 240H275.93C275.748 240 275.626 239.915 275.562 239.744L273.034 232.48L273.002 232.352C273.002 232.277 273.028 232.219 273.082 232.176C273.135 232.133 273.204 232.112 273.29 232.112H273.722C273.903 232.112 274.026 232.197 274.09 232.368L275.066 235.184C275.471 236.357 275.903 237.707 276.362 239.232C276.383 239.168 276.442 238.987 276.538 238.688C276.975 237.248 277.354 236.08 277.674 235.184L278.65 232.368ZM286.936 238.128C287.01 238.053 287.09 238.016 287.176 238.016C287.25 238.016 287.32 238.048 287.384 238.112L287.592 238.304C287.666 238.379 287.704 238.459 287.704 238.544C287.704 238.608 287.672 238.683 287.608 238.768C287.085 239.291 286.578 239.664 286.088 239.888C285.597 240.101 285.048 240.208 284.44 240.208C283.672 240.208 283.005 240.037 282.44 239.696C281.874 239.355 281.437 238.88 281.128 238.272C280.818 237.653 280.664 236.939 280.664 236.128C280.664 235.307 280.813 234.581 281.112 233.952C281.421 233.312 281.853 232.816 282.408 232.464C282.962 232.101 283.602 231.92 284.328 231.92C285.405 231.92 286.253 232.256 286.872 232.928C287.49 233.6 287.8 234.507 287.8 235.648V235.84C287.789 235.936 287.752 236.011 287.688 236.064C287.634 236.117 287.56 236.144 287.464 236.144H281.736C281.768 237.04 282.002 237.797 282.44 238.416C282.888 239.024 283.554 239.328 284.44 239.328C284.92 239.328 285.341 239.243 285.704 239.072C286.077 238.891 286.488 238.576 286.936 238.128ZM284.328 232.8C283.624 232.8 283.042 233.019 282.584 233.456C282.136 233.883 281.864 234.512 281.768 235.344H286.744C286.722 234.565 286.498 233.947 286.072 233.488C285.645 233.029 285.064 232.8 284.328 232.8ZM292.636 232.048C292.902 232.048 293.217 232.091 293.58 232.176C293.772 232.24 293.846 232.373 293.804 232.576L293.74 232.832C293.686 233.035 293.553 233.109 293.34 233.056C293.084 232.992 292.849 232.96 292.636 232.96C292.092 232.96 291.638 233.195 291.276 233.664C290.924 234.133 290.748 234.784 290.748 235.616V239.68C290.748 239.893 290.641 240 290.428 240H290.012C289.798 240 289.692 239.893 289.692 239.68V232.432C289.692 232.219 289.798 232.112 290.012 232.112H290.364C290.577 232.112 290.684 232.219 290.684 232.432V233.312C290.865 232.917 291.121 232.608 291.452 232.384C291.793 232.16 292.188 232.048 292.636 232.048ZM300.416 232.368C300.48 232.197 300.603 232.112 300.784 232.112H301.216C301.301 232.112 301.371 232.133 301.424 232.176C301.477 232.219 301.504 232.277 301.504 232.352L301.472 232.48L298.384 241.2C298.213 241.68 298.048 242.053 297.888 242.32C297.728 242.587 297.509 242.789 297.232 242.928C296.965 243.067 296.613 243.136 296.176 243.136C295.899 243.136 295.653 243.115 295.44 243.072C295.333 243.061 295.259 243.019 295.216 242.944C295.184 242.869 295.179 242.784 295.2 242.688L295.248 242.48C295.291 242.288 295.413 242.203 295.616 242.224C295.808 242.256 295.973 242.272 296.112 242.272C296.453 242.272 296.72 242.176 296.912 241.984C297.115 241.792 297.307 241.429 297.488 240.896L297.632 240.448L294.816 232.48L294.784 232.352C294.784 232.277 294.811 232.219 294.864 232.176C294.917 232.133 294.987 232.112 295.072 232.112H295.536C295.707 232.112 295.824 232.197 295.888 232.368L296.784 235.008C296.869 235.275 297.083 235.909 297.424 236.912L298.144 239.072C298.496 238.08 298.96 236.715 299.536 234.976L300.416 232.368ZM306.994 239.12C307.026 239.109 307.068 239.104 307.122 239.104C307.186 239.104 307.244 239.125 307.298 239.168C307.351 239.211 307.383 239.269 307.394 239.344L307.442 239.568C307.452 239.589 307.458 239.627 307.458 239.68C307.458 239.829 307.378 239.92 307.218 239.952C306.834 240.069 306.423 240.128 305.986 240.128C305.292 240.128 304.796 239.973 304.498 239.664C304.21 239.344 304.066 238.885 304.066 238.288V232.912H302.882C302.668 232.912 302.562 232.805 302.562 232.592V232.432C302.562 232.219 302.668 232.112 302.882 232.112H304.066V229.68C304.066 229.467 304.172 229.36 304.386 229.36H304.802C305.015 229.36 305.122 229.467 305.122 229.68V232.112H307.042C307.255 232.112 307.362 232.219 307.362 232.432V232.592C307.362 232.805 307.255 232.912 307.042 232.912H305.122V238.16C305.122 238.555 305.196 238.832 305.346 238.992C305.495 239.152 305.751 239.232 306.114 239.232C306.37 239.232 306.663 239.195 306.994 239.12ZM312.493 231.92C313.41 231.92 314.109 232.181 314.589 232.704C315.069 233.216 315.309 233.851 315.309 234.608V239.68C315.309 239.893 315.202 240 314.989 240H314.573C314.36 240 314.253 239.893 314.253 239.68V234.96C314.253 234.256 314.082 233.723 313.741 233.36C313.4 232.997 312.909 232.816 312.269 232.816C311.864 232.816 311.49 232.917 311.149 233.12C310.808 233.312 310.536 233.579 310.333 233.92C310.13 234.261 310.029 234.635 310.029 235.04V239.68C310.029 239.893 309.922 240 309.709 240H309.293C309.08 240 308.973 239.893 308.973 239.68V228.96C308.973 228.747 309.08 228.64 309.293 228.64H309.709C309.922 228.64 310.029 228.747 310.029 228.96V233.136C310.285 232.731 310.626 232.427 311.053 232.224C311.49 232.021 311.97 231.92 312.493 231.92ZM318.173 230.112C317.96 230.112 317.778 230.037 317.629 229.888C317.49 229.739 317.421 229.557 317.421 229.344C317.421 229.131 317.49 228.955 317.629 228.816C317.778 228.677 317.96 228.608 318.173 228.608C318.397 228.608 318.578 228.677 318.717 228.816C318.866 228.955 318.941 229.131 318.941 229.344C318.941 229.557 318.866 229.739 318.717 229.888C318.578 230.037 318.397 230.112 318.173 230.112ZM317.965 240C317.752 240 317.645 239.893 317.645 239.68V232.432C317.645 232.219 317.752 232.112 317.965 232.112H318.381C318.594 232.112 318.701 232.219 318.701 232.432V239.68C318.701 239.893 318.594 240 318.381 240H317.965ZM324.571 231.92C325.499 231.92 326.198 232.176 326.667 232.688C327.147 233.2 327.387 233.84 327.387 234.608V239.68C327.387 239.893 327.281 240 327.067 240H326.651C326.438 240 326.331 239.893 326.331 239.68V234.96C326.331 234.256 326.161 233.723 325.819 233.36C325.478 232.997 324.987 232.816 324.347 232.816C323.942 232.816 323.569 232.917 323.227 233.12C322.886 233.312 322.614 233.579 322.411 233.92C322.209 234.261 322.107 234.635 322.107 235.04V239.68C322.107 239.893 322.001 240 321.787 240H321.371C321.158 240 321.051 239.893 321.051 239.68V232.432C321.051 232.219 321.158 232.112 321.371 232.112H321.723C321.937 232.112 322.043 232.219 322.043 232.432V233.2C322.31 232.773 322.662 232.453 323.099 232.24C323.537 232.027 324.027 231.92 324.571 231.92ZM335.387 232.432C335.387 232.219 335.494 232.112 335.707 232.112H336.043C336.256 232.112 336.363 232.219 336.363 232.432V239.92C336.363 240.912 336.064 241.691 335.467 242.256C334.87 242.832 334.032 243.12 332.955 243.12C331.792 243.12 330.72 242.789 329.739 242.128C329.632 242.064 329.579 241.984 329.579 241.888C329.579 241.813 329.6 241.749 329.643 241.696L329.835 241.424C329.899 241.317 329.984 241.264 330.091 241.264C330.134 241.264 330.198 241.285 330.283 241.328C330.752 241.627 331.19 241.851 331.595 242C332.011 242.149 332.464 242.224 332.955 242.224C333.659 242.224 334.23 242.027 334.667 241.632C335.104 241.248 335.323 240.651 335.323 239.84V238.56C334.747 239.488 333.872 239.952 332.699 239.952C332.016 239.952 331.414 239.781 330.891 239.44C330.368 239.088 329.963 238.608 329.675 238C329.398 237.392 329.259 236.704 329.259 235.936C329.259 235.168 329.398 234.48 329.675 233.872C329.963 233.264 330.368 232.789 330.891 232.448C331.414 232.096 332.016 231.92 332.699 231.92C333.318 231.92 333.851 232.053 334.299 232.32C334.758 232.576 335.12 232.944 335.387 233.424V232.432ZM332.811 239.056C333.579 239.056 334.192 238.768 334.651 238.192C335.11 237.605 335.339 236.853 335.339 235.936C335.339 235.019 335.11 234.272 334.651 233.696C334.192 233.109 333.579 232.816 332.811 232.816C332.032 232.816 331.424 233.104 330.987 233.68C330.56 234.256 330.347 235.008 330.347 235.936C330.347 236.864 330.56 237.616 330.987 238.192C331.424 238.768 332.032 239.056 332.811 239.056ZM342.954 230.112C342.741 230.112 342.56 230.037 342.41 229.888C342.272 229.739 342.202 229.557 342.202 229.344C342.202 229.131 342.272 228.955 342.41 228.816C342.56 228.677 342.741 228.608 342.954 228.608C343.178 228.608 343.36 228.677 343.498 228.816C343.648 228.955 343.722 229.131 343.722 229.344C343.722 229.557 343.648 229.739 343.498 229.888C343.36 230.037 343.178 230.112 342.954 230.112ZM342.746 240C342.533 240 342.426 239.893 342.426 239.68V232.432C342.426 232.219 342.533 232.112 342.746 232.112H343.162C343.376 232.112 343.482 232.219 343.482 232.432V239.68C343.482 239.893 343.376 240 343.162 240H342.746ZM349.352 231.92C350.28 231.92 350.979 232.176 351.448 232.688C351.928 233.2 352.168 233.84 352.168 234.608V239.68C352.168 239.893 352.062 240 351.848 240H351.432C351.219 240 351.112 239.893 351.112 239.68V234.96C351.112 234.256 350.942 233.723 350.6 233.36C350.259 232.997 349.768 232.816 349.128 232.816C348.723 232.816 348.35 232.917 348.008 233.12C347.667 233.312 347.395 233.579 347.192 233.92C346.99 234.261 346.888 234.635 346.888 235.04V239.68C346.888 239.893 346.782 240 346.568 240H346.152C345.939 240 345.832 239.893 345.832 239.68V232.432C345.832 232.219 345.939 232.112 346.152 232.112H346.504C346.718 232.112 346.824 232.219 346.824 232.432V233.2C347.091 232.773 347.443 232.453 347.88 232.24C348.318 232.027 348.808 231.92 349.352 231.92ZM362.192 242.528C361.573 242.528 361.045 242.437 360.608 242.256C360.181 242.085 359.856 241.824 359.632 241.472C359.408 241.12 359.296 240.688 359.296 240.176V237.632C359.296 237.227 359.226 236.901 359.088 236.656C358.96 236.4 358.757 236.219 358.48 236.112C358.213 235.995 357.866 235.936 357.44 235.936V235.168C357.866 235.157 358.213 235.099 358.48 234.992C358.757 234.885 358.96 234.709 359.088 234.464C359.226 234.208 359.296 233.877 359.296 233.472V230.912C359.296 230.528 359.36 230.192 359.488 229.904C359.626 229.605 359.818 229.36 360.064 229.168C360.32 228.976 360.624 228.832 360.976 228.736C361.328 228.629 361.733 228.576 362.192 228.576V229.344C361.754 229.355 361.386 229.419 361.088 229.536C360.8 229.653 360.581 229.835 360.432 230.08C360.282 230.315 360.208 230.629 360.208 231.024V233.536C360.208 234.08 360.085 234.523 359.84 234.864C359.605 235.205 359.226 235.424 358.704 235.52V235.568C359.237 235.664 359.621 235.883 359.856 236.224C360.09 236.565 360.208 237.008 360.208 237.552V240.112C360.208 240.485 360.277 240.795 360.416 241.04C360.565 241.285 360.784 241.461 361.072 241.568C361.37 241.685 361.744 241.749 362.192 241.76V242.528ZM370.454 233.984C371.116 234.187 371.638 234.528 372.022 235.008C372.417 235.488 372.614 236.091 372.614 236.816C372.614 237.787 372.3 238.56 371.67 239.136C371.041 239.712 370.198 240 369.142 240H364.438C364.225 240 364.118 239.893 364.118 239.68V228.96C364.118 228.747 364.225 228.64 364.438 228.64H368.95C369.932 228.64 370.721 228.885 371.318 229.376C371.916 229.867 372.214 230.576 372.214 231.504C372.214 232.123 372.054 232.645 371.734 233.072C371.425 233.499 370.998 233.803 370.454 233.984ZM365.254 233.568H368.758C369.494 233.568 370.07 233.392 370.486 233.04C370.902 232.677 371.11 232.171 371.11 231.52C371.11 230.901 370.902 230.427 370.486 230.096C370.081 229.755 369.505 229.584 368.758 229.584H365.254V233.568ZM368.838 239.056C369.702 239.056 370.358 238.853 370.806 238.448C371.265 238.043 371.494 237.493 371.494 236.8C371.494 236.096 371.26 235.536 370.79 235.12C370.332 234.704 369.686 234.496 368.854 234.496H365.254V239.056H368.838ZM377.433 232.048C377.699 232.048 378.014 232.091 378.377 232.176C378.569 232.24 378.643 232.373 378.601 232.576L378.537 232.832C378.483 233.035 378.35 233.109 378.137 233.056C377.881 232.992 377.646 232.96 377.433 232.96C376.889 232.96 376.435 233.195 376.073 233.664C375.721 234.133 375.545 234.784 375.545 235.616V239.68C375.545 239.893 375.438 240 375.225 240H374.809C374.595 240 374.489 239.893 374.489 239.68V232.432C374.489 232.219 374.595 232.112 374.809 232.112H375.161C375.374 232.112 375.481 232.219 375.481 232.432V233.312C375.662 232.917 375.918 232.608 376.249 232.384C376.59 232.16 376.985 232.048 377.433 232.048ZM382.872 231.92C383.843 231.92 384.6 232.155 385.144 232.624C385.688 233.083 385.96 233.691 385.96 234.448V239.68C385.96 239.893 385.854 240 385.64 240H385.32C385.107 240 385 239.893 385 239.68V238.96C384.734 239.387 384.355 239.707 383.864 239.92C383.384 240.133 382.846 240.24 382.248 240.24C381.416 240.24 380.739 240.064 380.216 239.712C379.694 239.36 379.432 238.816 379.432 238.08C379.432 237.493 379.598 237.024 379.928 236.672C380.259 236.309 380.691 236.037 381.224 235.856C381.758 235.664 382.424 235.493 383.224 235.344L384.952 235.04V234.528C384.952 233.984 384.766 233.563 384.392 233.264C384.019 232.955 383.528 232.8 382.92 232.8C382.462 232.8 382.046 232.885 381.672 233.056C381.299 233.227 380.899 233.52 380.472 233.936C380.398 234.011 380.318 234.048 380.232 234.048C380.158 234.048 380.088 234.016 380.024 233.952L379.816 233.76C379.742 233.685 379.704 233.605 379.704 233.52C379.704 233.424 379.742 233.339 379.816 233.264C380.264 232.795 380.734 232.453 381.224 232.24C381.726 232.027 382.275 231.92 382.872 231.92ZM382.296 239.36C383.064 239.36 383.699 239.157 384.2 238.752C384.702 238.347 384.952 237.829 384.952 237.2V235.856L383.464 236.144C382.771 236.283 382.222 236.416 381.816 236.544C381.411 236.672 381.086 236.859 380.84 237.104C380.595 237.349 380.472 237.669 380.472 238.064C380.472 238.469 380.632 238.789 380.952 239.024C381.283 239.248 381.731 239.36 382.296 239.36ZM391.821 231.92C392.749 231.92 393.448 232.176 393.917 232.688C394.397 233.2 394.637 233.84 394.637 234.608V239.68C394.637 239.893 394.531 240 394.317 240H393.901C393.688 240 393.581 239.893 393.581 239.68V234.96C393.581 234.256 393.411 233.723 393.069 233.36C392.728 232.997 392.237 232.816 391.597 232.816C391.192 232.816 390.819 232.917 390.477 233.12C390.136 233.312 389.864 233.579 389.661 233.92C389.459 234.261 389.357 234.635 389.357 235.04V239.68C389.357 239.893 389.251 240 389.037 240H388.621C388.408 240 388.301 239.893 388.301 239.68V232.432C388.301 232.219 388.408 232.112 388.621 232.112H388.973C389.187 232.112 389.293 232.219 389.293 232.432V233.2C389.56 232.773 389.912 232.453 390.349 232.24C390.787 232.027 391.277 231.92 391.821 231.92ZM402.669 228.96C402.669 228.747 402.776 228.64 402.989 228.64H403.405C403.618 228.64 403.725 228.747 403.725 228.96V239.68C403.725 239.893 403.618 240 403.405 240H403.069C402.856 240 402.749 239.893 402.749 239.68V238.64C402.461 239.141 402.082 239.525 401.613 239.792C401.144 240.059 400.589 240.192 399.949 240.192C399.277 240.192 398.68 240.021 398.157 239.68C397.634 239.328 397.224 238.843 396.925 238.224C396.626 237.595 396.477 236.875 396.477 236.064C396.477 235.253 396.626 234.539 396.925 233.92C397.234 233.291 397.656 232.805 398.189 232.464C398.722 232.112 399.32 231.936 399.981 231.936C401.197 231.936 402.093 232.389 402.669 233.296V228.96ZM400.029 239.296C400.829 239.296 401.474 239.013 401.965 238.448C402.466 237.872 402.717 237.077 402.717 236.064C402.717 235.061 402.466 234.272 401.965 233.696C401.474 233.12 400.829 232.832 400.029 232.832C399.293 232.832 398.696 233.131 398.237 233.728C397.789 234.325 397.565 235.104 397.565 236.064C397.565 237.035 397.789 237.819 398.237 238.416C398.685 239.003 399.282 239.296 400.029 239.296ZM413.306 231.92C414.234 231.92 414.932 232.176 415.402 232.688C415.882 233.2 416.122 233.84 416.122 234.608V239.68C416.122 239.893 416.015 240 415.802 240H415.386C415.172 240 415.066 239.893 415.066 239.68V234.96C415.066 234.256 414.895 233.723 414.554 233.36C414.212 232.997 413.722 232.816 413.082 232.816C412.676 232.816 412.303 232.917 411.962 233.12C411.62 233.312 411.348 233.579 411.146 233.92C410.943 234.261 410.842 234.635 410.842 235.04V239.68C410.842 239.893 410.735 240 410.522 240H410.106C409.892 240 409.786 239.893 409.786 239.68V232.432C409.786 232.219 409.892 232.112 410.106 232.112H410.458C410.671 232.112 410.778 232.219 410.778 232.432V233.2C411.044 232.773 411.396 232.453 411.834 232.24C412.271 232.027 412.762 231.92 413.306 231.92ZM421.497 231.92C422.468 231.92 423.225 232.155 423.769 232.624C424.313 233.083 424.585 233.691 424.585 234.448V239.68C424.585 239.893 424.479 240 424.265 240H423.945C423.732 240 423.625 239.893 423.625 239.68V238.96C423.359 239.387 422.98 239.707 422.489 239.92C422.009 240.133 421.471 240.24 420.873 240.24C420.041 240.24 419.364 240.064 418.841 239.712C418.319 239.36 418.057 238.816 418.057 238.08C418.057 237.493 418.223 237.024 418.553 236.672C418.884 236.309 419.316 236.037 419.849 235.856C420.383 235.664 421.049 235.493 421.849 235.344L423.577 235.04V234.528C423.577 233.984 423.391 233.563 423.017 233.264C422.644 232.955 422.153 232.8 421.545 232.8C421.087 232.8 420.671 232.885 420.297 233.056C419.924 233.227 419.524 233.52 419.097 233.936C419.023 234.011 418.943 234.048 418.857 234.048C418.783 234.048 418.713 234.016 418.649 233.952L418.441 233.76C418.367 233.685 418.329 233.605 418.329 233.52C418.329 233.424 418.367 233.339 418.441 233.264C418.889 232.795 419.359 232.453 419.849 232.24C420.351 232.027 420.9 231.92 421.497 231.92ZM420.921 239.36C421.689 239.36 422.324 239.157 422.825 238.752C423.327 238.347 423.577 237.829 423.577 237.2V235.856L422.089 236.144C421.396 236.283 420.847 236.416 420.441 236.544C420.036 236.672 419.711 236.859 419.465 237.104C419.22 237.349 419.097 237.669 419.097 238.064C419.097 238.469 419.257 238.789 419.577 239.024C419.908 239.248 420.356 239.36 420.921 239.36ZM434.942 231.92C435.796 231.92 436.446 232.165 436.894 232.656C437.353 233.136 437.582 233.755 437.582 234.512V239.68C437.582 239.893 437.476 240 437.262 240H436.846C436.633 240 436.526 239.893 436.526 239.68V234.8C436.526 234.16 436.377 233.669 436.078 233.328C435.79 232.987 435.358 232.816 434.782 232.816C434.174 232.816 433.689 233.019 433.326 233.424C432.964 233.829 432.782 234.352 432.782 234.992V239.68C432.782 239.893 432.676 240 432.462 240H432.046C431.833 240 431.726 239.893 431.726 239.68V234.8C431.726 234.16 431.577 233.669 431.278 233.328C430.99 232.987 430.553 232.816 429.966 232.816C429.422 232.816 428.969 232.987 428.606 233.328C428.254 233.669 428.046 234.117 427.982 234.672V239.68C427.982 239.893 427.876 240 427.662 240H427.246C427.033 240 426.926 239.893 426.926 239.68V232.432C426.926 232.219 427.033 232.112 427.246 232.112H427.598C427.812 232.112 427.918 232.219 427.918 232.432V233.088C428.398 232.309 429.161 231.92 430.206 231.92C430.75 231.92 431.214 232.043 431.598 232.288C431.993 232.523 432.286 232.843 432.478 233.248C433.044 232.363 433.865 231.92 434.942 231.92ZM445.655 238.128C445.729 238.053 445.809 238.016 445.895 238.016C445.969 238.016 446.039 238.048 446.103 238.112L446.311 238.304C446.385 238.379 446.423 238.459 446.423 238.544C446.423 238.608 446.391 238.683 446.327 238.768C445.804 239.291 445.297 239.664 444.807 239.888C444.316 240.101 443.767 240.208 443.159 240.208C442.391 240.208 441.724 240.037 441.159 239.696C440.593 239.355 440.156 238.88 439.847 238.272C439.537 237.653 439.383 236.939 439.383 236.128C439.383 235.307 439.532 234.581 439.831 233.952C440.14 233.312 440.572 232.816 441.127 232.464C441.681 232.101 442.321 231.92 443.047 231.92C444.124 231.92 444.972 232.256 445.591 232.928C446.209 233.6 446.519 234.507 446.519 235.648V235.84C446.508 235.936 446.471 236.011 446.407 236.064C446.353 236.117 446.279 236.144 446.183 236.144H440.455C440.487 237.04 440.721 237.797 441.159 238.416C441.607 239.024 442.273 239.328 443.159 239.328C443.639 239.328 444.06 239.243 444.423 239.072C444.796 238.891 445.207 238.576 445.655 238.128ZM443.047 232.8C442.343 232.8 441.761 233.019 441.303 233.456C440.855 233.883 440.583 234.512 440.487 235.344H445.463C445.441 234.565 445.217 233.947 444.791 233.488C444.364 233.029 443.783 232.8 443.047 232.8ZM447.771 241.76C448.219 241.749 448.587 241.685 448.875 241.568C449.163 241.451 449.381 241.269 449.531 241.024C449.68 240.789 449.755 240.48 449.755 240.096V237.568C449.755 237.024 449.872 236.581 450.107 236.24C450.352 235.899 450.736 235.68 451.259 235.584V235.52C450.736 235.424 450.352 235.205 450.107 234.864C449.872 234.523 449.755 234.08 449.755 233.536V231.024C449.755 230.629 449.68 230.309 449.531 230.064C449.392 229.819 449.173 229.637 448.875 229.52C448.587 229.403 448.219 229.344 447.771 229.344V228.576C448.229 228.576 448.635 228.629 448.987 228.736C449.349 228.832 449.653 228.976 449.899 229.168C450.155 229.36 450.347 229.605 450.475 229.904C450.603 230.192 450.667 230.533 450.667 230.928V233.472C450.667 233.877 450.731 234.208 450.859 234.464C450.997 234.709 451.2 234.891 451.467 235.008C451.744 235.115 452.096 235.168 452.523 235.168V235.936C452.096 235.936 451.744 235.995 451.467 236.112C451.2 236.219 450.997 236.395 450.859 236.64C450.731 236.885 450.667 237.216 450.667 237.632V240.192C450.667 240.704 450.549 241.131 450.315 241.472C450.08 241.824 449.749 242.085 449.323 242.256C448.896 242.437 448.379 242.528 447.771 242.528V241.76ZM454.577 240.112C454.353 240.112 454.161 240.032 454.001 239.872C453.841 239.712 453.761 239.52 453.761 239.296C453.761 239.072 453.841 238.88 454.001 238.72C454.161 238.56 454.353 238.48 454.577 238.48C454.801 238.48 454.993 238.56 455.153 238.72C455.313 238.88 455.393 239.072 455.393 239.296C455.393 239.52 455.313 239.712 455.153 239.872C454.993 240.032 454.801 240.112 454.577 240.112ZM457.811 240.112C457.587 240.112 457.395 240.032 457.235 239.872C457.075 239.712 456.995 239.52 456.995 239.296C456.995 239.072 457.075 238.88 457.235 238.72C457.395 238.56 457.587 238.48 457.811 238.48C458.035 238.48 458.227 238.56 458.387 238.72C458.547 238.88 458.627 239.072 458.627 239.296C458.627 239.52 458.547 239.712 458.387 239.872C458.227 240.032 458.035 240.112 457.811 240.112ZM461.046 240.112C460.822 240.112 460.63 240.032 460.47 239.872C460.31 239.712 460.23 239.52 460.23 239.296C460.23 239.072 460.31 238.88 460.47 238.72C460.63 238.56 460.822 238.48 461.046 238.48C461.27 238.48 461.462 238.56 461.622 238.72C461.782 238.88 461.862 239.072 461.862 239.296C461.862 239.52 461.782 239.712 461.622 239.872C461.462 240.032 461.27 240.112 461.046 240.112ZM473.123 238.128C473.198 238.053 473.278 238.016 473.363 238.016C473.438 238.016 473.507 238.048 473.571 238.112L473.779 238.304C473.854 238.379 473.891 238.459 473.891 238.544C473.891 238.608 473.859 238.683 473.795 238.768C473.273 239.291 472.766 239.664 472.275 239.888C471.785 240.101 471.235 240.208 470.627 240.208C469.859 240.208 469.193 240.037 468.627 239.696C468.062 239.355 467.625 238.88 467.315 238.272C467.006 237.653 466.851 236.939 466.851 236.128C466.851 235.307 467.001 234.581 467.299 233.952C467.609 233.312 468.041 232.816 468.595 232.464C469.15 232.101 469.79 231.92 470.515 231.92C471.593 231.92 472.441 232.256 473.059 232.928C473.678 233.6 473.987 234.507 473.987 235.648V235.84C473.977 235.936 473.939 236.011 473.875 236.064C473.822 236.117 473.747 236.144 473.651 236.144H467.923C467.955 237.04 468.19 237.797 468.627 238.416C469.075 239.024 469.742 239.328 470.627 239.328C471.107 239.328 471.529 239.243 471.891 239.072C472.265 238.891 472.675 238.576 473.123 238.128ZM470.515 232.8C469.811 232.8 469.23 233.019 468.771 233.456C468.323 233.883 468.051 234.512 467.955 235.344H472.931C472.91 234.565 472.686 233.947 472.259 233.488C471.833 233.029 471.251 232.8 470.515 232.8ZM481.468 239.616C481.511 239.691 481.532 239.755 481.532 239.808C481.532 239.936 481.447 240 481.276 240H480.796C480.636 240 480.508 239.931 480.412 239.792L478.236 236.592L476.076 239.792C475.98 239.931 475.852 240 475.692 240H475.244C475.159 240 475.09 239.984 475.036 239.952C474.994 239.909 474.972 239.861 474.972 239.808C474.972 239.733 474.994 239.669 475.036 239.616L477.628 235.888L475.244 232.496C475.202 232.443 475.18 232.384 475.18 232.32C475.18 232.181 475.271 232.112 475.452 232.112H475.916C476.076 232.112 476.204 232.181 476.3 232.32L478.252 235.184L480.188 232.32C480.284 232.181 480.412 232.112 480.572 232.112H481.004C481.09 232.112 481.154 232.133 481.196 232.176C481.25 232.208 481.276 232.251 481.276 232.304C481.276 232.379 481.255 232.443 481.212 232.496L478.876 235.84L481.468 239.616ZM486.079 240.208C485.322 240.208 484.661 240.037 484.095 239.696C483.541 239.344 483.109 238.859 482.799 238.24C482.501 237.611 482.351 236.885 482.351 236.064C482.351 235.253 482.501 234.533 482.799 233.904C483.109 233.275 483.541 232.789 484.095 232.448C484.661 232.096 485.311 231.92 486.047 231.92C486.645 231.92 487.167 232.021 487.615 232.224C488.063 232.416 488.495 232.736 488.911 233.184C488.975 233.248 489.007 233.317 489.007 233.392C489.007 233.488 488.965 233.568 488.879 233.632L488.655 233.84C488.591 233.904 488.517 233.936 488.431 233.936C488.357 233.936 488.277 233.893 488.191 233.808C487.818 233.435 487.461 233.173 487.119 233.024C486.789 232.875 486.421 232.8 486.015 232.8C485.461 232.8 484.986 232.955 484.591 233.264C484.207 233.573 483.919 233.979 483.727 234.48C483.535 234.971 483.439 235.499 483.439 236.064C483.439 236.629 483.535 237.163 483.727 237.664C483.919 238.155 484.213 238.555 484.607 238.864C485.002 239.163 485.487 239.312 486.063 239.312C486.49 239.312 486.863 239.237 487.183 239.088C487.514 238.928 487.882 238.629 488.287 238.192C488.373 238.107 488.453 238.064 488.527 238.064C488.613 238.064 488.687 238.096 488.751 238.16L488.975 238.336C489.05 238.4 489.087 238.475 489.087 238.56C489.087 238.645 489.039 238.747 488.943 238.864C488.495 239.355 488.047 239.701 487.599 239.904C487.151 240.107 486.645 240.208 486.079 240.208ZM496.389 238.128C496.464 238.053 496.544 238.016 496.629 238.016C496.704 238.016 496.773 238.048 496.837 238.112L497.045 238.304C497.12 238.379 497.157 238.459 497.157 238.544C497.157 238.608 497.125 238.683 497.061 238.768C496.538 239.291 496.032 239.664 495.541 239.888C495.05 240.101 494.501 240.208 493.893 240.208C493.125 240.208 492.458 240.037 491.893 239.696C491.328 239.355 490.89 238.88 490.581 238.272C490.272 237.653 490.117 236.939 490.117 236.128C490.117 235.307 490.266 234.581 490.565 233.952C490.874 233.312 491.306 232.816 491.861 232.464C492.416 232.101 493.056 231.92 493.781 231.92C494.858 231.92 495.706 232.256 496.325 232.928C496.944 233.6 497.253 234.507 497.253 235.648V235.84C497.242 235.936 497.205 236.011 497.141 236.064C497.088 236.117 497.013 236.144 496.917 236.144H491.189C491.221 237.04 491.456 237.797 491.893 238.416C492.341 239.024 493.008 239.328 493.893 239.328C494.373 239.328 494.794 239.243 495.157 239.072C495.53 238.891 495.941 238.576 496.389 238.128ZM493.781 232.8C493.077 232.8 492.496 233.019 492.037 233.456C491.589 233.883 491.317 234.512 491.221 235.344H496.197C496.176 234.565 495.952 233.947 495.525 233.488C495.098 233.029 494.517 232.8 493.781 232.8ZM502.921 231.936C503.582 231.936 504.174 232.112 504.697 232.464C505.23 232.805 505.646 233.291 505.945 233.92C506.244 234.539 506.393 235.248 506.393 236.048C506.393 236.859 506.244 237.579 505.945 238.208C505.646 238.837 505.236 239.328 504.713 239.68C504.19 240.021 503.593 240.192 502.921 240.192C501.684 240.192 500.777 239.739 500.201 238.832V242.624C500.201 242.837 500.094 242.944 499.881 242.944H499.465C499.252 242.944 499.145 242.837 499.145 242.624V232.432C499.145 232.219 499.252 232.112 499.465 232.112H499.817C500.03 232.112 500.137 232.219 500.137 232.432V233.44C500.425 232.949 500.804 232.576 501.273 232.32C501.742 232.064 502.292 231.936 502.921 231.936ZM502.841 239.296C503.588 239.296 504.185 238.997 504.633 238.4C505.081 237.803 505.305 237.019 505.305 236.048C505.305 235.088 505.081 234.315 504.633 233.728C504.185 233.131 503.588 232.832 502.841 232.832C502.041 232.832 501.39 233.12 500.889 233.696C500.398 234.261 500.153 235.045 500.153 236.048C500.153 237.051 500.404 237.845 500.905 238.432C501.406 239.008 502.052 239.296 502.841 239.296ZM511.588 239.12C511.62 239.109 511.662 239.104 511.716 239.104C511.78 239.104 511.838 239.125 511.892 239.168C511.945 239.211 511.977 239.269 511.988 239.344L512.036 239.568C512.046 239.589 512.052 239.627 512.052 239.68C512.052 239.829 511.972 239.92 511.812 239.952C511.428 240.069 511.017 240.128 510.58 240.128C509.886 240.128 509.39 239.973 509.092 239.664C508.804 239.344 508.66 238.885 508.66 238.288V232.912H507.476C507.262 232.912 507.156 232.805 507.156 232.592V232.432C507.156 232.219 507.262 232.112 507.476 232.112H508.66V229.68C508.66 229.467 508.766 229.36 508.98 229.36H509.396C509.609 229.36 509.716 229.467 509.716 229.68V232.112H511.636C511.849 232.112 511.956 232.219 511.956 232.432V232.592C511.956 232.805 511.849 232.912 511.636 232.912H509.716V238.16C509.716 238.555 509.79 238.832 509.94 238.992C510.089 239.152 510.345 239.232 510.708 239.232C510.964 239.232 511.257 239.195 511.588 239.12ZM278.103 261.12C278.135 261.109 278.178 261.104 278.231 261.104C278.295 261.104 278.354 261.125 278.407 261.168C278.461 261.211 278.493 261.269 278.503 261.344L278.551 261.568C278.562 261.589 278.567 261.627 278.567 261.68C278.567 261.829 278.487 261.92 278.327 261.952C277.943 262.069 277.533 262.128 277.095 262.128C276.402 262.128 275.906 261.973 275.607 261.664C275.319 261.344 275.175 260.885 275.175 260.288V254.912H273.991C273.778 254.912 273.671 254.805 273.671 254.592V254.432C273.671 254.219 273.778 254.112 273.991 254.112H275.175V251.68C275.175 251.467 275.282 251.36 275.495 251.36H275.911C276.125 251.36 276.231 251.467 276.231 251.68V254.112H278.151C278.365 254.112 278.471 254.219 278.471 254.432V254.592C278.471 254.805 278.365 254.912 278.151 254.912H276.231V260.16C276.231 260.555 276.306 260.832 276.455 260.992C276.605 261.152 276.861 261.232 277.223 261.232C277.479 261.232 277.773 261.195 278.103 261.12ZM283.602 253.92C284.52 253.92 285.218 254.181 285.698 254.704C286.178 255.216 286.418 255.851 286.418 256.608V261.68C286.418 261.893 286.312 262 286.098 262H285.682C285.469 262 285.362 261.893 285.362 261.68V256.96C285.362 256.256 285.192 255.723 284.85 255.36C284.509 254.997 284.018 254.816 283.378 254.816C282.973 254.816 282.6 254.917 282.258 255.12C281.917 255.312 281.645 255.579 281.442 255.92C281.24 256.261 281.138 256.635 281.138 257.04V261.68C281.138 261.893 281.032 262 280.818 262H280.402C280.189 262 280.082 261.893 280.082 261.68V250.96C280.082 250.747 280.189 250.64 280.402 250.64H280.818C281.032 250.64 281.138 250.747 281.138 250.96V255.136C281.394 254.731 281.736 254.427 282.162 254.224C282.6 254.021 283.08 253.92 283.602 253.92ZM289.282 252.112C289.069 252.112 288.888 252.037 288.738 251.888C288.6 251.739 288.53 251.557 288.53 251.344C288.53 251.131 288.6 250.955 288.738 250.816C288.888 250.677 289.069 250.608 289.282 250.608C289.506 250.608 289.688 250.677 289.826 250.816C289.976 250.955 290.05 251.131 290.05 251.344C290.05 251.557 289.976 251.739 289.826 251.888C289.688 252.037 289.506 252.112 289.282 252.112ZM289.074 262C288.861 262 288.754 261.893 288.754 261.68V254.432C288.754 254.219 288.861 254.112 289.074 254.112H289.49C289.704 254.112 289.81 254.219 289.81 254.432V261.68C289.81 261.893 289.704 262 289.49 262H289.074ZM294.913 262.208C294.262 262.208 293.686 262.117 293.185 261.936C292.694 261.744 292.177 261.424 291.633 260.976C291.537 260.912 291.489 260.837 291.489 260.752C291.489 260.677 291.526 260.603 291.601 260.528L291.809 260.304C291.873 260.219 291.953 260.176 292.049 260.176C292.123 260.176 292.193 260.208 292.257 260.272C292.769 260.667 293.222 260.944 293.617 261.104C294.011 261.253 294.443 261.328 294.913 261.328C295.499 261.328 295.979 261.2 296.353 260.944C296.726 260.677 296.913 260.32 296.913 259.872C296.913 259.424 296.721 259.093 296.337 258.88C295.953 258.667 295.361 258.475 294.561 258.304C293.857 258.155 293.302 258 292.897 257.84C292.502 257.669 292.209 257.456 292.017 257.2C291.825 256.944 291.729 256.608 291.729 256.192C291.729 255.509 292.006 254.96 292.561 254.544C293.115 254.128 293.814 253.92 294.657 253.92C295.233 253.92 295.745 253.995 296.193 254.144C296.651 254.283 297.11 254.517 297.569 254.848C297.665 254.923 297.713 255.003 297.713 255.088C297.713 255.141 297.686 255.211 297.633 255.296L297.441 255.536C297.387 255.621 297.313 255.664 297.217 255.664C297.131 255.664 297.057 255.637 296.993 255.584C296.555 255.275 296.166 255.067 295.825 254.96C295.494 254.853 295.115 254.8 294.689 254.8C294.102 254.8 293.633 254.928 293.281 255.184C292.929 255.44 292.753 255.765 292.753 256.16C292.753 256.405 292.833 256.603 292.993 256.752C293.153 256.901 293.382 257.029 293.681 257.136C293.979 257.232 294.417 257.344 294.993 257.472C296.059 257.707 296.817 257.995 297.265 258.336C297.723 258.677 297.953 259.173 297.953 259.824C297.953 260.539 297.67 261.115 297.105 261.552C296.539 261.989 295.809 262.208 294.913 262.208ZM307.202 253.936C307.864 253.936 308.456 254.112 308.978 254.464C309.512 254.805 309.928 255.291 310.226 255.92C310.525 256.539 310.674 257.248 310.674 258.048C310.674 258.859 310.525 259.579 310.226 260.208C309.928 260.837 309.517 261.328 308.994 261.68C308.472 262.021 307.874 262.192 307.202 262.192C305.965 262.192 305.058 261.739 304.482 260.832V264.624C304.482 264.837 304.376 264.944 304.162 264.944H303.746C303.533 264.944 303.426 264.837 303.426 264.624V254.432C303.426 254.219 303.533 254.112 303.746 254.112H304.098C304.312 254.112 304.418 254.219 304.418 254.432V255.44C304.706 254.949 305.085 254.576 305.554 254.32C306.024 254.064 306.573 253.936 307.202 253.936ZM307.122 261.296C307.869 261.296 308.466 260.997 308.914 260.4C309.362 259.803 309.586 259.019 309.586 258.048C309.586 257.088 309.362 256.315 308.914 255.728C308.466 255.131 307.869 254.832 307.122 254.832C306.322 254.832 305.672 255.12 305.17 255.696C304.68 256.261 304.434 257.045 304.434 258.048C304.434 259.051 304.685 259.845 305.186 260.432C305.688 261.008 306.333 261.296 307.122 261.296ZM315.591 253.92C316.562 253.92 317.319 254.155 317.863 254.624C318.407 255.083 318.679 255.691 318.679 256.448V261.68C318.679 261.893 318.573 262 318.359 262H318.039C317.826 262 317.719 261.893 317.719 261.68V260.96C317.453 261.387 317.074 261.707 316.583 261.92C316.103 262.133 315.565 262.24 314.967 262.24C314.135 262.24 313.458 262.064 312.935 261.712C312.413 261.36 312.151 260.816 312.151 260.08C312.151 259.493 312.317 259.024 312.647 258.672C312.978 258.309 313.41 258.037 313.943 257.856C314.477 257.664 315.143 257.493 315.943 257.344L317.671 257.04V256.528C317.671 255.984 317.485 255.563 317.111 255.264C316.738 254.955 316.247 254.8 315.639 254.8C315.181 254.8 314.765 254.885 314.391 255.056C314.018 255.227 313.618 255.52 313.191 255.936C313.117 256.011 313.037 256.048 312.951 256.048C312.877 256.048 312.807 256.016 312.743 255.952L312.535 255.76C312.461 255.685 312.423 255.605 312.423 255.52C312.423 255.424 312.461 255.339 312.535 255.264C312.983 254.795 313.453 254.453 313.943 254.24C314.445 254.027 314.994 253.92 315.591 253.92ZM315.015 261.36C315.783 261.36 316.418 261.157 316.919 260.752C317.421 260.347 317.671 259.829 317.671 259.2V257.856L316.183 258.144C315.49 258.283 314.941 258.416 314.535 258.544C314.13 258.672 313.805 258.859 313.559 259.104C313.314 259.349 313.191 259.669 313.191 260.064C313.191 260.469 313.351 260.789 313.671 261.024C314.002 261.248 314.45 261.36 315.015 261.36ZM326.684 254.432C326.684 254.219 326.791 254.112 327.004 254.112H327.34C327.553 254.112 327.66 254.219 327.66 254.432V261.92C327.66 262.912 327.361 263.691 326.764 264.256C326.167 264.832 325.329 265.12 324.252 265.12C323.089 265.12 322.017 264.789 321.036 264.128C320.929 264.064 320.876 263.984 320.876 263.888C320.876 263.813 320.897 263.749 320.94 263.696L321.132 263.424C321.196 263.317 321.281 263.264 321.388 263.264C321.431 263.264 321.495 263.285 321.58 263.328C322.049 263.627 322.487 263.851 322.892 264C323.308 264.149 323.761 264.224 324.252 264.224C324.956 264.224 325.527 264.027 325.964 263.632C326.401 263.248 326.62 262.651 326.62 261.84V260.56C326.044 261.488 325.169 261.952 323.996 261.952C323.313 261.952 322.711 261.781 322.188 261.44C321.665 261.088 321.26 260.608 320.972 260C320.695 259.392 320.556 258.704 320.556 257.936C320.556 257.168 320.695 256.48 320.972 255.872C321.26 255.264 321.665 254.789 322.188 254.448C322.711 254.096 323.313 253.92 323.996 253.92C324.615 253.92 325.148 254.053 325.596 254.32C326.055 254.576 326.417 254.944 326.684 255.424V254.432ZM324.108 261.056C324.876 261.056 325.489 260.768 325.948 260.192C326.407 259.605 326.636 258.853 326.636 257.936C326.636 257.019 326.407 256.272 325.948 255.696C325.489 255.109 324.876 254.816 324.108 254.816C323.329 254.816 322.721 255.104 322.284 255.68C321.857 256.256 321.644 257.008 321.644 257.936C321.644 258.864 321.857 259.616 322.284 260.192C322.721 260.768 323.329 261.056 324.108 261.056ZM335.78 260.128C335.854 260.053 335.934 260.016 336.02 260.016C336.094 260.016 336.164 260.048 336.228 260.112L336.436 260.304C336.51 260.379 336.548 260.459 336.548 260.544C336.548 260.608 336.516 260.683 336.452 260.768C335.929 261.291 335.422 261.664 334.932 261.888C334.441 262.101 333.892 262.208 333.284 262.208C332.516 262.208 331.849 262.037 331.284 261.696C330.718 261.355 330.281 260.88 329.972 260.272C329.662 259.653 329.508 258.939 329.508 258.128C329.508 257.307 329.657 256.581 329.956 255.952C330.265 255.312 330.697 254.816 331.252 254.464C331.806 254.101 332.446 253.92 333.172 253.92C334.249 253.92 335.097 254.256 335.716 254.928C336.334 255.6 336.644 256.507 336.644 257.648V257.84C336.633 257.936 336.596 258.011 336.532 258.064C336.478 258.117 336.404 258.144 336.308 258.144H330.58C330.612 259.04 330.846 259.797 331.284 260.416C331.732 261.024 332.398 261.328 333.284 261.328C333.764 261.328 334.185 261.243 334.548 261.072C334.921 260.891 335.332 260.576 335.78 260.128ZM333.172 254.8C332.468 254.8 331.886 255.019 331.428 255.456C330.98 255.883 330.708 256.512 330.612 257.344H335.588C335.566 256.565 335.342 255.947 334.916 255.488C334.489 255.029 333.908 254.8 333.172 254.8ZM338.968 262.112C338.744 262.112 338.552 262.032 338.392 261.872C338.232 261.712 338.152 261.52 338.152 261.296C338.152 261.072 338.232 260.88 338.392 260.72C338.552 260.56 338.744 260.48 338.968 260.48C339.192 260.48 339.384 260.56 339.544 260.72C339.704 260.88 339.784 261.072 339.784 261.296C339.784 261.52 339.704 261.712 339.544 261.872C339.384 262.032 339.192 262.112 338.968 262.112ZM345.813 262C345.6 262 345.493 261.893 345.493 261.68V250.96C345.493 250.747 345.6 250.64 345.813 250.64H352.533C352.747 250.64 352.853 250.747 352.853 250.96V251.264C352.853 251.477 352.747 251.584 352.533 251.584H346.629V255.696H352.085C352.299 255.696 352.405 255.803 352.405 256.016V256.304C352.405 256.517 352.299 256.624 352.085 256.624H346.629V261.056H352.661C352.875 261.056 352.981 261.163 352.981 261.376V261.68C352.981 261.893 352.875 262 352.661 262H345.813ZM357.839 254.048C358.106 254.048 358.42 254.091 358.783 254.176C358.975 254.24 359.05 254.373 359.007 254.576L358.943 254.832C358.89 255.035 358.756 255.109 358.543 255.056C358.287 254.992 358.052 254.96 357.839 254.96C357.295 254.96 356.842 255.195 356.479 255.664C356.127 256.133 355.951 256.784 355.951 257.616V261.68C355.951 261.893 355.844 262 355.631 262H355.215C355.002 262 354.895 261.893 354.895 261.68V254.432C354.895 254.219 355.002 254.112 355.215 254.112H355.567C355.78 254.112 355.887 254.219 355.887 254.432V255.312C356.068 254.917 356.324 254.608 356.655 254.384C356.996 254.16 357.391 254.048 357.839 254.048ZM363.386 254.048C363.652 254.048 363.967 254.091 364.33 254.176C364.522 254.24 364.596 254.373 364.554 254.576L364.49 254.832C364.436 255.035 364.303 255.109 364.09 255.056C363.834 254.992 363.599 254.96 363.386 254.96C362.842 254.96 362.388 255.195 362.026 255.664C361.674 256.133 361.498 256.784 361.498 257.616V261.68C361.498 261.893 361.391 262 361.178 262H360.762C360.548 262 360.442 261.893 360.442 261.68V254.432C360.442 254.219 360.548 254.112 360.762 254.112H361.114C361.327 254.112 361.434 254.219 361.434 254.432V255.312C361.615 254.917 361.871 254.608 362.202 254.384C362.543 254.16 362.938 254.048 363.386 254.048ZM368.815 262.208C368.079 262.208 367.423 262.032 366.847 261.68C366.271 261.328 365.823 260.843 365.503 260.224C365.183 259.595 365.023 258.875 365.023 258.064C365.023 257.253 365.183 256.539 365.503 255.92C365.823 255.291 366.271 254.8 366.847 254.448C367.423 254.096 368.079 253.92 368.815 253.92C369.551 253.92 370.207 254.096 370.783 254.448C371.359 254.8 371.807 255.291 372.127 255.92C372.447 256.539 372.607 257.253 372.607 258.064C372.607 258.875 372.447 259.595 372.127 260.224C371.807 260.843 371.359 261.328 370.783 261.68C370.207 262.032 369.551 262.208 368.815 262.208ZM368.815 261.328C369.637 261.328 370.293 261.029 370.783 260.432C371.274 259.824 371.519 259.035 371.519 258.064C371.519 257.093 371.274 256.309 370.783 255.712C370.293 255.104 369.637 254.8 368.815 254.8C367.994 254.8 367.338 255.104 366.847 255.712C366.357 256.309 366.111 257.093 366.111 258.064C366.111 259.035 366.357 259.824 366.847 260.432C367.338 261.029 367.994 261.328 368.815 261.328ZM377.386 254.048C377.652 254.048 377.967 254.091 378.33 254.176C378.522 254.24 378.596 254.373 378.554 254.576L378.49 254.832C378.436 255.035 378.303 255.109 378.09 255.056C377.834 254.992 377.599 254.96 377.386 254.96C376.842 254.96 376.388 255.195 376.026 255.664C375.674 256.133 375.498 256.784 375.498 257.616V261.68C375.498 261.893 375.391 262 375.178 262H374.762C374.548 262 374.442 261.893 374.442 261.68V254.432C374.442 254.219 374.548 254.112 374.762 254.112H375.114C375.327 254.112 375.434 254.219 375.434 254.432V255.312C375.615 254.917 375.871 254.608 376.202 254.384C376.543 254.16 376.938 254.048 377.386 254.048ZM391.276 258.336C391.49 258.336 391.596 258.443 391.596 258.656V258.928C391.596 259.141 391.49 259.248 391.276 259.248H389.852V261.68C389.852 261.893 389.746 262 389.532 262H389.116C388.903 262 388.796 261.893 388.796 261.68V259.248H383.292C383.079 259.248 382.972 259.141 382.972 258.928V258.512C382.972 258.395 383.01 258.267 383.084 258.128L387.66 250.848C387.746 250.709 387.874 250.64 388.044 250.64H388.556C388.642 250.64 388.711 250.661 388.764 250.704C388.818 250.736 388.844 250.784 388.844 250.848C388.844 250.88 388.823 250.939 388.78 251.024L384.156 258.336H388.796V255.92C388.796 255.707 388.903 255.6 389.116 255.6H389.532C389.746 255.6 389.852 255.707 389.852 255.92V258.336H391.276ZM396.823 262.24C396.077 262.24 395.421 262.059 394.855 261.696C394.301 261.333 393.858 260.827 393.527 260.176C393.005 259.141 392.743 257.856 392.743 256.32C392.743 254.773 393.005 253.483 393.527 252.448C393.858 251.797 394.301 251.296 394.855 250.944C395.421 250.581 396.077 250.4 396.823 250.4C397.57 250.4 398.221 250.581 398.775 250.944C399.341 251.296 399.789 251.797 400.119 252.448C400.642 253.483 400.903 254.773 400.903 256.32C400.903 257.856 400.642 259.141 400.119 260.176C399.789 260.827 399.341 261.333 398.775 261.696C398.221 262.059 397.57 262.24 396.823 262.24ZM396.823 261.312C397.869 261.312 398.653 260.768 399.175 259.68C399.591 258.795 399.799 257.675 399.799 256.32C399.799 254.944 399.591 253.819 399.175 252.944C398.663 251.867 397.879 251.328 396.823 251.328C395.767 251.328 394.983 251.867 394.471 252.944C394.055 253.819 393.847 254.944 393.847 256.32C393.847 257.685 394.055 258.805 394.471 259.68C394.994 260.768 395.778 261.312 396.823 261.312ZM410.698 258.336C410.911 258.336 411.018 258.443 411.018 258.656V258.928C411.018 259.141 410.911 259.248 410.698 259.248H409.274V261.68C409.274 261.893 409.167 262 408.954 262H408.538C408.325 262 408.218 261.893 408.218 261.68V259.248H402.714C402.501 259.248 402.394 259.141 402.394 258.928V258.512C402.394 258.395 402.431 258.267 402.506 258.128L407.082 250.848C407.167 250.709 407.295 250.64 407.466 250.64H407.978C408.063 250.64 408.133 250.661 408.186 250.704C408.239 250.736 408.266 250.784 408.266 250.848C408.266 250.88 408.245 250.939 408.202 251.024L403.578 258.336H408.218V255.92C408.218 255.707 408.325 255.6 408.538 255.6H408.954C409.167 255.6 409.274 255.707 409.274 255.92V258.336H410.698ZM413.014 262.112C412.79 262.112 412.598 262.032 412.438 261.872C412.278 261.712 412.198 261.52 412.198 261.296C412.198 261.072 412.278 260.88 412.438 260.72C412.598 260.56 412.79 260.48 413.014 260.48C413.238 260.48 413.43 260.56 413.59 260.72C413.75 260.88 413.83 261.072 413.83 261.296C413.83 261.52 413.75 261.712 413.59 261.872C413.43 262.032 413.238 262.112 413.014 262.112Z" fill="#1B1B1F"/>
<rect x="269" y="292" width="150" height="48" rx="8" fill="#0063FB"/>
<path d="M291.501 316.424C291.33 316.424 291.191 316.376 291.085 316.28C290.989 316.173 290.941 316.035 290.941 315.864V315.448C290.941 315.267 290.989 315.128 291.085 315.032C291.191 314.936 291.33 314.888 291.501 314.888H295.517C295.698 314.888 295.837 314.936 295.933 315.032C296.029 315.128 296.077 315.267 296.077 315.448V320.44C296.077 320.611 296.029 320.749 295.933 320.856C295.837 320.952 295.698 321 295.517 321H295.181C294.829 321 294.637 320.824 294.605 320.472L294.541 319.752C293.858 320.744 292.727 321.24 291.149 321.24C290.018 321.24 289.047 320.989 288.237 320.488C287.426 319.987 286.807 319.288 286.381 318.392C285.954 317.496 285.741 316.467 285.741 315.304C285.741 314.173 285.965 313.16 286.413 312.264C286.861 311.368 287.506 310.669 288.349 310.168C289.191 309.656 290.189 309.4 291.341 309.4C292.205 309.4 292.978 309.539 293.661 309.816C294.343 310.083 295.015 310.52 295.677 311.128C295.815 311.256 295.885 311.389 295.885 311.528C295.885 311.667 295.821 311.8 295.693 311.928L295.309 312.312C295.17 312.451 295.037 312.52 294.909 312.52C294.77 312.52 294.637 312.456 294.509 312.328C293.954 311.848 293.437 311.507 292.957 311.304C292.477 311.091 291.933 310.984 291.325 310.984C290.589 310.984 289.938 311.16 289.373 311.512C288.818 311.864 288.381 312.365 288.061 313.016C287.751 313.667 287.597 314.435 287.597 315.32C287.597 316.216 287.746 316.989 288.045 317.64C288.343 318.291 288.765 318.792 289.309 319.144C289.863 319.485 290.514 319.656 291.261 319.656C292.21 319.656 292.967 319.4 293.533 318.888C294.109 318.365 294.397 317.656 294.397 316.76V316.424H291.501ZM301.614 321.24C300.835 321.24 300.142 321.064 299.534 320.712C298.937 320.36 298.467 319.869 298.126 319.24C297.785 318.6 297.614 317.869 297.614 317.048C297.614 316.227 297.785 315.501 298.126 314.872C298.467 314.243 298.937 313.752 299.534 313.4C300.142 313.048 300.835 312.872 301.614 312.872C302.382 312.872 303.07 313.048 303.678 313.4C304.286 313.752 304.761 314.248 305.102 314.888C305.443 315.517 305.614 316.237 305.614 317.048C305.614 317.869 305.443 318.6 305.102 319.24C304.761 319.869 304.286 320.36 303.678 320.712C303.07 321.064 302.382 321.24 301.614 321.24ZM301.614 319.816C302.297 319.816 302.846 319.565 303.262 319.064C303.678 318.552 303.886 317.88 303.886 317.048C303.886 316.227 303.678 315.565 303.262 315.064C302.846 314.563 302.297 314.312 301.614 314.312C300.931 314.312 300.382 314.563 299.966 315.064C299.55 315.565 299.342 316.227 299.342 317.048C299.342 317.88 299.55 318.552 299.966 319.064C300.382 319.565 300.931 319.816 301.614 319.816ZM314.495 319.656C314.527 319.645 314.575 319.64 314.639 319.64C314.906 319.64 315.066 319.795 315.119 320.104L315.167 320.36C315.178 320.392 315.183 320.445 315.183 320.52C315.183 320.787 315.034 320.957 314.735 321.032C314.308 321.128 313.919 321.176 313.567 321.176C312.81 321.176 312.26 321 311.919 320.648C311.588 320.296 311.423 319.768 311.423 319.064V314.408H310.543C310.372 314.408 310.234 314.36 310.127 314.264C310.031 314.157 309.983 314.019 309.983 313.848V313.672C309.983 313.491 310.031 313.352 310.127 313.256C310.234 313.16 310.372 313.112 310.543 313.112H311.423V311.128C311.423 310.947 311.471 310.808 311.567 310.712C311.674 310.616 311.812 310.568 311.983 310.568H312.559C312.74 310.568 312.879 310.616 312.975 310.712C313.071 310.808 313.119 310.947 313.119 311.128V313.112H314.559C314.74 313.112 314.879 313.16 314.975 313.256C315.071 313.352 315.119 313.491 315.119 313.672V313.848C315.119 314.019 315.071 314.157 314.975 314.264C314.879 314.36 314.74 314.408 314.559 314.408H313.119V318.856C313.119 319.165 313.183 319.384 313.311 319.512C313.45 319.64 313.668 319.704 313.967 319.704C314.095 319.704 314.271 319.688 314.495 319.656ZM319.817 321.24C319.038 321.24 318.345 321.064 317.737 320.712C317.14 320.36 316.67 319.869 316.329 319.24C315.988 318.6 315.817 317.869 315.817 317.048C315.817 316.227 315.988 315.501 316.329 314.872C316.67 314.243 317.14 313.752 317.737 313.4C318.345 313.048 319.038 312.872 319.817 312.872C320.585 312.872 321.273 313.048 321.881 313.4C322.489 313.752 322.964 314.248 323.305 314.888C323.646 315.517 323.817 316.237 323.817 317.048C323.817 317.869 323.646 318.6 323.305 319.24C322.964 319.869 322.489 320.36 321.881 320.712C321.273 321.064 320.585 321.24 319.817 321.24ZM319.817 319.816C320.5 319.816 321.049 319.565 321.465 319.064C321.881 318.552 322.089 317.88 322.089 317.048C322.089 316.227 321.881 315.565 321.465 315.064C321.049 314.563 320.5 314.312 319.817 314.312C319.134 314.312 318.585 314.563 318.169 315.064C317.753 315.565 317.545 316.227 317.545 317.048C317.545 317.88 317.753 318.552 318.169 319.064C318.585 319.565 319.134 319.816 319.817 319.816ZM332.906 312.872C333.813 312.872 334.506 313.128 334.986 313.64C335.477 314.141 335.722 314.792 335.722 315.592V320.44C335.722 320.611 335.674 320.749 335.578 320.856C335.482 320.952 335.343 321 335.162 321H334.586C334.415 321 334.277 320.952 334.17 320.856C334.074 320.749 334.026 320.611 334.026 320.44V316.12C334.026 315.544 333.882 315.101 333.594 314.792C333.317 314.483 332.917 314.328 332.394 314.328C331.882 314.328 331.45 314.504 331.098 314.856C330.757 315.208 330.586 315.651 330.586 316.184V320.44C330.586 320.611 330.538 320.749 330.442 320.856C330.346 320.952 330.207 321 330.026 321H329.45C329.279 321 329.141 320.952 329.034 320.856C328.938 320.749 328.89 320.611 328.89 320.44V310.2C328.89 310.019 328.938 309.88 329.034 309.784C329.141 309.688 329.279 309.64 329.45 309.64H330.026C330.207 309.64 330.346 309.688 330.442 309.784C330.538 309.88 330.586 310.019 330.586 310.2V313.928C330.842 313.587 331.167 313.325 331.562 313.144C331.967 312.963 332.415 312.872 332.906 312.872ZM341.223 321.24C340.445 321.24 339.751 321.064 339.143 320.712C338.546 320.36 338.077 319.869 337.735 319.24C337.394 318.6 337.223 317.869 337.223 317.048C337.223 316.227 337.394 315.501 337.735 314.872C338.077 314.243 338.546 313.752 339.143 313.4C339.751 313.048 340.445 312.872 341.223 312.872C341.991 312.872 342.679 313.048 343.287 313.4C343.895 313.752 344.37 314.248 344.711 314.888C345.053 315.517 345.223 316.237 345.223 317.048C345.223 317.869 345.053 318.6 344.711 319.24C344.37 319.869 343.895 320.36 343.287 320.712C342.679 321.064 341.991 321.24 341.223 321.24ZM341.223 319.816C341.906 319.816 342.455 319.565 342.871 319.064C343.287 318.552 343.495 317.88 343.495 317.048C343.495 316.227 343.287 315.565 342.871 315.064C342.455 314.563 341.906 314.312 341.223 314.312C340.541 314.312 339.991 314.563 339.575 315.064C339.159 315.565 338.951 316.227 338.951 317.048C338.951 317.88 339.159 318.552 339.575 319.064C339.991 319.565 340.541 319.816 341.223 319.816ZM355.182 312.872C356.025 312.872 356.676 313.112 357.134 313.592C357.593 314.061 357.822 314.696 357.822 315.496V320.44C357.822 320.611 357.774 320.749 357.678 320.856C357.582 320.952 357.444 321 357.262 321H356.686C356.516 321 356.377 320.952 356.27 320.856C356.174 320.749 356.126 320.611 356.126 320.44V316.008C356.126 315.485 356.009 315.075 355.774 314.776C355.54 314.477 355.182 314.328 354.702 314.328C354.212 314.328 353.822 314.493 353.534 314.824C353.257 315.155 353.118 315.581 353.118 316.104V320.44C353.118 320.611 353.07 320.749 352.974 320.856C352.878 320.952 352.74 321 352.558 321H351.982C351.812 321 351.673 320.952 351.566 320.856C351.47 320.749 351.422 320.611 351.422 320.44V316.008C351.422 315.485 351.305 315.075 351.07 314.776C350.846 314.477 350.494 314.328 350.014 314.328C349.545 314.328 349.166 314.483 348.878 314.792C348.59 315.101 348.436 315.501 348.414 315.992V320.44C348.414 320.611 348.366 320.749 348.27 320.856C348.174 320.952 348.036 321 347.854 321H347.278C347.108 321 346.969 320.952 346.862 320.856C346.766 320.749 346.718 320.611 346.718 320.44V313.672C346.718 313.491 346.766 313.352 346.862 313.256C346.969 313.16 347.108 313.112 347.278 313.112H347.742C347.924 313.112 348.062 313.16 348.158 313.256C348.254 313.352 348.302 313.491 348.302 313.672V314.024C348.793 313.256 349.55 312.872 350.574 312.872C351.086 312.872 351.534 312.979 351.918 313.192C352.302 313.405 352.596 313.704 352.798 314.088C353.342 313.277 354.137 312.872 355.182 312.872ZM365.413 318.984C365.552 318.867 365.685 318.808 365.813 318.808C365.941 318.808 366.074 318.877 366.213 319.016L366.437 319.256C366.554 319.395 366.613 319.528 366.613 319.656C366.613 319.795 366.544 319.928 366.405 320.056C365.914 320.483 365.424 320.787 364.933 320.968C364.453 321.149 363.92 321.24 363.333 321.24C362.512 321.24 361.797 321.069 361.189 320.728C360.592 320.387 360.128 319.907 359.797 319.288C359.477 318.659 359.317 317.933 359.317 317.112C359.317 316.301 359.472 315.576 359.781 314.936C360.101 314.285 360.549 313.779 361.125 313.416C361.712 313.053 362.394 312.872 363.173 312.872C364.336 312.872 365.232 313.219 365.861 313.912C366.49 314.595 366.805 315.539 366.805 316.744V316.888C366.794 317.059 366.741 317.192 366.645 317.288C366.549 317.384 366.41 317.432 366.229 317.432H360.981C361.045 318.136 361.274 318.712 361.669 319.16C362.074 319.597 362.64 319.816 363.365 319.816C363.76 319.816 364.106 319.757 364.405 319.64C364.704 319.512 365.04 319.293 365.413 318.984ZM363.141 314.216C362.554 314.216 362.08 314.392 361.717 314.744C361.365 315.085 361.136 315.571 361.029 316.2H365.141C365.098 315.581 364.906 315.096 364.565 314.744C364.224 314.392 363.749 314.216 363.141 314.216ZM372.551 312.904C373.223 312.904 373.82 313.075 374.343 313.416C374.876 313.757 375.292 314.243 375.591 314.872C375.889 315.501 376.039 316.227 376.039 317.048C376.039 317.88 375.889 318.611 375.591 319.24C375.292 319.869 374.876 320.355 374.343 320.696C373.809 321.037 373.212 321.208 372.551 321.208C371.441 321.208 370.609 320.824 370.055 320.056V323.272C370.055 323.453 370.007 323.592 369.911 323.688C369.815 323.784 369.676 323.832 369.495 323.832H368.919C368.748 323.832 368.609 323.784 368.503 323.688C368.407 323.592 368.359 323.453 368.359 323.272V313.672C368.359 313.491 368.407 313.352 368.503 313.256C368.609 313.16 368.748 313.112 368.919 313.112H369.383C369.564 313.112 369.703 313.16 369.799 313.256C369.895 313.352 369.943 313.491 369.943 313.672V314.264C370.508 313.357 371.377 312.904 372.551 312.904ZM372.199 319.736C372.839 319.736 373.351 319.496 373.735 319.016C374.119 318.525 374.311 317.869 374.311 317.048C374.311 316.237 374.119 315.587 373.735 315.096C373.361 314.605 372.855 314.36 372.215 314.36C371.564 314.36 371.031 314.6 370.615 315.08C370.199 315.56 369.991 316.216 369.991 317.048C369.991 317.88 370.199 318.536 370.615 319.016C371.031 319.496 371.559 319.736 372.199 319.736ZM380.906 312.872C381.972 312.872 382.794 313.123 383.37 313.624C383.946 314.115 384.234 314.771 384.234 315.592V320.44C384.234 320.611 384.186 320.749 384.09 320.856C383.994 320.952 383.855 321 383.674 321H383.258C383.087 321 382.948 320.952 382.842 320.856C382.746 320.749 382.698 320.611 382.698 320.44V320.088C382.442 320.461 382.09 320.749 381.642 320.952C381.194 321.155 380.671 321.256 380.074 321.256C379.252 321.256 378.575 321.075 378.042 320.712C377.519 320.339 377.258 319.779 377.258 319.032C377.258 318.2 377.567 317.587 378.186 317.192C378.815 316.787 379.684 316.483 380.794 316.28L382.602 315.944V315.656C382.602 315.219 382.447 314.883 382.138 314.648C381.839 314.403 381.439 314.28 380.938 314.28C380.511 314.28 380.138 314.355 379.818 314.504C379.508 314.643 379.172 314.877 378.81 315.208C378.671 315.325 378.538 315.384 378.41 315.384C378.282 315.384 378.148 315.325 378.01 315.208L377.754 314.984C377.615 314.856 377.546 314.717 377.546 314.568C377.546 314.429 377.61 314.296 377.738 314.168C378.196 313.731 378.682 313.405 379.194 313.192C379.706 312.979 380.276 312.872 380.906 312.872ZM380.314 319.896C380.954 319.896 381.492 319.725 381.93 319.384C382.378 319.043 382.602 318.552 382.602 317.912V317.176L381.21 317.464C380.431 317.624 379.855 317.805 379.482 318.008C379.108 318.211 378.922 318.52 378.922 318.936C378.922 319.235 379.044 319.469 379.29 319.64C379.535 319.811 379.876 319.896 380.314 319.896ZM391.723 313.624C391.723 313.464 391.771 313.341 391.867 313.256C391.974 313.16 392.113 313.112 392.283 313.112H392.731C392.913 313.112 393.051 313.16 393.147 313.256C393.243 313.352 393.291 313.491 393.291 313.672V320.712C393.291 321.768 392.95 322.589 392.267 323.176C391.595 323.763 390.699 324.056 389.579 324.056C388.459 324.056 387.403 323.768 386.411 323.192C386.209 323.085 386.107 322.941 386.107 322.76C386.107 322.664 386.15 322.547 386.235 322.408L386.443 322.104C386.561 321.923 386.705 321.832 386.875 321.832C386.993 321.832 387.11 321.869 387.227 321.944C387.654 322.189 388.049 322.365 388.411 322.472C388.774 322.589 389.158 322.648 389.563 322.648C390.182 322.648 390.678 322.477 391.051 322.136C391.435 321.805 391.627 321.283 391.627 320.568V319.72C391.094 320.477 390.294 320.856 389.227 320.856C388.566 320.856 387.969 320.691 387.435 320.36C386.913 320.019 386.502 319.549 386.203 318.952C385.915 318.344 385.771 317.651 385.771 316.872C385.771 316.093 385.915 315.405 386.203 314.808C386.502 314.2 386.913 313.725 387.435 313.384C387.969 313.043 388.566 312.872 389.227 312.872C390.358 312.872 391.19 313.293 391.723 314.136V313.624ZM389.563 319.432C390.182 319.432 390.689 319.197 391.083 318.728C391.478 318.248 391.675 317.629 391.675 316.872C391.675 316.125 391.478 315.517 391.083 315.048C390.699 314.568 390.193 314.328 389.563 314.328C388.923 314.328 388.417 314.563 388.043 315.032C387.67 315.501 387.483 316.115 387.483 316.872C387.483 317.64 387.67 318.259 388.043 318.728C388.417 319.197 388.923 319.432 389.563 319.432ZM400.897 318.984C401.036 318.867 401.169 318.808 401.297 318.808C401.425 318.808 401.559 318.877 401.697 319.016L401.921 319.256C402.039 319.395 402.097 319.528 402.097 319.656C402.097 319.795 402.028 319.928 401.889 320.056C401.399 320.483 400.908 320.787 400.417 320.968C399.937 321.149 399.404 321.24 398.817 321.24C397.996 321.24 397.281 321.069 396.673 320.728C396.076 320.387 395.612 319.907 395.281 319.288C394.961 318.659 394.801 317.933 394.801 317.112C394.801 316.301 394.956 315.576 395.265 314.936C395.585 314.285 396.033 313.779 396.609 313.416C397.196 313.053 397.879 312.872 398.657 312.872C399.82 312.872 400.716 313.219 401.345 313.912C401.975 314.595 402.289 315.539 402.289 316.744V316.888C402.279 317.059 402.225 317.192 402.129 317.288C402.033 317.384 401.895 317.432 401.713 317.432H396.465C396.529 318.136 396.759 318.712 397.153 319.16C397.559 319.597 398.124 319.816 398.849 319.816C399.244 319.816 399.591 319.757 399.889 319.64C400.188 319.512 400.524 319.293 400.897 318.984ZM398.625 314.216C398.039 314.216 397.564 314.392 397.201 314.744C396.849 315.085 396.62 315.571 396.513 316.2H400.625C400.583 315.581 400.391 315.096 400.049 314.744C399.708 314.392 399.233 314.216 398.625 314.216Z" fill="white"/>
<path d="M304.784 381C304.614 381 304.475 380.952 304.368 380.856C304.272 380.749 304.224 380.611 304.224 380.44V370.2C304.224 370.019 304.272 369.88 304.368 369.784C304.475 369.688 304.614 369.64 304.784 369.64H305.488C305.67 369.64 305.808 369.688 305.904 369.784C306 369.88 306.048 370.019 306.048 370.2V374.312H311.68V370.2C311.68 370.019 311.728 369.88 311.824 369.784C311.931 369.688 312.07 369.64 312.24 369.64H312.96C313.142 369.64 313.28 369.688 313.376 369.784C313.472 369.88 313.52 370.019 313.52 370.2V380.44C313.52 380.611 313.472 380.749 313.376 380.856C313.28 380.952 313.142 381 312.96 381H312.24C312.07 381 311.931 380.952 311.824 380.856C311.728 380.749 311.68 380.611 311.68 380.44V375.848H306.048V380.44C306.048 380.611 306 380.749 305.904 380.856C305.808 380.952 305.67 381 305.488 381H304.784ZM321.382 378.984C321.52 378.867 321.654 378.808 321.782 378.808C321.91 378.808 322.043 378.877 322.182 379.016L322.406 379.256C322.523 379.395 322.582 379.528 322.582 379.656C322.582 379.795 322.512 379.928 322.374 380.056C321.883 380.483 321.392 380.787 320.902 380.968C320.422 381.149 319.888 381.24 319.302 381.24C318.48 381.24 317.766 381.069 317.158 380.728C316.56 380.387 316.096 379.907 315.766 379.288C315.446 378.659 315.286 377.933 315.286 377.112C315.286 376.301 315.44 375.576 315.75 374.936C316.07 374.285 316.518 373.779 317.094 373.416C317.68 373.053 318.363 372.872 319.142 372.872C320.304 372.872 321.2 373.219 321.83 373.912C322.459 374.595 322.774 375.539 322.774 376.744V376.888C322.763 377.059 322.71 377.192 322.614 377.288C322.518 377.384 322.379 377.432 322.198 377.432H316.95C317.014 378.136 317.243 378.712 317.638 379.16C318.043 379.597 318.608 379.816 319.334 379.816C319.728 379.816 320.075 379.757 320.374 379.64C320.672 379.512 321.008 379.293 321.382 378.984ZM319.11 374.216C318.523 374.216 318.048 374.392 317.686 374.744C317.334 375.085 317.104 375.571 316.998 376.2H321.11C321.067 375.581 320.875 375.096 320.534 374.744C320.192 374.392 319.718 374.216 319.11 374.216ZM324.952 381C324.781 381 324.642 380.952 324.536 380.856C324.44 380.749 324.392 380.611 324.392 380.44V370.2C324.392 370.019 324.44 369.88 324.536 369.784C324.642 369.688 324.781 369.64 324.952 369.64H325.528C325.709 369.64 325.848 369.688 325.944 369.784C326.04 369.88 326.088 370.019 326.088 370.2V380.44C326.088 380.611 326.04 380.749 325.944 380.856C325.848 380.952 325.709 381 325.528 381H324.952ZM332.301 372.904C332.973 372.904 333.57 373.075 334.093 373.416C334.626 373.757 335.042 374.243 335.341 374.872C335.639 375.501 335.789 376.227 335.789 377.048C335.789 377.88 335.639 378.611 335.341 379.24C335.042 379.869 334.626 380.355 334.093 380.696C333.559 381.037 332.962 381.208 332.301 381.208C331.191 381.208 330.359 380.824 329.805 380.056V383.272C329.805 383.453 329.757 383.592 329.661 383.688C329.565 383.784 329.426 383.832 329.245 383.832H328.669C328.498 383.832 328.359 383.784 328.253 383.688C328.157 383.592 328.109 383.453 328.109 383.272V373.672C328.109 373.491 328.157 373.352 328.253 373.256C328.359 373.16 328.498 373.112 328.669 373.112H329.133C329.314 373.112 329.453 373.16 329.549 373.256C329.645 373.352 329.693 373.491 329.693 373.672V374.264C330.258 373.357 331.127 372.904 332.301 372.904ZM331.949 379.736C332.589 379.736 333.101 379.496 333.485 379.016C333.869 378.525 334.061 377.869 334.061 377.048C334.061 376.237 333.869 375.587 333.485 375.096C333.111 374.605 332.605 374.36 331.965 374.36C331.314 374.36 330.781 374.6 330.365 375.08C329.949 375.56 329.741 376.216 329.741 377.048C329.741 377.88 329.949 378.536 330.365 379.016C330.781 379.496 331.309 379.736 331.949 379.736ZM344.378 381.24C343.599 381.24 342.911 381.069 342.314 380.728C341.727 380.387 341.268 379.901 340.938 379.272C340.618 378.632 340.458 377.891 340.458 377.048C340.458 376.205 340.623 375.469 340.954 374.84C341.284 374.211 341.748 373.725 342.346 373.384C342.943 373.043 343.631 372.872 344.41 372.872C344.975 372.872 345.482 372.957 345.93 373.128C346.388 373.288 346.826 373.565 347.242 373.96C347.37 374.088 347.434 374.221 347.434 374.36C347.434 374.488 347.364 374.621 347.226 374.76L346.954 375.032C346.836 375.149 346.708 375.208 346.57 375.208C346.431 375.208 346.287 375.144 346.138 375.016C345.828 374.749 345.535 374.568 345.258 374.472C344.991 374.365 344.703 374.312 344.394 374.312C343.69 374.312 343.146 374.573 342.762 375.096C342.378 375.619 342.186 376.269 342.186 377.048C342.186 377.827 342.378 378.483 342.762 379.016C343.146 379.539 343.69 379.8 344.394 379.8C344.735 379.8 345.05 379.736 345.338 379.608C345.626 379.469 345.935 379.24 346.266 378.92C346.404 378.781 346.548 378.712 346.698 378.712C346.826 378.712 346.948 378.765 347.066 378.872L347.338 379.096C347.476 379.213 347.546 379.347 347.546 379.496C347.546 379.656 347.466 379.827 347.306 380.008C346.868 380.456 346.415 380.776 345.946 380.968C345.487 381.149 344.964 381.24 344.378 381.24ZM354.444 378.984C354.583 378.867 354.716 378.808 354.844 378.808C354.972 378.808 355.106 378.877 355.244 379.016L355.468 379.256C355.586 379.395 355.644 379.528 355.644 379.656C355.644 379.795 355.575 379.928 355.436 380.056C354.946 380.483 354.455 380.787 353.964 380.968C353.484 381.149 352.951 381.24 352.364 381.24C351.543 381.24 350.828 381.069 350.22 380.728C349.623 380.387 349.159 379.907 348.828 379.288C348.508 378.659 348.348 377.933 348.348 377.112C348.348 376.301 348.503 375.576 348.812 374.936C349.132 374.285 349.58 373.779 350.156 373.416C350.743 373.053 351.426 372.872 352.204 372.872C353.367 372.872 354.263 373.219 354.892 373.912C355.522 374.595 355.836 375.539 355.836 376.744V376.888C355.826 377.059 355.772 377.192 355.676 377.288C355.58 377.384 355.442 377.432 355.26 377.432H350.012C350.076 378.136 350.306 378.712 350.7 379.16C351.106 379.597 351.671 379.816 352.396 379.816C352.791 379.816 353.138 379.757 353.436 379.64C353.735 379.512 354.071 379.293 354.444 378.984ZM352.172 374.216C351.586 374.216 351.111 374.392 350.748 374.744C350.396 375.085 350.167 375.571 350.06 376.2H354.172C354.13 375.581 353.938 375.096 353.596 374.744C353.255 374.392 352.78 374.216 352.172 374.216ZM361.406 372.872C362.313 372.872 363.006 373.128 363.486 373.64C363.977 374.141 364.222 374.792 364.222 375.592V380.44C364.222 380.611 364.174 380.749 364.078 380.856C363.982 380.952 363.843 381 363.662 381H363.086C362.915 381 362.777 380.952 362.67 380.856C362.574 380.749 362.526 380.611 362.526 380.44V376.12C362.526 375.544 362.382 375.101 362.094 374.792C361.817 374.483 361.417 374.328 360.894 374.328C360.382 374.328 359.95 374.504 359.598 374.856C359.257 375.208 359.086 375.651 359.086 376.184V380.44C359.086 380.611 359.038 380.749 358.942 380.856C358.846 380.952 358.707 381 358.526 381H357.95C357.779 381 357.641 380.952 357.534 380.856C357.438 380.749 357.39 380.611 357.39 380.44V373.672C357.39 373.491 357.438 373.352 357.534 373.256C357.641 373.16 357.779 373.112 357.95 373.112H358.414C358.595 373.112 358.734 373.16 358.83 373.256C358.926 373.352 358.974 373.491 358.974 373.672V374.088C359.23 373.693 359.566 373.395 359.982 373.192C360.398 372.979 360.873 372.872 361.406 372.872ZM369.807 379.656C369.839 379.645 369.887 379.64 369.951 379.64C370.218 379.64 370.378 379.795 370.431 380.104L370.479 380.36C370.49 380.392 370.495 380.445 370.495 380.52C370.495 380.787 370.346 380.957 370.047 381.032C369.621 381.128 369.231 381.176 368.879 381.176C368.122 381.176 367.573 381 367.231 380.648C366.901 380.296 366.735 379.768 366.735 379.064V374.408H365.855C365.685 374.408 365.546 374.36 365.439 374.264C365.343 374.157 365.295 374.019 365.295 373.848V373.672C365.295 373.491 365.343 373.352 365.439 373.256C365.546 373.16 365.685 373.112 365.855 373.112H366.735V371.128C366.735 370.947 366.783 370.808 366.879 370.712C366.986 370.616 367.125 370.568 367.295 370.568H367.871C368.053 370.568 368.191 370.616 368.287 370.712C368.383 370.808 368.431 370.947 368.431 371.128V373.112H369.871C370.053 373.112 370.191 373.16 370.287 373.256C370.383 373.352 370.431 373.491 370.431 373.672V373.848C370.431 374.019 370.383 374.157 370.287 374.264C370.191 374.36 370.053 374.408 369.871 374.408H368.431V378.856C368.431 379.165 368.495 379.384 368.623 379.512C368.762 379.64 368.981 379.704 369.279 379.704C369.407 379.704 369.583 379.688 369.807 379.656ZM375.38 373.032C375.614 373.032 375.854 373.059 376.1 373.112C376.388 373.176 376.532 373.347 376.532 373.624C376.532 373.699 376.526 373.752 376.516 373.784L376.436 374.168C376.372 374.467 376.212 374.616 375.956 374.616L375.812 374.6C375.62 374.568 375.449 374.552 375.3 374.552C374.766 374.552 374.334 374.765 374.004 375.192C373.684 375.608 373.524 376.189 373.524 376.936V380.44C373.524 380.611 373.476 380.749 373.38 380.856C373.284 380.952 373.145 381 372.964 381H372.388C372.217 381 372.078 380.952 371.972 380.856C371.876 380.749 371.828 380.611 371.828 380.44V373.672C371.828 373.491 371.876 373.352 371.972 373.256C372.078 373.16 372.217 373.112 372.388 373.112H372.852C373.033 373.112 373.172 373.16 373.268 373.256C373.364 373.352 373.412 373.491 373.412 373.672V374.296C373.604 373.901 373.865 373.592 374.196 373.368C374.526 373.144 374.921 373.032 375.38 373.032ZM383.038 378.984C383.177 378.867 383.31 378.808 383.438 378.808C383.566 378.808 383.699 378.877 383.838 379.016L384.062 379.256C384.179 379.395 384.238 379.528 384.238 379.656C384.238 379.795 384.169 379.928 384.03 380.056C383.539 380.483 383.049 380.787 382.558 380.968C382.078 381.149 381.545 381.24 380.958 381.24C380.137 381.24 379.422 381.069 378.814 380.728C378.217 380.387 377.753 379.907 377.422 379.288C377.102 378.659 376.942 377.933 376.942 377.112C376.942 376.301 377.097 375.576 377.406 374.936C377.726 374.285 378.174 373.779 378.75 373.416C379.337 373.053 380.019 372.872 380.798 372.872C381.961 372.872 382.857 373.219 383.486 373.912C384.115 374.595 384.43 375.539 384.43 376.744V376.888C384.419 377.059 384.366 377.192 384.27 377.288C384.174 377.384 384.035 377.432 383.854 377.432H378.606C378.67 378.136 378.899 378.712 379.294 379.16C379.699 379.597 380.265 379.816 380.99 379.816C381.385 379.816 381.731 379.757 382.03 379.64C382.329 379.512 382.665 379.293 383.038 378.984ZM380.766 374.216C380.179 374.216 379.705 374.392 379.342 374.744C378.99 375.085 378.761 375.571 378.654 376.2H382.766C382.723 375.581 382.531 375.096 382.19 374.744C381.849 374.392 381.374 374.216 380.766 374.216Z" fill="#0063FB"/>
</svg>
