<svg width="464" height="340" viewBox="0 0 464 340" fill="none" xmlns="http://www.w3.org/2000/svg">
<rect width="464" height="340" rx="8" fill="white"/>
<path d="M132.068 94C131.919 94 131.797 93.958 131.704 93.874C131.62 93.7807 131.578 93.6593 131.578 93.51V84.55C131.578 84.3913 131.62 84.27 131.704 84.186C131.797 84.102 131.919 84.06 132.068 84.06H135.442C136.375 84.06 137.173 84.27 137.836 84.69C138.508 85.11 139.017 85.698 139.362 86.454C139.717 87.2007 139.894 88.0593 139.894 89.03C139.894 90.0007 139.717 90.864 139.362 91.62C139.017 92.3667 138.508 92.95 137.836 93.37C137.173 93.79 136.375 94 135.442 94H132.068ZM135.204 92.656C136.156 92.656 136.903 92.3433 137.444 91.718C137.995 91.0833 138.27 90.1873 138.27 89.03C138.27 87.8727 137.995 86.9813 137.444 86.356C136.903 85.7213 136.156 85.404 135.204 85.404H133.174V92.656H135.204ZM144.192 86.888C145.125 86.888 145.844 87.1073 146.348 87.546C146.852 87.9753 147.104 88.5493 147.104 89.268V93.51C147.104 93.6593 147.062 93.7807 146.978 93.874C146.894 93.958 146.772 94 146.614 94H146.25C146.1 94 145.979 93.958 145.886 93.874C145.802 93.7807 145.76 93.6593 145.76 93.51V93.202C145.536 93.5287 145.228 93.7807 144.836 93.958C144.444 94.1353 143.986 94.224 143.464 94.224C142.745 94.224 142.152 94.0653 141.686 93.748C141.228 93.4213 141 92.9313 141 92.278C141 91.55 141.27 91.0133 141.812 90.668C142.362 90.3133 143.123 90.0473 144.094 89.87L145.676 89.576V89.324C145.676 88.9413 145.54 88.6473 145.27 88.442C145.008 88.2273 144.658 88.12 144.22 88.12C143.846 88.12 143.52 88.1853 143.24 88.316C142.969 88.4373 142.675 88.6427 142.358 88.932C142.236 89.0347 142.12 89.086 142.008 89.086C141.896 89.086 141.779 89.0347 141.658 88.932L141.434 88.736C141.312 88.624 141.252 88.5027 141.252 88.372C141.252 88.2507 141.308 88.134 141.42 88.022C141.821 87.6393 142.246 87.3547 142.694 87.168C143.142 86.9813 143.641 86.888 144.192 86.888ZM143.674 93.034C144.234 93.034 144.705 92.8847 145.088 92.586C145.48 92.2873 145.676 91.858 145.676 91.298V90.654L144.458 90.906C143.776 91.046 143.272 91.2047 142.946 91.382C142.619 91.5593 142.456 91.83 142.456 92.194C142.456 92.4553 142.563 92.6607 142.778 92.81C142.992 92.9593 143.291 93.034 143.674 93.034ZM151.981 92.824C152.009 92.8147 152.051 92.81 152.107 92.81C152.34 92.81 152.48 92.9453 152.527 93.216L152.569 93.44C152.578 93.468 152.583 93.5147 152.583 93.58C152.583 93.8133 152.452 93.9627 152.191 94.028C151.818 94.112 151.477 94.154 151.169 94.154C150.506 94.154 150.026 94 149.727 93.692C149.438 93.384 149.293 92.922 149.293 92.306V88.232H148.523C148.374 88.232 148.252 88.19 148.159 88.106C148.075 88.0127 148.033 87.8913 148.033 87.742V87.588C148.033 87.4293 148.075 87.308 148.159 87.224C148.252 87.14 148.374 87.098 148.523 87.098H149.293V85.362C149.293 85.2033 149.335 85.082 149.419 84.998C149.512 84.914 149.634 84.872 149.783 84.872H150.287C150.446 84.872 150.567 84.914 150.651 84.998C150.735 85.082 150.777 85.2033 150.777 85.362V87.098H152.037C152.196 87.098 152.317 87.14 152.401 87.224C152.485 87.308 152.527 87.4293 152.527 87.588V87.742C152.527 87.8913 152.485 88.0127 152.401 88.106C152.317 88.19 152.196 88.232 152.037 88.232H150.777V92.124C150.777 92.3947 150.833 92.586 150.945 92.698C151.066 92.81 151.258 92.866 151.519 92.866C151.631 92.866 151.785 92.852 151.981 92.824ZM158.472 92.236C158.593 92.1333 158.71 92.082 158.822 92.082C158.934 92.082 159.05 92.1427 159.172 92.264L159.368 92.474C159.47 92.5953 159.522 92.712 159.522 92.824C159.522 92.9453 159.461 93.062 159.34 93.174C158.91 93.5473 158.481 93.8133 158.052 93.972C157.632 94.1307 157.165 94.21 156.652 94.21C155.933 94.21 155.308 94.0607 154.776 93.762C154.253 93.4633 153.847 93.0433 153.558 92.502C153.278 91.9513 153.138 91.3167 153.138 90.598C153.138 89.8887 153.273 89.254 153.544 88.694C153.824 88.1247 154.216 87.6813 154.72 87.364C155.233 87.0467 155.83 86.888 156.512 86.888C157.529 86.888 158.313 87.1913 158.864 87.798C159.414 88.3953 159.69 89.2213 159.69 90.276V90.402C159.68 90.5513 159.634 90.668 159.55 90.752C159.466 90.836 159.344 90.878 159.186 90.878H154.594C154.65 91.494 154.85 91.998 155.196 92.39C155.55 92.7727 156.045 92.964 156.68 92.964C157.025 92.964 157.328 92.9127 157.59 92.81C157.851 92.698 158.145 92.5067 158.472 92.236ZM156.484 88.064C155.97 88.064 155.555 88.218 155.238 88.526C154.93 88.8247 154.729 89.2493 154.636 89.8H158.234C158.196 89.2587 158.028 88.834 157.73 88.526C157.431 88.218 157.016 88.064 156.484 88.064Z" fill="#1B1B1F"/>
<rect x="131" y="102.5" width="202" height="47" rx="3.5" fill="white"/>
<rect x="131" y="102.5" width="202" height="47" rx="3.5" stroke="#CACAD1"/>
<g clip-path="url(#clip0_2001_21461)">
<path d="M145.38 119.96C145.38 119.747 145.487 119.64 145.7 119.64H146.116C146.329 119.64 146.436 119.747 146.436 119.96V130.68C146.436 130.893 146.329 131 146.116 131H145.78C145.567 131 145.46 130.893 145.46 130.68V129.64C145.172 130.141 144.793 130.525 144.324 130.792C143.855 131.059 143.3 131.192 142.66 131.192C141.988 131.192 141.391 131.021 140.868 130.68C140.345 130.328 139.935 129.843 139.636 129.224C139.337 128.595 139.188 127.875 139.188 127.064C139.188 126.253 139.337 125.539 139.636 124.92C139.945 124.291 140.367 123.805 140.9 123.464C141.433 123.112 142.031 122.936 142.692 122.936C143.908 122.936 144.804 123.389 145.38 124.296V119.96ZM142.74 130.296C143.54 130.296 144.185 130.013 144.676 129.448C145.177 128.872 145.428 128.077 145.428 127.064C145.428 126.061 145.177 125.272 144.676 124.696C144.185 124.12 143.54 123.832 142.74 123.832C142.004 123.832 141.407 124.131 140.948 124.728C140.5 125.325 140.276 126.104 140.276 127.064C140.276 128.035 140.5 128.819 140.948 129.416C141.396 130.003 141.993 130.296 142.74 130.296ZM154.505 119.96C154.505 119.747 154.612 119.64 154.825 119.64H155.241C155.454 119.64 155.561 119.747 155.561 119.96V130.68C155.561 130.893 155.454 131 155.241 131H154.905C154.692 131 154.585 130.893 154.585 130.68V129.64C154.297 130.141 153.918 130.525 153.449 130.792C152.98 131.059 152.425 131.192 151.785 131.192C151.113 131.192 150.516 131.021 149.993 130.68C149.47 130.328 149.06 129.843 148.761 129.224C148.462 128.595 148.313 127.875 148.313 127.064C148.313 126.253 148.462 125.539 148.761 124.92C149.07 124.291 149.492 123.805 150.025 123.464C150.558 123.112 151.156 122.936 151.817 122.936C153.033 122.936 153.929 123.389 154.505 124.296V119.96ZM151.865 130.296C152.665 130.296 153.31 130.013 153.801 129.448C154.302 128.872 154.553 128.077 154.553 127.064C154.553 126.061 154.302 125.272 153.801 124.696C153.31 124.12 152.665 123.832 151.865 123.832C151.129 123.832 150.532 124.131 150.073 124.728C149.625 125.325 149.401 126.104 149.401 127.064C149.401 128.035 149.625 128.819 150.073 129.416C150.521 130.003 151.118 130.296 151.865 130.296ZM158.366 131.112C158.142 131.112 157.95 131.032 157.79 130.872C157.63 130.712 157.55 130.52 157.55 130.296C157.55 130.072 157.63 129.88 157.79 129.72C157.95 129.56 158.142 129.48 158.366 129.48C158.59 129.48 158.782 129.56 158.942 129.72C159.102 129.88 159.182 130.072 159.182 130.296C159.182 130.52 159.102 130.712 158.942 130.872C158.782 131.032 158.59 131.112 158.366 131.112ZM169.184 122.92C170.038 122.92 170.688 123.165 171.136 123.656C171.595 124.136 171.824 124.755 171.824 125.512V130.68C171.824 130.893 171.718 131 171.504 131H171.088C170.875 131 170.768 130.893 170.768 130.68V125.8C170.768 125.16 170.619 124.669 170.32 124.328C170.032 123.987 169.6 123.816 169.024 123.816C168.416 123.816 167.931 124.019 167.568 124.424C167.206 124.829 167.024 125.352 167.024 125.992V130.68C167.024 130.893 166.918 131 166.704 131H166.288C166.075 131 165.968 130.893 165.968 130.68V125.8C165.968 125.16 165.819 124.669 165.52 124.328C165.232 123.987 164.795 123.816 164.208 123.816C163.664 123.816 163.211 123.987 162.848 124.328C162.496 124.669 162.288 125.117 162.224 125.672V130.68C162.224 130.893 162.118 131 161.904 131H161.488C161.275 131 161.168 130.893 161.168 130.68V123.432C161.168 123.219 161.275 123.112 161.488 123.112H161.84C162.054 123.112 162.16 123.219 162.16 123.432V124.088C162.64 123.309 163.403 122.92 164.448 122.92C164.992 122.92 165.456 123.043 165.84 123.288C166.235 123.523 166.528 123.843 166.72 124.248C167.286 123.363 168.107 122.92 169.184 122.92ZM182.169 122.92C183.022 122.92 183.673 123.165 184.121 123.656C184.579 124.136 184.809 124.755 184.809 125.512V130.68C184.809 130.893 184.702 131 184.489 131H184.073C183.859 131 183.753 130.893 183.753 130.68V125.8C183.753 125.16 183.603 124.669 183.305 124.328C183.017 123.987 182.585 123.816 182.009 123.816C181.401 123.816 180.915 124.019 180.553 124.424C180.19 124.829 180.009 125.352 180.009 125.992V130.68C180.009 130.893 179.902 131 179.689 131H179.273C179.059 131 178.953 130.893 178.953 130.68V125.8C178.953 125.16 178.803 124.669 178.505 124.328C178.217 123.987 177.779 123.816 177.193 123.816C176.649 123.816 176.195 123.987 175.833 124.328C175.481 124.669 175.273 125.117 175.209 125.672V130.68C175.209 130.893 175.102 131 174.889 131H174.473C174.259 131 174.153 130.893 174.153 130.68V123.432C174.153 123.219 174.259 123.112 174.473 123.112H174.825C175.038 123.112 175.145 123.219 175.145 123.432V124.088C175.625 123.309 176.387 122.92 177.433 122.92C177.977 122.92 178.441 123.043 178.825 123.288C179.219 123.523 179.513 123.843 179.705 124.248C180.27 123.363 181.091 122.92 182.169 122.92ZM187.569 131.112C187.345 131.112 187.153 131.032 186.993 130.872C186.833 130.712 186.753 130.52 186.753 130.296C186.753 130.072 186.833 129.88 186.993 129.72C187.153 129.56 187.345 129.48 187.569 129.48C187.793 129.48 187.985 129.56 188.145 129.72C188.305 129.88 188.385 130.072 188.385 130.296C188.385 130.52 188.305 130.712 188.145 130.872C187.985 131.032 187.793 131.112 187.569 131.112ZM194.627 123.368C194.691 123.197 194.814 123.112 194.995 123.112H195.427C195.512 123.112 195.582 123.133 195.635 123.176C195.688 123.219 195.715 123.277 195.715 123.352L195.683 123.48L192.595 132.2C192.424 132.68 192.259 133.053 192.099 133.32C191.939 133.587 191.72 133.789 191.443 133.928C191.176 134.067 190.824 134.136 190.387 134.136C190.11 134.136 189.864 134.115 189.651 134.072C189.544 134.061 189.47 134.019 189.427 133.944C189.395 133.869 189.39 133.784 189.411 133.688L189.459 133.48C189.502 133.288 189.624 133.203 189.827 133.224C190.019 133.256 190.184 133.272 190.323 133.272C190.664 133.272 190.931 133.176 191.123 132.984C191.326 132.792 191.518 132.429 191.699 131.896L191.843 131.448L189.027 123.48L188.995 123.352C188.995 123.277 189.022 123.219 189.075 123.176C189.128 123.133 189.198 123.112 189.283 123.112H189.747C189.918 123.112 190.035 123.197 190.099 123.368L190.995 126.008C191.08 126.275 191.294 126.909 191.635 127.912L192.355 130.072C192.707 129.08 193.171 127.715 193.747 125.976L194.627 123.368ZM202.205 123.368C202.269 123.197 202.392 123.112 202.573 123.112H203.005C203.09 123.112 203.16 123.133 203.213 123.176C203.266 123.219 203.293 123.277 203.293 123.352L203.261 123.48L200.173 132.2C200.002 132.68 199.837 133.053 199.677 133.32C199.517 133.587 199.298 133.789 199.021 133.928C198.754 134.067 198.402 134.136 197.965 134.136C197.688 134.136 197.442 134.115 197.229 134.072C197.122 134.061 197.048 134.019 197.005 133.944C196.973 133.869 196.968 133.784 196.989 133.688L197.037 133.48C197.08 133.288 197.202 133.203 197.405 133.224C197.597 133.256 197.762 133.272 197.901 133.272C198.242 133.272 198.509 133.176 198.701 132.984C198.904 132.792 199.096 132.429 199.277 131.896L199.421 131.448L196.605 123.48L196.573 123.352C196.573 123.277 196.6 123.219 196.653 123.176C196.706 123.133 196.776 123.112 196.861 123.112H197.325C197.496 123.112 197.613 123.197 197.677 123.368L198.573 126.008C198.658 126.275 198.872 126.909 199.213 127.912L199.933 130.072C200.285 129.08 200.749 127.715 201.325 125.976L202.205 123.368ZM209.783 123.368C209.847 123.197 209.97 123.112 210.151 123.112H210.583C210.668 123.112 210.738 123.133 210.791 123.176C210.844 123.219 210.871 123.277 210.871 123.352L210.839 123.48L207.751 132.2C207.58 132.68 207.415 133.053 207.255 133.32C207.095 133.587 206.876 133.789 206.599 133.928C206.332 134.067 205.98 134.136 205.543 134.136C205.266 134.136 205.02 134.115 204.807 134.072C204.7 134.061 204.626 134.019 204.583 133.944C204.551 133.869 204.546 133.784 204.567 133.688L204.615 133.48C204.658 133.288 204.78 133.203 204.983 133.224C205.175 133.256 205.34 133.272 205.479 133.272C205.82 133.272 206.087 133.176 206.279 132.984C206.482 132.792 206.674 132.429 206.855 131.896L206.999 131.448L204.183 123.48L204.151 123.352C204.151 123.277 204.178 123.219 204.231 123.176C204.284 123.133 204.354 123.112 204.439 123.112H204.903C205.074 123.112 205.191 123.197 205.255 123.368L206.151 126.008C206.236 126.275 206.45 126.909 206.791 127.912L207.511 130.072C207.863 129.08 208.327 127.715 208.903 125.976L209.783 123.368ZM217.361 123.368C217.425 123.197 217.548 123.112 217.729 123.112H218.161C218.247 123.112 218.316 123.133 218.369 123.176C218.423 123.219 218.449 123.277 218.449 123.352L218.417 123.48L215.329 132.2C215.159 132.68 214.993 133.053 214.833 133.32C214.673 133.587 214.455 133.789 214.177 133.928C213.911 134.067 213.559 134.136 213.121 134.136C212.844 134.136 212.599 134.115 212.385 134.072C212.279 134.061 212.204 134.019 212.161 133.944C212.129 133.869 212.124 133.784 212.145 133.688L212.193 133.48C212.236 133.288 212.359 133.203 212.561 133.224C212.753 133.256 212.919 133.272 213.057 133.272C213.399 133.272 213.665 133.176 213.857 132.984C214.06 132.792 214.252 132.429 214.433 131.896L214.577 131.448L211.761 123.48L211.729 123.352C211.729 123.277 211.756 123.219 211.809 123.176C211.863 123.133 211.932 123.112 212.017 123.112H212.481C212.652 123.112 212.769 123.197 212.833 123.368L213.729 126.008C213.815 126.275 214.028 126.909 214.369 127.912L215.089 130.072C215.441 129.08 215.905 127.715 216.481 125.976L217.361 123.368Z" fill="#1B1B1F"/>
<path d="M320.5 119.5V121.5M314.5 119.5V121.5M312 123.5H323M315 126L316 125.5V129.5M318.134 126C318.202 125.882 318.294 125.78 318.403 125.699C318.513 125.617 318.638 125.56 318.771 125.529C318.903 125.498 319.041 125.494 319.175 125.518C319.309 125.542 319.437 125.593 319.55 125.668C319.664 125.743 319.761 125.841 319.836 125.955C319.91 126.069 319.961 126.197 319.984 126.332C320.007 126.466 320.003 126.603 319.971 126.736C319.939 126.868 319.88 126.993 319.799 127.102L318 129.5H320M312.5 120.5H322.5C322.776 120.5 323 120.724 323 121V131C323 131.276 322.776 131.5 322.5 131.5H312.5C312.224 131.5 312 131.276 312 131V121C312 120.724 312.224 120.5 312.5 120.5Z" stroke="#1B1B1F" stroke-linecap="round" stroke-linejoin="round"/>
</g>
<path d="M132.068 204C131.919 204 131.797 203.958 131.704 203.874C131.62 203.781 131.578 203.659 131.578 203.51V194.55C131.578 194.391 131.62 194.27 131.704 194.186C131.797 194.102 131.919 194.06 132.068 194.06H135.442C136.375 194.06 137.173 194.27 137.836 194.69C138.508 195.11 139.017 195.698 139.362 196.454C139.717 197.201 139.894 198.059 139.894 199.03C139.894 200.001 139.717 200.864 139.362 201.62C139.017 202.367 138.508 202.95 137.836 203.37C137.173 203.79 136.375 204 135.442 204H132.068ZM135.204 202.656C136.156 202.656 136.903 202.343 137.444 201.718C137.995 201.083 138.27 200.187 138.27 199.03C138.27 197.873 137.995 196.981 137.444 196.356C136.903 195.721 136.156 195.404 135.204 195.404H133.174V202.656H135.204ZM144.192 196.888C145.125 196.888 145.844 197.107 146.348 197.546C146.852 197.975 147.104 198.549 147.104 199.268V203.51C147.104 203.659 147.062 203.781 146.978 203.874C146.894 203.958 146.772 204 146.614 204H146.25C146.1 204 145.979 203.958 145.886 203.874C145.802 203.781 145.76 203.659 145.76 203.51V203.202C145.536 203.529 145.228 203.781 144.836 203.958C144.444 204.135 143.986 204.224 143.464 204.224C142.745 204.224 142.152 204.065 141.686 203.748C141.228 203.421 141 202.931 141 202.278C141 201.55 141.27 201.013 141.812 200.668C142.362 200.313 143.123 200.047 144.094 199.87L145.676 199.576V199.324C145.676 198.941 145.54 198.647 145.27 198.442C145.008 198.227 144.658 198.12 144.22 198.12C143.846 198.12 143.52 198.185 143.24 198.316C142.969 198.437 142.675 198.643 142.358 198.932C142.236 199.035 142.12 199.086 142.008 199.086C141.896 199.086 141.779 199.035 141.658 198.932L141.434 198.736C141.312 198.624 141.252 198.503 141.252 198.372C141.252 198.251 141.308 198.134 141.42 198.022C141.821 197.639 142.246 197.355 142.694 197.168C143.142 196.981 143.641 196.888 144.192 196.888ZM143.674 203.034C144.234 203.034 144.705 202.885 145.088 202.586C145.48 202.287 145.676 201.858 145.676 201.298V200.654L144.458 200.906C143.776 201.046 143.272 201.205 142.946 201.382C142.619 201.559 142.456 201.83 142.456 202.194C142.456 202.455 142.563 202.661 142.778 202.81C142.992 202.959 143.291 203.034 143.674 203.034ZM151.981 202.824C152.009 202.815 152.051 202.81 152.107 202.81C152.34 202.81 152.48 202.945 152.527 203.216L152.569 203.44C152.578 203.468 152.583 203.515 152.583 203.58C152.583 203.813 152.452 203.963 152.191 204.028C151.818 204.112 151.477 204.154 151.169 204.154C150.506 204.154 150.026 204 149.727 203.692C149.438 203.384 149.293 202.922 149.293 202.306V198.232H148.523C148.374 198.232 148.252 198.19 148.159 198.106C148.075 198.013 148.033 197.891 148.033 197.742V197.588C148.033 197.429 148.075 197.308 148.159 197.224C148.252 197.14 148.374 197.098 148.523 197.098H149.293V195.362C149.293 195.203 149.335 195.082 149.419 194.998C149.512 194.914 149.634 194.872 149.783 194.872H150.287C150.446 194.872 150.567 194.914 150.651 194.998C150.735 195.082 150.777 195.203 150.777 195.362V197.098H152.037C152.196 197.098 152.317 197.14 152.401 197.224C152.485 197.308 152.527 197.429 152.527 197.588V197.742C152.527 197.891 152.485 198.013 152.401 198.106C152.317 198.19 152.196 198.232 152.037 198.232H150.777V202.124C150.777 202.395 150.833 202.586 150.945 202.698C151.066 202.81 151.258 202.866 151.519 202.866C151.631 202.866 151.785 202.852 151.981 202.824ZM158.472 202.236C158.593 202.133 158.71 202.082 158.822 202.082C158.934 202.082 159.05 202.143 159.172 202.264L159.368 202.474C159.47 202.595 159.522 202.712 159.522 202.824C159.522 202.945 159.461 203.062 159.34 203.174C158.91 203.547 158.481 203.813 158.052 203.972C157.632 204.131 157.165 204.21 156.652 204.21C155.933 204.21 155.308 204.061 154.776 203.762C154.253 203.463 153.847 203.043 153.558 202.502C153.278 201.951 153.138 201.317 153.138 200.598C153.138 199.889 153.273 199.254 153.544 198.694C153.824 198.125 154.216 197.681 154.72 197.364C155.233 197.047 155.83 196.888 156.512 196.888C157.529 196.888 158.313 197.191 158.864 197.798C159.414 198.395 159.69 199.221 159.69 200.276V200.402C159.68 200.551 159.634 200.668 159.55 200.752C159.466 200.836 159.344 200.878 159.186 200.878H154.594C154.65 201.494 154.85 201.998 155.196 202.39C155.55 202.773 156.045 202.964 156.68 202.964C157.025 202.964 157.328 202.913 157.59 202.81C157.851 202.698 158.145 202.507 158.472 202.236ZM156.484 198.064C155.97 198.064 155.555 198.218 155.238 198.526C154.93 198.825 154.729 199.249 154.636 199.8H158.234C158.196 199.259 158.028 198.834 157.73 198.526C157.431 198.218 157.016 198.064 156.484 198.064Z" fill="#1B1B1F"/>
<rect x="131" y="212.5" width="202" height="47" rx="3.5" fill="white"/>
<rect x="131" y="212.5" width="202" height="47" rx="3.5" stroke="#CACAD1"/>
<g clip-path="url(#clip1_2001_21461)">
<path d="M145.38 229.96C145.38 229.747 145.487 229.64 145.7 229.64H146.116C146.329 229.64 146.436 229.747 146.436 229.96V240.68C146.436 240.893 146.329 241 146.116 241H145.78C145.567 241 145.46 240.893 145.46 240.68V239.64C145.172 240.141 144.793 240.525 144.324 240.792C143.855 241.059 143.3 241.192 142.66 241.192C141.988 241.192 141.391 241.021 140.868 240.68C140.345 240.328 139.935 239.843 139.636 239.224C139.337 238.595 139.188 237.875 139.188 237.064C139.188 236.253 139.337 235.539 139.636 234.92C139.945 234.291 140.367 233.805 140.9 233.464C141.433 233.112 142.031 232.936 142.692 232.936C143.908 232.936 144.804 233.389 145.38 234.296V229.96ZM142.74 240.296C143.54 240.296 144.185 240.013 144.676 239.448C145.177 238.872 145.428 238.077 145.428 237.064C145.428 236.061 145.177 235.272 144.676 234.696C144.185 234.12 143.54 233.832 142.74 233.832C142.004 233.832 141.407 234.131 140.948 234.728C140.5 235.325 140.276 236.104 140.276 237.064C140.276 238.035 140.5 238.819 140.948 239.416C141.396 240.003 141.993 240.296 142.74 240.296ZM154.505 229.96C154.505 229.747 154.612 229.64 154.825 229.64H155.241C155.454 229.64 155.561 229.747 155.561 229.96V240.68C155.561 240.893 155.454 241 155.241 241H154.905C154.692 241 154.585 240.893 154.585 240.68V239.64C154.297 240.141 153.918 240.525 153.449 240.792C152.98 241.059 152.425 241.192 151.785 241.192C151.113 241.192 150.516 241.021 149.993 240.68C149.47 240.328 149.06 239.843 148.761 239.224C148.462 238.595 148.313 237.875 148.313 237.064C148.313 236.253 148.462 235.539 148.761 234.92C149.07 234.291 149.492 233.805 150.025 233.464C150.558 233.112 151.156 232.936 151.817 232.936C153.033 232.936 153.929 233.389 154.505 234.296V229.96ZM151.865 240.296C152.665 240.296 153.31 240.013 153.801 239.448C154.302 238.872 154.553 238.077 154.553 237.064C154.553 236.061 154.302 235.272 153.801 234.696C153.31 234.12 152.665 233.832 151.865 233.832C151.129 233.832 150.532 234.131 150.073 234.728C149.625 235.325 149.401 236.104 149.401 237.064C149.401 238.035 149.625 238.819 150.073 239.416C150.521 240.003 151.118 240.296 151.865 240.296ZM157.566 241C157.374 241 157.278 240.925 157.278 240.776C157.278 240.744 157.289 240.696 157.31 240.632L161.998 229.88C162.062 229.72 162.19 229.64 162.382 229.64H162.718C162.91 229.64 163.006 229.715 163.006 229.864C163.006 229.896 162.995 229.944 162.974 230.008L158.286 240.76C158.222 240.92 158.094 241 157.902 241H157.566ZM172.013 232.92C172.866 232.92 173.517 233.165 173.965 233.656C174.423 234.136 174.653 234.755 174.653 235.512V240.68C174.653 240.893 174.546 241 174.333 241H173.917C173.703 241 173.597 240.893 173.597 240.68V235.8C173.597 235.16 173.447 234.669 173.149 234.328C172.861 233.987 172.429 233.816 171.852 233.816C171.245 233.816 170.759 234.019 170.397 234.424C170.034 234.829 169.853 235.352 169.853 235.992V240.68C169.853 240.893 169.746 241 169.533 241H169.117C168.903 241 168.797 240.893 168.797 240.68V235.8C168.797 235.16 168.647 234.669 168.349 234.328C168.061 233.987 167.623 233.816 167.036 233.816C166.493 233.816 166.039 233.987 165.677 234.328C165.325 234.669 165.117 235.117 165.053 235.672V240.68C165.053 240.893 164.946 241 164.733 241H164.317C164.103 241 163.997 240.893 163.997 240.68V233.432C163.997 233.219 164.103 233.112 164.317 233.112H164.669C164.882 233.112 164.989 233.219 164.989 233.432V234.088C165.469 233.309 166.231 232.92 167.277 232.92C167.821 232.92 168.285 233.043 168.669 233.288C169.063 233.523 169.357 233.843 169.549 234.248C170.114 233.363 170.935 232.92 172.013 232.92ZM184.997 232.92C185.85 232.92 186.501 233.165 186.949 233.656C187.408 234.136 187.637 234.755 187.637 235.512V240.68C187.637 240.893 187.53 241 187.317 241H186.901C186.688 241 186.581 240.893 186.581 240.68V235.8C186.581 235.16 186.432 234.669 186.133 234.328C185.845 233.987 185.413 233.816 184.837 233.816C184.229 233.816 183.744 234.019 183.381 234.424C183.018 234.829 182.837 235.352 182.837 235.992V240.68C182.837 240.893 182.73 241 182.517 241H182.101C181.888 241 181.781 240.893 181.781 240.68V235.8C181.781 235.16 181.632 234.669 181.333 234.328C181.045 233.987 180.608 233.816 180.021 233.816C179.477 233.816 179.024 233.987 178.661 234.328C178.309 234.669 178.101 235.117 178.037 235.672V240.68C178.037 240.893 177.93 241 177.717 241H177.301C177.088 241 176.981 240.893 176.981 240.68V233.432C176.981 233.219 177.088 233.112 177.301 233.112H177.653C177.866 233.112 177.973 233.219 177.973 233.432V234.088C178.453 233.309 179.216 232.92 180.261 232.92C180.805 232.92 181.269 233.043 181.653 233.288C182.048 233.523 182.341 233.843 182.533 234.248C183.098 233.363 183.92 232.92 184.997 232.92ZM189.597 241C189.405 241 189.309 240.925 189.309 240.776C189.309 240.744 189.32 240.696 189.341 240.632L194.029 229.88C194.093 229.72 194.221 229.64 194.413 229.64H194.749C194.941 229.64 195.037 229.715 195.037 229.864C195.037 229.896 195.027 229.944 195.005 230.008L190.317 240.76C190.253 240.92 190.125 241 189.933 241H189.597ZM201.486 233.368C201.55 233.197 201.673 233.112 201.854 233.112H202.286C202.372 233.112 202.441 233.133 202.494 233.176C202.548 233.219 202.574 233.277 202.574 233.352L202.542 233.48L199.454 242.2C199.284 242.68 199.118 243.053 198.958 243.32C198.798 243.587 198.58 243.789 198.302 243.928C198.036 244.067 197.684 244.136 197.246 244.136C196.969 244.136 196.724 244.115 196.51 244.072C196.404 244.061 196.329 244.019 196.286 243.944C196.254 243.869 196.249 243.784 196.27 243.688L196.318 243.48C196.361 243.288 196.484 243.203 196.686 243.224C196.878 243.256 197.044 243.272 197.182 243.272C197.524 243.272 197.79 243.176 197.982 242.984C198.185 242.792 198.377 242.429 198.558 241.896L198.702 241.448L195.886 233.48L195.854 233.352C195.854 233.277 195.881 233.219 195.934 233.176C195.988 233.133 196.057 233.112 196.142 233.112H196.606C196.777 233.112 196.894 233.197 196.958 233.368L197.854 236.008C197.94 236.275 198.153 236.909 198.494 237.912L199.214 240.072C199.566 239.08 200.03 237.715 200.606 235.976L201.486 233.368ZM209.064 233.368C209.128 233.197 209.251 233.112 209.432 233.112H209.864C209.95 233.112 210.019 233.133 210.072 233.176C210.126 233.219 210.152 233.277 210.152 233.352L210.12 233.48L207.032 242.2C206.862 242.68 206.696 243.053 206.536 243.32C206.376 243.587 206.158 243.789 205.88 243.928C205.614 244.067 205.262 244.136 204.824 244.136C204.547 244.136 204.302 244.115 204.088 244.072C203.982 244.061 203.907 244.019 203.864 243.944C203.832 243.869 203.827 243.784 203.848 243.688L203.896 243.48C203.939 243.288 204.062 243.203 204.264 243.224C204.456 243.256 204.622 243.272 204.76 243.272C205.102 243.272 205.368 243.176 205.56 242.984C205.763 242.792 205.955 242.429 206.136 241.896L206.28 241.448L203.464 233.48L203.432 233.352C203.432 233.277 203.459 233.219 203.512 233.176C203.566 233.133 203.635 233.112 203.72 233.112H204.184C204.355 233.112 204.472 233.197 204.536 233.368L205.432 236.008C205.518 236.275 205.731 236.909 206.072 237.912L206.792 240.072C207.144 239.08 207.608 237.715 208.184 235.976L209.064 233.368ZM216.643 233.368C216.707 233.197 216.829 233.112 217.011 233.112H217.443C217.528 233.112 217.597 233.133 217.651 233.176C217.704 233.219 217.731 233.277 217.731 233.352L217.699 233.48L214.611 242.2C214.44 242.68 214.275 243.053 214.115 243.32C213.955 243.587 213.736 243.789 213.459 243.928C213.192 244.067 212.84 244.136 212.403 244.136C212.125 244.136 211.88 244.115 211.667 244.072C211.56 244.061 211.485 244.019 211.443 243.944C211.411 243.869 211.405 243.784 211.427 243.688L211.475 243.48C211.517 243.288 211.64 243.203 211.843 243.224C212.035 243.256 212.2 243.272 212.339 243.272C212.68 243.272 212.947 243.176 213.139 242.984C213.341 242.792 213.533 242.429 213.715 241.896L213.859 241.448L211.043 233.48L211.011 233.352C211.011 233.277 211.037 233.219 211.09 233.176C211.144 233.133 211.213 233.112 211.299 233.112H211.763C211.933 233.112 212.051 233.197 212.115 233.368L213.011 236.008C213.096 236.275 213.309 236.909 213.651 237.912L214.371 240.072C214.723 239.08 215.187 237.715 215.763 235.976L216.643 233.368ZM224.221 233.368C224.285 233.197 224.407 233.112 224.589 233.112H225.021C225.106 233.112 225.175 233.133 225.229 233.176C225.282 233.219 225.309 233.277 225.309 233.352L225.277 233.48L222.189 242.2C222.018 242.68 221.853 243.053 221.693 243.32C221.533 243.587 221.314 243.789 221.037 243.928C220.77 244.067 220.418 244.136 219.981 244.136C219.703 244.136 219.458 244.115 219.245 244.072C219.138 244.061 219.063 244.019 219.021 243.944C218.989 243.869 218.983 243.784 219.005 243.688L219.053 243.48C219.095 243.288 219.218 243.203 219.421 243.224C219.613 243.256 219.778 243.272 219.917 243.272C220.258 243.272 220.525 243.176 220.717 242.984C220.919 242.792 221.111 242.429 221.293 241.896L221.437 241.448L218.621 233.48L218.589 233.352C218.589 233.277 218.615 233.219 218.669 233.176C218.722 233.133 218.791 233.112 218.877 233.112H219.341C219.511 233.112 219.629 233.197 219.693 233.368L220.589 236.008C220.674 236.275 220.887 236.909 221.229 237.912L221.949 240.072C222.301 239.08 222.765 237.715 223.341 235.976L224.221 233.368Z" fill="#1B1B1F"/>
<path d="M320.5 229.5V231.5M314.5 229.5V231.5M312 233.5H323M315 236L316 235.5V239.5M318.134 236C318.202 235.882 318.294 235.78 318.403 235.699C318.513 235.617 318.638 235.56 318.771 235.529C318.903 235.498 319.041 235.494 319.175 235.518C319.309 235.542 319.437 235.593 319.55 235.668C319.664 235.743 319.761 235.841 319.836 235.955C319.91 236.069 319.961 236.197 319.984 236.332C320.007 236.466 320.003 236.603 319.971 236.736C319.939 236.868 319.88 236.993 319.799 237.102L318 239.5H320M312.5 230.5H322.5C322.776 230.5 323 230.724 323 231V241C323 241.276 322.776 241.5 322.5 241.5H312.5C312.224 241.5 312 241.276 312 241V231C312 230.724 312.224 230.5 312.5 230.5Z" stroke="#1B1B1F" stroke-linecap="round" stroke-linejoin="round"/>
</g>
<defs>
<clipPath id="clip0_2001_21461">
<rect width="187" height="22" fill="white" transform="translate(138.5 115)"/>
</clipPath>
<clipPath id="clip1_2001_21461">
<rect width="187" height="22" fill="white" transform="translate(138.5 225)"/>
</clipPath>
</defs>
</svg>
