<svg width="464" height="250" viewBox="0 0 464 250" fill="none" xmlns="http://www.w3.org/2000/svg">
<rect width="464" height="250" rx="8" fill="white"/>
<path d="M132.068 94C131.919 94 131.797 93.958 131.704 93.874C131.62 93.7807 131.578 93.6593 131.578 93.51V84.55C131.578 84.3913 131.62 84.27 131.704 84.186C131.797 84.102 131.919 84.06 132.068 84.06H135.442C136.375 84.06 137.173 84.27 137.836 84.69C138.508 85.11 139.017 85.698 139.362 86.454C139.717 87.2007 139.894 88.0593 139.894 89.03C139.894 90.0007 139.717 90.864 139.362 91.62C139.017 92.3667 138.508 92.95 137.836 93.37C137.173 93.79 136.375 94 135.442 94H132.068ZM135.204 92.656C136.156 92.656 136.903 92.3433 137.444 91.718C137.995 91.0833 138.27 90.1873 138.27 89.03C138.27 87.8727 137.995 86.9813 137.444 86.356C136.903 85.7213 136.156 85.404 135.204 85.404H133.174V92.656H135.204ZM144.192 86.888C145.125 86.888 145.844 87.1073 146.348 87.546C146.852 87.9753 147.104 88.5493 147.104 89.268V93.51C147.104 93.6593 147.062 93.7807 146.978 93.874C146.894 93.958 146.772 94 146.614 94H146.25C146.1 94 145.979 93.958 145.886 93.874C145.802 93.7807 145.76 93.6593 145.76 93.51V93.202C145.536 93.5287 145.228 93.7807 144.836 93.958C144.444 94.1353 143.986 94.224 143.464 94.224C142.745 94.224 142.152 94.0653 141.686 93.748C141.228 93.4213 141 92.9313 141 92.278C141 91.55 141.27 91.0133 141.812 90.668C142.362 90.3133 143.123 90.0473 144.094 89.87L145.676 89.576V89.324C145.676 88.9413 145.54 88.6473 145.27 88.442C145.008 88.2273 144.658 88.12 144.22 88.12C143.846 88.12 143.52 88.1853 143.24 88.316C142.969 88.4373 142.675 88.6427 142.358 88.932C142.236 89.0347 142.12 89.086 142.008 89.086C141.896 89.086 141.779 89.0347 141.658 88.932L141.434 88.736C141.312 88.624 141.252 88.5027 141.252 88.372C141.252 88.2507 141.308 88.134 141.42 88.022C141.821 87.6393 142.246 87.3547 142.694 87.168C143.142 86.9813 143.641 86.888 144.192 86.888ZM143.674 93.034C144.234 93.034 144.705 92.8847 145.088 92.586C145.48 92.2873 145.676 91.858 145.676 91.298V90.654L144.458 90.906C143.776 91.046 143.272 91.2047 142.946 91.382C142.619 91.5593 142.456 91.83 142.456 92.194C142.456 92.4553 142.563 92.6607 142.778 92.81C142.992 92.9593 143.291 93.034 143.674 93.034ZM151.981 92.824C152.009 92.8147 152.051 92.81 152.107 92.81C152.34 92.81 152.48 92.9453 152.527 93.216L152.569 93.44C152.578 93.468 152.583 93.5147 152.583 93.58C152.583 93.8133 152.452 93.9627 152.191 94.028C151.818 94.112 151.477 94.154 151.169 94.154C150.506 94.154 150.026 94 149.727 93.692C149.438 93.384 149.293 92.922 149.293 92.306V88.232H148.523C148.374 88.232 148.252 88.19 148.159 88.106C148.075 88.0127 148.033 87.8913 148.033 87.742V87.588C148.033 87.4293 148.075 87.308 148.159 87.224C148.252 87.14 148.374 87.098 148.523 87.098H149.293V85.362C149.293 85.2033 149.335 85.082 149.419 84.998C149.512 84.914 149.634 84.872 149.783 84.872H150.287C150.446 84.872 150.567 84.914 150.651 84.998C150.735 85.082 150.777 85.2033 150.777 85.362V87.098H152.037C152.196 87.098 152.317 87.14 152.401 87.224C152.485 87.308 152.527 87.4293 152.527 87.588V87.742C152.527 87.8913 152.485 88.0127 152.401 88.106C152.317 88.19 152.196 88.232 152.037 88.232H150.777V92.124C150.777 92.3947 150.833 92.586 150.945 92.698C151.066 92.81 151.258 92.866 151.519 92.866C151.631 92.866 151.785 92.852 151.981 92.824ZM158.472 92.236C158.593 92.1333 158.71 92.082 158.822 92.082C158.934 92.082 159.05 92.1427 159.172 92.264L159.368 92.474C159.47 92.5953 159.522 92.712 159.522 92.824C159.522 92.9453 159.461 93.062 159.34 93.174C158.91 93.5473 158.481 93.8133 158.052 93.972C157.632 94.1307 157.165 94.21 156.652 94.21C155.933 94.21 155.308 94.0607 154.776 93.762C154.253 93.4633 153.847 93.0433 153.558 92.502C153.278 91.9513 153.138 91.3167 153.138 90.598C153.138 89.8887 153.273 89.254 153.544 88.694C153.824 88.1247 154.216 87.6813 154.72 87.364C155.233 87.0467 155.83 86.888 156.512 86.888C157.529 86.888 158.313 87.1913 158.864 87.798C159.414 88.3953 159.69 89.2213 159.69 90.276V90.402C159.68 90.5513 159.634 90.668 159.55 90.752C159.466 90.836 159.344 90.878 159.186 90.878H154.594C154.65 91.494 154.85 91.998 155.196 92.39C155.55 92.7727 156.045 92.964 156.68 92.964C157.025 92.964 157.328 92.9127 157.59 92.81C157.851 92.698 158.145 92.5067 158.472 92.236ZM156.484 88.064C155.97 88.064 155.555 88.218 155.238 88.526C154.93 88.8247 154.729 89.2493 154.636 89.8H158.234C158.196 89.2587 158.028 88.834 157.73 88.526C157.431 88.218 157.016 88.064 156.484 88.064Z" fill="#1B1B1F"/>
<rect x="131.5" y="103" width="201" height="46" rx="3" fill="white"/>
<rect x="131.5" y="103" width="201" height="46" rx="3" stroke="#D91F0A" stroke-width="2"/>
<g clip-path="url(#clip0_2001_21472)">
<path d="M146.644 130.072C146.857 130.072 146.964 130.179 146.964 130.392V130.68C146.964 130.893 146.857 131 146.644 131H139.54C139.327 131 139.22 130.893 139.22 130.68V130.616C139.22 129.837 139.353 129.181 139.62 128.648C139.897 128.104 140.255 127.645 140.692 127.272C141.14 126.899 141.753 126.472 142.532 125.992C142.607 125.939 142.884 125.773 143.364 125.496C143.929 125.176 144.372 124.899 144.692 124.664C145.012 124.429 145.279 124.141 145.492 123.8C145.705 123.448 145.812 123.037 145.812 122.568C145.812 121.853 145.572 121.304 145.092 120.92C144.612 120.536 144.031 120.344 143.348 120.344C142.687 120.344 142.137 120.483 141.7 120.76C141.263 121.037 140.756 121.517 140.18 122.2C140.105 122.296 140.015 122.344 139.908 122.344C139.855 122.344 139.791 122.317 139.716 122.264L139.444 122.056C139.348 121.971 139.3 121.885 139.3 121.8C139.3 121.747 139.327 121.683 139.38 121.608C139.945 120.893 140.532 120.349 141.14 119.976C141.759 119.603 142.484 119.416 143.316 119.416C144.009 119.416 144.628 119.549 145.172 119.816C145.716 120.072 146.137 120.44 146.436 120.92C146.745 121.389 146.9 121.923 146.9 122.52C146.9 123.149 146.767 123.693 146.5 124.152C146.244 124.6 145.919 124.973 145.524 125.272C145.129 125.56 144.596 125.901 143.924 126.296L143.124 126.776C142.452 127.192 141.94 127.533 141.588 127.8C141.236 128.056 140.943 128.371 140.708 128.744C140.473 129.107 140.335 129.549 140.292 130.072H146.644ZM152.566 131.24C151.819 131.24 151.163 131.059 150.598 130.696C150.043 130.333 149.6 129.827 149.27 129.176C148.747 128.141 148.486 126.856 148.486 125.32C148.486 123.773 148.747 122.483 149.27 121.448C149.6 120.797 150.043 120.296 150.598 119.944C151.163 119.581 151.819 119.4 152.566 119.4C153.312 119.4 153.963 119.581 154.518 119.944C155.083 120.296 155.531 120.797 155.862 121.448C156.384 122.483 156.646 123.773 156.646 125.32C156.646 126.856 156.384 128.141 155.862 129.176C155.531 129.827 155.083 130.333 154.518 130.696C153.963 131.059 153.312 131.24 152.566 131.24ZM152.566 130.312C153.611 130.312 154.395 129.768 154.918 128.68C155.334 127.795 155.542 126.675 155.542 125.32C155.542 123.944 155.334 122.819 154.918 121.944C154.406 120.867 153.622 120.328 152.566 120.328C151.51 120.328 150.726 120.867 150.214 121.944C149.798 122.819 149.59 123.944 149.59 125.32C149.59 126.685 149.798 127.805 150.214 128.68C150.736 129.768 151.52 130.312 152.566 130.312ZM158.819 131.112C158.595 131.112 158.403 131.032 158.243 130.872C158.083 130.712 158.003 130.52 158.003 130.296C158.003 130.072 158.083 129.88 158.243 129.72C158.403 129.56 158.595 129.48 158.819 129.48C159.043 129.48 159.235 129.56 159.395 129.72C159.555 129.88 159.635 130.072 159.635 130.296C159.635 130.52 159.555 130.712 159.395 130.872C159.235 131.032 159.043 131.112 158.819 131.112ZM164.437 119.4C165.29 119.4 166.021 119.592 166.629 119.976C167.237 120.349 167.696 120.861 168.005 121.512C168.314 122.163 168.469 122.893 168.469 123.704C168.469 124.557 168.32 125.352 168.021 126.088C167.722 126.824 167.322 127.507 166.821 128.136C166.33 128.765 165.712 129.437 164.965 130.152L164.245 130.84C164.138 130.947 164.01 131 163.861 131H163.221C163.04 131 162.949 130.941 162.949 130.824C162.949 130.76 162.992 130.685 163.077 130.6L164.085 129.672C165.706 128.189 166.741 126.851 167.189 125.656C166.88 126.083 166.474 126.424 165.973 126.68C165.472 126.925 164.901 127.048 164.261 127.048C163.482 127.048 162.805 126.877 162.229 126.536C161.653 126.184 161.21 125.72 160.901 125.144C160.602 124.557 160.453 123.923 160.453 123.24C160.453 122.557 160.613 121.923 160.933 121.336C161.253 120.749 161.712 120.28 162.309 119.928C162.917 119.576 163.626 119.4 164.437 119.4ZM164.341 126.12C164.949 126.12 165.477 125.992 165.925 125.736C166.384 125.48 166.73 125.133 166.965 124.696C167.21 124.259 167.333 123.768 167.333 123.224C167.333 122.68 167.216 122.189 166.981 121.752C166.746 121.304 166.41 120.957 165.973 120.712C165.536 120.456 165.024 120.328 164.437 120.328C163.552 120.328 162.848 120.6 162.325 121.144C161.813 121.688 161.557 122.381 161.557 123.224C161.557 124.067 161.802 124.76 162.293 125.304C162.784 125.848 163.466 126.12 164.341 126.12ZM173.89 119.4C174.743 119.4 175.474 119.592 176.082 119.976C176.69 120.349 177.149 120.861 177.458 121.512C177.767 122.163 177.922 122.893 177.922 123.704C177.922 124.557 177.773 125.352 177.474 126.088C177.175 126.824 176.775 127.507 176.274 128.136C175.783 128.765 175.165 129.437 174.418 130.152L173.698 130.84C173.591 130.947 173.463 131 173.314 131H172.674C172.493 131 172.402 130.941 172.402 130.824C172.402 130.76 172.445 130.685 172.53 130.6L173.538 129.672C175.159 128.189 176.194 126.851 176.642 125.656C176.333 126.083 175.927 126.424 175.426 126.68C174.925 126.925 174.354 127.048 173.714 127.048C172.935 127.048 172.258 126.877 171.682 126.536C171.106 126.184 170.663 125.72 170.354 125.144C170.055 124.557 169.906 123.923 169.906 123.24C169.906 122.557 170.066 121.923 170.386 121.336C170.706 120.749 171.165 120.28 171.762 119.928C172.37 119.576 173.079 119.4 173.89 119.4ZM173.794 126.12C174.402 126.12 174.93 125.992 175.378 125.736C175.837 125.48 176.183 125.133 176.418 124.696C176.663 124.259 176.786 123.768 176.786 123.224C176.786 122.68 176.669 122.189 176.434 121.752C176.199 121.304 175.863 120.957 175.426 120.712C174.989 120.456 174.477 120.328 173.89 120.328C173.005 120.328 172.301 120.6 171.778 121.144C171.266 121.688 171.01 122.381 171.01 123.224C171.01 124.067 171.255 124.76 171.746 125.304C172.237 125.848 172.919 126.12 173.794 126.12ZM180.288 131.112C180.064 131.112 179.872 131.032 179.712 130.872C179.552 130.712 179.472 130.52 179.472 130.296C179.472 130.072 179.552 129.88 179.712 129.72C179.872 129.56 180.064 129.48 180.288 129.48C180.512 129.48 180.704 129.56 180.864 129.72C181.024 129.88 181.104 130.072 181.104 130.296C181.104 130.52 181.024 130.712 180.864 130.872C180.704 131.032 180.512 131.112 180.288 131.112ZM190.363 130.072C190.576 130.072 190.683 130.179 190.683 130.392V130.68C190.683 130.893 190.576 131 190.363 131H183.259C183.045 131 182.939 130.893 182.939 130.68V130.616C182.939 129.837 183.072 129.181 183.339 128.648C183.616 128.104 183.973 127.645 184.411 127.272C184.859 126.899 185.472 126.472 186.251 125.992C186.325 125.939 186.603 125.773 187.083 125.496C187.648 125.176 188.091 124.899 188.411 124.664C188.731 124.429 188.997 124.141 189.211 123.8C189.424 123.448 189.531 123.037 189.531 122.568C189.531 121.853 189.291 121.304 188.811 120.92C188.331 120.536 187.749 120.344 187.067 120.344C186.405 120.344 185.856 120.483 185.419 120.76C184.981 121.037 184.475 121.517 183.899 122.2C183.824 122.296 183.733 122.344 183.627 122.344C183.573 122.344 183.509 122.317 183.435 122.264L183.163 122.056C183.067 121.971 183.019 121.885 183.019 121.8C183.019 121.747 183.045 121.683 183.099 121.608C183.664 120.893 184.251 120.349 184.859 119.976C185.477 119.603 186.203 119.416 187.035 119.416C187.728 119.416 188.347 119.549 188.891 119.816C189.435 120.072 189.856 120.44 190.155 120.92C190.464 121.389 190.619 121.923 190.619 122.52C190.619 123.149 190.485 123.693 190.219 124.152C189.963 124.6 189.637 124.973 189.243 125.272C188.848 125.56 188.315 125.901 187.643 126.296L186.843 126.776C186.171 127.192 185.659 127.533 185.307 127.8C184.955 128.056 184.661 128.371 184.427 128.744C184.192 129.107 184.053 129.549 184.011 130.072H190.363ZM196.284 131.24C195.538 131.24 194.882 131.059 194.316 130.696C193.762 130.333 193.319 129.827 192.988 129.176C192.466 128.141 192.204 126.856 192.204 125.32C192.204 123.773 192.466 122.483 192.988 121.448C193.319 120.797 193.762 120.296 194.316 119.944C194.882 119.581 195.538 119.4 196.284 119.4C197.031 119.4 197.682 119.581 198.236 119.944C198.802 120.296 199.25 120.797 199.58 121.448C200.103 122.483 200.364 123.773 200.364 125.32C200.364 126.856 200.103 128.141 199.58 129.176C199.25 129.827 198.802 130.333 198.236 130.696C197.682 131.059 197.031 131.24 196.284 131.24ZM196.284 130.312C197.33 130.312 198.114 129.768 198.636 128.68C199.052 127.795 199.26 126.675 199.26 125.32C199.26 123.944 199.052 122.819 198.636 121.944C198.124 120.867 197.34 120.328 196.284 120.328C195.228 120.328 194.444 120.867 193.932 121.944C193.516 122.819 193.308 123.944 193.308 125.32C193.308 126.685 193.516 127.805 193.932 128.68C194.455 129.768 195.239 130.312 196.284 130.312ZM209.253 130.072C209.467 130.072 209.573 130.179 209.573 130.392V130.68C209.573 130.893 209.467 131 209.253 131H202.149C201.936 131 201.829 130.893 201.829 130.68V130.616C201.829 129.837 201.963 129.181 202.229 128.648C202.507 128.104 202.864 127.645 203.301 127.272C203.749 126.899 204.363 126.472 205.141 125.992C205.216 125.939 205.493 125.773 205.973 125.496C206.539 125.176 206.981 124.899 207.301 124.664C207.621 124.429 207.888 124.141 208.101 123.8C208.315 123.448 208.421 123.037 208.421 122.568C208.421 121.853 208.181 121.304 207.701 120.92C207.221 120.536 206.64 120.344 205.957 120.344C205.296 120.344 204.747 120.483 204.309 120.76C203.872 121.037 203.365 121.517 202.789 122.2C202.715 122.296 202.624 122.344 202.517 122.344C202.464 122.344 202.4 122.317 202.325 122.264L202.053 122.056C201.957 121.971 201.909 121.885 201.909 121.8C201.909 121.747 201.936 121.683 201.989 121.608C202.555 120.893 203.141 120.349 203.749 119.976C204.368 119.603 205.093 119.416 205.925 119.416C206.619 119.416 207.237 119.549 207.781 119.816C208.325 120.072 208.747 120.44 209.045 120.92C209.355 121.389 209.509 121.923 209.509 122.52C209.509 123.149 209.376 123.693 209.109 124.152C208.853 124.6 208.528 124.973 208.133 125.272C207.739 125.56 207.205 125.901 206.533 126.296L205.733 126.776C205.061 127.192 204.549 127.533 204.197 127.8C203.845 128.056 203.552 128.371 203.317 128.744C203.083 129.107 202.944 129.549 202.901 130.072H209.253ZM215.18 123.672C215.916 123.672 216.561 123.827 217.116 124.136C217.681 124.435 218.118 124.861 218.428 125.416C218.737 125.971 218.892 126.611 218.892 127.336C218.892 127.987 218.737 128.611 218.428 129.208C218.118 129.805 217.67 130.291 217.084 130.664C216.497 131.037 215.809 131.224 215.02 131.224C214.252 131.224 213.585 131.128 213.02 130.936C212.465 130.744 211.836 130.413 211.132 129.944C211.025 129.88 210.972 129.795 210.972 129.688C210.972 129.613 210.993 129.549 211.036 129.496L211.243 129.208C211.308 129.112 211.382 129.064 211.468 129.064C211.532 129.064 211.606 129.091 211.692 129.144C212.342 129.581 212.897 129.885 213.356 130.056C213.825 130.227 214.342 130.312 214.908 130.312C215.505 130.312 216.022 130.179 216.46 129.912C216.897 129.635 217.228 129.272 217.452 128.824C217.686 128.365 217.804 127.869 217.804 127.336C217.804 126.483 217.564 125.816 217.084 125.336C216.614 124.856 215.937 124.616 215.052 124.616C214.102 124.616 213.308 124.904 212.668 125.48C212.55 125.587 212.412 125.629 212.252 125.608L211.9 125.56C211.804 125.549 211.729 125.512 211.676 125.448C211.622 125.384 211.601 125.304 211.612 125.208L212.044 119.944C212.054 119.848 212.086 119.773 212.14 119.72C212.204 119.667 212.284 119.64 212.38 119.64H218.076C218.289 119.64 218.396 119.747 218.396 119.96V120.248C218.396 120.461 218.289 120.568 218.076 120.568H212.988L212.652 124.504C212.95 124.259 213.313 124.061 213.74 123.912C214.177 123.752 214.657 123.672 215.18 123.672Z" fill="#1B1B1F"/>
<path d="M320.5 119.5V121.5M314.5 119.5V121.5M312 123.5H323M315 126L316 125.5V129.5M318.134 126C318.202 125.882 318.294 125.78 318.403 125.699C318.513 125.617 318.638 125.56 318.771 125.529C318.903 125.498 319.041 125.494 319.175 125.518C319.309 125.542 319.437 125.593 319.55 125.668C319.664 125.743 319.761 125.841 319.836 125.955C319.91 126.069 319.961 126.197 319.984 126.332C320.007 126.466 320.003 126.603 319.971 126.736C319.939 126.868 319.88 126.993 319.799 127.102L318 129.5H320M312.5 120.5H322.5C322.776 120.5 323 120.724 323 121V131C323 131.276 322.776 131.5 322.5 131.5H312.5C312.224 131.5 312 131.276 312 131V121C312 120.724 312.224 120.5 312.5 120.5Z" stroke="#1B1B1F" stroke-linecap="round" stroke-linejoin="round"/>
</g>
<path d="M131.772 166C131.612 166 131.532 165.92 131.532 165.76V157.72C131.532 157.56 131.612 157.48 131.772 157.48H136.812C136.972 157.48 137.052 157.56 137.052 157.72V157.948C137.052 158.108 136.972 158.188 136.812 158.188H132.384V161.272H136.476C136.636 161.272 136.716 161.352 136.716 161.512V161.728C136.716 161.888 136.636 161.968 136.476 161.968H132.384V165.292H136.908C137.068 165.292 137.148 165.372 137.148 165.532V165.76C137.148 165.92 137.068 166 136.908 166H131.772ZM140.791 160.036C140.991 160.036 141.227 160.068 141.499 160.132C141.643 160.18 141.699 160.28 141.667 160.432L141.619 160.624C141.579 160.776 141.479 160.832 141.319 160.792C141.127 160.744 140.951 160.72 140.791 160.72C140.383 160.72 140.043 160.896 139.771 161.248C139.507 161.6 139.375 162.088 139.375 162.712V165.76C139.375 165.92 139.295 166 139.135 166H138.823C138.663 166 138.583 165.92 138.583 165.76V160.324C138.583 160.164 138.663 160.084 138.823 160.084H139.087C139.247 160.084 139.327 160.164 139.327 160.324V160.984C139.463 160.688 139.655 160.456 139.903 160.288C140.159 160.12 140.455 160.036 140.791 160.036ZM144.951 160.036C145.151 160.036 145.387 160.068 145.659 160.132C145.803 160.18 145.859 160.28 145.827 160.432L145.779 160.624C145.739 160.776 145.639 160.832 145.479 160.792C145.287 160.744 145.111 160.72 144.951 160.72C144.543 160.72 144.203 160.896 143.931 161.248C143.667 161.6 143.535 162.088 143.535 162.712V165.76C143.535 165.92 143.455 166 143.295 166H142.983C142.823 166 142.743 165.92 142.743 165.76V160.324C142.743 160.164 142.823 160.084 142.983 160.084H143.247C143.407 160.084 143.487 160.164 143.487 160.324V160.984C143.623 160.688 143.815 160.456 144.063 160.288C144.319 160.12 144.615 160.036 144.951 160.036ZM149.024 166.156C148.472 166.156 147.98 166.024 147.548 165.76C147.116 165.496 146.78 165.132 146.54 164.668C146.3 164.196 146.18 163.656 146.18 163.048C146.18 162.44 146.3 161.904 146.54 161.44C146.78 160.968 147.116 160.6 147.548 160.336C147.98 160.072 148.472 159.94 149.024 159.94C149.576 159.94 150.068 160.072 150.5 160.336C150.932 160.6 151.268 160.968 151.508 161.44C151.748 161.904 151.868 162.44 151.868 163.048C151.868 163.656 151.748 164.196 151.508 164.668C151.268 165.132 150.932 165.496 150.5 165.76C150.068 166.024 149.576 166.156 149.024 166.156ZM149.024 165.496C149.64 165.496 150.132 165.272 150.5 164.824C150.868 164.368 151.052 163.776 151.052 163.048C151.052 162.32 150.868 161.732 150.5 161.284C150.132 160.828 149.64 160.6 149.024 160.6C148.408 160.6 147.916 160.828 147.548 161.284C147.18 161.732 146.996 162.32 146.996 163.048C146.996 163.776 147.18 164.368 147.548 164.824C147.916 165.272 148.408 165.496 149.024 165.496ZM155.451 160.036C155.651 160.036 155.887 160.068 156.159 160.132C156.303 160.18 156.359 160.28 156.327 160.432L156.279 160.624C156.239 160.776 156.139 160.832 155.979 160.792C155.787 160.744 155.611 160.72 155.451 160.72C155.043 160.72 154.703 160.896 154.431 161.248C154.167 161.6 154.035 162.088 154.035 162.712V165.76C154.035 165.92 153.955 166 153.795 166H153.483C153.323 166 153.243 165.92 153.243 165.76V160.324C153.243 160.164 153.323 160.084 153.483 160.084H153.747C153.907 160.084 153.987 160.164 153.987 160.324V160.984C154.123 160.688 154.315 160.456 154.563 160.288C154.819 160.12 155.115 160.036 155.451 160.036ZM166.181 159.94C166.821 159.94 167.309 160.124 167.645 160.492C167.989 160.852 168.161 161.316 168.161 161.884V165.76C168.161 165.92 168.081 166 167.921 166H167.609C167.449 166 167.369 165.92 167.369 165.76V162.1C167.369 161.62 167.257 161.252 167.033 160.996C166.817 160.74 166.493 160.612 166.061 160.612C165.605 160.612 165.241 160.764 164.969 161.068C164.697 161.372 164.561 161.764 164.561 162.244V165.76C164.561 165.92 164.481 166 164.321 166H164.009C163.849 166 163.769 165.92 163.769 165.76V162.1C163.769 161.62 163.657 161.252 163.433 160.996C163.217 160.74 162.889 160.612 162.449 160.612C162.041 160.612 161.701 160.74 161.429 160.996C161.165 161.252 161.009 161.588 160.961 162.004V165.76C160.961 165.92 160.881 166 160.721 166H160.409C160.249 166 160.169 165.92 160.169 165.76V160.324C160.169 160.164 160.249 160.084 160.409 160.084H160.673C160.833 160.084 160.913 160.164 160.913 160.324V160.816C161.273 160.232 161.845 159.94 162.629 159.94C163.037 159.94 163.385 160.032 163.673 160.216C163.969 160.392 164.189 160.632 164.333 160.936C164.757 160.272 165.373 159.94 166.181 159.94ZM174.216 164.596C174.272 164.54 174.332 164.512 174.396 164.512C174.452 164.512 174.504 164.536 174.552 164.584L174.708 164.728C174.764 164.784 174.792 164.844 174.792 164.908C174.792 164.956 174.768 165.012 174.72 165.076C174.328 165.468 173.948 165.748 173.58 165.916C173.212 166.076 172.8 166.156 172.344 166.156C171.768 166.156 171.268 166.028 170.844 165.772C170.42 165.516 170.092 165.16 169.86 164.704C169.628 164.24 169.512 163.704 169.512 163.096C169.512 162.48 169.624 161.936 169.848 161.464C170.08 160.984 170.404 160.612 170.82 160.348C171.236 160.076 171.716 159.94 172.26 159.94C173.068 159.94 173.704 160.192 174.168 160.696C174.632 161.2 174.864 161.88 174.864 162.736V162.88C174.856 162.952 174.828 163.008 174.78 163.048C174.74 163.088 174.684 163.108 174.612 163.108H170.316C170.34 163.78 170.516 164.348 170.844 164.812C171.18 165.268 171.68 165.496 172.344 165.496C172.704 165.496 173.02 165.432 173.292 165.304C173.572 165.168 173.88 164.932 174.216 164.596ZM172.26 160.6C171.732 160.6 171.296 160.764 170.952 161.092C170.616 161.412 170.412 161.884 170.34 162.508H174.072C174.056 161.924 173.888 161.46 173.568 161.116C173.248 160.772 172.812 160.6 172.26 160.6ZM178.393 166.156C177.905 166.156 177.473 166.088 177.097 165.952C176.729 165.808 176.341 165.568 175.933 165.232C175.861 165.184 175.825 165.128 175.825 165.064C175.825 165.008 175.853 164.952 175.909 164.896L176.065 164.728C176.113 164.664 176.173 164.632 176.245 164.632C176.301 164.632 176.353 164.656 176.401 164.704C176.785 165 177.125 165.208 177.421 165.328C177.717 165.44 178.041 165.496 178.393 165.496C178.833 165.496 179.193 165.4 179.473 165.208C179.753 165.008 179.893 164.74 179.893 164.404C179.893 164.068 179.749 163.82 179.461 163.66C179.173 163.5 178.729 163.356 178.129 163.228C177.601 163.116 177.185 163 176.881 162.88C176.585 162.752 176.365 162.592 176.221 162.4C176.077 162.208 176.005 161.956 176.005 161.644C176.005 161.132 176.213 160.72 176.629 160.408C177.045 160.096 177.569 159.94 178.201 159.94C178.633 159.94 179.017 159.996 179.353 160.108C179.697 160.212 180.041 160.388 180.385 160.636C180.457 160.692 180.493 160.752 180.493 160.816C180.493 160.856 180.473 160.908 180.433 160.972L180.289 161.152C180.249 161.216 180.193 161.248 180.121 161.248C180.057 161.248 180.001 161.228 179.953 161.188C179.625 160.956 179.333 160.8 179.077 160.72C178.829 160.64 178.545 160.6 178.225 160.6C177.785 160.6 177.433 160.696 177.169 160.888C176.905 161.08 176.773 161.324 176.773 161.62C176.773 161.804 176.833 161.952 176.953 162.064C177.073 162.176 177.245 162.272 177.469 162.352C177.693 162.424 178.021 162.508 178.453 162.604C179.253 162.78 179.821 162.996 180.157 163.252C180.501 163.508 180.673 163.88 180.673 164.368C180.673 164.904 180.461 165.336 180.037 165.664C179.613 165.992 179.065 166.156 178.393 166.156ZM184.077 166.156C183.589 166.156 183.157 166.088 182.781 165.952C182.413 165.808 182.025 165.568 181.617 165.232C181.545 165.184 181.509 165.128 181.509 165.064C181.509 165.008 181.537 164.952 181.593 164.896L181.749 164.728C181.797 164.664 181.857 164.632 181.929 164.632C181.985 164.632 182.037 164.656 182.085 164.704C182.469 165 182.809 165.208 183.105 165.328C183.401 165.44 183.725 165.496 184.077 165.496C184.517 165.496 184.877 165.4 185.157 165.208C185.437 165.008 185.577 164.74 185.577 164.404C185.577 164.068 185.433 163.82 185.145 163.66C184.857 163.5 184.413 163.356 183.813 163.228C183.285 163.116 182.869 163 182.565 162.88C182.269 162.752 182.049 162.592 181.905 162.4C181.761 162.208 181.689 161.956 181.689 161.644C181.689 161.132 181.897 160.72 182.313 160.408C182.729 160.096 183.253 159.94 183.885 159.94C184.317 159.94 184.701 159.996 185.037 160.108C185.381 160.212 185.725 160.388 186.069 160.636C186.141 160.692 186.177 160.752 186.177 160.816C186.177 160.856 186.157 160.908 186.117 160.972L185.973 161.152C185.933 161.216 185.877 161.248 185.805 161.248C185.741 161.248 185.685 161.228 185.637 161.188C185.309 160.956 185.017 160.8 184.761 160.72C184.513 160.64 184.229 160.6 183.909 160.6C183.469 160.6 183.117 160.696 182.853 160.888C182.589 161.08 182.457 161.324 182.457 161.62C182.457 161.804 182.517 161.952 182.637 162.064C182.757 162.176 182.929 162.272 183.153 162.352C183.377 162.424 183.705 162.508 184.137 162.604C184.937 162.78 185.505 162.996 185.841 163.252C186.185 163.508 186.357 163.88 186.357 164.368C186.357 164.904 186.145 165.336 185.721 165.664C185.297 165.992 184.749 166.156 184.077 166.156ZM190.023 159.94C190.751 159.94 191.319 160.116 191.727 160.468C192.135 160.812 192.339 161.268 192.339 161.836V165.76C192.339 165.92 192.259 166 192.099 166H191.859C191.699 166 191.619 165.92 191.619 165.76V165.22C191.419 165.54 191.135 165.78 190.767 165.94C190.407 166.1 190.003 166.18 189.555 166.18C188.931 166.18 188.423 166.048 188.031 165.784C187.639 165.52 187.443 165.112 187.443 164.56C187.443 164.12 187.567 163.768 187.815 163.504C188.063 163.232 188.387 163.028 188.787 162.892C189.187 162.748 189.687 162.62 190.287 162.508L191.583 162.28V161.896C191.583 161.488 191.443 161.172 191.163 160.948C190.883 160.716 190.515 160.6 190.059 160.6C189.715 160.6 189.403 160.664 189.123 160.792C188.843 160.92 188.543 161.14 188.223 161.452C188.167 161.508 188.107 161.536 188.043 161.536C187.987 161.536 187.935 161.512 187.887 161.464L187.731 161.32C187.675 161.264 187.647 161.204 187.647 161.14C187.647 161.068 187.675 161.004 187.731 160.948C188.067 160.596 188.419 160.34 188.787 160.18C189.163 160.02 189.575 159.94 190.023 159.94ZM189.591 165.52C190.167 165.52 190.643 165.368 191.019 165.064C191.395 164.76 191.583 164.372 191.583 163.9V162.892L190.467 163.108C189.947 163.212 189.535 163.312 189.231 163.408C188.927 163.504 188.683 163.644 188.499 163.828C188.315 164.012 188.223 164.252 188.223 164.548C188.223 164.852 188.343 165.092 188.583 165.268C188.831 165.436 189.167 165.52 189.591 165.52ZM198.343 160.324C198.343 160.164 198.423 160.084 198.583 160.084H198.835C198.995 160.084 199.075 160.164 199.075 160.324V165.94C199.075 166.684 198.851 167.268 198.403 167.692C197.955 168.124 197.327 168.34 196.519 168.34C195.647 168.34 194.843 168.092 194.107 167.596C194.027 167.548 193.987 167.488 193.987 167.416C193.987 167.36 194.003 167.312 194.035 167.272L194.179 167.068C194.227 166.988 194.291 166.948 194.371 166.948C194.403 166.948 194.451 166.964 194.515 166.996C194.867 167.22 195.195 167.388 195.499 167.5C195.811 167.612 196.151 167.668 196.519 167.668C197.047 167.668 197.475 167.52 197.803 167.224C198.131 166.936 198.295 166.488 198.295 165.88V164.92C197.863 165.616 197.207 165.964 196.327 165.964C195.815 165.964 195.363 165.836 194.971 165.58C194.579 165.316 194.275 164.956 194.059 164.5C193.851 164.044 193.747 163.528 193.747 162.952C193.747 162.376 193.851 161.86 194.059 161.404C194.275 160.948 194.579 160.592 194.971 160.336C195.363 160.072 195.815 159.94 196.327 159.94C196.791 159.94 197.191 160.04 197.527 160.24C197.871 160.432 198.143 160.708 198.343 161.068V160.324ZM196.411 165.292C196.987 165.292 197.447 165.076 197.791 164.644C198.135 164.204 198.307 163.64 198.307 162.952C198.307 162.264 198.135 161.704 197.791 161.272C197.447 160.832 196.987 160.612 196.411 160.612C195.827 160.612 195.371 160.828 195.043 161.26C194.723 161.692 194.563 162.256 194.563 162.952C194.563 163.648 194.723 164.212 195.043 164.644C195.371 165.076 195.827 165.292 196.411 165.292ZM205.165 164.596C205.221 164.54 205.281 164.512 205.345 164.512C205.401 164.512 205.453 164.536 205.501 164.584L205.657 164.728C205.713 164.784 205.741 164.844 205.741 164.908C205.741 164.956 205.717 165.012 205.669 165.076C205.277 165.468 204.897 165.748 204.529 165.916C204.161 166.076 203.749 166.156 203.293 166.156C202.717 166.156 202.217 166.028 201.793 165.772C201.369 165.516 201.041 165.16 200.809 164.704C200.577 164.24 200.461 163.704 200.461 163.096C200.461 162.48 200.573 161.936 200.797 161.464C201.029 160.984 201.353 160.612 201.769 160.348C202.185 160.076 202.665 159.94 203.209 159.94C204.017 159.94 204.653 160.192 205.117 160.696C205.581 161.2 205.813 161.88 205.813 162.736V162.88C205.805 162.952 205.777 163.008 205.729 163.048C205.689 163.088 205.633 163.108 205.561 163.108H201.265C201.289 163.78 201.465 164.348 201.793 164.812C202.129 165.268 202.629 165.496 203.293 165.496C203.653 165.496 203.969 165.432 204.241 165.304C204.521 165.168 204.829 164.932 205.165 164.596ZM203.209 160.6C202.681 160.6 202.245 160.764 201.901 161.092C201.565 161.412 201.361 161.884 201.289 162.508H205.021C205.005 161.924 204.837 161.46 204.517 161.116C204.197 160.772 203.761 160.6 203.209 160.6ZM214.245 160.324C214.245 160.164 214.325 160.084 214.485 160.084H214.737C214.897 160.084 214.977 160.164 214.977 160.324V165.94C214.977 166.684 214.753 167.268 214.305 167.692C213.857 168.124 213.229 168.34 212.421 168.34C211.549 168.34 210.745 168.092 210.009 167.596C209.929 167.548 209.889 167.488 209.889 167.416C209.889 167.36 209.905 167.312 209.937 167.272L210.081 167.068C210.129 166.988 210.193 166.948 210.273 166.948C210.305 166.948 210.353 166.964 210.417 166.996C210.769 167.22 211.097 167.388 211.401 167.5C211.713 167.612 212.053 167.668 212.421 167.668C212.949 167.668 213.377 167.52 213.705 167.224C214.033 166.936 214.197 166.488 214.197 165.88V164.92C213.765 165.616 213.109 165.964 212.229 165.964C211.717 165.964 211.265 165.836 210.873 165.58C210.481 165.316 210.177 164.956 209.961 164.5C209.753 164.044 209.649 163.528 209.649 162.952C209.649 162.376 209.753 161.86 209.961 161.404C210.177 160.948 210.481 160.592 210.873 160.336C211.265 160.072 211.717 159.94 212.229 159.94C212.693 159.94 213.093 160.04 213.429 160.24C213.773 160.432 214.045 160.708 214.245 161.068V160.324ZM212.313 165.292C212.889 165.292 213.349 165.076 213.693 164.644C214.037 164.204 214.209 163.64 214.209 162.952C214.209 162.264 214.037 161.704 213.693 161.272C213.349 160.832 212.889 160.612 212.313 160.612C211.729 160.612 211.273 160.828 210.945 161.26C210.625 161.692 210.465 162.256 210.465 162.952C210.465 163.648 210.625 164.212 210.945 164.644C211.273 165.076 211.729 165.292 212.313 165.292ZM219.207 166.156C218.655 166.156 218.163 166.024 217.731 165.76C217.299 165.496 216.963 165.132 216.723 164.668C216.483 164.196 216.363 163.656 216.363 163.048C216.363 162.44 216.483 161.904 216.723 161.44C216.963 160.968 217.299 160.6 217.731 160.336C218.163 160.072 218.655 159.94 219.207 159.94C219.759 159.94 220.251 160.072 220.683 160.336C221.115 160.6 221.451 160.968 221.691 161.44C221.931 161.904 222.051 162.44 222.051 163.048C222.051 163.656 221.931 164.196 221.691 164.668C221.451 165.132 221.115 165.496 220.683 165.76C220.251 166.024 219.759 166.156 219.207 166.156ZM219.207 165.496C219.823 165.496 220.315 165.272 220.683 164.824C221.051 164.368 221.235 163.776 221.235 163.048C221.235 162.32 221.051 161.732 220.683 161.284C220.315 160.828 219.823 160.6 219.207 160.6C218.591 160.6 218.099 160.828 217.731 161.284C217.363 161.732 217.179 162.32 217.179 163.048C217.179 163.776 217.363 164.368 217.731 164.824C218.099 165.272 218.591 165.496 219.207 165.496ZM227.805 164.596C227.861 164.54 227.921 164.512 227.985 164.512C228.041 164.512 228.093 164.536 228.141 164.584L228.297 164.728C228.353 164.784 228.381 164.844 228.381 164.908C228.381 164.956 228.357 165.012 228.309 165.076C227.917 165.468 227.537 165.748 227.169 165.916C226.801 166.076 226.389 166.156 225.933 166.156C225.357 166.156 224.857 166.028 224.433 165.772C224.009 165.516 223.681 165.16 223.449 164.704C223.217 164.24 223.101 163.704 223.101 163.096C223.101 162.48 223.213 161.936 223.437 161.464C223.669 160.984 223.993 160.612 224.409 160.348C224.825 160.076 225.305 159.94 225.849 159.94C226.657 159.94 227.293 160.192 227.757 160.696C228.221 161.2 228.453 161.88 228.453 162.736V162.88C228.445 162.952 228.417 163.008 228.369 163.048C228.329 163.088 228.273 163.108 228.201 163.108H223.905C223.929 163.78 224.105 164.348 224.433 164.812C224.769 165.268 225.269 165.496 225.933 165.496C226.293 165.496 226.609 165.432 226.881 165.304C227.161 165.168 227.469 164.932 227.805 164.596ZM225.849 160.6C225.321 160.6 224.885 160.764 224.541 161.092C224.205 161.412 224.001 161.884 223.929 162.508H227.661C227.645 161.924 227.477 161.46 227.157 161.116C226.837 160.772 226.401 160.6 225.849 160.6ZM231.983 166.156C231.495 166.156 231.063 166.088 230.687 165.952C230.319 165.808 229.931 165.568 229.523 165.232C229.451 165.184 229.415 165.128 229.415 165.064C229.415 165.008 229.443 164.952 229.499 164.896L229.655 164.728C229.703 164.664 229.763 164.632 229.835 164.632C229.891 164.632 229.943 164.656 229.991 164.704C230.375 165 230.715 165.208 231.011 165.328C231.307 165.44 231.631 165.496 231.983 165.496C232.423 165.496 232.783 165.4 233.063 165.208C233.343 165.008 233.483 164.74 233.483 164.404C233.483 164.068 233.339 163.82 233.051 163.66C232.763 163.5 232.319 163.356 231.719 163.228C231.191 163.116 230.775 163 230.471 162.88C230.175 162.752 229.955 162.592 229.811 162.4C229.667 162.208 229.595 161.956 229.595 161.644C229.595 161.132 229.803 160.72 230.219 160.408C230.635 160.096 231.159 159.94 231.791 159.94C232.223 159.94 232.607 159.996 232.943 160.108C233.287 160.212 233.631 160.388 233.975 160.636C234.047 160.692 234.083 160.752 234.083 160.816C234.083 160.856 234.063 160.908 234.023 160.972L233.879 161.152C233.839 161.216 233.783 161.248 233.711 161.248C233.647 161.248 233.591 161.228 233.543 161.188C233.215 160.956 232.923 160.8 232.667 160.72C232.419 160.64 232.135 160.6 231.815 160.6C231.375 160.6 231.023 160.696 230.759 160.888C230.495 161.08 230.363 161.324 230.363 161.62C230.363 161.804 230.423 161.952 230.543 162.064C230.663 162.176 230.835 162.272 231.059 162.352C231.283 162.424 231.611 162.508 232.043 162.604C232.843 162.78 233.411 162.996 233.747 163.252C234.091 163.508 234.263 163.88 234.263 164.368C234.263 164.904 234.051 165.336 233.627 165.664C233.203 165.992 232.655 166.156 231.983 166.156ZM241.008 159.94C241.696 159.94 242.22 160.136 242.58 160.528C242.94 160.912 243.12 161.388 243.12 161.956V165.76C243.12 165.92 243.04 166 242.88 166H242.568C242.408 166 242.328 165.92 242.328 165.76V162.22C242.328 161.692 242.2 161.292 241.944 161.02C241.688 160.748 241.32 160.612 240.84 160.612C240.536 160.612 240.256 160.688 240 160.84C239.744 160.984 239.54 161.184 239.388 161.44C239.236 161.696 239.16 161.976 239.16 162.28V165.76C239.16 165.92 239.08 166 238.92 166H238.608C238.448 166 238.368 165.92 238.368 165.76V157.72C238.368 157.56 238.448 157.48 238.608 157.48H238.92C239.08 157.48 239.16 157.56 239.16 157.72V160.852C239.352 160.548 239.608 160.32 239.928 160.168C240.256 160.016 240.616 159.94 241.008 159.94ZM249.18 164.596C249.236 164.54 249.296 164.512 249.36 164.512C249.416 164.512 249.468 164.536 249.516 164.584L249.672 164.728C249.728 164.784 249.756 164.844 249.756 164.908C249.756 164.956 249.732 165.012 249.684 165.076C249.292 165.468 248.912 165.748 248.544 165.916C248.176 166.076 247.764 166.156 247.308 166.156C246.732 166.156 246.232 166.028 245.808 165.772C245.384 165.516 245.056 165.16 244.824 164.704C244.592 164.24 244.476 163.704 244.476 163.096C244.476 162.48 244.588 161.936 244.812 161.464C245.044 160.984 245.368 160.612 245.784 160.348C246.2 160.076 246.68 159.94 247.224 159.94C248.032 159.94 248.668 160.192 249.132 160.696C249.596 161.2 249.828 161.88 249.828 162.736V162.88C249.82 162.952 249.792 163.008 249.744 163.048C249.704 163.088 249.648 163.108 249.576 163.108H245.28C245.304 163.78 245.48 164.348 245.808 164.812C246.144 165.268 246.644 165.496 247.308 165.496C247.668 165.496 247.984 165.432 248.256 165.304C248.536 165.168 248.844 164.932 249.18 164.596ZM247.224 160.6C246.696 160.6 246.26 160.764 245.916 161.092C245.58 161.412 245.376 161.884 245.304 162.508H249.036C249.02 161.924 248.852 161.46 248.532 161.116C248.212 160.772 247.776 160.6 247.224 160.6ZM253.455 160.036C253.655 160.036 253.891 160.068 254.163 160.132C254.307 160.18 254.363 160.28 254.331 160.432L254.283 160.624C254.243 160.776 254.143 160.832 253.983 160.792C253.791 160.744 253.615 160.72 253.455 160.72C253.047 160.72 252.707 160.896 252.435 161.248C252.171 161.6 252.039 162.088 252.039 162.712V165.76C252.039 165.92 251.959 166 251.799 166H251.487C251.327 166 251.247 165.92 251.247 165.76V160.324C251.247 160.164 251.327 160.084 251.487 160.084H251.751C251.911 160.084 251.991 160.164 251.991 160.324V160.984C252.127 160.688 252.319 160.456 252.567 160.288C252.823 160.12 253.119 160.036 253.455 160.036ZM259.387 164.596C259.443 164.54 259.503 164.512 259.567 164.512C259.623 164.512 259.675 164.536 259.723 164.584L259.879 164.728C259.935 164.784 259.963 164.844 259.963 164.908C259.963 164.956 259.939 165.012 259.891 165.076C259.499 165.468 259.119 165.748 258.751 165.916C258.383 166.076 257.971 166.156 257.515 166.156C256.939 166.156 256.439 166.028 256.015 165.772C255.591 165.516 255.263 165.16 255.031 164.704C254.799 164.24 254.683 163.704 254.683 163.096C254.683 162.48 254.795 161.936 255.019 161.464C255.251 160.984 255.575 160.612 255.991 160.348C256.407 160.076 256.887 159.94 257.431 159.94C258.239 159.94 258.875 160.192 259.339 160.696C259.803 161.2 260.035 161.88 260.035 162.736V162.88C260.027 162.952 259.999 163.008 259.951 163.048C259.911 163.088 259.855 163.108 259.783 163.108H255.487C255.511 163.78 255.687 164.348 256.015 164.812C256.351 165.268 256.851 165.496 257.515 165.496C257.875 165.496 258.191 165.432 258.463 165.304C258.743 165.168 259.051 164.932 259.387 164.596ZM257.431 160.6C256.903 160.6 256.467 160.764 256.123 161.092C255.787 161.412 255.583 161.884 255.511 162.508H259.243C259.227 161.924 259.059 161.46 258.739 161.116C258.419 160.772 257.983 160.6 257.431 160.6Z" fill="#D91F0A"/>
<defs>
<clipPath id="clip0_2001_21472">
<rect width="187" height="22" fill="white" transform="translate(138.5 115)"/>
</clipPath>
</defs>
</svg>
