<svg width="332" height="220" viewBox="0 0 332 220" fill="none" xmlns="http://www.w3.org/2000/svg">
<rect x="16" y="76" width="97" height="68" rx="12" fill="white"/>
<path d="M71.301 93.1996C70.7086 92.607 70.7086 91.6463 71.301 91.0538L72.9102 89.4444C73.5026 88.8519 74.4631 88.8519 75.0557 89.4444C75.6481 90.037 75.6481 90.9977 75.0557 91.5902L73.4465 93.1996C72.8541 93.7922 71.8935 93.7922 71.301 93.1996ZM71.301 93.1996L67.5462 96.9531M57.8925 104.465L60.0377 106.61M65.4442 105.658C65.3996 105.272 65.5049 104.883 65.7382 104.573C65.9715 104.262 66.3152 104.052 66.6983 103.988C67.3317 103.891 67.9184 103.597 68.3753 103.148C69.857 101.667 69.4877 98.8935 67.5469 96.9543C65.606 95.0152 62.8348 94.644 61.3542 96.1259C60.9049 96.5827 60.6112 97.1696 60.5147 97.803C60.4499 98.1862 60.2406 98.5299 59.9299 98.7633C59.6193 98.9967 59.2309 99.1019 58.8449 99.0574C58.1221 98.9466 57.3835 99.0029 56.6858 99.2217C55.9882 99.4405 55.3498 99.8161 54.8196 100.32C52.7462 102.393 53.1609 106.171 55.749 108.754C58.3372 111.338 62.1117 111.754 64.185 109.681C64.6877 109.15 65.0623 108.512 65.2806 107.815C65.4989 107.118 65.5548 106.38 65.4442 105.658ZM63.7909 102.227C64.6288 102.227 65.308 101.548 65.308 100.71C65.308 99.872 64.6288 99.1929 63.7909 99.1929C62.953 99.1929 62.2738 99.872 62.2738 100.71C62.2738 101.548 62.953 102.227 63.7909 102.227Z" stroke="#1B1B1F" stroke-width="2" stroke-linecap="round" stroke-linejoin="round"/>
<path d="M40.068 132C39.9187 132 39.7973 131.958 39.704 131.874C39.62 131.781 39.578 131.659 39.578 131.51V122.55C39.578 122.391 39.62 122.27 39.704 122.186C39.7973 122.102 39.9187 122.06 40.068 122.06H40.684C40.8427 122.06 40.964 122.102 41.048 122.186C41.132 122.27 41.174 122.391 41.174 122.55V126.148H46.102V122.55C46.102 122.391 46.144 122.27 46.228 122.186C46.3213 122.102 46.4427 122.06 46.592 122.06H47.222C47.3807 122.06 47.502 122.102 47.586 122.186C47.67 122.27 47.712 122.391 47.712 122.55V131.51C47.712 131.659 47.67 131.781 47.586 131.874C47.502 131.958 47.3807 132 47.222 132H46.592C46.4427 132 46.3213 131.958 46.228 131.874C46.144 131.781 46.102 131.659 46.102 131.51V127.492H41.174V131.51C41.174 131.659 41.132 131.781 41.048 131.874C40.964 131.958 40.8427 132 40.684 132H40.068ZM52.7569 132.21C52.0756 132.21 51.4689 132.056 50.9369 131.748C50.4143 131.44 50.0036 131.011 49.7049 130.46C49.4063 129.9 49.2569 129.261 49.2569 128.542C49.2569 127.823 49.4063 127.189 49.7049 126.638C50.0036 126.087 50.4143 125.658 50.9369 125.35C51.4689 125.042 52.0756 124.888 52.7569 124.888C53.4289 124.888 54.0309 125.042 54.5629 125.35C55.0949 125.658 55.5103 126.092 55.8089 126.652C56.1076 127.203 56.2569 127.833 56.2569 128.542C56.2569 129.261 56.1076 129.9 55.8089 130.46C55.5103 131.011 55.0949 131.44 54.5629 131.748C54.0309 132.056 53.4289 132.21 52.7569 132.21ZM52.7569 130.964C53.3543 130.964 53.8349 130.745 54.1989 130.306C54.5629 129.858 54.7449 129.27 54.7449 128.542C54.7449 127.823 54.5629 127.245 54.1989 126.806C53.8349 126.367 53.3543 126.148 52.7569 126.148C52.1596 126.148 51.6789 126.367 51.3149 126.806C50.9509 127.245 50.7689 127.823 50.7689 128.542C50.7689 129.27 50.9509 129.858 51.3149 130.306C51.6789 130.745 52.1596 130.964 52.7569 130.964ZM61.2329 124.916C61.8209 124.916 62.3436 125.065 62.8009 125.364C63.2676 125.663 63.6316 126.087 63.8929 126.638C64.1543 127.189 64.2849 127.823 64.2849 128.542C64.2849 129.27 64.1543 129.909 63.8929 130.46C63.6316 131.011 63.2676 131.435 62.8009 131.734C62.3343 132.033 61.8116 132.182 61.2329 132.182C60.1969 132.182 59.4363 131.795 58.9509 131.02V131.51C58.9509 131.659 58.9089 131.781 58.8249 131.874C58.7409 131.958 58.6196 132 58.4609 132H58.0549C57.9056 132 57.7843 131.958 57.6909 131.874C57.6069 131.781 57.5649 131.659 57.5649 131.51V122.55C57.5649 122.391 57.6069 122.27 57.6909 122.186C57.7843 122.102 57.9056 122.06 58.0549 122.06H58.5589C58.7176 122.06 58.8389 122.102 58.9229 122.186C59.0069 122.27 59.0489 122.391 59.0489 122.55V125.966C59.5436 125.266 60.2716 124.916 61.2329 124.916ZM60.9249 130.894C61.4849 130.894 61.9329 130.684 62.2689 130.264C62.6049 129.835 62.7729 129.261 62.7729 128.542C62.7729 127.833 62.6049 127.263 62.2689 126.834C61.9423 126.405 61.4989 126.19 60.9389 126.19C60.3696 126.19 59.9029 126.405 59.5389 126.834C59.1749 127.254 58.9929 127.823 58.9929 128.542C58.9929 129.279 59.1749 129.858 59.5389 130.278C59.9029 130.689 60.3649 130.894 60.9249 130.894ZM69.2993 124.916C69.8873 124.916 70.41 125.065 70.8673 125.364C71.334 125.663 71.698 126.087 71.9593 126.638C72.2207 127.189 72.3513 127.823 72.3513 128.542C72.3513 129.27 72.2207 129.909 71.9593 130.46C71.698 131.011 71.334 131.435 70.8673 131.734C70.4007 132.033 69.878 132.182 69.2993 132.182C68.2633 132.182 67.5027 131.795 67.0173 131.02V131.51C67.0173 131.659 66.9753 131.781 66.8913 131.874C66.8073 131.958 66.686 132 66.5273 132H66.1213C65.972 132 65.8507 131.958 65.7573 131.874C65.6733 131.781 65.6313 131.659 65.6313 131.51V122.55C65.6313 122.391 65.6733 122.27 65.7573 122.186C65.8507 122.102 65.972 122.06 66.1213 122.06H66.6253C66.784 122.06 66.9053 122.102 66.9893 122.186C67.0733 122.27 67.1153 122.391 67.1153 122.55V125.966C67.61 125.266 68.338 124.916 69.2993 124.916ZM68.9913 130.894C69.5513 130.894 69.9993 130.684 70.3353 130.264C70.6713 129.835 70.8393 129.261 70.8393 128.542C70.8393 127.833 70.6713 127.263 70.3353 126.834C70.0087 126.405 69.5653 126.19 69.0053 126.19C68.436 126.19 67.9693 126.405 67.6053 126.834C67.2413 127.254 67.0593 127.823 67.0593 128.542C67.0593 129.279 67.2413 129.858 67.6053 130.278C67.9693 130.689 68.4313 130.894 68.9913 130.894ZM74.4538 123.754C74.1831 123.754 73.9544 123.665 73.7677 123.488C73.5811 123.301 73.4878 123.082 73.4878 122.83C73.4878 122.569 73.5811 122.349 73.7677 122.172C73.9544 121.995 74.1831 121.906 74.4538 121.906C74.7244 121.906 74.9531 121.995 75.1398 122.172C75.3264 122.349 75.4198 122.569 75.4198 122.83C75.4198 123.082 75.3264 123.301 75.1398 123.488C74.9531 123.665 74.7244 123.754 74.4538 123.754ZM74.1878 132C74.0384 132 73.9171 131.958 73.8238 131.874C73.7398 131.781 73.6978 131.659 73.6978 131.51V125.588C73.6978 125.429 73.7398 125.308 73.8238 125.224C73.9171 125.14 74.0384 125.098 74.1878 125.098H74.6917C74.8504 125.098 74.9718 125.14 75.0558 125.224C75.1398 125.308 75.1818 125.429 75.1818 125.588V131.51C75.1818 131.659 75.1398 131.781 75.0558 131.874C74.9718 131.958 74.8504 132 74.6917 132H74.1878ZM81.839 130.236C81.9603 130.133 82.077 130.082 82.189 130.082C82.301 130.082 82.4176 130.143 82.539 130.264L82.735 130.474C82.8376 130.595 82.889 130.712 82.889 130.824C82.889 130.945 82.8283 131.062 82.707 131.174C82.2776 131.547 81.8483 131.813 81.419 131.972C80.999 132.131 80.5323 132.21 80.019 132.21C79.3003 132.21 78.675 132.061 78.143 131.762C77.6203 131.463 77.2143 131.043 76.925 130.502C76.645 129.951 76.505 129.317 76.505 128.598C76.505 127.889 76.6403 127.254 76.911 126.694C77.191 126.125 77.583 125.681 78.087 125.364C78.6003 125.047 79.1976 124.888 79.879 124.888C80.8963 124.888 81.6803 125.191 82.231 125.798C82.7816 126.395 83.057 127.221 83.057 128.276V128.402C83.0476 128.551 83.001 128.668 82.917 128.752C82.833 128.836 82.7116 128.878 82.553 128.878H77.961C78.017 129.494 78.2176 129.998 78.563 130.39C78.9176 130.773 79.4123 130.964 80.047 130.964C80.3923 130.964 80.6956 130.913 80.957 130.81C81.2183 130.698 81.5123 130.507 81.839 130.236ZM79.851 126.064C79.3376 126.064 78.9223 126.218 78.605 126.526C78.297 126.825 78.0963 127.249 78.003 127.8H81.601C81.5636 127.259 81.3956 126.834 81.097 126.526C80.7983 126.218 80.383 126.064 79.851 126.064ZM87.1038 132.21C86.5345 132.21 86.0258 132.14 85.5778 132C85.1392 131.851 84.6912 131.594 84.2338 131.23C84.0938 131.127 84.0238 131.011 84.0238 130.88C84.0238 130.777 84.0752 130.665 84.1778 130.544L84.3878 130.306C84.4998 130.175 84.6212 130.11 84.7518 130.11C84.8545 130.11 84.9665 130.157 85.0878 130.25C85.4798 130.539 85.8252 130.74 86.1238 130.852C86.4225 130.955 86.7585 131.006 87.1318 131.006C87.5332 131.006 87.8598 130.927 88.1118 130.768C88.3732 130.6 88.5038 130.376 88.5038 130.096C88.5038 129.881 88.4292 129.713 88.2798 129.592C88.1398 129.461 87.9532 129.363 87.7198 129.298C87.4865 129.223 87.1412 129.139 86.6838 129.046C86.0398 128.906 85.5358 128.757 85.1718 128.598C84.8172 128.43 84.5605 128.22 84.4018 127.968C84.2432 127.716 84.1638 127.394 84.1638 127.002C84.1638 126.601 84.2758 126.241 84.4998 125.924C84.7332 125.607 85.0552 125.355 85.4658 125.168C85.8858 124.981 86.3758 124.888 86.9358 124.888C87.4398 124.888 87.8878 124.944 88.2798 125.056C88.6812 125.168 89.0732 125.359 89.4558 125.63C89.6052 125.742 89.6798 125.868 89.6798 126.008C89.6798 126.101 89.6332 126.209 89.5398 126.33L89.3578 126.554C89.2552 126.685 89.1292 126.75 88.9798 126.75C88.8678 126.75 88.7605 126.713 88.6578 126.638C88.3498 126.433 88.0652 126.293 87.8038 126.218C87.5425 126.134 87.2485 126.092 86.9218 126.092C86.5205 126.092 86.1985 126.171 85.9558 126.33C85.7132 126.489 85.5918 126.694 85.5918 126.946C85.5918 127.114 85.6478 127.249 85.7598 127.352C85.8812 127.445 86.0492 127.529 86.2638 127.604C86.4878 127.669 86.8378 127.753 87.3138 127.856C87.9578 127.996 88.4665 128.155 88.8398 128.332C89.2225 128.5 89.5025 128.719 89.6798 128.99C89.8665 129.251 89.9598 129.592 89.9598 130.012C89.9598 130.665 89.6985 131.197 89.1758 131.608C88.6625 132.009 87.9718 132.21 87.1038 132.21Z" fill="black"/>
<rect x="117" y="76" width="97" height="68" rx="12" fill="white"/>
<path d="M156.5 105H164.5C165.5 105 166.5 106 166.5 107V109C166.5 110 165.5 111 164.5 111H156.5C155.5 111 154.5 110 154.5 109V107C154.5 106 155.5 105 156.5 105ZM156.5 105L157.5 97C153.5 97 153.5 89 157.5 89H164.5L168.5 90V96L164.5 97H162.5L161.5 105M168.5 91H171.833L173.5 92V94L171.833 95H168.5M173.5 93H176.5M158.5 93H160.5" stroke="#1B1B1F" stroke-width="2" stroke-linecap="round" stroke-linejoin="round"/>
<path d="M152.92 132C152.771 132 152.649 131.958 152.556 131.874C152.472 131.781 152.43 131.659 152.43 131.51V123.418H149.882C149.733 123.418 149.611 123.376 149.518 123.292C149.434 123.199 149.392 123.077 149.392 122.928V122.55C149.392 122.391 149.434 122.27 149.518 122.186C149.611 122.102 149.733 122.06 149.882 122.06H156.56C156.719 122.06 156.84 122.102 156.924 122.186C157.008 122.27 157.05 122.391 157.05 122.55V122.928C157.05 123.077 157.008 123.199 156.924 123.292C156.84 123.376 156.719 123.418 156.56 123.418H154.026V131.51C154.026 131.659 153.984 131.781 153.9 131.874C153.816 131.958 153.695 132 153.536 132H152.92ZM159.771 132.21C159.089 132.21 158.483 132.056 157.951 131.748C157.428 131.44 157.017 131.011 156.719 130.46C156.42 129.9 156.271 129.261 156.271 128.542C156.271 127.823 156.42 127.189 156.719 126.638C157.017 126.087 157.428 125.658 157.951 125.35C158.483 125.042 159.089 124.888 159.771 124.888C160.443 124.888 161.045 125.042 161.577 125.35C162.109 125.658 162.524 126.092 162.823 126.652C163.121 127.203 163.271 127.833 163.271 128.542C163.271 129.261 163.121 129.9 162.823 130.46C162.524 131.011 162.109 131.44 161.577 131.748C161.045 132.056 160.443 132.21 159.771 132.21ZM159.771 130.964C160.368 130.964 160.849 130.745 161.213 130.306C161.577 129.858 161.759 129.27 161.759 128.542C161.759 127.823 161.577 127.245 161.213 126.806C160.849 126.367 160.368 126.148 159.771 126.148C159.173 126.148 158.693 126.367 158.329 126.806C157.965 127.245 157.783 127.823 157.783 128.542C157.783 129.27 157.965 129.858 158.329 130.306C158.693 130.745 159.173 130.964 159.771 130.964ZM167.769 132.21C167.087 132.21 166.481 132.056 165.949 131.748C165.426 131.44 165.015 131.011 164.717 130.46C164.418 129.9 164.269 129.261 164.269 128.542C164.269 127.823 164.418 127.189 164.717 126.638C165.015 126.087 165.426 125.658 165.949 125.35C166.481 125.042 167.087 124.888 167.769 124.888C168.441 124.888 169.043 125.042 169.575 125.35C170.107 125.658 170.522 126.092 170.821 126.652C171.119 127.203 171.269 127.833 171.269 128.542C171.269 129.261 171.119 129.9 170.821 130.46C170.522 131.011 170.107 131.44 169.575 131.748C169.043 132.056 168.441 132.21 167.769 132.21ZM167.769 130.964C168.366 130.964 168.847 130.745 169.211 130.306C169.575 129.858 169.757 129.27 169.757 128.542C169.757 127.823 169.575 127.245 169.211 126.806C168.847 126.367 168.366 126.148 167.769 126.148C167.171 126.148 166.691 126.367 166.327 126.806C165.963 127.245 165.781 127.823 165.781 128.542C165.781 129.27 165.963 129.858 166.327 130.306C166.691 130.745 167.171 130.964 167.769 130.964ZM173.123 132C172.973 132 172.852 131.958 172.759 131.874C172.675 131.781 172.633 131.659 172.633 131.51V122.55C172.633 122.391 172.675 122.27 172.759 122.186C172.852 122.102 172.973 122.06 173.123 122.06H173.627C173.785 122.06 173.907 122.102 173.991 122.186C174.075 122.27 174.117 122.391 174.117 122.55V131.51C174.117 131.659 174.075 131.781 173.991 131.874C173.907 131.958 173.785 132 173.627 132H173.123ZM178.545 132.21C177.976 132.21 177.467 132.14 177.019 132C176.581 131.851 176.133 131.594 175.675 131.23C175.535 131.127 175.465 131.011 175.465 130.88C175.465 130.777 175.517 130.665 175.619 130.544L175.829 130.306C175.941 130.175 176.063 130.11 176.193 130.11C176.296 130.11 176.408 130.157 176.529 130.25C176.921 130.539 177.267 130.74 177.565 130.852C177.864 130.955 178.2 131.006 178.573 131.006C178.975 131.006 179.301 130.927 179.553 130.768C179.815 130.6 179.945 130.376 179.945 130.096C179.945 129.881 179.871 129.713 179.721 129.592C179.581 129.461 179.395 129.363 179.161 129.298C178.928 129.223 178.583 129.139 178.125 129.046C177.481 128.906 176.977 128.757 176.613 128.598C176.259 128.43 176.002 128.22 175.843 127.968C175.685 127.716 175.605 127.394 175.605 127.002C175.605 126.601 175.717 126.241 175.941 125.924C176.175 125.607 176.497 125.355 176.907 125.168C177.327 124.981 177.817 124.888 178.377 124.888C178.881 124.888 179.329 124.944 179.721 125.056C180.123 125.168 180.515 125.359 180.897 125.63C181.047 125.742 181.121 125.868 181.121 126.008C181.121 126.101 181.075 126.209 180.981 126.33L180.799 126.554C180.697 126.685 180.571 126.75 180.421 126.75C180.309 126.75 180.202 126.713 180.099 126.638C179.791 126.433 179.507 126.293 179.245 126.218C178.984 126.134 178.69 126.092 178.363 126.092C177.962 126.092 177.64 126.171 177.397 126.33C177.155 126.489 177.033 126.694 177.033 126.946C177.033 127.114 177.089 127.249 177.201 127.352C177.323 127.445 177.491 127.529 177.705 127.604C177.929 127.669 178.279 127.753 178.755 127.856C179.399 127.996 179.908 128.155 180.281 128.332C180.664 128.5 180.944 128.719 181.121 128.99C181.308 129.251 181.401 129.592 181.401 130.012C181.401 130.665 181.14 131.197 180.617 131.608C180.104 132.009 179.413 132.21 178.545 132.21Z" fill="black"/>
<rect x="218" y="76" width="97" height="68" rx="12" fill="white"/>
<path d="M276.5 95L274.764 90.0938C274.685 89.917 274.557 89.7669 274.395 89.6615C274.233 89.5561 274.043 89.5 273.85 89.5H259.15C258.957 89.5 258.767 89.5561 258.605 89.6615C258.443 89.7669 258.315 89.917 258.236 90.0938L254.5 98.5V109.5C254.5 109.765 254.605 110.02 254.793 110.207C254.98 110.395 255.235 110.5 255.5 110.5H258.5C258.765 110.5 259.02 110.395 259.207 110.207C259.395 110.02 259.5 109.765 259.5 109.5V106.5H262.5M258.5 102.5H260.5M254.5 98.5H264.5M274.98 104.497C274.98 105.867 273.869 106.979 272.498 106.979C271.127 106.979 270.015 105.867 270.015 104.497C270.015 103.126 271.127 102.015 272.498 102.015C273.869 102.015 274.98 103.126 274.98 104.497ZM267.125 107.605C266.851 107.132 266.64 106.625 266.5 106.097L267.541 104.794C267.53 104.595 267.53 104.395 267.541 104.196L266.501 102.893C266.641 102.365 266.851 101.858 267.124 101.385L268.782 101.199C268.914 101.05 269.055 100.909 269.205 100.777L269.391 99.1199C269.863 98.8475 270.369 98.639 270.896 98.5L272.2 99.5412C272.399 99.5294 272.599 99.5294 272.798 99.5412L274.101 98.5006C274.629 98.6408 275.136 98.8505 275.609 99.1242L275.795 100.782C275.945 100.914 276.086 101.055 276.218 101.204L277.875 101.39C278.149 101.863 278.36 102.37 278.5 102.898L277.459 104.201C277.47 104.4 277.47 104.6 277.459 104.799L278.499 106.102C278.36 106.63 278.151 107.137 277.879 107.61L276.221 107.796C276.089 107.945 275.948 108.086 275.799 108.218L275.612 109.875C275.14 110.149 274.633 110.36 274.105 110.5L272.802 109.459C272.602 109.471 272.403 109.471 272.203 109.459L270.9 110.499C270.372 110.36 269.865 110.152 269.392 109.879L269.206 108.221C269.057 108.089 268.916 107.948 268.783 107.799L267.125 107.605Z" stroke="#1B1B1F" stroke-width="2" stroke-linecap="round" stroke-linejoin="round"/>
<path d="M234.578 132.224C233.813 132.224 233.127 132.117 232.52 131.902C231.923 131.678 231.307 131.305 230.672 130.782C230.541 130.679 230.476 130.558 230.476 130.418C230.476 130.297 230.523 130.185 230.616 130.082L230.938 129.704C231.041 129.573 231.157 129.508 231.288 129.508C231.391 129.508 231.507 129.559 231.638 129.662C232.198 130.11 232.697 130.418 233.136 130.586C233.584 130.754 234.074 130.838 234.606 130.838C235.25 130.838 235.773 130.693 236.174 130.404C236.575 130.105 236.776 129.699 236.776 129.186C236.776 128.85 236.673 128.589 236.468 128.402C236.263 128.206 235.997 128.057 235.67 127.954C235.353 127.851 234.835 127.716 234.116 127.548C233.248 127.343 232.571 127.119 232.086 126.876C231.601 126.633 231.251 126.344 231.036 126.008C230.831 125.663 230.728 125.229 230.728 124.706C230.728 124.155 230.887 123.661 231.204 123.222C231.521 122.783 231.955 122.443 232.506 122.2C233.066 121.957 233.691 121.836 234.382 121.836C235.082 121.836 235.698 121.929 236.23 122.116C236.771 122.303 237.313 122.606 237.854 123.026C237.994 123.138 238.064 123.255 238.064 123.376C238.064 123.479 238.017 123.591 237.924 123.712L237.616 124.076C237.504 124.207 237.387 124.272 237.266 124.272C237.154 124.272 237.037 124.225 236.916 124.132C236.468 123.787 236.053 123.549 235.67 123.418C235.287 123.287 234.853 123.222 234.368 123.222C233.752 123.222 233.253 123.357 232.87 123.628C232.487 123.899 232.296 124.239 232.296 124.65C232.296 124.949 232.385 125.187 232.562 125.364C232.739 125.541 232.996 125.686 233.332 125.798C233.668 125.91 234.186 126.045 234.886 126.204C235.735 126.409 236.407 126.629 236.902 126.862C237.397 127.086 237.765 127.375 238.008 127.73C238.251 128.085 238.372 128.537 238.372 129.088C238.372 129.704 238.213 130.25 237.896 130.726C237.579 131.202 237.135 131.571 236.566 131.832C235.997 132.093 235.334 132.224 234.578 132.224ZM243.422 124.916C244.01 124.916 244.533 125.065 244.99 125.364C245.457 125.663 245.821 126.087 246.082 126.638C246.344 127.189 246.474 127.823 246.474 128.542C246.474 129.27 246.344 129.909 246.082 130.46C245.821 131.011 245.457 131.435 244.99 131.734C244.524 132.033 244.001 132.182 243.422 132.182C242.452 132.182 241.724 131.846 241.238 131.174V133.988C241.238 134.147 241.196 134.268 241.112 134.352C241.028 134.436 240.907 134.478 240.748 134.478H240.244C240.095 134.478 239.974 134.436 239.88 134.352C239.796 134.268 239.754 134.147 239.754 133.988V125.588C239.754 125.429 239.796 125.308 239.88 125.224C239.974 125.14 240.095 125.098 240.244 125.098H240.65C240.809 125.098 240.93 125.14 241.014 125.224C241.098 125.308 241.14 125.429 241.14 125.588V126.106C241.635 125.313 242.396 124.916 243.422 124.916ZM243.114 130.894C243.674 130.894 244.122 130.684 244.458 130.264C244.794 129.835 244.962 129.261 244.962 128.542C244.962 127.833 244.794 127.263 244.458 126.834C244.132 126.405 243.688 126.19 243.128 126.19C242.559 126.19 242.092 126.4 241.728 126.82C241.364 127.24 241.182 127.814 241.182 128.542C241.182 129.27 241.364 129.844 241.728 130.264C242.092 130.684 242.554 130.894 243.114 130.894ZM250.733 124.888C251.666 124.888 252.385 125.107 252.889 125.546C253.393 125.975 253.645 126.549 253.645 127.268V131.51C253.645 131.659 253.603 131.781 253.519 131.874C253.435 131.958 253.313 132 253.155 132H252.791C252.641 132 252.52 131.958 252.427 131.874C252.343 131.781 252.301 131.659 252.301 131.51V131.202C252.077 131.529 251.769 131.781 251.377 131.958C250.985 132.135 250.527 132.224 250.005 132.224C249.286 132.224 248.693 132.065 248.227 131.748C247.769 131.421 247.541 130.931 247.541 130.278C247.541 129.55 247.811 129.013 248.353 128.668C248.903 128.313 249.664 128.047 250.635 127.87L252.217 127.576V127.324C252.217 126.941 252.081 126.647 251.811 126.442C251.549 126.227 251.199 126.12 250.761 126.12C250.387 126.12 250.061 126.185 249.781 126.316C249.51 126.437 249.216 126.643 248.899 126.932C248.777 127.035 248.661 127.086 248.549 127.086C248.437 127.086 248.32 127.035 248.199 126.932L247.975 126.736C247.853 126.624 247.793 126.503 247.793 126.372C247.793 126.251 247.849 126.134 247.961 126.022C248.362 125.639 248.787 125.355 249.235 125.168C249.683 124.981 250.182 124.888 250.733 124.888ZM250.215 131.034C250.775 131.034 251.246 130.885 251.629 130.586C252.021 130.287 252.217 129.858 252.217 129.298V128.654L250.999 128.906C250.317 129.046 249.813 129.205 249.487 129.382C249.16 129.559 248.997 129.83 248.997 130.194C248.997 130.455 249.104 130.661 249.319 130.81C249.533 130.959 249.832 131.034 250.215 131.034ZM258.448 125.028C258.654 125.028 258.864 125.051 259.078 125.098C259.33 125.154 259.456 125.303 259.456 125.546C259.456 125.611 259.452 125.658 259.442 125.686L259.372 126.022C259.316 126.283 259.176 126.414 258.952 126.414L258.826 126.4C258.658 126.372 258.509 126.358 258.378 126.358C257.912 126.358 257.534 126.545 257.244 126.918C256.964 127.282 256.824 127.791 256.824 128.444V131.51C256.824 131.659 256.782 131.781 256.698 131.874C256.614 131.958 256.493 132 256.334 132H255.83C255.681 132 255.56 131.958 255.466 131.874C255.382 131.781 255.34 131.659 255.34 131.51V125.588C255.34 125.429 255.382 125.308 255.466 125.224C255.56 125.14 255.681 125.098 255.83 125.098H256.236C256.395 125.098 256.516 125.14 256.6 125.224C256.684 125.308 256.726 125.429 256.726 125.588V126.134C256.894 125.789 257.123 125.518 257.412 125.322C257.702 125.126 258.047 125.028 258.448 125.028ZM265.15 130.236C265.271 130.133 265.388 130.082 265.5 130.082C265.612 130.082 265.728 130.143 265.85 130.264L266.046 130.474C266.148 130.595 266.2 130.712 266.2 130.824C266.2 130.945 266.139 131.062 266.018 131.174C265.588 131.547 265.159 131.813 264.73 131.972C264.31 132.131 263.843 132.21 263.33 132.21C262.611 132.21 261.986 132.061 261.454 131.762C260.931 131.463 260.525 131.043 260.236 130.502C259.956 129.951 259.816 129.317 259.816 128.598C259.816 127.889 259.951 127.254 260.222 126.694C260.502 126.125 260.894 125.681 261.398 125.364C261.911 125.047 262.508 124.888 263.19 124.888C264.207 124.888 264.991 125.191 265.542 125.798C266.092 126.395 266.368 127.221 266.368 128.276V128.402C266.358 128.551 266.312 128.668 266.228 128.752C266.144 128.836 266.022 128.878 265.864 128.878H261.272C261.328 129.494 261.528 129.998 261.874 130.39C262.228 130.773 262.723 130.964 263.358 130.964C263.703 130.964 264.006 130.913 264.268 130.81C264.529 130.698 264.823 130.507 265.15 130.236ZM263.162 126.064C262.648 126.064 262.233 126.218 261.916 126.526C261.608 126.825 261.407 127.249 261.314 127.8H264.912C264.874 127.259 264.706 126.834 264.408 126.526C264.109 126.218 263.694 126.064 263.162 126.064ZM274.526 124.916C275.114 124.916 275.637 125.065 276.094 125.364C276.561 125.663 276.925 126.087 277.186 126.638C277.447 127.189 277.578 127.823 277.578 128.542C277.578 129.27 277.447 129.909 277.186 130.46C276.925 131.011 276.561 131.435 276.094 131.734C275.627 132.033 275.105 132.182 274.526 132.182C273.555 132.182 272.827 131.846 272.342 131.174V133.988C272.342 134.147 272.3 134.268 272.216 134.352C272.132 134.436 272.011 134.478 271.852 134.478H271.348C271.199 134.478 271.077 134.436 270.984 134.352C270.9 134.268 270.858 134.147 270.858 133.988V125.588C270.858 125.429 270.9 125.308 270.984 125.224C271.077 125.14 271.199 125.098 271.348 125.098H271.754C271.913 125.098 272.034 125.14 272.118 125.224C272.202 125.308 272.244 125.429 272.244 125.588V126.106C272.739 125.313 273.499 124.916 274.526 124.916ZM274.218 130.894C274.778 130.894 275.226 130.684 275.562 130.264C275.898 129.835 276.066 129.261 276.066 128.542C276.066 127.833 275.898 127.263 275.562 126.834C275.235 126.405 274.792 126.19 274.232 126.19C273.663 126.19 273.196 126.4 272.832 126.82C272.468 127.24 272.286 127.814 272.286 128.542C272.286 129.27 272.468 129.844 272.832 130.264C273.196 130.684 273.658 130.894 274.218 130.894ZM281.836 124.888C282.77 124.888 283.488 125.107 283.992 125.546C284.496 125.975 284.748 126.549 284.748 127.268V131.51C284.748 131.659 284.706 131.781 284.622 131.874C284.538 131.958 284.417 132 284.258 132H283.894C283.745 132 283.624 131.958 283.53 131.874C283.446 131.781 283.404 131.659 283.404 131.51V131.202C283.18 131.529 282.872 131.781 282.48 131.958C282.088 132.135 281.631 132.224 281.108 132.224C280.39 132.224 279.797 132.065 279.33 131.748C278.873 131.421 278.644 130.931 278.644 130.278C278.644 129.55 278.915 129.013 279.456 128.668C280.007 128.313 280.768 128.047 281.738 127.87L283.32 127.576V127.324C283.32 126.941 283.185 126.647 282.914 126.442C282.653 126.227 282.303 126.12 281.864 126.12C281.491 126.12 281.164 126.185 280.884 126.316C280.614 126.437 280.32 126.643 280.002 126.932C279.881 127.035 279.764 127.086 279.652 127.086C279.54 127.086 279.424 127.035 279.302 126.932L279.078 126.736C278.957 126.624 278.896 126.503 278.896 126.372C278.896 126.251 278.952 126.134 279.064 126.022C279.466 125.639 279.89 125.355 280.338 125.168C280.786 124.981 281.286 124.888 281.836 124.888ZM281.318 131.034C281.878 131.034 282.35 130.885 282.732 130.586C283.124 130.287 283.32 129.858 283.32 129.298V128.654L282.102 128.906C281.421 129.046 280.917 129.205 280.59 129.382C280.264 129.559 280.1 129.83 280.1 130.194C280.1 130.455 280.208 130.661 280.422 130.81C280.637 130.959 280.936 131.034 281.318 131.034ZM289.552 125.028C289.757 125.028 289.967 125.051 290.182 125.098C290.434 125.154 290.56 125.303 290.56 125.546C290.56 125.611 290.555 125.658 290.546 125.686L290.476 126.022C290.42 126.283 290.28 126.414 290.056 126.414L289.93 126.4C289.762 126.372 289.613 126.358 289.482 126.358C289.015 126.358 288.637 126.545 288.348 126.918C288.068 127.282 287.928 127.791 287.928 128.444V131.51C287.928 131.659 287.886 131.781 287.802 131.874C287.718 131.958 287.597 132 287.438 132H286.934C286.785 132 286.663 131.958 286.57 131.874C286.486 131.781 286.444 131.659 286.444 131.51V125.588C286.444 125.429 286.486 125.308 286.57 125.224C286.663 125.14 286.785 125.098 286.934 125.098H287.34C287.499 125.098 287.62 125.14 287.704 125.224C287.788 125.308 287.83 125.429 287.83 125.588V126.134C287.998 125.789 288.227 125.518 288.516 125.322C288.805 125.126 289.151 125.028 289.552 125.028ZM295.135 130.824C295.163 130.815 295.205 130.81 295.261 130.81C295.495 130.81 295.635 130.945 295.681 131.216L295.723 131.44C295.733 131.468 295.737 131.515 295.737 131.58C295.737 131.813 295.607 131.963 295.345 132.028C294.972 132.112 294.631 132.154 294.323 132.154C293.661 132.154 293.18 132 292.881 131.692C292.592 131.384 292.447 130.922 292.447 130.306V126.232H291.677C291.528 126.232 291.407 126.19 291.313 126.106C291.229 126.013 291.187 125.891 291.187 125.742V125.588C291.187 125.429 291.229 125.308 291.313 125.224C291.407 125.14 291.528 125.098 291.677 125.098H292.447V123.362C292.447 123.203 292.489 123.082 292.573 122.998C292.667 122.914 292.788 122.872 292.937 122.872H293.441C293.6 122.872 293.721 122.914 293.805 122.998C293.889 123.082 293.931 123.203 293.931 123.362V125.098H295.191C295.35 125.098 295.471 125.14 295.555 125.224C295.639 125.308 295.681 125.429 295.681 125.588V125.742C295.681 125.891 295.639 126.013 295.555 126.106C295.471 126.19 295.35 126.232 295.191 126.232H293.931V130.124C293.931 130.395 293.987 130.586 294.099 130.698C294.221 130.81 294.412 130.866 294.673 130.866C294.785 130.866 294.939 130.852 295.135 130.824ZM299.672 132.21C299.103 132.21 298.594 132.14 298.146 132C297.708 131.851 297.26 131.594 296.802 131.23C296.662 131.127 296.592 131.011 296.592 130.88C296.592 130.777 296.644 130.665 296.746 130.544L296.956 130.306C297.068 130.175 297.19 130.11 297.32 130.11C297.423 130.11 297.535 130.157 297.656 130.25C298.048 130.539 298.394 130.74 298.692 130.852C298.991 130.955 299.327 131.006 299.7 131.006C300.102 131.006 300.428 130.927 300.68 130.768C300.942 130.6 301.072 130.376 301.072 130.096C301.072 129.881 300.998 129.713 300.848 129.592C300.708 129.461 300.522 129.363 300.288 129.298C300.055 129.223 299.71 129.139 299.252 129.046C298.608 128.906 298.104 128.757 297.74 128.598C297.386 128.43 297.129 128.22 296.97 127.968C296.812 127.716 296.732 127.394 296.732 127.002C296.732 126.601 296.844 126.241 297.068 125.924C297.302 125.607 297.624 125.355 298.034 125.168C298.454 124.981 298.944 124.888 299.504 124.888C300.008 124.888 300.456 124.944 300.848 125.056C301.25 125.168 301.642 125.359 302.024 125.63C302.174 125.742 302.248 125.868 302.248 126.008C302.248 126.101 302.202 126.209 302.108 126.33L301.926 126.554C301.824 126.685 301.698 126.75 301.548 126.75C301.436 126.75 301.329 126.713 301.226 126.638C300.918 126.433 300.634 126.293 300.372 126.218C300.111 126.134 299.817 126.092 299.49 126.092C299.089 126.092 298.767 126.171 298.524 126.33C298.282 126.489 298.16 126.694 298.16 126.946C298.16 127.114 298.216 127.249 298.328 127.352C298.45 127.445 298.618 127.529 298.832 127.604C299.056 127.669 299.406 127.753 299.882 127.856C300.526 127.996 301.035 128.155 301.408 128.332C301.791 128.5 302.071 128.719 302.248 128.99C302.435 129.251 302.528 129.592 302.528 130.012C302.528 130.665 302.267 131.197 301.744 131.608C301.231 132.009 300.54 132.21 299.672 132.21Z" fill="black"/>
<rect x="37" y="24" width="56" height="40" rx="8" fill="#CDFEE5"/>
<rect x="37" y="24" width="56" height="40" rx="8" stroke="#2EE69F" stroke-width="2"/>
<path d="M58.136 37.96C58.136 37.7467 58.2427 37.64 58.456 37.64H58.92C59.1333 37.64 59.24 37.7467 59.24 37.96V48.68C59.24 48.8933 59.1333 49 58.92 49H58.2C58.0293 49 57.896 48.9307 57.8 48.792L54.36 43.576L54.168 43.272C52.888 41.352 51.9707 39.9387 51.416 39.032C51.4587 40.28 51.48 41.72 51.48 43.352V48.68C51.48 48.8933 51.3733 49 51.16 49H50.696C50.4827 49 50.376 48.8933 50.376 48.68V37.96C50.376 37.7467 50.4827 37.64 50.696 37.64H51.416C51.5867 37.64 51.72 37.7093 51.816 37.848L55.24 43.048L55.848 43.992C56.9253 45.624 57.7093 46.84 58.2 47.64C58.1573 46.3707 58.136 44.9253 58.136 43.304V37.96ZM67.5374 47.128C67.612 47.0533 67.692 47.016 67.7774 47.016C67.852 47.016 67.9214 47.048 67.9854 47.112L68.1934 47.304C68.268 47.3787 68.3054 47.4587 68.3054 47.544C68.3054 47.608 68.2734 47.6827 68.2094 47.768C67.6867 48.2907 67.18 48.664 66.6894 48.888C66.1987 49.1013 65.6494 49.208 65.0414 49.208C64.2734 49.208 63.6067 49.0373 63.0414 48.696C62.476 48.3547 62.0387 47.88 61.7294 47.272C61.42 46.6533 61.2654 45.9387 61.2654 45.128C61.2654 44.3067 61.4147 43.5813 61.7134 42.952C62.0227 42.312 62.4547 41.816 63.0094 41.464C63.564 41.1013 64.204 40.92 64.9294 40.92C66.0067 40.92 66.8547 41.256 67.4734 41.928C68.092 42.6 68.4014 43.5067 68.4014 44.648V44.84C68.3907 44.936 68.3534 45.0107 68.2894 45.064C68.236 45.1173 68.1614 45.144 68.0654 45.144H62.3374C62.3694 46.04 62.604 46.7973 63.0414 47.416C63.4894 48.024 64.156 48.328 65.0414 48.328C65.5214 48.328 65.9427 48.2427 66.3054 48.072C66.6787 47.8907 67.0894 47.576 67.5374 47.128ZM64.9294 41.8C64.2254 41.8 63.644 42.0187 63.1854 42.456C62.7374 42.8827 62.4654 43.512 62.3694 44.344H67.3454C67.324 43.5653 67.1 42.9467 66.6734 42.488C66.2467 42.0293 65.6654 41.8 64.9294 41.8ZM79.0621 41.384C79.1048 41.2027 79.2275 41.112 79.4301 41.112H79.8621C79.9795 41.112 80.0595 41.144 80.1021 41.208C80.1555 41.272 80.1661 41.3573 80.1341 41.464L78.0701 48.728C78.0275 48.9093 77.9048 49 77.7021 49H76.9821C76.8008 49 76.6835 48.9093 76.6301 48.728L75.8941 46.28C75.5101 45 75.1528 43.688 74.8221 42.344C74.5021 43.6453 74.1501 44.968 73.7661 46.312L73.0621 48.728C73.0195 48.9093 72.8968 49 72.6941 49H72.0061C71.8035 49 71.6808 48.9093 71.6381 48.728L69.5741 41.464C69.5635 41.4427 69.5581 41.4053 69.5581 41.352C69.5581 41.2773 69.5848 41.2187 69.6381 41.176C69.6915 41.1333 69.7608 41.112 69.8461 41.112H70.2781C70.4808 41.112 70.6035 41.2027 70.6461 41.384L71.4141 44.216C71.7661 45.5067 72.0915 46.792 72.3901 48.072C72.6248 47.1227 72.9715 45.8373 73.4301 44.216L74.2461 41.384C74.2888 41.2027 74.4115 41.112 74.6141 41.112H75.0941C75.2861 41.112 75.4035 41.2027 75.4461 41.384L76.2781 44.216C76.6408 45.528 76.9821 46.8187 77.3021 48.088C77.5475 47.0213 77.8781 45.7307 78.2941 44.216L79.0621 41.384Z" fill="#1B1B1F"/>
<path d="M66.4142 69.5858L72.1213 63.8787C72.6839 63.3161 73.447 63 74.2426 63L55.7574 63C56.553 63 57.3161 63.3161 57.8787 63.8787L63.5858 69.5858C64.3668 70.3668 65.6332 70.3668 66.4142 69.5858Z" fill="#CDFEE5"/>
<path d="M74 64C73.3597 64 72.7456 64.2544 72.2929 64.7071L67.1213 69.8787C65.9497 71.0503 64.0503 71.0503 62.8787 69.8787L57.7071 64.7071C57.2544 64.2544 56.6403 64 56 64" stroke="#2EE69F" stroke-width="2" stroke-linecap="round"/>
</svg>
