<svg width="688" height="460" viewBox="0 0 688 460" fill="none" xmlns="http://www.w3.org/2000/svg">
<rect width="688" height="460" fill="#F6F6F6"/>
<rect x="112" y="80" width="464" height="300" rx="8" fill="white"/>
<rect x="181.5" y="252.5" width="150" height="47" rx="3.5" fill="white"/>
<rect x="181.5" y="252.5" width="150" height="47" rx="3.5" stroke="#CACAD1"/>
<g clip-path="url(#clip0_27017_6573)">
<path d="M190.696 281C190.483 281 190.376 280.893 190.376 280.68V269.96C190.376 269.747 190.483 269.64 190.696 269.64H191.192C191.405 269.64 191.512 269.747 191.512 269.96V274.664H198.072V269.96C198.072 269.747 198.179 269.64 198.392 269.64H198.888C199.101 269.64 199.208 269.747 199.208 269.96V280.68C199.208 280.893 199.101 281 198.888 281H198.392C198.179 281 198.072 280.893 198.072 280.68V275.608H191.512V280.68C191.512 280.893 191.405 281 191.192 281H190.696ZM202.29 271.112C202.077 271.112 201.895 271.037 201.746 270.888C201.607 270.739 201.538 270.557 201.538 270.344C201.538 270.131 201.607 269.955 201.746 269.816C201.895 269.677 202.077 269.608 202.29 269.608C202.514 269.608 202.695 269.677 202.834 269.816C202.983 269.955 203.058 270.131 203.058 270.344C203.058 270.557 202.983 270.739 202.834 270.888C202.695 271.037 202.514 271.112 202.29 271.112ZM202.082 281C201.869 281 201.762 280.893 201.762 280.68V273.432C201.762 273.219 201.869 273.112 202.082 273.112H202.498C202.711 273.112 202.818 273.219 202.818 273.432V280.68C202.818 280.893 202.711 281 202.498 281H202.082ZM208.688 272.92C209.616 272.92 210.315 273.176 210.784 273.688C211.264 274.2 211.504 274.84 211.504 275.608V280.68C211.504 280.893 211.398 281 211.184 281H210.768C210.555 281 210.448 280.893 210.448 280.68V275.96C210.448 275.256 210.278 274.723 209.936 274.36C209.595 273.997 209.104 273.816 208.464 273.816C208.059 273.816 207.686 273.917 207.344 274.12C207.003 274.312 206.731 274.579 206.528 274.92C206.326 275.261 206.224 275.635 206.224 276.04V280.68C206.224 280.893 206.118 281 205.904 281H205.488C205.275 281 205.168 280.893 205.168 280.68V273.432C205.168 273.219 205.275 273.112 205.488 273.112H205.84C206.054 273.112 206.16 273.219 206.16 273.432V274.2C206.427 273.773 206.779 273.453 207.216 273.24C207.654 273.027 208.144 272.92 208.688 272.92ZM217.174 280.12C217.206 280.109 217.248 280.104 217.302 280.104C217.366 280.104 217.424 280.125 217.478 280.168C217.531 280.211 217.563 280.269 217.574 280.344L217.622 280.568C217.632 280.589 217.638 280.627 217.638 280.68C217.638 280.829 217.558 280.92 217.398 280.952C217.014 281.069 216.603 281.128 216.166 281.128C215.472 281.128 214.976 280.973 214.678 280.664C214.39 280.344 214.246 279.885 214.246 279.288V273.912H213.062C212.848 273.912 212.742 273.805 212.742 273.592V273.432C212.742 273.219 212.848 273.112 213.062 273.112H214.246V270.68C214.246 270.467 214.352 270.36 214.566 270.36H214.982C215.195 270.36 215.302 270.467 215.302 270.68V273.112H217.222C217.435 273.112 217.542 273.219 217.542 273.432V273.592C217.542 273.805 217.435 273.912 217.222 273.912H215.302V279.16C215.302 279.555 215.376 279.832 215.526 279.992C215.675 280.152 215.931 280.232 216.294 280.232C216.55 280.232 216.843 280.195 217.174 280.12Z" fill="#1B1B1F"/>
</g>
<rect x="356.5" y="252.5" width="150" height="47" rx="3.5" fill="white"/>
<rect x="356.5" y="252.5" width="150" height="47" rx="3.5" stroke="#CACAD1"/>
<g clip-path="url(#clip1_27017_6573)">
<path d="M365.696 281C365.483 281 365.376 280.893 365.376 280.68V269.96C365.376 269.747 365.483 269.64 365.696 269.64H366.192C366.405 269.64 366.512 269.747 366.512 269.96V274.664H373.072V269.96C373.072 269.747 373.179 269.64 373.392 269.64H373.888C374.101 269.64 374.208 269.747 374.208 269.96V280.68C374.208 280.893 374.101 281 373.888 281H373.392C373.179 281 373.072 280.893 373.072 280.68V275.608H366.512V280.68C366.512 280.893 366.405 281 366.192 281H365.696ZM377.29 271.112C377.077 271.112 376.895 271.037 376.746 270.888C376.607 270.739 376.538 270.557 376.538 270.344C376.538 270.131 376.607 269.955 376.746 269.816C376.895 269.677 377.077 269.608 377.29 269.608C377.514 269.608 377.695 269.677 377.834 269.816C377.983 269.955 378.058 270.131 378.058 270.344C378.058 270.557 377.983 270.739 377.834 270.888C377.695 271.037 377.514 271.112 377.29 271.112ZM377.082 281C376.869 281 376.762 280.893 376.762 280.68V273.432C376.762 273.219 376.869 273.112 377.082 273.112H377.498C377.711 273.112 377.818 273.219 377.818 273.432V280.68C377.818 280.893 377.711 281 377.498 281H377.082ZM383.688 272.92C384.616 272.92 385.315 273.176 385.784 273.688C386.264 274.2 386.504 274.84 386.504 275.608V280.68C386.504 280.893 386.398 281 386.184 281H385.768C385.555 281 385.448 280.893 385.448 280.68V275.96C385.448 275.256 385.278 274.723 384.936 274.36C384.595 273.997 384.104 273.816 383.464 273.816C383.059 273.816 382.686 273.917 382.344 274.12C382.003 274.312 381.731 274.579 381.528 274.92C381.326 275.261 381.224 275.635 381.224 276.04V280.68C381.224 280.893 381.118 281 380.904 281H380.488C380.275 281 380.168 280.893 380.168 280.68V273.432C380.168 273.219 380.275 273.112 380.488 273.112H380.84C381.054 273.112 381.16 273.219 381.16 273.432V274.2C381.427 273.773 381.779 273.453 382.216 273.24C382.654 273.027 383.144 272.92 383.688 272.92ZM392.174 280.12C392.206 280.109 392.248 280.104 392.302 280.104C392.366 280.104 392.424 280.125 392.478 280.168C392.531 280.211 392.563 280.269 392.574 280.344L392.622 280.568C392.632 280.589 392.638 280.627 392.638 280.68C392.638 280.829 392.558 280.92 392.398 280.952C392.014 281.069 391.603 281.128 391.166 281.128C390.472 281.128 389.976 280.973 389.678 280.664C389.39 280.344 389.246 279.885 389.246 279.288V273.912H388.062C387.848 273.912 387.742 273.805 387.742 273.592V273.432C387.742 273.219 387.848 273.112 388.062 273.112H389.246V270.68C389.246 270.467 389.352 270.36 389.566 270.36H389.982C390.195 270.36 390.302 270.467 390.302 270.68V273.112H392.222C392.435 273.112 392.542 273.219 392.542 273.432V273.592C392.542 273.805 392.435 273.912 392.222 273.912H390.302V279.16C390.302 279.555 390.376 279.832 390.526 279.992C390.675 280.152 390.931 280.232 391.294 280.232C391.55 280.232 391.843 280.195 392.174 280.12Z" fill="#1B1B1F"/>
</g>
<path d="M185.2 236.21C184.547 236.21 183.973 236.051 183.478 235.734C182.993 235.417 182.605 234.973 182.316 234.404C181.859 233.499 181.63 232.374 181.63 231.03C181.63 229.677 181.859 228.547 182.316 227.642C182.605 227.073 182.993 226.634 183.478 226.326C183.973 226.009 184.547 225.85 185.2 225.85C185.853 225.85 186.423 226.009 186.908 226.326C187.403 226.634 187.795 227.073 188.084 227.642C188.541 228.547 188.77 229.677 188.77 231.03C188.77 232.374 188.541 233.499 188.084 234.404C187.795 234.973 187.403 235.417 186.908 235.734C186.423 236.051 185.853 236.21 185.2 236.21ZM185.2 235.398C186.115 235.398 186.801 234.922 187.258 233.97C187.622 233.195 187.804 232.215 187.804 231.03C187.804 229.826 187.622 228.841 187.258 228.076C186.81 227.133 186.124 226.662 185.2 226.662C184.276 226.662 183.59 227.133 183.142 228.076C182.778 228.841 182.596 229.826 182.596 231.03C182.596 232.225 182.778 233.205 183.142 233.97C183.599 234.922 184.285 235.398 185.2 235.398Z" fill="#5C5C66"/>
<path d="M486.997 226.172C487.1 226.097 487.217 226.06 487.347 226.06H487.571C487.758 226.06 487.851 226.153 487.851 226.34V235.72C487.851 235.907 487.758 236 487.571 236H487.193C487.007 236 486.913 235.907 486.913 235.72V227.264L484.799 228.776C484.734 228.823 484.673 228.846 484.617 228.846C484.533 228.846 484.463 228.804 484.407 228.72L484.267 228.51C484.23 228.463 484.211 228.407 484.211 228.342C484.211 228.258 484.253 228.183 484.337 228.118L486.997 226.172ZM494.22 236.21C493.566 236.21 492.992 236.051 492.498 235.734C492.012 235.417 491.625 234.973 491.336 234.404C490.878 233.499 490.65 232.374 490.65 231.03C490.65 229.677 490.878 228.547 491.336 227.642C491.625 227.073 492.012 226.634 492.498 226.326C492.992 226.009 493.566 225.85 494.22 225.85C494.873 225.85 495.442 226.009 495.928 226.326C496.422 226.634 496.814 227.073 497.104 227.642C497.561 228.547 497.79 229.677 497.79 231.03C497.79 232.374 497.561 233.499 497.104 234.404C496.814 234.973 496.422 235.417 495.928 235.734C495.442 236.051 494.873 236.21 494.22 236.21ZM494.22 235.398C495.134 235.398 495.82 234.922 496.278 233.97C496.642 233.195 496.824 232.215 496.824 231.03C496.824 229.826 496.642 228.841 496.278 228.076C495.83 227.133 495.144 226.662 494.22 226.662C493.296 226.662 492.61 227.133 492.162 228.076C491.798 228.841 491.616 229.826 491.616 231.03C491.616 232.225 491.798 233.205 492.162 233.97C492.619 234.922 493.305 235.398 494.22 235.398ZM502.805 236.21C502.152 236.21 501.578 236.051 501.083 235.734C500.598 235.417 500.211 234.973 499.921 234.404C499.464 233.499 499.235 232.374 499.235 231.03C499.235 229.677 499.464 228.547 499.921 227.642C500.211 227.073 500.598 226.634 501.083 226.326C501.578 226.009 502.152 225.85 502.805 225.85C503.459 225.85 504.028 226.009 504.513 226.326C505.008 226.634 505.4 227.073 505.689 227.642C506.147 228.547 506.375 229.677 506.375 231.03C506.375 232.374 506.147 233.499 505.689 234.404C505.4 234.973 505.008 235.417 504.513 235.734C504.028 236.051 503.459 236.21 502.805 236.21ZM502.805 235.398C503.72 235.398 504.406 234.922 504.863 233.97C505.227 233.195 505.409 232.215 505.409 231.03C505.409 229.826 505.227 228.841 504.863 228.076C504.415 227.133 503.729 226.662 502.805 226.662C501.881 226.662 501.195 227.133 500.747 228.076C500.383 228.841 500.201 229.826 500.201 231.03C500.201 232.225 500.383 233.205 500.747 233.97C501.205 234.922 501.891 235.398 502.805 235.398Z" fill="#5C5C66"/>
<path d="M182.568 174C182.419 174 182.297 173.958 182.204 173.874C182.12 173.781 182.078 173.659 182.078 173.51V164.55C182.078 164.391 182.12 164.27 182.204 164.186C182.297 164.102 182.419 164.06 182.568 164.06H183.184C183.343 164.06 183.464 164.102 183.548 164.186C183.632 164.27 183.674 164.391 183.674 164.55V172.642H187.72C187.879 172.642 188 172.684 188.084 172.768C188.168 172.852 188.21 172.973 188.21 173.132V173.51C188.21 173.659 188.168 173.781 188.084 173.874C188 173.958 187.879 174 187.72 174H182.568ZM192.504 166.888C193.438 166.888 194.156 167.107 194.66 167.546C195.164 167.975 195.416 168.549 195.416 169.268V173.51C195.416 173.659 195.374 173.781 195.29 173.874C195.206 173.958 195.085 174 194.926 174H194.562C194.413 174 194.292 173.958 194.198 173.874C194.114 173.781 194.072 173.659 194.072 173.51V173.202C193.848 173.529 193.54 173.781 193.148 173.958C192.756 174.135 192.299 174.224 191.776 174.224C191.058 174.224 190.465 174.065 189.998 173.748C189.541 173.421 189.312 172.931 189.312 172.278C189.312 171.55 189.583 171.013 190.124 170.668C190.675 170.313 191.436 170.047 192.406 169.87L193.988 169.576V169.324C193.988 168.941 193.853 168.647 193.582 168.442C193.321 168.227 192.971 168.12 192.532 168.12C192.159 168.12 191.832 168.185 191.552 168.316C191.282 168.437 190.988 168.643 190.67 168.932C190.549 169.035 190.432 169.086 190.32 169.086C190.208 169.086 190.092 169.035 189.97 168.932L189.746 168.736C189.625 168.624 189.564 168.503 189.564 168.372C189.564 168.251 189.62 168.134 189.732 168.022C190.134 167.639 190.558 167.355 191.006 167.168C191.454 166.981 191.954 166.888 192.504 166.888ZM191.986 173.034C192.546 173.034 193.018 172.885 193.4 172.586C193.792 172.287 193.988 171.858 193.988 171.298V170.654L192.77 170.906C192.089 171.046 191.585 171.205 191.258 171.382C190.932 171.559 190.768 171.83 190.768 172.194C190.768 172.455 190.876 172.661 191.09 172.81C191.305 172.959 191.604 173.034 191.986 173.034ZM200.78 166.916C201.368 166.916 201.89 167.065 202.348 167.364C202.814 167.663 203.178 168.087 203.44 168.638C203.701 169.189 203.832 169.823 203.832 170.542C203.832 171.27 203.701 171.909 203.44 172.46C203.178 173.011 202.814 173.435 202.348 173.734C201.881 174.033 201.358 174.182 200.78 174.182C199.744 174.182 198.983 173.795 198.498 173.02V173.51C198.498 173.659 198.456 173.781 198.372 173.874C198.288 173.958 198.166 174 198.008 174H197.602C197.452 174 197.331 173.958 197.238 173.874C197.154 173.781 197.112 173.659 197.112 173.51V164.55C197.112 164.391 197.154 164.27 197.238 164.186C197.331 164.102 197.452 164.06 197.602 164.06H198.106C198.264 164.06 198.386 164.102 198.47 164.186C198.554 164.27 198.596 164.391 198.596 164.55V167.966C199.09 167.266 199.818 166.916 200.78 166.916ZM200.472 172.894C201.032 172.894 201.48 172.684 201.816 172.264C202.152 171.835 202.32 171.261 202.32 170.542C202.32 169.833 202.152 169.263 201.816 168.834C201.489 168.405 201.046 168.19 200.486 168.19C199.916 168.19 199.45 168.405 199.086 168.834C198.722 169.254 198.54 169.823 198.54 170.542C198.54 171.279 198.722 171.858 199.086 172.278C199.45 172.689 199.912 172.894 200.472 172.894ZM210.202 172.236C210.324 172.133 210.44 172.082 210.552 172.082C210.664 172.082 210.781 172.143 210.902 172.264L211.098 172.474C211.201 172.595 211.252 172.712 211.252 172.824C211.252 172.945 211.192 173.062 211.07 173.174C210.641 173.547 210.212 173.813 209.782 173.972C209.362 174.131 208.896 174.21 208.382 174.21C207.664 174.21 207.038 174.061 206.506 173.762C205.984 173.463 205.578 173.043 205.288 172.502C205.008 171.951 204.868 171.317 204.868 170.598C204.868 169.889 205.004 169.254 205.274 168.694C205.554 168.125 205.946 167.681 206.45 167.364C206.964 167.047 207.561 166.888 208.242 166.888C209.26 166.888 210.044 167.191 210.594 167.798C211.145 168.395 211.42 169.221 211.42 170.276V170.402C211.411 170.551 211.364 170.668 211.28 170.752C211.196 170.836 211.075 170.878 210.916 170.878H206.324C206.38 171.494 206.581 171.998 206.926 172.39C207.281 172.773 207.776 172.964 208.41 172.964C208.756 172.964 209.059 172.913 209.32 172.81C209.582 172.698 209.876 172.507 210.202 172.236ZM208.214 168.064C207.701 168.064 207.286 168.218 206.968 168.526C206.66 168.825 206.46 169.249 206.366 169.8H209.964C209.927 169.259 209.759 168.834 209.46 168.526C209.162 168.218 208.746 168.064 208.214 168.064ZM213.326 174C213.176 174 213.055 173.958 212.962 173.874C212.878 173.781 212.836 173.659 212.836 173.51V164.55C212.836 164.391 212.878 164.27 212.962 164.186C213.055 164.102 213.176 164.06 213.326 164.06H213.83C213.988 164.06 214.11 164.102 214.194 164.186C214.278 164.27 214.32 164.391 214.32 164.55V173.51C214.32 173.659 214.278 173.781 214.194 173.874C214.11 173.958 213.988 174 213.83 174H213.326Z" fill="#1B1B1F"/>
<rect x="181" y="198" width="326" height="4" rx="2" fill="#DEDEE3"/>
<rect x="281" y="197" width="125" height="6" rx="3" fill="#0063FB"/>
<g filter="url(#filter0_dd_27017_6573)">
<rect x="393.5" y="139" width="25" height="32" rx="4" fill="#1B1B1F"/>
<path d="M405.7 160.21C405.047 160.21 404.473 160.051 403.978 159.734C403.493 159.417 403.105 158.973 402.816 158.404C402.359 157.499 402.13 156.374 402.13 155.03C402.13 153.677 402.359 152.547 402.816 151.642C403.105 151.073 403.493 150.634 403.978 150.326C404.473 150.009 405.047 149.85 405.7 149.85C406.353 149.85 406.923 150.009 407.408 150.326C407.903 150.634 408.295 151.073 408.584 151.642C409.041 152.547 409.27 153.677 409.27 155.03C409.27 156.374 409.041 157.499 408.584 158.404C408.295 158.973 407.903 159.417 407.408 159.734C406.923 160.051 406.353 160.21 405.7 160.21ZM405.7 159.398C406.615 159.398 407.301 158.922 407.758 157.97C408.122 157.195 408.304 156.215 408.304 155.03C408.304 153.826 408.122 152.841 407.758 152.076C407.31 151.133 406.624 150.662 405.7 150.662C404.776 150.662 404.09 151.133 403.642 152.076C403.278 152.841 403.096 153.826 403.096 155.03C403.096 156.225 403.278 157.205 403.642 157.97C404.099 158.922 404.785 159.398 405.7 159.398Z" fill="white"/>
<path d="M404.586 177.586L400.343 173.343C398.843 171.843 396.808 171 394.686 171H417.314C415.192 171 413.157 171.843 411.657 173.343L407.414 177.586C406.633 178.367 405.367 178.367 404.586 177.586Z" fill="#1B1B1F"/>
</g>
<g filter="url(#filter1_d_27017_6573)">
<path d="M392 200C392 192.268 398.268 186 406 186C413.732 186 420 192.268 420 200C420 207.732 413.732 214 406 214C398.268 214 392 207.732 392 200Z" fill="#00337F"/>
</g>
<rect x="268" y="186" width="28" height="28" rx="14" fill="#0063FB"/>
<rect x="261" y="84" width="41" height="40" rx="20" fill="#BE3830"/>
<path d="M277.714 107.978C278.899 107.026 279.828 106.247 280.5 105.64C281.172 105.024 281.737 104.385 282.194 103.722C282.661 103.05 282.894 102.392 282.894 101.748C282.894 101.141 282.745 100.665 282.446 100.32C282.157 99.9653 281.685 99.788 281.032 99.788C280.397 99.788 279.903 99.9887 279.548 100.39C279.203 100.782 279.016 101.309 278.988 101.972H277.756C277.793 100.927 278.111 100.119 278.708 99.55C279.305 98.9807 280.075 98.696 281.018 98.696C281.979 98.696 282.74 98.962 283.3 99.494C283.869 100.026 284.154 100.759 284.154 101.692C284.154 102.467 283.921 103.223 283.454 103.96C282.997 104.688 282.474 105.332 281.886 105.892C281.298 106.443 280.547 107.087 279.632 107.824H284.448V108.888H277.714V107.978Z" fill="white"/>
<rect width="58" height="3" transform="translate(283 124) rotate(90)" fill="#BE3830"/>
<rect x="323" y="84" width="41" height="40" rx="20" fill="#BE3830"/>
<path d="M339.84 101.426C339.905 100.567 340.237 99.8953 340.834 99.41C341.431 98.9247 342.206 98.682 343.158 98.682C343.793 98.682 344.339 98.7987 344.796 99.032C345.263 99.256 345.613 99.564 345.846 99.956C346.089 100.348 346.21 100.791 346.21 101.286C346.21 101.865 346.042 102.364 345.706 102.784C345.379 103.204 344.95 103.475 344.418 103.596V103.666C345.025 103.815 345.505 104.109 345.86 104.548C346.215 104.987 346.392 105.561 346.392 106.27C346.392 106.802 346.271 107.283 346.028 107.712C345.785 108.132 345.421 108.463 344.936 108.706C344.451 108.949 343.867 109.07 343.186 109.07C342.197 109.07 341.385 108.813 340.75 108.3C340.115 107.777 339.761 107.04 339.686 106.088H340.918C340.983 106.648 341.212 107.105 341.604 107.46C341.996 107.815 342.519 107.992 343.172 107.992C343.825 107.992 344.32 107.824 344.656 107.488C345.001 107.143 345.174 106.699 345.174 106.158C345.174 105.458 344.941 104.954 344.474 104.646C344.007 104.338 343.303 104.184 342.36 104.184H342.038V103.12H342.374C343.233 103.111 343.881 102.971 344.32 102.7C344.759 102.42 344.978 101.991 344.978 101.412C344.978 100.917 344.815 100.521 344.488 100.222C344.171 99.9233 343.713 99.774 343.116 99.774C342.537 99.774 342.071 99.9233 341.716 100.222C341.361 100.521 341.151 100.922 341.086 101.426H339.84Z" fill="white"/>
<rect width="69" height="3" transform="translate(345 124) rotate(90)" fill="#BE3830"/>
<rect x="449" y="84" width="41" height="40" rx="20" fill="#BE3830"/>
<path d="M472.322 99.984H467.408V103.176C467.623 102.877 467.94 102.635 468.36 102.448C468.78 102.252 469.233 102.154 469.718 102.154C470.493 102.154 471.123 102.317 471.608 102.644C472.093 102.961 472.439 103.377 472.644 103.89C472.859 104.394 472.966 104.931 472.966 105.5C472.966 106.172 472.84 106.774 472.588 107.306C472.336 107.838 471.949 108.258 471.426 108.566C470.913 108.874 470.273 109.028 469.508 109.028C468.528 109.028 467.735 108.776 467.128 108.272C466.521 107.768 466.153 107.096 466.022 106.256H467.268C467.389 106.788 467.646 107.203 468.038 107.502C468.43 107.801 468.925 107.95 469.522 107.95C470.259 107.95 470.815 107.731 471.188 107.292C471.561 106.844 471.748 106.256 471.748 105.528C471.748 104.8 471.561 104.24 471.188 103.848C470.815 103.447 470.264 103.246 469.536 103.246C469.041 103.246 468.607 103.367 468.234 103.61C467.87 103.843 467.604 104.165 467.436 104.576H466.232V98.864H472.322V99.984Z" fill="white"/>
<rect width="69" height="3" transform="translate(471 124) rotate(90)" fill="#BE3830"/>
<rect x="386" y="84" width="41" height="40" rx="20" fill="#BE3830"/>
<path d="M402.56 106.746V105.78L407.474 98.976H409V105.64H410.4V106.746H409V109H407.74V106.746H402.56ZM407.796 100.306L404.03 105.64H407.796V100.306Z" fill="white"/>
<rect width="11" height="3" transform="translate(408 124) rotate(90)" fill="#BE3830"/>
<rect x="116" y="149" width="37" height="40" rx="18.5" fill="#BE3830"/>
<path d="M133.048 165.04V163.878H135.68V174H134.392V165.04H133.048Z" fill="white"/>
<rect width="24" height="3" transform="translate(153 167.5)" fill="#BE3830"/>
<rect x="116" y="256" width="41" height="40" rx="20" fill="#BE3830"/>
<path d="M134.884 275.736C134.361 275.531 133.96 275.232 133.68 274.84C133.4 274.448 133.26 273.972 133.26 273.412C133.26 272.908 133.386 272.455 133.638 272.054C133.89 271.643 134.263 271.321 134.758 271.088C135.262 270.845 135.869 270.724 136.578 270.724C137.287 270.724 137.889 270.845 138.384 271.088C138.888 271.321 139.266 271.643 139.518 272.054C139.779 272.455 139.91 272.908 139.91 273.412C139.91 273.953 139.765 274.429 139.476 274.84C139.187 275.241 138.79 275.54 138.286 275.736C138.865 275.913 139.322 276.226 139.658 276.674C140.003 277.113 140.176 277.645 140.176 278.27C140.176 278.877 140.027 279.409 139.728 279.866C139.429 280.314 139.005 280.664 138.454 280.916C137.913 281.159 137.287 281.28 136.578 281.28C135.869 281.28 135.243 281.159 134.702 280.916C134.17 280.664 133.755 280.314 133.456 279.866C133.157 279.409 133.008 278.877 133.008 278.27C133.008 277.645 133.176 277.108 133.512 276.66C133.848 276.212 134.305 275.904 134.884 275.736ZM138.678 273.566C138.678 272.997 138.491 272.558 138.118 272.25C137.745 271.942 137.231 271.788 136.578 271.788C135.934 271.788 135.425 271.942 135.052 272.25C134.679 272.558 134.492 273.001 134.492 273.58C134.492 274.103 134.683 274.523 135.066 274.84C135.458 275.157 135.962 275.316 136.578 275.316C137.203 275.316 137.707 275.157 138.09 274.84C138.482 274.513 138.678 274.089 138.678 273.566ZM136.578 276.296C135.887 276.296 135.323 276.459 134.884 276.786C134.445 277.103 134.226 277.584 134.226 278.228C134.226 278.825 134.436 279.306 134.856 279.67C135.285 280.034 135.859 280.216 136.578 280.216C137.297 280.216 137.866 280.034 138.286 279.67C138.706 279.306 138.916 278.825 138.916 278.228C138.916 277.603 138.701 277.127 138.272 276.8C137.843 276.464 137.278 276.296 136.578 276.296Z" fill="white"/>
<rect width="20" height="3" transform="translate(157 274.5)" fill="#BE3830"/>
<rect x="116" y="211" width="41" height="40" rx="20" fill="#BE3830"/>
<path d="M138.623 228.286C138.418 227.25 137.779 226.732 136.705 226.732C135.875 226.732 135.254 227.054 134.843 227.698C134.433 228.333 134.232 229.383 134.241 230.848C134.456 230.363 134.811 229.985 135.305 229.714C135.809 229.434 136.369 229.294 136.985 229.294C137.947 229.294 138.712 229.593 139.281 230.19C139.86 230.787 140.149 231.613 140.149 232.668C140.149 233.303 140.023 233.872 139.771 234.376C139.529 234.88 139.155 235.281 138.651 235.58C138.157 235.879 137.555 236.028 136.845 236.028C135.884 236.028 135.133 235.813 134.591 235.384C134.05 234.955 133.672 234.362 133.457 233.606C133.243 232.85 133.135 231.917 133.135 230.806C133.135 227.381 134.33 225.668 136.719 225.668C137.634 225.668 138.353 225.915 138.875 226.41C139.398 226.905 139.706 227.53 139.799 228.286H138.623ZM136.719 230.372C136.318 230.372 135.94 230.456 135.585 230.624C135.231 230.783 134.941 231.03 134.717 231.366C134.503 231.693 134.395 232.094 134.395 232.57C134.395 233.279 134.601 233.858 135.011 234.306C135.422 234.745 136.01 234.964 136.775 234.964C137.429 234.964 137.947 234.763 138.329 234.362C138.721 233.951 138.917 233.401 138.917 232.71C138.917 231.982 138.731 231.413 138.357 231.002C137.984 230.582 137.438 230.372 136.719 230.372Z" fill="white"/>
<rect width="20" height="3" transform="translate(157 229.5)" fill="#BE3830"/>
<rect width="20" height="3" transform="translate(511 274.5)" fill="#BE3830"/>
<rect x="531" y="256" width="41" height="40" rx="20" fill="#BE3830"/>
<path d="M549.688 278.284C549.781 278.816 549.996 279.227 550.332 279.516C550.677 279.805 551.139 279.95 551.718 279.95C552.492 279.95 553.062 279.647 553.426 279.04C553.799 278.433 553.976 277.411 553.958 275.974C553.762 276.394 553.435 276.725 552.978 276.968C552.52 277.201 552.012 277.318 551.452 277.318C550.826 277.318 550.266 277.192 549.772 276.94C549.286 276.679 548.904 276.301 548.624 275.806C548.344 275.311 548.204 274.714 548.204 274.014C548.204 273.015 548.493 272.213 549.072 271.606C549.65 270.99 550.472 270.682 551.536 270.682C552.842 270.682 553.757 271.107 554.28 271.956C554.812 272.805 555.078 274.07 555.078 275.75C555.078 276.926 554.97 277.897 554.756 278.662C554.55 279.427 554.196 280.011 553.692 280.412C553.197 280.813 552.516 281.014 551.648 281.014C550.696 281.014 549.954 280.757 549.422 280.244C548.89 279.731 548.586 279.077 548.512 278.284H549.688ZM551.662 276.24C552.287 276.24 552.8 276.049 553.202 275.666C553.603 275.274 553.804 274.747 553.804 274.084C553.804 273.384 553.608 272.819 553.216 272.39C552.824 271.961 552.273 271.746 551.564 271.746C550.91 271.746 550.388 271.951 549.996 272.362C549.613 272.773 549.422 273.314 549.422 273.986C549.422 274.667 549.613 275.213 549.996 275.624C550.378 276.035 550.934 276.24 551.662 276.24Z" fill="white"/>
<rect width="21" height="3" transform="translate(511 229.5)" fill="#BE3830"/>
<rect x="532" y="211" width="40" height="40" rx="20" fill="#BE3830"/>
<path d="M555.455 226.872L551.563 236H550.275L554.223 226.998H548.819V225.906H555.455V226.872Z" fill="white"/>
<defs>
<filter id="filter0_dd_27017_6573" x="385.5" y="134" width="41" height="55.1716" filterUnits="userSpaceOnUse" color-interpolation-filters="sRGB">
<feFlood flood-opacity="0" result="BackgroundImageFix"/>
<feColorMatrix in="SourceAlpha" type="matrix" values="0 0 0 0 0 0 0 0 0 0 0 0 0 0 0 0 0 0 127 0" result="hardAlpha"/>
<feOffset dy="3"/>
<feGaussianBlur stdDeviation="4"/>
<feComposite in2="hardAlpha" operator="out"/>
<feColorMatrix type="matrix" values="0 0 0 0 0 0 0 0 0 0 0 0 0 0 0 0 0 0 0.16 0"/>
<feBlend mode="normal" in2="BackgroundImageFix" result="effect1_dropShadow_27017_6573"/>
<feColorMatrix in="SourceAlpha" type="matrix" values="0 0 0 0 0 0 0 0 0 0 0 0 0 0 0 0 0 0 127 0" result="hardAlpha"/>
<feOffset dy="3"/>
<feGaussianBlur stdDeviation="3"/>
<feComposite in2="hardAlpha" operator="out"/>
<feColorMatrix type="matrix" values="0 0 0 0 0 0 0 0 0 0 0 0 0 0 0 0 0 0 0.1 0"/>
<feBlend mode="normal" in2="effect1_dropShadow_27017_6573" result="effect2_dropShadow_27017_6573"/>
<feBlend mode="normal" in="SourceGraphic" in2="effect2_dropShadow_27017_6573" result="shape"/>
</filter>
<filter id="filter1_d_27017_6573" x="384" y="178" width="44" height="44" filterUnits="userSpaceOnUse" color-interpolation-filters="sRGB">
<feFlood flood-opacity="0" result="BackgroundImageFix"/>
<feColorMatrix in="SourceAlpha" type="matrix" values="0 0 0 0 0 0 0 0 0 0 0 0 0 0 0 0 0 0 127 0" result="hardAlpha"/>
<feMorphology radius="8" operator="dilate" in="SourceAlpha" result="effect1_dropShadow_27017_6573"/>
<feOffset/>
<feColorMatrix type="matrix" values="0 0 0 0 0 0 0 0 0 0 0 0 0 0 0 0 0 0 0.08 0"/>
<feBlend mode="normal" in2="BackgroundImageFix" result="effect1_dropShadow_27017_6573"/>
<feBlend mode="normal" in="SourceGraphic" in2="effect1_dropShadow_27017_6573" result="shape"/>
</filter>
<clipPath id="clip0_27017_6573">
<rect width="135" height="22" fill="white" transform="translate(189 265)"/>
</clipPath>
<clipPath id="clip1_27017_6573">
<rect width="135" height="22" fill="white" transform="translate(364 265)"/>
</clipPath>
</defs>
</svg>
