<svg width="464" height="300" viewBox="0 0 464 300" fill="none" xmlns="http://www.w3.org/2000/svg">
<rect width="464" height="300" rx="8" fill="white"/>
<rect x="72.5" y="172.5" width="147" height="47" rx="3.5" fill="white"/>
<rect x="72.5" y="172.5" width="147" height="47" rx="3.5" stroke="#84848F"/>
<g clip-path="url(#clip0_4508_22602)">
<path d="M84.608 194.248C85.7387 194.248 86.656 194.536 87.36 195.112C88.064 195.688 88.416 196.509 88.416 197.576C88.416 198.173 88.2667 198.755 87.968 199.32C87.68 199.885 87.248 200.349 86.672 200.712C86.096 201.064 85.4027 201.24 84.592 201.24C83.92 201.24 83.2747 201.144 82.656 200.952C82.048 200.749 81.424 200.445 80.784 200.04C80.6773 199.976 80.624 199.891 80.624 199.784C80.624 199.709 80.6453 199.645 80.688 199.592L80.896 199.304C80.96 199.208 81.04 199.16 81.136 199.16C81.2213 199.16 81.2907 199.181 81.344 199.224C81.9733 199.619 82.528 199.901 83.008 200.072C83.4987 200.232 84.016 200.312 84.56 200.312C85.1147 200.312 85.6 200.195 86.016 199.96C86.432 199.715 86.752 199.389 86.976 198.984C87.2107 198.568 87.328 198.104 87.328 197.592C87.328 196.824 87.0827 196.221 86.592 195.784C86.1013 195.347 85.3707 195.128 84.4 195.128C83.9947 195.128 83.6373 195.171 83.328 195.256C83.296 195.267 83.2533 195.272 83.2 195.272C83.0827 195.272 82.9867 195.219 82.912 195.112L82.736 194.872C82.6827 194.787 82.656 194.712 82.656 194.648C82.656 194.563 82.6933 194.488 82.768 194.424L86.8 190.568H81.392C81.1787 190.568 81.072 190.461 81.072 190.248V189.96C81.072 189.747 81.1787 189.64 81.392 189.64H87.824C88.0373 189.64 88.144 189.747 88.144 189.96V190.312C88.144 190.461 88.0853 190.595 87.968 190.712L84.224 194.264L84.608 194.248ZM94.175 201.24C93.4283 201.24 92.7723 201.059 92.207 200.696C91.6523 200.333 91.2097 199.827 90.879 199.176C90.3563 198.141 90.095 196.856 90.095 195.32C90.095 193.773 90.3563 192.483 90.879 191.448C91.2097 190.797 91.6523 190.296 92.207 189.944C92.7723 189.581 93.4283 189.4 94.175 189.4C94.9217 189.4 95.5723 189.581 96.127 189.944C96.6923 190.296 97.1403 190.797 97.471 191.448C97.9937 192.483 98.255 193.773 98.255 195.32C98.255 196.856 97.9937 198.141 97.471 199.176C97.1403 199.827 96.6923 200.333 96.127 200.696C95.5723 201.059 94.9217 201.24 94.175 201.24ZM94.175 200.312C95.2203 200.312 96.0043 199.768 96.527 198.68C96.943 197.795 97.151 196.675 97.151 195.32C97.151 193.944 96.943 192.819 96.527 191.944C96.015 190.867 95.231 190.328 94.175 190.328C93.119 190.328 92.335 190.867 91.823 191.944C91.407 192.819 91.199 193.944 91.199 195.32C91.199 196.685 91.407 197.805 91.823 198.68C92.3457 199.768 93.1297 200.312 94.175 200.312Z" fill="#1B1B1F"/>
</g>
<rect x="244.5" y="172.5" width="147" height="47" rx="3.5" fill="white"/>
<rect x="244.5" y="172.5" width="147" height="47" rx="3.5" stroke="#84848F"/>
<g clip-path="url(#clip1_4508_22602)">
<path d="M258.64 194.856C259.365 195.112 259.925 195.512 260.32 196.056C260.715 196.589 260.912 197.213 260.912 197.928C260.912 198.557 260.747 199.128 260.416 199.64C260.085 200.141 259.611 200.536 258.992 200.824C258.373 201.112 257.643 201.256 256.8 201.256C255.957 201.256 255.227 201.112 254.608 200.824C253.989 200.536 253.515 200.141 253.184 199.64C252.853 199.128 252.688 198.557 252.688 197.928C252.688 197.213 252.885 196.589 253.28 196.056C253.675 195.512 254.235 195.112 254.96 194.856C254.437 194.621 254.027 194.296 253.728 193.88C253.429 193.453 253.28 192.952 253.28 192.376C253.28 191.8 253.429 191.288 253.728 190.84C254.027 190.392 254.443 190.045 254.976 189.8C255.509 189.544 256.117 189.416 256.8 189.416C257.483 189.416 258.091 189.544 258.624 189.8C259.157 190.045 259.573 190.392 259.872 190.84C260.171 191.288 260.32 191.8 260.32 192.376C260.32 192.952 260.171 193.453 259.872 193.88C259.573 194.296 259.163 194.621 258.64 194.856ZM254.336 192.344C254.336 192.984 254.56 193.496 255.008 193.88C255.467 194.264 256.064 194.456 256.8 194.456C257.536 194.456 258.128 194.264 258.576 193.88C259.035 193.496 259.264 192.984 259.264 192.344C259.264 191.747 259.04 191.261 258.592 190.888C258.155 190.504 257.557 190.312 256.8 190.312C256.043 190.312 255.44 190.504 254.992 190.888C254.555 191.261 254.336 191.747 254.336 192.344ZM256.8 200.312C257.728 200.312 258.459 200.088 258.992 199.64C259.536 199.181 259.808 198.6 259.808 197.896C259.808 197.139 259.536 196.525 258.992 196.056C258.448 195.587 257.717 195.352 256.8 195.352C255.883 195.352 255.152 195.587 254.608 196.056C254.064 196.525 253.792 197.139 253.792 197.896C253.792 198.6 254.059 199.181 254.592 199.64C255.136 200.088 255.872 200.312 256.8 200.312ZM266.472 201.24C265.725 201.24 265.069 201.059 264.504 200.696C263.949 200.333 263.507 199.827 263.176 199.176C262.653 198.141 262.392 196.856 262.392 195.32C262.392 193.773 262.653 192.483 263.176 191.448C263.507 190.797 263.949 190.296 264.504 189.944C265.069 189.581 265.725 189.4 266.472 189.4C267.219 189.4 267.869 189.581 268.424 189.944C268.989 190.296 269.437 190.797 269.768 191.448C270.291 192.483 270.552 193.773 270.552 195.32C270.552 196.856 270.291 198.141 269.768 199.176C269.437 199.827 268.989 200.333 268.424 200.696C267.869 201.059 267.219 201.24 266.472 201.24ZM266.472 200.312C267.517 200.312 268.301 199.768 268.824 198.68C269.24 197.795 269.448 196.675 269.448 195.32C269.448 193.944 269.24 192.819 268.824 191.944C268.312 190.867 267.528 190.328 266.472 190.328C265.416 190.328 264.632 190.867 264.12 191.944C263.704 192.819 263.496 193.944 263.496 195.32C263.496 196.685 263.704 197.805 264.12 198.68C264.643 199.768 265.427 200.312 266.472 200.312Z" fill="#1B1B1F"/>
</g>
<path d="M76.2 156.21C75.5467 156.21 74.9727 156.051 74.478 155.734C73.9927 155.417 73.6053 154.973 73.316 154.404C72.8587 153.499 72.63 152.374 72.63 151.03C72.63 149.677 72.8587 148.547 73.316 147.642C73.6053 147.073 73.9927 146.634 74.478 146.326C74.9727 146.009 75.5467 145.85 76.2 145.85C76.8533 145.85 77.4227 146.009 77.908 146.326C78.4027 146.634 78.7947 147.073 79.084 147.642C79.5413 148.547 79.77 149.677 79.77 151.03C79.77 152.374 79.5413 153.499 79.084 154.404C78.7947 154.973 78.4027 155.417 77.908 155.734C77.4227 156.051 76.8533 156.21 76.2 156.21ZM76.2 155.398C77.1147 155.398 77.8007 154.922 78.258 153.97C78.622 153.195 78.804 152.215 78.804 151.03C78.804 149.826 78.622 148.841 78.258 148.076C77.81 147.133 77.124 146.662 76.2 146.662C75.276 146.662 74.59 147.133 74.142 148.076C73.778 148.841 73.596 149.826 73.596 151.03C73.596 152.225 73.778 153.205 74.142 153.97C74.5993 154.922 75.2853 155.398 76.2 155.398Z" fill="#5C5C66"/>
<path d="M371.997 146.172C372.1 146.097 372.217 146.06 372.347 146.06H372.571C372.758 146.06 372.851 146.153 372.851 146.34V155.72C372.851 155.907 372.758 156 372.571 156H372.193C372.007 156 371.913 155.907 371.913 155.72V147.264L369.799 148.776C369.734 148.823 369.673 148.846 369.617 148.846C369.533 148.846 369.463 148.804 369.407 148.72L369.267 148.51C369.23 148.463 369.211 148.407 369.211 148.342C369.211 148.258 369.253 148.183 369.337 148.118L371.997 146.172ZM379.22 156.21C378.566 156.21 377.992 156.051 377.498 155.734C377.012 155.417 376.625 154.973 376.336 154.404C375.878 153.499 375.65 152.374 375.65 151.03C375.65 149.677 375.878 148.547 376.336 147.642C376.625 147.073 377.012 146.634 377.498 146.326C377.992 146.009 378.566 145.85 379.22 145.85C379.873 145.85 380.442 146.009 380.928 146.326C381.422 146.634 381.814 147.073 382.104 147.642C382.561 148.547 382.79 149.677 382.79 151.03C382.79 152.374 382.561 153.499 382.104 154.404C381.814 154.973 381.422 155.417 380.928 155.734C380.442 156.051 379.873 156.21 379.22 156.21ZM379.22 155.398C380.134 155.398 380.82 154.922 381.278 153.97C381.642 153.195 381.824 152.215 381.824 151.03C381.824 149.826 381.642 148.841 381.278 148.076C380.83 147.133 380.144 146.662 379.22 146.662C378.296 146.662 377.61 147.133 377.162 148.076C376.798 148.841 376.616 149.826 376.616 151.03C376.616 152.225 376.798 153.205 377.162 153.97C377.619 154.922 378.305 155.398 379.22 155.398ZM387.805 156.21C387.152 156.21 386.578 156.051 386.083 155.734C385.598 155.417 385.211 154.973 384.921 154.404C384.464 153.499 384.235 152.374 384.235 151.03C384.235 149.677 384.464 148.547 384.921 147.642C385.211 147.073 385.598 146.634 386.083 146.326C386.578 146.009 387.152 145.85 387.805 145.85C388.459 145.85 389.028 146.009 389.513 146.326C390.008 146.634 390.4 147.073 390.689 147.642C391.147 148.547 391.375 149.677 391.375 151.03C391.375 152.374 391.147 153.499 390.689 154.404C390.4 154.973 390.008 155.417 389.513 155.734C389.028 156.051 388.459 156.21 387.805 156.21ZM387.805 155.398C388.72 155.398 389.406 154.922 389.863 153.97C390.227 153.195 390.409 152.215 390.409 151.03C390.409 149.826 390.227 148.841 389.863 148.076C389.415 147.133 388.729 146.662 387.805 146.662C386.881 146.662 386.195 147.133 385.747 148.076C385.383 148.841 385.201 149.826 385.201 151.03C385.201 152.225 385.383 153.205 385.747 153.97C386.205 154.922 386.891 155.398 387.805 155.398Z" fill="#5C5C66"/>
<path d="M73.568 94C73.4187 94 73.2973 93.958 73.204 93.874C73.12 93.7807 73.078 93.6593 73.078 93.51V84.55C73.078 84.3913 73.12 84.27 73.204 84.186C73.2973 84.102 73.4187 84.06 73.568 84.06H74.184C74.3427 84.06 74.464 84.102 74.548 84.186C74.632 84.27 74.674 84.3913 74.674 84.55V92.642H78.72C78.8787 92.642 79 92.684 79.084 92.768C79.168 92.852 79.21 92.9733 79.21 93.132V93.51C79.21 93.6593 79.168 93.7807 79.084 93.874C79 93.958 78.8787 94 78.72 94H73.568ZM83.5043 86.888C84.4376 86.888 85.1563 87.1073 85.6603 87.546C86.1643 87.9753 86.4163 88.5493 86.4163 89.268V93.51C86.4163 93.6593 86.3743 93.7807 86.2903 93.874C86.2063 93.958 86.0849 94 85.9263 94H85.5623C85.4129 94 85.2916 93.958 85.1983 93.874C85.1143 93.7807 85.0723 93.6593 85.0723 93.51V93.202C84.8483 93.5287 84.5403 93.7807 84.1483 93.958C83.7563 94.1353 83.2989 94.224 82.7763 94.224C82.0576 94.224 81.4649 94.0653 80.9983 93.748C80.5409 93.4213 80.3123 92.9313 80.3123 92.278C80.3123 91.55 80.5829 91.0133 81.1243 90.668C81.6749 90.3133 82.4356 90.0473 83.4063 89.87L84.9883 89.576V89.324C84.9883 88.9413 84.8529 88.6473 84.5823 88.442C84.3209 88.2273 83.9709 88.12 83.5323 88.12C83.1589 88.12 82.8323 88.1853 82.5523 88.316C82.2816 88.4373 81.9876 88.6427 81.6703 88.932C81.5489 89.0347 81.4323 89.086 81.3203 89.086C81.2083 89.086 81.0916 89.0347 80.9703 88.932L80.7463 88.736C80.6249 88.624 80.5643 88.5027 80.5643 88.372C80.5643 88.2507 80.6203 88.134 80.7323 88.022C81.1336 87.6393 81.5583 87.3547 82.0063 87.168C82.4543 86.9813 82.9536 86.888 83.5043 86.888ZM82.9863 93.034C83.5463 93.034 84.0176 92.8847 84.4003 92.586C84.7923 92.2873 84.9883 91.858 84.9883 91.298V90.654L83.7703 90.906C83.0889 91.046 82.5849 91.2047 82.2583 91.382C81.9316 91.5593 81.7683 91.83 81.7683 92.194C81.7683 92.4553 81.8756 92.6607 82.0903 92.81C82.3049 92.9593 82.6036 93.034 82.9863 93.034ZM91.7798 86.916C92.3678 86.916 92.8905 87.0653 93.3478 87.364C93.8145 87.6627 94.1785 88.0873 94.4398 88.638C94.7011 89.1887 94.8318 89.8233 94.8318 90.542C94.8318 91.27 94.7011 91.9093 94.4398 92.46C94.1785 93.0107 93.8145 93.4353 93.3478 93.734C92.8811 94.0327 92.3585 94.182 91.7798 94.182C90.7438 94.182 89.9831 93.7947 89.4978 93.02V93.51C89.4978 93.6593 89.4558 93.7807 89.3718 93.874C89.2878 93.958 89.1665 94 89.0078 94H88.6018C88.4525 94 88.3311 93.958 88.2378 93.874C88.1538 93.7807 88.1118 93.6593 88.1118 93.51V84.55C88.1118 84.3913 88.1538 84.27 88.2378 84.186C88.3311 84.102 88.4525 84.06 88.6018 84.06H89.1058C89.2645 84.06 89.3858 84.102 89.4698 84.186C89.5538 84.27 89.5958 84.3913 89.5958 84.55V87.966C90.0905 87.266 90.8185 86.916 91.7798 86.916ZM91.4718 92.894C92.0318 92.894 92.4798 92.684 92.8158 92.264C93.1518 91.8347 93.3198 91.2607 93.3198 90.542C93.3198 89.8327 93.1518 89.2633 92.8158 88.834C92.4891 88.4047 92.0458 88.19 91.4858 88.19C90.9165 88.19 90.4498 88.4047 90.0858 88.834C89.7218 89.254 89.5398 89.8233 89.5398 90.542C89.5398 91.2793 89.7218 91.858 90.0858 92.278C90.4498 92.6887 90.9118 92.894 91.4718 92.894ZM101.202 92.236C101.324 92.1333 101.44 92.082 101.552 92.082C101.664 92.082 101.781 92.1427 101.902 92.264L102.098 92.474C102.201 92.5953 102.252 92.712 102.252 92.824C102.252 92.9453 102.192 93.062 102.07 93.174C101.641 93.5473 101.212 93.8133 100.782 93.972C100.362 94.1307 99.8956 94.21 99.3823 94.21C98.6636 94.21 98.0383 94.0607 97.5063 93.762C96.9836 93.4633 96.5776 93.0433 96.2883 92.502C96.0083 91.9513 95.8682 91.3167 95.8682 90.598C95.8682 89.8887 96.0036 89.254 96.2743 88.694C96.5543 88.1247 96.9463 87.6813 97.4503 87.364C97.9636 87.0467 98.5609 86.888 99.2423 86.888C100.26 86.888 101.044 87.1913 101.594 87.798C102.145 88.3953 102.42 89.2213 102.42 90.276V90.402C102.411 90.5513 102.364 90.668 102.28 90.752C102.196 90.836 102.075 90.878 101.916 90.878H97.3243C97.3803 91.494 97.5809 91.998 97.9263 92.39C98.2809 92.7727 98.7756 92.964 99.4103 92.964C99.7556 92.964 100.059 92.9127 100.32 92.81C100.582 92.698 100.876 92.5067 101.202 92.236ZM99.2143 88.064C98.7009 88.064 98.2856 88.218 97.9683 88.526C97.6603 88.8247 97.4596 89.2493 97.3663 89.8H100.964C100.927 89.2587 100.759 88.834 100.46 88.526C100.162 88.218 99.7463 88.064 99.2143 88.064ZM104.326 94C104.176 94 104.055 93.958 103.962 93.874C103.878 93.7807 103.836 93.6593 103.836 93.51V84.55C103.836 84.3913 103.878 84.27 103.962 84.186C104.055 84.102 104.176 84.06 104.326 84.06H104.83C104.988 84.06 105.11 84.102 105.194 84.186C105.278 84.27 105.32 84.3913 105.32 84.55V93.51C105.32 93.6593 105.278 93.7807 105.194 93.874C105.11 93.958 104.988 94 104.83 94H104.326Z" fill="#1B1B1F"/>
<rect x="72" y="118" width="320" height="4" rx="2" fill="#DEDEE3"/>
<rect x="172" y="117" width="119" height="6" rx="3" fill="#0063FB"/>
<g filter="url(#filter0_dd_4508_22602)">
<rect x="274.5" y="59" width="33" height="32" rx="4" fill="#1B1B1F"/>
<path d="M288.31 74.624C288.945 74.848 289.435 75.198 289.78 75.674C290.125 76.1407 290.298 76.6867 290.298 77.312C290.298 77.8627 290.153 78.362 289.864 78.81C289.575 79.2487 289.159 79.594 288.618 79.846C288.077 80.098 287.437 80.224 286.7 80.224C285.963 80.224 285.323 80.098 284.782 79.846C284.241 79.594 283.825 79.2487 283.536 78.81C283.247 78.362 283.102 77.8627 283.102 77.312C283.102 76.6867 283.275 76.1407 283.62 75.674C283.965 75.198 284.455 74.848 285.09 74.624C284.633 74.4187 284.273 74.134 284.012 73.77C283.751 73.3967 283.62 72.958 283.62 72.454C283.62 71.95 283.751 71.502 284.012 71.11C284.273 70.718 284.637 70.4147 285.104 70.2C285.571 69.976 286.103 69.864 286.7 69.864C287.297 69.864 287.829 69.976 288.296 70.2C288.763 70.4147 289.127 70.718 289.388 71.11C289.649 71.502 289.78 71.95 289.78 72.454C289.78 72.958 289.649 73.3967 289.388 73.77C289.127 74.134 288.767 74.4187 288.31 74.624ZM284.544 72.426C284.544 72.986 284.74 73.434 285.132 73.77C285.533 74.106 286.056 74.274 286.7 74.274C287.344 74.274 287.862 74.106 288.254 73.77C288.655 73.434 288.856 72.986 288.856 72.426C288.856 71.9033 288.66 71.4787 288.268 71.152C287.885 70.816 287.363 70.648 286.7 70.648C286.037 70.648 285.51 70.816 285.118 71.152C284.735 71.4787 284.544 71.9033 284.544 72.426ZM286.7 79.398C287.512 79.398 288.151 79.202 288.618 78.81C289.094 78.4087 289.332 77.9 289.332 77.284C289.332 76.6213 289.094 76.0847 288.618 75.674C288.142 75.2633 287.503 75.058 286.7 75.058C285.897 75.058 285.258 75.2633 284.782 75.674C284.306 76.0847 284.068 76.6213 284.068 77.284C284.068 77.9 284.301 78.4087 284.768 78.81C285.244 79.202 285.888 79.398 286.7 79.398ZM295.163 80.21C294.51 80.21 293.936 80.0513 293.441 79.734C292.956 79.4167 292.568 78.9733 292.279 78.404C291.822 77.4987 291.593 76.374 291.593 75.03C291.593 73.6767 291.822 72.5473 292.279 71.642C292.568 71.0727 292.956 70.634 293.441 70.326C293.936 70.0087 294.51 69.85 295.163 69.85C295.816 69.85 296.386 70.0087 296.871 70.326C297.366 70.634 297.758 71.0727 298.047 71.642C298.504 72.5473 298.733 73.6767 298.733 75.03C298.733 76.374 298.504 77.4987 298.047 78.404C297.758 78.9733 297.366 79.4167 296.871 79.734C296.386 80.0513 295.816 80.21 295.163 80.21ZM295.163 79.398C296.078 79.398 296.764 78.922 297.221 77.97C297.585 77.1953 297.767 76.2153 297.767 75.03C297.767 73.826 297.585 72.8413 297.221 72.076C296.773 71.1333 296.087 70.662 295.163 70.662C294.239 70.662 293.553 71.1333 293.105 72.076C292.741 72.8413 292.559 73.826 292.559 75.03C292.559 76.2247 292.741 77.2047 293.105 77.97C293.562 78.922 294.248 79.398 295.163 79.398Z" fill="white"/>
<path d="M289.586 97.5858L285.343 93.3431C283.843 91.8429 281.808 91 279.686 91H302.314C300.192 91 298.157 91.8429 296.657 93.3431L292.414 97.5858C291.633 98.3668 290.367 98.3668 289.586 97.5858Z" fill="#1B1B1F"/>
</g>
<path d="M277 120C277 112.268 283.268 106 291 106C298.732 106 305 112.268 305 120C305 127.732 298.732 134 291 134C283.268 134 277 127.732 277 120Z" fill="#00337F"/>
<path d="M291 102C300.941 102 309 110.059 309 120C309 129.941 300.941 138 291 138C281.059 138 273 129.941 273 120C273 110.059 281.059 102 291 102Z" stroke="black" stroke-opacity="0.08" stroke-width="8"/>
<rect x="159" y="106" width="28" height="28" rx="14" fill="#0063FB"/>
<rect x="152.5" y="8" width="41" height="40" rx="20" fill="#BE3830"/>
<path d="M169.688 31.978C170.873 31.026 171.802 30.2467 172.474 29.64C173.146 29.024 173.71 28.3847 174.168 27.722C174.634 27.05 174.868 26.392 174.868 25.748C174.868 25.1413 174.718 24.6653 174.42 24.32C174.13 23.9653 173.659 23.788 173.006 23.788C172.371 23.788 171.876 23.9887 171.522 24.39C171.176 24.782 170.99 25.3093 170.962 25.972H169.73C169.767 24.9267 170.084 24.1193 170.682 23.55C171.279 22.9807 172.049 22.696 172.992 22.696C173.953 22.696 174.714 22.962 175.274 23.494C175.843 24.026 176.128 24.7587 176.128 25.692C176.128 26.4667 175.894 27.2227 175.428 27.96C174.97 28.688 174.448 29.332 173.86 29.892C173.272 30.4427 172.52 31.0867 171.606 31.824H176.422V32.888H169.688V31.978Z" fill="white"/>
<rect width="54" height="3" transform="translate(174.5 48) rotate(90)" fill="#BE3830"/>
<rect x="212" y="8" width="41" height="40" rx="20" fill="#BE3830"/>
<path d="M229.218 25.426C229.283 24.5673 229.615 23.8953 230.212 23.41C230.809 22.9247 231.584 22.682 232.536 22.682C233.171 22.682 233.717 22.7987 234.174 23.032C234.641 23.256 234.991 23.564 235.224 23.956C235.467 24.348 235.588 24.7913 235.588 25.286C235.588 25.8647 235.42 26.364 235.084 26.784C234.757 27.204 234.328 27.4747 233.796 27.596V27.666C234.403 27.8153 234.883 28.1093 235.238 28.548C235.593 28.9867 235.77 29.5607 235.77 30.27C235.77 30.802 235.649 31.2827 235.406 31.712C235.163 32.132 234.799 32.4633 234.314 32.706C233.829 32.9487 233.245 33.07 232.564 33.07C231.575 33.07 230.763 32.8133 230.128 32.3C229.493 31.7773 229.139 31.04 229.064 30.088H230.296C230.361 30.648 230.59 31.1053 230.982 31.46C231.374 31.8147 231.897 31.992 232.55 31.992C233.203 31.992 233.698 31.824 234.034 31.488C234.379 31.1427 234.552 30.6993 234.552 30.158C234.552 29.458 234.319 28.954 233.852 28.646C233.385 28.338 232.681 28.184 231.738 28.184H231.416V27.12H231.752C232.611 27.1107 233.259 26.9707 233.698 26.7C234.137 26.42 234.356 25.9907 234.356 25.412C234.356 24.9173 234.193 24.5207 233.866 24.222C233.549 23.9233 233.091 23.774 232.494 23.774C231.915 23.774 231.449 23.9233 231.094 24.222C230.739 24.5207 230.529 24.922 230.464 25.426H229.218Z" fill="white"/>
<rect width="65" height="3" transform="translate(234 48) rotate(90)" fill="#BE3830"/>
<rect x="330" y="8" width="41" height="40" rx="20" fill="#BE3830"/>
<path d="M353.426 23.984H348.512V27.176C348.727 26.8773 349.044 26.6347 349.464 26.448C349.884 26.252 350.337 26.154 350.822 26.154C351.597 26.154 352.227 26.3173 352.712 26.644C353.198 26.9613 353.543 27.3767 353.748 27.89C353.963 28.394 354.07 28.9307 354.07 29.5C354.07 30.172 353.944 30.774 353.692 31.306C353.44 31.838 353.053 32.258 352.53 32.566C352.017 32.874 351.378 33.028 350.612 33.028C349.632 33.028 348.839 32.776 348.232 32.272C347.626 31.768 347.257 31.096 347.126 30.256H348.372C348.494 30.788 348.75 31.2033 349.142 31.502C349.534 31.8007 350.029 31.95 350.626 31.95C351.364 31.95 351.919 31.7307 352.292 31.292C352.666 30.844 352.852 30.256 352.852 29.528C352.852 28.8 352.666 28.24 352.292 27.848C351.919 27.4467 351.368 27.246 350.64 27.246C350.146 27.246 349.712 27.3673 349.338 27.61C348.974 27.8433 348.708 28.1653 348.54 28.576H347.336V22.864H353.426V23.984Z" fill="white"/>
<rect width="66" height="3" transform="translate(352 48) rotate(90)" fill="#BE3830"/>
<rect x="270.5" y="8" width="41" height="40" rx="20" fill="#BE3830"/>
<path d="M287.158 30.746V29.78L292.072 22.976H293.598V29.64H294.998V30.746H293.598V33H292.338V30.746H287.158ZM292.394 24.306L288.628 29.64H292.394V24.306Z" fill="white"/>
<rect width="7" height="3" transform="translate(292.5 48) rotate(90)" fill="#BE3830"/>
<rect x="8" y="69" width="40" height="40" rx="20" fill="#BE3830"/>
<path d="M26.2898 85.04V83.878H28.9218V94H27.6338V85.04H26.2898Z" fill="white"/>
<rect width="20" height="3" transform="translate(48 87.5)" fill="#BE3830"/>
<rect x="8" y="176" width="41" height="40" rx="20" fill="#BE3830"/>
<path d="M26.8 195.736C26.2773 195.531 25.876 195.232 25.596 194.84C25.316 194.448 25.176 193.972 25.176 193.412C25.176 192.908 25.302 192.455 25.554 192.054C25.806 191.643 26.1793 191.321 26.674 191.088C27.178 190.845 27.7847 190.724 28.494 190.724C29.2033 190.724 29.8053 190.845 30.3 191.088C30.804 191.321 31.182 191.643 31.434 192.054C31.6953 192.455 31.826 192.908 31.826 193.412C31.826 193.953 31.6813 194.429 31.392 194.84C31.1027 195.241 30.706 195.54 30.202 195.736C30.7807 195.913 31.238 196.226 31.574 196.674C31.9193 197.113 32.092 197.645 32.092 198.27C32.092 198.877 31.9427 199.409 31.644 199.866C31.3453 200.314 30.9207 200.664 30.37 200.916C29.8287 201.159 29.2033 201.28 28.494 201.28C27.7847 201.28 27.1593 201.159 26.618 200.916C26.086 200.664 25.6707 200.314 25.372 199.866C25.0733 199.409 24.924 198.877 24.924 198.27C24.924 197.645 25.092 197.108 25.428 196.66C25.764 196.212 26.2213 195.904 26.8 195.736ZM30.594 193.566C30.594 192.997 30.4073 192.558 30.034 192.25C29.6607 191.942 29.1473 191.788 28.494 191.788C27.85 191.788 27.3413 191.942 26.968 192.25C26.5947 192.558 26.408 193.001 26.408 193.58C26.408 194.103 26.5993 194.523 26.982 194.84C27.374 195.157 27.878 195.316 28.494 195.316C29.1193 195.316 29.6233 195.157 30.006 194.84C30.398 194.513 30.594 194.089 30.594 193.566ZM28.494 196.296C27.8033 196.296 27.2387 196.459 26.8 196.786C26.3613 197.103 26.142 197.584 26.142 198.228C26.142 198.825 26.352 199.306 26.772 199.67C27.2013 200.034 27.7753 200.216 28.494 200.216C29.2127 200.216 29.782 200.034 30.202 199.67C30.622 199.306 30.832 198.825 30.832 198.228C30.832 197.603 30.6173 197.127 30.188 196.8C29.7587 196.464 29.194 196.296 28.494 196.296Z" fill="white"/>
<rect width="19" height="3" transform="translate(49 194.5)" fill="#BE3830"/>
<rect x="8" y="131" width="41" height="40" rx="20" fill="#BE3830"/>
<path d="M30.5666 148.286C30.3613 147.25 29.722 146.732 28.6486 146.732C27.818 146.732 27.1973 147.054 26.7866 147.698C26.376 148.333 26.1753 149.383 26.1846 150.848C26.3993 150.363 26.754 149.985 27.2486 149.714C27.7526 149.434 28.3126 149.294 28.9286 149.294C29.89 149.294 30.6553 149.593 31.2246 150.19C31.8033 150.787 32.0926 151.613 32.0926 152.668C32.0926 153.303 31.9666 153.872 31.7146 154.376C31.472 154.88 31.0986 155.281 30.5946 155.58C30.1 155.879 29.498 156.028 28.7886 156.028C27.8273 156.028 27.076 155.813 26.5346 155.384C25.9933 154.955 25.6153 154.362 25.4006 153.606C25.186 152.85 25.0786 151.917 25.0786 150.806C25.0786 147.381 26.2733 145.668 28.6626 145.668C29.5773 145.668 30.296 145.915 30.8186 146.41C31.3413 146.905 31.6493 147.53 31.7426 148.286H30.5666ZM28.6626 150.372C28.2613 150.372 27.8833 150.456 27.5286 150.624C27.174 150.783 26.8846 151.03 26.6606 151.366C26.446 151.693 26.3386 152.094 26.3386 152.57C26.3386 153.279 26.544 153.858 26.9546 154.306C27.3653 154.745 27.9533 154.964 28.7186 154.964C29.372 154.964 29.89 154.763 30.2726 154.362C30.6646 153.951 30.8606 153.401 30.8606 152.71C30.8606 151.982 30.674 151.413 30.3006 151.002C29.9273 150.582 29.3813 150.372 28.6626 150.372Z" fill="white"/>
<rect width="19" height="3" transform="translate(49 149.5)" fill="#BE3830"/>
<rect width="19" height="3" transform="translate(396 194.5)" fill="#BE3830"/>
<rect x="415" y="176" width="41" height="40" rx="20" fill="#BE3830"/>
<path d="M433.597 198.284C433.69 198.816 433.905 199.227 434.241 199.516C434.586 199.805 435.048 199.95 435.627 199.95C436.401 199.95 436.971 199.647 437.335 199.04C437.708 198.433 437.885 197.411 437.867 195.974C437.671 196.394 437.344 196.725 436.887 196.968C436.429 197.201 435.921 197.318 435.361 197.318C434.735 197.318 434.175 197.192 433.681 196.94C433.195 196.679 432.813 196.301 432.533 195.806C432.253 195.311 432.113 194.714 432.113 194.014C432.113 193.015 432.402 192.213 432.981 191.606C433.559 190.99 434.381 190.682 435.445 190.682C436.751 190.682 437.666 191.107 438.189 191.956C438.721 192.805 438.987 194.07 438.987 195.75C438.987 196.926 438.879 197.897 438.665 198.662C438.459 199.427 438.105 200.011 437.601 200.412C437.106 200.813 436.425 201.014 435.557 201.014C434.605 201.014 433.863 200.757 433.331 200.244C432.799 199.731 432.495 199.077 432.421 198.284H433.597ZM435.571 196.24C436.196 196.24 436.709 196.049 437.111 195.666C437.512 195.274 437.713 194.747 437.713 194.084C437.713 193.384 437.517 192.819 437.125 192.39C436.733 191.961 436.182 191.746 435.473 191.746C434.819 191.746 434.297 191.951 433.905 192.362C433.522 192.773 433.331 193.314 433.331 193.986C433.331 194.667 433.522 195.213 433.905 195.624C434.287 196.035 434.843 196.24 435.571 196.24Z" fill="white"/>
<rect width="20" height="3" transform="translate(396 149.5)" fill="#BE3830"/>
<rect x="416" y="131" width="40" height="40" rx="20" fill="#BE3830"/>
<path d="M439.277 146.872L435.385 156H434.097L438.045 146.998H432.641V145.906H439.277V146.872Z" fill="white"/>
<defs>
<filter id="filter0_dd_4508_22602" x="266.5" y="54" width="49" height="55.1716" filterUnits="userSpaceOnUse" color-interpolation-filters="sRGB">
<feFlood flood-opacity="0" result="BackgroundImageFix"/>
<feColorMatrix in="SourceAlpha" type="matrix" values="0 0 0 0 0 0 0 0 0 0 0 0 0 0 0 0 0 0 127 0" result="hardAlpha"/>
<feOffset dy="3"/>
<feGaussianBlur stdDeviation="4"/>
<feComposite in2="hardAlpha" operator="out"/>
<feColorMatrix type="matrix" values="0 0 0 0 0 0 0 0 0 0 0 0 0 0 0 0 0 0 0.16 0"/>
<feBlend mode="normal" in2="BackgroundImageFix" result="effect1_dropShadow_4508_22602"/>
<feColorMatrix in="SourceAlpha" type="matrix" values="0 0 0 0 0 0 0 0 0 0 0 0 0 0 0 0 0 0 127 0" result="hardAlpha"/>
<feOffset dy="3"/>
<feGaussianBlur stdDeviation="3"/>
<feComposite in2="hardAlpha" operator="out"/>
<feColorMatrix type="matrix" values="0 0 0 0 0 0 0 0 0 0 0 0 0 0 0 0 0 0 0.1 0"/>
<feBlend mode="normal" in2="effect1_dropShadow_4508_22602" result="effect2_dropShadow_4508_22602"/>
<feBlend mode="normal" in="SourceGraphic" in2="effect2_dropShadow_4508_22602" result="shape"/>
</filter>
<clipPath id="clip0_4508_22602">
<rect width="132" height="22" fill="white" transform="translate(80 185)"/>
</clipPath>
<clipPath id="clip1_4508_22602">
<rect width="132" height="22" fill="white" transform="translate(252 185)"/>
</clipPath>
</defs>
</svg>
