<svg width="688" height="494" viewBox="0 0 688 494" fill="none" xmlns="http://www.w3.org/2000/svg">
<rect width="688" height="494" fill="#F6F6F6"/>
<rect x="112" y="80" width="464" height="300" rx="8" fill="white"/>
<rect x="181.5" y="252.5" width="150" height="47" rx="3.5" fill="white"/>
<rect x="181.5" y="252.5" width="150" height="47" rx="3.5" stroke="#CACAD1"/>
<g clip-path="url(#clip0_27017_6598)">
<path d="M193.992 273.672C194.728 273.672 195.373 273.827 195.928 274.136C196.493 274.435 196.931 274.861 197.24 275.416C197.549 275.971 197.704 276.611 197.704 277.336C197.704 277.987 197.549 278.611 197.24 279.208C196.931 279.805 196.483 280.291 195.896 280.664C195.309 281.037 194.621 281.224 193.832 281.224C193.064 281.224 192.397 281.128 191.832 280.936C191.277 280.744 190.648 280.413 189.944 279.944C189.837 279.88 189.784 279.795 189.784 279.688C189.784 279.613 189.805 279.549 189.848 279.496L190.056 279.208C190.12 279.112 190.195 279.064 190.28 279.064C190.344 279.064 190.419 279.091 190.504 279.144C191.155 279.581 191.709 279.885 192.168 280.056C192.637 280.227 193.155 280.312 193.72 280.312C194.317 280.312 194.835 280.179 195.272 279.912C195.709 279.635 196.04 279.272 196.264 278.824C196.499 278.365 196.616 277.869 196.616 277.336C196.616 276.483 196.376 275.816 195.896 275.336C195.427 274.856 194.749 274.616 193.864 274.616C192.915 274.616 192.12 274.904 191.48 275.48C191.363 275.587 191.224 275.629 191.064 275.608L190.712 275.56C190.616 275.549 190.541 275.512 190.488 275.448C190.435 275.384 190.413 275.304 190.424 275.208L190.856 269.944C190.867 269.848 190.899 269.773 190.952 269.72C191.016 269.667 191.096 269.64 191.192 269.64H196.888C197.101 269.64 197.208 269.747 197.208 269.96V270.248C197.208 270.461 197.101 270.568 196.888 270.568H191.8L191.464 274.504C191.763 274.259 192.125 274.061 192.552 273.912C192.989 273.752 193.469 273.672 193.992 273.672ZM203.394 281.24C202.647 281.24 201.991 281.059 201.426 280.696C200.871 280.333 200.428 279.827 200.098 279.176C199.575 278.141 199.314 276.856 199.314 275.32C199.314 273.773 199.575 272.483 200.098 271.448C200.428 270.797 200.871 270.296 201.426 269.944C201.991 269.581 202.647 269.4 203.394 269.4C204.14 269.4 204.791 269.581 205.346 269.944C205.911 270.296 206.359 270.797 206.69 271.448C207.212 272.483 207.474 273.773 207.474 275.32C207.474 276.856 207.212 278.141 206.69 279.176C206.359 279.827 205.911 280.333 205.346 280.696C204.791 281.059 204.14 281.24 203.394 281.24ZM203.394 280.312C204.439 280.312 205.223 279.768 205.746 278.68C206.162 277.795 206.37 276.675 206.37 275.32C206.37 273.944 206.162 272.819 205.746 271.944C205.234 270.867 204.45 270.328 203.394 270.328C202.338 270.328 201.554 270.867 201.042 271.944C200.626 272.819 200.418 273.944 200.418 275.32C200.418 276.685 200.626 277.805 201.042 278.68C201.564 279.768 202.348 280.312 203.394 280.312ZM221.075 272.92C221.928 272.92 222.579 273.165 223.027 273.656C223.486 274.136 223.715 274.755 223.715 275.512V280.68C223.715 280.893 223.608 281 223.395 281H222.979C222.766 281 222.659 280.893 222.659 280.68V275.8C222.659 275.16 222.51 274.669 222.211 274.328C221.923 273.987 221.491 273.816 220.915 273.816C220.307 273.816 219.822 274.019 219.459 274.424C219.096 274.829 218.915 275.352 218.915 275.992V280.68C218.915 280.893 218.808 281 218.595 281H218.179C217.966 281 217.859 280.893 217.859 280.68V275.8C217.859 275.16 217.71 274.669 217.411 274.328C217.123 273.987 216.686 273.816 216.099 273.816C215.555 273.816 215.102 273.987 214.739 274.328C214.387 274.669 214.179 275.117 214.115 275.672V280.68C214.115 280.893 214.008 281 213.795 281H213.379C213.166 281 213.059 280.893 213.059 280.68V273.432C213.059 273.219 213.166 273.112 213.379 273.112H213.731C213.944 273.112 214.051 273.219 214.051 273.432V274.088C214.531 273.309 215.294 272.92 216.339 272.92C216.883 272.92 217.347 273.043 217.731 273.288C218.126 273.523 218.419 273.843 218.611 274.248C219.176 273.363 219.998 272.92 221.075 272.92ZM229.746 275.443C229.874 275.443 229.938 275.507 229.938 275.635V275.808C229.938 275.936 229.874 276 229.746 276H225.483C225.355 276 225.291 275.936 225.291 275.808V275.77C225.291 275.302 225.371 274.909 225.531 274.589C225.698 274.262 225.912 273.987 226.175 273.763C226.443 273.539 226.811 273.283 227.279 272.995C227.323 272.963 227.49 272.864 227.778 272.698C228.117 272.506 228.383 272.339 228.575 272.198C228.767 272.058 228.927 271.885 229.055 271.68C229.183 271.469 229.247 271.222 229.247 270.941C229.247 270.512 229.103 270.182 228.815 269.952C228.527 269.722 228.178 269.606 227.768 269.606C227.371 269.606 227.042 269.69 226.779 269.856C226.517 270.022 226.213 270.31 225.867 270.72C225.823 270.778 225.768 270.806 225.704 270.806C225.672 270.806 225.634 270.79 225.589 270.758L225.426 270.634C225.368 270.582 225.339 270.531 225.339 270.48C225.339 270.448 225.355 270.41 225.387 270.365C225.727 269.936 226.079 269.61 226.443 269.386C226.815 269.162 227.25 269.05 227.749 269.05C228.165 269.05 228.536 269.13 228.863 269.29C229.189 269.443 229.442 269.664 229.621 269.952C229.807 270.234 229.899 270.554 229.899 270.912C229.899 271.29 229.819 271.616 229.659 271.891C229.506 272.16 229.311 272.384 229.074 272.563C228.837 272.736 228.517 272.941 228.114 273.178L227.634 273.466C227.231 273.715 226.923 273.92 226.712 274.08C226.501 274.234 226.325 274.422 226.184 274.646C226.043 274.864 225.96 275.13 225.935 275.443H229.746Z" fill="#1B1B1F"/>
</g>
<rect x="356.5" y="252.5" width="150" height="47" rx="3.5" fill="white"/>
<rect x="356.5" y="252.5" width="150" height="47" rx="3.5" stroke="#CACAD1"/>
<g clip-path="url(#clip1_27017_6598)">
<path d="M368.992 273.672C369.728 273.672 370.373 273.827 370.928 274.136C371.493 274.435 371.931 274.861 372.24 275.416C372.549 275.971 372.704 276.611 372.704 277.336C372.704 277.987 372.549 278.611 372.24 279.208C371.931 279.805 371.483 280.291 370.896 280.664C370.309 281.037 369.621 281.224 368.832 281.224C368.064 281.224 367.397 281.128 366.832 280.936C366.277 280.744 365.648 280.413 364.944 279.944C364.837 279.88 364.784 279.795 364.784 279.688C364.784 279.613 364.805 279.549 364.848 279.496L365.056 279.208C365.12 279.112 365.195 279.064 365.28 279.064C365.344 279.064 365.419 279.091 365.504 279.144C366.155 279.581 366.709 279.885 367.168 280.056C367.637 280.227 368.155 280.312 368.72 280.312C369.317 280.312 369.835 280.179 370.272 279.912C370.709 279.635 371.04 279.272 371.264 278.824C371.499 278.365 371.616 277.869 371.616 277.336C371.616 276.483 371.376 275.816 370.896 275.336C370.427 274.856 369.749 274.616 368.864 274.616C367.915 274.616 367.12 274.904 366.48 275.48C366.363 275.587 366.224 275.629 366.064 275.608L365.712 275.56C365.616 275.549 365.541 275.512 365.488 275.448C365.435 275.384 365.413 275.304 365.424 275.208L365.856 269.944C365.867 269.848 365.899 269.773 365.952 269.72C366.016 269.667 366.096 269.64 366.192 269.64H371.888C372.101 269.64 372.208 269.747 372.208 269.96V270.248C372.208 270.461 372.101 270.568 371.888 270.568H366.8L366.464 274.504C366.763 274.259 367.125 274.061 367.552 273.912C367.989 273.752 368.469 273.672 368.992 273.672ZM378.394 281.24C377.647 281.24 376.991 281.059 376.426 280.696C375.871 280.333 375.428 279.827 375.098 279.176C374.575 278.141 374.314 276.856 374.314 275.32C374.314 273.773 374.575 272.483 375.098 271.448C375.428 270.797 375.871 270.296 376.426 269.944C376.991 269.581 377.647 269.4 378.394 269.4C379.14 269.4 379.791 269.581 380.346 269.944C380.911 270.296 381.359 270.797 381.69 271.448C382.212 272.483 382.474 273.773 382.474 275.32C382.474 276.856 382.212 278.141 381.69 279.176C381.359 279.827 380.911 280.333 380.346 280.696C379.791 281.059 379.14 281.24 378.394 281.24ZM378.394 280.312C379.439 280.312 380.223 279.768 380.746 278.68C381.162 277.795 381.37 276.675 381.37 275.32C381.37 273.944 381.162 272.819 380.746 271.944C380.234 270.867 379.45 270.328 378.394 270.328C377.338 270.328 376.554 270.867 376.042 271.944C375.626 272.819 375.418 273.944 375.418 275.32C375.418 276.685 375.626 277.805 376.042 278.68C376.564 279.768 377.348 280.312 378.394 280.312ZM396.075 272.92C396.928 272.92 397.579 273.165 398.027 273.656C398.486 274.136 398.715 274.755 398.715 275.512V280.68C398.715 280.893 398.608 281 398.395 281H397.979C397.766 281 397.659 280.893 397.659 280.68V275.8C397.659 275.16 397.51 274.669 397.211 274.328C396.923 273.987 396.491 273.816 395.915 273.816C395.307 273.816 394.822 274.019 394.459 274.424C394.096 274.829 393.915 275.352 393.915 275.992V280.68C393.915 280.893 393.808 281 393.595 281H393.179C392.966 281 392.859 280.893 392.859 280.68V275.8C392.859 275.16 392.71 274.669 392.411 274.328C392.123 273.987 391.686 273.816 391.099 273.816C390.555 273.816 390.102 273.987 389.739 274.328C389.387 274.669 389.179 275.117 389.115 275.672V280.68C389.115 280.893 389.008 281 388.795 281H388.379C388.166 281 388.059 280.893 388.059 280.68V273.432C388.059 273.219 388.166 273.112 388.379 273.112H388.731C388.944 273.112 389.051 273.219 389.051 273.432V274.088C389.531 273.309 390.294 272.92 391.339 272.92C391.883 272.92 392.347 273.043 392.731 273.288C393.126 273.523 393.419 273.843 393.611 274.248C394.176 273.363 394.998 272.92 396.075 272.92ZM404.746 275.443C404.874 275.443 404.938 275.507 404.938 275.635V275.808C404.938 275.936 404.874 276 404.746 276H400.483C400.355 276 400.291 275.936 400.291 275.808V275.77C400.291 275.302 400.371 274.909 400.531 274.589C400.698 274.262 400.912 273.987 401.175 273.763C401.443 273.539 401.811 273.283 402.279 272.995C402.323 272.963 402.49 272.864 402.778 272.698C403.117 272.506 403.383 272.339 403.575 272.198C403.767 272.058 403.927 271.885 404.055 271.68C404.183 271.469 404.247 271.222 404.247 270.941C404.247 270.512 404.103 270.182 403.815 269.952C403.527 269.722 403.178 269.606 402.768 269.606C402.371 269.606 402.042 269.69 401.779 269.856C401.517 270.022 401.213 270.31 400.867 270.72C400.823 270.778 400.768 270.806 400.704 270.806C400.672 270.806 400.634 270.79 400.589 270.758L400.426 270.634C400.368 270.582 400.339 270.531 400.339 270.48C400.339 270.448 400.355 270.41 400.387 270.365C400.727 269.936 401.079 269.61 401.443 269.386C401.815 269.162 402.25 269.05 402.749 269.05C403.165 269.05 403.536 269.13 403.863 269.29C404.189 269.443 404.442 269.664 404.621 269.952C404.807 270.234 404.899 270.554 404.899 270.912C404.899 271.29 404.819 271.616 404.659 271.891C404.506 272.16 404.311 272.384 404.074 272.563C403.837 272.736 403.517 272.941 403.114 273.178L402.634 273.466C402.231 273.715 401.923 273.92 401.712 274.08C401.501 274.234 401.325 274.422 401.184 274.646C401.043 274.864 400.96 275.13 400.935 275.443H404.746Z" fill="#1B1B1F"/>
</g>
<path d="M185.2 236.21C184.547 236.21 183.973 236.051 183.478 235.734C182.993 235.417 182.605 234.973 182.316 234.404C181.859 233.499 181.63 232.374 181.63 231.03C181.63 229.677 181.859 228.547 182.316 227.642C182.605 227.073 182.993 226.634 183.478 226.326C183.973 226.009 184.547 225.85 185.2 225.85C185.853 225.85 186.423 226.009 186.908 226.326C187.403 226.634 187.795 227.073 188.084 227.642C188.541 228.547 188.77 229.677 188.77 231.03C188.77 232.374 188.541 233.499 188.084 234.404C187.795 234.973 187.403 235.417 186.908 235.734C186.423 236.051 185.853 236.21 185.2 236.21ZM185.2 235.398C186.115 235.398 186.801 234.922 187.258 233.97C187.622 233.195 187.804 232.215 187.804 231.03C187.804 229.826 187.622 228.841 187.258 228.076C186.81 227.133 186.124 226.662 185.2 226.662C184.276 226.662 183.59 227.133 183.142 228.076C182.778 228.841 182.596 229.826 182.596 231.03C182.596 232.225 182.778 233.205 183.142 233.97C183.599 234.922 184.285 235.398 185.2 235.398ZM200.671 228.93C201.418 228.93 201.987 229.145 202.379 229.574C202.78 229.994 202.981 230.535 202.981 231.198V235.72C202.981 235.907 202.888 236 202.701 236H202.337C202.15 236 202.057 235.907 202.057 235.72V231.45C202.057 230.89 201.926 230.461 201.665 230.162C201.413 229.863 201.035 229.714 200.531 229.714C199.999 229.714 199.574 229.891 199.257 230.246C198.94 230.601 198.781 231.058 198.781 231.618V235.72C198.781 235.907 198.688 236 198.501 236H198.137C197.95 236 197.857 235.907 197.857 235.72V231.45C197.857 230.89 197.726 230.461 197.465 230.162C197.213 229.863 196.83 229.714 196.317 229.714C195.841 229.714 195.444 229.863 195.127 230.162C194.819 230.461 194.637 230.853 194.581 231.338V235.72C194.581 235.907 194.488 236 194.301 236H193.937C193.75 236 193.657 235.907 193.657 235.72V229.378C193.657 229.191 193.75 229.098 193.937 229.098H194.245C194.432 229.098 194.525 229.191 194.525 229.378V229.952C194.945 229.271 195.612 228.93 196.527 228.93C197.003 228.93 197.409 229.037 197.745 229.252C198.09 229.457 198.347 229.737 198.515 230.092C199.01 229.317 199.728 228.93 200.671 228.93ZM208.258 230.513C208.37 230.513 208.426 230.569 208.426 230.681V230.832C208.426 230.944 208.37 231 208.258 231H204.528C204.416 231 204.36 230.944 204.36 230.832V230.798C204.36 230.39 204.43 230.045 204.57 229.765C204.716 229.48 204.904 229.239 205.133 229.043C205.368 228.847 205.69 228.623 206.099 228.371C206.138 228.343 206.284 228.256 206.536 228.11C206.833 227.942 207.065 227.797 207.233 227.674C207.401 227.55 207.541 227.399 207.653 227.22C207.765 227.035 207.821 226.82 207.821 226.573C207.821 226.198 207.695 225.91 207.443 225.708C207.191 225.506 206.886 225.406 206.528 225.406C206.18 225.406 205.892 225.478 205.662 225.624C205.433 225.77 205.167 226.022 204.864 226.38C204.825 226.43 204.778 226.456 204.722 226.456C204.694 226.456 204.66 226.442 204.621 226.414L204.478 226.304C204.428 226.26 204.402 226.215 204.402 226.17C204.402 226.142 204.416 226.108 204.444 226.069C204.741 225.694 205.049 225.408 205.368 225.212C205.693 225.016 206.074 224.918 206.511 224.918C206.875 224.918 207.2 224.988 207.485 225.128C207.771 225.263 207.992 225.456 208.149 225.708C208.311 225.954 208.392 226.234 208.392 226.548C208.392 226.878 208.322 227.164 208.182 227.405C208.048 227.64 207.877 227.836 207.67 227.993C207.463 228.144 207.183 228.323 206.83 228.53L206.41 228.782C206.057 229.001 205.788 229.18 205.604 229.32C205.419 229.454 205.265 229.62 205.142 229.816C205.018 230.006 204.946 230.238 204.923 230.513H208.258Z" fill="#5C5C66"/>
<path d="M467.611 226.172C467.713 226.097 467.83 226.06 467.961 226.06H468.185C468.371 226.06 468.465 226.153 468.465 226.34V235.72C468.465 235.907 468.371 236 468.185 236H467.807C467.62 236 467.527 235.907 467.527 235.72V227.264L465.413 228.776C465.347 228.823 465.287 228.846 465.231 228.846C465.147 228.846 465.077 228.804 465.021 228.72L464.881 228.51C464.843 228.463 464.825 228.407 464.825 228.342C464.825 228.258 464.867 228.183 464.951 228.118L467.611 226.172ZM474.833 236.21C474.179 236.21 473.605 236.051 473.111 235.734C472.625 235.417 472.238 234.973 471.949 234.404C471.491 233.499 471.263 232.374 471.263 231.03C471.263 229.677 471.491 228.547 471.949 227.642C472.238 227.073 472.625 226.634 473.111 226.326C473.605 226.009 474.179 225.85 474.833 225.85C475.486 225.85 476.055 226.009 476.541 226.326C477.035 226.634 477.427 227.073 477.717 227.642C478.174 228.547 478.403 229.677 478.403 231.03C478.403 232.374 478.174 233.499 477.717 234.404C477.427 234.973 477.035 235.417 476.541 235.734C476.055 236.051 475.486 236.21 474.833 236.21ZM474.833 235.398C475.747 235.398 476.433 234.922 476.891 233.97C477.255 233.195 477.437 232.215 477.437 231.03C477.437 229.826 477.255 228.841 476.891 228.076C476.443 227.133 475.757 226.662 474.833 226.662C473.909 226.662 473.223 227.133 472.775 228.076C472.411 228.841 472.229 229.826 472.229 231.03C472.229 232.225 472.411 233.205 472.775 233.97C473.232 234.922 473.918 235.398 474.833 235.398ZM483.419 236.21C482.765 236.21 482.191 236.051 481.697 235.734C481.211 235.417 480.824 234.973 480.535 234.404C480.077 233.499 479.849 232.374 479.849 231.03C479.849 229.677 480.077 228.547 480.535 227.642C480.824 227.073 481.211 226.634 481.697 226.326C482.191 226.009 482.765 225.85 483.419 225.85C484.072 225.85 484.641 226.009 485.127 226.326C485.621 226.634 486.013 227.073 486.303 227.642C486.76 228.547 486.989 229.677 486.989 231.03C486.989 232.374 486.76 233.499 486.303 234.404C486.013 234.973 485.621 235.417 485.127 235.734C484.641 236.051 484.072 236.21 483.419 236.21ZM483.419 235.398C484.333 235.398 485.019 234.922 485.477 233.97C485.841 233.195 486.023 232.215 486.023 231.03C486.023 229.826 485.841 228.841 485.477 228.076C485.029 227.133 484.343 226.662 483.419 226.662C482.495 226.662 481.809 227.133 481.361 228.076C480.997 228.841 480.815 229.826 480.815 231.03C480.815 232.225 480.997 233.205 481.361 233.97C481.818 234.922 482.504 235.398 483.419 235.398ZM498.89 228.93C499.637 228.93 500.206 229.145 500.598 229.574C500.999 229.994 501.2 230.535 501.2 231.198V235.72C501.2 235.907 501.107 236 500.92 236H500.556C500.369 236 500.276 235.907 500.276 235.72V231.45C500.276 230.89 500.145 230.461 499.884 230.162C499.632 229.863 499.254 229.714 498.75 229.714C498.218 229.714 497.793 229.891 497.476 230.246C497.159 230.601 497 231.058 497 231.618V235.72C497 235.907 496.907 236 496.72 236H496.356C496.169 236 496.076 235.907 496.076 235.72V231.45C496.076 230.89 495.945 230.461 495.684 230.162C495.432 229.863 495.049 229.714 494.536 229.714C494.06 229.714 493.663 229.863 493.346 230.162C493.038 230.461 492.856 230.853 492.8 231.338V235.72C492.8 235.907 492.707 236 492.52 236H492.156C491.969 236 491.876 235.907 491.876 235.72V229.378C491.876 229.191 491.969 229.098 492.156 229.098H492.464C492.651 229.098 492.744 229.191 492.744 229.378V229.952C493.164 229.271 493.831 228.93 494.746 228.93C495.222 228.93 495.628 229.037 495.964 229.252C496.309 229.457 496.566 229.737 496.734 230.092C497.229 229.317 497.947 228.93 498.89 228.93ZM506.477 230.513C506.589 230.513 506.645 230.569 506.645 230.681V230.832C506.645 230.944 506.589 231 506.477 231H502.747C502.635 231 502.579 230.944 502.579 230.832V230.798C502.579 230.39 502.649 230.045 502.789 229.765C502.935 229.48 503.122 229.239 503.352 229.043C503.587 228.847 503.909 228.623 504.318 228.371C504.357 228.343 504.503 228.256 504.755 228.11C505.052 227.942 505.284 227.797 505.452 227.674C505.62 227.55 505.76 227.399 505.872 227.22C505.984 227.035 506.04 226.82 506.04 226.573C506.04 226.198 505.914 225.91 505.662 225.708C505.41 225.506 505.105 225.406 504.746 225.406C504.399 225.406 504.111 225.478 503.881 225.624C503.652 225.77 503.386 226.022 503.083 226.38C503.044 226.43 502.996 226.456 502.94 226.456C502.912 226.456 502.879 226.442 502.84 226.414L502.697 226.304C502.646 226.26 502.621 226.215 502.621 226.17C502.621 226.142 502.635 226.108 502.663 226.069C502.96 225.694 503.268 225.408 503.587 225.212C503.912 225.016 504.293 224.918 504.73 224.918C505.094 224.918 505.418 224.988 505.704 225.128C505.99 225.263 506.211 225.456 506.368 225.708C506.53 225.954 506.611 226.234 506.611 226.548C506.611 226.878 506.541 227.164 506.401 227.405C506.267 227.64 506.096 227.836 505.889 227.993C505.682 228.144 505.402 228.323 505.049 228.53L504.629 228.782C504.276 229.001 504.007 229.18 503.822 229.32C503.638 229.454 503.484 229.62 503.36 229.816C503.237 230.006 503.164 230.238 503.142 230.513H506.477Z" fill="#5C5C66"/>
<path d="M189.218 174C188.938 174 188.751 173.869 188.658 173.608L188 171.718H183.604L182.946 173.608C182.853 173.869 182.666 174 182.386 174H181.798C181.658 174 181.546 173.972 181.462 173.916C181.387 173.851 181.35 173.762 181.35 173.65C181.35 173.594 181.364 173.524 181.392 173.44L184.64 164.452C184.733 164.191 184.92 164.06 185.2 164.06H186.446C186.726 164.06 186.913 164.191 187.006 164.452L190.254 173.44C190.282 173.524 190.296 173.594 190.296 173.65C190.296 173.762 190.254 173.851 190.17 173.916C190.095 173.972 189.988 174 189.848 174H189.218ZM187.552 170.388L187.118 169.156C187.109 169.137 187.006 168.843 186.81 168.274C186.315 166.874 185.979 165.875 185.802 165.278C185.531 166.137 185.172 167.201 184.724 168.47L184.486 169.17L184.066 170.388H187.552ZM195.174 166.916C195.762 166.916 196.285 167.065 196.742 167.364C197.209 167.663 197.573 168.087 197.834 168.638C198.096 169.189 198.226 169.823 198.226 170.542C198.226 171.27 198.096 171.909 197.834 172.46C197.573 173.011 197.209 173.435 196.742 173.734C196.276 174.033 195.753 174.182 195.174 174.182C194.204 174.182 193.476 173.846 192.99 173.174V175.988C192.99 176.147 192.948 176.268 192.864 176.352C192.78 176.436 192.659 176.478 192.5 176.478H191.996C191.847 176.478 191.726 176.436 191.632 176.352C191.548 176.268 191.506 176.147 191.506 175.988V167.588C191.506 167.429 191.548 167.308 191.632 167.224C191.726 167.14 191.847 167.098 191.996 167.098H192.402C192.561 167.098 192.682 167.14 192.766 167.224C192.85 167.308 192.892 167.429 192.892 167.588V168.106C193.387 167.313 194.148 166.916 195.174 166.916ZM194.866 172.894C195.426 172.894 195.874 172.684 196.21 172.264C196.546 171.835 196.714 171.261 196.714 170.542C196.714 169.833 196.546 169.263 196.21 168.834C195.884 168.405 195.44 168.19 194.88 168.19C194.311 168.19 193.844 168.4 193.48 168.82C193.116 169.24 192.934 169.814 192.934 170.542C192.934 171.27 193.116 171.844 193.48 172.264C193.844 172.684 194.306 172.894 194.866 172.894ZM202.485 166.888C203.418 166.888 204.137 167.107 204.641 167.546C205.145 167.975 205.397 168.549 205.397 169.268V173.51C205.397 173.659 205.355 173.781 205.271 173.874C205.187 173.958 205.065 174 204.907 174H204.543C204.393 174 204.272 173.958 204.179 173.874C204.095 173.781 204.053 173.659 204.053 173.51V173.202C203.829 173.529 203.521 173.781 203.129 173.958C202.737 174.135 202.279 174.224 201.757 174.224C201.038 174.224 200.445 174.065 199.979 173.748C199.521 173.421 199.293 172.931 199.293 172.278C199.293 171.55 199.563 171.013 200.105 170.668C200.655 170.313 201.416 170.047 202.387 169.87L203.969 169.576V169.324C203.969 168.941 203.833 168.647 203.563 168.442C203.301 168.227 202.951 168.12 202.513 168.12C202.139 168.12 201.813 168.185 201.533 168.316C201.262 168.437 200.968 168.643 200.651 168.932C200.529 169.035 200.413 169.086 200.301 169.086C200.189 169.086 200.072 169.035 199.951 168.932L199.727 168.736C199.605 168.624 199.545 168.503 199.545 168.372C199.545 168.251 199.601 168.134 199.713 168.022C200.114 167.639 200.539 167.355 200.987 167.168C201.435 166.981 201.934 166.888 202.485 166.888ZM201.967 173.034C202.527 173.034 202.998 172.885 203.381 172.586C203.773 172.287 203.969 171.858 203.969 171.298V170.654L202.751 170.906C202.069 171.046 201.565 171.205 201.239 171.382C200.912 171.559 200.749 171.83 200.749 172.194C200.749 172.455 200.856 172.661 201.071 172.81C201.285 172.959 201.584 173.034 201.967 173.034ZM210.2 167.028C210.406 167.028 210.616 167.051 210.83 167.098C211.082 167.154 211.208 167.303 211.208 167.546C211.208 167.611 211.204 167.658 211.194 167.686L211.124 168.022C211.068 168.283 210.928 168.414 210.704 168.414L210.578 168.4C210.41 168.372 210.261 168.358 210.13 168.358C209.664 168.358 209.286 168.545 208.996 168.918C208.716 169.282 208.576 169.791 208.576 170.444V173.51C208.576 173.659 208.534 173.781 208.45 173.874C208.366 173.958 208.245 174 208.086 174H207.582C207.433 174 207.312 173.958 207.218 173.874C207.134 173.781 207.092 173.659 207.092 173.51V167.588C207.092 167.429 207.134 167.308 207.218 167.224C207.312 167.14 207.433 167.098 207.582 167.098H207.988C208.147 167.098 208.268 167.14 208.352 167.224C208.436 167.308 208.478 167.429 208.478 167.588V168.134C208.646 167.789 208.875 167.518 209.164 167.322C209.454 167.126 209.799 167.028 210.2 167.028ZM215.784 172.824C215.812 172.815 215.854 172.81 215.91 172.81C216.143 172.81 216.283 172.945 216.33 173.216L216.372 173.44C216.381 173.468 216.386 173.515 216.386 173.58C216.386 173.813 216.255 173.963 215.994 174.028C215.62 174.112 215.28 174.154 214.972 174.154C214.309 174.154 213.828 174 213.53 173.692C213.24 173.384 213.096 172.922 213.096 172.306V168.232H212.326C212.176 168.232 212.055 168.19 211.962 168.106C211.878 168.013 211.836 167.891 211.836 167.742V167.588C211.836 167.429 211.878 167.308 211.962 167.224C212.055 167.14 212.176 167.098 212.326 167.098H213.096V165.362C213.096 165.203 213.138 165.082 213.222 164.998C213.315 164.914 213.436 164.872 213.586 164.872H214.09C214.248 164.872 214.37 164.914 214.454 164.998C214.538 165.082 214.58 165.203 214.58 165.362V167.098H215.84C215.998 167.098 216.12 167.14 216.204 167.224C216.288 167.308 216.33 167.429 216.33 167.588V167.742C216.33 167.891 216.288 168.013 216.204 168.106C216.12 168.19 215.998 168.232 215.84 168.232H214.58V172.124C214.58 172.395 214.636 172.586 214.748 172.698C214.869 172.81 215.06 172.866 215.322 172.866C215.434 172.866 215.588 172.852 215.784 172.824ZM224.957 166.888C225.695 166.888 226.264 167.098 226.665 167.518C227.067 167.929 227.267 168.484 227.267 169.184V173.51C227.267 173.659 227.225 173.781 227.141 173.874C227.057 173.958 226.936 174 226.777 174H226.273C226.124 174 226.003 173.958 225.909 173.874C225.825 173.781 225.783 173.659 225.783 173.51V169.632C225.783 169.175 225.681 168.815 225.475 168.554C225.27 168.293 224.957 168.162 224.537 168.162C224.108 168.162 223.767 168.307 223.515 168.596C223.273 168.885 223.151 169.259 223.151 169.716V173.51C223.151 173.659 223.109 173.781 223.025 173.874C222.941 173.958 222.82 174 222.661 174H222.157C222.008 174 221.887 173.958 221.793 173.874C221.709 173.781 221.667 173.659 221.667 173.51V169.632C221.667 169.175 221.565 168.815 221.359 168.554C221.163 168.293 220.855 168.162 220.435 168.162C220.025 168.162 219.693 168.297 219.441 168.568C219.189 168.839 219.054 169.189 219.035 169.618V173.51C219.035 173.659 218.993 173.781 218.909 173.874C218.825 173.958 218.704 174 218.545 174H218.041C217.892 174 217.771 173.958 217.677 173.874C217.593 173.781 217.551 173.659 217.551 173.51V167.588C217.551 167.429 217.593 167.308 217.677 167.224C217.771 167.14 217.892 167.098 218.041 167.098H218.447C218.606 167.098 218.727 167.14 218.811 167.224C218.895 167.308 218.937 167.429 218.937 167.588V167.896C219.367 167.224 220.029 166.888 220.925 166.888C221.373 166.888 221.765 166.981 222.101 167.168C222.437 167.355 222.694 167.616 222.871 167.952C223.347 167.243 224.043 166.888 224.957 166.888ZM233.909 172.236C234.031 172.133 234.147 172.082 234.259 172.082C234.371 172.082 234.488 172.143 234.609 172.264L234.805 172.474C234.908 172.595 234.959 172.712 234.959 172.824C234.959 172.945 234.899 173.062 234.777 173.174C234.348 173.547 233.919 173.813 233.489 173.972C233.069 174.131 232.603 174.21 232.089 174.21C231.371 174.21 230.745 174.061 230.213 173.762C229.691 173.463 229.285 173.043 228.995 172.502C228.715 171.951 228.575 171.317 228.575 170.598C228.575 169.889 228.711 169.254 228.981 168.694C229.261 168.125 229.653 167.681 230.157 167.364C230.671 167.047 231.268 166.888 231.949 166.888C232.967 166.888 233.751 167.191 234.301 167.798C234.852 168.395 235.127 169.221 235.127 170.276V170.402C235.118 170.551 235.071 170.668 234.987 170.752C234.903 170.836 234.782 170.878 234.623 170.878H230.031C230.087 171.494 230.288 171.998 230.633 172.39C230.988 172.773 231.483 172.964 232.117 172.964C232.463 172.964 232.766 172.913 233.027 172.81C233.289 172.698 233.583 172.507 233.909 172.236ZM231.921 168.064C231.408 168.064 230.993 168.218 230.675 168.526C230.367 168.825 230.167 169.249 230.073 169.8H233.671C233.634 169.259 233.466 168.834 233.167 168.526C232.869 168.218 232.453 168.064 231.921 168.064ZM240.001 166.888C240.794 166.888 241.401 167.112 241.821 167.56C242.25 167.999 242.465 168.568 242.465 169.268V173.51C242.465 173.659 242.423 173.781 242.339 173.874C242.255 173.958 242.133 174 241.975 174H241.471C241.321 174 241.2 173.958 241.107 173.874C241.023 173.781 240.981 173.659 240.981 173.51V169.73C240.981 169.226 240.855 168.839 240.603 168.568C240.36 168.297 240.01 168.162 239.553 168.162C239.105 168.162 238.727 168.316 238.419 168.624C238.12 168.932 237.971 169.319 237.971 169.786V173.51C237.971 173.659 237.929 173.781 237.845 173.874C237.761 173.958 237.639 174 237.481 174H236.977C236.827 174 236.706 173.958 236.613 173.874C236.529 173.781 236.487 173.659 236.487 173.51V167.588C236.487 167.429 236.529 167.308 236.613 167.224C236.706 167.14 236.827 167.098 236.977 167.098H237.383C237.541 167.098 237.663 167.14 237.747 167.224C237.831 167.308 237.873 167.429 237.873 167.588V167.952C238.097 167.607 238.391 167.345 238.755 167.168C239.119 166.981 239.534 166.888 240.001 166.888ZM247.352 172.824C247.38 172.815 247.422 172.81 247.478 172.81C247.711 172.81 247.851 172.945 247.898 173.216L247.94 173.44C247.949 173.468 247.954 173.515 247.954 173.58C247.954 173.813 247.823 173.963 247.562 174.028C247.189 174.112 246.848 174.154 246.54 174.154C245.877 174.154 245.397 174 245.098 173.692C244.809 173.384 244.664 172.922 244.664 172.306V168.232H243.894C243.745 168.232 243.623 168.19 243.53 168.106C243.446 168.013 243.404 167.891 243.404 167.742V167.588C243.404 167.429 243.446 167.308 243.53 167.224C243.623 167.14 243.745 167.098 243.894 167.098H244.664V165.362C244.664 165.203 244.706 165.082 244.79 164.998C244.883 164.914 245.005 164.872 245.154 164.872H245.658C245.817 164.872 245.938 164.914 246.022 164.998C246.106 165.082 246.148 165.203 246.148 165.362V167.098H247.408C247.567 167.098 247.688 167.14 247.772 167.224C247.856 167.308 247.898 167.429 247.898 167.588V167.742C247.898 167.891 247.856 168.013 247.772 168.106C247.688 168.19 247.567 168.232 247.408 168.232H246.148V172.124C246.148 172.395 246.204 172.586 246.316 172.698C246.437 172.81 246.629 172.866 246.89 172.866C247.002 172.866 247.156 172.852 247.352 172.824ZM254.91 174.21C254.341 174.21 253.832 174.14 253.384 174C252.946 173.851 252.498 173.594 252.04 173.23C251.9 173.127 251.83 173.011 251.83 172.88C251.83 172.777 251.882 172.665 251.984 172.544L252.194 172.306C252.306 172.175 252.428 172.11 252.558 172.11C252.661 172.11 252.773 172.157 252.894 172.25C253.286 172.539 253.632 172.74 253.93 172.852C254.229 172.955 254.565 173.006 254.938 173.006C255.34 173.006 255.666 172.927 255.918 172.768C256.18 172.6 256.31 172.376 256.31 172.096C256.31 171.881 256.236 171.713 256.086 171.592C255.946 171.461 255.76 171.363 255.526 171.298C255.293 171.223 254.948 171.139 254.49 171.046C253.846 170.906 253.342 170.757 252.978 170.598C252.624 170.43 252.367 170.22 252.208 169.968C252.05 169.716 251.97 169.394 251.97 169.002C251.97 168.601 252.082 168.241 252.306 167.924C252.54 167.607 252.862 167.355 253.272 167.168C253.692 166.981 254.182 166.888 254.742 166.888C255.246 166.888 255.694 166.944 256.086 167.056C256.488 167.168 256.88 167.359 257.262 167.63C257.412 167.742 257.486 167.868 257.486 168.008C257.486 168.101 257.44 168.209 257.346 168.33L257.164 168.554C257.062 168.685 256.936 168.75 256.786 168.75C256.674 168.75 256.567 168.713 256.464 168.638C256.156 168.433 255.872 168.293 255.61 168.218C255.349 168.134 255.055 168.092 254.728 168.092C254.327 168.092 254.005 168.171 253.762 168.33C253.52 168.489 253.398 168.694 253.398 168.946C253.398 169.114 253.454 169.249 253.566 169.352C253.688 169.445 253.856 169.529 254.07 169.604C254.294 169.669 254.644 169.753 255.12 169.856C255.764 169.996 256.273 170.155 256.646 170.332C257.029 170.5 257.309 170.719 257.486 170.99C257.673 171.251 257.766 171.592 257.766 172.012C257.766 172.665 257.505 173.197 256.982 173.608C256.469 174.009 255.778 174.21 254.91 174.21ZM259.801 165.754C259.531 165.754 259.302 165.665 259.115 165.488C258.929 165.301 258.835 165.082 258.835 164.83C258.835 164.569 258.929 164.349 259.115 164.172C259.302 163.995 259.531 163.906 259.801 163.906C260.072 163.906 260.301 163.995 260.487 164.172C260.674 164.349 260.767 164.569 260.767 164.83C260.767 165.082 260.674 165.301 260.487 165.488C260.301 165.665 260.072 165.754 259.801 165.754ZM259.535 174C259.386 174 259.265 173.958 259.171 173.874C259.087 173.781 259.045 173.659 259.045 173.51V167.588C259.045 167.429 259.087 167.308 259.171 167.224C259.265 167.14 259.386 167.098 259.535 167.098H260.039C260.198 167.098 260.319 167.14 260.403 167.224C260.487 167.308 260.529 167.429 260.529 167.588V173.51C260.529 173.659 260.487 173.781 260.403 173.874C260.319 173.958 260.198 174 260.039 174H259.535ZM267.033 167.098C267.191 167.098 267.313 167.14 267.397 167.224C267.481 167.308 267.523 167.429 267.523 167.588V167.854C267.523 168.087 267.448 168.293 267.299 168.47L263.715 172.782H267.033C267.191 172.782 267.313 172.824 267.397 172.908C267.481 172.992 267.523 173.113 267.523 173.272V173.51C267.523 173.659 267.481 173.781 267.397 173.874C267.313 173.958 267.191 174 267.033 174H262.371C262.221 174 262.1 173.958 262.007 173.874C261.923 173.781 261.881 173.659 261.881 173.51V173.23C261.881 172.997 261.955 172.791 262.105 172.614L265.703 168.302H262.609C262.459 168.302 262.338 168.26 262.245 168.176C262.161 168.083 262.119 167.961 262.119 167.812V167.588C262.119 167.429 262.161 167.308 262.245 167.224C262.338 167.14 262.459 167.098 262.609 167.098H267.033ZM273.653 172.236C273.775 172.133 273.891 172.082 274.003 172.082C274.115 172.082 274.232 172.143 274.353 172.264L274.549 172.474C274.652 172.595 274.703 172.712 274.703 172.824C274.703 172.945 274.643 173.062 274.521 173.174C274.092 173.547 273.663 173.813 273.233 173.972C272.813 174.131 272.347 174.21 271.833 174.21C271.115 174.21 270.489 174.061 269.957 173.762C269.435 173.463 269.029 173.043 268.739 172.502C268.459 171.951 268.319 171.317 268.319 170.598C268.319 169.889 268.455 169.254 268.725 168.694C269.005 168.125 269.397 167.681 269.901 167.364C270.415 167.047 271.012 166.888 271.693 166.888C272.711 166.888 273.495 167.191 274.045 167.798C274.596 168.395 274.871 169.221 274.871 170.276V170.402C274.862 170.551 274.815 170.668 274.731 170.752C274.647 170.836 274.526 170.878 274.367 170.878H269.775C269.831 171.494 270.032 171.998 270.377 172.39C270.732 172.773 271.227 172.964 271.861 172.964C272.207 172.964 272.51 172.913 272.771 172.81C273.033 172.698 273.327 172.507 273.653 172.236ZM271.665 168.064C271.152 168.064 270.737 168.218 270.419 168.526C270.111 168.825 269.911 169.249 269.817 169.8H273.415C273.378 169.259 273.21 168.834 272.911 168.526C272.613 168.218 272.197 168.064 271.665 168.064Z" fill="#1B1B1F"/>
<rect x="181" y="198" width="326" height="4" rx="2" fill="#DEDEE3"/>
<rect x="329" y="197" width="30" height="6" rx="3" fill="#0063FB"/>
<rect x="344" y="186" width="28" height="28" rx="14" fill="#0063FB"/>
<rect x="316" y="186" width="28" height="28" rx="14" fill="#0063FB"/>
<path d="M173.484 410C173.297 410 173.204 409.907 173.204 409.72V400.34C173.204 400.153 173.297 400.06 173.484 400.06H179.364C179.551 400.06 179.644 400.153 179.644 400.34V400.606C179.644 400.793 179.551 400.886 179.364 400.886H174.198V404.484H178.972C179.159 404.484 179.252 404.577 179.252 404.764V405.016C179.252 405.203 179.159 405.296 178.972 405.296H174.198V409.174H179.476C179.663 409.174 179.756 409.267 179.756 409.454V409.72C179.756 409.907 179.663 410 179.476 410H173.484ZM186.499 409.664C186.536 409.729 186.555 409.785 186.555 409.832C186.555 409.944 186.48 410 186.331 410H185.911C185.771 410 185.659 409.939 185.575 409.818L183.671 407.018L181.781 409.818C181.697 409.939 181.585 410 181.445 410H181.053C180.978 410 180.917 409.986 180.871 409.958C180.833 409.921 180.815 409.879 180.815 409.832C180.815 409.767 180.833 409.711 180.871 409.664L183.139 406.402L181.053 403.434C181.015 403.387 180.997 403.336 180.997 403.28C180.997 403.159 181.076 403.098 181.235 403.098H181.641C181.781 403.098 181.893 403.159 181.977 403.28L183.685 405.786L185.379 403.28C185.463 403.159 185.575 403.098 185.715 403.098H186.093C186.167 403.098 186.223 403.117 186.261 403.154C186.307 403.182 186.331 403.219 186.331 403.266C186.331 403.331 186.312 403.387 186.275 403.434L184.231 406.36L186.499 409.664ZM190.639 402.93C191.489 402.93 192.151 403.135 192.627 403.546C193.103 403.947 193.341 404.479 193.341 405.142V409.72C193.341 409.907 193.248 410 193.061 410H192.781C192.595 410 192.501 409.907 192.501 409.72V409.09C192.268 409.463 191.937 409.743 191.507 409.93C191.087 410.117 190.616 410.21 190.093 410.21C189.365 410.21 188.773 410.056 188.315 409.748C187.858 409.44 187.629 408.964 187.629 408.32C187.629 407.807 187.774 407.396 188.063 407.088C188.353 406.771 188.731 406.533 189.197 406.374C189.664 406.206 190.247 406.057 190.947 405.926L192.459 405.66V405.212C192.459 404.736 192.296 404.367 191.969 404.106C191.643 403.835 191.213 403.7 190.681 403.7C190.28 403.7 189.916 403.775 189.589 403.924C189.263 404.073 188.913 404.33 188.539 404.694C188.474 404.759 188.404 404.792 188.329 404.792C188.264 404.792 188.203 404.764 188.147 404.708L187.965 404.54C187.9 404.475 187.867 404.405 187.867 404.33C187.867 404.246 187.9 404.171 187.965 404.106C188.357 403.695 188.768 403.397 189.197 403.21C189.636 403.023 190.117 402.93 190.639 402.93ZM190.135 409.44C190.807 409.44 191.363 409.263 191.801 408.908C192.24 408.553 192.459 408.101 192.459 407.55V406.374L191.157 406.626C190.551 406.747 190.07 406.864 189.715 406.976C189.361 407.088 189.076 407.251 188.861 407.466C188.647 407.681 188.539 407.961 188.539 408.306C188.539 408.661 188.679 408.941 188.959 409.146C189.249 409.342 189.641 409.44 190.135 409.44ZM202.404 402.93C203.15 402.93 203.72 403.145 204.112 403.574C204.513 403.994 204.714 404.535 204.714 405.198V409.72C204.714 409.907 204.62 410 204.434 410H204.07C203.883 410 203.79 409.907 203.79 409.72V405.45C203.79 404.89 203.659 404.461 203.398 404.162C203.146 403.863 202.768 403.714 202.264 403.714C201.732 403.714 201.307 403.891 200.99 404.246C200.672 404.601 200.514 405.058 200.514 405.618V409.72C200.514 409.907 200.42 410 200.234 410H199.87C199.683 410 199.59 409.907 199.59 409.72V405.45C199.59 404.89 199.459 404.461 199.198 404.162C198.946 403.863 198.563 403.714 198.05 403.714C197.574 403.714 197.177 403.863 196.86 404.162C196.552 404.461 196.37 404.853 196.314 405.338V409.72C196.314 409.907 196.22 410 196.034 410H195.67C195.483 410 195.39 409.907 195.39 409.72V403.378C195.39 403.191 195.483 403.098 195.67 403.098H195.978C196.164 403.098 196.258 403.191 196.258 403.378V403.952C196.678 403.271 197.345 402.93 198.26 402.93C198.736 402.93 199.142 403.037 199.478 403.252C199.823 403.457 200.08 403.737 200.248 404.092C200.742 403.317 201.461 402.93 202.404 402.93ZM210.055 402.944C210.634 402.944 211.152 403.098 211.609 403.406C212.076 403.705 212.44 404.129 212.701 404.68C212.962 405.221 213.093 405.842 213.093 406.542C213.093 407.251 212.962 407.881 212.701 408.432C212.44 408.983 212.08 409.412 211.623 409.72C211.166 410.019 210.643 410.168 210.055 410.168C208.972 410.168 208.179 409.771 207.675 408.978V412.296C207.675 412.483 207.582 412.576 207.395 412.576H207.031C206.844 412.576 206.751 412.483 206.751 412.296V403.378C206.751 403.191 206.844 403.098 207.031 403.098H207.339C207.526 403.098 207.619 403.191 207.619 403.378V404.26C207.871 403.831 208.202 403.504 208.613 403.28C209.024 403.056 209.504 402.944 210.055 402.944ZM209.985 409.384C210.638 409.384 211.161 409.123 211.553 408.6C211.945 408.077 212.141 407.391 212.141 406.542C212.141 405.702 211.945 405.025 211.553 404.512C211.161 403.989 210.638 403.728 209.985 403.728C209.285 403.728 208.716 403.98 208.277 404.484C207.848 404.979 207.633 405.665 207.633 406.542C207.633 407.419 207.852 408.115 208.291 408.628C208.73 409.132 209.294 409.384 209.985 409.384ZM215.029 410C214.843 410 214.749 409.907 214.749 409.72V400.34C214.749 400.153 214.843 400.06 215.029 400.06H215.393C215.58 400.06 215.673 400.153 215.673 400.34V409.72C215.673 409.907 215.58 410 215.393 410H215.029ZM222.783 408.362C222.848 408.297 222.918 408.264 222.993 408.264C223.058 408.264 223.119 408.292 223.175 408.348L223.357 408.516C223.422 408.581 223.455 408.651 223.455 408.726C223.455 408.782 223.427 408.847 223.371 408.922C222.913 409.379 222.47 409.706 222.041 409.902C221.611 410.089 221.131 410.182 220.599 410.182C219.927 410.182 219.343 410.033 218.849 409.734C218.354 409.435 217.971 409.02 217.701 408.488C217.43 407.947 217.295 407.321 217.295 406.612C217.295 405.893 217.425 405.259 217.687 404.708C217.957 404.148 218.335 403.714 218.821 403.406C219.306 403.089 219.866 402.93 220.501 402.93C221.443 402.93 222.185 403.224 222.727 403.812C223.268 404.4 223.539 405.193 223.539 406.192V406.36C223.529 406.444 223.497 406.509 223.441 406.556C223.394 406.603 223.329 406.626 223.245 406.626H218.233C218.261 407.41 218.466 408.073 218.849 408.614C219.241 409.146 219.824 409.412 220.599 409.412C221.019 409.412 221.387 409.337 221.705 409.188C222.031 409.029 222.391 408.754 222.783 408.362ZM220.501 403.7C219.885 403.7 219.376 403.891 218.975 404.274C218.583 404.647 218.345 405.198 218.261 405.926H222.615C222.596 405.245 222.4 404.703 222.027 404.302C221.653 403.901 221.145 403.7 220.501 403.7ZM231.277 410.182C230.633 410.182 230.059 410.028 229.555 409.72C229.051 409.412 228.659 408.987 228.379 408.446C228.099 407.895 227.959 407.265 227.959 406.556C227.959 405.847 228.099 405.221 228.379 404.68C228.659 404.129 229.051 403.7 229.555 403.392C230.059 403.084 230.633 402.93 231.277 402.93C231.921 402.93 232.495 403.084 232.999 403.392C233.503 403.7 233.895 404.129 234.175 404.68C234.455 405.221 234.595 405.847 234.595 406.556C234.595 407.265 234.455 407.895 234.175 408.446C233.895 408.987 233.503 409.412 232.999 409.72C232.495 410.028 231.921 410.182 231.277 410.182ZM231.277 409.412C231.995 409.412 232.569 409.151 232.999 408.628C233.428 408.096 233.643 407.405 233.643 406.556C233.643 405.707 233.428 405.021 232.999 404.498C232.569 403.966 231.995 403.7 231.277 403.7C230.558 403.7 229.984 403.966 229.555 404.498C229.125 405.021 228.911 405.707 228.911 406.556C228.911 407.405 229.125 408.096 229.555 408.628C229.984 409.151 230.558 409.412 231.277 409.412ZM238.695 400.662C238.275 400.662 237.977 400.774 237.799 400.998C237.622 401.213 237.533 401.577 237.533 402.09V403.098H239.073C239.26 403.098 239.353 403.191 239.353 403.378V403.518C239.353 403.705 239.26 403.798 239.073 403.798H237.533V409.72C237.533 409.907 237.44 410 237.253 410H236.889C236.703 410 236.609 409.907 236.609 409.72V403.798H235.573C235.387 403.798 235.293 403.705 235.293 403.518V403.378C235.293 403.191 235.387 403.098 235.573 403.098H236.609V401.936C236.609 401.292 236.777 400.788 237.113 400.424C237.459 400.06 237.949 399.878 238.583 399.878C238.938 399.878 239.302 399.929 239.675 400.032C239.853 400.088 239.918 400.205 239.871 400.382L239.815 400.578C239.769 400.709 239.675 400.774 239.535 400.774C239.507 400.774 239.447 400.765 239.353 400.746C239.148 400.69 238.929 400.662 238.695 400.662ZM247.018 402.93C247.821 402.93 248.432 403.159 248.852 403.616C249.272 404.064 249.482 404.619 249.482 405.282V409.72C249.482 409.907 249.389 410 249.202 410H248.838C248.652 410 248.558 409.907 248.558 409.72V405.59C248.558 404.974 248.409 404.507 248.11 404.19C247.812 403.873 247.382 403.714 246.822 403.714C246.468 403.714 246.141 403.803 245.842 403.98C245.544 404.148 245.306 404.381 245.128 404.68C244.951 404.979 244.862 405.305 244.862 405.66V409.72C244.862 409.907 244.769 410 244.582 410H244.218C244.032 410 243.938 409.907 243.938 409.72V400.34C243.938 400.153 244.032 400.06 244.218 400.06H244.582C244.769 400.06 244.862 400.153 244.862 400.34V403.994C245.086 403.639 245.385 403.373 245.758 403.196C246.141 403.019 246.561 402.93 247.018 402.93ZM254.186 402.93C255.036 402.93 255.698 403.135 256.174 403.546C256.65 403.947 256.888 404.479 256.888 405.142V409.72C256.888 409.907 256.795 410 256.608 410H256.328C256.142 410 256.048 409.907 256.048 409.72V409.09C255.815 409.463 255.484 409.743 255.054 409.93C254.634 410.117 254.163 410.21 253.64 410.21C252.912 410.21 252.32 410.056 251.862 409.748C251.405 409.44 251.176 408.964 251.176 408.32C251.176 407.807 251.321 407.396 251.61 407.088C251.9 406.771 252.278 406.533 252.744 406.374C253.211 406.206 253.794 406.057 254.494 405.926L256.006 405.66V405.212C256.006 404.736 255.843 404.367 255.516 404.106C255.19 403.835 254.76 403.7 254.228 403.7C253.827 403.7 253.463 403.775 253.136 403.924C252.81 404.073 252.46 404.33 252.086 404.694C252.021 404.759 251.951 404.792 251.876 404.792C251.811 404.792 251.75 404.764 251.694 404.708L251.512 404.54C251.447 404.475 251.414 404.405 251.414 404.33C251.414 404.246 251.447 404.171 251.512 404.106C251.904 403.695 252.315 403.397 252.744 403.21C253.183 403.023 253.664 402.93 254.186 402.93ZM253.682 409.44C254.354 409.44 254.91 409.263 255.348 408.908C255.787 408.553 256.006 408.101 256.006 407.55V406.374L254.704 406.626C254.098 406.747 253.617 406.864 253.262 406.976C252.908 407.088 252.623 407.251 252.408 407.466C252.194 407.681 252.086 407.961 252.086 408.306C252.086 408.661 252.226 408.941 252.506 409.146C252.796 409.342 253.188 409.44 253.682 409.44ZM262.016 402.93C262.828 402.93 263.44 403.154 263.85 403.602C264.27 404.05 264.48 404.61 264.48 405.282V409.72C264.48 409.907 264.387 410 264.2 410H263.836C263.65 410 263.556 409.907 263.556 409.72V405.59C263.556 404.974 263.407 404.507 263.108 404.19C262.81 403.873 262.38 403.714 261.82 403.714C261.466 403.714 261.139 403.803 260.84 403.98C260.542 404.148 260.304 404.381 260.126 404.68C259.949 404.979 259.86 405.305 259.86 405.66V409.72C259.86 409.907 259.767 410 259.58 410H259.216C259.03 410 258.936 409.907 258.936 409.72V403.378C258.936 403.191 259.03 403.098 259.216 403.098H259.524C259.711 403.098 259.804 403.191 259.804 403.378V404.05C260.038 403.677 260.346 403.397 260.728 403.21C261.111 403.023 261.54 402.93 262.016 402.93ZM271.508 400.34C271.508 400.153 271.602 400.06 271.788 400.06H272.152C272.339 400.06 272.432 400.153 272.432 400.34V409.72C272.432 409.907 272.339 410 272.152 410H271.858C271.672 410 271.578 409.907 271.578 409.72V408.81C271.326 409.249 270.995 409.585 270.584 409.818C270.174 410.051 269.688 410.168 269.128 410.168C268.54 410.168 268.018 410.019 267.56 409.72C267.103 409.412 266.744 408.987 266.482 408.446C266.221 407.895 266.09 407.265 266.09 406.556C266.09 405.847 266.221 405.221 266.482 404.68C266.753 404.129 267.122 403.705 267.588 403.406C268.055 403.098 268.578 402.944 269.156 402.944C270.22 402.944 271.004 403.341 271.508 404.134V400.34ZM269.198 409.384C269.898 409.384 270.463 409.137 270.892 408.642C271.331 408.138 271.55 407.443 271.55 406.556C271.55 405.679 271.331 404.988 270.892 404.484C270.463 403.98 269.898 403.728 269.198 403.728C268.554 403.728 268.032 403.989 267.63 404.512C267.238 405.035 267.042 405.716 267.042 406.556C267.042 407.405 267.238 408.091 267.63 408.614C268.022 409.127 268.545 409.384 269.198 409.384ZM274.803 410C274.616 410 274.523 409.907 274.523 409.72V400.34C274.523 400.153 274.616 400.06 274.803 400.06H275.167C275.353 400.06 275.447 400.153 275.447 400.34V409.72C275.447 409.907 275.353 410 275.167 410H274.803ZM282.556 408.362C282.621 408.297 282.691 408.264 282.766 408.264C282.831 408.264 282.892 408.292 282.948 408.348L283.13 408.516C283.195 408.581 283.228 408.651 283.228 408.726C283.228 408.782 283.2 408.847 283.144 408.922C282.687 409.379 282.243 409.706 281.814 409.902C281.385 410.089 280.904 410.182 280.372 410.182C279.7 410.182 279.117 410.033 278.622 409.734C278.127 409.435 277.745 409.02 277.474 408.488C277.203 407.947 277.068 407.321 277.068 406.612C277.068 405.893 277.199 405.259 277.46 404.708C277.731 404.148 278.109 403.714 278.594 403.406C279.079 403.089 279.639 402.93 280.274 402.93C281.217 402.93 281.959 403.224 282.5 403.812C283.041 404.4 283.312 405.193 283.312 406.192V406.36C283.303 406.444 283.27 406.509 283.214 406.556C283.167 406.603 283.102 406.626 283.018 406.626H278.006C278.034 407.41 278.239 408.073 278.622 408.614C279.014 409.146 279.597 409.412 280.372 409.412C280.792 409.412 281.161 409.337 281.478 409.188C281.805 409.029 282.164 408.754 282.556 408.362ZM280.274 403.7C279.658 403.7 279.149 403.891 278.748 404.274C278.356 404.647 278.118 405.198 278.034 405.926H282.388C282.369 405.245 282.173 404.703 281.8 404.302C281.427 403.901 280.918 403.7 280.274 403.7ZM287.43 410.182C286.861 410.182 286.357 410.103 285.918 409.944C285.489 409.776 285.036 409.496 284.56 409.104C284.476 409.048 284.434 408.983 284.434 408.908C284.434 408.843 284.467 408.777 284.532 408.712L284.714 408.516C284.77 408.441 284.84 408.404 284.924 408.404C284.99 408.404 285.05 408.432 285.106 408.488C285.554 408.833 285.951 409.076 286.296 409.216C286.642 409.347 287.02 409.412 287.43 409.412C287.944 409.412 288.364 409.3 288.69 409.076C289.017 408.843 289.18 408.53 289.18 408.138C289.18 407.746 289.012 407.457 288.676 407.27C288.34 407.083 287.822 406.915 287.122 406.766C286.506 406.635 286.021 406.5 285.666 406.36C285.321 406.211 285.064 406.024 284.896 405.8C284.728 405.576 284.644 405.282 284.644 404.918C284.644 404.321 284.887 403.84 285.372 403.476C285.858 403.112 286.469 402.93 287.206 402.93C287.71 402.93 288.158 402.995 288.55 403.126C288.952 403.247 289.353 403.453 289.754 403.742C289.838 403.807 289.88 403.877 289.88 403.952C289.88 403.999 289.857 404.059 289.81 404.134L289.642 404.344C289.596 404.419 289.53 404.456 289.446 404.456C289.372 404.456 289.306 404.433 289.25 404.386C288.868 404.115 288.527 403.933 288.228 403.84C287.939 403.747 287.608 403.7 287.234 403.7C286.721 403.7 286.31 403.812 286.002 404.036C285.694 404.26 285.54 404.545 285.54 404.89C285.54 405.105 285.61 405.277 285.75 405.408C285.89 405.539 286.091 405.651 286.352 405.744C286.614 405.828 286.996 405.926 287.5 406.038C288.434 406.243 289.096 406.495 289.488 406.794C289.89 407.093 290.09 407.527 290.09 408.096C290.09 408.721 289.843 409.225 289.348 409.608C288.854 409.991 288.214 410.182 287.43 410.182ZM297.68 410.182C297.017 410.182 296.438 410.033 295.944 409.734C295.458 409.426 295.08 409.001 294.81 408.46C294.548 407.909 294.418 407.275 294.418 406.556C294.418 405.847 294.548 405.217 294.81 404.666C295.08 404.115 295.458 403.691 295.944 403.392C296.438 403.084 297.008 402.93 297.652 402.93C298.174 402.93 298.632 403.019 299.024 403.196C299.416 403.364 299.794 403.644 300.158 404.036C300.214 404.092 300.242 404.153 300.242 404.218C300.242 404.302 300.204 404.372 300.13 404.428L299.934 404.61C299.878 404.666 299.812 404.694 299.738 404.694C299.672 404.694 299.602 404.657 299.528 404.582C299.201 404.255 298.888 404.027 298.59 403.896C298.3 403.765 297.978 403.7 297.624 403.7C297.138 403.7 296.723 403.835 296.378 404.106C296.042 404.377 295.79 404.731 295.622 405.17C295.454 405.599 295.37 406.061 295.37 406.556C295.37 407.051 295.454 407.517 295.622 407.956C295.79 408.385 296.046 408.735 296.392 409.006C296.737 409.267 297.162 409.398 297.666 409.398C298.039 409.398 298.366 409.333 298.646 409.202C298.935 409.062 299.257 408.801 299.612 408.418C299.686 408.343 299.756 408.306 299.822 408.306C299.896 408.306 299.962 408.334 300.018 408.39L300.214 408.544C300.279 408.6 300.312 408.665 300.312 408.74C300.312 408.815 300.27 408.903 300.186 409.006C299.794 409.435 299.402 409.739 299.01 409.916C298.618 410.093 298.174 410.182 297.68 410.182ZM304.531 410.182C303.887 410.182 303.313 410.028 302.809 409.72C302.305 409.412 301.913 408.987 301.633 408.446C301.353 407.895 301.213 407.265 301.213 406.556C301.213 405.847 301.353 405.221 301.633 404.68C301.913 404.129 302.305 403.7 302.809 403.392C303.313 403.084 303.887 402.93 304.531 402.93C305.175 402.93 305.749 403.084 306.253 403.392C306.757 403.7 307.149 404.129 307.429 404.68C307.709 405.221 307.849 405.847 307.849 406.556C307.849 407.265 307.709 407.895 307.429 408.446C307.149 408.987 306.757 409.412 306.253 409.72C305.749 410.028 305.175 410.182 304.531 410.182ZM304.531 409.412C305.249 409.412 305.823 409.151 306.253 408.628C306.682 408.096 306.897 407.405 306.897 406.556C306.897 405.707 306.682 405.021 306.253 404.498C305.823 403.966 305.249 403.7 304.531 403.7C303.812 403.7 303.238 403.966 302.809 404.498C302.379 405.021 302.165 405.707 302.165 406.556C302.165 407.405 302.379 408.096 302.809 408.628C303.238 409.151 303.812 409.412 304.531 409.412ZM309.748 410C309.561 410 309.468 409.907 309.468 409.72V400.34C309.468 400.153 309.561 400.06 309.748 400.06H310.112C310.299 400.06 310.392 400.153 310.392 400.34V409.72C310.392 409.907 310.299 410 310.112 410H309.748ZM312.769 410C312.583 410 312.489 409.907 312.489 409.72V400.34C312.489 400.153 312.583 400.06 312.769 400.06H313.133C313.32 400.06 313.413 400.153 313.413 400.34V409.72C313.413 409.907 313.32 410 313.133 410H312.769ZM315.959 401.348C315.772 401.348 315.614 401.283 315.483 401.152C315.362 401.021 315.301 400.863 315.301 400.676C315.301 400.489 315.362 400.335 315.483 400.214C315.614 400.093 315.772 400.032 315.959 400.032C316.155 400.032 316.314 400.093 316.435 400.214C316.566 400.335 316.631 400.489 316.631 400.676C316.631 400.863 316.566 401.021 316.435 401.152C316.314 401.283 316.155 401.348 315.959 401.348ZM315.777 410C315.59 410 315.497 409.907 315.497 409.72V403.378C315.497 403.191 315.59 403.098 315.777 403.098H316.141C316.328 403.098 316.421 403.191 316.421 403.378V409.72C316.421 409.907 316.328 410 316.141 410H315.777ZM320.885 410.182C320.316 410.182 319.812 410.103 319.373 409.944C318.944 409.776 318.491 409.496 318.015 409.104C317.931 409.048 317.889 408.983 317.889 408.908C317.889 408.843 317.922 408.777 317.987 408.712L318.169 408.516C318.225 408.441 318.295 408.404 318.379 408.404C318.445 408.404 318.505 408.432 318.561 408.488C319.009 408.833 319.406 409.076 319.751 409.216C320.097 409.347 320.475 409.412 320.885 409.412C321.399 409.412 321.819 409.3 322.145 409.076C322.472 408.843 322.635 408.53 322.635 408.138C322.635 407.746 322.467 407.457 322.131 407.27C321.795 407.083 321.277 406.915 320.577 406.766C319.961 406.635 319.476 406.5 319.121 406.36C318.776 406.211 318.519 406.024 318.351 405.8C318.183 405.576 318.099 405.282 318.099 404.918C318.099 404.321 318.342 403.84 318.827 403.476C319.313 403.112 319.924 402.93 320.661 402.93C321.165 402.93 321.613 402.995 322.005 403.126C322.407 403.247 322.808 403.453 323.209 403.742C323.293 403.807 323.335 403.877 323.335 403.952C323.335 403.999 323.312 404.059 323.265 404.134L323.097 404.344C323.051 404.419 322.985 404.456 322.901 404.456C322.827 404.456 322.761 404.433 322.705 404.386C322.323 404.115 321.982 403.933 321.683 403.84C321.394 403.747 321.063 403.7 320.689 403.7C320.176 403.7 319.765 403.812 319.457 404.036C319.149 404.26 318.995 404.545 318.995 404.89C318.995 405.105 319.065 405.277 319.205 405.408C319.345 405.539 319.546 405.651 319.807 405.744C320.069 405.828 320.451 405.926 320.955 406.038C321.889 406.243 322.551 406.495 322.943 406.794C323.345 407.093 323.545 407.527 323.545 408.096C323.545 408.721 323.298 409.225 322.803 409.608C322.309 409.991 321.669 410.182 320.885 410.182ZM325.57 401.348C325.384 401.348 325.225 401.283 325.094 401.152C324.973 401.021 324.912 400.863 324.912 400.676C324.912 400.489 324.973 400.335 325.094 400.214C325.225 400.093 325.384 400.032 325.57 400.032C325.766 400.032 325.925 400.093 326.046 400.214C326.177 400.335 326.242 400.489 326.242 400.676C326.242 400.863 326.177 401.021 326.046 401.152C325.925 401.283 325.766 401.348 325.57 401.348ZM325.388 410C325.202 410 325.108 409.907 325.108 409.72V403.378C325.108 403.191 325.202 403.098 325.388 403.098H325.752C325.939 403.098 326.032 403.191 326.032 403.378V409.72C326.032 409.907 325.939 410 325.752 410H325.388ZM330.945 410.182C330.301 410.182 329.727 410.028 329.223 409.72C328.719 409.412 328.327 408.987 328.047 408.446C327.767 407.895 327.627 407.265 327.627 406.556C327.627 405.847 327.767 405.221 328.047 404.68C328.327 404.129 328.719 403.7 329.223 403.392C329.727 403.084 330.301 402.93 330.945 402.93C331.589 402.93 332.163 403.084 332.667 403.392C333.171 403.7 333.563 404.129 333.843 404.68C334.123 405.221 334.263 405.847 334.263 406.556C334.263 407.265 334.123 407.895 333.843 408.446C333.563 408.987 333.171 409.412 332.667 409.72C332.163 410.028 331.589 410.182 330.945 410.182ZM330.945 409.412C331.663 409.412 332.237 409.151 332.667 408.628C333.096 408.096 333.311 407.405 333.311 406.556C333.311 405.707 333.096 405.021 332.667 404.498C332.237 403.966 331.663 403.7 330.945 403.7C330.226 403.7 329.652 403.966 329.223 404.498C328.793 405.021 328.579 405.707 328.579 406.556C328.579 407.405 328.793 408.096 329.223 408.628C329.652 409.151 330.226 409.412 330.945 409.412ZM338.948 402.93C339.76 402.93 340.371 403.154 340.782 403.602C341.202 404.05 341.412 404.61 341.412 405.282V409.72C341.412 409.907 341.319 410 341.132 410H340.768C340.581 410 340.488 409.907 340.488 409.72V405.59C340.488 404.974 340.339 404.507 340.04 404.19C339.741 403.873 339.312 403.714 338.752 403.714C338.397 403.714 338.071 403.803 337.772 403.98C337.473 404.148 337.235 404.381 337.058 404.68C336.881 404.979 336.792 405.305 336.792 405.66V409.72C336.792 409.907 336.699 410 336.512 410H336.148C335.961 410 335.868 409.907 335.868 409.72V403.378C335.868 403.191 335.961 403.098 336.148 403.098H336.456C336.643 403.098 336.736 403.191 336.736 403.378V404.05C336.969 403.677 337.277 403.397 337.66 403.21C338.043 403.023 338.472 402.93 338.948 402.93ZM349.342 402.93C350.192 402.93 350.854 403.135 351.33 403.546C351.806 403.947 352.044 404.479 352.044 405.142V409.72C352.044 409.907 351.951 410 351.764 410H351.484C351.298 410 351.204 409.907 351.204 409.72V409.09C350.971 409.463 350.64 409.743 350.21 409.93C349.79 410.117 349.319 410.21 348.796 410.21C348.068 410.21 347.476 410.056 347.018 409.748C346.561 409.44 346.332 408.964 346.332 408.32C346.332 407.807 346.477 407.396 346.766 407.088C347.056 406.771 347.434 406.533 347.9 406.374C348.367 406.206 348.95 406.057 349.65 405.926L351.162 405.66V405.212C351.162 404.736 350.999 404.367 350.672 404.106C350.346 403.835 349.916 403.7 349.384 403.7C348.983 403.7 348.619 403.775 348.292 403.924C347.966 404.073 347.616 404.33 347.242 404.694C347.177 404.759 347.107 404.792 347.032 404.792C346.967 404.792 346.906 404.764 346.85 404.708L346.668 404.54C346.603 404.475 346.57 404.405 346.57 404.33C346.57 404.246 346.603 404.171 346.668 404.106C347.06 403.695 347.471 403.397 347.9 403.21C348.339 403.023 348.82 402.93 349.342 402.93ZM348.838 409.44C349.51 409.44 350.066 409.263 350.504 408.908C350.943 408.553 351.162 408.101 351.162 407.55V406.374L349.86 406.626C349.254 406.747 348.773 406.864 348.418 406.976C348.064 407.088 347.779 407.251 347.564 407.466C347.35 407.681 347.242 407.961 347.242 408.306C347.242 408.661 347.382 408.941 347.662 409.146C347.952 409.342 348.344 409.44 348.838 409.44ZM357.009 409.23C357.037 409.221 357.075 409.216 357.121 409.216C357.177 409.216 357.229 409.235 357.275 409.272C357.322 409.309 357.35 409.361 357.359 409.426L357.401 409.622C357.411 409.641 357.415 409.673 357.415 409.72C357.415 409.851 357.345 409.93 357.205 409.958C356.869 410.061 356.51 410.112 356.127 410.112C355.521 410.112 355.087 409.977 354.825 409.706C354.573 409.426 354.447 409.025 354.447 408.502V403.798H353.411C353.225 403.798 353.131 403.705 353.131 403.518V403.378C353.131 403.191 353.225 403.098 353.411 403.098H354.447V400.97C354.447 400.783 354.541 400.69 354.727 400.69H355.091C355.278 400.69 355.371 400.783 355.371 400.97V403.098H357.051C357.238 403.098 357.331 403.191 357.331 403.378V403.518C357.331 403.705 357.238 403.798 357.051 403.798H355.371V408.39C355.371 408.735 355.437 408.978 355.567 409.118C355.698 409.258 355.922 409.328 356.239 409.328C356.463 409.328 356.72 409.295 357.009 409.23ZM364.376 410.182C363.806 410.182 363.302 410.103 362.864 409.944C362.434 409.776 361.982 409.496 361.506 409.104C361.422 409.048 361.38 408.983 361.38 408.908C361.38 408.843 361.412 408.777 361.478 408.712L361.66 408.516C361.716 408.441 361.786 408.404 361.87 408.404C361.935 408.404 361.996 408.432 362.052 408.488C362.5 408.833 362.896 409.076 363.242 409.216C363.587 409.347 363.965 409.412 364.376 409.412C364.889 409.412 365.309 409.3 365.636 409.076C365.962 408.843 366.126 408.53 366.126 408.138C366.126 407.746 365.958 407.457 365.622 407.27C365.286 407.083 364.768 406.915 364.068 406.766C363.452 406.635 362.966 406.5 362.612 406.36C362.266 406.211 362.01 406.024 361.842 405.8C361.674 405.576 361.59 405.282 361.59 404.918C361.59 404.321 361.832 403.84 362.318 403.476C362.803 403.112 363.414 402.93 364.152 402.93C364.656 402.93 365.104 402.995 365.496 403.126C365.897 403.247 366.298 403.453 366.7 403.742C366.784 403.807 366.826 403.877 366.826 403.952C366.826 403.999 366.802 404.059 366.756 404.134L366.588 404.344C366.541 404.419 366.476 404.456 366.392 404.456C366.317 404.456 366.252 404.433 366.196 404.386C365.813 404.115 365.472 403.933 365.174 403.84C364.884 403.747 364.553 403.7 364.18 403.7C363.666 403.7 363.256 403.812 362.948 404.036C362.64 404.26 362.486 404.545 362.486 404.89C362.486 405.105 362.556 405.277 362.696 405.408C362.836 405.539 363.036 405.651 363.298 405.744C363.559 405.828 363.942 405.926 364.446 406.038C365.379 406.243 366.042 406.495 366.434 406.794C366.835 407.093 367.036 407.527 367.036 408.096C367.036 408.721 366.788 409.225 366.294 409.608C365.799 409.991 365.16 410.182 364.376 410.182ZM371.313 402.93C372.163 402.93 372.825 403.135 373.301 403.546C373.777 403.947 374.015 404.479 374.015 405.142V409.72C374.015 409.907 373.922 410 373.735 410H373.455C373.269 410 373.175 409.907 373.175 409.72V409.09C372.942 409.463 372.611 409.743 372.181 409.93C371.761 410.117 371.29 410.21 370.767 410.21C370.039 410.21 369.447 410.056 368.989 409.748C368.532 409.44 368.303 408.964 368.303 408.32C368.303 407.807 368.448 407.396 368.737 407.088C369.027 406.771 369.405 406.533 369.871 406.374C370.338 406.206 370.921 406.057 371.621 405.926L373.133 405.66V405.212C373.133 404.736 372.97 404.367 372.643 404.106C372.317 403.835 371.887 403.7 371.355 403.7C370.954 403.7 370.59 403.775 370.263 403.924C369.937 404.073 369.587 404.33 369.213 404.694C369.148 404.759 369.078 404.792 369.003 404.792C368.938 404.792 368.877 404.764 368.821 404.708L368.639 404.54C368.574 404.475 368.541 404.405 368.541 404.33C368.541 404.246 368.574 404.171 368.639 404.106C369.031 403.695 369.442 403.397 369.871 403.21C370.31 403.023 370.791 402.93 371.313 402.93ZM370.809 409.44C371.481 409.44 372.037 409.263 372.475 408.908C372.914 408.553 373.133 408.101 373.133 407.55V406.374L371.831 406.626C371.225 406.747 370.744 406.864 370.389 406.976C370.035 407.088 369.75 407.251 369.535 407.466C369.321 407.681 369.213 407.961 369.213 408.306C369.213 408.661 369.353 408.941 369.633 409.146C369.923 409.342 370.315 409.44 370.809 409.44ZM383.077 402.93C383.824 402.93 384.393 403.145 384.785 403.574C385.187 403.994 385.387 404.535 385.387 405.198V409.72C385.387 409.907 385.294 410 385.107 410H384.743C384.557 410 384.463 409.907 384.463 409.72V405.45C384.463 404.89 384.333 404.461 384.071 404.162C383.819 403.863 383.441 403.714 382.937 403.714C382.405 403.714 381.981 403.891 381.663 404.246C381.346 404.601 381.187 405.058 381.187 405.618V409.72C381.187 409.907 381.094 410 380.907 410H380.543C380.357 410 380.263 409.907 380.263 409.72V405.45C380.263 404.89 380.133 404.461 379.871 404.162C379.619 403.863 379.237 403.714 378.723 403.714C378.247 403.714 377.851 403.863 377.533 404.162C377.225 404.461 377.043 404.853 376.987 405.338V409.72C376.987 409.907 376.894 410 376.707 410H376.343C376.157 410 376.063 409.907 376.063 409.72V403.378C376.063 403.191 376.157 403.098 376.343 403.098H376.651C376.838 403.098 376.931 403.191 376.931 403.378V403.952C377.351 403.271 378.019 402.93 378.933 402.93C379.409 402.93 379.815 403.037 380.151 403.252C380.497 403.457 380.753 403.737 380.921 404.092C381.416 403.317 382.135 402.93 383.077 402.93ZM392.451 408.362C392.516 408.297 392.586 408.264 392.661 408.264C392.726 408.264 392.787 408.292 392.843 408.348L393.025 408.516C393.09 408.581 393.123 408.651 393.123 408.726C393.123 408.782 393.095 408.847 393.039 408.922C392.581 409.379 392.138 409.706 391.709 409.902C391.279 410.089 390.799 410.182 390.267 410.182C389.595 410.182 389.011 410.033 388.517 409.734C388.022 409.435 387.639 409.02 387.369 408.488C387.098 407.947 386.963 407.321 386.963 406.612C386.963 405.893 387.093 405.259 387.355 404.708C387.625 404.148 388.003 403.714 388.489 403.406C388.974 403.089 389.534 402.93 390.169 402.93C391.111 402.93 391.853 403.224 392.395 403.812C392.936 404.4 393.207 405.193 393.207 406.192V406.36C393.197 406.444 393.165 406.509 393.109 406.556C393.062 406.603 392.997 406.626 392.913 406.626H387.901C387.929 407.41 388.134 408.073 388.517 408.614C388.909 409.146 389.492 409.412 390.267 409.412C390.687 409.412 391.055 409.337 391.373 409.188C391.699 409.029 392.059 408.754 392.451 408.362ZM390.169 403.7C389.553 403.7 389.044 403.891 388.643 404.274C388.251 404.647 388.013 405.198 387.929 405.926H392.283C392.264 405.245 392.068 404.703 391.695 404.302C391.321 403.901 390.813 403.7 390.169 403.7ZM405.103 402.93C405.849 402.93 406.419 403.145 406.811 403.574C407.212 403.994 407.413 404.535 407.413 405.198V409.72C407.413 409.907 407.319 410 407.133 410H406.769C406.582 410 406.489 409.907 406.489 409.72V405.45C406.489 404.89 406.358 404.461 406.097 404.162C405.845 403.863 405.467 403.714 404.963 403.714C404.431 403.714 404.006 403.891 403.689 404.246C403.371 404.601 403.213 405.058 403.213 405.618V409.72C403.213 409.907 403.119 410 402.933 410H402.569C402.382 410 402.289 409.907 402.289 409.72V405.45C402.289 404.89 402.158 404.461 401.897 404.162C401.645 403.863 401.262 403.714 400.749 403.714C400.273 403.714 399.876 403.863 399.559 404.162C399.251 404.461 399.069 404.853 399.013 405.338V409.72C399.013 409.907 398.919 410 398.733 410H398.369C398.182 410 398.089 409.907 398.089 409.72V403.378C398.089 403.191 398.182 403.098 398.369 403.098H398.677C398.863 403.098 398.957 403.191 398.957 403.378V403.952C399.377 403.271 400.044 402.93 400.959 402.93C401.435 402.93 401.841 403.037 402.177 403.252C402.522 403.457 402.779 403.737 402.947 404.092C403.441 403.317 404.16 402.93 405.103 402.93ZM409.912 401.348C409.725 401.348 409.567 401.283 409.436 401.152C409.315 401.021 409.254 400.863 409.254 400.676C409.254 400.489 409.315 400.335 409.436 400.214C409.567 400.093 409.725 400.032 409.912 400.032C410.108 400.032 410.267 400.093 410.388 400.214C410.519 400.335 410.584 400.489 410.584 400.676C410.584 400.863 410.519 401.021 410.388 401.152C410.267 401.283 410.108 401.348 409.912 401.348ZM409.73 410C409.543 410 409.45 409.907 409.45 409.72V403.378C409.45 403.191 409.543 403.098 409.73 403.098H410.094C410.281 403.098 410.374 403.191 410.374 403.378V409.72C410.374 409.907 410.281 410 410.094 410H409.73ZM415.511 402.93C416.323 402.93 416.934 403.154 417.345 403.602C417.765 404.05 417.975 404.61 417.975 405.282V409.72C417.975 409.907 417.881 410 417.695 410H417.331C417.144 410 417.051 409.907 417.051 409.72V405.59C417.051 404.974 416.901 404.507 416.603 404.19C416.304 403.873 415.875 403.714 415.315 403.714C414.96 403.714 414.633 403.803 414.335 403.98C414.036 404.148 413.798 404.381 413.621 404.68C413.443 404.979 413.355 405.305 413.355 405.66V409.72C413.355 409.907 413.261 410 413.075 410H412.711C412.524 410 412.431 409.907 412.431 409.72V403.378C412.431 403.191 412.524 403.098 412.711 403.098H413.019C413.205 403.098 413.299 403.191 413.299 403.378V404.05C413.532 403.677 413.84 403.397 414.223 403.21C414.605 403.023 415.035 402.93 415.511 402.93ZM425.905 402.93C426.754 402.93 427.417 403.135 427.893 403.546C428.369 403.947 428.607 404.479 428.607 405.142V409.72C428.607 409.907 428.514 410 428.327 410H428.047C427.86 410 427.767 409.907 427.767 409.72V409.09C427.534 409.463 427.202 409.743 426.773 409.93C426.353 410.117 425.882 410.21 425.359 410.21C424.631 410.21 424.038 410.056 423.581 409.748C423.124 409.44 422.895 408.964 422.895 408.32C422.895 407.807 423.04 407.396 423.329 407.088C423.618 406.771 423.996 406.533 424.463 406.374C424.93 406.206 425.513 406.057 426.213 405.926L427.725 405.66V405.212C427.725 404.736 427.562 404.367 427.235 404.106C426.908 403.835 426.479 403.7 425.947 403.7C425.546 403.7 425.182 403.775 424.855 403.924C424.528 404.073 424.178 404.33 423.805 404.694C423.74 404.759 423.67 404.792 423.595 404.792C423.53 404.792 423.469 404.764 423.413 404.708L423.231 404.54C423.166 404.475 423.133 404.405 423.133 404.33C423.133 404.246 423.166 404.171 423.231 404.106C423.623 403.695 424.034 403.397 424.463 403.21C424.902 403.023 425.382 402.93 425.905 402.93ZM425.401 409.44C426.073 409.44 426.628 409.263 427.067 408.908C427.506 408.553 427.725 408.101 427.725 407.55V406.374L426.423 406.626C425.816 406.747 425.336 406.864 424.981 406.976C424.626 407.088 424.342 407.251 424.127 407.466C423.912 407.681 423.805 407.961 423.805 408.306C423.805 408.661 423.945 408.941 424.225 409.146C424.514 409.342 424.906 409.44 425.401 409.44ZM433.735 402.93C434.547 402.93 435.158 403.154 435.569 403.602C435.989 404.05 436.199 404.61 436.199 405.282V409.72C436.199 409.907 436.106 410 435.919 410H435.555C435.368 410 435.275 409.907 435.275 409.72V405.59C435.275 404.974 435.126 404.507 434.827 404.19C434.528 403.873 434.099 403.714 433.539 403.714C433.184 403.714 432.858 403.803 432.559 403.98C432.26 404.148 432.022 404.381 431.845 404.68C431.668 404.979 431.579 405.305 431.579 405.66V409.72C431.579 409.907 431.486 410 431.299 410H430.935C430.748 410 430.655 409.907 430.655 409.72V403.378C430.655 403.191 430.748 403.098 430.935 403.098H431.243C431.43 403.098 431.523 403.191 431.523 403.378V404.05C431.756 403.677 432.064 403.397 432.447 403.21C432.83 403.023 433.259 402.93 433.735 402.93ZM443.227 400.34C443.227 400.153 443.32 400.06 443.507 400.06H443.871C444.058 400.06 444.151 400.153 444.151 400.34V409.72C444.151 409.907 444.058 410 443.871 410H443.577C443.39 410 443.297 409.907 443.297 409.72V408.81C443.045 409.249 442.714 409.585 442.303 409.818C441.892 410.051 441.407 410.168 440.847 410.168C440.259 410.168 439.736 410.019 439.279 409.72C438.822 409.412 438.462 408.987 438.201 408.446C437.94 407.895 437.809 407.265 437.809 406.556C437.809 405.847 437.94 405.221 438.201 404.68C438.472 404.129 438.84 403.705 439.307 403.406C439.774 403.098 440.296 402.944 440.875 402.944C441.939 402.944 442.723 403.341 443.227 404.134V400.34ZM440.917 409.384C441.617 409.384 442.182 409.137 442.611 408.642C443.05 408.138 443.269 407.443 443.269 406.556C443.269 405.679 443.05 404.988 442.611 404.484C442.182 403.98 441.617 403.728 440.917 403.728C440.273 403.728 439.75 403.989 439.349 404.512C438.957 405.035 438.761 405.716 438.761 406.556C438.761 407.405 438.957 408.091 439.349 408.614C439.741 409.127 440.264 409.384 440.917 409.384ZM456.468 402.93C457.215 402.93 457.784 403.145 458.176 403.574C458.577 403.994 458.778 404.535 458.778 405.198V409.72C458.778 409.907 458.685 410 458.498 410H458.134C457.947 410 457.854 409.907 457.854 409.72V405.45C457.854 404.89 457.723 404.461 457.462 404.162C457.21 403.863 456.832 403.714 456.328 403.714C455.796 403.714 455.371 403.891 455.054 404.246C454.737 404.601 454.578 405.058 454.578 405.618V409.72C454.578 409.907 454.485 410 454.298 410H453.934C453.747 410 453.654 409.907 453.654 409.72V405.45C453.654 404.89 453.523 404.461 453.262 404.162C453.01 403.863 452.627 403.714 452.114 403.714C451.638 403.714 451.241 403.863 450.924 404.162C450.616 404.461 450.434 404.853 450.378 405.338V409.72C450.378 409.907 450.285 410 450.098 410H449.734C449.547 410 449.454 409.907 449.454 409.72V403.378C449.454 403.191 449.547 403.098 449.734 403.098H450.042C450.229 403.098 450.322 403.191 450.322 403.378V403.952C450.742 403.271 451.409 402.93 452.324 402.93C452.8 402.93 453.206 403.037 453.542 403.252C453.887 403.457 454.144 403.737 454.312 404.092C454.807 403.317 455.525 402.93 456.468 402.93ZM463.475 402.93C464.325 402.93 464.987 403.135 465.463 403.546C465.939 403.947 466.177 404.479 466.177 405.142V409.72C466.177 409.907 466.084 410 465.897 410H465.617C465.431 410 465.337 409.907 465.337 409.72V409.09C465.104 409.463 464.773 409.743 464.343 409.93C463.923 410.117 463.452 410.21 462.929 410.21C462.201 410.21 461.609 410.056 461.151 409.748C460.694 409.44 460.465 408.964 460.465 408.32C460.465 407.807 460.61 407.396 460.899 407.088C461.189 406.771 461.567 406.533 462.033 406.374C462.5 406.206 463.083 406.057 463.783 405.926L465.295 405.66V405.212C465.295 404.736 465.132 404.367 464.805 404.106C464.479 403.835 464.049 403.7 463.517 403.7C463.116 403.7 462.752 403.775 462.425 403.924C462.099 404.073 461.749 404.33 461.375 404.694C461.31 404.759 461.24 404.792 461.165 404.792C461.1 404.792 461.039 404.764 460.983 404.708L460.801 404.54C460.736 404.475 460.703 404.405 460.703 404.33C460.703 404.246 460.736 404.171 460.801 404.106C461.193 403.695 461.604 403.397 462.033 403.21C462.472 403.023 462.953 402.93 463.475 402.93ZM462.971 409.44C463.643 409.44 464.199 409.263 464.637 408.908C465.076 408.553 465.295 408.101 465.295 407.55V406.374L463.993 406.626C463.387 406.747 462.906 406.864 462.551 406.976C462.197 407.088 461.912 407.251 461.697 407.466C461.483 407.681 461.375 407.961 461.375 408.306C461.375 408.661 461.515 408.941 461.795 409.146C462.085 409.342 462.477 409.44 462.971 409.44ZM473.293 409.664C473.331 409.729 473.349 409.785 473.349 409.832C473.349 409.944 473.275 410 473.125 410H472.705C472.565 410 472.453 409.939 472.369 409.818L470.465 407.018L468.575 409.818C468.491 409.939 468.379 410 468.239 410H467.847C467.773 410 467.712 409.986 467.665 409.958C467.628 409.921 467.609 409.879 467.609 409.832C467.609 409.767 467.628 409.711 467.665 409.664L469.933 406.402L467.847 403.434C467.81 403.387 467.791 403.336 467.791 403.28C467.791 403.159 467.871 403.098 468.029 403.098H468.435C468.575 403.098 468.687 403.159 468.771 403.28L470.479 405.786L472.173 403.28C472.257 403.159 472.369 403.098 472.509 403.098H472.887C472.962 403.098 473.018 403.117 473.055 403.154C473.102 403.182 473.125 403.219 473.125 403.266C473.125 403.331 473.107 403.387 473.069 403.434L471.025 406.36L473.293 409.664ZM482.257 403.322C482.313 403.173 482.42 403.098 482.579 403.098H482.943C483.018 403.098 483.078 403.117 483.125 403.154C483.172 403.191 483.195 403.243 483.195 403.308L483.167 403.42L480.941 409.776C480.885 409.925 480.778 410 480.619 410H479.877C479.718 410 479.611 409.925 479.555 409.776L477.343 403.42L477.315 403.308C477.315 403.243 477.338 403.191 477.385 403.154C477.432 403.117 477.492 403.098 477.567 403.098H477.945C478.104 403.098 478.211 403.173 478.267 403.322L479.121 405.786C479.476 406.813 479.854 407.993 480.255 409.328C480.274 409.272 480.325 409.113 480.409 408.852C480.792 407.592 481.123 406.57 481.403 405.786L482.257 403.322ZM487.155 402.93C488.004 402.93 488.667 403.135 489.143 403.546C489.619 403.947 489.857 404.479 489.857 405.142V409.72C489.857 409.907 489.764 410 489.577 410H489.297C489.11 410 489.017 409.907 489.017 409.72V409.09C488.784 409.463 488.452 409.743 488.023 409.93C487.603 410.117 487.132 410.21 486.609 410.21C485.881 410.21 485.288 410.056 484.831 409.748C484.374 409.44 484.145 408.964 484.145 408.32C484.145 407.807 484.29 407.396 484.579 407.088C484.868 406.771 485.246 406.533 485.713 406.374C486.18 406.206 486.763 406.057 487.463 405.926L488.975 405.66V405.212C488.975 404.736 488.812 404.367 488.485 404.106C488.158 403.835 487.729 403.7 487.197 403.7C486.796 403.7 486.432 403.775 486.105 403.924C485.778 404.073 485.428 404.33 485.055 404.694C484.99 404.759 484.92 404.792 484.845 404.792C484.78 404.792 484.719 404.764 484.663 404.708L484.481 404.54C484.416 404.475 484.383 404.405 484.383 404.33C484.383 404.246 484.416 404.171 484.481 404.106C484.873 403.695 485.284 403.397 485.713 403.21C486.152 403.023 486.632 402.93 487.155 402.93ZM486.651 409.44C487.323 409.44 487.878 409.263 488.317 408.908C488.756 408.553 488.975 408.101 488.975 407.55V406.374L487.673 406.626C487.066 406.747 486.586 406.864 486.231 406.976C485.876 407.088 485.592 407.251 485.377 407.466C485.162 407.681 485.055 407.961 485.055 408.306C485.055 408.661 485.195 408.941 485.475 409.146C485.764 409.342 486.156 409.44 486.651 409.44ZM492.199 410C492.012 410 491.919 409.907 491.919 409.72V400.34C491.919 400.153 492.012 400.06 492.199 400.06H492.563C492.75 400.06 492.843 400.153 492.843 400.34V409.72C492.843 409.907 492.75 410 492.563 410H492.199ZM499.407 403.378C499.407 403.191 499.5 403.098 499.687 403.098H500.051C500.237 403.098 500.331 403.191 500.331 403.378V409.72C500.331 409.907 500.237 410 500.051 410H499.757C499.57 410 499.477 409.907 499.477 409.72V409.09C499.271 409.454 498.977 409.729 498.595 409.916C498.221 410.093 497.811 410.182 497.363 410.182C496.523 410.182 495.902 409.972 495.501 409.552C495.099 409.123 494.899 408.572 494.899 407.9V403.378C494.899 403.191 494.992 403.098 495.179 403.098H495.543C495.729 403.098 495.823 403.191 495.823 403.378V407.704C495.823 408.255 495.958 408.675 496.229 408.964C496.509 409.244 496.905 409.384 497.419 409.384C497.997 409.384 498.473 409.207 498.847 408.852C499.22 408.497 499.407 407.993 499.407 407.34V403.378ZM507.431 408.362C507.496 408.297 507.566 408.264 507.641 408.264C507.706 408.264 507.767 408.292 507.823 408.348L508.005 408.516C508.07 408.581 508.103 408.651 508.103 408.726C508.103 408.782 508.075 408.847 508.019 408.922C507.562 409.379 507.118 409.706 506.689 409.902C506.26 410.089 505.779 410.182 505.247 410.182C504.575 410.182 503.992 410.033 503.497 409.734C503.002 409.435 502.62 409.02 502.349 408.488C502.078 407.947 501.943 407.321 501.943 406.612C501.943 405.893 502.074 405.259 502.335 404.708C502.606 404.148 502.984 403.714 503.469 403.406C503.954 403.089 504.514 402.93 505.149 402.93C506.092 402.93 506.834 403.224 507.375 403.812C507.916 404.4 508.187 405.193 508.187 406.192V406.36C508.178 406.444 508.145 406.509 508.089 406.556C508.042 406.603 507.977 406.626 507.893 406.626H502.881C502.909 407.41 503.114 408.073 503.497 408.614C503.889 409.146 504.472 409.412 505.247 409.412C505.667 409.412 506.036 409.337 506.353 409.188C506.68 409.029 507.039 408.754 507.431 408.362ZM505.149 403.7C504.533 403.7 504.024 403.891 503.623 404.274C503.231 404.647 502.993 405.198 502.909 405.926H507.263C507.244 405.245 507.048 404.703 506.675 404.302C506.302 403.901 505.793 403.7 505.149 403.7ZM512.305 410.182C511.736 410.182 511.232 410.103 510.793 409.944C510.364 409.776 509.911 409.496 509.435 409.104C509.351 409.048 509.309 408.983 509.309 408.908C509.309 408.843 509.342 408.777 509.407 408.712L509.589 408.516C509.645 408.441 509.715 408.404 509.799 408.404C509.865 408.404 509.925 408.432 509.981 408.488C510.429 408.833 510.826 409.076 511.171 409.216C511.517 409.347 511.895 409.412 512.305 409.412C512.819 409.412 513.239 409.3 513.565 409.076C513.892 408.843 514.055 408.53 514.055 408.138C514.055 407.746 513.887 407.457 513.551 407.27C513.215 407.083 512.697 406.915 511.997 406.766C511.381 406.635 510.896 406.5 510.541 406.36C510.196 406.211 509.939 406.024 509.771 405.8C509.603 405.576 509.519 405.282 509.519 404.918C509.519 404.321 509.762 403.84 510.247 403.476C510.733 403.112 511.344 402.93 512.081 402.93C512.585 402.93 513.033 402.995 513.425 403.126C513.827 403.247 514.228 403.453 514.629 403.742C514.713 403.807 514.755 403.877 514.755 403.952C514.755 403.999 514.732 404.059 514.685 404.134L514.517 404.344C514.471 404.419 514.405 404.456 514.321 404.456C514.247 404.456 514.181 404.433 514.125 404.386C513.743 404.115 513.402 403.933 513.103 403.84C512.814 403.747 512.483 403.7 512.109 403.7C511.596 403.7 511.185 403.812 510.877 404.036C510.569 404.26 510.415 404.545 510.415 404.89C510.415 405.105 510.485 405.277 510.625 405.408C510.765 405.539 510.966 405.651 511.227 405.744C511.489 405.828 511.871 405.926 512.375 406.038C513.309 406.243 513.971 406.495 514.363 406.794C514.765 407.093 514.965 407.527 514.965 408.096C514.965 408.721 514.718 409.225 514.223 409.608C513.729 409.991 513.089 410.182 512.305 410.182Z" fill="#5C5C66"/>
<defs>
<clipPath id="clip0_27017_6598">
<rect width="135" height="22" fill="white" transform="translate(189 265)"/>
</clipPath>
<clipPath id="clip1_27017_6598">
<rect width="135" height="22" fill="white" transform="translate(364 265)"/>
</clipPath>
</defs>
</svg>
