<svg width="86" height="87" viewBox="0 0 86 87" fill="none" xmlns="http://www.w3.org/2000/svg">
<path d="M69.5 0.5C60.6634 0.5 53.5 7.66344 53.5 16.5C53.5 25.3366 60.6634 32.5 69.5 32.5C78.3366 32.5 85.5 25.3366 85.5 16.5C85.5 7.66344 78.3366 0.5 69.5 0.5Z" fill="var(--vp-c-svg2,#131B2D)"/>
<path d="M69.5 54.5C60.6634 54.5 53.5 61.6634 53.5 70.5C53.5 79.3366 60.6634 86.5 69.5 86.5C78.3366 86.5 85.5 79.3366 85.5 70.5C85.5 61.6634 78.3366 54.5 69.5 54.5Z" fill="var(--vp-c-svg2,#131B2D)"/>
<path d="M16.5 27.5C7.66344 27.5 0.5 34.6634 0.5 43.5C0.5 52.3366 7.66344 59.5 16.5 59.5C25.3366 59.5 32.5 52.3366 32.5 43.5C32.5 34.6634 25.3366 27.5 16.5 27.5Z" fill="var(--vp-c-svg2,#131B2D)"/>
<line x1="69.0003" y1="70.5278" x2="68.0003" y2="16.5278" stroke="var(--vp-c-svg2,#131B2D)" stroke-width="3"/>
<line x1="15.8191" y1="42.1634" x2="68.8191" y2="15.1634" stroke="var(--vp-c-svg2,#131B2D)" stroke-width="3"/>
<line x1="68.8191" y1="71.8366" x2="15.8191" y2="44.8366" stroke="var(--vp-c-svg2,#131B2D)" stroke-width="3"/>
</svg>
