<svg width="86" height="86" viewBox="0 0 86 86" fill="none" xmlns="http://www.w3.org/2000/svg">
<path d="M83 66C83 54.9543 74.0457 46 63 46C51.9543 46 43 54.9543 43 66C43 77.0457 51.9543 86 63 86C74.0457 86 83 77.0457 83 66Z" fill="var(--vp-c-svg2,#131B2D)"/>
<path d="M60.366 69.005H55.481L54.581 71.4955H53.0385L57.088 60.36H58.775L62.8085 71.4955H61.266L60.366 69.005ZM59.9485 67.816L57.9235 62.1595L55.8985 67.816H59.9485ZM64.027 67.0605C64.027 66.1605 64.2092 65.3732 64.5735 64.6985C64.9378 64.0128 65.436 63.4825 66.068 63.1075C66.7107 62.7325 67.423 62.545 68.205 62.545C68.9763 62.545 69.6458 62.7112 70.2135 63.0435C70.7812 63.3755 71.2045 63.7932 71.4835 64.2965V62.69H72.9615V71.496H71.483V69.857C71.194 70.3717 70.7602 70.8002 70.1815 71.1425C69.6135 71.4748 68.9493 71.641 68.189 71.641C67.407 71.641 66.7 71.4482 66.068 71.0625C65.436 70.6768 64.9377 70.1358 64.573 69.4395C64.2083 68.7432 64.0263 67.9503 64.027 67.061M71.483 67.077C71.483 66.413 71.3492 65.8347 71.0815 65.342C70.8135 64.849 70.4492 64.474 69.9885 64.217C69.5385 63.949 69.0405 63.815 68.4945 63.815C67.9478 63.815 67.4495 63.9437 66.9995 64.201C66.5495 64.458 66.1907 64.833 65.923 65.326C65.6553 65.8187 65.5215 66.397 65.5215 67.061C65.5215 67.736 65.6553 68.3252 65.923 68.8285C66.191 69.3218 66.55 69.7022 67 69.9695C67.45 70.2265 67.9482 70.355 68.4945 70.355C69.0408 70.355 69.5388 70.2267 69.9885 69.97C70.4492 69.702 70.8135 69.3215 71.0815 68.8285C71.3492 68.3252 71.483 67.7413 71.483 67.077Z" fill="#EBEBF2"/>
<path d="M40 43.22C40 32.1743 31.0457 23.22 20 23.22C8.9543 23.22 0 32.1743 0 43.22C0 54.2657 8.9543 63.22 20 63.22C31.0457 63.22 40 54.2657 40 43.22Z" fill="var(--vp-c-svg2,#131B2D)"/>
<path d="M16.5435 34.5244H13.087C12.4504 34.5244 11.9348 35.0409 11.9348 35.6774V50.6557C11.9348 51.2913 12.4504 51.8078 13.087 51.8078H16.5435C17.18 51.8078 17.6957 51.2913 17.6957 50.6557V35.6774C17.6957 35.0409 17.18 34.5244 16.5435 34.5244Z" stroke="#EBEBF2" stroke-width="1.325" stroke-linecap="round" stroke-linejoin="round"/>
<path d="M19.8191 34.6121L23.0139 35.9313C23.1539 35.9888 23.2811 36.0734 23.3883 36.1802C23.4954 36.2871 23.5804 36.4141 23.6383 36.5539C23.755 36.8361 23.7553 37.1531 23.6391 37.4356L17.6957 50.6556M25.4391 38.3965L27.7652 40.9521C27.9705 41.1783 28.0778 41.4767 28.0634 41.7819C28.0491 42.087 27.9143 42.374 27.6887 42.58L17.56 51.1965M11.9348 37.9808H17.6957M11.9348 41.4382H17.6957M11.9348 44.8947H17.6957" stroke="#EBEBF2" stroke-width="1.325" stroke-linecap="round" stroke-linejoin="round"/>
<path d="M86 20C86 8.95431 77.0457 0 66 0C54.9543 0 46 8.95431 46 20C46 31.0457 54.9543 40 66 40C77.0457 40 86 31.0457 86 20Z" fill="var(--vp-c-svg2,#131B2D)"/>
<path d="M66.0002 14.75C66.404 14.7494 66.7985 14.6294 67.1342 14.4051C67.4699 14.1808 67.7318 13.8622 67.8868 13.4894C68.0838 13.0207 68.0986 12.4954 67.9286 12.0163C67.7585 11.5372 67.4157 11.1388 66.9673 10.8992C66.519 10.6596 65.9973 10.596 65.5045 10.7208C65.0116 10.8456 64.5832 11.1499 64.3029 11.5741C64.0974 11.8815 63.9792 12.239 63.961 12.6084C63.9428 12.9777 64.0253 13.3451 64.1997 13.6712C64.374 13.9973 64.6337 14.2699 64.9509 14.4599C65.2682 14.65 65.6304 14.7502 66.0002 14.75Z" fill="#EBEBF2"/>
<path d="M59.5835 14.7796L59.6002 14.7836L59.6155 14.7883L59.7248 14.8209C60.4028 15.0203 63.6961 15.9482 66.016 15.9482C68.1713 15.9482 71.1665 15.1463 72.1245 14.8736C72.2201 14.8372 72.3174 14.8058 72.4165 14.7796C73.1091 14.5976 73.5831 15.3009 73.5831 15.9442C73.5831 16.5809 73.0105 16.8842 72.4325 17.1022V17.1122L68.9613 18.1968C68.6066 18.3328 68.5119 18.4715 68.4653 18.5915C68.3146 18.9782 68.4353 19.7421 68.4779 20.0095L68.6893 21.6501L69.8626 28.0732C69.8666 28.091 69.8699 28.1088 69.8726 28.1266L69.8812 28.1732C69.9652 28.7619 69.5332 29.3332 68.7146 29.3332C67.9999 29.3332 67.6846 28.8399 67.548 28.1686C67.548 28.1686 66.5267 22.4241 66.0167 22.4241C65.5067 22.4241 64.4547 28.1686 64.4547 28.1686C64.318 28.8399 64.0027 29.3332 63.2881 29.3332C62.4668 29.3332 62.0348 28.7592 62.1214 28.1686C62.129 28.1184 62.1381 28.069 62.1488 28.0206L63.3387 21.6508L63.5501 20.0101C63.7027 19.0542 63.5794 18.7388 63.5381 18.6648L63.5354 18.6595C63.4954 18.5862 63.3167 18.4228 62.8981 18.2662L59.6428 17.1282C59.623 17.1227 59.6034 17.1162 59.5842 17.1089C59.0009 16.8902 58.4175 16.5876 58.4175 15.9449C58.4175 15.3023 58.8902 14.5976 59.5835 14.7796Z" fill="#EBEBF2"/>
</svg>
