<svg width="86" height="86" viewBox="0 0 86 86" fill="none" xmlns="http://www.w3.org/2000/svg">
<path d="M24 12C24 5.37258 18.6274 0 12 0C5.37258 0 0 5.37258 0 12C0 18.6274 5.37258 24 12 24C18.6274 24 24 18.6274 24 12Z" fill="var(--vp-c-svg2,#131B2D)" />
<path d="M24 43C24 36.3726 18.6274 31 12 31C5.37258 31 0 36.3726 0 43C0 49.6274 5.37258 55 12 55C18.6274 55 24 49.6274 24 43Z" fill="var(--vp-c-svg2,#131B2D)" />
<path d="M24 74C24 67.3726 18.6274 62 12 62C5.37258 62 0 67.3726 0 74C0 80.6274 5.37258 86 12 86C18.6274 86 24 80.6274 24 74Z" fill="var(--vp-c-svg2,#131B2D)"/>
<path d="M86 12C86 5.37258 80.6274 0 74 0C67.3726 0 62 5.37258 62 12C62 18.6274 67.3726 24 74 24C80.6274 24 86 18.6274 86 12Z" fill="var(--vp-c-svg2,#131B2D)"/>
<path d="M86 43C86 36.3726 80.6274 31 74 31C67.3726 31 62 36.3726 62 43C62 49.6274 67.3726 55 74 55C80.6274 55 86 49.6274 86 43Z" fill="var(--vp-c-svg2,#131B2D)"/>
<path d="M86 74C86 67.3726 80.6274 62 74 62C67.3726 62 62 67.3726 62 74C62 80.6274 67.3726 86 74 86C80.6274 86 86 80.6274 86 74Z" fill="var(--vp-c-svg2,#131B2D)"/>
<path d="M55 12C55 5.37258 49.6274 0 43 0C36.3726 0 31 5.37258 31 12C31 18.6274 36.3726 24 43 24C49.6274 24 55 18.6274 55 12Z" fill="var(--vp-c-svg2,#131B2D)"/>
<path d="M55 43C55 36.3726 49.6274 31 43 31C36.3726 31 31 36.3726 31 43C31 49.6274 36.3726 55 43 55C49.6274 55 55 49.6274 55 43Z" fill="var(--vp-c-svg2,#131B2D)"/>
<path d="M55 74C55 67.3726 49.6274 62 43 62C36.3726 62 31 67.3726 31 74C31 80.6274 36.3726 86 43 86C49.6274 86 55 80.6274 55 74Z" fill="var(--vp-c-svg2,#131B2D)"/>
<line x1="74" y1="13.5" x2="12" y2="13.5" stroke="var(--vp-c-svg2,#131B2D)" stroke-width="3"/>
<line x1="11" y1="74" x2="11" y2="12" stroke="var(--vp-c-svg2,#131B2D)" stroke-width="3"/>
<line x1="42.5" y1="74" x2="42.5" y2="12" stroke="var(--vp-c-svg2,#131B2D)" stroke-width="3"/>
<line x1="73.5" y1="74" x2="73.5" y2="12" stroke="var(--vp-c-svg2,#131B2D)" stroke-width="3"/>
<line x1="74" y1="44.5" x2="12" y2="44.5" stroke="var(--vp-c-svg2,#131B2D)" stroke-width="3"/>
<line x1="74" y1="75.5" x2="12" y2="75.5" stroke="var(--vp-c-svg2,#131B2D)" stroke-width="3"/>
</svg>
