<svg width="458" height="222" viewBox="0 0 458 222" fill="none" xmlns="http://www.w3.org/2000/svg">
<rect width="458" height="222" fill="#F6F6F6"/>
<g opacity="0.2">
<path d="M129.136 104.96C129.136 104.747 129.243 104.64 129.456 104.64H129.92C130.133 104.64 130.24 104.747 130.24 104.96V115.68C130.24 115.893 130.133 116 129.92 116H129.2C129.029 116 128.896 115.931 128.8 115.792L125.36 110.576L125.168 110.272C123.888 108.352 122.971 106.939 122.416 106.032C122.459 107.28 122.48 108.72 122.48 110.352V115.68C122.48 115.893 122.373 116 122.16 116H121.696C121.483 116 121.376 115.893 121.376 115.68V104.96C121.376 104.747 121.483 104.64 121.696 104.64H122.416C122.587 104.64 122.72 104.709 122.816 104.848L126.24 110.048L126.848 110.992C127.925 112.624 128.709 113.84 129.2 114.64C129.157 113.371 129.136 111.925 129.136 110.304V104.96ZM137.689 108.368C137.753 108.197 137.876 108.112 138.057 108.112H138.489C138.575 108.112 138.644 108.133 138.697 108.176C138.751 108.219 138.777 108.277 138.777 108.352L138.745 108.48L135.657 117.2C135.487 117.68 135.321 118.053 135.161 118.32C135.001 118.587 134.783 118.789 134.505 118.928C134.239 119.067 133.887 119.136 133.449 119.136C133.172 119.136 132.927 119.115 132.713 119.072C132.607 119.061 132.532 119.019 132.489 118.944C132.457 118.869 132.452 118.784 132.473 118.688L132.521 118.48C132.564 118.288 132.687 118.203 132.889 118.224C133.081 118.256 133.247 118.272 133.385 118.272C133.727 118.272 133.993 118.176 134.185 117.984C134.388 117.792 134.58 117.429 134.761 116.896L134.905 116.448L132.089 108.48L132.057 108.352C132.057 108.277 132.084 108.219 132.137 108.176C132.191 108.133 132.26 108.112 132.345 108.112H132.809C132.98 108.112 133.097 108.197 133.161 108.368L134.057 111.008C134.143 111.275 134.356 111.909 134.697 112.912L135.417 115.072C135.769 114.08 136.233 112.715 136.809 110.976L137.689 108.368ZM144.148 107.936C144.82 107.936 145.417 108.112 145.94 108.464C146.473 108.805 146.884 109.291 147.172 109.92C147.47 110.539 147.62 111.253 147.62 112.064C147.62 112.875 147.47 113.595 147.172 114.224C146.873 114.843 146.457 115.328 145.924 115.68C145.401 116.021 144.809 116.192 144.148 116.192C142.878 116.192 141.95 115.701 141.364 114.72V115.68C141.364 115.893 141.257 116 141.044 116H140.692C140.478 116 140.372 115.893 140.372 115.68V104.944C140.372 104.731 140.478 104.624 140.692 104.624H141.108C141.321 104.624 141.428 104.731 141.428 104.944V109.36C142.014 108.411 142.921 107.936 144.148 107.936ZM144.068 115.296C144.804 115.296 145.396 114.997 145.844 114.4C146.302 113.803 146.532 113.024 146.532 112.064C146.532 111.104 146.302 110.325 145.844 109.728C145.396 109.131 144.804 108.832 144.068 108.832C143.278 108.832 142.633 109.12 142.132 109.696C141.63 110.272 141.38 111.061 141.38 112.064C141.38 113.077 141.625 113.872 142.116 114.448C142.617 115.013 143.268 115.296 144.068 115.296ZM152.441 108.048C152.707 108.048 153.022 108.091 153.385 108.176C153.577 108.24 153.651 108.373 153.609 108.576L153.545 108.832C153.491 109.035 153.358 109.109 153.145 109.056C152.889 108.992 152.654 108.96 152.441 108.96C151.897 108.96 151.443 109.195 151.081 109.664C150.729 110.133 150.553 110.784 150.553 111.616V115.68C150.553 115.893 150.446 116 150.233 116H149.817C149.603 116 149.497 115.893 149.497 115.68V108.432C149.497 108.219 149.603 108.112 149.817 108.112H150.169C150.382 108.112 150.489 108.219 150.489 108.432V109.312C150.67 108.917 150.926 108.608 151.257 108.384C151.598 108.16 151.993 108.048 152.441 108.048ZM160.163 108.432C160.163 108.219 160.27 108.112 160.483 108.112H160.899C161.113 108.112 161.219 108.219 161.219 108.432V115.68C161.219 115.893 161.113 116 160.899 116H160.563C160.35 116 160.243 115.893 160.243 115.68V114.96C160.009 115.376 159.673 115.691 159.235 115.904C158.809 116.107 158.339 116.208 157.827 116.208C156.867 116.208 156.158 115.968 155.699 115.488C155.241 114.997 155.011 114.368 155.011 113.6V108.432C155.011 108.219 155.118 108.112 155.331 108.112H155.747C155.961 108.112 156.067 108.219 156.067 108.432V113.376C156.067 114.005 156.222 114.485 156.531 114.816C156.851 115.136 157.305 115.296 157.891 115.296C158.553 115.296 159.097 115.093 159.523 114.688C159.95 114.283 160.163 113.707 160.163 112.96V108.432ZM169.286 116C169.126 116 168.998 115.931 168.902 115.792L166.198 111.856L164.646 113.44V115.68C164.646 115.893 164.54 116 164.326 116H163.91C163.697 116 163.59 115.893 163.59 115.68V104.96C163.59 104.747 163.697 104.64 163.91 104.64H164.326C164.54 104.64 164.646 104.747 164.646 104.96V112.24L168.486 108.256C168.582 108.149 168.716 108.096 168.886 108.096H169.334C169.42 108.096 169.484 108.117 169.526 108.16C169.58 108.192 169.606 108.235 169.606 108.288C169.606 108.341 169.574 108.411 169.51 108.496L166.934 111.184L169.958 115.616C170.001 115.691 170.022 115.755 170.022 115.808C170.022 115.936 169.937 116 169.766 116H169.286ZM175.142 115.12C175.174 115.109 175.217 115.104 175.27 115.104C175.334 115.104 175.393 115.125 175.446 115.168C175.5 115.211 175.532 115.269 175.542 115.344L175.59 115.568C175.601 115.589 175.606 115.627 175.606 115.68C175.606 115.829 175.526 115.92 175.366 115.952C174.982 116.069 174.572 116.128 174.134 116.128C173.441 116.128 172.945 115.973 172.646 115.664C172.358 115.344 172.214 114.885 172.214 114.288V108.912H171.03C170.817 108.912 170.71 108.805 170.71 108.592V108.432C170.71 108.219 170.817 108.112 171.03 108.112H172.214V105.68C172.214 105.467 172.321 105.36 172.534 105.36H172.95C173.164 105.36 173.27 105.467 173.27 105.68V108.112H175.19C175.404 108.112 175.51 108.219 175.51 108.432V108.592C175.51 108.805 175.404 108.912 175.19 108.912H173.27V114.16C173.27 114.555 173.345 114.832 173.494 114.992C173.644 115.152 173.9 115.232 174.262 115.232C174.518 115.232 174.812 115.195 175.142 115.12Z" fill="#0063FB"/>
<path d="M184.816 116C184.624 116 184.528 115.925 184.528 115.776C184.528 115.744 184.539 115.696 184.56 115.632L189.248 104.88C189.312 104.72 189.44 104.64 189.632 104.64H189.968C190.16 104.64 190.256 104.715 190.256 104.864C190.256 104.896 190.245 104.944 190.224 105.008L185.536 115.76C185.472 115.92 185.344 116 185.152 116H184.816Z" fill="#1B1B1F"/>
<path d="M209.304 104.896C209.368 104.725 209.491 104.64 209.672 104.64H210.92C211.133 104.64 211.24 104.747 211.24 104.96V115.68C211.24 115.893 211.133 116 210.92 116H210.456C210.243 116 210.136 115.893 210.136 115.68V110.368C210.136 109.227 210.147 107.579 210.168 105.424C209.731 106.672 209.133 108.32 208.376 110.368L206.408 115.744C206.344 115.915 206.221 116 206.04 116H205.576C205.395 116 205.272 115.915 205.208 115.744L203.192 110.352C202.765 109.243 202.173 107.6 201.416 105.424C201.437 107.579 201.448 109.232 201.448 110.384V115.68C201.448 115.893 201.341 116 201.128 116H200.696C200.483 116 200.376 115.893 200.376 115.68V104.96C200.376 104.747 200.483 104.64 200.696 104.64H201.928C202.109 104.64 202.232 104.725 202.296 104.896L204.12 109.808C204.963 112.101 205.528 113.717 205.816 114.656C206.083 113.76 206.541 112.421 207.192 110.64C207.235 110.523 207.283 110.395 207.336 110.256C207.389 110.117 207.443 109.968 207.496 109.808L209.304 104.896ZM217.057 116.208C216.321 116.208 215.665 116.032 215.089 115.68C214.513 115.328 214.065 114.843 213.745 114.224C213.425 113.595 213.265 112.875 213.265 112.064C213.265 111.253 213.425 110.539 213.745 109.92C214.065 109.291 214.513 108.8 215.089 108.448C215.665 108.096 216.321 107.92 217.057 107.92C217.793 107.92 218.449 108.096 219.025 108.448C219.601 108.8 220.049 109.291 220.369 109.92C220.689 110.539 220.849 111.253 220.849 112.064C220.849 112.875 220.689 113.595 220.369 114.224C220.049 114.843 219.601 115.328 219.025 115.68C218.449 116.032 217.793 116.208 217.057 116.208ZM217.057 115.328C217.879 115.328 218.535 115.029 219.025 114.432C219.516 113.824 219.761 113.035 219.761 112.064C219.761 111.093 219.516 110.309 219.025 109.712C218.535 109.104 217.879 108.8 217.057 108.8C216.236 108.8 215.58 109.104 215.089 109.712C214.599 110.309 214.353 111.093 214.353 112.064C214.353 113.035 214.599 113.824 215.089 114.432C215.58 115.029 216.236 115.328 217.057 115.328ZM226.46 107.936C227.132 107.936 227.729 108.112 228.252 108.464C228.785 108.805 229.196 109.291 229.484 109.92C229.783 110.539 229.932 111.253 229.932 112.064C229.932 112.875 229.783 113.595 229.484 114.224C229.185 114.843 228.769 115.328 228.236 115.68C227.713 116.021 227.121 116.192 226.46 116.192C225.191 116.192 224.263 115.701 223.676 114.72V115.68C223.676 115.893 223.569 116 223.356 116H223.004C222.791 116 222.684 115.893 222.684 115.68V104.944C222.684 104.731 222.791 104.624 223.004 104.624H223.42C223.633 104.624 223.74 104.731 223.74 104.944V109.36C224.327 108.411 225.233 107.936 226.46 107.936ZM226.38 115.296C227.116 115.296 227.708 114.997 228.156 114.4C228.615 113.803 228.844 113.024 228.844 112.064C228.844 111.104 228.615 110.325 228.156 109.728C227.708 109.131 227.116 108.832 226.38 108.832C225.591 108.832 224.945 109.12 224.444 109.696C223.943 110.272 223.692 111.061 223.692 112.064C223.692 113.077 223.937 113.872 224.428 114.448C224.929 115.013 225.58 115.296 226.38 115.296ZM232.337 106.112C232.124 106.112 231.942 106.037 231.793 105.888C231.654 105.739 231.585 105.557 231.585 105.344C231.585 105.131 231.654 104.955 231.793 104.816C231.942 104.677 232.124 104.608 232.337 104.608C232.561 104.608 232.742 104.677 232.881 104.816C233.03 104.955 233.105 105.131 233.105 105.344C233.105 105.557 233.03 105.739 232.881 105.888C232.742 106.037 232.561 106.112 232.337 106.112ZM232.129 116C231.916 116 231.809 115.893 231.809 115.68V108.432C231.809 108.219 231.916 108.112 232.129 108.112H232.545C232.758 108.112 232.865 108.219 232.865 108.432V115.68C232.865 115.893 232.758 116 232.545 116H232.129ZM235.551 116C235.338 116 235.231 115.893 235.231 115.68V104.96C235.231 104.747 235.338 104.64 235.551 104.64H235.967C236.181 104.64 236.287 104.747 236.287 104.96V115.68C236.287 115.893 236.181 116 235.967 116H235.551ZM244.412 114.128C244.487 114.053 244.567 114.016 244.652 114.016C244.727 114.016 244.796 114.048 244.86 114.112L245.068 114.304C245.143 114.379 245.18 114.459 245.18 114.544C245.18 114.608 245.148 114.683 245.084 114.768C244.562 115.291 244.055 115.664 243.564 115.888C243.074 116.101 242.524 116.208 241.916 116.208C241.148 116.208 240.482 116.037 239.916 115.696C239.351 115.355 238.914 114.88 238.604 114.272C238.295 113.653 238.14 112.939 238.14 112.128C238.14 111.307 238.29 110.581 238.588 109.952C238.898 109.312 239.33 108.816 239.884 108.464C240.439 108.101 241.079 107.92 241.804 107.92C242.882 107.92 243.73 108.256 244.348 108.928C244.967 109.6 245.276 110.507 245.276 111.648V111.84C245.266 111.936 245.228 112.011 245.164 112.064C245.111 112.117 245.036 112.144 244.94 112.144H239.212C239.244 113.04 239.479 113.797 239.916 114.416C240.364 115.024 241.031 115.328 241.916 115.328C242.396 115.328 242.818 115.243 243.18 115.072C243.554 114.891 243.964 114.576 244.412 114.128ZM241.804 108.8C241.1 108.8 240.519 109.019 240.06 109.456C239.612 109.883 239.34 110.512 239.244 111.344H244.22C244.199 110.565 243.975 109.947 243.548 109.488C243.122 109.029 242.54 108.8 241.804 108.8Z" fill="#0063FB"/>
<path d="M254.816 116C254.624 116 254.528 115.925 254.528 115.776C254.528 115.744 254.539 115.696 254.56 115.632L259.248 104.88C259.312 104.72 259.44 104.64 259.632 104.64H259.968C260.16 104.64 260.256 104.715 260.256 104.864C260.256 104.896 260.245 104.944 260.224 105.008L255.536 115.76C255.472 115.92 255.344 116 255.152 116H254.816Z" fill="#1B1B1F"/>
<path d="M270.712 106.112C270.499 106.112 270.317 106.037 270.168 105.888C270.029 105.739 269.96 105.557 269.96 105.344C269.96 105.131 270.029 104.955 270.168 104.816C270.317 104.677 270.499 104.608 270.712 104.608C270.936 104.608 271.117 104.677 271.256 104.816C271.405 104.955 271.48 105.131 271.48 105.344C271.48 105.557 271.405 105.739 271.256 105.888C271.117 106.037 270.936 106.112 270.712 106.112ZM270.504 116C270.291 116 270.184 115.893 270.184 115.68V108.432C270.184 108.219 270.291 108.112 270.504 108.112H270.92C271.133 108.112 271.24 108.219 271.24 108.432V115.68C271.24 115.893 271.133 116 270.92 116H270.504ZM274.102 116C273.889 116 273.782 115.893 273.782 115.68V104.96C273.782 104.747 273.889 104.64 274.102 104.64H278.406C279.505 104.64 280.39 104.928 281.062 105.504C281.734 106.08 282.07 106.896 282.07 107.952C282.07 109.008 281.734 109.829 281.062 110.416C280.39 110.992 279.505 111.28 278.406 111.28H274.918V115.68C274.918 115.893 274.812 116 274.598 116H274.102ZM278.262 110.336C279.094 110.336 279.75 110.133 280.23 109.728C280.71 109.323 280.95 108.731 280.95 107.952C280.95 107.184 280.71 106.597 280.23 106.192C279.75 105.787 279.094 105.584 278.262 105.584H274.918V110.336H278.262ZM287.298 107.92C288.215 107.92 288.914 108.181 289.394 108.704C289.874 109.216 290.114 109.851 290.114 110.608V115.68C290.114 115.893 290.007 116 289.794 116H289.378C289.164 116 289.058 115.893 289.058 115.68V110.96C289.058 110.256 288.887 109.723 288.546 109.36C288.204 108.997 287.714 108.816 287.074 108.816C286.668 108.816 286.295 108.917 285.954 109.12C285.612 109.312 285.34 109.579 285.138 109.92C284.935 110.261 284.834 110.635 284.834 111.04V115.68C284.834 115.893 284.727 116 284.514 116H284.098C283.884 116 283.778 115.893 283.778 115.68V104.96C283.778 104.747 283.884 104.64 284.098 104.64H284.514C284.727 104.64 284.834 104.747 284.834 104.96V109.136C285.09 108.731 285.431 108.427 285.858 108.224C286.295 108.021 286.775 107.92 287.298 107.92ZM295.714 116.208C294.978 116.208 294.322 116.032 293.746 115.68C293.17 115.328 292.722 114.843 292.402 114.224C292.082 113.595 291.922 112.875 291.922 112.064C291.922 111.253 292.082 110.539 292.402 109.92C292.722 109.291 293.17 108.8 293.746 108.448C294.322 108.096 294.978 107.92 295.714 107.92C296.45 107.92 297.106 108.096 297.682 108.448C298.258 108.8 298.706 109.291 299.026 109.92C299.346 110.539 299.506 111.253 299.506 112.064C299.506 112.875 299.346 113.595 299.026 114.224C298.706 114.843 298.258 115.328 297.682 115.68C297.106 116.032 296.45 116.208 295.714 116.208ZM295.714 115.328C296.535 115.328 297.191 115.029 297.682 114.432C298.172 113.824 298.418 113.035 298.418 112.064C298.418 111.093 298.172 110.309 297.682 109.712C297.191 109.104 296.535 108.8 295.714 108.8C294.892 108.8 294.236 109.104 293.746 109.712C293.255 110.309 293.01 111.093 293.01 112.064C293.01 113.035 293.255 113.824 293.746 114.432C294.236 115.029 294.892 115.328 295.714 115.328ZM304.86 107.92C305.788 107.92 306.487 108.176 306.956 108.688C307.436 109.2 307.676 109.84 307.676 110.608V115.68C307.676 115.893 307.57 116 307.356 116H306.94C306.727 116 306.62 115.893 306.62 115.68V110.96C306.62 110.256 306.45 109.723 306.108 109.36C305.767 108.997 305.276 108.816 304.636 108.816C304.231 108.816 303.858 108.917 303.516 109.12C303.175 109.312 302.903 109.579 302.7 109.92C302.498 110.261 302.396 110.635 302.396 111.04V115.68C302.396 115.893 302.29 116 302.076 116H301.66C301.447 116 301.34 115.893 301.34 115.68V108.432C301.34 108.219 301.447 108.112 301.66 108.112H302.012C302.226 108.112 302.332 108.219 302.332 108.432V109.2C302.599 108.773 302.951 108.453 303.388 108.24C303.826 108.027 304.316 107.92 304.86 107.92ZM315.756 114.128C315.831 114.053 315.911 114.016 315.996 114.016C316.071 114.016 316.14 114.048 316.204 114.112L316.412 114.304C316.487 114.379 316.524 114.459 316.524 114.544C316.524 114.608 316.492 114.683 316.428 114.768C315.905 115.291 315.399 115.664 314.908 115.888C314.417 116.101 313.868 116.208 313.26 116.208C312.492 116.208 311.825 116.037 311.26 115.696C310.695 115.355 310.257 114.88 309.948 114.272C309.639 113.653 309.484 112.939 309.484 112.128C309.484 111.307 309.633 110.581 309.932 109.952C310.241 109.312 310.673 108.816 311.228 108.464C311.783 108.101 312.423 107.92 313.148 107.92C314.225 107.92 315.073 108.256 315.692 108.928C316.311 109.6 316.62 110.507 316.62 111.648V111.84C316.609 111.936 316.572 112.011 316.508 112.064C316.455 112.117 316.38 112.144 316.284 112.144H310.556C310.588 113.04 310.823 113.797 311.26 114.416C311.708 115.024 312.375 115.328 313.26 115.328C313.74 115.328 314.161 115.243 314.524 115.072C314.897 114.891 315.308 114.576 315.756 114.128ZM313.148 108.8C312.444 108.8 311.863 109.019 311.404 109.456C310.956 109.883 310.684 110.512 310.588 111.344H315.564C315.543 110.565 315.319 109.947 314.892 109.488C314.465 109.029 313.884 108.8 313.148 108.8ZM324.984 104.768C325.101 104.683 325.234 104.64 325.384 104.64H325.64C325.853 104.64 325.96 104.747 325.96 104.96V115.68C325.96 115.893 325.853 116 325.64 116H325.208C324.994 116 324.888 115.893 324.888 115.68V106.016L322.472 107.744C322.397 107.797 322.328 107.824 322.264 107.824C322.168 107.824 322.088 107.776 322.024 107.68L321.864 107.44C321.821 107.387 321.8 107.323 321.8 107.248C321.8 107.152 321.848 107.067 321.944 106.992L324.984 104.768ZM336.644 115.072C336.857 115.072 336.964 115.179 336.964 115.392V115.68C336.964 115.893 336.857 116 336.644 116H329.54C329.327 116 329.22 115.893 329.22 115.68V115.616C329.22 114.837 329.353 114.181 329.62 113.648C329.897 113.104 330.255 112.645 330.692 112.272C331.14 111.899 331.753 111.472 332.532 110.992C332.607 110.939 332.884 110.773 333.364 110.496C333.929 110.176 334.372 109.899 334.692 109.664C335.012 109.429 335.279 109.141 335.492 108.8C335.705 108.448 335.812 108.037 335.812 107.568C335.812 106.853 335.572 106.304 335.092 105.92C334.612 105.536 334.031 105.344 333.348 105.344C332.687 105.344 332.137 105.483 331.7 105.76C331.263 106.037 330.756 106.517 330.18 107.2C330.105 107.296 330.015 107.344 329.908 107.344C329.855 107.344 329.791 107.317 329.716 107.264L329.444 107.056C329.348 106.971 329.3 106.885 329.3 106.8C329.3 106.747 329.327 106.683 329.38 106.608C329.945 105.893 330.532 105.349 331.14 104.976C331.759 104.603 332.484 104.416 333.316 104.416C334.009 104.416 334.628 104.549 335.172 104.816C335.716 105.072 336.137 105.44 336.436 105.92C336.745 106.389 336.9 106.923 336.9 107.52C336.9 108.149 336.767 108.693 336.5 109.152C336.244 109.6 335.919 109.973 335.524 110.272C335.129 110.56 334.596 110.901 333.924 111.296L333.124 111.776C332.452 112.192 331.94 112.533 331.588 112.8C331.236 113.056 330.943 113.371 330.708 113.744C330.473 114.107 330.335 114.549 330.292 115.072H336.644Z" fill="#1B1B1F"/>
</g>
<path d="M129.136 104.96C129.136 104.747 129.243 104.64 129.456 104.64H129.92C130.133 104.64 130.24 104.747 130.24 104.96V115.68C130.24 115.893 130.133 116 129.92 116H129.2C129.029 116 128.896 115.931 128.8 115.792L125.36 110.576L125.168 110.272C123.888 108.352 122.971 106.939 122.416 106.032C122.459 107.28 122.48 108.72 122.48 110.352V115.68C122.48 115.893 122.373 116 122.16 116H121.696C121.483 116 121.376 115.893 121.376 115.68V104.96C121.376 104.747 121.483 104.64 121.696 104.64H122.416C122.587 104.64 122.72 104.709 122.816 104.848L126.24 110.048L126.848 110.992C127.925 112.624 128.709 113.84 129.2 114.64C129.157 113.371 129.136 111.925 129.136 110.304V104.96ZM137.689 108.368C137.753 108.197 137.876 108.112 138.057 108.112H138.489C138.575 108.112 138.644 108.133 138.697 108.176C138.751 108.219 138.777 108.277 138.777 108.352L138.745 108.48L135.657 117.2C135.487 117.68 135.321 118.053 135.161 118.32C135.001 118.587 134.783 118.789 134.505 118.928C134.239 119.067 133.887 119.136 133.449 119.136C133.172 119.136 132.927 119.115 132.713 119.072C132.607 119.061 132.532 119.019 132.489 118.944C132.457 118.869 132.452 118.784 132.473 118.688L132.521 118.48C132.564 118.288 132.687 118.203 132.889 118.224C133.081 118.256 133.247 118.272 133.385 118.272C133.727 118.272 133.993 118.176 134.185 117.984C134.388 117.792 134.58 117.429 134.761 116.896L134.905 116.448L132.089 108.48L132.057 108.352C132.057 108.277 132.084 108.219 132.137 108.176C132.191 108.133 132.26 108.112 132.345 108.112H132.809C132.98 108.112 133.097 108.197 133.161 108.368L134.057 111.008C134.143 111.275 134.356 111.909 134.697 112.912L135.417 115.072C135.769 114.08 136.233 112.715 136.809 110.976L137.689 108.368ZM144.148 107.936C144.82 107.936 145.417 108.112 145.94 108.464C146.473 108.805 146.884 109.291 147.172 109.92C147.47 110.539 147.62 111.253 147.62 112.064C147.62 112.875 147.47 113.595 147.172 114.224C146.873 114.843 146.457 115.328 145.924 115.68C145.401 116.021 144.809 116.192 144.148 116.192C142.878 116.192 141.95 115.701 141.364 114.72V115.68C141.364 115.893 141.257 116 141.044 116H140.692C140.478 116 140.372 115.893 140.372 115.68V104.944C140.372 104.731 140.478 104.624 140.692 104.624H141.108C141.321 104.624 141.428 104.731 141.428 104.944V109.36C142.014 108.411 142.921 107.936 144.148 107.936ZM144.068 115.296C144.804 115.296 145.396 114.997 145.844 114.4C146.302 113.803 146.532 113.024 146.532 112.064C146.532 111.104 146.302 110.325 145.844 109.728C145.396 109.131 144.804 108.832 144.068 108.832C143.278 108.832 142.633 109.12 142.132 109.696C141.63 110.272 141.38 111.061 141.38 112.064C141.38 113.077 141.625 113.872 142.116 114.448C142.617 115.013 143.268 115.296 144.068 115.296ZM152.441 108.048C152.707 108.048 153.022 108.091 153.385 108.176C153.577 108.24 153.651 108.373 153.609 108.576L153.545 108.832C153.491 109.035 153.358 109.109 153.145 109.056C152.889 108.992 152.654 108.96 152.441 108.96C151.897 108.96 151.443 109.195 151.081 109.664C150.729 110.133 150.553 110.784 150.553 111.616V115.68C150.553 115.893 150.446 116 150.233 116H149.817C149.603 116 149.497 115.893 149.497 115.68V108.432C149.497 108.219 149.603 108.112 149.817 108.112H150.169C150.382 108.112 150.489 108.219 150.489 108.432V109.312C150.67 108.917 150.926 108.608 151.257 108.384C151.598 108.16 151.993 108.048 152.441 108.048ZM160.163 108.432C160.163 108.219 160.27 108.112 160.483 108.112H160.899C161.113 108.112 161.219 108.219 161.219 108.432V115.68C161.219 115.893 161.113 116 160.899 116H160.563C160.35 116 160.243 115.893 160.243 115.68V114.96C160.009 115.376 159.673 115.691 159.235 115.904C158.809 116.107 158.339 116.208 157.827 116.208C156.867 116.208 156.158 115.968 155.699 115.488C155.241 114.997 155.011 114.368 155.011 113.6V108.432C155.011 108.219 155.118 108.112 155.331 108.112H155.747C155.961 108.112 156.067 108.219 156.067 108.432V113.376C156.067 114.005 156.222 114.485 156.531 114.816C156.851 115.136 157.305 115.296 157.891 115.296C158.553 115.296 159.097 115.093 159.523 114.688C159.95 114.283 160.163 113.707 160.163 112.96V108.432ZM169.286 116C169.126 116 168.998 115.931 168.902 115.792L166.198 111.856L164.646 113.44V115.68C164.646 115.893 164.54 116 164.326 116H163.91C163.697 116 163.59 115.893 163.59 115.68V104.96C163.59 104.747 163.697 104.64 163.91 104.64H164.326C164.54 104.64 164.646 104.747 164.646 104.96V112.24L168.486 108.256C168.582 108.149 168.716 108.096 168.886 108.096H169.334C169.42 108.096 169.484 108.117 169.526 108.16C169.58 108.192 169.606 108.235 169.606 108.288C169.606 108.341 169.574 108.411 169.51 108.496L166.934 111.184L169.958 115.616C170.001 115.691 170.022 115.755 170.022 115.808C170.022 115.936 169.937 116 169.766 116H169.286ZM175.142 115.12C175.174 115.109 175.217 115.104 175.27 115.104C175.334 115.104 175.393 115.125 175.446 115.168C175.5 115.211 175.532 115.269 175.542 115.344L175.59 115.568C175.601 115.589 175.606 115.627 175.606 115.68C175.606 115.829 175.526 115.92 175.366 115.952C174.982 116.069 174.572 116.128 174.134 116.128C173.441 116.128 172.945 115.973 172.646 115.664C172.358 115.344 172.214 114.885 172.214 114.288V108.912H171.03C170.817 108.912 170.71 108.805 170.71 108.592V108.432C170.71 108.219 170.817 108.112 171.03 108.112H172.214V105.68C172.214 105.467 172.321 105.36 172.534 105.36H172.95C173.164 105.36 173.27 105.467 173.27 105.68V108.112H175.19C175.404 108.112 175.51 108.219 175.51 108.432V108.592C175.51 108.805 175.404 108.912 175.19 108.912H173.27V114.16C173.27 114.555 173.345 114.832 173.494 114.992C173.644 115.152 173.9 115.232 174.262 115.232C174.518 115.232 174.812 115.195 175.142 115.12Z" fill="#0063FB"/>
<path d="M184.816 116C184.624 116 184.528 115.925 184.528 115.776C184.528 115.744 184.539 115.696 184.56 115.632L189.248 104.88C189.312 104.72 189.44 104.64 189.632 104.64H189.968C190.16 104.64 190.256 104.715 190.256 104.864C190.256 104.896 190.245 104.944 190.224 105.008L185.536 115.76C185.472 115.92 185.344 116 185.152 116H184.816Z" fill="#1B1B1F"/>
<path d="M209.304 104.896C209.368 104.725 209.491 104.64 209.672 104.64H210.92C211.133 104.64 211.24 104.747 211.24 104.96V115.68C211.24 115.893 211.133 116 210.92 116H210.456C210.243 116 210.136 115.893 210.136 115.68V110.368C210.136 109.227 210.147 107.579 210.168 105.424C209.731 106.672 209.133 108.32 208.376 110.368L206.408 115.744C206.344 115.915 206.221 116 206.04 116H205.576C205.395 116 205.272 115.915 205.208 115.744L203.192 110.352C202.765 109.243 202.173 107.6 201.416 105.424C201.437 107.579 201.448 109.232 201.448 110.384V115.68C201.448 115.893 201.341 116 201.128 116H200.696C200.483 116 200.376 115.893 200.376 115.68V104.96C200.376 104.747 200.483 104.64 200.696 104.64H201.928C202.109 104.64 202.232 104.725 202.296 104.896L204.12 109.808C204.963 112.101 205.528 113.717 205.816 114.656C206.083 113.76 206.541 112.421 207.192 110.64C207.235 110.523 207.283 110.395 207.336 110.256C207.389 110.117 207.443 109.968 207.496 109.808L209.304 104.896ZM217.057 116.208C216.321 116.208 215.665 116.032 215.089 115.68C214.513 115.328 214.065 114.843 213.745 114.224C213.425 113.595 213.265 112.875 213.265 112.064C213.265 111.253 213.425 110.539 213.745 109.92C214.065 109.291 214.513 108.8 215.089 108.448C215.665 108.096 216.321 107.92 217.057 107.92C217.793 107.92 218.449 108.096 219.025 108.448C219.601 108.8 220.049 109.291 220.369 109.92C220.689 110.539 220.849 111.253 220.849 112.064C220.849 112.875 220.689 113.595 220.369 114.224C220.049 114.843 219.601 115.328 219.025 115.68C218.449 116.032 217.793 116.208 217.057 116.208ZM217.057 115.328C217.879 115.328 218.535 115.029 219.025 114.432C219.516 113.824 219.761 113.035 219.761 112.064C219.761 111.093 219.516 110.309 219.025 109.712C218.535 109.104 217.879 108.8 217.057 108.8C216.236 108.8 215.58 109.104 215.089 109.712C214.599 110.309 214.353 111.093 214.353 112.064C214.353 113.035 214.599 113.824 215.089 114.432C215.58 115.029 216.236 115.328 217.057 115.328ZM226.46 107.936C227.132 107.936 227.729 108.112 228.252 108.464C228.785 108.805 229.196 109.291 229.484 109.92C229.783 110.539 229.932 111.253 229.932 112.064C229.932 112.875 229.783 113.595 229.484 114.224C229.185 114.843 228.769 115.328 228.236 115.68C227.713 116.021 227.121 116.192 226.46 116.192C225.191 116.192 224.263 115.701 223.676 114.72V115.68C223.676 115.893 223.569 116 223.356 116H223.004C222.791 116 222.684 115.893 222.684 115.68V104.944C222.684 104.731 222.791 104.624 223.004 104.624H223.42C223.633 104.624 223.74 104.731 223.74 104.944V109.36C224.327 108.411 225.233 107.936 226.46 107.936ZM226.38 115.296C227.116 115.296 227.708 114.997 228.156 114.4C228.615 113.803 228.844 113.024 228.844 112.064C228.844 111.104 228.615 110.325 228.156 109.728C227.708 109.131 227.116 108.832 226.38 108.832C225.591 108.832 224.945 109.12 224.444 109.696C223.943 110.272 223.692 111.061 223.692 112.064C223.692 113.077 223.937 113.872 224.428 114.448C224.929 115.013 225.58 115.296 226.38 115.296ZM232.337 106.112C232.124 106.112 231.942 106.037 231.793 105.888C231.654 105.739 231.585 105.557 231.585 105.344C231.585 105.131 231.654 104.955 231.793 104.816C231.942 104.677 232.124 104.608 232.337 104.608C232.561 104.608 232.742 104.677 232.881 104.816C233.03 104.955 233.105 105.131 233.105 105.344C233.105 105.557 233.03 105.739 232.881 105.888C232.742 106.037 232.561 106.112 232.337 106.112ZM232.129 116C231.916 116 231.809 115.893 231.809 115.68V108.432C231.809 108.219 231.916 108.112 232.129 108.112H232.545C232.758 108.112 232.865 108.219 232.865 108.432V115.68C232.865 115.893 232.758 116 232.545 116H232.129ZM235.551 116C235.338 116 235.231 115.893 235.231 115.68V104.96C235.231 104.747 235.338 104.64 235.551 104.64H235.967C236.181 104.64 236.287 104.747 236.287 104.96V115.68C236.287 115.893 236.181 116 235.967 116H235.551ZM244.412 114.128C244.487 114.053 244.567 114.016 244.652 114.016C244.727 114.016 244.796 114.048 244.86 114.112L245.068 114.304C245.143 114.379 245.18 114.459 245.18 114.544C245.18 114.608 245.148 114.683 245.084 114.768C244.562 115.291 244.055 115.664 243.564 115.888C243.074 116.101 242.524 116.208 241.916 116.208C241.148 116.208 240.482 116.037 239.916 115.696C239.351 115.355 238.914 114.88 238.604 114.272C238.295 113.653 238.14 112.939 238.14 112.128C238.14 111.307 238.29 110.581 238.588 109.952C238.898 109.312 239.33 108.816 239.884 108.464C240.439 108.101 241.079 107.92 241.804 107.92C242.882 107.92 243.73 108.256 244.348 108.928C244.967 109.6 245.276 110.507 245.276 111.648V111.84C245.266 111.936 245.228 112.011 245.164 112.064C245.111 112.117 245.036 112.144 244.94 112.144H239.212C239.244 113.04 239.479 113.797 239.916 114.416C240.364 115.024 241.031 115.328 241.916 115.328C242.396 115.328 242.818 115.243 243.18 115.072C243.554 114.891 243.964 114.576 244.412 114.128ZM241.804 108.8C241.1 108.8 240.519 109.019 240.06 109.456C239.612 109.883 239.34 110.512 239.244 111.344H244.22C244.199 110.565 243.975 109.947 243.548 109.488C243.122 109.029 242.54 108.8 241.804 108.8Z" fill="#0063FB"/>
<path d="M254.816 116C254.624 116 254.528 115.925 254.528 115.776C254.528 115.744 254.539 115.696 254.56 115.632L259.248 104.88C259.312 104.72 259.44 104.64 259.632 104.64H259.968C260.16 104.64 260.256 104.715 260.256 104.864C260.256 104.896 260.245 104.944 260.224 105.008L255.536 115.76C255.472 115.92 255.344 116 255.152 116H254.816Z" fill="#1B1B1F"/>
<path d="M270.712 106.112C270.499 106.112 270.317 106.037 270.168 105.888C270.029 105.739 269.96 105.557 269.96 105.344C269.96 105.131 270.029 104.955 270.168 104.816C270.317 104.677 270.499 104.608 270.712 104.608C270.936 104.608 271.117 104.677 271.256 104.816C271.405 104.955 271.48 105.131 271.48 105.344C271.48 105.557 271.405 105.739 271.256 105.888C271.117 106.037 270.936 106.112 270.712 106.112ZM270.504 116C270.291 116 270.184 115.893 270.184 115.68V108.432C270.184 108.219 270.291 108.112 270.504 108.112H270.92C271.133 108.112 271.24 108.219 271.24 108.432V115.68C271.24 115.893 271.133 116 270.92 116H270.504ZM274.102 116C273.889 116 273.782 115.893 273.782 115.68V104.96C273.782 104.747 273.889 104.64 274.102 104.64H278.406C279.505 104.64 280.39 104.928 281.062 105.504C281.734 106.08 282.07 106.896 282.07 107.952C282.07 109.008 281.734 109.829 281.062 110.416C280.39 110.992 279.505 111.28 278.406 111.28H274.918V115.68C274.918 115.893 274.812 116 274.598 116H274.102ZM278.262 110.336C279.094 110.336 279.75 110.133 280.23 109.728C280.71 109.323 280.95 108.731 280.95 107.952C280.95 107.184 280.71 106.597 280.23 106.192C279.75 105.787 279.094 105.584 278.262 105.584H274.918V110.336H278.262ZM287.298 107.92C288.215 107.92 288.914 108.181 289.394 108.704C289.874 109.216 290.114 109.851 290.114 110.608V115.68C290.114 115.893 290.007 116 289.794 116H289.378C289.164 116 289.058 115.893 289.058 115.68V110.96C289.058 110.256 288.887 109.723 288.546 109.36C288.204 108.997 287.714 108.816 287.074 108.816C286.668 108.816 286.295 108.917 285.954 109.12C285.612 109.312 285.34 109.579 285.138 109.92C284.935 110.261 284.834 110.635 284.834 111.04V115.68C284.834 115.893 284.727 116 284.514 116H284.098C283.884 116 283.778 115.893 283.778 115.68V104.96C283.778 104.747 283.884 104.64 284.098 104.64H284.514C284.727 104.64 284.834 104.747 284.834 104.96V109.136C285.09 108.731 285.431 108.427 285.858 108.224C286.295 108.021 286.775 107.92 287.298 107.92ZM295.714 116.208C294.978 116.208 294.322 116.032 293.746 115.68C293.17 115.328 292.722 114.843 292.402 114.224C292.082 113.595 291.922 112.875 291.922 112.064C291.922 111.253 292.082 110.539 292.402 109.92C292.722 109.291 293.17 108.8 293.746 108.448C294.322 108.096 294.978 107.92 295.714 107.92C296.45 107.92 297.106 108.096 297.682 108.448C298.258 108.8 298.706 109.291 299.026 109.92C299.346 110.539 299.506 111.253 299.506 112.064C299.506 112.875 299.346 113.595 299.026 114.224C298.706 114.843 298.258 115.328 297.682 115.68C297.106 116.032 296.45 116.208 295.714 116.208ZM295.714 115.328C296.535 115.328 297.191 115.029 297.682 114.432C298.172 113.824 298.418 113.035 298.418 112.064C298.418 111.093 298.172 110.309 297.682 109.712C297.191 109.104 296.535 108.8 295.714 108.8C294.892 108.8 294.236 109.104 293.746 109.712C293.255 110.309 293.01 111.093 293.01 112.064C293.01 113.035 293.255 113.824 293.746 114.432C294.236 115.029 294.892 115.328 295.714 115.328ZM304.86 107.92C305.788 107.92 306.487 108.176 306.956 108.688C307.436 109.2 307.676 109.84 307.676 110.608V115.68C307.676 115.893 307.57 116 307.356 116H306.94C306.727 116 306.62 115.893 306.62 115.68V110.96C306.62 110.256 306.45 109.723 306.108 109.36C305.767 108.997 305.276 108.816 304.636 108.816C304.231 108.816 303.858 108.917 303.516 109.12C303.175 109.312 302.903 109.579 302.7 109.92C302.498 110.261 302.396 110.635 302.396 111.04V115.68C302.396 115.893 302.29 116 302.076 116H301.66C301.447 116 301.34 115.893 301.34 115.68V108.432C301.34 108.219 301.447 108.112 301.66 108.112H302.012C302.226 108.112 302.332 108.219 302.332 108.432V109.2C302.599 108.773 302.951 108.453 303.388 108.24C303.826 108.027 304.316 107.92 304.86 107.92ZM315.756 114.128C315.831 114.053 315.911 114.016 315.996 114.016C316.071 114.016 316.14 114.048 316.204 114.112L316.412 114.304C316.487 114.379 316.524 114.459 316.524 114.544C316.524 114.608 316.492 114.683 316.428 114.768C315.905 115.291 315.399 115.664 314.908 115.888C314.417 116.101 313.868 116.208 313.26 116.208C312.492 116.208 311.825 116.037 311.26 115.696C310.695 115.355 310.257 114.88 309.948 114.272C309.639 113.653 309.484 112.939 309.484 112.128C309.484 111.307 309.633 110.581 309.932 109.952C310.241 109.312 310.673 108.816 311.228 108.464C311.783 108.101 312.423 107.92 313.148 107.92C314.225 107.92 315.073 108.256 315.692 108.928C316.311 109.6 316.62 110.507 316.62 111.648V111.84C316.609 111.936 316.572 112.011 316.508 112.064C316.455 112.117 316.38 112.144 316.284 112.144H310.556C310.588 113.04 310.823 113.797 311.26 114.416C311.708 115.024 312.375 115.328 313.26 115.328C313.74 115.328 314.161 115.243 314.524 115.072C314.897 114.891 315.308 114.576 315.756 114.128ZM313.148 108.8C312.444 108.8 311.863 109.019 311.404 109.456C310.956 109.883 310.684 110.512 310.588 111.344H315.564C315.543 110.565 315.319 109.947 314.892 109.488C314.465 109.029 313.884 108.8 313.148 108.8ZM324.984 104.768C325.101 104.683 325.234 104.64 325.384 104.64H325.64C325.853 104.64 325.96 104.747 325.96 104.96V115.68C325.96 115.893 325.853 116 325.64 116H325.208C324.994 116 324.888 115.893 324.888 115.68V106.016L322.472 107.744C322.397 107.797 322.328 107.824 322.264 107.824C322.168 107.824 322.088 107.776 322.024 107.68L321.864 107.44C321.821 107.387 321.8 107.323 321.8 107.248C321.8 107.152 321.848 107.067 321.944 106.992L324.984 104.768ZM336.644 115.072C336.857 115.072 336.964 115.179 336.964 115.392V115.68C336.964 115.893 336.857 116 336.644 116H329.54C329.327 116 329.22 115.893 329.22 115.68V115.616C329.22 114.837 329.353 114.181 329.62 113.648C329.897 113.104 330.255 112.645 330.692 112.272C331.14 111.899 331.753 111.472 332.532 110.992C332.607 110.939 332.884 110.773 333.364 110.496C333.929 110.176 334.372 109.899 334.692 109.664C335.012 109.429 335.279 109.141 335.492 108.8C335.705 108.448 335.812 108.037 335.812 107.568C335.812 106.853 335.572 106.304 335.092 105.92C334.612 105.536 334.031 105.344 333.348 105.344C332.687 105.344 332.137 105.483 331.7 105.76C331.263 106.037 330.756 106.517 330.18 107.2C330.105 107.296 330.015 107.344 329.908 107.344C329.855 107.344 329.791 107.317 329.716 107.264L329.444 107.056C329.348 106.971 329.3 106.885 329.3 106.8C329.3 106.747 329.327 106.683 329.38 106.608C329.945 105.893 330.532 105.349 331.14 104.976C331.759 104.603 332.484 104.416 333.316 104.416C334.009 104.416 334.628 104.549 335.172 104.816C335.716 105.072 336.137 105.44 336.436 105.92C336.745 106.389 336.9 106.923 336.9 107.52C336.9 108.149 336.767 108.693 336.5 109.152C336.244 109.6 335.919 109.973 335.524 110.272C335.129 110.56 334.596 110.901 333.924 111.296L333.124 111.776C332.452 112.192 331.94 112.533 331.588 112.8C331.236 113.056 330.943 113.371 330.708 113.744C330.473 114.107 330.335 114.549 330.292 115.072H336.644Z" fill="#1B1B1F"/>
<rect x="119.5" y="99.5" width="219" height="23" stroke="#0D69D4"/>
<g clip-path="url(#clip0_4095_732)">
<path d="M64.2929 51.2929C63.9024 51.6834 63.9024 52.3166 64.2929 52.7071L70.6569 59.0711C71.0474 59.4616 71.6805 59.4616 72.0711 59.0711C72.4616 58.6805 72.4616 58.0474 72.0711 57.6569L66.4142 52L72.0711 46.3431C72.4616 45.9526 72.4616 45.3195 72.0711 44.9289C71.6805 44.5384 71.0474 44.5384 70.6569 44.9289L64.2929 51.2929ZM95.7071 52.7071C96.0976 52.3166 96.0976 51.6834 95.7071 51.2929L89.3431 44.9289C88.9526 44.5384 88.3195 44.5384 87.9289 44.9289C87.5384 45.3195 87.5384 45.9526 87.9289 46.3431L93.5858 52L87.9289 57.6569C87.5384 58.0474 87.5384 58.6805 87.9289 59.0711C88.3195 59.4616 88.9526 59.4616 89.3431 59.0711L95.7071 52.7071ZM65 52V53H95V52V51H65V52Z" fill="#6B6B6B"/>
</g>
<path fill-rule="evenodd" clip-rule="evenodd" d="M64.0001 44L64 45L64.0001 48.9915L64 49.024V50.024V54.0185V55.0185V55.0225L64.0001 59.014L64 60.014H65.0001H68.9891H69.9891H74.0113H75.0113H79H80V59.014V55.0185V54.0185V50.024V49.024V45V44H79H75.0113H74.0113H69.9891H68.9891H65.0001H64.0001ZM65.0001 45V48.9915H68.9891V45H65.0001ZM65.0001 55.0225V59.014H68.9891V55.0225H65.0001ZM79 55.0185V59.014H75.0113V55.0185H79ZM79 50.024V54.0185H75.0113V50.024H79ZM79 45V49.024H75.0113V45H79ZM74.0113 45H69.9891V48.9915V49.024H74.0113V45ZM74.0113 50.024H69.9891V54.0185H74.0113V50.024ZM74.0113 55.0185H69.9891V55.0225V59.014H74.0113V55.0185Z" fill="#6B6B6B"/>
<g clip-path="url(#clip1_4095_732)">
<g clip-path="url(#clip2_4095_732)">
<path d="M73.2803 90.2197C72.9874 89.9268 72.5126 89.9268 72.2197 90.2197L67.4467 94.9926C67.1538 95.2855 67.1538 95.7604 67.4467 96.0533C67.7396 96.3462 68.2145 96.3462 68.5074 96.0533L72.75 91.8107L76.9926 96.0533C77.2855 96.3462 77.7604 96.3462 78.0533 96.0533C78.3462 95.7604 78.3462 95.2855 78.0533 94.9926L73.2803 90.2197ZM72.2197 110.28C72.5126 110.573 72.9874 110.573 73.2803 110.28L78.0533 105.507C78.3462 105.214 78.3462 104.74 78.0533 104.447C77.7604 104.154 77.2855 104.154 76.9926 104.447L72.75 108.689L68.5074 104.447C68.2145 104.154 67.7396 104.154 67.4467 104.447C67.1538 104.74 67.1538 105.214 67.4467 105.507L72.2197 110.28ZM72.75 90.75H72V109.75H72.75H73.5V90.75H72.75Z" fill="#0D69D4"/>
<path d="M73.2803 111.72C72.9874 111.427 72.5126 111.427 72.2197 111.72L67.4467 116.493C67.1538 116.786 67.1538 117.26 67.4467 117.553C67.7396 117.846 68.2145 117.846 68.5074 117.553L72.75 113.311L76.9926 117.553C77.2855 117.846 77.7604 117.846 78.0533 117.553C78.3462 117.26 78.3462 116.786 78.0533 116.493L73.2803 111.72ZM72.2197 131.78C72.5126 132.073 72.9874 132.073 73.2803 131.78L78.0533 127.007C78.3462 126.714 78.3462 126.24 78.0533 125.947C77.7604 125.654 77.2855 125.654 76.9926 125.947L72.75 130.189L68.5074 125.947C68.2145 125.654 67.7396 125.654 67.4467 125.947C67.1538 126.24 67.1538 126.714 67.4467 127.007L72.2197 131.78ZM72.75 112.25H72V131.25H72.75H73.5V112.25H72.75Z" fill="#0D69D4"/>
</g>
</g>
<g clip-path="url(#clip3_4095_732)">
<path d="M110.22 50.7197C109.927 51.0126 109.927 51.4874 110.22 51.7803L114.993 56.5533C115.286 56.8462 115.76 56.8462 116.053 56.5533C116.346 56.2604 116.346 55.7855 116.053 55.4926L111.811 51.25L116.053 47.0074C116.346 46.7145 116.346 46.2396 116.053 45.9467C115.76 45.6538 115.286 45.6538 114.993 45.9467L110.22 50.7197ZM228.28 51.7803C228.573 51.4874 228.573 51.0126 228.28 50.7197L223.507 45.9467C223.214 45.6538 222.74 45.6538 222.447 45.9467C222.154 46.2396 222.154 46.7145 222.447 47.0074L226.689 51.25L222.447 55.4926C222.154 55.7855 222.154 56.2604 222.447 56.5533C222.74 56.8462 223.214 56.8462 223.507 56.5533L228.28 51.7803ZM110.75 51.25V52H227.75V51.25V50.5H110.75V51.25Z" fill="#0D69D4"/>
<path d="M229.72 50.7197C229.427 51.0126 229.427 51.4874 229.72 51.7803L234.493 56.5533C234.786 56.8462 235.26 56.8462 235.553 56.5533C235.846 56.2604 235.846 55.7855 235.553 55.4926L231.311 51.25L235.553 47.0074C235.846 46.7145 235.846 46.2396 235.553 45.9467C235.26 45.6538 234.786 45.6538 234.493 45.9467L229.72 50.7197ZM347.78 51.7803C348.073 51.4874 348.073 51.0126 347.78 50.7197L343.007 45.9467C342.714 45.6538 342.24 45.6538 341.947 45.9467C341.654 46.2396 341.654 46.7145 341.947 47.0074L346.189 51.25L341.947 55.4926C341.654 55.7855 341.654 56.2604 341.947 56.5533C342.24 56.8462 342.714 56.8462 343.007 56.5533L347.78 51.7803ZM230.25 51.25V52H347.25V51.25V50.5H230.25V51.25Z" fill="#0D69D4"/>
</g>
<rect x="176" y="100" width="8" height="22" fill="#C54600" fill-opacity="0.3"/>
<line x1="176.5" y1="84" x2="176.5" y2="122" stroke="#C54600"/>
<line x1="183.5" y1="84" x2="183.5" y2="122" stroke="#C54600"/>
<rect x="173.5" y="66" width="13" height="14" rx="4" fill="#C54600"/>
<path d="M179.891 77.1094C179.354 77.1094 178.88 77.0143 178.469 76.8242C178.06 76.6315 177.741 76.3672 177.512 76.0312C177.283 75.6927 177.169 75.3073 177.172 74.875C177.169 74.5365 177.236 74.224 177.371 73.9375C177.507 73.6484 177.691 73.4076 177.926 73.2148C178.163 73.0195 178.427 72.8958 178.719 72.8438V72.7969C178.336 72.6979 178.031 72.4831 177.805 72.1523C177.578 71.819 177.466 71.4401 177.469 71.0156C177.466 70.6094 177.569 70.2461 177.777 69.9258C177.986 69.6055 178.272 69.3529 178.637 69.168C179.004 68.9831 179.422 68.8906 179.891 68.8906C180.354 68.8906 180.768 68.9831 181.133 69.168C181.497 69.3529 181.784 69.6055 181.992 69.9258C182.203 70.2461 182.31 70.6094 182.313 71.0156C182.31 71.4401 182.194 71.819 181.965 72.1523C181.738 72.4831 181.438 72.6979 181.063 72.7969V72.8438C181.352 72.8958 181.612 73.0195 181.844 73.2148C182.076 73.4076 182.26 73.6484 182.398 73.9375C182.536 74.224 182.607 74.5365 182.609 74.875C182.607 75.3073 182.49 75.6927 182.258 76.0312C182.029 76.3672 181.71 76.6315 181.301 76.8242C180.895 77.0143 180.424 77.1094 179.891 77.1094ZM179.891 76.25C180.253 76.25 180.565 76.1914 180.828 76.0742C181.091 75.957 181.294 75.7917 181.438 75.5781C181.581 75.3646 181.654 75.1146 181.656 74.8281C181.654 74.526 181.576 74.2591 181.422 74.0273C181.268 73.7956 181.059 73.6133 180.793 73.4805C180.53 73.3477 180.229 73.2812 179.891 73.2812C179.549 73.2812 179.245 73.3477 178.977 73.4805C178.711 73.6133 178.501 73.7956 178.348 74.0273C178.197 74.2591 178.122 74.526 178.125 74.8281C178.122 75.1146 178.191 75.3646 178.332 75.5781C178.475 75.7917 178.68 75.957 178.945 76.0742C179.211 76.1914 179.526 76.25 179.891 76.25ZM179.891 72.4531C180.177 72.4531 180.431 72.3958 180.652 72.2812C180.876 72.1667 181.052 72.0065 181.18 71.8008C181.307 71.5951 181.372 71.3542 181.375 71.0781C181.372 70.8073 181.309 70.5716 181.184 70.3711C181.059 70.168 180.885 70.0117 180.664 69.9023C180.443 69.7904 180.185 69.7344 179.891 69.7344C179.591 69.7344 179.329 69.7904 179.105 69.9023C178.882 70.0117 178.708 70.168 178.586 70.3711C178.464 70.5716 178.404 70.8073 178.406 71.0781C178.404 71.3542 178.465 71.5951 178.59 71.8008C178.717 72.0065 178.893 72.1667 179.117 72.2812C179.341 72.3958 179.599 72.4531 179.891 72.4531Z" fill="white"/>
<g clip-path="url(#clip4_4095_732)">
<path d="M110.146 91.1464C109.951 91.3417 109.951 91.6583 110.146 91.8536L113.328 95.0355C113.524 95.2308 113.84 95.2308 114.036 95.0355C114.231 94.8403 114.231 94.5237 114.036 94.3284L111.207 91.5L114.036 88.6716C114.231 88.4763 114.231 88.1597 114.036 87.9645C113.84 87.7692 113.524 87.7692 113.328 87.9645L110.146 91.1464ZM147.354 91.8536C147.549 91.6583 147.549 91.3417 147.354 91.1464L144.172 87.9645C143.976 87.7692 143.66 87.7692 143.464 87.9645C143.269 88.1597 143.269 88.4763 143.464 88.6716L146.293 91.5L143.464 94.3284C143.269 94.5237 143.269 94.8403 143.464 95.0355C143.66 95.2308 143.976 95.2308 144.172 95.0355L147.354 91.8536ZM110.5 91.5V92H147V91.5V91H110.5V91.5Z" fill="#0D69D4"/>
<path d="M148.646 91.1464C148.451 91.3417 148.451 91.6583 148.646 91.8536L151.828 95.0355C152.024 95.2308 152.34 95.2308 152.536 95.0355C152.731 94.8403 152.731 94.5237 152.536 94.3284L149.707 91.5L152.536 88.6716C152.731 88.4763 152.731 88.1597 152.536 87.9645C152.34 87.7692 152.024 87.7692 151.828 87.9645L148.646 91.1464ZM185.854 91.8536C186.049 91.6583 186.049 91.3417 185.854 91.1464L182.672 87.9645C182.476 87.7692 182.16 87.7692 181.964 87.9645C181.769 88.1597 181.769 88.4763 181.964 88.6716L184.793 91.5L181.964 94.3284C181.769 94.5237 181.769 94.8403 181.964 95.0355C182.16 95.2308 182.476 95.2308 182.672 95.0355L185.854 91.8536ZM149 91.5V92H185.5V91.5V91H149V91.5Z" fill="#0D69D4"/>
</g>
<rect x="120" y="100" width="56" height="22" fill="#0D69D4" fill-opacity="0.2"/>
<rect x="191" y="100" width="8" height="22" fill="#C54600" fill-opacity="0.3"/>
<line x1="191.5" y1="84" x2="191.5" y2="122" stroke="#C54600"/>
<line x1="198.5" y1="84" x2="198.5" y2="122" stroke="#C54600"/>
<rect x="188.5" y="66" width="13" height="14" rx="4" fill="#C54600"/>
<path d="M194.891 77.1094C194.354 77.1094 193.88 77.0143 193.469 76.8242C193.06 76.6315 192.741 76.3672 192.512 76.0312C192.283 75.6927 192.169 75.3073 192.172 74.875C192.169 74.5365 192.236 74.224 192.371 73.9375C192.507 73.6484 192.691 73.4076 192.926 73.2148C193.163 73.0195 193.427 72.8958 193.719 72.8438V72.7969C193.336 72.6979 193.031 72.4831 192.805 72.1523C192.578 71.819 192.466 71.4401 192.469 71.0156C192.466 70.6094 192.569 70.2461 192.777 69.9258C192.986 69.6055 193.272 69.3529 193.637 69.168C194.004 68.9831 194.422 68.8906 194.891 68.8906C195.354 68.8906 195.768 68.9831 196.133 69.168C196.497 69.3529 196.784 69.6055 196.992 69.9258C197.203 70.2461 197.31 70.6094 197.313 71.0156C197.31 71.4401 197.194 71.819 196.965 72.1523C196.738 72.4831 196.438 72.6979 196.063 72.7969V72.8438C196.352 72.8958 196.612 73.0195 196.844 73.2148C197.076 73.4076 197.26 73.6484 197.398 73.9375C197.536 74.224 197.607 74.5365 197.609 74.875C197.607 75.3073 197.49 75.6927 197.258 76.0312C197.029 76.3672 196.71 76.6315 196.301 76.8242C195.895 77.0143 195.424 77.1094 194.891 77.1094ZM194.891 76.25C195.253 76.25 195.565 76.1914 195.828 76.0742C196.091 75.957 196.294 75.7917 196.438 75.5781C196.581 75.3646 196.654 75.1146 196.656 74.8281C196.654 74.526 196.576 74.2591 196.422 74.0273C196.268 73.7956 196.059 73.6133 195.793 73.4805C195.53 73.3477 195.229 73.2812 194.891 73.2812C194.549 73.2812 194.245 73.3477 193.977 73.4805C193.711 73.6133 193.501 73.7956 193.348 74.0273C193.197 74.2591 193.122 74.526 193.125 74.8281C193.122 75.1146 193.191 75.3646 193.332 75.5781C193.475 75.7917 193.68 75.957 193.945 76.0742C194.211 76.1914 194.526 76.25 194.891 76.25ZM194.891 72.4531C195.177 72.4531 195.431 72.3958 195.652 72.2812C195.876 72.1667 196.052 72.0065 196.18 71.8008C196.307 71.5951 196.372 71.3542 196.375 71.0781C196.372 70.8073 196.309 70.5716 196.184 70.3711C196.059 70.168 195.885 70.0117 195.664 69.9023C195.443 69.7904 195.185 69.7344 194.891 69.7344C194.591 69.7344 194.329 69.7904 194.105 69.9023C193.882 70.0117 193.708 70.168 193.586 70.3711C193.464 70.5716 193.404 70.8073 193.406 71.0781C193.404 71.3542 193.465 71.5951 193.59 71.8008C193.717 72.0065 193.893 72.1667 194.117 72.2812C194.341 72.3958 194.599 72.4531 194.891 72.4531Z" fill="white"/>
<g clip-path="url(#clip5_4095_732)">
<path d="M174.146 91.1464C173.951 91.3417 173.951 91.6583 174.146 91.8536L177.328 95.0355C177.524 95.2308 177.84 95.2308 178.036 95.0355C178.231 94.8403 178.231 94.5237 178.036 94.3284L175.207 91.5L178.036 88.6716C178.231 88.4763 178.231 88.1597 178.036 87.9645C177.84 87.7692 177.524 87.7692 177.328 87.9645L174.146 91.1464ZM186.854 91.8536C187.049 91.6583 187.049 91.3417 186.854 91.1464L183.672 87.9645C183.476 87.7692 183.16 87.7692 182.964 87.9645C182.769 88.1597 182.769 88.4763 182.964 88.6716L185.793 91.5L182.964 94.3284C182.769 94.5237 182.769 94.8403 182.964 95.0355C183.16 95.2308 183.476 95.2308 183.672 95.0355L186.854 91.8536ZM174.5 91.5V92H186.5V91.5V91H174.5V91.5Z" fill="#0D69D4"/>
<path d="M188.146 91.1464C187.951 91.3417 187.951 91.6583 188.146 91.8536L191.328 95.0355C191.524 95.2308 191.84 95.2308 192.036 95.0355C192.231 94.8403 192.231 94.5237 192.036 94.3284L189.207 91.5L192.036 88.6716C192.231 88.4763 192.231 88.1597 192.036 87.9645C191.84 87.7692 191.524 87.7692 191.328 87.9645L188.146 91.1464ZM200.854 91.8536C201.049 91.6583 201.049 91.3417 200.854 91.1464L197.672 87.9645C197.476 87.7692 197.16 87.7692 196.964 87.9645C196.769 88.1597 196.769 88.4763 196.964 88.6716L199.793 91.5L196.964 94.3284C196.769 94.5237 196.769 94.8403 196.964 95.0355C197.16 95.2308 197.476 95.2308 197.672 95.0355L200.854 91.8536ZM188.5 91.5V92H200.5V91.5V91H188.5V91.5Z" fill="#0D69D4"/>
</g>
<rect x="184" y="100" width="7" height="22" fill="#0D69D4" fill-opacity="0.2"/>
<rect x="246" y="100" width="8" height="22" fill="#C54600" fill-opacity="0.3"/>
<line x1="246.5" y1="84" x2="246.5" y2="122" stroke="#C54600"/>
<line x1="253.5" y1="84" x2="253.5" y2="122" stroke="#C54600"/>
<rect x="243.5" y="66" width="13" height="14" rx="4" fill="#C54600"/>
<path d="M249.891 77.1094C249.354 77.1094 248.88 77.0143 248.469 76.8242C248.06 76.6315 247.741 76.3672 247.512 76.0312C247.283 75.6927 247.169 75.3073 247.172 74.875C247.169 74.5365 247.236 74.224 247.371 73.9375C247.507 73.6484 247.691 73.4076 247.926 73.2148C248.163 73.0195 248.427 72.8958 248.719 72.8438V72.7969C248.336 72.6979 248.031 72.4831 247.805 72.1523C247.578 71.819 247.466 71.4401 247.469 71.0156C247.466 70.6094 247.569 70.2461 247.777 69.9258C247.986 69.6055 248.272 69.3529 248.637 69.168C249.004 68.9831 249.422 68.8906 249.891 68.8906C250.354 68.8906 250.768 68.9831 251.133 69.168C251.497 69.3529 251.784 69.6055 251.992 69.9258C252.203 70.2461 252.31 70.6094 252.313 71.0156C252.31 71.4401 252.194 71.819 251.965 72.1523C251.738 72.4831 251.438 72.6979 251.063 72.7969V72.8438C251.352 72.8958 251.612 73.0195 251.844 73.2148C252.076 73.4076 252.26 73.6484 252.398 73.9375C252.536 74.224 252.607 74.5365 252.609 74.875C252.607 75.3073 252.49 75.6927 252.258 76.0312C252.029 76.3672 251.71 76.6315 251.301 76.8242C250.895 77.0143 250.424 77.1094 249.891 77.1094ZM249.891 76.25C250.253 76.25 250.565 76.1914 250.828 76.0742C251.091 75.957 251.294 75.7917 251.438 75.5781C251.581 75.3646 251.654 75.1146 251.656 74.8281C251.654 74.526 251.576 74.2591 251.422 74.0273C251.268 73.7956 251.059 73.6133 250.793 73.4805C250.53 73.3477 250.229 73.2812 249.891 73.2812C249.549 73.2812 249.245 73.3477 248.977 73.4805C248.711 73.6133 248.501 73.7956 248.348 74.0273C248.197 74.2591 248.122 74.526 248.125 74.8281C248.122 75.1146 248.191 75.3646 248.332 75.5781C248.475 75.7917 248.68 75.957 248.945 76.0742C249.211 76.1914 249.526 76.25 249.891 76.25ZM249.891 72.4531C250.177 72.4531 250.431 72.3958 250.652 72.2812C250.876 72.1667 251.052 72.0065 251.18 71.8008C251.307 71.5951 251.372 71.3542 251.375 71.0781C251.372 70.8073 251.309 70.5716 251.184 70.3711C251.059 70.168 250.885 70.0117 250.664 69.9023C250.443 69.7904 250.185 69.7344 249.891 69.7344C249.591 69.7344 249.329 69.7904 249.105 69.9023C248.882 70.0117 248.708 70.168 248.586 70.3711C248.464 70.5716 248.404 70.8073 248.406 71.0781C248.404 71.3542 248.465 71.5951 248.59 71.8008C248.717 72.0065 248.893 72.1667 249.117 72.2812C249.341 72.3958 249.599 72.4531 249.891 72.4531Z" fill="white"/>
<g clip-path="url(#clip6_4095_732)">
<path d="M189.146 91.1464C188.951 91.3417 188.951 91.6583 189.146 91.8536L192.328 95.0355C192.524 95.2308 192.84 95.2308 193.036 95.0355C193.231 94.8403 193.231 94.5237 193.036 94.3284L190.207 91.5L193.036 88.6716C193.231 88.4763 193.231 88.1597 193.036 87.9645C192.84 87.7692 192.524 87.7692 192.328 87.9645L189.146 91.1464ZM221.854 91.8536C222.049 91.6583 222.049 91.3417 221.854 91.1464L218.672 87.9645C218.476 87.7692 218.16 87.7692 217.964 87.9645C217.769 88.1597 217.769 88.4763 217.964 88.6716L220.793 91.5L217.964 94.3284C217.769 94.5237 217.769 94.8403 217.964 95.0355C218.16 95.2308 218.476 95.2308 218.672 95.0355L221.854 91.8536ZM189.5 91.5V92H221.5V91.5V91H189.5V91.5Z" fill="#0D69D4"/>
<path d="M223.146 91.1464C222.951 91.3417 222.951 91.6583 223.146 91.8536L226.328 95.0355C226.524 95.2308 226.84 95.2308 227.036 95.0355C227.231 94.8403 227.231 94.5237 227.036 94.3284L224.207 91.5L227.036 88.6716C227.231 88.4763 227.231 88.1597 227.036 87.9645C226.84 87.7692 226.524 87.7692 226.328 87.9645L223.146 91.1464ZM255.854 91.8536C256.049 91.6583 256.049 91.3417 255.854 91.1464L252.672 87.9645C252.476 87.7692 252.16 87.7692 251.964 87.9645C251.769 88.1597 251.769 88.4763 251.964 88.6716L254.793 91.5L251.964 94.3284C251.769 94.5237 251.769 94.8403 251.964 95.0355C252.16 95.2308 252.476 95.2308 252.672 95.0355L255.854 91.8536ZM223.5 91.5V92H255.5V91.5V91H223.5V91.5Z" fill="#0D69D4"/>
</g>
<rect x="199" y="100" width="47" height="22" fill="#0D69D4" fill-opacity="0.2"/>
<rect x="261" y="100" width="8" height="22" fill="#C54600" fill-opacity="0.3"/>
<line x1="261.5" y1="84" x2="261.5" y2="122" stroke="#C54600"/>
<line x1="268.5" y1="84" x2="268.5" y2="122" stroke="#C54600"/>
<rect x="258.5" y="66" width="13" height="14" rx="4" fill="#C54600"/>
<path d="M264.891 77.1094C264.354 77.1094 263.88 77.0143 263.469 76.8242C263.06 76.6315 262.741 76.3672 262.512 76.0312C262.283 75.6927 262.169 75.3073 262.172 74.875C262.169 74.5365 262.236 74.224 262.371 73.9375C262.507 73.6484 262.691 73.4076 262.926 73.2148C263.163 73.0195 263.427 72.8958 263.719 72.8438V72.7969C263.336 72.6979 263.031 72.4831 262.805 72.1523C262.578 71.819 262.466 71.4401 262.469 71.0156C262.466 70.6094 262.569 70.2461 262.777 69.9258C262.986 69.6055 263.272 69.3529 263.637 69.168C264.004 68.9831 264.422 68.8906 264.891 68.8906C265.354 68.8906 265.768 68.9831 266.133 69.168C266.497 69.3529 266.784 69.6055 266.992 69.9258C267.203 70.2461 267.31 70.6094 267.313 71.0156C267.31 71.4401 267.194 71.819 266.965 72.1523C266.738 72.4831 266.438 72.6979 266.063 72.7969V72.8438C266.352 72.8958 266.612 73.0195 266.844 73.2148C267.076 73.4076 267.26 73.6484 267.398 73.9375C267.536 74.224 267.607 74.5365 267.609 74.875C267.607 75.3073 267.49 75.6927 267.258 76.0312C267.029 76.3672 266.71 76.6315 266.301 76.8242C265.895 77.0143 265.424 77.1094 264.891 77.1094ZM264.891 76.25C265.253 76.25 265.565 76.1914 265.828 76.0742C266.091 75.957 266.294 75.7917 266.438 75.5781C266.581 75.3646 266.654 75.1146 266.656 74.8281C266.654 74.526 266.576 74.2591 266.422 74.0273C266.268 73.7956 266.059 73.6133 265.793 73.4805C265.53 73.3477 265.229 73.2812 264.891 73.2812C264.549 73.2812 264.245 73.3477 263.977 73.4805C263.711 73.6133 263.501 73.7956 263.348 74.0273C263.197 74.2591 263.122 74.526 263.125 74.8281C263.122 75.1146 263.191 75.3646 263.332 75.5781C263.475 75.7917 263.68 75.957 263.945 76.0742C264.211 76.1914 264.526 76.25 264.891 76.25ZM264.891 72.4531C265.177 72.4531 265.431 72.3958 265.652 72.2812C265.876 72.1667 266.052 72.0065 266.18 71.8008C266.307 71.5951 266.372 71.3542 266.375 71.0781C266.372 70.8073 266.309 70.5716 266.184 70.3711C266.059 70.168 265.885 70.0117 265.664 69.9023C265.443 69.7904 265.185 69.7344 264.891 69.7344C264.591 69.7344 264.329 69.7904 264.105 69.9023C263.882 70.0117 263.708 70.168 263.586 70.3711C263.464 70.5716 263.404 70.8073 263.406 71.0781C263.404 71.3542 263.465 71.5951 263.59 71.8008C263.717 72.0065 263.893 72.1667 264.117 72.2812C264.341 72.3958 264.599 72.4531 264.891 72.4531Z" fill="white"/>
<g clip-path="url(#clip7_4095_732)">
<path d="M244.146 91.1464C243.951 91.3417 243.951 91.6583 244.146 91.8536L247.328 95.0355C247.524 95.2308 247.84 95.2308 248.036 95.0355C248.231 94.8403 248.231 94.5237 248.036 94.3284L245.207 91.5L248.036 88.6716C248.231 88.4763 248.231 88.1597 248.036 87.9645C247.84 87.7692 247.524 87.7692 247.328 87.9645L244.146 91.1464ZM256.854 91.8536C257.049 91.6583 257.049 91.3417 256.854 91.1464L253.672 87.9645C253.476 87.7692 253.16 87.7692 252.964 87.9645C252.769 88.1597 252.769 88.4763 252.964 88.6716L255.793 91.5L252.964 94.3284C252.769 94.5237 252.769 94.8403 252.964 95.0355C253.16 95.2308 253.476 95.2308 253.672 95.0355L256.854 91.8536ZM244.5 91.5V92H256.5V91.5V91H244.5V91.5Z" fill="#0D69D4"/>
<path d="M258.146 91.1464C257.951 91.3417 257.951 91.6583 258.146 91.8536L261.328 95.0355C261.524 95.2308 261.84 95.2308 262.036 95.0355C262.231 94.8403 262.231 94.5237 262.036 94.3284L259.207 91.5L262.036 88.6716C262.231 88.4763 262.231 88.1597 262.036 87.9645C261.84 87.7692 261.524 87.7692 261.328 87.9645L258.146 91.1464ZM270.854 91.8536C271.049 91.6583 271.049 91.3417 270.854 91.1464L267.672 87.9645C267.476 87.7692 267.16 87.7692 266.964 87.9645C266.769 88.1597 266.769 88.4763 266.964 88.6716L269.793 91.5L266.964 94.3284C266.769 94.5237 266.769 94.8403 266.964 95.0355C267.16 95.2308 267.476 95.2308 267.672 95.0355L270.854 91.8536ZM258.5 91.5V92H270.5V91.5V91H258.5V91.5Z" fill="#0D69D4"/>
</g>
<rect x="254" y="100" width="7" height="22" fill="#0D69D4" fill-opacity="0.2"/>
<g clip-path="url(#clip8_4095_732)">
<path d="M259.146 91.1464C258.951 91.3417 258.951 91.6583 259.146 91.8536L262.328 95.0355C262.524 95.2308 262.84 95.2308 263.036 95.0355C263.231 94.8403 263.231 94.5237 263.036 94.3284L260.207 91.5L263.036 88.6716C263.231 88.4763 263.231 88.1597 263.036 87.9645C262.84 87.7692 262.524 87.7692 262.328 87.9645L259.146 91.1464ZM302.854 91.8536C303.049 91.6583 303.049 91.3417 302.854 91.1464L299.672 87.9645C299.476 87.7692 299.16 87.7692 298.964 87.9645C298.769 88.1597 298.769 88.4763 298.964 88.6716L301.793 91.5L298.964 94.3284C298.769 94.5237 298.769 94.8403 298.964 95.0355C299.16 95.2308 299.476 95.2308 299.672 95.0355L302.854 91.8536ZM259.5 91.5V92H302.5V91.5V91H259.5V91.5Z" fill="#0D69D4"/>
<path d="M304.146 91.1464C303.951 91.3417 303.951 91.6583 304.146 91.8536L307.328 95.0355C307.524 95.2308 307.84 95.2308 308.036 95.0355C308.231 94.8403 308.231 94.5237 308.036 94.3284L305.207 91.5L308.036 88.6716C308.231 88.4763 308.231 88.1597 308.036 87.9645C307.84 87.7692 307.524 87.7692 307.328 87.9645L304.146 91.1464ZM347.854 91.8536C348.049 91.6583 348.049 91.3417 347.854 91.1464L344.672 87.9645C344.476 87.7692 344.16 87.7692 343.964 87.9645C343.769 88.1597 343.769 88.4763 343.964 88.6716L346.793 91.5L343.964 94.3284C343.769 94.5237 343.769 94.8403 343.964 95.0355C344.16 95.2308 344.476 95.2308 344.672 95.0355L347.854 91.8536ZM304.5 91.5V92H347.5V91.5V91H304.5V91.5Z" fill="#0D69D4"/>
</g>
<rect x="269" y="100" width="69" height="22" fill="#0D69D4" fill-opacity="0.2"/>
<defs>
<clipPath id="clip0_4095_732">
<rect width="16" height="16" fill="white" transform="translate(80 44)"/>
</clipPath>
<clipPath id="clip1_4095_732">
<rect width="22" height="16" fill="white" transform="matrix(0 1 -1 0 80 100)"/>
</clipPath>
<clipPath id="clip2_4095_732">
<rect width="42" height="16" fill="white" transform="matrix(0 1 -1 0 80 90)"/>
</clipPath>
<clipPath id="clip3_4095_732">
<rect width="218" height="16" fill="white" transform="translate(120 44)"/>
</clipPath>
<clipPath id="clip4_4095_732">
<rect width="56" height="16" fill="white" transform="translate(120 84)"/>
</clipPath>
<clipPath id="clip5_4095_732">
<rect width="7" height="16" fill="white" transform="translate(184 84)"/>
</clipPath>
<clipPath id="clip6_4095_732">
<rect width="47" height="16" fill="white" transform="translate(199 84)"/>
</clipPath>
<clipPath id="clip7_4095_732">
<rect width="7" height="16" fill="white" transform="translate(254 84)"/>
</clipPath>
<clipPath id="clip8_4095_732">
<rect width="69" height="16" fill="white" transform="translate(269 84)"/>
</clipPath>
</defs>
</svg>
