<svg width="688" height="216" viewBox="0 0 688 216" fill="none" xmlns="http://www.w3.org/2000/svg">
<rect width="688" height="216" fill="#F6F6F6"/>
<rect x="90.5" y="57" width="507" height="102" rx="8" fill="white"/>
<path d="M136.468 113.24C135.38 113.24 134.441 112.989 133.652 112.488C132.863 111.976 132.26 111.272 131.844 110.376C131.428 109.48 131.22 108.461 131.22 107.32C131.22 106.168 131.428 105.144 131.844 104.248C132.26 103.352 132.868 102.653 133.668 102.152C134.479 101.651 135.449 101.4 136.58 101.4C137.231 101.4 137.839 101.507 138.404 101.72C138.969 101.923 139.572 102.275 140.212 102.776C140.308 102.84 140.356 102.915 140.356 103C140.356 103.064 140.324 103.139 140.26 103.224L140.036 103.512C139.972 103.597 139.897 103.64 139.812 103.64C139.727 103.64 139.647 103.608 139.572 103.544C138.996 103.096 138.473 102.792 138.004 102.632C137.545 102.461 137.071 102.376 136.58 102.376C135.716 102.376 134.964 102.589 134.324 103.016C133.695 103.432 133.209 104.013 132.868 104.76C132.527 105.507 132.356 106.36 132.356 107.32C132.356 108.269 132.527 109.123 132.868 109.88C133.209 110.627 133.689 111.213 134.308 111.64C134.927 112.056 135.641 112.264 136.452 112.264C137.092 112.264 137.657 112.141 138.148 111.896C138.649 111.64 139.183 111.245 139.748 110.712C139.833 110.648 139.908 110.616 139.972 110.616C140.057 110.616 140.137 110.653 140.212 110.728L140.468 111.016C140.532 111.08 140.564 111.149 140.564 111.224C140.564 111.32 140.511 111.416 140.404 111.512C139.743 112.141 139.113 112.589 138.516 112.856C137.919 113.112 137.236 113.24 136.468 113.24ZM145.411 104.92C146.382 104.92 147.14 105.155 147.684 105.624C148.228 106.083 148.5 106.691 148.5 107.448V112.68C148.5 112.893 148.393 113 148.18 113H147.86C147.646 113 147.54 112.893 147.54 112.68V111.96C147.273 112.387 146.894 112.707 146.404 112.92C145.924 113.133 145.385 113.24 144.788 113.24C143.956 113.24 143.278 113.064 142.756 112.712C142.233 112.36 141.972 111.816 141.972 111.08C141.972 110.493 142.137 110.024 142.468 109.672C142.798 109.309 143.23 109.037 143.764 108.856C144.297 108.664 144.964 108.493 145.764 108.344L147.492 108.04V107.528C147.492 106.984 147.305 106.563 146.932 106.264C146.558 105.955 146.068 105.8 145.46 105.8C145.001 105.8 144.585 105.885 144.212 106.056C143.838 106.227 143.438 106.52 143.012 106.936C142.937 107.011 142.857 107.048 142.772 107.048C142.697 107.048 142.628 107.016 142.564 106.952L142.356 106.76C142.281 106.685 142.243 106.605 142.243 106.52C142.243 106.424 142.281 106.339 142.356 106.264C142.804 105.795 143.273 105.453 143.764 105.24C144.265 105.027 144.814 104.92 145.411 104.92ZM144.836 112.36C145.604 112.36 146.238 112.157 146.74 111.752C147.241 111.347 147.492 110.829 147.492 110.2V108.856L146.004 109.144C145.31 109.283 144.761 109.416 144.356 109.544C143.95 109.672 143.625 109.859 143.38 110.104C143.134 110.349 143.012 110.669 143.012 111.064C143.012 111.469 143.172 111.789 143.492 112.024C143.822 112.248 144.27 112.36 144.836 112.36ZM153.784 105.048C154.051 105.048 154.366 105.091 154.728 105.176C154.92 105.24 154.995 105.373 154.952 105.576L154.888 105.832C154.835 106.035 154.702 106.109 154.488 106.056C154.232 105.992 153.998 105.96 153.784 105.96C153.24 105.96 152.787 106.195 152.424 106.664C152.072 107.133 151.896 107.784 151.896 108.616V112.68C151.896 112.893 151.79 113 151.576 113H151.16C150.947 113 150.84 112.893 150.84 112.68V105.432C150.84 105.219 150.947 105.112 151.16 105.112H151.512C151.726 105.112 151.832 105.219 151.832 105.432V106.312C152.014 105.917 152.27 105.608 152.6 105.384C152.942 105.16 153.336 105.048 153.784 105.048ZM158.905 113.208C158.254 113.208 157.678 113.117 157.177 112.936C156.686 112.744 156.169 112.424 155.625 111.976C155.529 111.912 155.481 111.837 155.481 111.752C155.481 111.677 155.518 111.603 155.593 111.528L155.801 111.304C155.865 111.219 155.945 111.176 156.041 111.176C156.115 111.176 156.185 111.208 156.249 111.272C156.761 111.667 157.214 111.944 157.609 112.104C158.003 112.253 158.435 112.328 158.905 112.328C159.491 112.328 159.971 112.2 160.345 111.944C160.718 111.677 160.905 111.32 160.905 110.872C160.905 110.424 160.713 110.093 160.329 109.88C159.945 109.667 159.353 109.475 158.553 109.304C157.849 109.155 157.294 109 156.889 108.84C156.494 108.669 156.201 108.456 156.009 108.2C155.817 107.944 155.721 107.608 155.721 107.192C155.721 106.509 155.998 105.96 156.553 105.544C157.107 105.128 157.806 104.92 158.649 104.92C159.225 104.92 159.737 104.995 160.185 105.144C160.643 105.283 161.102 105.517 161.561 105.848C161.657 105.923 161.705 106.003 161.705 106.088C161.705 106.141 161.678 106.211 161.625 106.296L161.433 106.536C161.379 106.621 161.305 106.664 161.209 106.664C161.123 106.664 161.049 106.637 160.985 106.584C160.547 106.275 160.158 106.067 159.817 105.96C159.486 105.853 159.107 105.8 158.681 105.8C158.094 105.8 157.625 105.928 157.273 106.184C156.921 106.44 156.745 106.765 156.745 107.16C156.745 107.405 156.825 107.603 156.985 107.752C157.145 107.901 157.374 108.029 157.673 108.136C157.971 108.232 158.409 108.344 158.985 108.472C160.051 108.707 160.809 108.995 161.257 109.336C161.715 109.677 161.945 110.173 161.945 110.824C161.945 111.539 161.662 112.115 161.097 112.552C160.531 112.989 159.801 113.208 158.905 113.208ZM170.458 104.92C171.429 104.92 172.186 105.155 172.73 105.624C173.274 106.083 173.546 106.691 173.546 107.448V112.68C173.546 112.893 173.44 113 173.226 113H172.906C172.693 113 172.586 112.893 172.586 112.68V111.96C172.32 112.387 171.941 112.707 171.45 112.92C170.97 113.133 170.432 113.24 169.834 113.24C169.002 113.24 168.325 113.064 167.802 112.712C167.28 112.36 167.018 111.816 167.018 111.08C167.018 110.493 167.184 110.024 167.514 109.672C167.845 109.309 168.277 109.037 168.81 108.856C169.344 108.664 170.01 108.493 170.81 108.344L172.538 108.04V107.528C172.538 106.984 172.352 106.563 171.978 106.264C171.605 105.955 171.114 105.8 170.506 105.8C170.048 105.8 169.632 105.885 169.258 106.056C168.885 106.227 168.485 106.52 168.058 106.936C167.984 107.011 167.904 107.048 167.818 107.048C167.744 107.048 167.674 107.016 167.61 106.952L167.402 106.76C167.328 106.685 167.29 106.605 167.29 106.52C167.29 106.424 167.328 106.339 167.402 106.264C167.85 105.795 168.32 105.453 168.81 105.24C169.312 105.027 169.861 104.92 170.458 104.92ZM169.882 112.36C170.65 112.36 171.285 112.157 171.786 111.752C172.288 111.347 172.538 110.829 172.538 110.2V108.856L171.05 109.144C170.357 109.283 169.808 109.416 169.402 109.544C168.997 109.672 168.672 109.859 168.426 110.104C168.181 110.349 168.058 110.669 168.058 111.064C168.058 111.469 168.218 111.789 168.538 112.024C168.869 112.248 169.317 112.36 169.882 112.36ZM179.407 104.92C180.335 104.92 181.034 105.176 181.503 105.688C181.983 106.2 182.223 106.84 182.223 107.608V112.68C182.223 112.893 182.116 113 181.903 113H181.487C181.274 113 181.167 112.893 181.167 112.68V107.96C181.167 107.256 180.996 106.723 180.655 106.36C180.314 105.997 179.823 105.816 179.183 105.816C178.778 105.816 178.404 105.917 178.063 106.12C177.722 106.312 177.45 106.579 177.247 106.92C177.044 107.261 176.943 107.635 176.943 108.04V112.68C176.943 112.893 176.836 113 176.623 113H176.207C175.994 113 175.887 112.893 175.887 112.68V105.432C175.887 105.219 175.994 105.112 176.207 105.112H176.559C176.772 105.112 176.879 105.219 176.879 105.432V106.2C177.146 105.773 177.498 105.453 177.935 105.24C178.372 105.027 178.863 104.92 179.407 104.92ZM190.255 101.96C190.255 101.747 190.362 101.64 190.575 101.64H190.991C191.204 101.64 191.311 101.747 191.311 101.96V112.68C191.311 112.893 191.204 113 190.991 113H190.655C190.442 113 190.335 112.893 190.335 112.68V111.64C190.047 112.141 189.668 112.525 189.199 112.792C188.73 113.059 188.175 113.192 187.535 113.192C186.863 113.192 186.266 113.021 185.743 112.68C185.22 112.328 184.81 111.843 184.511 111.224C184.212 110.595 184.063 109.875 184.063 109.064C184.063 108.253 184.212 107.539 184.511 106.92C184.82 106.291 185.242 105.805 185.775 105.464C186.308 105.112 186.906 104.936 187.567 104.936C188.783 104.936 189.679 105.389 190.255 106.296V101.96ZM187.615 112.296C188.415 112.296 189.06 112.013 189.551 111.448C190.052 110.872 190.303 110.077 190.303 109.064C190.303 108.061 190.052 107.272 189.551 106.696C189.06 106.12 188.415 105.832 187.615 105.832C186.879 105.832 186.282 106.131 185.823 106.728C185.375 107.325 185.151 108.104 185.151 109.064C185.151 110.035 185.375 110.819 185.823 111.416C186.271 112.003 186.868 112.296 187.615 112.296ZM200.572 113.208C199.814 113.208 199.153 113.037 198.588 112.696C198.033 112.344 197.601 111.859 197.292 111.24C196.993 110.611 196.844 109.885 196.844 109.064C196.844 108.253 196.993 107.533 197.292 106.904C197.601 106.275 198.033 105.789 198.588 105.448C199.153 105.096 199.804 104.92 200.54 104.92C201.137 104.92 201.66 105.021 202.108 105.224C202.556 105.416 202.988 105.736 203.404 106.184C203.468 106.248 203.5 106.317 203.5 106.392C203.5 106.488 203.457 106.568 203.372 106.632L203.148 106.84C203.084 106.904 203.009 106.936 202.924 106.936C202.849 106.936 202.769 106.893 202.684 106.808C202.31 106.435 201.953 106.173 201.612 106.024C201.281 105.875 200.913 105.8 200.508 105.8C199.953 105.8 199.478 105.955 199.084 106.264C198.7 106.573 198.412 106.979 198.22 107.48C198.028 107.971 197.932 108.499 197.932 109.064C197.932 109.629 198.028 110.163 198.22 110.664C198.412 111.155 198.705 111.555 199.1 111.864C199.494 112.163 199.98 112.312 200.556 112.312C200.982 112.312 201.356 112.237 201.676 112.088C202.006 111.928 202.374 111.629 202.78 111.192C202.865 111.107 202.945 111.064 203.02 111.064C203.105 111.064 203.18 111.096 203.244 111.16L203.468 111.336C203.542 111.4 203.58 111.475 203.58 111.56C203.58 111.645 203.532 111.747 203.436 111.864C202.988 112.355 202.54 112.701 202.092 112.904C201.644 113.107 201.137 113.208 200.572 113.208ZM208.474 104.92C209.445 104.92 210.202 105.155 210.746 105.624C211.29 106.083 211.562 106.691 211.562 107.448V112.68C211.562 112.893 211.455 113 211.242 113H210.922C210.709 113 210.602 112.893 210.602 112.68V111.96C210.335 112.387 209.957 112.707 209.466 112.92C208.986 113.133 208.447 113.24 207.85 113.24C207.018 113.24 206.341 113.064 205.818 112.712C205.295 112.36 205.034 111.816 205.034 111.08C205.034 110.493 205.199 110.024 205.53 109.672C205.861 109.309 206.293 109.037 206.826 108.856C207.359 108.664 208.026 108.493 208.826 108.344L210.554 108.04V107.528C210.554 106.984 210.367 106.563 209.994 106.264C209.621 105.955 209.13 105.8 208.522 105.8C208.063 105.8 207.647 105.885 207.274 106.056C206.901 106.227 206.501 106.52 206.074 106.936C205.999 107.011 205.919 107.048 205.834 107.048C205.759 107.048 205.69 107.016 205.626 106.952L205.418 106.76C205.343 106.685 205.306 106.605 205.306 106.52C205.306 106.424 205.343 106.339 205.418 106.264C205.866 105.795 206.335 105.453 206.826 105.24C207.327 105.027 207.877 104.92 208.474 104.92ZM207.898 112.36C208.666 112.36 209.301 112.157 209.802 111.752C210.303 111.347 210.554 110.829 210.554 110.2V108.856L209.066 109.144C208.373 109.283 207.823 109.416 207.418 109.544C207.013 109.672 206.687 109.859 206.442 110.104C206.197 110.349 206.074 110.669 206.074 111.064C206.074 111.469 206.234 111.789 206.554 112.024C206.885 112.248 207.333 112.36 207.898 112.36ZM221.919 104.92C222.772 104.92 223.423 105.165 223.871 105.656C224.329 106.136 224.559 106.755 224.559 107.512V112.68C224.559 112.893 224.452 113 224.239 113H223.823C223.609 113 223.503 112.893 223.503 112.68V107.8C223.503 107.16 223.353 106.669 223.055 106.328C222.767 105.987 222.335 105.816 221.759 105.816C221.151 105.816 220.665 106.019 220.303 106.424C219.94 106.829 219.759 107.352 219.759 107.992V112.68C219.759 112.893 219.652 113 219.439 113H219.023C218.809 113 218.703 112.893 218.703 112.68V107.8C218.703 107.16 218.553 106.669 218.255 106.328C217.967 105.987 217.529 105.816 216.943 105.816C216.399 105.816 215.945 105.987 215.583 106.328C215.231 106.669 215.023 107.117 214.959 107.672V112.68C214.959 112.893 214.852 113 214.639 113H214.223C214.009 113 213.903 112.893 213.903 112.68V105.432C213.903 105.219 214.009 105.112 214.223 105.112H214.575C214.788 105.112 214.895 105.219 214.895 105.432V106.088C215.375 105.309 216.137 104.92 217.183 104.92C217.727 104.92 218.191 105.043 218.575 105.288C218.969 105.523 219.263 105.843 219.455 106.248C220.02 105.363 220.841 104.92 221.919 104.92ZM230.663 104.936C231.324 104.936 231.916 105.112 232.439 105.464C232.972 105.805 233.388 106.291 233.687 106.92C233.986 107.539 234.135 108.248 234.135 109.048C234.135 109.859 233.986 110.579 233.687 111.208C233.388 111.837 232.978 112.328 232.455 112.68C231.932 113.021 231.335 113.192 230.663 113.192C229.426 113.192 228.519 112.739 227.943 111.832V115.624C227.943 115.837 227.836 115.944 227.623 115.944H227.207C226.994 115.944 226.887 115.837 226.887 115.624V105.432C226.887 105.219 226.994 105.112 227.207 105.112H227.559C227.772 105.112 227.879 105.219 227.879 105.432V106.44C228.167 105.949 228.546 105.576 229.015 105.32C229.484 105.064 230.034 104.936 230.663 104.936ZM230.583 112.296C231.33 112.296 231.927 111.997 232.375 111.4C232.823 110.803 233.047 110.019 233.047 109.048C233.047 108.088 232.823 107.315 232.375 106.728C231.927 106.131 231.33 105.832 230.583 105.832C229.783 105.832 229.132 106.12 228.631 106.696C228.14 107.261 227.895 108.045 227.895 109.048C227.895 110.051 228.146 110.845 228.647 111.432C229.148 112.008 229.794 112.296 230.583 112.296ZM236.54 103.112C236.327 103.112 236.145 103.037 235.996 102.888C235.857 102.739 235.788 102.557 235.788 102.344C235.788 102.131 235.857 101.955 235.996 101.816C236.145 101.677 236.327 101.608 236.54 101.608C236.764 101.608 236.945 101.677 237.084 101.816C237.233 101.955 237.308 102.131 237.308 102.344C237.308 102.557 237.233 102.739 237.084 102.888C236.945 103.037 236.764 103.112 236.54 103.112ZM236.332 113C236.119 113 236.012 112.893 236.012 112.68V105.432C236.012 105.219 236.119 105.112 236.332 105.112H236.748C236.961 105.112 237.068 105.219 237.068 105.432V112.68C237.068 112.893 236.961 113 236.748 113H236.332ZM242.938 104.92C243.866 104.92 244.565 105.176 245.034 105.688C245.514 106.2 245.754 106.84 245.754 107.608V112.68C245.754 112.893 245.648 113 245.434 113H245.018C244.805 113 244.698 112.893 244.698 112.68V107.96C244.698 107.256 244.528 106.723 244.186 106.36C243.845 105.997 243.354 105.816 242.714 105.816C242.309 105.816 241.936 105.917 241.594 106.12C241.253 106.312 240.981 106.579 240.778 106.92C240.576 107.261 240.474 107.635 240.474 108.04V112.68C240.474 112.893 240.368 113 240.154 113H239.738C239.525 113 239.418 112.893 239.418 112.68V105.432C239.418 105.219 239.525 105.112 239.738 105.112H240.09C240.304 105.112 240.41 105.219 240.41 105.432V106.2C240.677 105.773 241.029 105.453 241.466 105.24C241.904 105.027 242.394 104.92 242.938 104.92ZM253.754 105.432C253.754 105.219 253.861 105.112 254.074 105.112H254.41C254.624 105.112 254.73 105.219 254.73 105.432V112.92C254.73 113.912 254.432 114.691 253.834 115.256C253.237 115.832 252.4 116.12 251.322 116.12C250.16 116.12 249.088 115.789 248.106 115.128C248 115.064 247.946 114.984 247.946 114.888C247.946 114.813 247.968 114.749 248.01 114.696L248.202 114.424C248.266 114.317 248.352 114.264 248.458 114.264C248.501 114.264 248.565 114.285 248.65 114.328C249.12 114.627 249.557 114.851 249.962 115C250.378 115.149 250.832 115.224 251.322 115.224C252.026 115.224 252.597 115.027 253.034 114.632C253.472 114.248 253.69 113.651 253.69 112.84V111.56C253.114 112.488 252.24 112.952 251.066 112.952C250.384 112.952 249.781 112.781 249.258 112.44C248.736 112.088 248.33 111.608 248.042 111C247.765 110.392 247.626 109.704 247.626 108.936C247.626 108.168 247.765 107.48 248.042 106.872C248.33 106.264 248.736 105.789 249.258 105.448C249.781 105.096 250.384 104.92 251.066 104.92C251.685 104.92 252.218 105.053 252.666 105.32C253.125 105.576 253.488 105.944 253.754 106.424V105.432ZM251.178 112.056C251.946 112.056 252.56 111.768 253.018 111.192C253.477 110.605 253.706 109.853 253.706 108.936C253.706 108.019 253.477 107.272 253.018 106.696C252.56 106.109 251.946 105.816 251.178 105.816C250.4 105.816 249.792 106.104 249.354 106.68C248.928 107.256 248.714 108.008 248.714 108.936C248.714 109.864 248.928 110.616 249.354 111.192C249.792 111.768 250.4 112.056 251.178 112.056ZM269.593 105.384C269.636 105.203 269.759 105.112 269.961 105.112H270.393C270.511 105.112 270.591 105.144 270.633 105.208C270.687 105.272 270.697 105.357 270.665 105.464L268.601 112.728C268.559 112.909 268.436 113 268.233 113H267.513C267.332 113 267.215 112.909 267.161 112.728L266.425 110.28C266.041 109 265.684 107.688 265.353 106.344C265.033 107.645 264.681 108.968 264.297 110.312L263.593 112.728C263.551 112.909 263.428 113 263.225 113H262.537C262.335 113 262.212 112.909 262.169 112.728L260.105 105.464C260.095 105.443 260.089 105.405 260.089 105.352C260.089 105.277 260.116 105.219 260.169 105.176C260.223 105.133 260.292 105.112 260.377 105.112H260.809C261.012 105.112 261.135 105.203 261.177 105.384L261.945 108.216C262.297 109.507 262.623 110.792 262.921 112.072C263.156 111.123 263.503 109.837 263.961 108.216L264.777 105.384C264.82 105.203 264.943 105.112 265.145 105.112H265.625C265.817 105.112 265.935 105.203 265.977 105.384L266.809 108.216C267.172 109.528 267.513 110.819 267.833 112.088C268.079 111.021 268.409 109.731 268.825 108.216L269.593 105.384ZM275.318 104.92C276.288 104.92 277.046 105.155 277.59 105.624C278.134 106.083 278.406 106.691 278.406 107.448V112.68C278.406 112.893 278.299 113 278.086 113H277.766C277.552 113 277.446 112.893 277.446 112.68V111.96C277.179 112.387 276.8 112.707 276.31 112.92C275.83 113.133 275.291 113.24 274.694 113.24C273.862 113.24 273.184 113.064 272.662 112.712C272.139 112.36 271.878 111.816 271.878 111.08C271.878 110.493 272.043 110.024 272.374 109.672C272.704 109.309 273.136 109.037 273.67 108.856C274.203 108.664 274.87 108.493 275.67 108.344L277.398 108.04V107.528C277.398 106.984 277.211 106.563 276.838 106.264C276.464 105.955 275.974 105.8 275.366 105.8C274.907 105.8 274.491 105.885 274.118 106.056C273.744 106.227 273.344 106.52 272.918 106.936C272.843 107.011 272.763 107.048 272.678 107.048C272.603 107.048 272.534 107.016 272.47 106.952L272.262 106.76C272.187 106.685 272.15 106.605 272.15 106.52C272.15 106.424 272.187 106.339 272.262 106.264C272.71 105.795 273.179 105.453 273.67 105.24C274.171 105.027 274.72 104.92 275.318 104.92ZM274.742 112.36C275.51 112.36 276.144 112.157 276.646 111.752C277.147 111.347 277.398 110.829 277.398 110.2V108.856L275.91 109.144C275.216 109.283 274.667 109.416 274.262 109.544C273.856 109.672 273.531 109.859 273.286 110.104C273.04 110.349 272.918 110.669 272.918 111.064C272.918 111.469 273.078 111.789 273.398 112.024C273.728 112.248 274.176 112.36 274.742 112.36ZM286.411 105.432C286.411 105.219 286.517 105.112 286.731 105.112H287.067C287.28 105.112 287.387 105.219 287.387 105.432V112.92C287.387 113.912 287.088 114.691 286.491 115.256C285.893 115.832 285.056 116.12 283.979 116.12C282.816 116.12 281.744 115.789 280.763 115.128C280.656 115.064 280.603 114.984 280.603 114.888C280.603 114.813 280.624 114.749 280.667 114.696L280.859 114.424C280.923 114.317 281.008 114.264 281.115 114.264C281.157 114.264 281.221 114.285 281.307 114.328C281.776 114.627 282.213 114.851 282.619 115C283.035 115.149 283.488 115.224 283.979 115.224C284.683 115.224 285.253 115.027 285.691 114.632C286.128 114.248 286.347 113.651 286.347 112.84V111.56C285.771 112.488 284.896 112.952 283.723 112.952C283.04 112.952 282.437 112.781 281.914 112.44C281.392 112.088 280.987 111.608 280.699 111C280.421 110.392 280.283 109.704 280.283 108.936C280.283 108.168 280.421 107.48 280.699 106.872C280.987 106.264 281.392 105.789 281.914 105.448C282.437 105.096 283.04 104.92 283.723 104.92C284.341 104.92 284.875 105.053 285.323 105.32C285.781 105.576 286.144 105.944 286.411 106.424V105.432ZM283.835 112.056C284.603 112.056 285.216 111.768 285.675 111.192C286.133 110.605 286.363 109.853 286.363 108.936C286.363 108.019 286.133 107.272 285.675 106.696C285.216 106.109 284.603 105.816 283.835 105.816C283.056 105.816 282.448 106.104 282.011 106.68C281.584 107.256 281.371 108.008 281.371 108.936C281.371 109.864 281.584 110.616 282.011 111.192C282.448 111.768 283.056 112.056 283.835 112.056ZM293.026 113.208C292.29 113.208 291.634 113.032 291.058 112.68C290.482 112.328 290.034 111.843 289.714 111.224C289.394 110.595 289.234 109.875 289.234 109.064C289.234 108.253 289.394 107.539 289.714 106.92C290.034 106.291 290.482 105.8 291.058 105.448C291.634 105.096 292.29 104.92 293.026 104.92C293.762 104.92 294.418 105.096 294.994 105.448C295.57 105.8 296.018 106.291 296.338 106.92C296.658 107.539 296.818 108.253 296.818 109.064C296.818 109.875 296.658 110.595 296.338 111.224C296.018 111.843 295.57 112.328 294.994 112.68C294.418 113.032 293.762 113.208 293.026 113.208ZM293.026 112.328C293.847 112.328 294.503 112.029 294.994 111.432C295.485 110.824 295.73 110.035 295.73 109.064C295.73 108.093 295.485 107.309 294.994 106.712C294.503 106.104 293.847 105.8 293.026 105.8C292.205 105.8 291.549 106.104 291.058 106.712C290.567 107.309 290.322 108.093 290.322 109.064C290.322 110.035 290.567 110.824 291.058 111.432C291.549 112.029 292.205 112.328 293.026 112.328ZM302.173 104.92C303.101 104.92 303.799 105.176 304.269 105.688C304.749 106.2 304.989 106.84 304.989 107.608V112.68C304.989 112.893 304.882 113 304.669 113H304.253C304.039 113 303.933 112.893 303.933 112.68V107.96C303.933 107.256 303.762 106.723 303.421 106.36C303.079 105.997 302.589 105.816 301.949 105.816C301.543 105.816 301.17 105.917 300.829 106.12C300.487 106.312 300.215 106.579 300.013 106.92C299.81 107.261 299.709 107.635 299.709 108.04V112.68C299.709 112.893 299.602 113 299.389 113H298.973C298.759 113 298.653 112.893 298.653 112.68V105.432C298.653 105.219 298.759 105.112 298.973 105.112H299.325C299.538 105.112 299.645 105.219 299.645 105.432V106.2C299.911 105.773 300.263 105.453 300.701 105.24C301.138 105.027 301.629 104.92 302.173 104.92ZM310.077 113.208C309.426 113.208 308.85 113.117 308.349 112.936C307.858 112.744 307.341 112.424 306.797 111.976C306.701 111.912 306.653 111.837 306.653 111.752C306.653 111.677 306.69 111.603 306.765 111.528L306.973 111.304C307.037 111.219 307.117 111.176 307.213 111.176C307.287 111.176 307.357 111.208 307.421 111.272C307.933 111.667 308.386 111.944 308.781 112.104C309.175 112.253 309.607 112.328 310.077 112.328C310.663 112.328 311.143 112.2 311.517 111.944C311.89 111.677 312.077 111.32 312.077 110.872C312.077 110.424 311.885 110.093 311.501 109.88C311.117 109.667 310.525 109.475 309.725 109.304C309.021 109.155 308.466 109 308.061 108.84C307.666 108.669 307.373 108.456 307.181 108.2C306.989 107.944 306.893 107.608 306.893 107.192C306.893 106.509 307.17 105.96 307.725 105.544C308.279 105.128 308.978 104.92 309.821 104.92C310.397 104.92 310.909 104.995 311.357 105.144C311.815 105.283 312.274 105.517 312.733 105.848C312.829 105.923 312.877 106.003 312.877 106.088C312.877 106.141 312.85 106.211 312.797 106.296L312.605 106.536C312.551 106.621 312.477 106.664 312.381 106.664C312.295 106.664 312.221 106.637 312.157 106.584C311.719 106.275 311.33 106.067 310.989 105.96C310.658 105.853 310.279 105.8 309.853 105.8C309.266 105.8 308.797 105.928 308.445 106.184C308.093 106.44 307.917 106.765 307.917 107.16C307.917 107.405 307.997 107.603 308.157 107.752C308.317 107.901 308.546 108.029 308.845 108.136C309.143 108.232 309.581 108.344 310.157 108.472C311.223 108.707 311.981 108.995 312.429 109.336C312.887 109.677 313.117 110.173 313.117 110.824C313.117 111.539 312.834 112.115 312.269 112.552C311.703 112.989 310.973 113.208 310.077 113.208Z" fill="#0063FB"/>
<path d="M323.316 113C323.124 113 323.028 112.925 323.028 112.776C323.028 112.744 323.039 112.696 323.06 112.632L327.748 101.88C327.812 101.72 327.94 101.64 328.132 101.64H328.468C328.66 101.64 328.756 101.715 328.756 101.864C328.756 101.896 328.745 101.944 328.724 102.008L324.036 112.76C323.972 112.92 323.844 113 323.652 113H323.316Z" fill="#1B1B1F"/>
<path d="M343.468 113.24C342.38 113.24 341.441 112.989 340.652 112.488C339.863 111.976 339.26 111.272 338.844 110.376C338.428 109.48 338.22 108.461 338.22 107.32C338.22 106.168 338.428 105.144 338.844 104.248C339.26 103.352 339.868 102.653 340.668 102.152C341.479 101.651 342.449 101.4 343.58 101.4C344.231 101.4 344.839 101.507 345.404 101.72C345.969 101.923 346.572 102.275 347.212 102.776C347.308 102.84 347.356 102.915 347.356 103C347.356 103.064 347.324 103.139 347.26 103.224L347.036 103.512C346.972 103.597 346.897 103.64 346.812 103.64C346.727 103.64 346.647 103.608 346.572 103.544C345.996 103.096 345.473 102.792 345.004 102.632C344.545 102.461 344.071 102.376 343.58 102.376C342.716 102.376 341.964 102.589 341.324 103.016C340.695 103.432 340.209 104.013 339.868 104.76C339.527 105.507 339.356 106.36 339.356 107.32C339.356 108.269 339.527 109.123 339.868 109.88C340.209 110.627 340.689 111.213 341.308 111.64C341.927 112.056 342.641 112.264 343.452 112.264C344.092 112.264 344.657 112.141 345.148 111.896C345.649 111.64 346.183 111.245 346.748 110.712C346.833 110.648 346.908 110.616 346.972 110.616C347.057 110.616 347.137 110.653 347.212 110.728L347.468 111.016C347.532 111.08 347.564 111.149 347.564 111.224C347.564 111.32 347.511 111.416 347.404 111.512C346.743 112.141 346.113 112.589 345.516 112.856C344.919 113.112 344.236 113.24 343.468 113.24ZM352.411 104.92C353.382 104.92 354.14 105.155 354.684 105.624C355.228 106.083 355.5 106.691 355.5 107.448V112.68C355.5 112.893 355.393 113 355.18 113H354.86C354.646 113 354.54 112.893 354.54 112.68V111.96C354.273 112.387 353.894 112.707 353.404 112.92C352.924 113.133 352.385 113.24 351.788 113.24C350.956 113.24 350.278 113.064 349.756 112.712C349.233 112.36 348.972 111.816 348.972 111.08C348.972 110.493 349.137 110.024 349.468 109.672C349.798 109.309 350.23 109.037 350.764 108.856C351.297 108.664 351.964 108.493 352.764 108.344L354.492 108.04V107.528C354.492 106.984 354.305 106.563 353.932 106.264C353.558 105.955 353.068 105.8 352.46 105.8C352.001 105.8 351.585 105.885 351.212 106.056C350.838 106.227 350.438 106.52 350.012 106.936C349.937 107.011 349.857 107.048 349.772 107.048C349.697 107.048 349.628 107.016 349.564 106.952L349.356 106.76C349.281 106.685 349.243 106.605 349.243 106.52C349.243 106.424 349.281 106.339 349.356 106.264C349.804 105.795 350.273 105.453 350.764 105.24C351.265 105.027 351.814 104.92 352.411 104.92ZM351.836 112.36C352.604 112.36 353.238 112.157 353.74 111.752C354.241 111.347 354.492 110.829 354.492 110.2V108.856L353.004 109.144C352.31 109.283 351.761 109.416 351.356 109.544C350.95 109.672 350.625 109.859 350.38 110.104C350.134 110.349 350.012 110.669 350.012 111.064C350.012 111.469 350.172 111.789 350.492 112.024C350.822 112.248 351.27 112.36 351.836 112.36ZM360.784 105.048C361.051 105.048 361.366 105.091 361.728 105.176C361.92 105.24 361.995 105.373 361.952 105.576L361.888 105.832C361.835 106.035 361.702 106.109 361.488 106.056C361.232 105.992 360.998 105.96 360.784 105.96C360.24 105.96 359.787 106.195 359.424 106.664C359.072 107.133 358.896 107.784 358.896 108.616V112.68C358.896 112.893 358.79 113 358.576 113H358.16C357.947 113 357.84 112.893 357.84 112.68V105.432C357.84 105.219 357.947 105.112 358.16 105.112H358.512C358.726 105.112 358.832 105.219 358.832 105.432V106.312C359.014 105.917 359.27 105.608 359.6 105.384C359.942 105.16 360.336 105.048 360.784 105.048ZM365.905 113.208C365.254 113.208 364.678 113.117 364.177 112.936C363.686 112.744 363.169 112.424 362.625 111.976C362.529 111.912 362.481 111.837 362.481 111.752C362.481 111.677 362.518 111.603 362.593 111.528L362.801 111.304C362.865 111.219 362.945 111.176 363.041 111.176C363.115 111.176 363.185 111.208 363.249 111.272C363.761 111.667 364.214 111.944 364.609 112.104C365.003 112.253 365.435 112.328 365.905 112.328C366.491 112.328 366.971 112.2 367.345 111.944C367.718 111.677 367.905 111.32 367.905 110.872C367.905 110.424 367.713 110.093 367.329 109.88C366.945 109.667 366.353 109.475 365.553 109.304C364.849 109.155 364.294 109 363.889 108.84C363.494 108.669 363.201 108.456 363.009 108.2C362.817 107.944 362.721 107.608 362.721 107.192C362.721 106.509 362.998 105.96 363.553 105.544C364.107 105.128 364.806 104.92 365.649 104.92C366.225 104.92 366.737 104.995 367.185 105.144C367.643 105.283 368.102 105.517 368.561 105.848C368.657 105.923 368.705 106.003 368.705 106.088C368.705 106.141 368.678 106.211 368.625 106.296L368.433 106.536C368.379 106.621 368.305 106.664 368.209 106.664C368.123 106.664 368.049 106.637 367.985 106.584C367.547 106.275 367.158 106.067 366.817 105.96C366.486 105.853 366.107 105.8 365.681 105.8C365.094 105.8 364.625 105.928 364.273 106.184C363.921 106.44 363.745 106.765 363.745 107.16C363.745 107.405 363.825 107.603 363.985 107.752C364.145 107.901 364.374 108.029 364.673 108.136C364.971 108.232 365.409 108.344 365.985 108.472C367.051 108.707 367.809 108.995 368.257 109.336C368.715 109.677 368.945 110.173 368.945 110.824C368.945 111.539 368.662 112.115 368.097 112.552C367.531 112.989 366.801 113.208 365.905 113.208Z" fill="#0063FB"/>
<path d="M379.316 113C379.124 113 379.028 112.925 379.028 112.776C379.028 112.744 379.039 112.696 379.06 112.632L383.748 101.88C383.812 101.72 383.94 101.64 384.132 101.64H384.468C384.66 101.64 384.756 101.715 384.756 101.864C384.756 101.896 384.745 101.944 384.724 102.008L380.036 112.76C379.972 112.92 379.844 113 379.652 113H379.316Z" fill="#1B1B1F"/>
<path d="M403.804 101.896C403.868 101.725 403.991 101.64 404.172 101.64H405.42C405.633 101.64 405.74 101.747 405.74 101.96V112.68C405.74 112.893 405.633 113 405.42 113H404.956C404.743 113 404.636 112.893 404.636 112.68V107.368C404.636 106.227 404.647 104.579 404.668 102.424C404.231 103.672 403.633 105.32 402.876 107.368L400.908 112.744C400.844 112.915 400.721 113 400.54 113H400.076C399.895 113 399.772 112.915 399.708 112.744L397.692 107.352C397.265 106.243 396.673 104.6 395.916 102.424C395.937 104.579 395.948 106.232 395.948 107.384V112.68C395.948 112.893 395.841 113 395.628 113H395.196C394.983 113 394.876 112.893 394.876 112.68V101.96C394.876 101.747 394.983 101.64 395.196 101.64H396.428C396.609 101.64 396.732 101.725 396.796 101.896L398.62 106.808C399.463 109.101 400.028 110.717 400.316 111.656C400.583 110.76 401.041 109.421 401.692 107.64C401.735 107.523 401.783 107.395 401.836 107.256C401.889 107.117 401.943 106.968 401.996 106.808L403.804 101.896ZM408.821 103.112C408.608 103.112 408.427 103.037 408.277 102.888C408.139 102.739 408.069 102.557 408.069 102.344C408.069 102.131 408.139 101.955 408.277 101.816C408.427 101.677 408.608 101.608 408.821 101.608C409.045 101.608 409.227 101.677 409.365 101.816C409.515 101.955 409.589 102.131 409.589 102.344C409.589 102.557 409.515 102.739 409.365 102.888C409.227 103.037 409.045 103.112 408.821 103.112ZM408.613 113C408.4 113 408.293 112.893 408.293 112.68V105.432C408.293 105.219 408.4 105.112 408.613 105.112H409.029C409.243 105.112 409.349 105.219 409.349 105.432V112.68C409.349 112.893 409.243 113 409.029 113H408.613ZM415.252 112.12C415.284 112.109 415.326 112.104 415.38 112.104C415.444 112.104 415.502 112.125 415.556 112.168C415.609 112.211 415.641 112.269 415.652 112.344L415.7 112.568C415.71 112.589 415.716 112.627 415.716 112.68C415.716 112.829 415.636 112.92 415.476 112.952C415.092 113.069 414.681 113.128 414.244 113.128C413.55 113.128 413.054 112.973 412.756 112.664C412.468 112.344 412.324 111.885 412.324 111.288V105.912H411.14C410.926 105.912 410.82 105.805 410.82 105.592V105.432C410.82 105.219 410.926 105.112 411.14 105.112H412.324V102.68C412.324 102.467 412.43 102.36 412.644 102.36H413.06C413.273 102.36 413.38 102.467 413.38 102.68V105.112H415.3C415.513 105.112 415.62 105.219 415.62 105.432V105.592C415.62 105.805 415.513 105.912 415.3 105.912H413.38V111.16C413.38 111.555 413.454 111.832 413.604 111.992C413.753 112.152 414.009 112.232 414.372 112.232C414.628 112.232 414.921 112.195 415.252 112.12ZM420.092 113.208C419.442 113.208 418.866 113.117 418.364 112.936C417.874 112.744 417.356 112.424 416.812 111.976C416.716 111.912 416.668 111.837 416.668 111.752C416.668 111.677 416.706 111.603 416.78 111.528L416.988 111.304C417.052 111.219 417.132 111.176 417.228 111.176C417.303 111.176 417.372 111.208 417.436 111.272C417.948 111.667 418.402 111.944 418.796 112.104C419.191 112.253 419.623 112.328 420.092 112.328C420.679 112.328 421.159 112.2 421.532 111.944C421.906 111.677 422.092 111.32 422.092 110.872C422.092 110.424 421.9 110.093 421.516 109.88C421.132 109.667 420.54 109.475 419.74 109.304C419.036 109.155 418.482 109 418.076 108.84C417.682 108.669 417.388 108.456 417.196 108.2C417.004 107.944 416.908 107.608 416.908 107.192C416.908 106.509 417.186 105.96 417.74 105.544C418.295 105.128 418.994 104.92 419.836 104.92C420.412 104.92 420.924 104.995 421.372 105.144C421.831 105.283 422.29 105.517 422.748 105.848C422.844 105.923 422.892 106.003 422.892 106.088C422.892 106.141 422.866 106.211 422.812 106.296L422.62 106.536C422.567 106.621 422.492 106.664 422.396 106.664C422.311 106.664 422.236 106.637 422.172 106.584C421.735 106.275 421.346 106.067 421.004 105.96C420.674 105.853 420.295 105.8 419.868 105.8C419.282 105.8 418.812 105.928 418.46 106.184C418.108 106.44 417.932 106.765 417.932 107.16C417.932 107.405 418.012 107.603 418.172 107.752C418.332 107.901 418.562 108.029 418.86 108.136C419.159 108.232 419.596 108.344 420.172 108.472C421.239 108.707 421.996 108.995 422.444 109.336C422.903 109.677 423.132 110.173 423.132 110.824C423.132 111.539 422.85 112.115 422.284 112.552C421.719 112.989 420.988 113.208 420.092 113.208ZM430.038 105.432C430.038 105.219 430.145 105.112 430.358 105.112H430.774C430.988 105.112 431.094 105.219 431.094 105.432V112.68C431.094 112.893 430.988 113 430.774 113H430.438C430.225 113 430.118 112.893 430.118 112.68V111.96C429.884 112.376 429.548 112.691 429.11 112.904C428.684 113.107 428.214 113.208 427.702 113.208C426.742 113.208 426.033 112.968 425.574 112.488C425.116 111.997 424.886 111.368 424.886 110.6V105.432C424.886 105.219 424.993 105.112 425.206 105.112H425.622C425.836 105.112 425.942 105.219 425.942 105.432V110.376C425.942 111.005 426.097 111.485 426.406 111.816C426.726 112.136 427.18 112.296 427.766 112.296C428.428 112.296 428.972 112.093 429.398 111.688C429.825 111.283 430.038 110.707 430.038 109.96V105.432ZM437.241 104.936C437.913 104.936 438.511 105.112 439.033 105.464C439.567 105.805 439.977 106.291 440.265 106.92C440.564 107.539 440.713 108.253 440.713 109.064C440.713 109.875 440.564 110.595 440.265 111.224C439.967 111.843 439.551 112.328 439.017 112.68C438.495 113.021 437.903 113.192 437.241 113.192C435.972 113.192 435.044 112.701 434.457 111.72V112.68C434.457 112.893 434.351 113 434.137 113H433.785C433.572 113 433.465 112.893 433.465 112.68V101.944C433.465 101.731 433.572 101.624 433.785 101.624H434.201C434.415 101.624 434.521 101.731 434.521 101.944V106.36C435.108 105.411 436.015 104.936 437.241 104.936ZM437.161 112.296C437.897 112.296 438.489 111.997 438.937 111.4C439.396 110.803 439.625 110.024 439.625 109.064C439.625 108.104 439.396 107.325 438.937 106.728C438.489 106.131 437.897 105.832 437.161 105.832C436.372 105.832 435.727 106.12 435.225 106.696C434.724 107.272 434.473 108.061 434.473 109.064C434.473 110.077 434.719 110.872 435.209 111.448C435.711 112.013 436.361 112.296 437.161 112.296ZM443.118 103.112C442.905 103.112 442.724 103.037 442.574 102.888C442.436 102.739 442.366 102.557 442.366 102.344C442.366 102.131 442.436 101.955 442.574 101.816C442.724 101.677 442.905 101.608 443.118 101.608C443.342 101.608 443.524 101.677 443.662 101.816C443.812 101.955 443.886 102.131 443.886 102.344C443.886 102.557 443.812 102.739 443.662 102.888C443.524 103.037 443.342 103.112 443.118 103.112ZM442.91 113C442.697 113 442.59 112.893 442.59 112.68V105.432C442.59 105.219 442.697 105.112 442.91 105.112H443.326C443.54 105.112 443.646 105.219 443.646 105.432V112.68C443.646 112.893 443.54 113 443.326 113H442.91ZM448.749 113.208C448.098 113.208 447.522 113.117 447.021 112.936C446.53 112.744 446.013 112.424 445.469 111.976C445.373 111.912 445.325 111.837 445.325 111.752C445.325 111.677 445.362 111.603 445.437 111.528L445.645 111.304C445.709 111.219 445.789 111.176 445.885 111.176C445.959 111.176 446.029 111.208 446.093 111.272C446.605 111.667 447.058 111.944 447.453 112.104C447.847 112.253 448.279 112.328 448.749 112.328C449.335 112.328 449.815 112.2 450.189 111.944C450.562 111.677 450.749 111.32 450.749 110.872C450.749 110.424 450.557 110.093 450.173 109.88C449.789 109.667 449.197 109.475 448.397 109.304C447.693 109.155 447.138 109 446.733 108.84C446.338 108.669 446.045 108.456 445.853 108.2C445.661 107.944 445.565 107.608 445.565 107.192C445.565 106.509 445.842 105.96 446.397 105.544C446.951 105.128 447.65 104.92 448.493 104.92C449.069 104.92 449.581 104.995 450.029 105.144C450.487 105.283 450.946 105.517 451.405 105.848C451.501 105.923 451.549 106.003 451.549 106.088C451.549 106.141 451.522 106.211 451.469 106.296L451.277 106.536C451.223 106.621 451.149 106.664 451.053 106.664C450.967 106.664 450.893 106.637 450.829 106.584C450.391 106.275 450.002 106.067 449.661 105.96C449.33 105.853 448.951 105.8 448.525 105.8C447.938 105.8 447.469 105.928 447.117 106.184C446.765 106.44 446.589 106.765 446.589 107.16C446.589 107.405 446.669 107.603 446.829 107.752C446.989 107.901 447.218 108.029 447.517 108.136C447.815 108.232 448.253 108.344 448.829 108.472C449.895 108.707 450.653 108.995 451.101 109.336C451.559 109.677 451.789 110.173 451.789 110.824C451.789 111.539 451.506 112.115 450.941 112.552C450.375 112.989 449.645 113.208 448.749 113.208ZM457.095 104.92C458.012 104.92 458.711 105.181 459.191 105.704C459.671 106.216 459.911 106.851 459.911 107.608V112.68C459.911 112.893 459.804 113 459.591 113H459.175C458.961 113 458.855 112.893 458.855 112.68V107.96C458.855 107.256 458.684 106.723 458.343 106.36C458.001 105.997 457.511 105.816 456.871 105.816C456.465 105.816 456.092 105.917 455.751 106.12C455.409 106.312 455.137 106.579 454.935 106.92C454.732 107.261 454.631 107.635 454.631 108.04V112.68C454.631 112.893 454.524 113 454.311 113H453.895C453.681 113 453.575 112.893 453.575 112.68V101.96C453.575 101.747 453.681 101.64 453.895 101.64H454.311C454.524 101.64 454.631 101.747 454.631 101.96V106.136C454.887 105.731 455.228 105.427 455.655 105.224C456.092 105.021 456.572 104.92 457.095 104.92ZM462.775 103.112C462.561 103.112 462.38 103.037 462.231 102.888C462.092 102.739 462.023 102.557 462.023 102.344C462.023 102.131 462.092 101.955 462.231 101.816C462.38 101.677 462.561 101.608 462.775 101.608C462.999 101.608 463.18 101.677 463.319 101.816C463.468 101.955 463.543 102.131 463.543 102.344C463.543 102.557 463.468 102.739 463.319 102.888C463.18 103.037 462.999 103.112 462.775 103.112ZM462.567 113C462.353 113 462.247 112.893 462.247 112.68V105.432C462.247 105.219 462.353 105.112 462.567 105.112H462.983C463.196 105.112 463.303 105.219 463.303 105.432V112.68C463.303 112.893 463.196 113 462.983 113H462.567Z" fill="#0063FB"/>
<path d="M473.316 113C473.124 113 473.028 112.925 473.028 112.776C473.028 112.744 473.039 112.696 473.06 112.632L477.748 101.88C477.812 101.72 477.94 101.64 478.132 101.64H478.468C478.66 101.64 478.756 101.715 478.756 101.864C478.756 101.896 478.745 101.944 478.724 102.008L474.036 112.76C473.972 112.92 473.844 113 473.652 113H473.316Z" fill="#1B1B1F"/>
<path d="M493.516 113.24C492.439 113.24 491.5 112.989 490.7 112.488C489.9 111.976 489.287 111.272 488.86 110.376C488.433 109.48 488.22 108.461 488.22 107.32C488.22 106.179 488.433 105.16 488.86 104.264C489.287 103.368 489.9 102.669 490.7 102.168C491.5 101.656 492.439 101.4 493.516 101.4C494.593 101.4 495.532 101.656 496.332 102.168C497.132 102.669 497.745 103.368 498.172 104.264C498.599 105.16 498.812 106.179 498.812 107.32C498.812 108.461 498.599 109.48 498.172 110.376C497.745 111.272 497.132 111.976 496.332 112.488C495.532 112.989 494.593 113.24 493.516 113.24ZM493.516 112.264C494.337 112.264 495.063 112.056 495.692 111.64C496.321 111.213 496.807 110.627 497.148 109.88C497.5 109.123 497.676 108.269 497.676 107.32C497.676 106.371 497.5 105.523 497.148 104.776C496.807 104.019 496.321 103.432 495.692 103.016C495.063 102.589 494.337 102.376 493.516 102.376C492.695 102.376 491.969 102.589 491.34 103.016C490.711 103.432 490.22 104.019 489.868 104.776C489.527 105.523 489.356 106.371 489.356 107.32C489.356 108.269 489.527 109.123 489.868 109.88C490.22 110.627 490.711 111.213 491.34 111.64C491.969 112.056 492.695 112.264 493.516 112.264ZM505.82 105.432C505.82 105.219 505.926 105.112 506.14 105.112H506.556C506.769 105.112 506.876 105.219 506.876 105.432V112.68C506.876 112.893 506.769 113 506.556 113H506.22C506.006 113 505.9 112.893 505.9 112.68V111.96C505.665 112.376 505.329 112.691 504.892 112.904C504.465 113.107 503.996 113.208 503.484 113.208C502.524 113.208 501.814 112.968 501.356 112.488C500.897 111.997 500.668 111.368 500.668 110.6V105.432C500.668 105.219 500.774 105.112 500.988 105.112H501.404C501.617 105.112 501.724 105.219 501.724 105.432V110.376C501.724 111.005 501.878 111.485 502.188 111.816C502.508 112.136 502.961 112.296 503.548 112.296C504.209 112.296 504.753 112.093 505.18 111.688C505.606 111.283 505.82 110.707 505.82 109.96V105.432ZM512.799 112.12C512.831 112.109 512.873 112.104 512.927 112.104C512.991 112.104 513.049 112.125 513.103 112.168C513.156 112.211 513.188 112.269 513.199 112.344L513.247 112.568C513.257 112.589 513.263 112.627 513.263 112.68C513.263 112.829 513.183 112.92 513.023 112.952C512.639 113.069 512.228 113.128 511.791 113.128C511.097 113.128 510.601 112.973 510.303 112.664C510.015 112.344 509.871 111.885 509.871 111.288V105.912H508.687C508.473 105.912 508.367 105.805 508.367 105.592V105.432C508.367 105.219 508.473 105.112 508.687 105.112H509.871V102.68C509.871 102.467 509.977 102.36 510.191 102.36H510.607C510.82 102.36 510.927 102.467 510.927 102.68V105.112H512.847C513.06 105.112 513.167 105.219 513.167 105.432V105.592C513.167 105.805 513.06 105.912 512.847 105.912H510.927V111.16C510.927 111.555 511.001 111.832 511.151 111.992C511.3 112.152 511.556 112.232 511.919 112.232C512.175 112.232 512.468 112.195 512.799 112.12ZM515.114 113C514.9 113 514.794 112.893 514.794 112.68V101.96C514.794 101.747 514.9 101.64 515.114 101.64H515.53C515.743 101.64 515.85 101.747 515.85 101.96V112.68C515.85 112.893 515.743 113 515.53 113H515.114ZM521.271 104.92C522.242 104.92 522.999 105.155 523.543 105.624C524.087 106.083 524.359 106.691 524.359 107.448V112.68C524.359 112.893 524.252 113 524.039 113H523.719C523.506 113 523.399 112.893 523.399 112.68V111.96C523.132 112.387 522.754 112.707 522.263 112.92C521.783 113.133 521.244 113.24 520.647 113.24C519.815 113.24 519.138 113.064 518.615 112.712C518.092 112.36 517.831 111.816 517.831 111.08C517.831 110.493 517.996 110.024 518.327 109.672C518.658 109.309 519.09 109.037 519.623 108.856C520.156 108.664 520.823 108.493 521.623 108.344L523.351 108.04V107.528C523.351 106.984 523.164 106.563 522.791 106.264C522.418 105.955 521.927 105.8 521.319 105.8C520.86 105.8 520.444 105.885 520.071 106.056C519.698 106.227 519.298 106.52 518.871 106.936C518.796 107.011 518.716 107.048 518.631 107.048C518.556 107.048 518.487 107.016 518.423 106.952L518.215 106.76C518.14 106.685 518.103 106.605 518.103 106.52C518.103 106.424 518.14 106.339 518.215 106.264C518.663 105.795 519.132 105.453 519.623 105.24C520.124 105.027 520.674 104.92 521.271 104.92ZM520.695 112.36C521.463 112.36 522.098 112.157 522.599 111.752C523.1 111.347 523.351 110.829 523.351 110.2V108.856L521.863 109.144C521.17 109.283 520.62 109.416 520.215 109.544C519.81 109.672 519.484 109.859 519.239 110.104C518.994 110.349 518.871 110.669 518.871 111.064C518.871 111.469 519.031 111.789 519.351 112.024C519.682 112.248 520.13 112.36 520.695 112.36ZM530.22 104.92C531.148 104.92 531.846 105.176 532.316 105.688C532.796 106.2 533.036 106.84 533.036 107.608V112.68C533.036 112.893 532.929 113 532.716 113H532.3C532.086 113 531.98 112.893 531.98 112.68V107.96C531.98 107.256 531.809 106.723 531.468 106.36C531.126 105.997 530.636 105.816 529.996 105.816C529.59 105.816 529.217 105.917 528.876 106.12C528.534 106.312 528.262 106.579 528.06 106.92C527.857 107.261 527.756 107.635 527.756 108.04V112.68C527.756 112.893 527.649 113 527.436 113H527.02C526.806 113 526.7 112.893 526.7 112.68V105.432C526.7 105.219 526.806 105.112 527.02 105.112H527.372C527.585 105.112 527.692 105.219 527.692 105.432V106.2C527.958 105.773 528.31 105.453 528.748 105.24C529.185 105.027 529.676 104.92 530.22 104.92ZM541.068 101.96C541.068 101.747 541.174 101.64 541.388 101.64H541.804C542.017 101.64 542.124 101.747 542.124 101.96V112.68C542.124 112.893 542.017 113 541.804 113H541.468C541.254 113 541.148 112.893 541.148 112.68V111.64C540.86 112.141 540.481 112.525 540.012 112.792C539.542 113.059 538.988 113.192 538.348 113.192C537.676 113.192 537.078 113.021 536.556 112.68C536.033 112.328 535.622 111.843 535.324 111.224C535.025 110.595 534.876 109.875 534.876 109.064C534.876 108.253 535.025 107.539 535.324 106.92C535.633 106.291 536.054 105.805 536.588 105.464C537.121 105.112 537.718 104.936 538.38 104.936C539.596 104.936 540.492 105.389 541.068 106.296V101.96ZM538.428 112.296C539.228 112.296 539.873 112.013 540.364 111.448C540.865 110.872 541.116 110.077 541.116 109.064C541.116 108.061 540.865 107.272 540.364 106.696C539.873 106.12 539.228 105.832 538.428 105.832C537.692 105.832 537.094 106.131 536.636 106.728C536.188 107.325 535.964 108.104 535.964 109.064C535.964 110.035 536.188 110.819 536.636 111.416C537.084 112.003 537.681 112.296 538.428 112.296ZM550.241 111.128C550.315 111.053 550.395 111.016 550.481 111.016C550.555 111.016 550.625 111.048 550.689 111.112L550.897 111.304C550.971 111.379 551.009 111.459 551.009 111.544C551.009 111.608 550.977 111.683 550.913 111.768C550.39 112.291 549.883 112.664 549.393 112.888C548.902 113.101 548.353 113.208 547.745 113.208C546.977 113.208 546.31 113.037 545.745 112.696C545.179 112.355 544.742 111.88 544.433 111.272C544.123 110.653 543.969 109.939 543.969 109.128C543.969 108.307 544.118 107.581 544.417 106.952C544.726 106.312 545.158 105.816 545.713 105.464C546.267 105.101 546.907 104.92 547.633 104.92C548.71 104.92 549.558 105.256 550.177 105.928C550.795 106.6 551.105 107.507 551.105 108.648V108.84C551.094 108.936 551.057 109.011 550.993 109.064C550.939 109.117 550.865 109.144 550.769 109.144H545.041C545.073 110.04 545.307 110.797 545.745 111.416C546.193 112.024 546.859 112.328 547.745 112.328C548.225 112.328 548.646 112.243 549.009 112.072C549.382 111.891 549.793 111.576 550.241 111.128ZM547.633 105.8C546.929 105.8 546.347 106.019 545.889 106.456C545.441 106.883 545.169 107.512 545.073 108.344H550.049C550.027 107.565 549.803 106.947 549.377 106.488C548.95 106.029 548.369 105.8 547.633 105.8ZM555.941 105.048C556.207 105.048 556.522 105.091 556.885 105.176C557.077 105.24 557.151 105.373 557.109 105.576L557.045 105.832C556.991 106.035 556.858 106.109 556.645 106.056C556.389 105.992 556.154 105.96 555.941 105.96C555.397 105.96 554.943 106.195 554.581 106.664C554.229 107.133 554.053 107.784 554.053 108.616V112.68C554.053 112.893 553.946 113 553.733 113H553.317C553.103 113 552.997 112.893 552.997 112.68V105.432C552.997 105.219 553.103 105.112 553.317 105.112H553.669C553.882 105.112 553.989 105.219 553.989 105.432V106.312C554.17 105.917 554.426 105.608 554.757 105.384C555.098 105.16 555.493 105.048 555.941 105.048Z" fill="#0063FB"/>
</svg>
