<svg width="688" height="320" viewBox="0 0 688 320" fill="none" xmlns="http://www.w3.org/2000/svg">
<rect width="688" height="320" fill="#F6F6F6"/>
<rect x="112" y="80" width="464" height="160" rx="8" fill="white"/>
<path d="M244.136 153.96C244.136 153.747 244.243 153.64 244.456 153.64H244.92C245.133 153.64 245.24 153.747 245.24 153.96V164.68C245.24 164.893 245.133 165 244.92 165H244.2C244.029 165 243.896 164.931 243.8 164.792L240.36 159.576L240.168 159.272C238.888 157.352 237.971 155.939 237.416 155.032C237.459 156.28 237.48 157.72 237.48 159.352V164.68C237.48 164.893 237.373 165 237.16 165H236.696C236.483 165 236.376 164.893 236.376 164.68V153.96C236.376 153.747 236.483 153.64 236.696 153.64H237.416C237.587 153.64 237.72 153.709 237.816 153.848L241.24 159.048L241.848 159.992C242.925 161.624 243.709 162.84 244.2 163.64C244.157 162.371 244.136 160.925 244.136 159.304V153.96ZM252.689 157.368C252.753 157.197 252.876 157.112 253.057 157.112H253.489C253.575 157.112 253.644 157.133 253.697 157.176C253.751 157.219 253.777 157.277 253.777 157.352L253.745 157.48L250.657 166.2C250.487 166.68 250.321 167.053 250.161 167.32C250.001 167.587 249.783 167.789 249.505 167.928C249.239 168.067 248.887 168.136 248.449 168.136C248.172 168.136 247.927 168.115 247.713 168.072C247.607 168.061 247.532 168.019 247.489 167.944C247.457 167.869 247.452 167.784 247.473 167.688L247.521 167.48C247.564 167.288 247.687 167.203 247.889 167.224C248.081 167.256 248.247 167.272 248.385 167.272C248.727 167.272 248.993 167.176 249.185 166.984C249.388 166.792 249.58 166.429 249.761 165.896L249.905 165.448L247.089 157.48L247.057 157.352C247.057 157.277 247.084 157.219 247.137 157.176C247.191 157.133 247.26 157.112 247.345 157.112H247.809C247.98 157.112 248.097 157.197 248.161 157.368L249.057 160.008C249.143 160.275 249.356 160.909 249.697 161.912L250.417 164.072C250.769 163.08 251.233 161.715 251.809 159.976L252.689 157.368ZM259.148 156.936C259.82 156.936 260.417 157.112 260.94 157.464C261.473 157.805 261.884 158.291 262.172 158.92C262.47 159.539 262.62 160.253 262.62 161.064C262.62 161.875 262.47 162.595 262.172 163.224C261.873 163.843 261.457 164.328 260.924 164.68C260.401 165.021 259.809 165.192 259.148 165.192C257.878 165.192 256.95 164.701 256.364 163.72V164.68C256.364 164.893 256.257 165 256.044 165H255.692C255.478 165 255.372 164.893 255.372 164.68V153.944C255.372 153.731 255.478 153.624 255.692 153.624H256.108C256.321 153.624 256.428 153.731 256.428 153.944V158.36C257.014 157.411 257.921 156.936 259.148 156.936ZM259.068 164.296C259.804 164.296 260.396 163.997 260.844 163.4C261.302 162.803 261.532 162.024 261.532 161.064C261.532 160.104 261.302 159.325 260.844 158.728C260.396 158.131 259.804 157.832 259.068 157.832C258.278 157.832 257.633 158.12 257.132 158.696C256.63 159.272 256.38 160.061 256.38 161.064C256.38 162.077 256.625 162.872 257.116 163.448C257.617 164.013 258.268 164.296 259.068 164.296ZM267.441 157.048C267.707 157.048 268.022 157.091 268.385 157.176C268.577 157.24 268.651 157.373 268.609 157.576L268.545 157.832C268.491 158.035 268.358 158.109 268.145 158.056C267.889 157.992 267.654 157.96 267.441 157.96C266.897 157.96 266.443 158.195 266.081 158.664C265.729 159.133 265.553 159.784 265.553 160.616V164.68C265.553 164.893 265.446 165 265.233 165H264.817C264.603 165 264.497 164.893 264.497 164.68V157.432C264.497 157.219 264.603 157.112 264.817 157.112H265.169C265.382 157.112 265.489 157.219 265.489 157.432V158.312C265.67 157.917 265.926 157.608 266.257 157.384C266.598 157.16 266.993 157.048 267.441 157.048ZM275.163 157.432C275.163 157.219 275.27 157.112 275.483 157.112H275.899C276.113 157.112 276.219 157.219 276.219 157.432V164.68C276.219 164.893 276.113 165 275.899 165H275.563C275.35 165 275.243 164.893 275.243 164.68V163.96C275.009 164.376 274.673 164.691 274.235 164.904C273.809 165.107 273.339 165.208 272.827 165.208C271.867 165.208 271.158 164.968 270.699 164.488C270.241 163.997 270.011 163.368 270.011 162.6V157.432C270.011 157.219 270.118 157.112 270.331 157.112H270.747C270.961 157.112 271.067 157.219 271.067 157.432V162.376C271.067 163.005 271.222 163.485 271.531 163.816C271.851 164.136 272.305 164.296 272.891 164.296C273.553 164.296 274.097 164.093 274.523 163.688C274.95 163.283 275.163 162.707 275.163 161.96V157.432ZM284.286 165C284.126 165 283.998 164.931 283.902 164.792L281.198 160.856L279.646 162.44V164.68C279.646 164.893 279.54 165 279.326 165H278.91C278.697 165 278.59 164.893 278.59 164.68V153.96C278.59 153.747 278.697 153.64 278.91 153.64H279.326C279.54 153.64 279.646 153.747 279.646 153.96V161.24L283.486 157.256C283.582 157.149 283.716 157.096 283.886 157.096H284.334C284.42 157.096 284.484 157.117 284.526 157.16C284.58 157.192 284.606 157.235 284.606 157.288C284.606 157.341 284.574 157.411 284.51 157.496L281.934 160.184L284.958 164.616C285.001 164.691 285.022 164.755 285.022 164.808C285.022 164.936 284.937 165 284.766 165H284.286ZM290.142 164.12C290.174 164.109 290.217 164.104 290.27 164.104C290.334 164.104 290.393 164.125 290.446 164.168C290.5 164.211 290.532 164.269 290.542 164.344L290.59 164.568C290.601 164.589 290.606 164.627 290.606 164.68C290.606 164.829 290.526 164.92 290.366 164.952C289.982 165.069 289.572 165.128 289.134 165.128C288.441 165.128 287.945 164.973 287.646 164.664C287.358 164.344 287.214 163.885 287.214 163.288V157.912H286.03C285.817 157.912 285.71 157.805 285.71 157.592V157.432C285.71 157.219 285.817 157.112 286.03 157.112H287.214V154.68C287.214 154.467 287.321 154.36 287.534 154.36H287.95C288.164 154.36 288.27 154.467 288.27 154.68V157.112H290.19C290.404 157.112 290.51 157.219 290.51 157.432V157.592C290.51 157.805 290.404 157.912 290.19 157.912H288.27V163.16C288.27 163.555 288.345 163.832 288.494 163.992C288.644 164.152 288.9 164.232 289.262 164.232C289.518 164.232 289.812 164.195 290.142 164.12Z" fill="#0063FB"/>
<path d="M299.816 165C299.624 165 299.528 164.925 299.528 164.776C299.528 164.744 299.539 164.696 299.56 164.632L304.248 153.88C304.312 153.72 304.44 153.64 304.632 153.64H304.968C305.16 153.64 305.256 153.715 305.256 153.864C305.256 153.896 305.245 153.944 305.224 154.008L300.536 164.76C300.472 164.92 300.344 165 300.152 165H299.816Z" fill="#1B1B1F"/>
<path d="M324.304 153.896C324.368 153.725 324.491 153.64 324.672 153.64H325.92C326.133 153.64 326.24 153.747 326.24 153.96V164.68C326.24 164.893 326.133 165 325.92 165H325.456C325.243 165 325.136 164.893 325.136 164.68V159.368C325.136 158.227 325.147 156.579 325.168 154.424C324.731 155.672 324.133 157.32 323.376 159.368L321.408 164.744C321.344 164.915 321.221 165 321.04 165H320.576C320.395 165 320.272 164.915 320.208 164.744L318.192 159.352C317.765 158.243 317.173 156.6 316.416 154.424C316.437 156.579 316.448 158.232 316.448 159.384V164.68C316.448 164.893 316.341 165 316.128 165H315.696C315.483 165 315.376 164.893 315.376 164.68V153.96C315.376 153.747 315.483 153.64 315.696 153.64H316.928C317.109 153.64 317.232 153.725 317.296 153.896L319.12 158.808C319.963 161.101 320.528 162.717 320.816 163.656C321.083 162.76 321.541 161.421 322.192 159.64C322.235 159.523 322.283 159.395 322.336 159.256C322.389 159.117 322.443 158.968 322.496 158.808L324.304 153.896ZM332.057 165.208C331.321 165.208 330.665 165.032 330.089 164.68C329.513 164.328 329.065 163.843 328.745 163.224C328.425 162.595 328.265 161.875 328.265 161.064C328.265 160.253 328.425 159.539 328.745 158.92C329.065 158.291 329.513 157.8 330.089 157.448C330.665 157.096 331.321 156.92 332.057 156.92C332.793 156.92 333.449 157.096 334.025 157.448C334.601 157.8 335.049 158.291 335.369 158.92C335.689 159.539 335.849 160.253 335.849 161.064C335.849 161.875 335.689 162.595 335.369 163.224C335.049 163.843 334.601 164.328 334.025 164.68C333.449 165.032 332.793 165.208 332.057 165.208ZM332.057 164.328C332.879 164.328 333.535 164.029 334.025 163.432C334.516 162.824 334.761 162.035 334.761 161.064C334.761 160.093 334.516 159.309 334.025 158.712C333.535 158.104 332.879 157.8 332.057 157.8C331.236 157.8 330.58 158.104 330.089 158.712C329.599 159.309 329.353 160.093 329.353 161.064C329.353 162.035 329.599 162.824 330.089 163.432C330.58 164.029 331.236 164.328 332.057 164.328ZM341.46 156.936C342.132 156.936 342.729 157.112 343.252 157.464C343.785 157.805 344.196 158.291 344.484 158.92C344.783 159.539 344.932 160.253 344.932 161.064C344.932 161.875 344.783 162.595 344.484 163.224C344.185 163.843 343.769 164.328 343.236 164.68C342.713 165.021 342.121 165.192 341.46 165.192C340.191 165.192 339.263 164.701 338.676 163.72V164.68C338.676 164.893 338.569 165 338.356 165H338.004C337.791 165 337.684 164.893 337.684 164.68V153.944C337.684 153.731 337.791 153.624 338.004 153.624H338.42C338.633 153.624 338.74 153.731 338.74 153.944V158.36C339.327 157.411 340.233 156.936 341.46 156.936ZM341.38 164.296C342.116 164.296 342.708 163.997 343.156 163.4C343.615 162.803 343.844 162.024 343.844 161.064C343.844 160.104 343.615 159.325 343.156 158.728C342.708 158.131 342.116 157.832 341.38 157.832C340.591 157.832 339.945 158.12 339.444 158.696C338.943 159.272 338.692 160.061 338.692 161.064C338.692 162.077 338.937 162.872 339.428 163.448C339.929 164.013 340.58 164.296 341.38 164.296ZM347.337 155.112C347.124 155.112 346.942 155.037 346.793 154.888C346.654 154.739 346.585 154.557 346.585 154.344C346.585 154.131 346.654 153.955 346.793 153.816C346.942 153.677 347.124 153.608 347.337 153.608C347.561 153.608 347.742 153.677 347.881 153.816C348.03 153.955 348.105 154.131 348.105 154.344C348.105 154.557 348.03 154.739 347.881 154.888C347.742 155.037 347.561 155.112 347.337 155.112ZM347.129 165C346.916 165 346.809 164.893 346.809 164.68V157.432C346.809 157.219 346.916 157.112 347.129 157.112H347.545C347.758 157.112 347.865 157.219 347.865 157.432V164.68C347.865 164.893 347.758 165 347.545 165H347.129ZM350.551 165C350.338 165 350.231 164.893 350.231 164.68V153.96C350.231 153.747 350.338 153.64 350.551 153.64H350.967C351.181 153.64 351.287 153.747 351.287 153.96V164.68C351.287 164.893 351.181 165 350.967 165H350.551ZM359.412 163.128C359.487 163.053 359.567 163.016 359.652 163.016C359.727 163.016 359.796 163.048 359.86 163.112L360.068 163.304C360.143 163.379 360.18 163.459 360.18 163.544C360.18 163.608 360.148 163.683 360.084 163.768C359.562 164.291 359.055 164.664 358.564 164.888C358.074 165.101 357.524 165.208 356.916 165.208C356.148 165.208 355.482 165.037 354.916 164.696C354.351 164.355 353.914 163.88 353.604 163.272C353.295 162.653 353.14 161.939 353.14 161.128C353.14 160.307 353.29 159.581 353.588 158.952C353.898 158.312 354.33 157.816 354.884 157.464C355.439 157.101 356.079 156.92 356.804 156.92C357.882 156.92 358.73 157.256 359.348 157.928C359.967 158.6 360.276 159.507 360.276 160.648V160.84C360.266 160.936 360.228 161.011 360.164 161.064C360.111 161.117 360.036 161.144 359.94 161.144H354.212C354.244 162.04 354.479 162.797 354.916 163.416C355.364 164.024 356.031 164.328 356.916 164.328C357.396 164.328 357.818 164.243 358.18 164.072C358.554 163.891 358.964 163.576 359.412 163.128ZM356.804 157.8C356.1 157.8 355.519 158.019 355.06 158.456C354.612 158.883 354.34 159.512 354.244 160.344H359.22C359.199 159.565 358.975 158.947 358.548 158.488C358.122 158.029 357.54 157.8 356.804 157.8Z" fill="#0063FB"/>
<path d="M369.816 165C369.624 165 369.528 164.925 369.528 164.776C369.528 164.744 369.539 164.696 369.56 164.632L374.248 153.88C374.312 153.72 374.44 153.64 374.632 153.64H374.968C375.16 153.64 375.256 153.715 375.256 153.864C375.256 153.896 375.245 153.944 375.224 154.008L370.536 164.76C370.472 164.92 370.344 165 370.152 165H369.816Z" fill="#1B1B1F"/>
<path d="M385.712 155.112C385.499 155.112 385.317 155.037 385.168 154.888C385.029 154.739 384.96 154.557 384.96 154.344C384.96 154.131 385.029 153.955 385.168 153.816C385.317 153.677 385.499 153.608 385.712 153.608C385.936 153.608 386.117 153.677 386.256 153.816C386.405 153.955 386.48 154.131 386.48 154.344C386.48 154.557 386.405 154.739 386.256 154.888C386.117 155.037 385.936 155.112 385.712 155.112ZM385.504 165C385.291 165 385.184 164.893 385.184 164.68V157.432C385.184 157.219 385.291 157.112 385.504 157.112H385.92C386.133 157.112 386.24 157.219 386.24 157.432V164.68C386.24 164.893 386.133 165 385.92 165H385.504ZM389.102 165C388.889 165 388.782 164.893 388.782 164.68V153.96C388.782 153.747 388.889 153.64 389.102 153.64H393.406C394.505 153.64 395.39 153.928 396.062 154.504C396.734 155.08 397.07 155.896 397.07 156.952C397.07 158.008 396.734 158.829 396.062 159.416C395.39 159.992 394.505 160.28 393.406 160.28H389.918V164.68C389.918 164.893 389.812 165 389.598 165H389.102ZM393.262 159.336C394.094 159.336 394.75 159.133 395.23 158.728C395.71 158.323 395.95 157.731 395.95 156.952C395.95 156.184 395.71 155.597 395.23 155.192C394.75 154.787 394.094 154.584 393.262 154.584H389.918V159.336H393.262ZM402.298 156.92C403.215 156.92 403.914 157.181 404.394 157.704C404.874 158.216 405.114 158.851 405.114 159.608V164.68C405.114 164.893 405.007 165 404.794 165H404.378C404.164 165 404.058 164.893 404.058 164.68V159.96C404.058 159.256 403.887 158.723 403.546 158.36C403.204 157.997 402.714 157.816 402.074 157.816C401.668 157.816 401.295 157.917 400.954 158.12C400.612 158.312 400.34 158.579 400.138 158.92C399.935 159.261 399.834 159.635 399.834 160.04V164.68C399.834 164.893 399.727 165 399.514 165H399.098C398.884 165 398.778 164.893 398.778 164.68V153.96C398.778 153.747 398.884 153.64 399.098 153.64H399.514C399.727 153.64 399.834 153.747 399.834 153.96V158.136C400.09 157.731 400.431 157.427 400.858 157.224C401.295 157.021 401.775 156.92 402.298 156.92ZM410.714 165.208C409.978 165.208 409.322 165.032 408.746 164.68C408.17 164.328 407.722 163.843 407.402 163.224C407.082 162.595 406.922 161.875 406.922 161.064C406.922 160.253 407.082 159.539 407.402 158.92C407.722 158.291 408.17 157.8 408.746 157.448C409.322 157.096 409.978 156.92 410.714 156.92C411.45 156.92 412.106 157.096 412.682 157.448C413.258 157.8 413.706 158.291 414.026 158.92C414.346 159.539 414.506 160.253 414.506 161.064C414.506 161.875 414.346 162.595 414.026 163.224C413.706 163.843 413.258 164.328 412.682 164.68C412.106 165.032 411.45 165.208 410.714 165.208ZM410.714 164.328C411.535 164.328 412.191 164.029 412.682 163.432C413.172 162.824 413.418 162.035 413.418 161.064C413.418 160.093 413.172 159.309 412.682 158.712C412.191 158.104 411.535 157.8 410.714 157.8C409.892 157.8 409.236 158.104 408.746 158.712C408.255 159.309 408.01 160.093 408.01 161.064C408.01 162.035 408.255 162.824 408.746 163.432C409.236 164.029 409.892 164.328 410.714 164.328ZM419.86 156.92C420.788 156.92 421.487 157.176 421.956 157.688C422.436 158.2 422.676 158.84 422.676 159.608V164.68C422.676 164.893 422.57 165 422.356 165H421.94C421.727 165 421.62 164.893 421.62 164.68V159.96C421.62 159.256 421.45 158.723 421.108 158.36C420.767 157.997 420.276 157.816 419.636 157.816C419.231 157.816 418.858 157.917 418.516 158.12C418.175 158.312 417.903 158.579 417.7 158.92C417.498 159.261 417.396 159.635 417.396 160.04V164.68C417.396 164.893 417.29 165 417.076 165H416.66C416.447 165 416.34 164.893 416.34 164.68V157.432C416.34 157.219 416.447 157.112 416.66 157.112H417.012C417.226 157.112 417.332 157.219 417.332 157.432V158.2C417.599 157.773 417.951 157.453 418.388 157.24C418.826 157.027 419.316 156.92 419.86 156.92ZM430.756 163.128C430.831 163.053 430.911 163.016 430.996 163.016C431.071 163.016 431.14 163.048 431.204 163.112L431.412 163.304C431.487 163.379 431.524 163.459 431.524 163.544C431.524 163.608 431.492 163.683 431.428 163.768C430.905 164.291 430.399 164.664 429.908 164.888C429.417 165.101 428.868 165.208 428.26 165.208C427.492 165.208 426.825 165.037 426.26 164.696C425.695 164.355 425.257 163.88 424.948 163.272C424.639 162.653 424.484 161.939 424.484 161.128C424.484 160.307 424.633 159.581 424.932 158.952C425.241 158.312 425.673 157.816 426.228 157.464C426.783 157.101 427.423 156.92 428.148 156.92C429.225 156.92 430.073 157.256 430.692 157.928C431.311 158.6 431.62 159.507 431.62 160.648V160.84C431.609 160.936 431.572 161.011 431.508 161.064C431.455 161.117 431.38 161.144 431.284 161.144H425.556C425.588 162.04 425.823 162.797 426.26 163.416C426.708 164.024 427.375 164.328 428.26 164.328C428.74 164.328 429.161 164.243 429.524 164.072C429.897 163.891 430.308 163.576 430.756 163.128ZM428.148 157.8C427.444 157.8 426.863 158.019 426.404 158.456C425.956 158.883 425.684 159.512 425.588 160.344H430.564C430.543 159.565 430.319 158.947 429.892 158.488C429.465 158.029 428.884 157.8 428.148 157.8ZM439.984 153.768C440.101 153.683 440.234 153.64 440.384 153.64H440.64C440.853 153.64 440.96 153.747 440.96 153.96V164.68C440.96 164.893 440.853 165 440.64 165H440.208C439.994 165 439.888 164.893 439.888 164.68V155.016L437.472 156.744C437.397 156.797 437.328 156.824 437.264 156.824C437.168 156.824 437.088 156.776 437.024 156.68L436.864 156.44C436.821 156.387 436.8 156.323 436.8 156.248C436.8 156.152 436.848 156.067 436.944 155.992L439.984 153.768ZM451.644 164.072C451.857 164.072 451.964 164.179 451.964 164.392V164.68C451.964 164.893 451.857 165 451.644 165H444.54C444.327 165 444.22 164.893 444.22 164.68V164.616C444.22 163.837 444.353 163.181 444.62 162.648C444.897 162.104 445.255 161.645 445.692 161.272C446.14 160.899 446.753 160.472 447.532 159.992C447.607 159.939 447.884 159.773 448.364 159.496C448.929 159.176 449.372 158.899 449.692 158.664C450.012 158.429 450.279 158.141 450.492 157.8C450.705 157.448 450.812 157.037 450.812 156.568C450.812 155.853 450.572 155.304 450.092 154.92C449.612 154.536 449.031 154.344 448.348 154.344C447.687 154.344 447.137 154.483 446.7 154.76C446.263 155.037 445.756 155.517 445.18 156.2C445.105 156.296 445.015 156.344 444.908 156.344C444.855 156.344 444.791 156.317 444.716 156.264L444.444 156.056C444.348 155.971 444.3 155.885 444.3 155.8C444.3 155.747 444.327 155.683 444.38 155.608C444.945 154.893 445.532 154.349 446.14 153.976C446.759 153.603 447.484 153.416 448.316 153.416C449.009 153.416 449.628 153.549 450.172 153.816C450.716 154.072 451.137 154.44 451.436 154.92C451.745 155.389 451.9 155.923 451.9 156.52C451.9 157.149 451.767 157.693 451.5 158.152C451.244 158.6 450.919 158.973 450.524 159.272C450.129 159.56 449.596 159.901 448.924 160.296L448.124 160.776C447.452 161.192 446.94 161.533 446.588 161.8C446.236 162.056 445.943 162.371 445.708 162.744C445.473 163.107 445.335 163.549 445.292 164.072H451.644Z" fill="#1B1B1F"/>
<rect x="246.5" y="45" width="40" height="40" rx="20" fill="#BE3830"/>
<path d="M264.79 61.04V59.878H267.422V70H266.134V61.04H264.79Z" fill="white"/>
<rect width="62" height="3" transform="translate(268 85) rotate(90)" fill="#BE3830"/>
<rect x="400" y="45" width="41" height="40" rx="20" fill="#BE3830"/>
<path d="M417.218 62.426C417.283 61.5673 417.615 60.8953 418.212 60.41C418.809 59.9247 419.584 59.682 420.536 59.682C421.171 59.682 421.717 59.7987 422.174 60.032C422.641 60.256 422.991 60.564 423.224 60.956C423.467 61.348 423.588 61.7913 423.588 62.286C423.588 62.8647 423.42 63.364 423.084 63.784C422.757 64.204 422.328 64.4747 421.796 64.596V64.666C422.403 64.8153 422.883 65.1093 423.238 65.548C423.593 65.9867 423.77 66.5607 423.77 67.27C423.77 67.802 423.649 68.2827 423.406 68.712C423.163 69.132 422.799 69.4633 422.314 69.706C421.829 69.9487 421.245 70.07 420.564 70.07C419.575 70.07 418.763 69.8133 418.128 69.3C417.493 68.7773 417.139 68.04 417.064 67.088H418.296C418.361 67.648 418.59 68.1053 418.982 68.46C419.374 68.8147 419.897 68.992 420.55 68.992C421.203 68.992 421.698 68.824 422.034 68.488C422.379 68.1427 422.552 67.6993 422.552 67.158C422.552 66.458 422.319 65.954 421.852 65.646C421.385 65.338 420.681 65.184 419.738 65.184H419.416V64.12H419.752C420.611 64.1107 421.259 63.9707 421.698 63.7C422.137 63.42 422.356 62.9907 422.356 62.412C422.356 61.9173 422.193 61.5207 421.866 61.222C421.549 60.9233 421.091 60.774 420.494 60.774C419.915 60.774 419.449 60.9233 419.094 61.222C418.739 61.5207 418.529 61.922 418.464 62.426H417.218Z" fill="white"/>
<rect width="62" height="3" transform="translate(422 85) rotate(90)" fill="#BE3830"/>
<rect width="62" height="3" transform="translate(302 171) rotate(90)" fill="#BE3830"/>
<rect x="280" y="233" width="41" height="40" rx="20" fill="#BE3830"/>
<path d="M297.188 256.978C298.373 256.026 299.302 255.247 299.974 254.64C300.646 254.024 301.21 253.385 301.668 252.722C302.134 252.05 302.368 251.392 302.368 250.748C302.368 250.141 302.218 249.665 301.92 249.32C301.63 248.965 301.159 248.788 300.506 248.788C299.871 248.788 299.376 248.989 299.022 249.39C298.676 249.782 298.49 250.309 298.462 250.972H297.23C297.267 249.927 297.584 249.119 298.182 248.55C298.779 247.981 299.549 247.696 300.492 247.696C301.453 247.696 302.214 247.962 302.774 248.494C303.343 249.026 303.628 249.759 303.628 250.692C303.628 251.467 303.394 252.223 302.928 252.96C302.47 253.688 301.948 254.332 301.36 254.892C300.772 255.443 300.02 256.087 299.106 256.824H303.922V257.888H297.188V256.978Z" fill="white"/>
</svg>
