<svg width="688" height="230" viewBox="0 0 688 230" fill="none" xmlns="http://www.w3.org/2000/svg">
<rect width="688" height="230" fill="#F6F6F6"/>
<rect x="156.5" y="80" width="375" height="70" rx="8" fill="white"/>
<path d="M197.996 120C197.783 120 197.676 119.893 197.676 119.68V109.584H194.332C194.119 109.584 194.012 109.477 194.012 109.264V108.96C194.012 108.747 194.119 108.64 194.332 108.64H202.14C202.353 108.64 202.46 108.747 202.46 108.96V109.264C202.46 109.477 202.353 109.584 202.14 109.584H198.812V119.68C198.812 119.893 198.705 120 198.492 120H197.996ZM207.673 111.92C208.59 111.92 209.289 112.181 209.769 112.704C210.249 113.216 210.489 113.851 210.489 114.608V119.68C210.489 119.893 210.382 120 210.169 120H209.753C209.539 120 209.433 119.893 209.433 119.68V114.96C209.433 114.256 209.262 113.723 208.921 113.36C208.579 112.997 208.089 112.816 207.449 112.816C207.043 112.816 206.67 112.917 206.329 113.12C205.987 113.312 205.715 113.579 205.513 113.92C205.31 114.261 205.209 114.635 205.209 115.04V119.68C205.209 119.893 205.102 120 204.889 120H204.473C204.259 120 204.153 119.893 204.153 119.68V108.96C204.153 108.747 204.259 108.64 204.473 108.64H204.889C205.102 108.64 205.209 108.747 205.209 108.96V113.136C205.465 112.731 205.806 112.427 206.233 112.224C206.67 112.021 207.15 111.92 207.673 111.92ZM213.353 110.112C213.139 110.112 212.958 110.037 212.809 109.888C212.67 109.739 212.601 109.557 212.601 109.344C212.601 109.131 212.67 108.955 212.809 108.816C212.958 108.677 213.139 108.608 213.353 108.608C213.577 108.608 213.758 108.677 213.897 108.816C214.046 108.955 214.121 109.131 214.121 109.344C214.121 109.557 214.046 109.739 213.897 109.888C213.758 110.037 213.577 110.112 213.353 110.112ZM213.145 120C212.931 120 212.825 119.893 212.825 119.68V112.432C212.825 112.219 212.931 112.112 213.145 112.112H213.561C213.774 112.112 213.881 112.219 213.881 112.432V119.68C213.881 119.893 213.774 120 213.561 120H213.145ZM218.983 120.208C218.332 120.208 217.756 120.117 217.255 119.936C216.764 119.744 216.247 119.424 215.703 118.976C215.607 118.912 215.559 118.837 215.559 118.752C215.559 118.677 215.596 118.603 215.671 118.528L215.879 118.304C215.943 118.219 216.023 118.176 216.119 118.176C216.194 118.176 216.263 118.208 216.327 118.272C216.839 118.667 217.292 118.944 217.687 119.104C218.082 119.253 218.514 119.328 218.983 119.328C219.57 119.328 220.05 119.2 220.423 118.944C220.796 118.677 220.983 118.32 220.983 117.872C220.983 117.424 220.791 117.093 220.407 116.88C220.023 116.667 219.431 116.475 218.631 116.304C217.927 116.155 217.372 116 216.967 115.84C216.572 115.669 216.279 115.456 216.087 115.2C215.895 114.944 215.799 114.608 215.799 114.192C215.799 113.509 216.076 112.96 216.631 112.544C217.186 112.128 217.884 111.92 218.727 111.92C219.303 111.92 219.815 111.995 220.263 112.144C220.722 112.283 221.18 112.517 221.639 112.848C221.735 112.923 221.783 113.003 221.783 113.088C221.783 113.141 221.756 113.211 221.703 113.296L221.511 113.536C221.458 113.621 221.383 113.664 221.287 113.664C221.202 113.664 221.127 113.637 221.063 113.584C220.626 113.275 220.236 113.067 219.895 112.96C219.564 112.853 219.186 112.8 218.759 112.8C218.172 112.8 217.703 112.928 217.351 113.184C216.999 113.44 216.823 113.765 216.823 114.16C216.823 114.405 216.903 114.603 217.063 114.752C217.223 114.901 217.452 115.029 217.751 115.136C218.05 115.232 218.487 115.344 219.063 115.472C220.13 115.707 220.887 115.995 221.335 116.336C221.794 116.677 222.023 117.173 222.023 117.824C222.023 118.539 221.74 119.115 221.175 119.552C220.61 119.989 219.879 120.208 218.983 120.208ZM228.025 110.112C227.811 110.112 227.63 110.037 227.481 109.888C227.342 109.739 227.273 109.557 227.273 109.344C227.273 109.131 227.342 108.955 227.481 108.816C227.63 108.677 227.811 108.608 228.025 108.608C228.249 108.608 228.43 108.677 228.569 108.816C228.718 108.955 228.793 109.131 228.793 109.344C228.793 109.557 228.718 109.739 228.569 109.888C228.43 110.037 228.249 110.112 228.025 110.112ZM227.817 120C227.603 120 227.497 119.893 227.497 119.68V112.432C227.497 112.219 227.603 112.112 227.817 112.112H228.233C228.446 112.112 228.553 112.219 228.553 112.432V119.68C228.553 119.893 228.446 120 228.233 120H227.817ZM233.655 120.208C233.004 120.208 232.428 120.117 231.927 119.936C231.436 119.744 230.919 119.424 230.375 118.976C230.279 118.912 230.231 118.837 230.231 118.752C230.231 118.677 230.268 118.603 230.343 118.528L230.551 118.304C230.615 118.219 230.695 118.176 230.791 118.176C230.865 118.176 230.935 118.208 230.999 118.272C231.511 118.667 231.964 118.944 232.359 119.104C232.753 119.253 233.185 119.328 233.655 119.328C234.241 119.328 234.721 119.2 235.095 118.944C235.468 118.677 235.655 118.32 235.655 117.872C235.655 117.424 235.463 117.093 235.079 116.88C234.695 116.667 234.103 116.475 233.303 116.304C232.599 116.155 232.044 116 231.639 115.84C231.244 115.669 230.951 115.456 230.759 115.2C230.567 114.944 230.471 114.608 230.471 114.192C230.471 113.509 230.748 112.96 231.303 112.544C231.857 112.128 232.556 111.92 233.399 111.92C233.975 111.92 234.487 111.995 234.935 112.144C235.393 112.283 235.852 112.517 236.311 112.848C236.407 112.923 236.455 113.003 236.455 113.088C236.455 113.141 236.428 113.211 236.375 113.296L236.183 113.536C236.129 113.621 236.055 113.664 235.959 113.664C235.873 113.664 235.799 113.637 235.735 113.584C235.297 113.275 234.908 113.067 234.567 112.96C234.236 112.853 233.857 112.8 233.431 112.8C232.844 112.8 232.375 112.928 232.023 113.184C231.671 113.44 231.495 113.765 231.495 114.16C231.495 114.405 231.575 114.603 231.735 114.752C231.895 114.901 232.124 115.029 232.423 115.136C232.721 115.232 233.159 115.344 233.735 115.472C234.801 115.707 235.559 115.995 236.007 116.336C236.465 116.677 236.695 117.173 236.695 117.824C236.695 118.539 236.412 119.115 235.847 119.552C235.281 119.989 234.551 120.208 233.655 120.208ZM245.208 111.92C246.179 111.92 246.936 112.155 247.48 112.624C248.024 113.083 248.296 113.691 248.296 114.448V119.68C248.296 119.893 248.19 120 247.976 120H247.656C247.443 120 247.336 119.893 247.336 119.68V118.96C247.07 119.387 246.691 119.707 246.2 119.92C245.72 120.133 245.182 120.24 244.584 120.24C243.752 120.24 243.075 120.064 242.552 119.712C242.03 119.36 241.768 118.816 241.768 118.08C241.768 117.493 241.934 117.024 242.264 116.672C242.595 116.309 243.027 116.037 243.56 115.856C244.094 115.664 244.76 115.493 245.56 115.344L247.288 115.04V114.528C247.288 113.984 247.102 113.563 246.728 113.264C246.355 112.955 245.864 112.8 245.256 112.8C244.798 112.8 244.382 112.885 244.008 113.056C243.635 113.227 243.235 113.52 242.808 113.936C242.734 114.011 242.654 114.048 242.568 114.048C242.494 114.048 242.424 114.016 242.36 113.952L242.152 113.76C242.078 113.685 242.04 113.605 242.04 113.52C242.04 113.424 242.078 113.339 242.152 113.264C242.6 112.795 243.07 112.453 243.56 112.24C244.062 112.027 244.611 111.92 245.208 111.92ZM244.632 119.36C245.4 119.36 246.035 119.157 246.536 118.752C247.038 118.347 247.288 117.829 247.288 117.2V115.856L245.8 116.144C245.107 116.283 244.558 116.416 244.152 116.544C243.747 116.672 243.422 116.859 243.176 117.104C242.931 117.349 242.808 117.669 242.808 118.064C242.808 118.469 242.968 118.789 243.288 119.024C243.619 119.248 244.067 119.36 244.632 119.36ZM254.661 120C254.447 120 254.341 119.893 254.341 119.68V108.96C254.341 108.747 254.447 108.64 254.661 108.64H255.077C255.29 108.64 255.397 108.747 255.397 108.96V119.68C255.397 119.893 255.29 120 255.077 120H254.661ZM261.042 120.208C260.306 120.208 259.65 120.032 259.074 119.68C258.498 119.328 258.05 118.843 257.73 118.224C257.41 117.595 257.25 116.875 257.25 116.064C257.25 115.253 257.41 114.539 257.73 113.92C258.05 113.291 258.498 112.8 259.074 112.448C259.65 112.096 260.306 111.92 261.042 111.92C261.778 111.92 262.434 112.096 263.01 112.448C263.586 112.8 264.034 113.291 264.354 113.92C264.674 114.539 264.834 115.253 264.834 116.064C264.834 116.875 264.674 117.595 264.354 118.224C264.034 118.843 263.586 119.328 263.01 119.68C262.434 120.032 261.778 120.208 261.042 120.208ZM261.042 119.328C261.863 119.328 262.519 119.029 263.01 118.432C263.5 117.824 263.746 117.035 263.746 116.064C263.746 115.093 263.5 114.309 263.01 113.712C262.519 113.104 261.863 112.8 261.042 112.8C260.22 112.8 259.564 113.104 259.074 113.712C258.583 114.309 258.338 115.093 258.338 116.064C258.338 117.035 258.583 117.824 259.074 118.432C259.564 119.029 260.22 119.328 261.042 119.328ZM270.188 111.92C271.116 111.92 271.815 112.176 272.284 112.688C272.764 113.2 273.004 113.84 273.004 114.608V119.68C273.004 119.893 272.898 120 272.684 120H272.268C272.055 120 271.948 119.893 271.948 119.68V114.96C271.948 114.256 271.778 113.723 271.436 113.36C271.095 112.997 270.604 112.816 269.964 112.816C269.559 112.816 269.186 112.917 268.844 113.12C268.503 113.312 268.231 113.579 268.028 113.92C267.826 114.261 267.724 114.635 267.724 115.04V119.68C267.724 119.893 267.618 120 267.404 120H266.988C266.775 120 266.668 119.893 266.668 119.68V112.432C266.668 112.219 266.775 112.112 266.988 112.112H267.34C267.554 112.112 267.66 112.219 267.66 112.432V113.2C267.927 112.773 268.279 112.453 268.716 112.24C269.154 112.027 269.644 111.92 270.188 111.92ZM281.004 112.432C281.004 112.219 281.111 112.112 281.324 112.112H281.66C281.874 112.112 281.98 112.219 281.98 112.432V119.92C281.98 120.912 281.682 121.691 281.084 122.256C280.487 122.832 279.65 123.12 278.572 123.12C277.41 123.12 276.338 122.789 275.356 122.128C275.25 122.064 275.196 121.984 275.196 121.888C275.196 121.813 275.218 121.749 275.26 121.696L275.452 121.424C275.516 121.317 275.602 121.264 275.708 121.264C275.751 121.264 275.815 121.285 275.9 121.328C276.37 121.627 276.807 121.851 277.212 122C277.628 122.149 278.082 122.224 278.572 122.224C279.276 122.224 279.847 122.027 280.284 121.632C280.722 121.248 280.94 120.651 280.94 119.84V118.56C280.364 119.488 279.49 119.952 278.316 119.952C277.634 119.952 277.031 119.781 276.508 119.44C275.986 119.088 275.58 118.608 275.292 118C275.015 117.392 274.876 116.704 274.876 115.936C274.876 115.168 275.015 114.48 275.292 113.872C275.58 113.264 275.986 112.789 276.508 112.448C277.031 112.096 277.634 111.92 278.316 111.92C278.935 111.92 279.468 112.053 279.916 112.32C280.375 112.576 280.738 112.944 281.004 113.424V112.432ZM278.428 119.056C279.196 119.056 279.81 118.768 280.268 118.192C280.727 117.605 280.956 116.853 280.956 115.936C280.956 115.019 280.727 114.272 280.268 113.696C279.81 113.109 279.196 112.816 278.428 112.816C277.65 112.816 277.042 113.104 276.604 113.68C276.178 114.256 275.964 115.008 275.964 115.936C275.964 116.864 276.178 117.616 276.604 118.192C277.042 118.768 277.65 119.056 278.428 119.056ZM291.819 111.936C292.491 111.936 293.089 112.112 293.611 112.464C294.145 112.805 294.555 113.291 294.843 113.92C295.142 114.539 295.291 115.253 295.291 116.064C295.291 116.875 295.142 117.595 294.843 118.224C294.545 118.843 294.129 119.328 293.595 119.68C293.073 120.021 292.481 120.192 291.819 120.192C290.55 120.192 289.622 119.701 289.035 118.72V119.68C289.035 119.893 288.929 120 288.715 120H288.363C288.15 120 288.043 119.893 288.043 119.68V108.944C288.043 108.731 288.15 108.624 288.363 108.624H288.779C288.993 108.624 289.099 108.731 289.099 108.944V113.36C289.686 112.411 290.593 111.936 291.819 111.936ZM291.739 119.296C292.475 119.296 293.067 118.997 293.515 118.4C293.974 117.803 294.203 117.024 294.203 116.064C294.203 115.104 293.974 114.325 293.515 113.728C293.067 113.131 292.475 112.832 291.739 112.832C290.95 112.832 290.305 113.12 289.803 113.696C289.302 114.272 289.051 115.061 289.051 116.064C289.051 117.077 289.297 117.872 289.787 118.448C290.289 119.013 290.939 119.296 291.739 119.296ZM300.112 112.048C300.379 112.048 300.694 112.091 301.056 112.176C301.248 112.24 301.323 112.373 301.28 112.576L301.216 112.832C301.163 113.035 301.03 113.109 300.816 113.056C300.56 112.992 300.326 112.96 300.112 112.96C299.568 112.96 299.115 113.195 298.752 113.664C298.4 114.133 298.224 114.784 298.224 115.616V119.68C298.224 119.893 298.118 120 297.904 120H297.488C297.275 120 297.168 119.893 297.168 119.68V112.432C297.168 112.219 297.275 112.112 297.488 112.112H297.84C298.054 112.112 298.16 112.219 298.16 112.432V113.312C298.342 112.917 298.598 112.608 298.928 112.384C299.27 112.16 299.664 112.048 300.112 112.048ZM308.022 118.128C308.096 118.053 308.176 118.016 308.262 118.016C308.336 118.016 308.406 118.048 308.47 118.112L308.678 118.304C308.752 118.379 308.79 118.459 308.79 118.544C308.79 118.608 308.758 118.683 308.694 118.768C308.171 119.291 307.664 119.664 307.174 119.888C306.683 120.101 306.134 120.208 305.526 120.208C304.758 120.208 304.091 120.037 303.526 119.696C302.96 119.355 302.523 118.88 302.214 118.272C301.904 117.653 301.75 116.939 301.75 116.128C301.75 115.307 301.899 114.581 302.198 113.952C302.507 113.312 302.939 112.816 303.494 112.464C304.048 112.101 304.688 111.92 305.414 111.92C306.491 111.92 307.339 112.256 307.958 112.928C308.576 113.6 308.886 114.507 308.886 115.648V115.84C308.875 115.936 308.838 116.011 308.774 116.064C308.72 116.117 308.646 116.144 308.55 116.144H302.822C302.854 117.04 303.088 117.797 303.526 118.416C303.974 119.024 304.64 119.328 305.526 119.328C306.006 119.328 306.427 119.243 306.79 119.072C307.163 118.891 307.574 118.576 308.022 118.128ZM305.414 112.8C304.71 112.8 304.128 113.019 303.67 113.456C303.222 113.883 302.95 114.512 302.854 115.344H307.83C307.808 114.565 307.584 113.947 307.158 113.488C306.731 113.029 306.15 112.8 305.414 112.8ZM313.677 111.92C314.648 111.92 315.405 112.155 315.949 112.624C316.493 113.083 316.765 113.691 316.765 114.448V119.68C316.765 119.893 316.658 120 316.445 120H316.125C315.912 120 315.805 119.893 315.805 119.68V118.96C315.538 119.387 315.16 119.707 314.669 119.92C314.189 120.133 313.65 120.24 313.053 120.24C312.221 120.24 311.544 120.064 311.021 119.712C310.498 119.36 310.237 118.816 310.237 118.08C310.237 117.493 310.402 117.024 310.733 116.672C311.064 116.309 311.496 116.037 312.029 115.856C312.562 115.664 313.229 115.493 314.029 115.344L315.757 115.04V114.528C315.757 113.984 315.57 113.563 315.197 113.264C314.824 112.955 314.333 112.8 313.725 112.8C313.266 112.8 312.85 112.885 312.477 113.056C312.104 113.227 311.704 113.52 311.277 113.936C311.202 114.011 311.122 114.048 311.037 114.048C310.962 114.048 310.893 114.016 310.829 113.952L310.621 113.76C310.546 113.685 310.509 113.605 310.509 113.52C310.509 113.424 310.546 113.339 310.621 113.264C311.069 112.795 311.538 112.453 312.029 112.24C312.53 112.027 313.08 111.92 313.677 111.92ZM313.101 119.36C313.869 119.36 314.504 119.157 315.005 118.752C315.506 118.347 315.757 117.829 315.757 117.2V115.856L314.269 116.144C313.576 116.283 313.026 116.416 312.621 116.544C312.216 116.672 311.89 116.859 311.645 117.104C311.4 117.349 311.277 117.669 311.277 118.064C311.277 118.469 311.437 118.789 311.757 119.024C312.088 119.248 312.536 119.36 313.101 119.36ZM324.802 108.96C324.802 108.747 324.909 108.64 325.122 108.64H325.538C325.751 108.64 325.858 108.747 325.858 108.96V119.68C325.858 119.893 325.751 120 325.538 120H325.202C324.989 120 324.882 119.893 324.882 119.68V118.64C324.594 119.141 324.215 119.525 323.746 119.792C323.277 120.059 322.722 120.192 322.082 120.192C321.41 120.192 320.813 120.021 320.29 119.68C319.767 119.328 319.357 118.843 319.058 118.224C318.759 117.595 318.61 116.875 318.61 116.064C318.61 115.253 318.759 114.539 319.058 113.92C319.367 113.291 319.789 112.805 320.322 112.464C320.855 112.112 321.453 111.936 322.114 111.936C323.33 111.936 324.226 112.389 324.802 113.296V108.96ZM322.162 119.296C322.962 119.296 323.607 119.013 324.098 118.448C324.599 117.872 324.85 117.077 324.85 116.064C324.85 115.061 324.599 114.272 324.098 113.696C323.607 113.12 322.962 112.832 322.162 112.832C321.426 112.832 320.829 113.131 320.37 113.728C319.922 114.325 319.698 115.104 319.698 116.064C319.698 117.035 319.922 117.819 320.37 118.416C320.818 119.003 321.415 119.296 322.162 119.296ZM331.431 120.208C330.674 120.208 330.012 120.037 329.447 119.696C328.892 119.344 328.46 118.859 328.151 118.24C327.852 117.611 327.703 116.885 327.703 116.064C327.703 115.253 327.852 114.533 328.151 113.904C328.46 113.275 328.892 112.789 329.447 112.448C330.012 112.096 330.663 111.92 331.399 111.92C331.996 111.92 332.519 112.021 332.967 112.224C333.415 112.416 333.847 112.736 334.263 113.184C334.327 113.248 334.359 113.317 334.359 113.392C334.359 113.488 334.316 113.568 334.231 113.632L334.007 113.84C333.943 113.904 333.868 113.936 333.783 113.936C333.708 113.936 333.628 113.893 333.543 113.808C333.17 113.435 332.812 113.173 332.471 113.024C332.14 112.875 331.772 112.8 331.367 112.8C330.812 112.8 330.338 112.955 329.943 113.264C329.559 113.573 329.271 113.979 329.079 114.48C328.887 114.971 328.791 115.499 328.791 116.064C328.791 116.629 328.887 117.163 329.079 117.664C329.271 118.155 329.564 118.555 329.959 118.864C330.354 119.163 330.839 119.312 331.415 119.312C331.842 119.312 332.215 119.237 332.535 119.088C332.866 118.928 333.234 118.629 333.639 118.192C333.724 118.107 333.804 118.064 333.879 118.064C333.964 118.064 334.039 118.096 334.103 118.16L334.327 118.336C334.402 118.4 334.439 118.475 334.439 118.56C334.439 118.645 334.391 118.747 334.295 118.864C333.847 119.355 333.399 119.701 332.951 119.904C332.503 120.107 331.996 120.208 331.431 120.208ZM339.097 112.048C339.363 112.048 339.678 112.091 340.041 112.176C340.233 112.24 340.307 112.373 340.265 112.576L340.201 112.832C340.147 113.035 340.014 113.109 339.801 113.056C339.545 112.992 339.31 112.96 339.097 112.96C338.553 112.96 338.099 113.195 337.737 113.664C337.385 114.133 337.209 114.784 337.209 115.616V119.68C337.209 119.893 337.102 120 336.889 120H336.473C336.259 120 336.153 119.893 336.153 119.68V112.432C336.153 112.219 336.259 112.112 336.473 112.112H336.825C337.038 112.112 337.145 112.219 337.145 112.432V113.312C337.326 112.917 337.582 112.608 337.913 112.384C338.254 112.16 338.649 112.048 339.097 112.048ZM346.82 112.432C346.82 112.219 346.926 112.112 347.14 112.112H347.556C347.769 112.112 347.876 112.219 347.876 112.432V119.68C347.876 119.893 347.769 120 347.556 120H347.22C347.006 120 346.9 119.893 346.9 119.68V118.96C346.665 119.376 346.329 119.691 345.892 119.904C345.465 120.107 344.996 120.208 344.484 120.208C343.524 120.208 342.814 119.968 342.356 119.488C341.897 118.997 341.668 118.368 341.668 117.6V112.432C341.668 112.219 341.774 112.112 341.988 112.112H342.404C342.617 112.112 342.724 112.219 342.724 112.432V117.376C342.724 118.005 342.878 118.485 343.188 118.816C343.508 119.136 343.961 119.296 344.548 119.296C345.209 119.296 345.753 119.093 346.18 118.688C346.606 118.283 346.82 117.707 346.82 116.96V112.432ZM358.263 111.92C359.116 111.92 359.767 112.165 360.215 112.656C360.673 113.136 360.903 113.755 360.903 114.512V119.68C360.903 119.893 360.796 120 360.583 120H360.167C359.953 120 359.847 119.893 359.847 119.68V114.8C359.847 114.16 359.697 113.669 359.399 113.328C359.111 112.987 358.679 112.816 358.102 112.816C357.495 112.816 357.009 113.019 356.647 113.424C356.284 113.829 356.103 114.352 356.103 114.992V119.68C356.103 119.893 355.996 120 355.783 120H355.367C355.153 120 355.047 119.893 355.047 119.68V114.8C355.047 114.16 354.897 113.669 354.599 113.328C354.311 112.987 353.873 112.816 353.286 112.816C352.743 112.816 352.289 112.987 351.927 113.328C351.575 113.669 351.367 114.117 351.303 114.672V119.68C351.303 119.893 351.196 120 350.983 120H350.567C350.353 120 350.247 119.893 350.247 119.68V112.432C350.247 112.219 350.353 112.112 350.567 112.112H350.919C351.132 112.112 351.239 112.219 351.239 112.432V113.088C351.719 112.309 352.481 111.92 353.527 111.92C354.071 111.92 354.535 112.043 354.919 112.288C355.313 112.523 355.607 112.843 355.799 113.248C356.364 112.363 357.185 111.92 358.263 111.92ZM367.007 111.936C367.679 111.936 368.276 112.112 368.799 112.464C369.332 112.805 369.743 113.291 370.031 113.92C370.33 114.539 370.479 115.253 370.479 116.064C370.479 116.875 370.33 117.595 370.031 118.224C369.732 118.843 369.316 119.328 368.783 119.68C368.26 120.021 367.668 120.192 367.007 120.192C365.738 120.192 364.81 119.701 364.223 118.72V119.68C364.223 119.893 364.116 120 363.903 120H363.551C363.338 120 363.231 119.893 363.231 119.68V108.944C363.231 108.731 363.338 108.624 363.551 108.624H363.967C364.18 108.624 364.287 108.731 364.287 108.944V113.36C364.874 112.411 365.78 111.936 367.007 111.936ZM366.927 119.296C367.663 119.296 368.255 118.997 368.703 118.4C369.162 117.803 369.391 117.024 369.391 116.064C369.391 115.104 369.162 114.325 368.703 113.728C368.255 113.131 367.663 112.832 366.927 112.832C366.138 112.832 365.492 113.12 364.991 113.696C364.49 114.272 364.239 115.061 364.239 116.064C364.239 117.077 364.484 117.872 364.975 118.448C365.476 119.013 366.127 119.296 366.927 119.296Z" fill="#0063FB"/>
<path d="M380.316 120C380.124 120 380.028 119.925 380.028 119.776C380.028 119.744 380.039 119.696 380.06 119.632L384.748 108.88C384.812 108.72 384.94 108.64 385.132 108.64H385.468C385.66 108.64 385.756 108.715 385.756 108.864C385.756 108.896 385.745 108.944 385.724 109.008L381.036 119.76C380.972 119.92 380.844 120 380.652 120H380.316Z" fill="#1B1B1F"/>
<path d="M398.996 120C398.783 120 398.676 119.893 398.676 119.68V109.584H395.332C395.119 109.584 395.012 109.477 395.012 109.264V108.96C395.012 108.747 395.119 108.64 395.332 108.64H403.14C403.353 108.64 403.46 108.747 403.46 108.96V109.264C403.46 109.477 403.353 109.584 403.14 109.584H399.812V119.68C399.812 119.893 399.705 120 399.492 120H398.996ZM408.673 111.92C409.59 111.92 410.289 112.181 410.769 112.704C411.249 113.216 411.489 113.851 411.489 114.608V119.68C411.489 119.893 411.382 120 411.169 120H410.753C410.539 120 410.433 119.893 410.433 119.68V114.96C410.433 114.256 410.262 113.723 409.921 113.36C409.579 112.997 409.089 112.816 408.449 112.816C408.043 112.816 407.67 112.917 407.329 113.12C406.987 113.312 406.715 113.579 406.513 113.92C406.31 114.261 406.209 114.635 406.209 115.04V119.68C406.209 119.893 406.102 120 405.889 120H405.473C405.259 120 405.153 119.893 405.153 119.68V108.96C405.153 108.747 405.259 108.64 405.473 108.64H405.889C406.102 108.64 406.209 108.747 406.209 108.96V113.136C406.465 112.731 406.806 112.427 407.233 112.224C407.67 112.021 408.15 111.92 408.673 111.92ZM414.353 110.112C414.139 110.112 413.958 110.037 413.809 109.888C413.67 109.739 413.601 109.557 413.601 109.344C413.601 109.131 413.67 108.955 413.809 108.816C413.958 108.677 414.139 108.608 414.353 108.608C414.577 108.608 414.758 108.677 414.897 108.816C415.046 108.955 415.121 109.131 415.121 109.344C415.121 109.557 415.046 109.739 414.897 109.888C414.758 110.037 414.577 110.112 414.353 110.112ZM414.145 120C413.931 120 413.825 119.893 413.825 119.68V112.432C413.825 112.219 413.931 112.112 414.145 112.112H414.561C414.774 112.112 414.881 112.219 414.881 112.432V119.68C414.881 119.893 414.774 120 414.561 120H414.145ZM419.983 120.208C419.332 120.208 418.756 120.117 418.255 119.936C417.764 119.744 417.247 119.424 416.703 118.976C416.607 118.912 416.559 118.837 416.559 118.752C416.559 118.677 416.596 118.603 416.671 118.528L416.879 118.304C416.943 118.219 417.023 118.176 417.119 118.176C417.194 118.176 417.263 118.208 417.327 118.272C417.839 118.667 418.292 118.944 418.687 119.104C419.082 119.253 419.514 119.328 419.983 119.328C420.57 119.328 421.05 119.2 421.423 118.944C421.796 118.677 421.983 118.32 421.983 117.872C421.983 117.424 421.791 117.093 421.407 116.88C421.023 116.667 420.431 116.475 419.631 116.304C418.927 116.155 418.372 116 417.967 115.84C417.572 115.669 417.279 115.456 417.087 115.2C416.895 114.944 416.799 114.608 416.799 114.192C416.799 113.509 417.076 112.96 417.631 112.544C418.186 112.128 418.884 111.92 419.727 111.92C420.303 111.92 420.815 111.995 421.263 112.144C421.722 112.283 422.18 112.517 422.639 112.848C422.735 112.923 422.783 113.003 422.783 113.088C422.783 113.141 422.756 113.211 422.703 113.296L422.511 113.536C422.458 113.621 422.383 113.664 422.287 113.664C422.202 113.664 422.127 113.637 422.063 113.584C421.626 113.275 421.236 113.067 420.895 112.96C420.564 112.853 420.186 112.8 419.759 112.8C419.172 112.8 418.703 112.928 418.351 113.184C417.999 113.44 417.823 113.765 417.823 114.16C417.823 114.405 417.903 114.603 418.063 114.752C418.223 114.901 418.452 115.029 418.751 115.136C419.05 115.232 419.487 115.344 420.063 115.472C421.13 115.707 421.887 115.995 422.335 116.336C422.794 116.677 423.023 117.173 423.023 117.824C423.023 118.539 422.74 119.115 422.175 119.552C421.61 119.989 420.879 120.208 419.983 120.208ZM429.025 110.112C428.811 110.112 428.63 110.037 428.481 109.888C428.342 109.739 428.273 109.557 428.273 109.344C428.273 109.131 428.342 108.955 428.481 108.816C428.63 108.677 428.811 108.608 429.025 108.608C429.249 108.608 429.43 108.677 429.569 108.816C429.718 108.955 429.793 109.131 429.793 109.344C429.793 109.557 429.718 109.739 429.569 109.888C429.43 110.037 429.249 110.112 429.025 110.112ZM428.817 120C428.603 120 428.497 119.893 428.497 119.68V112.432C428.497 112.219 428.603 112.112 428.817 112.112H429.233C429.446 112.112 429.553 112.219 429.553 112.432V119.68C429.553 119.893 429.446 120 429.233 120H428.817ZM434.655 120.208C434.004 120.208 433.428 120.117 432.927 119.936C432.436 119.744 431.919 119.424 431.375 118.976C431.279 118.912 431.231 118.837 431.231 118.752C431.231 118.677 431.268 118.603 431.343 118.528L431.551 118.304C431.615 118.219 431.695 118.176 431.791 118.176C431.865 118.176 431.935 118.208 431.999 118.272C432.511 118.667 432.964 118.944 433.359 119.104C433.753 119.253 434.185 119.328 434.655 119.328C435.241 119.328 435.721 119.2 436.095 118.944C436.468 118.677 436.655 118.32 436.655 117.872C436.655 117.424 436.463 117.093 436.079 116.88C435.695 116.667 435.103 116.475 434.303 116.304C433.599 116.155 433.044 116 432.639 115.84C432.244 115.669 431.951 115.456 431.759 115.2C431.567 114.944 431.471 114.608 431.471 114.192C431.471 113.509 431.748 112.96 432.303 112.544C432.857 112.128 433.556 111.92 434.399 111.92C434.975 111.92 435.487 111.995 435.935 112.144C436.393 112.283 436.852 112.517 437.311 112.848C437.407 112.923 437.455 113.003 437.455 113.088C437.455 113.141 437.428 113.211 437.375 113.296L437.183 113.536C437.129 113.621 437.055 113.664 436.959 113.664C436.873 113.664 436.799 113.637 436.735 113.584C436.297 113.275 435.908 113.067 435.567 112.96C435.236 112.853 434.857 112.8 434.431 112.8C433.844 112.8 433.375 112.928 433.023 113.184C432.671 113.44 432.495 113.765 432.495 114.16C432.495 114.405 432.575 114.603 432.735 114.752C432.895 114.901 433.124 115.029 433.423 115.136C433.721 115.232 434.159 115.344 434.735 115.472C435.801 115.707 436.559 115.995 437.007 116.336C437.465 116.677 437.695 117.173 437.695 117.824C437.695 118.539 437.412 119.115 436.847 119.552C436.281 119.989 435.551 120.208 434.655 120.208ZM446.208 111.92C447.179 111.92 447.936 112.155 448.48 112.624C449.024 113.083 449.296 113.691 449.296 114.448V119.68C449.296 119.893 449.19 120 448.976 120H448.656C448.443 120 448.336 119.893 448.336 119.68V118.96C448.07 119.387 447.691 119.707 447.2 119.92C446.72 120.133 446.182 120.24 445.584 120.24C444.752 120.24 444.075 120.064 443.552 119.712C443.03 119.36 442.768 118.816 442.768 118.08C442.768 117.493 442.934 117.024 443.264 116.672C443.595 116.309 444.027 116.037 444.56 115.856C445.094 115.664 445.76 115.493 446.56 115.344L448.288 115.04V114.528C448.288 113.984 448.102 113.563 447.728 113.264C447.355 112.955 446.864 112.8 446.256 112.8C445.798 112.8 445.382 112.885 445.008 113.056C444.635 113.227 444.235 113.52 443.808 113.936C443.734 114.011 443.654 114.048 443.568 114.048C443.494 114.048 443.424 114.016 443.36 113.952L443.152 113.76C443.078 113.685 443.04 113.605 443.04 113.52C443.04 113.424 443.078 113.339 443.152 113.264C443.6 112.795 444.07 112.453 444.56 112.24C445.062 112.027 445.611 111.92 446.208 111.92ZM445.632 119.36C446.4 119.36 447.035 119.157 447.536 118.752C448.038 118.347 448.288 117.829 448.288 117.2V115.856L446.8 116.144C446.107 116.283 445.558 116.416 445.152 116.544C444.747 116.672 444.422 116.859 444.176 117.104C443.931 117.349 443.808 117.669 443.808 118.064C443.808 118.469 443.968 118.789 444.288 119.024C444.619 119.248 445.067 119.36 445.632 119.36ZM455.661 120C455.447 120 455.341 119.893 455.341 119.68V108.96C455.341 108.747 455.447 108.64 455.661 108.64H456.077C456.29 108.64 456.397 108.747 456.397 108.96V119.68C456.397 119.893 456.29 120 456.077 120H455.661ZM462.042 120.208C461.306 120.208 460.65 120.032 460.074 119.68C459.498 119.328 459.05 118.843 458.73 118.224C458.41 117.595 458.25 116.875 458.25 116.064C458.25 115.253 458.41 114.539 458.73 113.92C459.05 113.291 459.498 112.8 460.074 112.448C460.65 112.096 461.306 111.92 462.042 111.92C462.778 111.92 463.434 112.096 464.01 112.448C464.586 112.8 465.034 113.291 465.354 113.92C465.674 114.539 465.834 115.253 465.834 116.064C465.834 116.875 465.674 117.595 465.354 118.224C465.034 118.843 464.586 119.328 464.01 119.68C463.434 120.032 462.778 120.208 462.042 120.208ZM462.042 119.328C462.863 119.328 463.519 119.029 464.01 118.432C464.5 117.824 464.746 117.035 464.746 116.064C464.746 115.093 464.5 114.309 464.01 113.712C463.519 113.104 462.863 112.8 462.042 112.8C461.22 112.8 460.564 113.104 460.074 113.712C459.583 114.309 459.338 115.093 459.338 116.064C459.338 117.035 459.583 117.824 460.074 118.432C460.564 119.029 461.22 119.328 462.042 119.328ZM471.188 111.92C472.116 111.92 472.815 112.176 473.284 112.688C473.764 113.2 474.004 113.84 474.004 114.608V119.68C474.004 119.893 473.898 120 473.684 120H473.268C473.055 120 472.948 119.893 472.948 119.68V114.96C472.948 114.256 472.778 113.723 472.436 113.36C472.095 112.997 471.604 112.816 470.964 112.816C470.559 112.816 470.186 112.917 469.844 113.12C469.503 113.312 469.231 113.579 469.028 113.92C468.826 114.261 468.724 114.635 468.724 115.04V119.68C468.724 119.893 468.618 120 468.404 120H467.988C467.775 120 467.668 119.893 467.668 119.68V112.432C467.668 112.219 467.775 112.112 467.988 112.112H468.34C468.554 112.112 468.66 112.219 468.66 112.432V113.2C468.927 112.773 469.279 112.453 469.716 112.24C470.154 112.027 470.644 111.92 471.188 111.92ZM482.004 112.432C482.004 112.219 482.111 112.112 482.324 112.112H482.66C482.874 112.112 482.98 112.219 482.98 112.432V119.92C482.98 120.912 482.682 121.691 482.084 122.256C481.487 122.832 480.65 123.12 479.572 123.12C478.41 123.12 477.338 122.789 476.356 122.128C476.25 122.064 476.196 121.984 476.196 121.888C476.196 121.813 476.218 121.749 476.26 121.696L476.452 121.424C476.516 121.317 476.602 121.264 476.708 121.264C476.751 121.264 476.815 121.285 476.9 121.328C477.37 121.627 477.807 121.851 478.212 122C478.628 122.149 479.082 122.224 479.572 122.224C480.276 122.224 480.847 122.027 481.284 121.632C481.722 121.248 481.94 120.651 481.94 119.84V118.56C481.364 119.488 480.49 119.952 479.316 119.952C478.634 119.952 478.031 119.781 477.508 119.44C476.986 119.088 476.58 118.608 476.292 118C476.015 117.392 475.876 116.704 475.876 115.936C475.876 115.168 476.015 114.48 476.292 113.872C476.58 113.264 476.986 112.789 477.508 112.448C478.031 112.096 478.634 111.92 479.316 111.92C479.935 111.92 480.468 112.053 480.916 112.32C481.375 112.576 481.738 112.944 482.004 113.424V112.432ZM479.428 119.056C480.196 119.056 480.81 118.768 481.268 118.192C481.727 117.605 481.956 116.853 481.956 115.936C481.956 115.019 481.727 114.272 481.268 113.696C480.81 113.109 480.196 112.816 479.428 112.816C478.65 112.816 478.042 113.104 477.604 113.68C477.178 114.256 476.964 115.008 476.964 115.936C476.964 116.864 477.178 117.616 477.604 118.192C478.042 118.768 478.65 119.056 479.428 119.056ZM485.788 120.112C485.564 120.112 485.372 120.032 485.212 119.872C485.052 119.712 484.972 119.52 484.972 119.296C484.972 119.072 485.052 118.88 485.212 118.72C485.372 118.56 485.564 118.48 485.788 118.48C486.012 118.48 486.204 118.56 486.364 118.72C486.524 118.88 486.604 119.072 486.604 119.296C486.604 119.52 486.524 119.712 486.364 119.872C486.204 120.032 486.012 120.112 485.788 120.112ZM489.022 120.112C488.798 120.112 488.606 120.032 488.446 119.872C488.286 119.712 488.206 119.52 488.206 119.296C488.206 119.072 488.286 118.88 488.446 118.72C488.606 118.56 488.798 118.48 489.022 118.48C489.246 118.48 489.438 118.56 489.598 118.72C489.758 118.88 489.838 119.072 489.838 119.296C489.838 119.52 489.758 119.712 489.598 119.872C489.438 120.032 489.246 120.112 489.022 120.112ZM492.257 120.112C492.033 120.112 491.841 120.032 491.681 119.872C491.521 119.712 491.441 119.52 491.441 119.296C491.441 119.072 491.521 118.88 491.681 118.72C491.841 118.56 492.033 118.48 492.257 118.48C492.481 118.48 492.673 118.56 492.833 118.72C492.993 118.88 493.073 119.072 493.073 119.296C493.073 119.52 492.993 119.712 492.833 119.872C492.673 120.032 492.481 120.112 492.257 120.112Z" fill="#1B1B1F"/>
<rect x="64" y="95" width="40" height="40" rx="20" fill="#BE3830"/>
<path d="M82.2898 111.04V109.878H84.9218V120H83.6338V111.04H82.2898Z" fill="white"/>
<rect width="80" height="3" transform="translate(104 113.5)" fill="#BE3830"/>
<rect width="79" height="3" transform="translate(504 113.5)" fill="#BE3830"/>
<rect x="583" y="95" width="41" height="40" rx="20" fill="#BE3830"/>
<path d="M600.188 118.978C601.373 118.026 602.302 117.247 602.974 116.64C603.646 116.024 604.21 115.385 604.668 114.722C605.134 114.05 605.368 113.392 605.368 112.748C605.368 112.141 605.218 111.665 604.92 111.32C604.63 110.965 604.159 110.788 603.506 110.788C602.871 110.788 602.376 110.989 602.022 111.39C601.676 111.782 601.49 112.309 601.462 112.972H600.23C600.267 111.927 600.584 111.119 601.182 110.55C601.779 109.981 602.549 109.696 603.492 109.696C604.453 109.696 605.214 109.962 605.774 110.494C606.343 111.026 606.628 111.759 606.628 112.692C606.628 113.467 606.394 114.223 605.928 114.96C605.47 115.688 604.948 116.332 604.36 116.892C603.772 117.443 603.02 118.087 602.106 118.824H606.922V119.888H600.188V118.978Z" fill="white"/>
</svg>
