<svg width="688" height="450" viewBox="0 0 688 450" fill="none" xmlns="http://www.w3.org/2000/svg">
<rect width="688" height="450" fill="#F6F6F6"/>
<rect x="112" y="80" width="464" height="290" rx="8" fill="white"/>
<rect x="190" y="88" width="40" height="40" rx="20" fill="#BE3830"/>
<path d="M208.29 104.04V102.878H210.922V113H209.634V104.04H208.29Z" fill="white"/>
<rect width="28" height="3" transform="translate(211.5 128) rotate(90)" fill="#BE3830"/>
<rect x="233" y="88" width="41" height="40" rx="20" fill="#BE3830"/>
<path d="M250.188 111.978C251.373 111.026 252.302 110.247 252.974 109.64C253.646 109.024 254.21 108.385 254.668 107.722C255.134 107.05 255.368 106.392 255.368 105.748C255.368 105.141 255.218 104.665 254.92 104.32C254.63 103.965 254.159 103.788 253.506 103.788C252.871 103.788 252.376 103.989 252.022 104.39C251.676 104.782 251.49 105.309 251.462 105.972H250.23C250.267 104.927 250.584 104.119 251.182 103.55C251.779 102.981 252.549 102.696 253.492 102.696C254.453 102.696 255.214 102.962 255.774 103.494C256.343 104.026 256.628 104.759 256.628 105.692C256.628 106.467 256.394 107.223 255.928 107.96C255.47 108.688 254.948 109.332 254.36 109.892C253.772 110.443 253.02 111.087 252.106 111.824H256.922V112.888H250.188V111.978Z" fill="white"/>
<rect width="31" height="3" transform="translate(255 128) rotate(90)" fill="#BE3830"/>
<rect width="28" height="3" transform="translate(214 294) rotate(90)" fill="#BE3830"/>
<rect x="192" y="322" width="41" height="40" rx="20" fill="#BE3830"/>
<path d="M214.567 339.286C214.361 338.25 213.722 337.732 212.649 337.732C211.818 337.732 211.197 338.054 210.787 338.698C210.376 339.333 210.175 340.383 210.185 341.848C210.399 341.363 210.754 340.985 211.249 340.714C211.753 340.434 212.313 340.294 212.929 340.294C213.89 340.294 214.655 340.593 215.225 341.19C215.803 341.787 216.093 342.613 216.093 343.668C216.093 344.303 215.967 344.872 215.715 345.376C215.472 345.88 215.099 346.281 214.595 346.58C214.1 346.879 213.498 347.028 212.789 347.028C211.827 347.028 211.076 346.813 210.535 346.384C209.993 345.955 209.615 345.362 209.401 344.606C209.186 343.85 209.079 342.917 209.079 341.806C209.079 338.381 210.273 336.668 212.663 336.668C213.577 336.668 214.296 336.915 214.819 337.41C215.341 337.905 215.649 338.53 215.743 339.286H214.567ZM212.663 341.372C212.261 341.372 211.883 341.456 211.529 341.624C211.174 341.783 210.885 342.03 210.661 342.366C210.446 342.693 210.339 343.094 210.339 343.57C210.339 344.279 210.544 344.858 210.955 345.306C211.365 345.745 211.953 345.964 212.719 345.964C213.372 345.964 213.89 345.763 214.273 345.362C214.665 344.951 214.861 344.401 214.861 343.71C214.861 342.982 214.674 342.413 214.301 342.002C213.927 341.582 213.381 341.372 212.663 341.372Z" fill="white"/>
<rect x="120" y="182" width="41" height="40" rx="20" fill="#BE3830"/>
<path d="M136.658 204.746V203.78L141.572 196.976H143.098V203.64H144.498V204.746H143.098V207H141.838V204.746H136.658ZM141.894 198.306L138.128 203.64H141.894V198.306Z" fill="white"/>
<rect width="27" height="3" transform="translate(161 200.5)" fill="#BE3830"/>
<path d="M193.568 174C193.419 174 193.297 173.958 193.204 173.874C193.12 173.781 193.078 173.659 193.078 173.51V164.55C193.078 164.391 193.12 164.27 193.204 164.186C193.297 164.102 193.419 164.06 193.568 164.06H194.184C194.343 164.06 194.464 164.102 194.548 164.186C194.632 164.27 194.674 164.391 194.674 164.55V172.642H198.72C198.879 172.642 199 172.684 199.084 172.768C199.168 172.852 199.21 172.973 199.21 173.132V173.51C199.21 173.659 199.168 173.781 199.084 173.874C199 173.958 198.879 174 198.72 174H193.568ZM203.504 166.888C204.438 166.888 205.156 167.107 205.66 167.546C206.164 167.975 206.416 168.549 206.416 169.268V173.51C206.416 173.659 206.374 173.781 206.29 173.874C206.206 173.958 206.085 174 205.926 174H205.562C205.413 174 205.292 173.958 205.198 173.874C205.114 173.781 205.072 173.659 205.072 173.51V173.202C204.848 173.529 204.54 173.781 204.148 173.958C203.756 174.135 203.299 174.224 202.776 174.224C202.058 174.224 201.465 174.065 200.998 173.748C200.541 173.421 200.312 172.931 200.312 172.278C200.312 171.55 200.583 171.013 201.124 170.668C201.675 170.313 202.436 170.047 203.406 169.87L204.988 169.576V169.324C204.988 168.941 204.853 168.647 204.582 168.442C204.321 168.227 203.971 168.12 203.532 168.12C203.159 168.12 202.832 168.185 202.552 168.316C202.282 168.437 201.988 168.643 201.67 168.932C201.549 169.035 201.432 169.086 201.32 169.086C201.208 169.086 201.092 169.035 200.97 168.932L200.746 168.736C200.625 168.624 200.564 168.503 200.564 168.372C200.564 168.251 200.62 168.134 200.732 168.022C201.134 167.639 201.558 167.355 202.006 167.168C202.454 166.981 202.954 166.888 203.504 166.888ZM202.986 173.034C203.546 173.034 204.018 172.885 204.4 172.586C204.792 172.287 204.988 171.858 204.988 171.298V170.654L203.77 170.906C203.089 171.046 202.585 171.205 202.258 171.382C201.932 171.559 201.768 171.83 201.768 172.194C201.768 172.455 201.876 172.661 202.09 172.81C202.305 172.959 202.604 173.034 202.986 173.034ZM211.78 166.916C212.368 166.916 212.89 167.065 213.348 167.364C213.814 167.663 214.178 168.087 214.44 168.638C214.701 169.189 214.832 169.823 214.832 170.542C214.832 171.27 214.701 171.909 214.44 172.46C214.178 173.011 213.814 173.435 213.348 173.734C212.881 174.033 212.358 174.182 211.78 174.182C210.744 174.182 209.983 173.795 209.498 173.02V173.51C209.498 173.659 209.456 173.781 209.372 173.874C209.288 173.958 209.166 174 209.008 174H208.602C208.452 174 208.331 173.958 208.238 173.874C208.154 173.781 208.112 173.659 208.112 173.51V164.55C208.112 164.391 208.154 164.27 208.238 164.186C208.331 164.102 208.452 164.06 208.602 164.06H209.106C209.264 164.06 209.386 164.102 209.47 164.186C209.554 164.27 209.596 164.391 209.596 164.55V167.966C210.09 167.266 210.818 166.916 211.78 166.916ZM211.472 172.894C212.032 172.894 212.48 172.684 212.816 172.264C213.152 171.835 213.32 171.261 213.32 170.542C213.32 169.833 213.152 169.263 212.816 168.834C212.489 168.405 212.046 168.19 211.486 168.19C210.916 168.19 210.45 168.405 210.086 168.834C209.722 169.254 209.54 169.823 209.54 170.542C209.54 171.279 209.722 171.858 210.086 172.278C210.45 172.689 210.912 172.894 211.472 172.894ZM221.202 172.236C221.324 172.133 221.44 172.082 221.552 172.082C221.664 172.082 221.781 172.143 221.902 172.264L222.098 172.474C222.201 172.595 222.252 172.712 222.252 172.824C222.252 172.945 222.192 173.062 222.07 173.174C221.641 173.547 221.212 173.813 220.782 173.972C220.362 174.131 219.896 174.21 219.382 174.21C218.664 174.21 218.038 174.061 217.506 173.762C216.984 173.463 216.578 173.043 216.288 172.502C216.008 171.951 215.868 171.317 215.868 170.598C215.868 169.889 216.004 169.254 216.274 168.694C216.554 168.125 216.946 167.681 217.45 167.364C217.964 167.047 218.561 166.888 219.242 166.888C220.26 166.888 221.044 167.191 221.594 167.798C222.145 168.395 222.42 169.221 222.42 170.276V170.402C222.411 170.551 222.364 170.668 222.28 170.752C222.196 170.836 222.075 170.878 221.916 170.878H217.324C217.38 171.494 217.581 171.998 217.926 172.39C218.281 172.773 218.776 172.964 219.41 172.964C219.756 172.964 220.059 172.913 220.32 172.81C220.582 172.698 220.876 172.507 221.202 172.236ZM219.214 168.064C218.701 168.064 218.286 168.218 217.968 168.526C217.66 168.825 217.46 169.249 217.366 169.8H220.964C220.927 169.259 220.759 168.834 220.46 168.526C220.162 168.218 219.746 168.064 219.214 168.064ZM224.326 174C224.176 174 224.055 173.958 223.962 173.874C223.878 173.781 223.836 173.659 223.836 173.51V164.55C223.836 164.391 223.878 164.27 223.962 164.186C224.055 164.102 224.176 164.06 224.326 164.06H224.83C224.988 164.06 225.11 164.102 225.194 164.186C225.278 164.27 225.32 164.391 225.32 164.55V173.51C225.32 173.659 225.278 173.781 225.194 173.874C225.11 173.958 224.988 174 224.83 174H224.326Z" fill="#1B1B1F"/>
<path d="M235.512 174.18C234.704 174.18 234 173.992 233.4 173.616C232.8 173.232 232.34 172.704 232.02 172.032C231.7 171.36 231.54 170.596 231.54 169.74C231.54 168.884 231.7 168.12 232.02 167.448C232.34 166.776 232.8 166.252 233.4 165.876C234 165.492 234.704 165.3 235.512 165.3C236.32 165.3 237.024 165.492 237.624 165.876C238.224 166.252 238.684 166.776 239.004 167.448C239.324 168.12 239.484 168.884 239.484 169.74C239.484 170.596 239.324 171.36 239.004 172.032C238.684 172.704 238.224 173.232 237.624 173.616C237.024 173.992 236.32 174.18 235.512 174.18ZM235.512 173.448C236.128 173.448 236.672 173.292 237.144 172.98C237.616 172.66 237.98 172.22 238.236 171.66C238.5 171.092 238.632 170.452 238.632 169.74C238.632 169.028 238.5 168.392 238.236 167.832C237.98 167.264 237.616 166.824 237.144 166.512C236.672 166.192 236.128 166.032 235.512 166.032C234.896 166.032 234.352 166.192 233.88 166.512C233.408 166.824 233.04 167.264 232.776 167.832C232.52 168.392 232.392 169.028 232.392 169.74C232.392 170.452 232.52 171.092 232.776 171.66C233.04 172.22 233.408 172.66 233.88 172.98C234.352 173.292 234.896 173.448 235.512 173.448ZM243.732 167.952C244.228 167.952 244.672 168.084 245.064 168.348C245.464 168.604 245.776 168.968 246 169.44C246.224 169.904 246.336 170.436 246.336 171.036C246.336 171.644 246.224 172.184 246 172.656C245.776 173.128 245.468 173.496 245.076 173.76C244.684 174.016 244.236 174.144 243.732 174.144C242.804 174.144 242.124 173.804 241.692 173.124V175.968C241.692 176.128 241.612 176.208 241.452 176.208H241.14C240.98 176.208 240.9 176.128 240.9 175.968V168.324C240.9 168.164 240.98 168.084 241.14 168.084H241.404C241.564 168.084 241.644 168.164 241.644 168.324V169.08C241.86 168.712 242.144 168.432 242.496 168.24C242.848 168.048 243.26 167.952 243.732 167.952ZM243.672 173.472C244.232 173.472 244.68 173.248 245.016 172.8C245.352 172.352 245.52 171.764 245.52 171.036C245.52 170.316 245.352 169.736 245.016 169.296C244.68 168.848 244.232 168.624 243.672 168.624C243.072 168.624 242.584 168.84 242.208 169.272C241.84 169.696 241.656 170.284 241.656 171.036C241.656 171.788 241.844 172.384 242.22 172.824C242.596 173.256 243.08 173.472 243.672 173.472ZM250.232 173.34C250.256 173.332 250.288 173.328 250.328 173.328C250.376 173.328 250.42 173.344 250.46 173.376C250.5 173.408 250.524 173.452 250.532 173.508L250.568 173.676C250.576 173.692 250.58 173.72 250.58 173.76C250.58 173.872 250.52 173.94 250.4 173.964C250.112 174.052 249.804 174.096 249.476 174.096C248.956 174.096 248.584 173.98 248.36 173.748C248.144 173.508 248.036 173.164 248.036 172.716V168.684H247.148C246.988 168.684 246.908 168.604 246.908 168.444V168.324C246.908 168.164 246.988 168.084 247.148 168.084H248.036V166.26C248.036 166.1 248.116 166.02 248.276 166.02H248.588C248.748 166.02 248.828 166.1 248.828 166.26V168.084H250.268C250.428 168.084 250.508 168.164 250.508 168.324V168.444C250.508 168.604 250.428 168.684 250.268 168.684H248.828V172.62C248.828 172.916 248.884 173.124 248.996 173.244C249.108 173.364 249.3 173.424 249.572 173.424C249.764 173.424 249.984 173.396 250.232 173.34ZM252.112 166.584C251.952 166.584 251.816 166.528 251.704 166.416C251.6 166.304 251.548 166.168 251.548 166.008C251.548 165.848 251.6 165.716 251.704 165.612C251.816 165.508 251.952 165.456 252.112 165.456C252.28 165.456 252.416 165.508 252.52 165.612C252.632 165.716 252.688 165.848 252.688 166.008C252.688 166.168 252.632 166.304 252.52 166.416C252.416 166.528 252.28 166.584 252.112 166.584ZM251.956 174C251.796 174 251.716 173.92 251.716 173.76V168.324C251.716 168.164 251.796 168.084 251.956 168.084H252.268C252.428 168.084 252.508 168.164 252.508 168.324V173.76C252.508 173.92 252.428 174 252.268 174H251.956ZM256.719 174.156C256.167 174.156 255.675 174.024 255.243 173.76C254.811 173.496 254.475 173.132 254.235 172.668C253.995 172.196 253.875 171.656 253.875 171.048C253.875 170.44 253.995 169.904 254.235 169.44C254.475 168.968 254.811 168.6 255.243 168.336C255.675 168.072 256.167 167.94 256.719 167.94C257.271 167.94 257.763 168.072 258.195 168.336C258.627 168.6 258.963 168.968 259.203 169.44C259.443 169.904 259.563 170.44 259.563 171.048C259.563 171.656 259.443 172.196 259.203 172.668C258.963 173.132 258.627 173.496 258.195 173.76C257.763 174.024 257.271 174.156 256.719 174.156ZM256.719 173.496C257.335 173.496 257.827 173.272 258.195 172.824C258.563 172.368 258.747 171.776 258.747 171.048C258.747 170.32 258.563 169.732 258.195 169.284C257.827 168.828 257.335 168.6 256.719 168.6C256.103 168.6 255.611 168.828 255.243 169.284C254.875 169.732 254.691 170.32 254.691 171.048C254.691 171.776 254.875 172.368 255.243 172.824C255.611 173.272 256.103 173.496 256.719 173.496ZM263.579 167.94C264.275 167.94 264.799 168.132 265.151 168.516C265.511 168.9 265.691 169.38 265.691 169.956V173.76C265.691 173.92 265.611 174 265.451 174H265.139C264.979 174 264.899 173.92 264.899 173.76V170.22C264.899 169.692 264.771 169.292 264.515 169.02C264.259 168.748 263.891 168.612 263.411 168.612C263.107 168.612 262.827 168.688 262.571 168.84C262.315 168.984 262.111 169.184 261.959 169.44C261.807 169.696 261.731 169.976 261.731 170.28V173.76C261.731 173.92 261.651 174 261.491 174H261.179C261.019 174 260.939 173.92 260.939 173.76V168.324C260.939 168.164 261.019 168.084 261.179 168.084H261.443C261.603 168.084 261.683 168.164 261.683 168.324V168.9C261.883 168.58 262.147 168.34 262.475 168.18C262.803 168.02 263.171 167.94 263.579 167.94ZM269.723 167.94C270.451 167.94 271.019 168.116 271.427 168.468C271.835 168.812 272.039 169.268 272.039 169.836V173.76C272.039 173.92 271.959 174 271.799 174H271.559C271.399 174 271.319 173.92 271.319 173.76V173.22C271.119 173.54 270.835 173.78 270.467 173.94C270.107 174.1 269.703 174.18 269.255 174.18C268.631 174.18 268.123 174.048 267.731 173.784C267.339 173.52 267.143 173.112 267.143 172.56C267.143 172.12 267.267 171.768 267.515 171.504C267.763 171.232 268.087 171.028 268.487 170.892C268.887 170.748 269.387 170.62 269.987 170.508L271.283 170.28V169.896C271.283 169.488 271.143 169.172 270.863 168.948C270.583 168.716 270.215 168.6 269.759 168.6C269.415 168.6 269.103 168.664 268.823 168.792C268.543 168.92 268.243 169.14 267.923 169.452C267.867 169.508 267.807 169.536 267.743 169.536C267.687 169.536 267.635 169.512 267.587 169.464L267.431 169.32C267.375 169.264 267.347 169.204 267.347 169.14C267.347 169.068 267.375 169.004 267.431 168.948C267.767 168.596 268.119 168.34 268.487 168.18C268.863 168.02 269.275 167.94 269.723 167.94ZM269.291 173.52C269.867 173.52 270.343 173.368 270.719 173.064C271.095 172.76 271.283 172.372 271.283 171.9V170.892L270.167 171.108C269.647 171.212 269.235 171.312 268.931 171.408C268.627 171.504 268.383 171.644 268.199 171.828C268.015 172.012 267.923 172.252 267.923 172.548C267.923 172.852 268.043 173.092 268.283 173.268C268.531 173.436 268.867 173.52 269.291 173.52ZM274.046 174C273.886 174 273.806 173.92 273.806 173.76V165.72C273.806 165.56 273.886 165.48 274.046 165.48H274.358C274.518 165.48 274.598 165.56 274.598 165.72V173.76C274.598 173.92 274.518 174 274.358 174H274.046Z" fill="#5C5C66"/>
<path d="M288 166.5L288 166M288 168.5L288 172M294 169C294 172.314 291.314 175 288 175C284.686 175 282 172.314 282 169C282 165.686 284.686 163 288 163C291.314 163 294 165.686 294 169Z" stroke="#1B1B1F" stroke-linecap="round" stroke-linejoin="round"/>
<rect x="192.5" y="182.5" width="303" height="87" rx="3.5" fill="white"/>
<rect x="192.5" y="182.5" width="303" height="87" rx="3.5" stroke="#84848F"/>
<path d="M492 260L486 266M492 264L490 266" stroke="#5C5C66" stroke-linecap="square"/>
<path d="M201.696 211C201.483 211 201.376 210.893 201.376 210.68V199.96C201.376 199.747 201.483 199.64 201.696 199.64H206C207.099 199.64 207.984 199.928 208.656 200.504C209.328 201.08 209.664 201.896 209.664 202.952C209.664 204.008 209.328 204.829 208.656 205.416C207.984 205.992 207.099 206.28 206 206.28H202.512V210.68C202.512 210.893 202.405 211 202.192 211H201.696ZM205.856 205.336C206.688 205.336 207.344 205.133 207.824 204.728C208.304 204.323 208.544 203.731 208.544 202.952C208.544 202.184 208.304 201.597 207.824 201.192C207.344 200.787 206.688 200.584 205.856 200.584H202.512V205.336H205.856ZM211.708 211C211.494 211 211.388 210.893 211.388 210.68V199.96C211.388 199.747 211.494 199.64 211.708 199.64H212.124C212.337 199.64 212.444 199.747 212.444 199.96V210.68C212.444 210.893 212.337 211 212.124 211H211.708ZM217.865 202.92C218.835 202.92 219.593 203.155 220.137 203.624C220.681 204.083 220.953 204.691 220.953 205.448V210.68C220.953 210.893 220.846 211 220.633 211H220.313C220.099 211 219.993 210.893 219.993 210.68V209.96C219.726 210.387 219.347 210.707 218.857 210.92C218.377 211.133 217.838 211.24 217.241 211.24C216.409 211.24 215.731 211.064 215.209 210.712C214.686 210.36 214.425 209.816 214.425 209.08C214.425 208.493 214.59 208.024 214.921 207.672C215.251 207.309 215.683 207.037 216.217 206.856C216.75 206.664 217.417 206.493 218.217 206.344L219.945 206.04V205.528C219.945 204.984 219.758 204.563 219.385 204.264C219.011 203.955 218.521 203.8 217.913 203.8C217.454 203.8 217.038 203.885 216.665 204.056C216.291 204.227 215.891 204.52 215.465 204.936C215.39 205.011 215.31 205.048 215.225 205.048C215.15 205.048 215.081 205.016 215.017 204.952L214.809 204.76C214.734 204.685 214.697 204.605 214.697 204.52C214.697 204.424 214.734 204.339 214.809 204.264C215.257 203.795 215.726 203.453 216.217 203.24C216.718 203.027 217.267 202.92 217.865 202.92ZM217.289 210.36C218.057 210.36 218.691 210.157 219.193 209.752C219.694 209.347 219.945 208.829 219.945 208.2V206.856L218.457 207.144C217.763 207.283 217.214 207.416 216.809 207.544C216.403 207.672 216.078 207.859 215.833 208.104C215.587 208.349 215.465 208.669 215.465 209.064C215.465 209.469 215.625 209.789 215.945 210.024C216.275 210.248 216.723 210.36 217.289 210.36ZM226.493 211.208C225.736 211.208 225.075 211.037 224.509 210.696C223.955 210.344 223.523 209.859 223.213 209.24C222.915 208.611 222.765 207.885 222.765 207.064C222.765 206.253 222.915 205.533 223.213 204.904C223.523 204.275 223.955 203.789 224.509 203.448C225.075 203.096 225.725 202.92 226.461 202.92C227.059 202.92 227.581 203.021 228.029 203.224C228.477 203.416 228.909 203.736 229.325 204.184C229.389 204.248 229.421 204.317 229.421 204.392C229.421 204.488 229.379 204.568 229.293 204.632L229.069 204.84C229.005 204.904 228.931 204.936 228.845 204.936C228.771 204.936 228.691 204.893 228.605 204.808C228.232 204.435 227.875 204.173 227.533 204.024C227.203 203.875 226.835 203.8 226.429 203.8C225.875 203.8 225.4 203.955 225.005 204.264C224.621 204.573 224.333 204.979 224.141 205.48C223.949 205.971 223.853 206.499 223.853 207.064C223.853 207.629 223.949 208.163 224.141 208.664C224.333 209.155 224.627 209.555 225.021 209.864C225.416 210.163 225.901 210.312 226.477 210.312C226.904 210.312 227.277 210.237 227.597 210.088C227.928 209.928 228.296 209.629 228.701 209.192C228.787 209.107 228.867 209.064 228.941 209.064C229.027 209.064 229.101 209.096 229.165 209.16L229.389 209.336C229.464 209.4 229.501 209.475 229.501 209.56C229.501 209.645 229.453 209.747 229.357 209.864C228.909 210.355 228.461 210.701 228.013 210.904C227.565 211.107 227.059 211.208 226.493 211.208ZM236.803 209.128C236.878 209.053 236.958 209.016 237.043 209.016C237.118 209.016 237.187 209.048 237.251 209.112L237.459 209.304C237.534 209.379 237.571 209.459 237.571 209.544C237.571 209.608 237.539 209.683 237.475 209.768C236.952 210.291 236.446 210.664 235.955 210.888C235.464 211.101 234.915 211.208 234.307 211.208C233.539 211.208 232.872 211.037 232.307 210.696C231.742 210.355 231.304 209.88 230.995 209.272C230.686 208.653 230.531 207.939 230.531 207.128C230.531 206.307 230.68 205.581 230.979 204.952C231.288 204.312 231.72 203.816 232.275 203.464C232.83 203.101 233.47 202.92 234.195 202.92C235.272 202.92 236.12 203.256 236.739 203.928C237.358 204.6 237.667 205.507 237.667 206.648V206.84C237.656 206.936 237.619 207.011 237.555 207.064C237.502 207.117 237.427 207.144 237.331 207.144H231.603C231.635 208.04 231.87 208.797 232.307 209.416C232.755 210.024 233.422 210.328 234.307 210.328C234.787 210.328 235.208 210.243 235.571 210.072C235.944 209.891 236.355 209.576 236.803 209.128ZM234.195 203.8C233.491 203.8 232.91 204.019 232.451 204.456C232.003 204.883 231.731 205.512 231.635 206.344H236.611C236.59 205.565 236.366 204.947 235.939 204.488C235.512 204.029 234.931 203.8 234.195 203.8ZM243.079 202.92C243.996 202.92 244.695 203.181 245.175 203.704C245.655 204.216 245.895 204.851 245.895 205.608V210.68C245.895 210.893 245.788 211 245.575 211H245.159C244.946 211 244.839 210.893 244.839 210.68V205.96C244.839 205.256 244.668 204.723 244.327 204.36C243.986 203.997 243.495 203.816 242.855 203.816C242.45 203.816 242.076 203.917 241.735 204.12C241.394 204.312 241.122 204.579 240.919 204.92C240.716 205.261 240.615 205.635 240.615 206.04V210.68C240.615 210.893 240.508 211 240.295 211H239.879C239.666 211 239.559 210.893 239.559 210.68V199.96C239.559 199.747 239.666 199.64 239.879 199.64H240.295C240.508 199.64 240.615 199.747 240.615 199.96V204.136C240.871 203.731 241.212 203.427 241.639 203.224C242.076 203.021 242.556 202.92 243.079 202.92ZM251.495 211.208C250.759 211.208 250.103 211.032 249.527 210.68C248.951 210.328 248.503 209.843 248.183 209.224C247.863 208.595 247.703 207.875 247.703 207.064C247.703 206.253 247.863 205.539 248.183 204.92C248.503 204.291 248.951 203.8 249.527 203.448C250.103 203.096 250.759 202.92 251.495 202.92C252.231 202.92 252.887 203.096 253.463 203.448C254.039 203.8 254.487 204.291 254.807 204.92C255.127 205.539 255.287 206.253 255.287 207.064C255.287 207.875 255.127 208.595 254.807 209.224C254.487 209.843 254.039 210.328 253.463 210.68C252.887 211.032 252.231 211.208 251.495 211.208ZM251.495 210.328C252.316 210.328 252.972 210.029 253.463 209.432C253.954 208.824 254.199 208.035 254.199 207.064C254.199 206.093 253.954 205.309 253.463 204.712C252.972 204.104 252.316 203.8 251.495 203.8C250.674 203.8 250.018 204.104 249.527 204.712C249.036 205.309 248.791 206.093 248.791 207.064C248.791 208.035 249.036 208.824 249.527 209.432C250.018 210.029 250.674 210.328 251.495 210.328ZM257.458 211C257.244 211 257.138 210.893 257.138 210.68V199.96C257.138 199.747 257.244 199.64 257.458 199.64H257.874C258.087 199.64 258.194 199.747 258.194 199.96V210.68C258.194 210.893 258.087 211 257.874 211H257.458ZM266.271 199.96C266.271 199.747 266.377 199.64 266.591 199.64H267.007C267.22 199.64 267.327 199.747 267.327 199.96V210.68C267.327 210.893 267.22 211 267.007 211H266.671C266.457 211 266.351 210.893 266.351 210.68V209.64C266.063 210.141 265.684 210.525 265.215 210.792C264.745 211.059 264.191 211.192 263.551 211.192C262.879 211.192 262.281 211.021 261.759 210.68C261.236 210.328 260.825 209.843 260.527 209.224C260.228 208.595 260.079 207.875 260.079 207.064C260.079 206.253 260.228 205.539 260.527 204.92C260.836 204.291 261.257 203.805 261.791 203.464C262.324 203.112 262.921 202.936 263.583 202.936C264.799 202.936 265.695 203.389 266.271 204.296V199.96ZM263.631 210.296C264.431 210.296 265.076 210.013 265.567 209.448C266.068 208.872 266.319 208.077 266.319 207.064C266.319 206.061 266.068 205.272 265.567 204.696C265.076 204.12 264.431 203.832 263.631 203.832C262.895 203.832 262.297 204.131 261.839 204.728C261.391 205.325 261.167 206.104 261.167 207.064C261.167 208.035 261.391 208.819 261.839 209.416C262.287 210.003 262.884 210.296 263.631 210.296ZM275.444 209.128C275.518 209.053 275.598 209.016 275.684 209.016C275.758 209.016 275.828 209.048 275.892 209.112L276.1 209.304C276.174 209.379 276.212 209.459 276.212 209.544C276.212 209.608 276.18 209.683 276.116 209.768C275.593 210.291 275.086 210.664 274.596 210.888C274.105 211.101 273.556 211.208 272.948 211.208C272.18 211.208 271.513 211.037 270.948 210.696C270.382 210.355 269.945 209.88 269.636 209.272C269.326 208.653 269.172 207.939 269.172 207.128C269.172 206.307 269.321 205.581 269.62 204.952C269.929 204.312 270.361 203.816 270.916 203.464C271.47 203.101 272.11 202.92 272.836 202.92C273.913 202.92 274.761 203.256 275.38 203.928C275.998 204.6 276.308 205.507 276.308 206.648V206.84C276.297 206.936 276.26 207.011 276.196 207.064C276.142 207.117 276.068 207.144 275.972 207.144H270.244C270.276 208.04 270.51 208.797 270.948 209.416C271.396 210.024 272.062 210.328 272.948 210.328C273.428 210.328 273.849 210.243 274.212 210.072C274.585 209.891 274.996 209.576 275.444 209.128ZM272.836 203.8C272.132 203.8 271.55 204.019 271.092 204.456C270.644 204.883 270.372 205.512 270.276 206.344H275.252C275.23 205.565 275.006 204.947 274.58 204.488C274.153 204.029 273.572 203.8 272.836 203.8ZM281.144 203.048C281.41 203.048 281.725 203.091 282.088 203.176C282.28 203.24 282.354 203.373 282.312 203.576L282.248 203.832C282.194 204.035 282.061 204.109 281.848 204.056C281.592 203.992 281.357 203.96 281.144 203.96C280.6 203.96 280.146 204.195 279.784 204.664C279.432 205.133 279.256 205.784 279.256 206.616V210.68C279.256 210.893 279.149 211 278.936 211H278.52C278.306 211 278.2 210.893 278.2 210.68V203.432C278.2 203.219 278.306 203.112 278.52 203.112H278.872C279.085 203.112 279.192 203.219 279.192 203.432V204.312C279.373 203.917 279.629 203.608 279.96 203.384C280.301 203.16 280.696 203.048 281.144 203.048Z" fill="#CACAD1"/>
<path d="M193.272 286C193.112 286 193.032 285.92 193.032 285.76V277.72C193.032 277.56 193.112 277.48 193.272 277.48H193.644C193.804 277.48 193.884 277.56 193.884 277.72V281.248H198.804V277.72C198.804 277.56 198.884 277.48 199.044 277.48H199.416C199.576 277.48 199.656 277.56 199.656 277.72V285.76C199.656 285.92 199.576 286 199.416 286H199.044C198.884 286 198.804 285.92 198.804 285.76V281.956H193.884V285.76C193.884 285.92 193.804 286 193.644 286H193.272ZM205.88 284.596C205.936 284.54 205.996 284.512 206.06 284.512C206.116 284.512 206.168 284.536 206.216 284.584L206.372 284.728C206.428 284.784 206.456 284.844 206.456 284.908C206.456 284.956 206.432 285.012 206.384 285.076C205.992 285.468 205.612 285.748 205.244 285.916C204.876 286.076 204.464 286.156 204.008 286.156C203.432 286.156 202.932 286.028 202.508 285.772C202.084 285.516 201.756 285.16 201.524 284.704C201.292 284.24 201.176 283.704 201.176 283.096C201.176 282.48 201.288 281.936 201.512 281.464C201.744 280.984 202.068 280.612 202.484 280.348C202.9 280.076 203.38 279.94 203.924 279.94C204.732 279.94 205.368 280.192 205.832 280.696C206.296 281.2 206.528 281.88 206.528 282.736V282.88C206.52 282.952 206.492 283.008 206.444 283.048C206.404 283.088 206.348 283.108 206.276 283.108H201.98C202.004 283.78 202.18 284.348 202.508 284.812C202.844 285.268 203.344 285.496 204.008 285.496C204.368 285.496 204.684 285.432 204.956 285.304C205.236 285.168 205.544 284.932 205.88 284.596ZM203.924 280.6C203.396 280.6 202.96 280.764 202.616 281.092C202.28 281.412 202.076 281.884 202.004 282.508H205.736C205.72 281.924 205.552 281.46 205.232 281.116C204.912 280.772 204.476 280.6 203.924 280.6ZM208.199 286C208.039 286 207.959 285.92 207.959 285.76V277.72C207.959 277.56 208.039 277.48 208.199 277.48H208.511C208.671 277.48 208.751 277.56 208.751 277.72V285.76C208.751 285.92 208.671 286 208.511 286H208.199ZM213.368 279.952C213.864 279.952 214.308 280.084 214.7 280.348C215.1 280.604 215.412 280.968 215.636 281.44C215.86 281.904 215.972 282.436 215.972 283.036C215.972 283.644 215.86 284.184 215.636 284.656C215.412 285.128 215.104 285.496 214.712 285.76C214.32 286.016 213.872 286.144 213.368 286.144C212.44 286.144 211.76 285.804 211.328 285.124V287.968C211.328 288.128 211.248 288.208 211.088 288.208H210.776C210.616 288.208 210.536 288.128 210.536 287.968V280.324C210.536 280.164 210.616 280.084 210.776 280.084H211.04C211.2 280.084 211.28 280.164 211.28 280.324V281.08C211.496 280.712 211.78 280.432 212.132 280.24C212.484 280.048 212.896 279.952 213.368 279.952ZM213.308 285.472C213.868 285.472 214.316 285.248 214.652 284.8C214.988 284.352 215.156 283.764 215.156 283.036C215.156 282.316 214.988 281.736 214.652 281.296C214.316 280.848 213.868 280.624 213.308 280.624C212.708 280.624 212.22 280.84 211.844 281.272C211.476 281.696 211.292 282.284 211.292 283.036C211.292 283.788 211.48 284.384 211.856 284.824C212.232 285.256 212.716 285.472 213.308 285.472ZM222.81 285.34C222.834 285.332 222.866 285.328 222.906 285.328C222.954 285.328 222.998 285.344 223.038 285.376C223.078 285.408 223.102 285.452 223.11 285.508L223.146 285.676C223.154 285.692 223.158 285.72 223.158 285.76C223.158 285.872 223.098 285.94 222.978 285.964C222.69 286.052 222.382 286.096 222.054 286.096C221.534 286.096 221.162 285.98 220.938 285.748C220.722 285.508 220.614 285.164 220.614 284.716V280.684H219.726C219.566 280.684 219.486 280.604 219.486 280.444V280.324C219.486 280.164 219.566 280.084 219.726 280.084H220.614V278.26C220.614 278.1 220.694 278.02 220.854 278.02H221.166C221.326 278.02 221.406 278.1 221.406 278.26V280.084H222.846C223.006 280.084 223.086 280.164 223.086 280.324V280.444C223.086 280.604 223.006 280.684 222.846 280.684H221.406V284.62C221.406 284.916 221.462 285.124 221.574 285.244C221.686 285.364 221.878 285.424 222.15 285.424C222.342 285.424 222.562 285.396 222.81 285.34ZM228.38 284.596C228.436 284.54 228.496 284.512 228.56 284.512C228.616 284.512 228.668 284.536 228.716 284.584L228.872 284.728C228.928 284.784 228.956 284.844 228.956 284.908C228.956 284.956 228.932 285.012 228.884 285.076C228.492 285.468 228.112 285.748 227.744 285.916C227.376 286.076 226.964 286.156 226.508 286.156C225.932 286.156 225.432 286.028 225.008 285.772C224.584 285.516 224.256 285.16 224.024 284.704C223.792 284.24 223.676 283.704 223.676 283.096C223.676 282.48 223.788 281.936 224.012 281.464C224.244 280.984 224.568 280.612 224.984 280.348C225.4 280.076 225.88 279.94 226.424 279.94C227.232 279.94 227.868 280.192 228.332 280.696C228.796 281.2 229.028 281.88 229.028 282.736V282.88C229.02 282.952 228.992 283.008 228.944 283.048C228.904 283.088 228.848 283.108 228.776 283.108H224.48C224.504 283.78 224.68 284.348 225.008 284.812C225.344 285.268 225.844 285.496 226.508 285.496C226.868 285.496 227.184 285.432 227.456 285.304C227.736 285.168 228.044 284.932 228.38 284.596ZM226.424 280.6C225.896 280.6 225.46 280.764 225.116 281.092C224.78 281.412 224.576 281.884 224.504 282.508H228.236C228.22 281.924 228.052 281.46 227.732 281.116C227.412 280.772 226.976 280.6 226.424 280.6ZM234.638 285.712C234.67 285.768 234.686 285.816 234.686 285.856C234.686 285.952 234.622 286 234.494 286H234.134C234.014 286 233.918 285.948 233.846 285.844L232.214 283.444L230.594 285.844C230.522 285.948 230.426 286 230.306 286H229.97C229.906 286 229.854 285.988 229.814 285.964C229.782 285.932 229.766 285.896 229.766 285.856C229.766 285.8 229.782 285.752 229.814 285.712L231.758 282.916L229.97 280.372C229.938 280.332 229.922 280.288 229.922 280.24C229.922 280.136 229.99 280.084 230.126 280.084H230.474C230.594 280.084 230.69 280.136 230.762 280.24L232.226 282.388L233.678 280.24C233.75 280.136 233.846 280.084 233.966 280.084H234.29C234.354 280.084 234.402 280.1 234.434 280.132C234.474 280.156 234.494 280.188 234.494 280.228C234.494 280.284 234.478 280.332 234.446 280.372L232.694 282.88L234.638 285.712ZM238.618 285.34C238.642 285.332 238.674 285.328 238.714 285.328C238.762 285.328 238.806 285.344 238.846 285.376C238.886 285.408 238.91 285.452 238.918 285.508L238.954 285.676C238.962 285.692 238.966 285.72 238.966 285.76C238.966 285.872 238.906 285.94 238.786 285.964C238.498 286.052 238.19 286.096 237.862 286.096C237.342 286.096 236.97 285.98 236.746 285.748C236.53 285.508 236.422 285.164 236.422 284.716V280.684H235.534C235.374 280.684 235.294 280.604 235.294 280.444V280.324C235.294 280.164 235.374 280.084 235.534 280.084H236.422V278.26C236.422 278.1 236.502 278.02 236.662 278.02H236.974C237.134 278.02 237.214 278.1 237.214 278.26V280.084H238.654C238.814 280.084 238.894 280.164 238.894 280.324V280.444C238.894 280.604 238.814 280.684 238.654 280.684H237.214V284.62C237.214 284.916 237.27 285.124 237.382 285.244C237.494 285.364 237.686 285.424 237.958 285.424C238.15 285.424 238.37 285.396 238.618 285.34Z" fill="#5C5C66"/>
<rect width="39" height="3" transform="translate(300 167.5)" fill="#BE3830"/>
<rect x="339" y="149" width="41" height="40" rx="20" fill="#BE3830"/>
<path d="M356.218 166.426C356.283 165.567 356.615 164.895 357.212 164.41C357.809 163.925 358.584 163.682 359.536 163.682C360.171 163.682 360.717 163.799 361.174 164.032C361.641 164.256 361.991 164.564 362.224 164.956C362.467 165.348 362.588 165.791 362.588 166.286C362.588 166.865 362.42 167.364 362.084 167.784C361.757 168.204 361.328 168.475 360.796 168.596V168.666C361.403 168.815 361.883 169.109 362.238 169.548C362.593 169.987 362.77 170.561 362.77 171.27C362.77 171.802 362.649 172.283 362.406 172.712C362.163 173.132 361.799 173.463 361.314 173.706C360.829 173.949 360.245 174.07 359.564 174.07C358.575 174.07 357.763 173.813 357.128 173.3C356.493 172.777 356.139 172.04 356.064 171.088H357.296C357.361 171.648 357.59 172.105 357.982 172.46C358.374 172.815 358.897 172.992 359.55 172.992C360.203 172.992 360.698 172.824 361.034 172.488C361.379 172.143 361.552 171.699 361.552 171.158C361.552 170.458 361.319 169.954 360.852 169.646C360.385 169.338 359.681 169.184 358.738 169.184H358.416V168.12H358.752C359.611 168.111 360.259 167.971 360.698 167.7C361.137 167.42 361.356 166.991 361.356 166.412C361.356 165.917 361.193 165.521 360.866 165.222C360.549 164.923 360.091 164.774 359.494 164.774C358.915 164.774 358.449 164.923 358.094 165.222C357.739 165.521 357.529 165.922 357.464 166.426H356.218Z" fill="white"/>
<rect width="31" height="3" transform="translate(496 261.5)" fill="#BE3830"/>
<rect x="527" y="243" width="41" height="40" rx="20" fill="#BE3830"/>
<path d="M550.426 258.984H545.512V262.176C545.727 261.877 546.044 261.635 546.464 261.448C546.884 261.252 547.337 261.154 547.822 261.154C548.597 261.154 549.227 261.317 549.712 261.644C550.198 261.961 550.543 262.377 550.748 262.89C550.963 263.394 551.07 263.931 551.07 264.5C551.07 265.172 550.944 265.774 550.692 266.306C550.44 266.838 550.053 267.258 549.53 267.566C549.017 267.874 548.378 268.028 547.612 268.028C546.632 268.028 545.839 267.776 545.232 267.272C544.626 266.768 544.257 266.096 544.126 265.256H545.372C545.494 265.788 545.75 266.203 546.142 266.502C546.534 266.801 547.029 266.95 547.626 266.95C548.364 266.95 548.919 266.731 549.292 266.292C549.666 265.844 549.852 265.256 549.852 264.528C549.852 263.8 549.666 263.24 549.292 262.848C548.919 262.447 548.368 262.246 547.64 262.246C547.146 262.246 546.712 262.367 546.338 262.61C545.974 262.843 545.708 263.165 545.54 263.576H544.336V257.864H550.426V258.984Z" fill="white"/>
</svg>
