<svg width="332" height="210" viewBox="0 0 332 210" fill="none" xmlns="http://www.w3.org/2000/svg">
<rect width="332" height="210" fill="#F6F6F6"/>
<path d="M41.568 54C41.4187 54 41.2973 53.958 41.204 53.874C41.12 53.7807 41.078 53.6593 41.078 53.51V44.55C41.078 44.3913 41.12 44.27 41.204 44.186C41.2973 44.102 41.4187 44.06 41.568 44.06H42.184C42.3427 44.06 42.464 44.102 42.548 44.186C42.632 44.27 42.674 44.3913 42.674 44.55V52.642H46.72C46.8787 52.642 47 52.684 47.084 52.768C47.168 52.852 47.21 52.9733 47.21 53.132V53.51C47.21 53.6593 47.168 53.7807 47.084 53.874C47 53.958 46.8787 54 46.72 54H41.568ZM51.5043 46.888C52.4376 46.888 53.1563 47.1073 53.6603 47.546C54.1643 47.9753 54.4163 48.5493 54.4163 49.268V53.51C54.4163 53.6593 54.3743 53.7807 54.2903 53.874C54.2063 53.958 54.0849 54 53.9263 54H53.5623C53.4129 54 53.2916 53.958 53.1983 53.874C53.1143 53.7807 53.0723 53.6593 53.0723 53.51V53.202C52.8483 53.5287 52.5403 53.7807 52.1483 53.958C51.7563 54.1353 51.2989 54.224 50.7763 54.224C50.0576 54.224 49.4649 54.0653 48.9983 53.748C48.5409 53.4213 48.3123 52.9313 48.3123 52.278C48.3123 51.55 48.5829 51.0133 49.1243 50.668C49.6749 50.3133 50.4356 50.0473 51.4063 49.87L52.9883 49.576V49.324C52.9883 48.9413 52.8529 48.6473 52.5823 48.442C52.3209 48.2273 51.9709 48.12 51.5323 48.12C51.1589 48.12 50.8323 48.1853 50.5523 48.316C50.2816 48.4373 49.9876 48.6427 49.6703 48.932C49.5489 49.0347 49.4323 49.086 49.3203 49.086C49.2083 49.086 49.0916 49.0347 48.9703 48.932L48.7463 48.736C48.6249 48.624 48.5643 48.5027 48.5643 48.372C48.5643 48.2507 48.6203 48.134 48.7323 48.022C49.1336 47.6393 49.5583 47.3547 50.0063 47.168C50.4543 46.9813 50.9536 46.888 51.5043 46.888ZM50.9863 53.034C51.5463 53.034 52.0176 52.8847 52.4003 52.586C52.7923 52.2873 52.9883 51.858 52.9883 51.298V50.654L51.7703 50.906C51.0889 51.046 50.5849 51.2047 50.2583 51.382C49.9316 51.5593 49.7683 51.83 49.7683 52.194C49.7683 52.4553 49.8756 52.6607 50.0903 52.81C50.3049 52.9593 50.6036 53.034 50.9863 53.034ZM59.7798 46.916C60.3678 46.916 60.8905 47.0653 61.3478 47.364C61.8145 47.6627 62.1785 48.0873 62.4398 48.638C62.7011 49.1887 62.8318 49.8233 62.8318 50.542C62.8318 51.27 62.7011 51.9093 62.4398 52.46C62.1785 53.0107 61.8145 53.4353 61.3478 53.734C60.8811 54.0327 60.3585 54.182 59.7798 54.182C58.7438 54.182 57.9831 53.7947 57.4978 53.02V53.51C57.4978 53.6593 57.4558 53.7807 57.3718 53.874C57.2878 53.958 57.1665 54 57.0078 54H56.6018C56.4525 54 56.3311 53.958 56.2378 53.874C56.1538 53.7807 56.1118 53.6593 56.1118 53.51V44.55C56.1118 44.3913 56.1538 44.27 56.2378 44.186C56.3311 44.102 56.4525 44.06 56.6018 44.06H57.1058C57.2645 44.06 57.3858 44.102 57.4698 44.186C57.5538 44.27 57.5958 44.3913 57.5958 44.55V47.966C58.0905 47.266 58.8185 46.916 59.7798 46.916ZM59.4718 52.894C60.0318 52.894 60.4798 52.684 60.8158 52.264C61.1518 51.8347 61.3198 51.2607 61.3198 50.542C61.3198 49.8327 61.1518 49.2633 60.8158 48.834C60.4891 48.4047 60.0458 48.19 59.4858 48.19C58.9165 48.19 58.4498 48.4047 58.0858 48.834C57.7218 49.254 57.5398 49.8233 57.5398 50.542C57.5398 51.2793 57.7218 51.858 58.0858 52.278C58.4498 52.6887 58.9118 52.894 59.4718 52.894ZM69.2023 52.236C69.3236 52.1333 69.4403 52.082 69.5523 52.082C69.6643 52.082 69.7809 52.1427 69.9023 52.264L70.0983 52.474C70.2009 52.5953 70.2523 52.712 70.2523 52.824C70.2523 52.9453 70.1916 53.062 70.0703 53.174C69.6409 53.5473 69.2116 53.8133 68.7823 53.972C68.3623 54.1307 67.8956 54.21 67.3823 54.21C66.6636 54.21 66.0383 54.0607 65.5063 53.762C64.9836 53.4633 64.5776 53.0433 64.2883 52.502C64.0083 51.9513 63.8682 51.3167 63.8682 50.598C63.8682 49.8887 64.0036 49.254 64.2743 48.694C64.5543 48.1247 64.9463 47.6813 65.4503 47.364C65.9636 47.0467 66.5609 46.888 67.2423 46.888C68.2596 46.888 69.0436 47.1913 69.5943 47.798C70.1449 48.3953 70.4203 49.2213 70.4203 50.276V50.402C70.4109 50.5513 70.3643 50.668 70.2803 50.752C70.1963 50.836 70.0749 50.878 69.9163 50.878H65.3243C65.3803 51.494 65.5809 51.998 65.9263 52.39C66.2809 52.7727 66.7756 52.964 67.4103 52.964C67.7556 52.964 68.0589 52.9127 68.3203 52.81C68.5816 52.698 68.8756 52.5067 69.2023 52.236ZM67.2143 48.064C66.7009 48.064 66.2856 48.218 65.9683 48.526C65.6603 48.8247 65.4596 49.2493 65.3663 49.8H68.9643C68.9269 49.2587 68.7589 48.834 68.4603 48.526C68.1616 48.218 67.7463 48.064 67.2143 48.064ZM72.3258 54C72.1764 54 72.0551 53.958 71.9618 53.874C71.8778 53.7807 71.8358 53.6593 71.8358 53.51V44.55C71.8358 44.3913 71.8778 44.27 71.9618 44.186C72.0551 44.102 72.1764 44.06 72.3258 44.06H72.8298C72.9884 44.06 73.1098 44.102 73.1938 44.186C73.2778 44.27 73.3198 44.3913 73.3198 44.55V53.51C73.3198 53.6593 73.2778 53.7807 73.1938 53.874C73.1098 53.958 72.9884 54 72.8298 54H72.3258Z" fill="#1B1B1F"/>
<rect x="40.5" y="62.5" width="251" height="87" rx="3.5" fill="white"/>
<rect x="40.5" y="62.5" width="251" height="87" rx="3.5" stroke="#84848F"/>
<path d="M288 140L282 146M288 144L286 146" stroke="#5C5C66" stroke-linecap="square"/>
<path d="M49.696 91C49.4827 91 49.376 90.8933 49.376 90.68V79.96C49.376 79.7467 49.4827 79.64 49.696 79.64H54C55.0987 79.64 55.984 79.928 56.656 80.504C57.328 81.08 57.664 81.896 57.664 82.952C57.664 84.008 57.328 84.8293 56.656 85.416C55.984 85.992 55.0987 86.28 54 86.28H50.512V90.68C50.512 90.8933 50.4053 91 50.192 91H49.696ZM53.856 85.336C54.688 85.336 55.344 85.1333 55.824 84.728C56.304 84.3227 56.544 83.7307 56.544 82.952C56.544 82.184 56.304 81.5973 55.824 81.192C55.344 80.7867 54.688 80.584 53.856 80.584H50.512V85.336H53.856ZM59.7075 91C59.4942 91 59.3875 90.8933 59.3875 90.68V79.96C59.3875 79.7467 59.4942 79.64 59.7075 79.64H60.1235C60.3368 79.64 60.4435 79.7467 60.4435 79.96V90.68C60.4435 90.8933 60.3368 91 60.1235 91H59.7075ZM65.8646 82.92C66.8353 82.92 67.5926 83.1547 68.1366 83.624C68.6806 84.0827 68.9526 84.6907 68.9526 85.448V90.68C68.9526 90.8933 68.846 91 68.6326 91H68.3126C68.0993 91 67.9926 90.8933 67.9926 90.68V89.96C67.726 90.3867 67.3473 90.7067 66.8566 90.92C66.3766 91.1333 65.838 91.24 65.2406 91.24C64.4086 91.24 63.7313 91.064 63.2086 90.712C62.686 90.36 62.4246 89.816 62.4246 89.08C62.4246 88.4933 62.59 88.024 62.9206 87.672C63.2513 87.3093 63.6833 87.0373 64.2166 86.856C64.75 86.664 65.4166 86.4933 66.2166 86.344L67.9446 86.04V85.528C67.9446 84.984 67.758 84.5627 67.3846 84.264C67.0113 83.9547 66.5206 83.8 65.9126 83.8C65.454 83.8 65.038 83.8853 64.6646 84.056C64.2913 84.2267 63.8913 84.52 63.4646 84.936C63.39 85.0107 63.31 85.048 63.2246 85.048C63.15 85.048 63.0806 85.016 63.0166 84.952L62.8086 84.76C62.734 84.6853 62.6966 84.6053 62.6966 84.52C62.6966 84.424 62.734 84.3387 62.8086 84.264C63.2566 83.7947 63.726 83.4533 64.2166 83.24C64.718 83.0267 65.2673 82.92 65.8646 82.92ZM65.2886 90.36C66.0566 90.36 66.6913 90.1573 67.1926 89.752C67.694 89.3467 67.9446 88.8293 67.9446 88.2V86.856L66.4566 87.144C65.7633 87.2827 65.214 87.416 64.8086 87.544C64.4033 87.672 64.078 87.8587 63.8326 88.104C63.5873 88.3493 63.4646 88.6693 63.4646 89.064C63.4646 89.4693 63.6246 89.7893 63.9446 90.024C64.2753 90.248 64.7233 90.36 65.2886 90.36ZM74.4934 91.208C73.736 91.208 73.0747 91.0373 72.5094 90.696C71.9547 90.344 71.5227 89.8587 71.2134 89.24C70.9147 88.6107 70.7654 87.8853 70.7654 87.064C70.7654 86.2533 70.9147 85.5333 71.2134 84.904C71.5227 84.2747 71.9547 83.7893 72.5094 83.448C73.0747 83.096 73.7254 82.92 74.4614 82.92C75.0587 82.92 75.5814 83.0213 76.0294 83.224C76.4774 83.416 76.9094 83.736 77.3254 84.184C77.3894 84.248 77.4214 84.3173 77.4214 84.392C77.4214 84.488 77.3787 84.568 77.2934 84.632L77.0694 84.84C77.0054 84.904 76.9307 84.936 76.8454 84.936C76.7707 84.936 76.6907 84.8933 76.6054 84.808C76.232 84.4347 75.8747 84.1733 75.5334 84.024C75.2027 83.8747 74.8347 83.8 74.4294 83.8C73.8747 83.8 73.4 83.9547 73.0054 84.264C72.6214 84.5733 72.3334 84.9787 72.1414 85.48C71.9494 85.9707 71.8534 86.4987 71.8534 87.064C71.8534 87.6293 71.9494 88.1627 72.1414 88.664C72.3334 89.1547 72.6267 89.5547 73.0214 89.864C73.416 90.1627 73.9014 90.312 74.4774 90.312C74.904 90.312 75.2774 90.2373 75.5974 90.088C75.928 89.928 76.296 89.6293 76.7014 89.192C76.7867 89.1067 76.8667 89.064 76.9414 89.064C77.0267 89.064 77.1014 89.096 77.1654 89.16L77.3894 89.336C77.464 89.4 77.5014 89.4747 77.5014 89.56C77.5014 89.6453 77.4534 89.7467 77.3574 89.864C76.9094 90.3547 76.4614 90.7013 76.0134 90.904C75.5654 91.1067 75.0587 91.208 74.4934 91.208ZM84.803 89.128C84.8777 89.0533 84.9577 89.016 85.043 89.016C85.1177 89.016 85.187 89.048 85.251 89.112L85.459 89.304C85.5337 89.3787 85.571 89.4587 85.571 89.544C85.571 89.608 85.539 89.6827 85.475 89.768C84.9523 90.2907 84.4457 90.664 83.955 90.888C83.4643 91.1013 82.915 91.208 82.307 91.208C81.539 91.208 80.8723 91.0373 80.307 90.696C79.7417 90.3547 79.3043 89.88 78.995 89.272C78.6857 88.6533 78.531 87.9387 78.531 87.128C78.531 86.3067 78.6803 85.5813 78.979 84.952C79.2883 84.312 79.7203 83.816 80.275 83.464C80.8297 83.1013 81.4697 82.92 82.195 82.92C83.2723 82.92 84.1203 83.256 84.739 83.928C85.3577 84.6 85.667 85.5067 85.667 86.648V86.84C85.6563 86.936 85.619 87.0107 85.555 87.064C85.5017 87.1173 85.427 87.144 85.331 87.144H79.603C79.635 88.04 79.8697 88.7973 80.307 89.416C80.755 90.024 81.4217 90.328 82.307 90.328C82.787 90.328 83.2083 90.2427 83.571 90.072C83.9443 89.8907 84.355 89.576 84.803 89.128ZM82.195 83.8C81.491 83.8 80.9097 84.0187 80.451 84.456C80.003 84.8827 79.731 85.512 79.635 86.344H84.611C84.5897 85.5653 84.3657 84.9467 83.939 84.488C83.5123 84.0293 82.931 83.8 82.195 83.8ZM91.079 82.92C91.9963 82.92 92.695 83.1813 93.175 83.704C93.655 84.216 93.895 84.8507 93.895 85.608V90.68C93.895 90.8933 93.7883 91 93.575 91H93.159C92.9457 91 92.839 90.8933 92.839 90.68V85.96C92.839 85.256 92.6683 84.7227 92.327 84.36C91.9857 83.9973 91.495 83.816 90.855 83.816C90.4497 83.816 90.0763 83.9173 89.735 84.12C89.3937 84.312 89.1217 84.5787 88.919 84.92C88.7163 85.2613 88.615 85.6347 88.615 86.04V90.68C88.615 90.8933 88.5083 91 88.295 91H87.879C87.6657 91 87.559 90.8933 87.559 90.68V79.96C87.559 79.7467 87.6657 79.64 87.879 79.64H88.295C88.5083 79.64 88.615 79.7467 88.615 79.96V84.136C88.871 83.7307 89.2123 83.4267 89.639 83.224C90.0763 83.0213 90.5563 82.92 91.079 82.92ZM99.4949 91.208C98.7589 91.208 98.1029 91.032 97.5269 90.68C96.9509 90.328 96.5029 89.8427 96.1829 89.224C95.8629 88.5947 95.7029 87.8747 95.7029 87.064C95.7029 86.2533 95.8629 85.5387 96.1829 84.92C96.5029 84.2907 96.9509 83.8 97.5269 83.448C98.1029 83.096 98.7589 82.92 99.4949 82.92C100.231 82.92 100.887 83.096 101.463 83.448C102.039 83.8 102.487 84.2907 102.807 84.92C103.127 85.5387 103.287 86.2533 103.287 87.064C103.287 87.8747 103.127 88.5947 102.807 89.224C102.487 89.8427 102.039 90.328 101.463 90.68C100.887 91.032 100.231 91.208 99.4949 91.208ZM99.4949 90.328C100.316 90.328 100.972 90.0293 101.463 89.432C101.954 88.824 102.199 88.0347 102.199 87.064C102.199 86.0933 101.954 85.3093 101.463 84.712C100.972 84.104 100.316 83.8 99.4949 83.8C98.6735 83.8 98.0175 84.104 97.5269 84.712C97.0362 85.3093 96.7909 86.0933 96.7909 87.064C96.7909 88.0347 97.0362 88.824 97.5269 89.432C98.0175 90.0293 98.6735 90.328 99.4949 90.328ZM105.458 91C105.244 91 105.138 90.8933 105.138 90.68V79.96C105.138 79.7467 105.244 79.64 105.458 79.64H105.874C106.087 79.64 106.194 79.7467 106.194 79.96V90.68C106.194 90.8933 106.087 91 105.874 91H105.458ZM114.271 79.96C114.271 79.7467 114.377 79.64 114.591 79.64H115.007C115.22 79.64 115.327 79.7467 115.327 79.96V90.68C115.327 90.8933 115.22 91 115.007 91H114.671C114.457 91 114.351 90.8933 114.351 90.68V89.64C114.063 90.1413 113.684 90.5253 113.215 90.792C112.745 91.0587 112.191 91.192 111.551 91.192C110.879 91.192 110.281 91.0213 109.759 90.68C109.236 90.328 108.825 89.8427 108.527 89.224C108.228 88.5947 108.079 87.8747 108.079 87.064C108.079 86.2533 108.228 85.5387 108.527 84.92C108.836 84.2907 109.257 83.8053 109.791 83.464C110.324 83.112 110.921 82.936 111.583 82.936C112.799 82.936 113.695 83.3893 114.271 84.296V79.96ZM111.631 90.296C112.431 90.296 113.076 90.0133 113.567 89.448C114.068 88.872 114.319 88.0773 114.319 87.064C114.319 86.0613 114.068 85.272 113.567 84.696C113.076 84.12 112.431 83.832 111.631 83.832C110.895 83.832 110.297 84.1307 109.839 84.728C109.391 85.3253 109.167 86.104 109.167 87.064C109.167 88.0347 109.391 88.8187 109.839 89.416C110.287 90.0027 110.884 90.296 111.631 90.296ZM123.444 89.128C123.518 89.0533 123.598 89.016 123.684 89.016C123.758 89.016 123.828 89.048 123.892 89.112L124.1 89.304C124.174 89.3787 124.212 89.4587 124.212 89.544C124.212 89.608 124.18 89.6827 124.116 89.768C123.593 90.2907 123.086 90.664 122.596 90.888C122.105 91.1013 121.556 91.208 120.948 91.208C120.18 91.208 119.513 91.0373 118.948 90.696C118.382 90.3547 117.945 89.88 117.636 89.272C117.326 88.6533 117.172 87.9387 117.172 87.128C117.172 86.3067 117.321 85.5813 117.62 84.952C117.929 84.312 118.361 83.816 118.916 83.464C119.47 83.1013 120.11 82.92 120.836 82.92C121.913 82.92 122.761 83.256 123.38 83.928C123.998 84.6 124.308 85.5067 124.308 86.648V86.84C124.297 86.936 124.26 87.0107 124.196 87.064C124.142 87.1173 124.068 87.144 123.972 87.144H118.244C118.276 88.04 118.51 88.7973 118.948 89.416C119.396 90.024 120.062 90.328 120.948 90.328C121.428 90.328 121.849 90.2427 122.212 90.072C122.585 89.8907 122.996 89.576 123.444 89.128ZM120.836 83.8C120.132 83.8 119.55 84.0187 119.092 84.456C118.644 84.8827 118.372 85.512 118.276 86.344H123.252C123.23 85.5653 123.006 84.9467 122.58 84.488C122.153 84.0293 121.572 83.8 120.836 83.8ZM129.144 83.048C129.41 83.048 129.725 83.0907 130.088 83.176C130.28 83.24 130.354 83.3733 130.312 83.576L130.248 83.832C130.194 84.0347 130.061 84.1093 129.848 84.056C129.592 83.992 129.357 83.96 129.144 83.96C128.6 83.96 128.146 84.1947 127.784 84.664C127.432 85.1333 127.256 85.784 127.256 86.616V90.68C127.256 90.8933 127.149 91 126.936 91H126.52C126.306 91 126.2 90.8933 126.2 90.68V83.432C126.2 83.2187 126.306 83.112 126.52 83.112H126.872C127.085 83.112 127.192 83.2187 127.192 83.432V84.312C127.373 83.9173 127.629 83.608 127.96 83.384C128.301 83.16 128.696 83.048 129.144 83.048Z" fill="#CACAD1"/>
<path d="M41.272 166C41.112 166 41.032 165.92 41.032 165.76V157.72C41.032 157.56 41.112 157.48 41.272 157.48H41.644C41.804 157.48 41.884 157.56 41.884 157.72V161.248H46.804V157.72C46.804 157.56 46.884 157.48 47.044 157.48H47.416C47.576 157.48 47.656 157.56 47.656 157.72V165.76C47.656 165.92 47.576 166 47.416 166H47.044C46.884 166 46.804 165.92 46.804 165.76V161.956H41.884V165.76C41.884 165.92 41.804 166 41.644 166H41.272ZM53.8796 164.596C53.9356 164.54 53.9956 164.512 54.0596 164.512C54.1156 164.512 54.1676 164.536 54.2156 164.584L54.3716 164.728C54.4276 164.784 54.4556 164.844 54.4556 164.908C54.4556 164.956 54.4316 165.012 54.3836 165.076C53.9916 165.468 53.6116 165.748 53.2436 165.916C52.8756 166.076 52.4636 166.156 52.0076 166.156C51.4316 166.156 50.9316 166.028 50.5076 165.772C50.0836 165.516 49.7556 165.16 49.5236 164.704C49.2916 164.24 49.1756 163.704 49.1756 163.096C49.1756 162.48 49.2876 161.936 49.5116 161.464C49.7436 160.984 50.0676 160.612 50.4836 160.348C50.8996 160.076 51.3796 159.94 51.9236 159.94C52.7316 159.94 53.3676 160.192 53.8316 160.696C54.2956 161.2 54.5276 161.88 54.5276 162.736V162.88C54.5196 162.952 54.4916 163.008 54.4436 163.048C54.4036 163.088 54.3476 163.108 54.2756 163.108H49.9796C50.0036 163.78 50.1796 164.348 50.5076 164.812C50.8436 165.268 51.3436 165.496 52.0076 165.496C52.3676 165.496 52.6836 165.432 52.9556 165.304C53.2356 165.168 53.5436 164.932 53.8796 164.596ZM51.9236 160.6C51.3956 160.6 50.9596 160.764 50.6156 161.092C50.2796 161.412 50.0756 161.884 50.0036 162.508H53.7356C53.7196 161.924 53.5516 161.46 53.2316 161.116C52.9116 160.772 52.4756 160.6 51.9236 160.6ZM56.1986 166C56.0386 166 55.9586 165.92 55.9586 165.76V157.72C55.9586 157.56 56.0386 157.48 56.1986 157.48H56.5106C56.6706 157.48 56.7506 157.56 56.7506 157.72V165.76C56.7506 165.92 56.6706 166 56.5106 166H56.1986ZM61.3684 159.952C61.8644 159.952 62.3084 160.084 62.7004 160.348C63.1004 160.604 63.4124 160.968 63.6364 161.44C63.8604 161.904 63.9724 162.436 63.9724 163.036C63.9724 163.644 63.8604 164.184 63.6364 164.656C63.4124 165.128 63.1044 165.496 62.7124 165.76C62.3204 166.016 61.8724 166.144 61.3684 166.144C60.4404 166.144 59.7604 165.804 59.3284 165.124V167.968C59.3284 168.128 59.2484 168.208 59.0884 168.208H58.7764C58.6164 168.208 58.5364 168.128 58.5364 167.968V160.324C58.5364 160.164 58.6164 160.084 58.7764 160.084H59.0404C59.2004 160.084 59.2804 160.164 59.2804 160.324V161.08C59.4964 160.712 59.7804 160.432 60.1324 160.24C60.4844 160.048 60.8964 159.952 61.3684 159.952ZM61.3084 165.472C61.8684 165.472 62.3164 165.248 62.6524 164.8C62.9884 164.352 63.1564 163.764 63.1564 163.036C63.1564 162.316 62.9884 161.736 62.6524 161.296C62.3164 160.848 61.8684 160.624 61.3084 160.624C60.7084 160.624 60.2204 160.84 59.8444 161.272C59.4764 161.696 59.2924 162.284 59.2924 163.036C59.2924 163.788 59.4804 164.384 59.8564 164.824C60.2324 165.256 60.7164 165.472 61.3084 165.472ZM70.8098 165.34C70.8338 165.332 70.8658 165.328 70.9058 165.328C70.9538 165.328 70.9978 165.344 71.0378 165.376C71.0778 165.408 71.1018 165.452 71.1098 165.508L71.1458 165.676C71.1538 165.692 71.1578 165.72 71.1578 165.76C71.1578 165.872 71.0978 165.94 70.9778 165.964C70.6898 166.052 70.3818 166.096 70.0538 166.096C69.5338 166.096 69.1618 165.98 68.9378 165.748C68.7218 165.508 68.6138 165.164 68.6138 164.716V160.684H67.7258C67.5658 160.684 67.4858 160.604 67.4858 160.444V160.324C67.4858 160.164 67.5658 160.084 67.7258 160.084H68.6138V158.26C68.6138 158.1 68.6938 158.02 68.8538 158.02H69.1658C69.3258 158.02 69.4058 158.1 69.4058 158.26V160.084H70.8458C71.0058 160.084 71.0858 160.164 71.0858 160.324V160.444C71.0858 160.604 71.0058 160.684 70.8458 160.684H69.4058V164.62C69.4058 164.916 69.4618 165.124 69.5738 165.244C69.6858 165.364 69.8778 165.424 70.1498 165.424C70.3418 165.424 70.5618 165.396 70.8098 165.34ZM76.3796 164.596C76.4356 164.54 76.4956 164.512 76.5596 164.512C76.6156 164.512 76.6676 164.536 76.7156 164.584L76.8716 164.728C76.9276 164.784 76.9556 164.844 76.9556 164.908C76.9556 164.956 76.9316 165.012 76.8836 165.076C76.4916 165.468 76.1116 165.748 75.7436 165.916C75.3756 166.076 74.9636 166.156 74.5076 166.156C73.9316 166.156 73.4316 166.028 73.0076 165.772C72.5836 165.516 72.2556 165.16 72.0236 164.704C71.7916 164.24 71.6756 163.704 71.6756 163.096C71.6756 162.48 71.7876 161.936 72.0116 161.464C72.2436 160.984 72.5676 160.612 72.9836 160.348C73.3996 160.076 73.8796 159.94 74.4236 159.94C75.2316 159.94 75.8676 160.192 76.3316 160.696C76.7956 161.2 77.0276 161.88 77.0276 162.736V162.88C77.0196 162.952 76.9916 163.008 76.9436 163.048C76.9036 163.088 76.8476 163.108 76.7756 163.108H72.4796C72.5036 163.78 72.6796 164.348 73.0076 164.812C73.3436 165.268 73.8436 165.496 74.5076 165.496C74.8676 165.496 75.1836 165.432 75.4556 165.304C75.7356 165.168 76.0436 164.932 76.3796 164.596ZM74.4236 160.6C73.8956 160.6 73.4596 160.764 73.1156 161.092C72.7796 161.412 72.5756 161.884 72.5036 162.508H76.2356C76.2196 161.924 76.0516 161.46 75.7316 161.116C75.4116 160.772 74.9756 160.6 74.4236 160.6ZM82.6383 165.712C82.6703 165.768 82.6863 165.816 82.6863 165.856C82.6863 165.952 82.6223 166 82.4943 166H82.1343C82.0143 166 81.9183 165.948 81.8463 165.844L80.2143 163.444L78.5943 165.844C78.5223 165.948 78.4263 166 78.3063 166H77.9703C77.9063 166 77.8543 165.988 77.8143 165.964C77.7823 165.932 77.7663 165.896 77.7663 165.856C77.7663 165.8 77.7823 165.752 77.8143 165.712L79.7583 162.916L77.9703 160.372C77.9383 160.332 77.9223 160.288 77.9223 160.24C77.9223 160.136 77.9903 160.084 78.1263 160.084H78.4743C78.5943 160.084 78.6903 160.136 78.7623 160.24L80.2263 162.388L81.6783 160.24C81.7503 160.136 81.8463 160.084 81.9663 160.084H82.2903C82.3543 160.084 82.4023 160.1 82.4343 160.132C82.4743 160.156 82.4943 160.188 82.4943 160.228C82.4943 160.284 82.4783 160.332 82.4463 160.372L80.6943 162.88L82.6383 165.712ZM86.6184 165.34C86.6424 165.332 86.6744 165.328 86.7144 165.328C86.7624 165.328 86.8064 165.344 86.8464 165.376C86.8864 165.408 86.9104 165.452 86.9184 165.508L86.9544 165.676C86.9624 165.692 86.9664 165.72 86.9664 165.76C86.9664 165.872 86.9064 165.94 86.7864 165.964C86.4984 166.052 86.1904 166.096 85.8624 166.096C85.3424 166.096 84.9704 165.98 84.7464 165.748C84.5304 165.508 84.4224 165.164 84.4224 164.716V160.684H83.5344C83.3744 160.684 83.2944 160.604 83.2944 160.444V160.324C83.2944 160.164 83.3744 160.084 83.5344 160.084H84.4224V158.26C84.4224 158.1 84.5024 158.02 84.6624 158.02H84.9744C85.1344 158.02 85.2144 158.1 85.2144 158.26V160.084H86.6544C86.8144 160.084 86.8944 160.164 86.8944 160.324V160.444C86.8944 160.604 86.8144 160.684 86.6544 160.684H85.2144V164.62C85.2144 164.916 85.2704 165.124 85.3824 165.244C85.4944 165.364 85.6864 165.424 85.9584 165.424C86.1504 165.424 86.3704 165.396 86.6184 165.34Z" fill="#5C5C66"/>
</svg>
