<svg width="688" height="450" viewBox="0 0 688 450" fill="none" xmlns="http://www.w3.org/2000/svg">
<rect width="688" height="450" fill="#F6F6F6"/>
<rect x="112" y="80" width="464" height="290" rx="8" fill="white"/>
<rect x="225" y="96" width="40" height="40" rx="20" fill="#BE3830"/>
<path d="M243.29 112.04V110.878H245.922V121H244.634V112.04H243.29Z" fill="white"/>
<rect width="26" height="3" transform="translate(246.5 136) rotate(90)" fill="#BE3830"/>
<rect x="271" y="96" width="41" height="40" rx="20" fill="#BE3830"/>
<path d="M288.188 119.978C289.373 119.026 290.302 118.247 290.974 117.64C291.646 117.024 292.21 116.385 292.668 115.722C293.134 115.05 293.368 114.392 293.368 113.748C293.368 113.141 293.218 112.665 292.92 112.32C292.63 111.965 292.159 111.788 291.506 111.788C290.871 111.788 290.376 111.989 290.022 112.39C289.676 112.782 289.49 113.309 289.462 113.972H288.23C288.267 112.927 288.584 112.119 289.182 111.55C289.779 110.981 290.549 110.696 291.492 110.696C292.453 110.696 293.214 110.962 293.774 111.494C294.343 112.026 294.628 112.759 294.628 113.692C294.628 114.467 294.394 115.223 293.928 115.96C293.47 116.688 292.948 117.332 292.36 117.892C291.772 118.443 291.02 119.087 290.106 119.824H294.922V120.888H288.188V119.978Z" fill="white"/>
<rect width="26" height="3" transform="translate(293 136) rotate(90)" fill="#BE3830"/>
<rect width="26" height="3" transform="translate(246 288) rotate(90)" fill="#BE3830"/>
<rect x="224" y="314" width="41" height="40" rx="20" fill="#BE3830"/>
<path d="M246.567 331.286C246.361 330.25 245.722 329.732 244.649 329.732C243.818 329.732 243.197 330.054 242.787 330.698C242.376 331.333 242.175 332.383 242.185 333.848C242.399 333.363 242.754 332.985 243.249 332.714C243.753 332.434 244.313 332.294 244.929 332.294C245.89 332.294 246.655 332.593 247.225 333.19C247.803 333.787 248.093 334.613 248.093 335.668C248.093 336.303 247.967 336.872 247.715 337.376C247.472 337.88 247.099 338.281 246.595 338.58C246.1 338.879 245.498 339.028 244.789 339.028C243.827 339.028 243.076 338.813 242.535 338.384C241.993 337.955 241.615 337.362 241.401 336.606C241.186 335.85 241.079 334.917 241.079 333.806C241.079 330.381 242.273 328.668 244.663 328.668C245.577 328.668 246.296 328.915 246.819 329.41C247.341 329.905 247.649 330.53 247.743 331.286H246.567ZM244.663 333.372C244.261 333.372 243.883 333.456 243.529 333.624C243.174 333.783 242.885 334.03 242.661 334.366C242.446 334.693 242.339 335.094 242.339 335.57C242.339 336.279 242.544 336.858 242.955 337.306C243.365 337.745 243.953 337.964 244.719 337.964C245.372 337.964 245.89 337.763 246.273 337.362C246.665 336.951 246.861 336.401 246.861 335.71C246.861 334.982 246.674 334.413 246.301 334.002C245.927 333.582 245.381 333.372 244.663 333.372Z" fill="white"/>
<rect width="39" height="3" transform="translate(444 263.5)" fill="#BE3830"/>
<rect x="483" y="245" width="41" height="40" rx="20" fill="#BE3830"/>
<path d="M506.426 260.984H501.512V264.176C501.727 263.877 502.044 263.635 502.464 263.448C502.884 263.252 503.337 263.154 503.822 263.154C504.597 263.154 505.227 263.317 505.712 263.644C506.198 263.961 506.543 264.377 506.748 264.89C506.963 265.394 507.07 265.931 507.07 266.5C507.07 267.172 506.944 267.774 506.692 268.306C506.44 268.838 506.053 269.258 505.53 269.566C505.017 269.874 504.378 270.028 503.612 270.028C502.632 270.028 501.839 269.776 501.232 269.272C500.626 268.768 500.257 268.096 500.126 267.256H501.372C501.494 267.788 501.75 268.203 502.142 268.502C502.534 268.801 503.029 268.95 503.626 268.95C504.364 268.95 504.919 268.731 505.292 268.292C505.666 267.844 505.852 267.256 505.852 266.528C505.852 265.8 505.666 265.24 505.292 264.848C504.919 264.447 504.368 264.246 503.64 264.246C503.146 264.246 502.712 264.367 502.338 264.61C501.974 264.843 501.708 265.165 501.54 265.576H500.336V259.864H506.426V260.984Z" fill="white"/>
<rect x="136" y="182" width="41" height="40" rx="20" fill="#BE3830"/>
<path d="M152.658 204.746V203.78L157.572 196.976H159.098V203.64H160.498V204.746H159.098V207H157.838V204.746H152.658ZM157.894 198.306L154.128 203.64H157.894V198.306Z" fill="white"/>
<rect width="63" height="3" transform="translate(177 200.5)" fill="#BE3830"/>
<path d="M244.068 174C243.919 174 243.797 173.958 243.704 173.874C243.62 173.781 243.578 173.659 243.578 173.51V164.55C243.578 164.391 243.62 164.27 243.704 164.186C243.797 164.102 243.919 164.06 244.068 164.06H244.684C244.843 164.06 244.964 164.102 245.048 164.186C245.132 164.27 245.174 164.391 245.174 164.55V172.642H249.22C249.379 172.642 249.5 172.684 249.584 172.768C249.668 172.852 249.71 172.973 249.71 173.132V173.51C249.71 173.659 249.668 173.781 249.584 173.874C249.5 173.958 249.379 174 249.22 174H244.068ZM254.004 166.888C254.938 166.888 255.656 167.107 256.16 167.546C256.664 167.975 256.916 168.549 256.916 169.268V173.51C256.916 173.659 256.874 173.781 256.79 173.874C256.706 173.958 256.585 174 256.426 174H256.062C255.913 174 255.792 173.958 255.698 173.874C255.614 173.781 255.572 173.659 255.572 173.51V173.202C255.348 173.529 255.04 173.781 254.648 173.958C254.256 174.135 253.799 174.224 253.276 174.224C252.558 174.224 251.965 174.065 251.498 173.748C251.041 173.421 250.812 172.931 250.812 172.278C250.812 171.55 251.083 171.013 251.624 170.668C252.175 170.313 252.936 170.047 253.906 169.87L255.488 169.576V169.324C255.488 168.941 255.353 168.647 255.082 168.442C254.821 168.227 254.471 168.12 254.032 168.12C253.659 168.12 253.332 168.185 253.052 168.316C252.782 168.437 252.488 168.643 252.17 168.932C252.049 169.035 251.932 169.086 251.82 169.086C251.708 169.086 251.592 169.035 251.47 168.932L251.246 168.736C251.125 168.624 251.064 168.503 251.064 168.372C251.064 168.251 251.12 168.134 251.232 168.022C251.634 167.639 252.058 167.355 252.506 167.168C252.954 166.981 253.454 166.888 254.004 166.888ZM253.486 173.034C254.046 173.034 254.518 172.885 254.9 172.586C255.292 172.287 255.488 171.858 255.488 171.298V170.654L254.27 170.906C253.589 171.046 253.085 171.205 252.758 171.382C252.432 171.559 252.268 171.83 252.268 172.194C252.268 172.455 252.376 172.661 252.59 172.81C252.805 172.959 253.104 173.034 253.486 173.034ZM262.28 166.916C262.868 166.916 263.39 167.065 263.848 167.364C264.314 167.663 264.678 168.087 264.94 168.638C265.201 169.189 265.332 169.823 265.332 170.542C265.332 171.27 265.201 171.909 264.94 172.46C264.678 173.011 264.314 173.435 263.848 173.734C263.381 174.033 262.858 174.182 262.28 174.182C261.244 174.182 260.483 173.795 259.998 173.02V173.51C259.998 173.659 259.956 173.781 259.872 173.874C259.788 173.958 259.666 174 259.508 174H259.102C258.952 174 258.831 173.958 258.738 173.874C258.654 173.781 258.612 173.659 258.612 173.51V164.55C258.612 164.391 258.654 164.27 258.738 164.186C258.831 164.102 258.952 164.06 259.102 164.06H259.606C259.764 164.06 259.886 164.102 259.97 164.186C260.054 164.27 260.096 164.391 260.096 164.55V167.966C260.59 167.266 261.318 166.916 262.28 166.916ZM261.972 172.894C262.532 172.894 262.98 172.684 263.316 172.264C263.652 171.835 263.82 171.261 263.82 170.542C263.82 169.833 263.652 169.263 263.316 168.834C262.989 168.405 262.546 168.19 261.986 168.19C261.416 168.19 260.95 168.405 260.586 168.834C260.222 169.254 260.04 169.823 260.04 170.542C260.04 171.279 260.222 171.858 260.586 172.278C260.95 172.689 261.412 172.894 261.972 172.894ZM271.702 172.236C271.824 172.133 271.94 172.082 272.052 172.082C272.164 172.082 272.281 172.143 272.402 172.264L272.598 172.474C272.701 172.595 272.752 172.712 272.752 172.824C272.752 172.945 272.692 173.062 272.57 173.174C272.141 173.547 271.712 173.813 271.282 173.972C270.862 174.131 270.396 174.21 269.882 174.21C269.164 174.21 268.538 174.061 268.006 173.762C267.484 173.463 267.078 173.043 266.788 172.502C266.508 171.951 266.368 171.317 266.368 170.598C266.368 169.889 266.504 169.254 266.774 168.694C267.054 168.125 267.446 167.681 267.95 167.364C268.464 167.047 269.061 166.888 269.742 166.888C270.76 166.888 271.544 167.191 272.094 167.798C272.645 168.395 272.92 169.221 272.92 170.276V170.402C272.911 170.551 272.864 170.668 272.78 170.752C272.696 170.836 272.575 170.878 272.416 170.878H267.824C267.88 171.494 268.081 171.998 268.426 172.39C268.781 172.773 269.276 172.964 269.91 172.964C270.256 172.964 270.559 172.913 270.82 172.81C271.082 172.698 271.376 172.507 271.702 172.236ZM269.714 168.064C269.201 168.064 268.786 168.218 268.468 168.526C268.16 168.825 267.96 169.249 267.866 169.8H271.464C271.427 169.259 271.259 168.834 270.96 168.526C270.662 168.218 270.246 168.064 269.714 168.064ZM274.826 174C274.676 174 274.555 173.958 274.462 173.874C274.378 173.781 274.336 173.659 274.336 173.51V164.55C274.336 164.391 274.378 164.27 274.462 164.186C274.555 164.102 274.676 164.06 274.826 164.06H275.33C275.488 164.06 275.61 164.102 275.694 164.186C275.778 164.27 275.82 164.391 275.82 164.55V173.51C275.82 173.659 275.778 173.781 275.694 173.874C275.61 173.958 275.488 174 275.33 174H274.826Z" fill="#1B1B1F"/>
<path d="M286.012 174.18C285.204 174.18 284.5 173.992 283.9 173.616C283.3 173.232 282.84 172.704 282.52 172.032C282.2 171.36 282.04 170.596 282.04 169.74C282.04 168.884 282.2 168.12 282.52 167.448C282.84 166.776 283.3 166.252 283.9 165.876C284.5 165.492 285.204 165.3 286.012 165.3C286.82 165.3 287.524 165.492 288.124 165.876C288.724 166.252 289.184 166.776 289.504 167.448C289.824 168.12 289.984 168.884 289.984 169.74C289.984 170.596 289.824 171.36 289.504 172.032C289.184 172.704 288.724 173.232 288.124 173.616C287.524 173.992 286.82 174.18 286.012 174.18ZM286.012 173.448C286.628 173.448 287.172 173.292 287.644 172.98C288.116 172.66 288.48 172.22 288.736 171.66C289 171.092 289.132 170.452 289.132 169.74C289.132 169.028 289 168.392 288.736 167.832C288.48 167.264 288.116 166.824 287.644 166.512C287.172 166.192 286.628 166.032 286.012 166.032C285.396 166.032 284.852 166.192 284.38 166.512C283.908 166.824 283.54 167.264 283.276 167.832C283.02 168.392 282.892 169.028 282.892 169.74C282.892 170.452 283.02 171.092 283.276 171.66C283.54 172.22 283.908 172.66 284.38 172.98C284.852 173.292 285.396 173.448 286.012 173.448ZM294.232 167.952C294.728 167.952 295.172 168.084 295.564 168.348C295.964 168.604 296.276 168.968 296.5 169.44C296.724 169.904 296.836 170.436 296.836 171.036C296.836 171.644 296.724 172.184 296.5 172.656C296.276 173.128 295.968 173.496 295.576 173.76C295.184 174.016 294.736 174.144 294.232 174.144C293.304 174.144 292.624 173.804 292.192 173.124V175.968C292.192 176.128 292.112 176.208 291.952 176.208H291.64C291.48 176.208 291.4 176.128 291.4 175.968V168.324C291.4 168.164 291.48 168.084 291.64 168.084H291.904C292.064 168.084 292.144 168.164 292.144 168.324V169.08C292.36 168.712 292.644 168.432 292.996 168.24C293.348 168.048 293.76 167.952 294.232 167.952ZM294.172 173.472C294.732 173.472 295.18 173.248 295.516 172.8C295.852 172.352 296.02 171.764 296.02 171.036C296.02 170.316 295.852 169.736 295.516 169.296C295.18 168.848 294.732 168.624 294.172 168.624C293.572 168.624 293.084 168.84 292.708 169.272C292.34 169.696 292.156 170.284 292.156 171.036C292.156 171.788 292.344 172.384 292.72 172.824C293.096 173.256 293.58 173.472 294.172 173.472ZM300.732 173.34C300.756 173.332 300.788 173.328 300.828 173.328C300.876 173.328 300.92 173.344 300.96 173.376C301 173.408 301.024 173.452 301.032 173.508L301.068 173.676C301.076 173.692 301.08 173.72 301.08 173.76C301.08 173.872 301.02 173.94 300.9 173.964C300.612 174.052 300.304 174.096 299.976 174.096C299.456 174.096 299.084 173.98 298.86 173.748C298.644 173.508 298.536 173.164 298.536 172.716V168.684H297.648C297.488 168.684 297.408 168.604 297.408 168.444V168.324C297.408 168.164 297.488 168.084 297.648 168.084H298.536V166.26C298.536 166.1 298.616 166.02 298.776 166.02H299.088C299.248 166.02 299.328 166.1 299.328 166.26V168.084H300.768C300.928 168.084 301.008 168.164 301.008 168.324V168.444C301.008 168.604 300.928 168.684 300.768 168.684H299.328V172.62C299.328 172.916 299.384 173.124 299.496 173.244C299.608 173.364 299.8 173.424 300.072 173.424C300.264 173.424 300.484 173.396 300.732 173.34ZM302.612 166.584C302.452 166.584 302.316 166.528 302.204 166.416C302.1 166.304 302.048 166.168 302.048 166.008C302.048 165.848 302.1 165.716 302.204 165.612C302.316 165.508 302.452 165.456 302.612 165.456C302.78 165.456 302.916 165.508 303.02 165.612C303.132 165.716 303.188 165.848 303.188 166.008C303.188 166.168 303.132 166.304 303.02 166.416C302.916 166.528 302.78 166.584 302.612 166.584ZM302.456 174C302.296 174 302.216 173.92 302.216 173.76V168.324C302.216 168.164 302.296 168.084 302.456 168.084H302.768C302.928 168.084 303.008 168.164 303.008 168.324V173.76C303.008 173.92 302.928 174 302.768 174H302.456ZM307.219 174.156C306.667 174.156 306.175 174.024 305.743 173.76C305.311 173.496 304.975 173.132 304.735 172.668C304.495 172.196 304.375 171.656 304.375 171.048C304.375 170.44 304.495 169.904 304.735 169.44C304.975 168.968 305.311 168.6 305.743 168.336C306.175 168.072 306.667 167.94 307.219 167.94C307.771 167.94 308.263 168.072 308.695 168.336C309.127 168.6 309.463 168.968 309.703 169.44C309.943 169.904 310.063 170.44 310.063 171.048C310.063 171.656 309.943 172.196 309.703 172.668C309.463 173.132 309.127 173.496 308.695 173.76C308.263 174.024 307.771 174.156 307.219 174.156ZM307.219 173.496C307.835 173.496 308.327 173.272 308.695 172.824C309.063 172.368 309.247 171.776 309.247 171.048C309.247 170.32 309.063 169.732 308.695 169.284C308.327 168.828 307.835 168.6 307.219 168.6C306.603 168.6 306.111 168.828 305.743 169.284C305.375 169.732 305.191 170.32 305.191 171.048C305.191 171.776 305.375 172.368 305.743 172.824C306.111 173.272 306.603 173.496 307.219 173.496ZM314.079 167.94C314.775 167.94 315.299 168.132 315.651 168.516C316.011 168.9 316.191 169.38 316.191 169.956V173.76C316.191 173.92 316.111 174 315.951 174H315.639C315.479 174 315.399 173.92 315.399 173.76V170.22C315.399 169.692 315.271 169.292 315.015 169.02C314.759 168.748 314.391 168.612 313.911 168.612C313.607 168.612 313.327 168.688 313.071 168.84C312.815 168.984 312.611 169.184 312.459 169.44C312.307 169.696 312.231 169.976 312.231 170.28V173.76C312.231 173.92 312.151 174 311.991 174H311.679C311.519 174 311.439 173.92 311.439 173.76V168.324C311.439 168.164 311.519 168.084 311.679 168.084H311.943C312.103 168.084 312.183 168.164 312.183 168.324V168.9C312.383 168.58 312.647 168.34 312.975 168.18C313.303 168.02 313.671 167.94 314.079 167.94ZM320.223 167.94C320.951 167.94 321.519 168.116 321.927 168.468C322.335 168.812 322.539 169.268 322.539 169.836V173.76C322.539 173.92 322.459 174 322.299 174H322.059C321.899 174 321.819 173.92 321.819 173.76V173.22C321.619 173.54 321.335 173.78 320.967 173.94C320.607 174.1 320.203 174.18 319.755 174.18C319.131 174.18 318.623 174.048 318.231 173.784C317.839 173.52 317.643 173.112 317.643 172.56C317.643 172.12 317.767 171.768 318.015 171.504C318.263 171.232 318.587 171.028 318.987 170.892C319.387 170.748 319.887 170.62 320.487 170.508L321.783 170.28V169.896C321.783 169.488 321.643 169.172 321.363 168.948C321.083 168.716 320.715 168.6 320.259 168.6C319.915 168.6 319.603 168.664 319.323 168.792C319.043 168.92 318.743 169.14 318.423 169.452C318.367 169.508 318.307 169.536 318.243 169.536C318.187 169.536 318.135 169.512 318.087 169.464L317.931 169.32C317.875 169.264 317.847 169.204 317.847 169.14C317.847 169.068 317.875 169.004 317.931 168.948C318.267 168.596 318.619 168.34 318.987 168.18C319.363 168.02 319.775 167.94 320.223 167.94ZM319.791 173.52C320.367 173.52 320.843 173.368 321.219 173.064C321.595 172.76 321.783 172.372 321.783 171.9V170.892L320.667 171.108C320.147 171.212 319.735 171.312 319.431 171.408C319.127 171.504 318.883 171.644 318.699 171.828C318.515 172.012 318.423 172.252 318.423 172.548C318.423 172.852 318.543 173.092 318.783 173.268C319.031 173.436 319.367 173.52 319.791 173.52ZM324.546 174C324.386 174 324.306 173.92 324.306 173.76V165.72C324.306 165.56 324.386 165.48 324.546 165.48H324.858C325.018 165.48 325.098 165.56 325.098 165.72V173.76C325.098 173.92 325.018 174 324.858 174H324.546Z" fill="#5C5C66"/>
<path d="M338.5 166.5L338.5 166M338.5 168.5L338.5 172M344.5 169C344.5 172.314 341.814 175 338.5 175C335.186 175 332.5 172.314 332.5 169C332.5 165.686 335.186 163 338.5 163C341.814 163 344.5 165.686 344.5 169Z" stroke="#1B1B1F" stroke-linecap="round" stroke-linejoin="round"/>
<rect x="243" y="182.5" width="202" height="87" rx="3.5" fill="white"/>
<rect x="243" y="182.5" width="202" height="87" rx="3.5" stroke="#CACAD1"/>
<path d="M441.5 260L435.5 266M441.5 264L439.5 266" stroke="#5C5C66" stroke-linecap="square"/>
<path d="M252.196 211C251.983 211 251.876 210.893 251.876 210.68V199.96C251.876 199.747 251.983 199.64 252.196 199.64H252.692C252.905 199.64 253.012 199.747 253.012 199.96V204.664H259.572V199.96C259.572 199.747 259.679 199.64 259.892 199.64H260.388C260.601 199.64 260.708 199.747 260.708 199.96V210.68C260.708 210.893 260.601 211 260.388 211H259.892C259.679 211 259.572 210.893 259.572 210.68V205.608H253.012V210.68C253.012 210.893 252.905 211 252.692 211H252.196ZM263.79 201.112C263.577 201.112 263.395 201.037 263.246 200.888C263.107 200.739 263.038 200.557 263.038 200.344C263.038 200.131 263.107 199.955 263.246 199.816C263.395 199.677 263.577 199.608 263.79 199.608C264.014 199.608 264.195 199.677 264.334 199.816C264.483 199.955 264.558 200.131 264.558 200.344C264.558 200.557 264.483 200.739 264.334 200.888C264.195 201.037 264.014 201.112 263.79 201.112ZM263.582 211C263.369 211 263.262 210.893 263.262 210.68V203.432C263.262 203.219 263.369 203.112 263.582 203.112H263.998C264.211 203.112 264.318 203.219 264.318 203.432V210.68C264.318 210.893 264.211 211 263.998 211H263.582ZM270.188 202.92C271.116 202.92 271.815 203.176 272.284 203.688C272.764 204.2 273.004 204.84 273.004 205.608V210.68C273.004 210.893 272.898 211 272.684 211H272.268C272.055 211 271.948 210.893 271.948 210.68V205.96C271.948 205.256 271.778 204.723 271.436 204.36C271.095 203.997 270.604 203.816 269.964 203.816C269.559 203.816 269.186 203.917 268.844 204.12C268.503 204.312 268.231 204.579 268.028 204.92C267.826 205.261 267.724 205.635 267.724 206.04V210.68C267.724 210.893 267.618 211 267.404 211H266.988C266.775 211 266.668 210.893 266.668 210.68V203.432C266.668 203.219 266.775 203.112 266.988 203.112H267.34C267.554 203.112 267.66 203.219 267.66 203.432V204.2C267.927 203.773 268.279 203.453 268.716 203.24C269.154 203.027 269.644 202.92 270.188 202.92ZM278.674 210.12C278.706 210.109 278.748 210.104 278.802 210.104C278.866 210.104 278.924 210.125 278.978 210.168C279.031 210.211 279.063 210.269 279.074 210.344L279.122 210.568C279.132 210.589 279.138 210.627 279.138 210.68C279.138 210.829 279.058 210.92 278.898 210.952C278.514 211.069 278.103 211.128 277.666 211.128C276.972 211.128 276.476 210.973 276.178 210.664C275.89 210.344 275.746 209.885 275.746 209.288V203.912H274.562C274.348 203.912 274.242 203.805 274.242 203.592V203.432C274.242 203.219 274.348 203.112 274.562 203.112H275.746V200.68C275.746 200.467 275.852 200.36 276.066 200.36H276.482C276.695 200.36 276.802 200.467 276.802 200.68V203.112H278.722C278.935 203.112 279.042 203.219 279.042 203.432V203.592C279.042 203.805 278.935 203.912 278.722 203.912H276.802V209.16C276.802 209.555 276.876 209.832 277.026 209.992C277.175 210.152 277.431 210.232 277.794 210.232C278.05 210.232 278.343 210.195 278.674 210.12Z" fill="#CACAD1"/>
<path d="M243.772 286C243.612 286 243.532 285.92 243.532 285.76V277.72C243.532 277.56 243.612 277.48 243.772 277.48H244.144C244.304 277.48 244.384 277.56 244.384 277.72V281.248H249.304V277.72C249.304 277.56 249.384 277.48 249.544 277.48H249.916C250.076 277.48 250.156 277.56 250.156 277.72V285.76C250.156 285.92 250.076 286 249.916 286H249.544C249.384 286 249.304 285.92 249.304 285.76V281.956H244.384V285.76C244.384 285.92 244.304 286 244.144 286H243.772ZM256.38 284.596C256.436 284.54 256.496 284.512 256.56 284.512C256.616 284.512 256.668 284.536 256.716 284.584L256.872 284.728C256.928 284.784 256.956 284.844 256.956 284.908C256.956 284.956 256.932 285.012 256.884 285.076C256.492 285.468 256.112 285.748 255.744 285.916C255.376 286.076 254.964 286.156 254.508 286.156C253.932 286.156 253.432 286.028 253.008 285.772C252.584 285.516 252.256 285.16 252.024 284.704C251.792 284.24 251.676 283.704 251.676 283.096C251.676 282.48 251.788 281.936 252.012 281.464C252.244 280.984 252.568 280.612 252.984 280.348C253.4 280.076 253.88 279.94 254.424 279.94C255.232 279.94 255.868 280.192 256.332 280.696C256.796 281.2 257.028 281.88 257.028 282.736V282.88C257.02 282.952 256.992 283.008 256.944 283.048C256.904 283.088 256.848 283.108 256.776 283.108H252.48C252.504 283.78 252.68 284.348 253.008 284.812C253.344 285.268 253.844 285.496 254.508 285.496C254.868 285.496 255.184 285.432 255.456 285.304C255.736 285.168 256.044 284.932 256.38 284.596ZM254.424 280.6C253.896 280.6 253.46 280.764 253.116 281.092C252.78 281.412 252.576 281.884 252.504 282.508H256.236C256.22 281.924 256.052 281.46 255.732 281.116C255.412 280.772 254.976 280.6 254.424 280.6ZM258.699 286C258.539 286 258.459 285.92 258.459 285.76V277.72C258.459 277.56 258.539 277.48 258.699 277.48H259.011C259.171 277.48 259.251 277.56 259.251 277.72V285.76C259.251 285.92 259.171 286 259.011 286H258.699ZM263.868 279.952C264.364 279.952 264.808 280.084 265.2 280.348C265.6 280.604 265.912 280.968 266.136 281.44C266.36 281.904 266.472 282.436 266.472 283.036C266.472 283.644 266.36 284.184 266.136 284.656C265.912 285.128 265.604 285.496 265.212 285.76C264.82 286.016 264.372 286.144 263.868 286.144C262.94 286.144 262.26 285.804 261.828 285.124V287.968C261.828 288.128 261.748 288.208 261.588 288.208H261.276C261.116 288.208 261.036 288.128 261.036 287.968V280.324C261.036 280.164 261.116 280.084 261.276 280.084H261.54C261.7 280.084 261.78 280.164 261.78 280.324V281.08C261.996 280.712 262.28 280.432 262.632 280.24C262.984 280.048 263.396 279.952 263.868 279.952ZM263.808 285.472C264.368 285.472 264.816 285.248 265.152 284.8C265.488 284.352 265.656 283.764 265.656 283.036C265.656 282.316 265.488 281.736 265.152 281.296C264.816 280.848 264.368 280.624 263.808 280.624C263.208 280.624 262.72 280.84 262.344 281.272C261.976 281.696 261.792 282.284 261.792 283.036C261.792 283.788 261.98 284.384 262.356 284.824C262.732 285.256 263.216 285.472 263.808 285.472ZM273.31 285.34C273.334 285.332 273.366 285.328 273.406 285.328C273.454 285.328 273.498 285.344 273.538 285.376C273.578 285.408 273.602 285.452 273.61 285.508L273.646 285.676C273.654 285.692 273.658 285.72 273.658 285.76C273.658 285.872 273.598 285.94 273.478 285.964C273.19 286.052 272.882 286.096 272.554 286.096C272.034 286.096 271.662 285.98 271.438 285.748C271.222 285.508 271.114 285.164 271.114 284.716V280.684H270.226C270.066 280.684 269.986 280.604 269.986 280.444V280.324C269.986 280.164 270.066 280.084 270.226 280.084H271.114V278.26C271.114 278.1 271.194 278.02 271.354 278.02H271.666C271.826 278.02 271.906 278.1 271.906 278.26V280.084H273.346C273.506 280.084 273.586 280.164 273.586 280.324V280.444C273.586 280.604 273.506 280.684 273.346 280.684H271.906V284.62C271.906 284.916 271.962 285.124 272.074 285.244C272.186 285.364 272.378 285.424 272.65 285.424C272.842 285.424 273.062 285.396 273.31 285.34ZM278.88 284.596C278.936 284.54 278.996 284.512 279.06 284.512C279.116 284.512 279.168 284.536 279.216 284.584L279.372 284.728C279.428 284.784 279.456 284.844 279.456 284.908C279.456 284.956 279.432 285.012 279.384 285.076C278.992 285.468 278.612 285.748 278.244 285.916C277.876 286.076 277.464 286.156 277.008 286.156C276.432 286.156 275.932 286.028 275.508 285.772C275.084 285.516 274.756 285.16 274.524 284.704C274.292 284.24 274.176 283.704 274.176 283.096C274.176 282.48 274.288 281.936 274.512 281.464C274.744 280.984 275.068 280.612 275.484 280.348C275.9 280.076 276.38 279.94 276.924 279.94C277.732 279.94 278.368 280.192 278.832 280.696C279.296 281.2 279.528 281.88 279.528 282.736V282.88C279.52 282.952 279.492 283.008 279.444 283.048C279.404 283.088 279.348 283.108 279.276 283.108H274.98C275.004 283.78 275.18 284.348 275.508 284.812C275.844 285.268 276.344 285.496 277.008 285.496C277.368 285.496 277.684 285.432 277.956 285.304C278.236 285.168 278.544 284.932 278.88 284.596ZM276.924 280.6C276.396 280.6 275.96 280.764 275.616 281.092C275.28 281.412 275.076 281.884 275.004 282.508H278.736C278.72 281.924 278.552 281.46 278.232 281.116C277.912 280.772 277.476 280.6 276.924 280.6ZM285.138 285.712C285.17 285.768 285.186 285.816 285.186 285.856C285.186 285.952 285.122 286 284.994 286H284.634C284.514 286 284.418 285.948 284.346 285.844L282.714 283.444L281.094 285.844C281.022 285.948 280.926 286 280.806 286H280.47C280.406 286 280.354 285.988 280.314 285.964C280.282 285.932 280.266 285.896 280.266 285.856C280.266 285.8 280.282 285.752 280.314 285.712L282.258 282.916L280.47 280.372C280.438 280.332 280.422 280.288 280.422 280.24C280.422 280.136 280.49 280.084 280.626 280.084H280.974C281.094 280.084 281.19 280.136 281.262 280.24L282.726 282.388L284.178 280.24C284.25 280.136 284.346 280.084 284.466 280.084H284.79C284.854 280.084 284.902 280.1 284.934 280.132C284.974 280.156 284.994 280.188 284.994 280.228C284.994 280.284 284.978 280.332 284.946 280.372L283.194 282.88L285.138 285.712ZM289.118 285.34C289.142 285.332 289.174 285.328 289.214 285.328C289.262 285.328 289.306 285.344 289.346 285.376C289.386 285.408 289.41 285.452 289.418 285.508L289.454 285.676C289.462 285.692 289.466 285.72 289.466 285.76C289.466 285.872 289.406 285.94 289.286 285.964C288.998 286.052 288.69 286.096 288.362 286.096C287.842 286.096 287.47 285.98 287.246 285.748C287.03 285.508 286.922 285.164 286.922 284.716V280.684H286.034C285.874 280.684 285.794 280.604 285.794 280.444V280.324C285.794 280.164 285.874 280.084 286.034 280.084H286.922V278.26C286.922 278.1 287.002 278.02 287.162 278.02H287.474C287.634 278.02 287.714 278.1 287.714 278.26V280.084H289.154C289.314 280.084 289.394 280.164 289.394 280.324V280.444C289.394 280.604 289.314 280.684 289.154 280.684H287.714V284.62C287.714 284.916 287.77 285.124 287.882 285.244C287.994 285.364 288.186 285.424 288.458 285.424C288.65 285.424 288.87 285.396 289.118 285.34Z" fill="#5C5C66"/>
</svg>
