<svg width="332" height="130" viewBox="0 0 332 130" fill="none" xmlns="http://www.w3.org/2000/svg">
<path d="M1.568 14C1.41867 14 1.29733 13.958 1.204 13.874C1.12 13.7807 1.078 13.6593 1.078 13.51V4.55C1.078 4.39133 1.12 4.27 1.204 4.186C1.29733 4.102 1.41867 4.06 1.568 4.06H2.184C2.34267 4.06 2.464 4.102 2.548 4.186C2.632 4.27 2.674 4.39133 2.674 4.55V12.642H6.72C6.87867 12.642 7 12.684 7.084 12.768C7.168 12.852 7.21 12.9733 7.21 13.132V13.51C7.21 13.6593 7.168 13.7807 7.084 13.874C7 13.958 6.87867 14 6.72 14H1.568ZM11.5043 6.888C12.4376 6.888 13.1563 7.10733 13.6603 7.546C14.1643 7.97533 14.4163 8.54933 14.4163 9.268V13.51C14.4163 13.6593 14.3743 13.7807 14.2903 13.874C14.2063 13.958 14.0849 14 13.9263 14H13.5623C13.4129 14 13.2916 13.958 13.1983 13.874C13.1143 13.7807 13.0723 13.6593 13.0723 13.51V13.202C12.8483 13.5287 12.5403 13.7807 12.1483 13.958C11.7563 14.1353 11.2989 14.224 10.7763 14.224C10.0576 14.224 9.46495 14.0653 8.99828 13.748C8.54095 13.4213 8.31228 12.9313 8.31228 12.278C8.31228 11.55 8.58295 11.0133 9.12428 10.668C9.67495 10.3133 10.4356 10.0473 11.4063 9.87L12.9883 9.576V9.324C12.9883 8.94133 12.8529 8.64733 12.5823 8.442C12.3209 8.22733 11.9709 8.12 11.5323 8.12C11.1589 8.12 10.8323 8.18533 10.5523 8.316C10.2816 8.43733 9.98761 8.64267 9.67028 8.932C9.54895 9.03467 9.43228 9.086 9.32028 9.086C9.20828 9.086 9.09161 9.03467 8.97028 8.932L8.74628 8.736C8.62495 8.624 8.56428 8.50267 8.56428 8.372C8.56428 8.25067 8.62028 8.134 8.73228 8.022C9.13361 7.63933 9.55828 7.35467 10.0063 7.168C10.4543 6.98133 10.9536 6.888 11.5043 6.888ZM10.9863 13.034C11.5463 13.034 12.0176 12.8847 12.4003 12.586C12.7923 12.2873 12.9883 11.858 12.9883 11.298V10.654L11.7703 10.906C11.0889 11.046 10.5849 11.2047 10.2583 11.382C9.93161 11.5593 9.76828 11.83 9.76828 12.194C9.76828 12.4553 9.87561 12.6607 10.0903 12.81C10.3049 12.9593 10.6036 13.034 10.9863 13.034ZM19.7798 6.916C20.3678 6.916 20.8905 7.06533 21.3478 7.364C21.8145 7.66267 22.1785 8.08733 22.4398 8.638C22.7011 9.18867 22.8318 9.82333 22.8318 10.542C22.8318 11.27 22.7011 11.9093 22.4398 12.46C22.1785 13.0107 21.8145 13.4353 21.3478 13.734C20.8811 14.0327 20.3585 14.182 19.7798 14.182C18.7438 14.182 17.9831 13.7947 17.4978 13.02V13.51C17.4978 13.6593 17.4558 13.7807 17.3718 13.874C17.2878 13.958 17.1665 14 17.0078 14H16.6018C16.4525 14 16.3311 13.958 16.2378 13.874C16.1538 13.7807 16.1118 13.6593 16.1118 13.51V4.55C16.1118 4.39133 16.1538 4.27 16.2378 4.186C16.3311 4.102 16.4525 4.06 16.6018 4.06H17.1058C17.2645 4.06 17.3858 4.102 17.4698 4.186C17.5538 4.27 17.5958 4.39133 17.5958 4.55V7.966C18.0905 7.266 18.8185 6.916 19.7798 6.916ZM19.4718 12.894C20.0318 12.894 20.4798 12.684 20.8158 12.264C21.1518 11.8347 21.3198 11.2607 21.3198 10.542C21.3198 9.83267 21.1518 9.26333 20.8158 8.834C20.4891 8.40467 20.0458 8.19 19.4858 8.19C18.9165 8.19 18.4498 8.40467 18.0858 8.834C17.7218 9.254 17.5398 9.82333 17.5398 10.542C17.5398 11.2793 17.7218 11.858 18.0858 12.278C18.4498 12.6887 18.9118 12.894 19.4718 12.894ZM29.2023 12.236C29.3236 12.1333 29.4403 12.082 29.5523 12.082C29.6643 12.082 29.7809 12.1427 29.9023 12.264L30.0983 12.474C30.2009 12.5953 30.2523 12.712 30.2523 12.824C30.2523 12.9453 30.1916 13.062 30.0703 13.174C29.6409 13.5473 29.2116 13.8133 28.7823 13.972C28.3623 14.1307 27.8956 14.21 27.3823 14.21C26.6636 14.21 26.0383 14.0607 25.5063 13.762C24.9836 13.4633 24.5776 13.0433 24.2883 12.502C24.0083 11.9513 23.8682 11.3167 23.8682 10.598C23.8682 9.88867 24.0036 9.254 24.2743 8.694C24.5543 8.12467 24.9463 7.68133 25.4503 7.364C25.9636 7.04667 26.5609 6.888 27.2423 6.888C28.2596 6.888 29.0436 7.19133 29.5943 7.798C30.1449 8.39533 30.4203 9.22133 30.4203 10.276V10.402C30.4109 10.5513 30.3643 10.668 30.2803 10.752C30.1963 10.836 30.0749 10.878 29.9163 10.878H25.3243C25.3803 11.494 25.5809 11.998 25.9263 12.39C26.2809 12.7727 26.7756 12.964 27.4103 12.964C27.7556 12.964 28.0589 12.9127 28.3203 12.81C28.5816 12.698 28.8756 12.5067 29.2023 12.236ZM27.2143 8.064C26.7009 8.064 26.2856 8.218 25.9683 8.526C25.6603 8.82467 25.4596 9.24933 25.3663 9.8H28.9643C28.9269 9.25867 28.7589 8.834 28.4603 8.526C28.1616 8.218 27.7463 8.064 27.2143 8.064ZM32.3258 14C32.1764 14 32.0551 13.958 31.9618 13.874C31.8778 13.7807 31.8358 13.6593 31.8358 13.51V4.55C31.8358 4.39133 31.8778 4.27 31.9618 4.186C32.0551 4.102 32.1764 4.06 32.3258 4.06H32.8298C32.9884 4.06 33.1098 4.102 33.1938 4.186C33.2778 4.27 33.3198 4.39133 33.3198 4.55V13.51C33.3198 13.6593 33.2778 13.7807 33.1938 13.874C33.1098 13.958 32.9884 14 32.8298 14H32.3258Z" fill="#1B1B1F"/>
<rect x="0.5" y="22.5" width="331" height="87" rx="3.5" fill="white"/>
<rect x="0.5" y="22.5" width="331" height="87" rx="3.5" stroke="#CACAD1"/>
<path d="M328 100L322 106M328 104L326 106" stroke="#5C5C66" stroke-linecap="square"/>
<path d="M17.2 51C17.0187 51 16.896 50.9147 16.832 50.744L15.776 47.816H10.608L9.568 50.744C9.504 50.9147 9.38133 51 9.2 51H8.704C8.61867 51 8.54933 50.9787 8.496 50.936C8.44267 50.8933 8.416 50.8347 8.416 50.76L8.448 50.632L12.368 39.896C12.432 39.7253 12.5547 39.64 12.736 39.64H13.664C13.8453 39.64 13.968 39.7253 14.032 39.896L17.952 50.632L17.984 50.76C17.984 50.8347 17.9573 50.8933 17.904 50.936C17.8507 50.9787 17.7813 51 17.696 51H17.2ZM15.424 46.856L14.864 45.288L14.736 44.952C14.5867 44.5467 14.3413 43.8693 14 42.92C13.6693 41.9707 13.3973 41.1653 13.184 40.504C12.896 41.4107 12.4427 42.728 11.824 44.456C11.7813 44.5733 11.7333 44.7013 11.68 44.84C11.6267 44.9787 11.5733 45.128 11.52 45.288L10.96 46.856H15.424ZM23.1102 42.92C24.0383 42.92 24.7369 43.176 25.2063 43.688C25.6863 44.2 25.9263 44.84 25.9263 45.608V50.68C25.9263 50.8933 25.8196 51 25.6063 51H25.1903C24.9769 51 24.8703 50.8933 24.8703 50.68V45.96C24.8703 45.256 24.6996 44.7227 24.3583 44.36C24.0169 43.9973 23.5263 43.816 22.8863 43.816C22.4809 43.816 22.1076 43.9173 21.7663 44.12C21.4249 44.312 21.1529 44.5787 20.9503 44.92C20.7476 45.2613 20.6463 45.6347 20.6463 46.04V50.68C20.6463 50.8933 20.5396 51 20.3263 51H19.9103C19.6969 51 19.5903 50.8933 19.5903 50.68V43.432C19.5903 43.2187 19.6969 43.112 19.9103 43.112H20.2623C20.4756 43.112 20.5823 43.2187 20.5823 43.432V44.2C20.8489 43.7733 21.2009 43.4533 21.6383 43.24C22.0756 43.0267 22.5663 42.92 23.1102 42.92ZM37.6936 49.128C37.7683 49.0533 37.8483 49.016 37.9336 49.016C38.0083 49.016 38.0776 49.048 38.1416 49.112L38.3496 49.304C38.4243 49.3787 38.4616 49.4587 38.4616 49.544C38.4616 49.608 38.4296 49.6827 38.3656 49.768C37.843 50.2907 37.3363 50.664 36.8456 50.888C36.355 51.1013 35.8056 51.208 35.1976 51.208C34.4296 51.208 33.763 51.0373 33.1976 50.696C32.6323 50.3547 32.195 49.88 31.8856 49.272C31.5763 48.6533 31.4216 47.9387 31.4216 47.128C31.4216 46.3067 31.571 45.5813 31.8696 44.952C32.179 44.312 32.611 43.816 33.1656 43.464C33.7203 43.1013 34.3603 42.92 35.0856 42.92C36.163 42.92 37.011 43.256 37.6296 43.928C38.2483 44.6 38.5576 45.5067 38.5576 46.648V46.84C38.547 46.936 38.5096 47.0107 38.4456 47.064C38.3923 47.1173 38.3176 47.144 38.2216 47.144H32.4936C32.5256 48.04 32.7603 48.7973 33.1976 49.416C33.6456 50.024 34.3123 50.328 35.1976 50.328C35.6776 50.328 36.099 50.2427 36.4616 50.072C36.835 49.8907 37.2456 49.576 37.6936 49.128ZM35.0856 43.8C34.3816 43.8 33.8003 44.0187 33.3416 44.456C32.8936 44.8827 32.6216 45.512 32.5256 46.344H37.5016C37.4803 45.5653 37.2563 44.9467 36.8296 44.488C36.403 44.0293 35.8216 43.8 35.0856 43.8ZM46.0385 50.616C46.0812 50.6907 46.1025 50.7547 46.1025 50.808C46.1025 50.936 46.0172 51 45.8465 51H45.3665C45.2065 51 45.0785 50.9307 44.9825 50.792L42.8065 47.592L40.6465 50.792C40.5505 50.9307 40.4225 51 40.2625 51H39.8145C39.7292 51 39.6598 50.984 39.6065 50.952C39.5638 50.9093 39.5425 50.8613 39.5425 50.808C39.5425 50.7333 39.5638 50.6693 39.6065 50.616L42.1985 46.888L39.8145 43.496C39.7718 43.4427 39.7505 43.384 39.7505 43.32C39.7505 43.1813 39.8412 43.112 40.0225 43.112H40.4865C40.6465 43.112 40.7745 43.1813 40.8705 43.32L42.8225 46.184L44.7585 43.32C44.8545 43.1813 44.9825 43.112 45.1425 43.112H45.5745C45.6598 43.112 45.7238 43.1333 45.7665 43.176C45.8198 43.208 45.8465 43.2507 45.8465 43.304C45.8465 43.3787 45.8252 43.4427 45.7825 43.496L43.4465 46.84L46.0385 50.616ZM50.7709 42.92C51.7415 42.92 52.4989 43.1547 53.0429 43.624C53.5869 44.0827 53.8589 44.6907 53.8589 45.448V50.68C53.8589 50.8933 53.7522 51 53.5389 51H53.2189C53.0055 51 52.8989 50.8933 52.8989 50.68V49.96C52.6322 50.3867 52.2535 50.7067 51.7629 50.92C51.2829 51.1333 50.7442 51.24 50.1469 51.24C49.3149 51.24 48.6375 51.064 48.1149 50.712C47.5922 50.36 47.3309 49.816 47.3309 49.08C47.3309 48.4933 47.4962 48.024 47.8269 47.672C48.1575 47.3093 48.5895 47.0373 49.1229 46.856C49.6562 46.664 50.3229 46.4933 51.1229 46.344L52.8509 46.04V45.528C52.8509 44.984 52.6642 44.5627 52.2909 44.264C51.9175 43.9547 51.4269 43.8 50.8189 43.8C50.3602 43.8 49.9442 43.8853 49.5709 44.056C49.1975 44.2267 48.7975 44.52 48.3709 44.936C48.2962 45.0107 48.2162 45.048 48.1309 45.048C48.0562 45.048 47.9869 45.016 47.9229 44.952L47.7149 44.76C47.6402 44.6853 47.6029 44.6053 47.6029 44.52C47.6029 44.424 47.6402 44.3387 47.7149 44.264C48.1629 43.7947 48.6322 43.4533 49.1229 43.24C49.6242 43.0267 50.1735 42.92 50.7709 42.92ZM50.1949 50.36C50.9629 50.36 51.5975 50.1573 52.0989 49.752C52.6002 49.3467 52.8509 48.8293 52.8509 48.2V46.856L51.3629 47.144C50.6695 47.2827 50.1202 47.416 49.7149 47.544C49.3095 47.672 48.9842 47.8587 48.7389 48.104C48.4935 48.3493 48.3709 48.6693 48.3709 49.064C48.3709 49.4693 48.5309 49.7893 48.8509 50.024C49.1815 50.248 49.6295 50.36 50.1949 50.36ZM64.2156 42.92C65.069 42.92 65.7196 43.1653 66.1676 43.656C66.6263 44.136 66.8556 44.7547 66.8556 45.512V50.68C66.8556 50.8933 66.749 51 66.5356 51H66.1196C65.9063 51 65.7996 50.8933 65.7996 50.68V45.8C65.7996 45.16 65.6503 44.6693 65.3516 44.328C65.0636 43.9867 64.6316 43.816 64.0556 43.816C63.4476 43.816 62.9623 44.0187 62.5996 44.424C62.237 44.8293 62.0556 45.352 62.0556 45.992V50.68C62.0556 50.8933 61.949 51 61.7356 51H61.3196C61.1063 51 60.9996 50.8933 60.9996 50.68V45.8C60.9996 45.16 60.8503 44.6693 60.5516 44.328C60.2636 43.9867 59.8263 43.816 59.2396 43.816C58.6956 43.816 58.2423 43.9867 57.8796 44.328C57.5276 44.6693 57.3196 45.1173 57.2556 45.672V50.68C57.2556 50.8933 57.149 51 56.9356 51H56.5196C56.3063 51 56.1996 50.8933 56.1996 50.68V43.432C56.1996 43.2187 56.3063 43.112 56.5196 43.112H56.8716C57.085 43.112 57.1916 43.2187 57.1916 43.432V44.088C57.6716 43.3093 58.4343 42.92 59.4796 42.92C60.0236 42.92 60.4876 43.0427 60.8716 43.288C61.2663 43.5227 61.5596 43.8427 61.7516 44.248C62.317 43.3627 63.1383 42.92 64.2156 42.92ZM72.96 42.936C73.6213 42.936 74.2133 43.112 74.736 43.464C75.2693 43.8053 75.6853 44.2907 75.984 44.92C76.2827 45.5387 76.432 46.248 76.432 47.048C76.432 47.8587 76.2827 48.5787 75.984 49.208C75.6853 49.8373 75.2747 50.328 74.752 50.68C74.2293 51.0213 73.632 51.192 72.96 51.192C71.7227 51.192 70.816 50.7387 70.24 49.832V53.624C70.24 53.8373 70.1333 53.944 69.92 53.944H69.504C69.2907 53.944 69.184 53.8373 69.184 53.624V43.432C69.184 43.2187 69.2907 43.112 69.504 43.112H69.856C70.0693 43.112 70.176 43.2187 70.176 43.432V44.44C70.464 43.9493 70.8427 43.576 71.312 43.32C71.7813 43.064 72.3307 42.936 72.96 42.936ZM72.88 50.296C73.6267 50.296 74.224 49.9973 74.672 49.4C75.12 48.8027 75.344 48.0187 75.344 47.048C75.344 46.088 75.12 45.3147 74.672 44.728C74.224 44.1307 73.6267 43.832 72.88 43.832C72.08 43.832 71.4293 44.12 70.928 44.696C70.4373 45.2613 70.192 46.0453 70.192 47.048C70.192 48.0507 70.4427 48.8453 70.944 49.432C71.4453 50.008 72.0907 50.296 72.88 50.296ZM78.645 51C78.4317 51 78.325 50.8933 78.325 50.68V39.96C78.325 39.7467 78.4317 39.64 78.645 39.64H79.061C79.2743 39.64 79.381 39.7467 79.381 39.96V50.68C79.381 50.8933 79.2743 51 79.061 51H78.645ZM87.5061 49.128C87.5808 49.0533 87.6608 49.016 87.7461 49.016C87.8208 49.016 87.8901 49.048 87.9541 49.112L88.1621 49.304C88.2368 49.3787 88.2741 49.4587 88.2741 49.544C88.2741 49.608 88.2421 49.6827 88.1781 49.768C87.6555 50.2907 87.1488 50.664 86.6581 50.888C86.1675 51.1013 85.6181 51.208 85.0101 51.208C84.2421 51.208 83.5755 51.0373 83.0101 50.696C82.4448 50.3547 82.0075 49.88 81.6981 49.272C81.3888 48.6533 81.2341 47.9387 81.2341 47.128C81.2341 46.3067 81.3835 45.5813 81.6821 44.952C81.9915 44.312 82.4235 43.816 82.9781 43.464C83.5328 43.1013 84.1728 42.92 84.8981 42.92C85.9755 42.92 86.8235 43.256 87.4421 43.928C88.0608 44.6 88.3701 45.5067 88.3701 46.648V46.84C88.3595 46.936 88.3221 47.0107 88.2581 47.064C88.2048 47.1173 88.1301 47.144 88.0341 47.144H82.3061C82.3381 48.04 82.5728 48.7973 83.0101 49.416C83.4581 50.024 84.1248 50.328 85.0101 50.328C85.4901 50.328 85.9115 50.2427 86.2741 50.072C86.6475 49.8907 87.0581 49.576 87.5061 49.128ZM84.8981 43.8C84.1941 43.8 83.6128 44.0187 83.1541 44.456C82.7061 44.8827 82.4341 45.512 82.3381 46.344H87.3141C87.2928 45.5653 87.0688 44.9467 86.6421 44.488C86.2155 44.0293 85.6341 43.8 84.8981 43.8ZM94.2856 51C94.0723 51 93.9656 50.8933 93.9656 50.68V39.96C93.9656 39.7467 94.0723 39.64 94.2856 39.64H94.7016C94.915 39.64 95.0216 39.7467 95.0216 39.96V50.68C95.0216 50.8933 94.915 51 94.7016 51H94.2856ZM100.667 51.208C99.9308 51.208 99.2748 51.032 98.6988 50.68C98.1228 50.328 97.6748 49.8427 97.3548 49.224C97.0348 48.5947 96.8748 47.8747 96.8748 47.064C96.8748 46.2533 97.0348 45.5387 97.3548 44.92C97.6748 44.2907 98.1228 43.8 98.6988 43.448C99.2748 43.096 99.9308 42.92 100.667 42.92C101.403 42.92 102.059 43.096 102.635 43.448C103.211 43.8 103.659 44.2907 103.979 44.92C104.299 45.5387 104.459 46.2533 104.459 47.064C104.459 47.8747 104.299 48.5947 103.979 49.224C103.659 49.8427 103.211 50.328 102.635 50.68C102.059 51.032 101.403 51.208 100.667 51.208ZM100.667 50.328C101.488 50.328 102.144 50.0293 102.635 49.432C103.125 48.824 103.371 48.0347 103.371 47.064C103.371 46.0933 103.125 45.3093 102.635 44.712C102.144 44.104 101.488 43.8 100.667 43.8C99.8454 43.8 99.1894 44.104 98.6988 44.712C98.2081 45.3093 97.9628 46.0933 97.9628 47.064C97.9628 48.0347 98.2081 48.824 98.6988 49.432C99.1894 50.0293 99.8454 50.328 100.667 50.328ZM109.813 42.92C110.741 42.92 111.44 43.176 111.909 43.688C112.389 44.2 112.629 44.84 112.629 45.608V50.68C112.629 50.8933 112.523 51 112.309 51H111.893C111.68 51 111.573 50.8933 111.573 50.68V45.96C111.573 45.256 111.403 44.7227 111.061 44.36C110.72 43.9973 110.229 43.816 109.589 43.816C109.184 43.816 108.811 43.9173 108.469 44.12C108.128 44.312 107.856 44.5787 107.653 44.92C107.451 45.2613 107.349 45.6347 107.349 46.04V50.68C107.349 50.8933 107.243 51 107.029 51H106.613C106.4 51 106.293 50.8933 106.293 50.68V43.432C106.293 43.2187 106.4 43.112 106.613 43.112H106.965C107.179 43.112 107.285 43.2187 107.285 43.432V44.2C107.552 43.7733 107.904 43.4533 108.341 43.24C108.779 43.0267 109.269 42.92 109.813 42.92ZM120.629 43.432C120.629 43.2187 120.736 43.112 120.949 43.112H121.285C121.499 43.112 121.605 43.2187 121.605 43.432V50.92C121.605 51.912 121.307 52.6907 120.709 53.256C120.112 53.832 119.275 54.12 118.197 54.12C117.035 54.12 115.963 53.7893 114.981 53.128C114.875 53.064 114.821 52.984 114.821 52.888C114.821 52.8133 114.843 52.7493 114.885 52.696L115.077 52.424C115.141 52.3173 115.227 52.264 115.333 52.264C115.376 52.264 115.44 52.2853 115.525 52.328C115.995 52.6267 116.432 52.8507 116.837 53C117.253 53.1493 117.707 53.224 118.197 53.224C118.901 53.224 119.472 53.0267 119.909 52.632C120.347 52.248 120.565 51.6507 120.565 50.84V49.56C119.989 50.488 119.115 50.952 117.941 50.952C117.259 50.952 116.656 50.7813 116.133 50.44C115.611 50.088 115.205 49.608 114.917 49C114.64 48.392 114.501 47.704 114.501 46.936C114.501 46.168 114.64 45.48 114.917 44.872C115.205 44.264 115.611 43.7893 116.133 43.448C116.656 43.096 117.259 42.92 117.941 42.92C118.56 42.92 119.093 43.0533 119.541 43.32C120 43.576 120.363 43.944 120.629 44.424V43.432ZM118.053 50.056C118.821 50.056 119.435 49.768 119.893 49.192C120.352 48.6053 120.581 47.8533 120.581 46.936C120.581 46.0187 120.352 45.272 119.893 44.696C119.435 44.1093 118.821 43.816 118.053 43.816C117.275 43.816 116.667 44.104 116.229 44.68C115.803 45.256 115.589 46.008 115.589 46.936C115.589 47.864 115.803 48.616 116.229 49.192C116.667 49.768 117.275 50.056 118.053 50.056ZM133.412 49.128C133.487 49.0533 133.567 49.016 133.652 49.016C133.727 49.016 133.796 49.048 133.86 49.112L134.068 49.304C134.143 49.3787 134.18 49.4587 134.18 49.544C134.18 49.608 134.148 49.6827 134.084 49.768C133.562 50.2907 133.055 50.664 132.564 50.888C132.074 51.1013 131.524 51.208 130.916 51.208C130.148 51.208 129.482 51.0373 128.916 50.696C128.351 50.3547 127.914 49.88 127.604 49.272C127.295 48.6533 127.14 47.9387 127.14 47.128C127.14 46.3067 127.29 45.5813 127.588 44.952C127.898 44.312 128.33 43.816 128.884 43.464C129.439 43.1013 130.079 42.92 130.804 42.92C131.882 42.92 132.73 43.256 133.348 43.928C133.967 44.6 134.276 45.5067 134.276 46.648V46.84C134.266 46.936 134.228 47.0107 134.164 47.064C134.111 47.1173 134.036 47.144 133.94 47.144H128.212C128.244 48.04 128.479 48.7973 128.916 49.416C129.364 50.024 130.031 50.328 130.916 50.328C131.396 50.328 131.818 50.2427 132.18 50.072C132.554 49.8907 132.964 49.576 133.412 49.128ZM130.804 43.8C130.1 43.8 129.519 44.0187 129.06 44.456C128.612 44.8827 128.34 45.512 128.244 46.344H133.22C133.199 45.5653 132.975 44.9467 132.548 44.488C132.122 44.0293 131.54 43.8 130.804 43.8ZM139.688 42.92C140.616 42.92 141.315 43.176 141.784 43.688C142.264 44.2 142.504 44.84 142.504 45.608V50.68C142.504 50.8933 142.398 51 142.184 51H141.768C141.555 51 141.448 50.8933 141.448 50.68V45.96C141.448 45.256 141.278 44.7227 140.936 44.36C140.595 43.9973 140.104 43.816 139.464 43.816C139.059 43.816 138.686 43.9173 138.344 44.12C138.003 44.312 137.731 44.5787 137.528 44.92C137.326 45.2613 137.224 45.6347 137.224 46.04V50.68C137.224 50.8933 137.118 51 136.904 51H136.488C136.275 51 136.168 50.8933 136.168 50.68V43.432C136.168 43.2187 136.275 43.112 136.488 43.112H136.84C137.054 43.112 137.16 43.2187 137.16 43.432V44.2C137.427 43.7733 137.779 43.4533 138.216 43.24C138.654 43.0267 139.144 42.92 139.688 42.92ZM148.104 51.208C147.368 51.208 146.712 51.032 146.136 50.68C145.56 50.328 145.112 49.8427 144.792 49.224C144.472 48.5947 144.312 47.8747 144.312 47.064C144.312 46.2533 144.472 45.5387 144.792 44.92C145.112 44.2907 145.56 43.8 146.136 43.448C146.712 43.096 147.368 42.92 148.104 42.92C148.84 42.92 149.496 43.096 150.072 43.448C150.648 43.8 151.096 44.2907 151.416 44.92C151.736 45.5387 151.896 46.2533 151.896 47.064C151.896 47.8747 151.736 48.5947 151.416 49.224C151.096 49.8427 150.648 50.328 150.072 50.68C149.496 51.032 148.84 51.208 148.104 51.208ZM148.104 50.328C148.926 50.328 149.582 50.0293 150.072 49.432C150.563 48.824 150.808 48.0347 150.808 47.064C150.808 46.0933 150.563 45.3093 150.072 44.712C149.582 44.104 148.926 43.8 148.104 43.8C147.283 43.8 146.627 44.104 146.136 44.712C145.646 45.3093 145.4 46.0933 145.4 47.064C145.4 48.0347 145.646 48.824 146.136 49.432C146.627 50.0293 147.283 50.328 148.104 50.328ZM158.851 43.432C158.851 43.2187 158.958 43.112 159.171 43.112H159.587C159.8 43.112 159.907 43.2187 159.907 43.432V50.68C159.907 50.8933 159.8 51 159.587 51H159.251C159.038 51 158.931 50.8933 158.931 50.68V49.96C158.696 50.376 158.36 50.6907 157.923 50.904C157.496 51.1067 157.027 51.208 156.515 51.208C155.555 51.208 154.846 50.968 154.387 50.488C153.928 49.9973 153.699 49.368 153.699 48.6V43.432C153.699 43.2187 153.806 43.112 154.019 43.112H154.435C154.648 43.112 154.755 43.2187 154.755 43.432V48.376C154.755 49.0053 154.91 49.4853 155.219 49.816C155.539 50.136 155.992 50.296 156.579 50.296C157.24 50.296 157.784 50.0933 158.211 49.688C158.638 49.2827 158.851 48.7067 158.851 47.96V43.432ZM167.942 43.432C167.942 43.2187 168.048 43.112 168.262 43.112H168.598C168.811 43.112 168.918 43.2187 168.918 43.432V50.92C168.918 51.912 168.619 52.6907 168.022 53.256C167.424 53.832 166.587 54.12 165.51 54.12C164.347 54.12 163.275 53.7893 162.294 53.128C162.187 53.064 162.134 52.984 162.134 52.888C162.134 52.8133 162.155 52.7493 162.198 52.696L162.39 52.424C162.454 52.3173 162.539 52.264 162.646 52.264C162.688 52.264 162.752 52.2853 162.838 52.328C163.307 52.6267 163.744 52.8507 164.15 53C164.566 53.1493 165.019 53.224 165.51 53.224C166.214 53.224 166.784 53.0267 167.222 52.632C167.659 52.248 167.878 51.6507 167.878 50.84V49.56C167.302 50.488 166.427 50.952 165.254 50.952C164.571 50.952 163.968 50.7813 163.446 50.44C162.923 50.088 162.518 49.608 162.23 49C161.952 48.392 161.814 47.704 161.814 46.936C161.814 46.168 161.952 45.48 162.23 44.872C162.518 44.264 162.923 43.7893 163.446 43.448C163.968 43.096 164.571 42.92 165.254 42.92C165.872 42.92 166.406 43.0533 166.854 43.32C167.312 43.576 167.675 43.944 167.942 44.424V43.432ZM165.366 50.056C166.134 50.056 166.747 49.768 167.206 49.192C167.664 48.6053 167.894 47.8533 167.894 46.936C167.894 46.0187 167.664 45.272 167.206 44.696C166.747 44.1093 166.134 43.816 165.366 43.816C164.587 43.816 163.979 44.104 163.542 44.68C163.115 45.256 162.902 46.008 162.902 46.936C162.902 47.864 163.115 48.616 163.542 49.192C163.979 49.768 164.587 50.056 165.366 50.056ZM174.813 42.92C175.731 42.92 176.429 43.1813 176.909 43.704C177.389 44.216 177.629 44.8507 177.629 45.608V50.68C177.629 50.8933 177.523 51 177.309 51H176.893C176.68 51 176.573 50.8933 176.573 50.68V45.96C176.573 45.256 176.403 44.7227 176.061 44.36C175.72 43.9973 175.229 43.816 174.589 43.816C174.184 43.816 173.811 43.9173 173.469 44.12C173.128 44.312 172.856 44.5787 172.653 44.92C172.451 45.2613 172.349 45.6347 172.349 46.04V50.68C172.349 50.8933 172.243 51 172.029 51H171.613C171.4 51 171.293 50.8933 171.293 50.68V39.96C171.293 39.7467 171.4 39.64 171.613 39.64H172.029C172.243 39.64 172.349 39.7467 172.349 39.96V44.136C172.605 43.7307 172.947 43.4267 173.373 43.224C173.811 43.0213 174.291 42.92 174.813 42.92ZM187.205 50.12C187.237 50.1093 187.279 50.104 187.333 50.104C187.397 50.104 187.455 50.1253 187.509 50.168C187.562 50.2107 187.594 50.2693 187.605 50.344L187.653 50.568C187.663 50.5893 187.669 50.6267 187.669 50.68C187.669 50.8293 187.589 50.92 187.429 50.952C187.045 51.0693 186.634 51.128 186.197 51.128C185.503 51.128 185.007 50.9733 184.709 50.664C184.421 50.344 184.277 49.8853 184.277 49.288V43.912H183.093C182.879 43.912 182.773 43.8053 182.773 43.592V43.432C182.773 43.2187 182.879 43.112 183.093 43.112H184.277V40.68C184.277 40.4667 184.383 40.36 184.597 40.36H185.013C185.226 40.36 185.333 40.4667 185.333 40.68V43.112H187.253C187.466 43.112 187.573 43.2187 187.573 43.432V43.592C187.573 43.8053 187.466 43.912 187.253 43.912H185.333V49.16C185.333 49.5547 185.407 49.832 185.557 49.992C185.706 50.152 185.962 50.232 186.325 50.232C186.581 50.232 186.874 50.1947 187.205 50.12ZM192.151 51.208C191.415 51.208 190.759 51.032 190.183 50.68C189.607 50.328 189.159 49.8427 188.839 49.224C188.519 48.5947 188.359 47.8747 188.359 47.064C188.359 46.2533 188.519 45.5387 188.839 44.92C189.159 44.2907 189.607 43.8 190.183 43.448C190.759 43.096 191.415 42.92 192.151 42.92C192.887 42.92 193.543 43.096 194.119 43.448C194.695 43.8 195.143 44.2907 195.463 44.92C195.783 45.5387 195.943 46.2533 195.943 47.064C195.943 47.8747 195.783 48.5947 195.463 49.224C195.143 49.8427 194.695 50.328 194.119 50.68C193.543 51.032 192.887 51.208 192.151 51.208ZM192.151 50.328C192.972 50.328 193.628 50.0293 194.119 49.432C194.61 48.824 194.855 48.0347 194.855 47.064C194.855 46.0933 194.61 45.3093 194.119 44.712C193.628 44.104 192.972 43.8 192.151 43.8C191.33 43.8 190.674 44.104 190.183 44.712C189.692 45.3093 189.447 46.0933 189.447 47.064C189.447 48.0347 189.692 48.824 190.183 49.432C190.674 50.0293 191.33 50.328 192.151 50.328ZM210.265 43.384C210.308 43.2027 210.431 43.112 210.633 43.112H211.065C211.183 43.112 211.263 43.144 211.305 43.208C211.359 43.272 211.369 43.3573 211.337 43.464L209.273 50.728C209.231 50.9093 209.108 51 208.905 51H208.185C208.004 51 207.887 50.9093 207.833 50.728L207.097 48.28C206.713 47 206.356 45.688 206.025 44.344C205.705 45.6453 205.353 46.968 204.969 48.312L204.265 50.728C204.223 50.9093 204.1 51 203.897 51H203.209C203.007 51 202.884 50.9093 202.841 50.728L200.777 43.464C200.767 43.4427 200.761 43.4053 200.761 43.352C200.761 43.2773 200.788 43.2187 200.841 43.176C200.895 43.1333 200.964 43.112 201.049 43.112H201.481C201.684 43.112 201.807 43.2027 201.849 43.384L202.617 46.216C202.969 47.5067 203.295 48.792 203.593 50.072C203.828 49.1227 204.175 47.8373 204.633 46.216L205.449 43.384C205.492 43.2027 205.615 43.112 205.817 43.112H206.297C206.489 43.112 206.607 43.2027 206.649 43.384L207.481 46.216C207.844 47.528 208.185 48.8187 208.505 50.088C208.751 49.0213 209.081 47.7307 209.497 46.216L210.265 43.384ZM215.956 43.048C216.223 43.048 216.537 43.0907 216.9 43.176C217.092 43.24 217.167 43.3733 217.124 43.576L217.06 43.832C217.007 44.0347 216.873 44.1093 216.66 44.056C216.404 43.992 216.169 43.96 215.956 43.96C215.412 43.96 214.959 44.1947 214.596 44.664C214.244 45.1333 214.068 45.784 214.068 46.616V50.68C214.068 50.8933 213.961 51 213.748 51H213.332C213.119 51 213.012 50.8933 213.012 50.68V43.432C213.012 43.2187 213.119 43.112 213.332 43.112H213.684C213.897 43.112 214.004 43.2187 214.004 43.432V44.312C214.185 43.9173 214.441 43.608 214.772 43.384C215.113 43.16 215.508 43.048 215.956 43.048ZM221.396 42.92C222.367 42.92 223.124 43.1547 223.668 43.624C224.212 44.0827 224.484 44.6907 224.484 45.448V50.68C224.484 50.8933 224.377 51 224.164 51H223.844C223.631 51 223.524 50.8933 223.524 50.68V49.96C223.257 50.3867 222.879 50.7067 222.388 50.92C221.908 51.1333 221.369 51.24 220.772 51.24C219.94 51.24 219.263 51.064 218.74 50.712C218.217 50.36 217.956 49.816 217.956 49.08C217.956 48.4933 218.121 48.024 218.452 47.672C218.783 47.3093 219.215 47.0373 219.748 46.856C220.281 46.664 220.948 46.4933 221.748 46.344L223.476 46.04V45.528C223.476 44.984 223.289 44.5627 222.916 44.264C222.543 43.9547 222.052 43.8 221.444 43.8C220.985 43.8 220.569 43.8853 220.196 44.056C219.823 44.2267 219.423 44.52 218.996 44.936C218.921 45.0107 218.841 45.048 218.756 45.048C218.681 45.048 218.612 45.016 218.548 44.952L218.34 44.76C218.265 44.6853 218.228 44.6053 218.228 44.52C218.228 44.424 218.265 44.3387 218.34 44.264C218.788 43.7947 219.257 43.4533 219.748 43.24C220.249 43.0267 220.799 42.92 221.396 42.92ZM220.82 50.36C221.588 50.36 222.223 50.1573 222.724 49.752C223.225 49.3467 223.476 48.8293 223.476 48.2V46.856L221.988 47.144C221.295 47.2827 220.745 47.416 220.34 47.544C219.935 47.672 219.609 47.8587 219.364 48.104C219.119 48.3493 218.996 48.6693 218.996 49.064C218.996 49.4693 219.156 49.7893 219.476 50.024C219.807 50.248 220.255 50.36 220.82 50.36ZM230.601 42.936C231.262 42.936 231.854 43.112 232.377 43.464C232.91 43.8053 233.326 44.2907 233.625 44.92C233.923 45.5387 234.073 46.248 234.073 47.048C234.073 47.8587 233.923 48.5787 233.625 49.208C233.326 49.8373 232.915 50.328 232.393 50.68C231.87 51.0213 231.273 51.192 230.601 51.192C229.363 51.192 228.457 50.7387 227.881 49.832V53.624C227.881 53.8373 227.774 53.944 227.561 53.944H227.145C226.931 53.944 226.825 53.8373 226.825 53.624V43.432C226.825 43.2187 226.931 43.112 227.145 43.112H227.497C227.71 43.112 227.817 43.2187 227.817 43.432V44.44C228.105 43.9493 228.483 43.576 228.953 43.32C229.422 43.064 229.971 42.936 230.601 42.936ZM230.521 50.296C231.267 50.296 231.865 49.9973 232.313 49.4C232.761 48.8027 232.985 48.0187 232.985 47.048C232.985 46.088 232.761 45.3147 232.313 44.728C231.865 44.1307 231.267 43.832 230.521 43.832C229.721 43.832 229.07 44.12 228.569 44.696C228.078 45.2613 227.833 46.0453 227.833 47.048C227.833 48.0507 228.083 48.8453 228.585 49.432C229.086 50.008 229.731 50.296 230.521 50.296ZM242.677 42.92C243.648 42.92 244.405 43.1547 244.949 43.624C245.493 44.0827 245.765 44.6907 245.765 45.448V50.68C245.765 50.8933 245.658 51 245.445 51H245.125C244.912 51 244.805 50.8933 244.805 50.68V49.96C244.538 50.3867 244.16 50.7067 243.669 50.92C243.189 51.1333 242.65 51.24 242.053 51.24C241.221 51.24 240.544 51.064 240.021 50.712C239.498 50.36 239.237 49.816 239.237 49.08C239.237 48.4933 239.402 48.024 239.733 47.672C240.064 47.3093 240.496 47.0373 241.029 46.856C241.562 46.664 242.229 46.4933 243.029 46.344L244.757 46.04V45.528C244.757 44.984 244.57 44.5627 244.197 44.264C243.824 43.9547 243.333 43.8 242.725 43.8C242.266 43.8 241.85 43.8853 241.477 44.056C241.104 44.2267 240.704 44.52 240.277 44.936C240.202 45.0107 240.122 45.048 240.037 45.048C239.962 45.048 239.893 45.016 239.829 44.952L239.621 44.76C239.546 44.6853 239.509 44.6053 239.509 44.52C239.509 44.424 239.546 44.3387 239.621 44.264C240.069 43.7947 240.538 43.4533 241.029 43.24C241.53 43.0267 242.08 42.92 242.677 42.92ZM242.101 50.36C242.869 50.36 243.504 50.1573 244.005 49.752C244.506 49.3467 244.757 48.8293 244.757 48.2V46.856L243.269 47.144C242.576 47.2827 242.026 47.416 241.621 47.544C241.216 47.672 240.89 47.8587 240.645 48.104C240.4 48.3493 240.277 48.6693 240.277 49.064C240.277 49.4693 240.437 49.7893 240.757 50.024C241.088 50.248 241.536 50.36 242.101 50.36ZM251.306 51.208C250.549 51.208 249.887 51.0373 249.322 50.696C248.767 50.344 248.335 49.8587 248.026 49.24C247.727 48.6107 247.578 47.8853 247.578 47.064C247.578 46.2533 247.727 45.5333 248.026 44.904C248.335 44.2747 248.767 43.7893 249.322 43.448C249.887 43.096 250.538 42.92 251.274 42.92C251.871 42.92 252.394 43.0213 252.842 43.224C253.29 43.416 253.722 43.736 254.138 44.184C254.202 44.248 254.234 44.3173 254.234 44.392C254.234 44.488 254.191 44.568 254.106 44.632L253.882 44.84C253.818 44.904 253.743 44.936 253.658 44.936C253.583 44.936 253.503 44.8933 253.418 44.808C253.045 44.4347 252.687 44.1733 252.346 44.024C252.015 43.8747 251.647 43.8 251.242 43.8C250.687 43.8 250.213 43.9547 249.818 44.264C249.434 44.5733 249.146 44.9787 248.954 45.48C248.762 45.9707 248.666 46.4987 248.666 47.064C248.666 47.6293 248.762 48.1627 248.954 48.664C249.146 49.1547 249.439 49.5547 249.834 49.864C250.229 50.1627 250.714 50.312 251.29 50.312C251.717 50.312 252.09 50.2373 252.41 50.088C252.741 49.928 253.109 49.6293 253.514 49.192C253.599 49.1067 253.679 49.064 253.754 49.064C253.839 49.064 253.914 49.096 253.978 49.16L254.202 49.336C254.277 49.4 254.314 49.4747 254.314 49.56C254.314 49.6453 254.266 49.7467 254.17 49.864C253.722 50.3547 253.274 50.7013 252.826 50.904C252.378 51.1067 251.871 51.208 251.306 51.208ZM258.972 43.048C259.238 43.048 259.553 43.0907 259.916 43.176C260.108 43.24 260.182 43.3733 260.14 43.576L260.076 43.832C260.022 44.0347 259.889 44.1093 259.676 44.056C259.42 43.992 259.185 43.96 258.972 43.96C258.428 43.96 257.974 44.1947 257.612 44.664C257.26 45.1333 257.084 45.784 257.084 46.616V50.68C257.084 50.8933 256.977 51 256.764 51H256.348C256.134 51 256.028 50.8933 256.028 50.68V43.432C256.028 43.2187 256.134 43.112 256.348 43.112H256.7C256.913 43.112 257.02 43.2187 257.02 43.432V44.312C257.201 43.9173 257.457 43.608 257.788 43.384C258.129 43.16 258.524 43.048 258.972 43.048ZM264.401 51.208C263.665 51.208 263.009 51.032 262.433 50.68C261.857 50.328 261.409 49.8427 261.089 49.224C260.769 48.5947 260.609 47.8747 260.609 47.064C260.609 46.2533 260.769 45.5387 261.089 44.92C261.409 44.2907 261.857 43.8 262.433 43.448C263.009 43.096 263.665 42.92 264.401 42.92C265.137 42.92 265.793 43.096 266.369 43.448C266.945 43.8 267.393 44.2907 267.713 44.92C268.033 45.5387 268.193 46.2533 268.193 47.064C268.193 47.8747 268.033 48.5947 267.713 49.224C267.393 49.8427 266.945 50.328 266.369 50.68C265.793 51.032 265.137 51.208 264.401 51.208ZM264.401 50.328C265.222 50.328 265.878 50.0293 266.369 49.432C266.86 48.824 267.105 48.0347 267.105 47.064C267.105 46.0933 266.86 45.3093 266.369 44.712C265.878 44.104 265.222 43.8 264.401 43.8C263.58 43.8 262.924 44.104 262.433 44.712C261.942 45.3093 261.697 46.0933 261.697 47.064C261.697 48.0347 261.942 48.824 262.433 49.432C262.924 50.0293 263.58 50.328 264.401 50.328ZM272.78 51.208C272.129 51.208 271.553 51.1173 271.052 50.936C270.561 50.744 270.044 50.424 269.5 49.976C269.404 49.912 269.356 49.8373 269.356 49.752C269.356 49.6773 269.393 49.6027 269.468 49.528L269.676 49.304C269.74 49.2187 269.82 49.176 269.916 49.176C269.99 49.176 270.06 49.208 270.124 49.272C270.636 49.6667 271.089 49.944 271.484 50.104C271.878 50.2533 272.31 50.328 272.78 50.328C273.366 50.328 273.846 50.2 274.22 49.944C274.593 49.6773 274.78 49.32 274.78 48.872C274.78 48.424 274.588 48.0933 274.204 47.88C273.82 47.6667 273.228 47.4747 272.428 47.304C271.724 47.1547 271.169 47 270.764 46.84C270.369 46.6693 270.076 46.456 269.884 46.2C269.692 45.944 269.596 45.608 269.596 45.192C269.596 44.5093 269.873 43.96 270.428 43.544C270.982 43.128 271.681 42.92 272.524 42.92C273.1 42.92 273.612 42.9947 274.06 43.144C274.518 43.2827 274.977 43.5173 275.436 43.848C275.532 43.9227 275.58 44.0027 275.58 44.088C275.58 44.1413 275.553 44.2107 275.5 44.296L275.308 44.536C275.254 44.6213 275.18 44.664 275.084 44.664C274.998 44.664 274.924 44.6373 274.86 44.584C274.422 44.2747 274.033 44.0667 273.692 43.96C273.361 43.8533 272.982 43.8 272.556 43.8C271.969 43.8 271.5 43.928 271.148 44.184C270.796 44.44 270.62 44.7653 270.62 45.16C270.62 45.4053 270.7 45.6027 270.86 45.752C271.02 45.9013 271.249 46.0293 271.548 46.136C271.846 46.232 272.284 46.344 272.86 46.472C273.926 46.7067 274.684 46.9947 275.132 47.336C275.59 47.6773 275.82 48.1733 275.82 48.824C275.82 49.5387 275.537 50.1147 274.972 50.552C274.406 50.9893 273.676 51.208 272.78 51.208ZM280.358 51.208C279.707 51.208 279.131 51.1173 278.63 50.936C278.139 50.744 277.622 50.424 277.078 49.976C276.982 49.912 276.934 49.8373 276.934 49.752C276.934 49.6773 276.971 49.6027 277.046 49.528L277.254 49.304C277.318 49.2187 277.398 49.176 277.494 49.176C277.569 49.176 277.638 49.208 277.702 49.272C278.214 49.6667 278.667 49.944 279.062 50.104C279.457 50.2533 279.889 50.328 280.358 50.328C280.945 50.328 281.425 50.2 281.798 49.944C282.171 49.6773 282.358 49.32 282.358 48.872C282.358 48.424 282.166 48.0933 281.782 47.88C281.398 47.6667 280.806 47.4747 280.006 47.304C279.302 47.1547 278.747 47 278.342 46.84C277.947 46.6693 277.654 46.456 277.462 46.2C277.27 45.944 277.174 45.608 277.174 45.192C277.174 44.5093 277.451 43.96 278.006 43.544C278.561 43.128 279.259 42.92 280.102 42.92C280.678 42.92 281.19 42.9947 281.638 43.144C282.097 43.2827 282.555 43.5173 283.014 43.848C283.11 43.9227 283.158 44.0027 283.158 44.088C283.158 44.1413 283.131 44.2107 283.078 44.296L282.886 44.536C282.833 44.6213 282.758 44.664 282.662 44.664C282.577 44.664 282.502 44.6373 282.438 44.584C282.001 44.2747 281.611 44.0667 281.27 43.96C280.939 43.8533 280.561 43.8 280.134 43.8C279.547 43.8 279.078 43.928 278.726 44.184C278.374 44.44 278.198 44.7653 278.198 45.16C278.198 45.4053 278.278 45.6027 278.438 45.752C278.598 45.9013 278.827 46.0293 279.126 46.136C279.425 46.232 279.862 46.344 280.438 46.472C281.505 46.7067 282.262 46.9947 282.71 47.336C283.169 47.6773 283.398 48.1733 283.398 48.824C283.398 49.5387 283.115 50.1147 282.55 50.552C281.985 50.9893 281.254 51.208 280.358 51.208ZM292.424 50.12C292.456 50.1093 292.498 50.104 292.552 50.104C292.616 50.104 292.674 50.1253 292.728 50.168C292.781 50.2107 292.813 50.2693 292.824 50.344L292.872 50.568C292.882 50.5893 292.888 50.6267 292.888 50.68C292.888 50.8293 292.808 50.92 292.648 50.952C292.264 51.0693 291.853 51.128 291.416 51.128C290.722 51.128 290.226 50.9733 289.928 50.664C289.64 50.344 289.496 49.8853 289.496 49.288V43.912H288.312C288.098 43.912 287.992 43.8053 287.992 43.592V43.432C287.992 43.2187 288.098 43.112 288.312 43.112H289.496V40.68C289.496 40.4667 289.602 40.36 289.816 40.36H290.232C290.445 40.36 290.552 40.4667 290.552 40.68V43.112H292.472C292.685 43.112 292.792 43.2187 292.792 43.432V43.592C292.792 43.8053 292.685 43.912 292.472 43.912H290.552V49.16C290.552 49.5547 290.626 49.832 290.776 49.992C290.925 50.152 291.181 50.232 291.544 50.232C291.8 50.232 292.093 50.1947 292.424 50.12ZM303.265 43.384C303.308 43.2027 303.431 43.112 303.633 43.112H304.065C304.183 43.112 304.263 43.144 304.305 43.208C304.359 43.272 304.369 43.3573 304.337 43.464L302.273 50.728C302.231 50.9093 302.108 51 301.905 51H301.185C301.004 51 300.887 50.9093 300.833 50.728L300.097 48.28C299.713 47 299.356 45.688 299.025 44.344C298.705 45.6453 298.353 46.968 297.969 48.312L297.265 50.728C297.223 50.9093 297.1 51 296.897 51H296.209C296.007 51 295.884 50.9093 295.841 50.728L293.777 43.464C293.767 43.4427 293.761 43.4053 293.761 43.352C293.761 43.2773 293.788 43.2187 293.841 43.176C293.895 43.1333 293.964 43.112 294.049 43.112H294.481C294.684 43.112 294.807 43.2027 294.849 43.384L295.617 46.216C295.969 47.5067 296.295 48.792 296.593 50.072C296.828 49.1227 297.175 47.8373 297.633 46.216L298.449 43.384C298.492 43.2027 298.615 43.112 298.817 43.112H299.297C299.489 43.112 299.607 43.2027 299.649 43.384L300.481 46.216C300.844 47.528 301.185 48.8187 301.505 50.088C301.751 49.0213 302.081 47.7307 302.497 46.216L303.265 43.384ZM309.151 51.208C308.415 51.208 307.759 51.032 307.183 50.68C306.607 50.328 306.159 49.8427 305.839 49.224C305.519 48.5947 305.359 47.8747 305.359 47.064C305.359 46.2533 305.519 45.5387 305.839 44.92C306.159 44.2907 306.607 43.8 307.183 43.448C307.759 43.096 308.415 42.92 309.151 42.92C309.887 42.92 310.543 43.096 311.119 43.448C311.695 43.8 312.143 44.2907 312.463 44.92C312.783 45.5387 312.943 46.2533 312.943 47.064C312.943 47.8747 312.783 48.5947 312.463 49.224C312.143 49.8427 311.695 50.328 311.119 50.68C310.543 51.032 309.887 51.208 309.151 51.208ZM309.151 50.328C309.972 50.328 310.628 50.0293 311.119 49.432C311.61 48.824 311.855 48.0347 311.855 47.064C311.855 46.0933 311.61 45.3093 311.119 44.712C310.628 44.104 309.972 43.8 309.151 43.8C308.33 43.8 307.674 44.104 307.183 44.712C306.692 45.3093 306.447 46.0933 306.447 47.064C306.447 48.0347 306.692 48.824 307.183 49.432C307.674 50.0293 308.33 50.328 309.151 50.328ZM9.52 73C9.30667 73 9.2 72.8933 9.2 72.68V61.96C9.2 61.7467 9.30667 61.64 9.52 61.64H9.936C10.1493 61.64 10.256 61.7467 10.256 61.96V72.68C10.256 72.8933 10.1493 73 9.936 73H9.52ZM13.1651 63.112C12.9518 63.112 12.7705 63.0373 12.6211 62.888C12.4825 62.7387 12.4131 62.5573 12.4131 62.344C12.4131 62.1307 12.4825 61.9547 12.6211 61.816C12.7705 61.6773 12.9518 61.608 13.1651 61.608C13.3891 61.608 13.5705 61.6773 13.7091 61.816C13.8585 61.9547 13.9331 62.1307 13.9331 62.344C13.9331 62.5573 13.8585 62.7387 13.7091 62.888C13.5705 63.0373 13.3891 63.112 13.1651 63.112ZM12.9571 73C12.7438 73 12.6371 72.8933 12.6371 72.68V65.432C12.6371 65.2187 12.7438 65.112 12.9571 65.112H13.3731C13.5865 65.112 13.6931 65.2187 13.6931 65.432V72.68C13.6931 72.8933 13.5865 73 13.3731 73H12.9571ZM19.5634 64.92C20.4914 64.92 21.19 65.176 21.6594 65.688C22.1394 66.2 22.3794 66.84 22.3794 67.608V72.68C22.3794 72.8933 22.2727 73 22.0594 73H21.6434C21.43 73 21.3234 72.8933 21.3234 72.68V67.96C21.3234 67.256 21.1527 66.7227 20.8114 66.36C20.47 65.9973 19.9794 65.816 19.3394 65.816C18.934 65.816 18.5607 65.9173 18.2194 66.12C17.878 66.312 17.606 66.5787 17.4034 66.92C17.2007 67.2613 17.0994 67.6347 17.0994 68.04V72.68C17.0994 72.8933 16.9927 73 16.7794 73H16.3634C16.15 73 16.0434 72.8933 16.0434 72.68V65.432C16.0434 65.2187 16.15 65.112 16.3634 65.112H16.7154C16.9287 65.112 17.0354 65.2187 17.0354 65.432V66.2C17.302 65.7733 17.654 65.4533 18.0914 65.24C18.5287 65.0267 19.0194 64.92 19.5634 64.92ZM30.4593 71.128C30.5339 71.0533 30.6139 71.016 30.6993 71.016C30.7739 71.016 30.8433 71.048 30.9073 71.112L31.1153 71.304C31.1899 71.3787 31.2273 71.4587 31.2273 71.544C31.2273 71.608 31.1953 71.6827 31.1313 71.768C30.6086 72.2907 30.1019 72.664 29.6113 72.888C29.1206 73.1013 28.5713 73.208 27.9633 73.208C27.1953 73.208 26.5286 73.0373 25.9633 72.696C25.3979 72.3547 24.9606 71.88 24.6513 71.272C24.3419 70.6533 24.1873 69.9387 24.1873 69.128C24.1873 68.3067 24.3366 67.5813 24.6353 66.952C24.9446 66.312 25.3766 65.816 25.9313 65.464C26.4859 65.1013 27.1259 64.92 27.8513 64.92C28.9286 64.92 29.7766 65.256 30.3953 65.928C31.0139 66.6 31.3233 67.5067 31.3233 68.648V68.84C31.3126 68.936 31.2753 69.0107 31.2113 69.064C31.1579 69.1173 31.0833 69.144 30.9873 69.144H25.2593C25.2913 70.04 25.5259 70.7973 25.9633 71.416C26.4113 72.024 27.0779 72.328 27.9633 72.328C28.4433 72.328 28.8646 72.2427 29.2273 72.072C29.6006 71.8907 30.0113 71.576 30.4593 71.128ZM27.8513 65.8C27.1473 65.8 26.5659 66.0187 26.1073 66.456C25.6593 66.8827 25.3873 67.512 25.2913 68.344H30.2673C30.2459 67.5653 30.0219 66.9467 29.5953 66.488C29.1686 66.0293 28.5873 65.8 27.8513 65.8ZM36.0298 73.208C35.3791 73.208 34.8031 73.1173 34.3018 72.936C33.8111 72.744 33.2938 72.424 32.7498 71.976C32.6538 71.912 32.6058 71.8373 32.6058 71.752C32.6058 71.6773 32.6431 71.6027 32.7178 71.528L32.9258 71.304C32.9898 71.2187 33.0698 71.176 33.1658 71.176C33.2404 71.176 33.3098 71.208 33.3738 71.272C33.8858 71.6667 34.3391 71.944 34.7338 72.104C35.1284 72.2533 35.5604 72.328 36.0298 72.328C36.6164 72.328 37.0964 72.2 37.4698 71.944C37.8431 71.6773 38.0298 71.32 38.0298 70.872C38.0298 70.424 37.8378 70.0933 37.4538 69.88C37.0698 69.6667 36.4778 69.4747 35.6778 69.304C34.9738 69.1547 34.4191 69 34.0138 68.84C33.6191 68.6693 33.3258 68.456 33.1338 68.2C32.9418 67.944 32.8458 67.608 32.8458 67.192C32.8458 66.5093 33.1231 65.96 33.6778 65.544C34.2324 65.128 34.9311 64.92 35.7738 64.92C36.3498 64.92 36.8618 64.9947 37.3098 65.144C37.7684 65.2827 38.2271 65.5173 38.6858 65.848C38.7818 65.9227 38.8298 66.0027 38.8298 66.088C38.8298 66.1413 38.8031 66.2107 38.7498 66.296L38.5578 66.536C38.5044 66.6213 38.4298 66.664 38.3338 66.664C38.2484 66.664 38.1738 66.6373 38.1098 66.584C37.6724 66.2747 37.2831 66.0667 36.9418 65.96C36.6111 65.8533 36.2324 65.8 35.8058 65.8C35.2191 65.8 34.7498 65.928 34.3978 66.184C34.0458 66.44 33.8698 66.7653 33.8698 67.16C33.8698 67.4053 33.9498 67.6027 34.1098 67.752C34.2698 67.9013 34.4991 68.0293 34.7978 68.136C35.0964 68.232 35.5338 68.344 36.1098 68.472C37.1764 68.7067 37.9338 68.9947 38.3818 69.336C38.8404 69.6773 39.0698 70.1733 39.0698 70.824C39.0698 71.5387 38.7871 72.1147 38.2218 72.552C37.6564 72.9893 36.9258 73.208 36.0298 73.208ZM41.2879 73.112C41.0639 73.112 40.8719 73.032 40.7119 72.872C40.5519 72.712 40.4719 72.52 40.4719 72.296C40.4719 72.072 40.5519 71.88 40.7119 71.72C40.8719 71.56 41.0639 71.48 41.2879 71.48C41.5119 71.48 41.7039 71.56 41.8639 71.72C42.0239 71.88 42.1039 72.072 42.1039 72.296C42.1039 72.52 42.0239 72.712 41.8639 72.872C41.7039 73.032 41.5119 73.112 41.2879 73.112Z" fill="#1B1B1F"/>
<path d="M1.272 126C1.112 126 1.032 125.92 1.032 125.76V117.72C1.032 117.56 1.112 117.48 1.272 117.48H1.644C1.804 117.48 1.884 117.56 1.884 117.72V121.248H6.804V117.72C6.804 117.56 6.884 117.48 7.044 117.48H7.416C7.576 117.48 7.656 117.56 7.656 117.72V125.76C7.656 125.92 7.576 126 7.416 126H7.044C6.884 126 6.804 125.92 6.804 125.76V121.956H1.884V125.76C1.884 125.92 1.804 126 1.644 126H1.272ZM13.8796 124.596C13.9356 124.54 13.9956 124.512 14.0596 124.512C14.1156 124.512 14.1676 124.536 14.2156 124.584L14.3716 124.728C14.4276 124.784 14.4556 124.844 14.4556 124.908C14.4556 124.956 14.4316 125.012 14.3836 125.076C13.9916 125.468 13.6116 125.748 13.2436 125.916C12.8756 126.076 12.4636 126.156 12.0076 126.156C11.4316 126.156 10.9316 126.028 10.5076 125.772C10.0836 125.516 9.75559 125.16 9.52359 124.704C9.29159 124.24 9.17559 123.704 9.17559 123.096C9.17559 122.48 9.28759 121.936 9.51159 121.464C9.74359 120.984 10.0676 120.612 10.4836 120.348C10.8996 120.076 11.3796 119.94 11.9236 119.94C12.7316 119.94 13.3676 120.192 13.8316 120.696C14.2956 121.2 14.5276 121.88 14.5276 122.736V122.88C14.5196 122.952 14.4916 123.008 14.4436 123.048C14.4036 123.088 14.3476 123.108 14.2756 123.108H9.97959C10.0036 123.78 10.1796 124.348 10.5076 124.812C10.8436 125.268 11.3436 125.496 12.0076 125.496C12.3676 125.496 12.6836 125.432 12.9556 125.304C13.2356 125.168 13.5436 124.932 13.8796 124.596ZM11.9236 120.6C11.3956 120.6 10.9596 120.764 10.6156 121.092C10.2796 121.412 10.0756 121.884 10.0036 122.508H13.7356C13.7196 121.924 13.5516 121.46 13.2316 121.116C12.9116 120.772 12.4756 120.6 11.9236 120.6ZM16.1986 126C16.0386 126 15.9586 125.92 15.9586 125.76V117.72C15.9586 117.56 16.0386 117.48 16.1986 117.48H16.5106C16.6706 117.48 16.7506 117.56 16.7506 117.72V125.76C16.7506 125.92 16.6706 126 16.5106 126H16.1986ZM21.3684 119.952C21.8644 119.952 22.3084 120.084 22.7004 120.348C23.1004 120.604 23.4124 120.968 23.6364 121.44C23.8604 121.904 23.9724 122.436 23.9724 123.036C23.9724 123.644 23.8604 124.184 23.6364 124.656C23.4124 125.128 23.1044 125.496 22.7124 125.76C22.3204 126.016 21.8724 126.144 21.3684 126.144C20.4404 126.144 19.7604 125.804 19.3284 125.124V127.968C19.3284 128.128 19.2484 128.208 19.0884 128.208H18.7764C18.6164 128.208 18.5364 128.128 18.5364 127.968V120.324C18.5364 120.164 18.6164 120.084 18.7764 120.084H19.0404C19.2004 120.084 19.2804 120.164 19.2804 120.324V121.08C19.4964 120.712 19.7804 120.432 20.1324 120.24C20.4844 120.048 20.8964 119.952 21.3684 119.952ZM21.3084 125.472C21.8684 125.472 22.3164 125.248 22.6524 124.8C22.9884 124.352 23.1564 123.764 23.1564 123.036C23.1564 122.316 22.9884 121.736 22.6524 121.296C22.3164 120.848 21.8684 120.624 21.3084 120.624C20.7084 120.624 20.2204 120.84 19.8444 121.272C19.4764 121.696 19.2924 122.284 19.2924 123.036C19.2924 123.788 19.4804 124.384 19.8564 124.824C20.2324 125.256 20.7164 125.472 21.3084 125.472ZM30.8098 125.34C30.8338 125.332 30.8658 125.328 30.9058 125.328C30.9538 125.328 30.9978 125.344 31.0378 125.376C31.0778 125.408 31.1018 125.452 31.1098 125.508L31.1458 125.676C31.1538 125.692 31.1578 125.72 31.1578 125.76C31.1578 125.872 31.0978 125.94 30.9778 125.964C30.6898 126.052 30.3818 126.096 30.0538 126.096C29.5338 126.096 29.1618 125.98 28.9378 125.748C28.7218 125.508 28.6138 125.164 28.6138 124.716V120.684H27.7258C27.5658 120.684 27.4858 120.604 27.4858 120.444V120.324C27.4858 120.164 27.5658 120.084 27.7258 120.084H28.6138V118.26C28.6138 118.1 28.6938 118.02 28.8538 118.02H29.1658C29.3258 118.02 29.4058 118.1 29.4058 118.26V120.084H30.8458C31.0058 120.084 31.0858 120.164 31.0858 120.324V120.444C31.0858 120.604 31.0058 120.684 30.8458 120.684H29.4058V124.62C29.4058 124.916 29.4618 125.124 29.5738 125.244C29.6858 125.364 29.8778 125.424 30.1498 125.424C30.3418 125.424 30.5618 125.396 30.8098 125.34ZM36.3796 124.596C36.4356 124.54 36.4956 124.512 36.5596 124.512C36.6156 124.512 36.6676 124.536 36.7156 124.584L36.8716 124.728C36.9276 124.784 36.9556 124.844 36.9556 124.908C36.9556 124.956 36.9316 125.012 36.8836 125.076C36.4916 125.468 36.1116 125.748 35.7436 125.916C35.3756 126.076 34.9636 126.156 34.5076 126.156C33.9316 126.156 33.4316 126.028 33.0076 125.772C32.5836 125.516 32.2556 125.16 32.0236 124.704C31.7916 124.24 31.6756 123.704 31.6756 123.096C31.6756 122.48 31.7876 121.936 32.0116 121.464C32.2436 120.984 32.5676 120.612 32.9836 120.348C33.3996 120.076 33.8796 119.94 34.4236 119.94C35.2316 119.94 35.8676 120.192 36.3316 120.696C36.7956 121.2 37.0276 121.88 37.0276 122.736V122.88C37.0196 122.952 36.9916 123.008 36.9436 123.048C36.9036 123.088 36.8476 123.108 36.7756 123.108H32.4796C32.5036 123.78 32.6796 124.348 33.0076 124.812C33.3436 125.268 33.8436 125.496 34.5076 125.496C34.8676 125.496 35.1836 125.432 35.4556 125.304C35.7356 125.168 36.0436 124.932 36.3796 124.596ZM34.4236 120.6C33.8956 120.6 33.4596 120.764 33.1156 121.092C32.7796 121.412 32.5756 121.884 32.5036 122.508H36.2356C36.2196 121.924 36.0516 121.46 35.7316 121.116C35.4116 120.772 34.9756 120.6 34.4236 120.6ZM42.6383 125.712C42.6703 125.768 42.6863 125.816 42.6863 125.856C42.6863 125.952 42.6223 126 42.4943 126H42.1343C42.0143 126 41.9183 125.948 41.8463 125.844L40.2143 123.444L38.5943 125.844C38.5223 125.948 38.4263 126 38.3063 126H37.9703C37.9063 126 37.8543 125.988 37.8143 125.964C37.7823 125.932 37.7663 125.896 37.7663 125.856C37.7663 125.8 37.7823 125.752 37.8143 125.712L39.7583 122.916L37.9703 120.372C37.9383 120.332 37.9223 120.288 37.9223 120.24C37.9223 120.136 37.9903 120.084 38.1263 120.084H38.4743C38.5943 120.084 38.6903 120.136 38.7623 120.24L40.2263 122.388L41.6783 120.24C41.7503 120.136 41.8463 120.084 41.9663 120.084H42.2903C42.3543 120.084 42.4023 120.1 42.4343 120.132C42.4743 120.156 42.4943 120.188 42.4943 120.228C42.4943 120.284 42.4783 120.332 42.4463 120.372L40.6943 122.88L42.6383 125.712ZM46.6184 125.34C46.6424 125.332 46.6744 125.328 46.7144 125.328C46.7624 125.328 46.8064 125.344 46.8464 125.376C46.8864 125.408 46.9104 125.452 46.9184 125.508L46.9544 125.676C46.9624 125.692 46.9664 125.72 46.9664 125.76C46.9664 125.872 46.9064 125.94 46.7864 125.964C46.4984 126.052 46.1904 126.096 45.8624 126.096C45.3424 126.096 44.9704 125.98 44.7464 125.748C44.5304 125.508 44.4224 125.164 44.4224 124.716V120.684H43.5344C43.3744 120.684 43.2944 120.604 43.2944 120.444V120.324C43.2944 120.164 43.3744 120.084 43.5344 120.084H44.4224V118.26C44.4224 118.1 44.5024 118.02 44.6624 118.02H44.9744C45.1344 118.02 45.2144 118.1 45.2144 118.26V120.084H46.6544C46.8144 120.084 46.8944 120.164 46.8944 120.324V120.444C46.8944 120.604 46.8144 120.684 46.6544 120.684H45.2144V124.62C45.2144 124.916 45.2704 125.124 45.3824 125.244C45.4944 125.364 45.6864 125.424 45.9584 125.424C46.1504 125.424 46.3704 125.396 46.6184 125.34Z" fill="#5C5C66"/>
</svg>
