<svg width="332" height="210" viewBox="0 0 332 210" fill="none" xmlns="http://www.w3.org/2000/svg">
<rect width="332" height="210" fill="#F6F6F6"/>
<path d="M41.568 54C41.4187 54 41.2973 53.958 41.204 53.874C41.12 53.7807 41.078 53.6593 41.078 53.51V44.55C41.078 44.3913 41.12 44.27 41.204 44.186C41.2973 44.102 41.4187 44.06 41.568 44.06H42.184C42.3427 44.06 42.464 44.102 42.548 44.186C42.632 44.27 42.674 44.3913 42.674 44.55V52.642H46.72C46.8787 52.642 47 52.684 47.084 52.768C47.168 52.852 47.21 52.9733 47.21 53.132V53.51C47.21 53.6593 47.168 53.7807 47.084 53.874C47 53.958 46.8787 54 46.72 54H41.568ZM51.5043 46.888C52.4376 46.888 53.1563 47.1073 53.6603 47.546C54.1643 47.9753 54.4163 48.5493 54.4163 49.268V53.51C54.4163 53.6593 54.3743 53.7807 54.2903 53.874C54.2063 53.958 54.0849 54 53.9263 54H53.5623C53.4129 54 53.2916 53.958 53.1983 53.874C53.1143 53.7807 53.0723 53.6593 53.0723 53.51V53.202C52.8483 53.5287 52.5403 53.7807 52.1483 53.958C51.7563 54.1353 51.2989 54.224 50.7763 54.224C50.0576 54.224 49.4649 54.0653 48.9983 53.748C48.5409 53.4213 48.3123 52.9313 48.3123 52.278C48.3123 51.55 48.5829 51.0133 49.1243 50.668C49.6749 50.3133 50.4356 50.0473 51.4063 49.87L52.9883 49.576V49.324C52.9883 48.9413 52.8529 48.6473 52.5823 48.442C52.3209 48.2273 51.9709 48.12 51.5323 48.12C51.1589 48.12 50.8323 48.1853 50.5523 48.316C50.2816 48.4373 49.9876 48.6427 49.6703 48.932C49.5489 49.0347 49.4323 49.086 49.3203 49.086C49.2083 49.086 49.0916 49.0347 48.9703 48.932L48.7463 48.736C48.6249 48.624 48.5643 48.5027 48.5643 48.372C48.5643 48.2507 48.6203 48.134 48.7323 48.022C49.1336 47.6393 49.5583 47.3547 50.0063 47.168C50.4543 46.9813 50.9536 46.888 51.5043 46.888ZM50.9863 53.034C51.5463 53.034 52.0176 52.8847 52.4003 52.586C52.7923 52.2873 52.9883 51.858 52.9883 51.298V50.654L51.7703 50.906C51.0889 51.046 50.5849 51.2047 50.2583 51.382C49.9316 51.5593 49.7683 51.83 49.7683 52.194C49.7683 52.4553 49.8756 52.6607 50.0903 52.81C50.3049 52.9593 50.6036 53.034 50.9863 53.034ZM59.7798 46.916C60.3678 46.916 60.8905 47.0653 61.3478 47.364C61.8145 47.6627 62.1785 48.0873 62.4398 48.638C62.7011 49.1887 62.8318 49.8233 62.8318 50.542C62.8318 51.27 62.7011 51.9093 62.4398 52.46C62.1785 53.0107 61.8145 53.4353 61.3478 53.734C60.8811 54.0327 60.3585 54.182 59.7798 54.182C58.7438 54.182 57.9831 53.7947 57.4978 53.02V53.51C57.4978 53.6593 57.4558 53.7807 57.3718 53.874C57.2878 53.958 57.1665 54 57.0078 54H56.6018C56.4525 54 56.3311 53.958 56.2378 53.874C56.1538 53.7807 56.1118 53.6593 56.1118 53.51V44.55C56.1118 44.3913 56.1538 44.27 56.2378 44.186C56.3311 44.102 56.4525 44.06 56.6018 44.06H57.1058C57.2645 44.06 57.3858 44.102 57.4698 44.186C57.5538 44.27 57.5958 44.3913 57.5958 44.55V47.966C58.0905 47.266 58.8185 46.916 59.7798 46.916ZM59.4718 52.894C60.0318 52.894 60.4798 52.684 60.8158 52.264C61.1518 51.8347 61.3198 51.2607 61.3198 50.542C61.3198 49.8327 61.1518 49.2633 60.8158 48.834C60.4891 48.4047 60.0458 48.19 59.4858 48.19C58.9165 48.19 58.4498 48.4047 58.0858 48.834C57.7218 49.254 57.5398 49.8233 57.5398 50.542C57.5398 51.2793 57.7218 51.858 58.0858 52.278C58.4498 52.6887 58.9118 52.894 59.4718 52.894ZM69.2023 52.236C69.3236 52.1333 69.4403 52.082 69.5523 52.082C69.6643 52.082 69.7809 52.1427 69.9023 52.264L70.0983 52.474C70.2009 52.5953 70.2523 52.712 70.2523 52.824C70.2523 52.9453 70.1916 53.062 70.0703 53.174C69.6409 53.5473 69.2116 53.8133 68.7823 53.972C68.3623 54.1307 67.8956 54.21 67.3823 54.21C66.6636 54.21 66.0383 54.0607 65.5063 53.762C64.9836 53.4633 64.5776 53.0433 64.2883 52.502C64.0083 51.9513 63.8682 51.3167 63.8682 50.598C63.8682 49.8887 64.0036 49.254 64.2743 48.694C64.5543 48.1247 64.9463 47.6813 65.4503 47.364C65.9636 47.0467 66.5609 46.888 67.2423 46.888C68.2596 46.888 69.0436 47.1913 69.5943 47.798C70.1449 48.3953 70.4203 49.2213 70.4203 50.276V50.402C70.4109 50.5513 70.3643 50.668 70.2803 50.752C70.1963 50.836 70.0749 50.878 69.9163 50.878H65.3243C65.3803 51.494 65.5809 51.998 65.9263 52.39C66.2809 52.7727 66.7756 52.964 67.4103 52.964C67.7556 52.964 68.0589 52.9127 68.3203 52.81C68.5816 52.698 68.8756 52.5067 69.2023 52.236ZM67.2143 48.064C66.7009 48.064 66.2856 48.218 65.9683 48.526C65.6603 48.8247 65.4596 49.2493 65.3663 49.8H68.9643C68.9269 49.2587 68.7589 48.834 68.4603 48.526C68.1616 48.218 67.7463 48.064 67.2143 48.064ZM72.3258 54C72.1764 54 72.0551 53.958 71.9618 53.874C71.8778 53.7807 71.8358 53.6593 71.8358 53.51V44.55C71.8358 44.3913 71.8778 44.27 71.9618 44.186C72.0551 44.102 72.1764 44.06 72.3258 44.06H72.8298C72.9884 44.06 73.1098 44.102 73.1938 44.186C73.2778 44.27 73.3198 44.3913 73.3198 44.55V53.51C73.3198 53.6593 73.2778 53.7807 73.1938 53.874C73.1098 53.958 72.9884 54 72.8298 54H72.3258Z" fill="#1B1B1F"/>
<rect x="40.5" y="62.5" width="251" height="87" rx="3.5" fill="white"/>
<rect x="40.5" y="62.5" width="251" height="87" rx="3.5" stroke="#84848F"/>
<path d="M288 140L282 146M288 144L286 146" stroke="#5C5C66" stroke-linecap="square"/>
<path d="M57.2 91C57.0187 91 56.896 90.9147 56.832 90.744L55.776 87.816H50.608L49.568 90.744C49.504 90.9147 49.3813 91 49.2 91H48.704C48.6187 91 48.5493 90.9787 48.496 90.936C48.4427 90.8933 48.416 90.8347 48.416 90.76L48.448 90.632L52.368 79.896C52.432 79.7253 52.5547 79.64 52.736 79.64H53.664C53.8453 79.64 53.968 79.7253 54.032 79.896L57.952 90.632L57.984 90.76C57.984 90.8347 57.9573 90.8933 57.904 90.936C57.8507 90.9787 57.7813 91 57.696 91H57.2ZM55.424 86.856L54.864 85.288L54.736 84.952C54.5867 84.5467 54.3413 83.8693 54 82.92C53.6693 81.9707 53.3973 81.1653 53.184 80.504C52.896 81.4107 52.4427 82.728 51.824 84.456C51.7813 84.5733 51.7333 84.7013 51.68 84.84C51.6267 84.9787 51.5733 85.128 51.52 85.288L50.96 86.856H55.424ZM63.1102 82.92C64.0383 82.92 64.7369 83.176 65.2063 83.688C65.6863 84.2 65.9263 84.84 65.9263 85.608V90.68C65.9263 90.8933 65.8196 91 65.6063 91H65.1903C64.9769 91 64.8703 90.8933 64.8703 90.68V85.96C64.8703 85.256 64.6996 84.7227 64.3583 84.36C64.0169 83.9973 63.5263 83.816 62.8863 83.816C62.4809 83.816 62.1076 83.9173 61.7663 84.12C61.4249 84.312 61.1529 84.5787 60.9503 84.92C60.7476 85.2613 60.6463 85.6347 60.6463 86.04V90.68C60.6463 90.8933 60.5396 91 60.3263 91H59.9103C59.6969 91 59.5903 90.8933 59.5903 90.68V83.432C59.5903 83.2187 59.6969 83.112 59.9103 83.112H60.2623C60.4756 83.112 60.5823 83.2187 60.5823 83.432V84.2C60.8489 83.7733 61.2009 83.4533 61.6383 83.24C62.0756 83.0267 62.5663 82.92 63.1102 82.92ZM77.6936 89.128C77.7683 89.0533 77.8483 89.016 77.9336 89.016C78.0083 89.016 78.0776 89.048 78.1416 89.112L78.3496 89.304C78.4243 89.3787 78.4616 89.4587 78.4616 89.544C78.4616 89.608 78.4296 89.6827 78.3656 89.768C77.843 90.2907 77.3363 90.664 76.8456 90.888C76.355 91.1013 75.8056 91.208 75.1976 91.208C74.4296 91.208 73.763 91.0373 73.1976 90.696C72.6323 90.3547 72.195 89.88 71.8856 89.272C71.5763 88.6533 71.4216 87.9387 71.4216 87.128C71.4216 86.3067 71.571 85.5813 71.8696 84.952C72.179 84.312 72.611 83.816 73.1656 83.464C73.7203 83.1013 74.3603 82.92 75.0856 82.92C76.163 82.92 77.011 83.256 77.6296 83.928C78.2483 84.6 78.5576 85.5067 78.5576 86.648V86.84C78.547 86.936 78.5096 87.0107 78.4456 87.064C78.3923 87.1173 78.3176 87.144 78.2216 87.144H72.4936C72.5256 88.04 72.7603 88.7973 73.1976 89.416C73.6456 90.024 74.3123 90.328 75.1976 90.328C75.6776 90.328 76.099 90.2427 76.4616 90.072C76.835 89.8907 77.2456 89.576 77.6936 89.128ZM75.0856 83.8C74.3816 83.8 73.8003 84.0187 73.3416 84.456C72.8936 84.8827 72.6216 85.512 72.5256 86.344H77.5016C77.4803 85.5653 77.2563 84.9467 76.8296 84.488C76.403 84.0293 75.8216 83.8 75.0856 83.8ZM86.0385 90.616C86.0812 90.6907 86.1025 90.7547 86.1025 90.808C86.1025 90.936 86.0172 91 85.8465 91H85.3665C85.2065 91 85.0785 90.9307 84.9825 90.792L82.8065 87.592L80.6465 90.792C80.5505 90.9307 80.4225 91 80.2625 91H79.8145C79.7292 91 79.6598 90.984 79.6065 90.952C79.5638 90.9093 79.5425 90.8613 79.5425 90.808C79.5425 90.7333 79.5638 90.6693 79.6065 90.616L82.1985 86.888L79.8145 83.496C79.7718 83.4427 79.7505 83.384 79.7505 83.32C79.7505 83.1813 79.8412 83.112 80.0225 83.112H80.4865C80.6465 83.112 80.7745 83.1813 80.8705 83.32L82.8225 86.184L84.7585 83.32C84.8545 83.1813 84.9825 83.112 85.1425 83.112H85.5745C85.6598 83.112 85.7238 83.1333 85.7665 83.176C85.8198 83.208 85.8465 83.2507 85.8465 83.304C85.8465 83.3787 85.8252 83.4427 85.7825 83.496L83.4465 86.84L86.0385 90.616ZM90.7709 82.92C91.7415 82.92 92.4989 83.1547 93.0429 83.624C93.5869 84.0827 93.8589 84.6907 93.8589 85.448V90.68C93.8589 90.8933 93.7522 91 93.5389 91H93.2189C93.0055 91 92.8989 90.8933 92.8989 90.68V89.96C92.6322 90.3867 92.2535 90.7067 91.7629 90.92C91.2829 91.1333 90.7442 91.24 90.1469 91.24C89.3149 91.24 88.6375 91.064 88.1149 90.712C87.5922 90.36 87.3309 89.816 87.3309 89.08C87.3309 88.4933 87.4962 88.024 87.8269 87.672C88.1575 87.3093 88.5895 87.0373 89.1229 86.856C89.6562 86.664 90.3229 86.4933 91.1229 86.344L92.8509 86.04V85.528C92.8509 84.984 92.6642 84.5627 92.2909 84.264C91.9175 83.9547 91.4269 83.8 90.8189 83.8C90.3602 83.8 89.9442 83.8853 89.5709 84.056C89.1975 84.2267 88.7975 84.52 88.3709 84.936C88.2962 85.0107 88.2162 85.048 88.1309 85.048C88.0562 85.048 87.9869 85.016 87.9229 84.952L87.7149 84.76C87.6402 84.6853 87.6029 84.6053 87.6029 84.52C87.6029 84.424 87.6402 84.3387 87.7149 84.264C88.1629 83.7947 88.6322 83.4533 89.1229 83.24C89.6242 83.0267 90.1735 82.92 90.7709 82.92ZM90.1949 90.36C90.9629 90.36 91.5975 90.1573 92.0989 89.752C92.6002 89.3467 92.8509 88.8293 92.8509 88.2V86.856L91.3629 87.144C90.6695 87.2827 90.1202 87.416 89.7149 87.544C89.3095 87.672 88.9842 87.8587 88.7389 88.104C88.4935 88.3493 88.3709 88.6693 88.3709 89.064C88.3709 89.4693 88.5309 89.7893 88.8509 90.024C89.1815 90.248 89.6295 90.36 90.1949 90.36ZM104.216 82.92C105.069 82.92 105.72 83.1653 106.168 83.656C106.626 84.136 106.856 84.7547 106.856 85.512V90.68C106.856 90.8933 106.749 91 106.536 91H106.12C105.906 91 105.8 90.8933 105.8 90.68V85.8C105.8 85.16 105.65 84.6693 105.352 84.328C105.064 83.9867 104.632 83.816 104.056 83.816C103.448 83.816 102.962 84.0187 102.6 84.424C102.237 84.8293 102.056 85.352 102.056 85.992V90.68C102.056 90.8933 101.949 91 101.736 91H101.32C101.106 91 101 90.8933 101 90.68V85.8C101 85.16 100.85 84.6693 100.552 84.328C100.264 83.9867 99.8263 83.816 99.2396 83.816C98.6956 83.816 98.2423 83.9867 97.8796 84.328C97.5276 84.6693 97.3196 85.1173 97.2556 85.672V90.68C97.2556 90.8933 97.149 91 96.9356 91H96.5196C96.3063 91 96.1996 90.8933 96.1996 90.68V83.432C96.1996 83.2187 96.3063 83.112 96.5196 83.112H96.8716C97.085 83.112 97.1916 83.2187 97.1916 83.432V84.088C97.6716 83.3093 98.4343 82.92 99.4796 82.92C100.024 82.92 100.488 83.0427 100.872 83.288C101.266 83.5227 101.56 83.8427 101.752 84.248C102.317 83.3627 103.138 82.92 104.216 82.92ZM112.96 82.936C113.621 82.936 114.213 83.112 114.736 83.464C115.269 83.8053 115.685 84.2907 115.984 84.92C116.283 85.5387 116.432 86.248 116.432 87.048C116.432 87.8587 116.283 88.5787 115.984 89.208C115.685 89.8373 115.275 90.328 114.752 90.68C114.229 91.0213 113.632 91.192 112.96 91.192C111.723 91.192 110.816 90.7387 110.24 89.832V93.624C110.24 93.8373 110.133 93.944 109.92 93.944H109.504C109.291 93.944 109.184 93.8373 109.184 93.624V83.432C109.184 83.2187 109.291 83.112 109.504 83.112H109.856C110.069 83.112 110.176 83.2187 110.176 83.432V84.44C110.464 83.9493 110.843 83.576 111.312 83.32C111.781 83.064 112.331 82.936 112.96 82.936ZM112.88 90.296C113.627 90.296 114.224 89.9973 114.672 89.4C115.12 88.8027 115.344 88.0187 115.344 87.048C115.344 86.088 115.12 85.3147 114.672 84.728C114.224 84.1307 113.627 83.832 112.88 83.832C112.08 83.832 111.429 84.12 110.928 84.696C110.437 85.2613 110.192 86.0453 110.192 87.048C110.192 88.0507 110.443 88.8453 110.944 89.432C111.445 90.008 112.091 90.296 112.88 90.296ZM118.645 91C118.432 91 118.325 90.8933 118.325 90.68V79.96C118.325 79.7467 118.432 79.64 118.645 79.64H119.061C119.274 79.64 119.381 79.7467 119.381 79.96V90.68C119.381 90.8933 119.274 91 119.061 91H118.645ZM127.506 89.128C127.581 89.0533 127.661 89.016 127.746 89.016C127.821 89.016 127.89 89.048 127.954 89.112L128.162 89.304C128.237 89.3787 128.274 89.4587 128.274 89.544C128.274 89.608 128.242 89.6827 128.178 89.768C127.655 90.2907 127.149 90.664 126.658 90.888C126.167 91.1013 125.618 91.208 125.01 91.208C124.242 91.208 123.575 91.0373 123.01 90.696C122.445 90.3547 122.007 89.88 121.698 89.272C121.389 88.6533 121.234 87.9387 121.234 87.128C121.234 86.3067 121.383 85.5813 121.682 84.952C121.991 84.312 122.423 83.816 122.978 83.464C123.533 83.1013 124.173 82.92 124.898 82.92C125.975 82.92 126.823 83.256 127.442 83.928C128.061 84.6 128.37 85.5067 128.37 86.648V86.84C128.359 86.936 128.322 87.0107 128.258 87.064C128.205 87.1173 128.13 87.144 128.034 87.144H122.306C122.338 88.04 122.573 88.7973 123.01 89.416C123.458 90.024 124.125 90.328 125.01 90.328C125.49 90.328 125.911 90.2427 126.274 90.072C126.647 89.8907 127.058 89.576 127.506 89.128ZM124.898 83.8C124.194 83.8 123.613 84.0187 123.154 84.456C122.706 84.8827 122.434 85.512 122.338 86.344H127.314C127.293 85.5653 127.069 84.9467 126.642 84.488C126.215 84.0293 125.634 83.8 124.898 83.8ZM134.286 91C134.072 91 133.966 90.8933 133.966 90.68V79.96C133.966 79.7467 134.072 79.64 134.286 79.64H134.702C134.915 79.64 135.022 79.7467 135.022 79.96V90.68C135.022 90.8933 134.915 91 134.702 91H134.286ZM140.667 91.208C139.931 91.208 139.275 91.032 138.699 90.68C138.123 90.328 137.675 89.8427 137.355 89.224C137.035 88.5947 136.875 87.8747 136.875 87.064C136.875 86.2533 137.035 85.5387 137.355 84.92C137.675 84.2907 138.123 83.8 138.699 83.448C139.275 83.096 139.931 82.92 140.667 82.92C141.403 82.92 142.059 83.096 142.635 83.448C143.211 83.8 143.659 84.2907 143.979 84.92C144.299 85.5387 144.459 86.2533 144.459 87.064C144.459 87.8747 144.299 88.5947 143.979 89.224C143.659 89.8427 143.211 90.328 142.635 90.68C142.059 91.032 141.403 91.208 140.667 91.208ZM140.667 90.328C141.488 90.328 142.144 90.0293 142.635 89.432C143.125 88.824 143.371 88.0347 143.371 87.064C143.371 86.0933 143.125 85.3093 142.635 84.712C142.144 84.104 141.488 83.8 140.667 83.8C139.845 83.8 139.189 84.104 138.699 84.712C138.208 85.3093 137.963 86.0933 137.963 87.064C137.963 88.0347 138.208 88.824 138.699 89.432C139.189 90.0293 139.845 90.328 140.667 90.328ZM149.813 82.92C150.741 82.92 151.44 83.176 151.909 83.688C152.389 84.2 152.629 84.84 152.629 85.608V90.68C152.629 90.8933 152.523 91 152.309 91H151.893C151.68 91 151.573 90.8933 151.573 90.68V85.96C151.573 85.256 151.403 84.7227 151.061 84.36C150.72 83.9973 150.229 83.816 149.589 83.816C149.184 83.816 148.811 83.9173 148.469 84.12C148.128 84.312 147.856 84.5787 147.653 84.92C147.451 85.2613 147.349 85.6347 147.349 86.04V90.68C147.349 90.8933 147.243 91 147.029 91H146.613C146.4 91 146.293 90.8933 146.293 90.68V83.432C146.293 83.2187 146.4 83.112 146.613 83.112H146.965C147.179 83.112 147.285 83.2187 147.285 83.432V84.2C147.552 83.7733 147.904 83.4533 148.341 83.24C148.779 83.0267 149.269 82.92 149.813 82.92ZM160.629 83.432C160.629 83.2187 160.736 83.112 160.949 83.112H161.285C161.499 83.112 161.605 83.2187 161.605 83.432V90.92C161.605 91.912 161.307 92.6907 160.709 93.256C160.112 93.832 159.275 94.12 158.197 94.12C157.035 94.12 155.963 93.7893 154.981 93.128C154.875 93.064 154.821 92.984 154.821 92.888C154.821 92.8133 154.843 92.7493 154.885 92.696L155.077 92.424C155.141 92.3173 155.227 92.264 155.333 92.264C155.376 92.264 155.44 92.2853 155.525 92.328C155.995 92.6267 156.432 92.8507 156.837 93C157.253 93.1493 157.707 93.224 158.197 93.224C158.901 93.224 159.472 93.0267 159.909 92.632C160.347 92.248 160.565 91.6507 160.565 90.84V89.56C159.989 90.488 159.115 90.952 157.941 90.952C157.259 90.952 156.656 90.7813 156.133 90.44C155.611 90.088 155.205 89.608 154.917 89C154.64 88.392 154.501 87.704 154.501 86.936C154.501 86.168 154.64 85.48 154.917 84.872C155.205 84.264 155.611 83.7893 156.133 83.448C156.656 83.096 157.259 82.92 157.941 82.92C158.56 82.92 159.093 83.0533 159.541 83.32C160 83.576 160.363 83.944 160.629 84.424V83.432ZM158.053 90.056C158.821 90.056 159.435 89.768 159.893 89.192C160.352 88.6053 160.581 87.8533 160.581 86.936C160.581 86.0187 160.352 85.272 159.893 84.696C159.435 84.1093 158.821 83.816 158.053 83.816C157.275 83.816 156.667 84.104 156.229 84.68C155.803 85.256 155.589 86.008 155.589 86.936C155.589 87.864 155.803 88.616 156.229 89.192C156.667 89.768 157.275 90.056 158.053 90.056ZM173.412 89.128C173.487 89.0533 173.567 89.016 173.652 89.016C173.727 89.016 173.796 89.048 173.86 89.112L174.068 89.304C174.143 89.3787 174.18 89.4587 174.18 89.544C174.18 89.608 174.148 89.6827 174.084 89.768C173.562 90.2907 173.055 90.664 172.564 90.888C172.074 91.1013 171.524 91.208 170.916 91.208C170.148 91.208 169.482 91.0373 168.916 90.696C168.351 90.3547 167.914 89.88 167.604 89.272C167.295 88.6533 167.14 87.9387 167.14 87.128C167.14 86.3067 167.29 85.5813 167.588 84.952C167.898 84.312 168.33 83.816 168.884 83.464C169.439 83.1013 170.079 82.92 170.804 82.92C171.882 82.92 172.73 83.256 173.348 83.928C173.967 84.6 174.276 85.5067 174.276 86.648V86.84C174.266 86.936 174.228 87.0107 174.164 87.064C174.111 87.1173 174.036 87.144 173.94 87.144H168.212C168.244 88.04 168.479 88.7973 168.916 89.416C169.364 90.024 170.031 90.328 170.916 90.328C171.396 90.328 171.818 90.2427 172.18 90.072C172.554 89.8907 172.964 89.576 173.412 89.128ZM170.804 83.8C170.1 83.8 169.519 84.0187 169.06 84.456C168.612 84.8827 168.34 85.512 168.244 86.344H173.22C173.199 85.5653 172.975 84.9467 172.548 84.488C172.122 84.0293 171.54 83.8 170.804 83.8ZM179.688 82.92C180.616 82.92 181.315 83.176 181.784 83.688C182.264 84.2 182.504 84.84 182.504 85.608V90.68C182.504 90.8933 182.398 91 182.184 91H181.768C181.555 91 181.448 90.8933 181.448 90.68V85.96C181.448 85.256 181.278 84.7227 180.936 84.36C180.595 83.9973 180.104 83.816 179.464 83.816C179.059 83.816 178.686 83.9173 178.344 84.12C178.003 84.312 177.731 84.5787 177.528 84.92C177.326 85.2613 177.224 85.6347 177.224 86.04V90.68C177.224 90.8933 177.118 91 176.904 91H176.488C176.275 91 176.168 90.8933 176.168 90.68V83.432C176.168 83.2187 176.275 83.112 176.488 83.112H176.84C177.054 83.112 177.16 83.2187 177.16 83.432V84.2C177.427 83.7733 177.779 83.4533 178.216 83.24C178.654 83.0267 179.144 82.92 179.688 82.92ZM188.104 91.208C187.368 91.208 186.712 91.032 186.136 90.68C185.56 90.328 185.112 89.8427 184.792 89.224C184.472 88.5947 184.312 87.8747 184.312 87.064C184.312 86.2533 184.472 85.5387 184.792 84.92C185.112 84.2907 185.56 83.8 186.136 83.448C186.712 83.096 187.368 82.92 188.104 82.92C188.84 82.92 189.496 83.096 190.072 83.448C190.648 83.8 191.096 84.2907 191.416 84.92C191.736 85.5387 191.896 86.2533 191.896 87.064C191.896 87.8747 191.736 88.5947 191.416 89.224C191.096 89.8427 190.648 90.328 190.072 90.68C189.496 91.032 188.84 91.208 188.104 91.208ZM188.104 90.328C188.926 90.328 189.582 90.0293 190.072 89.432C190.563 88.824 190.808 88.0347 190.808 87.064C190.808 86.0933 190.563 85.3093 190.072 84.712C189.582 84.104 188.926 83.8 188.104 83.8C187.283 83.8 186.627 84.104 186.136 84.712C185.646 85.3093 185.4 86.0933 185.4 87.064C185.4 88.0347 185.646 88.824 186.136 89.432C186.627 90.0293 187.283 90.328 188.104 90.328ZM198.851 83.432C198.851 83.2187 198.958 83.112 199.171 83.112H199.587C199.8 83.112 199.907 83.2187 199.907 83.432V90.68C199.907 90.8933 199.8 91 199.587 91H199.251C199.038 91 198.931 90.8933 198.931 90.68V89.96C198.696 90.376 198.36 90.6907 197.923 90.904C197.496 91.1067 197.027 91.208 196.515 91.208C195.555 91.208 194.846 90.968 194.387 90.488C193.928 89.9973 193.699 89.368 193.699 88.6V83.432C193.699 83.2187 193.806 83.112 194.019 83.112H194.435C194.648 83.112 194.755 83.2187 194.755 83.432V88.376C194.755 89.0053 194.91 89.4853 195.219 89.816C195.539 90.136 195.992 90.296 196.579 90.296C197.24 90.296 197.784 90.0933 198.211 89.688C198.638 89.2827 198.851 88.7067 198.851 87.96V83.432ZM207.942 83.432C207.942 83.2187 208.048 83.112 208.262 83.112H208.598C208.811 83.112 208.918 83.2187 208.918 83.432V90.92C208.918 91.912 208.619 92.6907 208.022 93.256C207.424 93.832 206.587 94.12 205.51 94.12C204.347 94.12 203.275 93.7893 202.294 93.128C202.187 93.064 202.134 92.984 202.134 92.888C202.134 92.8133 202.155 92.7493 202.198 92.696L202.39 92.424C202.454 92.3173 202.539 92.264 202.646 92.264C202.688 92.264 202.752 92.2853 202.838 92.328C203.307 92.6267 203.744 92.8507 204.15 93C204.566 93.1493 205.019 93.224 205.51 93.224C206.214 93.224 206.784 93.0267 207.222 92.632C207.659 92.248 207.878 91.6507 207.878 90.84V89.56C207.302 90.488 206.427 90.952 205.254 90.952C204.571 90.952 203.968 90.7813 203.446 90.44C202.923 90.088 202.518 89.608 202.23 89C201.952 88.392 201.814 87.704 201.814 86.936C201.814 86.168 201.952 85.48 202.23 84.872C202.518 84.264 202.923 83.7893 203.446 83.448C203.968 83.096 204.571 82.92 205.254 82.92C205.872 82.92 206.406 83.0533 206.854 83.32C207.312 83.576 207.675 83.944 207.942 84.424V83.432ZM205.366 90.056C206.134 90.056 206.747 89.768 207.206 89.192C207.664 88.6053 207.894 87.8533 207.894 86.936C207.894 86.0187 207.664 85.272 207.206 84.696C206.747 84.1093 206.134 83.816 205.366 83.816C204.587 83.816 203.979 84.104 203.542 84.68C203.115 85.256 202.902 86.008 202.902 86.936C202.902 87.864 203.115 88.616 203.542 89.192C203.979 89.768 204.587 90.056 205.366 90.056ZM214.813 82.92C215.731 82.92 216.429 83.1813 216.909 83.704C217.389 84.216 217.629 84.8507 217.629 85.608V90.68C217.629 90.8933 217.523 91 217.309 91H216.893C216.68 91 216.573 90.8933 216.573 90.68V85.96C216.573 85.256 216.403 84.7227 216.061 84.36C215.72 83.9973 215.229 83.816 214.589 83.816C214.184 83.816 213.811 83.9173 213.469 84.12C213.128 84.312 212.856 84.5787 212.653 84.92C212.451 85.2613 212.349 85.6347 212.349 86.04V90.68C212.349 90.8933 212.243 91 212.029 91H211.613C211.4 91 211.293 90.8933 211.293 90.68V79.96C211.293 79.7467 211.4 79.64 211.613 79.64H212.029C212.243 79.64 212.349 79.7467 212.349 79.96V84.136C212.605 83.7307 212.947 83.4267 213.373 83.224C213.811 83.0213 214.291 82.92 214.813 82.92ZM227.205 90.12C227.237 90.1093 227.279 90.104 227.333 90.104C227.397 90.104 227.455 90.1253 227.509 90.168C227.562 90.2107 227.594 90.2693 227.605 90.344L227.653 90.568C227.663 90.5893 227.669 90.6267 227.669 90.68C227.669 90.8293 227.589 90.92 227.429 90.952C227.045 91.0693 226.634 91.128 226.197 91.128C225.503 91.128 225.007 90.9733 224.709 90.664C224.421 90.344 224.277 89.8853 224.277 89.288V83.912H223.093C222.879 83.912 222.773 83.8053 222.773 83.592V83.432C222.773 83.2187 222.879 83.112 223.093 83.112H224.277V80.68C224.277 80.4667 224.383 80.36 224.597 80.36H225.013C225.226 80.36 225.333 80.4667 225.333 80.68V83.112H227.253C227.466 83.112 227.573 83.2187 227.573 83.432V83.592C227.573 83.8053 227.466 83.912 227.253 83.912H225.333V89.16C225.333 89.5547 225.407 89.832 225.557 89.992C225.706 90.152 225.962 90.232 226.325 90.232C226.581 90.232 226.874 90.1947 227.205 90.12ZM232.151 91.208C231.415 91.208 230.759 91.032 230.183 90.68C229.607 90.328 229.159 89.8427 228.839 89.224C228.519 88.5947 228.359 87.8747 228.359 87.064C228.359 86.2533 228.519 85.5387 228.839 84.92C229.159 84.2907 229.607 83.8 230.183 83.448C230.759 83.096 231.415 82.92 232.151 82.92C232.887 82.92 233.543 83.096 234.119 83.448C234.695 83.8 235.143 84.2907 235.463 84.92C235.783 85.5387 235.943 86.2533 235.943 87.064C235.943 87.8747 235.783 88.5947 235.463 89.224C235.143 89.8427 234.695 90.328 234.119 90.68C233.543 91.032 232.887 91.208 232.151 91.208ZM232.151 90.328C232.972 90.328 233.628 90.0293 234.119 89.432C234.61 88.824 234.855 88.0347 234.855 87.064C234.855 86.0933 234.61 85.3093 234.119 84.712C233.628 84.104 232.972 83.8 232.151 83.8C231.33 83.8 230.674 84.104 230.183 84.712C229.692 85.3093 229.447 86.0933 229.447 87.064C229.447 88.0347 229.692 88.824 230.183 89.432C230.674 90.0293 231.33 90.328 232.151 90.328ZM250.265 83.384C250.308 83.2027 250.431 83.112 250.633 83.112H251.065C251.183 83.112 251.263 83.144 251.305 83.208C251.359 83.272 251.369 83.3573 251.337 83.464L249.273 90.728C249.231 90.9093 249.108 91 248.905 91H248.185C248.004 91 247.887 90.9093 247.833 90.728L247.097 88.28C246.713 87 246.356 85.688 246.025 84.344C245.705 85.6453 245.353 86.968 244.969 88.312L244.265 90.728C244.223 90.9093 244.1 91 243.897 91H243.209C243.007 91 242.884 90.9093 242.841 90.728L240.777 83.464C240.767 83.4427 240.761 83.4053 240.761 83.352C240.761 83.2773 240.788 83.2187 240.841 83.176C240.895 83.1333 240.964 83.112 241.049 83.112H241.481C241.684 83.112 241.807 83.2027 241.849 83.384L242.617 86.216C242.969 87.5067 243.295 88.792 243.593 90.072C243.828 89.1227 244.175 87.8373 244.633 86.216L245.449 83.384C245.492 83.2027 245.615 83.112 245.817 83.112H246.297C246.489 83.112 246.607 83.2027 246.649 83.384L247.481 86.216C247.844 87.528 248.185 88.8187 248.505 90.088C248.751 89.0213 249.081 87.7307 249.497 86.216L250.265 83.384ZM255.956 83.048C256.223 83.048 256.537 83.0907 256.9 83.176C257.092 83.24 257.167 83.3733 257.124 83.576L257.06 83.832C257.007 84.0347 256.873 84.1093 256.66 84.056C256.404 83.992 256.169 83.96 255.956 83.96C255.412 83.96 254.959 84.1947 254.596 84.664C254.244 85.1333 254.068 85.784 254.068 86.616V90.68C254.068 90.8933 253.961 91 253.748 91H253.332C253.119 91 253.012 90.8933 253.012 90.68V83.432C253.012 83.2187 253.119 83.112 253.332 83.112H253.684C253.897 83.112 254.004 83.2187 254.004 83.432V84.312C254.185 83.9173 254.441 83.608 254.772 83.384C255.113 83.16 255.508 83.048 255.956 83.048ZM261.396 82.92C262.367 82.92 263.124 83.1547 263.668 83.624C264.212 84.0827 264.484 84.6907 264.484 85.448V90.68C264.484 90.8933 264.377 91 264.164 91H263.844C263.631 91 263.524 90.8933 263.524 90.68V89.96C263.257 90.3867 262.879 90.7067 262.388 90.92C261.908 91.1333 261.369 91.24 260.772 91.24C259.94 91.24 259.263 91.064 258.74 90.712C258.217 90.36 257.956 89.816 257.956 89.08C257.956 88.4933 258.121 88.024 258.452 87.672C258.783 87.3093 259.215 87.0373 259.748 86.856C260.281 86.664 260.948 86.4933 261.748 86.344L263.476 86.04V85.528C263.476 84.984 263.289 84.5627 262.916 84.264C262.543 83.9547 262.052 83.8 261.444 83.8C260.985 83.8 260.569 83.8853 260.196 84.056C259.823 84.2267 259.423 84.52 258.996 84.936C258.921 85.0107 258.841 85.048 258.756 85.048C258.681 85.048 258.612 85.016 258.548 84.952L258.34 84.76C258.265 84.6853 258.228 84.6053 258.228 84.52C258.228 84.424 258.265 84.3387 258.34 84.264C258.788 83.7947 259.257 83.4533 259.748 83.24C260.249 83.0267 260.799 82.92 261.396 82.92ZM260.82 90.36C261.588 90.36 262.223 90.1573 262.724 89.752C263.225 89.3467 263.476 88.8293 263.476 88.2V86.856L261.988 87.144C261.295 87.2827 260.745 87.416 260.34 87.544C259.935 87.672 259.609 87.8587 259.364 88.104C259.119 88.3493 258.996 88.6693 258.996 89.064C258.996 89.4693 259.156 89.7893 259.476 90.024C259.807 90.248 260.255 90.36 260.82 90.36ZM270.601 82.936C271.262 82.936 271.854 83.112 272.377 83.464C272.91 83.8053 273.326 84.2907 273.625 84.92C273.923 85.5387 274.073 86.248 274.073 87.048C274.073 87.8587 273.923 88.5787 273.625 89.208C273.326 89.8373 272.915 90.328 272.393 90.68C271.87 91.0213 271.273 91.192 270.601 91.192C269.363 91.192 268.457 90.7387 267.881 89.832V93.624C267.881 93.8373 267.774 93.944 267.561 93.944H267.145C266.931 93.944 266.825 93.8373 266.825 93.624V83.432C266.825 83.2187 266.931 83.112 267.145 83.112H267.497C267.71 83.112 267.817 83.2187 267.817 83.432V84.44C268.105 83.9493 268.483 83.576 268.953 83.32C269.422 83.064 269.971 82.936 270.601 82.936ZM270.521 90.296C271.267 90.296 271.865 89.9973 272.313 89.4C272.761 88.8027 272.985 88.0187 272.985 87.048C272.985 86.088 272.761 85.3147 272.313 84.728C271.865 84.1307 271.267 83.832 270.521 83.832C269.721 83.832 269.07 84.12 268.569 84.696C268.078 85.2613 267.833 86.0453 267.833 87.048C267.833 88.0507 268.083 88.8453 268.585 89.432C269.086 90.008 269.731 90.296 270.521 90.296ZM52.224 104.92C53.1947 104.92 53.952 105.155 54.496 105.624C55.04 106.083 55.312 106.691 55.312 107.448V112.68C55.312 112.893 55.2053 113 54.992 113H54.672C54.4587 113 54.352 112.893 54.352 112.68V111.96C54.0853 112.387 53.7067 112.707 53.216 112.92C52.736 113.133 52.1973 113.24 51.6 113.24C50.768 113.24 50.0907 113.064 49.568 112.712C49.0453 112.36 48.784 111.816 48.784 111.08C48.784 110.493 48.9493 110.024 49.28 109.672C49.6107 109.309 50.0427 109.037 50.576 108.856C51.1093 108.664 51.776 108.493 52.576 108.344L54.304 108.04V107.528C54.304 106.984 54.1173 106.563 53.744 106.264C53.3707 105.955 52.88 105.8 52.272 105.8C51.8133 105.8 51.3973 105.885 51.024 106.056C50.6507 106.227 50.2507 106.52 49.824 106.936C49.7493 107.011 49.6693 107.048 49.584 107.048C49.5093 107.048 49.44 107.016 49.376 106.952L49.168 106.76C49.0933 106.685 49.056 106.605 49.056 106.52C49.056 106.424 49.0933 106.339 49.168 106.264C49.616 105.795 50.0853 105.453 50.576 105.24C51.0773 105.027 51.6267 104.92 52.224 104.92ZM51.648 112.36C52.416 112.36 53.0507 112.157 53.552 111.752C54.0533 111.347 54.304 110.829 54.304 110.2V108.856L52.816 109.144C52.1227 109.283 51.5733 109.416 51.168 109.544C50.7627 109.672 50.4373 109.859 50.192 110.104C49.9467 110.349 49.824 110.669 49.824 111.064C49.824 111.469 49.984 111.789 50.304 112.024C50.6347 112.248 51.0827 112.36 51.648 112.36ZM60.8528 113.208C60.0954 113.208 59.4341 113.037 58.8688 112.696C58.3141 112.344 57.8821 111.859 57.5728 111.24C57.2741 110.611 57.1248 109.885 57.1248 109.064C57.1248 108.253 57.2741 107.533 57.5728 106.904C57.8821 106.275 58.3141 105.789 58.8688 105.448C59.4341 105.096 60.0848 104.92 60.8208 104.92C61.4181 104.92 61.9408 105.021 62.3888 105.224C62.8368 105.416 63.2688 105.736 63.6848 106.184C63.7488 106.248 63.7808 106.317 63.7808 106.392C63.7808 106.488 63.7381 106.568 63.6528 106.632L63.4288 106.84C63.3648 106.904 63.2901 106.936 63.2048 106.936C63.1301 106.936 63.0501 106.893 62.9648 106.808C62.5914 106.435 62.2341 106.173 61.8928 106.024C61.5621 105.875 61.1941 105.8 60.7888 105.8C60.2341 105.8 59.7594 105.955 59.3648 106.264C58.9808 106.573 58.6928 106.979 58.5008 107.48C58.3088 107.971 58.2128 108.499 58.2128 109.064C58.2128 109.629 58.3088 110.163 58.5008 110.664C58.6928 111.155 58.9861 111.555 59.3808 111.864C59.7754 112.163 60.2608 112.312 60.8368 112.312C61.2634 112.312 61.6368 112.237 61.9568 112.088C62.2874 111.928 62.6554 111.629 63.0608 111.192C63.1461 111.107 63.2261 111.064 63.3008 111.064C63.3861 111.064 63.4608 111.096 63.5248 111.16L63.7488 111.336C63.8234 111.4 63.8608 111.475 63.8608 111.56C63.8608 111.645 63.8128 111.747 63.7168 111.864C63.2688 112.355 62.8208 112.701 62.3728 112.904C61.9248 113.107 61.4181 113.208 60.8528 113.208ZM68.5186 105.048C68.7853 105.048 69.1 105.091 69.4626 105.176C69.6546 105.24 69.7293 105.373 69.6866 105.576L69.6226 105.832C69.5693 106.035 69.436 106.109 69.2226 106.056C68.9666 105.992 68.732 105.96 68.5186 105.96C67.9746 105.96 67.5213 106.195 67.1586 106.664C66.8066 107.133 66.6306 107.784 66.6306 108.616V112.68C66.6306 112.893 66.524 113 66.3106 113H65.8946C65.6813 113 65.5746 112.893 65.5746 112.68V105.432C65.5746 105.219 65.6813 105.112 65.8946 105.112H66.2466C66.46 105.112 66.5666 105.219 66.5666 105.432V106.312C66.748 105.917 67.004 105.608 67.3346 105.384C67.676 105.16 68.0706 105.048 68.5186 105.048ZM73.948 113.208C73.212 113.208 72.556 113.032 71.98 112.68C71.404 112.328 70.956 111.843 70.636 111.224C70.316 110.595 70.156 109.875 70.156 109.064C70.156 108.253 70.316 107.539 70.636 106.92C70.956 106.291 71.404 105.8 71.98 105.448C72.556 105.096 73.212 104.92 73.948 104.92C74.684 104.92 75.34 105.096 75.916 105.448C76.492 105.8 76.94 106.291 77.26 106.92C77.58 107.539 77.74 108.253 77.74 109.064C77.74 109.875 77.58 110.595 77.26 111.224C76.94 111.843 76.492 112.328 75.916 112.68C75.34 113.032 74.684 113.208 73.948 113.208ZM73.948 112.328C74.7693 112.328 75.4253 112.029 75.916 111.432C76.4067 110.824 76.652 110.035 76.652 109.064C76.652 108.093 76.4067 107.309 75.916 106.712C75.4253 106.104 74.7693 105.8 73.948 105.8C73.1267 105.8 72.4707 106.104 71.98 106.712C71.4893 107.309 71.244 108.093 71.244 109.064C71.244 110.035 71.4893 110.824 71.98 111.432C72.4707 112.029 73.1267 112.328 73.948 112.328ZM82.3266 113.208C81.676 113.208 81.1 113.117 80.5986 112.936C80.108 112.744 79.5906 112.424 79.0466 111.976C78.9506 111.912 78.9026 111.837 78.9026 111.752C78.9026 111.677 78.94 111.603 79.0146 111.528L79.2226 111.304C79.2866 111.219 79.3666 111.176 79.4626 111.176C79.5373 111.176 79.6066 111.208 79.6706 111.272C80.1826 111.667 80.636 111.944 81.0306 112.104C81.4253 112.253 81.8573 112.328 82.3266 112.328C82.9133 112.328 83.3933 112.2 83.7666 111.944C84.14 111.677 84.3266 111.32 84.3266 110.872C84.3266 110.424 84.1346 110.093 83.7506 109.88C83.3666 109.667 82.7746 109.475 81.9746 109.304C81.2706 109.155 80.716 109 80.3106 108.84C79.916 108.669 79.6226 108.456 79.4306 108.2C79.2386 107.944 79.1426 107.608 79.1426 107.192C79.1426 106.509 79.42 105.96 79.9746 105.544C80.5293 105.128 81.228 104.92 82.0706 104.92C82.6466 104.92 83.1586 104.995 83.6066 105.144C84.0653 105.283 84.524 105.517 84.9826 105.848C85.0786 105.923 85.1266 106.003 85.1266 106.088C85.1266 106.141 85.1 106.211 85.0466 106.296L84.8546 106.536C84.8013 106.621 84.7266 106.664 84.6306 106.664C84.5453 106.664 84.4706 106.637 84.4066 106.584C83.9693 106.275 83.58 106.067 83.2386 105.96C82.908 105.853 82.5293 105.8 82.1026 105.8C81.516 105.8 81.0466 105.928 80.6946 106.184C80.3426 106.44 80.1666 106.765 80.1666 107.16C80.1666 107.405 80.2466 107.603 80.4066 107.752C80.5666 107.901 80.796 108.029 81.0946 108.136C81.3933 108.232 81.8306 108.344 82.4066 108.472C83.4733 108.707 84.2306 108.995 84.6786 109.336C85.1373 109.677 85.3666 110.173 85.3666 110.824C85.3666 111.539 85.084 112.115 84.5186 112.552C83.9533 112.989 83.2226 113.208 82.3266 113.208ZM89.9048 113.208C89.2541 113.208 88.6781 113.117 88.1768 112.936C87.6861 112.744 87.1688 112.424 86.6248 111.976C86.5288 111.912 86.4808 111.837 86.4808 111.752C86.4808 111.677 86.5181 111.603 86.5928 111.528L86.8008 111.304C86.8648 111.219 86.9448 111.176 87.0408 111.176C87.1154 111.176 87.1848 111.208 87.2488 111.272C87.7608 111.667 88.2141 111.944 88.6088 112.104C89.0034 112.253 89.4354 112.328 89.9048 112.328C90.4914 112.328 90.9714 112.2 91.3448 111.944C91.7181 111.677 91.9048 111.32 91.9048 110.872C91.9048 110.424 91.7128 110.093 91.3288 109.88C90.9448 109.667 90.3528 109.475 89.5528 109.304C88.8488 109.155 88.2941 109 87.8888 108.84C87.4941 108.669 87.2008 108.456 87.0088 108.2C86.8168 107.944 86.7208 107.608 86.7208 107.192C86.7208 106.509 86.9981 105.96 87.5528 105.544C88.1074 105.128 88.8061 104.92 89.6488 104.92C90.2248 104.92 90.7368 104.995 91.1848 105.144C91.6434 105.283 92.1021 105.517 92.5608 105.848C92.6568 105.923 92.7048 106.003 92.7048 106.088C92.7048 106.141 92.6781 106.211 92.6248 106.296L92.4328 106.536C92.3794 106.621 92.3048 106.664 92.2088 106.664C92.1234 106.664 92.0488 106.637 91.9848 106.584C91.5474 106.275 91.1581 106.067 90.8168 105.96C90.4861 105.853 90.1074 105.8 89.6808 105.8C89.0941 105.8 88.6248 105.928 88.2728 106.184C87.9208 106.44 87.7448 106.765 87.7448 107.16C87.7448 107.405 87.8248 107.603 87.9848 107.752C88.1448 107.901 88.3741 108.029 88.6728 108.136C88.9714 108.232 89.4088 108.344 89.9848 108.472C91.0514 108.707 91.8088 108.995 92.2568 109.336C92.7154 109.677 92.9448 110.173 92.9448 110.824C92.9448 111.539 92.6621 112.115 92.0968 112.552C91.5314 112.989 90.8008 113.208 89.9048 113.208ZM101.97 112.12C102.002 112.109 102.045 112.104 102.098 112.104C102.162 112.104 102.221 112.125 102.274 112.168C102.328 112.211 102.36 112.269 102.37 112.344L102.418 112.568C102.429 112.589 102.434 112.627 102.434 112.68C102.434 112.829 102.354 112.92 102.194 112.952C101.81 113.069 101.4 113.128 100.962 113.128C100.269 113.128 99.773 112.973 99.4744 112.664C99.1864 112.344 99.0424 111.885 99.0424 111.288V105.912H97.8584C97.645 105.912 97.5384 105.805 97.5384 105.592V105.432C97.5384 105.219 97.645 105.112 97.8584 105.112H99.0424V102.68C99.0424 102.467 99.149 102.36 99.3624 102.36H99.7784C99.9917 102.36 100.098 102.467 100.098 102.68V105.112H102.018C102.232 105.112 102.338 105.219 102.338 105.432V105.592C102.338 105.805 102.232 105.912 102.018 105.912H100.098V111.16C100.098 111.555 100.173 111.832 100.322 111.992C100.472 112.152 100.728 112.232 101.09 112.232C101.346 112.232 101.64 112.195 101.97 112.12ZM112.812 105.384C112.855 105.203 112.977 105.112 113.18 105.112H113.612C113.729 105.112 113.809 105.144 113.852 105.208C113.905 105.272 113.916 105.357 113.884 105.464L111.82 112.728C111.777 112.909 111.655 113 111.452 113H110.732C110.551 113 110.433 112.909 110.38 112.728L109.644 110.28C109.26 109 108.903 107.688 108.572 106.344C108.252 107.645 107.9 108.968 107.516 110.312L106.812 112.728C106.769 112.909 106.647 113 106.444 113H105.756C105.553 113 105.431 112.909 105.388 112.728L103.324 105.464C103.313 105.443 103.308 105.405 103.308 105.352C103.308 105.277 103.335 105.219 103.388 105.176C103.441 105.133 103.511 105.112 103.596 105.112H104.028C104.231 105.112 104.353 105.203 104.396 105.384L105.164 108.216C105.516 109.507 105.841 110.792 106.14 112.072C106.375 111.123 106.721 109.837 107.18 108.216L107.996 105.384C108.039 105.203 108.161 105.112 108.364 105.112H108.844C109.036 105.112 109.153 105.203 109.196 105.384L110.028 108.216C110.391 109.528 110.732 110.819 111.052 112.088C111.297 111.021 111.628 109.731 112.044 108.216L112.812 105.384ZM118.698 113.208C117.962 113.208 117.306 113.032 116.73 112.68C116.154 112.328 115.706 111.843 115.386 111.224C115.066 110.595 114.906 109.875 114.906 109.064C114.906 108.253 115.066 107.539 115.386 106.92C115.706 106.291 116.154 105.8 116.73 105.448C117.306 105.096 117.962 104.92 118.698 104.92C119.434 104.92 120.09 105.096 120.666 105.448C121.242 105.8 121.69 106.291 122.01 106.92C122.33 107.539 122.49 108.253 122.49 109.064C122.49 109.875 122.33 110.595 122.01 111.224C121.69 111.843 121.242 112.328 120.666 112.68C120.09 113.032 119.434 113.208 118.698 113.208ZM118.698 112.328C119.519 112.328 120.175 112.029 120.666 111.432C121.157 110.824 121.402 110.035 121.402 109.064C121.402 108.093 121.157 107.309 120.666 106.712C120.175 106.104 119.519 105.8 118.698 105.8C117.877 105.8 117.221 106.104 116.73 106.712C116.239 107.309 115.994 108.093 115.994 109.064C115.994 110.035 116.239 110.824 116.73 111.432C117.221 112.029 117.877 112.328 118.698 112.328ZM128.348 113C128.135 113 128.028 112.893 128.028 112.68V101.96C128.028 101.747 128.135 101.64 128.348 101.64H128.764C128.977 101.64 129.084 101.747 129.084 101.96V112.68C129.084 112.893 128.977 113 128.764 113H128.348ZM131.993 103.112C131.78 103.112 131.599 103.037 131.449 102.888C131.311 102.739 131.241 102.557 131.241 102.344C131.241 102.131 131.311 101.955 131.449 101.816C131.599 101.677 131.78 101.608 131.993 101.608C132.217 101.608 132.399 101.677 132.537 101.816C132.687 101.955 132.761 102.131 132.761 102.344C132.761 102.557 132.687 102.739 132.537 102.888C132.399 103.037 132.217 103.112 131.993 103.112ZM131.785 113C131.572 113 131.465 112.893 131.465 112.68V105.432C131.465 105.219 131.572 105.112 131.785 105.112H132.201C132.415 105.112 132.521 105.219 132.521 105.432V112.68C132.521 112.893 132.415 113 132.201 113H131.785ZM138.391 104.92C139.32 104.92 140.018 105.176 140.488 105.688C140.968 106.2 141.208 106.84 141.208 107.608V112.68C141.208 112.893 141.101 113 140.888 113H140.472C140.258 113 140.152 112.893 140.152 112.68V107.96C140.152 107.256 139.981 106.723 139.64 106.36C139.298 105.997 138.808 105.816 138.168 105.816C137.762 105.816 137.389 105.917 137.048 106.12C136.706 106.312 136.434 106.579 136.232 106.92C136.029 107.261 135.928 107.635 135.928 108.04V112.68C135.928 112.893 135.821 113 135.608 113H135.192C134.978 113 134.872 112.893 134.872 112.68V105.432C134.872 105.219 134.978 105.112 135.192 105.112H135.544C135.757 105.112 135.864 105.219 135.864 105.432V106.2C136.13 105.773 136.482 105.453 136.92 105.24C137.357 105.027 137.848 104.92 138.391 104.92ZM149.287 111.128C149.362 111.053 149.442 111.016 149.527 111.016C149.602 111.016 149.671 111.048 149.735 111.112L149.943 111.304C150.018 111.379 150.055 111.459 150.055 111.544C150.055 111.608 150.023 111.683 149.959 111.768C149.437 112.291 148.93 112.664 148.439 112.888C147.949 113.101 147.399 113.208 146.791 113.208C146.023 113.208 145.357 113.037 144.791 112.696C144.226 112.355 143.789 111.88 143.479 111.272C143.17 110.653 143.015 109.939 143.015 109.128C143.015 108.307 143.165 107.581 143.463 106.952C143.773 106.312 144.205 105.816 144.759 105.464C145.314 105.101 145.954 104.92 146.679 104.92C147.757 104.92 148.605 105.256 149.223 105.928C149.842 106.6 150.151 107.507 150.151 108.648V108.84C150.141 108.936 150.103 109.011 150.039 109.064C149.986 109.117 149.911 109.144 149.815 109.144H144.087C144.119 110.04 144.354 110.797 144.791 111.416C145.239 112.024 145.906 112.328 146.791 112.328C147.271 112.328 147.693 112.243 148.055 112.072C148.429 111.891 148.839 111.576 149.287 111.128ZM146.679 105.8C145.975 105.8 145.394 106.019 144.935 106.456C144.487 106.883 144.215 107.512 144.119 108.344H149.095C149.074 107.565 148.85 106.947 148.423 106.488C147.997 106.029 147.415 105.8 146.679 105.8ZM154.858 113.208C154.207 113.208 153.631 113.117 153.13 112.936C152.639 112.744 152.122 112.424 151.578 111.976C151.482 111.912 151.434 111.837 151.434 111.752C151.434 111.677 151.471 111.603 151.546 111.528L151.754 111.304C151.818 111.219 151.898 111.176 151.994 111.176C152.069 111.176 152.138 111.208 152.202 111.272C152.714 111.667 153.167 111.944 153.562 112.104C153.957 112.253 154.389 112.328 154.858 112.328C155.445 112.328 155.925 112.2 156.298 111.944C156.671 111.677 156.858 111.32 156.858 110.872C156.858 110.424 156.666 110.093 156.282 109.88C155.898 109.667 155.306 109.475 154.506 109.304C153.802 109.155 153.247 109 152.842 108.84C152.447 108.669 152.154 108.456 151.962 108.2C151.77 107.944 151.674 107.608 151.674 107.192C151.674 106.509 151.951 105.96 152.506 105.544C153.061 105.128 153.759 104.92 154.602 104.92C155.178 104.92 155.69 104.995 156.138 105.144C156.597 105.283 157.055 105.517 157.514 105.848C157.61 105.923 157.658 106.003 157.658 106.088C157.658 106.141 157.631 106.211 157.578 106.296L157.386 106.536C157.333 106.621 157.258 106.664 157.162 106.664C157.077 106.664 157.002 106.637 156.938 106.584C156.501 106.275 156.111 106.067 155.77 105.96C155.439 105.853 155.061 105.8 154.634 105.8C154.047 105.8 153.578 105.928 153.226 106.184C152.874 106.44 152.698 106.765 152.698 107.16C152.698 107.405 152.778 107.603 152.938 107.752C153.098 107.901 153.327 108.029 153.626 108.136C153.925 108.232 154.362 108.344 154.938 108.472C156.005 108.707 156.762 108.995 157.21 109.336C157.669 109.677 157.898 110.173 157.898 110.824C157.898 111.539 157.615 112.115 157.05 112.552C156.485 112.989 155.754 113.208 154.858 113.208ZM160.116 113.112C159.892 113.112 159.7 113.032 159.54 112.872C159.38 112.712 159.3 112.52 159.3 112.296C159.3 112.072 159.38 111.88 159.54 111.72C159.7 111.56 159.892 111.48 160.116 111.48C160.34 111.48 160.532 111.56 160.692 111.72C160.852 111.88 160.932 112.072 160.932 112.296C160.932 112.52 160.852 112.712 160.692 112.872C160.532 113.032 160.34 113.112 160.116 113.112Z" fill="#1B1B1F"/>
<path d="M41.272 166C41.112 166 41.032 165.92 41.032 165.76V157.72C41.032 157.56 41.112 157.48 41.272 157.48H41.644C41.804 157.48 41.884 157.56 41.884 157.72V161.248H46.804V157.72C46.804 157.56 46.884 157.48 47.044 157.48H47.416C47.576 157.48 47.656 157.56 47.656 157.72V165.76C47.656 165.92 47.576 166 47.416 166H47.044C46.884 166 46.804 165.92 46.804 165.76V161.956H41.884V165.76C41.884 165.92 41.804 166 41.644 166H41.272ZM53.8796 164.596C53.9356 164.54 53.9956 164.512 54.0596 164.512C54.1156 164.512 54.1676 164.536 54.2156 164.584L54.3716 164.728C54.4276 164.784 54.4556 164.844 54.4556 164.908C54.4556 164.956 54.4316 165.012 54.3836 165.076C53.9916 165.468 53.6116 165.748 53.2436 165.916C52.8756 166.076 52.4636 166.156 52.0076 166.156C51.4316 166.156 50.9316 166.028 50.5076 165.772C50.0836 165.516 49.7556 165.16 49.5236 164.704C49.2916 164.24 49.1756 163.704 49.1756 163.096C49.1756 162.48 49.2876 161.936 49.5116 161.464C49.7436 160.984 50.0676 160.612 50.4836 160.348C50.8996 160.076 51.3796 159.94 51.9236 159.94C52.7316 159.94 53.3676 160.192 53.8316 160.696C54.2956 161.2 54.5276 161.88 54.5276 162.736V162.88C54.5196 162.952 54.4916 163.008 54.4436 163.048C54.4036 163.088 54.3476 163.108 54.2756 163.108H49.9796C50.0036 163.78 50.1796 164.348 50.5076 164.812C50.8436 165.268 51.3436 165.496 52.0076 165.496C52.3676 165.496 52.6836 165.432 52.9556 165.304C53.2356 165.168 53.5436 164.932 53.8796 164.596ZM51.9236 160.6C51.3956 160.6 50.9596 160.764 50.6156 161.092C50.2796 161.412 50.0756 161.884 50.0036 162.508H53.7356C53.7196 161.924 53.5516 161.46 53.2316 161.116C52.9116 160.772 52.4756 160.6 51.9236 160.6ZM56.1986 166C56.0386 166 55.9586 165.92 55.9586 165.76V157.72C55.9586 157.56 56.0386 157.48 56.1986 157.48H56.5106C56.6706 157.48 56.7506 157.56 56.7506 157.72V165.76C56.7506 165.92 56.6706 166 56.5106 166H56.1986ZM61.3684 159.952C61.8644 159.952 62.3084 160.084 62.7004 160.348C63.1004 160.604 63.4124 160.968 63.6364 161.44C63.8604 161.904 63.9724 162.436 63.9724 163.036C63.9724 163.644 63.8604 164.184 63.6364 164.656C63.4124 165.128 63.1044 165.496 62.7124 165.76C62.3204 166.016 61.8724 166.144 61.3684 166.144C60.4404 166.144 59.7604 165.804 59.3284 165.124V167.968C59.3284 168.128 59.2484 168.208 59.0884 168.208H58.7764C58.6164 168.208 58.5364 168.128 58.5364 167.968V160.324C58.5364 160.164 58.6164 160.084 58.7764 160.084H59.0404C59.2004 160.084 59.2804 160.164 59.2804 160.324V161.08C59.4964 160.712 59.7804 160.432 60.1324 160.24C60.4844 160.048 60.8964 159.952 61.3684 159.952ZM61.3084 165.472C61.8684 165.472 62.3164 165.248 62.6524 164.8C62.9884 164.352 63.1564 163.764 63.1564 163.036C63.1564 162.316 62.9884 161.736 62.6524 161.296C62.3164 160.848 61.8684 160.624 61.3084 160.624C60.7084 160.624 60.2204 160.84 59.8444 161.272C59.4764 161.696 59.2924 162.284 59.2924 163.036C59.2924 163.788 59.4804 164.384 59.8564 164.824C60.2324 165.256 60.7164 165.472 61.3084 165.472ZM70.8098 165.34C70.8338 165.332 70.8658 165.328 70.9058 165.328C70.9538 165.328 70.9978 165.344 71.0378 165.376C71.0778 165.408 71.1018 165.452 71.1098 165.508L71.1458 165.676C71.1538 165.692 71.1578 165.72 71.1578 165.76C71.1578 165.872 71.0978 165.94 70.9778 165.964C70.6898 166.052 70.3818 166.096 70.0538 166.096C69.5338 166.096 69.1618 165.98 68.9378 165.748C68.7218 165.508 68.6138 165.164 68.6138 164.716V160.684H67.7258C67.5658 160.684 67.4858 160.604 67.4858 160.444V160.324C67.4858 160.164 67.5658 160.084 67.7258 160.084H68.6138V158.26C68.6138 158.1 68.6938 158.02 68.8538 158.02H69.1658C69.3258 158.02 69.4058 158.1 69.4058 158.26V160.084H70.8458C71.0058 160.084 71.0858 160.164 71.0858 160.324V160.444C71.0858 160.604 71.0058 160.684 70.8458 160.684H69.4058V164.62C69.4058 164.916 69.4618 165.124 69.5738 165.244C69.6858 165.364 69.8778 165.424 70.1498 165.424C70.3418 165.424 70.5618 165.396 70.8098 165.34ZM76.3796 164.596C76.4356 164.54 76.4956 164.512 76.5596 164.512C76.6156 164.512 76.6676 164.536 76.7156 164.584L76.8716 164.728C76.9276 164.784 76.9556 164.844 76.9556 164.908C76.9556 164.956 76.9316 165.012 76.8836 165.076C76.4916 165.468 76.1116 165.748 75.7436 165.916C75.3756 166.076 74.9636 166.156 74.5076 166.156C73.9316 166.156 73.4316 166.028 73.0076 165.772C72.5836 165.516 72.2556 165.16 72.0236 164.704C71.7916 164.24 71.6756 163.704 71.6756 163.096C71.6756 162.48 71.7876 161.936 72.0116 161.464C72.2436 160.984 72.5676 160.612 72.9836 160.348C73.3996 160.076 73.8796 159.94 74.4236 159.94C75.2316 159.94 75.8676 160.192 76.3316 160.696C76.7956 161.2 77.0276 161.88 77.0276 162.736V162.88C77.0196 162.952 76.9916 163.008 76.9436 163.048C76.9036 163.088 76.8476 163.108 76.7756 163.108H72.4796C72.5036 163.78 72.6796 164.348 73.0076 164.812C73.3436 165.268 73.8436 165.496 74.5076 165.496C74.8676 165.496 75.1836 165.432 75.4556 165.304C75.7356 165.168 76.0436 164.932 76.3796 164.596ZM74.4236 160.6C73.8956 160.6 73.4596 160.764 73.1156 161.092C72.7796 161.412 72.5756 161.884 72.5036 162.508H76.2356C76.2196 161.924 76.0516 161.46 75.7316 161.116C75.4116 160.772 74.9756 160.6 74.4236 160.6ZM82.6383 165.712C82.6703 165.768 82.6863 165.816 82.6863 165.856C82.6863 165.952 82.6223 166 82.4943 166H82.1343C82.0143 166 81.9183 165.948 81.8463 165.844L80.2143 163.444L78.5943 165.844C78.5223 165.948 78.4263 166 78.3063 166H77.9703C77.9063 166 77.8543 165.988 77.8143 165.964C77.7823 165.932 77.7663 165.896 77.7663 165.856C77.7663 165.8 77.7823 165.752 77.8143 165.712L79.7583 162.916L77.9703 160.372C77.9383 160.332 77.9223 160.288 77.9223 160.24C77.9223 160.136 77.9903 160.084 78.1263 160.084H78.4743C78.5943 160.084 78.6903 160.136 78.7623 160.24L80.2263 162.388L81.6783 160.24C81.7503 160.136 81.8463 160.084 81.9663 160.084H82.2903C82.3543 160.084 82.4023 160.1 82.4343 160.132C82.4743 160.156 82.4943 160.188 82.4943 160.228C82.4943 160.284 82.4783 160.332 82.4463 160.372L80.6943 162.88L82.6383 165.712ZM86.6184 165.34C86.6424 165.332 86.6744 165.328 86.7144 165.328C86.7624 165.328 86.8064 165.344 86.8464 165.376C86.8864 165.408 86.9104 165.452 86.9184 165.508L86.9544 165.676C86.9624 165.692 86.9664 165.72 86.9664 165.76C86.9664 165.872 86.9064 165.94 86.7864 165.964C86.4984 166.052 86.1904 166.096 85.8624 166.096C85.3424 166.096 84.9704 165.98 84.7464 165.748C84.5304 165.508 84.4224 165.164 84.4224 164.716V160.684H83.5344C83.3744 160.684 83.2944 160.604 83.2944 160.444V160.324C83.2944 160.164 83.3744 160.084 83.5344 160.084H84.4224V158.26C84.4224 158.1 84.5024 158.02 84.6624 158.02H84.9744C85.1344 158.02 85.2144 158.1 85.2144 158.26V160.084H86.6544C86.8144 160.084 86.8944 160.164 86.8944 160.324V160.444C86.8944 160.604 86.8144 160.684 86.6544 160.684H85.2144V164.62C85.2144 164.916 85.2704 165.124 85.3824 165.244C85.4944 165.364 85.6864 165.424 85.9584 165.424C86.1504 165.424 86.3704 165.396 86.6184 165.34Z" fill="#5C5C66"/>
</svg>
