<svg width="332" height="140" viewBox="0 0 332 140" fill="none" xmlns="http://www.w3.org/2000/svg">
<rect width="332" height="140" fill="#F6F6F6"/>
<rect x="25" y="41" width="282" height="58" rx="7" fill="#EBFFF6"/>
<rect x="25" y="41" width="282" height="58" rx="7" stroke="#67EEB8" stroke-width="2"/>
<path d="M48.25 70.75L50.5 73L55.75 67.75M61 70C61 74.9706 56.9706 79 52 79C47.0294 79 43 74.9706 43 70C43 65.0294 47.0294 61 52 61C56.9706 61 61 65.0294 61 70Z" stroke="#059E6F" stroke-width="1.5" stroke-linecap="round" stroke-linejoin="round"/>
<path d="M75.934 75C75.7473 75 75.654 74.9067 75.654 74.72V65.886H72.728C72.5413 65.886 72.448 65.7927 72.448 65.606V65.34C72.448 65.1533 72.5413 65.06 72.728 65.06H79.56C79.7467 65.06 79.84 65.1533 79.84 65.34V65.606C79.84 65.7927 79.7467 65.886 79.56 65.886H76.648V74.72C76.648 74.9067 76.5547 75 76.368 75H75.934ZM82.6459 75.182C82.0019 75.182 81.4279 75.028 80.9239 74.72C80.4199 74.412 80.0279 73.9873 79.7479 73.446C79.4679 72.8953 79.3279 72.2653 79.3279 71.556C79.3279 70.8467 79.4679 70.2213 79.7479 69.68C80.0279 69.1293 80.4199 68.7 80.9239 68.392C81.4279 68.084 82.0019 67.93 82.6459 67.93C83.2899 67.93 83.8639 68.084 84.3679 68.392C84.8719 68.7 85.2639 69.1293 85.5439 69.68C85.8239 70.2213 85.9639 70.8467 85.9639 71.556C85.9639 72.2653 85.8239 72.8953 85.5439 73.446C85.2639 73.9873 84.8719 74.412 84.3679 74.72C83.8639 75.028 83.2899 75.182 82.6459 75.182ZM82.6459 74.412C83.3646 74.412 83.9386 74.1507 84.3679 73.628C84.7972 73.096 85.0119 72.4053 85.0119 71.556C85.0119 70.7067 84.7972 70.0207 84.3679 69.498C83.9386 68.966 83.3646 68.7 82.6459 68.7C81.9272 68.7 81.3532 68.966 80.9239 69.498C80.4946 70.0207 80.2799 70.7067 80.2799 71.556C80.2799 72.4053 80.4946 73.096 80.9239 73.628C81.3532 74.1507 81.9272 74.412 82.6459 74.412ZM90.2292 67.93C91.0785 67.93 91.7412 68.1353 92.2172 68.546C92.6932 68.9473 92.9312 69.4793 92.9312 70.142V74.72C92.9312 74.9067 92.8379 75 92.6512 75H92.3712C92.1845 75 92.0912 74.9067 92.0912 74.72V74.09C91.8579 74.4633 91.5265 74.7433 91.0972 74.93C90.6772 75.1167 90.2059 75.21 89.6832 75.21C88.9552 75.21 88.3625 75.056 87.9052 74.748C87.4479 74.44 87.2192 73.964 87.2192 73.32C87.2192 72.8067 87.3639 72.396 87.6532 72.088C87.9425 71.7707 88.3205 71.5327 88.7872 71.374C89.2539 71.206 89.8372 71.0567 90.5372 70.926L92.0492 70.66V70.212C92.0492 69.736 91.8859 69.3673 91.5592 69.106C91.2325 68.8353 90.8032 68.7 90.2712 68.7C89.8699 68.7 89.5059 68.7747 89.1792 68.924C88.8525 69.0733 88.5025 69.33 88.1292 69.694C88.0639 69.7593 87.9939 69.792 87.9192 69.792C87.8539 69.792 87.7932 69.764 87.7372 69.708L87.5552 69.54C87.4899 69.4747 87.4572 69.4047 87.4572 69.33C87.4572 69.246 87.4899 69.1713 87.5552 69.106C87.9472 68.6953 88.3579 68.3967 88.7872 68.21C89.2259 68.0233 89.7065 67.93 90.2292 67.93ZM89.7252 74.44C90.3972 74.44 90.9525 74.2627 91.3912 73.908C91.8299 73.5533 92.0492 73.1007 92.0492 72.55V71.374L90.7472 71.626C90.1405 71.7473 89.6599 71.864 89.3052 71.976C88.9505 72.088 88.6659 72.2513 88.4512 72.466C88.2365 72.6807 88.1292 72.9607 88.1292 73.306C88.1292 73.6607 88.2692 73.9407 88.5492 74.146C88.8385 74.342 89.2305 74.44 89.7252 74.44ZM97.3874 75.182C96.818 75.182 96.314 75.1027 95.8754 74.944C95.446 74.776 94.9934 74.496 94.5174 74.104C94.4334 74.048 94.3914 73.9827 94.3914 73.908C94.3914 73.8427 94.424 73.7773 94.4894 73.712L94.6714 73.516C94.7274 73.4413 94.7974 73.404 94.8814 73.404C94.9467 73.404 95.0074 73.432 95.0634 73.488C95.5114 73.8333 95.908 74.076 96.2534 74.216C96.5987 74.3467 96.9767 74.412 97.3874 74.412C97.9007 74.412 98.3207 74.3 98.6474 74.076C98.974 73.8427 99.1374 73.53 99.1374 73.138C99.1374 72.746 98.9694 72.4567 98.6334 72.27C98.2974 72.0833 97.7794 71.9153 97.0794 71.766C96.4634 71.6353 95.978 71.5 95.6234 71.36C95.278 71.2107 95.0214 71.024 94.8534 70.8C94.6854 70.576 94.6014 70.282 94.6014 69.918C94.6014 69.3207 94.844 68.84 95.3294 68.476C95.8147 68.112 96.426 67.93 97.1634 67.93C97.6674 67.93 98.1154 67.9953 98.5074 68.126C98.9087 68.2473 99.31 68.4527 99.7114 68.742C99.7954 68.8073 99.8374 68.8773 99.8374 68.952C99.8374 68.9987 99.814 69.0593 99.7674 69.134L99.5994 69.344C99.5527 69.4187 99.4874 69.456 99.4034 69.456C99.3287 69.456 99.2634 69.4327 99.2074 69.386C98.8247 69.1153 98.484 68.9333 98.1854 68.84C97.896 68.7467 97.5647 68.7 97.1914 68.7C96.678 68.7 96.2674 68.812 95.9594 69.036C95.6514 69.26 95.4974 69.5447 95.4974 69.89C95.4974 70.1047 95.5674 70.2773 95.7074 70.408C95.8474 70.5387 96.048 70.6507 96.3094 70.744C96.5707 70.828 96.9534 70.926 97.4574 71.038C98.3907 71.2433 99.0534 71.4953 99.4454 71.794C99.8467 72.0927 100.047 72.5267 100.047 73.096C100.047 73.7213 99.8 74.2253 99.3054 74.608C98.8107 74.9907 98.1714 75.182 97.3874 75.182ZM104.691 74.23C104.719 74.2207 104.756 74.216 104.803 74.216C104.859 74.216 104.91 74.2347 104.957 74.272C105.004 74.3093 105.032 74.3607 105.041 74.426L105.083 74.622C105.092 74.6407 105.097 74.6733 105.097 74.72C105.097 74.8507 105.027 74.93 104.887 74.958C104.551 75.0607 104.192 75.112 103.809 75.112C103.202 75.112 102.768 74.9767 102.507 74.706C102.255 74.426 102.129 74.0247 102.129 73.502V68.798H101.093C100.906 68.798 100.813 68.7047 100.813 68.518V68.378C100.813 68.1913 100.906 68.098 101.093 68.098H102.129V65.97C102.129 65.7833 102.222 65.69 102.409 65.69H102.773C102.96 65.69 103.053 65.7833 103.053 65.97V68.098H104.733C104.92 68.098 105.013 68.1913 105.013 68.378V68.518C105.013 68.7047 104.92 68.798 104.733 68.798H103.053V73.39C103.053 73.7353 103.118 73.978 103.249 74.118C103.38 74.258 103.604 74.328 103.921 74.328C104.145 74.328 104.402 74.2953 104.691 74.23ZM116.663 67.93C117.41 67.93 117.979 68.1447 118.371 68.574C118.773 68.994 118.973 69.5353 118.973 70.198V74.72C118.973 74.9067 118.88 75 118.693 75H118.329C118.143 75 118.049 74.9067 118.049 74.72V70.45C118.049 69.89 117.919 69.4607 117.657 69.162C117.405 68.8633 117.027 68.714 116.523 68.714C115.991 68.714 115.567 68.8913 115.249 69.246C114.932 69.6007 114.773 70.058 114.773 70.618V74.72C114.773 74.9067 114.68 75 114.493 75H114.129C113.943 75 113.849 74.9067 113.849 74.72V70.45C113.849 69.89 113.719 69.4607 113.457 69.162C113.205 68.8633 112.823 68.714 112.309 68.714C111.833 68.714 111.437 68.8633 111.119 69.162C110.811 69.4607 110.629 69.8527 110.573 70.338V74.72C110.573 74.9067 110.48 75 110.293 75H109.929C109.743 75 109.649 74.9067 109.649 74.72V68.378C109.649 68.1913 109.743 68.098 109.929 68.098H110.237C110.424 68.098 110.517 68.1913 110.517 68.378V68.952C110.937 68.2707 111.605 67.93 112.519 67.93C112.995 67.93 113.401 68.0373 113.737 68.252C114.083 68.4573 114.339 68.7373 114.507 69.092C115.002 68.3173 115.721 67.93 116.663 67.93ZM126.037 73.362C126.102 73.2967 126.172 73.264 126.247 73.264C126.312 73.264 126.373 73.292 126.429 73.348L126.611 73.516C126.676 73.5813 126.709 73.6513 126.709 73.726C126.709 73.782 126.681 73.8473 126.625 73.922C126.167 74.3793 125.724 74.706 125.295 74.902C124.865 75.0887 124.385 75.182 123.853 75.182C123.181 75.182 122.597 75.0327 122.103 74.734C121.608 74.4353 121.225 74.02 120.955 73.488C120.684 72.9467 120.549 72.3213 120.549 71.612C120.549 70.8933 120.679 70.2587 120.941 69.708C121.211 69.148 121.589 68.714 122.075 68.406C122.56 68.0887 123.12 67.93 123.755 67.93C124.697 67.93 125.439 68.224 125.981 68.812C126.522 69.4 126.793 70.1933 126.793 71.192V71.36C126.783 71.444 126.751 71.5093 126.695 71.556C126.648 71.6027 126.583 71.626 126.499 71.626H121.487C121.515 72.41 121.72 73.0727 122.103 73.614C122.495 74.146 123.078 74.412 123.853 74.412C124.273 74.412 124.641 74.3373 124.959 74.188C125.285 74.0293 125.645 73.754 126.037 73.362ZM123.755 68.7C123.139 68.7 122.63 68.8913 122.229 69.274C121.837 69.6473 121.599 70.198 121.515 70.926H125.869C125.85 70.2447 125.654 69.7033 125.281 69.302C124.907 68.9007 124.399 68.7 123.755 68.7ZM130.911 75.182C130.341 75.182 129.837 75.1027 129.399 74.944C128.969 74.776 128.517 74.496 128.041 74.104C127.957 74.048 127.915 73.9827 127.915 73.908C127.915 73.8427 127.947 73.7773 128.013 73.712L128.195 73.516C128.251 73.4413 128.321 73.404 128.405 73.404C128.47 73.404 128.531 73.432 128.587 73.488C129.035 73.8333 129.431 74.076 129.777 74.216C130.122 74.3467 130.5 74.412 130.911 74.412C131.424 74.412 131.844 74.3 132.171 74.076C132.497 73.8427 132.661 73.53 132.661 73.138C132.661 72.746 132.493 72.4567 132.157 72.27C131.821 72.0833 131.303 71.9153 130.603 71.766C129.987 71.6353 129.501 71.5 129.147 71.36C128.801 71.2107 128.545 71.024 128.377 70.8C128.209 70.576 128.125 70.282 128.125 69.918C128.125 69.3207 128.367 68.84 128.853 68.476C129.338 68.112 129.949 67.93 130.687 67.93C131.191 67.93 131.639 67.9953 132.031 68.126C132.432 68.2473 132.833 68.4527 133.235 68.742C133.319 68.8073 133.361 68.8773 133.361 68.952C133.361 68.9987 133.337 69.0593 133.291 69.134L133.123 69.344C133.076 69.4187 133.011 69.456 132.927 69.456C132.852 69.456 132.787 69.4327 132.731 69.386C132.348 69.1153 132.007 68.9333 131.709 68.84C131.419 68.7467 131.088 68.7 130.715 68.7C130.201 68.7 129.791 68.812 129.483 69.036C129.175 69.26 129.021 69.5447 129.021 69.89C129.021 70.1047 129.091 70.2773 129.231 70.408C129.371 70.5387 129.571 70.6507 129.833 70.744C130.094 70.828 130.477 70.926 130.981 71.038C131.914 71.2433 132.577 71.4953 132.969 71.794C133.37 72.0927 133.571 72.5267 133.571 73.096C133.571 73.7213 133.323 74.2253 132.829 74.608C132.334 74.9907 131.695 75.182 130.911 75.182ZM137.542 75.182C136.972 75.182 136.468 75.1027 136.03 74.944C135.6 74.776 135.148 74.496 134.672 74.104C134.588 74.048 134.546 73.9827 134.546 73.908C134.546 73.8427 134.578 73.7773 134.644 73.712L134.826 73.516C134.882 73.4413 134.952 73.404 135.036 73.404C135.101 73.404 135.162 73.432 135.218 73.488C135.666 73.8333 136.062 74.076 136.408 74.216C136.753 74.3467 137.131 74.412 137.542 74.412C138.055 74.412 138.475 74.3 138.802 74.076C139.128 73.8427 139.292 73.53 139.292 73.138C139.292 72.746 139.124 72.4567 138.788 72.27C138.452 72.0833 137.934 71.9153 137.234 71.766C136.618 71.6353 136.132 71.5 135.778 71.36C135.432 71.2107 135.176 71.024 135.008 70.8C134.84 70.576 134.756 70.282 134.756 69.918C134.756 69.3207 134.998 68.84 135.484 68.476C135.969 68.112 136.58 67.93 137.318 67.93C137.822 67.93 138.27 67.9953 138.662 68.126C139.063 68.2473 139.464 68.4527 139.866 68.742C139.95 68.8073 139.992 68.8773 139.992 68.952C139.992 68.9987 139.968 69.0593 139.922 69.134L139.754 69.344C139.707 69.4187 139.642 69.456 139.558 69.456C139.483 69.456 139.418 69.4327 139.362 69.386C138.979 69.1153 138.638 68.9333 138.34 68.84C138.05 68.7467 137.719 68.7 137.346 68.7C136.832 68.7 136.422 68.812 136.114 69.036C135.806 69.26 135.652 69.5447 135.652 69.89C135.652 70.1047 135.722 70.2773 135.862 70.408C136.002 70.5387 136.202 70.6507 136.464 70.744C136.725 70.828 137.108 70.926 137.612 71.038C138.545 71.2433 139.208 71.4953 139.6 71.794C140.001 72.0927 140.202 72.5267 140.202 73.096C140.202 73.7213 139.954 74.2253 139.46 74.608C138.965 74.9907 138.326 75.182 137.542 75.182ZM144.479 67.93C145.329 67.93 145.991 68.1353 146.467 68.546C146.943 68.9473 147.181 69.4793 147.181 70.142V74.72C147.181 74.9067 147.088 75 146.901 75H146.621C146.435 75 146.341 74.9067 146.341 74.72V74.09C146.108 74.4633 145.777 74.7433 145.347 74.93C144.927 75.1167 144.456 75.21 143.933 75.21C143.205 75.21 142.613 75.056 142.155 74.748C141.698 74.44 141.469 73.964 141.469 73.32C141.469 72.8067 141.614 72.396 141.903 72.088C142.193 71.7707 142.571 71.5327 143.037 71.374C143.504 71.206 144.087 71.0567 144.787 70.926L146.299 70.66V70.212C146.299 69.736 146.136 69.3673 145.809 69.106C145.483 68.8353 145.053 68.7 144.521 68.7C144.12 68.7 143.756 68.7747 143.429 68.924C143.103 69.0733 142.753 69.33 142.379 69.694C142.314 69.7593 142.244 69.792 142.169 69.792C142.104 69.792 142.043 69.764 141.987 69.708L141.805 69.54C141.74 69.4747 141.707 69.4047 141.707 69.33C141.707 69.246 141.74 69.1713 141.805 69.106C142.197 68.6953 142.608 68.3967 143.037 68.21C143.476 68.0233 143.957 67.93 144.479 67.93ZM143.975 74.44C144.647 74.44 145.203 74.2627 145.641 73.908C146.08 73.5533 146.299 73.1007 146.299 72.55V71.374L144.997 71.626C144.391 71.7473 143.91 71.864 143.555 71.976C143.201 72.088 142.916 72.2513 142.701 72.466C142.487 72.6807 142.379 72.9607 142.379 73.306C142.379 73.6607 142.519 73.9407 142.799 74.146C143.089 74.342 143.481 74.44 143.975 74.44ZM154.185 68.378C154.185 68.1913 154.279 68.098 154.465 68.098H154.759C154.946 68.098 155.039 68.1913 155.039 68.378V74.93C155.039 75.798 154.778 76.4793 154.255 76.974C153.733 77.478 153 77.73 152.057 77.73C151.04 77.73 150.102 77.4407 149.243 76.862C149.15 76.806 149.103 76.736 149.103 76.652C149.103 76.5867 149.122 76.5307 149.159 76.484L149.327 76.246C149.383 76.1527 149.458 76.106 149.551 76.106C149.589 76.106 149.645 76.1247 149.719 76.162C150.13 76.4233 150.513 76.6193 150.867 76.75C151.231 76.8807 151.628 76.946 152.057 76.946C152.673 76.946 153.173 76.7733 153.555 76.428C153.938 76.092 154.129 75.5693 154.129 74.86V73.74C153.625 74.552 152.86 74.958 151.833 74.958C151.236 74.958 150.709 74.8087 150.251 74.51C149.794 74.202 149.439 73.782 149.187 73.25C148.945 72.718 148.823 72.116 148.823 71.444C148.823 70.772 148.945 70.17 149.187 69.638C149.439 69.106 149.794 68.6907 150.251 68.392C150.709 68.084 151.236 67.93 151.833 67.93C152.375 67.93 152.841 68.0467 153.233 68.28C153.635 68.504 153.952 68.826 154.185 69.246V68.378ZM151.931 74.174C152.603 74.174 153.14 73.922 153.541 73.418C153.943 72.9047 154.143 72.2467 154.143 71.444C154.143 70.6413 153.943 69.988 153.541 69.484C153.14 68.9707 152.603 68.714 151.931 68.714C151.25 68.714 150.718 68.966 150.335 69.47C149.962 69.974 149.775 70.632 149.775 71.444C149.775 72.256 149.962 72.914 150.335 73.418C150.718 73.922 151.25 74.174 151.931 74.174ZM162.144 73.362C162.209 73.2967 162.279 73.264 162.354 73.264C162.419 73.264 162.48 73.292 162.536 73.348L162.718 73.516C162.783 73.5813 162.816 73.6513 162.816 73.726C162.816 73.782 162.788 73.8473 162.732 73.922C162.275 74.3793 161.831 74.706 161.402 74.902C160.973 75.0887 160.492 75.182 159.96 75.182C159.288 75.182 158.705 75.0327 158.21 74.734C157.715 74.4353 157.333 74.02 157.062 73.488C156.791 72.9467 156.656 72.3213 156.656 71.612C156.656 70.8933 156.787 70.2587 157.048 69.708C157.319 69.148 157.697 68.714 158.182 68.406C158.667 68.0887 159.227 67.93 159.862 67.93C160.805 67.93 161.547 68.224 162.088 68.812C162.629 69.4 162.9 70.1933 162.9 71.192V71.36C162.891 71.444 162.858 71.5093 162.802 71.556C162.755 71.6027 162.69 71.626 162.606 71.626H157.594C157.622 72.41 157.827 73.0727 158.21 73.614C158.602 74.146 159.185 74.412 159.96 74.412C160.38 74.412 160.749 74.3373 161.066 74.188C161.393 74.0293 161.752 73.754 162.144 73.362ZM159.862 68.7C159.246 68.7 158.737 68.8913 158.336 69.274C157.944 69.6473 157.706 70.198 157.622 70.926H161.976C161.957 70.2447 161.761 69.7033 161.388 69.302C161.015 68.9007 160.506 68.7 159.862 68.7Z" fill="#1B1B1F"/>
<path d="M288.5 65.5L279.5 74.5M288.5 74.5L279.5 65.5" stroke="#1B1B1F" stroke-linecap="round" stroke-linejoin="round"/>
</svg>
