<svg width="553" height="27" viewBox="0 0 553 27" fill="none" xmlns="http://www.w3.org/2000/svg">
<line y1="0.5" x2="553" y2="0.5" stroke="#CACAD1"/>
<path d="M238.007 13.284C238.063 13.1347 238.17 13.06 238.329 13.06H238.763C238.837 13.06 238.898 13.0787 238.945 13.116C238.991 13.1533 239.015 13.2047 239.015 13.27L238.987 13.382L235.767 22.776C235.711 22.9253 235.603 23 235.445 23H234.661C234.502 23 234.395 22.9253 234.339 22.776L231.119 13.382L231.091 13.27C231.091 13.2047 231.114 13.1533 231.161 13.116C231.207 13.0787 231.268 13.06 231.343 13.06H231.777C231.935 13.06 232.043 13.1347 232.099 13.284L233.723 18.058C234.348 19.8687 234.796 21.2547 235.067 22.216C235.328 21.2733 235.771 19.892 236.397 18.072L238.007 13.284ZM240.879 14.348C240.692 14.348 240.534 14.2827 240.403 14.152C240.282 14.0213 240.221 13.8627 240.221 13.676C240.221 13.4893 240.282 13.3353 240.403 13.214C240.534 13.0927 240.692 13.032 240.879 13.032C241.075 13.032 241.234 13.0927 241.355 13.214C241.486 13.3353 241.551 13.4893 241.551 13.676C241.551 13.8627 241.486 14.0213 241.355 14.152C241.234 14.2827 241.075 14.348 240.879 14.348ZM240.697 23C240.51 23 240.417 22.9067 240.417 22.72V16.378C240.417 16.1913 240.51 16.098 240.697 16.098H241.061C241.248 16.098 241.341 16.1913 241.341 16.378V22.72C241.341 22.9067 241.248 23 241.061 23H240.697ZM248.423 21.362C248.489 21.2967 248.559 21.264 248.633 21.264C248.699 21.264 248.759 21.292 248.815 21.348L248.997 21.516C249.063 21.5813 249.095 21.6513 249.095 21.726C249.095 21.782 249.067 21.8473 249.011 21.922C248.554 22.3793 248.111 22.706 247.681 22.902C247.252 23.0887 246.771 23.182 246.239 23.182C245.567 23.182 244.984 23.0327 244.489 22.734C243.995 22.4353 243.612 22.02 243.341 21.488C243.071 20.9467 242.935 20.3213 242.935 19.612C242.935 18.8933 243.066 18.2587 243.327 17.708C243.598 17.148 243.976 16.714 244.461 16.406C244.947 16.0887 245.507 15.93 246.141 15.93C247.084 15.93 247.826 16.224 248.367 16.812C248.909 17.4 249.179 18.1933 249.179 19.192V19.36C249.17 19.444 249.137 19.5093 249.081 19.556C249.035 19.6027 248.969 19.626 248.885 19.626H243.873C243.901 20.41 244.107 21.0727 244.489 21.614C244.881 22.146 245.465 22.412 246.239 22.412C246.659 22.412 247.028 22.3373 247.345 22.188C247.672 22.0293 248.031 21.754 248.423 21.362ZM246.141 16.7C245.525 16.7 245.017 16.8913 244.615 17.274C244.223 17.6473 243.985 18.198 243.901 18.926H248.255C248.237 18.2447 248.041 17.7033 247.667 17.302C247.294 16.9007 246.785 16.7 246.141 16.7ZM258.507 16.336C258.545 16.1773 258.652 16.098 258.829 16.098H259.207C259.31 16.098 259.38 16.126 259.417 16.182C259.464 16.238 259.473 16.3127 259.445 16.406L257.639 22.762C257.602 22.9207 257.495 23 257.317 23H256.687C256.529 23 256.426 22.9207 256.379 22.762L255.735 20.62C255.399 19.5 255.087 18.352 254.797 17.176C254.517 18.3147 254.209 19.472 253.873 20.648L253.257 22.762C253.22 22.9207 253.113 23 252.935 23H252.333C252.156 23 252.049 22.9207 252.011 22.762L250.205 16.406C250.196 16.3873 250.191 16.3547 250.191 16.308C250.191 16.2427 250.215 16.1913 250.261 16.154C250.308 16.1167 250.369 16.098 250.443 16.098H250.821C250.999 16.098 251.106 16.1773 251.143 16.336L251.815 18.814C252.123 19.9433 252.408 21.068 252.669 22.188C252.875 21.3573 253.178 20.2327 253.579 18.814L254.293 16.336C254.331 16.1773 254.438 16.098 254.615 16.098H255.035C255.203 16.098 255.306 16.1773 255.343 16.336L256.071 18.814C256.389 19.962 256.687 21.0913 256.967 22.202C257.182 21.2687 257.471 20.1393 257.835 18.814L258.507 16.336ZM264.215 15.944C264.794 15.944 265.312 16.098 265.769 16.406C266.236 16.7047 266.6 17.1293 266.861 17.68C267.122 18.2213 267.253 18.842 267.253 19.542C267.253 20.2513 267.122 20.8813 266.861 21.432C266.6 21.9827 266.24 22.412 265.783 22.72C265.326 23.0187 264.803 23.168 264.215 23.168C263.132 23.168 262.339 22.7713 261.835 21.978V25.296C261.835 25.4827 261.742 25.576 261.555 25.576H261.191C261.004 25.576 260.911 25.4827 260.911 25.296V16.378C260.911 16.1913 261.004 16.098 261.191 16.098H261.499C261.686 16.098 261.779 16.1913 261.779 16.378V17.26C262.031 16.8307 262.362 16.504 262.773 16.28C263.184 16.056 263.664 15.944 264.215 15.944ZM264.145 22.384C264.798 22.384 265.321 22.1227 265.713 21.6C266.105 21.0773 266.301 20.3913 266.301 19.542C266.301 18.702 266.105 18.0253 265.713 17.512C265.321 16.9893 264.798 16.728 264.145 16.728C263.445 16.728 262.876 16.98 262.437 17.484C262.008 17.9787 261.793 18.6647 261.793 19.542C261.793 20.4193 262.012 21.1147 262.451 21.628C262.89 22.132 263.454 22.384 264.145 22.384ZM271.833 23.182C271.189 23.182 270.615 23.028 270.111 22.72C269.607 22.412 269.215 21.9873 268.935 21.446C268.655 20.8953 268.515 20.2653 268.515 19.556C268.515 18.8467 268.655 18.2213 268.935 17.68C269.215 17.1293 269.607 16.7 270.111 16.392C270.615 16.084 271.189 15.93 271.833 15.93C272.477 15.93 273.051 16.084 273.555 16.392C274.059 16.7 274.451 17.1293 274.731 17.68C275.011 18.2213 275.151 18.8467 275.151 19.556C275.151 20.2653 275.011 20.8953 274.731 21.446C274.451 21.9873 274.059 22.412 273.555 22.72C273.051 23.028 272.477 23.182 271.833 23.182ZM271.833 22.412C272.552 22.412 273.126 22.1507 273.555 21.628C273.985 21.096 274.199 20.4053 274.199 19.556C274.199 18.7067 273.985 18.0207 273.555 17.498C273.126 16.966 272.552 16.7 271.833 16.7C271.115 16.7 270.541 16.966 270.111 17.498C269.682 18.0207 269.467 18.7067 269.467 19.556C269.467 20.4053 269.682 21.096 270.111 21.628C270.541 22.1507 271.115 22.412 271.833 22.412ZM279.333 16.042C279.566 16.042 279.841 16.0793 280.159 16.154C280.327 16.21 280.392 16.3267 280.355 16.504L280.299 16.728C280.252 16.9053 280.135 16.9707 279.949 16.924C279.725 16.868 279.519 16.84 279.333 16.84C278.857 16.84 278.46 17.0453 278.143 17.456C277.835 17.8667 277.681 18.436 277.681 19.164V22.72C277.681 22.9067 277.587 23 277.401 23H277.037C276.85 23 276.757 22.9067 276.757 22.72V16.378C276.757 16.1913 276.85 16.098 277.037 16.098H277.345C277.531 16.098 277.625 16.1913 277.625 16.378V17.148C277.783 16.8027 278.007 16.532 278.297 16.336C278.595 16.14 278.941 16.042 279.333 16.042ZM284.855 22.23C284.883 22.2207 284.92 22.216 284.967 22.216C285.023 22.216 285.074 22.2347 285.121 22.272C285.168 22.3093 285.196 22.3607 285.205 22.426L285.247 22.622C285.256 22.6407 285.261 22.6733 285.261 22.72C285.261 22.8507 285.191 22.93 285.051 22.958C284.715 23.0607 284.356 23.112 283.973 23.112C283.366 23.112 282.932 22.9767 282.671 22.706C282.419 22.426 282.293 22.0247 282.293 21.502V16.798H281.257C281.07 16.798 280.977 16.7047 280.977 16.518V16.378C280.977 16.1913 281.07 16.098 281.257 16.098H282.293V13.97C282.293 13.7833 282.386 13.69 282.573 13.69H282.937C283.124 13.69 283.217 13.7833 283.217 13.97V16.098H284.897C285.084 16.098 285.177 16.1913 285.177 16.378V16.518C285.177 16.7047 285.084 16.798 284.897 16.798H283.217V21.39C283.217 21.7353 283.282 21.978 283.413 22.118C283.544 22.258 283.768 22.328 284.085 22.328C284.309 22.328 284.566 22.2953 284.855 22.23ZM297.513 16.336C297.551 16.1773 297.658 16.098 297.835 16.098H298.213C298.316 16.098 298.386 16.126 298.423 16.182C298.47 16.238 298.479 16.3127 298.451 16.406L296.645 22.762C296.608 22.9207 296.501 23 296.323 23H295.693C295.535 23 295.432 22.9207 295.385 22.762L294.741 20.62C294.405 19.5 294.093 18.352 293.803 17.176C293.523 18.3147 293.215 19.472 292.879 20.648L292.263 22.762C292.226 22.9207 292.119 23 291.941 23H291.339C291.162 23 291.055 22.9207 291.017 22.762L289.211 16.406C289.202 16.3873 289.197 16.3547 289.197 16.308C289.197 16.2427 289.221 16.1913 289.267 16.154C289.314 16.1167 289.375 16.098 289.449 16.098H289.827C290.005 16.098 290.112 16.1773 290.149 16.336L290.821 18.814C291.129 19.9433 291.414 21.068 291.675 22.188C291.881 21.3573 292.184 20.2327 292.585 18.814L293.299 16.336C293.337 16.1773 293.444 16.098 293.621 16.098H294.041C294.209 16.098 294.312 16.1773 294.349 16.336L295.077 18.814C295.395 19.962 295.693 21.0913 295.973 22.202C296.188 21.2687 296.477 20.1393 296.841 18.814L297.513 16.336ZM300.379 14.348C300.192 14.348 300.034 14.2827 299.903 14.152C299.782 14.0213 299.721 13.8627 299.721 13.676C299.721 13.4893 299.782 13.3353 299.903 13.214C300.034 13.0927 300.192 13.032 300.379 13.032C300.575 13.032 300.734 13.0927 300.855 13.214C300.986 13.3353 301.051 13.4893 301.051 13.676C301.051 13.8627 300.986 14.0213 300.855 14.152C300.734 14.2827 300.575 14.348 300.379 14.348ZM300.197 23C300.01 23 299.917 22.9067 299.917 22.72V16.378C299.917 16.1913 300.01 16.098 300.197 16.098H300.561C300.748 16.098 300.841 16.1913 300.841 16.378V22.72C300.841 22.9067 300.748 23 300.561 23H300.197ZM307.881 13.34C307.881 13.1533 307.975 13.06 308.161 13.06H308.525C308.712 13.06 308.805 13.1533 308.805 13.34V22.72C308.805 22.9067 308.712 23 308.525 23H308.231C308.045 23 307.951 22.9067 307.951 22.72V21.81C307.699 22.2487 307.368 22.5847 306.957 22.818C306.547 23.0513 306.061 23.168 305.501 23.168C304.913 23.168 304.391 23.0187 303.933 22.72C303.476 22.412 303.117 21.9873 302.855 21.446C302.594 20.8953 302.463 20.2653 302.463 19.556C302.463 18.8467 302.594 18.2213 302.855 17.68C303.126 17.1293 303.495 16.7047 303.961 16.406C304.428 16.098 304.951 15.944 305.529 15.944C306.593 15.944 307.377 16.3407 307.881 17.134V13.34ZM305.571 22.384C306.271 22.384 306.836 22.1367 307.265 21.642C307.704 21.138 307.923 20.4427 307.923 19.556C307.923 18.6787 307.704 17.988 307.265 17.484C306.836 16.98 306.271 16.728 305.571 16.728C304.927 16.728 304.405 16.9893 304.003 17.512C303.611 18.0347 303.415 18.716 303.415 19.556C303.415 20.4053 303.611 21.0913 304.003 21.614C304.395 22.1273 304.918 22.384 305.571 22.384ZM313.99 22.23C314.018 22.2207 314.055 22.216 314.102 22.216C314.158 22.216 314.209 22.2347 314.256 22.272C314.302 22.3093 314.33 22.3607 314.34 22.426L314.382 22.622C314.391 22.6407 314.396 22.6733 314.396 22.72C314.396 22.8507 314.326 22.93 314.186 22.958C313.85 23.0607 313.49 23.112 313.108 23.112C312.501 23.112 312.067 22.9767 311.806 22.706C311.554 22.426 311.428 22.0247 311.428 21.502V16.798H310.392C310.205 16.798 310.112 16.7047 310.112 16.518V16.378C310.112 16.1913 310.205 16.098 310.392 16.098H311.428V13.97C311.428 13.7833 311.521 13.69 311.708 13.69H312.072C312.258 13.69 312.352 13.7833 312.352 13.97V16.098H314.032C314.218 16.098 314.312 16.1913 314.312 16.378V16.518C314.312 16.7047 314.218 16.798 314.032 16.798H312.352V21.39C312.352 21.7353 312.417 21.978 312.548 22.118C312.678 22.258 312.902 22.328 313.22 22.328C313.444 22.328 313.7 22.2953 313.99 22.23ZM318.802 15.93C319.604 15.93 320.216 16.1587 320.636 16.616C321.056 17.064 321.266 17.6193 321.266 18.282V22.72C321.266 22.9067 321.172 23 320.986 23H320.622C320.435 23 320.342 22.9067 320.342 22.72V18.59C320.342 17.974 320.192 17.5073 319.894 17.19C319.595 16.8727 319.166 16.714 318.606 16.714C318.251 16.714 317.924 16.8027 317.626 16.98C317.327 17.148 317.089 17.3813 316.912 17.68C316.734 17.9787 316.646 18.3053 316.646 18.66V22.72C316.646 22.9067 316.552 23 316.366 23H316.002C315.815 23 315.722 22.9067 315.722 22.72V13.34C315.722 13.1533 315.815 13.06 316.002 13.06H316.366C316.552 13.06 316.646 13.1533 316.646 13.34V16.994C316.87 16.6393 317.168 16.3733 317.542 16.196C317.924 16.0187 318.344 15.93 318.802 15.93Z" fill="#5C5C66"/>
</svg>
