<svg width="63" height="176" viewBox="0 0 63 176" fill="none" xmlns="http://www.w3.org/2000/svg">
<line x1="0.5" y1="2.18561e-08" x2="0.499992" y2="176" stroke="#CACAD1"/>
<path d="M15.28 74.284C15.336 74.1347 15.4433 74.06 15.602 74.06H16.036C16.1107 74.06 16.1713 74.0787 16.218 74.116C16.2647 74.1533 16.288 74.2047 16.288 74.27L16.26 74.382L13.04 83.776C12.984 83.9253 12.8767 84 12.718 84H11.934C11.7753 84 11.668 83.9253 11.612 83.776L8.392 74.382L8.364 74.27C8.364 74.2047 8.38733 74.1533 8.434 74.116C8.48067 74.0787 8.54133 74.06 8.616 74.06H9.05C9.20867 74.06 9.316 74.1347 9.372 74.284L10.996 79.058C11.6213 80.8687 12.0693 82.2547 12.34 83.216C12.6013 82.2733 13.0447 80.892 13.67 79.072L15.28 74.284ZM18.1523 75.348C17.9656 75.348 17.807 75.2827 17.6763 75.152C17.555 75.0213 17.4943 74.8627 17.4943 74.676C17.4943 74.4893 17.555 74.3353 17.6763 74.214C17.807 74.0927 17.9656 74.032 18.1523 74.032C18.3483 74.032 18.507 74.0927 18.6283 74.214C18.759 74.3353 18.8243 74.4893 18.8243 74.676C18.8243 74.8627 18.759 75.0213 18.6283 75.152C18.507 75.2827 18.3483 75.348 18.1523 75.348ZM17.9703 84C17.7836 84 17.6903 83.9067 17.6903 83.72V77.378C17.6903 77.1913 17.7836 77.098 17.9703 77.098H18.3343C18.521 77.098 18.6143 77.1913 18.6143 77.378V83.72C18.6143 83.9067 18.521 84 18.3343 84H17.9703ZM25.6968 82.362C25.7621 82.2967 25.8321 82.264 25.9068 82.264C25.9721 82.264 26.0328 82.292 26.0888 82.348L26.2708 82.516C26.3361 82.5813 26.3688 82.6513 26.3688 82.726C26.3688 82.782 26.3408 82.8473 26.2848 82.922C25.8274 83.3793 25.3841 83.706 24.9548 83.902C24.5254 84.0887 24.0448 84.182 23.5128 84.182C22.8408 84.182 22.2574 84.0327 21.7628 83.734C21.2681 83.4353 20.8854 83.02 20.6148 82.488C20.3441 81.9467 20.2088 81.3213 20.2088 80.612C20.2088 79.8933 20.3394 79.2587 20.6008 78.708C20.8714 78.148 21.2494 77.714 21.7348 77.406C22.2201 77.0887 22.7801 76.93 23.4148 76.93C24.3574 76.93 25.0994 77.224 25.6408 77.812C26.1821 78.4 26.4528 79.1933 26.4528 80.192V80.36C26.4434 80.444 26.4108 80.5093 26.3548 80.556C26.3081 80.6027 26.2428 80.626 26.1588 80.626H21.1468C21.1748 81.41 21.3801 82.0727 21.7628 82.614C22.1548 83.146 22.7381 83.412 23.5128 83.412C23.9328 83.412 24.3014 83.3373 24.6188 83.188C24.9454 83.0293 25.3048 82.754 25.6968 82.362ZM23.4148 77.7C22.7988 77.7 22.2901 77.8913 21.8888 78.274C21.4968 78.6473 21.2588 79.198 21.1748 79.926H25.5288C25.5101 79.2447 25.3141 78.7033 24.9408 78.302C24.5674 77.9007 24.0588 77.7 23.4148 77.7ZM35.7809 77.336C35.8183 77.1773 35.9256 77.098 36.1029 77.098H36.4809C36.5836 77.098 36.6536 77.126 36.6909 77.182C36.7376 77.238 36.7469 77.3127 36.7189 77.406L34.9129 83.762C34.8756 83.9207 34.7683 84 34.5909 84H33.9609C33.8023 84 33.6996 83.9207 33.6529 83.762L33.0089 81.62C32.6729 80.5 32.3603 79.352 32.0709 78.176C31.7909 79.3147 31.4829 80.472 31.1469 81.648L30.5309 83.762C30.4936 83.9207 30.3863 84 30.2089 84H29.6069C29.4296 84 29.3223 83.9207 29.2849 83.762L27.4789 77.406C27.4696 77.3873 27.4649 77.3547 27.4649 77.308C27.4649 77.2427 27.4883 77.1913 27.5349 77.154C27.5816 77.1167 27.6423 77.098 27.7169 77.098H28.0949C28.2723 77.098 28.3796 77.1773 28.4169 77.336L29.0889 79.814C29.3969 80.9433 29.6816 82.068 29.9429 83.188C30.1483 82.3573 30.4516 81.2327 30.8529 79.814L31.5669 77.336C31.6043 77.1773 31.7116 77.098 31.8889 77.098H32.3089C32.4769 77.098 32.5796 77.1773 32.6169 77.336L33.3449 79.814C33.6623 80.962 33.9609 82.0913 34.2409 83.202C34.4556 82.2687 34.7449 81.1393 35.1089 79.814L35.7809 77.336ZM41.4884 76.944C42.0671 76.944 42.5851 77.098 43.0424 77.406C43.5091 77.7047 43.8731 78.1293 44.1344 78.68C44.3958 79.2213 44.5264 79.842 44.5264 80.542C44.5264 81.2513 44.3958 81.8813 44.1344 82.432C43.8731 82.9827 43.5138 83.412 43.0564 83.72C42.5991 84.0187 42.0764 84.168 41.4884 84.168C40.4058 84.168 39.6124 83.7713 39.1084 82.978V86.296C39.1084 86.4827 39.0151 86.576 38.8284 86.576H38.4644C38.2778 86.576 38.1844 86.4827 38.1844 86.296V77.378C38.1844 77.1913 38.2778 77.098 38.4644 77.098H38.7724C38.9591 77.098 39.0524 77.1913 39.0524 77.378V78.26C39.3044 77.8307 39.6358 77.504 40.0464 77.28C40.4571 77.056 40.9378 76.944 41.4884 76.944ZM41.4184 83.384C42.0718 83.384 42.5944 83.1227 42.9864 82.6C43.3784 82.0773 43.5744 81.3913 43.5744 80.542C43.5744 79.702 43.3784 79.0253 42.9864 78.512C42.5944 77.9893 42.0718 77.728 41.4184 77.728C40.7184 77.728 40.1491 77.98 39.7104 78.484C39.2811 78.9787 39.0664 79.6647 39.0664 80.542C39.0664 81.4193 39.2858 82.1147 39.7244 82.628C40.1631 83.132 40.7278 83.384 41.4184 83.384ZM49.1068 84.182C48.4628 84.182 47.8888 84.028 47.3848 83.72C46.8808 83.412 46.4888 82.9873 46.2088 82.446C45.9288 81.8953 45.7888 81.2653 45.7888 80.556C45.7888 79.8467 45.9288 79.2213 46.2088 78.68C46.4888 78.1293 46.8808 77.7 47.3848 77.392C47.8888 77.084 48.4628 76.93 49.1068 76.93C49.7508 76.93 50.3248 77.084 50.8288 77.392C51.3328 77.7 51.7248 78.1293 52.0048 78.68C52.2848 79.2213 52.4248 79.8467 52.4248 80.556C52.4248 81.2653 52.2848 81.8953 52.0048 82.446C51.7248 82.9873 51.3328 83.412 50.8288 83.72C50.3248 84.028 49.7508 84.182 49.1068 84.182ZM49.1068 83.412C49.8255 83.412 50.3995 83.1507 50.8288 82.628C51.2582 82.096 51.4728 81.4053 51.4728 80.556C51.4728 79.7067 51.2582 79.0207 50.8288 78.498C50.3995 77.966 49.8255 77.7 49.1068 77.7C48.3882 77.7 47.8142 77.966 47.3848 78.498C46.9555 79.0207 46.7408 79.7067 46.7408 80.556C46.7408 81.4053 46.9555 82.096 47.3848 82.628C47.8142 83.1507 48.3882 83.412 49.1068 83.412ZM56.6061 77.042C56.8395 77.042 57.1148 77.0793 57.4321 77.154C57.6001 77.21 57.6655 77.3267 57.6281 77.504L57.5721 77.728C57.5255 77.9053 57.4088 77.9707 57.2221 77.924C56.9981 77.868 56.7928 77.84 56.6061 77.84C56.1301 77.84 55.7335 78.0453 55.4161 78.456C55.1081 78.8667 54.9541 79.436 54.9541 80.164V83.72C54.9541 83.9067 54.8608 84 54.6741 84H54.3101C54.1235 84 54.0301 83.9067 54.0301 83.72V77.378C54.0301 77.1913 54.1235 77.098 54.3101 77.098H54.6181C54.8048 77.098 54.8981 77.1913 54.8981 77.378V78.148C55.0568 77.8027 55.2808 77.532 55.5701 77.336C55.8688 77.14 56.2141 77.042 56.6061 77.042ZM62.1284 83.23C62.1564 83.2207 62.1937 83.216 62.2404 83.216C62.2964 83.216 62.3477 83.2347 62.3944 83.272C62.441 83.3093 62.469 83.3607 62.4784 83.426L62.5204 83.622C62.5297 83.6407 62.5344 83.6733 62.5344 83.72C62.5344 83.8507 62.4644 83.93 62.3244 83.958C61.9884 84.0607 61.629 84.112 61.2464 84.112C60.6397 84.112 60.2057 83.9767 59.9444 83.706C59.6924 83.426 59.5664 83.0247 59.5664 82.502V77.798H58.5304C58.3437 77.798 58.2504 77.7047 58.2504 77.518V77.378C58.2504 77.1913 58.3437 77.098 58.5304 77.098H59.5664V74.97C59.5664 74.7833 59.6597 74.69 59.8464 74.69H60.2104C60.397 74.69 60.4904 74.7833 60.4904 74.97V77.098H62.1704C62.357 77.098 62.4504 77.1913 62.4504 77.378V77.518C62.4504 77.7047 62.357 77.798 62.1704 77.798H60.4904V82.39C60.4904 82.7353 60.5557 82.978 60.6864 83.118C60.817 83.258 61.041 83.328 61.3584 83.328C61.5824 83.328 61.839 83.2953 62.1284 83.23ZM12.116 94.93C12.9187 94.93 13.53 95.1587 13.95 95.616C14.37 96.064 14.58 96.6193 14.58 97.282V101.72C14.58 101.907 14.4867 102 14.3 102H13.936C13.7493 102 13.656 101.907 13.656 101.72V97.59C13.656 96.974 13.5067 96.5073 13.208 96.19C12.9093 95.8727 12.48 95.714 11.92 95.714C11.5653 95.714 11.2387 95.8027 10.94 95.98C10.6413 96.148 10.4033 96.3813 10.226 96.68C10.0487 96.9787 9.96 97.3053 9.96 97.66V101.72C9.96 101.907 9.86667 102 9.68 102H9.316C9.12933 102 9.036 101.907 9.036 101.72V92.34C9.036 92.1533 9.12933 92.06 9.316 92.06H9.68C9.86667 92.06 9.96 92.1533 9.96 92.34V95.994C10.184 95.6393 10.4827 95.3733 10.856 95.196C11.2387 95.0187 11.6587 94.93 12.116 94.93ZM21.6499 100.362C21.7152 100.297 21.7852 100.264 21.8599 100.264C21.9252 100.264 21.9859 100.292 22.0419 100.348L22.2239 100.516C22.2892 100.581 22.3219 100.651 22.3219 100.726C22.3219 100.782 22.2939 100.847 22.2379 100.922C21.7806 101.379 21.3372 101.706 20.9079 101.902C20.4786 102.089 19.9979 102.182 19.4659 102.182C18.7939 102.182 18.2106 102.033 17.7159 101.734C17.2212 101.435 16.8386 101.02 16.5679 100.488C16.2972 99.9467 16.1619 99.3213 16.1619 98.612C16.1619 97.8933 16.2926 97.2587 16.5539 96.708C16.8246 96.148 17.2026 95.714 17.6879 95.406C18.1732 95.0887 18.7332 94.93 19.3679 94.93C20.3106 94.93 21.0526 95.224 21.5939 95.812C22.1352 96.4 22.4059 97.1933 22.4059 98.192V98.36C22.3966 98.444 22.3639 98.5093 22.3079 98.556C22.2612 98.6027 22.1959 98.626 22.1119 98.626H17.0999C17.1279 99.41 17.3332 100.073 17.7159 100.614C18.1079 101.146 18.6912 101.412 19.4659 101.412C19.8859 101.412 20.2546 101.337 20.5719 101.188C20.8986 101.029 21.2579 100.754 21.6499 100.362ZM19.3679 95.7C18.7519 95.7 18.2432 95.8913 17.8419 96.274C17.4499 96.6473 17.2119 97.198 17.1279 97.926H21.4819C21.4632 97.2447 21.2672 96.7033 20.8939 96.302C20.5206 95.9007 20.0119 95.7 19.3679 95.7ZM24.5234 93.348C24.3367 93.348 24.1781 93.2827 24.0474 93.152C23.9261 93.0213 23.8654 92.8627 23.8654 92.676C23.8654 92.4893 23.9261 92.3353 24.0474 92.214C24.1781 92.0927 24.3367 92.032 24.5234 92.032C24.7194 92.032 24.8781 92.0927 24.9994 92.214C25.1301 92.3353 25.1954 92.4893 25.1954 92.676C25.1954 92.8627 25.1301 93.0213 24.9994 93.152C24.8781 93.2827 24.7194 93.348 24.5234 93.348ZM24.3414 102C24.1547 102 24.0614 101.907 24.0614 101.72V95.378C24.0614 95.1913 24.1547 95.098 24.3414 95.098H24.7054C24.8921 95.098 24.9854 95.1913 24.9854 95.378V101.72C24.9854 101.907 24.8921 102 24.7054 102H24.3414ZM31.9979 95.378C31.9979 95.1913 32.0912 95.098 32.2779 95.098H32.5719C32.7585 95.098 32.8519 95.1913 32.8519 95.378V101.93C32.8519 102.798 32.5905 103.479 32.0679 103.974C31.5452 104.478 30.8125 104.73 29.8699 104.73C28.8525 104.73 27.9145 104.441 27.0559 103.862C26.9625 103.806 26.9159 103.736 26.9159 103.652C26.9159 103.587 26.9345 103.531 26.9719 103.484L27.1399 103.246C27.1959 103.153 27.2705 103.106 27.3639 103.106C27.4012 103.106 27.4572 103.125 27.5319 103.162C27.9425 103.423 28.3252 103.619 28.6799 103.75C29.0439 103.881 29.4405 103.946 29.8699 103.946C30.4859 103.946 30.9852 103.773 31.3679 103.428C31.7505 103.092 31.9419 102.569 31.9419 101.86V100.74C31.4379 101.552 30.6725 101.958 29.6459 101.958C29.0485 101.958 28.5212 101.809 28.0639 101.51C27.6065 101.202 27.2519 100.782 26.9999 100.25C26.7572 99.718 26.6359 99.116 26.6359 98.444C26.6359 97.772 26.7572 97.17 26.9999 96.638C27.2519 96.106 27.6065 95.6907 28.0639 95.392C28.5212 95.084 29.0485 94.93 29.6459 94.93C30.1872 94.93 30.6539 95.0467 31.0459 95.28C31.4472 95.504 31.7645 95.826 31.9979 96.246V95.378ZM29.7439 101.174C30.4159 101.174 30.9525 100.922 31.3539 100.418C31.7552 99.9047 31.9559 99.2467 31.9559 98.444C31.9559 97.6413 31.7552 96.988 31.3539 96.484C30.9525 95.9707 30.4159 95.714 29.7439 95.714C29.0625 95.714 28.5305 95.966 28.1479 96.47C27.7745 96.974 27.5879 97.632 27.5879 98.444C27.5879 99.256 27.7745 99.914 28.1479 100.418C28.5305 100.922 29.0625 101.174 29.7439 101.174ZM38.0105 94.93C38.8132 94.93 39.4245 95.1587 39.8445 95.616C40.2645 96.064 40.4745 96.6193 40.4745 97.282V101.72C40.4745 101.907 40.3812 102 40.1945 102H39.8305C39.6439 102 39.5505 101.907 39.5505 101.72V97.59C39.5505 96.974 39.4012 96.5073 39.1025 96.19C38.8039 95.8727 38.3745 95.714 37.8145 95.714C37.4599 95.714 37.1332 95.8027 36.8345 95.98C36.5359 96.148 36.2979 96.3813 36.1205 96.68C35.9432 96.9787 35.8545 97.3053 35.8545 97.66V101.72C35.8545 101.907 35.7612 102 35.5745 102H35.2105C35.0239 102 34.9305 101.907 34.9305 101.72V92.34C34.9305 92.1533 35.0239 92.06 35.2105 92.06H35.5745C35.7612 92.06 35.8545 92.1533 35.8545 92.34V95.994C36.0785 95.6393 36.3772 95.3733 36.7505 95.196C37.1332 95.0187 37.5532 94.93 38.0105 94.93ZM45.435 101.23C45.463 101.221 45.5003 101.216 45.547 101.216C45.603 101.216 45.6543 101.235 45.701 101.272C45.7477 101.309 45.7757 101.361 45.785 101.426L45.827 101.622C45.8363 101.641 45.841 101.673 45.841 101.72C45.841 101.851 45.771 101.93 45.631 101.958C45.295 102.061 44.9357 102.112 44.553 102.112C43.9463 102.112 43.5123 101.977 43.251 101.706C42.999 101.426 42.873 101.025 42.873 100.502V95.798H41.837C41.6503 95.798 41.557 95.7047 41.557 95.518V95.378C41.557 95.1913 41.6503 95.098 41.837 95.098H42.873V92.97C42.873 92.7833 42.9663 92.69 43.153 92.69H43.517C43.7037 92.69 43.797 92.7833 43.797 92.97V95.098H45.477C45.6637 95.098 45.757 95.1913 45.757 95.378V95.518C45.757 95.7047 45.6637 95.798 45.477 95.798H43.797V100.39C43.797 100.735 43.8623 100.978 43.993 101.118C44.1237 101.258 44.3477 101.328 44.665 101.328C44.889 101.328 45.1457 101.295 45.435 101.23Z" fill="#5C5C66"/>
</svg>
