<svg width="559" height="222" viewBox="0 0 559 222" fill="none" xmlns="http://www.w3.org/2000/svg">
<rect x="47" y="2" width="464" height="220" rx="8" fill="white"/>
<rect x="108.5" y="83" width="341" height="58" rx="7" fill="#EBFFF6"/>
<rect x="108.5" y="83" width="341" height="58" rx="7" stroke="#67EEB8" stroke-width="2"/>
<path d="M131.75 112.75L134 115L139.25 109.75M144.5 112C144.5 116.971 140.471 121 135.5 121C130.529 121 126.5 116.971 126.5 112C126.5 107.029 130.529 103 135.5 103C140.471 103 144.5 107.029 144.5 112Z" stroke="#059E6F" stroke-width="1.5" stroke-linecap="round" stroke-linejoin="round"/>
<path d="M159.434 117C159.247 117 159.154 116.907 159.154 116.72V107.886H156.228C156.041 107.886 155.948 107.793 155.948 107.606V107.34C155.948 107.153 156.041 107.06 156.228 107.06H163.06C163.247 107.06 163.34 107.153 163.34 107.34V107.606C163.34 107.793 163.247 107.886 163.06 107.886H160.148V116.72C160.148 116.907 160.055 117 159.868 117H159.434ZM166.146 117.182C165.502 117.182 164.928 117.028 164.424 116.72C163.92 116.412 163.528 115.987 163.248 115.446C162.968 114.895 162.828 114.265 162.828 113.556C162.828 112.847 162.968 112.221 163.248 111.68C163.528 111.129 163.92 110.7 164.424 110.392C164.928 110.084 165.502 109.93 166.146 109.93C166.79 109.93 167.364 110.084 167.868 110.392C168.372 110.7 168.764 111.129 169.044 111.68C169.324 112.221 169.464 112.847 169.464 113.556C169.464 114.265 169.324 114.895 169.044 115.446C168.764 115.987 168.372 116.412 167.868 116.72C167.364 117.028 166.79 117.182 166.146 117.182ZM166.146 116.412C166.865 116.412 167.439 116.151 167.868 115.628C168.297 115.096 168.512 114.405 168.512 113.556C168.512 112.707 168.297 112.021 167.868 111.498C167.439 110.966 166.865 110.7 166.146 110.7C165.427 110.7 164.853 110.966 164.424 111.498C163.995 112.021 163.78 112.707 163.78 113.556C163.78 114.405 163.995 115.096 164.424 115.628C164.853 116.151 165.427 116.412 166.146 116.412ZM173.729 109.93C174.579 109.93 175.241 110.135 175.717 110.546C176.193 110.947 176.431 111.479 176.431 112.142V116.72C176.431 116.907 176.338 117 176.151 117H175.871C175.685 117 175.591 116.907 175.591 116.72V116.09C175.358 116.463 175.027 116.743 174.597 116.93C174.177 117.117 173.706 117.21 173.183 117.21C172.455 117.21 171.863 117.056 171.405 116.748C170.948 116.44 170.719 115.964 170.719 115.32C170.719 114.807 170.864 114.396 171.153 114.088C171.443 113.771 171.821 113.533 172.287 113.374C172.754 113.206 173.337 113.057 174.037 112.926L175.549 112.66V112.212C175.549 111.736 175.386 111.367 175.059 111.106C174.733 110.835 174.303 110.7 173.771 110.7C173.37 110.7 173.006 110.775 172.679 110.924C172.353 111.073 172.003 111.33 171.629 111.694C171.564 111.759 171.494 111.792 171.419 111.792C171.354 111.792 171.293 111.764 171.237 111.708L171.055 111.54C170.99 111.475 170.957 111.405 170.957 111.33C170.957 111.246 170.99 111.171 171.055 111.106C171.447 110.695 171.858 110.397 172.287 110.21C172.726 110.023 173.207 109.93 173.729 109.93ZM173.225 116.44C173.897 116.44 174.453 116.263 174.891 115.908C175.33 115.553 175.549 115.101 175.549 114.55V113.374L174.247 113.626C173.641 113.747 173.16 113.864 172.805 113.976C172.451 114.088 172.166 114.251 171.951 114.466C171.737 114.681 171.629 114.961 171.629 115.306C171.629 115.661 171.769 115.941 172.049 116.146C172.339 116.342 172.731 116.44 173.225 116.44ZM180.887 117.182C180.318 117.182 179.814 117.103 179.375 116.944C178.946 116.776 178.493 116.496 178.017 116.104C177.933 116.048 177.891 115.983 177.891 115.908C177.891 115.843 177.924 115.777 177.989 115.712L178.171 115.516C178.227 115.441 178.297 115.404 178.381 115.404C178.447 115.404 178.507 115.432 178.563 115.488C179.011 115.833 179.408 116.076 179.753 116.216C180.099 116.347 180.477 116.412 180.887 116.412C181.401 116.412 181.821 116.3 182.147 116.076C182.474 115.843 182.637 115.53 182.637 115.138C182.637 114.746 182.469 114.457 182.133 114.27C181.797 114.083 181.279 113.915 180.579 113.766C179.963 113.635 179.478 113.5 179.123 113.36C178.778 113.211 178.521 113.024 178.353 112.8C178.185 112.576 178.101 112.282 178.101 111.918C178.101 111.321 178.344 110.84 178.829 110.476C179.315 110.112 179.926 109.93 180.663 109.93C181.167 109.93 181.615 109.995 182.007 110.126C182.409 110.247 182.81 110.453 183.211 110.742C183.295 110.807 183.337 110.877 183.337 110.952C183.337 110.999 183.314 111.059 183.267 111.134L183.099 111.344C183.053 111.419 182.987 111.456 182.903 111.456C182.829 111.456 182.763 111.433 182.707 111.386C182.325 111.115 181.984 110.933 181.685 110.84C181.396 110.747 181.065 110.7 180.691 110.7C180.178 110.7 179.767 110.812 179.459 111.036C179.151 111.26 178.997 111.545 178.997 111.89C178.997 112.105 179.067 112.277 179.207 112.408C179.347 112.539 179.548 112.651 179.809 112.744C180.071 112.828 180.453 112.926 180.957 113.038C181.891 113.243 182.553 113.495 182.945 113.794C183.347 114.093 183.547 114.527 183.547 115.096C183.547 115.721 183.3 116.225 182.805 116.608C182.311 116.991 181.671 117.182 180.887 117.182ZM188.191 116.23C188.219 116.221 188.256 116.216 188.303 116.216C188.359 116.216 188.41 116.235 188.457 116.272C188.504 116.309 188.532 116.361 188.541 116.426L188.583 116.622C188.592 116.641 188.597 116.673 188.597 116.72C188.597 116.851 188.527 116.93 188.387 116.958C188.051 117.061 187.692 117.112 187.309 117.112C186.702 117.112 186.268 116.977 186.007 116.706C185.755 116.426 185.629 116.025 185.629 115.502V110.798H184.593C184.406 110.798 184.313 110.705 184.313 110.518V110.378C184.313 110.191 184.406 110.098 184.593 110.098H185.629V107.97C185.629 107.783 185.722 107.69 185.909 107.69H186.273C186.46 107.69 186.553 107.783 186.553 107.97V110.098H188.233C188.42 110.098 188.513 110.191 188.513 110.378V110.518C188.513 110.705 188.42 110.798 188.233 110.798H186.553V115.39C186.553 115.735 186.618 115.978 186.749 116.118C186.88 116.258 187.104 116.328 187.421 116.328C187.645 116.328 187.902 116.295 188.191 116.23ZM200.163 109.93C200.91 109.93 201.479 110.145 201.871 110.574C202.273 110.994 202.473 111.535 202.473 112.198V116.72C202.473 116.907 202.38 117 202.193 117H201.829C201.643 117 201.549 116.907 201.549 116.72V112.45C201.549 111.89 201.419 111.461 201.157 111.162C200.905 110.863 200.527 110.714 200.023 110.714C199.491 110.714 199.067 110.891 198.749 111.246C198.432 111.601 198.273 112.058 198.273 112.618V116.72C198.273 116.907 198.18 117 197.993 117H197.629C197.443 117 197.349 116.907 197.349 116.72V112.45C197.349 111.89 197.219 111.461 196.957 111.162C196.705 110.863 196.323 110.714 195.809 110.714C195.333 110.714 194.937 110.863 194.619 111.162C194.311 111.461 194.129 111.853 194.073 112.338V116.72C194.073 116.907 193.98 117 193.793 117H193.429C193.243 117 193.149 116.907 193.149 116.72V110.378C193.149 110.191 193.243 110.098 193.429 110.098H193.737C193.924 110.098 194.017 110.191 194.017 110.378V110.952C194.437 110.271 195.105 109.93 196.019 109.93C196.495 109.93 196.901 110.037 197.237 110.252C197.583 110.457 197.839 110.737 198.007 111.092C198.502 110.317 199.221 109.93 200.163 109.93ZM209.537 115.362C209.602 115.297 209.672 115.264 209.747 115.264C209.812 115.264 209.873 115.292 209.929 115.348L210.111 115.516C210.176 115.581 210.209 115.651 210.209 115.726C210.209 115.782 210.181 115.847 210.125 115.922C209.667 116.379 209.224 116.706 208.795 116.902C208.365 117.089 207.885 117.182 207.353 117.182C206.681 117.182 206.097 117.033 205.603 116.734C205.108 116.435 204.725 116.02 204.455 115.488C204.184 114.947 204.049 114.321 204.049 113.612C204.049 112.893 204.179 112.259 204.441 111.708C204.711 111.148 205.089 110.714 205.575 110.406C206.06 110.089 206.62 109.93 207.255 109.93C208.197 109.93 208.939 110.224 209.481 110.812C210.022 111.4 210.293 112.193 210.293 113.192V113.36C210.283 113.444 210.251 113.509 210.195 113.556C210.148 113.603 210.083 113.626 209.999 113.626H204.987C205.015 114.41 205.22 115.073 205.603 115.614C205.995 116.146 206.578 116.412 207.353 116.412C207.773 116.412 208.141 116.337 208.459 116.188C208.785 116.029 209.145 115.754 209.537 115.362ZM207.255 110.7C206.639 110.7 206.13 110.891 205.729 111.274C205.337 111.647 205.099 112.198 205.015 112.926H209.369C209.35 112.245 209.154 111.703 208.781 111.302C208.407 110.901 207.899 110.7 207.255 110.7ZM214.411 117.182C213.841 117.182 213.337 117.103 212.899 116.944C212.469 116.776 212.017 116.496 211.541 116.104C211.457 116.048 211.415 115.983 211.415 115.908C211.415 115.843 211.447 115.777 211.513 115.712L211.695 115.516C211.751 115.441 211.821 115.404 211.905 115.404C211.97 115.404 212.031 115.432 212.087 115.488C212.535 115.833 212.931 116.076 213.277 116.216C213.622 116.347 214 116.412 214.411 116.412C214.924 116.412 215.344 116.3 215.671 116.076C215.997 115.843 216.161 115.53 216.161 115.138C216.161 114.746 215.993 114.457 215.657 114.27C215.321 114.083 214.803 113.915 214.103 113.766C213.487 113.635 213.001 113.5 212.647 113.36C212.301 113.211 212.045 113.024 211.877 112.8C211.709 112.576 211.625 112.282 211.625 111.918C211.625 111.321 211.867 110.84 212.353 110.476C212.838 110.112 213.449 109.93 214.187 109.93C214.691 109.93 215.139 109.995 215.531 110.126C215.932 110.247 216.333 110.453 216.735 110.742C216.819 110.807 216.861 110.877 216.861 110.952C216.861 110.999 216.837 111.059 216.791 111.134L216.623 111.344C216.576 111.419 216.511 111.456 216.427 111.456C216.352 111.456 216.287 111.433 216.231 111.386C215.848 111.115 215.507 110.933 215.209 110.84C214.919 110.747 214.588 110.7 214.215 110.7C213.701 110.7 213.291 110.812 212.983 111.036C212.675 111.26 212.521 111.545 212.521 111.89C212.521 112.105 212.591 112.277 212.731 112.408C212.871 112.539 213.071 112.651 213.333 112.744C213.594 112.828 213.977 112.926 214.481 113.038C215.414 113.243 216.077 113.495 216.469 113.794C216.87 114.093 217.071 114.527 217.071 115.096C217.071 115.721 216.823 116.225 216.329 116.608C215.834 116.991 215.195 117.182 214.411 117.182ZM221.042 117.182C220.472 117.182 219.968 117.103 219.53 116.944C219.1 116.776 218.648 116.496 218.172 116.104C218.088 116.048 218.046 115.983 218.046 115.908C218.046 115.843 218.078 115.777 218.144 115.712L218.326 115.516C218.382 115.441 218.452 115.404 218.536 115.404C218.601 115.404 218.662 115.432 218.718 115.488C219.166 115.833 219.562 116.076 219.908 116.216C220.253 116.347 220.631 116.412 221.042 116.412C221.555 116.412 221.975 116.3 222.302 116.076C222.628 115.843 222.792 115.53 222.792 115.138C222.792 114.746 222.624 114.457 222.288 114.27C221.952 114.083 221.434 113.915 220.734 113.766C220.118 113.635 219.632 113.5 219.278 113.36C218.932 113.211 218.676 113.024 218.508 112.8C218.34 112.576 218.256 112.282 218.256 111.918C218.256 111.321 218.498 110.84 218.984 110.476C219.469 110.112 220.08 109.93 220.818 109.93C221.322 109.93 221.77 109.995 222.162 110.126C222.563 110.247 222.964 110.453 223.366 110.742C223.45 110.807 223.492 110.877 223.492 110.952C223.492 110.999 223.468 111.059 223.422 111.134L223.254 111.344C223.207 111.419 223.142 111.456 223.058 111.456C222.983 111.456 222.918 111.433 222.862 111.386C222.479 111.115 222.138 110.933 221.84 110.84C221.55 110.747 221.219 110.7 220.846 110.7C220.332 110.7 219.922 110.812 219.614 111.036C219.306 111.26 219.152 111.545 219.152 111.89C219.152 112.105 219.222 112.277 219.362 112.408C219.502 112.539 219.702 112.651 219.964 112.744C220.225 112.828 220.608 112.926 221.112 113.038C222.045 113.243 222.708 113.495 223.1 113.794C223.501 114.093 223.702 114.527 223.702 115.096C223.702 115.721 223.454 116.225 222.96 116.608C222.465 116.991 221.826 117.182 221.042 117.182ZM227.979 109.93C228.829 109.93 229.491 110.135 229.967 110.546C230.443 110.947 230.681 111.479 230.681 112.142V116.72C230.681 116.907 230.588 117 230.401 117H230.121C229.935 117 229.841 116.907 229.841 116.72V116.09C229.608 116.463 229.277 116.743 228.847 116.93C228.427 117.117 227.956 117.21 227.433 117.21C226.705 117.21 226.113 117.056 225.655 116.748C225.198 116.44 224.969 115.964 224.969 115.32C224.969 114.807 225.114 114.396 225.403 114.088C225.693 113.771 226.071 113.533 226.537 113.374C227.004 113.206 227.587 113.057 228.287 112.926L229.799 112.66V112.212C229.799 111.736 229.636 111.367 229.309 111.106C228.983 110.835 228.553 110.7 228.021 110.7C227.62 110.7 227.256 110.775 226.929 110.924C226.603 111.073 226.253 111.33 225.879 111.694C225.814 111.759 225.744 111.792 225.669 111.792C225.604 111.792 225.543 111.764 225.487 111.708L225.305 111.54C225.24 111.475 225.207 111.405 225.207 111.33C225.207 111.246 225.24 111.171 225.305 111.106C225.697 110.695 226.108 110.397 226.537 110.21C226.976 110.023 227.457 109.93 227.979 109.93ZM227.475 116.44C228.147 116.44 228.703 116.263 229.141 115.908C229.58 115.553 229.799 115.101 229.799 114.55V113.374L228.497 113.626C227.891 113.747 227.41 113.864 227.055 113.976C226.701 114.088 226.416 114.251 226.201 114.466C225.987 114.681 225.879 114.961 225.879 115.306C225.879 115.661 226.019 115.941 226.299 116.146C226.589 116.342 226.981 116.44 227.475 116.44ZM237.685 110.378C237.685 110.191 237.779 110.098 237.965 110.098H238.259C238.446 110.098 238.539 110.191 238.539 110.378V116.93C238.539 117.798 238.278 118.479 237.755 118.974C237.233 119.478 236.5 119.73 235.557 119.73C234.54 119.73 233.602 119.441 232.743 118.862C232.65 118.806 232.603 118.736 232.603 118.652C232.603 118.587 232.622 118.531 232.659 118.484L232.827 118.246C232.883 118.153 232.958 118.106 233.051 118.106C233.089 118.106 233.145 118.125 233.219 118.162C233.63 118.423 234.013 118.619 234.367 118.75C234.731 118.881 235.128 118.946 235.557 118.946C236.173 118.946 236.673 118.773 237.055 118.428C237.438 118.092 237.629 117.569 237.629 116.86V115.74C237.125 116.552 236.36 116.958 235.333 116.958C234.736 116.958 234.209 116.809 233.751 116.51C233.294 116.202 232.939 115.782 232.687 115.25C232.445 114.718 232.323 114.116 232.323 113.444C232.323 112.772 232.445 112.17 232.687 111.638C232.939 111.106 233.294 110.691 233.751 110.392C234.209 110.084 234.736 109.93 235.333 109.93C235.875 109.93 236.341 110.047 236.733 110.28C237.135 110.504 237.452 110.826 237.685 111.246V110.378ZM235.431 116.174C236.103 116.174 236.64 115.922 237.041 115.418C237.443 114.905 237.643 114.247 237.643 113.444C237.643 112.641 237.443 111.988 237.041 111.484C236.64 110.971 236.103 110.714 235.431 110.714C234.75 110.714 234.218 110.966 233.835 111.47C233.462 111.974 233.275 112.632 233.275 113.444C233.275 114.256 233.462 114.914 233.835 115.418C234.218 115.922 234.75 116.174 235.431 116.174ZM245.644 115.362C245.709 115.297 245.779 115.264 245.854 115.264C245.919 115.264 245.98 115.292 246.036 115.348L246.218 115.516C246.283 115.581 246.316 115.651 246.316 115.726C246.316 115.782 246.288 115.847 246.232 115.922C245.775 116.379 245.331 116.706 244.902 116.902C244.473 117.089 243.992 117.182 243.46 117.182C242.788 117.182 242.205 117.033 241.71 116.734C241.215 116.435 240.833 116.02 240.562 115.488C240.291 114.947 240.156 114.321 240.156 113.612C240.156 112.893 240.287 112.259 240.548 111.708C240.819 111.148 241.197 110.714 241.682 110.406C242.167 110.089 242.727 109.93 243.362 109.93C244.305 109.93 245.047 110.224 245.588 110.812C246.129 111.4 246.4 112.193 246.4 113.192V113.36C246.391 113.444 246.358 113.509 246.302 113.556C246.255 113.603 246.19 113.626 246.106 113.626H241.094C241.122 114.41 241.327 115.073 241.71 115.614C242.102 116.146 242.685 116.412 243.46 116.412C243.88 116.412 244.249 116.337 244.566 116.188C244.893 116.029 245.252 115.754 245.644 115.362ZM243.362 110.7C242.746 110.7 242.237 110.891 241.836 111.274C241.444 111.647 241.206 112.198 241.122 112.926H245.476C245.457 112.245 245.261 111.703 244.888 111.302C244.515 110.901 244.006 110.7 243.362 110.7Z" fill="#1B1B1F"/>
<path d="M431 107.5L422 116.5M431 116.5L422 107.5" stroke="#1B1B1F" stroke-linecap="round" stroke-linejoin="round"/>
<rect x="167" width="41" height="40" rx="20" fill="#BE3830"/>
<path d="M184.218 17.426C184.283 16.5673 184.615 15.8953 185.212 15.41C185.809 14.9247 186.584 14.682 187.536 14.682C188.171 14.682 188.717 14.7987 189.174 15.032C189.641 15.256 189.991 15.564 190.224 15.956C190.467 16.348 190.588 16.7913 190.588 17.286C190.588 17.8647 190.42 18.364 190.084 18.784C189.757 19.204 189.328 19.4747 188.796 19.596V19.666C189.403 19.8153 189.883 20.1093 190.238 20.548C190.593 20.9867 190.77 21.5607 190.77 22.27C190.77 22.802 190.649 23.2827 190.406 23.712C190.163 24.132 189.799 24.4633 189.314 24.706C188.829 24.9487 188.245 25.07 187.564 25.07C186.575 25.07 185.763 24.8133 185.128 24.3C184.493 23.7773 184.139 23.04 184.064 22.088H185.296C185.361 22.648 185.59 23.1053 185.982 23.46C186.374 23.8147 186.897 23.992 187.55 23.992C188.203 23.992 188.698 23.824 189.034 23.488C189.379 23.1427 189.552 22.6993 189.552 22.158C189.552 21.458 189.319 20.954 188.852 20.646C188.385 20.338 187.681 20.184 186.738 20.184H186.416V19.12H186.752C187.611 19.1107 188.259 18.9707 188.698 18.7C189.137 18.42 189.356 17.9907 189.356 17.412C189.356 16.9173 189.193 16.5207 188.866 16.222C188.549 15.9233 188.091 15.774 187.494 15.774C186.915 15.774 186.449 15.9233 186.094 16.222C185.739 16.5207 185.529 16.922 185.464 17.426H184.218Z" fill="white"/>
<rect width="62" height="3" transform="translate(189 40) rotate(90)" fill="#BE3830"/>
<rect x="115" width="41" height="40" rx="20" fill="#BE3830"/>
<path d="M132.188 23.978C133.373 23.026 134.302 22.2467 134.974 21.64C135.646 21.024 136.21 20.3847 136.668 19.722C137.134 19.05 137.368 18.392 137.368 17.748C137.368 17.1413 137.218 16.6653 136.92 16.32C136.63 15.9653 136.159 15.788 135.506 15.788C134.871 15.788 134.376 15.9887 134.022 16.39C133.676 16.782 133.49 17.3093 133.462 17.972H132.23C132.267 16.9267 132.584 16.1193 133.182 15.55C133.779 14.9807 134.549 14.696 135.492 14.696C136.453 14.696 137.214 14.962 137.774 15.494C138.343 16.026 138.628 16.7587 138.628 17.692C138.628 18.4667 138.394 19.2227 137.928 19.96C137.47 20.688 136.948 21.332 136.36 21.892C135.772 22.4427 135.02 23.0867 134.106 23.824H138.922V24.888H132.188V23.978Z" fill="white"/>
<rect width="62" height="3" transform="translate(137 40) rotate(90)" fill="#BE3830"/>
<rect width="80" height="3" transform="translate(438 110.5)" fill="#BE3830"/>
<rect x="518" y="92" width="41" height="40" rx="20" fill="#BE3830"/>
<path d="M534.658 114.746V113.78L539.572 106.976H541.098V113.64H542.498V114.746H541.098V117H539.838V114.746H534.658ZM539.894 108.306L536.128 113.64H539.894V108.306Z" fill="white"/>
<rect y="93" width="40" height="40" rx="20" fill="#BE3830"/>
<path d="M18.2898 109.04V107.878H20.9218V118H19.6338V109.04H18.2898Z" fill="white"/>
<rect width="68" height="3" transform="translate(40 111.5)" fill="#BE3830"/>
</svg>
