<svg width="640" height="200" viewBox="0 0 640 200" fill="none" xmlns="http://www.w3.org/2000/svg">
<g clip-path="url(#clip0_2300_441)">
<rect width="640" height="200" rx="8" fill="white"/>
<g filter="url(#filter0_i_2300_441)">
<rect x="41.285" y="-857.128" width="470.432" height="990.254" rx="70.9134" fill="white"/>
</g>
<rect x="44.0688" y="-854.344" width="464.864" height="984.687" rx="68.1296" stroke="#989892" stroke-width="5.56767"/>
<g filter="url(#filter1_i_2300_441)">
<rect x="40" y="-858" width="473.003" height="992" rx="73.6645" fill="black" fill-opacity="0.01"/>
</g>
<rect x="40.4283" y="-857.572" width="472.146" height="991.143" rx="73.2362" stroke="#1B1C16" stroke-width="0.856564"/>
<g filter="url(#filter2_i_2300_441)">
<path d="M41 -781.954C41 -823.401 74.033 -857 114.781 -857H438.219C478.967 -857 512 -823.401 512 -781.954V57.9539C512 99.4008 478.967 133 438.219 133H114.781C74.033 133 41 99.4008 41 57.9539V-781.954Z" fill="black" fill-opacity="0.01"/>
</g>
<path d="M114.781 -856.357H438.219C478.602 -856.357 511.357 -823.056 511.357 -781.954V57.9542C511.357 99.0565 478.602 132.357 438.219 132.358H114.781C74.3981 132.357 41.6427 99.0565 41.6425 57.9542V-781.954C41.6427 -823.056 74.3981 -856.357 114.781 -856.357Z" stroke="url(#paint0_linear_2300_441)" stroke-width="1.28485"/>
<rect x="106.002" y="34" width="341" height="58" rx="7" fill="#EBFFF6"/>
<rect x="106.002" y="34" width="341" height="58" rx="7" stroke="#67EEB8" stroke-width="2"/>
<path d="M129.252 63.75L131.502 66L136.752 60.75M142.002 63C142.002 67.9706 137.972 72 133.002 72C128.031 72 124.002 67.9706 124.002 63C124.002 58.0294 128.031 54 133.002 54C137.972 54 142.002 58.0294 142.002 63Z" stroke="#059E6F" stroke-width="1.5" stroke-linecap="round" stroke-linejoin="round"/>
<path d="M156.936 68C156.749 68 156.656 67.9067 156.656 67.72V58.886H153.73C153.543 58.886 153.45 58.7927 153.45 58.606V58.34C153.45 58.1533 153.543 58.06 153.73 58.06H160.562C160.748 58.06 160.842 58.1533 160.842 58.34V58.606C160.842 58.7927 160.748 58.886 160.562 58.886H157.65V67.72C157.65 67.9067 157.556 68 157.37 68H156.936ZM163.647 68.182C163.003 68.182 162.429 68.028 161.925 67.72C161.421 67.412 161.029 66.9873 160.749 66.446C160.469 65.8953 160.329 65.2653 160.329 64.556C160.329 63.8467 160.469 63.2213 160.749 62.68C161.029 62.1293 161.421 61.7 161.925 61.392C162.429 61.084 163.003 60.93 163.647 60.93C164.291 60.93 164.865 61.084 165.369 61.392C165.873 61.7 166.265 62.1293 166.545 62.68C166.825 63.2213 166.965 63.8467 166.965 64.556C166.965 65.2653 166.825 65.8953 166.545 66.446C166.265 66.9873 165.873 67.412 165.369 67.72C164.865 68.028 164.291 68.182 163.647 68.182ZM163.647 67.412C164.366 67.412 164.94 67.1507 165.369 66.628C165.799 66.096 166.013 65.4053 166.013 64.556C166.013 63.7067 165.799 63.0207 165.369 62.498C164.94 61.966 164.366 61.7 163.647 61.7C162.929 61.7 162.355 61.966 161.925 62.498C161.496 63.0207 161.281 63.7067 161.281 64.556C161.281 65.4053 161.496 66.096 161.925 66.628C162.355 67.1507 162.929 67.412 163.647 67.412ZM171.231 60.93C172.08 60.93 172.743 61.1353 173.219 61.546C173.695 61.9473 173.933 62.4793 173.933 63.142V67.72C173.933 67.9067 173.839 68 173.653 68H173.373C173.186 68 173.093 67.9067 173.093 67.72V67.09C172.859 67.4633 172.528 67.7433 172.099 67.93C171.679 68.1167 171.207 68.21 170.685 68.21C169.957 68.21 169.364 68.056 168.907 67.748C168.449 67.44 168.221 66.964 168.221 66.32C168.221 65.8067 168.365 65.396 168.655 65.088C168.944 64.7707 169.322 64.5327 169.789 64.374C170.255 64.206 170.839 64.0567 171.539 63.926L173.051 63.66V63.212C173.051 62.736 172.887 62.3673 172.561 62.106C172.234 61.8353 171.805 61.7 171.273 61.7C170.871 61.7 170.507 61.7747 170.181 61.924C169.854 62.0733 169.504 62.33 169.131 62.694C169.065 62.7593 168.995 62.792 168.921 62.792C168.855 62.792 168.795 62.764 168.739 62.708L168.557 62.54C168.491 62.4747 168.459 62.4047 168.459 62.33C168.459 62.246 168.491 62.1713 168.557 62.106C168.949 61.6953 169.359 61.3967 169.789 61.21C170.227 61.0233 170.708 60.93 171.231 60.93ZM170.727 67.44C171.399 67.44 171.954 67.2627 172.393 66.908C172.831 66.5533 173.051 66.1007 173.051 65.55V64.374L171.749 64.626C171.142 64.7473 170.661 64.864 170.307 64.976C169.952 65.088 169.667 65.2513 169.453 65.466C169.238 65.6807 169.131 65.9607 169.131 66.306C169.131 66.6607 169.271 66.9407 169.551 67.146C169.84 67.342 170.232 67.44 170.727 67.44ZM178.389 68.182C177.82 68.182 177.316 68.1027 176.877 67.944C176.448 67.776 175.995 67.496 175.519 67.104C175.435 67.048 175.393 66.9827 175.393 66.908C175.393 66.8427 175.426 66.7773 175.491 66.712L175.673 66.516C175.729 66.4413 175.799 66.404 175.883 66.404C175.948 66.404 176.009 66.432 176.065 66.488C176.513 66.8333 176.91 67.076 177.255 67.216C177.6 67.3467 177.978 67.412 178.389 67.412C178.902 67.412 179.322 67.3 179.649 67.076C179.976 66.8427 180.139 66.53 180.139 66.138C180.139 65.746 179.971 65.4567 179.635 65.27C179.299 65.0833 178.781 64.9153 178.081 64.766C177.465 64.6353 176.98 64.5 176.625 64.36C176.28 64.2107 176.023 64.024 175.855 63.8C175.687 63.576 175.603 63.282 175.603 62.918C175.603 62.3207 175.846 61.84 176.331 61.476C176.816 61.112 177.428 60.93 178.165 60.93C178.669 60.93 179.117 60.9953 179.509 61.126C179.91 61.2473 180.312 61.4527 180.713 61.742C180.797 61.8073 180.839 61.8773 180.839 61.952C180.839 61.9987 180.816 62.0593 180.769 62.134L180.601 62.344C180.554 62.4187 180.489 62.456 180.405 62.456C180.33 62.456 180.265 62.4327 180.209 62.386C179.826 62.1153 179.486 61.9333 179.187 61.84C178.898 61.7467 178.566 61.7 178.193 61.7C177.68 61.7 177.269 61.812 176.961 62.036C176.653 62.26 176.499 62.5447 176.499 62.89C176.499 63.1047 176.569 63.2773 176.709 63.408C176.849 63.5387 177.05 63.6507 177.311 63.744C177.572 63.828 177.955 63.926 178.459 64.038C179.392 64.2433 180.055 64.4953 180.447 64.794C180.848 65.0927 181.049 65.5267 181.049 66.096C181.049 66.7213 180.802 67.2253 180.307 67.608C179.812 67.9907 179.173 68.182 178.389 68.182ZM185.692 67.23C185.72 67.2207 185.758 67.216 185.804 67.216C185.86 67.216 185.912 67.2347 185.958 67.272C186.005 67.3093 186.033 67.3607 186.042 67.426L186.084 67.622C186.094 67.6407 186.098 67.6733 186.098 67.72C186.098 67.8507 186.028 67.93 185.888 67.958C185.552 68.0607 185.193 68.112 184.81 68.112C184.204 68.112 183.77 67.9767 183.508 67.706C183.256 67.426 183.13 67.0247 183.13 66.502V61.798H182.094C181.908 61.798 181.814 61.7047 181.814 61.518V61.378C181.814 61.1913 181.908 61.098 182.094 61.098H183.13V58.97C183.13 58.7833 183.224 58.69 183.41 58.69H183.774C183.961 58.69 184.054 58.7833 184.054 58.97V61.098H185.734C185.921 61.098 186.014 61.1913 186.014 61.378V61.518C186.014 61.7047 185.921 61.798 185.734 61.798H184.054V66.39C184.054 66.7353 184.12 66.978 184.25 67.118C184.381 67.258 184.605 67.328 184.922 67.328C185.146 67.328 185.403 67.2953 185.692 67.23ZM197.665 60.93C198.412 60.93 198.981 61.1447 199.373 61.574C199.774 61.994 199.975 62.5353 199.975 63.198V67.72C199.975 67.9067 199.882 68 199.695 68H199.331C199.144 68 199.051 67.9067 199.051 67.72V63.45C199.051 62.89 198.92 62.4607 198.659 62.162C198.407 61.8633 198.029 61.714 197.525 61.714C196.993 61.714 196.568 61.8913 196.251 62.246C195.934 62.6007 195.775 63.058 195.775 63.618V67.72C195.775 67.9067 195.682 68 195.495 68H195.131C194.944 68 194.851 67.9067 194.851 67.72V63.45C194.851 62.89 194.72 62.4607 194.459 62.162C194.207 61.8633 193.824 61.714 193.311 61.714C192.835 61.714 192.438 61.8633 192.121 62.162C191.813 62.4607 191.631 62.8527 191.575 63.338V67.72C191.575 67.9067 191.482 68 191.295 68H190.931C190.744 68 190.651 67.9067 190.651 67.72V61.378C190.651 61.1913 190.744 61.098 190.931 61.098H191.239C191.426 61.098 191.519 61.1913 191.519 61.378V61.952C191.939 61.2707 192.606 60.93 193.521 60.93C193.997 60.93 194.403 61.0373 194.739 61.252C195.084 61.4573 195.341 61.7373 195.509 62.092C196.004 61.3173 196.722 60.93 197.665 60.93ZM207.038 66.362C207.103 66.2967 207.173 66.264 207.248 66.264C207.313 66.264 207.374 66.292 207.43 66.348L207.612 66.516C207.677 66.5813 207.71 66.6513 207.71 66.726C207.71 66.782 207.682 66.8473 207.626 66.922C207.169 67.3793 206.725 67.706 206.296 67.902C205.867 68.0887 205.386 68.182 204.854 68.182C204.182 68.182 203.599 68.0327 203.104 67.734C202.609 67.4353 202.227 67.02 201.956 66.488C201.685 65.9467 201.55 65.3213 201.55 64.612C201.55 63.8933 201.681 63.2587 201.942 62.708C202.213 62.148 202.591 61.714 203.076 61.406C203.561 61.0887 204.121 60.93 204.756 60.93C205.699 60.93 206.441 61.224 206.982 61.812C207.523 62.4 207.794 63.1933 207.794 64.192V64.36C207.785 64.444 207.752 64.5093 207.696 64.556C207.649 64.6027 207.584 64.626 207.5 64.626H202.488C202.516 65.41 202.721 66.0727 203.104 66.614C203.496 67.146 204.079 67.412 204.854 67.412C205.274 67.412 205.643 67.3373 205.96 67.188C206.287 67.0293 206.646 66.754 207.038 66.362ZM204.756 61.7C204.14 61.7 203.631 61.8913 203.23 62.274C202.838 62.6473 202.6 63.198 202.516 63.926H206.87C206.851 63.2447 206.655 62.7033 206.282 62.302C205.909 61.9007 205.4 61.7 204.756 61.7ZM211.912 68.182C211.343 68.182 210.839 68.1027 210.4 67.944C209.971 67.776 209.518 67.496 209.042 67.104C208.958 67.048 208.916 66.9827 208.916 66.908C208.916 66.8427 208.949 66.7773 209.014 66.712L209.196 66.516C209.252 66.4413 209.322 66.404 209.406 66.404C209.472 66.404 209.532 66.432 209.588 66.488C210.036 66.8333 210.433 67.076 210.778 67.216C211.124 67.3467 211.502 67.412 211.912 67.412C212.426 67.412 212.846 67.3 213.172 67.076C213.499 66.8427 213.662 66.53 213.662 66.138C213.662 65.746 213.494 65.4567 213.158 65.27C212.822 65.0833 212.304 64.9153 211.604 64.766C210.988 64.6353 210.503 64.5 210.148 64.36C209.803 64.2107 209.546 64.024 209.378 63.8C209.21 63.576 209.126 63.282 209.126 62.918C209.126 62.3207 209.369 61.84 209.854 61.476C210.34 61.112 210.951 60.93 211.688 60.93C212.192 60.93 212.64 60.9953 213.032 61.126C213.434 61.2473 213.835 61.4527 214.236 61.742C214.32 61.8073 214.362 61.8773 214.362 61.952C214.362 61.9987 214.339 62.0593 214.292 62.134L214.124 62.344C214.078 62.4187 214.012 62.456 213.928 62.456C213.854 62.456 213.788 62.4327 213.732 62.386C213.35 62.1153 213.009 61.9333 212.71 61.84C212.421 61.7467 212.09 61.7 211.716 61.7C211.203 61.7 210.792 61.812 210.484 62.036C210.176 62.26 210.022 62.5447 210.022 62.89C210.022 63.1047 210.092 63.2773 210.232 63.408C210.372 63.5387 210.573 63.6507 210.834 63.744C211.096 63.828 211.478 63.926 211.982 64.038C212.916 64.2433 213.578 64.4953 213.97 64.794C214.372 65.0927 214.572 65.5267 214.572 66.096C214.572 66.7213 214.325 67.2253 213.83 67.608C213.336 67.9907 212.696 68.182 211.912 68.182ZM218.543 68.182C217.974 68.182 217.47 68.1027 217.031 67.944C216.602 67.776 216.149 67.496 215.673 67.104C215.589 67.048 215.547 66.9827 215.547 66.908C215.547 66.8427 215.58 66.7773 215.645 66.712L215.827 66.516C215.883 66.4413 215.953 66.404 216.037 66.404C216.103 66.404 216.163 66.432 216.219 66.488C216.667 66.8333 217.064 67.076 217.409 67.216C217.755 67.3467 218.133 67.412 218.543 67.412C219.057 67.412 219.477 67.3 219.803 67.076C220.13 66.8427 220.293 66.53 220.293 66.138C220.293 65.746 220.125 65.4567 219.789 65.27C219.453 65.0833 218.935 64.9153 218.235 64.766C217.619 64.6353 217.134 64.5 216.779 64.36C216.434 64.2107 216.177 64.024 216.009 63.8C215.841 63.576 215.757 63.282 215.757 62.918C215.757 62.3207 216 61.84 216.485 61.476C216.971 61.112 217.582 60.93 218.319 60.93C218.823 60.93 219.271 60.9953 219.663 61.126C220.065 61.2473 220.466 61.4527 220.867 61.742C220.951 61.8073 220.993 61.8773 220.993 61.952C220.993 61.9987 220.97 62.0593 220.923 62.134L220.755 62.344C220.709 62.4187 220.643 62.456 220.559 62.456C220.485 62.456 220.419 62.4327 220.363 62.386C219.981 62.1153 219.64 61.9333 219.341 61.84C219.052 61.7467 218.721 61.7 218.347 61.7C217.834 61.7 217.423 61.812 217.115 62.036C216.807 62.26 216.653 62.5447 216.653 62.89C216.653 63.1047 216.723 63.2773 216.863 63.408C217.003 63.5387 217.204 63.6507 217.465 63.744C217.727 63.828 218.109 63.926 218.613 64.038C219.547 64.2433 220.209 64.4953 220.601 64.794C221.003 65.0927 221.203 65.5267 221.203 66.096C221.203 66.7213 220.956 67.2253 220.461 67.608C219.967 67.9907 219.327 68.182 218.543 68.182ZM225.481 60.93C226.33 60.93 226.993 61.1353 227.469 61.546C227.945 61.9473 228.183 62.4793 228.183 63.142V67.72C228.183 67.9067 228.089 68 227.903 68H227.623C227.436 68 227.343 67.9067 227.343 67.72V67.09C227.109 67.4633 226.778 67.7433 226.349 67.93C225.929 68.1167 225.457 68.21 224.935 68.21C224.207 68.21 223.614 68.056 223.157 67.748C222.699 67.44 222.471 66.964 222.471 66.32C222.471 65.8067 222.615 65.396 222.905 65.088C223.194 64.7707 223.572 64.5327 224.039 64.374C224.505 64.206 225.089 64.0567 225.789 63.926L227.301 63.66V63.212C227.301 62.736 227.137 62.3673 226.811 62.106C226.484 61.8353 226.055 61.7 225.523 61.7C225.121 61.7 224.757 61.7747 224.431 61.924C224.104 62.0733 223.754 62.33 223.381 62.694C223.315 62.7593 223.245 62.792 223.171 62.792C223.105 62.792 223.045 62.764 222.989 62.708L222.807 62.54C222.741 62.4747 222.709 62.4047 222.709 62.33C222.709 62.246 222.741 62.1713 222.807 62.106C223.199 61.6953 223.609 61.3967 224.039 61.21C224.477 61.0233 224.958 60.93 225.481 60.93ZM224.977 67.44C225.649 67.44 226.204 67.2627 226.643 66.908C227.081 66.5533 227.301 66.1007 227.301 65.55V64.374L225.999 64.626C225.392 64.7473 224.911 64.864 224.557 64.976C224.202 65.088 223.917 65.2513 223.703 65.466C223.488 65.6807 223.381 65.9607 223.381 66.306C223.381 66.6607 223.521 66.9407 223.801 67.146C224.09 67.342 224.482 67.44 224.977 67.44ZM235.187 61.378C235.187 61.1913 235.28 61.098 235.467 61.098H235.761C235.948 61.098 236.041 61.1913 236.041 61.378V67.93C236.041 68.798 235.78 69.4793 235.257 69.974C234.734 70.478 234.002 70.73 233.059 70.73C232.042 70.73 231.104 70.4407 230.245 69.862C230.152 69.806 230.105 69.736 230.105 69.652C230.105 69.5867 230.124 69.5307 230.161 69.484L230.329 69.246C230.385 69.1527 230.46 69.106 230.553 69.106C230.59 69.106 230.646 69.1247 230.721 69.162C231.132 69.4233 231.514 69.6193 231.869 69.75C232.233 69.8807 232.63 69.946 233.059 69.946C233.675 69.946 234.174 69.7733 234.557 69.428C234.94 69.092 235.131 68.5693 235.131 67.86V66.74C234.627 67.552 233.862 67.958 232.835 67.958C232.238 67.958 231.71 67.8087 231.253 67.51C230.796 67.202 230.441 66.782 230.189 66.25C229.946 65.718 229.825 65.116 229.825 64.444C229.825 63.772 229.946 63.17 230.189 62.638C230.441 62.106 230.796 61.6907 231.253 61.392C231.71 61.084 232.238 60.93 232.835 60.93C233.376 60.93 233.843 61.0467 234.235 61.28C234.636 61.504 234.954 61.826 235.187 62.246V61.378ZM232.933 67.174C233.605 67.174 234.142 66.922 234.543 66.418C234.944 65.9047 235.145 65.2467 235.145 64.444C235.145 63.6413 234.944 62.988 234.543 62.484C234.142 61.9707 233.605 61.714 232.933 61.714C232.252 61.714 231.72 61.966 231.337 62.47C230.964 62.974 230.777 63.632 230.777 64.444C230.777 65.256 230.964 65.914 231.337 66.418C231.72 66.922 232.252 67.174 232.933 67.174ZM243.146 66.362C243.211 66.2967 243.281 66.264 243.356 66.264C243.421 66.264 243.482 66.292 243.538 66.348L243.72 66.516C243.785 66.5813 243.818 66.6513 243.818 66.726C243.818 66.782 243.79 66.8473 243.734 66.922C243.276 67.3793 242.833 67.706 242.404 67.902C241.974 68.0887 241.494 68.182 240.962 68.182C240.29 68.182 239.706 68.0327 239.212 67.734C238.717 67.4353 238.334 67.02 238.064 66.488C237.793 65.9467 237.658 65.3213 237.658 64.612C237.658 63.8933 237.788 63.2587 238.05 62.708C238.32 62.148 238.698 61.714 239.184 61.406C239.669 61.0887 240.229 60.93 240.864 60.93C241.806 60.93 242.548 61.224 243.09 61.812C243.631 62.4 243.902 63.1933 243.902 64.192V64.36C243.892 64.444 243.86 64.5093 243.804 64.556C243.757 64.6027 243.692 64.626 243.608 64.626H238.596C238.624 65.41 238.829 66.0727 239.212 66.614C239.604 67.146 240.187 67.412 240.962 67.412C241.382 67.412 241.75 67.3373 242.068 67.188C242.394 67.0293 242.754 66.754 243.146 66.362ZM240.864 61.7C240.248 61.7 239.739 61.8913 239.338 62.274C238.946 62.6473 238.708 63.198 238.624 63.926H242.978C242.959 63.2447 242.763 62.7033 242.39 62.302C242.016 61.9007 241.508 61.7 240.864 61.7Z" fill="#1B1B1F"/>
<path d="M428.502 58.5L419.502 67.5M428.502 67.5L419.502 58.5" stroke="#1B1B1F" stroke-linecap="round" stroke-linejoin="round"/>
<line x1="542" y1="-42" x2="542" y2="134" stroke="#CACAD1"/>
<path d="M556.78 32.284C556.836 32.1347 556.943 32.06 557.102 32.06H557.536C557.611 32.06 557.671 32.0787 557.718 32.116C557.765 32.1533 557.788 32.2047 557.788 32.27L557.76 32.382L554.54 41.776C554.484 41.9253 554.377 42 554.218 42H553.434C553.275 42 553.168 41.9253 553.112 41.776L549.892 32.382L549.864 32.27C549.864 32.2047 549.887 32.1533 549.934 32.116C549.981 32.0787 550.041 32.06 550.116 32.06H550.55C550.709 32.06 550.816 32.1347 550.872 32.284L552.496 37.058C553.121 38.8687 553.569 40.2547 553.84 41.216C554.101 40.2733 554.545 38.892 555.17 37.072L556.78 32.284ZM559.652 33.348C559.466 33.348 559.307 33.2827 559.176 33.152C559.055 33.0213 558.994 32.8627 558.994 32.676C558.994 32.4893 559.055 32.3353 559.176 32.214C559.307 32.0927 559.466 32.032 559.652 32.032C559.848 32.032 560.007 32.0927 560.128 32.214C560.259 32.3353 560.324 32.4893 560.324 32.676C560.324 32.8627 560.259 33.0213 560.128 33.152C560.007 33.2827 559.848 33.348 559.652 33.348ZM559.47 42C559.284 42 559.19 41.9067 559.19 41.72V35.378C559.19 35.1913 559.284 35.098 559.47 35.098H559.834C560.021 35.098 560.114 35.1913 560.114 35.378V41.72C560.114 41.9067 560.021 42 559.834 42H559.47ZM567.197 40.362C567.262 40.2967 567.332 40.264 567.407 40.264C567.472 40.264 567.533 40.292 567.589 40.348L567.771 40.516C567.836 40.5813 567.869 40.6513 567.869 40.726C567.869 40.782 567.841 40.8473 567.785 40.922C567.327 41.3793 566.884 41.706 566.455 41.902C566.025 42.0887 565.545 42.182 565.013 42.182C564.341 42.182 563.757 42.0327 563.263 41.734C562.768 41.4353 562.385 41.02 562.115 40.488C561.844 39.9467 561.709 39.3213 561.709 38.612C561.709 37.8933 561.839 37.2587 562.101 36.708C562.371 36.148 562.749 35.714 563.235 35.406C563.72 35.0887 564.28 34.93 564.915 34.93C565.857 34.93 566.599 35.224 567.141 35.812C567.682 36.4 567.953 37.1933 567.953 38.192V38.36C567.943 38.444 567.911 38.5093 567.855 38.556C567.808 38.6027 567.743 38.626 567.659 38.626H562.647C562.675 39.41 562.88 40.0727 563.263 40.614C563.655 41.146 564.238 41.412 565.013 41.412C565.433 41.412 565.801 41.3373 566.119 41.188C566.445 41.0293 566.805 40.754 567.197 40.362ZM564.915 35.7C564.299 35.7 563.79 35.8913 563.389 36.274C562.997 36.6473 562.759 37.198 562.675 37.926H567.029C567.01 37.2447 566.814 36.7033 566.441 36.302C566.067 35.9007 565.559 35.7 564.915 35.7ZM577.281 35.336C577.318 35.1773 577.426 35.098 577.603 35.098H577.981C578.084 35.098 578.154 35.126 578.191 35.182C578.238 35.238 578.247 35.3127 578.219 35.406L576.413 41.762C576.376 41.9207 576.268 42 576.091 42H575.461C575.302 42 575.2 41.9207 575.153 41.762L574.509 39.62C574.173 38.5 573.86 37.352 573.571 36.176C573.291 37.3147 572.983 38.472 572.647 39.648L572.031 41.762C571.994 41.9207 571.886 42 571.709 42H571.107C570.93 42 570.822 41.9207 570.785 41.762L568.979 35.406C568.97 35.3873 568.965 35.3547 568.965 35.308C568.965 35.2427 568.988 35.1913 569.035 35.154C569.082 35.1167 569.142 35.098 569.217 35.098H569.595C569.772 35.098 569.88 35.1773 569.917 35.336L570.589 37.814C570.897 38.9433 571.182 40.068 571.443 41.188C571.648 40.3573 571.952 39.2327 572.353 37.814L573.067 35.336C573.104 35.1773 573.212 35.098 573.389 35.098H573.809C573.977 35.098 574.08 35.1773 574.117 35.336L574.845 37.814C575.162 38.962 575.461 40.0913 575.741 41.202C575.956 40.2687 576.245 39.1393 576.609 37.814L577.281 35.336ZM582.988 34.944C583.567 34.944 584.085 35.098 584.542 35.406C585.009 35.7047 585.373 36.1293 585.634 36.68C585.896 37.2213 586.026 37.842 586.026 38.542C586.026 39.2513 585.896 39.8813 585.634 40.432C585.373 40.9827 585.014 41.412 584.556 41.72C584.099 42.0187 583.576 42.168 582.988 42.168C581.906 42.168 581.112 41.7713 580.608 40.978V44.296C580.608 44.4827 580.515 44.576 580.328 44.576H579.964C579.778 44.576 579.684 44.4827 579.684 44.296V35.378C579.684 35.1913 579.778 35.098 579.964 35.098H580.272C580.459 35.098 580.552 35.1913 580.552 35.378V36.26C580.804 35.8307 581.136 35.504 581.546 35.28C581.957 35.056 582.438 34.944 582.988 34.944ZM582.918 41.384C583.572 41.384 584.094 41.1227 584.486 40.6C584.878 40.0773 585.074 39.3913 585.074 38.542C585.074 37.702 584.878 37.0253 584.486 36.512C584.094 35.9893 583.572 35.728 582.918 35.728C582.218 35.728 581.649 35.98 581.21 36.484C580.781 36.9787 580.566 37.6647 580.566 38.542C580.566 39.4193 580.786 40.1147 581.224 40.628C581.663 41.132 582.228 41.384 582.918 41.384ZM590.607 42.182C589.963 42.182 589.389 42.028 588.885 41.72C588.381 41.412 587.989 40.9873 587.709 40.446C587.429 39.8953 587.289 39.2653 587.289 38.556C587.289 37.8467 587.429 37.2213 587.709 36.68C587.989 36.1293 588.381 35.7 588.885 35.392C589.389 35.084 589.963 34.93 590.607 34.93C591.251 34.93 591.825 35.084 592.329 35.392C592.833 35.7 593.225 36.1293 593.505 36.68C593.785 37.2213 593.925 37.8467 593.925 38.556C593.925 39.2653 593.785 39.8953 593.505 40.446C593.225 40.9873 592.833 41.412 592.329 41.72C591.825 42.028 591.251 42.182 590.607 42.182ZM590.607 41.412C591.326 41.412 591.9 41.1507 592.329 40.628C592.758 40.096 592.973 39.4053 592.973 38.556C592.973 37.7067 592.758 37.0207 592.329 36.498C591.9 35.966 591.326 35.7 590.607 35.7C589.888 35.7 589.314 35.966 588.885 36.498C588.456 37.0207 588.241 37.7067 588.241 38.556C588.241 39.4053 588.456 40.096 588.885 40.628C589.314 41.1507 589.888 41.412 590.607 41.412ZM598.106 35.042C598.339 35.042 598.615 35.0793 598.932 35.154C599.1 35.21 599.165 35.3267 599.128 35.504L599.072 35.728C599.025 35.9053 598.909 35.9707 598.722 35.924C598.498 35.868 598.293 35.84 598.106 35.84C597.63 35.84 597.233 36.0453 596.916 36.456C596.608 36.8667 596.454 37.436 596.454 38.164V41.72C596.454 41.9067 596.361 42 596.174 42H595.81C595.623 42 595.53 41.9067 595.53 41.72V35.378C595.53 35.1913 595.623 35.098 595.81 35.098H596.118C596.305 35.098 596.398 35.1913 596.398 35.378V36.148C596.557 35.8027 596.781 35.532 597.07 35.336C597.369 35.14 597.714 35.042 598.106 35.042ZM603.628 41.23C603.656 41.2207 603.694 41.216 603.74 41.216C603.796 41.216 603.848 41.2347 603.894 41.272C603.941 41.3093 603.969 41.3607 603.978 41.426L604.02 41.622C604.03 41.6407 604.034 41.6733 604.034 41.72C604.034 41.8507 603.964 41.93 603.824 41.958C603.488 42.0607 603.129 42.112 602.746 42.112C602.14 42.112 601.706 41.9767 601.444 41.706C601.192 41.426 601.066 41.0247 601.066 40.502V35.798H600.03C599.844 35.798 599.75 35.7047 599.75 35.518V35.378C599.75 35.1913 599.844 35.098 600.03 35.098H601.066V32.97C601.066 32.7833 601.16 32.69 601.346 32.69H601.71C601.897 32.69 601.99 32.7833 601.99 32.97V35.098H603.67C603.857 35.098 603.95 35.1913 603.95 35.378V35.518C603.95 35.7047 603.857 35.798 603.67 35.798H601.99V40.39C601.99 40.7353 602.056 40.978 602.186 41.118C602.317 41.258 602.541 41.328 602.858 41.328C603.082 41.328 603.339 41.2953 603.628 41.23ZM553.616 52.93C554.419 52.93 555.03 53.1587 555.45 53.616C555.87 54.064 556.08 54.6193 556.08 55.282V59.72C556.08 59.9067 555.987 60 555.8 60H555.436C555.249 60 555.156 59.9067 555.156 59.72V55.59C555.156 54.974 555.007 54.5073 554.708 54.19C554.409 53.8727 553.98 53.714 553.42 53.714C553.065 53.714 552.739 53.8027 552.44 53.98C552.141 54.148 551.903 54.3813 551.726 54.68C551.549 54.9787 551.46 55.3053 551.46 55.66V59.72C551.46 59.9067 551.367 60 551.18 60H550.816C550.629 60 550.536 59.9067 550.536 59.72V50.34C550.536 50.1533 550.629 50.06 550.816 50.06H551.18C551.367 50.06 551.46 50.1533 551.46 50.34V53.994C551.684 53.6393 551.983 53.3733 552.356 53.196C552.739 53.0187 553.159 52.93 553.616 52.93ZM563.15 58.362C563.215 58.2967 563.285 58.264 563.36 58.264C563.425 58.264 563.486 58.292 563.542 58.348L563.724 58.516C563.789 58.5813 563.822 58.6513 563.822 58.726C563.822 58.782 563.794 58.8473 563.738 58.922C563.281 59.3793 562.837 59.706 562.408 59.902C561.979 60.0887 561.498 60.182 560.966 60.182C560.294 60.182 559.711 60.0327 559.216 59.734C558.721 59.4353 558.339 59.02 558.068 58.488C557.797 57.9467 557.662 57.3213 557.662 56.612C557.662 55.8933 557.793 55.2587 558.054 54.708C558.325 54.148 558.703 53.714 559.188 53.406C559.673 53.0887 560.233 52.93 560.868 52.93C561.811 52.93 562.553 53.224 563.094 53.812C563.635 54.4 563.906 55.1933 563.906 56.192V56.36C563.897 56.444 563.864 56.5093 563.808 56.556C563.761 56.6027 563.696 56.626 563.612 56.626H558.6C558.628 57.41 558.833 58.0727 559.216 58.614C559.608 59.146 560.191 59.412 560.966 59.412C561.386 59.412 561.755 59.3373 562.072 59.188C562.399 59.0293 562.758 58.754 563.15 58.362ZM560.868 53.7C560.252 53.7 559.743 53.8913 559.342 54.274C558.95 54.6473 558.712 55.198 558.628 55.926H562.982C562.963 55.2447 562.767 54.7033 562.394 54.302C562.021 53.9007 561.512 53.7 560.868 53.7ZM566.023 51.348C565.837 51.348 565.678 51.2827 565.547 51.152C565.426 51.0213 565.365 50.8627 565.365 50.676C565.365 50.4893 565.426 50.3353 565.547 50.214C565.678 50.0927 565.837 50.032 566.023 50.032C566.219 50.032 566.378 50.0927 566.499 50.214C566.63 50.3353 566.695 50.4893 566.695 50.676C566.695 50.8627 566.63 51.0213 566.499 51.152C566.378 51.2827 566.219 51.348 566.023 51.348ZM565.841 60C565.655 60 565.561 59.9067 565.561 59.72V53.378C565.561 53.1913 565.655 53.098 565.841 53.098H566.205C566.392 53.098 566.485 53.1913 566.485 53.378V59.72C566.485 59.9067 566.392 60 566.205 60H565.841ZM573.498 53.378C573.498 53.1913 573.591 53.098 573.778 53.098H574.072C574.259 53.098 574.352 53.1913 574.352 53.378V59.93C574.352 60.798 574.091 61.4793 573.568 61.974C573.045 62.478 572.313 62.73 571.37 62.73C570.353 62.73 569.415 62.4407 568.556 61.862C568.463 61.806 568.416 61.736 568.416 61.652C568.416 61.5867 568.435 61.5307 568.472 61.484L568.64 61.246C568.696 61.1527 568.771 61.106 568.864 61.106C568.901 61.106 568.957 61.1247 569.032 61.162C569.443 61.4233 569.825 61.6193 570.18 61.75C570.544 61.8807 570.941 61.946 571.37 61.946C571.986 61.946 572.485 61.7733 572.868 61.428C573.251 61.092 573.442 60.5693 573.442 59.86V58.74C572.938 59.552 572.173 59.958 571.146 59.958C570.549 59.958 570.021 59.8087 569.564 59.51C569.107 59.202 568.752 58.782 568.5 58.25C568.257 57.718 568.136 57.116 568.136 56.444C568.136 55.772 568.257 55.17 568.5 54.638C568.752 54.106 569.107 53.6907 569.564 53.392C570.021 53.084 570.549 52.93 571.146 52.93C571.687 52.93 572.154 53.0467 572.546 53.28C572.947 53.504 573.265 53.826 573.498 54.246V53.378ZM571.244 59.174C571.916 59.174 572.453 58.922 572.854 58.418C573.255 57.9047 573.456 57.2467 573.456 56.444C573.456 55.6413 573.255 54.988 572.854 54.484C572.453 53.9707 571.916 53.714 571.244 53.714C570.563 53.714 570.031 53.966 569.648 54.47C569.275 54.974 569.088 55.632 569.088 56.444C569.088 57.256 569.275 57.914 569.648 58.418C570.031 58.922 570.563 59.174 571.244 59.174ZM579.511 52.93C580.313 52.93 580.925 53.1587 581.345 53.616C581.765 54.064 581.975 54.6193 581.975 55.282V59.72C581.975 59.9067 581.881 60 581.695 60H581.331C581.144 60 581.051 59.9067 581.051 59.72V55.59C581.051 54.974 580.901 54.5073 580.603 54.19C580.304 53.8727 579.875 53.714 579.315 53.714C578.96 53.714 578.633 53.8027 578.335 53.98C578.036 54.148 577.798 54.3813 577.621 54.68C577.443 54.9787 577.355 55.3053 577.355 55.66V59.72C577.355 59.9067 577.261 60 577.075 60H576.711C576.524 60 576.431 59.9067 576.431 59.72V50.34C576.431 50.1533 576.524 50.06 576.711 50.06H577.075C577.261 50.06 577.355 50.1533 577.355 50.34V53.994C577.579 53.6393 577.877 53.3733 578.251 53.196C578.633 53.0187 579.053 52.93 579.511 52.93ZM586.935 59.23C586.963 59.2207 587 59.216 587.047 59.216C587.103 59.216 587.154 59.2347 587.201 59.272C587.248 59.3093 587.276 59.3607 587.285 59.426L587.327 59.622C587.336 59.6407 587.341 59.6733 587.341 59.72C587.341 59.8507 587.271 59.93 587.131 59.958C586.795 60.0607 586.436 60.112 586.053 60.112C585.446 60.112 585.012 59.9767 584.751 59.706C584.499 59.426 584.373 59.0247 584.373 58.502V53.798H583.337C583.15 53.798 583.057 53.7047 583.057 53.518V53.378C583.057 53.1913 583.15 53.098 583.337 53.098H584.373V50.97C584.373 50.7833 584.466 50.69 584.653 50.69H585.017C585.204 50.69 585.297 50.7833 585.297 50.97V53.098H586.977C587.164 53.098 587.257 53.1913 587.257 53.378V53.518C587.257 53.7047 587.164 53.798 586.977 53.798H585.297V58.39C585.297 58.7353 585.362 58.978 585.493 59.118C585.624 59.258 585.848 59.328 586.165 59.328C586.389 59.328 586.646 59.2953 586.935 59.23Z" fill="#5C5C66"/>
<line x1="41" y1="157.5" x2="518" y2="157.5" stroke="#CACAD1"/>
<path d="M241.007 170.284C241.063 170.135 241.17 170.06 241.329 170.06H241.763C241.837 170.06 241.898 170.079 241.945 170.116C241.991 170.153 242.015 170.205 242.015 170.27L241.987 170.382L238.767 179.776C238.711 179.925 238.603 180 238.445 180H237.661C237.502 180 237.395 179.925 237.339 179.776L234.119 170.382L234.091 170.27C234.091 170.205 234.114 170.153 234.161 170.116C234.207 170.079 234.268 170.06 234.343 170.06H234.777C234.935 170.06 235.043 170.135 235.099 170.284L236.723 175.058C237.348 176.869 237.796 178.255 238.067 179.216C238.328 178.273 238.771 176.892 239.397 175.072L241.007 170.284ZM243.879 171.348C243.692 171.348 243.534 171.283 243.403 171.152C243.282 171.021 243.221 170.863 243.221 170.676C243.221 170.489 243.282 170.335 243.403 170.214C243.534 170.093 243.692 170.032 243.879 170.032C244.075 170.032 244.234 170.093 244.355 170.214C244.486 170.335 244.551 170.489 244.551 170.676C244.551 170.863 244.486 171.021 244.355 171.152C244.234 171.283 244.075 171.348 243.879 171.348ZM243.697 180C243.51 180 243.417 179.907 243.417 179.72V173.378C243.417 173.191 243.51 173.098 243.697 173.098H244.061C244.248 173.098 244.341 173.191 244.341 173.378V179.72C244.341 179.907 244.248 180 244.061 180H243.697ZM251.423 178.362C251.489 178.297 251.559 178.264 251.633 178.264C251.699 178.264 251.759 178.292 251.815 178.348L251.997 178.516C252.063 178.581 252.095 178.651 252.095 178.726C252.095 178.782 252.067 178.847 252.011 178.922C251.554 179.379 251.111 179.706 250.681 179.902C250.252 180.089 249.771 180.182 249.239 180.182C248.567 180.182 247.984 180.033 247.489 179.734C246.995 179.435 246.612 179.02 246.341 178.488C246.071 177.947 245.935 177.321 245.935 176.612C245.935 175.893 246.066 175.259 246.327 174.708C246.598 174.148 246.976 173.714 247.461 173.406C247.947 173.089 248.507 172.93 249.141 172.93C250.084 172.93 250.826 173.224 251.367 173.812C251.909 174.4 252.179 175.193 252.179 176.192V176.36C252.17 176.444 252.137 176.509 252.081 176.556C252.035 176.603 251.969 176.626 251.885 176.626H246.873C246.901 177.41 247.107 178.073 247.489 178.614C247.881 179.146 248.465 179.412 249.239 179.412C249.659 179.412 250.028 179.337 250.345 179.188C250.672 179.029 251.031 178.754 251.423 178.362ZM249.141 173.7C248.525 173.7 248.017 173.891 247.615 174.274C247.223 174.647 246.985 175.198 246.901 175.926H251.255C251.237 175.245 251.041 174.703 250.667 174.302C250.294 173.901 249.785 173.7 249.141 173.7ZM261.507 173.336C261.545 173.177 261.652 173.098 261.829 173.098H262.207C262.31 173.098 262.38 173.126 262.417 173.182C262.464 173.238 262.473 173.313 262.445 173.406L260.639 179.762C260.602 179.921 260.495 180 260.317 180H259.687C259.529 180 259.426 179.921 259.379 179.762L258.735 177.62C258.399 176.5 258.087 175.352 257.797 174.176C257.517 175.315 257.209 176.472 256.873 177.648L256.257 179.762C256.22 179.921 256.113 180 255.935 180H255.333C255.156 180 255.049 179.921 255.011 179.762L253.205 173.406C253.196 173.387 253.191 173.355 253.191 173.308C253.191 173.243 253.215 173.191 253.261 173.154C253.308 173.117 253.369 173.098 253.443 173.098H253.821C253.999 173.098 254.106 173.177 254.143 173.336L254.815 175.814C255.123 176.943 255.408 178.068 255.669 179.188C255.875 178.357 256.178 177.233 256.579 175.814L257.293 173.336C257.331 173.177 257.438 173.098 257.615 173.098H258.035C258.203 173.098 258.306 173.177 258.343 173.336L259.071 175.814C259.389 176.962 259.687 178.091 259.967 179.202C260.182 178.269 260.471 177.139 260.835 175.814L261.507 173.336ZM267.215 172.944C267.794 172.944 268.312 173.098 268.769 173.406C269.236 173.705 269.6 174.129 269.861 174.68C270.122 175.221 270.253 175.842 270.253 176.542C270.253 177.251 270.122 177.881 269.861 178.432C269.6 178.983 269.24 179.412 268.783 179.72C268.326 180.019 267.803 180.168 267.215 180.168C266.132 180.168 265.339 179.771 264.835 178.978V182.296C264.835 182.483 264.742 182.576 264.555 182.576H264.191C264.004 182.576 263.911 182.483 263.911 182.296V173.378C263.911 173.191 264.004 173.098 264.191 173.098H264.499C264.686 173.098 264.779 173.191 264.779 173.378V174.26C265.031 173.831 265.362 173.504 265.773 173.28C266.184 173.056 266.664 172.944 267.215 172.944ZM267.145 179.384C267.798 179.384 268.321 179.123 268.713 178.6C269.105 178.077 269.301 177.391 269.301 176.542C269.301 175.702 269.105 175.025 268.713 174.512C268.321 173.989 267.798 173.728 267.145 173.728C266.445 173.728 265.876 173.98 265.437 174.484C265.008 174.979 264.793 175.665 264.793 176.542C264.793 177.419 265.012 178.115 265.451 178.628C265.89 179.132 266.454 179.384 267.145 179.384ZM274.833 180.182C274.189 180.182 273.615 180.028 273.111 179.72C272.607 179.412 272.215 178.987 271.935 178.446C271.655 177.895 271.515 177.265 271.515 176.556C271.515 175.847 271.655 175.221 271.935 174.68C272.215 174.129 272.607 173.7 273.111 173.392C273.615 173.084 274.189 172.93 274.833 172.93C275.477 172.93 276.051 173.084 276.555 173.392C277.059 173.7 277.451 174.129 277.731 174.68C278.011 175.221 278.151 175.847 278.151 176.556C278.151 177.265 278.011 177.895 277.731 178.446C277.451 178.987 277.059 179.412 276.555 179.72C276.051 180.028 275.477 180.182 274.833 180.182ZM274.833 179.412C275.552 179.412 276.126 179.151 276.555 178.628C276.985 178.096 277.199 177.405 277.199 176.556C277.199 175.707 276.985 175.021 276.555 174.498C276.126 173.966 275.552 173.7 274.833 173.7C274.115 173.7 273.541 173.966 273.111 174.498C272.682 175.021 272.467 175.707 272.467 176.556C272.467 177.405 272.682 178.096 273.111 178.628C273.541 179.151 274.115 179.412 274.833 179.412ZM282.333 173.042C282.566 173.042 282.841 173.079 283.159 173.154C283.327 173.21 283.392 173.327 283.355 173.504L283.299 173.728C283.252 173.905 283.135 173.971 282.949 173.924C282.725 173.868 282.519 173.84 282.333 173.84C281.857 173.84 281.46 174.045 281.143 174.456C280.835 174.867 280.681 175.436 280.681 176.164V179.72C280.681 179.907 280.587 180 280.401 180H280.037C279.85 180 279.757 179.907 279.757 179.72V173.378C279.757 173.191 279.85 173.098 280.037 173.098H280.345C280.531 173.098 280.625 173.191 280.625 173.378V174.148C280.783 173.803 281.007 173.532 281.297 173.336C281.595 173.14 281.941 173.042 282.333 173.042ZM287.855 179.23C287.883 179.221 287.92 179.216 287.967 179.216C288.023 179.216 288.074 179.235 288.121 179.272C288.168 179.309 288.196 179.361 288.205 179.426L288.247 179.622C288.256 179.641 288.261 179.673 288.261 179.72C288.261 179.851 288.191 179.93 288.051 179.958C287.715 180.061 287.356 180.112 286.973 180.112C286.366 180.112 285.932 179.977 285.671 179.706C285.419 179.426 285.293 179.025 285.293 178.502V173.798H284.257C284.07 173.798 283.977 173.705 283.977 173.518V173.378C283.977 173.191 284.07 173.098 284.257 173.098H285.293V170.97C285.293 170.783 285.386 170.69 285.573 170.69H285.937C286.124 170.69 286.217 170.783 286.217 170.97V173.098H287.897C288.084 173.098 288.177 173.191 288.177 173.378V173.518C288.177 173.705 288.084 173.798 287.897 173.798H286.217V178.39C286.217 178.735 286.282 178.978 286.413 179.118C286.544 179.258 286.768 179.328 287.085 179.328C287.309 179.328 287.566 179.295 287.855 179.23ZM300.513 173.336C300.551 173.177 300.658 173.098 300.835 173.098H301.213C301.316 173.098 301.386 173.126 301.423 173.182C301.47 173.238 301.479 173.313 301.451 173.406L299.645 179.762C299.608 179.921 299.501 180 299.323 180H298.693C298.535 180 298.432 179.921 298.385 179.762L297.741 177.62C297.405 176.5 297.093 175.352 296.803 174.176C296.523 175.315 296.215 176.472 295.879 177.648L295.263 179.762C295.226 179.921 295.119 180 294.941 180H294.339C294.162 180 294.055 179.921 294.017 179.762L292.211 173.406C292.202 173.387 292.197 173.355 292.197 173.308C292.197 173.243 292.221 173.191 292.267 173.154C292.314 173.117 292.375 173.098 292.449 173.098H292.827C293.005 173.098 293.112 173.177 293.149 173.336L293.821 175.814C294.129 176.943 294.414 178.068 294.675 179.188C294.881 178.357 295.184 177.233 295.585 175.814L296.299 173.336C296.337 173.177 296.444 173.098 296.621 173.098H297.041C297.209 173.098 297.312 173.177 297.349 173.336L298.077 175.814C298.395 176.962 298.693 178.091 298.973 179.202C299.188 178.269 299.477 177.139 299.841 175.814L300.513 173.336ZM303.379 171.348C303.192 171.348 303.034 171.283 302.903 171.152C302.782 171.021 302.721 170.863 302.721 170.676C302.721 170.489 302.782 170.335 302.903 170.214C303.034 170.093 303.192 170.032 303.379 170.032C303.575 170.032 303.734 170.093 303.855 170.214C303.986 170.335 304.051 170.489 304.051 170.676C304.051 170.863 303.986 171.021 303.855 171.152C303.734 171.283 303.575 171.348 303.379 171.348ZM303.197 180C303.01 180 302.917 179.907 302.917 179.72V173.378C302.917 173.191 303.01 173.098 303.197 173.098H303.561C303.748 173.098 303.841 173.191 303.841 173.378V179.72C303.841 179.907 303.748 180 303.561 180H303.197ZM310.881 170.34C310.881 170.153 310.975 170.06 311.161 170.06H311.525C311.712 170.06 311.805 170.153 311.805 170.34V179.72C311.805 179.907 311.712 180 311.525 180H311.231C311.045 180 310.951 179.907 310.951 179.72V178.81C310.699 179.249 310.368 179.585 309.957 179.818C309.547 180.051 309.061 180.168 308.501 180.168C307.913 180.168 307.391 180.019 306.933 179.72C306.476 179.412 306.117 178.987 305.855 178.446C305.594 177.895 305.463 177.265 305.463 176.556C305.463 175.847 305.594 175.221 305.855 174.68C306.126 174.129 306.495 173.705 306.961 173.406C307.428 173.098 307.951 172.944 308.529 172.944C309.593 172.944 310.377 173.341 310.881 174.134V170.34ZM308.571 179.384C309.271 179.384 309.836 179.137 310.265 178.642C310.704 178.138 310.923 177.443 310.923 176.556C310.923 175.679 310.704 174.988 310.265 174.484C309.836 173.98 309.271 173.728 308.571 173.728C307.927 173.728 307.405 173.989 307.003 174.512C306.611 175.035 306.415 175.716 306.415 176.556C306.415 177.405 306.611 178.091 307.003 178.614C307.395 179.127 307.918 179.384 308.571 179.384ZM316.99 179.23C317.018 179.221 317.055 179.216 317.102 179.216C317.158 179.216 317.209 179.235 317.256 179.272C317.302 179.309 317.33 179.361 317.34 179.426L317.382 179.622C317.391 179.641 317.396 179.673 317.396 179.72C317.396 179.851 317.326 179.93 317.186 179.958C316.85 180.061 316.49 180.112 316.108 180.112C315.501 180.112 315.067 179.977 314.806 179.706C314.554 179.426 314.428 179.025 314.428 178.502V173.798H313.392C313.205 173.798 313.112 173.705 313.112 173.518V173.378C313.112 173.191 313.205 173.098 313.392 173.098H314.428V170.97C314.428 170.783 314.521 170.69 314.708 170.69H315.072C315.258 170.69 315.352 170.783 315.352 170.97V173.098H317.032C317.218 173.098 317.312 173.191 317.312 173.378V173.518C317.312 173.705 317.218 173.798 317.032 173.798H315.352V178.39C315.352 178.735 315.417 178.978 315.548 179.118C315.678 179.258 315.902 179.328 316.22 179.328C316.444 179.328 316.7 179.295 316.99 179.23ZM321.802 172.93C322.604 172.93 323.216 173.159 323.636 173.616C324.056 174.064 324.266 174.619 324.266 175.282V179.72C324.266 179.907 324.172 180 323.986 180H323.622C323.435 180 323.342 179.907 323.342 179.72V175.59C323.342 174.974 323.192 174.507 322.894 174.19C322.595 173.873 322.166 173.714 321.606 173.714C321.251 173.714 320.924 173.803 320.626 173.98C320.327 174.148 320.089 174.381 319.912 174.68C319.734 174.979 319.646 175.305 319.646 175.66V179.72C319.646 179.907 319.552 180 319.366 180H319.002C318.815 180 318.722 179.907 318.722 179.72V170.34C318.722 170.153 318.815 170.06 319.002 170.06H319.366C319.552 170.06 319.646 170.153 319.646 170.34V173.994C319.87 173.639 320.168 173.373 320.542 173.196C320.924 173.019 321.344 172.93 321.802 172.93Z" fill="#5C5C66"/>
</g>
<defs>
<filter id="filter0_i_2300_441" x="41.285" y="-857.128" width="470.432" height="990.254" filterUnits="userSpaceOnUse" color-interpolation-filters="sRGB">
<feFlood flood-opacity="0" result="BackgroundImageFix"/>
<feBlend mode="normal" in="SourceGraphic" in2="BackgroundImageFix" result="shape"/>
<feColorMatrix in="SourceAlpha" type="matrix" values="0 0 0 0 0 0 0 0 0 0 0 0 0 0 0 0 0 0 127 0" result="hardAlpha"/>
<feMorphology radius="5.99595" operator="erode" in="SourceAlpha" result="effect1_innerShadow_2300_441"/>
<feOffset/>
<feGaussianBlur stdDeviation="0.214141"/>
<feComposite in2="hardAlpha" operator="arithmetic" k2="-1" k3="1"/>
<feColorMatrix type="matrix" values="0 0 0 0 0.247059 0 0 0 0 0.247059 0 0 0 0 0.247059 0 0 0 1 0"/>
<feBlend mode="normal" in2="shape" result="effect1_innerShadow_2300_441"/>
</filter>
<filter id="filter1_i_2300_441" x="40" y="-858" width="473.003" height="992" filterUnits="userSpaceOnUse" color-interpolation-filters="sRGB">
<feFlood flood-opacity="0" result="BackgroundImageFix"/>
<feBlend mode="normal" in="SourceGraphic" in2="BackgroundImageFix" result="shape"/>
<feColorMatrix in="SourceAlpha" type="matrix" values="0 0 0 0 0 0 0 0 0 0 0 0 0 0 0 0 0 0 127 0" result="hardAlpha"/>
<feMorphology radius="2.14141" operator="erode" in="SourceAlpha" result="effect1_innerShadow_2300_441"/>
<feOffset/>
<feGaussianBlur stdDeviation="0.214141"/>
<feComposite in2="hardAlpha" operator="arithmetic" k2="-1" k3="1"/>
<feColorMatrix type="matrix" values="0 0 0 0 0.466667 0 0 0 0 0.47451 0 0 0 0 0.419608 0 0 0 1 0"/>
<feBlend mode="normal" in2="shape" result="effect1_innerShadow_2300_441"/>
</filter>
<filter id="filter2_i_2300_441" x="41" y="-857" width="471" height="990" filterUnits="userSpaceOnUse" color-interpolation-filters="sRGB">
<feFlood flood-opacity="0" result="BackgroundImageFix"/>
<feBlend mode="normal" in="SourceGraphic" in2="BackgroundImageFix" result="shape"/>
<feColorMatrix in="SourceAlpha" type="matrix" values="0 0 0 0 0 0 0 0 0 0 0 0 0 0 0 0 0 0 127 0" result="hardAlpha"/>
<feMorphology radius="2.14141" operator="erode" in="SourceAlpha" result="effect1_innerShadow_2300_441"/>
<feOffset/>
<feGaussianBlur stdDeviation="0.214141"/>
<feComposite in2="hardAlpha" operator="arithmetic" k2="-1" k3="1"/>
<feColorMatrix type="matrix" values="0 0 0 0 0.686275 0 0 0 0 0.690196 0 0 0 0 0.670588 0 0 0 1 0"/>
<feBlend mode="normal" in2="shape" result="effect1_innerShadow_2300_441"/>
</filter>
<linearGradient id="paint0_linear_2300_441" x1="276.5" y1="-857" x2="276.5" y2="133" gradientUnits="userSpaceOnUse">
<stop stop-color="#F4F5F0"/>
<stop offset="1" stop-color="#FBFBFB"/>
</linearGradient>
<clipPath id="clip0_2300_441">
<rect width="640" height="200" rx="8" fill="white"/>
</clipPath>
</defs>
</svg>
