<svg width="343" height="60" viewBox="0 0 343 60" fill="none" xmlns="http://www.w3.org/2000/svg">
<rect x="1" y="1" width="341" height="58" rx="7" fill="#FFF8E6"/>
<rect x="1" y="1" width="341" height="58" rx="7" stroke="#FAE76B" stroke-width="2"/>
<path d="M28.0005 31.875V27M28.0005 34.5V35.25M29.3515 21.7706L37.5509 36.0084C38.1256 37.0116 37.3831 38.25 36.2 38.25H19.8012C18.6181 38.25 17.8756 37.0116 18.4503 36.0084L26.6496 21.7706C27.2403 20.7431 28.7609 20.7431 29.3515 21.7706Z" stroke="#D5840B" stroke-width="1.5" stroke-linecap="round" stroke-linejoin="round"/>
<path d="M51.934 35C51.7473 35 51.654 34.9067 51.654 34.72V25.886H48.728C48.5413 25.886 48.448 25.7927 48.448 25.606V25.34C48.448 25.1533 48.5413 25.06 48.728 25.06H55.56C55.7467 25.06 55.84 25.1533 55.84 25.34V25.606C55.84 25.7927 55.7467 25.886 55.56 25.886H52.648V34.72C52.648 34.9067 52.5547 35 52.368 35H51.934ZM58.6459 35.182C58.0019 35.182 57.4279 35.028 56.9239 34.72C56.4199 34.412 56.0279 33.9873 55.7479 33.446C55.4679 32.8953 55.3279 32.2653 55.3279 31.556C55.3279 30.8467 55.4679 30.2213 55.7479 29.68C56.0279 29.1293 56.4199 28.7 56.9239 28.392C57.4279 28.084 58.0019 27.93 58.6459 27.93C59.2899 27.93 59.8639 28.084 60.3679 28.392C60.8719 28.7 61.2639 29.1293 61.5439 29.68C61.8239 30.2213 61.9639 30.8467 61.9639 31.556C61.9639 32.2653 61.8239 32.8953 61.5439 33.446C61.2639 33.9873 60.8719 34.412 60.3679 34.72C59.8639 35.028 59.2899 35.182 58.6459 35.182ZM58.6459 34.412C59.3646 34.412 59.9386 34.1507 60.3679 33.628C60.7972 33.096 61.0119 32.4053 61.0119 31.556C61.0119 30.7067 60.7972 30.0207 60.3679 29.498C59.9386 28.966 59.3646 28.7 58.6459 28.7C57.9272 28.7 57.3532 28.966 56.9239 29.498C56.4946 30.0207 56.2799 30.7067 56.2799 31.556C56.2799 32.4053 56.4946 33.096 56.9239 33.628C57.3532 34.1507 57.9272 34.412 58.6459 34.412ZM66.2292 27.93C67.0785 27.93 67.7412 28.1353 68.2172 28.546C68.6932 28.9473 68.9312 29.4793 68.9312 30.142V34.72C68.9312 34.9067 68.8379 35 68.6512 35H68.3712C68.1845 35 68.0912 34.9067 68.0912 34.72V34.09C67.8579 34.4633 67.5265 34.7433 67.0972 34.93C66.6772 35.1167 66.2059 35.21 65.6832 35.21C64.9552 35.21 64.3625 35.056 63.9052 34.748C63.4479 34.44 63.2192 33.964 63.2192 33.32C63.2192 32.8067 63.3639 32.396 63.6532 32.088C63.9425 31.7707 64.3205 31.5327 64.7872 31.374C65.2539 31.206 65.8372 31.0567 66.5372 30.926L68.0492 30.66V30.212C68.0492 29.736 67.8859 29.3673 67.5592 29.106C67.2325 28.8353 66.8032 28.7 66.2712 28.7C65.8699 28.7 65.5059 28.7747 65.1792 28.924C64.8525 29.0733 64.5025 29.33 64.1292 29.694C64.0639 29.7593 63.9939 29.792 63.9192 29.792C63.8539 29.792 63.7932 29.764 63.7372 29.708L63.5552 29.54C63.4899 29.4747 63.4572 29.4047 63.4572 29.33C63.4572 29.246 63.4899 29.1713 63.5552 29.106C63.9472 28.6953 64.3579 28.3967 64.7872 28.21C65.2259 28.0233 65.7065 27.93 66.2292 27.93ZM65.7252 34.44C66.3972 34.44 66.9525 34.2627 67.3912 33.908C67.8299 33.5533 68.0492 33.1007 68.0492 32.55V31.374L66.7472 31.626C66.1405 31.7473 65.6599 31.864 65.3052 31.976C64.9505 32.088 64.6659 32.2513 64.4512 32.466C64.2365 32.6807 64.1292 32.9607 64.1292 33.306C64.1292 33.6607 64.2692 33.9407 64.5492 34.146C64.8385 34.342 65.2305 34.44 65.7252 34.44ZM73.3874 35.182C72.818 35.182 72.314 35.1027 71.8754 34.944C71.446 34.776 70.9934 34.496 70.5174 34.104C70.4334 34.048 70.3914 33.9827 70.3914 33.908C70.3914 33.8427 70.424 33.7773 70.4894 33.712L70.6714 33.516C70.7274 33.4413 70.7974 33.404 70.8814 33.404C70.9467 33.404 71.0074 33.432 71.0634 33.488C71.5114 33.8333 71.908 34.076 72.2534 34.216C72.5987 34.3467 72.9767 34.412 73.3874 34.412C73.9007 34.412 74.3207 34.3 74.6474 34.076C74.974 33.8427 75.1374 33.53 75.1374 33.138C75.1374 32.746 74.9694 32.4567 74.6334 32.27C74.2974 32.0833 73.7794 31.9153 73.0794 31.766C72.4634 31.6353 71.978 31.5 71.6234 31.36C71.278 31.2107 71.0214 31.024 70.8534 30.8C70.6854 30.576 70.6014 30.282 70.6014 29.918C70.6014 29.3207 70.844 28.84 71.3294 28.476C71.8147 28.112 72.426 27.93 73.1634 27.93C73.6674 27.93 74.1154 27.9953 74.5074 28.126C74.9087 28.2473 75.31 28.4527 75.7114 28.742C75.7954 28.8073 75.8374 28.8773 75.8374 28.952C75.8374 28.9987 75.814 29.0593 75.7674 29.134L75.5994 29.344C75.5527 29.4187 75.4874 29.456 75.4034 29.456C75.3287 29.456 75.2634 29.4327 75.2074 29.386C74.8247 29.1153 74.484 28.9333 74.1854 28.84C73.896 28.7467 73.5647 28.7 73.1914 28.7C72.678 28.7 72.2674 28.812 71.9594 29.036C71.6514 29.26 71.4974 29.5447 71.4974 29.89C71.4974 30.1047 71.5674 30.2773 71.7074 30.408C71.8474 30.5387 72.048 30.6507 72.3094 30.744C72.5707 30.828 72.9534 30.926 73.4574 31.038C74.3907 31.2433 75.0534 31.4953 75.4454 31.794C75.8467 32.0927 76.0474 32.5267 76.0474 33.096C76.0474 33.7213 75.8 34.2253 75.3054 34.608C74.8107 34.9907 74.1714 35.182 73.3874 35.182ZM80.6909 34.23C80.7189 34.2207 80.7562 34.216 80.8029 34.216C80.8589 34.216 80.9102 34.2347 80.9569 34.272C81.0035 34.3093 81.0315 34.3607 81.0409 34.426L81.0829 34.622C81.0922 34.6407 81.0969 34.6733 81.0969 34.72C81.0969 34.8507 81.0269 34.93 80.8869 34.958C80.5509 35.0607 80.1915 35.112 79.8089 35.112C79.2022 35.112 78.7682 34.9767 78.5069 34.706C78.2549 34.426 78.1289 34.0247 78.1289 33.502V28.798H77.0929C76.9062 28.798 76.8129 28.7047 76.8129 28.518V28.378C76.8129 28.1913 76.9062 28.098 77.0929 28.098H78.1289V25.97C78.1289 25.7833 78.2222 25.69 78.4089 25.69H78.7729C78.9595 25.69 79.0529 25.7833 79.0529 25.97V28.098H80.7329C80.9195 28.098 81.0129 28.1913 81.0129 28.378V28.518C81.0129 28.7047 80.9195 28.798 80.7329 28.798H79.0529V33.39C79.0529 33.7353 79.1182 33.978 79.2489 34.118C79.3795 34.258 79.6035 34.328 79.9209 34.328C80.1449 34.328 80.4015 34.2953 80.6909 34.23ZM92.6633 27.93C93.4099 27.93 93.9793 28.1447 94.3713 28.574C94.7726 28.994 94.9733 29.5353 94.9733 30.198V34.72C94.9733 34.9067 94.8799 35 94.6933 35H94.3293C94.1426 35 94.0493 34.9067 94.0493 34.72V30.45C94.0493 29.89 93.9186 29.4607 93.6573 29.162C93.4053 28.8633 93.0273 28.714 92.5233 28.714C91.9913 28.714 91.5666 28.8913 91.2493 29.246C90.9319 29.6007 90.7733 30.058 90.7733 30.618V34.72C90.7733 34.9067 90.6799 35 90.4933 35H90.1293C89.9426 35 89.8493 34.9067 89.8493 34.72V30.45C89.8493 29.89 89.7186 29.4607 89.4573 29.162C89.2053 28.8633 88.8226 28.714 88.3093 28.714C87.8333 28.714 87.4366 28.8633 87.1193 29.162C86.8113 29.4607 86.6293 29.8527 86.5733 30.338V34.72C86.5733 34.9067 86.4799 35 86.2933 35H85.9293C85.7426 35 85.6493 34.9067 85.6493 34.72V28.378C85.6493 28.1913 85.7426 28.098 85.9293 28.098H86.2373C86.4239 28.098 86.5173 28.1913 86.5173 28.378V28.952C86.9373 28.2707 87.6046 27.93 88.5193 27.93C88.9953 27.93 89.4013 28.0373 89.7373 28.252C90.0826 28.4573 90.3393 28.7373 90.5073 29.092C91.0019 28.3173 91.7206 27.93 92.6633 27.93ZM102.037 33.362C102.102 33.2967 102.172 33.264 102.247 33.264C102.312 33.264 102.373 33.292 102.429 33.348L102.611 33.516C102.676 33.5813 102.709 33.6513 102.709 33.726C102.709 33.782 102.681 33.8473 102.625 33.922C102.167 34.3793 101.724 34.706 101.295 34.902C100.865 35.0887 100.385 35.182 99.8526 35.182C99.1806 35.182 98.5973 35.0327 98.1026 34.734C97.6079 34.4353 97.2253 34.02 96.9546 33.488C96.6839 32.9467 96.5486 32.3213 96.5486 31.612C96.5486 30.8933 96.6793 30.2587 96.9406 29.708C97.2113 29.148 97.5893 28.714 98.0746 28.406C98.5599 28.0887 99.1199 27.93 99.7546 27.93C100.697 27.93 101.439 28.224 101.981 28.812C102.522 29.4 102.793 30.1933 102.793 31.192V31.36C102.783 31.444 102.751 31.5093 102.695 31.556C102.648 31.6027 102.583 31.626 102.499 31.626H97.4866C97.5146 32.41 97.7199 33.0727 98.1026 33.614C98.4946 34.146 99.0779 34.412 99.8526 34.412C100.273 34.412 100.641 34.3373 100.959 34.188C101.285 34.0293 101.645 33.754 102.037 33.362ZM99.7546 28.7C99.1386 28.7 98.6299 28.8913 98.2286 29.274C97.8366 29.6473 97.5986 30.198 97.5146 30.926H101.869C101.85 30.2447 101.654 29.7033 101.281 29.302C100.907 28.9007 100.399 28.7 99.7546 28.7ZM106.911 35.182C106.341 35.182 105.837 35.1027 105.399 34.944C104.969 34.776 104.517 34.496 104.041 34.104C103.957 34.048 103.915 33.9827 103.915 33.908C103.915 33.8427 103.947 33.7773 104.013 33.712L104.195 33.516C104.251 33.4413 104.321 33.404 104.405 33.404C104.47 33.404 104.531 33.432 104.587 33.488C105.035 33.8333 105.431 34.076 105.777 34.216C106.122 34.3467 106.5 34.412 106.911 34.412C107.424 34.412 107.844 34.3 108.171 34.076C108.497 33.8427 108.661 33.53 108.661 33.138C108.661 32.746 108.493 32.4567 108.157 32.27C107.821 32.0833 107.303 31.9153 106.603 31.766C105.987 31.6353 105.501 31.5 105.147 31.36C104.801 31.2107 104.545 31.024 104.377 30.8C104.209 30.576 104.125 30.282 104.125 29.918C104.125 29.3207 104.367 28.84 104.853 28.476C105.338 28.112 105.949 27.93 106.687 27.93C107.191 27.93 107.639 27.9953 108.031 28.126C108.432 28.2473 108.833 28.4527 109.235 28.742C109.319 28.8073 109.361 28.8773 109.361 28.952C109.361 28.9987 109.337 29.0593 109.291 29.134L109.123 29.344C109.076 29.4187 109.011 29.456 108.927 29.456C108.852 29.456 108.787 29.4327 108.731 29.386C108.348 29.1153 108.007 28.9333 107.709 28.84C107.419 28.7467 107.088 28.7 106.715 28.7C106.201 28.7 105.791 28.812 105.483 29.036C105.175 29.26 105.021 29.5447 105.021 29.89C105.021 30.1047 105.091 30.2773 105.231 30.408C105.371 30.5387 105.571 30.6507 105.833 30.744C106.094 30.828 106.477 30.926 106.981 31.038C107.914 31.2433 108.577 31.4953 108.969 31.794C109.37 32.0927 109.571 32.5267 109.571 33.096C109.571 33.7213 109.323 34.2253 108.829 34.608C108.334 34.9907 107.695 35.182 106.911 35.182ZM113.542 35.182C112.972 35.182 112.468 35.1027 112.03 34.944C111.6 34.776 111.148 34.496 110.672 34.104C110.588 34.048 110.546 33.9827 110.546 33.908C110.546 33.8427 110.578 33.7773 110.644 33.712L110.826 33.516C110.882 33.4413 110.952 33.404 111.036 33.404C111.101 33.404 111.162 33.432 111.218 33.488C111.666 33.8333 112.062 34.076 112.408 34.216C112.753 34.3467 113.131 34.412 113.542 34.412C114.055 34.412 114.475 34.3 114.802 34.076C115.128 33.8427 115.292 33.53 115.292 33.138C115.292 32.746 115.124 32.4567 114.788 32.27C114.452 32.0833 113.934 31.9153 113.234 31.766C112.618 31.6353 112.132 31.5 111.778 31.36C111.432 31.2107 111.176 31.024 111.008 30.8C110.84 30.576 110.756 30.282 110.756 29.918C110.756 29.3207 110.998 28.84 111.484 28.476C111.969 28.112 112.58 27.93 113.318 27.93C113.822 27.93 114.27 27.9953 114.662 28.126C115.063 28.2473 115.464 28.4527 115.866 28.742C115.95 28.8073 115.992 28.8773 115.992 28.952C115.992 28.9987 115.968 29.0593 115.922 29.134L115.754 29.344C115.707 29.4187 115.642 29.456 115.558 29.456C115.483 29.456 115.418 29.4327 115.362 29.386C114.979 29.1153 114.638 28.9333 114.34 28.84C114.05 28.7467 113.719 28.7 113.346 28.7C112.832 28.7 112.422 28.812 112.114 29.036C111.806 29.26 111.652 29.5447 111.652 29.89C111.652 30.1047 111.722 30.2773 111.862 30.408C112.002 30.5387 112.202 30.6507 112.464 30.744C112.725 30.828 113.108 30.926 113.612 31.038C114.545 31.2433 115.208 31.4953 115.6 31.794C116.001 32.0927 116.202 32.5267 116.202 33.096C116.202 33.7213 115.954 34.2253 115.46 34.608C114.965 34.9907 114.326 35.182 113.542 35.182ZM120.479 27.93C121.329 27.93 121.991 28.1353 122.467 28.546C122.943 28.9473 123.181 29.4793 123.181 30.142V34.72C123.181 34.9067 123.088 35 122.901 35H122.621C122.435 35 122.341 34.9067 122.341 34.72V34.09C122.108 34.4633 121.777 34.7433 121.347 34.93C120.927 35.1167 120.456 35.21 119.933 35.21C119.205 35.21 118.613 35.056 118.155 34.748C117.698 34.44 117.469 33.964 117.469 33.32C117.469 32.8067 117.614 32.396 117.903 32.088C118.193 31.7707 118.571 31.5327 119.037 31.374C119.504 31.206 120.087 31.0567 120.787 30.926L122.299 30.66V30.212C122.299 29.736 122.136 29.3673 121.809 29.106C121.483 28.8353 121.053 28.7 120.521 28.7C120.12 28.7 119.756 28.7747 119.429 28.924C119.103 29.0733 118.753 29.33 118.379 29.694C118.314 29.7593 118.244 29.792 118.169 29.792C118.104 29.792 118.043 29.764 117.987 29.708L117.805 29.54C117.74 29.4747 117.707 29.4047 117.707 29.33C117.707 29.246 117.74 29.1713 117.805 29.106C118.197 28.6953 118.608 28.3967 119.037 28.21C119.476 28.0233 119.957 27.93 120.479 27.93ZM119.975 34.44C120.647 34.44 121.203 34.2627 121.641 33.908C122.08 33.5533 122.299 33.1007 122.299 32.55V31.374L120.997 31.626C120.391 31.7473 119.91 31.864 119.555 31.976C119.201 32.088 118.916 32.2513 118.701 32.466C118.487 32.6807 118.379 32.9607 118.379 33.306C118.379 33.6607 118.519 33.9407 118.799 34.146C119.089 34.342 119.481 34.44 119.975 34.44ZM130.185 28.378C130.185 28.1913 130.279 28.098 130.465 28.098H130.759C130.946 28.098 131.039 28.1913 131.039 28.378V34.93C131.039 35.798 130.778 36.4793 130.255 36.974C129.733 37.478 129 37.73 128.057 37.73C127.04 37.73 126.102 37.4407 125.243 36.862C125.15 36.806 125.103 36.736 125.103 36.652C125.103 36.5867 125.122 36.5307 125.159 36.484L125.327 36.246C125.383 36.1527 125.458 36.106 125.551 36.106C125.589 36.106 125.645 36.1247 125.719 36.162C126.13 36.4233 126.513 36.6193 126.867 36.75C127.231 36.8807 127.628 36.946 128.057 36.946C128.673 36.946 129.173 36.7733 129.555 36.428C129.938 36.092 130.129 35.5693 130.129 34.86V33.74C129.625 34.552 128.86 34.958 127.833 34.958C127.236 34.958 126.709 34.8087 126.251 34.51C125.794 34.202 125.439 33.782 125.187 33.25C124.945 32.718 124.823 32.116 124.823 31.444C124.823 30.772 124.945 30.17 125.187 29.638C125.439 29.106 125.794 28.6907 126.251 28.392C126.709 28.084 127.236 27.93 127.833 27.93C128.375 27.93 128.841 28.0467 129.233 28.28C129.635 28.504 129.952 28.826 130.185 29.246V28.378ZM127.931 34.174C128.603 34.174 129.14 33.922 129.541 33.418C129.943 32.9047 130.143 32.2467 130.143 31.444C130.143 30.6413 129.943 29.988 129.541 29.484C129.14 28.9707 128.603 28.714 127.931 28.714C127.25 28.714 126.718 28.966 126.335 29.47C125.962 29.974 125.775 30.632 125.775 31.444C125.775 32.256 125.962 32.914 126.335 33.418C126.718 33.922 127.25 34.174 127.931 34.174ZM138.144 33.362C138.209 33.2967 138.279 33.264 138.354 33.264C138.419 33.264 138.48 33.292 138.536 33.348L138.718 33.516C138.783 33.5813 138.816 33.6513 138.816 33.726C138.816 33.782 138.788 33.8473 138.732 33.922C138.275 34.3793 137.831 34.706 137.402 34.902C136.973 35.0887 136.492 35.182 135.96 35.182C135.288 35.182 134.705 35.0327 134.21 34.734C133.715 34.4353 133.333 34.02 133.062 33.488C132.791 32.9467 132.656 32.3213 132.656 31.612C132.656 30.8933 132.787 30.2587 133.048 29.708C133.319 29.148 133.697 28.714 134.182 28.406C134.667 28.0887 135.227 27.93 135.862 27.93C136.805 27.93 137.547 28.224 138.088 28.812C138.629 29.4 138.9 30.1933 138.9 31.192V31.36C138.891 31.444 138.858 31.5093 138.802 31.556C138.755 31.6027 138.69 31.626 138.606 31.626H133.594C133.622 32.41 133.827 33.0727 134.21 33.614C134.602 34.146 135.185 34.412 135.96 34.412C136.38 34.412 136.749 34.3373 137.066 34.188C137.393 34.0293 137.752 33.754 138.144 33.362ZM135.862 28.7C135.246 28.7 134.737 28.8913 134.336 29.274C133.944 29.6473 133.706 30.198 133.622 30.926H137.976C137.957 30.2447 137.761 29.7033 137.388 29.302C137.015 28.9007 136.506 28.7 135.862 28.7Z" fill="#1B1B1F"/>
<path d="M323.5 25.5L314.5 34.5M323.5 34.5L314.5 25.5" stroke="#1B1B1F" stroke-linecap="round" stroke-linejoin="round"/>
</svg>
