<svg width="553" height="176" viewBox="0 0 553 176" fill="none" xmlns="http://www.w3.org/2000/svg">
<rect width="553" height="176" rx="8" fill="white"/>
<rect x="106" y="101" width="341" height="58" rx="7" fill="#EBFFF6"/>
<rect x="106" y="101" width="341" height="58" rx="7" stroke="#67EEB8" stroke-width="2"/>
<path d="M129.25 130.75L131.5 133L136.75 127.75M142 130C142 134.971 137.971 139 133 139C128.029 139 124 134.971 124 130C124 125.029 128.029 121 133 121C137.971 121 142 125.029 142 130Z" stroke="#059E6F" stroke-width="1.5" stroke-linecap="round" stroke-linejoin="round"/>
<path d="M156.934 135C156.747 135 156.654 134.907 156.654 134.72V125.886H153.728C153.541 125.886 153.448 125.793 153.448 125.606V125.34C153.448 125.153 153.541 125.06 153.728 125.06H160.56C160.747 125.06 160.84 125.153 160.84 125.34V125.606C160.84 125.793 160.747 125.886 160.56 125.886H157.648V134.72C157.648 134.907 157.555 135 157.368 135H156.934ZM163.646 135.182C163.002 135.182 162.428 135.028 161.924 134.72C161.42 134.412 161.028 133.987 160.748 133.446C160.468 132.895 160.328 132.265 160.328 131.556C160.328 130.847 160.468 130.221 160.748 129.68C161.028 129.129 161.42 128.7 161.924 128.392C162.428 128.084 163.002 127.93 163.646 127.93C164.29 127.93 164.864 128.084 165.368 128.392C165.872 128.7 166.264 129.129 166.544 129.68C166.824 130.221 166.964 130.847 166.964 131.556C166.964 132.265 166.824 132.895 166.544 133.446C166.264 133.987 165.872 134.412 165.368 134.72C164.864 135.028 164.29 135.182 163.646 135.182ZM163.646 134.412C164.365 134.412 164.939 134.151 165.368 133.628C165.797 133.096 166.012 132.405 166.012 131.556C166.012 130.707 165.797 130.021 165.368 129.498C164.939 128.966 164.365 128.7 163.646 128.7C162.927 128.7 162.353 128.966 161.924 129.498C161.495 130.021 161.28 130.707 161.28 131.556C161.28 132.405 161.495 133.096 161.924 133.628C162.353 134.151 162.927 134.412 163.646 134.412ZM171.229 127.93C172.079 127.93 172.741 128.135 173.217 128.546C173.693 128.947 173.931 129.479 173.931 130.142V134.72C173.931 134.907 173.838 135 173.651 135H173.371C173.185 135 173.091 134.907 173.091 134.72V134.09C172.858 134.463 172.527 134.743 172.097 134.93C171.677 135.117 171.206 135.21 170.683 135.21C169.955 135.21 169.363 135.056 168.905 134.748C168.448 134.44 168.219 133.964 168.219 133.32C168.219 132.807 168.364 132.396 168.653 132.088C168.943 131.771 169.321 131.533 169.787 131.374C170.254 131.206 170.837 131.057 171.537 130.926L173.049 130.66V130.212C173.049 129.736 172.886 129.367 172.559 129.106C172.233 128.835 171.803 128.7 171.271 128.7C170.87 128.7 170.506 128.775 170.179 128.924C169.853 129.073 169.503 129.33 169.129 129.694C169.064 129.759 168.994 129.792 168.919 129.792C168.854 129.792 168.793 129.764 168.737 129.708L168.555 129.54C168.49 129.475 168.457 129.405 168.457 129.33C168.457 129.246 168.49 129.171 168.555 129.106C168.947 128.695 169.358 128.397 169.787 128.21C170.226 128.023 170.707 127.93 171.229 127.93ZM170.725 134.44C171.397 134.44 171.953 134.263 172.391 133.908C172.83 133.553 173.049 133.101 173.049 132.55V131.374L171.747 131.626C171.141 131.747 170.66 131.864 170.305 131.976C169.951 132.088 169.666 132.251 169.451 132.466C169.237 132.681 169.129 132.961 169.129 133.306C169.129 133.661 169.269 133.941 169.549 134.146C169.839 134.342 170.231 134.44 170.725 134.44ZM178.387 135.182C177.818 135.182 177.314 135.103 176.875 134.944C176.446 134.776 175.993 134.496 175.517 134.104C175.433 134.048 175.391 133.983 175.391 133.908C175.391 133.843 175.424 133.777 175.489 133.712L175.671 133.516C175.727 133.441 175.797 133.404 175.881 133.404C175.947 133.404 176.007 133.432 176.063 133.488C176.511 133.833 176.908 134.076 177.253 134.216C177.599 134.347 177.977 134.412 178.387 134.412C178.901 134.412 179.321 134.3 179.647 134.076C179.974 133.843 180.137 133.53 180.137 133.138C180.137 132.746 179.969 132.457 179.633 132.27C179.297 132.083 178.779 131.915 178.079 131.766C177.463 131.635 176.978 131.5 176.623 131.36C176.278 131.211 176.021 131.024 175.853 130.8C175.685 130.576 175.601 130.282 175.601 129.918C175.601 129.321 175.844 128.84 176.329 128.476C176.815 128.112 177.426 127.93 178.163 127.93C178.667 127.93 179.115 127.995 179.507 128.126C179.909 128.247 180.31 128.453 180.711 128.742C180.795 128.807 180.837 128.877 180.837 128.952C180.837 128.999 180.814 129.059 180.767 129.134L180.599 129.344C180.553 129.419 180.487 129.456 180.403 129.456C180.329 129.456 180.263 129.433 180.207 129.386C179.825 129.115 179.484 128.933 179.185 128.84C178.896 128.747 178.565 128.7 178.191 128.7C177.678 128.7 177.267 128.812 176.959 129.036C176.651 129.26 176.497 129.545 176.497 129.89C176.497 130.105 176.567 130.277 176.707 130.408C176.847 130.539 177.048 130.651 177.309 130.744C177.571 130.828 177.953 130.926 178.457 131.038C179.391 131.243 180.053 131.495 180.445 131.794C180.847 132.093 181.047 132.527 181.047 133.096C181.047 133.721 180.8 134.225 180.305 134.608C179.811 134.991 179.171 135.182 178.387 135.182ZM185.691 134.23C185.719 134.221 185.756 134.216 185.803 134.216C185.859 134.216 185.91 134.235 185.957 134.272C186.004 134.309 186.032 134.361 186.041 134.426L186.083 134.622C186.092 134.641 186.097 134.673 186.097 134.72C186.097 134.851 186.027 134.93 185.887 134.958C185.551 135.061 185.192 135.112 184.809 135.112C184.202 135.112 183.768 134.977 183.507 134.706C183.255 134.426 183.129 134.025 183.129 133.502V128.798H182.093C181.906 128.798 181.813 128.705 181.813 128.518V128.378C181.813 128.191 181.906 128.098 182.093 128.098H183.129V125.97C183.129 125.783 183.222 125.69 183.409 125.69H183.773C183.96 125.69 184.053 125.783 184.053 125.97V128.098H185.733C185.92 128.098 186.013 128.191 186.013 128.378V128.518C186.013 128.705 185.92 128.798 185.733 128.798H184.053V133.39C184.053 133.735 184.118 133.978 184.249 134.118C184.38 134.258 184.604 134.328 184.921 134.328C185.145 134.328 185.402 134.295 185.691 134.23ZM197.663 127.93C198.41 127.93 198.979 128.145 199.371 128.574C199.773 128.994 199.973 129.535 199.973 130.198V134.72C199.973 134.907 199.88 135 199.693 135H199.329C199.143 135 199.049 134.907 199.049 134.72V130.45C199.049 129.89 198.919 129.461 198.657 129.162C198.405 128.863 198.027 128.714 197.523 128.714C196.991 128.714 196.567 128.891 196.249 129.246C195.932 129.601 195.773 130.058 195.773 130.618V134.72C195.773 134.907 195.68 135 195.493 135H195.129C194.943 135 194.849 134.907 194.849 134.72V130.45C194.849 129.89 194.719 129.461 194.457 129.162C194.205 128.863 193.823 128.714 193.309 128.714C192.833 128.714 192.437 128.863 192.119 129.162C191.811 129.461 191.629 129.853 191.573 130.338V134.72C191.573 134.907 191.48 135 191.293 135H190.929C190.743 135 190.649 134.907 190.649 134.72V128.378C190.649 128.191 190.743 128.098 190.929 128.098H191.237C191.424 128.098 191.517 128.191 191.517 128.378V128.952C191.937 128.271 192.605 127.93 193.519 127.93C193.995 127.93 194.401 128.037 194.737 128.252C195.083 128.457 195.339 128.737 195.507 129.092C196.002 128.317 196.721 127.93 197.663 127.93ZM207.037 133.362C207.102 133.297 207.172 133.264 207.247 133.264C207.312 133.264 207.373 133.292 207.429 133.348L207.611 133.516C207.676 133.581 207.709 133.651 207.709 133.726C207.709 133.782 207.681 133.847 207.625 133.922C207.167 134.379 206.724 134.706 206.295 134.902C205.865 135.089 205.385 135.182 204.853 135.182C204.181 135.182 203.597 135.033 203.103 134.734C202.608 134.435 202.225 134.02 201.955 133.488C201.684 132.947 201.549 132.321 201.549 131.612C201.549 130.893 201.679 130.259 201.941 129.708C202.211 129.148 202.589 128.714 203.075 128.406C203.56 128.089 204.12 127.93 204.755 127.93C205.697 127.93 206.439 128.224 206.981 128.812C207.522 129.4 207.793 130.193 207.793 131.192V131.36C207.783 131.444 207.751 131.509 207.695 131.556C207.648 131.603 207.583 131.626 207.499 131.626H202.487C202.515 132.41 202.72 133.073 203.103 133.614C203.495 134.146 204.078 134.412 204.853 134.412C205.273 134.412 205.641 134.337 205.959 134.188C206.285 134.029 206.645 133.754 207.037 133.362ZM204.755 128.7C204.139 128.7 203.63 128.891 203.229 129.274C202.837 129.647 202.599 130.198 202.515 130.926H206.869C206.85 130.245 206.654 129.703 206.281 129.302C205.907 128.901 205.399 128.7 204.755 128.7ZM211.911 135.182C211.341 135.182 210.837 135.103 210.399 134.944C209.969 134.776 209.517 134.496 209.041 134.104C208.957 134.048 208.915 133.983 208.915 133.908C208.915 133.843 208.947 133.777 209.013 133.712L209.195 133.516C209.251 133.441 209.321 133.404 209.405 133.404C209.47 133.404 209.531 133.432 209.587 133.488C210.035 133.833 210.431 134.076 210.777 134.216C211.122 134.347 211.5 134.412 211.911 134.412C212.424 134.412 212.844 134.3 213.171 134.076C213.497 133.843 213.661 133.53 213.661 133.138C213.661 132.746 213.493 132.457 213.157 132.27C212.821 132.083 212.303 131.915 211.603 131.766C210.987 131.635 210.501 131.5 210.147 131.36C209.801 131.211 209.545 131.024 209.377 130.8C209.209 130.576 209.125 130.282 209.125 129.918C209.125 129.321 209.367 128.84 209.853 128.476C210.338 128.112 210.949 127.93 211.687 127.93C212.191 127.93 212.639 127.995 213.031 128.126C213.432 128.247 213.833 128.453 214.235 128.742C214.319 128.807 214.361 128.877 214.361 128.952C214.361 128.999 214.337 129.059 214.291 129.134L214.123 129.344C214.076 129.419 214.011 129.456 213.927 129.456C213.852 129.456 213.787 129.433 213.731 129.386C213.348 129.115 213.007 128.933 212.709 128.84C212.419 128.747 212.088 128.7 211.715 128.7C211.201 128.7 210.791 128.812 210.483 129.036C210.175 129.26 210.021 129.545 210.021 129.89C210.021 130.105 210.091 130.277 210.231 130.408C210.371 130.539 210.571 130.651 210.833 130.744C211.094 130.828 211.477 130.926 211.981 131.038C212.914 131.243 213.577 131.495 213.969 131.794C214.37 132.093 214.571 132.527 214.571 133.096C214.571 133.721 214.323 134.225 213.829 134.608C213.334 134.991 212.695 135.182 211.911 135.182ZM218.542 135.182C217.972 135.182 217.468 135.103 217.03 134.944C216.6 134.776 216.148 134.496 215.672 134.104C215.588 134.048 215.546 133.983 215.546 133.908C215.546 133.843 215.578 133.777 215.644 133.712L215.826 133.516C215.882 133.441 215.952 133.404 216.036 133.404C216.101 133.404 216.162 133.432 216.218 133.488C216.666 133.833 217.062 134.076 217.408 134.216C217.753 134.347 218.131 134.412 218.542 134.412C219.055 134.412 219.475 134.3 219.802 134.076C220.128 133.843 220.292 133.53 220.292 133.138C220.292 132.746 220.124 132.457 219.788 132.27C219.452 132.083 218.934 131.915 218.234 131.766C217.618 131.635 217.132 131.5 216.778 131.36C216.432 131.211 216.176 131.024 216.008 130.8C215.84 130.576 215.756 130.282 215.756 129.918C215.756 129.321 215.998 128.84 216.484 128.476C216.969 128.112 217.58 127.93 218.318 127.93C218.822 127.93 219.27 127.995 219.662 128.126C220.063 128.247 220.464 128.453 220.866 128.742C220.95 128.807 220.992 128.877 220.992 128.952C220.992 128.999 220.968 129.059 220.922 129.134L220.754 129.344C220.707 129.419 220.642 129.456 220.558 129.456C220.483 129.456 220.418 129.433 220.362 129.386C219.979 129.115 219.638 128.933 219.34 128.84C219.05 128.747 218.719 128.7 218.346 128.7C217.832 128.7 217.422 128.812 217.114 129.036C216.806 129.26 216.652 129.545 216.652 129.89C216.652 130.105 216.722 130.277 216.862 130.408C217.002 130.539 217.202 130.651 217.464 130.744C217.725 130.828 218.108 130.926 218.612 131.038C219.545 131.243 220.208 131.495 220.6 131.794C221.001 132.093 221.202 132.527 221.202 133.096C221.202 133.721 220.954 134.225 220.46 134.608C219.965 134.991 219.326 135.182 218.542 135.182ZM225.479 127.93C226.329 127.93 226.991 128.135 227.467 128.546C227.943 128.947 228.181 129.479 228.181 130.142V134.72C228.181 134.907 228.088 135 227.901 135H227.621C227.435 135 227.341 134.907 227.341 134.72V134.09C227.108 134.463 226.777 134.743 226.347 134.93C225.927 135.117 225.456 135.21 224.933 135.21C224.205 135.21 223.613 135.056 223.155 134.748C222.698 134.44 222.469 133.964 222.469 133.32C222.469 132.807 222.614 132.396 222.903 132.088C223.193 131.771 223.571 131.533 224.037 131.374C224.504 131.206 225.087 131.057 225.787 130.926L227.299 130.66V130.212C227.299 129.736 227.136 129.367 226.809 129.106C226.483 128.835 226.053 128.7 225.521 128.7C225.12 128.7 224.756 128.775 224.429 128.924C224.103 129.073 223.753 129.33 223.379 129.694C223.314 129.759 223.244 129.792 223.169 129.792C223.104 129.792 223.043 129.764 222.987 129.708L222.805 129.54C222.74 129.475 222.707 129.405 222.707 129.33C222.707 129.246 222.74 129.171 222.805 129.106C223.197 128.695 223.608 128.397 224.037 128.21C224.476 128.023 224.957 127.93 225.479 127.93ZM224.975 134.44C225.647 134.44 226.203 134.263 226.641 133.908C227.08 133.553 227.299 133.101 227.299 132.55V131.374L225.997 131.626C225.391 131.747 224.91 131.864 224.555 131.976C224.201 132.088 223.916 132.251 223.701 132.466C223.487 132.681 223.379 132.961 223.379 133.306C223.379 133.661 223.519 133.941 223.799 134.146C224.089 134.342 224.481 134.44 224.975 134.44ZM235.185 128.378C235.185 128.191 235.279 128.098 235.465 128.098H235.759C235.946 128.098 236.039 128.191 236.039 128.378V134.93C236.039 135.798 235.778 136.479 235.255 136.974C234.733 137.478 234 137.73 233.057 137.73C232.04 137.73 231.102 137.441 230.243 136.862C230.15 136.806 230.103 136.736 230.103 136.652C230.103 136.587 230.122 136.531 230.159 136.484L230.327 136.246C230.383 136.153 230.458 136.106 230.551 136.106C230.589 136.106 230.645 136.125 230.719 136.162C231.13 136.423 231.513 136.619 231.867 136.75C232.231 136.881 232.628 136.946 233.057 136.946C233.673 136.946 234.173 136.773 234.555 136.428C234.938 136.092 235.129 135.569 235.129 134.86V133.74C234.625 134.552 233.86 134.958 232.833 134.958C232.236 134.958 231.709 134.809 231.251 134.51C230.794 134.202 230.439 133.782 230.187 133.25C229.945 132.718 229.823 132.116 229.823 131.444C229.823 130.772 229.945 130.17 230.187 129.638C230.439 129.106 230.794 128.691 231.251 128.392C231.709 128.084 232.236 127.93 232.833 127.93C233.375 127.93 233.841 128.047 234.233 128.28C234.635 128.504 234.952 128.826 235.185 129.246V128.378ZM232.931 134.174C233.603 134.174 234.14 133.922 234.541 133.418C234.943 132.905 235.143 132.247 235.143 131.444C235.143 130.641 234.943 129.988 234.541 129.484C234.14 128.971 233.603 128.714 232.931 128.714C232.25 128.714 231.718 128.966 231.335 129.47C230.962 129.974 230.775 130.632 230.775 131.444C230.775 132.256 230.962 132.914 231.335 133.418C231.718 133.922 232.25 134.174 232.931 134.174ZM243.144 133.362C243.209 133.297 243.279 133.264 243.354 133.264C243.419 133.264 243.48 133.292 243.536 133.348L243.718 133.516C243.783 133.581 243.816 133.651 243.816 133.726C243.816 133.782 243.788 133.847 243.732 133.922C243.275 134.379 242.831 134.706 242.402 134.902C241.973 135.089 241.492 135.182 240.96 135.182C240.288 135.182 239.705 135.033 239.21 134.734C238.715 134.435 238.333 134.02 238.062 133.488C237.791 132.947 237.656 132.321 237.656 131.612C237.656 130.893 237.787 130.259 238.048 129.708C238.319 129.148 238.697 128.714 239.182 128.406C239.667 128.089 240.227 127.93 240.862 127.93C241.805 127.93 242.547 128.224 243.088 128.812C243.629 129.4 243.9 130.193 243.9 131.192V131.36C243.891 131.444 243.858 131.509 243.802 131.556C243.755 131.603 243.69 131.626 243.606 131.626H238.594C238.622 132.41 238.827 133.073 239.21 133.614C239.602 134.146 240.185 134.412 240.96 134.412C241.38 134.412 241.749 134.337 242.066 134.188C242.393 134.029 242.752 133.754 243.144 133.362ZM240.862 128.7C240.246 128.7 239.737 128.891 239.336 129.274C238.944 129.647 238.706 130.198 238.622 130.926H242.976C242.957 130.245 242.761 129.703 242.388 129.302C242.015 128.901 241.506 128.7 240.862 128.7Z" fill="#1B1B1F"/>
<path d="M428.5 125.5L419.5 134.5M428.5 134.5L419.5 125.5" stroke="#1B1B1F" stroke-linecap="round" stroke-linejoin="round"/>
</svg>
