<svg width="117" height="14" viewBox="0 0 117 14" fill="none" xmlns="http://www.w3.org/2000/svg">
<path d="M0.484 11C0.297333 11 0.204 10.9067 0.204 10.72V1.34C0.204 1.15333 0.297333 1.06 0.484 1.06H6.364C6.55067 1.06 6.644 1.15333 6.644 1.34V1.606C6.644 1.79267 6.55067 1.886 6.364 1.886H1.198V5.484H5.972C6.15867 5.484 6.252 5.57733 6.252 5.764V6.016C6.252 6.20267 6.15867 6.296 5.972 6.296H1.198V10.174H6.476C6.66267 10.174 6.756 10.2673 6.756 10.454V10.72C6.756 10.9067 6.66267 11 6.476 11H0.484ZM13.4985 10.664C13.5359 10.7293 13.5545 10.7853 13.5545 10.832C13.5545 10.944 13.4799 11 13.3305 11H12.9105C12.7705 11 12.6585 10.9393 12.5745 10.818L10.6705 8.018L8.78053 10.818C8.69653 10.9393 8.58453 11 8.44453 11H8.05253C7.97786 11 7.9172 10.986 7.87053 10.958C7.8332 10.9207 7.81453 10.8787 7.81453 10.832C7.81453 10.7667 7.8332 10.7107 7.87053 10.664L10.1385 7.402L8.05253 4.434C8.0152 4.38733 7.99653 4.336 7.99653 4.28C7.99653 4.15867 8.07586 4.098 8.23453 4.098H8.64053C8.78053 4.098 8.89253 4.15867 8.97653 4.28L10.6845 6.786L12.3785 4.28C12.4625 4.15867 12.5745 4.098 12.7145 4.098H13.0925C13.1672 4.098 13.2232 4.11667 13.2605 4.154C13.3072 4.182 13.3305 4.21933 13.3305 4.266C13.3305 4.33133 13.3119 4.38733 13.2745 4.434L11.2305 7.36L13.4985 10.664ZM17.6394 3.93C18.4887 3.93 19.1514 4.13533 19.6274 4.546C20.1034 4.94733 20.3414 5.47933 20.3414 6.142V10.72C20.3414 10.9067 20.248 11 20.0614 11H19.7814C19.5947 11 19.5014 10.9067 19.5014 10.72V10.09C19.268 10.4633 18.9367 10.7433 18.5074 10.93C18.0874 11.1167 17.616 11.21 17.0934 11.21C16.3654 11.21 15.7727 11.056 15.3154 10.748C14.858 10.44 14.6294 9.964 14.6294 9.32C14.6294 8.80667 14.774 8.396 15.0634 8.088C15.3527 7.77067 15.7307 7.53267 16.1974 7.374C16.664 7.206 17.2474 7.05667 17.9474 6.926L19.4594 6.66V6.212C19.4594 5.736 19.296 5.36733 18.9694 5.106C18.6427 4.83533 18.2134 4.7 17.6814 4.7C17.28 4.7 16.916 4.77467 16.5894 4.924C16.2627 5.07333 15.9127 5.33 15.5394 5.694C15.474 5.75933 15.404 5.792 15.3294 5.792C15.264 5.792 15.2034 5.764 15.1474 5.708L14.9654 5.54C14.9 5.47467 14.8674 5.40467 14.8674 5.33C14.8674 5.246 14.9 5.17133 14.9654 5.106C15.3574 4.69533 15.768 4.39667 16.1974 4.21C16.636 4.02333 17.1167 3.93 17.6394 3.93ZM17.1354 10.44C17.8074 10.44 18.3627 10.2627 18.8014 9.908C19.24 9.55333 19.4594 9.10067 19.4594 8.55V7.374L18.1574 7.626C17.5507 7.74733 17.07 7.864 16.7154 7.976C16.3607 8.088 16.076 8.25133 15.8614 8.466C15.6467 8.68067 15.5394 8.96067 15.5394 9.306C15.5394 9.66067 15.6794 9.94067 15.9594 10.146C16.2487 10.342 16.6407 10.44 17.1354 10.44ZM29.4035 3.93C30.1502 3.93 30.7195 4.14467 31.1115 4.574C31.5128 4.994 31.7135 5.53533 31.7135 6.198V10.72C31.7135 10.9067 31.6202 11 31.4335 11H31.0695C30.8828 11 30.7895 10.9067 30.7895 10.72V6.45C30.7895 5.89 30.6588 5.46067 30.3975 5.162C30.1455 4.86333 29.7675 4.714 29.2635 4.714C28.7315 4.714 28.3068 4.89133 27.9895 5.246C27.6722 5.60067 27.5135 6.058 27.5135 6.618V10.72C27.5135 10.9067 27.4202 11 27.2335 11H26.8695C26.6828 11 26.5895 10.9067 26.5895 10.72V6.45C26.5895 5.89 26.4588 5.46067 26.1975 5.162C25.9455 4.86333 25.5628 4.714 25.0495 4.714C24.5735 4.714 24.1768 4.86333 23.8595 5.162C23.5515 5.46067 23.3695 5.85267 23.3135 6.338V10.72C23.3135 10.9067 23.2202 11 23.0335 11H22.6695C22.4828 11 22.3895 10.9067 22.3895 10.72V4.378C22.3895 4.19133 22.4828 4.098 22.6695 4.098H22.9775C23.1642 4.098 23.2575 4.19133 23.2575 4.378V4.952C23.6775 4.27067 24.3448 3.93 25.2595 3.93C25.7355 3.93 26.1415 4.03733 26.4775 4.252C26.8228 4.45733 27.0795 4.73733 27.2475 5.092C27.7422 4.31733 28.4608 3.93 29.4035 3.93ZM37.0548 3.944C37.6335 3.944 38.1515 4.098 38.6088 4.406C39.0755 4.70467 39.4395 5.12933 39.7008 5.68C39.9622 6.22133 40.0928 6.842 40.0928 7.542C40.0928 8.25133 39.9622 8.88133 39.7008 9.432C39.4395 9.98267 39.0802 10.412 38.6228 10.72C38.1655 11.0187 37.6428 11.168 37.0548 11.168C35.9722 11.168 35.1788 10.7713 34.6748 9.978V13.296C34.6748 13.4827 34.5815 13.576 34.3948 13.576H34.0308C33.8442 13.576 33.7508 13.4827 33.7508 13.296V4.378C33.7508 4.19133 33.8442 4.098 34.0308 4.098H34.3388C34.5255 4.098 34.6188 4.19133 34.6188 4.378V5.26C34.8708 4.83067 35.2022 4.504 35.6128 4.28C36.0235 4.056 36.5042 3.944 37.0548 3.944ZM36.9848 10.384C37.6382 10.384 38.1608 10.1227 38.5528 9.6C38.9448 9.07733 39.1408 8.39133 39.1408 7.542C39.1408 6.702 38.9448 6.02533 38.5528 5.512C38.1608 4.98933 37.6382 4.728 36.9848 4.728C36.2848 4.728 35.7155 4.98 35.2768 5.484C34.8475 5.97867 34.6328 6.66467 34.6328 7.542C34.6328 8.41933 34.8522 9.11467 35.2908 9.628C35.7295 10.132 36.2942 10.384 36.9848 10.384ZM42.0292 11C41.8426 11 41.7492 10.9067 41.7492 10.72V1.34C41.7492 1.15333 41.8426 1.06 42.0292 1.06H42.3932C42.5799 1.06 42.6732 1.15333 42.6732 1.34V10.72C42.6732 10.9067 42.5799 11 42.3932 11H42.0292ZM49.7827 9.362C49.848 9.29667 49.918 9.264 49.9927 9.264C50.058 9.264 50.1187 9.292 50.1747 9.348L50.3567 9.516C50.422 9.58133 50.4547 9.65133 50.4547 9.726C50.4547 9.782 50.4267 9.84733 50.3707 9.922C49.9134 10.3793 49.47 10.706 49.0407 10.902C48.6114 11.0887 48.1307 11.182 47.5987 11.182C46.9267 11.182 46.3434 11.0327 45.8487 10.734C45.354 10.4353 44.9714 10.02 44.7007 9.488C44.43 8.94667 44.2947 8.32133 44.2947 7.612C44.2947 6.89333 44.4254 6.25867 44.6867 5.708C44.9574 5.148 45.3354 4.714 45.8207 4.406C46.306 4.08867 46.866 3.93 47.5007 3.93C48.4434 3.93 49.1854 4.224 49.7267 4.812C50.268 5.4 50.5387 6.19333 50.5387 7.192V7.36C50.5294 7.444 50.4967 7.50933 50.4407 7.556C50.394 7.60267 50.3287 7.626 50.2447 7.626H45.2327C45.2607 8.41 45.466 9.07267 45.8487 9.614C46.2407 10.146 46.824 10.412 47.5987 10.412C48.0187 10.412 48.3874 10.3373 48.7047 10.188C49.0314 10.0293 49.3907 9.754 49.7827 9.362ZM47.5007 4.7C46.8847 4.7 46.376 4.89133 45.9747 5.274C45.5827 5.64733 45.3447 6.198 45.2607 6.926H49.6147C49.596 6.24467 49.4 5.70333 49.0267 5.302C48.6534 4.90067 48.1447 4.7 47.5007 4.7ZM58.0528 1.662C57.6328 1.662 57.3341 1.774 57.1568 1.998C56.9794 2.21267 56.8908 2.57667 56.8908 3.09V4.098H58.4308C58.6174 4.098 58.7108 4.19133 58.7108 4.378V4.518C58.7108 4.70467 58.6174 4.798 58.4308 4.798H56.8908V10.72C56.8908 10.9067 56.7974 11 56.6108 11H56.2468C56.0601 11 55.9668 10.9067 55.9668 10.72V4.798H54.9308C54.7441 4.798 54.6508 4.70467 54.6508 4.518V4.378C54.6508 4.19133 54.7441 4.098 54.9308 4.098H55.9668V2.936C55.9668 2.292 56.1348 1.788 56.4708 1.424C56.8161 1.06 57.3061 0.877999 57.9408 0.877999C58.2954 0.877999 58.6594 0.929333 59.0328 1.032C59.2101 1.088 59.2754 1.20467 59.2288 1.382L59.1728 1.578C59.1261 1.70867 59.0328 1.774 58.8928 1.774C58.8648 1.774 58.8041 1.76467 58.7108 1.746C58.5054 1.69 58.2861 1.662 58.0528 1.662ZM62.6452 4.042C62.8785 4.042 63.1539 4.07933 63.4712 4.154C63.6392 4.21 63.7045 4.32667 63.6672 4.504L63.6112 4.728C63.5645 4.90533 63.4479 4.97067 63.2612 4.924C63.0372 4.868 62.8319 4.84 62.6452 4.84C62.1692 4.84 61.7725 5.04533 61.4552 5.456C61.1472 5.86667 60.9932 6.436 60.9932 7.164V10.72C60.9932 10.9067 60.8999 11 60.7132 11H60.3492C60.1625 11 60.0692 10.9067 60.0692 10.72V4.378C60.0692 4.19133 60.1625 4.098 60.3492 4.098H60.6572C60.8439 4.098 60.9372 4.19133 60.9372 4.378V5.148C61.0959 4.80267 61.3199 4.532 61.6092 4.336C61.9079 4.14 62.2532 4.042 62.6452 4.042ZM67.3959 11.182C66.7519 11.182 66.1779 11.028 65.6739 10.72C65.1699 10.412 64.7779 9.98733 64.4979 9.446C64.2179 8.89533 64.0779 8.26533 64.0779 7.556C64.0779 6.84667 64.2179 6.22133 64.4979 5.68C64.7779 5.12933 65.1699 4.7 65.6739 4.392C66.1779 4.084 66.7519 3.93 67.3959 3.93C68.0399 3.93 68.6139 4.084 69.1179 4.392C69.6219 4.7 70.0139 5.12933 70.2939 5.68C70.5739 6.22133 70.7139 6.84667 70.7139 7.556C70.7139 8.26533 70.5739 8.89533 70.2939 9.446C70.0139 9.98733 69.6219 10.412 69.1179 10.72C68.6139 11.028 68.0399 11.182 67.3959 11.182ZM67.3959 10.412C68.1146 10.412 68.6886 10.1507 69.1179 9.628C69.5472 9.096 69.7619 8.40533 69.7619 7.556C69.7619 6.70667 69.5472 6.02067 69.1179 5.498C68.6886 4.966 68.1146 4.7 67.3959 4.7C66.6772 4.7 66.1032 4.966 65.6739 5.498C65.2446 6.02067 65.0299 6.70667 65.0299 7.556C65.0299 8.40533 65.2446 9.096 65.6739 9.628C66.1032 10.1507 66.6772 10.412 67.3959 10.412ZM79.3332 3.93C80.0799 3.93 80.6492 4.14467 81.0412 4.574C81.4425 4.994 81.6432 5.53533 81.6432 6.198V10.72C81.6432 10.9067 81.5499 11 81.3632 11H80.9992C80.8125 11 80.7192 10.9067 80.7192 10.72V6.45C80.7192 5.89 80.5885 5.46067 80.3272 5.162C80.0752 4.86333 79.6972 4.714 79.1932 4.714C78.6612 4.714 78.2365 4.89133 77.9192 5.246C77.6019 5.60067 77.4432 6.058 77.4432 6.618V10.72C77.4432 10.9067 77.3499 11 77.1632 11H76.7992C76.6125 11 76.5192 10.9067 76.5192 10.72V6.45C76.5192 5.89 76.3885 5.46067 76.1272 5.162C75.8752 4.86333 75.4925 4.714 74.9792 4.714C74.5032 4.714 74.1065 4.86333 73.7892 5.162C73.4812 5.46067 73.2992 5.85267 73.2432 6.338V10.72C73.2432 10.9067 73.1499 11 72.9632 11H72.5992C72.4125 11 72.3192 10.9067 72.3192 10.72V4.378C72.3192 4.19133 72.4125 4.098 72.5992 4.098H72.9072C73.0939 4.098 73.1872 4.19133 73.1872 4.378V4.952C73.6072 4.27067 74.2745 3.93 75.1892 3.93C75.6652 3.93 76.0712 4.03733 76.4072 4.252C76.7525 4.45733 77.0092 4.73733 77.1772 5.092C77.6719 4.31733 78.3905 3.93 79.3332 3.93ZM87.3551 11C87.1684 11 87.0751 10.9067 87.0751 10.72V1.34C87.0751 1.15333 87.1684 1.06 87.3551 1.06H93.2351C93.4218 1.06 93.5151 1.15333 93.5151 1.34V1.606C93.5151 1.79267 93.4218 1.886 93.2351 1.886H88.0691V5.666H92.8011C92.9878 5.666 93.0811 5.75933 93.0811 5.946V6.212C93.0811 6.39867 92.9878 6.492 92.8011 6.492H88.0691V10.72C88.0691 10.9067 87.9758 11 87.7891 11H87.3551ZM95.6699 11C95.4832 11 95.3899 10.9067 95.3899 10.72V1.34C95.3899 1.15333 95.4832 1.06 95.6699 1.06H96.1039C96.2906 1.06 96.3839 1.15333 96.3839 1.34V10.72C96.3839 10.9067 96.2906 11 96.1039 11H95.6699ZM105.678 1.34C105.678 1.15333 105.771 1.06 105.958 1.06H106.364C106.55 1.06 106.644 1.15333 106.644 1.34V10.72C106.644 10.9067 106.55 11 106.364 11H105.734C105.584 11 105.468 10.9393 105.384 10.818L102.374 6.254L102.206 5.988C101.086 4.308 100.283 3.07133 99.7976 2.278C99.8349 3.37 99.8536 4.63 99.8536 6.058V10.72C99.8536 10.9067 99.7603 11 99.5736 11H99.1676C98.9809 11 98.8876 10.9067 98.8876 10.72V1.34C98.8876 1.15333 98.9809 1.06 99.1676 1.06H99.7976C99.9469 1.06 100.064 1.12067 100.148 1.242L103.144 5.792L103.676 6.618C104.618 8.046 105.304 9.11 105.734 9.81C105.696 8.69933 105.678 7.43467 105.678 6.016V1.34ZM115.836 1.34C115.836 1.15333 115.929 1.06 116.116 1.06H116.522C116.708 1.06 116.802 1.15333 116.802 1.34V10.72C116.802 10.9067 116.708 11 116.522 11H115.892C115.742 11 115.626 10.9393 115.542 10.818L112.532 6.254L112.364 5.988C111.244 4.308 110.441 3.07133 109.956 2.278C109.993 3.37 110.012 4.63 110.012 6.058V10.72C110.012 10.9067 109.918 11 109.732 11H109.326C109.139 11 109.046 10.9067 109.046 10.72V1.34C109.046 1.15333 109.139 1.06 109.326 1.06H109.956C110.105 1.06 110.222 1.12067 110.306 1.242L113.302 5.792L113.834 6.618C114.776 8.046 115.462 9.11 115.892 9.81C115.854 8.69933 115.836 7.43467 115.836 6.016V1.34Z" fill="#5C5C66"/>
</svg>
