<svg width="352" height="368" viewBox="0 0 352 368" fill="none" xmlns="http://www.w3.org/2000/svg">
<rect y="103" width="40" height="40" rx="20" fill="#BE3830"/>
<path d="M18.2898 119.04V117.878H20.9218V128H19.6338V119.04H18.2898Z" fill="white"/>
<rect width="12" height="3" transform="translate(40 121.5)" fill="#BE3830"/>
<rect x="153" y="24" width="41" height="40" rx="20" fill="#BE3830"/>
<path d="M170.218 41.426C170.283 40.5673 170.615 39.8953 171.212 39.41C171.809 38.9247 172.584 38.682 173.536 38.682C174.171 38.682 174.717 38.7987 175.174 39.032C175.641 39.256 175.991 39.564 176.224 39.956C176.467 40.348 176.588 40.7913 176.588 41.286C176.588 41.8647 176.42 42.364 176.084 42.784C175.757 43.204 175.328 43.4747 174.796 43.596V43.666C175.403 43.8153 175.883 44.1093 176.238 44.548C176.593 44.9867 176.77 45.5607 176.77 46.27C176.77 46.802 176.649 47.2827 176.406 47.712C176.163 48.132 175.799 48.4633 175.314 48.706C174.829 48.9487 174.245 49.07 173.564 49.07C172.575 49.07 171.763 48.8133 171.128 48.3C170.493 47.7773 170.139 47.04 170.064 46.088H171.296C171.361 46.648 171.59 47.1053 171.982 47.46C172.374 47.8147 172.897 47.992 173.55 47.992C174.203 47.992 174.698 47.824 175.034 47.488C175.379 47.1427 175.552 46.6993 175.552 46.158C175.552 45.458 175.319 44.954 174.852 44.646C174.385 44.338 173.681 44.184 172.738 44.184H172.416V43.12H172.752C173.611 43.1107 174.259 42.9707 174.698 42.7C175.137 42.42 175.356 41.9907 175.356 41.412C175.356 40.9173 175.193 40.5207 174.866 40.222C174.549 39.9233 174.091 39.774 173.494 39.774C172.915 39.774 172.449 39.9233 172.094 40.222C171.739 40.5207 171.529 40.922 171.464 41.426H170.218Z" fill="white"/>
<rect width="83" height="3" transform="translate(175 64) rotate(90)" fill="#BE3830"/>
<rect x="108" y="24" width="41" height="40" rx="20" fill="#BE3830"/>
<path d="M125.188 47.978C126.373 47.026 127.302 46.2467 127.974 45.64C128.646 45.024 129.21 44.3847 129.668 43.722C130.134 43.05 130.368 42.392 130.368 41.748C130.368 41.1413 130.218 40.6653 129.92 40.32C129.63 39.9653 129.159 39.788 128.506 39.788C127.871 39.788 127.376 39.9887 127.022 40.39C126.676 40.782 126.49 41.3093 126.462 41.972H125.23C125.267 40.9267 125.584 40.1193 126.182 39.55C126.779 38.9807 127.549 38.696 128.492 38.696C129.453 38.696 130.214 38.962 130.774 39.494C131.343 40.026 131.628 40.7587 131.628 41.692C131.628 42.4667 131.394 43.2227 130.928 43.96C130.47 44.688 129.948 45.332 129.36 45.892C128.772 46.4427 128.02 47.0867 127.106 47.824H131.922V48.888H125.188V47.978Z" fill="white"/>
<rect width="72" height="3" transform="translate(130 64) rotate(90)" fill="#BE3830"/>
<rect x="254" y="24" width="41" height="40" rx="20" fill="#BE3830"/>
<path d="M277.426 39.984H272.512V43.176C272.727 42.8773 273.044 42.6347 273.464 42.448C273.884 42.252 274.337 42.154 274.822 42.154C275.597 42.154 276.227 42.3173 276.712 42.644C277.198 42.9613 277.543 43.3767 277.748 43.89C277.963 44.394 278.07 44.9307 278.07 45.5C278.07 46.172 277.944 46.774 277.692 47.306C277.44 47.838 277.053 48.258 276.53 48.566C276.017 48.874 275.378 49.028 274.612 49.028C273.632 49.028 272.839 48.776 272.232 48.272C271.626 47.768 271.257 47.096 271.126 46.256H272.372C272.494 46.788 272.75 47.2033 273.142 47.502C273.534 47.8007 274.029 47.95 274.626 47.95C275.364 47.95 275.919 47.7307 276.292 47.292C276.666 46.844 276.852 46.256 276.852 45.528C276.852 44.8 276.666 44.24 276.292 43.848C275.919 43.4467 275.368 43.246 274.64 43.246C274.146 43.246 273.712 43.3673 273.338 43.61C272.974 43.8433 272.708 44.1653 272.54 44.576H271.336V38.864H277.426V39.984Z" fill="white"/>
<rect width="83" height="3" transform="translate(276 64) rotate(90)" fill="#BE3830"/>
<rect x="198" y="24" width="41" height="40" rx="20" fill="#BE3830"/>
<path d="M214.658 46.746V45.78L219.572 38.976H221.098V45.64H222.498V46.746H221.098V49H219.838V46.746H214.658ZM219.894 40.306L216.128 45.64H219.894V40.306Z" fill="white"/>
<rect width="25" height="3" transform="translate(220 64) rotate(90)" fill="#BE3830"/>
<rect y="166" width="41" height="40" rx="20" fill="#BE3830"/>
<path d="M22.5666 183.286C22.3613 182.25 21.722 181.732 20.6486 181.732C19.818 181.732 19.1973 182.054 18.7866 182.698C18.376 183.333 18.1753 184.383 18.1846 185.848C18.3993 185.363 18.754 184.985 19.2486 184.714C19.7526 184.434 20.3126 184.294 20.9286 184.294C21.89 184.294 22.6553 184.593 23.2246 185.19C23.8033 185.787 24.0926 186.613 24.0926 187.668C24.0926 188.303 23.9666 188.872 23.7146 189.376C23.472 189.88 23.0986 190.281 22.5946 190.58C22.1 190.879 21.498 191.028 20.7886 191.028C19.8273 191.028 19.076 190.813 18.5346 190.384C17.9933 189.955 17.6153 189.362 17.4006 188.606C17.186 187.85 17.0786 186.917 17.0786 185.806C17.0786 182.381 18.2733 180.668 20.6626 180.668C21.5773 180.668 22.296 180.915 22.8186 181.41C23.3413 181.905 23.6493 182.53 23.7426 183.286H22.5666ZM20.6626 185.372C20.2613 185.372 19.8833 185.456 19.5286 185.624C19.174 185.783 18.8846 186.03 18.6606 186.366C18.446 186.693 18.3386 187.094 18.3386 187.57C18.3386 188.279 18.544 188.858 18.9546 189.306C19.3653 189.745 19.9533 189.964 20.7186 189.964C21.372 189.964 21.89 189.763 22.2726 189.362C22.6646 188.951 22.8606 188.401 22.8606 187.71C22.8606 186.982 22.674 186.413 22.3006 186.002C21.9273 185.582 21.3813 185.372 20.6626 185.372Z" fill="white"/>
<rect width="11" height="3" transform="translate(41 184.5)" fill="#BE3830"/>
<rect width="12" height="3" transform="translate(300 184.5)" fill="#BE3830"/>
<rect x="312" y="166" width="40" height="40" rx="20" fill="#BE3830"/>
<path d="M335.277 181.872L331.385 191H330.097L334.045 181.998H328.641V180.906H335.277V181.872Z" fill="white"/>
<rect width="11" height="3" transform="translate(300 228.5)" fill="#BE3830"/>
<rect x="311" y="210" width="41" height="40" rx="20" fill="#BE3830"/>
<path d="M329.597 232.284C329.69 232.816 329.905 233.227 330.241 233.516C330.586 233.805 331.048 233.95 331.627 233.95C332.401 233.95 332.971 233.647 333.335 233.04C333.708 232.433 333.885 231.411 333.867 229.974C333.671 230.394 333.344 230.725 332.887 230.968C332.429 231.201 331.921 231.318 331.361 231.318C330.735 231.318 330.175 231.192 329.681 230.94C329.195 230.679 328.813 230.301 328.533 229.806C328.253 229.311 328.113 228.714 328.113 228.014C328.113 227.015 328.402 226.213 328.981 225.606C329.559 224.99 330.381 224.682 331.445 224.682C332.751 224.682 333.666 225.107 334.189 225.956C334.721 226.805 334.987 228.07 334.987 229.75C334.987 230.926 334.879 231.897 334.665 232.662C334.459 233.427 334.105 234.011 333.601 234.412C333.106 234.813 332.425 235.014 331.557 235.014C330.605 235.014 329.863 234.757 329.331 234.244C328.799 233.731 328.495 233.077 328.421 232.284H329.597ZM331.571 230.24C332.196 230.24 332.709 230.049 333.111 229.666C333.512 229.274 333.713 228.747 333.713 228.084C333.713 227.384 333.517 226.819 333.125 226.39C332.733 225.961 332.182 225.746 331.473 225.746C330.819 225.746 330.297 225.951 329.905 226.362C329.522 226.773 329.331 227.314 329.331 227.986C329.331 228.667 329.522 229.213 329.905 229.624C330.287 230.035 330.843 230.24 331.571 230.24Z" fill="white"/>
<rect y="210" width="41" height="40" rx="20" fill="#BE3830"/>
<path d="M18.8 229.736C18.2773 229.531 17.876 229.232 17.596 228.84C17.316 228.448 17.176 227.972 17.176 227.412C17.176 226.908 17.302 226.455 17.554 226.054C17.806 225.643 18.1793 225.321 18.674 225.088C19.178 224.845 19.7847 224.724 20.494 224.724C21.2033 224.724 21.8053 224.845 22.3 225.088C22.804 225.321 23.182 225.643 23.434 226.054C23.6953 226.455 23.826 226.908 23.826 227.412C23.826 227.953 23.6813 228.429 23.392 228.84C23.1027 229.241 22.706 229.54 22.202 229.736C22.7807 229.913 23.238 230.226 23.574 230.674C23.9193 231.113 24.092 231.645 24.092 232.27C24.092 232.877 23.9427 233.409 23.644 233.866C23.3453 234.314 22.9207 234.664 22.37 234.916C21.8287 235.159 21.2033 235.28 20.494 235.28C19.7847 235.28 19.1593 235.159 18.618 234.916C18.086 234.664 17.6707 234.314 17.372 233.866C17.0733 233.409 16.924 232.877 16.924 232.27C16.924 231.645 17.092 231.108 17.428 230.66C17.764 230.212 18.2213 229.904 18.8 229.736ZM22.594 227.566C22.594 226.997 22.4073 226.558 22.034 226.25C21.6607 225.942 21.1473 225.788 20.494 225.788C19.85 225.788 19.3413 225.942 18.968 226.25C18.5947 226.558 18.408 227.001 18.408 227.58C18.408 228.103 18.5993 228.523 18.982 228.84C19.374 229.157 19.878 229.316 20.494 229.316C21.1193 229.316 21.6233 229.157 22.006 228.84C22.398 228.513 22.594 228.089 22.594 227.566ZM20.494 230.296C19.8033 230.296 19.2387 230.459 18.8 230.786C18.3613 231.103 18.142 231.584 18.142 232.228C18.142 232.825 18.352 233.306 18.772 233.67C19.2013 234.034 19.7753 234.216 20.494 234.216C21.2127 234.216 21.782 234.034 22.202 233.67C22.622 233.306 22.832 232.825 22.832 232.228C22.832 231.603 22.6173 231.127 22.188 230.8C21.7587 230.464 21.194 230.296 20.494 230.296Z" fill="white"/>
<rect width="11" height="3" transform="translate(41 228.5)" fill="#BE3830"/>
<rect x="56.5" y="206.5" width="107" height="47" rx="3.5" fill="white"/>
<rect x="56.5" y="206.5" width="107" height="47" rx="3.5" stroke="#84848F"/>
<g clip-path="url(#clip0_5483_12362)">
<path d="M69.12 227.576C69.8987 227.576 70.576 227.752 71.152 228.104C71.728 228.445 72.1653 228.909 72.464 229.496C72.7733 230.072 72.928 230.707 72.928 231.4C72.928 232.083 72.768 232.717 72.448 233.304C72.128 233.891 71.664 234.36 71.056 234.712C70.4587 235.064 69.7547 235.24 68.944 235.24C68.0907 235.24 67.36 235.048 66.752 234.664C66.144 234.28 65.6853 233.763 65.376 233.112C65.0667 232.461 64.912 231.731 64.912 230.92C64.912 229.683 65.2107 228.573 65.808 227.592C66.416 226.6 67.2853 225.56 68.416 224.472L69.136 223.8C69.2427 223.693 69.3707 223.64 69.52 223.64H70.16C70.3413 223.64 70.432 223.699 70.432 223.816C70.432 223.88 70.3893 223.955 70.304 224.04L69.296 224.968C67.6853 226.461 66.6507 227.789 66.192 228.952C66.5013 228.525 66.9067 228.189 67.408 227.944C67.9093 227.699 68.48 227.576 69.12 227.576ZM68.944 234.312C69.5307 234.312 70.0427 234.184 70.48 233.928C70.9173 233.672 71.248 233.325 71.472 232.888C71.7067 232.451 71.824 231.96 71.824 231.416C71.824 230.573 71.5787 229.88 71.088 229.336C70.5973 228.792 69.9147 228.52 69.04 228.52C68.4213 228.52 67.888 228.648 67.44 228.904C66.992 229.149 66.6453 229.496 66.4 229.944C66.1653 230.381 66.048 230.872 66.048 231.416C66.048 231.96 66.1653 232.451 66.4 232.888C66.6347 233.325 66.9707 233.672 67.408 233.928C67.8453 234.184 68.3573 234.312 68.944 234.312ZM80.3744 228.856C81.0997 229.112 81.6597 229.512 82.0544 230.056C82.449 230.589 82.6464 231.213 82.6464 231.928C82.6464 232.557 82.481 233.128 82.1504 233.64C81.8197 234.141 81.345 234.536 80.7264 234.824C80.1077 235.112 79.377 235.256 78.5344 235.256C77.6917 235.256 76.961 235.112 76.3424 234.824C75.7237 234.536 75.249 234.141 74.9184 233.64C74.5877 233.128 74.4224 232.557 74.4224 231.928C74.4224 231.213 74.6197 230.589 75.0144 230.056C75.409 229.512 75.969 229.112 76.6944 228.856C76.1717 228.621 75.761 228.296 75.4624 227.88C75.1637 227.453 75.0144 226.952 75.0144 226.376C75.0144 225.8 75.1637 225.288 75.4624 224.84C75.761 224.392 76.177 224.045 76.7104 223.8C77.2437 223.544 77.8517 223.416 78.5344 223.416C79.217 223.416 79.825 223.544 80.3584 223.8C80.8917 224.045 81.3077 224.392 81.6064 224.84C81.905 225.288 82.0544 225.8 82.0544 226.376C82.0544 226.952 81.905 227.453 81.6064 227.88C81.3077 228.296 80.897 228.621 80.3744 228.856ZM76.0704 226.344C76.0704 226.984 76.2944 227.496 76.7424 227.88C77.201 228.264 77.7984 228.456 78.5344 228.456C79.2704 228.456 79.8624 228.264 80.3104 227.88C80.769 227.496 80.9984 226.984 80.9984 226.344C80.9984 225.747 80.7744 225.261 80.3264 224.888C79.889 224.504 79.2917 224.312 78.5344 224.312C77.777 224.312 77.1744 224.504 76.7264 224.888C76.289 225.261 76.0704 225.747 76.0704 226.344ZM78.5344 234.312C79.4624 234.312 80.193 234.088 80.7264 233.64C81.2704 233.181 81.5424 232.6 81.5424 231.896C81.5424 231.139 81.2704 230.525 80.7264 230.056C80.1824 229.587 79.4517 229.352 78.5344 229.352C77.617 229.352 76.8864 229.587 76.3424 230.056C75.7984 230.525 75.5264 231.139 75.5264 231.896C75.5264 232.6 75.793 233.181 76.3264 233.64C76.8704 234.088 77.6064 234.312 78.5344 234.312ZM88.2063 235.24C87.4596 235.24 86.8036 235.059 86.2383 234.696C85.6836 234.333 85.2409 233.827 84.9103 233.176C84.3876 232.141 84.1263 230.856 84.1263 229.32C84.1263 227.773 84.3876 226.483 84.9103 225.448C85.2409 224.797 85.6836 224.296 86.2383 223.944C86.8036 223.581 87.4596 223.4 88.2063 223.4C88.9529 223.4 89.6036 223.581 90.1583 223.944C90.7236 224.296 91.1716 224.797 91.5023 225.448C92.0249 226.483 92.2863 227.773 92.2863 229.32C92.2863 230.856 92.0249 232.141 91.5023 233.176C91.1716 233.827 90.7236 234.333 90.1583 234.696C89.6036 235.059 88.9529 235.24 88.2063 235.24ZM88.2063 234.312C89.2516 234.312 90.0356 233.768 90.5583 232.68C90.9743 231.795 91.1823 230.675 91.1823 229.32C91.1823 227.944 90.9743 226.819 90.5583 225.944C90.0463 224.867 89.2623 224.328 88.2063 224.328C87.1503 224.328 86.3663 224.867 85.8543 225.944C85.4383 226.819 85.2303 227.944 85.2303 229.32C85.2303 230.685 85.4383 231.805 85.8543 232.68C86.3769 233.768 87.1609 234.312 88.2063 234.312Z" fill="#1B1B1F"/>
<path d="M143.288 234.156C142.72 234.156 142.224 234.028 141.8 233.772C141.384 233.508 141.06 233.144 140.828 232.68C140.604 232.208 140.492 231.664 140.492 231.048C140.492 230.44 140.604 229.9 140.828 229.428C141.06 228.956 141.384 228.592 141.8 228.336C142.224 228.072 142.712 227.94 143.264 227.94C143.712 227.94 144.104 228.016 144.44 228.168C144.776 228.312 145.1 228.552 145.412 228.888C145.46 228.936 145.484 228.988 145.484 229.044C145.484 229.116 145.452 229.176 145.388 229.224L145.22 229.38C145.172 229.428 145.116 229.452 145.052 229.452C144.996 229.452 144.936 229.42 144.872 229.356C144.592 229.076 144.324 228.88 144.068 228.768C143.82 228.656 143.544 228.6 143.24 228.6C142.824 228.6 142.468 228.716 142.172 228.948C141.884 229.18 141.668 229.484 141.524 229.86C141.38 230.228 141.308 230.624 141.308 231.048C141.308 231.472 141.38 231.872 141.524 232.248C141.668 232.616 141.888 232.916 142.184 233.148C142.48 233.372 142.844 233.484 143.276 233.484C143.596 233.484 143.876 233.428 144.116 233.316C144.364 233.196 144.64 232.972 144.944 232.644C145.008 232.58 145.068 232.548 145.124 232.548C145.188 232.548 145.244 232.572 145.292 232.62L145.46 232.752C145.516 232.8 145.544 232.856 145.544 232.92C145.544 232.984 145.508 233.06 145.436 233.148C145.1 233.516 144.764 233.776 144.428 233.928C144.092 234.08 143.712 234.156 143.288 234.156ZM152.841 227.94C153.481 227.94 153.969 228.124 154.305 228.492C154.649 228.852 154.821 229.316 154.821 229.884V233.76C154.821 233.92 154.741 234 154.581 234H154.269C154.109 234 154.029 233.92 154.029 233.76V230.1C154.029 229.62 153.917 229.252 153.693 228.996C153.477 228.74 153.153 228.612 152.721 228.612C152.265 228.612 151.901 228.764 151.629 229.068C151.357 229.372 151.221 229.764 151.221 230.244V233.76C151.221 233.92 151.141 234 150.981 234H150.669C150.509 234 150.429 233.92 150.429 233.76V230.1C150.429 229.62 150.317 229.252 150.093 228.996C149.877 228.74 149.549 228.612 149.109 228.612C148.701 228.612 148.361 228.74 148.089 228.996C147.825 229.252 147.669 229.588 147.621 230.004V233.76C147.621 233.92 147.541 234 147.381 234H147.069C146.909 234 146.829 233.92 146.829 233.76V228.324C146.829 228.164 146.909 228.084 147.069 228.084H147.333C147.493 228.084 147.573 228.164 147.573 228.324V228.816C147.933 228.232 148.505 227.94 149.289 227.94C149.697 227.94 150.045 228.032 150.333 228.216C150.629 228.392 150.849 228.632 150.993 228.936C151.417 228.272 152.033 227.94 152.841 227.94Z" fill="#5C5C66"/>
</g>
<rect x="188.5" y="206.5" width="107" height="47" rx="3.5" fill="white"/>
<rect x="188.5" y="206.5" width="107" height="47" rx="3.5" stroke="#84848F"/>
<g clip-path="url(#clip1_5483_12362)">
<path d="M202.64 228.856C203.365 229.112 203.925 229.512 204.32 230.056C204.715 230.589 204.912 231.213 204.912 231.928C204.912 232.557 204.747 233.128 204.416 233.64C204.085 234.141 203.611 234.536 202.992 234.824C202.373 235.112 201.643 235.256 200.8 235.256C199.957 235.256 199.227 235.112 198.608 234.824C197.989 234.536 197.515 234.141 197.184 233.64C196.853 233.128 196.688 232.557 196.688 231.928C196.688 231.213 196.885 230.589 197.28 230.056C197.675 229.512 198.235 229.112 198.96 228.856C198.437 228.621 198.027 228.296 197.728 227.88C197.429 227.453 197.28 226.952 197.28 226.376C197.28 225.8 197.429 225.288 197.728 224.84C198.027 224.392 198.443 224.045 198.976 223.8C199.509 223.544 200.117 223.416 200.8 223.416C201.483 223.416 202.091 223.544 202.624 223.8C203.157 224.045 203.573 224.392 203.872 224.84C204.171 225.288 204.32 225.8 204.32 226.376C204.32 226.952 204.171 227.453 203.872 227.88C203.573 228.296 203.163 228.621 202.64 228.856ZM198.336 226.344C198.336 226.984 198.56 227.496 199.008 227.88C199.467 228.264 200.064 228.456 200.8 228.456C201.536 228.456 202.128 228.264 202.576 227.88C203.035 227.496 203.264 226.984 203.264 226.344C203.264 225.747 203.04 225.261 202.592 224.888C202.155 224.504 201.557 224.312 200.8 224.312C200.043 224.312 199.44 224.504 198.992 224.888C198.555 225.261 198.336 225.747 198.336 226.344ZM200.8 234.312C201.728 234.312 202.459 234.088 202.992 233.64C203.536 233.181 203.808 232.6 203.808 231.896C203.808 231.139 203.536 230.525 202.992 230.056C202.448 229.587 201.717 229.352 200.8 229.352C199.883 229.352 199.152 229.587 198.608 230.056C198.064 230.525 197.792 231.139 197.792 231.896C197.792 232.6 198.059 233.181 198.592 233.64C199.136 234.088 199.872 234.312 200.8 234.312ZM205.789 223.96C205.789 223.747 205.896 223.64 206.109 223.64H213.373C213.586 223.64 213.693 223.747 213.693 223.96V224.184C213.693 224.344 213.645 224.477 213.549 224.584C212.482 225.928 211.528 227.507 210.685 229.32C209.853 231.123 209.298 232.92 209.021 234.712C208.989 234.904 208.872 235 208.669 235H208.173C208.066 235 207.986 234.973 207.933 234.92C207.88 234.856 207.858 234.771 207.869 234.664C208.168 232.925 208.749 231.139 209.613 229.304C210.477 227.469 211.432 225.885 212.477 224.552H206.109C205.896 224.552 205.789 224.445 205.789 224.232V223.96ZM218.972 235.24C218.225 235.24 217.569 235.059 217.004 234.696C216.449 234.333 216.007 233.827 215.676 233.176C215.153 232.141 214.892 230.856 214.892 229.32C214.892 227.773 215.153 226.483 215.676 225.448C216.007 224.797 216.449 224.296 217.004 223.944C217.569 223.581 218.225 223.4 218.972 223.4C219.719 223.4 220.369 223.581 220.924 223.944C221.489 224.296 221.937 224.797 222.268 225.448C222.791 226.483 223.052 227.773 223.052 229.32C223.052 230.856 222.791 232.141 222.268 233.176C221.937 233.827 221.489 234.333 220.924 234.696C220.369 235.059 219.719 235.24 218.972 235.24ZM218.972 234.312C220.017 234.312 220.801 233.768 221.324 232.68C221.74 231.795 221.948 230.675 221.948 229.32C221.948 227.944 221.74 226.819 221.324 225.944C220.812 224.867 220.028 224.328 218.972 224.328C217.916 224.328 217.132 224.867 216.62 225.944C216.204 226.819 215.996 227.944 215.996 229.32C215.996 230.685 216.204 231.805 216.62 232.68C217.143 233.768 217.927 234.312 218.972 234.312Z" fill="#1B1B1F"/>
<path d="M275.288 234.156C274.72 234.156 274.224 234.028 273.8 233.772C273.384 233.508 273.06 233.144 272.828 232.68C272.604 232.208 272.492 231.664 272.492 231.048C272.492 230.44 272.604 229.9 272.828 229.428C273.06 228.956 273.384 228.592 273.8 228.336C274.224 228.072 274.712 227.94 275.264 227.94C275.712 227.94 276.104 228.016 276.44 228.168C276.776 228.312 277.1 228.552 277.412 228.888C277.46 228.936 277.484 228.988 277.484 229.044C277.484 229.116 277.452 229.176 277.388 229.224L277.22 229.38C277.172 229.428 277.116 229.452 277.052 229.452C276.996 229.452 276.936 229.42 276.872 229.356C276.592 229.076 276.324 228.88 276.068 228.768C275.82 228.656 275.544 228.6 275.24 228.6C274.824 228.6 274.468 228.716 274.172 228.948C273.884 229.18 273.668 229.484 273.524 229.86C273.38 230.228 273.308 230.624 273.308 231.048C273.308 231.472 273.38 231.872 273.524 232.248C273.668 232.616 273.888 232.916 274.184 233.148C274.48 233.372 274.844 233.484 275.276 233.484C275.596 233.484 275.876 233.428 276.116 233.316C276.364 233.196 276.64 232.972 276.944 232.644C277.008 232.58 277.068 232.548 277.124 232.548C277.188 232.548 277.244 232.572 277.292 232.62L277.46 232.752C277.516 232.8 277.544 232.856 277.544 232.92C277.544 232.984 277.508 233.06 277.436 233.148C277.1 233.516 276.764 233.776 276.428 233.928C276.092 234.08 275.712 234.156 275.288 234.156ZM284.841 227.94C285.481 227.94 285.969 228.124 286.305 228.492C286.649 228.852 286.821 229.316 286.821 229.884V233.76C286.821 233.92 286.741 234 286.581 234H286.269C286.109 234 286.029 233.92 286.029 233.76V230.1C286.029 229.62 285.917 229.252 285.693 228.996C285.477 228.74 285.153 228.612 284.721 228.612C284.265 228.612 283.901 228.764 283.629 229.068C283.357 229.372 283.221 229.764 283.221 230.244V233.76C283.221 233.92 283.141 234 282.981 234H282.669C282.509 234 282.429 233.92 282.429 233.76V230.1C282.429 229.62 282.317 229.252 282.093 228.996C281.877 228.74 281.549 228.612 281.109 228.612C280.701 228.612 280.361 228.74 280.089 228.996C279.825 229.252 279.669 229.588 279.621 230.004V233.76C279.621 233.92 279.541 234 279.381 234H279.069C278.909 234 278.829 233.92 278.829 233.76V228.324C278.829 228.164 278.909 228.084 279.069 228.084H279.333C279.493 228.084 279.573 228.164 279.573 228.324V228.816C279.933 228.232 280.505 227.94 281.289 227.94C281.697 227.94 282.045 228.032 282.333 228.216C282.629 228.392 282.849 228.632 282.993 228.936C283.417 228.272 284.033 227.94 284.841 227.94Z" fill="#5C5C66"/>
</g>
<path d="M60.76 190.196C59.5373 190.196 58.6273 189.911 58.03 189.342C57.4327 188.763 57.134 187.956 57.134 186.92V180.34C57.134 180.153 57.2273 180.06 57.414 180.06H57.848C58.0347 180.06 58.128 180.153 58.128 180.34V186.85C58.128 187.671 58.352 188.292 58.8 188.712C59.2573 189.132 59.9107 189.342 60.76 189.342C61.628 189.342 62.286 189.132 62.734 188.712C63.182 188.292 63.406 187.671 63.406 186.85V180.34C63.406 180.153 63.4993 180.06 63.686 180.06H64.12C64.3067 180.06 64.4 180.153 64.4 180.34V186.92C64.4 187.956 64.1013 188.763 63.504 189.342C62.9067 189.911 61.992 190.196 60.76 190.196ZM69.6316 182.93C70.4436 182.93 71.055 183.154 71.4656 183.602C71.8856 184.05 72.0956 184.61 72.0956 185.282V189.72C72.0956 189.907 72.0023 190 71.8156 190H71.4516C71.265 190 71.1716 189.907 71.1716 189.72V185.59C71.1716 184.974 71.0223 184.507 70.7236 184.19C70.425 183.873 69.9956 183.714 69.4356 183.714C69.081 183.714 68.7543 183.803 68.4556 183.98C68.157 184.148 67.919 184.381 67.7416 184.68C67.5643 184.979 67.4756 185.305 67.4756 185.66V189.72C67.4756 189.907 67.3823 190 67.1956 190H66.8316C66.645 190 66.5516 189.907 66.5516 189.72V183.378C66.5516 183.191 66.645 183.098 66.8316 183.098H67.1396C67.3263 183.098 67.4196 183.191 67.4196 183.378V184.05C67.653 183.677 67.961 183.397 68.3436 183.21C68.7263 183.023 69.1556 182.93 69.6316 182.93ZM79.1235 180.34C79.1235 180.153 79.2168 180.06 79.4035 180.06H79.7675C79.9542 180.06 80.0475 180.153 80.0475 180.34V189.72C80.0475 189.907 79.9542 190 79.7675 190H79.4735C79.2868 190 79.1935 189.907 79.1935 189.72V188.81C78.9415 189.249 78.6102 189.585 78.1995 189.818C77.7888 190.051 77.3035 190.168 76.7435 190.168C76.1555 190.168 75.6328 190.019 75.1755 189.72C74.7182 189.412 74.3588 188.987 74.0975 188.446C73.8362 187.895 73.7055 187.265 73.7055 186.556C73.7055 185.847 73.8362 185.221 74.0975 184.68C74.3682 184.129 74.7368 183.705 75.2035 183.406C75.6702 183.098 76.1928 182.944 76.7715 182.944C77.8355 182.944 78.6195 183.341 79.1235 184.134V180.34ZM76.8135 189.384C77.5135 189.384 78.0782 189.137 78.5075 188.642C78.9462 188.138 79.1655 187.443 79.1655 186.556C79.1655 185.679 78.9462 184.988 78.5075 184.484C78.0782 183.98 77.5135 183.728 76.8135 183.728C76.1695 183.728 75.6468 183.989 75.2455 184.512C74.8535 185.035 74.6575 185.716 74.6575 186.556C74.6575 187.405 74.8535 188.091 75.2455 188.614C75.6375 189.127 76.1602 189.384 76.8135 189.384ZM87.1499 188.362C87.2152 188.297 87.2852 188.264 87.3599 188.264C87.4252 188.264 87.4859 188.292 87.5419 188.348L87.7239 188.516C87.7892 188.581 87.8219 188.651 87.8219 188.726C87.8219 188.782 87.7939 188.847 87.7379 188.922C87.2806 189.379 86.8372 189.706 86.4079 189.902C85.9786 190.089 85.4979 190.182 84.9659 190.182C84.2939 190.182 83.7106 190.033 83.2159 189.734C82.7212 189.435 82.3386 189.02 82.0679 188.488C81.7972 187.947 81.6619 187.321 81.6619 186.612C81.6619 185.893 81.7926 185.259 82.0539 184.708C82.3246 184.148 82.7026 183.714 83.1879 183.406C83.6732 183.089 84.2332 182.93 84.8679 182.93C85.8106 182.93 86.5526 183.224 87.0939 183.812C87.6352 184.4 87.9059 185.193 87.9059 186.192V186.36C87.8966 186.444 87.8639 186.509 87.8079 186.556C87.7612 186.603 87.6959 186.626 87.6119 186.626H82.5999C82.6279 187.41 82.8332 188.073 83.2159 188.614C83.6079 189.146 84.1912 189.412 84.9659 189.412C85.3859 189.412 85.7546 189.337 86.0719 189.188C86.3986 189.029 86.7579 188.754 87.1499 188.362ZM84.8679 183.7C84.2519 183.7 83.7432 183.891 83.3419 184.274C82.9499 184.647 82.7119 185.198 82.6279 185.926H86.9819C86.9632 185.245 86.7672 184.703 86.3939 184.302C86.0206 183.901 85.5119 183.7 84.8679 183.7ZM92.1374 183.042C92.3707 183.042 92.6461 183.079 92.9634 183.154C93.1314 183.21 93.1967 183.327 93.1594 183.504L93.1034 183.728C93.0567 183.905 92.9401 183.971 92.7534 183.924C92.5294 183.868 92.3241 183.84 92.1374 183.84C91.6614 183.84 91.2647 184.045 90.9474 184.456C90.6394 184.867 90.4854 185.436 90.4854 186.164V189.72C90.4854 189.907 90.3921 190 90.2054 190H89.8414C89.6547 190 89.5614 189.907 89.5614 189.72V183.378C89.5614 183.191 89.6547 183.098 89.8414 183.098H90.1494C90.3361 183.098 90.4294 183.191 90.4294 183.378V184.148C90.5881 183.803 90.8121 183.532 91.1014 183.336C91.4001 183.14 91.7454 183.042 92.1374 183.042ZM101.085 183.504C101.767 183.504 102.359 183.658 102.863 183.966C103.367 184.265 103.75 184.671 104.011 185.184C104.282 185.688 104.417 186.243 104.417 186.85C104.417 187.447 104.277 188.003 103.997 188.516C103.717 189.029 103.311 189.44 102.779 189.748C102.257 190.056 101.641 190.21 100.931 190.21C100.185 190.21 99.5455 190.042 99.0135 189.706C98.4815 189.37 98.0801 188.917 97.8095 188.348C97.5388 187.779 97.4035 187.139 97.4035 186.43C97.4035 185.347 97.6648 184.377 98.1875 183.518C98.7195 182.65 99.4801 181.74 100.469 180.788L101.099 180.2C101.193 180.107 101.305 180.06 101.435 180.06H101.995C102.154 180.06 102.233 180.111 102.233 180.214C102.233 180.27 102.196 180.335 102.121 180.41L101.239 181.222C99.8301 182.529 98.9248 183.691 98.5235 184.708C98.7941 184.335 99.1488 184.041 99.5875 183.826C100.026 183.611 100.525 183.504 101.085 183.504ZM100.931 189.398C101.445 189.398 101.893 189.286 102.275 189.062C102.658 188.838 102.947 188.535 103.143 188.152C103.349 187.769 103.451 187.34 103.451 186.864C103.451 186.127 103.237 185.52 102.807 185.044C102.378 184.568 101.781 184.33 101.015 184.33C100.474 184.33 100.007 184.442 99.6155 184.666C99.2235 184.881 98.9201 185.184 98.7055 185.576C98.5001 185.959 98.3975 186.388 98.3975 186.864C98.3975 187.34 98.5001 187.769 98.7055 188.152C98.9108 188.535 99.2048 188.838 99.5875 189.062C99.9701 189.286 100.418 189.398 100.931 189.398ZM109.186 190.21C108.533 190.21 107.959 190.051 107.464 189.734C106.979 189.417 106.592 188.973 106.302 188.404C105.845 187.499 105.616 186.374 105.616 185.03C105.616 183.677 105.845 182.547 106.302 181.642C106.592 181.073 106.979 180.634 107.464 180.326C107.959 180.009 108.533 179.85 109.186 179.85C109.84 179.85 110.409 180.009 110.894 180.326C111.389 180.634 111.781 181.073 112.07 181.642C112.528 182.547 112.756 183.677 112.756 185.03C112.756 186.374 112.528 187.499 112.07 188.404C111.781 188.973 111.389 189.417 110.894 189.734C110.409 190.051 109.84 190.21 109.186 190.21ZM109.186 189.398C110.101 189.398 110.787 188.922 111.244 187.97C111.608 187.195 111.79 186.215 111.79 185.03C111.79 183.826 111.608 182.841 111.244 182.076C110.796 181.133 110.11 180.662 109.186 180.662C108.262 180.662 107.576 181.133 107.128 182.076C106.764 182.841 106.582 183.826 106.582 185.03C106.582 186.225 106.764 187.205 107.128 187.97C107.586 188.922 108.272 189.398 109.186 189.398ZM117.772 190.21C117.119 190.21 116.545 190.051 116.05 189.734C115.565 189.417 115.178 188.973 114.888 188.404C114.431 187.499 114.202 186.374 114.202 185.03C114.202 183.677 114.431 182.547 114.888 181.642C115.178 181.073 115.565 180.634 116.05 180.326C116.545 180.009 117.119 179.85 117.772 179.85C118.426 179.85 118.995 180.009 119.48 180.326C119.975 180.634 120.367 181.073 120.656 181.642C121.114 182.547 121.342 183.677 121.342 185.03C121.342 186.374 121.114 187.499 120.656 188.404C120.367 188.973 119.975 189.417 119.48 189.734C118.995 190.051 118.426 190.21 117.772 190.21ZM117.772 189.398C118.687 189.398 119.373 188.922 119.83 187.97C120.194 187.195 120.376 186.215 120.376 185.03C120.376 183.826 120.194 182.841 119.83 182.076C119.382 181.133 118.696 180.662 117.772 180.662C116.848 180.662 116.162 181.133 115.714 182.076C115.35 182.841 115.168 183.826 115.168 185.03C115.168 186.225 115.35 187.205 115.714 187.97C116.172 188.922 116.858 189.398 117.772 189.398Z" fill="#5C5C66"/>
<path d="M266.496 179.85C267.242 179.85 267.882 180.018 268.414 180.354C268.946 180.681 269.347 181.129 269.618 181.698C269.888 182.267 270.024 182.907 270.024 183.616C270.024 184.363 269.893 185.058 269.632 185.702C269.37 186.346 269.02 186.943 268.582 187.494C268.152 188.045 267.611 188.633 266.958 189.258L266.328 189.86C266.234 189.953 266.122 190 265.992 190H265.432C265.273 190 265.194 189.949 265.194 189.846C265.194 189.79 265.231 189.725 265.306 189.65L266.188 188.838C267.606 187.541 268.512 186.369 268.904 185.324C268.633 185.697 268.278 185.996 267.84 186.22C267.401 186.435 266.902 186.542 266.342 186.542C265.66 186.542 265.068 186.393 264.564 186.094C264.06 185.786 263.672 185.38 263.402 184.876C263.14 184.363 263.01 183.807 263.01 183.21C263.01 182.613 263.15 182.057 263.43 181.544C263.71 181.031 264.111 180.62 264.634 180.312C265.166 180.004 265.786 179.85 266.496 179.85ZM266.412 185.73C266.944 185.73 267.406 185.618 267.798 185.394C268.199 185.17 268.502 184.867 268.708 184.484C268.922 184.101 269.03 183.672 269.03 183.196C269.03 182.72 268.927 182.291 268.722 181.908C268.516 181.516 268.222 181.213 267.84 180.998C267.457 180.774 267.009 180.662 266.496 180.662C265.721 180.662 265.105 180.9 264.648 181.376C264.2 181.852 263.976 182.459 263.976 183.196C263.976 183.933 264.19 184.54 264.62 185.016C265.049 185.492 265.646 185.73 266.412 185.73ZM275.184 183.588C275.828 183.588 276.393 183.723 276.878 183.994C277.373 184.255 277.756 184.629 278.026 185.114C278.297 185.599 278.432 186.159 278.432 186.794C278.432 187.363 278.297 187.909 278.026 188.432C277.756 188.955 277.364 189.379 276.85 189.706C276.337 190.033 275.735 190.196 275.044 190.196C274.372 190.196 273.789 190.112 273.294 189.944C272.809 189.776 272.258 189.487 271.642 189.076C271.549 189.02 271.502 188.945 271.502 188.852C271.502 188.787 271.521 188.731 271.558 188.684L271.74 188.432C271.796 188.348 271.862 188.306 271.936 188.306C271.992 188.306 272.058 188.329 272.132 188.376C272.702 188.759 273.187 189.025 273.588 189.174C273.999 189.323 274.452 189.398 274.946 189.398C275.469 189.398 275.922 189.281 276.304 189.048C276.687 188.805 276.976 188.488 277.172 188.096C277.378 187.695 277.48 187.261 277.48 186.794C277.48 186.047 277.27 185.464 276.85 185.044C276.44 184.624 275.847 184.414 275.072 184.414C274.242 184.414 273.546 184.666 272.986 185.17C272.884 185.263 272.762 185.301 272.622 185.282L272.314 185.24C272.23 185.231 272.165 185.198 272.118 185.142C272.072 185.086 272.053 185.016 272.062 184.932L272.44 180.326C272.45 180.242 272.478 180.177 272.524 180.13C272.58 180.083 272.65 180.06 272.734 180.06H277.718C277.905 180.06 277.998 180.153 277.998 180.34V180.592C277.998 180.779 277.905 180.872 277.718 180.872H273.266L272.972 184.316C273.234 184.101 273.551 183.929 273.924 183.798C274.307 183.658 274.727 183.588 275.184 183.588ZM283.411 190.21C282.758 190.21 282.184 190.051 281.689 189.734C281.204 189.417 280.816 188.973 280.527 188.404C280.07 187.499 279.841 186.374 279.841 185.03C279.841 183.677 280.07 182.547 280.527 181.642C280.816 181.073 281.204 180.634 281.689 180.326C282.184 180.009 282.758 179.85 283.411 179.85C284.064 179.85 284.634 180.009 285.119 180.326C285.614 180.634 286.006 181.073 286.295 181.642C286.752 182.547 286.981 183.677 286.981 185.03C286.981 186.374 286.752 187.499 286.295 188.404C286.006 188.973 285.614 189.417 285.119 189.734C284.634 190.051 284.064 190.21 283.411 190.21ZM283.411 189.398C284.326 189.398 285.012 188.922 285.469 187.97C285.833 187.195 286.015 186.215 286.015 185.03C286.015 183.826 285.833 182.841 285.469 182.076C285.021 181.133 284.335 180.662 283.411 180.662C282.487 180.662 281.801 181.133 281.353 182.076C280.989 182.841 280.807 183.826 280.807 185.03C280.807 186.225 280.989 187.205 281.353 187.97C281.81 188.922 282.496 189.398 283.411 189.398ZM291.679 189.3C291.493 189.3 291.399 189.207 291.399 189.02V186.052H288.445C288.259 186.052 288.165 185.959 288.165 185.772V185.548C288.165 185.361 288.259 185.268 288.445 185.268H291.399V182.3C291.399 182.113 291.493 182.02 291.679 182.02H291.931C292.118 182.02 292.211 182.113 292.211 182.3V185.268H295.165C295.352 185.268 295.445 185.361 295.445 185.548V185.772C295.445 185.959 295.352 186.052 295.165 186.052H292.211V189.02C292.211 189.207 292.118 189.3 291.931 189.3H291.679Z" fill="#5C5C66"/>
<path d="M57.568 128C57.4187 128 57.2973 127.958 57.204 127.874C57.12 127.781 57.078 127.659 57.078 127.51V118.55C57.078 118.391 57.12 118.27 57.204 118.186C57.2973 118.102 57.4187 118.06 57.568 118.06H58.184C58.3427 118.06 58.464 118.102 58.548 118.186C58.632 118.27 58.674 118.391 58.674 118.55V126.642H62.72C62.8787 126.642 63 126.684 63.084 126.768C63.168 126.852 63.21 126.973 63.21 127.132V127.51C63.21 127.659 63.168 127.781 63.084 127.874C63 127.958 62.8787 128 62.72 128H57.568ZM69.3155 126.236C69.4369 126.133 69.5535 126.082 69.6655 126.082C69.7775 126.082 69.8942 126.143 70.0155 126.264L70.2115 126.474C70.3142 126.595 70.3655 126.712 70.3655 126.824C70.3655 126.945 70.3049 127.062 70.1835 127.174C69.7542 127.547 69.3249 127.813 68.8955 127.972C68.4755 128.131 68.0089 128.21 67.4955 128.21C66.7769 128.21 66.1515 128.061 65.6195 127.762C65.0969 127.463 64.6909 127.043 64.4015 126.502C64.1215 125.951 63.9815 125.317 63.9815 124.598C63.9815 123.889 64.1169 123.254 64.3875 122.694C64.6675 122.125 65.0595 121.681 65.5635 121.364C66.0769 121.047 66.6742 120.888 67.3555 120.888C68.3729 120.888 69.1569 121.191 69.7075 121.798C70.2582 122.395 70.5335 123.221 70.5335 124.276V124.402C70.5242 124.551 70.4775 124.668 70.3935 124.752C70.3095 124.836 70.1882 124.878 70.0295 124.878H65.4375C65.4935 125.494 65.6942 125.998 66.0395 126.39C66.3942 126.773 66.8889 126.964 67.5235 126.964C67.8689 126.964 68.1722 126.913 68.4335 126.81C68.6949 126.698 68.9889 126.507 69.3155 126.236ZM67.3275 122.064C66.8142 122.064 66.3989 122.218 66.0815 122.526C65.7735 122.825 65.5729 123.249 65.4795 123.8H69.0775C69.0402 123.259 68.8722 122.834 68.5735 122.526C68.2749 122.218 67.8595 122.064 67.3275 122.064ZM75.4071 120.888C76.2004 120.888 76.8071 121.112 77.2271 121.56C77.6564 121.999 77.8711 122.568 77.8711 123.268V127.51C77.8711 127.659 77.8291 127.781 77.7451 127.874C77.6611 127.958 77.5397 128 77.3811 128H76.8771C76.7277 128 76.6064 127.958 76.5131 127.874C76.4291 127.781 76.3871 127.659 76.3871 127.51V123.73C76.3871 123.226 76.2611 122.839 76.0091 122.568C75.7664 122.297 75.4164 122.162 74.9591 122.162C74.5111 122.162 74.1331 122.316 73.8251 122.624C73.5264 122.932 73.3771 123.319 73.3771 123.786V127.51C73.3771 127.659 73.3351 127.781 73.2511 127.874C73.1671 127.958 73.0457 128 72.8871 128H72.3831C72.2337 128 72.1124 127.958 72.0191 127.874C71.9351 127.781 71.8931 127.659 71.8931 127.51V121.588C71.8931 121.429 71.9351 121.308 72.0191 121.224C72.1124 121.14 72.2337 121.098 72.3831 121.098H72.7891C72.9477 121.098 73.0691 121.14 73.1531 121.224C73.2371 121.308 73.2791 121.429 73.2791 121.588V121.952C73.5031 121.607 73.7971 121.345 74.1611 121.168C74.5251 120.981 74.9404 120.888 75.4071 120.888ZM84.4347 121.546C84.4347 121.406 84.4767 121.299 84.5607 121.224C84.654 121.14 84.7753 121.098 84.9247 121.098H85.3167C85.4753 121.098 85.5967 121.14 85.6807 121.224C85.7647 121.308 85.8067 121.429 85.8067 121.588V127.748C85.8067 128.672 85.508 129.391 84.9107 129.904C84.3227 130.417 83.5387 130.674 82.5587 130.674C81.5787 130.674 80.6547 130.422 79.7867 129.918C79.6093 129.825 79.5207 129.699 79.5207 129.54C79.5207 129.456 79.558 129.353 79.6327 129.232L79.8147 128.966C79.9173 128.807 80.0433 128.728 80.1927 128.728C80.2953 128.728 80.398 128.761 80.5007 128.826C80.874 129.041 81.2193 129.195 81.5367 129.288C81.854 129.391 82.19 129.442 82.5447 129.442C83.086 129.442 83.52 129.293 83.8467 128.994C84.1827 128.705 84.3507 128.247 84.3507 127.622V126.88C83.884 127.543 83.184 127.874 82.2507 127.874C81.672 127.874 81.1493 127.729 80.6827 127.44C80.2253 127.141 79.866 126.731 79.6047 126.208C79.3527 125.676 79.2267 125.069 79.2267 124.388C79.2267 123.707 79.3527 123.105 79.6047 122.582C79.866 122.05 80.2253 121.635 80.6827 121.336C81.1493 121.037 81.672 120.888 82.2507 120.888C83.24 120.888 83.968 121.257 84.4347 121.994V121.546ZM82.5447 126.628C83.086 126.628 83.5293 126.423 83.8747 126.012C84.22 125.592 84.3927 125.051 84.3927 124.388C84.3927 123.735 84.22 123.203 83.8747 122.792C83.5387 122.372 83.0953 122.162 82.5447 122.162C81.9847 122.162 81.5413 122.367 81.2147 122.778C80.888 123.189 80.7247 123.725 80.7247 124.388C80.7247 125.06 80.888 125.601 81.2147 126.012C81.5413 126.423 81.9847 126.628 82.5447 126.628ZM90.852 126.824C90.88 126.815 90.922 126.81 90.978 126.81C91.2113 126.81 91.3513 126.945 91.398 127.216L91.44 127.44C91.4493 127.468 91.454 127.515 91.454 127.58C91.454 127.813 91.3233 127.963 91.062 128.028C90.6887 128.112 90.348 128.154 90.04 128.154C89.3773 128.154 88.8967 128 88.598 127.692C88.3087 127.384 88.164 126.922 88.164 126.306V122.232H87.394C87.2447 122.232 87.1233 122.19 87.03 122.106C86.946 122.013 86.904 121.891 86.904 121.742V121.588C86.904 121.429 86.946 121.308 87.03 121.224C87.1233 121.14 87.2447 121.098 87.394 121.098H88.164V119.362C88.164 119.203 88.206 119.082 88.29 118.998C88.3833 118.914 88.5047 118.872 88.654 118.872H89.158C89.3167 118.872 89.438 118.914 89.522 118.998C89.606 119.082 89.648 119.203 89.648 119.362V121.098H90.908C91.0667 121.098 91.188 121.14 91.272 121.224C91.356 121.308 91.398 121.429 91.398 121.588V121.742C91.398 121.891 91.356 122.013 91.272 122.106C91.188 122.19 91.0667 122.232 90.908 122.232H89.648V126.124C89.648 126.395 89.704 126.586 89.816 126.698C89.9373 126.81 90.1287 126.866 90.39 126.866C90.502 126.866 90.656 126.852 90.852 126.824ZM96.1336 120.888C96.927 120.888 97.5336 121.112 97.9536 121.56C98.383 121.999 98.5976 122.568 98.5976 123.268V127.51C98.5976 127.659 98.5556 127.781 98.4716 127.874C98.3876 127.958 98.2663 128 98.1076 128H97.6036C97.4543 128 97.333 127.958 97.2396 127.874C97.1556 127.781 97.1136 127.659 97.1136 127.51V123.73C97.1136 123.226 96.9876 122.839 96.7356 122.568C96.493 122.297 96.143 122.162 95.6856 122.162C95.2376 122.162 94.8596 122.316 94.5516 122.624C94.253 122.932 94.1036 123.319 94.1036 123.786V127.51C94.1036 127.659 94.0616 127.781 93.9776 127.874C93.8936 127.958 93.7723 128 93.6136 128H93.1096C92.9603 128 92.839 127.958 92.7456 127.874C92.6616 127.781 92.6196 127.659 92.6196 127.51V118.55C92.6196 118.391 92.6616 118.27 92.7456 118.186C92.839 118.102 92.9603 118.06 93.1096 118.06H93.6136C93.7723 118.06 93.8936 118.102 93.9776 118.186C94.0616 118.27 94.1036 118.391 94.1036 118.55V121.812C94.3276 121.513 94.6123 121.285 94.9576 121.126C95.3123 120.967 95.7043 120.888 96.1336 120.888Z" fill="#1B1B1F"/>
<rect x="56" y="152" width="240" height="4" rx="2" fill="#DEDEE3"/>
<rect x="130" y="151" width="88" height="6" rx="3" fill="#0063FB"/>
<rect x="114" y="140" width="28" height="28" rx="14" fill="#0063FB"/>
<g filter="url(#filter0_dd_5483_12362)">
<rect x="187" y="93" width="62" height="32" rx="4" fill="#1B1B1F"/>
<path d="M200.81 108.624C201.445 108.848 201.935 109.198 202.28 109.674C202.625 110.141 202.798 110.687 202.798 111.312C202.798 111.863 202.653 112.362 202.364 112.81C202.075 113.249 201.659 113.594 201.118 113.846C200.577 114.098 199.937 114.224 199.2 114.224C198.463 114.224 197.823 114.098 197.282 113.846C196.741 113.594 196.325 113.249 196.036 112.81C195.747 112.362 195.602 111.863 195.602 111.312C195.602 110.687 195.775 110.141 196.12 109.674C196.465 109.198 196.955 108.848 197.59 108.624C197.133 108.419 196.773 108.134 196.512 107.77C196.251 107.397 196.12 106.958 196.12 106.454C196.12 105.95 196.251 105.502 196.512 105.11C196.773 104.718 197.137 104.415 197.604 104.2C198.071 103.976 198.603 103.864 199.2 103.864C199.797 103.864 200.329 103.976 200.796 104.2C201.263 104.415 201.627 104.718 201.888 105.11C202.149 105.502 202.28 105.95 202.28 106.454C202.28 106.958 202.149 107.397 201.888 107.77C201.627 108.134 201.267 108.419 200.81 108.624ZM197.044 106.426C197.044 106.986 197.24 107.434 197.632 107.77C198.033 108.106 198.556 108.274 199.2 108.274C199.844 108.274 200.362 108.106 200.754 107.77C201.155 107.434 201.356 106.986 201.356 106.426C201.356 105.903 201.16 105.479 200.768 105.152C200.385 104.816 199.863 104.648 199.2 104.648C198.537 104.648 198.01 104.816 197.618 105.152C197.235 105.479 197.044 105.903 197.044 106.426ZM199.2 113.398C200.012 113.398 200.651 113.202 201.118 112.81C201.594 112.409 201.832 111.9 201.832 111.284C201.832 110.621 201.594 110.085 201.118 109.674C200.642 109.263 200.003 109.058 199.2 109.058C198.397 109.058 197.758 109.263 197.282 109.674C196.806 110.085 196.568 110.621 196.568 111.284C196.568 111.9 196.801 112.409 197.268 112.81C197.744 113.202 198.388 113.398 199.2 113.398ZM203.565 104.34C203.565 104.153 203.659 104.06 203.845 104.06H210.201C210.388 104.06 210.481 104.153 210.481 104.34V104.536C210.481 104.676 210.439 104.793 210.355 104.886C209.422 106.062 208.587 107.443 207.849 109.03C207.121 110.607 206.636 112.18 206.393 113.748C206.365 113.916 206.263 114 206.085 114H205.651C205.558 114 205.488 113.977 205.441 113.93C205.395 113.874 205.376 113.799 205.385 113.706C205.647 112.185 206.155 110.621 206.911 109.016C207.667 107.411 208.503 106.025 209.417 104.858H203.845C203.659 104.858 203.565 104.765 203.565 104.578V104.34ZM215.1 114.21C214.447 114.21 213.873 114.051 213.378 113.734C212.893 113.417 212.506 112.973 212.216 112.404C211.759 111.499 211.53 110.374 211.53 109.03C211.53 107.677 211.759 106.547 212.216 105.642C212.506 105.073 212.893 104.634 213.378 104.326C213.873 104.009 214.447 103.85 215.1 103.85C215.754 103.85 216.323 104.009 216.808 104.326C217.303 104.634 217.695 105.073 217.984 105.642C218.442 106.547 218.67 107.677 218.67 109.03C218.67 110.374 218.442 111.499 217.984 112.404C217.695 112.973 217.303 113.417 216.808 113.734C216.323 114.051 215.754 114.21 215.1 114.21ZM215.1 113.398C216.015 113.398 216.701 112.922 217.158 111.97C217.522 111.195 217.704 110.215 217.704 109.03C217.704 107.826 217.522 106.841 217.158 106.076C216.71 105.133 216.024 104.662 215.1 104.662C214.176 104.662 213.49 105.133 213.042 106.076C212.678 106.841 212.496 107.826 212.496 109.03C212.496 110.225 212.678 111.205 213.042 111.97C213.5 112.922 214.186 113.398 215.1 113.398ZM226.357 114.182C225.695 114.182 225.116 114.033 224.621 113.734C224.136 113.426 223.758 113.001 223.487 112.46C223.226 111.909 223.095 111.275 223.095 110.556C223.095 109.847 223.226 109.217 223.487 108.666C223.758 108.115 224.136 107.691 224.621 107.392C225.116 107.084 225.685 106.93 226.329 106.93C226.852 106.93 227.309 107.019 227.701 107.196C228.093 107.364 228.471 107.644 228.835 108.036C228.891 108.092 228.919 108.153 228.919 108.218C228.919 108.302 228.882 108.372 228.807 108.428L228.611 108.61C228.555 108.666 228.49 108.694 228.415 108.694C228.35 108.694 228.28 108.657 228.205 108.582C227.879 108.255 227.566 108.027 227.267 107.896C226.978 107.765 226.656 107.7 226.301 107.7C225.816 107.7 225.401 107.835 225.055 108.106C224.719 108.377 224.467 108.731 224.299 109.17C224.131 109.599 224.047 110.061 224.047 110.556C224.047 111.051 224.131 111.517 224.299 111.956C224.467 112.385 224.724 112.735 225.069 113.006C225.415 113.267 225.839 113.398 226.343 113.398C226.717 113.398 227.043 113.333 227.323 113.202C227.613 113.062 227.935 112.801 228.289 112.418C228.364 112.343 228.434 112.306 228.499 112.306C228.574 112.306 228.639 112.334 228.695 112.39L228.891 112.544C228.957 112.6 228.989 112.665 228.989 112.74C228.989 112.815 228.947 112.903 228.863 113.006C228.471 113.435 228.079 113.739 227.687 113.916C227.295 114.093 226.852 114.182 226.357 114.182ZM237.503 106.93C238.25 106.93 238.819 107.145 239.211 107.574C239.612 107.994 239.813 108.535 239.813 109.198V113.72C239.813 113.907 239.72 114 239.533 114H239.169C238.982 114 238.889 113.907 238.889 113.72V109.45C238.889 108.89 238.758 108.461 238.497 108.162C238.245 107.863 237.867 107.714 237.363 107.714C236.831 107.714 236.406 107.891 236.089 108.246C235.772 108.601 235.613 109.058 235.613 109.618V113.72C235.613 113.907 235.52 114 235.333 114H234.969C234.782 114 234.689 113.907 234.689 113.72V109.45C234.689 108.89 234.558 108.461 234.297 108.162C234.045 107.863 233.662 107.714 233.149 107.714C232.673 107.714 232.276 107.863 231.959 108.162C231.651 108.461 231.469 108.853 231.413 109.338V113.72C231.413 113.907 231.32 114 231.133 114H230.769C230.582 114 230.489 113.907 230.489 113.72V107.378C230.489 107.191 230.582 107.098 230.769 107.098H231.077C231.264 107.098 231.357 107.191 231.357 107.378V107.952C231.777 107.271 232.444 106.93 233.359 106.93C233.835 106.93 234.241 107.037 234.577 107.252C234.922 107.457 235.179 107.737 235.347 108.092C235.842 107.317 236.56 106.93 237.503 106.93Z" fill="white"/>
<path d="M216.586 131.586L212.343 127.343C210.843 125.843 208.808 125 206.686 125H229.314C227.192 125 225.157 125.843 223.657 127.343L219.414 131.586C218.633 132.367 217.367 132.367 216.586 131.586Z" fill="#1B1B1F"/>
</g>
<path d="M204 154C204 146.268 210.268 140 218 140C225.732 140 232 146.268 232 154C232 161.732 225.732 168 218 168C210.268 168 204 161.732 204 154Z" fill="#00337F"/>
<path xmlns="http://www.w3.org/2000/svg" d="M204 154C204 146.268 210.268 140 218 140C225.732 140 232 146.268 232 154C232 161.732 225.732 168 218 168C210.268 168 204 161.732 204 154Z" stroke="black" stroke-opacity="0.08" stroke-width="16"/>
<rect width="62" height="3" transform="translate(150 242) rotate(90)" fill="#BE3830"/>
<rect x="125.5" y="304" width="46" height="40" rx="20" fill="#BE3830"/>
<path d="M142.394 320.04V318.878H145.026V329H143.738V320.04H142.394ZM147.215 323.834C147.215 322.229 147.476 320.978 147.999 320.082C148.521 319.177 149.436 318.724 150.743 318.724C152.04 318.724 152.95 319.177 153.473 320.082C153.995 320.978 154.257 322.229 154.257 323.834C154.257 325.467 153.995 326.737 153.473 327.642C152.95 328.547 152.04 329 150.743 329C149.436 329 148.521 328.547 147.999 327.642C147.476 326.737 147.215 325.467 147.215 323.834ZM152.997 323.834C152.997 323.022 152.941 322.336 152.829 321.776C152.726 321.207 152.507 320.749 152.171 320.404C151.844 320.059 151.368 319.886 150.743 319.886C150.108 319.886 149.623 320.059 149.287 320.404C148.96 320.749 148.741 321.207 148.629 321.776C148.526 322.336 148.475 323.022 148.475 323.834C148.475 324.674 148.526 325.379 148.629 325.948C148.741 326.517 148.96 326.975 149.287 327.32C149.623 327.665 150.108 327.838 150.743 327.838C151.368 327.838 151.844 327.665 152.171 327.32C152.507 326.975 152.726 326.517 152.829 325.948C152.941 325.379 152.997 324.674 152.997 323.834Z" fill="white"/>
<defs>
<filter id="filter0_dd_5483_12362" x="179" y="88" width="78" height="55.1716" filterUnits="userSpaceOnUse" color-interpolation-filters="sRGB">
<feFlood flood-opacity="0" result="BackgroundImageFix"/>
<feColorMatrix in="SourceAlpha" type="matrix" values="0 0 0 0 0 0 0 0 0 0 0 0 0 0 0 0 0 0 127 0" result="hardAlpha"/>
<feOffset dy="3"/>
<feGaussianBlur stdDeviation="4"/>
<feComposite in2="hardAlpha" operator="out"/>
<feColorMatrix type="matrix" values="0 0 0 0 0 0 0 0 0 0 0 0 0 0 0 0 0 0 0.16 0"/>
<feBlend mode="normal" in2="BackgroundImageFix" result="effect1_dropShadow_5483_12362"/>
<feColorMatrix in="SourceAlpha" type="matrix" values="0 0 0 0 0 0 0 0 0 0 0 0 0 0 0 0 0 0 127 0" result="hardAlpha"/>
<feOffset dy="3"/>
<feGaussianBlur stdDeviation="3"/>
<feComposite in2="hardAlpha" operator="out"/>
<feColorMatrix type="matrix" values="0 0 0 0 0 0 0 0 0 0 0 0 0 0 0 0 0 0 0.1 0"/>
<feBlend mode="normal" in2="effect1_dropShadow_5483_12362" result="effect2_dropShadow_5483_12362"/>
<feBlend mode="normal" in="SourceGraphic" in2="effect2_dropShadow_5483_12362" result="shape"/>
</filter>
<clipPath id="clip0_5483_12362">
<rect width="92" height="22" fill="white" transform="translate(64 219)"/>
</clipPath>
<clipPath id="clip1_5483_12362">
<rect width="92" height="22" fill="white" transform="translate(196 219)"/>
</clipPath>
</defs>
</svg>
