<svg width="496" height="280" viewBox="0 0 496 280" fill="none" xmlns="http://www.w3.org/2000/svg">
<rect width="496" height="280" fill="#F2F2F2"/>
<g opacity="0.2">
<rect x="100" y="100" width="296" height="80" rx="8" fill="white"/>
<circle cx="221" cy="163" r="5" fill="#0063FB"/>
<circle cx="239" cy="163" r="5" fill="#DEDEE3"/>
<circle cx="257" cy="163" r="5" fill="#DEDEE3"/>
<circle cx="275" cy="163" r="5" fill="#DEDEE3"/>
</g>
<circle cx="221" cy="163" r="5" fill="#0063FB"/>
<circle cx="239" cy="163" r="5" fill="#DEDEE3"/>
<circle cx="257" cy="163" r="5" fill="#DEDEE3"/>
<circle cx="275" cy="163" r="5" fill="#DEDEE3"/>
<rect x="215.5" y="157.5" width="65" height="11" stroke="#0D69D4"/>
<g clip-path="url(#clip0_2273_8191)">
<path d="M160.293 109.293C159.902 109.683 159.902 110.317 160.293 110.707L166.657 117.071C167.047 117.462 167.681 117.462 168.071 117.071C168.462 116.681 168.462 116.047 168.071 115.657L162.414 110L168.071 104.343C168.462 103.953 168.462 103.319 168.071 102.929C167.681 102.538 167.047 102.538 166.657 102.929L160.293 109.293ZM191.707 110.707C192.098 110.317 192.098 109.683 191.707 109.293L185.343 102.929C184.953 102.538 184.319 102.538 183.929 102.929C183.538 103.319 183.538 103.953 183.929 104.343L189.586 110L183.929 115.657C183.538 116.047 183.538 116.681 183.929 117.071C184.319 117.462 184.953 117.462 185.343 117.071L191.707 110.707ZM161 110V111H191V110V109H161V110Z" fill="#6B6B6B"/>
</g>
<path fill-rule="evenodd" clip-rule="evenodd" d="M170.011 102H165.989H164.989H161H160L160 103V107.024V108.024V108.031L160 112.019L160 113.019L160 117.014L160 118.014H161H164.989H165.989H170.011H171.011H175H176V117.014V113.019V112.019V108.024V107.024V103V102H175H171.011H170.011ZM161 117.014H164.989V113.019H161V117.014ZM161 112.019H164.989V108.031H161V112.019ZM175 113.019V117.014H171.011V113.019H175ZM175 108.024V112.019H171.011V108.024H175ZM175 103V107.024H171.011V103H175ZM170.011 103H165.989V107.024H170.011V103ZM170.011 108.024H165.989V108.031V112.019H170.011V108.024ZM170.011 113.019H165.989V117.014H170.011V113.019Z" fill="#6B6B6B"/>
<g clip-path="url(#clip1_2273_8191)">
<g clip-path="url(#clip2_2273_8191)">
<path d="M169.28 148.22C168.987 147.927 168.513 147.927 168.22 148.22L163.447 152.993C163.154 153.286 163.154 153.76 163.447 154.053C163.74 154.346 164.214 154.346 164.507 154.053L168.75 149.811L172.993 154.053C173.286 154.346 173.76 154.346 174.053 154.053C174.346 153.76 174.346 153.286 174.053 152.993L169.28 148.22ZM168.22 162.28C168.513 162.573 168.987 162.573 169.28 162.28L174.053 157.507C174.346 157.214 174.346 156.74 174.053 156.447C173.76 156.154 173.286 156.154 172.993 156.447L168.75 160.689L164.507 156.447C164.214 156.154 163.74 156.154 163.447 156.447C163.154 156.74 163.154 157.214 163.447 157.507L168.22 162.28ZM168.75 148.75H168V161.75H168.75H169.5V148.75H168.75Z" fill="#0D69D4"/>
<path d="M169.28 163.72C168.987 163.427 168.513 163.427 168.22 163.72L163.447 168.493C163.154 168.786 163.154 169.26 163.447 169.553C163.74 169.846 164.214 169.846 164.507 169.553L168.75 165.311L172.993 169.553C173.286 169.846 173.76 169.846 174.053 169.553C174.346 169.26 174.346 168.786 174.053 168.493L169.28 163.72ZM168.22 177.78C168.513 178.073 168.987 178.073 169.28 177.78L174.053 173.007C174.346 172.714 174.346 172.24 174.053 171.947C173.76 171.654 173.286 171.654 172.993 171.947L168.75 176.189L164.507 171.947C164.214 171.654 163.74 171.654 163.447 171.947C163.154 172.24 163.154 172.714 163.447 173.007L168.22 177.78ZM168.75 164.25H168V177.25H168.75H169.5V164.25H168.75Z" fill="#0D69D4"/>
</g>
</g>
<g clip-path="url(#clip3_2273_8191)">
<path d="M206.22 108.72C205.927 109.013 205.927 109.487 206.22 109.78L210.993 114.553C211.286 114.846 211.76 114.846 212.053 114.553C212.346 114.26 212.346 113.786 212.053 113.493L207.811 109.25L212.053 105.007C212.346 104.714 212.346 104.24 212.053 103.947C211.76 103.654 211.286 103.654 210.993 103.947L206.22 108.72ZM247.28 109.78C247.573 109.487 247.573 109.013 247.28 108.72L242.507 103.947C242.214 103.654 241.74 103.654 241.447 103.947C241.154 104.24 241.154 104.714 241.447 105.007L245.689 109.25L241.447 113.493C241.154 113.786 241.154 114.26 241.447 114.553C241.74 114.846 242.214 114.846 242.507 114.553L247.28 109.78ZM206.75 109.25V110H246.75V109.25V108.5H206.75V109.25Z" fill="#0D69D4"/>
<path d="M248.72 108.72C248.427 109.013 248.427 109.487 248.72 109.78L253.493 114.553C253.786 114.846 254.26 114.846 254.553 114.553C254.846 114.26 254.846 113.786 254.553 113.493L250.311 109.25L254.553 105.007C254.846 104.714 254.846 104.24 254.553 103.947C254.26 103.654 253.786 103.654 253.493 103.947L248.72 108.72ZM289.78 109.78C290.073 109.487 290.073 109.013 289.78 108.72L285.007 103.947C284.714 103.654 284.24 103.654 283.947 103.947C283.654 104.24 283.654 104.714 283.947 105.007L288.189 109.25L283.947 113.493C283.654 113.786 283.654 114.26 283.947 114.553C284.24 114.846 284.714 114.846 285.007 114.553L289.78 109.78ZM249.25 109.25V110H289.25V109.25V108.5H249.25V109.25Z" fill="#0D69D4"/>
</g>
<rect x="216" y="158" width="10" height="10" fill="#0D69D4" fill-opacity="0.2"/>
<rect x="234" y="158" width="10" height="10" fill="#0D69D4" fill-opacity="0.2"/>
<rect x="252" y="158" width="10" height="10" fill="#0D69D4" fill-opacity="0.2"/>
<rect x="270" y="158" width="10" height="10" fill="#0D69D4" fill-opacity="0.2"/>
<rect x="222" y="118" width="16" height="24" rx="4" fill="#BE3830"/>
<path d="M231.652 129.404C232.148 129.604 232.532 129.9 232.804 130.292C233.076 130.676 233.212 131.128 233.212 131.648C233.212 132.136 233.084 132.576 232.828 132.968C232.58 133.352 232.212 133.656 231.724 133.88C231.244 134.096 230.672 134.204 230.008 134.204C229.344 134.204 228.768 134.096 228.28 133.88C227.8 133.656 227.432 133.352 227.176 132.968C226.92 132.576 226.792 132.136 226.792 131.648C226.792 131.128 226.928 130.676 227.2 130.292C227.472 129.9 227.856 129.604 228.352 129.404C227.992 129.212 227.708 128.96 227.5 128.648C227.3 128.328 227.2 127.96 227.2 127.544C227.2 127.104 227.316 126.716 227.548 126.38C227.788 126.036 228.12 125.768 228.544 125.576C228.968 125.384 229.456 125.288 230.008 125.288C230.56 125.288 231.048 125.384 231.472 125.576C231.896 125.768 232.224 126.036 232.456 126.38C232.688 126.716 232.804 127.104 232.804 127.544C232.804 127.96 232.7 128.328 232.492 128.648C232.292 128.96 232.012 129.212 231.652 129.404ZM230.008 126.308C229.536 126.308 229.16 126.428 228.88 126.668C228.6 126.908 228.46 127.216 228.46 127.592C228.46 127.984 228.6 128.304 228.88 128.552C229.168 128.792 229.544 128.912 230.008 128.912C230.472 128.912 230.844 128.792 231.124 128.552C231.404 128.304 231.544 127.984 231.544 127.592C231.544 127.216 231.404 126.908 231.124 126.668C230.844 126.428 230.472 126.308 230.008 126.308ZM230.008 133.112C230.592 133.112 231.052 132.968 231.388 132.68C231.724 132.384 231.892 132.012 231.892 131.564C231.892 131.092 231.724 130.704 231.388 130.4C231.052 130.096 230.592 129.944 230.008 129.944C229.424 129.944 228.964 130.096 228.628 130.4C228.292 130.704 228.124 131.092 228.124 131.564C228.124 132.02 228.288 132.392 228.616 132.68C228.952 132.968 229.416 133.112 230.008 133.112Z" fill="white"/>
<path d="M227 168V149C227 147.343 228.343 146 230 146V146C231.657 146 233 147.343 233 149V168" stroke="#BE3830" stroke-width="2" stroke-dasharray="4 4"/>
<rect x="240" y="118" width="16" height="24" rx="4" fill="#BE3830"/>
<path d="M249.652 129.404C250.148 129.604 250.532 129.9 250.804 130.292C251.076 130.676 251.212 131.128 251.212 131.648C251.212 132.136 251.084 132.576 250.828 132.968C250.58 133.352 250.212 133.656 249.724 133.88C249.244 134.096 248.672 134.204 248.008 134.204C247.344 134.204 246.768 134.096 246.28 133.88C245.8 133.656 245.432 133.352 245.176 132.968C244.92 132.576 244.792 132.136 244.792 131.648C244.792 131.128 244.928 130.676 245.2 130.292C245.472 129.9 245.856 129.604 246.352 129.404C245.992 129.212 245.708 128.96 245.5 128.648C245.3 128.328 245.2 127.96 245.2 127.544C245.2 127.104 245.316 126.716 245.548 126.38C245.788 126.036 246.12 125.768 246.544 125.576C246.968 125.384 247.456 125.288 248.008 125.288C248.56 125.288 249.048 125.384 249.472 125.576C249.896 125.768 250.224 126.036 250.456 126.38C250.688 126.716 250.804 127.104 250.804 127.544C250.804 127.96 250.7 128.328 250.492 128.648C250.292 128.96 250.012 129.212 249.652 129.404ZM248.008 126.308C247.536 126.308 247.16 126.428 246.88 126.668C246.6 126.908 246.46 127.216 246.46 127.592C246.46 127.984 246.6 128.304 246.88 128.552C247.168 128.792 247.544 128.912 248.008 128.912C248.472 128.912 248.844 128.792 249.124 128.552C249.404 128.304 249.544 127.984 249.544 127.592C249.544 127.216 249.404 126.908 249.124 126.668C248.844 126.428 248.472 126.308 248.008 126.308ZM248.008 133.112C248.592 133.112 249.052 132.968 249.388 132.68C249.724 132.384 249.892 132.012 249.892 131.564C249.892 131.092 249.724 130.704 249.388 130.4C249.052 130.096 248.592 129.944 248.008 129.944C247.424 129.944 246.964 130.096 246.628 130.4C246.292 130.704 246.124 131.092 246.124 131.564C246.124 132.02 246.288 132.392 246.616 132.68C246.952 132.968 247.416 133.112 248.008 133.112Z" fill="white"/>
<path d="M245 168V149C245 147.343 246.343 146 248 146V146C249.657 146 251 147.343 251 149V168" stroke="#BE3830" stroke-width="2" stroke-dasharray="4 4"/>
<rect x="258" y="118" width="16" height="24" rx="4" fill="#BE3830"/>
<path d="M267.652 129.404C268.148 129.604 268.532 129.9 268.804 130.292C269.076 130.676 269.212 131.128 269.212 131.648C269.212 132.136 269.084 132.576 268.828 132.968C268.58 133.352 268.212 133.656 267.724 133.88C267.244 134.096 266.672 134.204 266.008 134.204C265.344 134.204 264.768 134.096 264.28 133.88C263.8 133.656 263.432 133.352 263.176 132.968C262.92 132.576 262.792 132.136 262.792 131.648C262.792 131.128 262.928 130.676 263.2 130.292C263.472 129.9 263.856 129.604 264.352 129.404C263.992 129.212 263.708 128.96 263.5 128.648C263.3 128.328 263.2 127.96 263.2 127.544C263.2 127.104 263.316 126.716 263.548 126.38C263.788 126.036 264.12 125.768 264.544 125.576C264.968 125.384 265.456 125.288 266.008 125.288C266.56 125.288 267.048 125.384 267.472 125.576C267.896 125.768 268.224 126.036 268.456 126.38C268.688 126.716 268.804 127.104 268.804 127.544C268.804 127.96 268.7 128.328 268.492 128.648C268.292 128.96 268.012 129.212 267.652 129.404ZM266.008 126.308C265.536 126.308 265.16 126.428 264.88 126.668C264.6 126.908 264.46 127.216 264.46 127.592C264.46 127.984 264.6 128.304 264.88 128.552C265.168 128.792 265.544 128.912 266.008 128.912C266.472 128.912 266.844 128.792 267.124 128.552C267.404 128.304 267.544 127.984 267.544 127.592C267.544 127.216 267.404 126.908 267.124 126.668C266.844 126.428 266.472 126.308 266.008 126.308ZM266.008 133.112C266.592 133.112 267.052 132.968 267.388 132.68C267.724 132.384 267.892 132.012 267.892 131.564C267.892 131.092 267.724 130.704 267.388 130.4C267.052 130.096 266.592 129.944 266.008 129.944C265.424 129.944 264.964 130.096 264.628 130.4C264.292 130.704 264.124 131.092 264.124 131.564C264.124 132.02 264.288 132.392 264.616 132.68C264.952 132.968 265.416 133.112 266.008 133.112Z" fill="white"/>
<path d="M263 168V149C263 147.343 264.343 146 266 146V146C267.657 146 269 147.343 269 149V168" stroke="#BE3830" stroke-width="2" stroke-dasharray="4 4"/>
<defs>
<clipPath id="clip0_2273_8191">
<rect width="16" height="16" fill="white" transform="translate(176 102)"/>
</clipPath>
<clipPath id="clip1_2273_8191">
<rect width="10" height="16" fill="white" transform="matrix(0 1 -1 0 176 158)"/>
</clipPath>
<clipPath id="clip2_2273_8191">
<rect width="30" height="16" fill="white" transform="matrix(0 1 -1 0 176 148)"/>
</clipPath>
<clipPath id="clip3_2273_8191">
<rect width="64" height="16" fill="white" transform="translate(216 102)"/>
</clipPath>
</defs>
</svg>
