<svg width="496" height="280" viewBox="0 0 496 280" fill="none" xmlns="http://www.w3.org/2000/svg">
<rect width="496" height="280" fill="#F2F2F2"/>
<g opacity="0.2">
<rect x="100" y="100" width="296" height="80" rx="8" fill="white"/>
<circle cx="221" cy="163" r="5" fill="#0063FB"/>
<circle cx="239" cy="163" r="5" fill="#DEDEE3"/>
<circle cx="257" cy="163" r="5" fill="#DEDEE3"/>
<circle cx="275" cy="163" r="5" fill="#DEDEE3"/>
</g>
<circle cx="221" cy="163" r="5" fill="#0063FB"/>
<circle cx="239" cy="163" r="5" fill="#DEDEE3"/>
<circle cx="257" cy="163" r="5" fill="#DEDEE3"/>
<circle cx="275" cy="163" r="5" fill="#DEDEE3"/>
<rect x="99.5" y="99.5" width="297" height="81" stroke="#0D69D4"/>
<g clip-path="url(#clip0_2273_8131)">
<path d="M52.7071 44.2929C52.3166 43.9024 51.6834 43.9024 51.2929 44.2929L44.9289 50.6569C44.5384 51.0474 44.5384 51.6805 44.9289 52.0711C45.3195 52.4616 45.9526 52.4616 46.3431 52.0711L52 46.4142L57.6569 52.0711C58.0474 52.4616 58.6805 52.4616 59.0711 52.0711C59.4616 51.6805 59.4616 51.0474 59.0711 50.6569L52.7071 44.2929ZM51.2929 75.7071C51.6834 76.0976 52.3166 76.0976 52.7071 75.7071L59.0711 69.3431C59.4616 68.9526 59.4616 68.3195 59.0711 67.9289C58.6805 67.5384 58.0474 67.5384 57.6569 67.9289L52 73.5858L46.3431 67.9289C45.9526 67.5384 45.3195 67.5384 44.9289 67.9289C44.5384 68.3195 44.5384 68.9526 44.9289 69.3431L51.2929 75.7071ZM52 45H51V75H52H53V45H52Z" fill="#6B6B6B"/>
</g>
<path fill-rule="evenodd" clip-rule="evenodd" d="M44.0001 44L44 45L44.0001 49.024L44 50.024L44.0001 54.0185L44 55.0185L44.0001 59.014L44 60.014H45.0001H48.9891H49.0054V60.079H54.9946V60.014H55.0113H59H60V59.014V55.0185V54.0185V50.024V49.024V45V44H59H55.0113H54.0113H49.9891H48.9891H45.0001H44.0001ZM45.0001 45V49.024H48.9891V45H45.0001ZM45.0001 50.024V54.0185H48.9891V50.024H45.0001ZM45.0001 55.0185V59.014H48.9891V55.0185H45.0001ZM59 55.0185V59.014H55.0113V55.0185H59ZM59 50.024V54.0185H55.0113V50.024H59ZM59 45V49.024H55.0113V45H59ZM54.0113 45H49.9891V49.024H54.0113V45ZM54.0113 50.024H49.9891V54.0185H54.0113V50.024Z" fill="#6B6B6B"/>
<g clip-path="url(#clip1_2273_8131)">
<line x1="52.25" y1="100.75" x2="52.25" y2="179.25" stroke="#0D69D4" stroke-width="1.5" stroke-linecap="square"/>
<line x1="57.25" y1="100.75" x2="46.75" y2="100.75" stroke="#0D69D4" stroke-width="1.5" stroke-linecap="round"/>
<line x1="46.75" y1="179.25" x2="57.25" y2="179.25" stroke="#0D69D4" stroke-width="1.5" stroke-linecap="round"/>
</g>
<path d="M100.22 51.2197C99.9268 51.5126 99.9268 51.9874 100.22 52.2803L104.993 57.0533C105.286 57.3462 105.76 57.3462 106.053 57.0533C106.346 56.7604 106.346 56.2855 106.053 55.9926L101.811 51.75L106.053 47.5074C106.346 47.2145 106.346 46.7396 106.053 46.4467C105.76 46.1538 105.286 46.1538 104.993 46.4467L100.22 51.2197ZM395.78 52.2803C396.073 51.9874 396.073 51.5126 395.78 51.2197L391.007 46.4467C390.714 46.1538 390.24 46.1538 389.947 46.4467C389.654 46.7396 389.654 47.2145 389.947 47.5074L394.189 51.75L389.947 55.9926C389.654 56.2855 389.654 56.7604 389.947 57.0533C390.24 57.3462 390.714 57.3462 391.007 57.0533L395.78 52.2803ZM100.75 51.75V52.5H395.25V51.75V51H100.75V51.75Z" fill="#0D69D4"/>
<g clip-path="url(#clip2_2273_8131)">
<g clip-path="url(#clip3_2273_8131)">
<path d="M92.8536 148.146C92.6583 147.951 92.3417 147.951 92.1464 148.146L88.9645 151.328C88.7692 151.524 88.7692 151.84 88.9645 152.036C89.1597 152.231 89.4763 152.231 89.6716 152.036L92.5 149.207L95.3284 152.036C95.5237 152.231 95.8403 152.231 96.0355 152.036C96.2308 151.84 96.2308 151.524 96.0355 151.328L92.8536 148.146ZM92.1464 162.354C92.3417 162.549 92.6583 162.549 92.8536 162.354L96.0355 159.172C96.2308 158.976 96.2308 158.66 96.0355 158.464C95.8403 158.269 95.5237 158.269 95.3284 158.464L92.5 161.293L89.6716 158.464C89.4763 158.269 89.1597 158.269 88.9645 158.464C88.7692 158.66 88.7692 158.976 88.9645 159.172L92.1464 162.354ZM92.5 148.5H92V162H92.5H93V148.5H92.5Z" fill="#0D69D4"/>
<path d="M92.8536 163.646C92.6583 163.451 92.3417 163.451 92.1464 163.646L88.9645 166.828C88.7692 167.024 88.7692 167.34 88.9645 167.536C89.1597 167.731 89.4763 167.731 89.6716 167.536L92.5 164.707L95.3284 167.536C95.5237 167.731 95.8403 167.731 96.0355 167.536C96.2308 167.34 96.2308 167.024 96.0355 166.828L92.8536 163.646ZM92.1464 177.854C92.3417 178.049 92.6583 178.049 92.8536 177.854L96.0355 174.672C96.2308 174.476 96.2308 174.16 96.0355 173.964C95.8403 173.769 95.5237 173.769 95.3284 173.964L92.5 176.793L89.6716 173.964C89.4763 173.769 89.1597 173.769 88.9645 173.964C88.7692 174.16 88.7692 174.476 88.9645 174.672L92.1464 177.854ZM92.5 164H92V177.5H92.5H93V164H92.5Z" fill="#0D69D4"/>
</g>
</g>
<rect x="216" y="158" width="64" height="10" fill="#0D69D4" fill-opacity="0.2"/>
<rect x="100" y="168" width="296" height="12" fill="#007D00" fill-opacity="0.3"/>
<line x1="84" y1="168.5" x2="396" y2="168.5" stroke="#007D00"/>
<line x1="84" y1="179.5" x2="396" y2="179.5" stroke="#007D00"/>
<rect x="63" y="167" width="18" height="14" rx="4" fill="#007D00"/>
<path d="M69.6406 170V178H68.6719V171.016H68.625L66.6719 172.312V171.328L68.6719 170H69.6406ZM71.9414 178V177.297L74.582 174.406C74.8919 174.068 75.1471 173.773 75.3477 173.523C75.5482 173.271 75.6966 173.034 75.793 172.812C75.8919 172.589 75.9414 172.354 75.9414 172.109C75.9414 171.828 75.8737 171.585 75.7383 171.379C75.6055 171.173 75.4232 171.014 75.1914 170.902C74.9596 170.79 74.6992 170.734 74.4102 170.734C74.1029 170.734 73.8346 170.798 73.6055 170.926C73.3789 171.051 73.2031 171.227 73.0781 171.453C72.9557 171.68 72.8945 171.945 72.8945 172.25H71.9727C71.9727 171.781 72.0807 171.37 72.2969 171.016C72.513 170.661 72.8073 170.385 73.1797 170.187C73.5547 169.99 73.9753 169.891 74.4414 169.891C74.9102 169.891 75.3255 169.99 75.6875 170.187C76.0495 170.385 76.3333 170.652 76.5391 170.988C76.7448 171.324 76.8477 171.698 76.8477 172.109C76.8477 172.404 76.7943 172.691 76.6875 172.973C76.5833 173.251 76.401 173.562 76.1406 173.906C75.8828 174.247 75.5247 174.664 75.0664 175.156L73.2695 177.078V177.141H76.9883V178H71.9414Z" fill="white"/>
<defs>
<clipPath id="clip0_2273_8131">
<rect width="16" height="16" fill="white" transform="matrix(0 1 -1 0 60 60)"/>
</clipPath>
<clipPath id="clip1_2273_8131">
<rect width="80" height="16" fill="white" transform="matrix(0 1 -1 0 60 100)"/>
</clipPath>
<clipPath id="clip2_2273_8131">
<rect width="10" height="16" fill="white" transform="matrix(0 1 -1 0 100 158)"/>
</clipPath>
<clipPath id="clip3_2273_8131">
<rect width="30" height="16" fill="white" transform="matrix(0 1 -1 0 100 148)"/>
</clipPath>
</defs>
</svg>
