<svg width="464" height="195" viewBox="0 0 464 195" fill="none" xmlns="http://www.w3.org/2000/svg">
<rect y="35" width="464" height="160" rx="8" fill="white"/>
<circle cx="205" cy="115" r="5" fill="#0063FB"/>
<circle cx="223" cy="115" r="5" fill="#DEDEE3"/>
<circle cx="241" cy="115" r="5" fill="#DEDEE3"/>
<circle cx="259" cy="115" r="5" fill="#DEDEE3"/>
<rect x="186.5" width="37" height="40" rx="18.5" fill="#BE3830"/>
<path d="M203.032 16.04V14.878H205.664V25H204.376V16.04H203.032Z" fill="white"/>
<rect width="62" height="3" transform="translate(206.5 40) rotate(90)" fill="#BE3830"/>
<rect x="239.5" width="41" height="40" rx="20" fill="#BE3830"/>
<path d="M256.214 23.978C257.399 23.026 258.328 22.2467 259 21.64C259.672 21.024 260.237 20.3847 260.694 19.722C261.161 19.05 261.394 18.392 261.394 17.748C261.394 17.1413 261.245 16.6653 260.946 16.32C260.657 15.9653 260.185 15.788 259.532 15.788C258.897 15.788 258.403 15.9887 258.048 16.39C257.703 16.782 257.516 17.3093 257.488 17.972H256.256C256.293 16.9267 256.611 16.1193 257.208 15.55C257.805 14.9807 258.575 14.696 259.518 14.696C260.479 14.696 261.24 14.962 261.8 15.494C262.369 16.026 262.654 16.7587 262.654 17.692C262.654 18.4667 262.421 19.2227 261.954 19.96C261.497 20.688 260.974 21.332 260.386 21.892C259.798 22.4427 259.047 23.0867 258.132 23.824H262.948V24.888H256.214V23.978Z" fill="white"/>
<rect width="62" height="3" transform="translate(261.5 40) rotate(90)" fill="#BE3830"/>
</svg>
