<svg width="464" height="195" viewBox="0 0 464 195" fill="none" xmlns="http://www.w3.org/2000/svg">
<rect y="35" width="464" height="160" rx="8" fill="white"/>
<circle cx="205" cy="115" r="5" fill="#0063FB"/>
<circle cx="223" cy="115" r="5" fill="#DEDEE3"/>
<circle cx="241" cy="115" r="5" fill="#DEDEE3"/>
<circle cx="259" cy="115" r="5" fill="#DEDEE3"/>
<rect x="186.5" width="37" height="40" rx="18.5" fill="#BE3830"/>
<path d="M203.032 16.04V14.878H205.664V25H204.376V16.04H203.032Z" fill="white"/>
<rect width="62" height="3" transform="translate(206.5 40) rotate(90)" fill="#BE3830"/>
<rect x="239.5" width="41" height="40" rx="20" fill="#BE3830"/>
<path d="M256.214 23.978C257.399 23.026 258.328 22.2467 259 21.64C259.672 21.024 260.237 20.3847 260.694 19.722C261.161 19.05 261.394 18.392 261.394 17.748C261.394 17.1413 261.245 16.6653 260.946 16.32C260.657 15.9653 260.185 15.788 259.532 15.788C258.897 15.788 258.403 15.9887 258.048 16.39C257.703 16.782 257.516 17.3093 257.488 17.972H256.256C256.293 16.9267 256.611 16.1193 257.208 15.55C257.805 14.9807 258.575 14.696 259.518 14.696C260.479 14.696 261.24 14.962 261.8 15.494C262.369 16.026 262.654 16.7587 262.654 17.692C262.654 18.4667 262.421 19.2227 261.954 19.96C261.497 20.688 260.974 21.332 260.386 21.892C259.798 22.4427 259.047 23.0867 258.132 23.824H262.948V24.888H256.214V23.978Z" fill="white"/>
<rect width="62" height="3" transform="translate(261.5 40) rotate(90)" fill="#BE3830"/>
<path d="M271 110H315C317.209 110 319 111.791 319 114V116C319 118.209 317.209 120 315 120H271" stroke="#BE3830" stroke-width="2" stroke-dasharray="4 4"/>
<rect x="327" y="103" width="37" height="24" rx="4" fill="#BE3830"/>
<path d="M334.209 110.648C334.369 110.536 334.541 110.48 334.725 110.48H335.025C335.161 110.48 335.265 110.516 335.337 110.588C335.409 110.66 335.445 110.764 335.445 110.9V118.58C335.445 118.708 335.409 118.812 335.337 118.892C335.265 118.964 335.161 119 335.025 119H334.557C334.429 119 334.325 118.964 334.245 118.892C334.173 118.812 334.137 118.708 334.137 118.58V112.112L332.769 113.06C332.665 113.124 332.577 113.156 332.505 113.156C332.393 113.156 332.289 113.092 332.193 112.964L332.037 112.736C331.965 112.64 331.929 112.548 331.929 112.46C331.929 112.348 331.993 112.244 332.121 112.148L334.209 110.648ZM340.686 119.192C340.086 119.192 339.566 119.052 339.126 118.772C338.694 118.492 338.35 118.096 338.094 117.584C337.71 116.816 337.518 115.868 337.518 114.74C337.518 113.604 337.71 112.652 338.094 111.884C338.35 111.372 338.694 110.98 339.126 110.708C339.566 110.428 340.086 110.288 340.686 110.288C341.286 110.288 341.802 110.428 342.234 110.708C342.674 110.98 343.022 111.372 343.278 111.884C343.662 112.652 343.854 113.604 343.854 114.74C343.854 115.868 343.662 116.816 343.278 117.584C343.022 118.096 342.674 118.492 342.234 118.772C341.802 119.052 341.286 119.192 340.686 119.192ZM340.686 118.076C341.326 118.076 341.806 117.732 342.126 117.044C342.39 116.452 342.522 115.684 342.522 114.74C342.522 113.78 342.39 113.008 342.126 112.424C341.814 111.744 341.334 111.404 340.686 111.404C340.038 111.404 339.558 111.744 339.246 112.424C338.982 113.008 338.85 113.78 338.85 114.74C338.85 115.684 338.982 116.452 339.246 117.044C339.566 117.732 340.046 118.076 340.686 118.076ZM350.841 112.928C351.345 112.928 351.793 113.056 352.185 113.312C352.585 113.568 352.897 113.932 353.121 114.404C353.345 114.876 353.457 115.42 353.457 116.036C353.457 116.66 353.345 117.208 353.121 117.68C352.897 118.152 352.585 118.516 352.185 118.772C351.785 119.028 351.337 119.156 350.841 119.156C350.009 119.156 349.385 118.868 348.969 118.292V120.704C348.969 120.84 348.933 120.944 348.861 121.016C348.789 121.088 348.685 121.124 348.549 121.124H348.117C347.989 121.124 347.885 121.088 347.805 121.016C347.733 120.944 347.697 120.84 347.697 120.704V113.504C347.697 113.368 347.733 113.264 347.805 113.192C347.885 113.12 347.989 113.084 348.117 113.084H348.465C348.601 113.084 348.705 113.12 348.777 113.192C348.849 113.264 348.885 113.368 348.885 113.504V113.948C349.309 113.268 349.961 112.928 350.841 112.928ZM350.577 118.052C351.057 118.052 351.441 117.872 351.729 117.512C352.017 117.144 352.161 116.652 352.161 116.036C352.161 115.428 352.017 114.94 351.729 114.572C351.449 114.204 351.069 114.02 350.589 114.02C350.101 114.02 349.701 114.2 349.389 114.56C349.077 114.92 348.921 115.412 348.921 116.036C348.921 116.66 349.077 117.152 349.389 117.512C349.701 117.872 350.097 118.052 350.577 118.052ZM359.081 118.496C359.145 118.6 359.177 118.684 359.177 118.748C359.177 118.828 359.145 118.892 359.081 118.94C359.017 118.98 358.929 119 358.817 119H358.349C358.125 119 357.957 118.908 357.845 118.724L356.561 116.792L355.277 118.724C355.165 118.908 354.997 119 354.773 119H354.341C354.221 119 354.129 118.98 354.065 118.94C354.001 118.892 353.969 118.828 353.969 118.748C353.969 118.684 354.001 118.6 354.065 118.496L355.853 115.904L354.245 113.588C354.181 113.484 354.149 113.4 354.149 113.336C354.149 113.256 354.181 113.196 354.245 113.156C354.309 113.108 354.401 113.084 354.521 113.084H354.965C355.181 113.084 355.349 113.172 355.469 113.348L356.585 115.004L357.677 113.36C357.789 113.176 357.957 113.084 358.181 113.084H358.601C358.713 113.084 358.801 113.108 358.865 113.156C358.929 113.204 358.961 113.268 358.961 113.348C358.961 113.412 358.929 113.496 358.865 113.6L357.293 115.856L359.081 118.496Z" fill="white"/>
</svg>
