<svg width="344" height="154" viewBox="0 0 344 154" fill="none" xmlns="http://www.w3.org/2000/svg">
<rect width="344" height="154" fill="#F6F6F6"/>
<path d="M25.582 38C25.3953 38 25.302 37.9067 25.302 37.72V28.34C25.302 28.1533 25.3953 28.06 25.582 28.06H26.016C26.2027 28.06 26.296 28.1533 26.296 28.34V37.72C26.296 37.9067 26.2027 38 26.016 38H25.582ZM31.7117 30.93C32.5237 30.93 33.135 31.154 33.5457 31.602C33.9657 32.05 34.1757 32.61 34.1757 33.282V37.72C34.1757 37.9067 34.0824 38 33.8957 38H33.5317C33.345 38 33.2517 37.9067 33.2517 37.72V33.59C33.2517 32.974 33.1024 32.5073 32.8037 32.19C32.505 31.8727 32.0757 31.714 31.5157 31.714C31.161 31.714 30.8344 31.8027 30.5357 31.98C30.237 32.148 29.999 32.3813 29.8217 32.68C29.6444 32.9787 29.5557 33.3053 29.5557 33.66V37.72C29.5557 37.9067 29.4624 38 29.2757 38H28.9117C28.725 38 28.6317 37.9067 28.6317 37.72V31.378C28.6317 31.1913 28.725 31.098 28.9117 31.098H29.2197C29.4064 31.098 29.4997 31.1913 29.4997 31.378V32.05C29.733 31.6767 30.041 31.3967 30.4237 31.21C30.8064 31.0233 31.2357 30.93 31.7117 30.93ZM38.6276 38.182C38.0583 38.182 37.5543 38.1027 37.1156 37.944C36.6863 37.776 36.2336 37.496 35.7576 37.104C35.6736 37.048 35.6316 36.9827 35.6316 36.908C35.6316 36.8427 35.6643 36.7773 35.7296 36.712L35.9116 36.516C35.9676 36.4413 36.0376 36.404 36.1216 36.404C36.1869 36.404 36.2476 36.432 36.3036 36.488C36.7516 36.8333 37.1483 37.076 37.4936 37.216C37.8389 37.3467 38.2169 37.412 38.6276 37.412C39.1409 37.412 39.5609 37.3 39.8876 37.076C40.2143 36.8427 40.3776 36.53 40.3776 36.138C40.3776 35.746 40.2096 35.4567 39.8736 35.27C39.5376 35.0833 39.0196 34.9153 38.3196 34.766C37.7036 34.6353 37.2183 34.5 36.8636 34.36C36.5183 34.2107 36.2616 34.024 36.0936 33.8C35.9256 33.576 35.8416 33.282 35.8416 32.918C35.8416 32.3207 36.0843 31.84 36.5696 31.476C37.0549 31.112 37.6663 30.93 38.4036 30.93C38.9076 30.93 39.3556 30.9953 39.7476 31.126C40.1489 31.2473 40.5503 31.4527 40.9516 31.742C41.0356 31.8073 41.0776 31.8773 41.0776 31.952C41.0776 31.9987 41.0543 32.0593 41.0076 32.134L40.8396 32.344C40.7929 32.4187 40.7276 32.456 40.6436 32.456C40.5689 32.456 40.5036 32.4327 40.4476 32.386C40.0649 32.1153 39.7243 31.9333 39.4256 31.84C39.1363 31.7467 38.8049 31.7 38.4316 31.7C37.9183 31.7 37.5076 31.812 37.1996 32.036C36.8916 32.26 36.7376 32.5447 36.7376 32.89C36.7376 33.1047 36.8076 33.2773 36.9476 33.408C37.0876 33.5387 37.2883 33.6507 37.5496 33.744C37.8109 33.828 38.1936 33.926 38.6976 34.038C39.6309 34.2433 40.2936 34.4953 40.6856 34.794C41.0869 35.0927 41.2876 35.5267 41.2876 36.096C41.2876 36.7213 41.0403 37.2253 40.5456 37.608C40.0509 37.9907 39.4116 38.182 38.6276 38.182ZM43.3125 29.348C43.1258 29.348 42.9671 29.2827 42.8365 29.152C42.7151 29.0213 42.6545 28.8627 42.6545 28.676C42.6545 28.4893 42.7151 28.3353 42.8365 28.214C42.9671 28.0927 43.1258 28.032 43.3125 28.032C43.5085 28.032 43.6671 28.0927 43.7885 28.214C43.9191 28.3353 43.9845 28.4893 43.9845 28.676C43.9845 28.8627 43.9191 29.0213 43.7885 29.152C43.6671 29.2827 43.5085 29.348 43.3125 29.348ZM43.1305 38C42.9438 38 42.8505 37.9067 42.8505 37.72V31.378C42.8505 31.1913 42.9438 31.098 43.1305 31.098H43.4945C43.6811 31.098 43.7745 31.1913 43.7745 31.378V37.72C43.7745 37.9067 43.6811 38 43.4945 38H43.1305ZM50.8149 28.34C50.8149 28.1533 50.9083 28.06 51.0949 28.06H51.4589C51.6456 28.06 51.7389 28.1533 51.7389 28.34V37.72C51.7389 37.9067 51.6456 38 51.4589 38H51.1649C50.9783 38 50.8849 37.9067 50.8849 37.72V36.81C50.6329 37.2487 50.3016 37.5847 49.8909 37.818C49.4803 38.0513 48.9949 38.168 48.4349 38.168C47.8469 38.168 47.3243 38.0187 46.8669 37.72C46.4096 37.412 46.0503 36.9873 45.7889 36.446C45.5276 35.8953 45.3969 35.2653 45.3969 34.556C45.3969 33.8467 45.5276 33.2213 45.7889 32.68C46.0596 32.1293 46.4283 31.7047 46.8949 31.406C47.3616 31.098 47.8843 30.944 48.4629 30.944C49.5269 30.944 50.3109 31.3407 50.8149 32.134V28.34ZM48.5049 37.384C49.2049 37.384 49.7696 37.1367 50.1989 36.642C50.6376 36.138 50.8569 35.4427 50.8569 34.556C50.8569 33.6787 50.6376 32.988 50.1989 32.484C49.7696 31.98 49.2049 31.728 48.5049 31.728C47.8609 31.728 47.3383 31.9893 46.9369 32.512C46.5449 33.0347 46.3489 33.716 46.3489 34.556C46.3489 35.4053 46.5449 36.0913 46.9369 36.614C47.3289 37.1273 47.8516 37.384 48.5049 37.384ZM58.8413 36.362C58.9066 36.2967 58.9766 36.264 59.0513 36.264C59.1166 36.264 59.1773 36.292 59.2333 36.348L59.4153 36.516C59.4806 36.5813 59.5133 36.6513 59.5133 36.726C59.5133 36.782 59.4853 36.8473 59.4293 36.922C58.972 37.3793 58.5286 37.706 58.0993 37.902C57.67 38.0887 57.1893 38.182 56.6573 38.182C55.9853 38.182 55.402 38.0327 54.9073 37.734C54.4126 37.4353 54.03 37.02 53.7593 36.488C53.4886 35.9467 53.3533 35.3213 53.3533 34.612C53.3533 33.8933 53.484 33.2587 53.7453 32.708C54.016 32.148 54.394 31.714 54.8793 31.406C55.3646 31.0887 55.9246 30.93 56.5593 30.93C57.502 30.93 58.244 31.224 58.7853 31.812C59.3266 32.4 59.5973 33.1933 59.5973 34.192V34.36C59.588 34.444 59.5553 34.5093 59.4993 34.556C59.4526 34.6027 59.3873 34.626 59.3033 34.626H54.2913C54.3193 35.41 54.5246 36.0727 54.9073 36.614C55.2993 37.146 55.8826 37.412 56.6573 37.412C57.0773 37.412 57.446 37.3373 57.7633 37.188C58.09 37.0293 58.4493 36.754 58.8413 36.362ZM56.5593 31.7C55.9433 31.7 55.4346 31.8913 55.0333 32.274C54.6413 32.6473 54.4033 33.198 54.3193 33.926H58.6733C58.6546 33.2447 58.4586 32.7033 58.0853 32.302C57.712 31.9007 57.2033 31.7 56.5593 31.7ZM67.2794 38.182C66.6167 38.182 66.038 38.0327 65.5434 37.734C65.058 37.426 64.68 37.0013 64.4094 36.46C64.148 35.9093 64.0174 35.2747 64.0174 34.556C64.0174 33.8467 64.148 33.2167 64.4094 32.666C64.68 32.1153 65.058 31.6907 65.5434 31.392C66.038 31.084 66.6074 30.93 67.2514 30.93C67.774 30.93 68.2314 31.0187 68.6234 31.196C69.0154 31.364 69.3934 31.644 69.7574 32.036C69.8134 32.092 69.8414 32.1527 69.8414 32.218C69.8414 32.302 69.804 32.372 69.7294 32.428L69.5334 32.61C69.4774 32.666 69.412 32.694 69.3374 32.694C69.272 32.694 69.202 32.6567 69.1274 32.582C68.8007 32.2553 68.488 32.0267 68.1894 31.896C67.9 31.7653 67.578 31.7 67.2234 31.7C66.738 31.7 66.3227 31.8353 65.9774 32.106C65.6414 32.3767 65.3894 32.7313 65.2214 33.17C65.0534 33.5993 64.9694 34.0613 64.9694 34.556C64.9694 35.0507 65.0534 35.5173 65.2214 35.956C65.3894 36.3853 65.646 36.7353 65.9914 37.006C66.3367 37.2673 66.7614 37.398 67.2654 37.398C67.6387 37.398 67.9654 37.3327 68.2454 37.202C68.5347 37.062 68.8567 36.8007 69.2114 36.418C69.286 36.3433 69.356 36.306 69.4214 36.306C69.496 36.306 69.5614 36.334 69.6174 36.39L69.8134 36.544C69.8787 36.6 69.9114 36.6653 69.9114 36.74C69.9114 36.8147 69.8694 36.9033 69.7854 37.006C69.3934 37.4353 69.0014 37.7387 68.6094 37.916C68.2174 38.0933 67.774 38.182 67.2794 38.182ZM74.1303 38.182C73.4863 38.182 72.9123 38.028 72.4083 37.72C71.9043 37.412 71.5123 36.9873 71.2323 36.446C70.9523 35.8953 70.8123 35.2653 70.8123 34.556C70.8123 33.8467 70.9523 33.2213 71.2323 32.68C71.5123 32.1293 71.9043 31.7 72.4083 31.392C72.9123 31.084 73.4863 30.93 74.1303 30.93C74.7743 30.93 75.3483 31.084 75.8523 31.392C76.3563 31.7 76.7483 32.1293 77.0283 32.68C77.3083 33.2213 77.4483 33.8467 77.4483 34.556C77.4483 35.2653 77.3083 35.8953 77.0283 36.446C76.7483 36.9873 76.3563 37.412 75.8523 37.72C75.3483 38.028 74.7743 38.182 74.1303 38.182ZM74.1303 37.412C74.8489 37.412 75.4229 37.1507 75.8523 36.628C76.2816 36.096 76.4963 35.4053 76.4963 34.556C76.4963 33.7067 76.2816 33.0207 75.8523 32.498C75.4229 31.966 74.8489 31.7 74.1303 31.7C73.4116 31.7 72.8376 31.966 72.4083 32.498C71.9789 33.0207 71.7643 33.7067 71.7643 34.556C71.7643 35.4053 71.9789 36.096 72.4083 36.628C72.8376 37.1507 73.4116 37.412 74.1303 37.412ZM82.1336 30.93C82.9456 30.93 83.5569 31.154 83.9676 31.602C84.3876 32.05 84.5976 32.61 84.5976 33.282V37.72C84.5976 37.9067 84.5042 38 84.3176 38H83.9536C83.7669 38 83.6736 37.9067 83.6736 37.72V33.59C83.6736 32.974 83.5242 32.5073 83.2256 32.19C82.9269 31.8727 82.4976 31.714 81.9376 31.714C81.5829 31.714 81.2562 31.8027 80.9576 31.98C80.6589 32.148 80.4209 32.3813 80.2436 32.68C80.0662 32.9787 79.9776 33.3053 79.9776 33.66V37.72C79.9776 37.9067 79.8842 38 79.6976 38H79.3336C79.1469 38 79.0536 37.9067 79.0536 37.72V31.378C79.0536 31.1913 79.1469 31.098 79.3336 31.098H79.6416C79.8282 31.098 79.9216 31.1913 79.9216 31.378V32.05C80.1549 31.6767 80.4629 31.3967 80.8456 31.21C81.2282 31.0233 81.6576 30.93 82.1336 30.93ZM89.5581 37.23C89.5861 37.2207 89.6234 37.216 89.6701 37.216C89.7261 37.216 89.7774 37.2347 89.8241 37.272C89.8707 37.3093 89.8987 37.3607 89.9081 37.426L89.9501 37.622C89.9594 37.6407 89.9641 37.6733 89.9641 37.72C89.9641 37.8507 89.8941 37.93 89.7541 37.958C89.4181 38.0607 89.0587 38.112 88.6761 38.112C88.0694 38.112 87.6354 37.9767 87.3741 37.706C87.1221 37.426 86.9961 37.0247 86.9961 36.502V31.798H85.9601C85.7734 31.798 85.6801 31.7047 85.6801 31.518V31.378C85.6801 31.1913 85.7734 31.098 85.9601 31.098H86.9961V28.97C86.9961 28.7833 87.0894 28.69 87.2761 28.69H87.6401C87.8267 28.69 87.9201 28.7833 87.9201 28.97V31.098H89.6001C89.7867 31.098 89.8801 31.1913 89.8801 31.378V31.518C89.8801 31.7047 89.7867 31.798 89.6001 31.798H87.9201V36.39C87.9201 36.7353 87.9854 36.978 88.1161 37.118C88.2467 37.258 88.4707 37.328 88.7881 37.328C89.0121 37.328 89.2687 37.2953 89.5581 37.23ZM96.0561 36.362C96.1215 36.2967 96.1915 36.264 96.2661 36.264C96.3315 36.264 96.3921 36.292 96.4481 36.348L96.6301 36.516C96.6955 36.5813 96.7281 36.6513 96.7281 36.726C96.7281 36.782 96.7001 36.8473 96.6441 36.922C96.1868 37.3793 95.7435 37.706 95.3141 37.902C94.8848 38.0887 94.4041 38.182 93.8721 38.182C93.2001 38.182 92.6168 38.0327 92.1221 37.734C91.6275 37.4353 91.2448 37.02 90.9741 36.488C90.7035 35.9467 90.5681 35.3213 90.5681 34.612C90.5681 33.8933 90.6988 33.2587 90.9601 32.708C91.2308 32.148 91.6088 31.714 92.0941 31.406C92.5795 31.0887 93.1395 30.93 93.7741 30.93C94.7168 30.93 95.4588 31.224 96.0001 31.812C96.5415 32.4 96.8121 33.1933 96.8121 34.192V34.36C96.8028 34.444 96.7701 34.5093 96.7141 34.556C96.6675 34.6027 96.6021 34.626 96.5181 34.626H91.5061C91.5341 35.41 91.7395 36.0727 92.1221 36.614C92.5141 37.146 93.0975 37.412 93.8721 37.412C94.2921 37.412 94.6608 37.3373 94.9781 37.188C95.3048 37.0293 95.6641 36.754 96.0561 36.362ZM93.7741 31.7C93.1581 31.7 92.6495 31.8913 92.2481 32.274C91.8561 32.6473 91.6181 33.198 91.5341 33.926H95.8881C95.8695 33.2447 95.6735 32.7033 95.3001 32.302C94.9268 31.9007 94.4181 31.7 93.7741 31.7ZM101.548 30.93C102.36 30.93 102.971 31.154 103.382 31.602C103.802 32.05 104.012 32.61 104.012 33.282V37.72C104.012 37.9067 103.918 38 103.732 38H103.368C103.181 38 103.088 37.9067 103.088 37.72V33.59C103.088 32.974 102.938 32.5073 102.64 32.19C102.341 31.8727 101.912 31.714 101.352 31.714C100.997 31.714 100.67 31.8027 100.372 31.98C100.073 32.148 99.835 32.3813 99.6576 32.68C99.4803 32.9787 99.3916 33.3053 99.3916 33.66V37.72C99.3916 37.9067 99.2983 38 99.1116 38H98.7476C98.561 38 98.4676 37.9067 98.4676 37.72V31.378C98.4676 31.1913 98.561 31.098 98.7476 31.098H99.0556C99.2423 31.098 99.3356 31.1913 99.3356 31.378V32.05C99.569 31.6767 99.877 31.3967 100.26 31.21C100.642 31.0233 101.072 30.93 101.548 30.93ZM108.972 37.23C109 37.2207 109.037 37.216 109.084 37.216C109.14 37.216 109.191 37.2347 109.238 37.272C109.285 37.3093 109.313 37.3607 109.322 37.426L109.364 37.622C109.373 37.6407 109.378 37.6733 109.378 37.72C109.378 37.8507 109.308 37.93 109.168 37.958C108.832 38.0607 108.473 38.112 108.09 38.112C107.483 38.112 107.049 37.9767 106.788 37.706C106.536 37.426 106.41 37.0247 106.41 36.502V31.798H105.374C105.187 31.798 105.094 31.7047 105.094 31.518V31.378C105.094 31.1913 105.187 31.098 105.374 31.098H106.41V28.97C106.41 28.7833 106.503 28.69 106.69 28.69H107.054C107.241 28.69 107.334 28.7833 107.334 28.97V31.098H109.014C109.201 31.098 109.294 31.1913 109.294 31.378V31.518C109.294 31.7047 109.201 31.798 109.014 31.798H107.334V36.39C107.334 36.7353 107.399 36.978 107.53 37.118C107.661 37.258 107.885 37.328 108.202 37.328C108.426 37.328 108.683 37.2953 108.972 37.23ZM116.731 38.182C116.068 38.182 115.489 38.0327 114.995 37.734C114.509 37.426 114.131 37.0013 113.861 36.46C113.599 35.9093 113.469 35.2747 113.469 34.556C113.469 33.8467 113.599 33.2167 113.861 32.666C114.131 32.1153 114.509 31.6907 114.995 31.392C115.489 31.084 116.059 30.93 116.703 30.93C117.225 30.93 117.683 31.0187 118.075 31.196C118.467 31.364 118.845 31.644 119.209 32.036C119.265 32.092 119.293 32.1527 119.293 32.218C119.293 32.302 119.255 32.372 119.181 32.428L118.985 32.61C118.929 32.666 118.863 32.694 118.789 32.694C118.723 32.694 118.653 32.6567 118.579 32.582C118.252 32.2553 117.939 32.0267 117.641 31.896C117.351 31.7653 117.029 31.7 116.675 31.7C116.189 31.7 115.774 31.8353 115.429 32.106C115.093 32.3767 114.841 32.7313 114.673 33.17C114.505 33.5993 114.421 34.0613 114.421 34.556C114.421 35.0507 114.505 35.5173 114.673 35.956C114.841 36.3853 115.097 36.7353 115.443 37.006C115.788 37.2673 116.213 37.398 116.717 37.398C117.09 37.398 117.417 37.3327 117.697 37.202C117.986 37.062 118.308 36.8007 118.663 36.418C118.737 36.3433 118.807 36.306 118.873 36.306C118.947 36.306 119.013 36.334 119.069 36.39L119.265 36.544C119.33 36.6 119.363 36.6653 119.363 36.74C119.363 36.8147 119.321 36.9033 119.237 37.006C118.845 37.4353 118.453 37.7387 118.061 37.916C117.669 38.0933 117.225 38.182 116.731 38.182ZM123.581 38.182C122.937 38.182 122.363 38.028 121.859 37.72C121.355 37.412 120.963 36.9873 120.683 36.446C120.403 35.8953 120.263 35.2653 120.263 34.556C120.263 33.8467 120.403 33.2213 120.683 32.68C120.963 32.1293 121.355 31.7 121.859 31.392C122.363 31.084 122.937 30.93 123.581 30.93C124.225 30.93 124.799 31.084 125.303 31.392C125.807 31.7 126.199 32.1293 126.479 32.68C126.759 33.2213 126.899 33.8467 126.899 34.556C126.899 35.2653 126.759 35.8953 126.479 36.446C126.199 36.9873 125.807 37.412 125.303 37.72C124.799 38.028 124.225 38.182 123.581 38.182ZM123.581 37.412C124.3 37.412 124.874 37.1507 125.303 36.628C125.733 36.096 125.947 35.4053 125.947 34.556C125.947 33.7067 125.733 33.0207 125.303 32.498C124.874 31.966 124.3 31.7 123.581 31.7C122.863 31.7 122.289 31.966 121.859 32.498C121.43 33.0207 121.215 33.7067 121.215 34.556C121.215 35.4053 121.43 36.096 121.859 36.628C122.289 37.1507 122.863 37.412 123.581 37.412ZM131.585 30.93C132.397 30.93 133.008 31.154 133.419 31.602C133.839 32.05 134.049 32.61 134.049 33.282V37.72C134.049 37.9067 133.955 38 133.769 38H133.405C133.218 38 133.125 37.9067 133.125 37.72V33.59C133.125 32.974 132.975 32.5073 132.677 32.19C132.378 31.8727 131.949 31.714 131.389 31.714C131.034 31.714 130.707 31.8027 130.409 31.98C130.11 32.148 129.872 32.3813 129.695 32.68C129.517 32.9787 129.429 33.3053 129.429 33.66V37.72C129.429 37.9067 129.335 38 129.149 38H128.785C128.598 38 128.505 37.9067 128.505 37.72V31.378C128.505 31.1913 128.598 31.098 128.785 31.098H129.093C129.279 31.098 129.373 31.1913 129.373 31.378V32.05C129.606 31.6767 129.914 31.3967 130.297 31.21C130.679 31.0233 131.109 30.93 131.585 30.93ZM139.009 37.23C139.037 37.2207 139.075 37.216 139.121 37.216C139.177 37.216 139.229 37.2347 139.275 37.272C139.322 37.3093 139.35 37.3607 139.359 37.426L139.401 37.622C139.411 37.6407 139.415 37.6733 139.415 37.72C139.415 37.8507 139.345 37.93 139.205 37.958C138.869 38.0607 138.51 38.112 138.127 38.112C137.521 38.112 137.087 37.9767 136.825 37.706C136.573 37.426 136.447 37.0247 136.447 36.502V31.798H135.411C135.225 31.798 135.131 31.7047 135.131 31.518V31.378C135.131 31.1913 135.225 31.098 135.411 31.098H136.447V28.97C136.447 28.7833 136.541 28.69 136.727 28.69H137.091C137.278 28.69 137.371 28.7833 137.371 28.97V31.098H139.051C139.238 31.098 139.331 31.1913 139.331 31.378V31.518C139.331 31.7047 139.238 31.798 139.051 31.798H137.371V36.39C137.371 36.7353 137.437 36.978 137.567 37.118C137.698 37.258 137.922 37.328 138.239 37.328C138.463 37.328 138.72 37.2953 139.009 37.23ZM143.415 30.93C144.264 30.93 144.927 31.1353 145.403 31.546C145.879 31.9473 146.117 32.4793 146.117 33.142V37.72C146.117 37.9067 146.023 38 145.837 38H145.557C145.37 38 145.277 37.9067 145.277 37.72V37.09C145.043 37.4633 144.712 37.7433 144.283 37.93C143.863 38.1167 143.391 38.21 142.869 38.21C142.141 38.21 141.548 38.056 141.091 37.748C140.633 37.44 140.405 36.964 140.405 36.32C140.405 35.8067 140.549 35.396 140.839 35.088C141.128 34.7707 141.506 34.5327 141.973 34.374C142.439 34.206 143.023 34.0567 143.723 33.926L145.235 33.66V33.212C145.235 32.736 145.071 32.3673 144.745 32.106C144.418 31.8353 143.989 31.7 143.457 31.7C143.055 31.7 142.691 31.7747 142.365 31.924C142.038 32.0733 141.688 32.33 141.315 32.694C141.249 32.7593 141.179 32.792 141.105 32.792C141.039 32.792 140.979 32.764 140.923 32.708L140.741 32.54C140.675 32.4747 140.643 32.4047 140.643 32.33C140.643 32.246 140.675 32.1713 140.741 32.106C141.133 31.6953 141.543 31.3967 141.973 31.21C142.411 31.0233 142.892 30.93 143.415 30.93ZM142.911 37.44C143.583 37.44 144.138 37.2627 144.577 36.908C145.015 36.5533 145.235 36.1007 145.235 35.55V34.374L143.933 34.626C143.326 34.7473 142.845 34.864 142.491 34.976C142.136 35.088 141.851 35.2513 141.637 35.466C141.422 35.6807 141.315 35.9607 141.315 36.306C141.315 36.6607 141.455 36.9407 141.735 37.146C142.024 37.342 142.416 37.44 142.911 37.44ZM148.627 29.348C148.44 29.348 148.282 29.2827 148.151 29.152C148.03 29.0213 147.969 28.8627 147.969 28.676C147.969 28.4893 148.03 28.3353 148.151 28.214C148.282 28.0927 148.44 28.032 148.627 28.032C148.823 28.032 148.982 28.0927 149.103 28.214C149.234 28.3353 149.299 28.4893 149.299 28.676C149.299 28.8627 149.234 29.0213 149.103 29.152C148.982 29.2827 148.823 29.348 148.627 29.348ZM148.445 38C148.258 38 148.165 37.9067 148.165 37.72V31.378C148.165 31.1913 148.258 31.098 148.445 31.098H148.809C148.996 31.098 149.089 31.1913 149.089 31.378V37.72C149.089 37.9067 148.996 38 148.809 38H148.445ZM154.225 30.93C155.037 30.93 155.649 31.154 156.059 31.602C156.479 32.05 156.689 32.61 156.689 33.282V37.72C156.689 37.9067 156.596 38 156.409 38H156.045C155.859 38 155.765 37.9067 155.765 37.72V33.59C155.765 32.974 155.616 32.5073 155.317 32.19C155.019 31.8727 154.589 31.714 154.029 31.714C153.675 31.714 153.348 31.8027 153.049 31.98C152.751 32.148 152.513 32.3813 152.335 32.68C152.158 32.9787 152.069 33.3053 152.069 33.66V37.72C152.069 37.9067 151.976 38 151.789 38H151.425C151.239 38 151.145 37.9067 151.145 37.72V31.378C151.145 31.1913 151.239 31.098 151.425 31.098H151.733C151.92 31.098 152.013 31.1913 152.013 31.378V32.05C152.247 31.6767 152.555 31.3967 152.937 31.21C153.32 31.0233 153.749 30.93 154.225 30.93ZM163.759 36.362C163.825 36.2967 163.895 36.264 163.969 36.264C164.035 36.264 164.095 36.292 164.151 36.348L164.333 36.516C164.399 36.5813 164.431 36.6513 164.431 36.726C164.431 36.782 164.403 36.8473 164.347 36.922C163.89 37.3793 163.447 37.706 163.017 37.902C162.588 38.0887 162.107 38.182 161.575 38.182C160.903 38.182 160.32 38.0327 159.825 37.734C159.331 37.4353 158.948 37.02 158.677 36.488C158.407 35.9467 158.271 35.3213 158.271 34.612C158.271 33.8933 158.402 33.2587 158.663 32.708C158.934 32.148 159.312 31.714 159.797 31.406C160.283 31.0887 160.843 30.93 161.477 30.93C162.42 30.93 163.162 31.224 163.703 31.812C164.245 32.4 164.515 33.1933 164.515 34.192V34.36C164.506 34.444 164.473 34.5093 164.417 34.556C164.371 34.6027 164.305 34.626 164.221 34.626H159.209C159.237 35.41 159.443 36.0727 159.825 36.614C160.217 37.146 160.801 37.412 161.575 37.412C161.995 37.412 162.364 37.3373 162.681 37.188C163.008 37.0293 163.367 36.754 163.759 36.362ZM161.477 31.7C160.861 31.7 160.353 31.8913 159.951 32.274C159.559 32.6473 159.321 33.198 159.237 33.926H163.591C163.573 33.2447 163.377 32.7033 163.003 32.302C162.63 31.9007 162.121 31.7 161.477 31.7ZM168.747 31.042C168.98 31.042 169.255 31.0793 169.573 31.154C169.741 31.21 169.806 31.3267 169.769 31.504L169.713 31.728C169.666 31.9053 169.549 31.9707 169.363 31.924C169.139 31.868 168.933 31.84 168.747 31.84C168.271 31.84 167.874 32.0453 167.557 32.456C167.249 32.8667 167.095 33.436 167.095 34.164V37.72C167.095 37.9067 167.001 38 166.815 38H166.451C166.264 38 166.171 37.9067 166.171 37.72V31.378C166.171 31.1913 166.264 31.098 166.451 31.098H166.759C166.945 31.098 167.039 31.1913 167.039 31.378V32.148C167.197 31.8027 167.421 31.532 167.711 31.336C168.009 31.14 168.355 31.042 168.747 31.042Z" fill="#5C5C66"/>
<rect x="24" y="50" width="296" height="80" rx="8" fill="white"/>
<circle cx="145" cy="113" r="5" fill="#0063FB"/>
<circle cx="163" cy="113" r="5" fill="#DEDEE3"/>
<circle cx="181" cy="113" r="5" fill="#DEDEE3"/>
<circle cx="199" cy="113" r="5" fill="#DEDEE3"/>
<path d="M199 119H216C218.209 119 220 120.791 220 123V125C220 127.209 218.209 129 216 129H199" stroke="#BE3830" stroke-width="2" stroke-dasharray="4 4"/>
<rect x="228" y="112" width="36" height="24" rx="4" fill="#BE3830"/>
<path d="M234.756 119.648C234.916 119.536 235.088 119.48 235.272 119.48H235.572C235.708 119.48 235.812 119.516 235.884 119.588C235.956 119.66 235.992 119.764 235.992 119.9V127.58C235.992 127.708 235.956 127.812 235.884 127.892C235.812 127.964 235.708 128 235.572 128H235.104C234.976 128 234.872 127.964 234.792 127.892C234.72 127.812 234.684 127.708 234.684 127.58V121.112L233.316 122.06C233.212 122.124 233.124 122.156 233.052 122.156C232.94 122.156 232.836 122.092 232.74 121.964L232.584 121.736C232.512 121.64 232.476 121.548 232.476 121.46C232.476 121.348 232.54 121.244 232.668 121.148L234.756 119.648ZM243.801 126.896C243.937 126.896 244.041 126.932 244.113 127.004C244.185 127.076 244.221 127.18 244.221 127.316V127.58C244.221 127.708 244.185 127.812 244.113 127.892C244.041 127.964 243.937 128 243.801 128H238.545C238.417 128 238.313 127.964 238.233 127.892C238.161 127.812 238.125 127.708 238.125 127.58V127.496C238.125 126.904 238.233 126.404 238.449 125.996C238.665 125.588 238.937 125.252 239.265 124.988C239.593 124.716 240.037 124.404 240.597 124.052L241.233 123.68C241.633 123.448 241.941 123.256 242.157 123.104C242.373 122.952 242.549 122.768 242.685 122.552C242.829 122.328 242.901 122.068 242.901 121.772C242.901 121.348 242.757 121.016 242.469 120.776C242.181 120.536 241.821 120.416 241.389 120.416C240.997 120.416 240.649 120.512 240.345 120.704C240.049 120.888 239.717 121.196 239.349 121.628C239.245 121.748 239.133 121.808 239.013 121.808C238.941 121.808 238.853 121.776 238.749 121.712L238.461 121.508C238.325 121.412 238.257 121.304 238.257 121.184C238.257 121.096 238.293 121.004 238.365 120.908C238.813 120.348 239.273 119.94 239.745 119.684C240.225 119.428 240.761 119.3 241.353 119.3C241.937 119.3 242.445 119.408 242.877 119.624C243.309 119.84 243.637 120.132 243.861 120.5C244.093 120.868 244.209 121.28 244.209 121.736C244.209 122.224 244.113 122.636 243.921 122.972C243.729 123.308 243.485 123.588 243.189 123.812C242.901 124.028 242.493 124.292 241.965 124.604C241.709 124.748 241.517 124.86 241.389 124.94C240.933 125.22 240.593 125.436 240.369 125.588C240.153 125.74 239.961 125.924 239.793 126.14C239.625 126.356 239.517 126.608 239.469 126.896H243.801ZM251.294 121.928C251.798 121.928 252.246 122.056 252.638 122.312C253.038 122.568 253.35 122.932 253.574 123.404C253.798 123.876 253.91 124.42 253.91 125.036C253.91 125.66 253.798 126.208 253.574 126.68C253.35 127.152 253.038 127.516 252.638 127.772C252.238 128.028 251.79 128.156 251.294 128.156C250.462 128.156 249.838 127.868 249.422 127.292V129.704C249.422 129.84 249.386 129.944 249.314 130.016C249.242 130.088 249.138 130.124 249.002 130.124H248.57C248.442 130.124 248.338 130.088 248.258 130.016C248.186 129.944 248.15 129.84 248.15 129.704V122.504C248.15 122.368 248.186 122.264 248.258 122.192C248.338 122.12 248.442 122.084 248.57 122.084H248.918C249.054 122.084 249.158 122.12 249.23 122.192C249.302 122.264 249.338 122.368 249.338 122.504V122.948C249.762 122.268 250.414 121.928 251.294 121.928ZM251.03 127.052C251.51 127.052 251.894 126.872 252.182 126.512C252.47 126.144 252.614 125.652 252.614 125.036C252.614 124.428 252.47 123.94 252.182 123.572C251.902 123.204 251.522 123.02 251.042 123.02C250.554 123.02 250.154 123.2 249.842 123.56C249.53 123.92 249.374 124.412 249.374 125.036C249.374 125.66 249.53 126.152 249.842 126.512C250.154 126.872 250.55 127.052 251.03 127.052ZM259.535 127.496C259.599 127.6 259.631 127.684 259.631 127.748C259.631 127.828 259.599 127.892 259.535 127.94C259.471 127.98 259.383 128 259.271 128H258.803C258.579 128 258.411 127.908 258.299 127.724L257.015 125.792L255.731 127.724C255.619 127.908 255.451 128 255.227 128H254.795C254.675 128 254.583 127.98 254.519 127.94C254.455 127.892 254.423 127.828 254.423 127.748C254.423 127.684 254.455 127.6 254.519 127.496L256.307 124.904L254.699 122.588C254.635 122.484 254.603 122.4 254.603 122.336C254.603 122.256 254.635 122.196 254.699 122.156C254.763 122.108 254.855 122.084 254.975 122.084H255.419C255.635 122.084 255.803 122.172 255.923 122.348L257.039 124.004L258.131 122.36C258.243 122.176 258.411 122.084 258.635 122.084H259.055C259.167 122.084 259.255 122.108 259.319 122.156C259.383 122.204 259.415 122.268 259.415 122.348C259.415 122.412 259.383 122.496 259.319 122.6L257.747 124.856L259.535 127.496Z" fill="white"/>
</svg>
