<svg width="344" height="180" viewBox="0 0 344 180" fill="none" xmlns="http://www.w3.org/2000/svg">
<rect width="344" height="180" fill="#F6F6F6"/>
<path d="M29.264 38.21C28.3213 38.21 27.5 37.9907 26.8 37.552C26.1 37.104 25.5633 36.488 25.19 35.704C24.8167 34.92 24.63 34.0287 24.63 33.03C24.63 32.0313 24.8167 31.14 25.19 30.356C25.5633 29.572 26.1 28.9607 26.8 28.522C27.5 28.074 28.3213 27.85 29.264 27.85C30.2067 27.85 31.028 28.074 31.728 28.522C32.428 28.9607 32.9647 29.572 33.338 30.356C33.7113 31.14 33.898 32.0313 33.898 33.03C33.898 34.0287 33.7113 34.92 33.338 35.704C32.9647 36.488 32.428 37.104 31.728 37.552C31.028 37.9907 30.2067 38.21 29.264 38.21ZM29.264 37.356C29.9827 37.356 30.6173 37.174 31.168 36.81C31.7187 36.4367 32.1433 35.9233 32.442 35.27C32.75 34.6073 32.904 33.8607 32.904 33.03C32.904 32.1993 32.75 31.4573 32.442 30.804C32.1433 30.1413 31.7187 29.628 31.168 29.264C30.6173 28.8907 29.9827 28.704 29.264 28.704C28.5453 28.704 27.9107 28.8907 27.36 29.264C26.8093 29.628 26.38 30.1413 26.072 30.804C25.7733 31.4573 25.624 32.1993 25.624 33.03C25.624 33.8607 25.7733 34.6073 26.072 35.27C26.38 35.9233 26.8093 36.4367 27.36 36.81C27.9107 37.174 28.5453 37.356 29.264 37.356ZM40.0297 31.378C40.0297 31.1913 40.123 31.098 40.3097 31.098H40.6737C40.8603 31.098 40.9537 31.1913 40.9537 31.378V37.72C40.9537 37.9067 40.8603 38 40.6737 38H40.3797C40.193 38 40.0997 37.9067 40.0997 37.72V37.09C39.8943 37.454 39.6003 37.7293 39.2177 37.916C38.8443 38.0933 38.4337 38.182 37.9857 38.182C37.1457 38.182 36.525 37.972 36.1237 37.552C35.7223 37.1227 35.5217 36.572 35.5217 35.9V31.378C35.5217 31.1913 35.615 31.098 35.8017 31.098H36.1657C36.3523 31.098 36.4457 31.1913 36.4457 31.378V35.704C36.4457 36.2547 36.581 36.6747 36.8517 36.964C37.1317 37.244 37.5283 37.384 38.0417 37.384C38.6203 37.384 39.0963 37.2067 39.4697 36.852C39.843 36.4973 40.0297 35.9933 40.0297 35.34V31.378ZM46.1362 37.23C46.1642 37.2207 46.2015 37.216 46.2482 37.216C46.3042 37.216 46.3555 37.2347 46.4022 37.272C46.4489 37.3093 46.4769 37.3607 46.4862 37.426L46.5282 37.622C46.5375 37.6407 46.5422 37.6733 46.5422 37.72C46.5422 37.8507 46.4722 37.93 46.3322 37.958C45.9962 38.0607 45.6369 38.112 45.2542 38.112C44.6475 38.112 44.2135 37.9767 43.9522 37.706C43.7002 37.426 43.5742 37.0247 43.5742 36.502V31.798H42.5382C42.3515 31.798 42.2582 31.7047 42.2582 31.518V31.378C42.2582 31.1913 42.3515 31.098 42.5382 31.098H43.5742V28.97C43.5742 28.7833 43.6675 28.69 43.8542 28.69H44.2182C44.4049 28.69 44.4982 28.7833 44.4982 28.97V31.098H46.1782C46.3649 31.098 46.4582 31.1913 46.4582 31.378V31.518C46.4582 31.7047 46.3649 31.798 46.1782 31.798H44.4982V36.39C44.4982 36.7353 44.5635 36.978 44.6942 37.118C44.8249 37.258 45.0489 37.328 45.3662 37.328C45.5902 37.328 45.8469 37.2953 46.1362 37.23ZM50.3717 38.182C49.8024 38.182 49.2984 38.1027 48.8597 37.944C48.4304 37.776 47.9777 37.496 47.5017 37.104C47.4177 37.048 47.3757 36.9827 47.3757 36.908C47.3757 36.8427 47.4084 36.7773 47.4737 36.712L47.6557 36.516C47.7117 36.4413 47.7817 36.404 47.8657 36.404C47.9311 36.404 47.9917 36.432 48.0477 36.488C48.4957 36.8333 48.8924 37.076 49.2377 37.216C49.5831 37.3467 49.9611 37.412 50.3717 37.412C50.8851 37.412 51.3051 37.3 51.6317 37.076C51.9584 36.8427 52.1217 36.53 52.1217 36.138C52.1217 35.746 51.9537 35.4567 51.6177 35.27C51.2817 35.0833 50.7637 34.9153 50.0637 34.766C49.4477 34.6353 48.9624 34.5 48.6077 34.36C48.2624 34.2107 48.0057 34.024 47.8377 33.8C47.6697 33.576 47.5857 33.282 47.5857 32.918C47.5857 32.3207 47.8284 31.84 48.3137 31.476C48.7991 31.112 49.4104 30.93 50.1477 30.93C50.6517 30.93 51.0997 30.9953 51.4917 31.126C51.8931 31.2473 52.2944 31.4527 52.6957 31.742C52.7797 31.8073 52.8217 31.8773 52.8217 31.952C52.8217 31.9987 52.7984 32.0593 52.7517 32.134L52.5837 32.344C52.5371 32.4187 52.4717 32.456 52.3877 32.456C52.3131 32.456 52.2477 32.4327 52.1917 32.386C51.8091 32.1153 51.4684 31.9333 51.1697 31.84C50.8804 31.7467 50.5491 31.7 50.1757 31.7C49.6624 31.7 49.2517 31.812 48.9437 32.036C48.6357 32.26 48.4817 32.5447 48.4817 32.89C48.4817 33.1047 48.5517 33.2773 48.6917 33.408C48.8317 33.5387 49.0324 33.6507 49.2937 33.744C49.5551 33.828 49.9377 33.926 50.4417 34.038C51.3751 34.2433 52.0377 34.4953 52.4297 34.794C52.8311 35.0927 53.0317 35.5267 53.0317 36.096C53.0317 36.7213 52.7844 37.2253 52.2897 37.608C51.7951 37.9907 51.1557 38.182 50.3717 38.182ZM55.0566 29.348C54.8699 29.348 54.7113 29.2827 54.5806 29.152C54.4593 29.0213 54.3986 28.8627 54.3986 28.676C54.3986 28.4893 54.4593 28.3353 54.5806 28.214C54.7113 28.0927 54.8699 28.032 55.0566 28.032C55.2526 28.032 55.4113 28.0927 55.5326 28.214C55.6633 28.3353 55.7286 28.4893 55.7286 28.676C55.7286 28.8627 55.6633 29.0213 55.5326 29.152C55.4113 29.2827 55.2526 29.348 55.0566 29.348ZM54.8746 38C54.6879 38 54.5946 37.9067 54.5946 37.72V31.378C54.5946 31.1913 54.6879 31.098 54.8746 31.098H55.2386C55.4253 31.098 55.5186 31.1913 55.5186 31.378V37.72C55.5186 37.9067 55.4253 38 55.2386 38H54.8746ZM62.5591 28.34C62.5591 28.1533 62.6524 28.06 62.8391 28.06H63.2031C63.3897 28.06 63.4831 28.1533 63.4831 28.34V37.72C63.4831 37.9067 63.3897 38 63.2031 38H62.9091C62.7224 38 62.6291 37.9067 62.6291 37.72V36.81C62.3771 37.2487 62.0457 37.5847 61.6351 37.818C61.2244 38.0513 60.7391 38.168 60.1791 38.168C59.5911 38.168 59.0684 38.0187 58.6111 37.72C58.1537 37.412 57.7944 36.9873 57.5331 36.446C57.2717 35.8953 57.1411 35.2653 57.1411 34.556C57.1411 33.8467 57.2717 33.2213 57.5331 32.68C57.8037 32.1293 58.1724 31.7047 58.6391 31.406C59.1057 31.098 59.6284 30.944 60.2071 30.944C61.2711 30.944 62.0551 31.3407 62.5591 32.134V28.34ZM60.2491 37.384C60.9491 37.384 61.5137 37.1367 61.9431 36.642C62.3817 36.138 62.6011 35.4427 62.6011 34.556C62.6011 33.6787 62.3817 32.988 61.9431 32.484C61.5137 31.98 60.9491 31.728 60.2491 31.728C59.6051 31.728 59.0824 31.9893 58.6811 32.512C58.2891 33.0347 58.0931 33.716 58.0931 34.556C58.0931 35.4053 58.2891 36.0913 58.6811 36.614C59.0731 37.1273 59.5957 37.384 60.2491 37.384ZM70.5854 36.362C70.6508 36.2967 70.7208 36.264 70.7954 36.264C70.8608 36.264 70.9214 36.292 70.9774 36.348L71.1594 36.516C71.2248 36.5813 71.2574 36.6513 71.2574 36.726C71.2574 36.782 71.2294 36.8473 71.1734 36.922C70.7161 37.3793 70.2728 37.706 69.8434 37.902C69.4141 38.0887 68.9334 38.182 68.4014 38.182C67.7294 38.182 67.1461 38.0327 66.6514 37.734C66.1568 37.4353 65.7741 37.02 65.5034 36.488C65.2328 35.9467 65.0974 35.3213 65.0974 34.612C65.0974 33.8933 65.2281 33.2587 65.4894 32.708C65.7601 32.148 66.1381 31.714 66.6234 31.406C67.1088 31.0887 67.6688 30.93 68.3034 30.93C69.2461 30.93 69.9881 31.224 70.5294 31.812C71.0708 32.4 71.3414 33.1933 71.3414 34.192V34.36C71.3321 34.444 71.2994 34.5093 71.2434 34.556C71.1968 34.6027 71.1314 34.626 71.0474 34.626H66.0354C66.0634 35.41 66.2688 36.0727 66.6514 36.614C67.0434 37.146 67.6268 37.412 68.4014 37.412C68.8214 37.412 69.1901 37.3373 69.5074 37.188C69.8341 37.0293 70.1934 36.754 70.5854 36.362ZM68.3034 31.7C67.6874 31.7 67.1788 31.8913 66.7774 32.274C66.3854 32.6473 66.1474 33.198 66.0634 33.926H70.4174C70.3988 33.2447 70.2028 32.7033 69.8294 32.302C69.4561 31.9007 68.9474 31.7 68.3034 31.7ZM79.0235 38.182C78.3608 38.182 77.7822 38.0327 77.2875 37.734C76.8022 37.426 76.4242 37.0013 76.1535 36.46C75.8922 35.9093 75.7615 35.2747 75.7615 34.556C75.7615 33.8467 75.8922 33.2167 76.1535 32.666C76.4242 32.1153 76.8022 31.6907 77.2875 31.392C77.7822 31.084 78.3515 30.93 78.9955 30.93C79.5182 30.93 79.9755 31.0187 80.3675 31.196C80.7595 31.364 81.1375 31.644 81.5015 32.036C81.5575 32.092 81.5855 32.1527 81.5855 32.218C81.5855 32.302 81.5482 32.372 81.4735 32.428L81.2775 32.61C81.2215 32.666 81.1562 32.694 81.0815 32.694C81.0162 32.694 80.9462 32.6567 80.8715 32.582C80.5448 32.2553 80.2322 32.0267 79.9335 31.896C79.6442 31.7653 79.3222 31.7 78.9675 31.7C78.4822 31.7 78.0668 31.8353 77.7215 32.106C77.3855 32.3767 77.1335 32.7313 76.9655 33.17C76.7975 33.5993 76.7135 34.0613 76.7135 34.556C76.7135 35.0507 76.7975 35.5173 76.9655 35.956C77.1335 36.3853 77.3902 36.7353 77.7355 37.006C78.0808 37.2673 78.5055 37.398 79.0095 37.398C79.3828 37.398 79.7095 37.3327 79.9895 37.202C80.2788 37.062 80.6008 36.8007 80.9555 36.418C81.0302 36.3433 81.1002 36.306 81.1655 36.306C81.2402 36.306 81.3055 36.334 81.3615 36.39L81.5575 36.544C81.6228 36.6 81.6555 36.6653 81.6555 36.74C81.6555 36.8147 81.6135 36.9033 81.5295 37.006C81.1375 37.4353 80.7455 37.7387 80.3535 37.916C79.9615 38.0933 79.5182 38.182 79.0235 38.182ZM85.8744 38.182C85.2304 38.182 84.6564 38.028 84.1524 37.72C83.6484 37.412 83.2564 36.9873 82.9764 36.446C82.6964 35.8953 82.5564 35.2653 82.5564 34.556C82.5564 33.8467 82.6964 33.2213 82.9764 32.68C83.2564 32.1293 83.6484 31.7 84.1524 31.392C84.6564 31.084 85.2304 30.93 85.8744 30.93C86.5184 30.93 87.0924 31.084 87.5964 31.392C88.1004 31.7 88.4924 32.1293 88.7724 32.68C89.0524 33.2213 89.1924 33.8467 89.1924 34.556C89.1924 35.2653 89.0524 35.8953 88.7724 36.446C88.4924 36.9873 88.1004 37.412 87.5964 37.72C87.0924 38.028 86.5184 38.182 85.8744 38.182ZM85.8744 37.412C86.5931 37.412 87.1671 37.1507 87.5964 36.628C88.0258 36.096 88.2404 35.4053 88.2404 34.556C88.2404 33.7067 88.0258 33.0207 87.5964 32.498C87.1671 31.966 86.5931 31.7 85.8744 31.7C85.1558 31.7 84.5818 31.966 84.1524 32.498C83.7231 33.0207 83.5084 33.7067 83.5084 34.556C83.5084 35.4053 83.7231 36.096 84.1524 36.628C84.5818 37.1507 85.1558 37.412 85.8744 37.412ZM93.8777 30.93C94.6897 30.93 95.3011 31.154 95.7117 31.602C96.1317 32.05 96.3417 32.61 96.3417 33.282V37.72C96.3417 37.9067 96.2484 38 96.0617 38H95.6977C95.5111 38 95.4177 37.9067 95.4177 37.72V33.59C95.4177 32.974 95.2684 32.5073 94.9697 32.19C94.6711 31.8727 94.2417 31.714 93.6817 31.714C93.3271 31.714 93.0004 31.8027 92.7017 31.98C92.4031 32.148 92.1651 32.3813 91.9877 32.68C91.8104 32.9787 91.7217 33.3053 91.7217 33.66V37.72C91.7217 37.9067 91.6284 38 91.4417 38H91.0777C90.8911 38 90.7977 37.9067 90.7977 37.72V31.378C90.7977 31.1913 90.8911 31.098 91.0777 31.098H91.3857C91.5724 31.098 91.6657 31.1913 91.6657 31.378V32.05C91.8991 31.6767 92.2071 31.3967 92.5897 31.21C92.9724 31.0233 93.4017 30.93 93.8777 30.93ZM101.302 37.23C101.33 37.2207 101.368 37.216 101.414 37.216C101.47 37.216 101.522 37.2347 101.568 37.272C101.615 37.3093 101.643 37.3607 101.652 37.426L101.694 37.622C101.704 37.6407 101.708 37.6733 101.708 37.72C101.708 37.8507 101.638 37.93 101.498 37.958C101.162 38.0607 100.803 38.112 100.42 38.112C99.8135 38.112 99.3795 37.9767 99.1182 37.706C98.8662 37.426 98.7402 37.0247 98.7402 36.502V31.798H97.7042C97.5175 31.798 97.4242 31.7047 97.4242 31.518V31.378C97.4242 31.1913 97.5175 31.098 97.7042 31.098H98.7402V28.97C98.7402 28.7833 98.8335 28.69 99.0202 28.69H99.3842C99.5709 28.69 99.6642 28.7833 99.6642 28.97V31.098H101.344C101.531 31.098 101.624 31.1913 101.624 31.378V31.518C101.624 31.7047 101.531 31.798 101.344 31.798H99.6642V36.39C99.6642 36.7353 99.7295 36.978 99.8602 37.118C99.9909 37.258 100.215 37.328 100.532 37.328C100.756 37.328 101.013 37.2953 101.302 37.23ZM107.8 36.362C107.866 36.2967 107.936 36.264 108.01 36.264C108.076 36.264 108.136 36.292 108.192 36.348L108.374 36.516C108.44 36.5813 108.472 36.6513 108.472 36.726C108.472 36.782 108.444 36.8473 108.388 36.922C107.931 37.3793 107.488 37.706 107.058 37.902C106.629 38.0887 106.148 38.182 105.616 38.182C104.944 38.182 104.361 38.0327 103.866 37.734C103.372 37.4353 102.989 37.02 102.718 36.488C102.448 35.9467 102.312 35.3213 102.312 34.612C102.312 33.8933 102.443 33.2587 102.704 32.708C102.975 32.148 103.353 31.714 103.838 31.406C104.324 31.0887 104.884 30.93 105.518 30.93C106.461 30.93 107.203 31.224 107.744 31.812C108.286 32.4 108.556 33.1933 108.556 34.192V34.36C108.547 34.444 108.514 34.5093 108.458 34.556C108.412 34.6027 108.346 34.626 108.262 34.626H103.25C103.278 35.41 103.484 36.0727 103.866 36.614C104.258 37.146 104.842 37.412 105.616 37.412C106.036 37.412 106.405 37.3373 106.722 37.188C107.049 37.0293 107.408 36.754 107.8 36.362ZM105.518 31.7C104.902 31.7 104.394 31.8913 103.992 32.274C103.6 32.6473 103.362 33.198 103.278 33.926H107.632C107.614 33.2447 107.418 32.7033 107.044 32.302C106.671 31.9007 106.162 31.7 105.518 31.7ZM113.292 30.93C114.104 30.93 114.715 31.154 115.126 31.602C115.546 32.05 115.756 32.61 115.756 33.282V37.72C115.756 37.9067 115.662 38 115.476 38H115.112C114.925 38 114.832 37.9067 114.832 37.72V33.59C114.832 32.974 114.682 32.5073 114.384 32.19C114.085 31.8727 113.656 31.714 113.096 31.714C112.741 31.714 112.414 31.8027 112.116 31.98C111.817 32.148 111.579 32.3813 111.402 32.68C111.224 32.9787 111.136 33.3053 111.136 33.66V37.72C111.136 37.9067 111.042 38 110.856 38H110.492C110.305 38 110.212 37.9067 110.212 37.72V31.378C110.212 31.1913 110.305 31.098 110.492 31.098H110.8C110.986 31.098 111.08 31.1913 111.08 31.378V32.05C111.313 31.6767 111.621 31.3967 112.004 31.21C112.386 31.0233 112.816 30.93 113.292 30.93ZM120.716 37.23C120.744 37.2207 120.782 37.216 120.828 37.216C120.884 37.216 120.936 37.2347 120.982 37.272C121.029 37.3093 121.057 37.3607 121.066 37.426L121.108 37.622C121.118 37.6407 121.122 37.6733 121.122 37.72C121.122 37.8507 121.052 37.93 120.912 37.958C120.576 38.0607 120.217 38.112 119.834 38.112C119.228 38.112 118.794 37.9767 118.532 37.706C118.28 37.426 118.154 37.0247 118.154 36.502V31.798H117.118C116.932 31.798 116.838 31.7047 116.838 31.518V31.378C116.838 31.1913 116.932 31.098 117.118 31.098H118.154V28.97C118.154 28.7833 118.248 28.69 118.434 28.69H118.798C118.985 28.69 119.078 28.7833 119.078 28.97V31.098H120.758C120.945 31.098 121.038 31.1913 121.038 31.378V31.518C121.038 31.7047 120.945 31.798 120.758 31.798H119.078V36.39C119.078 36.7353 119.144 36.978 119.274 37.118C119.405 37.258 119.629 37.328 119.946 37.328C120.17 37.328 120.427 37.2953 120.716 37.23ZM128.475 38.182C127.812 38.182 127.233 38.0327 126.739 37.734C126.253 37.426 125.875 37.0013 125.605 36.46C125.343 35.9093 125.213 35.2747 125.213 34.556C125.213 33.8467 125.343 33.2167 125.605 32.666C125.875 32.1153 126.253 31.6907 126.739 31.392C127.233 31.084 127.803 30.93 128.447 30.93C128.969 30.93 129.427 31.0187 129.819 31.196C130.211 31.364 130.589 31.644 130.953 32.036C131.009 32.092 131.037 32.1527 131.037 32.218C131.037 32.302 130.999 32.372 130.925 32.428L130.729 32.61C130.673 32.666 130.607 32.694 130.533 32.694C130.467 32.694 130.397 32.6567 130.323 32.582C129.996 32.2553 129.683 32.0267 129.385 31.896C129.095 31.7653 128.773 31.7 128.419 31.7C127.933 31.7 127.518 31.8353 127.173 32.106C126.837 32.3767 126.585 32.7313 126.417 33.17C126.249 33.5993 126.165 34.0613 126.165 34.556C126.165 35.0507 126.249 35.5173 126.417 35.956C126.585 36.3853 126.841 36.7353 127.187 37.006C127.532 37.2673 127.957 37.398 128.461 37.398C128.834 37.398 129.161 37.3327 129.441 37.202C129.73 37.062 130.052 36.8007 130.407 36.418C130.481 36.3433 130.551 36.306 130.617 36.306C130.691 36.306 130.757 36.334 130.813 36.39L131.009 36.544C131.074 36.6 131.107 36.6653 131.107 36.74C131.107 36.8147 131.065 36.9033 130.981 37.006C130.589 37.4353 130.197 37.7387 129.805 37.916C129.413 38.0933 128.969 38.182 128.475 38.182ZM135.326 38.182C134.682 38.182 134.108 38.028 133.604 37.72C133.1 37.412 132.708 36.9873 132.428 36.446C132.148 35.8953 132.008 35.2653 132.008 34.556C132.008 33.8467 132.148 33.2213 132.428 32.68C132.708 32.1293 133.1 31.7 133.604 31.392C134.108 31.084 134.682 30.93 135.326 30.93C135.97 30.93 136.544 31.084 137.048 31.392C137.552 31.7 137.944 32.1293 138.224 32.68C138.504 33.2213 138.644 33.8467 138.644 34.556C138.644 35.2653 138.504 35.8953 138.224 36.446C137.944 36.9873 137.552 37.412 137.048 37.72C136.544 38.028 135.97 38.182 135.326 38.182ZM135.326 37.412C136.044 37.412 136.618 37.1507 137.048 36.628C137.477 36.096 137.692 35.4053 137.692 34.556C137.692 33.7067 137.477 33.0207 137.048 32.498C136.618 31.966 136.044 31.7 135.326 31.7C134.607 31.7 134.033 31.966 133.604 32.498C133.174 33.0207 132.96 33.7067 132.96 34.556C132.96 35.4053 133.174 36.096 133.604 36.628C134.033 37.1507 134.607 37.412 135.326 37.412ZM143.329 30.93C144.141 30.93 144.752 31.154 145.163 31.602C145.583 32.05 145.793 32.61 145.793 33.282V37.72C145.793 37.9067 145.7 38 145.513 38H145.149C144.962 38 144.869 37.9067 144.869 37.72V33.59C144.869 32.974 144.72 32.5073 144.421 32.19C144.122 31.8727 143.693 31.714 143.133 31.714C142.778 31.714 142.452 31.8027 142.153 31.98C141.854 32.148 141.616 32.3813 141.439 32.68C141.262 32.9787 141.173 33.3053 141.173 33.66V37.72C141.173 37.9067 141.08 38 140.893 38H140.529C140.342 38 140.249 37.9067 140.249 37.72V31.378C140.249 31.1913 140.342 31.098 140.529 31.098H140.837C141.024 31.098 141.117 31.1913 141.117 31.378V32.05C141.35 31.6767 141.658 31.3967 142.041 31.21C142.424 31.0233 142.853 30.93 143.329 30.93ZM150.753 37.23C150.781 37.2207 150.819 37.216 150.865 37.216C150.921 37.216 150.973 37.2347 151.019 37.272C151.066 37.3093 151.094 37.3607 151.103 37.426L151.145 37.622C151.155 37.6407 151.159 37.6733 151.159 37.72C151.159 37.8507 151.089 37.93 150.949 37.958C150.613 38.0607 150.254 38.112 149.871 38.112C149.265 38.112 148.831 37.9767 148.569 37.706C148.317 37.426 148.191 37.0247 148.191 36.502V31.798H147.155C146.969 31.798 146.875 31.7047 146.875 31.518V31.378C146.875 31.1913 146.969 31.098 147.155 31.098H148.191V28.97C148.191 28.7833 148.285 28.69 148.471 28.69H148.835C149.022 28.69 149.115 28.7833 149.115 28.97V31.098H150.795C150.982 31.098 151.075 31.1913 151.075 31.378V31.518C151.075 31.7047 150.982 31.798 150.795 31.798H149.115V36.39C149.115 36.7353 149.181 36.978 149.311 37.118C149.442 37.258 149.666 37.328 149.983 37.328C150.207 37.328 150.464 37.2953 150.753 37.23ZM155.159 30.93C156.008 30.93 156.671 31.1353 157.147 31.546C157.623 31.9473 157.861 32.4793 157.861 33.142V37.72C157.861 37.9067 157.768 38 157.581 38H157.301C157.114 38 157.021 37.9067 157.021 37.72V37.09C156.788 37.4633 156.456 37.7433 156.027 37.93C155.607 38.1167 155.136 38.21 154.613 38.21C153.885 38.21 153.292 38.056 152.835 37.748C152.378 37.44 152.149 36.964 152.149 36.32C152.149 35.8067 152.294 35.396 152.583 35.088C152.872 34.7707 153.25 34.5327 153.717 34.374C154.184 34.206 154.767 34.0567 155.467 33.926L156.979 33.66V33.212C156.979 32.736 156.816 32.3673 156.489 32.106C156.162 31.8353 155.733 31.7 155.201 31.7C154.8 31.7 154.436 31.7747 154.109 31.924C153.782 32.0733 153.432 32.33 153.059 32.694C152.994 32.7593 152.924 32.792 152.849 32.792C152.784 32.792 152.723 32.764 152.667 32.708L152.485 32.54C152.42 32.4747 152.387 32.4047 152.387 32.33C152.387 32.246 152.42 32.1713 152.485 32.106C152.877 31.6953 153.288 31.3967 153.717 31.21C154.156 31.0233 154.636 30.93 155.159 30.93ZM154.655 37.44C155.327 37.44 155.882 37.2627 156.321 36.908C156.76 36.5533 156.979 36.1007 156.979 35.55V34.374L155.677 34.626C155.07 34.7473 154.59 34.864 154.235 34.976C153.88 35.088 153.596 35.2513 153.381 35.466C153.166 35.6807 153.059 35.9607 153.059 36.306C153.059 36.6607 153.199 36.9407 153.479 37.146C153.768 37.342 154.16 37.44 154.655 37.44ZM160.371 29.348C160.184 29.348 160.026 29.2827 159.895 29.152C159.774 29.0213 159.713 28.8627 159.713 28.676C159.713 28.4893 159.774 28.3353 159.895 28.214C160.026 28.0927 160.184 28.032 160.371 28.032C160.567 28.032 160.726 28.0927 160.847 28.214C160.978 28.3353 161.043 28.4893 161.043 28.676C161.043 28.8627 160.978 29.0213 160.847 29.152C160.726 29.2827 160.567 29.348 160.371 29.348ZM160.189 38C160.002 38 159.909 37.9067 159.909 37.72V31.378C159.909 31.1913 160.002 31.098 160.189 31.098H160.553C160.74 31.098 160.833 31.1913 160.833 31.378V37.72C160.833 37.9067 160.74 38 160.553 38H160.189ZM165.97 30.93C166.782 30.93 167.393 31.154 167.804 31.602C168.224 32.05 168.434 32.61 168.434 33.282V37.72C168.434 37.9067 168.34 38 168.154 38H167.79C167.603 38 167.51 37.9067 167.51 37.72V33.59C167.51 32.974 167.36 32.5073 167.062 32.19C166.763 31.8727 166.334 31.714 165.774 31.714C165.419 31.714 165.092 31.8027 164.794 31.98C164.495 32.148 164.257 32.3813 164.08 32.68C163.902 32.9787 163.814 33.3053 163.814 33.66V37.72C163.814 37.9067 163.72 38 163.534 38H163.17C162.983 38 162.89 37.9067 162.89 37.72V31.378C162.89 31.1913 162.983 31.098 163.17 31.098H163.478C163.664 31.098 163.758 31.1913 163.758 31.378V32.05C163.991 31.6767 164.299 31.3967 164.682 31.21C165.064 31.0233 165.494 30.93 165.97 30.93ZM175.503 36.362C175.569 36.2967 175.639 36.264 175.713 36.264C175.779 36.264 175.839 36.292 175.895 36.348L176.077 36.516C176.143 36.5813 176.175 36.6513 176.175 36.726C176.175 36.782 176.147 36.8473 176.091 36.922C175.634 37.3793 175.191 37.706 174.761 37.902C174.332 38.0887 173.851 38.182 173.319 38.182C172.647 38.182 172.064 38.0327 171.569 37.734C171.075 37.4353 170.692 37.02 170.421 36.488C170.151 35.9467 170.015 35.3213 170.015 34.612C170.015 33.8933 170.146 33.2587 170.407 32.708C170.678 32.148 171.056 31.714 171.541 31.406C172.027 31.0887 172.587 30.93 173.221 30.93C174.164 30.93 174.906 31.224 175.447 31.812C175.989 32.4 176.259 33.1933 176.259 34.192V34.36C176.25 34.444 176.217 34.5093 176.161 34.556C176.115 34.6027 176.049 34.626 175.965 34.626H170.953C170.981 35.41 171.187 36.0727 171.569 36.614C171.961 37.146 172.545 37.412 173.319 37.412C173.739 37.412 174.108 37.3373 174.425 37.188C174.752 37.0293 175.111 36.754 175.503 36.362ZM173.221 31.7C172.605 31.7 172.097 31.8913 171.695 32.274C171.303 32.6473 171.065 33.198 170.981 33.926H175.335C175.317 33.2447 175.121 32.7033 174.747 32.302C174.374 31.9007 173.865 31.7 173.221 31.7ZM180.491 31.042C180.724 31.042 181 31.0793 181.317 31.154C181.485 31.21 181.55 31.3267 181.513 31.504L181.457 31.728C181.41 31.9053 181.294 31.9707 181.107 31.924C180.883 31.868 180.678 31.84 180.491 31.84C180.015 31.84 179.618 32.0453 179.301 32.456C178.993 32.8667 178.839 33.436 178.839 34.164V37.72C178.839 37.9067 178.746 38 178.559 38H178.195C178.008 38 177.915 37.9067 177.915 37.72V31.378C177.915 31.1913 178.008 31.098 178.195 31.098H178.503C178.69 31.098 178.783 31.1913 178.783 31.378V32.148C178.942 31.8027 179.166 31.532 179.455 31.336C179.754 31.14 180.099 31.042 180.491 31.042Z" fill="#5C5C66"/>
<rect x="24" y="50" width="296" height="80" rx="8" fill="white"/>
<circle cx="145" cy="151" r="5" fill="#0063FB"/>
<circle cx="163" cy="151" r="5" fill="#DEDEE3"/>
<circle cx="181" cy="151" r="5" fill="#DEDEE3"/>
<circle cx="199" cy="151" r="5" fill="#DEDEE3"/>
<path d="M198 157H213C215.209 157 217 158.791 217 161V175C217 177.209 215.209 179 213 179H198" stroke="#BE3830" stroke-width="2" stroke-dasharray="4 4"/>
<rect x="225" y="156" width="38" height="24" rx="4" fill="#BE3830"/>
<path d="M235.514 170.896C235.65 170.896 235.754 170.932 235.826 171.004C235.898 171.076 235.934 171.18 235.934 171.316V171.58C235.934 171.708 235.898 171.812 235.826 171.892C235.754 171.964 235.65 172 235.514 172H230.258C230.13 172 230.026 171.964 229.946 171.892C229.874 171.812 229.838 171.708 229.838 171.58V171.496C229.838 170.904 229.946 170.404 230.162 169.996C230.378 169.588 230.65 169.252 230.978 168.988C231.306 168.716 231.75 168.404 232.31 168.052L232.946 167.68C233.346 167.448 233.654 167.256 233.87 167.104C234.086 166.952 234.262 166.768 234.398 166.552C234.542 166.328 234.614 166.068 234.614 165.772C234.614 165.348 234.47 165.016 234.182 164.776C233.894 164.536 233.534 164.416 233.102 164.416C232.71 164.416 232.362 164.512 232.058 164.704C231.762 164.888 231.43 165.196 231.062 165.628C230.958 165.748 230.846 165.808 230.726 165.808C230.654 165.808 230.566 165.776 230.462 165.712L230.174 165.508C230.038 165.412 229.97 165.304 229.97 165.184C229.97 165.096 230.006 165.004 230.078 164.908C230.526 164.348 230.986 163.94 231.458 163.684C231.938 163.428 232.474 163.3 233.066 163.3C233.65 163.3 234.158 163.408 234.59 163.624C235.022 163.84 235.35 164.132 235.574 164.5C235.806 164.868 235.922 165.28 235.922 165.736C235.922 166.224 235.826 166.636 235.634 166.972C235.442 167.308 235.198 167.588 234.902 167.812C234.614 168.028 234.206 168.292 233.678 168.604C233.422 168.748 233.23 168.86 233.102 168.94C232.646 169.22 232.306 169.436 232.082 169.588C231.866 169.74 231.674 169.924 231.506 170.14C231.338 170.356 231.23 170.608 231.182 170.896H235.514ZM242.858 168.988C242.994 168.988 243.098 169.024 243.17 169.096C243.242 169.168 243.278 169.272 243.278 169.408V169.624C243.278 169.752 243.242 169.856 243.17 169.936C243.098 170.008 242.994 170.044 242.858 170.044H242.054V171.58C242.054 171.708 242.018 171.812 241.946 171.892C241.874 171.964 241.77 172 241.634 172H241.19C241.062 172 240.958 171.964 240.878 171.892C240.806 171.812 240.77 171.708 240.77 171.58V170.044H237.038C236.91 170.044 236.806 170.008 236.726 169.936C236.654 169.856 236.618 169.752 236.618 169.624V169.132C236.618 168.956 236.67 168.78 236.774 168.604L239.81 163.756C239.866 163.66 239.934 163.592 240.014 163.552C240.094 163.504 240.194 163.48 240.314 163.48H240.854C240.966 163.48 241.054 163.504 241.118 163.552C241.182 163.6 241.214 163.664 241.214 163.744C241.214 163.816 241.186 163.896 241.13 163.984L237.986 168.988H240.77V167.536C240.77 167.4 240.806 167.296 240.878 167.224C240.958 167.152 241.062 167.116 241.19 167.116H241.634C241.77 167.116 241.874 167.152 241.946 167.224C242.018 167.296 242.054 167.4 242.054 167.536V168.988H242.858ZM249.968 165.928C250.472 165.928 250.92 166.056 251.312 166.312C251.712 166.568 252.024 166.932 252.248 167.404C252.472 167.876 252.584 168.42 252.584 169.036C252.584 169.66 252.472 170.208 252.248 170.68C252.024 171.152 251.712 171.516 251.312 171.772C250.912 172.028 250.464 172.156 249.968 172.156C249.136 172.156 248.512 171.868 248.096 171.292V173.704C248.096 173.84 248.06 173.944 247.988 174.016C247.916 174.088 247.812 174.124 247.676 174.124H247.244C247.116 174.124 247.012 174.088 246.932 174.016C246.86 173.944 246.824 173.84 246.824 173.704V166.504C246.824 166.368 246.86 166.264 246.932 166.192C247.012 166.12 247.116 166.084 247.244 166.084H247.592C247.728 166.084 247.832 166.12 247.904 166.192C247.976 166.264 248.012 166.368 248.012 166.504V166.948C248.436 166.268 249.088 165.928 249.968 165.928ZM249.704 171.052C250.184 171.052 250.568 170.872 250.856 170.512C251.144 170.144 251.288 169.652 251.288 169.036C251.288 168.428 251.144 167.94 250.856 167.572C250.576 167.204 250.196 167.02 249.716 167.02C249.228 167.02 248.828 167.2 248.516 167.56C248.204 167.92 248.048 168.412 248.048 169.036C248.048 169.66 248.204 170.152 248.516 170.512C248.828 170.872 249.224 171.052 249.704 171.052ZM258.208 171.496C258.272 171.6 258.304 171.684 258.304 171.748C258.304 171.828 258.272 171.892 258.208 171.94C258.144 171.98 258.056 172 257.944 172H257.476C257.252 172 257.084 171.908 256.972 171.724L255.688 169.792L254.404 171.724C254.292 171.908 254.124 172 253.9 172H253.468C253.348 172 253.256 171.98 253.192 171.94C253.128 171.892 253.096 171.828 253.096 171.748C253.096 171.684 253.128 171.6 253.192 171.496L254.98 168.904L253.372 166.588C253.308 166.484 253.276 166.4 253.276 166.336C253.276 166.256 253.308 166.196 253.372 166.156C253.436 166.108 253.528 166.084 253.648 166.084H254.092C254.308 166.084 254.476 166.172 254.596 166.348L255.712 168.004L256.804 166.36C256.916 166.176 257.084 166.084 257.308 166.084H257.728C257.84 166.084 257.928 166.108 257.992 166.156C258.056 166.204 258.088 166.268 258.088 166.348C258.088 166.412 258.056 166.496 257.992 166.6L256.42 168.856L258.208 171.496Z" fill="white"/>
</svg>
