<svg width="688" height="392" viewBox="0 0 688 392" fill="none" xmlns="http://www.w3.org/2000/svg">
<rect width="688" height="392" fill="#F6F6F6"/>
<rect x="112" y="80" width="464" height="232" rx="8" fill="white"/>
<path d="M238.8 211.999H245.199L245.2 199.192H238.8V211.999Z" fill="#7A2822"/>
<path d="M251.6 180H232.4C228.866 180 226 182.864 226 186.397V211.999H232.399V211.987L232.4 200.792C232.4 200.464 232.417 200.141 232.449 199.822C232.942 195.015 237.03 191.201 242 191.201C246.971 191.201 251.058 195.015 251.551 199.823C251.583 200.142 251.6 200.465 251.6 200.792V211.988L251.601 212H258V186.397C258 182.864 255.134 180 251.6 180Z" fill="#7A2822"/>
<path d="M426.137 186.784H426.093C419.263 186.784 415.635 191.007 415.635 197.834L415.591 211.359H421.654V192.545H430.49V211.359H436.512V197.834C436.512 190.965 433.011 186.784 426.137 186.784Z" fill="#7A2822"/>
<path d="M402.741 186.784C396.123 186.784 391.854 191.478 391.854 199.114C391.854 206.879 395.995 211.957 402.826 211.957C406.668 211.957 411.364 210.633 412.731 204.66L407.308 203.167C406.71 206.069 405.087 207.049 402.782 207.049C399.608 207.049 398.242 205.104 397.969 200.693H412.944V198.729C412.944 190.624 408.589 186.784 402.741 186.784ZM406.579 196.683H398.032C398.46 192.928 400.082 191.648 402.484 191.648C405.303 191.648 406.583 193.525 406.583 196.214C406.583 196.372 406.581 196.528 406.579 196.683Z" fill="#7A2822"/>
<path d="M455.98 180V191.385C454.947 188.45 452.448 186.784 449.319 186.784C443.854 186.784 439.5 190.922 439.5 199.37C439.5 207.819 443.854 212 449.319 212C452.448 212 454.947 210.308 455.98 207.361V211.359H462V180H455.98ZM450.985 206.793C447.399 206.793 445.561 203.978 445.561 199.37C445.561 194.763 447.399 191.947 450.985 191.947C454.443 191.947 455.98 195.019 455.98 199.37C455.98 203.721 454.443 206.793 450.985 206.793Z" fill="#7A2822"/>
<path d="M386.9 181.494L380.172 205.385L373.324 181.494H366.834L376.014 211.359H384.339L393.39 181.494H386.9Z" fill="#7A2822"/>
<path d="M333.959 211.373H339.939L339.939 199.415H333.959V211.373Z" fill="#7A2822"/>
<path d="M345.919 181.494H327.98C324.677 181.494 322 184.169 322 187.468V211.373H327.979V211.362H327.98V200.908C327.98 200.603 327.995 200.301 328.025 200.003C328.486 195.514 332.305 191.953 336.95 191.953C341.594 191.953 345.413 195.515 345.873 200.004C345.903 200.301 345.919 200.603 345.919 200.909V211.363H345.92V211.374H351.899V187.468C351.899 184.169 349.221 181.494 345.919 181.494Z" fill="#7A2822"/>
<rect x="184" y="108" width="116" height="46" rx="8" fill="#BE3830"/>
<path d="M205.142 126.242L201.46 136H199.99L196.308 126.242H197.666L200.732 134.656L203.798 126.242H205.142ZM213.539 131.87C213.539 132.113 213.525 132.369 213.497 132.64H207.365C207.412 133.396 207.668 133.989 208.135 134.418C208.611 134.838 209.185 135.048 209.857 135.048C210.408 135.048 210.865 134.922 211.229 134.67C211.602 134.409 211.864 134.063 212.013 133.634H213.385C213.18 134.371 212.769 134.973 212.153 135.44C211.537 135.897 210.772 136.126 209.857 136.126C209.129 136.126 208.476 135.963 207.897 135.636C207.328 135.309 206.88 134.847 206.553 134.25C206.226 133.643 206.063 132.943 206.063 132.15C206.063 131.357 206.222 130.661 206.539 130.064C206.856 129.467 207.3 129.009 207.869 128.692C208.448 128.365 209.11 128.202 209.857 128.202C210.585 128.202 211.229 128.361 211.789 128.678C212.349 128.995 212.778 129.434 213.077 129.994C213.385 130.545 213.539 131.17 213.539 131.87ZM212.223 131.604C212.223 131.119 212.116 130.703 211.901 130.358C211.686 130.003 211.392 129.737 211.019 129.56C210.655 129.373 210.249 129.28 209.801 129.28C209.157 129.28 208.606 129.485 208.149 129.896C207.701 130.307 207.444 130.876 207.379 131.604H212.223ZM218.959 128.188C219.892 128.188 220.648 128.473 221.227 129.042C221.805 129.602 222.095 130.414 222.095 131.478V136H220.835V131.66C220.835 130.895 220.643 130.311 220.261 129.91C219.878 129.499 219.355 129.294 218.693 129.294C218.021 129.294 217.484 129.504 217.083 129.924C216.691 130.344 216.495 130.955 216.495 131.758V136H215.221V128.328H216.495V129.42C216.747 129.028 217.087 128.725 217.517 128.51C217.955 128.295 218.436 128.188 218.959 128.188ZM223.7 132.136C223.7 131.352 223.858 130.666 224.176 130.078C224.493 129.481 224.927 129.019 225.478 128.692C226.038 128.365 226.663 128.202 227.354 128.202C227.951 128.202 228.506 128.342 229.02 128.622C229.533 128.893 229.925 129.252 230.196 129.7V125.64H231.484V136H230.196V134.558C229.944 135.015 229.57 135.393 229.076 135.692C228.581 135.981 228.002 136.126 227.34 136.126C226.658 136.126 226.038 135.958 225.478 135.622C224.927 135.286 224.493 134.815 224.176 134.208C223.858 133.601 223.7 132.911 223.7 132.136ZM230.196 132.15C230.196 131.571 230.079 131.067 229.846 130.638C229.612 130.209 229.295 129.882 228.894 129.658C228.502 129.425 228.068 129.308 227.592 129.308C227.116 129.308 226.682 129.42 226.29 129.644C225.898 129.868 225.585 130.195 225.352 130.624C225.118 131.053 225.002 131.557 225.002 132.136C225.002 132.724 225.118 133.237 225.352 133.676C225.585 134.105 225.898 134.437 226.29 134.67C226.682 134.894 227.116 135.006 227.592 135.006C228.068 135.006 228.502 134.894 228.894 134.67C229.295 134.437 229.612 134.105 229.846 133.676C230.079 133.237 230.196 132.729 230.196 132.15ZM240.085 136.126C239.497 136.126 238.97 136.028 238.503 135.832C238.036 135.627 237.668 135.347 237.397 134.992C237.126 134.628 236.977 134.213 236.949 133.746H238.265C238.302 134.129 238.48 134.441 238.797 134.684C239.124 134.927 239.548 135.048 240.071 135.048C240.556 135.048 240.939 134.941 241.219 134.726C241.499 134.511 241.639 134.241 241.639 133.914C241.639 133.578 241.49 133.331 241.191 133.172C240.892 133.004 240.43 132.841 239.805 132.682C239.236 132.533 238.769 132.383 238.405 132.234C238.05 132.075 237.742 131.847 237.481 131.548C237.229 131.24 237.103 130.839 237.103 130.344C237.103 129.952 237.22 129.593 237.453 129.266C237.686 128.939 238.018 128.683 238.447 128.496C238.876 128.3 239.366 128.202 239.917 128.202C240.766 128.202 241.452 128.417 241.975 128.846C242.498 129.275 242.778 129.863 242.815 130.61H241.541C241.513 130.209 241.35 129.887 241.051 129.644C240.762 129.401 240.37 129.28 239.875 129.28C239.418 129.28 239.054 129.378 238.783 129.574C238.512 129.77 238.377 130.027 238.377 130.344C238.377 130.596 238.456 130.806 238.615 130.974C238.783 131.133 238.988 131.263 239.231 131.366C239.483 131.459 239.828 131.567 240.267 131.688C240.818 131.837 241.266 131.987 241.611 132.136C241.956 132.276 242.25 132.491 242.493 132.78C242.745 133.069 242.876 133.447 242.885 133.914C242.885 134.334 242.768 134.712 242.535 135.048C242.302 135.384 241.97 135.65 241.541 135.846C241.121 136.033 240.636 136.126 240.085 136.126ZM251.291 128.328L246.671 139.612H245.355L246.867 135.916L243.773 128.328H245.187L247.595 134.544L249.975 128.328H251.291ZM261.798 128.188C262.395 128.188 262.927 128.314 263.394 128.566C263.861 128.809 264.229 129.177 264.5 129.672C264.771 130.167 264.906 130.769 264.906 131.478V136H263.646V131.66C263.646 130.895 263.455 130.311 263.072 129.91C262.699 129.499 262.19 129.294 261.546 129.294C260.883 129.294 260.356 129.509 259.964 129.938C259.572 130.358 259.376 130.969 259.376 131.772V136H258.116V131.66C258.116 130.895 257.925 130.311 257.542 129.91C257.169 129.499 256.66 129.294 256.016 129.294C255.353 129.294 254.826 129.509 254.434 129.938C254.042 130.358 253.846 130.969 253.846 131.772V136H252.572V128.328H253.846V129.434C254.098 129.033 254.434 128.725 254.854 128.51C255.283 128.295 255.755 128.188 256.268 128.188C256.912 128.188 257.481 128.333 257.976 128.622C258.471 128.911 258.839 129.336 259.082 129.896C259.297 129.355 259.651 128.935 260.146 128.636C260.641 128.337 261.191 128.188 261.798 128.188ZM268.27 129.756C268.531 129.299 268.914 128.925 269.418 128.636C269.922 128.347 270.496 128.202 271.14 128.202C271.831 128.202 272.451 128.365 273.002 128.692C273.553 129.019 273.987 129.481 274.304 130.078C274.621 130.666 274.78 131.352 274.78 132.136C274.78 132.911 274.621 133.601 274.304 134.208C273.987 134.815 273.548 135.286 272.988 135.622C272.437 135.958 271.821 136.126 271.14 136.126C270.477 136.126 269.894 135.981 269.39 135.692C268.895 135.403 268.522 135.034 268.27 134.586V136H266.996V125.64H268.27V129.756ZM273.478 132.136C273.478 131.557 273.361 131.053 273.128 130.624C272.895 130.195 272.577 129.868 272.176 129.644C271.784 129.42 271.35 129.308 270.874 129.308C270.407 129.308 269.973 129.425 269.572 129.658C269.18 129.882 268.863 130.213 268.62 130.652C268.387 131.081 268.27 131.581 268.27 132.15C268.27 132.729 268.387 133.237 268.62 133.676C268.863 134.105 269.18 134.437 269.572 134.67C269.973 134.894 270.407 135.006 270.874 135.006C271.35 135.006 271.784 134.894 272.176 134.67C272.577 134.437 272.895 134.105 273.128 133.676C273.361 133.237 273.478 132.724 273.478 132.136ZM279.803 136.126C279.084 136.126 278.431 135.963 277.843 135.636C277.264 135.309 276.807 134.847 276.471 134.25C276.144 133.643 275.981 132.943 275.981 132.15C275.981 131.366 276.149 130.675 276.485 130.078C276.83 129.471 277.297 129.009 277.885 128.692C278.473 128.365 279.131 128.202 279.859 128.202C280.587 128.202 281.245 128.365 281.833 128.692C282.421 129.009 282.883 129.467 283.219 130.064C283.564 130.661 283.737 131.357 283.737 132.15C283.737 132.943 283.56 133.643 283.205 134.25C282.86 134.847 282.388 135.309 281.791 135.636C281.194 135.963 280.531 136.126 279.803 136.126ZM279.803 135.006C280.26 135.006 280.69 134.899 281.091 134.684C281.492 134.469 281.814 134.147 282.057 133.718C282.309 133.289 282.435 132.766 282.435 132.15C282.435 131.534 282.314 131.011 282.071 130.582C281.828 130.153 281.511 129.835 281.119 129.63C280.727 129.415 280.302 129.308 279.845 129.308C279.378 129.308 278.949 129.415 278.557 129.63C278.174 129.835 277.866 130.153 277.633 130.582C277.4 131.011 277.283 131.534 277.283 132.15C277.283 132.775 277.395 133.303 277.619 133.732C277.852 134.161 278.16 134.483 278.543 134.698C278.926 134.903 279.346 135.006 279.803 135.006ZM286.686 125.64V136H285.412V125.64H286.686Z" fill="white"/>
<rect width="26" height="3" transform="translate(243.5 154) rotate(90)" fill="#BE3830"/>
<rect x="328.5" y="108" width="127" height="46" rx="8" fill="#BE3830"/>
<path d="M349.642 126.242L345.96 136H344.49L340.808 126.242H342.166L345.232 134.656L348.298 126.242H349.642ZM358.039 131.87C358.039 132.113 358.025 132.369 357.997 132.64H351.865C351.912 133.396 352.168 133.989 352.635 134.418C353.111 134.838 353.685 135.048 354.357 135.048C354.908 135.048 355.365 134.922 355.729 134.67C356.102 134.409 356.364 134.063 356.513 133.634H357.885C357.68 134.371 357.269 134.973 356.653 135.44C356.037 135.897 355.272 136.126 354.357 136.126C353.629 136.126 352.976 135.963 352.397 135.636C351.828 135.309 351.38 134.847 351.053 134.25C350.726 133.643 350.563 132.943 350.563 132.15C350.563 131.357 350.722 130.661 351.039 130.064C351.356 129.467 351.8 129.009 352.369 128.692C352.948 128.365 353.61 128.202 354.357 128.202C355.085 128.202 355.729 128.361 356.289 128.678C356.849 128.995 357.278 129.434 357.577 129.994C357.885 130.545 358.039 131.17 358.039 131.87ZM356.723 131.604C356.723 131.119 356.616 130.703 356.401 130.358C356.186 130.003 355.892 129.737 355.519 129.56C355.155 129.373 354.749 129.28 354.301 129.28C353.657 129.28 353.106 129.485 352.649 129.896C352.201 130.307 351.944 130.876 351.879 131.604H356.723ZM363.459 128.188C364.392 128.188 365.148 128.473 365.727 129.042C366.305 129.602 366.595 130.414 366.595 131.478V136H365.335V131.66C365.335 130.895 365.143 130.311 364.761 129.91C364.378 129.499 363.855 129.294 363.193 129.294C362.521 129.294 361.984 129.504 361.583 129.924C361.191 130.344 360.995 130.955 360.995 131.758V136H359.721V128.328H360.995V129.42C361.247 129.028 361.587 128.725 362.017 128.51C362.455 128.295 362.936 128.188 363.459 128.188ZM368.2 132.136C368.2 131.352 368.358 130.666 368.676 130.078C368.993 129.481 369.427 129.019 369.978 128.692C370.538 128.365 371.163 128.202 371.854 128.202C372.451 128.202 373.006 128.342 373.52 128.622C374.033 128.893 374.425 129.252 374.696 129.7V125.64H375.984V136H374.696V134.558C374.444 135.015 374.07 135.393 373.576 135.692C373.081 135.981 372.502 136.126 371.84 136.126C371.158 136.126 370.538 135.958 369.978 135.622C369.427 135.286 368.993 134.815 368.676 134.208C368.358 133.601 368.2 132.911 368.2 132.136ZM374.696 132.15C374.696 131.571 374.579 131.067 374.346 130.638C374.112 130.209 373.795 129.882 373.394 129.658C373.002 129.425 372.568 129.308 372.092 129.308C371.616 129.308 371.182 129.42 370.79 129.644C370.398 129.868 370.085 130.195 369.852 130.624C369.618 131.053 369.502 131.557 369.502 132.136C369.502 132.724 369.618 133.237 369.852 133.676C370.085 134.105 370.398 134.437 370.79 134.67C371.182 134.894 371.616 135.006 372.092 135.006C372.568 135.006 373.002 134.894 373.394 134.67C373.795 134.437 374.112 134.105 374.346 133.676C374.579 133.237 374.696 132.729 374.696 132.15ZM383.143 125.64V136H381.869V125.64H383.143ZM388.66 136.126C387.942 136.126 387.288 135.963 386.7 135.636C386.122 135.309 385.664 134.847 385.328 134.25C385.002 133.643 384.838 132.943 384.838 132.15C384.838 131.366 385.006 130.675 385.342 130.078C385.688 129.471 386.154 129.009 386.742 128.692C387.33 128.365 387.988 128.202 388.716 128.202C389.444 128.202 390.102 128.365 390.69 128.692C391.278 129.009 391.74 129.467 392.076 130.064C392.422 130.661 392.594 131.357 392.594 132.15C392.594 132.943 392.417 133.643 392.062 134.25C391.717 134.847 391.246 135.309 390.648 135.636C390.051 135.963 389.388 136.126 388.66 136.126ZM388.66 135.006C389.118 135.006 389.547 134.899 389.948 134.684C390.35 134.469 390.672 134.147 390.914 133.718C391.166 133.289 391.292 132.766 391.292 132.15C391.292 131.534 391.171 131.011 390.928 130.582C390.686 130.153 390.368 129.835 389.976 129.63C389.584 129.415 389.16 129.308 388.702 129.308C388.236 129.308 387.806 129.415 387.414 129.63C387.032 129.835 386.724 130.153 386.49 130.582C386.257 131.011 386.14 131.534 386.14 132.15C386.14 132.775 386.252 133.303 386.476 133.732C386.71 134.161 387.018 134.483 387.4 134.698C387.783 134.903 388.203 135.006 388.66 135.006ZM397.433 128.202C398.096 128.202 398.675 128.347 399.169 128.636C399.673 128.925 400.047 129.289 400.289 129.728V128.328H401.577V136.168C401.577 136.868 401.428 137.489 401.129 138.03C400.831 138.581 400.401 139.01 399.841 139.318C399.291 139.626 398.647 139.78 397.909 139.78C396.901 139.78 396.061 139.542 395.389 139.066C394.717 138.59 394.321 137.941 394.199 137.12H395.459C395.599 137.587 395.889 137.96 396.327 138.24C396.766 138.529 397.293 138.674 397.909 138.674C398.609 138.674 399.179 138.455 399.617 138.016C400.065 137.577 400.289 136.961 400.289 136.168V134.558C400.037 135.006 399.664 135.379 399.169 135.678C398.675 135.977 398.096 136.126 397.433 136.126C396.752 136.126 396.131 135.958 395.571 135.622C395.021 135.286 394.587 134.815 394.269 134.208C393.952 133.601 393.793 132.911 393.793 132.136C393.793 131.352 393.952 130.666 394.269 130.078C394.587 129.481 395.021 129.019 395.571 128.692C396.131 128.365 396.752 128.202 397.433 128.202ZM400.289 132.15C400.289 131.571 400.173 131.067 399.939 130.638C399.706 130.209 399.389 129.882 398.987 129.658C398.595 129.425 398.161 129.308 397.685 129.308C397.209 129.308 396.775 129.42 396.383 129.644C395.991 129.868 395.679 130.195 395.445 130.624C395.212 131.053 395.095 131.557 395.095 132.136C395.095 132.724 395.212 133.237 395.445 133.676C395.679 134.105 395.991 134.437 396.383 134.67C396.775 134.894 397.209 135.006 397.685 135.006C398.161 135.006 398.595 134.894 398.987 134.67C399.389 134.437 399.706 134.105 399.939 133.676C400.173 133.237 400.289 132.729 400.289 132.15ZM407.076 136.126C406.358 136.126 405.704 135.963 405.116 135.636C404.538 135.309 404.08 134.847 403.744 134.25C403.418 133.643 403.254 132.943 403.254 132.15C403.254 131.366 403.422 130.675 403.758 130.078C404.104 129.471 404.57 129.009 405.158 128.692C405.746 128.365 406.404 128.202 407.132 128.202C407.86 128.202 408.518 128.365 409.106 128.692C409.694 129.009 410.156 129.467 410.492 130.064C410.838 130.661 411.01 131.357 411.01 132.15C411.01 132.943 410.833 133.643 410.478 134.25C410.133 134.847 409.662 135.309 409.064 135.636C408.467 135.963 407.804 136.126 407.076 136.126ZM407.076 135.006C407.534 135.006 407.963 134.899 408.364 134.684C408.766 134.469 409.088 134.147 409.33 133.718C409.582 133.289 409.708 132.766 409.708 132.15C409.708 131.534 409.587 131.011 409.344 130.582C409.102 130.153 408.784 129.835 408.392 129.63C408 129.415 407.576 129.308 407.118 129.308C406.652 129.308 406.222 129.415 405.83 129.63C405.448 129.835 405.14 130.153 404.906 130.582C404.673 131.011 404.556 131.534 404.556 132.15C404.556 132.775 404.668 133.303 404.892 133.732C405.126 134.161 405.434 134.483 405.816 134.698C406.199 134.903 406.619 135.006 407.076 135.006ZM414.239 129.378V133.9C414.239 134.273 414.319 134.539 414.477 134.698C414.636 134.847 414.911 134.922 415.303 134.922H416.241V136H415.093C414.384 136 413.852 135.837 413.497 135.51C413.143 135.183 412.965 134.647 412.965 133.9V129.378H411.971V128.328H412.965V126.396H414.239V128.328H416.241V129.378H414.239ZM424.393 128.328L419.773 139.612H418.457L419.969 135.916L416.875 128.328H418.289L420.697 134.544L423.077 128.328H424.393ZM426.948 129.742C427.2 129.303 427.573 128.939 428.068 128.65C428.572 128.351 429.155 128.202 429.818 128.202C430.499 128.202 431.115 128.365 431.666 128.692C432.226 129.019 432.664 129.481 432.982 130.078C433.299 130.666 433.458 131.352 433.458 132.136C433.458 132.911 433.299 133.601 432.982 134.208C432.664 134.815 432.226 135.286 431.666 135.622C431.115 135.958 430.499 136.126 429.818 136.126C429.164 136.126 428.586 135.981 428.082 135.692C427.587 135.393 427.209 135.025 426.948 134.586V139.64H425.674V128.328H426.948V129.742ZM432.156 132.136C432.156 131.557 432.039 131.053 431.806 130.624C431.572 130.195 431.255 129.868 430.854 129.644C430.462 129.42 430.028 129.308 429.552 129.308C429.085 129.308 428.651 129.425 428.25 129.658C427.858 129.882 427.54 130.213 427.298 130.652C427.064 131.081 426.948 131.581 426.948 132.15C426.948 132.729 427.064 133.237 427.298 133.676C427.54 134.105 427.858 134.437 428.25 134.67C428.651 134.894 429.085 135.006 429.552 135.006C430.028 135.006 430.462 134.894 430.854 134.67C431.255 134.437 431.572 134.105 431.806 133.676C432.039 133.237 432.156 132.724 432.156 132.136ZM442.135 131.87C442.135 132.113 442.121 132.369 442.093 132.64H435.961C436.007 133.396 436.264 133.989 436.731 134.418C437.207 134.838 437.781 135.048 438.453 135.048C439.003 135.048 439.461 134.922 439.825 134.67C440.198 134.409 440.459 134.063 440.609 133.634H441.981C441.775 134.371 441.365 134.973 440.749 135.44C440.133 135.897 439.367 136.126 438.453 136.126C437.725 136.126 437.071 135.963 436.493 135.636C435.923 135.309 435.475 134.847 435.149 134.25C434.822 133.643 434.659 132.943 434.659 132.15C434.659 131.357 434.817 130.661 435.135 130.064C435.452 129.467 435.895 129.009 436.465 128.692C437.043 128.365 437.706 128.202 438.453 128.202C439.181 128.202 439.825 128.361 440.385 128.678C440.945 128.995 441.374 129.434 441.673 129.994C441.981 130.545 442.135 131.17 442.135 131.87ZM440.819 131.604C440.819 131.119 440.711 130.703 440.497 130.358C440.282 130.003 439.988 129.737 439.615 129.56C439.251 129.373 438.845 129.28 438.397 129.28C437.753 129.28 437.202 129.485 436.745 129.896C436.297 130.307 436.04 130.876 435.975 131.604H440.819Z" fill="white"/>
<rect width="26" height="3" transform="translate(393.5 154) rotate(90)" fill="#BE3830"/>
</svg>
