<svg width="688" height="190" viewBox="0 0 688 190" fill="none" xmlns="http://www.w3.org/2000/svg">
<rect width="688" height="190" fill="#F6F6F7"/>
<path d="M24 32C24 27.5817 27.5817 24 32 24H344V166H32C27.5817 166 24 162.418 24 158V32Z" fill="white"/>
<path d="M52.116 54.242C53.18 54.242 54.0993 54.4427 54.874 54.844C55.658 55.236 56.2553 55.8007 56.666 56.538C57.086 57.2753 57.296 58.1433 57.296 59.142C57.296 60.1407 57.086 61.0087 56.666 61.746C56.2553 62.474 55.658 63.034 54.874 63.426C54.0993 63.8087 53.18 64 52.116 64H49.078V54.242H52.116ZM52.116 62.95C53.376 62.95 54.3373 62.6187 55 61.956C55.6627 61.284 55.994 60.346 55.994 59.142C55.994 57.9287 55.658 56.9813 54.986 56.3C54.3233 55.6187 53.3667 55.278 52.116 55.278H50.352V62.95H52.116ZM63.8624 58.974C64.2171 59.03 64.5391 59.1747 64.8284 59.408C65.1271 59.6413 65.3604 59.9307 65.5284 60.276C65.7058 60.6213 65.7944 60.99 65.7944 61.382C65.7944 61.8767 65.6684 62.3247 65.4164 62.726C65.1644 63.118 64.7958 63.4307 64.3104 63.664C63.8344 63.888 63.2698 64 62.6164 64H58.9764V54.242H62.4764C63.1391 54.242 63.7038 54.354 64.1704 54.578C64.6371 54.7927 64.9871 55.0867 65.2204 55.46C65.4538 55.8333 65.5704 56.2533 65.5704 56.72C65.5704 57.2987 65.4118 57.7793 65.0944 58.162C64.7864 58.5353 64.3758 58.806 63.8624 58.974ZM60.2504 58.456H62.3924C62.9898 58.456 63.4518 58.316 63.7784 58.036C64.1051 57.756 64.2684 57.3687 64.2684 56.874C64.2684 56.3793 64.1051 55.992 63.7784 55.712C63.4518 55.432 62.9804 55.292 62.3644 55.292H60.2504V58.456ZM62.5044 62.95C63.1391 62.95 63.6338 62.8007 63.9884 62.502C64.3431 62.2033 64.5204 61.788 64.5204 61.256C64.5204 60.7147 64.3338 60.29 63.9604 59.982C63.5871 59.6647 63.0878 59.506 62.4624 59.506H60.2504V62.95H62.5044ZM73.3304 61.83H69.0744L68.2904 64H66.9464L70.4744 54.298H71.9444L75.4584 64H74.1144L73.3304 61.83ZM72.9664 60.794L71.2024 55.866L69.4384 60.794H72.9664ZM82.316 58.33V59.408H76.73V58.33H82.316ZM85.3649 55.082C85.1222 55.082 84.9169 54.998 84.7489 54.83C84.5809 54.662 84.4969 54.4567 84.4969 54.214C84.4969 53.9713 84.5809 53.766 84.7489 53.598C84.9169 53.43 85.1222 53.346 85.3649 53.346C85.5982 53.346 85.7942 53.43 85.9529 53.598C86.1209 53.766 86.2049 53.9713 86.2049 54.214C86.2049 54.4567 86.1209 54.662 85.9529 54.83C85.7942 54.998 85.5982 55.082 85.3649 55.082ZM85.9809 56.328V64H84.7069V56.328H85.9809ZM91.8902 56.188C92.8236 56.188 93.5796 56.4727 94.1582 57.042C94.7369 57.602 95.0262 58.414 95.0262 59.478V64H93.7662V59.66C93.7662 58.8947 93.5749 58.3113 93.1922 57.91C92.8096 57.4993 92.2869 57.294 91.6242 57.294C90.9522 57.294 90.4156 57.504 90.0142 57.924C89.6222 58.344 89.4262 58.9553 89.4262 59.758V64H88.1522V56.328H89.4262V57.42C89.6782 57.028 90.0189 56.7247 90.4482 56.51C90.8869 56.2953 91.3676 56.188 91.8902 56.188ZM99.9633 62.824L102.343 56.328H103.701L100.691 64H99.2073L96.1973 56.328H97.5693L99.9633 62.824ZM111.955 59.87C111.955 60.1127 111.941 60.3693 111.913 60.64H105.781C105.828 61.396 106.084 61.9887 106.551 62.418C107.027 62.838 107.601 63.048 108.273 63.048C108.824 63.048 109.281 62.922 109.645 62.67C110.018 62.4087 110.28 62.0633 110.429 61.634H111.801C111.596 62.3713 111.185 62.9733 110.569 63.44C109.953 63.8973 109.188 64.126 108.273 64.126C107.545 64.126 106.892 63.9627 106.313 63.636C105.744 63.3093 105.296 62.8473 104.969 62.25C104.642 61.6433 104.479 60.9433 104.479 60.15C104.479 59.3567 104.638 58.6613 104.955 58.064C105.272 57.4667 105.716 57.0093 106.285 56.692C106.864 56.3653 107.526 56.202 108.273 56.202C109.001 56.202 109.645 56.3607 110.205 56.678C110.765 56.9953 111.194 57.434 111.493 57.994C111.801 58.5447 111.955 59.17 111.955 59.87ZM110.639 59.604C110.639 59.1187 110.532 58.7033 110.317 58.358C110.102 58.0033 109.808 57.7373 109.435 57.56C109.071 57.3733 108.665 57.28 108.217 57.28C107.573 57.28 107.022 57.4853 106.565 57.896C106.117 58.3067 105.86 58.876 105.795 59.604H110.639ZM114.911 57.574C115.135 57.1353 115.452 56.7947 115.863 56.552C116.283 56.3093 116.791 56.188 117.389 56.188V57.504H117.053C115.625 57.504 114.911 58.2787 114.911 59.828V64H113.637V56.328H114.911V57.574ZM120.413 57.378V61.9C120.413 62.2733 120.493 62.5393 120.651 62.698C120.81 62.8473 121.085 62.922 121.477 62.922H122.415V64H121.267C120.558 64 120.026 63.8367 119.671 63.51C119.317 63.1833 119.139 62.6467 119.139 61.9V57.378H118.145V56.328H119.139V54.396H120.413V56.328H122.415V57.378H120.413ZM130.959 59.87C130.959 60.1127 130.945 60.3693 130.917 60.64H124.785C124.832 61.396 125.088 61.9887 125.555 62.418C126.031 62.838 126.605 63.048 127.277 63.048C127.828 63.048 128.285 62.922 128.649 62.67C129.022 62.4087 129.284 62.0633 129.433 61.634H130.805C130.6 62.3713 130.189 62.9733 129.573 63.44C128.957 63.8973 128.192 64.126 127.277 64.126C126.549 64.126 125.896 63.9627 125.317 63.636C124.748 63.3093 124.3 62.8473 123.973 62.25C123.646 61.6433 123.483 60.9433 123.483 60.15C123.483 59.3567 123.642 58.6613 123.959 58.064C124.276 57.4667 124.72 57.0093 125.289 56.692C125.868 56.3653 126.53 56.202 127.277 56.202C128.005 56.202 128.649 56.3607 129.209 56.678C129.769 56.9953 130.198 57.434 130.497 57.994C130.805 58.5447 130.959 59.17 130.959 59.87ZM129.643 59.604C129.643 59.1187 129.536 58.7033 129.321 58.358C129.106 58.0033 128.812 57.7373 128.439 57.56C128.075 57.3733 127.669 57.28 127.221 57.28C126.577 57.28 126.026 57.4853 125.569 57.896C125.121 58.3067 124.864 58.876 124.799 59.604H129.643ZM132.165 60.136C132.165 59.352 132.323 58.666 132.641 58.078C132.958 57.4807 133.392 57.0187 133.943 56.692C134.503 56.3653 135.128 56.202 135.819 56.202C136.416 56.202 136.971 56.342 137.485 56.622C137.998 56.8927 138.39 57.252 138.661 57.7V53.64H139.949V64H138.661V62.558C138.409 63.0153 138.035 63.3933 137.541 63.692C137.046 63.9813 136.467 64.126 135.805 64.126C135.123 64.126 134.503 63.958 133.943 63.622C133.392 63.286 132.958 62.8147 132.641 62.208C132.323 61.6013 132.165 60.9107 132.165 60.136ZM138.661 60.15C138.661 59.5713 138.544 59.0673 138.311 58.638C138.077 58.2087 137.76 57.882 137.359 57.658C136.967 57.4247 136.533 57.308 136.057 57.308C135.581 57.308 135.147 57.42 134.755 57.644C134.363 57.868 134.05 58.1947 133.817 58.624C133.583 59.0533 133.467 59.5573 133.467 60.136C133.467 60.724 133.583 61.2373 133.817 61.676C134.05 62.1053 134.363 62.4367 134.755 62.67C135.147 62.894 135.581 63.006 136.057 63.006C136.533 63.006 136.967 62.894 137.359 62.67C137.76 62.4367 138.077 62.1053 138.311 61.676C138.544 61.2373 138.661 60.7287 138.661 60.15Z" fill="#1B1B1F"/>
<rect x="48" y="78" width="272" height="64" rx="8" fill="#00098A"/>
<g clip-path="url(#clip0_5042_1676)">
<path fill-rule="evenodd" clip-rule="evenodd" d="M161.733 94.1495H166.529C166.858 94.1459 167.128 94.3966 167.133 94.7104V124.534C167.13 124.683 167.064 124.824 166.95 124.927C166.837 125.029 166.685 125.084 166.529 125.079H162.437C162.088 125.07 161.775 124.87 161.632 124.566L161.129 123.3C159.191 124.915 156.708 125.809 154.136 125.816C148.082 125.816 143.152 120.88 143.152 114.806C143.152 108.733 148.082 103.797 154.136 103.797C156.711 103.807 159.194 104.706 161.129 106.329V94.6944C161.133 94.5453 161.199 94.4038 161.312 94.3014C161.426 94.199 161.577 94.1443 161.733 94.1495ZM149.172 114.822C149.172 117.867 151.855 120.335 155.159 120.335C158.463 120.335 161.146 117.867 161.146 114.822C161.146 111.778 158.463 109.31 155.159 109.31C151.855 109.31 149.172 111.778 149.172 114.822Z" fill="white"/>
<path fill-rule="evenodd" clip-rule="evenodd" d="M179.372 106.323C181.305 104.697 183.79 103.797 186.365 103.792C192.419 103.792 197.35 108.741 197.35 114.812C197.35 120.883 192.419 125.816 186.365 125.816C183.791 125.806 181.307 124.907 179.372 123.285L178.869 124.551C178.721 124.851 178.411 125.048 178.064 125.063H173.972C173.816 125.068 173.665 125.014 173.551 124.911C173.438 124.809 173.372 124.667 173.368 124.519V94.6941C173.372 94.5451 173.438 94.4037 173.551 94.3013C173.665 94.199 173.816 94.1443 173.972 94.1495H178.768C178.924 94.1443 179.076 94.199 179.189 94.3013C179.303 94.4037 179.369 94.5451 179.372 94.6941V106.323ZM179.372 114.796C179.372 117.839 182.055 120.306 185.359 120.306C188.663 120.306 191.346 117.839 191.346 114.796C191.346 111.753 188.663 109.286 185.359 109.286C182.055 109.286 179.372 111.753 179.372 114.796Z" fill="white"/>
<path fill-rule="evenodd" clip-rule="evenodd" d="M219.801 104.585H224.245C224.401 104.58 224.553 104.634 224.666 104.737C224.779 104.839 224.845 104.981 224.849 105.13V124.61C224.845 124.759 224.779 124.901 224.666 125.003C224.553 125.105 224.401 125.16 224.245 125.155H220.153C219.804 125.146 219.491 124.947 219.348 124.642L218.845 123.375C216.907 124.991 214.424 125.885 211.852 125.892C205.798 125.892 200.867 120.954 200.867 114.878C200.867 108.801 205.798 103.863 211.852 103.863C214.425 103.865 216.91 104.759 218.845 106.381L219.096 105.114C219.18 104.806 219.468 104.59 219.801 104.585ZM212.875 120.377C216.162 120.377 218.845 117.924 218.862 114.894V114.83C218.845 111.8 216.178 109.347 212.875 109.347C209.571 109.347 206.888 111.816 206.888 114.862C206.888 117.908 209.588 120.377 212.875 120.377Z" fill="white"/>
</g>
<path d="M344 24H656C660.418 24 664 27.5817 664 32V158C664 162.418 660.418 166 656 166H344V24Z" fill="#1B1B1F"/>
<path d="M372.116 54.242C373.18 54.242 374.099 54.4427 374.874 54.844C375.658 55.236 376.255 55.8007 376.666 56.538C377.086 57.2753 377.296 58.1433 377.296 59.142C377.296 60.1407 377.086 61.0087 376.666 61.746C376.255 62.474 375.658 63.034 374.874 63.426C374.099 63.8087 373.18 64 372.116 64H369.078V54.242H372.116ZM372.116 62.95C373.376 62.95 374.337 62.6187 375 61.956C375.663 61.284 375.994 60.346 375.994 59.142C375.994 57.9287 375.658 56.9813 374.986 56.3C374.323 55.6187 373.367 55.278 372.116 55.278H370.352V62.95H372.116ZM383.862 58.974C384.217 59.03 384.539 59.1747 384.828 59.408C385.127 59.6413 385.36 59.9307 385.528 60.276C385.706 60.6213 385.794 60.99 385.794 61.382C385.794 61.8767 385.668 62.3247 385.416 62.726C385.164 63.118 384.796 63.4307 384.31 63.664C383.834 63.888 383.27 64 382.616 64H378.976V54.242H382.476C383.139 54.242 383.704 54.354 384.17 54.578C384.637 54.7927 384.987 55.0867 385.22 55.46C385.454 55.8333 385.57 56.2533 385.57 56.72C385.57 57.2987 385.412 57.7793 385.094 58.162C384.786 58.5353 384.376 58.806 383.862 58.974ZM380.25 58.456H382.392C382.99 58.456 383.452 58.316 383.778 58.036C384.105 57.756 384.268 57.3687 384.268 56.874C384.268 56.3793 384.105 55.992 383.778 55.712C383.452 55.432 382.98 55.292 382.364 55.292H380.25V58.456ZM382.504 62.95C383.139 62.95 383.634 62.8007 383.988 62.502C384.343 62.2033 384.52 61.788 384.52 61.256C384.52 60.7147 384.334 60.29 383.96 59.982C383.587 59.6647 383.088 59.506 382.462 59.506H380.25V62.95H382.504ZM393.33 61.83H389.074L388.29 64H386.946L390.474 54.298H391.944L395.458 64H394.114L393.33 61.83ZM392.966 60.794L391.202 55.866L389.438 60.794H392.966ZM402.316 58.33V59.408H396.73V58.33H402.316ZM405.365 55.082C405.122 55.082 404.917 54.998 404.749 54.83C404.581 54.662 404.497 54.4567 404.497 54.214C404.497 53.9713 404.581 53.766 404.749 53.598C404.917 53.43 405.122 53.346 405.365 53.346C405.598 53.346 405.794 53.43 405.953 53.598C406.121 53.766 406.205 53.9713 406.205 54.214C406.205 54.4567 406.121 54.662 405.953 54.83C405.794 54.998 405.598 55.082 405.365 55.082ZM405.981 56.328V64H404.707V56.328H405.981ZM411.89 56.188C412.824 56.188 413.58 56.4727 414.158 57.042C414.737 57.602 415.026 58.414 415.026 59.478V64H413.766V59.66C413.766 58.8947 413.575 58.3113 413.192 57.91C412.81 57.4993 412.287 57.294 411.624 57.294C410.952 57.294 410.416 57.504 410.014 57.924C409.622 58.344 409.426 58.9553 409.426 59.758V64H408.152V56.328H409.426V57.42C409.678 57.028 410.019 56.7247 410.448 56.51C410.887 56.2953 411.368 56.188 411.89 56.188ZM419.963 62.824L422.343 56.328H423.701L420.691 64H419.207L416.197 56.328H417.569L419.963 62.824ZM431.955 59.87C431.955 60.1127 431.941 60.3693 431.913 60.64H425.781C425.828 61.396 426.084 61.9887 426.551 62.418C427.027 62.838 427.601 63.048 428.273 63.048C428.824 63.048 429.281 62.922 429.645 62.67C430.018 62.4087 430.28 62.0633 430.429 61.634H431.801C431.596 62.3713 431.185 62.9733 430.569 63.44C429.953 63.8973 429.188 64.126 428.273 64.126C427.545 64.126 426.892 63.9627 426.313 63.636C425.744 63.3093 425.296 62.8473 424.969 62.25C424.642 61.6433 424.479 60.9433 424.479 60.15C424.479 59.3567 424.638 58.6613 424.955 58.064C425.272 57.4667 425.716 57.0093 426.285 56.692C426.864 56.3653 427.526 56.202 428.273 56.202C429.001 56.202 429.645 56.3607 430.205 56.678C430.765 56.9953 431.194 57.434 431.493 57.994C431.801 58.5447 431.955 59.17 431.955 59.87ZM430.639 59.604C430.639 59.1187 430.532 58.7033 430.317 58.358C430.102 58.0033 429.808 57.7373 429.435 57.56C429.071 57.3733 428.665 57.28 428.217 57.28C427.573 57.28 427.022 57.4853 426.565 57.896C426.117 58.3067 425.86 58.876 425.795 59.604H430.639ZM434.911 57.574C435.135 57.1353 435.452 56.7947 435.863 56.552C436.283 56.3093 436.791 56.188 437.389 56.188V57.504H437.053C435.625 57.504 434.911 58.2787 434.911 59.828V64H433.637V56.328H434.911V57.574ZM440.413 57.378V61.9C440.413 62.2733 440.493 62.5393 440.651 62.698C440.81 62.8473 441.085 62.922 441.477 62.922H442.415V64H441.267C440.558 64 440.026 63.8367 439.671 63.51C439.317 63.1833 439.139 62.6467 439.139 61.9V57.378H438.145V56.328H439.139V54.396H440.413V56.328H442.415V57.378H440.413ZM450.959 59.87C450.959 60.1127 450.945 60.3693 450.917 60.64H444.785C444.832 61.396 445.088 61.9887 445.555 62.418C446.031 62.838 446.605 63.048 447.277 63.048C447.828 63.048 448.285 62.922 448.649 62.67C449.022 62.4087 449.284 62.0633 449.433 61.634H450.805C450.6 62.3713 450.189 62.9733 449.573 63.44C448.957 63.8973 448.192 64.126 447.277 64.126C446.549 64.126 445.896 63.9627 445.317 63.636C444.748 63.3093 444.3 62.8473 443.973 62.25C443.646 61.6433 443.483 60.9433 443.483 60.15C443.483 59.3567 443.642 58.6613 443.959 58.064C444.276 57.4667 444.72 57.0093 445.289 56.692C445.868 56.3653 446.53 56.202 447.277 56.202C448.005 56.202 448.649 56.3607 449.209 56.678C449.769 56.9953 450.198 57.434 450.497 57.994C450.805 58.5447 450.959 59.17 450.959 59.87ZM449.643 59.604C449.643 59.1187 449.536 58.7033 449.321 58.358C449.106 58.0033 448.812 57.7373 448.439 57.56C448.075 57.3733 447.669 57.28 447.221 57.28C446.577 57.28 446.026 57.4853 445.569 57.896C445.121 58.3067 444.864 58.876 444.799 59.604H449.643ZM452.165 60.136C452.165 59.352 452.323 58.666 452.641 58.078C452.958 57.4807 453.392 57.0187 453.943 56.692C454.503 56.3653 455.128 56.202 455.819 56.202C456.416 56.202 456.971 56.342 457.485 56.622C457.998 56.8927 458.39 57.252 458.661 57.7V53.64H459.949V64H458.661V62.558C458.409 63.0153 458.035 63.3933 457.541 63.692C457.046 63.9813 456.467 64.126 455.805 64.126C455.123 64.126 454.503 63.958 453.943 63.622C453.392 63.286 452.958 62.8147 452.641 62.208C452.323 61.6013 452.165 60.9107 452.165 60.136ZM458.661 60.15C458.661 59.5713 458.544 59.0673 458.311 58.638C458.077 58.2087 457.76 57.882 457.359 57.658C456.967 57.4247 456.533 57.308 456.057 57.308C455.581 57.308 455.147 57.42 454.755 57.644C454.363 57.868 454.05 58.1947 453.817 58.624C453.583 59.0533 453.467 59.5573 453.467 60.136C453.467 60.724 453.583 61.2373 453.817 61.676C454.05 62.1053 454.363 62.4367 454.755 62.67C455.147 62.894 455.581 63.006 456.057 63.006C456.533 63.006 456.967 62.894 457.359 62.67C457.76 62.4367 458.077 62.1053 458.311 61.676C458.544 61.2373 458.661 60.7287 458.661 60.15Z" fill="white"/>
<rect x="368" y="78" width="272" height="64" rx="8" fill="#5057B2"/>
<g clip-path="url(#clip1_5042_1676)">
<path fill-rule="evenodd" clip-rule="evenodd" d="M481.733 94.1495H486.529C486.858 94.1459 487.128 94.3966 487.133 94.7104V124.534C487.13 124.683 487.064 124.824 486.95 124.927C486.837 125.029 486.685 125.084 486.529 125.079H482.437C482.088 125.07 481.775 124.87 481.632 124.566L481.129 123.3C479.191 124.915 476.708 125.809 474.136 125.816C468.082 125.816 463.152 120.88 463.152 114.806C463.152 108.733 468.082 103.797 474.136 103.797C476.711 103.807 479.194 104.706 481.129 106.329V94.6944C481.133 94.5453 481.199 94.4038 481.312 94.3014C481.426 94.199 481.577 94.1443 481.733 94.1495ZM469.172 114.822C469.172 117.867 471.855 120.335 475.159 120.335C478.463 120.335 481.146 117.867 481.146 114.822C481.146 111.778 478.463 109.31 475.159 109.31C471.855 109.31 469.172 111.778 469.172 114.822Z" fill="white"/>
<path fill-rule="evenodd" clip-rule="evenodd" d="M499.372 106.323C501.305 104.697 503.79 103.797 506.365 103.792C512.419 103.792 517.35 108.741 517.35 114.812C517.35 120.883 512.419 125.816 506.365 125.816C503.791 125.806 501.307 124.907 499.372 123.285L498.869 124.551C498.721 124.851 498.411 125.048 498.064 125.063H493.972C493.816 125.068 493.665 125.014 493.551 124.911C493.438 124.809 493.372 124.667 493.368 124.519V94.6941C493.372 94.5451 493.438 94.4037 493.551 94.3013C493.665 94.199 493.816 94.1443 493.972 94.1495H498.768C498.924 94.1443 499.076 94.199 499.189 94.3013C499.303 94.4037 499.369 94.5451 499.372 94.6941V106.323ZM499.372 114.796C499.372 117.839 502.055 120.306 505.359 120.306C508.663 120.306 511.346 117.839 511.346 114.796C511.346 111.753 508.663 109.286 505.359 109.286C502.055 109.286 499.372 111.753 499.372 114.796Z" fill="white"/>
<path fill-rule="evenodd" clip-rule="evenodd" d="M539.801 104.585H544.245C544.401 104.58 544.553 104.634 544.666 104.737C544.779 104.839 544.845 104.981 544.849 105.13V124.61C544.845 124.759 544.779 124.901 544.666 125.003C544.553 125.105 544.401 125.16 544.245 125.155H540.153C539.804 125.146 539.491 124.947 539.348 124.642L538.845 123.375C536.907 124.991 534.424 125.885 531.852 125.892C525.798 125.892 520.867 120.954 520.867 114.878C520.867 108.801 525.798 103.863 531.852 103.863C534.425 103.865 536.91 104.759 538.845 106.381L539.096 105.114C539.18 104.806 539.468 104.59 539.801 104.585ZM532.875 120.377C536.162 120.377 538.845 117.924 538.862 114.894V114.83C538.845 111.8 536.178 109.347 532.875 109.347C529.571 109.347 526.888 111.816 526.888 114.862C526.888 117.908 529.588 120.377 532.875 120.377Z" fill="white"/>
</g>
<defs>
<clipPath id="clip0_5042_1676">
<rect width="81.697" height="32" fill="white" transform="translate(143.152 94)"/>
</clipPath>
<clipPath id="clip1_5042_1676">
<rect width="81.697" height="32" fill="white" transform="translate(463.152 94)"/>
</clipPath>
</defs>
</svg>
