<svg width="688" height="354" viewBox="0 0 688 354" fill="none" xmlns="http://www.w3.org/2000/svg">
<rect width="688" height="354" fill="#F6F6F7"/>
<path d="M24 32C24 27.5817 27.5817 24 32 24H344V330H32C27.5817 330 24 326.418 24 322V32Z" fill="white"/>
<path d="M54.594 54.242V55.278H50.352V58.568H53.796V59.604H50.352V64H49.078V54.242H54.594ZM57.4067 54.242V64H56.1327V54.242H57.4067ZM67.25 64H65.976L60.852 56.23V64H59.578V54.228H60.852L65.976 61.984V54.228H67.25V64ZM77.0938 64H75.8198L70.6958 56.23V64H69.4218V54.228H70.6958L75.8198 61.984V54.228H77.0938V64Z" fill="#1B1B1F"/>
<path fill-rule="evenodd" clip-rule="evenodd" d="M50.0921 114.983V89.0167C50.0921 88.5046 50.5097 88.0878 51.0229 88.0878H59.2519C69.5752 88.0878 77.9737 96.4691 77.9737 106.771V115.912H51.0229C50.5097 115.912 50.0921 115.496 50.0921 114.983ZM137.908 114.983C137.908 115.496 137.49 115.912 136.977 115.912H80.0658V89.0167C80.0658 88.5046 80.4834 88.0878 80.9966 88.0878H136.977C137.49 88.0878 137.908 88.5046 137.908 89.0167V114.983ZM136.977 86H80.9966C79.3297 86 77.9737 87.3533 77.9737 89.0167V97.7009C74.5933 90.7802 67.4719 86 59.2519 86H51.0229C49.356 86 48 87.3533 48 89.0167V114.983C48 116.647 49.356 118 51.0229 118H136.977C138.644 118 140 116.647 140 114.983V89.0167C140 87.3533 138.644 86 136.977 86Z" fill="white"/>
<path fill-rule="evenodd" clip-rule="evenodd" d="M59.2521 88.0878H51.0229C50.5097 88.0878 50.0923 88.5045 50.0923 89.0166V114.983C50.0923 115.496 50.5097 115.912 51.0229 115.912H77.9738V106.771C77.9738 96.469 69.5753 88.0878 59.2521 88.0878Z" fill="#0063FB"/>
<path fill-rule="evenodd" clip-rule="evenodd" d="M136.977 88.0878H80.9966C80.4834 88.0878 80.0658 88.5045 80.0658 89.0166V115.912H136.977C137.49 115.912 137.908 115.496 137.908 114.983V89.0166C137.908 88.5045 137.49 88.0878 136.977 88.0878Z" fill="#06BEFB"/>
<path d="M103.033 96.575C103.361 96.575 103.626 96.8399 103.626 97.1667V106.834C103.626 107.16 103.361 107.426 103.033 107.426H100.922C100.595 107.425 100.329 107.16 100.329 106.834V97.1667C100.329 96.84 100.595 96.575 100.922 96.575H103.033ZM97.045 96.575C97.3726 96.575 97.6388 96.8399 97.6388 97.1667V99.0232C97.6387 99.35 97.3725 99.615 97.045 99.615H92.212V102.064H96.0607C96.3881 102.064 96.6534 102.329 96.6534 102.656V104.236C96.6534 104.563 96.388 104.828 96.0607 104.828H92.212V106.834C92.2118 107.16 91.9457 107.425 91.6183 107.425H89.507C89.1797 107.424 88.9144 107.16 88.9142 106.834V97.1667C88.9142 96.84 89.1796 96.5751 89.507 96.575H97.045ZM109.085 96.575C109.35 96.5751 109.598 96.7079 109.744 96.9285L113.045 101.907V97.1667C113.045 96.8399 113.311 96.575 113.639 96.575H115.75C116.078 96.575 116.343 96.8399 116.343 97.1667V106.834C116.343 107.16 116.078 107.425 115.75 107.425H114.058C113.791 107.425 113.543 107.291 113.397 107.068L110.167 102.148V106.834C110.167 107.16 109.902 107.425 109.574 107.425H107.463C107.136 107.425 106.869 107.16 106.869 106.834V97.1667C106.869 96.8399 107.135 96.575 107.463 96.575H109.085ZM121.801 96.575C122.066 96.575 122.315 96.7077 122.461 96.9285L125.762 101.907V97.1667C125.762 96.8401 126.027 96.5752 126.355 96.575H128.467C128.794 96.5751 129.06 96.84 129.06 97.1667V106.834C129.059 107.16 128.794 107.424 128.467 107.425H126.775C126.508 107.425 126.26 107.291 126.113 107.068L122.884 102.148V106.834C122.884 107.16 122.618 107.424 122.291 107.425H120.179C119.852 107.424 119.586 107.16 119.586 106.834V97.1667C119.586 96.84 119.852 96.5752 120.179 96.575H121.801Z" fill="white"/>
<path d="M56.904 159.848L54.958 157.902C54.482 158.033 53.9967 158.098 53.502 158.098C52.5967 158.098 51.7707 157.888 51.024 157.468C50.2773 157.039 49.6847 156.446 49.246 155.69C48.8167 154.925 48.602 154.066 48.602 153.114C48.602 152.162 48.8167 151.308 49.246 150.552C49.6847 149.787 50.2773 149.194 51.024 148.774C51.7707 148.345 52.5967 148.13 53.502 148.13C54.4167 148.13 55.2473 148.345 55.994 148.774C56.7407 149.194 57.3287 149.782 57.758 150.538C58.1873 151.294 58.402 152.153 58.402 153.114C58.402 154.047 58.1967 154.887 57.786 155.634C57.3753 156.381 56.8107 156.969 56.092 157.398L58.556 159.848H56.904ZM49.904 153.114C49.904 153.889 50.058 154.57 50.366 155.158C50.6833 155.746 51.1127 156.199 51.654 156.516C52.2047 156.833 52.8207 156.992 53.502 156.992C54.1833 156.992 54.7947 156.833 55.336 156.516C55.8867 156.199 56.316 155.746 56.624 155.158C56.9413 154.57 57.1 153.889 57.1 153.114C57.1 152.33 56.9413 151.649 56.624 151.07C56.316 150.482 55.8913 150.029 55.35 149.712C54.8087 149.395 54.1927 149.236 53.502 149.236C52.8113 149.236 52.1953 149.395 51.654 149.712C51.1127 150.029 50.6833 150.482 50.366 151.07C50.058 151.649 49.904 152.33 49.904 153.114ZM59.6352 154.136C59.6352 153.352 59.7939 152.666 60.1112 152.078C60.4285 151.481 60.8625 151.019 61.4132 150.692C61.9732 150.365 62.5939 150.202 63.2752 150.202C63.9472 150.202 64.5305 150.347 65.0252 150.636C65.5199 150.925 65.8885 151.289 66.1312 151.728V150.328H67.4192V158H66.1312V156.572C65.8792 157.02 65.5012 157.393 64.9972 157.692C64.5025 157.981 63.9239 158.126 63.2612 158.126C62.5799 158.126 61.9639 157.958 61.4132 157.622C60.8625 157.286 60.4285 156.815 60.1112 156.208C59.7939 155.601 59.6352 154.911 59.6352 154.136ZM66.1312 154.15C66.1312 153.571 66.0145 153.067 65.7812 152.638C65.5479 152.209 65.2305 151.882 64.8292 151.658C64.4372 151.425 64.0032 151.308 63.5272 151.308C63.0512 151.308 62.6172 151.42 62.2252 151.644C61.8332 151.868 61.5205 152.195 61.2872 152.624C61.0539 153.053 60.9372 153.557 60.9372 154.136C60.9372 154.724 61.0539 155.237 61.2872 155.676C61.5205 156.105 61.8332 156.437 62.2252 156.67C62.6172 156.894 63.0512 157.006 63.5272 157.006C64.0032 157.006 64.4372 156.894 64.8292 156.67C65.2305 156.437 65.5479 156.105 65.7812 155.676C66.0145 155.237 66.1312 154.729 66.1312 154.15ZM72.2881 158.126C71.7001 158.126 71.1728 158.028 70.7061 157.832C70.2395 157.627 69.8708 157.347 69.6001 156.992C69.3295 156.628 69.1801 156.213 69.1521 155.746H70.4681C70.5055 156.129 70.6828 156.441 71.0001 156.684C71.3268 156.927 71.7515 157.048 72.2741 157.048C72.7595 157.048 73.1421 156.941 73.4221 156.726C73.7021 156.511 73.8421 156.241 73.8421 155.914C73.8421 155.578 73.6928 155.331 73.3941 155.172C73.0955 155.004 72.6335 154.841 72.0081 154.682C71.4388 154.533 70.9721 154.383 70.6081 154.234C70.2535 154.075 69.9455 153.847 69.6841 153.548C69.4321 153.24 69.3061 152.839 69.3061 152.344C69.3061 151.952 69.4228 151.593 69.6561 151.266C69.8895 150.939 70.2208 150.683 70.6501 150.496C71.0795 150.3 71.5695 150.202 72.1201 150.202C72.9695 150.202 73.6555 150.417 74.1781 150.846C74.7008 151.275 74.9808 151.863 75.0181 152.61H73.7441C73.7161 152.209 73.5528 151.887 73.2541 151.644C72.9648 151.401 72.5728 151.28 72.0781 151.28C71.6208 151.28 71.2568 151.378 70.9861 151.574C70.7155 151.77 70.5801 152.027 70.5801 152.344C70.5801 152.596 70.6595 152.806 70.8181 152.974C70.9861 153.133 71.1915 153.263 71.4341 153.366C71.6861 153.459 72.0315 153.567 72.4701 153.688C73.0208 153.837 73.4688 153.987 73.8141 154.136C74.1595 154.276 74.4535 154.491 74.6961 154.78C74.9481 155.069 75.0788 155.447 75.0881 155.914C75.0881 156.334 74.9715 156.712 74.7381 157.048C74.5048 157.384 74.1735 157.65 73.7441 157.846C73.3241 158.033 72.8388 158.126 72.2881 158.126ZM76.4106 154.136C76.4106 153.352 76.5693 152.666 76.8866 152.078C77.2039 151.481 77.6379 151.019 78.1886 150.692C78.7486 150.365 79.3693 150.202 80.0506 150.202C80.7226 150.202 81.3059 150.347 81.8006 150.636C82.2953 150.925 82.6639 151.289 82.9066 151.728V150.328H84.1946V158H82.9066V156.572C82.6546 157.02 82.2766 157.393 81.7726 157.692C81.2779 157.981 80.6993 158.126 80.0366 158.126C79.3553 158.126 78.7393 157.958 78.1886 157.622C77.6379 157.286 77.2039 156.815 76.8866 156.208C76.5693 155.601 76.4106 154.911 76.4106 154.136ZM82.9066 154.15C82.9066 153.571 82.7899 153.067 82.5566 152.638C82.3233 152.209 82.0059 151.882 81.6046 151.658C81.2126 151.425 80.7786 151.308 80.3026 151.308C79.8266 151.308 79.3926 151.42 79.0006 151.644C78.6086 151.868 78.2959 152.195 78.0626 152.624C77.8293 153.053 77.7126 153.557 77.7126 154.136C77.7126 154.724 77.8293 155.237 78.0626 155.676C78.2959 156.105 78.6086 156.437 79.0006 156.67C79.3926 156.894 79.8266 157.006 80.3026 157.006C80.7786 157.006 81.2126 156.894 81.6046 156.67C82.0059 156.437 82.3233 156.105 82.5566 155.676C82.7899 155.237 82.9066 154.729 82.9066 154.15Z" fill="#1B1B1F"/>
<path d="M118.949 184.376V184.375C118.95 185.221 118.594 186.822 118.37 188.004C118.178 189.016 117.915 190.384 116.235 190.384C112.778 190.384 113.253 185.857 110.442 185.857C109.281 185.857 108.594 186.751 108.594 187.863C108.594 188.697 109.09 189.476 109.85 190.053L112.647 192.217C114.982 193.874 115.931 196.077 115.931 197.78C115.931 200.985 113.216 203.376 109.942 203.376H102.999C100.379 203.376 99.0581 202.558 98.3 200.635C98.1008 200.057 97.0265 197.231 97.0265 196.238C97.0265 194.738 98.0337 193.58 99.5702 193.58C102.527 193.58 103.819 198.105 106.251 198.105C107.206 198.105 107.916 197.254 107.916 196.373C107.916 195.716 107.503 195.007 106.742 194.43L104.311 192.458C102.278 190.871 101.12 189.045 101.12 187.098C101.12 183.53 103.86 180.295 108.107 180.295H115.087C117.331 180.295 118.949 182.342 118.949 184.376ZM94.7314 195.102C94.7314 196.651 95.439 198.418 95.439 200.005C95.439 201.737 94.0985 203.376 92.1251 203.376C89.6534 203.376 89.6588 200.96 88.298 200.96C86.9373 200.96 86.8396 203.669 82.536 203.669C78.2325 203.669 73.4782 198.966 73.4782 192.617C73.4782 186.268 77.5479 180.587 83.8627 180.587C87.473 180.587 88.7888 182.85 90.0321 182.85C91.6509 182.85 91.6723 180 94.5975 180C96.4304 180 97.8751 181.565 97.8751 183.418C97.8751 186.374 94.7314 190.821 94.7314 195.102ZM88.7789 192.129C88.7789 189.673 86.8429 187.683 84.4545 187.683C82.0662 187.683 80.1301 189.673 80.1301 192.129C80.1301 194.585 82.0662 196.576 84.4545 196.576C86.8429 196.576 88.7789 194.585 88.7789 192.129ZM140.856 195.103C140.856 196.651 141.564 198.419 141.564 200.006C141.564 201.738 140.223 203.376 138.25 203.376C135.779 203.376 135.784 200.961 134.423 200.961C133.062 200.961 132.965 203.67 128.661 203.67C124.357 203.67 119.603 198.966 119.603 192.617C119.603 186.269 123.673 180.587 129.988 180.587C133.598 180.587 134.914 182.85 136.157 182.85C137.776 182.85 137.797 180 140.722 180C142.555 180 144 181.565 144 183.418C144 186.374 140.856 190.821 140.856 195.101V195.103ZM134.904 192.13C134.904 189.674 132.968 187.683 130.579 187.683C128.191 187.683 126.255 189.674 126.255 192.13C126.255 194.586 128.191 196.576 130.579 196.576C132.968 196.576 134.904 194.586 134.904 192.13ZM72.9288 183.464C72.9288 184.973 72.028 187.277 70.8374 192.168C69.6468 197.059 68.959 199.693 68.959 202.116C68.959 204.538 70.0557 206.051 70.0557 208.162C70.0557 210.272 68.3831 212 66.7424 212H63.8672C62.0063 212 60.6016 209.948 60.6016 208.162C60.6016 205.076 63.8358 204.147 63.8358 202.195C63.8358 201.377 63.2782 200.667 62.4701 200.667C60.9354 200.667 60.5852 202.789 57.1159 202.789C52.7959 202.789 48 198.512 48 192.025C48 185.539 53.0984 180.588 58.4778 180.588C62.3631 180.588 63.3325 182.851 64.9046 182.851C66.5789 182.851 66.794 180.001 69.56 180.001C71.2573 180.001 72.9288 181.407 72.9288 183.464ZM63.8414 192.129C63.8414 189.673 61.9053 187.683 59.517 187.683C57.1286 187.683 55.1925 189.673 55.1925 192.129C55.1925 194.585 57.1286 196.576 59.517 196.576C61.9053 196.576 63.8414 194.585 63.8414 192.129Z" fill="#342620"/>
<path d="M57.142 242.242L53.46 252H51.99L48.308 242.242H49.666L52.732 250.656L55.798 242.242H57.142ZM65.5389 247.87C65.5389 248.113 65.5249 248.369 65.4969 248.64H59.3649C59.4116 249.396 59.6683 249.989 60.1349 250.418C60.6109 250.838 61.1849 251.048 61.8569 251.048C62.4076 251.048 62.8649 250.922 63.2289 250.67C63.6023 250.409 63.8636 250.063 64.0129 249.634H65.3849C65.1796 250.371 64.7689 250.973 64.1529 251.44C63.5369 251.897 62.7716 252.126 61.8569 252.126C61.1289 252.126 60.4756 251.963 59.8969 251.636C59.3276 251.309 58.8796 250.847 58.5529 250.25C58.2263 249.643 58.0629 248.943 58.0629 248.15C58.0629 247.357 58.2216 246.661 58.5389 246.064C58.8563 245.467 59.2996 245.009 59.8689 244.692C60.4476 244.365 61.1103 244.202 61.8569 244.202C62.5849 244.202 63.2289 244.361 63.7889 244.678C64.3489 244.995 64.7783 245.434 65.0769 245.994C65.3849 246.545 65.5389 247.17 65.5389 247.87ZM64.2229 247.604C64.2229 247.119 64.1156 246.703 63.9009 246.358C63.6863 246.003 63.3923 245.737 63.0189 245.56C62.6549 245.373 62.2489 245.28 61.8009 245.28C61.1569 245.28 60.6063 245.485 60.1489 245.896C59.7009 246.307 59.4443 246.876 59.3789 247.604H64.2229ZM70.9586 244.188C71.8919 244.188 72.6479 244.473 73.2266 245.042C73.8052 245.602 74.0946 246.414 74.0946 247.478V252H72.8346V247.66C72.8346 246.895 72.6432 246.311 72.2606 245.91C71.8779 245.499 71.3552 245.294 70.6926 245.294C70.0206 245.294 69.4839 245.504 69.0826 245.924C68.6906 246.344 68.4946 246.955 68.4946 247.758V252H67.2206V244.328H68.4946V245.42C68.7466 245.028 69.0872 244.725 69.5166 244.51C69.9552 244.295 70.4359 244.188 70.9586 244.188ZM75.6997 248.136C75.6997 247.352 75.8583 246.666 76.1757 246.078C76.493 245.481 76.927 245.019 77.4777 244.692C78.0377 244.365 78.663 244.202 79.3537 244.202C79.951 244.202 80.5063 244.342 81.0197 244.622C81.533 244.893 81.925 245.252 82.1957 245.7V241.64H83.4837V252H82.1957V250.558C81.9437 251.015 81.5703 251.393 81.0757 251.692C80.581 251.981 80.0023 252.126 79.3397 252.126C78.6583 252.126 78.0377 251.958 77.4777 251.622C76.927 251.286 76.493 250.815 76.1757 250.208C75.8583 249.601 75.6997 248.911 75.6997 248.136ZM82.1957 248.15C82.1957 247.571 82.079 247.067 81.8457 246.638C81.6123 246.209 81.295 245.882 80.8937 245.658C80.5017 245.425 80.0677 245.308 79.5917 245.308C79.1157 245.308 78.6817 245.42 78.2897 245.644C77.8977 245.868 77.585 246.195 77.3517 246.624C77.1183 247.053 77.0017 247.557 77.0017 248.136C77.0017 248.724 77.1183 249.237 77.3517 249.676C77.585 250.105 77.8977 250.437 78.2897 250.67C78.6817 250.894 79.1157 251.006 79.5917 251.006C80.0677 251.006 80.5017 250.894 80.8937 250.67C81.295 250.437 81.6123 250.105 81.8457 249.676C82.079 249.237 82.1957 248.729 82.1957 248.15Z" fill="#1B1B1F"/>
<path d="M152.137 280.784H152.093C145.263 280.784 141.635 285.007 141.635 291.834L141.591 305.359H147.654V286.545H156.49V305.359H162.512V291.834C162.512 284.965 159.011 280.784 152.137 280.784Z" fill="#7A2822"/>
<path d="M128.741 280.784C122.123 280.784 117.854 285.478 117.854 293.114C117.854 300.879 121.995 305.957 128.826 305.957C132.668 305.957 137.364 304.633 138.731 298.66L133.308 297.167C132.71 300.069 131.087 301.049 128.782 301.049C125.608 301.049 124.242 299.104 123.969 294.693H138.944V292.729C138.944 284.624 134.589 280.784 128.741 280.784ZM132.579 290.683H124.032C124.46 286.928 126.082 285.648 128.484 285.648C131.303 285.648 132.583 287.525 132.583 290.214C132.583 290.372 132.581 290.528 132.579 290.683Z" fill="#7A2822"/>
<path d="M181.98 274V285.385C180.947 282.45 178.448 280.784 175.319 280.784C169.854 280.784 165.5 284.922 165.5 293.37C165.5 301.819 169.854 306 175.319 306C178.448 306 180.947 304.308 181.98 301.361V305.359H188V274H181.98ZM176.985 300.793C173.399 300.793 171.561 297.978 171.561 293.37C171.561 288.763 173.399 285.947 176.985 285.947C180.443 285.947 181.98 289.019 181.98 293.37C181.98 297.721 180.443 300.793 176.985 300.793Z" fill="#7A2822"/>
<path d="M112.9 275.494L106.172 299.385L99.3239 275.494H92.8342L102.014 305.359H110.339L119.39 275.494H112.9Z" fill="#7A2822"/>
<path d="M59.9595 305.373H65.9385L65.939 293.415H59.9595V305.373Z" fill="#7A2822"/>
<path d="M71.9185 275.494H53.9795C50.6774 275.494 48 278.169 48 281.468V305.373H53.9785V305.362H53.9795V294.908C53.9795 294.603 53.9953 294.301 54.0254 294.003C54.4862 289.514 58.3055 285.953 62.9495 285.953C67.5935 285.953 71.4128 289.515 71.8731 294.004C71.9027 294.301 71.919 294.603 71.919 294.909V305.363H71.92V305.374H77.8985V281.468C77.8985 278.169 75.2206 275.494 71.9185 275.494Z" fill="#7A2822"/>
<path d="M344 24H656C660.418 24 664 27.5817 664 32V322C664 326.418 660.418 330 656 330H344V24Z" fill="#1B1B1F"/>
<path d="M374.594 54.242V55.278H370.352V58.568H373.796V59.604H370.352V64H369.078V54.242H374.594ZM377.407 54.242V64H376.133V54.242H377.407ZM387.25 64H385.976L380.852 56.23V64H379.578V54.228H380.852L385.976 61.984V54.228H387.25V64ZM397.094 64H395.82L390.696 56.23V64H389.422V54.228H390.696L395.82 61.984V54.228H397.094V64Z" fill="white"/>
<path fill-rule="evenodd" clip-rule="evenodd" d="M370.092 114.983V89.0167C370.092 88.5046 370.51 88.0878 371.023 88.0878H379.252C389.575 88.0878 397.974 96.4691 397.974 106.771V115.912H371.023C370.51 115.912 370.092 115.496 370.092 114.983ZM457.908 114.983C457.908 115.496 457.49 115.912 456.977 115.912H400.066V89.0167C400.066 88.5046 400.483 88.0878 400.997 88.0878H456.977C457.49 88.0878 457.908 88.5046 457.908 89.0167V114.983ZM456.977 86H400.997C399.33 86 397.974 87.3533 397.974 89.0167V97.7009C394.593 90.7802 387.472 86 379.252 86H371.023C369.356 86 368 87.3533 368 89.0167V114.983C368 116.647 369.356 118 371.023 118H456.977C458.644 118 460 116.647 460 114.983V89.0167C460 87.3533 458.644 86 456.977 86Z" fill="white"/>
<path fill-rule="evenodd" clip-rule="evenodd" d="M379.252 88.0878H371.023C370.51 88.0878 370.092 88.5045 370.092 89.0166V114.983C370.092 115.496 370.51 115.912 371.023 115.912H397.974V106.771C397.974 96.469 389.575 88.0878 379.252 88.0878Z" fill="#0063FB"/>
<path fill-rule="evenodd" clip-rule="evenodd" d="M456.977 88.0878H400.996C400.483 88.0878 400.066 88.5045 400.066 89.0166V115.912H456.977C457.49 115.912 457.908 115.496 457.908 114.983V89.0166C457.908 88.5045 457.49 88.0878 456.977 88.0878Z" fill="#06BEFB"/>
<path d="M423.033 96.575C423.361 96.575 423.626 96.8399 423.626 97.1667V106.834C423.626 107.16 423.361 107.426 423.033 107.426H420.922C420.595 107.425 420.329 107.16 420.329 106.834V97.1667C420.329 96.84 420.594 96.575 420.922 96.575H423.033ZM417.045 96.575C417.372 96.575 417.639 96.8399 417.639 97.1667V99.0232C417.639 99.35 417.372 99.615 417.045 99.615H412.212V102.064H416.061C416.388 102.064 416.653 102.329 416.653 102.656V104.236C416.653 104.563 416.388 104.828 416.061 104.828H412.212V106.834C412.212 107.16 411.946 107.425 411.618 107.425H409.507C409.18 107.424 408.914 107.16 408.914 106.834V97.1667C408.914 96.84 409.179 96.5751 409.507 96.575H417.045ZM429.085 96.575C429.35 96.5751 429.598 96.7079 429.744 96.9285L433.045 101.907V97.1667C433.045 96.8399 433.311 96.575 433.639 96.575H435.75C436.078 96.575 436.343 96.8399 436.343 97.1667V106.834C436.343 107.16 436.077 107.425 435.75 107.425H434.058C433.791 107.425 433.543 107.291 433.396 107.068L430.167 102.148V106.834C430.167 107.16 429.901 107.425 429.574 107.425H427.463C427.135 107.425 426.869 107.16 426.869 106.834V97.1667C426.869 96.8399 427.135 96.575 427.463 96.575H429.085ZM441.801 96.575C442.066 96.575 442.314 96.7077 442.461 96.9285L445.762 101.907V97.1667C445.762 96.8401 446.027 96.5752 446.354 96.575H448.467C448.794 96.5751 449.06 96.84 449.06 97.1667V106.834C449.059 107.16 448.794 107.424 448.467 107.425H446.774C446.508 107.425 446.259 107.291 446.113 107.068L442.884 102.148V106.834C442.884 107.16 442.618 107.424 442.291 107.425H440.179C439.852 107.424 439.586 107.16 439.586 106.834V97.1667C439.586 96.84 439.851 96.5752 440.179 96.575H441.801Z" fill="white"/>
<path d="M376.904 159.848L374.958 157.902C374.482 158.033 373.997 158.098 373.502 158.098C372.597 158.098 371.771 157.888 371.024 157.468C370.277 157.039 369.685 156.446 369.246 155.69C368.817 154.925 368.602 154.066 368.602 153.114C368.602 152.162 368.817 151.308 369.246 150.552C369.685 149.787 370.277 149.194 371.024 148.774C371.771 148.345 372.597 148.13 373.502 148.13C374.417 148.13 375.247 148.345 375.994 148.774C376.741 149.194 377.329 149.782 377.758 150.538C378.187 151.294 378.402 152.153 378.402 153.114C378.402 154.047 378.197 154.887 377.786 155.634C377.375 156.381 376.811 156.969 376.092 157.398L378.556 159.848H376.904ZM369.904 153.114C369.904 153.889 370.058 154.57 370.366 155.158C370.683 155.746 371.113 156.199 371.654 156.516C372.205 156.833 372.821 156.992 373.502 156.992C374.183 156.992 374.795 156.833 375.336 156.516C375.887 156.199 376.316 155.746 376.624 155.158C376.941 154.57 377.1 153.889 377.1 153.114C377.1 152.33 376.941 151.649 376.624 151.07C376.316 150.482 375.891 150.029 375.35 149.712C374.809 149.395 374.193 149.236 373.502 149.236C372.811 149.236 372.195 149.395 371.654 149.712C371.113 150.029 370.683 150.482 370.366 151.07C370.058 151.649 369.904 152.33 369.904 153.114ZM379.635 154.136C379.635 153.352 379.794 152.666 380.111 152.078C380.429 151.481 380.863 151.019 381.413 150.692C381.973 150.365 382.594 150.202 383.275 150.202C383.947 150.202 384.531 150.347 385.025 150.636C385.52 150.925 385.889 151.289 386.131 151.728V150.328H387.419V158H386.131V156.572C385.879 157.02 385.501 157.393 384.997 157.692C384.503 157.981 383.924 158.126 383.261 158.126C382.58 158.126 381.964 157.958 381.413 157.622C380.863 157.286 380.429 156.815 380.111 156.208C379.794 155.601 379.635 154.911 379.635 154.136ZM386.131 154.15C386.131 153.571 386.015 153.067 385.781 152.638C385.548 152.209 385.231 151.882 384.829 151.658C384.437 151.425 384.003 151.308 383.527 151.308C383.051 151.308 382.617 151.42 382.225 151.644C381.833 151.868 381.521 152.195 381.287 152.624C381.054 153.053 380.937 153.557 380.937 154.136C380.937 154.724 381.054 155.237 381.287 155.676C381.521 156.105 381.833 156.437 382.225 156.67C382.617 156.894 383.051 157.006 383.527 157.006C384.003 157.006 384.437 156.894 384.829 156.67C385.231 156.437 385.548 156.105 385.781 155.676C386.015 155.237 386.131 154.729 386.131 154.15ZM392.288 158.126C391.7 158.126 391.173 158.028 390.706 157.832C390.239 157.627 389.871 157.347 389.6 156.992C389.329 156.628 389.18 156.213 389.152 155.746H390.468C390.505 156.129 390.683 156.441 391 156.684C391.327 156.927 391.751 157.048 392.274 157.048C392.759 157.048 393.142 156.941 393.422 156.726C393.702 156.511 393.842 156.241 393.842 155.914C393.842 155.578 393.693 155.331 393.394 155.172C393.095 155.004 392.633 154.841 392.008 154.682C391.439 154.533 390.972 154.383 390.608 154.234C390.253 154.075 389.945 153.847 389.684 153.548C389.432 153.24 389.306 152.839 389.306 152.344C389.306 151.952 389.423 151.593 389.656 151.266C389.889 150.939 390.221 150.683 390.65 150.496C391.079 150.3 391.569 150.202 392.12 150.202C392.969 150.202 393.655 150.417 394.178 150.846C394.701 151.275 394.981 151.863 395.018 152.61H393.744C393.716 152.209 393.553 151.887 393.254 151.644C392.965 151.401 392.573 151.28 392.078 151.28C391.621 151.28 391.257 151.378 390.986 151.574C390.715 151.77 390.58 152.027 390.58 152.344C390.58 152.596 390.659 152.806 390.818 152.974C390.986 153.133 391.191 153.263 391.434 153.366C391.686 153.459 392.031 153.567 392.47 153.688C393.021 153.837 393.469 153.987 393.814 154.136C394.159 154.276 394.453 154.491 394.696 154.78C394.948 155.069 395.079 155.447 395.088 155.914C395.088 156.334 394.971 156.712 394.738 157.048C394.505 157.384 394.173 157.65 393.744 157.846C393.324 158.033 392.839 158.126 392.288 158.126ZM396.411 154.136C396.411 153.352 396.569 152.666 396.887 152.078C397.204 151.481 397.638 151.019 398.189 150.692C398.749 150.365 399.369 150.202 400.051 150.202C400.723 150.202 401.306 150.347 401.801 150.636C402.295 150.925 402.664 151.289 402.907 151.728V150.328H404.195V158H402.907V156.572C402.655 157.02 402.277 157.393 401.773 157.692C401.278 157.981 400.699 158.126 400.037 158.126C399.355 158.126 398.739 157.958 398.189 157.622C397.638 157.286 397.204 156.815 396.887 156.208C396.569 155.601 396.411 154.911 396.411 154.136ZM402.907 154.15C402.907 153.571 402.79 153.067 402.557 152.638C402.323 152.209 402.006 151.882 401.605 151.658C401.213 151.425 400.779 151.308 400.303 151.308C399.827 151.308 399.393 151.42 399.001 151.644C398.609 151.868 398.296 152.195 398.063 152.624C397.829 153.053 397.713 153.557 397.713 154.136C397.713 154.724 397.829 155.237 398.063 155.676C398.296 156.105 398.609 156.437 399.001 156.67C399.393 156.894 399.827 157.006 400.303 157.006C400.779 157.006 401.213 156.894 401.605 156.67C402.006 156.437 402.323 156.105 402.557 155.676C402.79 155.237 402.907 154.729 402.907 154.15ZM411.668 152.33V153.408H406.082V152.33H411.668ZM414.716 149.082C414.474 149.082 414.268 148.998 414.1 148.83C413.932 148.662 413.848 148.457 413.848 148.214C413.848 147.971 413.932 147.766 414.1 147.598C414.268 147.43 414.474 147.346 414.716 147.346C414.95 147.346 415.146 147.43 415.304 147.598C415.472 147.766 415.556 147.971 415.556 148.214C415.556 148.457 415.472 148.662 415.304 148.83C415.146 148.998 414.95 149.082 414.716 149.082ZM415.332 150.328V158H414.058V150.328H415.332ZM421.242 150.188C422.175 150.188 422.931 150.473 423.51 151.042C424.088 151.602 424.378 152.414 424.378 153.478V158H423.118V153.66C423.118 152.895 422.926 152.311 422.544 151.91C422.161 151.499 421.638 151.294 420.976 151.294C420.304 151.294 419.767 151.504 419.366 151.924C418.974 152.344 418.778 152.955 418.778 153.758V158H417.504V150.328H418.778V151.42C419.03 151.028 419.37 150.725 419.8 150.51C420.238 150.295 420.719 150.188 421.242 150.188ZM429.315 156.824L431.695 150.328H433.053L430.043 158H428.559L425.549 150.328H426.921L429.315 156.824ZM441.307 153.87C441.307 154.113 441.293 154.369 441.265 154.64H435.133C435.179 155.396 435.436 155.989 435.903 156.418C436.379 156.838 436.953 157.048 437.625 157.048C438.175 157.048 438.633 156.922 438.997 156.67C439.37 156.409 439.631 156.063 439.781 155.634H441.153C440.947 156.371 440.537 156.973 439.921 157.44C439.305 157.897 438.539 158.126 437.625 158.126C436.897 158.126 436.243 157.963 435.665 157.636C435.095 157.309 434.647 156.847 434.321 156.25C433.994 155.643 433.831 154.943 433.831 154.15C433.831 153.357 433.989 152.661 434.307 152.064C434.624 151.467 435.067 151.009 435.637 150.692C436.215 150.365 436.878 150.202 437.625 150.202C438.353 150.202 438.997 150.361 439.557 150.678C440.117 150.995 440.546 151.434 440.845 151.994C441.153 152.545 441.307 153.17 441.307 153.87ZM439.991 153.604C439.991 153.119 439.883 152.703 439.669 152.358C439.454 152.003 439.16 151.737 438.787 151.56C438.423 151.373 438.017 151.28 437.569 151.28C436.925 151.28 436.374 151.485 435.917 151.896C435.469 152.307 435.212 152.876 435.147 153.604H439.991ZM444.262 151.574C444.486 151.135 444.803 150.795 445.214 150.552C445.634 150.309 446.143 150.188 446.74 150.188V151.504H446.404C444.976 151.504 444.262 152.279 444.262 153.828V158H442.988V150.328H444.262V151.574ZM449.765 151.378V155.9C449.765 156.273 449.844 156.539 450.003 156.698C450.161 156.847 450.437 156.922 450.829 156.922H451.767V158H450.619C449.909 158 449.377 157.837 449.023 157.51C448.668 157.183 448.491 156.647 448.491 155.9V151.378H447.497V150.328H448.491V148.396H449.765V150.328H451.767V151.378H449.765ZM460.31 153.87C460.31 154.113 460.296 154.369 460.268 154.64H454.136C454.183 155.396 454.44 155.989 454.906 156.418C455.382 156.838 455.956 157.048 456.628 157.048C457.179 157.048 457.636 156.922 458 156.67C458.374 156.409 458.635 156.063 458.784 155.634H460.156C459.951 156.371 459.54 156.973 458.924 157.44C458.308 157.897 457.543 158.126 456.628 158.126C455.9 158.126 455.247 157.963 454.668 157.636C454.099 157.309 453.651 156.847 453.324 156.25C452.998 155.643 452.834 154.943 452.834 154.15C452.834 153.357 452.993 152.661 453.31 152.064C453.628 151.467 454.071 151.009 454.64 150.692C455.219 150.365 455.882 150.202 456.628 150.202C457.356 150.202 458 150.361 458.56 150.678C459.12 150.995 459.55 151.434 459.848 151.994C460.156 152.545 460.31 153.17 460.31 153.87ZM458.994 153.604C458.994 153.119 458.887 152.703 458.672 152.358C458.458 152.003 458.164 151.737 457.79 151.56C457.426 151.373 457.02 151.28 456.572 151.28C455.928 151.28 455.378 151.485 454.92 151.896C454.472 152.307 454.216 152.876 454.15 153.604H458.994ZM461.516 154.136C461.516 153.352 461.675 152.666 461.992 152.078C462.309 151.481 462.743 151.019 463.294 150.692C463.854 150.365 464.479 150.202 465.17 150.202C465.767 150.202 466.323 150.342 466.836 150.622C467.349 150.893 467.741 151.252 468.012 151.7V147.64H469.3V158H468.012V156.558C467.76 157.015 467.387 157.393 466.892 157.692C466.397 157.981 465.819 158.126 465.156 158.126C464.475 158.126 463.854 157.958 463.294 157.622C462.743 157.286 462.309 156.815 461.992 156.208C461.675 155.601 461.516 154.911 461.516 154.136ZM468.012 154.15C468.012 153.571 467.895 153.067 467.662 152.638C467.429 152.209 467.111 151.882 466.71 151.658C466.318 151.425 465.884 151.308 465.408 151.308C464.932 151.308 464.498 151.42 464.106 151.644C463.714 151.868 463.401 152.195 463.168 152.624C462.935 153.053 462.818 153.557 462.818 154.136C462.818 154.724 462.935 155.237 463.168 155.676C463.401 156.105 463.714 156.437 464.106 156.67C464.498 156.894 464.932 157.006 465.408 157.006C465.884 157.006 466.318 156.894 466.71 156.67C467.111 156.437 467.429 156.105 467.662 155.676C467.895 155.237 468.012 154.729 468.012 154.15Z" fill="white"/>
<path d="M438.949 184.376V184.375C438.95 185.221 438.594 186.822 438.37 188.004C438.178 189.016 437.915 190.384 436.235 190.384C432.778 190.384 433.253 185.857 430.442 185.857C429.281 185.857 428.594 186.751 428.594 187.863C428.594 188.697 429.09 189.476 429.85 190.053L432.647 192.217C434.982 193.874 435.931 196.077 435.931 197.78C435.931 200.985 433.216 203.376 429.942 203.376H422.999C420.379 203.376 419.058 202.558 418.3 200.635C418.101 200.057 417.027 197.231 417.027 196.238C417.027 194.738 418.034 193.58 419.57 193.58C422.527 193.58 423.819 198.105 426.251 198.105C427.206 198.105 427.916 197.254 427.916 196.373C427.916 195.716 427.503 195.007 426.742 194.43L424.311 192.458C422.278 190.871 421.12 189.045 421.12 187.098C421.12 183.53 423.86 180.295 428.107 180.295H435.087C437.331 180.295 438.949 182.342 438.949 184.376ZM414.731 195.102C414.731 196.651 415.439 198.418 415.439 200.005C415.439 201.737 414.099 203.376 412.125 203.376C409.653 203.376 409.659 200.96 408.298 200.96C406.937 200.96 406.84 203.669 402.536 203.669C398.232 203.669 393.478 198.966 393.478 192.617C393.478 186.268 397.548 180.587 403.863 180.587C407.473 180.587 408.789 182.85 410.032 182.85C411.651 182.85 411.672 180 414.598 180C416.43 180 417.875 181.565 417.875 183.418C417.875 186.374 414.731 190.821 414.731 195.102ZM408.779 192.129C408.779 189.673 406.843 187.683 404.454 187.683C402.066 187.683 400.13 189.673 400.13 192.129C400.13 194.585 402.066 196.576 404.454 196.576C406.843 196.576 408.779 194.585 408.779 192.129ZM460.856 195.103C460.856 196.651 461.564 198.419 461.564 200.006C461.564 201.738 460.223 203.376 458.25 203.376C455.779 203.376 455.784 200.961 454.423 200.961C453.062 200.961 452.965 203.67 448.661 203.67C444.357 203.67 439.603 198.966 439.603 192.617C439.603 186.269 443.673 180.587 449.988 180.587C453.598 180.587 454.914 182.85 456.157 182.85C457.776 182.85 457.797 180 460.722 180C462.555 180 464 181.565 464 183.418C464 186.374 460.856 190.821 460.856 195.101V195.103ZM454.904 192.13C454.904 189.674 452.968 187.683 450.579 187.683C448.191 187.683 446.255 189.674 446.255 192.13C446.255 194.586 448.191 196.576 450.579 196.576C452.968 196.576 454.904 194.586 454.904 192.13ZM392.929 183.464C392.929 184.973 392.028 187.277 390.837 192.168C389.647 197.059 388.959 199.693 388.959 202.116C388.959 204.538 390.056 206.051 390.056 208.162C390.056 210.272 388.383 212 386.742 212H383.867C382.006 212 380.602 209.948 380.602 208.162C380.602 205.076 383.836 204.147 383.836 202.195C383.836 201.377 383.278 200.667 382.47 200.667C380.935 200.667 380.585 202.789 377.116 202.789C372.796 202.789 368 198.512 368 192.025C368 185.539 373.098 180.588 378.478 180.588C382.363 180.588 383.332 182.851 384.905 182.851C386.579 182.851 386.794 180.001 389.56 180.001C391.257 180.001 392.929 181.407 392.929 183.464ZM383.841 192.129C383.841 189.673 381.905 187.683 379.517 187.683C377.129 187.683 375.193 189.673 375.193 192.129C375.193 194.585 377.129 196.576 379.517 196.576C381.905 196.576 383.841 194.585 383.841 192.129Z" fill="#FF84B6"/>
<path d="M377.142 242.242L373.46 252H371.99L368.308 242.242H369.666L372.732 250.656L375.798 242.242H377.142ZM385.539 247.87C385.539 248.113 385.525 248.369 385.497 248.64H379.365C379.412 249.396 379.668 249.989 380.135 250.418C380.611 250.838 381.185 251.048 381.857 251.048C382.408 251.048 382.865 250.922 383.229 250.67C383.602 250.409 383.864 250.063 384.013 249.634H385.385C385.18 250.371 384.769 250.973 384.153 251.44C383.537 251.897 382.772 252.126 381.857 252.126C381.129 252.126 380.476 251.963 379.897 251.636C379.328 251.309 378.88 250.847 378.553 250.25C378.226 249.643 378.063 248.943 378.063 248.15C378.063 247.357 378.222 246.661 378.539 246.064C378.856 245.467 379.3 245.009 379.869 244.692C380.448 244.365 381.11 244.202 381.857 244.202C382.585 244.202 383.229 244.361 383.789 244.678C384.349 244.995 384.778 245.434 385.077 245.994C385.385 246.545 385.539 247.17 385.539 247.87ZM384.223 247.604C384.223 247.119 384.116 246.703 383.901 246.358C383.686 246.003 383.392 245.737 383.019 245.56C382.655 245.373 382.249 245.28 381.801 245.28C381.157 245.28 380.606 245.485 380.149 245.896C379.701 246.307 379.444 246.876 379.379 247.604H384.223ZM390.959 244.188C391.892 244.188 392.648 244.473 393.227 245.042C393.805 245.602 394.095 246.414 394.095 247.478V252H392.835V247.66C392.835 246.895 392.643 246.311 392.261 245.91C391.878 245.499 391.355 245.294 390.693 245.294C390.021 245.294 389.484 245.504 389.083 245.924C388.691 246.344 388.495 246.955 388.495 247.758V252H387.221V244.328H388.495V245.42C388.747 245.028 389.087 244.725 389.517 244.51C389.955 244.295 390.436 244.188 390.959 244.188ZM395.7 248.136C395.7 247.352 395.858 246.666 396.176 246.078C396.493 245.481 396.927 245.019 397.478 244.692C398.038 244.365 398.663 244.202 399.354 244.202C399.951 244.202 400.506 244.342 401.02 244.622C401.533 244.893 401.925 245.252 402.196 245.7V241.64H403.484V252H402.196V250.558C401.944 251.015 401.57 251.393 401.076 251.692C400.581 251.981 400.002 252.126 399.34 252.126C398.658 252.126 398.038 251.958 397.478 251.622C396.927 251.286 396.493 250.815 396.176 250.208C395.858 249.601 395.7 248.911 395.7 248.136ZM402.196 248.15C402.196 247.571 402.079 247.067 401.846 246.638C401.612 246.209 401.295 245.882 400.894 245.658C400.502 245.425 400.068 245.308 399.592 245.308C399.116 245.308 398.682 245.42 398.29 245.644C397.898 245.868 397.585 246.195 397.352 246.624C397.118 247.053 397.002 247.557 397.002 248.136C397.002 248.724 397.118 249.237 397.352 249.676C397.585 250.105 397.898 250.437 398.29 250.67C398.682 250.894 399.116 251.006 399.592 251.006C400.068 251.006 400.502 250.894 400.894 250.67C401.295 250.437 401.612 250.105 401.846 249.676C402.079 249.237 402.196 248.729 402.196 248.15ZM410.957 246.33V247.408H405.371V246.33H410.957ZM414.006 243.082C413.763 243.082 413.558 242.998 413.39 242.83C413.222 242.662 413.138 242.457 413.138 242.214C413.138 241.971 413.222 241.766 413.39 241.598C413.558 241.43 413.763 241.346 414.006 241.346C414.239 241.346 414.435 241.43 414.594 241.598C414.762 241.766 414.846 241.971 414.846 242.214C414.846 242.457 414.762 242.662 414.594 242.83C414.435 242.998 414.239 243.082 414.006 243.082ZM414.622 244.328V252H413.348V244.328H414.622ZM420.531 244.188C421.464 244.188 422.22 244.473 422.799 245.042C423.378 245.602 423.667 246.414 423.667 247.478V252H422.407V247.66C422.407 246.895 422.216 246.311 421.833 245.91C421.45 245.499 420.928 245.294 420.265 245.294C419.593 245.294 419.056 245.504 418.655 245.924C418.263 246.344 418.067 246.955 418.067 247.758V252H416.793V244.328H418.067V245.42C418.319 245.028 418.66 244.725 419.089 244.51C419.528 244.295 420.008 244.188 420.531 244.188ZM428.604 250.824L430.984 244.328H432.342L429.332 252H427.848L424.838 244.328H426.21L428.604 250.824ZM440.596 247.87C440.596 248.113 440.582 248.369 440.554 248.64H434.422C434.468 249.396 434.725 249.989 435.192 250.418C435.668 250.838 436.242 251.048 436.914 251.048C437.464 251.048 437.922 250.922 438.286 250.67C438.659 250.409 438.92 250.063 439.07 249.634H440.442C440.236 250.371 439.826 250.973 439.21 251.44C438.594 251.897 437.828 252.126 436.914 252.126C436.186 252.126 435.532 251.963 434.954 251.636C434.384 251.309 433.936 250.847 433.61 250.25C433.283 249.643 433.12 248.943 433.12 248.15C433.12 247.357 433.278 246.661 433.596 246.064C433.913 245.467 434.356 245.009 434.926 244.692C435.504 244.365 436.167 244.202 436.914 244.202C437.642 244.202 438.286 244.361 438.846 244.678C439.406 244.995 439.835 245.434 440.134 245.994C440.442 246.545 440.596 247.17 440.596 247.87ZM439.28 247.604C439.28 247.119 439.172 246.703 438.958 246.358C438.743 246.003 438.449 245.737 438.076 245.56C437.712 245.373 437.306 245.28 436.858 245.28C436.214 245.28 435.663 245.485 435.206 245.896C434.758 246.307 434.501 246.876 434.436 247.604H439.28ZM443.551 245.574C443.775 245.135 444.093 244.795 444.503 244.552C444.923 244.309 445.432 244.188 446.029 244.188V245.504H445.693C444.265 245.504 443.551 246.279 443.551 247.828V252H442.277V244.328H443.551V245.574ZM449.054 245.378V249.9C449.054 250.273 449.133 250.539 449.292 250.698C449.451 250.847 449.726 250.922 450.118 250.922H451.056V252H449.908C449.199 252 448.667 251.837 448.312 251.51C447.957 251.183 447.78 250.647 447.78 249.9V245.378H446.786V244.328H447.78V242.396H449.054V244.328H451.056V245.378H449.054ZM459.599 247.87C459.599 248.113 459.585 248.369 459.557 248.64H453.425C453.472 249.396 453.729 249.989 454.195 250.418C454.671 250.838 455.245 251.048 455.917 251.048C456.468 251.048 456.925 250.922 457.289 250.67C457.663 250.409 457.924 250.063 458.073 249.634H459.445C459.24 250.371 458.829 250.973 458.213 251.44C457.597 251.897 456.832 252.126 455.917 252.126C455.189 252.126 454.536 251.963 453.957 251.636C453.388 251.309 452.94 250.847 452.613 250.25C452.287 249.643 452.123 248.943 452.123 248.15C452.123 247.357 452.282 246.661 452.599 246.064C452.917 245.467 453.36 245.009 453.929 244.692C454.508 244.365 455.171 244.202 455.917 244.202C456.645 244.202 457.289 244.361 457.849 244.678C458.409 244.995 458.839 245.434 459.137 245.994C459.445 246.545 459.599 247.17 459.599 247.87ZM458.283 247.604C458.283 247.119 458.176 246.703 457.961 246.358C457.747 246.003 457.453 245.737 457.079 245.56C456.715 245.373 456.309 245.28 455.861 245.28C455.217 245.28 454.667 245.485 454.209 245.896C453.761 246.307 453.505 246.876 453.439 247.604H458.283ZM460.805 248.136C460.805 247.352 460.964 246.666 461.281 246.078C461.598 245.481 462.032 245.019 462.583 244.692C463.143 244.365 463.768 244.202 464.459 244.202C465.056 244.202 465.612 244.342 466.125 244.622C466.638 244.893 467.03 245.252 467.301 245.7V241.64H468.589V252H467.301V250.558C467.049 251.015 466.676 251.393 466.181 251.692C465.686 251.981 465.108 252.126 464.445 252.126C463.764 252.126 463.143 251.958 462.583 251.622C462.032 251.286 461.598 250.815 461.281 250.208C460.964 249.601 460.805 248.911 460.805 248.136ZM467.301 248.15C467.301 247.571 467.184 247.067 466.951 246.638C466.718 246.209 466.4 245.882 465.999 245.658C465.607 245.425 465.173 245.308 464.697 245.308C464.221 245.308 463.787 245.42 463.395 245.644C463.003 245.868 462.69 246.195 462.457 246.624C462.224 247.053 462.107 247.557 462.107 248.136C462.107 248.724 462.224 249.237 462.457 249.676C462.69 250.105 463.003 250.437 463.395 250.67C463.787 250.894 464.221 251.006 464.697 251.006C465.173 251.006 465.607 250.894 465.999 250.67C466.4 250.437 466.718 250.105 466.951 249.676C467.184 249.237 467.301 248.729 467.301 248.15Z" fill="white"/>
<path d="M472.029 280.784H471.985C465.155 280.784 461.527 285.007 461.527 291.834L461.483 305.359H467.546V286.545H476.383V305.359H482.404V291.834C482.404 284.965 478.903 280.784 472.029 280.784Z" fill="white"/>
<path d="M448.633 280.784C442.015 280.784 437.746 285.478 437.746 293.114C437.746 300.879 441.887 305.957 448.718 305.957C452.56 305.957 457.256 304.633 458.623 298.66L453.2 297.167C452.602 300.069 450.979 301.049 448.674 301.049C445.5 301.049 444.134 299.104 443.861 294.693H458.836V292.729C458.836 284.624 454.481 280.784 448.633 280.784ZM452.471 290.683H443.924C444.352 286.928 445.974 285.648 448.376 285.648C451.195 285.648 452.475 287.525 452.475 290.214C452.475 290.372 452.473 290.528 452.471 290.683Z" fill="white"/>
<path d="M501.873 274V285.385C500.839 282.45 498.34 280.784 495.212 280.784C489.746 280.784 485.393 284.922 485.393 293.37C485.393 301.819 489.746 306 495.212 306C498.34 306 500.839 304.308 501.873 301.361V305.359H507.892V274H501.873ZM496.877 300.793C493.291 300.793 491.454 297.978 491.454 293.37C491.454 288.763 493.291 285.947 496.877 285.947C500.335 285.947 501.872 289.019 501.872 293.37C501.872 297.721 500.335 300.793 496.877 300.793Z" fill="white"/>
<path d="M432.792 275.494L426.064 299.385L419.216 275.494H412.726L421.906 305.359H430.231L439.282 275.494H432.792Z" fill="white"/>
<path d="M379.852 305.373H385.831L385.831 293.415H379.852V305.373Z" fill="white"/>
<path d="M391.811 275.494H373.872C370.569 275.494 367.892 278.169 367.892 281.468V305.373H373.871V305.362H373.872V294.908C373.872 294.603 373.887 294.301 373.918 294.003C374.378 289.514 378.198 285.953 382.842 285.953C387.486 285.953 391.305 289.515 391.765 294.004C391.795 294.301 391.811 294.603 391.811 294.909V305.363H391.812V305.374H397.791V281.468C397.791 278.169 395.113 275.494 391.811 275.494Z" fill="white"/>
</svg>
