<svg width="688" height="302" viewBox="0 0 688 302" fill="none" xmlns="http://www.w3.org/2000/svg">
<rect width="688" height="302" fill="#F6F6F6"/>
<rect x="207.5" y="80" width="273" height="142" rx="8" fill="white"/>
<path d="M244.8 167.999H251.199L251.2 155.192H244.8V167.999Z" fill="#7A2822"/>
<path d="M257.6 136H238.4C234.866 136 232 138.864 232 142.397V167.999H238.399V167.987L238.4 156.792C238.4 156.464 238.417 156.141 238.449 155.822C238.942 151.015 243.03 147.201 248 147.201C252.971 147.201 257.058 151.015 257.551 155.823C257.583 156.142 257.6 156.465 257.6 156.792V167.988L257.601 168H264V142.397C264 138.864 261.134 136 257.6 136Z" fill="#7A2822"/>
<path d="M232.34 184.426C232.405 183.567 232.737 182.895 233.334 182.41C233.931 181.925 234.706 181.682 235.658 181.682C236.293 181.682 236.839 181.799 237.296 182.032C237.763 182.256 238.113 182.564 238.346 182.956C238.589 183.348 238.71 183.791 238.71 184.286C238.71 184.865 238.542 185.364 238.206 185.784C237.879 186.204 237.45 186.475 236.918 186.596V186.666C237.525 186.815 238.005 187.109 238.36 187.548C238.715 187.987 238.892 188.561 238.892 189.27C238.892 189.802 238.771 190.283 238.528 190.712C238.285 191.132 237.921 191.463 237.436 191.706C236.951 191.949 236.367 192.07 235.686 192.07C234.697 192.07 233.885 191.813 233.25 191.3C232.615 190.777 232.261 190.04 232.186 189.088H233.418C233.483 189.648 233.712 190.105 234.104 190.46C234.496 190.815 235.019 190.992 235.672 190.992C236.325 190.992 236.82 190.824 237.156 190.488C237.501 190.143 237.674 189.699 237.674 189.158C237.674 188.458 237.441 187.954 236.974 187.646C236.507 187.338 235.803 187.184 234.86 187.184H234.538V186.12H234.874C235.733 186.111 236.381 185.971 236.82 185.7C237.259 185.42 237.478 184.991 237.478 184.412C237.478 183.917 237.315 183.521 236.988 183.222C236.671 182.923 236.213 182.774 235.616 182.774C235.037 182.774 234.571 182.923 234.216 183.222C233.861 183.521 233.651 183.922 233.586 184.426H232.34ZM240.458 190.978C241.643 190.026 242.572 189.247 243.244 188.64C243.916 188.024 244.481 187.385 244.938 186.722C245.405 186.05 245.638 185.392 245.638 184.748C245.638 184.141 245.489 183.665 245.19 183.32C244.901 182.965 244.429 182.788 243.776 182.788C243.141 182.788 242.647 182.989 242.292 183.39C241.947 183.782 241.76 184.309 241.732 184.972H240.5C240.537 183.927 240.855 183.119 241.452 182.55C242.049 181.981 242.819 181.696 243.762 181.696C244.723 181.696 245.484 181.962 246.044 182.494C246.613 183.026 246.898 183.759 246.898 184.692C246.898 185.467 246.665 186.223 246.198 186.96C245.741 187.688 245.218 188.332 244.63 188.892C244.042 189.443 243.291 190.087 242.376 190.824H247.192V191.888H240.458V190.978ZM250.149 185.742C250.401 185.303 250.774 184.939 251.269 184.65C251.773 184.351 252.356 184.202 253.019 184.202C253.7 184.202 254.316 184.365 254.867 184.692C255.427 185.019 255.866 185.481 256.183 186.078C256.5 186.666 256.659 187.352 256.659 188.136C256.659 188.911 256.5 189.601 256.183 190.208C255.866 190.815 255.427 191.286 254.867 191.622C254.316 191.958 253.7 192.126 253.019 192.126C252.366 192.126 251.787 191.981 251.283 191.692C250.788 191.393 250.41 191.025 250.149 190.586V195.64H248.875V184.328H250.149V185.742ZM255.357 188.136C255.357 187.557 255.24 187.053 255.007 186.624C254.774 186.195 254.456 185.868 254.055 185.644C253.663 185.42 253.229 185.308 252.753 185.308C252.286 185.308 251.852 185.425 251.451 185.658C251.059 185.882 250.742 186.213 250.499 186.652C250.266 187.081 250.149 187.581 250.149 188.15C250.149 188.729 250.266 189.237 250.499 189.676C250.742 190.105 251.059 190.437 251.451 190.67C251.852 190.894 252.286 191.006 252.753 191.006C253.229 191.006 253.663 190.894 254.055 190.67C254.456 190.437 254.774 190.105 255.007 189.676C255.24 189.237 255.357 188.724 255.357 188.136ZM262.34 192L260.52 189.144L258.77 192H257.44L259.918 188.192L257.44 184.328H258.882L260.702 187.17L262.438 184.328H263.768L261.304 188.122L263.782 192H262.34Z" fill="black"/>
<path d="M323.7 167.999H333.299L333.3 148.788H323.7V167.999Z" fill="#7A2822"/>
<path d="M342.9 120H314.1C308.798 120 304.5 124.296 304.5 129.596V167.999H314.098V167.981L314.1 151.187C314.1 150.697 314.125 150.212 314.173 149.733C314.913 142.522 321.045 136.801 328.5 136.801C335.956 136.801 342.088 142.523 342.827 149.734C342.874 150.212 342.9 150.697 342.9 151.188V167.982L342.902 168H352.5V129.596C352.5 124.296 348.201 120 342.9 120Z" fill="#7A2822"/>
<path d="M312.06 189.746V188.78L316.974 181.976H318.5V188.64H319.9V189.746H318.5V192H317.24V189.746H312.06ZM317.296 183.306L313.53 188.64H317.296V183.306ZM323.021 186.736C322.498 186.531 322.097 186.232 321.817 185.84C321.537 185.448 321.397 184.972 321.397 184.412C321.397 183.908 321.523 183.455 321.775 183.054C322.027 182.643 322.4 182.321 322.895 182.088C323.399 181.845 324.005 181.724 324.715 181.724C325.424 181.724 326.026 181.845 326.521 182.088C327.025 182.321 327.403 182.643 327.655 183.054C327.916 183.455 328.047 183.908 328.047 184.412C328.047 184.953 327.902 185.429 327.613 185.84C327.323 186.241 326.927 186.54 326.423 186.736C327.001 186.913 327.459 187.226 327.795 187.674C328.14 188.113 328.313 188.645 328.313 189.27C328.313 189.877 328.163 190.409 327.865 190.866C327.566 191.314 327.141 191.664 326.591 191.916C326.049 192.159 325.424 192.28 324.715 192.28C324.005 192.28 323.38 192.159 322.839 191.916C322.307 191.664 321.891 191.314 321.593 190.866C321.294 190.409 321.145 189.877 321.145 189.27C321.145 188.645 321.313 188.108 321.649 187.66C321.985 187.212 322.442 186.904 323.021 186.736ZM326.815 184.566C326.815 183.997 326.628 183.558 326.255 183.25C325.881 182.942 325.368 182.788 324.715 182.788C324.071 182.788 323.562 182.942 323.189 183.25C322.815 183.558 322.629 184.001 322.629 184.58C322.629 185.103 322.82 185.523 323.203 185.84C323.595 186.157 324.099 186.316 324.715 186.316C325.34 186.316 325.844 186.157 326.227 185.84C326.619 185.513 326.815 185.089 326.815 184.566ZM324.715 187.296C324.024 187.296 323.459 187.459 323.021 187.786C322.582 188.103 322.363 188.584 322.363 189.228C322.363 189.825 322.573 190.306 322.993 190.67C323.422 191.034 323.996 191.216 324.715 191.216C325.433 191.216 326.003 191.034 326.423 190.67C326.843 190.306 327.053 189.825 327.053 189.228C327.053 188.603 326.838 188.127 326.409 187.8C325.979 187.464 325.415 187.296 324.715 187.296ZM331.489 185.742C331.741 185.303 332.114 184.939 332.609 184.65C333.113 184.351 333.696 184.202 334.359 184.202C335.04 184.202 335.656 184.365 336.207 184.692C336.767 185.019 337.205 185.481 337.523 186.078C337.84 186.666 337.999 187.352 337.999 188.136C337.999 188.911 337.84 189.601 337.523 190.208C337.205 190.815 336.767 191.286 336.207 191.622C335.656 191.958 335.04 192.126 334.359 192.126C333.705 192.126 333.127 191.981 332.623 191.692C332.128 191.393 331.75 191.025 331.489 190.586V195.64H330.215V184.328H331.489V185.742ZM336.697 188.136C336.697 187.557 336.58 187.053 336.347 186.624C336.113 186.195 335.796 185.868 335.395 185.644C335.003 185.42 334.569 185.308 334.093 185.308C333.626 185.308 333.192 185.425 332.791 185.658C332.399 185.882 332.081 186.213 331.839 186.652C331.605 187.081 331.489 187.581 331.489 188.15C331.489 188.729 331.605 189.237 331.839 189.676C332.081 190.105 332.399 190.437 332.791 190.67C333.192 190.894 333.626 191.006 334.093 191.006C334.569 191.006 335.003 190.894 335.395 190.67C335.796 190.437 336.113 190.105 336.347 189.676C336.58 189.237 336.697 188.724 336.697 188.136ZM343.68 192L341.86 189.144L340.11 192H338.78L341.258 188.192L338.78 184.328H340.222L342.042 187.17L343.778 184.328H345.108L342.644 188.122L345.122 192H343.68Z" fill="black"/>
<path d="M418.1 167.999H430.899L430.9 142.384H418.1V167.999Z" fill="#7A2822"/>
<path d="M443.699 104H405.3C398.231 104 392.5 109.728 392.5 116.795V167.999H405.297V167.975L405.3 145.583C405.3 144.929 405.333 144.282 405.398 143.644C406.384 134.029 414.56 126.401 424.501 126.401C434.441 126.401 442.617 134.03 443.602 143.646C443.666 144.283 443.7 144.93 443.7 145.584V167.976L443.703 168H456.5V116.795C456.5 109.728 450.768 104 443.699 104Z" fill="#7A2822"/>
<path d="M414.01 184.286C413.805 183.25 413.165 182.732 412.092 182.732C411.261 182.732 410.641 183.054 410.23 183.698C409.819 184.333 409.619 185.383 409.628 186.848C409.843 186.363 410.197 185.985 410.692 185.714C411.196 185.434 411.756 185.294 412.372 185.294C413.333 185.294 414.099 185.593 414.668 186.19C415.247 186.787 415.536 187.613 415.536 188.668C415.536 189.303 415.41 189.872 415.158 190.376C414.915 190.88 414.542 191.281 414.038 191.58C413.543 191.879 412.941 192.028 412.232 192.028C411.271 192.028 410.519 191.813 409.978 191.384C409.437 190.955 409.059 190.362 408.844 189.606C408.629 188.85 408.522 187.917 408.522 186.806C408.522 183.381 409.717 181.668 412.106 181.668C413.021 181.668 413.739 181.915 414.262 182.41C414.785 182.905 415.093 183.53 415.186 184.286H414.01ZM412.106 186.372C411.705 186.372 411.327 186.456 410.972 186.624C410.617 186.783 410.328 187.03 410.104 187.366C409.889 187.693 409.782 188.094 409.782 188.57C409.782 189.279 409.987 189.858 410.398 190.306C410.809 190.745 411.397 190.964 412.162 190.964C412.815 190.964 413.333 190.763 413.716 190.362C414.108 189.951 414.304 189.401 414.304 188.71C414.304 187.982 414.117 187.413 413.744 187.002C413.371 186.582 412.825 186.372 412.106 186.372ZM416.947 189.746V188.78L421.861 181.976H423.387V188.64H424.787V189.746H423.387V192H422.127V189.746H416.947ZM422.183 183.306L418.417 188.64H422.183V183.306ZM427.543 185.742C427.795 185.303 428.169 184.939 428.663 184.65C429.167 184.351 429.751 184.202 430.413 184.202C431.095 184.202 431.711 184.365 432.261 184.692C432.821 185.019 433.26 185.481 433.577 186.078C433.895 186.666 434.053 187.352 434.053 188.136C434.053 188.911 433.895 189.601 433.577 190.208C433.26 190.815 432.821 191.286 432.261 191.622C431.711 191.958 431.095 192.126 430.413 192.126C429.76 192.126 429.181 191.981 428.677 191.692C428.183 191.393 427.805 191.025 427.543 190.586V195.64H426.269V184.328H427.543V185.742ZM432.751 188.136C432.751 187.557 432.635 187.053 432.401 186.624C432.168 186.195 431.851 185.868 431.449 185.644C431.057 185.42 430.623 185.308 430.147 185.308C429.681 185.308 429.247 185.425 428.845 185.658C428.453 185.882 428.136 186.213 427.893 186.652C427.66 187.081 427.543 187.581 427.543 188.15C427.543 188.729 427.66 189.237 427.893 189.676C428.136 190.105 428.453 190.437 428.845 190.67C429.247 190.894 429.681 191.006 430.147 191.006C430.623 191.006 431.057 190.894 431.449 190.67C431.851 190.437 432.168 190.105 432.401 189.676C432.635 189.237 432.751 188.724 432.751 188.136ZM439.734 192L437.914 189.144L436.164 192H434.834L437.312 188.192L434.834 184.328H436.276L438.096 187.17L439.832 184.328H441.162L438.698 188.122L441.176 192H439.734Z" fill="black"/>
</svg>
