<svg width="688" height="278" viewBox="0 0 688 278" fill="none" xmlns="http://www.w3.org/2000/svg">
<rect width="688" height="278" fill="#F6F6F6"/>
<rect x="188.5" y="80" width="311" height="118" rx="8" fill="white"/>
<path d="M221.642 110.242L217.96 120H216.49L212.808 110.242H214.166L217.232 118.656L220.298 110.242H221.642ZM230.039 115.87C230.039 116.113 230.025 116.369 229.997 116.64H223.865C223.912 117.396 224.168 117.989 224.635 118.418C225.111 118.838 225.685 119.048 226.357 119.048C226.908 119.048 227.365 118.922 227.729 118.67C228.102 118.409 228.364 118.063 228.513 117.634H229.885C229.68 118.371 229.269 118.973 228.653 119.44C228.037 119.897 227.272 120.126 226.357 120.126C225.629 120.126 224.976 119.963 224.397 119.636C223.828 119.309 223.38 118.847 223.053 118.25C222.726 117.643 222.563 116.943 222.563 116.15C222.563 115.357 222.722 114.661 223.039 114.064C223.356 113.467 223.8 113.009 224.369 112.692C224.948 112.365 225.61 112.202 226.357 112.202C227.085 112.202 227.729 112.361 228.289 112.678C228.849 112.995 229.278 113.434 229.577 113.994C229.885 114.545 230.039 115.17 230.039 115.87ZM228.723 115.604C228.723 115.119 228.616 114.703 228.401 114.358C228.186 114.003 227.892 113.737 227.519 113.56C227.155 113.373 226.749 113.28 226.301 113.28C225.657 113.28 225.106 113.485 224.649 113.896C224.201 114.307 223.944 114.876 223.879 115.604H228.723ZM235.459 112.188C236.392 112.188 237.148 112.473 237.727 113.042C238.305 113.602 238.595 114.414 238.595 115.478V120H237.335V115.66C237.335 114.895 237.143 114.311 236.761 113.91C236.378 113.499 235.855 113.294 235.193 113.294C234.521 113.294 233.984 113.504 233.583 113.924C233.191 114.344 232.995 114.955 232.995 115.758V120H231.721V112.328H232.995V113.42C233.247 113.028 233.587 112.725 234.017 112.51C234.455 112.295 234.936 112.188 235.459 112.188ZM240.2 116.136C240.2 115.352 240.358 114.666 240.676 114.078C240.993 113.481 241.427 113.019 241.978 112.692C242.538 112.365 243.163 112.202 243.854 112.202C244.451 112.202 245.006 112.342 245.52 112.622C246.033 112.893 246.425 113.252 246.696 113.7V109.64H247.984V120H246.696V118.558C246.444 119.015 246.07 119.393 245.576 119.692C245.081 119.981 244.502 120.126 243.84 120.126C243.158 120.126 242.538 119.958 241.978 119.622C241.427 119.286 240.993 118.815 240.676 118.208C240.358 117.601 240.2 116.911 240.2 116.136ZM246.696 116.15C246.696 115.571 246.579 115.067 246.346 114.638C246.112 114.209 245.795 113.882 245.394 113.658C245.002 113.425 244.568 113.308 244.092 113.308C243.616 113.308 243.182 113.42 242.79 113.644C242.398 113.868 242.085 114.195 241.852 114.624C241.618 115.053 241.502 115.557 241.502 116.136C241.502 116.724 241.618 117.237 241.852 117.676C242.085 118.105 242.398 118.437 242.79 118.67C243.182 118.894 243.616 119.006 244.092 119.006C244.568 119.006 245.002 118.894 245.394 118.67C245.795 118.437 246.112 118.105 246.346 117.676C246.579 117.237 246.696 116.729 246.696 116.15Z" fill="#1B1B1F"/>
<path d="M316.637 148.784H316.593C309.763 148.784 306.135 153.007 306.135 159.834L306.091 173.359H312.154V154.545H320.99V173.359H327.012V159.834C327.012 152.965 323.511 148.784 316.637 148.784Z" fill="#7A2822"/>
<path d="M293.241 148.784C286.623 148.784 282.354 153.478 282.354 161.114C282.354 168.879 286.495 173.957 293.326 173.957C297.168 173.957 301.864 172.633 303.231 166.66L297.808 165.167C297.21 168.069 295.587 169.049 293.282 169.049C290.108 169.049 288.742 167.104 288.469 162.693H303.444V160.729C303.444 152.624 299.089 148.784 293.241 148.784ZM297.079 158.683H288.532C288.96 154.928 290.582 153.648 292.984 153.648C295.803 153.648 297.083 155.525 297.083 158.214C297.083 158.372 297.081 158.528 297.079 158.683Z" fill="#7A2822"/>
<path d="M346.48 142V153.385C345.447 150.45 342.948 148.784 339.819 148.784C334.354 148.784 330 152.922 330 161.37C330 169.819 334.354 174 339.819 174C342.948 174 345.447 172.308 346.48 169.361V173.359H352.5V142H346.48ZM341.485 168.793C337.899 168.793 336.061 165.978 336.061 161.37C336.061 156.763 337.899 153.947 341.485 153.947C344.943 153.947 346.48 157.019 346.48 161.37C346.48 165.721 344.943 168.793 341.485 168.793Z" fill="#7A2822"/>
<path d="M277.4 143.494L270.672 167.385L263.824 143.494H257.334L266.514 173.359H274.839L283.89 143.494H277.4Z" fill="#7A2822"/>
<path d="M224.459 173.373H230.439L230.439 161.415H224.459V173.373Z" fill="#7A2822"/>
<path d="M236.419 143.494H218.48C215.177 143.494 212.5 146.169 212.5 149.468V173.373H218.479V173.362H218.48V162.908C218.48 162.603 218.495 162.301 218.525 162.003C218.986 157.514 222.805 153.953 227.45 153.953C232.094 153.953 235.913 157.515 236.373 162.004C236.403 162.301 236.419 162.603 236.419 162.909V173.363H236.42V173.374H242.399V149.468C242.399 146.169 239.721 143.494 236.419 143.494Z" fill="#7A2822"/>
<path d="M401.642 110.242L397.96 120H396.49L392.808 110.242H394.166L397.232 118.656L400.298 110.242H401.642ZM410.039 115.87C410.039 116.113 410.025 116.369 409.997 116.64H403.865C403.912 117.396 404.168 117.989 404.635 118.418C405.111 118.838 405.685 119.048 406.357 119.048C406.908 119.048 407.365 118.922 407.729 118.67C408.102 118.409 408.364 118.063 408.513 117.634H409.885C409.68 118.371 409.269 118.973 408.653 119.44C408.037 119.897 407.272 120.126 406.357 120.126C405.629 120.126 404.976 119.963 404.397 119.636C403.828 119.309 403.38 118.847 403.053 118.25C402.726 117.643 402.563 116.943 402.563 116.15C402.563 115.357 402.722 114.661 403.039 114.064C403.356 113.467 403.8 113.009 404.369 112.692C404.948 112.365 405.61 112.202 406.357 112.202C407.085 112.202 407.729 112.361 408.289 112.678C408.849 112.995 409.278 113.434 409.577 113.994C409.885 114.545 410.039 115.17 410.039 115.87ZM408.723 115.604C408.723 115.119 408.616 114.703 408.401 114.358C408.186 114.003 407.892 113.737 407.519 113.56C407.155 113.373 406.749 113.28 406.301 113.28C405.657 113.28 405.106 113.485 404.649 113.896C404.201 114.307 403.944 114.876 403.879 115.604H408.723ZM415.459 112.188C416.392 112.188 417.148 112.473 417.727 113.042C418.305 113.602 418.595 114.414 418.595 115.478V120H417.335V115.66C417.335 114.895 417.143 114.311 416.761 113.91C416.378 113.499 415.855 113.294 415.193 113.294C414.521 113.294 413.984 113.504 413.583 113.924C413.191 114.344 412.995 114.955 412.995 115.758V120H411.721V112.328H412.995V113.42C413.247 113.028 413.587 112.725 414.017 112.51C414.455 112.295 414.936 112.188 415.459 112.188ZM420.2 116.136C420.2 115.352 420.358 114.666 420.676 114.078C420.993 113.481 421.427 113.019 421.978 112.692C422.538 112.365 423.163 112.202 423.854 112.202C424.451 112.202 425.006 112.342 425.52 112.622C426.033 112.893 426.425 113.252 426.696 113.7V109.64H427.984V120H426.696V118.558C426.444 119.015 426.07 119.393 425.576 119.692C425.081 119.981 424.502 120.126 423.84 120.126C423.158 120.126 422.538 119.958 421.978 119.622C421.427 119.286 420.993 118.815 420.676 118.208C420.358 117.601 420.2 116.911 420.2 116.136ZM426.696 116.15C426.696 115.571 426.579 115.067 426.346 114.638C426.112 114.209 425.795 113.882 425.394 113.658C425.002 113.425 424.568 113.308 424.092 113.308C423.616 113.308 423.182 113.42 422.79 113.644C422.398 113.868 422.085 114.195 421.852 114.624C421.618 115.053 421.502 115.557 421.502 116.136C421.502 116.724 421.618 117.237 421.852 117.676C422.085 118.105 422.398 118.437 422.79 118.67C423.182 118.894 423.616 119.006 424.092 119.006C424.568 119.006 425.002 118.894 425.394 118.67C425.795 118.437 426.112 118.105 426.346 117.676C426.579 117.237 426.696 116.729 426.696 116.15ZM435.457 114.33V115.408H429.871V114.33H435.457ZM440.564 120.126C439.976 120.126 439.448 120.028 438.982 119.832C438.515 119.627 438.146 119.347 437.876 118.992C437.605 118.628 437.456 118.213 437.428 117.746H438.744C438.781 118.129 438.958 118.441 439.276 118.684C439.602 118.927 440.027 119.048 440.55 119.048C441.035 119.048 441.418 118.941 441.698 118.726C441.978 118.511 442.118 118.241 442.118 117.914C442.118 117.578 441.968 117.331 441.67 117.172C441.371 117.004 440.909 116.841 440.284 116.682C439.714 116.533 439.248 116.383 438.884 116.234C438.529 116.075 438.221 115.847 437.96 115.548C437.708 115.24 437.582 114.839 437.582 114.344C437.582 113.952 437.698 113.593 437.932 113.266C438.165 112.939 438.496 112.683 438.926 112.496C439.355 112.3 439.845 112.202 440.396 112.202C441.245 112.202 441.931 112.417 442.454 112.846C442.976 113.275 443.256 113.863 443.294 114.61H442.02C441.992 114.209 441.828 113.887 441.53 113.644C441.24 113.401 440.848 113.28 440.354 113.28C439.896 113.28 439.532 113.378 439.262 113.574C438.991 113.77 438.856 114.027 438.856 114.344C438.856 114.596 438.935 114.806 439.094 114.974C439.262 115.133 439.467 115.263 439.71 115.366C439.962 115.459 440.307 115.567 440.746 115.688C441.296 115.837 441.744 115.987 442.09 116.136C442.435 116.276 442.729 116.491 442.972 116.78C443.224 117.069 443.354 117.447 443.364 117.914C443.364 118.334 443.247 118.712 443.014 119.048C442.78 119.384 442.449 119.65 442.02 119.846C441.6 120.033 441.114 120.126 440.564 120.126ZM454.388 112.188C454.985 112.188 455.517 112.314 455.984 112.566C456.451 112.809 456.819 113.177 457.09 113.672C457.361 114.167 457.496 114.769 457.496 115.478V120H456.236V115.66C456.236 114.895 456.045 114.311 455.662 113.91C455.289 113.499 454.78 113.294 454.136 113.294C453.473 113.294 452.946 113.509 452.554 113.938C452.162 114.358 451.966 114.969 451.966 115.772V120H450.706V115.66C450.706 114.895 450.515 114.311 450.132 113.91C449.759 113.499 449.25 113.294 448.606 113.294C447.943 113.294 447.416 113.509 447.024 113.938C446.632 114.358 446.436 114.969 446.436 115.772V120H445.162V112.328H446.436V113.434C446.688 113.033 447.024 112.725 447.444 112.51C447.873 112.295 448.345 112.188 448.858 112.188C449.502 112.188 450.071 112.333 450.566 112.622C451.061 112.911 451.429 113.336 451.672 113.896C451.887 113.355 452.241 112.935 452.736 112.636C453.231 112.337 453.781 112.188 454.388 112.188ZM459.11 116.136C459.11 115.352 459.268 114.666 459.586 114.078C459.903 113.481 460.337 113.019 460.888 112.692C461.448 112.365 462.068 112.202 462.75 112.202C463.422 112.202 464.005 112.347 464.5 112.636C464.994 112.925 465.363 113.289 465.606 113.728V112.328H466.894V120H465.606V118.572C465.354 119.02 464.976 119.393 464.472 119.692C463.977 119.981 463.398 120.126 462.736 120.126C462.054 120.126 461.438 119.958 460.888 119.622C460.337 119.286 459.903 118.815 459.586 118.208C459.268 117.601 459.11 116.911 459.11 116.136ZM465.606 116.15C465.606 115.571 465.489 115.067 465.256 114.638C465.022 114.209 464.705 113.882 464.304 113.658C463.912 113.425 463.478 113.308 463.002 113.308C462.526 113.308 462.092 113.42 461.7 113.644C461.308 113.868 460.995 114.195 460.762 114.624C460.528 115.053 460.412 115.557 460.412 116.136C460.412 116.724 460.528 117.237 460.762 117.676C460.995 118.105 461.308 118.437 461.7 118.67C462.092 118.894 462.526 119.006 463.002 119.006C463.478 119.006 463.912 118.894 464.304 118.67C464.705 118.437 465.022 118.105 465.256 117.676C465.489 117.237 465.606 116.729 465.606 116.15ZM470.321 109.64V120H469.047V109.64H470.321ZM473.766 109.64V120H472.492V109.64H473.766Z" fill="#1B1B1F"/>
<path d="M405.3 173.999H411.699L411.7 161.192H405.3V173.999Z" fill="#7A2822"/>
<path d="M418.1 142H398.9C395.366 142 392.5 144.864 392.5 148.397V173.999H398.899V173.987L398.9 162.792C398.9 162.464 398.917 162.141 398.949 161.822C399.442 157.015 403.53 153.201 408.5 153.201C413.471 153.201 417.558 157.015 418.051 161.823C418.083 162.142 418.1 162.465 418.1 162.792V173.988L418.101 174H424.5V148.397C424.5 144.864 421.634 142 418.1 142Z" fill="#7A2822"/>
</svg>
