<svg width="49" height="22" viewBox="0 0 49 22" fill="none" xmlns="http://www.w3.org/2000/svg">
<path d="M1.98506 16C1.77173 16 1.66506 15.8933 1.66506 15.68V4.96C1.66506 4.74667 1.77173 4.64 1.98506 4.64H2.48106C2.6944 4.64 2.80106 4.74667 2.80106 4.96V15.056H7.90506C8.1184 15.056 8.22506 15.1627 8.22506 15.376V15.68C8.22506 15.8933 8.1184 16 7.90506 16H1.98506ZM10.3761 6.112C10.1627 6.112 9.9814 6.03733 9.83206 5.888C9.6934 5.73867 9.62406 5.55733 9.62406 5.344C9.62406 5.13067 9.6934 4.95467 9.83206 4.816C9.9814 4.67733 10.1627 4.608 10.3761 4.608C10.6001 4.608 10.7814 4.67733 10.9201 4.816C11.0694 4.95467 11.1441 5.13067 11.1441 5.344C11.1441 5.55733 11.0694 5.73867 10.9201 5.888C10.7814 6.03733 10.6001 6.112 10.3761 6.112ZM10.1681 16C9.95473 16 9.84806 15.8933 9.84806 15.68V8.432C9.84806 8.21867 9.95473 8.112 10.1681 8.112H10.5841C10.7974 8.112 10.9041 8.21867 10.9041 8.432V15.68C10.9041 15.8933 10.7974 16 10.5841 16H10.1681ZM16.7743 7.92C17.7023 7.92 18.401 8.176 18.8703 8.688C19.3503 9.2 19.5903 9.84 19.5903 10.608V15.68C19.5903 15.8933 19.4836 16 19.2703 16H18.8543C18.641 16 18.5343 15.8933 18.5343 15.68V10.96C18.5343 10.256 18.3636 9.72267 18.0223 9.36C17.681 8.99733 17.1903 8.816 16.5503 8.816C16.145 8.816 15.7716 8.91733 15.4303 9.12C15.089 9.312 14.817 9.57867 14.6143 9.92C14.4116 10.2613 14.3103 10.6347 14.3103 11.04V15.68C14.3103 15.8933 14.2036 16 13.9903 16H13.5743C13.361 16 13.2543 15.8933 13.2543 15.68V8.432C13.2543 8.21867 13.361 8.112 13.5743 8.112H13.9263C14.1396 8.112 14.2463 8.21867 14.2463 8.432V9.2C14.513 8.77333 14.865 8.45333 15.3023 8.24C15.7396 8.02667 16.2303 7.92 16.7743 7.92ZM27.6222 16C27.4622 16 27.3342 15.9307 27.2382 15.792L24.5342 11.856L22.9822 13.44V15.68C22.9822 15.8933 22.8755 16 22.6622 16H22.2462C22.0329 16 21.9262 15.8933 21.9262 15.68V4.96C21.9262 4.74667 22.0329 4.64 22.2462 4.64H22.6622C22.8755 4.64 22.9822 4.74667 22.9822 4.96V12.24L26.8222 8.256C26.9182 8.14933 27.0515 8.096 27.2222 8.096H27.6702C27.7555 8.096 27.8195 8.11733 27.8622 8.16C27.9155 8.192 27.9422 8.23467 27.9422 8.288C27.9422 8.34133 27.9102 8.41067 27.8462 8.496L25.2702 11.184L28.2942 15.616C28.3369 15.6907 28.3582 15.7547 28.3582 15.808C28.3582 15.936 28.2729 16 28.1022 16H27.6222Z" fill="#0063FB"/>
<path d="M0.289062 18.672H28.7102V19.392H0.289062V18.672Z" fill="#0063FB"/>
<path d="M39 6L44 11L39 16" stroke="#0063FB" stroke-linecap="round" stroke-linejoin="round"/>
</svg>
