<svg width="45" height="18" viewBox="0 0 45 18" fill="none" xmlns="http://www.w3.org/2000/svg">
<path d="M1.54943 14C1.36276 14 1.26943 13.9067 1.26943 13.72V4.34C1.26943 4.15333 1.36276 4.06 1.54943 4.06H1.98343C2.1701 4.06 2.26343 4.15333 2.26343 4.34V13.174H6.72943C6.9161 13.174 7.00943 13.2673 7.00943 13.454V13.72C7.00943 13.9067 6.9161 14 6.72943 14H1.54943ZM8.89155 5.348C8.70489 5.348 8.54622 5.28267 8.41555 5.152C8.29422 5.02133 8.23355 4.86267 8.23355 4.676C8.23355 4.48933 8.29422 4.33533 8.41555 4.214C8.54622 4.09267 8.70489 4.032 8.89155 4.032C9.08755 4.032 9.24622 4.09267 9.36755 4.214C9.49822 4.33533 9.56355 4.48933 9.56355 4.676C9.56355 4.86267 9.49822 5.02133 9.36755 5.152C9.24622 5.28267 9.08755 5.348 8.89155 5.348ZM8.70955 14C8.52289 14 8.42955 13.9067 8.42955 13.72V7.378C8.42955 7.19133 8.52289 7.098 8.70955 7.098H9.07355C9.26022 7.098 9.35355 7.19133 9.35355 7.378V13.72C9.35355 13.9067 9.26022 14 9.07355 14H8.70955ZM14.49 6.93C15.302 6.93 15.9134 7.154 16.324 7.602C16.744 8.05 16.954 8.61 16.954 9.282V13.72C16.954 13.9067 16.8607 14 16.674 14H16.31C16.1234 14 16.03 13.9067 16.03 13.72V9.59C16.03 8.974 15.8807 8.50733 15.582 8.19C15.2834 7.87267 14.854 7.714 14.294 7.714C13.9394 7.714 13.6127 7.80267 13.314 7.98C13.0154 8.148 12.7774 8.38133 12.6 8.68C12.4227 8.97867 12.334 9.30533 12.334 9.66V13.72C12.334 13.9067 12.2407 14 12.054 14H11.69C11.5034 14 11.41 13.9067 11.41 13.72V7.378C11.41 7.19133 11.5034 7.098 11.69 7.098H11.998C12.1847 7.098 12.278 7.19133 12.278 7.378V8.05C12.5114 7.67667 12.8194 7.39667 13.202 7.21C13.5847 7.02333 14.014 6.93 14.49 6.93ZM23.9819 14C23.8419 14 23.7299 13.9393 23.6459 13.818L21.2799 10.374L19.9219 11.76V13.72C19.9219 13.9067 19.8286 14 19.6419 14H19.2779C19.0912 14 18.9979 13.9067 18.9979 13.72V4.34C18.9979 4.15333 19.0912 4.06 19.2779 4.06H19.6419C19.8286 4.06 19.9219 4.15333 19.9219 4.34V10.71L23.2819 7.224C23.3659 7.13067 23.4826 7.084 23.6319 7.084H24.0239C24.0986 7.084 24.1546 7.10267 24.1919 7.14C24.2386 7.168 24.2619 7.20533 24.2619 7.252C24.2619 7.29867 24.2339 7.35933 24.1779 7.434L21.9239 9.786L24.5699 13.664C24.6072 13.7293 24.6259 13.7853 24.6259 13.832C24.6259 13.944 24.5512 14 24.4019 14H23.9819Z" fill="#0063FB"/>
<path d="M0.0654297 16.338H24.9339V16.968H0.0654297V16.338Z" fill="#0063FB"/>
<path d="M35 4L40 9L35 14" stroke="#0063FB" stroke-linecap="round" stroke-linejoin="round"/>
</svg>
