<svg width="22" height="12" viewBox="0 0 22 12" fill="none" xmlns="http://www.w3.org/2000/svg">
<path d="M1.272 9C1.112 9 1.032 8.92 1.032 8.76V0.719999C1.032 0.559999 1.112 0.48 1.272 0.48H1.644C1.804 0.48 1.884 0.559999 1.884 0.719999V8.292H5.712C5.872 8.292 5.952 8.372 5.952 8.532V8.76C5.952 8.92 5.872 9 5.712 9H1.272ZM7.56525 1.584C7.40525 1.584 7.26925 1.528 7.15725 1.416C7.05325 1.304 7.00125 1.168 7.00125 1.008C7.00125 0.848 7.05325 0.715999 7.15725 0.611999C7.26925 0.508 7.40525 0.456 7.56525 0.456C7.73325 0.456 7.86925 0.508 7.97325 0.611999C8.08525 0.715999 8.14125 0.848 8.14125 1.008C8.14125 1.168 8.08525 1.304 7.97325 1.416C7.86925 1.528 7.73325 1.584 7.56525 1.584ZM7.40925 9C7.24925 9 7.16925 8.92 7.16925 8.76V3.324C7.16925 3.164 7.24925 3.084 7.40925 3.084H7.72125C7.88125 3.084 7.96125 3.164 7.96125 3.324V8.76C7.96125 8.92 7.88125 9 7.72125 9H7.40925ZM12.3639 2.94C13.0599 2.94 13.5839 3.132 13.9359 3.516C14.2959 3.9 14.4759 4.38 14.4759 4.956V8.76C14.4759 8.92 14.3959 9 14.2359 9H13.9239C13.7639 9 13.6839 8.92 13.6839 8.76V5.22C13.6839 4.692 13.5559 4.292 13.2999 4.02C13.0439 3.748 12.6759 3.612 12.1959 3.612C11.8919 3.612 11.6119 3.688 11.3559 3.84C11.0999 3.984 10.8959 4.184 10.7439 4.44C10.5919 4.696 10.5159 4.976 10.5159 5.28V8.76C10.5159 8.92 10.4359 9 10.2759 9H9.96394C9.80394 9 9.72394 8.92 9.72394 8.76V3.324C9.72394 3.164 9.80394 3.084 9.96394 3.084H10.2279C10.3879 3.084 10.4679 3.164 10.4679 3.324V3.9C10.6679 3.58 10.9319 3.34 11.2599 3.18C11.5879 3.02 11.9559 2.94 12.3639 2.94ZM20.4998 9C20.3798 9 20.2838 8.948 20.2118 8.844L18.1838 5.892L17.0198 7.08V8.76C17.0198 8.92 16.9398 9 16.7798 9H16.4678C16.3078 9 16.2278 8.92 16.2278 8.76V0.719999C16.2278 0.559999 16.3078 0.48 16.4678 0.48H16.7798C16.9398 0.48 17.0198 0.559999 17.0198 0.719999V6.18L19.8998 3.192C19.9718 3.112 20.0718 3.072 20.1998 3.072H20.5358C20.5998 3.072 20.6478 3.088 20.6798 3.12C20.7198 3.144 20.7398 3.176 20.7398 3.216C20.7398 3.256 20.7158 3.308 20.6678 3.372L18.7358 5.388L21.0038 8.712C21.0358 8.768 21.0518 8.816 21.0518 8.856C21.0518 8.952 20.9878 9 20.8598 9H20.4998Z" fill="#0063FB"/>
<path d="M0 11.004H21.3158V11.544H0V11.004Z" fill="#0063FB"/>
</svg>
