<svg width="300" height="200" viewBox="0 0 300 200" fill="none" xmlns="http://www.w3.org/2000/svg">
<rect width="300" height="200" fill="#F6F6F6"/>
<rect x="54.5" y="76" width="191" height="48" rx="8" fill="#0063FB"/>
<path d="M72.7373 105C72.5666 105 72.428 104.952 72.3213 104.856C72.2253 104.749 72.1773 104.611 72.1773 104.44V94.2C72.1773 94.0187 72.2253 93.88 72.3213 93.784C72.428 93.688 72.5666 93.64 72.7373 93.64H73.4413C73.6226 93.64 73.7613 93.688 73.8573 93.784C73.9533 93.88 74.0013 94.0187 74.0013 94.2V103.448H78.6253C78.8066 103.448 78.9453 103.496 79.0413 103.592C79.1373 103.688 79.1853 103.827 79.1853 104.008V104.44C79.1853 104.611 79.1373 104.749 79.0413 104.856C78.9453 104.952 78.8066 105 78.6253 105H72.7373ZM81.4728 95.576C81.1635 95.576 80.9021 95.4747 80.6888 95.272C80.4755 95.0587 80.3688 94.808 80.3688 94.52C80.3688 94.2213 80.4755 93.9707 80.6888 93.768C80.9021 93.5653 81.1635 93.464 81.4728 93.464C81.7821 93.464 82.0435 93.5653 82.2568 93.768C82.4701 93.9707 82.5768 94.2213 82.5768 94.52C82.5768 94.808 82.4701 95.0587 82.2568 95.272C82.0435 95.4747 81.7821 95.576 81.4728 95.576ZM81.1688 105C80.9981 105 80.8595 104.952 80.7528 104.856C80.6568 104.749 80.6088 104.611 80.6088 104.44V97.672C80.6088 97.4907 80.6568 97.352 80.7528 97.256C80.8595 97.16 80.9981 97.112 81.1688 97.112H81.7448C81.9261 97.112 82.0648 97.16 82.1608 97.256C82.2568 97.352 82.3048 97.4907 82.3048 97.672V104.44C82.3048 104.611 82.2568 104.749 82.1608 104.856C82.0648 104.952 81.9261 105 81.7448 105H81.1688ZM88.2811 96.872C89.1877 96.872 89.8811 97.128 90.3611 97.64C90.8517 98.1413 91.0971 98.792 91.0971 99.592V104.44C91.0971 104.611 91.0491 104.749 90.9531 104.856C90.8571 104.952 90.7184 105 90.5371 105H89.9611C89.7904 105 89.6517 104.952 89.5451 104.856C89.4491 104.749 89.4011 104.611 89.4011 104.44V100.12C89.4011 99.544 89.2571 99.1013 88.9691 98.792C88.6917 98.4827 88.2917 98.328 87.7691 98.328C87.2571 98.328 86.8251 98.504 86.4731 98.856C86.1317 99.208 85.9611 99.6507 85.9611 100.184V104.44C85.9611 104.611 85.9131 104.749 85.8171 104.856C85.7211 104.952 85.5824 105 85.4011 105H84.8251C84.6544 105 84.5157 104.952 84.4091 104.856C84.3131 104.749 84.2651 104.611 84.2651 104.44V97.672C84.2651 97.4907 84.3131 97.352 84.4091 97.256C84.5157 97.16 84.6544 97.112 84.8251 97.112H85.2891C85.4704 97.112 85.6091 97.16 85.7051 97.256C85.8011 97.352 85.8491 97.4907 85.8491 97.672V98.088C86.1051 97.6933 86.4411 97.3947 86.8571 97.192C87.2731 96.9787 87.7477 96.872 88.2811 96.872ZM98.8863 105C98.5876 105 98.3636 104.877 98.2143 104.632L96.0063 101.208L94.7423 102.488V104.44C94.7423 104.611 94.6943 104.749 94.5983 104.856C94.5023 104.952 94.3636 105 94.1823 105H93.6063C93.4356 105 93.297 104.952 93.1903 104.856C93.0943 104.749 93.0463 104.611 93.0463 104.44V94.2C93.0463 94.0187 93.0943 93.88 93.1903 93.784C93.297 93.688 93.4356 93.64 93.6063 93.64H94.1823C94.3636 93.64 94.5023 93.688 94.5983 93.784C94.6943 93.88 94.7423 94.0187 94.7423 94.2V100.616L97.7663 97.416C97.9583 97.2133 98.193 97.112 98.4703 97.112H99.0783C99.2383 97.112 99.3556 97.144 99.4303 97.208C99.5156 97.2613 99.5583 97.336 99.5583 97.432C99.5583 97.56 99.4996 97.6827 99.3823 97.8L97.1743 100.104L99.8943 104.328C99.969 104.445 100.006 104.552 100.006 104.648C100.006 104.755 99.9636 104.84 99.8783 104.904C99.793 104.968 99.6756 105 99.5263 105H98.8863ZM108.249 96.872C109.316 96.872 110.137 97.1227 110.713 97.624C111.289 98.1147 111.577 98.7707 111.577 99.592V104.44C111.577 104.611 111.529 104.749 111.433 104.856C111.337 104.952 111.199 105 111.017 105H110.601C110.431 105 110.292 104.952 110.185 104.856C110.089 104.749 110.041 104.611 110.041 104.44V104.088C109.785 104.461 109.433 104.749 108.985 104.952C108.537 105.155 108.015 105.256 107.417 105.256C106.596 105.256 105.919 105.075 105.385 104.712C104.863 104.339 104.601 103.779 104.601 103.032C104.601 102.2 104.911 101.587 105.529 101.192C106.159 100.787 107.028 100.483 108.137 100.28L109.945 99.944V99.656C109.945 99.2187 109.791 98.8827 109.481 98.648C109.183 98.4027 108.783 98.28 108.281 98.28C107.855 98.28 107.481 98.3547 107.161 98.504C106.852 98.6427 106.516 98.8773 106.153 99.208C106.015 99.3253 105.881 99.384 105.753 99.384C105.625 99.384 105.492 99.3253 105.353 99.208L105.097 98.984C104.959 98.856 104.889 98.7173 104.889 98.568C104.889 98.4293 104.953 98.296 105.081 98.168C105.54 97.7307 106.025 97.4053 106.537 97.192C107.049 96.9787 107.62 96.872 108.249 96.872ZM107.657 103.896C108.297 103.896 108.836 103.725 109.273 103.384C109.721 103.043 109.945 102.552 109.945 101.912V101.176L108.553 101.464C107.775 101.624 107.199 101.805 106.825 102.008C106.452 102.211 106.265 102.52 106.265 102.936C106.265 103.235 106.388 103.469 106.633 103.64C106.879 103.811 107.22 103.896 107.657 103.896ZM116.555 105.24C115.904 105.24 115.323 105.16 114.811 105C114.31 104.829 113.798 104.536 113.275 104.12C113.115 104.003 113.035 103.869 113.035 103.72C113.035 103.603 113.094 103.475 113.211 103.336L113.451 103.064C113.579 102.915 113.718 102.84 113.867 102.84C113.984 102.84 114.112 102.893 114.251 103C114.699 103.331 115.094 103.56 115.435 103.688C115.776 103.805 116.16 103.864 116.587 103.864C117.046 103.864 117.419 103.773 117.707 103.592C118.006 103.4 118.155 103.144 118.155 102.824C118.155 102.579 118.07 102.387 117.899 102.248C117.739 102.099 117.526 101.987 117.259 101.912C116.992 101.827 116.598 101.731 116.075 101.624C115.339 101.464 114.763 101.293 114.347 101.112C113.942 100.92 113.648 100.68 113.467 100.392C113.286 100.104 113.195 99.736 113.195 99.288C113.195 98.8293 113.323 98.4187 113.579 98.056C113.846 97.6933 114.214 97.4053 114.683 97.192C115.163 96.9787 115.723 96.872 116.363 96.872C116.939 96.872 117.451 96.936 117.899 97.064C118.358 97.192 118.806 97.4107 119.243 97.72C119.414 97.848 119.499 97.992 119.499 98.152C119.499 98.2587 119.446 98.3813 119.339 98.52L119.131 98.776C119.014 98.9253 118.87 99 118.699 99C118.571 99 118.448 98.9573 118.331 98.872C117.979 98.6373 117.654 98.4773 117.355 98.392C117.056 98.296 116.72 98.248 116.347 98.248C115.888 98.248 115.52 98.3387 115.243 98.52C114.966 98.7013 114.827 98.936 114.827 99.224C114.827 99.416 114.891 99.5707 115.019 99.688C115.158 99.7947 115.35 99.8907 115.595 99.976C115.851 100.051 116.251 100.147 116.795 100.264C117.531 100.424 118.112 100.605 118.539 100.808C118.976 101 119.296 101.251 119.499 101.56C119.712 101.859 119.819 102.248 119.819 102.728C119.819 103.475 119.52 104.083 118.923 104.552C118.336 105.011 117.547 105.24 116.555 105.24ZM129.051 96.904C129.723 96.904 130.32 97.0747 130.843 97.416C131.376 97.7573 131.792 98.2427 132.091 98.872C132.389 99.5013 132.539 100.227 132.539 101.048C132.539 101.88 132.389 102.611 132.091 103.24C131.792 103.869 131.376 104.355 130.843 104.696C130.309 105.037 129.712 105.208 129.051 105.208C127.941 105.208 127.109 104.824 126.555 104.056V107.272C126.555 107.453 126.507 107.592 126.411 107.688C126.315 107.784 126.176 107.832 125.995 107.832H125.419C125.248 107.832 125.109 107.784 125.003 107.688C124.907 107.592 124.859 107.453 124.859 107.272V97.672C124.859 97.4907 124.907 97.352 125.003 97.256C125.109 97.16 125.248 97.112 125.419 97.112H125.883C126.064 97.112 126.203 97.16 126.299 97.256C126.395 97.352 126.443 97.4907 126.443 97.672V98.264C127.008 97.3573 127.877 96.904 129.051 96.904ZM128.699 103.736C129.339 103.736 129.851 103.496 130.235 103.016C130.619 102.525 130.811 101.869 130.811 101.048C130.811 100.237 130.619 99.5867 130.235 99.096C129.861 98.6053 129.355 98.36 128.715 98.36C128.064 98.36 127.531 98.6 127.115 99.08C126.699 99.56 126.491 100.216 126.491 101.048C126.491 101.88 126.699 102.536 127.115 103.016C127.531 103.496 128.059 103.736 128.699 103.736ZM137.63 97.032C137.864 97.032 138.104 97.0587 138.35 97.112C138.638 97.176 138.782 97.3467 138.782 97.624C138.782 97.6987 138.776 97.752 138.766 97.784L138.686 98.168C138.622 98.4667 138.462 98.616 138.206 98.616L138.062 98.6C137.87 98.568 137.699 98.552 137.55 98.552C137.016 98.552 136.584 98.7653 136.254 99.192C135.934 99.608 135.774 100.189 135.774 100.936V104.44C135.774 104.611 135.726 104.749 135.63 104.856C135.534 104.952 135.395 105 135.214 105H134.638C134.467 105 134.328 104.952 134.222 104.856C134.126 104.749 134.078 104.611 134.078 104.44V97.672C134.078 97.4907 134.126 97.352 134.222 97.256C134.328 97.16 134.467 97.112 134.638 97.112H135.102C135.283 97.112 135.422 97.16 135.518 97.256C135.614 97.352 135.662 97.4907 135.662 97.672V98.296C135.854 97.9013 136.115 97.592 136.446 97.368C136.776 97.144 137.171 97.032 137.63 97.032ZM140.879 95.576C140.57 95.576 140.308 95.4747 140.095 95.272C139.882 95.0587 139.775 94.808 139.775 94.52C139.775 94.2213 139.882 93.9707 140.095 93.768C140.308 93.5653 140.57 93.464 140.879 93.464C141.188 93.464 141.45 93.5653 141.663 93.768C141.876 93.9707 141.983 94.2213 141.983 94.52C141.983 94.808 141.876 95.0587 141.663 95.272C141.45 95.4747 141.188 95.576 140.879 95.576ZM140.575 105C140.404 105 140.266 104.952 140.159 104.856C140.063 104.749 140.015 104.611 140.015 104.44V97.672C140.015 97.4907 140.063 97.352 140.159 97.256C140.266 97.16 140.404 97.112 140.575 97.112H141.151C141.332 97.112 141.471 97.16 141.567 97.256C141.663 97.352 141.711 97.4907 141.711 97.672V104.44C141.711 104.611 141.663 104.749 141.567 104.856C141.471 104.952 141.332 105 141.151 105H140.575ZM152.135 96.872C152.978 96.872 153.629 97.112 154.087 97.592C154.546 98.0613 154.775 98.696 154.775 99.496V104.44C154.775 104.611 154.727 104.749 154.631 104.856C154.535 104.952 154.397 105 154.215 105H153.639C153.469 105 153.33 104.952 153.223 104.856C153.127 104.749 153.079 104.611 153.079 104.44V100.008C153.079 99.4853 152.962 99.0747 152.727 98.776C152.493 98.4773 152.135 98.328 151.655 98.328C151.165 98.328 150.775 98.4933 150.487 98.824C150.21 99.1547 150.071 99.5813 150.071 100.104V104.44C150.071 104.611 150.023 104.749 149.927 104.856C149.831 104.952 149.693 105 149.511 105H148.935C148.765 105 148.626 104.952 148.519 104.856C148.423 104.749 148.375 104.611 148.375 104.44V100.008C148.375 99.4853 148.258 99.0747 148.023 98.776C147.799 98.4773 147.447 98.328 146.967 98.328C146.498 98.328 146.119 98.4827 145.831 98.792C145.543 99.1013 145.389 99.5013 145.367 99.992V104.44C145.367 104.611 145.319 104.749 145.223 104.856C145.127 104.952 144.989 105 144.807 105H144.231C144.061 105 143.922 104.952 143.815 104.856C143.719 104.749 143.671 104.611 143.671 104.44V97.672C143.671 97.4907 143.719 97.352 143.815 97.256C143.922 97.16 144.061 97.112 144.231 97.112H144.695C144.877 97.112 145.015 97.16 145.111 97.256C145.207 97.352 145.255 97.4907 145.255 97.672V98.024C145.746 97.256 146.503 96.872 147.527 96.872C148.039 96.872 148.487 96.9787 148.871 97.192C149.255 97.4053 149.549 97.704 149.751 98.088C150.295 97.2773 151.09 96.872 152.135 96.872ZM160.046 96.872C161.113 96.872 161.934 97.1227 162.51 97.624C163.086 98.1147 163.374 98.7707 163.374 99.592V104.44C163.374 104.611 163.326 104.749 163.23 104.856C163.134 104.952 162.996 105 162.814 105H162.398C162.228 105 162.089 104.952 161.982 104.856C161.886 104.749 161.838 104.611 161.838 104.44V104.088C161.582 104.461 161.23 104.749 160.782 104.952C160.334 105.155 159.812 105.256 159.214 105.256C158.393 105.256 157.716 105.075 157.182 104.712C156.66 104.339 156.398 103.779 156.398 103.032C156.398 102.2 156.708 101.587 157.326 101.192C157.956 100.787 158.825 100.483 159.934 100.28L161.742 99.944V99.656C161.742 99.2187 161.588 98.8827 161.278 98.648C160.98 98.4027 160.58 98.28 160.078 98.28C159.652 98.28 159.278 98.3547 158.958 98.504C158.649 98.6427 158.313 98.8773 157.95 99.208C157.812 99.3253 157.678 99.384 157.55 99.384C157.422 99.384 157.289 99.3253 157.15 99.208L156.894 98.984C156.756 98.856 156.686 98.7173 156.686 98.568C156.686 98.4293 156.75 98.296 156.878 98.168C157.337 97.7307 157.822 97.4053 158.334 97.192C158.846 96.9787 159.417 96.872 160.046 96.872ZM159.454 103.896C160.094 103.896 160.633 103.725 161.07 103.384C161.518 103.043 161.742 102.552 161.742 101.912V101.176L160.35 101.464C159.572 101.624 158.996 101.805 158.622 102.008C158.249 102.211 158.062 102.52 158.062 102.936C158.062 103.235 158.185 103.469 158.43 103.64C158.676 103.811 159.017 103.896 159.454 103.896ZM168.864 97.032C169.099 97.032 169.339 97.0587 169.584 97.112C169.872 97.176 170.016 97.3467 170.016 97.624C170.016 97.6987 170.011 97.752 170 97.784L169.92 98.168C169.856 98.4667 169.696 98.616 169.44 98.616L169.296 98.6C169.104 98.568 168.933 98.552 168.784 98.552C168.251 98.552 167.819 98.7653 167.488 99.192C167.168 99.608 167.008 100.189 167.008 100.936V104.44C167.008 104.611 166.96 104.749 166.864 104.856C166.768 104.952 166.629 105 166.448 105H165.872C165.701 105 165.563 104.952 165.456 104.856C165.36 104.749 165.312 104.611 165.312 104.44V97.672C165.312 97.4907 165.36 97.352 165.456 97.256C165.563 97.16 165.701 97.112 165.872 97.112H166.336C166.517 97.112 166.656 97.16 166.752 97.256C166.848 97.352 166.896 97.4907 166.896 97.672V98.296C167.088 97.9013 167.349 97.592 167.68 97.368C168.011 97.144 168.405 97.032 168.864 97.032ZM176.394 97.576C176.49 97.2667 176.698 97.112 177.018 97.112H177.594C177.754 97.112 177.877 97.1493 177.962 97.224C178.047 97.2987 178.09 97.4 178.09 97.528C178.09 97.592 178.074 97.6667 178.042 97.752L175.178 105.976C174.922 106.723 174.602 107.251 174.218 107.56C173.845 107.88 173.311 108.04 172.618 108.04C172.298 108.04 172.026 108.019 171.802 107.976C171.653 107.965 171.541 107.912 171.466 107.816C171.391 107.731 171.354 107.624 171.354 107.496C171.354 107.421 171.359 107.363 171.37 107.32L171.418 107.112C171.493 106.813 171.653 106.664 171.898 106.664C171.994 106.664 172.085 106.669 172.17 106.68C172.255 106.691 172.341 106.696 172.426 106.696C172.735 106.696 172.991 106.616 173.194 106.456C173.407 106.296 173.583 106.003 173.722 105.576L173.77 105.448L171.034 97.752C171.002 97.6667 170.986 97.5867 170.986 97.512C170.986 97.384 171.029 97.288 171.114 97.224C171.21 97.1493 171.338 97.112 171.498 97.112H172.106C172.437 97.112 172.65 97.2667 172.746 97.576L173.37 99.448C173.839 100.792 174.239 102.024 174.57 103.144L175.034 101.72C175.109 101.496 175.221 101.144 175.37 100.664C175.519 100.184 175.653 99.7733 175.77 99.432L176.394 97.576ZM187.082 96.904C187.754 96.904 188.351 97.0747 188.874 97.416C189.407 97.7573 189.823 98.2427 190.122 98.872C190.421 99.5013 190.57 100.227 190.57 101.048C190.57 101.88 190.421 102.611 190.122 103.24C189.823 103.869 189.407 104.355 188.874 104.696C188.341 105.037 187.743 105.208 187.082 105.208C185.898 105.208 185.029 104.765 184.474 103.88V104.44C184.474 104.611 184.426 104.749 184.33 104.856C184.234 104.952 184.095 105 183.914 105H183.45C183.279 105 183.141 104.952 183.034 104.856C182.938 104.749 182.89 104.611 182.89 104.44V94.2C182.89 94.0187 182.938 93.88 183.034 93.784C183.141 93.688 183.279 93.64 183.45 93.64H184.026C184.207 93.64 184.346 93.688 184.442 93.784C184.538 93.88 184.586 94.0187 184.586 94.2V98.104C185.151 97.304 185.983 96.904 187.082 96.904ZM186.73 103.736C187.37 103.736 187.882 103.496 188.266 103.016C188.65 102.525 188.842 101.869 188.842 101.048C188.842 100.237 188.65 99.5867 188.266 99.096C187.893 98.6053 187.386 98.36 186.746 98.36C186.095 98.36 185.562 98.6053 185.146 99.096C184.73 99.576 184.522 100.227 184.522 101.048C184.522 101.891 184.73 102.552 185.146 103.032C185.562 103.501 186.09 103.736 186.73 103.736ZM197.117 97.672C197.117 97.4907 197.165 97.352 197.261 97.256C197.367 97.16 197.506 97.112 197.677 97.112H198.253C198.434 97.112 198.573 97.16 198.669 97.256C198.765 97.352 198.813 97.4907 198.813 97.672V104.44C198.813 104.611 198.765 104.749 198.669 104.856C198.573 104.952 198.434 105 198.253 105H197.821C197.65 105 197.511 104.952 197.405 104.856C197.309 104.749 197.261 104.611 197.261 104.44V104.072C197.047 104.435 196.738 104.723 196.333 104.936C195.927 105.139 195.447 105.24 194.893 105.24C193.954 105.24 193.255 105.011 192.797 104.552C192.338 104.083 192.109 103.464 192.109 102.696V97.672C192.109 97.4907 192.157 97.352 192.253 97.256C192.359 97.16 192.498 97.112 192.669 97.112H193.245C193.426 97.112 193.565 97.16 193.661 97.256C193.757 97.352 193.805 97.4907 193.805 97.672V102.248C193.805 102.739 193.927 103.117 194.173 103.384C194.429 103.64 194.797 103.768 195.277 103.768C195.831 103.768 196.274 103.608 196.605 103.288C196.946 102.968 197.117 102.504 197.117 101.896V97.672ZM204.573 103.656C204.605 103.645 204.653 103.64 204.717 103.64C204.984 103.64 205.144 103.795 205.197 104.104L205.245 104.36C205.256 104.392 205.261 104.445 205.261 104.52C205.261 104.787 205.112 104.957 204.813 105.032C204.386 105.128 203.997 105.176 203.645 105.176C202.888 105.176 202.338 105 201.997 104.648C201.666 104.296 201.501 103.768 201.501 103.064V98.408H200.621C200.45 98.408 200.312 98.36 200.205 98.264C200.109 98.1573 200.061 98.0187 200.061 97.848V97.672C200.061 97.4907 200.109 97.352 200.205 97.256C200.312 97.16 200.45 97.112 200.621 97.112H201.501V95.128C201.501 94.9467 201.549 94.808 201.645 94.712C201.752 94.616 201.89 94.568 202.061 94.568H202.637C202.818 94.568 202.957 94.616 203.053 94.712C203.149 94.808 203.197 94.9467 203.197 95.128V97.112H204.637C204.818 97.112 204.957 97.16 205.053 97.256C205.149 97.352 205.197 97.4907 205.197 97.672V97.848C205.197 98.0187 205.149 98.1573 205.053 98.264C204.957 98.36 204.818 98.408 204.637 98.408H203.197V102.856C203.197 103.165 203.261 103.384 203.389 103.512C203.528 103.64 203.746 103.704 204.045 103.704C204.173 103.704 204.349 103.688 204.573 103.656ZM210.432 103.656C210.464 103.645 210.512 103.64 210.576 103.64C210.843 103.64 211.003 103.795 211.056 104.104L211.104 104.36C211.115 104.392 211.12 104.445 211.12 104.52C211.12 104.787 210.971 104.957 210.672 105.032C210.246 105.128 209.856 105.176 209.504 105.176C208.747 105.176 208.198 105 207.856 104.648C207.526 104.296 207.36 103.768 207.36 103.064V98.408H206.48C206.31 98.408 206.171 98.36 206.064 98.264C205.968 98.1573 205.92 98.0187 205.92 97.848V97.672C205.92 97.4907 205.968 97.352 206.064 97.256C206.171 97.16 206.31 97.112 206.48 97.112H207.36V95.128C207.36 94.9467 207.408 94.808 207.504 94.712C207.611 94.616 207.75 94.568 207.92 94.568H208.496C208.678 94.568 208.816 94.616 208.912 94.712C209.008 94.808 209.056 94.9467 209.056 95.128V97.112H210.496C210.678 97.112 210.816 97.16 210.912 97.256C211.008 97.352 211.056 97.4907 211.056 97.672V97.848C211.056 98.0187 211.008 98.1573 210.912 98.264C210.816 98.36 210.678 98.408 210.496 98.408H209.056V102.856C209.056 103.165 209.12 103.384 209.248 103.512C209.387 103.64 209.606 103.704 209.904 103.704C210.032 103.704 210.208 103.688 210.432 103.656ZM215.755 105.24C214.976 105.24 214.283 105.064 213.675 104.712C213.077 104.36 212.608 103.869 212.267 103.24C211.925 102.6 211.755 101.869 211.755 101.048C211.755 100.227 211.925 99.5013 212.267 98.872C212.608 98.2427 213.077 97.752 213.675 97.4C214.283 97.048 214.976 96.872 215.755 96.872C216.523 96.872 217.211 97.048 217.819 97.4C218.427 97.752 218.901 98.248 219.243 98.888C219.584 99.5173 219.755 100.237 219.755 101.048C219.755 101.869 219.584 102.6 219.243 103.24C218.901 103.869 218.427 104.36 217.819 104.712C217.211 105.064 216.523 105.24 215.755 105.24ZM215.755 103.816C216.437 103.816 216.987 103.565 217.403 103.064C217.819 102.552 218.027 101.88 218.027 101.048C218.027 100.227 217.819 99.5653 217.403 99.064C216.987 98.5627 216.437 98.312 215.755 98.312C215.072 98.312 214.523 98.5627 214.107 99.064C213.691 99.5653 213.483 100.227 213.483 101.048C213.483 101.88 213.691 102.552 214.107 103.064C214.523 103.565 215.072 103.816 215.755 103.816ZM225.265 96.872C226.172 96.872 226.865 97.128 227.345 97.64C227.836 98.1413 228.081 98.792 228.081 99.592V104.44C228.081 104.611 228.033 104.749 227.937 104.856C227.841 104.952 227.703 105 227.521 105H226.945C226.775 105 226.636 104.952 226.529 104.856C226.433 104.749 226.385 104.611 226.385 104.44V100.12C226.385 99.544 226.241 99.1013 225.953 98.792C225.676 98.4827 225.276 98.328 224.753 98.328C224.241 98.328 223.809 98.504 223.457 98.856C223.116 99.208 222.945 99.6507 222.945 100.184V104.44C222.945 104.611 222.897 104.749 222.801 104.856C222.705 104.952 222.567 105 222.385 105H221.809C221.639 105 221.5 104.952 221.393 104.856C221.297 104.749 221.249 104.611 221.249 104.44V97.672C221.249 97.4907 221.297 97.352 221.393 97.256C221.5 97.16 221.639 97.112 221.809 97.112H222.273C222.455 97.112 222.593 97.16 222.689 97.256C222.785 97.352 222.833 97.4907 222.833 97.672V98.088C223.089 97.6933 223.425 97.3947 223.841 97.192C224.257 96.9787 224.732 96.872 225.265 96.872Z" fill="white"/>
</svg>
