<svg width="332" height="226" viewBox="0 0 332 226" fill="none" xmlns="http://www.w3.org/2000/svg">
<rect width="332" height="226" fill="#F6F6F6"/>
<rect x="56.5" y="80.5" width="199" height="65" fill="#0D69D4" fill-opacity="0.2"/>
<rect x="56.5" y="80.5" width="199" height="65" stroke="#0D69D4"/>
<path d="M57.696 96C57.4827 96 57.376 95.8933 57.376 95.68V84.96C57.376 84.7467 57.4827 84.64 57.696 84.64H58.192C58.4053 84.64 58.512 84.7467 58.512 84.96V95.056H63.616C63.8293 95.056 63.936 95.1627 63.936 95.376V95.68C63.936 95.8933 63.8293 96 63.616 96H57.696ZM66.087 86.112C65.8737 86.112 65.6923 86.0373 65.543 85.888C65.4043 85.7387 65.335 85.5573 65.335 85.344C65.335 85.1307 65.4043 84.9547 65.543 84.816C65.6923 84.6773 65.8737 84.608 66.087 84.608C66.311 84.608 66.4923 84.6773 66.631 84.816C66.7803 84.9547 66.855 85.1307 66.855 85.344C66.855 85.5573 66.7803 85.7387 66.631 85.888C66.4923 86.0373 66.311 86.112 66.087 86.112ZM65.879 96C65.6657 96 65.559 95.8933 65.559 95.68V88.432C65.559 88.2187 65.6657 88.112 65.879 88.112H66.295C66.5083 88.112 66.615 88.2187 66.615 88.432V95.68C66.615 95.8933 66.5083 96 66.295 96H65.879ZM72.4852 87.92C73.4133 87.92 74.1119 88.176 74.5813 88.688C75.0613 89.2 75.3013 89.84 75.3013 90.608V95.68C75.3013 95.8933 75.1946 96 74.9813 96H74.5653C74.3519 96 74.2453 95.8933 74.2453 95.68V90.96C74.2453 90.256 74.0746 89.7227 73.7333 89.36C73.3919 88.9973 72.9013 88.816 72.2613 88.816C71.8559 88.816 71.4826 88.9173 71.1413 89.12C70.7999 89.312 70.5279 89.5787 70.3253 89.92C70.1226 90.2613 70.0213 90.6347 70.0213 91.04V95.68C70.0213 95.8933 69.9146 96 69.7013 96H69.2853C69.0719 96 68.9653 95.8933 68.9653 95.68V88.432C68.9653 88.2187 69.0719 88.112 69.2853 88.112H69.6373C69.8506 88.112 69.9573 88.2187 69.9573 88.432V89.2C70.2239 88.7733 70.5759 88.4533 71.0133 88.24C71.4506 88.0267 71.9413 87.92 72.4852 87.92ZM83.3331 96C83.1731 96 83.0451 95.9307 82.9491 95.792L80.2451 91.856L78.6931 93.44V95.68C78.6931 95.8933 78.5865 96 78.3731 96H77.9571C77.7438 96 77.6371 95.8933 77.6371 95.68V84.96C77.6371 84.7467 77.7438 84.64 77.9571 84.64H78.3731C78.5865 84.64 78.6931 84.7467 78.6931 84.96V92.24L82.5331 88.256C82.6291 88.1493 82.7625 88.096 82.9331 88.096H83.3811C83.4665 88.096 83.5305 88.1173 83.5731 88.16C83.6265 88.192 83.6531 88.2347 83.6531 88.288C83.6531 88.3413 83.6211 88.4107 83.5571 88.496L80.9811 91.184L84.0051 95.616C84.0478 95.6907 84.0691 95.7547 84.0691 95.808C84.0691 95.936 83.9838 96 83.8131 96H83.3331ZM98.0934 88.384C98.136 88.2027 98.2587 88.112 98.4614 88.112H98.8934C99.0107 88.112 99.0907 88.144 99.1334 88.208C99.1867 88.272 99.1974 88.3573 99.1654 88.464L97.1014 95.728C97.0587 95.9093 96.936 96 96.7334 96H96.0134C95.832 96 95.7147 95.9093 95.6614 95.728L94.9254 93.28C94.5414 92 94.184 90.688 93.8534 89.344C93.5334 90.6453 93.1814 91.968 92.7974 93.312L92.0934 95.728C92.0507 95.9093 91.928 96 91.7254 96H91.0374C90.8347 96 90.712 95.9093 90.6694 95.728L88.6054 88.464C88.5947 88.4427 88.5894 88.4053 88.5894 88.352C88.5894 88.2773 88.616 88.2187 88.6694 88.176C88.7227 88.1333 88.792 88.112 88.8774 88.112H89.3094C89.512 88.112 89.6347 88.2027 89.6774 88.384L90.4454 91.216C90.7974 92.5067 91.1227 93.792 91.4214 95.072C91.656 94.1227 92.0027 92.8373 92.4614 91.216L93.2774 88.384C93.32 88.2027 93.4427 88.112 93.6454 88.112H94.1254C94.3174 88.112 94.4347 88.2027 94.4774 88.384L95.3094 91.216C95.672 92.528 96.0134 93.8187 96.3334 95.088C96.5787 94.0213 96.9094 92.7307 97.3254 91.216L98.0934 88.384ZM101.368 86.112C101.155 86.112 100.974 86.0373 100.824 85.888C100.686 85.7387 100.616 85.5573 100.616 85.344C100.616 85.1307 100.686 84.9547 100.824 84.816C100.974 84.6773 101.155 84.608 101.368 84.608C101.592 84.608 101.774 84.6773 101.912 84.816C102.062 84.9547 102.136 85.1307 102.136 85.344C102.136 85.5573 102.062 85.7387 101.912 85.888C101.774 86.0373 101.592 86.112 101.368 86.112ZM101.16 96C100.947 96 100.84 95.8933 100.84 95.68V88.432C100.84 88.2187 100.947 88.112 101.16 88.112H101.576C101.79 88.112 101.896 88.2187 101.896 88.432V95.68C101.896 95.8933 101.79 96 101.576 96H101.16ZM107.799 95.12C107.831 95.1093 107.873 95.104 107.927 95.104C107.991 95.104 108.049 95.1253 108.103 95.168C108.156 95.2107 108.188 95.2693 108.199 95.344L108.247 95.568C108.257 95.5893 108.263 95.6267 108.263 95.68C108.263 95.8293 108.183 95.92 108.023 95.952C107.639 96.0693 107.228 96.128 106.791 96.128C106.097 96.128 105.601 95.9733 105.303 95.664C105.015 95.344 104.871 94.8853 104.871 94.288V88.912H103.687C103.473 88.912 103.367 88.8053 103.367 88.592V88.432C103.367 88.2187 103.473 88.112 103.687 88.112H104.871V85.68C104.871 85.4667 104.977 85.36 105.191 85.36H105.607C105.82 85.36 105.927 85.4667 105.927 85.68V88.112H107.847C108.06 88.112 108.167 88.2187 108.167 88.432V88.592C108.167 88.8053 108.06 88.912 107.847 88.912H105.927V94.16C105.927 94.5547 106.001 94.832 106.151 94.992C106.3 95.152 106.556 95.232 106.919 95.232C107.175 95.232 107.468 95.1947 107.799 95.12ZM113.298 87.92C114.215 87.92 114.914 88.1813 115.394 88.704C115.874 89.216 116.114 89.8507 116.114 90.608V95.68C116.114 95.8933 116.007 96 115.794 96H115.378C115.164 96 115.058 95.8933 115.058 95.68V90.96C115.058 90.256 114.887 89.7227 114.546 89.36C114.204 88.9973 113.714 88.816 113.074 88.816C112.668 88.816 112.295 88.9173 111.954 89.12C111.612 89.312 111.34 89.5787 111.138 89.92C110.935 90.2613 110.834 90.6347 110.834 91.04V95.68C110.834 95.8933 110.727 96 110.514 96H110.098C109.884 96 109.778 95.8933 109.778 95.68V84.96C109.778 84.7467 109.884 84.64 110.098 84.64H110.514C110.727 84.64 110.834 84.7467 110.834 84.96V89.136C111.09 88.7307 111.431 88.4267 111.858 88.224C112.295 88.0213 112.775 87.92 113.298 87.92ZM125.177 87.92C126.148 87.92 126.905 88.1547 127.449 88.624C127.993 89.0827 128.265 89.6907 128.265 90.448V95.68C128.265 95.8933 128.158 96 127.945 96H127.625C127.412 96 127.305 95.8933 127.305 95.68V94.96C127.038 95.3867 126.66 95.7067 126.169 95.92C125.689 96.1333 125.15 96.24 124.553 96.24C123.721 96.24 123.044 96.064 122.521 95.712C121.998 95.36 121.737 94.816 121.737 94.08C121.737 93.4933 121.902 93.024 122.233 92.672C122.564 92.3093 122.996 92.0373 123.529 91.856C124.062 91.664 124.729 91.4933 125.529 91.344L127.257 91.04V90.528C127.257 89.984 127.07 89.5627 126.697 89.264C126.324 88.9547 125.833 88.8 125.225 88.8C124.766 88.8 124.35 88.8853 123.977 89.056C123.604 89.2267 123.204 89.52 122.777 89.936C122.702 90.0107 122.622 90.048 122.537 90.048C122.462 90.048 122.393 90.016 122.329 89.952L122.121 89.76C122.046 89.6853 122.009 89.6053 122.009 89.52C122.009 89.424 122.046 89.3387 122.121 89.264C122.569 88.7947 123.038 88.4533 123.529 88.24C124.03 88.0267 124.58 87.92 125.177 87.92ZM124.601 95.36C125.369 95.36 126.004 95.1573 126.505 94.752C127.006 94.3467 127.257 93.8293 127.257 93.2V91.856L125.769 92.144C125.076 92.2827 124.526 92.416 124.121 92.544C123.716 92.672 123.39 92.8587 123.145 93.104C122.9 93.3493 122.777 93.6693 122.777 94.064C122.777 94.4693 122.937 94.7893 123.257 95.024C123.588 95.248 124.036 95.36 124.601 95.36ZM139.157 88.368C139.221 88.1973 139.344 88.112 139.525 88.112H139.941C140.027 88.112 140.096 88.1333 140.149 88.176C140.203 88.2187 140.229 88.2773 140.229 88.352L140.197 88.48L137.653 95.744C137.589 95.9147 137.467 96 137.285 96H136.437C136.256 96 136.133 95.9147 136.069 95.744L133.541 88.48L133.509 88.352C133.509 88.2773 133.536 88.2187 133.589 88.176C133.643 88.1333 133.712 88.112 133.797 88.112H134.229C134.411 88.112 134.533 88.1973 134.597 88.368L135.573 91.184C135.979 92.3573 136.411 93.7067 136.869 95.232C136.891 95.168 136.949 94.9867 137.045 94.688C137.483 93.248 137.861 92.08 138.181 91.184L139.157 88.368ZM147.444 94.128C147.518 94.0533 147.598 94.016 147.684 94.016C147.758 94.016 147.828 94.048 147.892 94.112L148.1 94.304C148.174 94.3787 148.212 94.4587 148.212 94.544C148.212 94.608 148.18 94.6827 148.116 94.768C147.593 95.2907 147.086 95.664 146.596 95.888C146.105 96.1013 145.556 96.208 144.948 96.208C144.18 96.208 143.513 96.0373 142.948 95.696C142.382 95.3547 141.945 94.88 141.636 94.272C141.326 93.6533 141.172 92.9387 141.172 92.128C141.172 91.3067 141.321 90.5813 141.62 89.952C141.929 89.312 142.361 88.816 142.916 88.464C143.47 88.1013 144.11 87.92 144.836 87.92C145.913 87.92 146.761 88.256 147.38 88.928C147.998 89.6 148.308 90.5067 148.308 91.648V91.84C148.297 91.936 148.26 92.0107 148.196 92.064C148.142 92.1173 148.068 92.144 147.972 92.144H142.244C142.276 93.04 142.51 93.7973 142.948 94.416C143.396 95.024 144.062 95.328 144.948 95.328C145.428 95.328 145.849 95.2427 146.212 95.072C146.585 94.8907 146.996 94.576 147.444 94.128ZM144.836 88.8C144.132 88.8 143.55 89.0187 143.092 89.456C142.644 89.8827 142.372 90.512 142.276 91.344H147.252C147.23 90.5653 147.006 89.9467 146.58 89.488C146.153 89.0293 145.572 88.8 144.836 88.8ZM153.144 88.048C153.41 88.048 153.725 88.0907 154.088 88.176C154.28 88.24 154.354 88.3733 154.312 88.576L154.248 88.832C154.194 89.0347 154.061 89.1093 153.848 89.056C153.592 88.992 153.357 88.96 153.144 88.96C152.6 88.96 152.146 89.1947 151.784 89.664C151.432 90.1333 151.256 90.784 151.256 91.616V95.68C151.256 95.8933 151.149 96 150.936 96H150.52C150.306 96 150.2 95.8933 150.2 95.68V88.432C150.2 88.2187 150.306 88.112 150.52 88.112H150.872C151.085 88.112 151.192 88.2187 151.192 88.432V89.312C151.373 88.9173 151.629 88.608 151.96 88.384C152.301 88.16 152.696 88.048 153.144 88.048ZM160.924 88.368C160.988 88.1973 161.11 88.112 161.292 88.112H161.724C161.809 88.112 161.878 88.1333 161.932 88.176C161.985 88.2187 162.012 88.2773 162.012 88.352L161.98 88.48L158.892 97.2C158.721 97.68 158.556 98.0533 158.396 98.32C158.236 98.5867 158.017 98.7893 157.74 98.928C157.473 99.0667 157.121 99.136 156.684 99.136C156.406 99.136 156.161 99.1147 155.948 99.072C155.841 99.0613 155.766 99.0187 155.724 98.944C155.692 98.8693 155.686 98.784 155.708 98.688L155.756 98.48C155.798 98.288 155.921 98.2027 156.124 98.224C156.316 98.256 156.481 98.272 156.62 98.272C156.961 98.272 157.228 98.176 157.42 97.984C157.622 97.792 157.814 97.4293 157.996 96.896L158.14 96.448L155.324 88.48L155.292 88.352C155.292 88.2773 155.318 88.2187 155.372 88.176C155.425 88.1333 155.494 88.112 155.58 88.112H156.044C156.214 88.112 156.332 88.1973 156.396 88.368L157.292 91.008C157.377 91.2747 157.59 91.9093 157.932 92.912L158.652 95.072C159.004 94.08 159.468 92.7147 160.044 90.976L160.924 88.368ZM167.473 96C167.26 96 167.153 95.8933 167.153 95.68V84.96C167.153 84.7467 167.26 84.64 167.473 84.64H167.889C168.102 84.64 168.209 84.7467 168.209 84.96V95.68C168.209 95.8933 168.102 96 167.889 96H167.473ZM173.854 96.208C173.118 96.208 172.462 96.032 171.886 95.68C171.31 95.328 170.862 94.8427 170.542 94.224C170.222 93.5947 170.062 92.8747 170.062 92.064C170.062 91.2533 170.222 90.5387 170.542 89.92C170.862 89.2907 171.31 88.8 171.886 88.448C172.462 88.096 173.118 87.92 173.854 87.92C174.59 87.92 175.246 88.096 175.822 88.448C176.398 88.8 176.846 89.2907 177.166 89.92C177.486 90.5387 177.646 91.2533 177.646 92.064C177.646 92.8747 177.486 93.5947 177.166 94.224C176.846 94.8427 176.398 95.328 175.822 95.68C175.246 96.032 174.59 96.208 173.854 96.208ZM173.854 95.328C174.676 95.328 175.332 95.0293 175.822 94.432C176.313 93.824 176.558 93.0347 176.558 92.064C176.558 91.0933 176.313 90.3093 175.822 89.712C175.332 89.104 174.676 88.8 173.854 88.8C173.033 88.8 172.377 89.104 171.886 89.712C171.396 90.3093 171.15 91.0933 171.15 92.064C171.15 93.0347 171.396 93.824 171.886 94.432C172.377 95.0293 173.033 95.328 173.854 95.328ZM183.001 87.92C183.929 87.92 184.628 88.176 185.097 88.688C185.577 89.2 185.817 89.84 185.817 90.608V95.68C185.817 95.8933 185.71 96 185.497 96H185.081C184.868 96 184.761 95.8933 184.761 95.68V90.96C184.761 90.256 184.59 89.7227 184.249 89.36C183.908 88.9973 183.417 88.816 182.777 88.816C182.372 88.816 181.998 88.9173 181.657 89.12C181.316 89.312 181.044 89.5787 180.841 89.92C180.638 90.2613 180.537 90.6347 180.537 91.04V95.68C180.537 95.8933 180.43 96 180.217 96H179.801C179.588 96 179.481 95.8933 179.481 95.68V88.432C179.481 88.2187 179.588 88.112 179.801 88.112H180.153C180.366 88.112 180.473 88.2187 180.473 88.432V89.2C180.74 88.7733 181.092 88.4533 181.529 88.24C181.966 88.0267 182.457 87.92 183.001 87.92ZM193.817 88.432C193.817 88.2187 193.923 88.112 194.137 88.112H194.473C194.686 88.112 194.793 88.2187 194.793 88.432V95.92C194.793 96.912 194.494 97.6907 193.897 98.256C193.299 98.832 192.462 99.12 191.385 99.12C190.222 99.12 189.15 98.7893 188.169 98.128C188.062 98.064 188.009 97.984 188.009 97.888C188.009 97.8133 188.03 97.7493 188.073 97.696L188.265 97.424C188.329 97.3173 188.414 97.264 188.521 97.264C188.563 97.264 188.627 97.2853 188.713 97.328C189.182 97.6267 189.619 97.8507 190.025 98C190.441 98.1493 190.894 98.224 191.385 98.224C192.089 98.224 192.659 98.0267 193.097 97.632C193.534 97.248 193.753 96.6507 193.753 95.84V94.56C193.177 95.488 192.302 95.952 191.129 95.952C190.446 95.952 189.843 95.7813 189.321 95.44C188.798 95.088 188.393 94.608 188.105 94C187.827 93.392 187.689 92.704 187.689 91.936C187.689 91.168 187.827 90.48 188.105 89.872C188.393 89.264 188.798 88.7893 189.321 88.448C189.843 88.096 190.446 87.92 191.129 87.92C191.747 87.92 192.281 88.0533 192.729 88.32C193.187 88.576 193.55 88.944 193.817 89.424V88.432ZM191.241 95.056C192.009 95.056 192.622 94.768 193.081 94.192C193.539 93.6053 193.769 92.8533 193.769 91.936C193.769 91.0187 193.539 90.272 193.081 89.696C192.622 89.1093 192.009 88.816 191.241 88.816C190.462 88.816 189.854 89.104 189.417 89.68C188.99 90.256 188.777 91.008 188.777 91.936C188.777 92.864 188.99 93.616 189.417 94.192C189.854 94.768 190.462 95.056 191.241 95.056ZM201.192 96C200.979 96 200.872 95.8933 200.872 95.68V84.96C200.872 84.7467 200.979 84.64 201.192 84.64H201.608C201.821 84.64 201.928 84.7467 201.928 84.96V95.68C201.928 95.8933 201.821 96 201.608 96H201.192ZM204.837 86.112C204.624 86.112 204.442 86.0373 204.293 85.888C204.154 85.7387 204.085 85.5573 204.085 85.344C204.085 85.1307 204.154 84.9547 204.293 84.816C204.442 84.6773 204.624 84.608 204.837 84.608C205.061 84.608 205.242 84.6773 205.381 84.816C205.53 84.9547 205.605 85.1307 205.605 85.344C205.605 85.5573 205.53 85.7387 205.381 85.888C205.242 86.0373 205.061 86.112 204.837 86.112ZM204.629 96C204.416 96 204.309 95.8933 204.309 95.68V88.432C204.309 88.2187 204.416 88.112 204.629 88.112H205.045C205.258 88.112 205.365 88.2187 205.365 88.432V95.68C205.365 95.8933 205.258 96 205.045 96H204.629ZM211.235 87.92C212.163 87.92 212.862 88.176 213.331 88.688C213.811 89.2 214.051 89.84 214.051 90.608V95.68C214.051 95.8933 213.945 96 213.731 96H213.315C213.102 96 212.995 95.8933 212.995 95.68V90.96C212.995 90.256 212.825 89.7227 212.483 89.36C212.142 88.9973 211.651 88.816 211.011 88.816C210.606 88.816 210.233 88.9173 209.891 89.12C209.55 89.312 209.278 89.5787 209.075 89.92C208.873 90.2613 208.771 90.6347 208.771 91.04V95.68C208.771 95.8933 208.665 96 208.451 96H208.035C207.822 96 207.715 95.8933 207.715 95.68V88.432C207.715 88.2187 207.822 88.112 208.035 88.112H208.387C208.601 88.112 208.707 88.2187 208.707 88.432V89.2C208.974 88.7733 209.326 88.4533 209.763 88.24C210.201 88.0267 210.691 87.92 211.235 87.92ZM222.083 96C221.923 96 221.795 95.9307 221.699 95.792L218.995 91.856L217.443 93.44V95.68C217.443 95.8933 217.336 96 217.123 96H216.707C216.494 96 216.387 95.8933 216.387 95.68V84.96C216.387 84.7467 216.494 84.64 216.707 84.64H217.123C217.336 84.64 217.443 84.7467 217.443 84.96V92.24L221.283 88.256C221.379 88.1493 221.512 88.096 221.683 88.096H222.131C222.216 88.096 222.28 88.1173 222.323 88.16C222.376 88.192 222.403 88.2347 222.403 88.288C222.403 88.3413 222.371 88.4107 222.307 88.496L219.731 91.184L222.755 95.616C222.798 95.6907 222.819 95.7547 222.819 95.808C222.819 95.936 222.734 96 222.563 96H222.083ZM231.595 95.12C231.627 95.1093 231.67 95.104 231.723 95.104C231.787 95.104 231.846 95.1253 231.899 95.168C231.953 95.2107 231.985 95.2693 231.995 95.344L232.043 95.568C232.054 95.5893 232.059 95.6267 232.059 95.68C232.059 95.8293 231.979 95.92 231.819 95.952C231.435 96.0693 231.025 96.128 230.587 96.128C229.894 96.128 229.398 95.9733 229.099 95.664C228.811 95.344 228.667 94.8853 228.667 94.288V88.912H227.483C227.27 88.912 227.163 88.8053 227.163 88.592V88.432C227.163 88.2187 227.27 88.112 227.483 88.112H228.667V85.68C228.667 85.4667 228.774 85.36 228.987 85.36H229.403C229.617 85.36 229.723 85.4667 229.723 85.68V88.112H231.643C231.857 88.112 231.963 88.2187 231.963 88.432V88.592C231.963 88.8053 231.857 88.912 231.643 88.912H229.723V94.16C229.723 94.5547 229.798 94.832 229.947 94.992C230.097 95.152 230.353 95.232 230.715 95.232C230.971 95.232 231.265 95.1947 231.595 95.12ZM239.022 94.128C239.096 94.0533 239.176 94.016 239.262 94.016C239.336 94.016 239.406 94.048 239.47 94.112L239.678 94.304C239.752 94.3787 239.79 94.4587 239.79 94.544C239.79 94.608 239.758 94.6827 239.694 94.768C239.171 95.2907 238.664 95.664 238.174 95.888C237.683 96.1013 237.134 96.208 236.526 96.208C235.758 96.208 235.091 96.0373 234.526 95.696C233.96 95.3547 233.523 94.88 233.214 94.272C232.904 93.6533 232.75 92.9387 232.75 92.128C232.75 91.3067 232.899 90.5813 233.198 89.952C233.507 89.312 233.939 88.816 234.494 88.464C235.048 88.1013 235.688 87.92 236.414 87.92C237.491 87.92 238.339 88.256 238.958 88.928C239.576 89.6 239.886 90.5067 239.886 91.648V91.84C239.875 91.936 239.838 92.0107 239.774 92.064C239.72 92.1173 239.646 92.144 239.55 92.144H233.822C233.854 93.04 234.088 93.7973 234.526 94.416C234.974 95.024 235.64 95.328 236.526 95.328C237.006 95.328 237.427 95.2427 237.79 95.072C238.163 94.8907 238.574 94.576 239.022 94.128ZM236.414 88.8C235.71 88.8 235.128 89.0187 234.67 89.456C234.222 89.8827 233.95 90.512 233.854 91.344H238.83C238.808 90.5653 238.584 89.9467 238.158 89.488C237.731 89.0293 237.15 88.8 236.414 88.8ZM247.367 95.616C247.409 95.6907 247.431 95.7547 247.431 95.808C247.431 95.936 247.345 96 247.175 96H246.695C246.535 96 246.407 95.9307 246.311 95.792L244.135 92.592L241.975 95.792C241.879 95.9307 241.751 96 241.591 96H241.143C241.057 96 240.988 95.984 240.935 95.952C240.892 95.9093 240.871 95.8613 240.871 95.808C240.871 95.7333 240.892 95.6693 240.935 95.616L243.527 91.888L241.143 88.496C241.1 88.4427 241.079 88.384 241.079 88.32C241.079 88.1813 241.169 88.112 241.351 88.112H241.815C241.975 88.112 242.103 88.1813 242.199 88.32L244.151 91.184L246.087 88.32C246.183 88.1813 246.311 88.112 246.471 88.112H246.903C246.988 88.112 247.052 88.1333 247.095 88.176C247.148 88.208 247.175 88.2507 247.175 88.304C247.175 88.3787 247.153 88.4427 247.111 88.496L244.775 91.84L247.367 95.616ZM252.674 95.12C252.706 95.1093 252.748 95.104 252.802 95.104C252.866 95.104 252.924 95.1253 252.978 95.168C253.031 95.2107 253.063 95.2693 253.074 95.344L253.122 95.568C253.132 95.5893 253.138 95.6267 253.138 95.68C253.138 95.8293 253.058 95.92 252.898 95.952C252.514 96.0693 252.103 96.128 251.666 96.128C250.972 96.128 250.476 95.9733 250.178 95.664C249.89 95.344 249.746 94.8853 249.746 94.288V88.912H248.562C248.348 88.912 248.242 88.8053 248.242 88.592V88.432C248.242 88.2187 248.348 88.112 248.562 88.112H249.746V85.68C249.746 85.4667 249.852 85.36 250.066 85.36H250.482C250.695 85.36 250.802 85.4667 250.802 85.68V88.112H252.722C252.935 88.112 253.042 88.2187 253.042 88.432V88.592C253.042 88.8053 252.935 88.912 252.722 88.912H250.802V94.16C250.802 94.5547 250.876 94.832 251.026 94.992C251.175 95.152 251.431 95.232 251.794 95.232C252.05 95.232 252.343 95.1947 252.674 95.12ZM65.984 110.384C66.0267 110.203 66.1493 110.112 66.352 110.112H66.784C66.9013 110.112 66.9813 110.144 67.024 110.208C67.0773 110.272 67.088 110.357 67.056 110.464L64.992 117.728C64.9493 117.909 64.8267 118 64.624 118H63.904C63.7227 118 63.6053 117.909 63.552 117.728L62.816 115.28C62.432 114 62.0747 112.688 61.744 111.344C61.424 112.645 61.072 113.968 60.688 115.312L59.984 117.728C59.9413 117.909 59.8187 118 59.616 118H58.928C58.7253 118 58.6027 117.909 58.56 117.728L56.496 110.464C56.4853 110.443 56.48 110.405 56.48 110.352C56.48 110.277 56.5067 110.219 56.56 110.176C56.6133 110.133 56.6827 110.112 56.768 110.112H57.2C57.4027 110.112 57.5253 110.203 57.568 110.384L58.336 113.216C58.688 114.507 59.0133 115.792 59.312 117.072C59.5467 116.123 59.8933 114.837 60.352 113.216L61.168 110.384C61.2107 110.203 61.3333 110.112 61.536 110.112H62.016C62.208 110.112 62.3253 110.203 62.368 110.384L63.2 113.216C63.5627 114.528 63.904 115.819 64.224 117.088C64.4693 116.021 64.8 114.731 65.216 113.216L65.984 110.384ZM69.2589 108.112C69.0455 108.112 68.8642 108.037 68.7149 107.888C68.5762 107.739 68.5069 107.557 68.5069 107.344C68.5069 107.131 68.5762 106.955 68.7149 106.816C68.8642 106.677 69.0455 106.608 69.2589 106.608C69.4829 106.608 69.6642 106.677 69.8029 106.816C69.9522 106.955 70.0269 107.131 70.0269 107.344C70.0269 107.557 69.9522 107.739 69.8029 107.888C69.6642 108.037 69.4829 108.112 69.2589 108.112ZM69.0509 118C68.8375 118 68.7309 117.893 68.7309 117.68V110.432C68.7309 110.219 68.8375 110.112 69.0509 110.112H69.4669C69.6802 110.112 69.7869 110.219 69.7869 110.432V117.68C69.7869 117.893 69.6802 118 69.4669 118H69.0509ZM75.6891 117.12C75.7211 117.109 75.7638 117.104 75.8171 117.104C75.8811 117.104 75.9398 117.125 75.9931 117.168C76.0465 117.211 76.0785 117.269 76.0891 117.344L76.1371 117.568C76.1478 117.589 76.1531 117.627 76.1531 117.68C76.1531 117.829 76.0731 117.92 75.9131 117.952C75.5291 118.069 75.1185 118.128 74.6811 118.128C73.9878 118.128 73.4918 117.973 73.1931 117.664C72.9051 117.344 72.7611 116.885 72.7611 116.288V110.912H71.5771C71.3638 110.912 71.2571 110.805 71.2571 110.592V110.432C71.2571 110.219 71.3638 110.112 71.5771 110.112H72.7611V107.68C72.7611 107.467 72.8678 107.36 73.0811 107.36H73.4971C73.7105 107.36 73.8171 107.467 73.8171 107.68V110.112H75.7371C75.9505 110.112 76.0571 110.219 76.0571 110.432V110.592C76.0571 110.805 75.9505 110.912 75.7371 110.912H73.8171V116.16C73.8171 116.555 73.8918 116.832 74.0411 116.992C74.1905 117.152 74.4465 117.232 74.8091 117.232C75.0651 117.232 75.3585 117.195 75.6891 117.12ZM81.1884 109.92C82.1057 109.92 82.8044 110.181 83.2844 110.704C83.7644 111.216 84.0044 111.851 84.0044 112.608V117.68C84.0044 117.893 83.8977 118 83.6844 118H83.2684C83.055 118 82.9484 117.893 82.9484 117.68V112.96C82.9484 112.256 82.7777 111.723 82.4364 111.36C82.095 110.997 81.6044 110.816 80.9644 110.816C80.559 110.816 80.1857 110.917 79.8444 111.12C79.503 111.312 79.231 111.579 79.0284 111.92C78.8257 112.261 78.7244 112.635 78.7244 113.04V117.68C78.7244 117.893 78.6177 118 78.4044 118H77.9884C77.775 118 77.6684 117.893 77.6684 117.68V106.96C77.6684 106.747 77.775 106.64 77.9884 106.64H78.4044C78.6177 106.64 78.7244 106.747 78.7244 106.96V111.136C78.9804 110.731 79.3217 110.427 79.7484 110.224C80.1857 110.021 80.6657 109.92 81.1884 109.92ZM90.5558 108.112C90.3424 108.112 90.1611 108.037 90.0118 107.888C89.8731 107.739 89.8038 107.557 89.8038 107.344C89.8038 107.131 89.8731 106.955 90.0118 106.816C90.1611 106.677 90.3424 106.608 90.5558 106.608C90.7798 106.608 90.9611 106.677 91.0998 106.816C91.2491 106.955 91.3238 107.131 91.3238 107.344C91.3238 107.557 91.2491 107.739 91.0998 107.888C90.9611 108.037 90.7798 108.112 90.5558 108.112ZM90.3478 118C90.1344 118 90.0278 117.893 90.0278 117.68V110.432C90.0278 110.219 90.1344 110.112 90.3478 110.112H90.7638C90.9771 110.112 91.0838 110.219 91.0838 110.432V117.68C91.0838 117.893 90.9771 118 90.7638 118H90.3478ZM96.634 118.208C95.8767 118.208 95.2153 118.037 94.65 117.696C94.0953 117.344 93.6633 116.859 93.354 116.24C93.0553 115.611 92.906 114.885 92.906 114.064C92.906 113.253 93.0553 112.533 93.354 111.904C93.6633 111.275 94.0953 110.789 94.65 110.448C95.2153 110.096 95.866 109.92 96.602 109.92C97.1993 109.92 97.722 110.021 98.17 110.224C98.618 110.416 99.05 110.736 99.466 111.184C99.53 111.248 99.562 111.317 99.562 111.392C99.562 111.488 99.5193 111.568 99.434 111.632L99.21 111.84C99.146 111.904 99.0713 111.936 98.986 111.936C98.9113 111.936 98.8313 111.893 98.746 111.808C98.3727 111.435 98.0153 111.173 97.674 111.024C97.3433 110.875 96.9753 110.8 96.57 110.8C96.0153 110.8 95.5407 110.955 95.146 111.264C94.762 111.573 94.474 111.979 94.282 112.48C94.09 112.971 93.994 113.499 93.994 114.064C93.994 114.629 94.09 115.163 94.282 115.664C94.474 116.155 94.7673 116.555 95.162 116.864C95.5567 117.163 96.042 117.312 96.618 117.312C97.0447 117.312 97.418 117.237 97.738 117.088C98.0687 116.928 98.4367 116.629 98.842 116.192C98.9273 116.107 99.0073 116.064 99.082 116.064C99.1673 116.064 99.242 116.096 99.306 116.16L99.53 116.336C99.6047 116.4 99.642 116.475 99.642 116.56C99.642 116.645 99.594 116.747 99.498 116.864C99.05 117.355 98.602 117.701 98.154 117.904C97.706 118.107 97.1993 118.208 96.634 118.208ZM104.464 118.208C103.728 118.208 103.072 118.032 102.496 117.68C101.92 117.328 101.472 116.843 101.152 116.224C100.832 115.595 100.672 114.875 100.672 114.064C100.672 113.253 100.832 112.539 101.152 111.92C101.472 111.291 101.92 110.8 102.496 110.448C103.072 110.096 103.728 109.92 104.464 109.92C105.2 109.92 105.856 110.096 106.432 110.448C107.008 110.8 107.456 111.291 107.776 111.92C108.096 112.539 108.256 113.253 108.256 114.064C108.256 114.875 108.096 115.595 107.776 116.224C107.456 116.843 107.008 117.328 106.432 117.68C105.856 118.032 105.2 118.208 104.464 118.208ZM104.464 117.328C105.285 117.328 105.941 117.029 106.432 116.432C106.922 115.824 107.168 115.035 107.168 114.064C107.168 113.093 106.922 112.309 106.432 111.712C105.941 111.104 105.285 110.8 104.464 110.8C103.642 110.8 102.986 111.104 102.496 111.712C102.005 112.309 101.76 113.093 101.76 114.064C101.76 115.035 102.005 115.824 102.496 116.432C102.986 117.029 103.642 117.328 104.464 117.328ZM113.61 109.92C114.538 109.92 115.237 110.176 115.706 110.688C116.186 111.2 116.426 111.84 116.426 112.608V117.68C116.426 117.893 116.32 118 116.106 118H115.69C115.477 118 115.37 117.893 115.37 117.68V112.96C115.37 112.256 115.2 111.723 114.858 111.36C114.517 110.997 114.026 110.816 113.386 110.816C112.981 110.816 112.608 110.917 112.266 111.12C111.925 111.312 111.653 111.579 111.45 111.92C111.248 112.261 111.146 112.635 111.146 113.04V117.68C111.146 117.893 111.04 118 110.826 118H110.41C110.197 118 110.09 117.893 110.09 117.68V110.432C110.09 110.219 110.197 110.112 110.41 110.112H110.762C110.976 110.112 111.082 110.219 111.082 110.432V111.2C111.349 110.773 111.701 110.453 112.138 110.24C112.576 110.027 113.066 109.92 113.61 109.92ZM119.194 118.112C118.97 118.112 118.778 118.032 118.618 117.872C118.458 117.712 118.378 117.52 118.378 117.296C118.378 117.072 118.458 116.88 118.618 116.72C118.778 116.56 118.97 116.48 119.194 116.48C119.418 116.48 119.61 116.56 119.77 116.72C119.93 116.88 120.01 117.072 120.01 117.296C120.01 117.52 119.93 117.712 119.77 117.872C119.61 118.032 119.418 118.112 119.194 118.112ZM126.04 118C125.826 118 125.72 117.893 125.72 117.68V106.96C125.72 106.747 125.826 106.64 126.04 106.64H132.76C132.973 106.64 133.08 106.747 133.08 106.96V107.264C133.08 107.477 132.973 107.584 132.76 107.584H126.856V111.696H132.312C132.525 111.696 132.632 111.803 132.632 112.016V112.304C132.632 112.517 132.525 112.624 132.312 112.624H126.856V117.056H132.888C133.101 117.056 133.208 117.163 133.208 117.376V117.68C133.208 117.893 133.101 118 132.888 118H126.04ZM140.914 117.616C140.956 117.691 140.978 117.755 140.978 117.808C140.978 117.936 140.892 118 140.722 118H140.242C140.082 118 139.954 117.931 139.858 117.792L137.682 114.592L135.522 117.792C135.426 117.931 135.298 118 135.138 118H134.69C134.604 118 134.535 117.984 134.482 117.952C134.439 117.909 134.418 117.861 134.418 117.808C134.418 117.733 134.439 117.669 134.482 117.616L137.074 113.888L134.69 110.496C134.647 110.443 134.626 110.384 134.626 110.32C134.626 110.181 134.716 110.112 134.898 110.112H135.362C135.522 110.112 135.65 110.181 135.746 110.32L137.698 113.184L139.634 110.32C139.73 110.181 139.858 110.112 140.018 110.112H140.45C140.535 110.112 140.599 110.133 140.642 110.176C140.695 110.208 140.722 110.251 140.722 110.304C140.722 110.379 140.7 110.443 140.658 110.496L138.322 113.84L140.914 117.616ZM146.22 117.12C146.252 117.109 146.295 117.104 146.348 117.104C146.412 117.104 146.471 117.125 146.524 117.168C146.578 117.211 146.61 117.269 146.62 117.344L146.668 117.568C146.679 117.589 146.684 117.627 146.684 117.68C146.684 117.829 146.604 117.92 146.444 117.952C146.06 118.069 145.65 118.128 145.212 118.128C144.519 118.128 144.023 117.973 143.724 117.664C143.436 117.344 143.292 116.885 143.292 116.288V110.912H142.108C141.895 110.912 141.788 110.805 141.788 110.592V110.432C141.788 110.219 141.895 110.112 142.108 110.112H143.292V107.68C143.292 107.467 143.399 107.36 143.612 107.36H144.028C144.242 107.36 144.348 107.467 144.348 107.68V110.112H146.268C146.482 110.112 146.588 110.219 146.588 110.432V110.592C146.588 110.805 146.482 110.912 146.268 110.912H144.348V116.16C144.348 116.555 144.423 116.832 144.572 116.992C144.722 117.152 144.978 117.232 145.34 117.232C145.596 117.232 145.89 117.195 146.22 117.12ZM151.144 110.048C151.41 110.048 151.725 110.091 152.088 110.176C152.28 110.24 152.354 110.373 152.312 110.576L152.248 110.832C152.194 111.035 152.061 111.109 151.848 111.056C151.592 110.992 151.357 110.96 151.144 110.96C150.6 110.96 150.146 111.195 149.784 111.664C149.432 112.133 149.256 112.784 149.256 113.616V117.68C149.256 117.893 149.149 118 148.936 118H148.52C148.306 118 148.2 117.893 148.2 117.68V110.432C148.2 110.219 148.306 110.112 148.52 110.112H148.872C149.085 110.112 149.192 110.219 149.192 110.432V111.312C149.373 110.917 149.629 110.608 149.96 110.384C150.301 110.16 150.696 110.048 151.144 110.048ZM156.583 109.92C157.554 109.92 158.311 110.155 158.855 110.624C159.399 111.083 159.671 111.691 159.671 112.448V117.68C159.671 117.893 159.565 118 159.351 118H159.031C158.818 118 158.711 117.893 158.711 117.68V116.96C158.445 117.387 158.066 117.707 157.575 117.92C157.095 118.133 156.557 118.24 155.959 118.24C155.127 118.24 154.45 118.064 153.927 117.712C153.405 117.36 153.143 116.816 153.143 116.08C153.143 115.493 153.309 115.024 153.639 114.672C153.97 114.309 154.402 114.037 154.935 113.856C155.469 113.664 156.135 113.493 156.935 113.344L158.663 113.04V112.528C158.663 111.984 158.477 111.563 158.103 111.264C157.73 110.955 157.239 110.8 156.631 110.8C156.173 110.8 155.757 110.885 155.383 111.056C155.01 111.227 154.61 111.52 154.183 111.936C154.109 112.011 154.029 112.048 153.943 112.048C153.869 112.048 153.799 112.016 153.735 111.952L153.527 111.76C153.453 111.685 153.415 111.605 153.415 111.52C153.415 111.424 153.453 111.339 153.527 111.264C153.975 110.795 154.445 110.453 154.935 110.24C155.437 110.027 155.986 109.92 156.583 109.92ZM156.007 117.36C156.775 117.36 157.41 117.157 157.911 116.752C158.413 116.347 158.663 115.829 158.663 115.2V113.856L157.175 114.144C156.482 114.283 155.933 114.416 155.527 114.544C155.122 114.672 154.797 114.859 154.551 115.104C154.306 115.349 154.183 115.669 154.183 116.064C154.183 116.469 154.343 116.789 154.663 117.024C154.994 117.248 155.442 117.36 156.007 117.36ZM166.036 118C165.822 118 165.716 117.893 165.716 117.68V106.96C165.716 106.747 165.822 106.64 166.036 106.64H166.452C166.665 106.64 166.772 106.747 166.772 106.96V117.68C166.772 117.893 166.665 118 166.452 118H166.036ZM172.417 118.208C171.681 118.208 171.025 118.032 170.449 117.68C169.873 117.328 169.425 116.843 169.105 116.224C168.785 115.595 168.625 114.875 168.625 114.064C168.625 113.253 168.785 112.539 169.105 111.92C169.425 111.291 169.873 110.8 170.449 110.448C171.025 110.096 171.681 109.92 172.417 109.92C173.153 109.92 173.809 110.096 174.385 110.448C174.961 110.8 175.409 111.291 175.729 111.92C176.049 112.539 176.209 113.253 176.209 114.064C176.209 114.875 176.049 115.595 175.729 116.224C175.409 116.843 174.961 117.328 174.385 117.68C173.809 118.032 173.153 118.208 172.417 118.208ZM172.417 117.328C173.238 117.328 173.894 117.029 174.385 116.432C174.875 115.824 175.121 115.035 175.121 114.064C175.121 113.093 174.875 112.309 174.385 111.712C173.894 111.104 173.238 110.8 172.417 110.8C171.595 110.8 170.939 111.104 170.449 111.712C169.958 112.309 169.713 113.093 169.713 114.064C169.713 115.035 169.958 115.824 170.449 116.432C170.939 117.029 171.595 117.328 172.417 117.328ZM181.563 109.92C182.491 109.92 183.19 110.176 183.659 110.688C184.139 111.2 184.379 111.84 184.379 112.608V117.68C184.379 117.893 184.273 118 184.059 118H183.643C183.43 118 183.323 117.893 183.323 117.68V112.96C183.323 112.256 183.153 111.723 182.811 111.36C182.47 110.997 181.979 110.816 181.339 110.816C180.934 110.816 180.561 110.917 180.219 111.12C179.878 111.312 179.606 111.579 179.403 111.92C179.201 112.261 179.099 112.635 179.099 113.04V117.68C179.099 117.893 178.993 118 178.779 118H178.363C178.15 118 178.043 117.893 178.043 117.68V110.432C178.043 110.219 178.15 110.112 178.363 110.112H178.715C178.929 110.112 179.035 110.219 179.035 110.432V111.2C179.302 110.773 179.654 110.453 180.091 110.24C180.529 110.027 181.019 109.92 181.563 109.92ZM192.379 110.432C192.379 110.219 192.486 110.112 192.699 110.112H193.035C193.249 110.112 193.355 110.219 193.355 110.432V117.92C193.355 118.912 193.057 119.691 192.459 120.256C191.862 120.832 191.025 121.12 189.947 121.12C188.785 121.12 187.713 120.789 186.731 120.128C186.625 120.064 186.571 119.984 186.571 119.888C186.571 119.813 186.593 119.749 186.635 119.696L186.827 119.424C186.891 119.317 186.977 119.264 187.083 119.264C187.126 119.264 187.19 119.285 187.275 119.328C187.745 119.627 188.182 119.851 188.587 120C189.003 120.149 189.457 120.224 189.947 120.224C190.651 120.224 191.222 120.027 191.659 119.632C192.097 119.248 192.315 118.651 192.315 117.84V116.56C191.739 117.488 190.865 117.952 189.691 117.952C189.009 117.952 188.406 117.781 187.883 117.44C187.361 117.088 186.955 116.608 186.667 116C186.39 115.392 186.251 114.704 186.251 113.936C186.251 113.168 186.39 112.48 186.667 111.872C186.955 111.264 187.361 110.789 187.883 110.448C188.406 110.096 189.009 109.92 189.691 109.92C190.31 109.92 190.843 110.053 191.291 110.32C191.75 110.576 192.113 110.944 192.379 111.424V110.432ZM189.803 117.056C190.571 117.056 191.185 116.768 191.643 116.192C192.102 115.605 192.331 114.853 192.331 113.936C192.331 113.019 192.102 112.272 191.643 111.696C191.185 111.109 190.571 110.816 189.803 110.816C189.025 110.816 188.417 111.104 187.979 111.68C187.553 112.256 187.339 113.008 187.339 113.936C187.339 114.864 187.553 115.616 187.979 116.192C188.417 116.768 189.025 117.056 189.803 117.056ZM202.97 117.12C203.002 117.109 203.045 117.104 203.098 117.104C203.162 117.104 203.221 117.125 203.274 117.168C203.328 117.211 203.36 117.269 203.37 117.344L203.418 117.568C203.429 117.589 203.434 117.627 203.434 117.68C203.434 117.829 203.354 117.92 203.194 117.952C202.81 118.069 202.4 118.128 201.962 118.128C201.269 118.128 200.773 117.973 200.474 117.664C200.186 117.344 200.042 116.885 200.042 116.288V110.912H198.858C198.645 110.912 198.538 110.805 198.538 110.592V110.432C198.538 110.219 198.645 110.112 198.858 110.112H200.042V107.68C200.042 107.467 200.149 107.36 200.362 107.36H200.778C200.992 107.36 201.098 107.467 201.098 107.68V110.112H203.018C203.232 110.112 203.338 110.219 203.338 110.432V110.592C203.338 110.805 203.232 110.912 203.018 110.912H201.098V116.16C201.098 116.555 201.173 116.832 201.322 116.992C201.472 117.152 201.728 117.232 202.09 117.232C202.346 117.232 202.64 117.195 202.97 117.12ZM210.397 116.128C210.471 116.053 210.551 116.016 210.637 116.016C210.711 116.016 210.781 116.048 210.845 116.112L211.053 116.304C211.127 116.379 211.165 116.459 211.165 116.544C211.165 116.608 211.133 116.683 211.069 116.768C210.546 117.291 210.039 117.664 209.549 117.888C209.058 118.101 208.509 118.208 207.901 118.208C207.133 118.208 206.466 118.037 205.901 117.696C205.335 117.355 204.898 116.88 204.589 116.272C204.279 115.653 204.125 114.939 204.125 114.128C204.125 113.307 204.274 112.581 204.573 111.952C204.882 111.312 205.314 110.816 205.869 110.464C206.423 110.101 207.063 109.92 207.789 109.92C208.866 109.92 209.714 110.256 210.333 110.928C210.951 111.6 211.261 112.507 211.261 113.648V113.84C211.25 113.936 211.213 114.011 211.149 114.064C211.095 114.117 211.021 114.144 210.925 114.144H205.197C205.229 115.04 205.463 115.797 205.901 116.416C206.349 117.024 207.015 117.328 207.901 117.328C208.381 117.328 208.802 117.243 209.165 117.072C209.538 116.891 209.949 116.576 210.397 116.128ZM207.789 110.8C207.085 110.8 206.503 111.019 206.045 111.456C205.597 111.883 205.325 112.512 205.229 113.344H210.205C210.183 112.565 209.959 111.947 209.533 111.488C209.106 111.029 208.525 110.8 207.789 110.8ZM218.742 117.616C218.784 117.691 218.806 117.755 218.806 117.808C218.806 117.936 218.72 118 218.55 118H218.07C217.91 118 217.782 117.931 217.686 117.792L215.51 114.592L213.35 117.792C213.254 117.931 213.126 118 212.966 118H212.518C212.432 118 212.363 117.984 212.31 117.952C212.267 117.909 212.246 117.861 212.246 117.808C212.246 117.733 212.267 117.669 212.31 117.616L214.902 113.888L212.518 110.496C212.475 110.443 212.454 110.384 212.454 110.32C212.454 110.181 212.544 110.112 212.726 110.112H213.19C213.35 110.112 213.478 110.181 213.574 110.32L215.526 113.184L217.462 110.32C217.558 110.181 217.686 110.112 217.846 110.112H218.278C218.363 110.112 218.427 110.133 218.47 110.176C218.523 110.208 218.55 110.251 218.55 110.304C218.55 110.379 218.528 110.443 218.486 110.496L216.15 113.84L218.742 117.616ZM224.049 117.12C224.081 117.109 224.123 117.104 224.177 117.104C224.241 117.104 224.299 117.125 224.353 117.168C224.406 117.211 224.438 117.269 224.449 117.344L224.497 117.568C224.507 117.589 224.513 117.627 224.513 117.68C224.513 117.829 224.433 117.92 224.273 117.952C223.889 118.069 223.478 118.128 223.041 118.128C222.347 118.128 221.851 117.973 221.553 117.664C221.265 117.344 221.121 116.885 221.121 116.288V110.912H219.937C219.723 110.912 219.617 110.805 219.617 110.592V110.432C219.617 110.219 219.723 110.112 219.937 110.112H221.121V107.68C221.121 107.467 221.227 107.36 221.441 107.36H221.857C222.07 107.36 222.177 107.467 222.177 107.68V110.112H224.097C224.31 110.112 224.417 110.219 224.417 110.432V110.592C224.417 110.805 224.31 110.912 224.097 110.912H222.177V116.16C222.177 116.555 222.251 116.832 222.401 116.992C222.55 117.152 222.806 117.232 223.169 117.232C223.425 117.232 223.718 117.195 224.049 117.12ZM226.772 118.112C226.548 118.112 226.356 118.032 226.196 117.872C226.036 117.712 225.956 117.52 225.956 117.296C225.956 117.072 226.036 116.88 226.196 116.72C226.356 116.56 226.548 116.48 226.772 116.48C226.996 116.48 227.188 116.56 227.348 116.72C227.508 116.88 227.588 117.072 227.588 117.296C227.588 117.52 227.508 117.712 227.348 117.872C227.188 118.032 226.996 118.112 226.772 118.112ZM57.696 140C57.4827 140 57.376 139.893 57.376 139.68V128.96C57.376 128.747 57.4827 128.64 57.696 128.64H58.192C58.4053 128.64 58.512 128.747 58.512 128.96V139.056H63.616C63.8293 139.056 63.936 139.163 63.936 139.376V139.68C63.936 139.893 63.8293 140 63.616 140H57.696ZM68.7136 140.208C67.9776 140.208 67.3216 140.032 66.7456 139.68C66.1696 139.328 65.7216 138.843 65.4016 138.224C65.0816 137.595 64.9216 136.875 64.9216 136.064C64.9216 135.253 65.0816 134.539 65.4016 133.92C65.7216 133.291 66.1696 132.8 66.7456 132.448C67.3216 132.096 67.9776 131.92 68.7136 131.92C69.4496 131.92 70.1056 132.096 70.6816 132.448C71.2576 132.8 71.7056 133.291 72.0256 133.92C72.3456 134.539 72.5056 135.253 72.5056 136.064C72.5056 136.875 72.3456 137.595 72.0256 138.224C71.7056 138.843 71.2576 139.328 70.6816 139.68C70.1056 140.032 69.4496 140.208 68.7136 140.208ZM68.7136 139.328C69.535 139.328 70.191 139.029 70.6816 138.432C71.1723 137.824 71.4176 137.035 71.4176 136.064C71.4176 135.093 71.1723 134.309 70.6816 133.712C70.191 133.104 69.535 132.8 68.7136 132.8C67.8923 132.8 67.2363 133.104 66.7456 133.712C66.255 134.309 66.0096 135.093 66.0096 136.064C66.0096 137.035 66.255 137.824 66.7456 138.432C67.2363 139.029 67.8923 139.328 68.7136 139.328ZM77.698 140.208C76.962 140.208 76.306 140.032 75.73 139.68C75.154 139.328 74.706 138.843 74.386 138.224C74.066 137.595 73.906 136.875 73.906 136.064C73.906 135.253 74.066 134.539 74.386 133.92C74.706 133.291 75.154 132.8 75.73 132.448C76.306 132.096 76.962 131.92 77.698 131.92C78.434 131.92 79.09 132.096 79.666 132.448C80.242 132.8 80.69 133.291 81.01 133.92C81.33 134.539 81.49 135.253 81.49 136.064C81.49 136.875 81.33 137.595 81.01 138.224C80.69 138.843 80.242 139.328 79.666 139.68C79.09 140.032 78.434 140.208 77.698 140.208ZM77.698 139.328C78.5193 139.328 79.1753 139.029 79.666 138.432C80.1567 137.824 80.402 137.035 80.402 136.064C80.402 135.093 80.1567 134.309 79.666 133.712C79.1753 133.104 78.5193 132.8 77.698 132.8C76.8767 132.8 76.2207 133.104 75.73 133.712C75.2393 134.309 74.994 135.093 74.994 136.064C74.994 137.035 75.2393 137.824 75.73 138.432C76.2207 139.029 76.8767 139.328 77.698 139.328ZM86.6824 140.208C85.9464 140.208 85.2904 140.032 84.7144 139.68C84.1384 139.328 83.6904 138.843 83.3704 138.224C83.0504 137.595 82.8904 136.875 82.8904 136.064C82.8904 135.253 83.0504 134.539 83.3704 133.92C83.6904 133.291 84.1384 132.8 84.7144 132.448C85.2904 132.096 85.9464 131.92 86.6824 131.92C87.4184 131.92 88.0744 132.096 88.6504 132.448C89.2264 132.8 89.6744 133.291 89.9944 133.92C90.3144 134.539 90.4744 135.253 90.4744 136.064C90.4744 136.875 90.3144 137.595 89.9944 138.224C89.6744 138.843 89.2264 139.328 88.6504 139.68C88.0744 140.032 87.4184 140.208 86.6824 140.208ZM86.6824 139.328C87.5037 139.328 88.1597 139.029 88.6504 138.432C89.141 137.824 89.3864 137.035 89.3864 136.064C89.3864 135.093 89.141 134.309 88.6504 133.712C88.1597 133.104 87.5037 132.8 86.6824 132.8C85.861 132.8 85.205 133.104 84.7144 133.712C84.2237 134.309 83.9784 135.093 83.9784 136.064C83.9784 137.035 84.2237 137.824 84.7144 138.432C85.205 139.029 85.861 139.328 86.6824 139.328ZM95.6668 140.208C94.9308 140.208 94.2748 140.032 93.6988 139.68C93.1228 139.328 92.6748 138.843 92.3548 138.224C92.0348 137.595 91.8748 136.875 91.8748 136.064C91.8748 135.253 92.0348 134.539 92.3548 133.92C92.6748 133.291 93.1228 132.8 93.6988 132.448C94.2748 132.096 94.9308 131.92 95.6668 131.92C96.4028 131.92 97.0588 132.096 97.6348 132.448C98.2108 132.8 98.6588 133.291 98.9788 133.92C99.2988 134.539 99.4588 135.253 99.4588 136.064C99.4588 136.875 99.2988 137.595 98.9788 138.224C98.6588 138.843 98.2108 139.328 97.6348 139.68C97.0588 140.032 96.4028 140.208 95.6668 140.208ZM95.6668 139.328C96.4881 139.328 97.1441 139.029 97.6348 138.432C98.1254 137.824 98.3708 137.035 98.3708 136.064C98.3708 135.093 98.1254 134.309 97.6348 133.712C97.1441 133.104 96.4881 132.8 95.6668 132.8C94.8454 132.8 94.1894 133.104 93.6988 133.712C93.2081 134.309 92.9628 135.093 92.9628 136.064C92.9628 137.035 93.2081 137.824 93.6988 138.432C94.1894 139.029 94.8454 139.328 95.6668 139.328ZM104.651 140.208C103.915 140.208 103.259 140.032 102.683 139.68C102.107 139.328 101.659 138.843 101.339 138.224C101.019 137.595 100.859 136.875 100.859 136.064C100.859 135.253 101.019 134.539 101.339 133.92C101.659 133.291 102.107 132.8 102.683 132.448C103.259 132.096 103.915 131.92 104.651 131.92C105.387 131.92 106.043 132.096 106.619 132.448C107.195 132.8 107.643 133.291 107.963 133.92C108.283 134.539 108.443 135.253 108.443 136.064C108.443 136.875 108.283 137.595 107.963 138.224C107.643 138.843 107.195 139.328 106.619 139.68C106.043 140.032 105.387 140.208 104.651 140.208ZM104.651 139.328C105.472 139.328 106.128 139.029 106.619 138.432C107.11 137.824 107.355 137.035 107.355 136.064C107.355 135.093 107.11 134.309 106.619 133.712C106.128 133.104 105.472 132.8 104.651 132.8C103.83 132.8 103.174 133.104 102.683 133.712C102.192 134.309 101.947 135.093 101.947 136.064C101.947 137.035 102.192 137.824 102.683 138.432C103.174 139.029 103.83 139.328 104.651 139.328ZM113.636 140.208C112.9 140.208 112.244 140.032 111.668 139.68C111.092 139.328 110.644 138.843 110.324 138.224C110.004 137.595 109.844 136.875 109.844 136.064C109.844 135.253 110.004 134.539 110.324 133.92C110.644 133.291 111.092 132.8 111.668 132.448C112.244 132.096 112.9 131.92 113.636 131.92C114.372 131.92 115.028 132.096 115.604 132.448C116.18 132.8 116.628 133.291 116.948 133.92C117.268 134.539 117.428 135.253 117.428 136.064C117.428 136.875 117.268 137.595 116.948 138.224C116.628 138.843 116.18 139.328 115.604 139.68C115.028 140.032 114.372 140.208 113.636 140.208ZM113.636 139.328C114.457 139.328 115.113 139.029 115.604 138.432C116.094 137.824 116.34 137.035 116.34 136.064C116.34 135.093 116.094 134.309 115.604 133.712C115.113 133.104 114.457 132.8 113.636 132.8C112.814 132.8 112.158 133.104 111.668 133.712C111.177 134.309 110.932 135.093 110.932 136.064C110.932 137.035 111.177 137.824 111.668 138.432C112.158 139.029 112.814 139.328 113.636 139.328ZM122.62 140.208C121.884 140.208 121.228 140.032 120.652 139.68C120.076 139.328 119.628 138.843 119.308 138.224C118.988 137.595 118.828 136.875 118.828 136.064C118.828 135.253 118.988 134.539 119.308 133.92C119.628 133.291 120.076 132.8 120.652 132.448C121.228 132.096 121.884 131.92 122.62 131.92C123.356 131.92 124.012 132.096 124.588 132.448C125.164 132.8 125.612 133.291 125.932 133.92C126.252 134.539 126.412 135.253 126.412 136.064C126.412 136.875 126.252 137.595 125.932 138.224C125.612 138.843 125.164 139.328 124.588 139.68C124.012 140.032 123.356 140.208 122.62 140.208ZM122.62 139.328C123.441 139.328 124.097 139.029 124.588 138.432C125.079 137.824 125.324 137.035 125.324 136.064C125.324 135.093 125.079 134.309 124.588 133.712C124.097 133.104 123.441 132.8 122.62 132.8C121.799 132.8 121.143 133.104 120.652 133.712C120.161 134.309 119.916 135.093 119.916 136.064C119.916 137.035 120.161 137.824 120.652 138.432C121.143 139.029 121.799 139.328 122.62 139.328ZM131.604 140.208C130.868 140.208 130.212 140.032 129.636 139.68C129.06 139.328 128.612 138.843 128.292 138.224C127.972 137.595 127.812 136.875 127.812 136.064C127.812 135.253 127.972 134.539 128.292 133.92C128.612 133.291 129.06 132.8 129.636 132.448C130.212 132.096 130.868 131.92 131.604 131.92C132.34 131.92 132.996 132.096 133.572 132.448C134.148 132.8 134.596 133.291 134.916 133.92C135.236 134.539 135.396 135.253 135.396 136.064C135.396 136.875 135.236 137.595 134.916 138.224C134.596 138.843 134.148 139.328 133.572 139.68C132.996 140.032 132.34 140.208 131.604 140.208ZM131.604 139.328C132.426 139.328 133.082 139.029 133.572 138.432C134.063 137.824 134.308 137.035 134.308 136.064C134.308 135.093 134.063 134.309 133.572 133.712C133.082 133.104 132.426 132.8 131.604 132.8C130.783 132.8 130.127 133.104 129.636 133.712C129.146 134.309 128.9 135.093 128.9 136.064C128.9 137.035 129.146 137.824 129.636 138.432C130.127 139.029 130.783 139.328 131.604 139.328ZM140.751 131.92C141.679 131.92 142.378 132.176 142.847 132.688C143.327 133.2 143.567 133.84 143.567 134.608V139.68C143.567 139.893 143.46 140 143.247 140H142.831C142.618 140 142.511 139.893 142.511 139.68V134.96C142.511 134.256 142.34 133.723 141.999 133.36C141.658 132.997 141.167 132.816 140.527 132.816C140.122 132.816 139.748 132.917 139.407 133.12C139.066 133.312 138.794 133.579 138.591 133.92C138.388 134.261 138.287 134.635 138.287 135.04V139.68C138.287 139.893 138.18 140 137.967 140H137.551C137.338 140 137.231 139.893 137.231 139.68V132.432C137.231 132.219 137.338 132.112 137.551 132.112H137.903C138.116 132.112 138.223 132.219 138.223 132.432V133.2C138.49 132.773 138.842 132.453 139.279 132.24C139.716 132.027 140.207 131.92 140.751 131.92ZM151.567 132.432C151.567 132.219 151.673 132.112 151.887 132.112H152.223C152.436 132.112 152.543 132.219 152.543 132.432V139.92C152.543 140.912 152.244 141.691 151.647 142.256C151.049 142.832 150.212 143.12 149.135 143.12C147.972 143.12 146.9 142.789 145.919 142.128C145.812 142.064 145.759 141.984 145.759 141.888C145.759 141.813 145.78 141.749 145.823 141.696L146.015 141.424C146.079 141.317 146.164 141.264 146.271 141.264C146.313 141.264 146.377 141.285 146.463 141.328C146.932 141.627 147.369 141.851 147.775 142C148.191 142.149 148.644 142.224 149.135 142.224C149.839 142.224 150.409 142.027 150.847 141.632C151.284 141.248 151.503 140.651 151.503 139.84V138.56C150.927 139.488 150.052 139.952 148.879 139.952C148.196 139.952 147.593 139.781 147.071 139.44C146.548 139.088 146.143 138.608 145.855 138C145.577 137.392 145.439 136.704 145.439 135.936C145.439 135.168 145.577 134.48 145.855 133.872C146.143 133.264 146.548 132.789 147.071 132.448C147.593 132.096 148.196 131.92 148.879 131.92C149.497 131.92 150.031 132.053 150.479 132.32C150.937 132.576 151.3 132.944 151.567 133.424V132.432ZM148.991 139.056C149.759 139.056 150.372 138.768 150.831 138.192C151.289 137.605 151.519 136.853 151.519 135.936C151.519 135.019 151.289 134.272 150.831 133.696C150.372 133.109 149.759 132.816 148.991 132.816C148.212 132.816 147.604 133.104 147.167 133.68C146.74 134.256 146.527 135.008 146.527 135.936C146.527 136.864 146.74 137.616 147.167 138.192C147.604 138.768 148.212 139.056 148.991 139.056ZM155.35 140.112C155.126 140.112 154.934 140.032 154.774 139.872C154.614 139.712 154.534 139.52 154.534 139.296C154.534 139.072 154.614 138.88 154.774 138.72C154.934 138.56 155.126 138.48 155.35 138.48C155.574 138.48 155.766 138.56 155.926 138.72C156.086 138.88 156.166 139.072 156.166 139.296C156.166 139.52 156.086 139.712 155.926 139.872C155.766 140.032 155.574 140.112 155.35 140.112Z" fill="#0063FB"/>
<path d="M56 98.672H253.469V99.392H56V98.672ZM56 120.672H228.234V121.392H56V120.672ZM56 142.672H156.966V143.392H56V142.672Z" fill="#0063FB"/>
<rect x="260.5" y="80.5" width="15" height="65" fill="#0D69D4" fill-opacity="0.2"/>
<rect x="260.5" y="80.5" width="15" height="65" stroke="#0D69D4"/>
<path d="M273.5 111.5L273.499 107.501L269.5 107.5M268.5 112.5L273.5 107.5M271.5 113.5V118C271.5 118.133 271.447 118.26 271.354 118.354C271.26 118.447 271.133 118.5 271 118.5H263C262.867 118.5 262.74 118.447 262.646 118.354C262.553 118.26 262.5 118.133 262.5 118V110C262.5 109.867 262.553 109.74 262.646 109.646C262.74 109.553 262.867 109.5 263 109.5H267.5" stroke="#0063FB" stroke-linecap="round" stroke-linejoin="round"/>
</svg>
