<svg width="332" height="182" viewBox="0 0 332 182" fill="none" xmlns="http://www.w3.org/2000/svg">
<rect width="332" height="182" fill="#F6F6F6"/>
<rect x="130" y="80.5" width="52" height="21" fill="#0D69D4" fill-opacity="0.2"/>
<rect x="130" y="80.5" width="52" height="21" stroke="#0D69D4"/>
<path d="M131.618 96C131.405 96 131.298 95.8933 131.298 95.68V84.96C131.298 84.7467 131.405 84.64 131.618 84.64H138.338C138.551 84.64 138.658 84.7467 138.658 84.96V85.264C138.658 85.4773 138.551 85.584 138.338 85.584H132.434V89.696H137.89C138.103 89.696 138.21 89.8027 138.21 90.016V90.304C138.21 90.5173 138.103 90.624 137.89 90.624H132.434V95.056H138.466C138.679 95.056 138.786 95.1627 138.786 95.376V95.68C138.786 95.8933 138.679 96 138.466 96H131.618ZM146.492 95.616C146.534 95.6907 146.556 95.7547 146.556 95.808C146.556 95.936 146.47 96 146.3 96H145.82C145.66 96 145.532 95.9307 145.436 95.792L143.26 92.592L141.1 95.792C141.004 95.9307 140.876 96 140.716 96H140.268C140.182 96 140.113 95.984 140.06 95.952C140.017 95.9093 139.996 95.8613 139.996 95.808C139.996 95.7333 140.017 95.6693 140.06 95.616L142.652 91.888L140.268 88.496C140.225 88.4427 140.204 88.384 140.204 88.32C140.204 88.1813 140.294 88.112 140.476 88.112H140.94C141.1 88.112 141.228 88.1813 141.324 88.32L143.276 91.184L145.212 88.32C145.308 88.1813 145.436 88.112 145.596 88.112H146.028C146.113 88.112 146.177 88.1333 146.22 88.176C146.273 88.208 146.3 88.2507 146.3 88.304C146.3 88.3787 146.278 88.4427 146.236 88.496L143.9 91.84L146.492 95.616ZM151.96 87.936C152.621 87.936 153.213 88.112 153.736 88.464C154.269 88.8053 154.685 89.2907 154.984 89.92C155.283 90.5387 155.432 91.248 155.432 92.048C155.432 92.8587 155.283 93.5787 154.984 94.208C154.685 94.8373 154.275 95.328 153.752 95.68C153.229 96.0213 152.632 96.192 151.96 96.192C150.723 96.192 149.816 95.7387 149.24 94.832V98.624C149.24 98.8373 149.133 98.944 148.92 98.944H148.504C148.291 98.944 148.184 98.8373 148.184 98.624V88.432C148.184 88.2187 148.291 88.112 148.504 88.112H148.856C149.069 88.112 149.176 88.2187 149.176 88.432V89.44C149.464 88.9493 149.843 88.576 150.312 88.32C150.781 88.064 151.331 87.936 151.96 87.936ZM151.88 95.296C152.627 95.296 153.224 94.9973 153.672 94.4C154.12 93.8027 154.344 93.0187 154.344 92.048C154.344 91.088 154.12 90.3147 153.672 89.728C153.224 89.1307 152.627 88.832 151.88 88.832C151.08 88.832 150.429 89.12 149.928 89.696C149.437 90.2613 149.192 91.0453 149.192 92.048C149.192 93.0507 149.443 93.8453 149.944 94.432C150.445 95.008 151.091 95.296 151.88 95.296ZM157.645 96C157.432 96 157.325 95.8933 157.325 95.68V84.96C157.325 84.7467 157.432 84.64 157.645 84.64H158.061C158.274 84.64 158.381 84.7467 158.381 84.96V95.68C158.381 95.8933 158.274 96 158.061 96H157.645ZM164.026 96.208C163.29 96.208 162.634 96.032 162.058 95.68C161.482 95.328 161.034 94.8427 160.714 94.224C160.394 93.5947 160.234 92.8747 160.234 92.064C160.234 91.2533 160.394 90.5387 160.714 89.92C161.034 89.2907 161.482 88.8 162.058 88.448C162.634 88.096 163.29 87.92 164.026 87.92C164.762 87.92 165.418 88.096 165.994 88.448C166.57 88.8 167.018 89.2907 167.338 89.92C167.658 90.5387 167.818 91.2533 167.818 92.064C167.818 92.8747 167.658 93.5947 167.338 94.224C167.018 94.8427 166.57 95.328 165.994 95.68C165.418 96.032 164.762 96.208 164.026 96.208ZM164.026 95.328C164.847 95.328 165.503 95.0293 165.994 94.432C166.485 93.824 166.73 93.0347 166.73 92.064C166.73 91.0933 166.485 90.3093 165.994 89.712C165.503 89.104 164.847 88.8 164.026 88.8C163.205 88.8 162.549 89.104 162.058 89.712C161.567 90.3093 161.322 91.0933 161.322 92.064C161.322 93.0347 161.567 93.824 162.058 94.432C162.549 95.0293 163.205 95.328 164.026 95.328ZM172.597 88.048C172.863 88.048 173.178 88.0907 173.541 88.176C173.733 88.24 173.807 88.3733 173.765 88.576L173.701 88.832C173.647 89.0347 173.514 89.1093 173.301 89.056C173.045 88.992 172.81 88.96 172.597 88.96C172.053 88.96 171.599 89.1947 171.237 89.664C170.885 90.1333 170.709 90.784 170.709 91.616V95.68C170.709 95.8933 170.602 96 170.389 96H169.973C169.759 96 169.653 95.8933 169.653 95.68V88.432C169.653 88.2187 169.759 88.112 169.973 88.112H170.325C170.538 88.112 170.645 88.2187 170.645 88.432V89.312C170.826 88.9173 171.082 88.608 171.413 88.384C171.754 88.16 172.149 88.048 172.597 88.048ZM180.506 94.128C180.581 94.0533 180.661 94.016 180.746 94.016C180.821 94.016 180.89 94.048 180.954 94.112L181.162 94.304C181.237 94.3787 181.274 94.4587 181.274 94.544C181.274 94.608 181.242 94.6827 181.178 94.768C180.655 95.2907 180.149 95.664 179.658 95.888C179.167 96.1013 178.618 96.208 178.01 96.208C177.242 96.208 176.575 96.0373 176.01 95.696C175.445 95.3547 175.007 94.88 174.698 94.272C174.389 93.6533 174.234 92.9387 174.234 92.128C174.234 91.3067 174.383 90.5813 174.682 89.952C174.991 89.312 175.423 88.816 175.978 88.464C176.533 88.1013 177.173 87.92 177.898 87.92C178.975 87.92 179.823 88.256 180.442 88.928C181.061 89.6 181.37 90.5067 181.37 91.648V91.84C181.359 91.936 181.322 92.0107 181.258 92.064C181.205 92.1173 181.13 92.144 181.034 92.144H175.306C175.338 93.04 175.573 93.7973 176.01 94.416C176.458 95.024 177.125 95.328 178.01 95.328C178.49 95.328 178.911 95.2427 179.274 95.072C179.647 94.8907 180.058 94.576 180.506 94.128ZM177.898 88.8C177.194 88.8 176.613 89.0187 176.154 89.456C175.706 89.8827 175.434 90.512 175.338 91.344H180.314C180.293 90.5653 180.069 89.9467 179.642 89.488C179.215 89.0293 178.634 88.8 177.898 88.8Z" fill="#0063FB"/>
<path d="M129.922 98.672H182.074V99.392H129.922V98.672Z" fill="#0063FB"/>
<rect x="187" y="80.5" width="15" height="21" fill="#0D69D4" fill-opacity="0.2"/>
<rect x="187" y="80.5" width="15" height="21" stroke="#0D69D4"/>
<path d="M200 89.5L199.999 85.5006L196 85.5M195 90.5L200 85.5M198 91.5V96C198 96.1326 197.947 96.2598 197.854 96.3536C197.76 96.4473 197.633 96.5 197.5 96.5H189.5C189.367 96.5 189.24 96.4473 189.146 96.3536C189.053 96.2598 189 96.1326 189 96V88C189 87.8674 189.053 87.7402 189.146 87.6464C189.24 87.5527 189.367 87.5 189.5 87.5H194" stroke="#0063FB" stroke-linecap="round" stroke-linejoin="round"/>
<path d="M182.5 80V140C182.5 141.105 183.395 142 184.5 142V142C185.605 142 186.5 141.105 186.5 140V80" stroke="#BE3830" stroke-width="2" stroke-dasharray="4 4"/>
<rect x="169" y="150" width="31" height="24" rx="4" fill="#BE3830"/>
<path d="M179.872 162.988C180.008 162.988 180.112 163.024 180.184 163.096C180.256 163.168 180.292 163.272 180.292 163.408V163.624C180.292 163.752 180.256 163.856 180.184 163.936C180.112 164.008 180.008 164.044 179.872 164.044H179.068V165.58C179.068 165.708 179.032 165.812 178.96 165.892C178.888 165.964 178.784 166 178.648 166H178.204C178.076 166 177.972 165.964 177.892 165.892C177.82 165.812 177.784 165.708 177.784 165.58V164.044H174.052C173.924 164.044 173.82 164.008 173.74 163.936C173.668 163.856 173.632 163.752 173.632 163.624V163.132C173.632 162.956 173.684 162.78 173.788 162.604L176.824 157.756C176.88 157.66 176.948 157.592 177.028 157.552C177.108 157.504 177.208 157.48 177.328 157.48H177.868C177.98 157.48 178.068 157.504 178.132 157.552C178.196 157.6 178.228 157.664 178.228 157.744C178.228 157.816 178.2 157.896 178.144 157.984L175 162.988H177.784V161.536C177.784 161.4 177.82 161.296 177.892 161.224C177.972 161.152 178.076 161.116 178.204 161.116H178.648C178.784 161.116 178.888 161.152 178.96 161.224C179.032 161.296 179.068 161.4 179.068 161.536V162.988H179.872ZM186.981 159.928C187.485 159.928 187.933 160.056 188.325 160.312C188.725 160.568 189.037 160.932 189.261 161.404C189.485 161.876 189.597 162.42 189.597 163.036C189.597 163.66 189.485 164.208 189.261 164.68C189.037 165.152 188.725 165.516 188.325 165.772C187.925 166.028 187.477 166.156 186.981 166.156C186.149 166.156 185.525 165.868 185.109 165.292V167.704C185.109 167.84 185.073 167.944 185.001 168.016C184.929 168.088 184.825 168.124 184.689 168.124H184.257C184.129 168.124 184.025 168.088 183.945 168.016C183.873 167.944 183.837 167.84 183.837 167.704V160.504C183.837 160.368 183.873 160.264 183.945 160.192C184.025 160.12 184.129 160.084 184.257 160.084H184.605C184.741 160.084 184.845 160.12 184.917 160.192C184.989 160.264 185.025 160.368 185.025 160.504V160.948C185.449 160.268 186.101 159.928 186.981 159.928ZM186.717 165.052C187.197 165.052 187.581 164.872 187.869 164.512C188.157 164.144 188.301 163.652 188.301 163.036C188.301 162.428 188.157 161.94 187.869 161.572C187.589 161.204 187.209 161.02 186.729 161.02C186.241 161.02 185.841 161.2 185.529 161.56C185.217 161.92 185.061 162.412 185.061 163.036C185.061 163.66 185.217 164.152 185.529 164.512C185.841 164.872 186.237 165.052 186.717 165.052ZM195.222 165.496C195.286 165.6 195.318 165.684 195.318 165.748C195.318 165.828 195.286 165.892 195.222 165.94C195.158 165.98 195.07 166 194.958 166H194.49C194.266 166 194.098 165.908 193.986 165.724L192.702 163.792L191.418 165.724C191.306 165.908 191.138 166 190.914 166H190.482C190.362 166 190.27 165.98 190.206 165.94C190.142 165.892 190.11 165.828 190.11 165.748C190.11 165.684 190.142 165.6 190.206 165.496L191.994 162.904L190.386 160.588C190.322 160.484 190.29 160.4 190.29 160.336C190.29 160.256 190.322 160.196 190.386 160.156C190.45 160.108 190.542 160.084 190.662 160.084H191.106C191.322 160.084 191.49 160.172 191.61 160.348L192.726 162.004L193.818 160.36C193.93 160.176 194.098 160.084 194.322 160.084H194.742C194.854 160.084 194.942 160.108 195.006 160.156C195.07 160.204 195.102 160.268 195.102 160.348C195.102 160.412 195.07 160.496 195.006 160.6L193.434 162.856L195.222 165.496Z" fill="white"/>
</svg>
