<svg width="300" height="200" viewBox="0 0 300 200" fill="none" xmlns="http://www.w3.org/2000/svg">
<rect width="300" height="200" fill="#F6F6F6"/>
<path d="M102.926 105C102.712 105 102.606 104.893 102.606 104.68V94.584H99.2617C99.0484 94.584 98.9417 94.4773 98.9417 94.264V93.96C98.9417 93.7467 99.0484 93.64 99.2617 93.64H107.07C107.283 93.64 107.39 93.7467 107.39 93.96V94.264C107.39 94.4773 107.283 94.584 107.07 94.584H103.742V104.68C103.742 104.893 103.635 105 103.422 105H102.926ZM112.602 96.92C113.52 96.92 114.218 97.1813 114.698 97.704C115.178 98.216 115.418 98.8507 115.418 99.608V104.68C115.418 104.893 115.312 105 115.098 105H114.682C114.469 105 114.362 104.893 114.362 104.68V99.96C114.362 99.256 114.192 98.7227 113.85 98.36C113.509 97.9973 113.018 97.816 112.378 97.816C111.973 97.816 111.6 97.9173 111.258 98.12C110.917 98.312 110.645 98.5787 110.442 98.92C110.24 99.2613 110.138 99.6347 110.138 100.04V104.68C110.138 104.893 110.032 105 109.818 105H109.402C109.189 105 109.082 104.893 109.082 104.68V93.96C109.082 93.7467 109.189 93.64 109.402 93.64H109.818C110.032 93.64 110.138 93.7467 110.138 93.96V98.136C110.394 97.7307 110.736 97.4267 111.162 97.224C111.6 97.0213 112.08 96.92 112.602 96.92ZM118.282 95.112C118.069 95.112 117.888 95.0373 117.738 94.888C117.6 94.7387 117.53 94.5573 117.53 94.344C117.53 94.1307 117.6 93.9547 117.738 93.816C117.888 93.6773 118.069 93.608 118.282 93.608C118.506 93.608 118.688 93.6773 118.826 93.816C118.976 93.9547 119.05 94.1307 119.05 94.344C119.05 94.5573 118.976 94.7387 118.826 94.888C118.688 95.0373 118.506 95.112 118.282 95.112ZM118.074 105C117.861 105 117.754 104.893 117.754 104.68V97.432C117.754 97.2187 117.861 97.112 118.074 97.112H118.49C118.704 97.112 118.81 97.2187 118.81 97.432V104.68C118.81 104.893 118.704 105 118.49 105H118.074ZM123.913 105.208C123.262 105.208 122.686 105.117 122.185 104.936C121.694 104.744 121.177 104.424 120.633 103.976C120.537 103.912 120.489 103.837 120.489 103.752C120.489 103.677 120.526 103.603 120.601 103.528L120.809 103.304C120.873 103.219 120.953 103.176 121.049 103.176C121.123 103.176 121.193 103.208 121.257 103.272C121.769 103.667 122.222 103.944 122.617 104.104C123.011 104.253 123.443 104.328 123.913 104.328C124.499 104.328 124.979 104.2 125.353 103.944C125.726 103.677 125.913 103.32 125.913 102.872C125.913 102.424 125.721 102.093 125.337 101.88C124.953 101.667 124.361 101.475 123.561 101.304C122.857 101.155 122.302 101 121.897 100.84C121.502 100.669 121.209 100.456 121.017 100.2C120.825 99.944 120.729 99.608 120.729 99.192C120.729 98.5093 121.006 97.96 121.561 97.544C122.115 97.128 122.814 96.92 123.657 96.92C124.233 96.92 124.745 96.9947 125.193 97.144C125.651 97.2827 126.11 97.5173 126.569 97.848C126.665 97.9227 126.713 98.0027 126.713 98.088C126.713 98.1413 126.686 98.2107 126.633 98.296L126.441 98.536C126.387 98.6213 126.313 98.664 126.217 98.664C126.131 98.664 126.057 98.6373 125.993 98.584C125.555 98.2747 125.166 98.0667 124.825 97.96C124.494 97.8533 124.115 97.8 123.689 97.8C123.102 97.8 122.633 97.928 122.281 98.184C121.929 98.44 121.753 98.7653 121.753 99.16C121.753 99.4053 121.833 99.6027 121.993 99.752C122.153 99.9013 122.382 100.029 122.681 100.136C122.979 100.232 123.417 100.344 123.993 100.472C125.059 100.707 125.817 100.995 126.265 101.336C126.723 101.677 126.953 102.173 126.953 102.824C126.953 103.539 126.67 104.115 126.105 104.552C125.539 104.989 124.809 105.208 123.913 105.208ZM132.954 95.112C132.741 95.112 132.56 95.0373 132.41 94.888C132.272 94.7387 132.202 94.5573 132.202 94.344C132.202 94.1307 132.272 93.9547 132.41 93.816C132.56 93.6773 132.741 93.608 132.954 93.608C133.178 93.608 133.36 93.6773 133.498 93.816C133.648 93.9547 133.722 94.1307 133.722 94.344C133.722 94.5573 133.648 94.7387 133.498 94.888C133.36 95.0373 133.178 95.112 132.954 95.112ZM132.746 105C132.533 105 132.426 104.893 132.426 104.68V97.432C132.426 97.2187 132.533 97.112 132.746 97.112H133.162C133.376 97.112 133.482 97.2187 133.482 97.432V104.68C133.482 104.893 133.376 105 133.162 105H132.746ZM138.584 105.208C137.934 105.208 137.358 105.117 136.856 104.936C136.366 104.744 135.848 104.424 135.304 103.976C135.208 103.912 135.16 103.837 135.16 103.752C135.16 103.677 135.198 103.603 135.272 103.528L135.48 103.304C135.544 103.219 135.624 103.176 135.72 103.176C135.795 103.176 135.864 103.208 135.928 103.272C136.44 103.667 136.894 103.944 137.288 104.104C137.683 104.253 138.115 104.328 138.584 104.328C139.171 104.328 139.651 104.2 140.024 103.944C140.398 103.677 140.584 103.32 140.584 102.872C140.584 102.424 140.392 102.093 140.008 101.88C139.624 101.667 139.032 101.475 138.232 101.304C137.528 101.155 136.974 101 136.568 100.84C136.174 100.669 135.88 100.456 135.688 100.2C135.496 99.944 135.4 99.608 135.4 99.192C135.4 98.5093 135.678 97.96 136.232 97.544C136.787 97.128 137.486 96.92 138.328 96.92C138.904 96.92 139.416 96.9947 139.864 97.144C140.323 97.2827 140.782 97.5173 141.24 97.848C141.336 97.9227 141.384 98.0027 141.384 98.088C141.384 98.1413 141.358 98.2107 141.304 98.296L141.112 98.536C141.059 98.6213 140.984 98.664 140.888 98.664C140.803 98.664 140.728 98.6373 140.664 98.584C140.227 98.2747 139.838 98.0667 139.496 97.96C139.166 97.8533 138.787 97.8 138.36 97.8C137.774 97.8 137.304 97.928 136.952 98.184C136.6 98.44 136.424 98.7653 136.424 99.16C136.424 99.4053 136.504 99.6027 136.664 99.752C136.824 99.9013 137.054 100.029 137.352 100.136C137.651 100.232 138.088 100.344 138.664 100.472C139.731 100.707 140.488 100.995 140.936 101.336C141.395 101.677 141.624 102.173 141.624 102.824C141.624 103.539 141.342 104.115 140.776 104.552C140.211 104.989 139.48 105.208 138.584 105.208ZM150.138 96.92C151.109 96.92 151.866 97.1547 152.41 97.624C152.954 98.0827 153.226 98.6907 153.226 99.448V104.68C153.226 104.893 153.119 105 152.906 105H152.586C152.373 105 152.266 104.893 152.266 104.68V103.96C151.999 104.387 151.621 104.707 151.13 104.92C150.65 105.133 150.111 105.24 149.514 105.24C148.682 105.24 148.005 105.064 147.482 104.712C146.959 104.36 146.698 103.816 146.698 103.08C146.698 102.493 146.863 102.024 147.194 101.672C147.525 101.309 147.957 101.037 148.49 100.856C149.023 100.664 149.69 100.493 150.49 100.344L152.218 100.04V99.528C152.218 98.984 152.031 98.5627 151.658 98.264C151.285 97.9547 150.794 97.8 150.186 97.8C149.727 97.8 149.311 97.8853 148.938 98.056C148.565 98.2267 148.165 98.52 147.738 98.936C147.663 99.0107 147.583 99.048 147.498 99.048C147.423 99.048 147.354 99.016 147.29 98.952L147.082 98.76C147.007 98.6853 146.97 98.6053 146.97 98.52C146.97 98.424 147.007 98.3387 147.082 98.264C147.53 97.7947 147.999 97.4533 148.49 97.24C148.991 97.0267 149.541 96.92 150.138 96.92ZM149.562 104.36C150.33 104.36 150.965 104.157 151.466 103.752C151.967 103.347 152.218 102.829 152.218 102.2V100.856L150.73 101.144C150.037 101.283 149.487 101.416 149.082 101.544C148.677 101.672 148.351 101.859 148.106 102.104C147.861 102.349 147.738 102.669 147.738 103.064C147.738 103.469 147.898 103.789 148.218 104.024C148.549 104.248 148.997 104.36 149.562 104.36ZM159.59 105C159.377 105 159.27 104.893 159.27 104.68V93.96C159.27 93.7467 159.377 93.64 159.59 93.64H160.006C160.22 93.64 160.326 93.7467 160.326 93.96V104.68C160.326 104.893 160.22 105 160.006 105H159.59ZM163.235 95.112C163.022 95.112 162.841 95.0373 162.691 94.888C162.553 94.7387 162.483 94.5573 162.483 94.344C162.483 94.1307 162.553 93.9547 162.691 93.816C162.841 93.6773 163.022 93.608 163.235 93.608C163.459 93.608 163.641 93.6773 163.779 93.816C163.929 93.9547 164.003 94.1307 164.003 94.344C164.003 94.5573 163.929 94.7387 163.779 94.888C163.641 95.0373 163.459 95.112 163.235 95.112ZM163.027 105C162.814 105 162.707 104.893 162.707 104.68V97.432C162.707 97.2187 162.814 97.112 163.027 97.112H163.443C163.657 97.112 163.763 97.2187 163.763 97.432V104.68C163.763 104.893 163.657 105 163.443 105H163.027ZM169.634 96.92C170.562 96.92 171.26 97.176 171.73 97.688C172.21 98.2 172.45 98.84 172.45 99.608V104.68C172.45 104.893 172.343 105 172.13 105H171.714C171.5 105 171.394 104.893 171.394 104.68V99.96C171.394 99.256 171.223 98.7227 170.882 98.36C170.54 97.9973 170.05 97.816 169.41 97.816C169.004 97.816 168.631 97.9173 168.29 98.12C167.948 98.312 167.676 98.5787 167.474 98.92C167.271 99.2613 167.17 99.6347 167.17 100.04V104.68C167.17 104.893 167.063 105 166.85 105H166.434C166.22 105 166.114 104.893 166.114 104.68V97.432C166.114 97.2187 166.22 97.112 166.434 97.112H166.786C166.999 97.112 167.106 97.2187 167.106 97.432V98.2C167.372 97.7733 167.724 97.4533 168.162 97.24C168.599 97.0267 169.09 96.92 169.634 96.92ZM180.482 105C180.322 105 180.194 104.931 180.098 104.792L177.394 100.856L175.842 102.44V104.68C175.842 104.893 175.735 105 175.522 105H175.106C174.892 105 174.786 104.893 174.786 104.68V93.96C174.786 93.7467 174.892 93.64 175.106 93.64H175.522C175.735 93.64 175.842 93.7467 175.842 93.96V101.24L179.682 97.256C179.778 97.1493 179.911 97.096 180.082 97.096H180.53C180.615 97.096 180.679 97.1173 180.722 97.16C180.775 97.192 180.802 97.2347 180.802 97.288C180.802 97.3413 180.77 97.4107 180.706 97.496L178.13 100.184L181.154 104.616C181.196 104.691 181.218 104.755 181.218 104.808C181.218 104.936 181.132 105 180.962 105H180.482Z" fill="#0063FB"/>
<path d="M98.4297 107.672H181.57V108.392H98.4297V107.672Z" fill="#0063FB"/>
<path d="M199.5 98.5L199.499 94.5006L195.5 94.5M194.5 99.5L199.5 94.5M197.5 100.5V105C197.5 105.133 197.447 105.26 197.354 105.354C197.26 105.447 197.133 105.5 197 105.5H189C188.867 105.5 188.74 105.447 188.646 105.354C188.553 105.26 188.5 105.133 188.5 105V97C188.5 96.8674 188.553 96.7402 188.646 96.6464C188.74 96.5527 188.867 96.5 189 96.5H193.5" stroke="#0063FB" stroke-linecap="round" stroke-linejoin="round"/>
</svg>
