<svg width="464" height="182" viewBox="0 0 464 182" fill="none" xmlns="http://www.w3.org/2000/svg">
<rect width="464" height="182" rx="8" fill="white"/>
<path d="M184.926 96C184.712 96 184.606 95.8933 184.606 95.68V85.584H181.262C181.048 85.584 180.942 85.4773 180.942 85.264V84.96C180.942 84.7467 181.048 84.64 181.262 84.64H189.07C189.283 84.64 189.39 84.7467 189.39 84.96V85.264C189.39 85.4773 189.283 85.584 189.07 85.584H185.742V95.68C185.742 95.8933 185.635 96 185.422 96H184.926ZM194.602 87.92C195.52 87.92 196.218 88.1813 196.698 88.704C197.178 89.216 197.418 89.8507 197.418 90.608V95.68C197.418 95.8933 197.312 96 197.098 96H196.682C196.469 96 196.362 95.8933 196.362 95.68V90.96C196.362 90.256 196.192 89.7227 195.85 89.36C195.509 88.9973 195.018 88.816 194.378 88.816C193.973 88.816 193.6 88.9173 193.258 89.12C192.917 89.312 192.645 89.5787 192.442 89.92C192.24 90.2613 192.138 90.6347 192.138 91.04V95.68C192.138 95.8933 192.032 96 191.818 96H191.402C191.189 96 191.082 95.8933 191.082 95.68V84.96C191.082 84.7467 191.189 84.64 191.402 84.64H191.818C192.032 84.64 192.138 84.7467 192.138 84.96V89.136C192.394 88.7307 192.736 88.4267 193.162 88.224C193.6 88.0213 194.08 87.92 194.602 87.92ZM200.282 86.112C200.069 86.112 199.888 86.0373 199.738 85.888C199.6 85.7387 199.53 85.5573 199.53 85.344C199.53 85.1307 199.6 84.9547 199.738 84.816C199.888 84.6773 200.069 84.608 200.282 84.608C200.506 84.608 200.688 84.6773 200.826 84.816C200.976 84.9547 201.05 85.1307 201.05 85.344C201.05 85.5573 200.976 85.7387 200.826 85.888C200.688 86.0373 200.506 86.112 200.282 86.112ZM200.074 96C199.861 96 199.754 95.8933 199.754 95.68V88.432C199.754 88.2187 199.861 88.112 200.074 88.112H200.49C200.704 88.112 200.81 88.2187 200.81 88.432V95.68C200.81 95.8933 200.704 96 200.49 96H200.074ZM205.913 96.208C205.262 96.208 204.686 96.1173 204.185 95.936C203.694 95.744 203.177 95.424 202.633 94.976C202.537 94.912 202.489 94.8373 202.489 94.752C202.489 94.6773 202.526 94.6027 202.601 94.528L202.809 94.304C202.873 94.2187 202.953 94.176 203.049 94.176C203.123 94.176 203.193 94.208 203.257 94.272C203.769 94.6667 204.222 94.944 204.617 95.104C205.011 95.2533 205.443 95.328 205.913 95.328C206.499 95.328 206.979 95.2 207.353 94.944C207.726 94.6773 207.913 94.32 207.913 93.872C207.913 93.424 207.721 93.0933 207.337 92.88C206.953 92.6667 206.361 92.4747 205.561 92.304C204.857 92.1547 204.302 92 203.897 91.84C203.502 91.6693 203.209 91.456 203.017 91.2C202.825 90.944 202.729 90.608 202.729 90.192C202.729 89.5093 203.006 88.96 203.561 88.544C204.115 88.128 204.814 87.92 205.657 87.92C206.233 87.92 206.745 87.9947 207.193 88.144C207.651 88.2827 208.11 88.5173 208.569 88.848C208.665 88.9227 208.713 89.0027 208.713 89.088C208.713 89.1413 208.686 89.2107 208.633 89.296L208.441 89.536C208.387 89.6213 208.313 89.664 208.217 89.664C208.131 89.664 208.057 89.6373 207.993 89.584C207.555 89.2747 207.166 89.0667 206.825 88.96C206.494 88.8533 206.115 88.8 205.689 88.8C205.102 88.8 204.633 88.928 204.281 89.184C203.929 89.44 203.753 89.7653 203.753 90.16C203.753 90.4053 203.833 90.6027 203.993 90.752C204.153 90.9013 204.382 91.0293 204.681 91.136C204.979 91.232 205.417 91.344 205.993 91.472C207.059 91.7067 207.817 91.9947 208.265 92.336C208.723 92.6773 208.953 93.1733 208.953 93.824C208.953 94.5387 208.67 95.1147 208.105 95.552C207.539 95.9893 206.809 96.208 205.913 96.208ZM214.954 86.112C214.741 86.112 214.56 86.0373 214.41 85.888C214.272 85.7387 214.202 85.5573 214.202 85.344C214.202 85.1307 214.272 84.9547 214.41 84.816C214.56 84.6773 214.741 84.608 214.954 84.608C215.178 84.608 215.36 84.6773 215.498 84.816C215.648 84.9547 215.722 85.1307 215.722 85.344C215.722 85.5573 215.648 85.7387 215.498 85.888C215.36 86.0373 215.178 86.112 214.954 86.112ZM214.746 96C214.533 96 214.426 95.8933 214.426 95.68V88.432C214.426 88.2187 214.533 88.112 214.746 88.112H215.162C215.376 88.112 215.482 88.2187 215.482 88.432V95.68C215.482 95.8933 215.376 96 215.162 96H214.746ZM220.584 96.208C219.934 96.208 219.358 96.1173 218.856 95.936C218.366 95.744 217.848 95.424 217.304 94.976C217.208 94.912 217.16 94.8373 217.16 94.752C217.16 94.6773 217.198 94.6027 217.272 94.528L217.48 94.304C217.544 94.2187 217.624 94.176 217.72 94.176C217.795 94.176 217.864 94.208 217.928 94.272C218.44 94.6667 218.894 94.944 219.288 95.104C219.683 95.2533 220.115 95.328 220.584 95.328C221.171 95.328 221.651 95.2 222.024 94.944C222.398 94.6773 222.584 94.32 222.584 93.872C222.584 93.424 222.392 93.0933 222.008 92.88C221.624 92.6667 221.032 92.4747 220.232 92.304C219.528 92.1547 218.974 92 218.568 91.84C218.174 91.6693 217.88 91.456 217.688 91.2C217.496 90.944 217.4 90.608 217.4 90.192C217.4 89.5093 217.678 88.96 218.232 88.544C218.787 88.128 219.486 87.92 220.328 87.92C220.904 87.92 221.416 87.9947 221.864 88.144C222.323 88.2827 222.782 88.5173 223.24 88.848C223.336 88.9227 223.384 89.0027 223.384 89.088C223.384 89.1413 223.358 89.2107 223.304 89.296L223.112 89.536C223.059 89.6213 222.984 89.664 222.888 89.664C222.803 89.664 222.728 89.6373 222.664 89.584C222.227 89.2747 221.838 89.0667 221.496 88.96C221.166 88.8533 220.787 88.8 220.36 88.8C219.774 88.8 219.304 88.928 218.952 89.184C218.6 89.44 218.424 89.7653 218.424 90.16C218.424 90.4053 218.504 90.6027 218.664 90.752C218.824 90.9013 219.054 91.0293 219.352 91.136C219.651 91.232 220.088 91.344 220.664 91.472C221.731 91.7067 222.488 91.9947 222.936 92.336C223.395 92.6773 223.624 93.1733 223.624 93.824C223.624 94.5387 223.342 95.1147 222.776 95.552C222.211 95.9893 221.48 96.208 220.584 96.208ZM232.138 87.92C233.109 87.92 233.866 88.1547 234.41 88.624C234.954 89.0827 235.226 89.6907 235.226 90.448V95.68C235.226 95.8933 235.119 96 234.906 96H234.586C234.373 96 234.266 95.8933 234.266 95.68V94.96C233.999 95.3867 233.621 95.7067 233.13 95.92C232.65 96.1333 232.111 96.24 231.514 96.24C230.682 96.24 230.005 96.064 229.482 95.712C228.959 95.36 228.698 94.816 228.698 94.08C228.698 93.4933 228.863 93.024 229.194 92.672C229.525 92.3093 229.957 92.0373 230.49 91.856C231.023 91.664 231.69 91.4933 232.49 91.344L234.218 91.04V90.528C234.218 89.984 234.031 89.5627 233.658 89.264C233.285 88.9547 232.794 88.8 232.186 88.8C231.727 88.8 231.311 88.8853 230.938 89.056C230.565 89.2267 230.165 89.52 229.738 89.936C229.663 90.0107 229.583 90.048 229.498 90.048C229.423 90.048 229.354 90.016 229.29 89.952L229.082 89.76C229.007 89.6853 228.97 89.6053 228.97 89.52C228.97 89.424 229.007 89.3387 229.082 89.264C229.53 88.7947 229.999 88.4533 230.49 88.24C230.991 88.0267 231.541 87.92 232.138 87.92ZM231.562 95.36C232.33 95.36 232.965 95.1573 233.466 94.752C233.967 94.3467 234.218 93.8293 234.218 93.2V91.856L232.73 92.144C232.037 92.2827 231.487 92.416 231.082 92.544C230.677 92.672 230.351 92.8587 230.106 93.104C229.861 93.3493 229.738 93.6693 229.738 94.064C229.738 94.4693 229.898 94.7893 230.218 95.024C230.549 95.248 230.997 95.36 231.562 95.36ZM241.59 96C241.377 96 241.27 95.8933 241.27 95.68V84.96C241.27 84.7467 241.377 84.64 241.59 84.64H242.006C242.22 84.64 242.326 84.7467 242.326 84.96V95.68C242.326 95.8933 242.22 96 242.006 96H241.59ZM245.235 86.112C245.022 86.112 244.841 86.0373 244.691 85.888C244.553 85.7387 244.483 85.5573 244.483 85.344C244.483 85.1307 244.553 84.9547 244.691 84.816C244.841 84.6773 245.022 84.608 245.235 84.608C245.459 84.608 245.641 84.6773 245.779 84.816C245.929 84.9547 246.003 85.1307 246.003 85.344C246.003 85.5573 245.929 85.7387 245.779 85.888C245.641 86.0373 245.459 86.112 245.235 86.112ZM245.027 96C244.814 96 244.707 95.8933 244.707 95.68V88.432C244.707 88.2187 244.814 88.112 245.027 88.112H245.443C245.657 88.112 245.763 88.2187 245.763 88.432V95.68C245.763 95.8933 245.657 96 245.443 96H245.027ZM251.634 87.92C252.562 87.92 253.26 88.176 253.73 88.688C254.21 89.2 254.45 89.84 254.45 90.608V95.68C254.45 95.8933 254.343 96 254.13 96H253.714C253.5 96 253.394 95.8933 253.394 95.68V90.96C253.394 90.256 253.223 89.7227 252.882 89.36C252.54 88.9973 252.05 88.816 251.41 88.816C251.004 88.816 250.631 88.9173 250.29 89.12C249.948 89.312 249.676 89.5787 249.474 89.92C249.271 90.2613 249.17 90.6347 249.17 91.04V95.68C249.17 95.8933 249.063 96 248.85 96H248.434C248.22 96 248.114 95.8933 248.114 95.68V88.432C248.114 88.2187 248.22 88.112 248.434 88.112H248.786C248.999 88.112 249.106 88.2187 249.106 88.432V89.2C249.372 88.7733 249.724 88.4533 250.162 88.24C250.599 88.0267 251.09 87.92 251.634 87.92ZM262.482 96C262.322 96 262.194 95.9307 262.098 95.792L259.394 91.856L257.842 93.44V95.68C257.842 95.8933 257.735 96 257.522 96H257.106C256.892 96 256.786 95.8933 256.786 95.68V84.96C256.786 84.7467 256.892 84.64 257.106 84.64H257.522C257.735 84.64 257.842 84.7467 257.842 84.96V92.24L261.682 88.256C261.778 88.1493 261.911 88.096 262.082 88.096H262.53C262.615 88.096 262.679 88.1173 262.722 88.16C262.775 88.192 262.802 88.2347 262.802 88.288C262.802 88.3413 262.77 88.4107 262.706 88.496L260.13 91.184L263.154 95.616C263.196 95.6907 263.218 95.7547 263.218 95.808C263.218 95.936 263.132 96 262.962 96H262.482Z" fill="#0063FB"/>
<path d="M180.43 98.672H263.57V99.392H180.43V98.672Z" fill="#0063FB"/>
<path d="M281.5 89.5L281.499 85.5006L277.5 85.5M276.5 90.5L281.5 85.5M279.5 91.5V96C279.5 96.1326 279.447 96.2598 279.354 96.3536C279.26 96.4473 279.133 96.5 279 96.5H271C270.867 96.5 270.74 96.4473 270.646 96.3536C270.553 96.2598 270.5 96.1326 270.5 96V88C270.5 87.8674 270.553 87.7402 270.646 87.6464C270.74 87.5527 270.867 87.5 271 87.5H275.5" stroke="#0063FB" stroke-linecap="round" stroke-linejoin="round"/>
<rect width="28" height="3" transform="translate(223.5 106) rotate(90)" fill="#BE3830"/>
<rect x="202" y="134" width="40" height="40" rx="20" fill="#BE3830"/>
<path d="M220.29 150.04V148.878H222.922V159H221.634V150.04H220.29Z" fill="white"/>
<rect width="28" height="3" transform="translate(277.5 106) rotate(90)" fill="#BE3830"/>
<rect x="255.5" y="134" width="41" height="40" rx="20" fill="#BE3830"/>
<path d="M272.688 157.978C273.873 157.026 274.802 156.247 275.474 155.64C276.146 155.024 276.71 154.385 277.168 153.722C277.634 153.05 277.868 152.392 277.868 151.748C277.868 151.141 277.718 150.665 277.42 150.32C277.13 149.965 276.659 149.788 276.006 149.788C275.371 149.788 274.876 149.989 274.522 150.39C274.176 150.782 273.99 151.309 273.962 151.972H272.73C272.767 150.927 273.084 150.119 273.682 149.55C274.279 148.981 275.049 148.696 275.992 148.696C276.953 148.696 277.714 148.962 278.274 149.494C278.843 150.026 279.128 150.759 279.128 151.692C279.128 152.467 278.894 153.223 278.428 153.96C277.97 154.688 277.448 155.332 276.86 155.892C276.272 156.443 275.52 157.087 274.606 157.824H279.422V158.888H272.688V157.978Z" fill="white"/>
</svg>
