<svg width="64" height="26" viewBox="0 0 64 26" fill="none" xmlns="http://www.w3.org/2000/svg">
<path d="M2.35633 20C2.08966 20 1.95633 19.8667 1.95633 19.6V6.2C1.95633 5.93333 2.08966 5.8 2.35633 5.8H2.97633C3.24299 5.8 3.37633 5.93333 3.37633 6.2V18.82H9.75633C10.023 18.82 10.1563 18.9533 10.1563 19.22V19.6C10.1563 19.8667 10.023 20 9.75633 20H2.35633ZM12.8451 7.64C12.5784 7.64 12.3517 7.54667 12.1651 7.36C11.9917 7.17333 11.9051 6.94667 11.9051 6.68C11.9051 6.41333 11.9917 6.19333 12.1651 6.02C12.3517 5.84667 12.5784 5.76 12.8451 5.76C13.1251 5.76 13.3517 5.84667 13.5251 6.02C13.7117 6.19333 13.8051 6.41333 13.8051 6.68C13.8051 6.94667 13.7117 7.17333 13.5251 7.36C13.3517 7.54667 13.1251 7.64 12.8451 7.64ZM12.5851 20C12.3184 20 12.1851 19.8667 12.1851 19.6V10.54C12.1851 10.2733 12.3184 10.14 12.5851 10.14H13.1051C13.3717 10.14 13.5051 10.2733 13.5051 10.54V19.6C13.5051 19.8667 13.3717 20 13.1051 20H12.5851ZM20.8429 9.9C22.0029 9.9 22.8762 10.22 23.4629 10.86C24.0629 11.5 24.3629 12.3 24.3629 13.26V19.6C24.3629 19.8667 24.2296 20 23.9629 20H23.4429C23.1762 20 23.0429 19.8667 23.0429 19.6V13.7C23.0429 12.82 22.8296 12.1533 22.4029 11.7C21.9762 11.2467 21.3629 11.02 20.5629 11.02C20.0562 11.02 19.5896 11.1467 19.1629 11.4C18.7362 11.64 18.3962 11.9733 18.1429 12.4C17.8896 12.8267 17.7629 13.2933 17.7629 13.8V19.6C17.7629 19.8667 17.6296 20 17.3629 20H16.8429C16.5762 20 16.4429 19.8667 16.4429 19.6V10.54C16.4429 10.2733 16.5762 10.14 16.8429 10.14H17.2829C17.5496 10.14 17.6829 10.2733 17.6829 10.54V11.5C18.0162 10.9667 18.4562 10.5667 19.0029 10.3C19.5496 10.0333 20.1629 9.9 20.8429 9.9ZM34.4027 20C34.2027 20 34.0427 19.9133 33.9227 19.74L30.5427 14.82L28.6027 16.8V19.6C28.6027 19.8667 28.4694 20 28.2027 20H27.6827C27.4161 20 27.2827 19.8667 27.2827 19.6V6.2C27.2827 5.93333 27.4161 5.8 27.6827 5.8H28.2027C28.4694 5.8 28.6027 5.93333 28.6027 6.2V15.3L33.4027 10.32C33.5227 10.1867 33.6894 10.12 33.9027 10.12H34.4627C34.5694 10.12 34.6494 10.1467 34.7027 10.2C34.7694 10.24 34.8027 10.2933 34.8027 10.36C34.8027 10.4267 34.7627 10.5133 34.6827 10.62L31.4627 13.98L35.2427 19.52C35.2961 19.6133 35.3227 19.6933 35.3227 19.76C35.3227 19.92 35.2161 20 35.0027 20H34.4027Z" fill="#0063FB"/>
<path d="M0.236328 23.34H35.7627V24.24H0.236328V23.34Z" fill="#0063FB"/>
<path d="M49 5.5L56.5 13L49 20.5" stroke="#0063FB" stroke-width="1.5" stroke-linecap="round" stroke-linejoin="round"/>
</svg>
