<svg width="332" height="170" viewBox="0 0 332 170" fill="none" xmlns="http://www.w3.org/2000/svg">
<rect width="332" height="170" fill="#F6F6F6"/>
<path d="M41.568 54C41.4187 54 41.2973 53.958 41.204 53.874C41.12 53.7807 41.078 53.6593 41.078 53.51V44.55C41.078 44.3913 41.12 44.27 41.204 44.186C41.2973 44.102 41.4187 44.06 41.568 44.06H42.184C42.3427 44.06 42.464 44.102 42.548 44.186C42.632 44.27 42.674 44.3913 42.674 44.55V52.642H46.72C46.8787 52.642 47 52.684 47.084 52.768C47.168 52.852 47.21 52.9733 47.21 53.132V53.51C47.21 53.6593 47.168 53.7807 47.084 53.874C47 53.958 46.8787 54 46.72 54H41.568ZM51.5043 46.888C52.4376 46.888 53.1563 47.1073 53.6603 47.546C54.1643 47.9753 54.4163 48.5493 54.4163 49.268V53.51C54.4163 53.6593 54.3743 53.7807 54.2903 53.874C54.2063 53.958 54.0849 54 53.9263 54H53.5623C53.4129 54 53.2916 53.958 53.1983 53.874C53.1143 53.7807 53.0723 53.6593 53.0723 53.51V53.202C52.8483 53.5287 52.5403 53.7807 52.1483 53.958C51.7563 54.1353 51.2989 54.224 50.7763 54.224C50.0576 54.224 49.4649 54.0653 48.9983 53.748C48.5409 53.4213 48.3123 52.9313 48.3123 52.278C48.3123 51.55 48.5829 51.0133 49.1243 50.668C49.6749 50.3133 50.4356 50.0473 51.4063 49.87L52.9883 49.576V49.324C52.9883 48.9413 52.8529 48.6473 52.5823 48.442C52.3209 48.2273 51.9709 48.12 51.5323 48.12C51.1589 48.12 50.8323 48.1853 50.5523 48.316C50.2816 48.4373 49.9876 48.6427 49.6703 48.932C49.5489 49.0347 49.4323 49.086 49.3203 49.086C49.2083 49.086 49.0916 49.0347 48.9703 48.932L48.7463 48.736C48.6249 48.624 48.5643 48.5027 48.5643 48.372C48.5643 48.2507 48.6203 48.134 48.7323 48.022C49.1336 47.6393 49.5583 47.3547 50.0063 47.168C50.4543 46.9813 50.9536 46.888 51.5043 46.888ZM50.9863 53.034C51.5463 53.034 52.0176 52.8847 52.4003 52.586C52.7923 52.2873 52.9883 51.858 52.9883 51.298V50.654L51.7703 50.906C51.0889 51.046 50.5849 51.2047 50.2583 51.382C49.9316 51.5593 49.7683 51.83 49.7683 52.194C49.7683 52.4553 49.8756 52.6607 50.0903 52.81C50.3049 52.9593 50.6036 53.034 50.9863 53.034ZM59.7798 46.916C60.3678 46.916 60.8905 47.0653 61.3478 47.364C61.8145 47.6627 62.1785 48.0873 62.4398 48.638C62.7011 49.1887 62.8318 49.8233 62.8318 50.542C62.8318 51.27 62.7011 51.9093 62.4398 52.46C62.1785 53.0107 61.8145 53.4353 61.3478 53.734C60.8811 54.0327 60.3585 54.182 59.7798 54.182C58.7438 54.182 57.9831 53.7947 57.4978 53.02V53.51C57.4978 53.6593 57.4558 53.7807 57.3718 53.874C57.2878 53.958 57.1665 54 57.0078 54H56.6018C56.4525 54 56.3311 53.958 56.2378 53.874C56.1538 53.7807 56.1118 53.6593 56.1118 53.51V44.55C56.1118 44.3913 56.1538 44.27 56.2378 44.186C56.3311 44.102 56.4525 44.06 56.6018 44.06H57.1058C57.2645 44.06 57.3858 44.102 57.4698 44.186C57.5538 44.27 57.5958 44.3913 57.5958 44.55V47.966C58.0905 47.266 58.8185 46.916 59.7798 46.916ZM59.4718 52.894C60.0318 52.894 60.4798 52.684 60.8158 52.264C61.1518 51.8347 61.3198 51.2607 61.3198 50.542C61.3198 49.8327 61.1518 49.2633 60.8158 48.834C60.4891 48.4047 60.0458 48.19 59.4858 48.19C58.9165 48.19 58.4498 48.4047 58.0858 48.834C57.7218 49.254 57.5398 49.8233 57.5398 50.542C57.5398 51.2793 57.7218 51.858 58.0858 52.278C58.4498 52.6887 58.9118 52.894 59.4718 52.894ZM69.2023 52.236C69.3236 52.1333 69.4403 52.082 69.5523 52.082C69.6643 52.082 69.7809 52.1427 69.9023 52.264L70.0983 52.474C70.2009 52.5953 70.2523 52.712 70.2523 52.824C70.2523 52.9453 70.1916 53.062 70.0703 53.174C69.6409 53.5473 69.2116 53.8133 68.7823 53.972C68.3623 54.1307 67.8956 54.21 67.3823 54.21C66.6636 54.21 66.0383 54.0607 65.5063 53.762C64.9836 53.4633 64.5776 53.0433 64.2883 52.502C64.0083 51.9513 63.8682 51.3167 63.8682 50.598C63.8682 49.8887 64.0036 49.254 64.2743 48.694C64.5543 48.1247 64.9463 47.6813 65.4503 47.364C65.9636 47.0467 66.5609 46.888 67.2423 46.888C68.2596 46.888 69.0436 47.1913 69.5943 47.798C70.1449 48.3953 70.4203 49.2213 70.4203 50.276V50.402C70.4109 50.5513 70.3643 50.668 70.2803 50.752C70.1963 50.836 70.0749 50.878 69.9163 50.878H65.3243C65.3803 51.494 65.5809 51.998 65.9263 52.39C66.2809 52.7727 66.7756 52.964 67.4103 52.964C67.7556 52.964 68.0589 52.9127 68.3203 52.81C68.5816 52.698 68.8756 52.5067 69.2023 52.236ZM67.2143 48.064C66.7009 48.064 66.2856 48.218 65.9683 48.526C65.6603 48.8247 65.4596 49.2493 65.3663 49.8H68.9643C68.9269 49.2587 68.7589 48.834 68.4603 48.526C68.1616 48.218 67.7463 48.064 67.2143 48.064ZM72.3258 54C72.1764 54 72.0551 53.958 71.9618 53.874C71.8778 53.7807 71.8358 53.6593 71.8358 53.51V44.55C71.8358 44.3913 71.8778 44.27 71.9618 44.186C72.0551 44.102 72.1764 44.06 72.3258 44.06H72.8298C72.9884 44.06 73.1098 44.102 73.1938 44.186C73.2778 44.27 73.3198 44.3913 73.3198 44.55V53.51C73.3198 53.6593 73.2778 53.7807 73.1938 53.874C73.1098 53.958 72.9884 54 72.8298 54H72.3258Z" fill="#1B1B1F"/>
<rect x="40.5" y="62.5" width="251" height="47" rx="3.5" fill="white"/>
<rect x="40.5" y="62.5" width="251" height="47" rx="3.5" stroke="#84848F"/>
<g clip-path="url(#clip0_4531_21242)">
<path d="M54.016 91.24C52.9387 91.24 52 90.9893 51.2 90.488C50.4 89.976 49.7867 89.272 49.36 88.376C48.9333 87.48 48.72 86.4613 48.72 85.32C48.72 84.1787 48.9333 83.16 49.36 82.264C49.7867 81.368 50.4 80.6693 51.2 80.168C52 79.656 52.9387 79.4 54.016 79.4C55.0933 79.4 56.032 79.656 56.832 80.168C57.632 80.6693 58.2453 81.368 58.672 82.264C59.0987 83.16 59.312 84.1787 59.312 85.32C59.312 86.4613 59.0987 87.48 58.672 88.376C58.2453 89.272 57.632 89.976 56.832 90.488C56.032 90.9893 55.0933 91.24 54.016 91.24ZM54.016 90.264C54.8373 90.264 55.5627 90.056 56.192 89.64C56.8213 89.2133 57.3067 88.6267 57.648 87.88C58 87.1227 58.176 86.2693 58.176 85.32C58.176 84.3707 58 83.5227 57.648 82.776C57.3067 82.0187 56.8213 81.432 56.192 81.016C55.5627 80.5893 54.8373 80.376 54.016 80.376C53.1947 80.376 52.4693 80.5893 51.84 81.016C51.2107 81.432 50.72 82.0187 50.368 82.776C50.0267 83.5227 49.856 84.3707 49.856 85.32C49.856 86.2693 50.0267 87.1227 50.368 87.88C50.72 88.6267 51.2107 89.2133 51.84 89.64C52.4693 90.056 53.1947 90.264 54.016 90.264ZM64.9756 82.936C65.637 82.936 66.229 83.112 66.7516 83.464C67.285 83.8053 67.701 84.2907 67.9996 84.92C68.2983 85.5387 68.4476 86.248 68.4476 87.048C68.4476 87.8587 68.2983 88.5787 67.9996 89.208C67.701 89.8373 67.2903 90.328 66.7676 90.68C66.245 91.0213 65.6476 91.192 64.9756 91.192C63.7383 91.192 62.8316 90.7387 62.2556 89.832V93.624C62.2556 93.8373 62.149 93.944 61.9356 93.944H61.5196C61.3063 93.944 61.1996 93.8373 61.1996 93.624V83.432C61.1996 83.2187 61.3063 83.112 61.5196 83.112H61.8716C62.085 83.112 62.1916 83.2187 62.1916 83.432V84.44C62.4796 83.9493 62.8583 83.576 63.3276 83.32C63.797 83.064 64.3463 82.936 64.9756 82.936ZM64.8956 90.296C65.6423 90.296 66.2396 89.9973 66.6876 89.4C67.1356 88.8027 67.3596 88.0187 67.3596 87.048C67.3596 86.088 67.1356 85.3147 66.6876 84.728C66.2396 84.1307 65.6423 83.832 64.8956 83.832C64.0956 83.832 63.445 84.12 62.9436 84.696C62.453 85.2613 62.2076 86.0453 62.2076 87.048C62.2076 88.0507 62.4583 88.8453 62.9596 89.432C63.461 90.008 64.1063 90.296 64.8956 90.296ZM73.6423 90.12C73.6743 90.1093 73.7169 90.104 73.7703 90.104C73.8343 90.104 73.8929 90.1253 73.9463 90.168C73.9996 90.2107 74.0316 90.2693 74.0423 90.344L74.0903 90.568C74.1009 90.5893 74.1063 90.6267 74.1063 90.68C74.1063 90.8293 74.0263 90.92 73.8663 90.952C73.4823 91.0693 73.0716 91.128 72.6343 91.128C71.9409 91.128 71.4449 90.9733 71.1463 90.664C70.8583 90.344 70.7143 89.8853 70.7143 89.288V83.912H69.5303C69.3169 83.912 69.2103 83.8053 69.2103 83.592V83.432C69.2103 83.2187 69.3169 83.112 69.5303 83.112H70.7143V80.68C70.7143 80.4667 70.8209 80.36 71.0343 80.36H71.4503C71.6636 80.36 71.7703 80.4667 71.7703 80.68V83.112H73.6903C73.9036 83.112 74.0103 83.2187 74.0103 83.432V83.592C74.0103 83.8053 73.9036 83.912 73.6903 83.912H71.7703V89.16C71.7703 89.5547 71.8449 89.832 71.9943 89.992C72.1436 90.152 72.3996 90.232 72.7623 90.232C73.0183 90.232 73.3116 90.1947 73.6423 90.12ZM76.1495 81.112C75.9362 81.112 75.7548 81.0373 75.6055 80.888C75.4668 80.7387 75.3975 80.5573 75.3975 80.344C75.3975 80.1307 75.4668 79.9547 75.6055 79.816C75.7548 79.6773 75.9362 79.608 76.1495 79.608C76.3735 79.608 76.5548 79.6773 76.6935 79.816C76.8428 79.9547 76.9175 80.1307 76.9175 80.344C76.9175 80.5573 76.8428 80.7387 76.6935 80.888C76.5548 81.0373 76.3735 81.112 76.1495 81.112ZM75.9415 91C75.7282 91 75.6215 90.8933 75.6215 90.68V83.432C75.6215 83.2187 75.7282 83.112 75.9415 83.112H76.3575C76.5708 83.112 76.6775 83.2187 76.6775 83.432V90.68C76.6775 90.8933 76.5708 91 76.3575 91H75.9415ZM82.2918 91.208C81.5558 91.208 80.8998 91.032 80.3238 90.68C79.7478 90.328 79.2998 89.8427 78.9798 89.224C78.6598 88.5947 78.4998 87.8747 78.4998 87.064C78.4998 86.2533 78.6598 85.5387 78.9798 84.92C79.2998 84.2907 79.7478 83.8 80.3238 83.448C80.8998 83.096 81.5558 82.92 82.2918 82.92C83.0278 82.92 83.6838 83.096 84.2598 83.448C84.8358 83.8 85.2838 84.2907 85.6038 84.92C85.9238 85.5387 86.0838 86.2533 86.0838 87.064C86.0838 87.8747 85.9238 88.5947 85.6038 89.224C85.2838 89.8427 84.8358 90.328 84.2598 90.68C83.6838 91.032 83.0278 91.208 82.2918 91.208ZM82.2918 90.328C83.1131 90.328 83.7691 90.0293 84.2598 89.432C84.7504 88.824 84.9958 88.0347 84.9958 87.064C84.9958 86.0933 84.7504 85.3093 84.2598 84.712C83.7691 84.104 83.1131 83.8 82.2918 83.8C81.4704 83.8 80.8144 84.104 80.3238 84.712C79.8331 85.3093 79.5878 86.0933 79.5878 87.064C79.5878 88.0347 79.8331 88.824 80.3238 89.432C80.8144 90.0293 81.4704 90.328 82.2918 90.328ZM91.4384 82.92C92.3664 82.92 93.065 83.176 93.5344 83.688C94.0144 84.2 94.2544 84.84 94.2544 85.608V90.68C94.2544 90.8933 94.1477 91 93.9344 91H93.5184C93.305 91 93.1984 90.8933 93.1984 90.68V85.96C93.1984 85.256 93.0277 84.7227 92.6864 84.36C92.345 83.9973 91.8544 83.816 91.2144 83.816C90.809 83.816 90.4357 83.9173 90.0944 84.12C89.753 84.312 89.481 84.5787 89.2784 84.92C89.0757 85.2613 88.9744 85.6347 88.9744 86.04V90.68C88.9744 90.8933 88.8677 91 88.6544 91H88.2384C88.025 91 87.9184 90.8933 87.9184 90.68V83.432C87.9184 83.2187 88.025 83.112 88.2384 83.112H88.5904C88.8037 83.112 88.9104 83.2187 88.9104 83.432V84.2C89.177 83.7733 89.529 83.4533 89.9664 83.24C90.4037 83.0267 90.8944 82.92 91.4384 82.92Z" fill="#1B1B1F"/>
<rect width="24" height="16" transform="translate(260 78)" fill="white"/>
<path d="M281 84L276 89L271 84" stroke="#1B1B1F" stroke-linecap="round" stroke-linejoin="round"/>
</g>
<path d="M41.272 126C41.112 126 41.032 125.92 41.032 125.76V117.72C41.032 117.56 41.112 117.48 41.272 117.48H41.644C41.804 117.48 41.884 117.56 41.884 117.72V121.248H46.804V117.72C46.804 117.56 46.884 117.48 47.044 117.48H47.416C47.576 117.48 47.656 117.56 47.656 117.72V125.76C47.656 125.92 47.576 126 47.416 126H47.044C46.884 126 46.804 125.92 46.804 125.76V121.956H41.884V125.76C41.884 125.92 41.804 126 41.644 126H41.272ZM53.8796 124.596C53.9356 124.54 53.9956 124.512 54.0596 124.512C54.1156 124.512 54.1676 124.536 54.2156 124.584L54.3716 124.728C54.4276 124.784 54.4556 124.844 54.4556 124.908C54.4556 124.956 54.4316 125.012 54.3836 125.076C53.9916 125.468 53.6116 125.748 53.2436 125.916C52.8756 126.076 52.4636 126.156 52.0076 126.156C51.4316 126.156 50.9316 126.028 50.5076 125.772C50.0836 125.516 49.7556 125.16 49.5236 124.704C49.2916 124.24 49.1756 123.704 49.1756 123.096C49.1756 122.48 49.2876 121.936 49.5116 121.464C49.7436 120.984 50.0676 120.612 50.4836 120.348C50.8996 120.076 51.3796 119.94 51.9236 119.94C52.7316 119.94 53.3676 120.192 53.8316 120.696C54.2956 121.2 54.5276 121.88 54.5276 122.736V122.88C54.5196 122.952 54.4916 123.008 54.4436 123.048C54.4036 123.088 54.3476 123.108 54.2756 123.108H49.9796C50.0036 123.78 50.1796 124.348 50.5076 124.812C50.8436 125.268 51.3436 125.496 52.0076 125.496C52.3676 125.496 52.6836 125.432 52.9556 125.304C53.2356 125.168 53.5436 124.932 53.8796 124.596ZM51.9236 120.6C51.3956 120.6 50.9596 120.764 50.6156 121.092C50.2796 121.412 50.0756 121.884 50.0036 122.508H53.7356C53.7196 121.924 53.5516 121.46 53.2316 121.116C52.9116 120.772 52.4756 120.6 51.9236 120.6ZM56.1986 126C56.0386 126 55.9586 125.92 55.9586 125.76V117.72C55.9586 117.56 56.0386 117.48 56.1986 117.48H56.5106C56.6706 117.48 56.7506 117.56 56.7506 117.72V125.76C56.7506 125.92 56.6706 126 56.5106 126H56.1986ZM61.3684 119.952C61.8644 119.952 62.3084 120.084 62.7004 120.348C63.1004 120.604 63.4124 120.968 63.6364 121.44C63.8604 121.904 63.9724 122.436 63.9724 123.036C63.9724 123.644 63.8604 124.184 63.6364 124.656C63.4124 125.128 63.1044 125.496 62.7124 125.76C62.3204 126.016 61.8724 126.144 61.3684 126.144C60.4404 126.144 59.7604 125.804 59.3284 125.124V127.968C59.3284 128.128 59.2484 128.208 59.0884 128.208H58.7764C58.6164 128.208 58.5364 128.128 58.5364 127.968V120.324C58.5364 120.164 58.6164 120.084 58.7764 120.084H59.0404C59.2004 120.084 59.2804 120.164 59.2804 120.324V121.08C59.4964 120.712 59.7804 120.432 60.1324 120.24C60.4844 120.048 60.8964 119.952 61.3684 119.952ZM61.3084 125.472C61.8684 125.472 62.3164 125.248 62.6524 124.8C62.9884 124.352 63.1564 123.764 63.1564 123.036C63.1564 122.316 62.9884 121.736 62.6524 121.296C62.3164 120.848 61.8684 120.624 61.3084 120.624C60.7084 120.624 60.2204 120.84 59.8444 121.272C59.4764 121.696 59.2924 122.284 59.2924 123.036C59.2924 123.788 59.4804 124.384 59.8564 124.824C60.2324 125.256 60.7164 125.472 61.3084 125.472ZM70.8098 125.34C70.8338 125.332 70.8658 125.328 70.9058 125.328C70.9538 125.328 70.9978 125.344 71.0378 125.376C71.0778 125.408 71.1018 125.452 71.1098 125.508L71.1458 125.676C71.1538 125.692 71.1578 125.72 71.1578 125.76C71.1578 125.872 71.0978 125.94 70.9778 125.964C70.6898 126.052 70.3818 126.096 70.0538 126.096C69.5338 126.096 69.1618 125.98 68.9378 125.748C68.7218 125.508 68.6138 125.164 68.6138 124.716V120.684H67.7258C67.5658 120.684 67.4858 120.604 67.4858 120.444V120.324C67.4858 120.164 67.5658 120.084 67.7258 120.084H68.6138V118.26C68.6138 118.1 68.6938 118.02 68.8538 118.02H69.1658C69.3258 118.02 69.4058 118.1 69.4058 118.26V120.084H70.8458C71.0058 120.084 71.0858 120.164 71.0858 120.324V120.444C71.0858 120.604 71.0058 120.684 70.8458 120.684H69.4058V124.62C69.4058 124.916 69.4618 125.124 69.5738 125.244C69.6858 125.364 69.8778 125.424 70.1498 125.424C70.3418 125.424 70.5618 125.396 70.8098 125.34ZM76.3796 124.596C76.4356 124.54 76.4956 124.512 76.5596 124.512C76.6156 124.512 76.6676 124.536 76.7156 124.584L76.8716 124.728C76.9276 124.784 76.9556 124.844 76.9556 124.908C76.9556 124.956 76.9316 125.012 76.8836 125.076C76.4916 125.468 76.1116 125.748 75.7436 125.916C75.3756 126.076 74.9636 126.156 74.5076 126.156C73.9316 126.156 73.4316 126.028 73.0076 125.772C72.5836 125.516 72.2556 125.16 72.0236 124.704C71.7916 124.24 71.6756 123.704 71.6756 123.096C71.6756 122.48 71.7876 121.936 72.0116 121.464C72.2436 120.984 72.5676 120.612 72.9836 120.348C73.3996 120.076 73.8796 119.94 74.4236 119.94C75.2316 119.94 75.8676 120.192 76.3316 120.696C76.7956 121.2 77.0276 121.88 77.0276 122.736V122.88C77.0196 122.952 76.9916 123.008 76.9436 123.048C76.9036 123.088 76.8476 123.108 76.7756 123.108H72.4796C72.5036 123.78 72.6796 124.348 73.0076 124.812C73.3436 125.268 73.8436 125.496 74.5076 125.496C74.8676 125.496 75.1836 125.432 75.4556 125.304C75.7356 125.168 76.0436 124.932 76.3796 124.596ZM74.4236 120.6C73.8956 120.6 73.4596 120.764 73.1156 121.092C72.7796 121.412 72.5756 121.884 72.5036 122.508H76.2356C76.2196 121.924 76.0516 121.46 75.7316 121.116C75.4116 120.772 74.9756 120.6 74.4236 120.6ZM82.6383 125.712C82.6703 125.768 82.6863 125.816 82.6863 125.856C82.6863 125.952 82.6223 126 82.4943 126H82.1343C82.0143 126 81.9183 125.948 81.8463 125.844L80.2143 123.444L78.5943 125.844C78.5223 125.948 78.4263 126 78.3063 126H77.9703C77.9063 126 77.8543 125.988 77.8143 125.964C77.7823 125.932 77.7663 125.896 77.7663 125.856C77.7663 125.8 77.7823 125.752 77.8143 125.712L79.7583 122.916L77.9703 120.372C77.9383 120.332 77.9223 120.288 77.9223 120.24C77.9223 120.136 77.9903 120.084 78.1263 120.084H78.4743C78.5943 120.084 78.6903 120.136 78.7623 120.24L80.2263 122.388L81.6783 120.24C81.7503 120.136 81.8463 120.084 81.9663 120.084H82.2903C82.3543 120.084 82.4023 120.1 82.4343 120.132C82.4743 120.156 82.4943 120.188 82.4943 120.228C82.4943 120.284 82.4783 120.332 82.4463 120.372L80.6943 122.88L82.6383 125.712ZM86.6184 125.34C86.6424 125.332 86.6744 125.328 86.7144 125.328C86.7624 125.328 86.8064 125.344 86.8464 125.376C86.8864 125.408 86.9104 125.452 86.9184 125.508L86.9544 125.676C86.9624 125.692 86.9664 125.72 86.9664 125.76C86.9664 125.872 86.9064 125.94 86.7864 125.964C86.4984 126.052 86.1904 126.096 85.8624 126.096C85.3424 126.096 84.9704 125.98 84.7464 125.748C84.5304 125.508 84.4224 125.164 84.4224 124.716V120.684H83.5344C83.3744 120.684 83.2944 120.604 83.2944 120.444V120.324C83.2944 120.164 83.3744 120.084 83.5344 120.084H84.4224V118.26C84.4224 118.1 84.5024 118.02 84.6624 118.02H84.9744C85.1344 118.02 85.2144 118.1 85.2144 118.26V120.084H86.6544C86.8144 120.084 86.8944 120.164 86.8944 120.324V120.444C86.8944 120.604 86.8144 120.684 86.6544 120.684H85.2144V124.62C85.2144 124.916 85.2704 125.124 85.3824 125.244C85.4944 125.364 85.6864 125.424 85.9584 125.424C86.1504 125.424 86.3704 125.396 86.6184 125.34Z" fill="#5C5C66"/>
<defs>
<clipPath id="clip0_4531_21242">
<rect width="236" height="22" fill="white" transform="translate(48 75)"/>
</clipPath>
</defs>
</svg>
