<svg width="688" height="320" viewBox="0 0 688 320" fill="none" xmlns="http://www.w3.org/2000/svg">
<g clip-path="url(#clip0_6136_140)">
<g filter="url(#filter0_dd_6136_140)">
<rect x="216" y="32" width="256" height="256" rx="24" fill="white"/>
</g>
<g filter="url(#filter1_dd_6136_140)">
<rect x="248" y="64" width="192" height="192" rx="16" fill="white"/>
</g>
<g filter="url(#filter2_dd_6136_140)">
<rect x="280" y="96" width="128" height="128" rx="16" fill="white"/>
</g>
<rect x="24" y="71" width="174" height="38" rx="19" fill="#BE3830"/>
<path d="M40.172 95.098C39.528 95.098 38.9493 94.986 38.436 94.762C37.932 94.5287 37.5353 94.2113 37.246 93.81C36.9567 93.3993 36.8073 92.928 36.798 92.396H38.156C38.2027 92.8533 38.3893 93.2407 38.716 93.558C39.052 93.866 39.5373 94.02 40.172 94.02C40.7787 94.02 41.2547 93.8707 41.6 93.572C41.9547 93.264 42.132 92.872 42.132 92.396C42.132 92.0227 42.0293 91.7193 41.824 91.486C41.6187 91.2527 41.362 91.0753 41.054 90.954C40.746 90.8327 40.3307 90.702 39.808 90.562C39.164 90.394 38.646 90.226 38.254 90.058C37.8713 89.89 37.54 89.6287 37.26 89.274C36.9893 88.91 36.854 88.4247 36.854 87.818C36.854 87.286 36.9893 86.8147 37.26 86.404C37.5307 85.9933 37.9087 85.676 38.394 85.452C38.8887 85.228 39.4533 85.116 40.088 85.116C41.0027 85.116 41.7493 85.3447 42.328 85.802C42.916 86.2593 43.2473 86.866 43.322 87.622H41.922C41.8753 87.2487 41.6793 86.922 41.334 86.642C40.9887 86.3527 40.5313 86.208 39.962 86.208C39.43 86.208 38.996 86.348 38.66 86.628C38.324 86.8987 38.156 87.2813 38.156 87.776C38.156 88.1307 38.254 88.42 38.45 88.644C38.6553 88.868 38.9027 89.0407 39.192 89.162C39.4907 89.274 39.906 89.4047 40.438 89.554C41.082 89.7313 41.6 89.9087 41.992 90.086C42.384 90.254 42.72 90.52 43 90.884C43.28 91.2387 43.42 91.724 43.42 92.34C43.42 92.816 43.294 93.264 43.042 93.684C42.79 94.104 42.4167 94.4447 41.922 94.706C41.4273 94.9673 40.844 95.098 40.172 95.098ZM52.0988 87.328V95H50.8248V93.866C50.5821 94.258 50.2415 94.566 49.8028 94.79C49.3735 95.0047 48.8975 95.112 48.3748 95.112C47.7775 95.112 47.2408 94.9907 46.7648 94.748C46.2888 94.496 45.9108 94.1227 45.6308 93.628C45.3601 93.1333 45.2248 92.5313 45.2248 91.822V87.328H46.4848V91.654C46.4848 92.41 46.6761 92.9933 47.0588 93.404C47.4415 93.8053 47.9641 94.006 48.6268 94.006C49.3081 94.006 49.8448 93.796 50.2368 93.376C50.6288 92.956 50.8248 92.3447 50.8248 91.542V87.328H52.0988ZM55.5239 88.574C55.7479 88.1353 56.0652 87.7947 56.4759 87.552C56.8959 87.3093 57.4045 87.188 58.0019 87.188V88.504H57.6659C56.2379 88.504 55.5239 89.2787 55.5239 90.828V95H54.2499V87.328H55.5239V88.574ZM62.5945 88.378H60.9845V95H59.7105V88.378H58.7165V87.328H59.7105V86.782C59.7105 85.9233 59.9299 85.298 60.3685 84.906C60.8165 84.5047 61.5305 84.304 62.5105 84.304V85.368C61.9505 85.368 61.5539 85.48 61.3205 85.704C61.0965 85.9187 60.9845 86.278 60.9845 86.782V87.328H62.5945V88.378ZM63.604 91.136C63.604 90.352 63.7626 89.666 64.08 89.078C64.3973 88.4807 64.8313 88.0187 65.382 87.692C65.942 87.3653 66.5626 87.202 67.244 87.202C67.916 87.202 68.4993 87.3467 68.994 87.636C69.4886 87.9253 69.8573 88.2893 70.1 88.728V87.328H71.388V95H70.1V93.572C69.848 94.02 69.47 94.3933 68.966 94.692C68.4713 94.9813 67.8926 95.126 67.23 95.126C66.5486 95.126 65.9326 94.958 65.382 94.622C64.8313 94.286 64.3973 93.8147 64.08 93.208C63.7626 92.6013 63.604 91.9107 63.604 91.136ZM70.1 91.15C70.1 90.5713 69.9833 90.0673 69.75 89.638C69.5166 89.2087 69.1993 88.882 68.798 88.658C68.406 88.4247 67.972 88.308 67.496 88.308C67.02 88.308 66.586 88.42 66.194 88.644C65.802 88.868 65.4893 89.1947 65.256 89.624C65.0226 90.0533 64.906 90.5573 64.906 91.136C64.906 91.724 65.0226 92.2373 65.256 92.676C65.4893 93.1053 65.802 93.4367 66.194 93.67C66.586 93.894 67.02 94.006 67.496 94.006C67.972 94.006 68.406 93.894 68.798 93.67C69.1993 93.4367 69.5166 93.1053 69.75 92.676C69.9833 92.2373 70.1 91.7287 70.1 91.15ZM73.0649 91.15C73.0649 90.3567 73.2236 89.666 73.5409 89.078C73.8582 88.4807 74.2969 88.0187 74.8569 87.692C75.4262 87.3653 76.0749 87.202 76.8029 87.202C77.7456 87.202 78.5202 87.4307 79.1269 87.888C79.7429 88.3453 80.1489 88.98 80.3449 89.792H78.9729C78.8422 89.3253 78.5856 88.9567 78.2029 88.686C77.8296 88.4153 77.3629 88.28 76.8029 88.28C76.0749 88.28 75.4869 88.532 75.0389 89.036C74.5909 89.5307 74.3669 90.2353 74.3669 91.15C74.3669 92.074 74.5909 92.788 75.0389 93.292C75.4869 93.796 76.0749 94.048 76.8029 94.048C77.3629 94.048 77.8296 93.9173 78.2029 93.656C78.5762 93.3947 78.8329 93.0213 78.9729 92.536H80.3449C80.1396 93.32 79.7289 93.95 79.1129 94.426C78.4969 94.8927 77.7269 95.126 76.8029 95.126C76.0749 95.126 75.4262 94.9627 74.8569 94.636C74.2969 94.3093 73.8582 93.8473 73.5409 93.25C73.2236 92.6527 73.0649 91.9527 73.0649 91.15ZM89.0448 90.87C89.0448 91.1127 89.0308 91.3693 89.0028 91.64H82.8708C82.9175 92.396 83.1741 92.9887 83.6408 93.418C84.1168 93.838 84.6908 94.048 85.3628 94.048C85.9135 94.048 86.3708 93.922 86.7348 93.67C87.1081 93.4087 87.3695 93.0633 87.5188 92.634H88.8908C88.6855 93.3713 88.2748 93.9733 87.6588 94.44C87.0428 94.8973 86.2775 95.126 85.3628 95.126C84.6348 95.126 83.9815 94.9627 83.4028 94.636C82.8335 94.3093 82.3855 93.8473 82.0588 93.25C81.7321 92.6433 81.5688 91.9433 81.5688 91.15C81.5688 90.3567 81.7275 89.6613 82.0448 89.064C82.3621 88.4667 82.8055 88.0093 83.3748 87.692C83.9535 87.3653 84.6161 87.202 85.3628 87.202C86.0908 87.202 86.7348 87.3607 87.2948 87.678C87.8548 87.9953 88.2841 88.434 88.5828 88.994C88.8908 89.5447 89.0448 90.17 89.0448 90.87ZM87.7288 90.604C87.7288 90.1187 87.6215 89.7033 87.4068 89.358C87.1921 89.0033 86.8981 88.7373 86.5248 88.56C86.1608 88.3733 85.7548 88.28 85.3068 88.28C84.6628 88.28 84.1121 88.4853 83.6548 88.896C83.2068 89.3067 82.9501 89.876 82.8848 90.604H87.7288ZM95.4864 81.812L91.6504 97.38H90.3904L94.2124 81.812H95.4864ZM98.6586 86.278V89.54H102.215V90.59H98.6586V93.95H102.635V95H97.3846V85.228H102.635V86.278H98.6586ZM105.836 84.64V95H104.562V84.64H105.836ZM115.008 90.87C115.008 91.1127 114.994 91.3693 114.966 91.64H108.834C108.88 92.396 109.137 92.9887 109.604 93.418C110.08 93.838 110.654 94.048 111.326 94.048C111.876 94.048 112.334 93.922 112.698 93.67C113.071 93.4087 113.332 93.0633 113.482 92.634H114.854C114.648 93.3713 114.238 93.9733 113.622 94.44C113.006 94.8973 112.24 95.126 111.326 95.126C110.598 95.126 109.944 94.9627 109.366 94.636C108.796 94.3093 108.348 93.8473 108.022 93.25C107.695 92.6433 107.532 91.9433 107.532 91.15C107.532 90.3567 107.69 89.6613 108.008 89.064C108.325 88.4667 108.768 88.0093 109.338 87.692C109.916 87.3653 110.579 87.202 111.326 87.202C112.054 87.202 112.698 87.3607 113.258 87.678C113.818 87.9953 114.247 88.434 114.546 88.994C114.854 89.5447 115.008 90.17 115.008 90.87ZM113.692 90.604C113.692 90.1187 113.584 89.7033 113.37 89.358C113.155 89.0033 112.861 88.7373 112.488 88.56C112.124 88.3733 111.718 88.28 111.27 88.28C110.626 88.28 110.075 88.4853 109.618 88.896C109.17 89.3067 108.913 89.876 108.848 90.604H113.692ZM119.545 93.824L121.925 87.328H123.283L120.273 95H118.789L115.779 87.328H117.151L119.545 93.824ZM124.061 91.136C124.061 90.352 124.22 89.666 124.537 89.078C124.854 88.4807 125.288 88.0187 125.839 87.692C126.399 87.3653 127.02 87.202 127.701 87.202C128.373 87.202 128.956 87.3467 129.451 87.636C129.946 87.9253 130.314 88.2893 130.557 88.728V87.328H131.845V95H130.557V93.572C130.305 94.02 129.927 94.3933 129.423 94.692C128.928 94.9813 128.35 95.126 127.687 95.126C127.006 95.126 126.39 94.958 125.839 94.622C125.288 94.286 124.854 93.8147 124.537 93.208C124.22 92.6013 124.061 91.9107 124.061 91.136ZM130.557 91.15C130.557 90.5713 130.44 90.0673 130.207 89.638C129.974 89.2087 129.656 88.882 129.255 88.658C128.863 88.4247 128.429 88.308 127.953 88.308C127.477 88.308 127.043 88.42 126.651 88.644C126.259 88.868 125.946 89.1947 125.713 89.624C125.48 90.0533 125.363 90.5573 125.363 91.136C125.363 91.724 125.48 92.2373 125.713 92.676C125.946 93.1053 126.259 93.4367 126.651 93.67C127.043 93.894 127.477 94.006 127.953 94.006C128.429 94.006 128.863 93.894 129.255 93.67C129.656 93.4367 129.974 93.1053 130.207 92.676C130.44 92.2373 130.557 91.7287 130.557 91.15ZM135.552 88.378V92.9C135.552 93.2733 135.631 93.5393 135.79 93.698C135.949 93.8473 136.224 93.922 136.616 93.922H137.554V95H136.406C135.697 95 135.165 94.8367 134.81 94.51C134.455 94.1833 134.278 93.6467 134.278 92.9V88.378H133.284V87.328H134.278V85.396H135.552V87.328H137.554V88.378H135.552ZM146.098 90.87C146.098 91.1127 146.084 91.3693 146.056 91.64H139.924C139.97 92.396 140.227 92.9887 140.694 93.418C141.17 93.838 141.744 94.048 142.416 94.048C142.966 94.048 143.424 93.922 143.788 93.67C144.161 93.4087 144.422 93.0633 144.572 92.634H145.944C145.738 93.3713 145.328 93.9733 144.712 94.44C144.096 94.8973 143.33 95.126 142.416 95.126C141.688 95.126 141.034 94.9627 140.456 94.636C139.886 94.3093 139.438 93.8473 139.112 93.25C138.785 92.6433 138.622 91.9433 138.622 91.15C138.622 90.3567 138.78 89.6613 139.098 89.064C139.415 88.4667 139.858 88.0093 140.428 87.692C141.006 87.3653 141.669 87.202 142.416 87.202C143.144 87.202 143.788 87.3607 144.348 87.678C144.908 87.9953 145.337 88.434 145.636 88.994C145.944 89.5447 146.098 90.17 146.098 90.87ZM144.782 90.604C144.782 90.1187 144.674 89.7033 144.46 89.358C144.245 89.0033 143.951 88.7373 143.578 88.56C143.214 88.3733 142.808 88.28 142.36 88.28C141.716 88.28 141.165 88.4853 140.708 88.896C140.26 89.3067 140.003 89.876 139.938 90.604H144.782ZM147.303 91.136C147.303 90.352 147.462 89.666 147.779 89.078C148.097 88.4807 148.531 88.0187 149.081 87.692C149.641 87.3653 150.267 87.202 150.957 87.202C151.555 87.202 152.11 87.342 152.623 87.622C153.137 87.8927 153.529 88.252 153.799 88.7V84.64H155.087V95H153.799V93.558C153.547 94.0153 153.174 94.3933 152.679 94.692C152.185 94.9813 151.606 95.126 150.943 95.126C150.262 95.126 149.641 94.958 149.081 94.622C148.531 94.286 148.097 93.8147 147.779 93.208C147.462 92.6013 147.303 91.9107 147.303 91.136ZM153.799 91.15C153.799 90.5713 153.683 90.0673 153.449 89.638C153.216 89.2087 152.899 88.882 152.497 88.658C152.105 88.4247 151.671 88.308 151.195 88.308C150.719 88.308 150.285 88.42 149.893 88.644C149.501 88.868 149.189 89.1947 148.955 89.624C148.722 90.0533 148.605 90.5573 148.605 91.136C148.605 91.724 148.722 92.2373 148.955 92.676C149.189 93.1053 149.501 93.4367 149.893 93.67C150.285 93.894 150.719 94.006 151.195 94.006C151.671 94.006 152.105 93.894 152.497 93.67C152.899 93.4367 153.216 93.1053 153.449 92.676C153.683 92.2373 153.799 91.7287 153.799 91.15ZM162.56 89.33V90.408H156.974V89.33H162.56ZM164.405 86.04V84.878H167.037V95H165.749V86.04H164.405ZM169.225 89.834C169.225 88.2287 169.487 86.978 170.009 86.082C170.532 85.1767 171.447 84.724 172.753 84.724C174.051 84.724 174.961 85.1767 175.483 86.082C176.006 86.978 176.267 88.2287 176.267 89.834C176.267 91.4673 176.006 92.7367 175.483 93.642C174.961 94.5473 174.051 95 172.753 95C171.447 95 170.532 94.5473 170.009 93.642C169.487 92.7367 169.225 91.4673 169.225 89.834ZM175.007 89.834C175.007 89.022 174.951 88.336 174.839 87.776C174.737 87.2067 174.517 86.7493 174.181 86.404C173.855 86.0587 173.379 85.886 172.753 85.886C172.119 85.886 171.633 86.0587 171.297 86.404C170.971 86.7493 170.751 87.2067 170.639 87.776C170.537 88.336 170.485 89.022 170.485 89.834C170.485 90.674 170.537 91.3787 170.639 91.948C170.751 92.5173 170.971 92.9747 171.297 93.32C171.633 93.6653 172.119 93.838 172.753 93.838C173.379 93.838 173.855 93.6653 174.181 93.32C174.517 92.9747 174.737 92.5173 174.839 91.948C174.951 91.3787 175.007 90.674 175.007 89.834ZM178.016 89.834C178.016 88.2287 178.278 86.978 178.8 86.082C179.323 85.1767 180.238 84.724 181.544 84.724C182.842 84.724 183.752 85.1767 184.274 86.082C184.797 86.978 185.058 88.2287 185.058 89.834C185.058 91.4673 184.797 92.7367 184.274 93.642C183.752 94.5473 182.842 95 181.544 95C180.238 95 179.323 94.5473 178.8 93.642C178.278 92.7367 178.016 91.4673 178.016 89.834ZM183.798 89.834C183.798 89.022 183.742 88.336 183.63 87.776C183.528 87.2067 183.308 86.7493 182.972 86.404C182.646 86.0587 182.17 85.886 181.544 85.886C180.91 85.886 180.424 86.0587 180.088 86.404C179.762 86.7493 179.542 87.2067 179.43 87.776C179.328 88.336 179.276 89.022 179.276 89.834C179.276 90.674 179.328 91.3787 179.43 91.948C179.542 92.5173 179.762 92.9747 180.088 93.32C180.424 93.6653 180.91 93.838 181.544 93.838C182.17 93.838 182.646 93.6653 182.972 93.32C183.308 92.9747 183.528 92.5173 183.63 91.948C183.742 91.3787 183.798 90.674 183.798 89.834Z" fill="white"/>
<rect width="18" height="3" transform="translate(198 88.5)" fill="#BE3830"/>
<rect x="24" y="132" width="178" height="38" rx="19" fill="#BE3830"/>
<path d="M40.172 156.098C39.528 156.098 38.9493 155.986 38.436 155.762C37.932 155.529 37.5353 155.211 37.246 154.81C36.9567 154.399 36.8073 153.928 36.798 153.396H38.156C38.2027 153.853 38.3893 154.241 38.716 154.558C39.052 154.866 39.5373 155.02 40.172 155.02C40.7787 155.02 41.2547 154.871 41.6 154.572C41.9547 154.264 42.132 153.872 42.132 153.396C42.132 153.023 42.0293 152.719 41.824 152.486C41.6187 152.253 41.362 152.075 41.054 151.954C40.746 151.833 40.3307 151.702 39.808 151.562C39.164 151.394 38.646 151.226 38.254 151.058C37.8713 150.89 37.54 150.629 37.26 150.274C36.9893 149.91 36.854 149.425 36.854 148.818C36.854 148.286 36.9893 147.815 37.26 147.404C37.5307 146.993 37.9087 146.676 38.394 146.452C38.8887 146.228 39.4533 146.116 40.088 146.116C41.0027 146.116 41.7493 146.345 42.328 146.802C42.916 147.259 43.2473 147.866 43.322 148.622H41.922C41.8753 148.249 41.6793 147.922 41.334 147.642C40.9887 147.353 40.5313 147.208 39.962 147.208C39.43 147.208 38.996 147.348 38.66 147.628C38.324 147.899 38.156 148.281 38.156 148.776C38.156 149.131 38.254 149.42 38.45 149.644C38.6553 149.868 38.9027 150.041 39.192 150.162C39.4907 150.274 39.906 150.405 40.438 150.554C41.082 150.731 41.6 150.909 41.992 151.086C42.384 151.254 42.72 151.52 43 151.884C43.28 152.239 43.42 152.724 43.42 153.34C43.42 153.816 43.294 154.264 43.042 154.684C42.79 155.104 42.4167 155.445 41.922 155.706C41.4273 155.967 40.844 156.098 40.172 156.098ZM52.0988 148.328V156H50.8248V154.866C50.5821 155.258 50.2415 155.566 49.8028 155.79C49.3735 156.005 48.8975 156.112 48.3748 156.112C47.7775 156.112 47.2408 155.991 46.7648 155.748C46.2888 155.496 45.9108 155.123 45.6308 154.628C45.3601 154.133 45.2248 153.531 45.2248 152.822V148.328H46.4848V152.654C46.4848 153.41 46.6761 153.993 47.0588 154.404C47.4415 154.805 47.9641 155.006 48.6268 155.006C49.3081 155.006 49.8448 154.796 50.2368 154.376C50.6288 153.956 50.8248 153.345 50.8248 152.542V148.328H52.0988ZM55.5239 149.574C55.7479 149.135 56.0652 148.795 56.4759 148.552C56.8959 148.309 57.4045 148.188 58.0019 148.188V149.504H57.6659C56.2379 149.504 55.5239 150.279 55.5239 151.828V156H54.2499V148.328H55.5239V149.574ZM62.5945 149.378H60.9845V156H59.7105V149.378H58.7165V148.328H59.7105V147.782C59.7105 146.923 59.9299 146.298 60.3685 145.906C60.8165 145.505 61.5305 145.304 62.5105 145.304V146.368C61.9505 146.368 61.5539 146.48 61.3205 146.704C61.0965 146.919 60.9845 147.278 60.9845 147.782V148.328H62.5945V149.378ZM63.604 152.136C63.604 151.352 63.7626 150.666 64.08 150.078C64.3973 149.481 64.8313 149.019 65.382 148.692C65.942 148.365 66.5626 148.202 67.244 148.202C67.916 148.202 68.4993 148.347 68.994 148.636C69.4886 148.925 69.8573 149.289 70.1 149.728V148.328H71.388V156H70.1V154.572C69.848 155.02 69.47 155.393 68.966 155.692C68.4713 155.981 67.8926 156.126 67.23 156.126C66.5486 156.126 65.9326 155.958 65.382 155.622C64.8313 155.286 64.3973 154.815 64.08 154.208C63.7626 153.601 63.604 152.911 63.604 152.136ZM70.1 152.15C70.1 151.571 69.9833 151.067 69.75 150.638C69.5166 150.209 69.1993 149.882 68.798 149.658C68.406 149.425 67.972 149.308 67.496 149.308C67.02 149.308 66.586 149.42 66.194 149.644C65.802 149.868 65.4893 150.195 65.256 150.624C65.0226 151.053 64.906 151.557 64.906 152.136C64.906 152.724 65.0226 153.237 65.256 153.676C65.4893 154.105 65.802 154.437 66.194 154.67C66.586 154.894 67.02 155.006 67.496 155.006C67.972 155.006 68.406 154.894 68.798 154.67C69.1993 154.437 69.5166 154.105 69.75 153.676C69.9833 153.237 70.1 152.729 70.1 152.15ZM73.0649 152.15C73.0649 151.357 73.2236 150.666 73.5409 150.078C73.8582 149.481 74.2969 149.019 74.8569 148.692C75.4262 148.365 76.0749 148.202 76.8029 148.202C77.7456 148.202 78.5202 148.431 79.1269 148.888C79.7429 149.345 80.1489 149.98 80.3449 150.792H78.9729C78.8422 150.325 78.5856 149.957 78.2029 149.686C77.8296 149.415 77.3629 149.28 76.8029 149.28C76.0749 149.28 75.4869 149.532 75.0389 150.036C74.5909 150.531 74.3669 151.235 74.3669 152.15C74.3669 153.074 74.5909 153.788 75.0389 154.292C75.4869 154.796 76.0749 155.048 76.8029 155.048C77.3629 155.048 77.8296 154.917 78.2029 154.656C78.5762 154.395 78.8329 154.021 78.9729 153.536H80.3449C80.1396 154.32 79.7289 154.95 79.1129 155.426C78.4969 155.893 77.7269 156.126 76.8029 156.126C76.0749 156.126 75.4262 155.963 74.8569 155.636C74.2969 155.309 73.8582 154.847 73.5409 154.25C73.2236 153.653 73.0649 152.953 73.0649 152.15ZM89.0448 151.87C89.0448 152.113 89.0308 152.369 89.0028 152.64H82.8708C82.9175 153.396 83.1741 153.989 83.6408 154.418C84.1168 154.838 84.6908 155.048 85.3628 155.048C85.9135 155.048 86.3708 154.922 86.7348 154.67C87.1081 154.409 87.3695 154.063 87.5188 153.634H88.8908C88.6855 154.371 88.2748 154.973 87.6588 155.44C87.0428 155.897 86.2775 156.126 85.3628 156.126C84.6348 156.126 83.9815 155.963 83.4028 155.636C82.8335 155.309 82.3855 154.847 82.0588 154.25C81.7321 153.643 81.5688 152.943 81.5688 152.15C81.5688 151.357 81.7275 150.661 82.0448 150.064C82.3621 149.467 82.8055 149.009 83.3748 148.692C83.9535 148.365 84.6161 148.202 85.3628 148.202C86.0908 148.202 86.7348 148.361 87.2948 148.678C87.8548 148.995 88.2841 149.434 88.5828 149.994C88.8908 150.545 89.0448 151.17 89.0448 151.87ZM87.7288 151.604C87.7288 151.119 87.6215 150.703 87.4068 150.358C87.1921 150.003 86.8981 149.737 86.5248 149.56C86.1608 149.373 85.7548 149.28 85.3068 149.28C84.6628 149.28 84.1121 149.485 83.6548 149.896C83.2068 150.307 82.9501 150.876 82.8848 151.604H87.7288ZM95.4864 142.812L91.6504 158.38H90.3904L94.2124 142.812H95.4864ZM98.6586 147.278V150.54H102.215V151.59H98.6586V154.95H102.635V156H97.3846V146.228H102.635V147.278H98.6586ZM105.836 145.64V156H104.562V145.64H105.836ZM115.008 151.87C115.008 152.113 114.994 152.369 114.966 152.64H108.834C108.88 153.396 109.137 153.989 109.604 154.418C110.08 154.838 110.654 155.048 111.326 155.048C111.876 155.048 112.334 154.922 112.698 154.67C113.071 154.409 113.332 154.063 113.482 153.634H114.854C114.648 154.371 114.238 154.973 113.622 155.44C113.006 155.897 112.24 156.126 111.326 156.126C110.598 156.126 109.944 155.963 109.366 155.636C108.796 155.309 108.348 154.847 108.022 154.25C107.695 153.643 107.532 152.943 107.532 152.15C107.532 151.357 107.69 150.661 108.008 150.064C108.325 149.467 108.768 149.009 109.338 148.692C109.916 148.365 110.579 148.202 111.326 148.202C112.054 148.202 112.698 148.361 113.258 148.678C113.818 148.995 114.247 149.434 114.546 149.994C114.854 150.545 115.008 151.17 115.008 151.87ZM113.692 151.604C113.692 151.119 113.584 150.703 113.37 150.358C113.155 150.003 112.861 149.737 112.488 149.56C112.124 149.373 111.718 149.28 111.27 149.28C110.626 149.28 110.075 149.485 109.618 149.896C109.17 150.307 108.913 150.876 108.848 151.604H113.692ZM119.545 154.824L121.925 148.328H123.283L120.273 156H118.789L115.779 148.328H117.151L119.545 154.824ZM124.061 152.136C124.061 151.352 124.22 150.666 124.537 150.078C124.854 149.481 125.288 149.019 125.839 148.692C126.399 148.365 127.02 148.202 127.701 148.202C128.373 148.202 128.956 148.347 129.451 148.636C129.946 148.925 130.314 149.289 130.557 149.728V148.328H131.845V156H130.557V154.572C130.305 155.02 129.927 155.393 129.423 155.692C128.928 155.981 128.35 156.126 127.687 156.126C127.006 156.126 126.39 155.958 125.839 155.622C125.288 155.286 124.854 154.815 124.537 154.208C124.22 153.601 124.061 152.911 124.061 152.136ZM130.557 152.15C130.557 151.571 130.44 151.067 130.207 150.638C129.974 150.209 129.656 149.882 129.255 149.658C128.863 149.425 128.429 149.308 127.953 149.308C127.477 149.308 127.043 149.42 126.651 149.644C126.259 149.868 125.946 150.195 125.713 150.624C125.48 151.053 125.363 151.557 125.363 152.136C125.363 152.724 125.48 153.237 125.713 153.676C125.946 154.105 126.259 154.437 126.651 154.67C127.043 154.894 127.477 155.006 127.953 155.006C128.429 155.006 128.863 154.894 129.255 154.67C129.656 154.437 129.974 154.105 130.207 153.676C130.44 153.237 130.557 152.729 130.557 152.15ZM135.552 149.378V153.9C135.552 154.273 135.631 154.539 135.79 154.698C135.949 154.847 136.224 154.922 136.616 154.922H137.554V156H136.406C135.697 156 135.165 155.837 134.81 155.51C134.455 155.183 134.278 154.647 134.278 153.9V149.378H133.284V148.328H134.278V146.396H135.552V148.328H137.554V149.378H135.552ZM146.098 151.87C146.098 152.113 146.084 152.369 146.056 152.64H139.924C139.97 153.396 140.227 153.989 140.694 154.418C141.17 154.838 141.744 155.048 142.416 155.048C142.966 155.048 143.424 154.922 143.788 154.67C144.161 154.409 144.422 154.063 144.572 153.634H145.944C145.738 154.371 145.328 154.973 144.712 155.44C144.096 155.897 143.33 156.126 142.416 156.126C141.688 156.126 141.034 155.963 140.456 155.636C139.886 155.309 139.438 154.847 139.112 154.25C138.785 153.643 138.622 152.943 138.622 152.15C138.622 151.357 138.78 150.661 139.098 150.064C139.415 149.467 139.858 149.009 140.428 148.692C141.006 148.365 141.669 148.202 142.416 148.202C143.144 148.202 143.788 148.361 144.348 148.678C144.908 148.995 145.337 149.434 145.636 149.994C145.944 150.545 146.098 151.17 146.098 151.87ZM144.782 151.604C144.782 151.119 144.674 150.703 144.46 150.358C144.245 150.003 143.951 149.737 143.578 149.56C143.214 149.373 142.808 149.28 142.36 149.28C141.716 149.28 141.165 149.485 140.708 149.896C140.26 150.307 140.003 150.876 139.938 151.604H144.782ZM147.303 152.136C147.303 151.352 147.462 150.666 147.779 150.078C148.097 149.481 148.531 149.019 149.081 148.692C149.641 148.365 150.267 148.202 150.957 148.202C151.555 148.202 152.11 148.342 152.623 148.622C153.137 148.893 153.529 149.252 153.799 149.7V145.64H155.087V156H153.799V154.558C153.547 155.015 153.174 155.393 152.679 155.692C152.185 155.981 151.606 156.126 150.943 156.126C150.262 156.126 149.641 155.958 149.081 155.622C148.531 155.286 148.097 154.815 147.779 154.208C147.462 153.601 147.303 152.911 147.303 152.136ZM153.799 152.15C153.799 151.571 153.683 151.067 153.449 150.638C153.216 150.209 152.899 149.882 152.497 149.658C152.105 149.425 151.671 149.308 151.195 149.308C150.719 149.308 150.285 149.42 149.893 149.644C149.501 149.868 149.189 150.195 148.955 150.624C148.722 151.053 148.605 151.557 148.605 152.136C148.605 152.724 148.722 153.237 148.955 153.676C149.189 154.105 149.501 154.437 149.893 154.67C150.285 154.894 150.719 155.006 151.195 155.006C151.671 155.006 152.105 154.894 152.497 154.67C152.899 154.437 153.216 154.105 153.449 153.676C153.683 153.237 153.799 152.729 153.799 152.15ZM162.56 150.33V151.408H156.974V150.33H162.56ZM164.587 154.978C165.772 154.026 166.701 153.247 167.373 152.64C168.045 152.024 168.61 151.385 169.067 150.722C169.534 150.05 169.767 149.392 169.767 148.748C169.767 148.141 169.618 147.665 169.319 147.32C169.03 146.965 168.558 146.788 167.905 146.788C167.27 146.788 166.776 146.989 166.421 147.39C166.076 147.782 165.889 148.309 165.861 148.972H164.629C164.666 147.927 164.984 147.119 165.581 146.55C166.178 145.981 166.948 145.696 167.891 145.696C168.852 145.696 169.613 145.962 170.173 146.494C170.742 147.026 171.027 147.759 171.027 148.692C171.027 149.467 170.794 150.223 170.327 150.96C169.87 151.688 169.347 152.332 168.759 152.892C168.171 153.443 167.42 154.087 166.505 154.824H171.321V155.888H164.587V154.978ZM172.794 150.834C172.794 149.229 173.055 147.978 173.578 147.082C174.1 146.177 175.015 145.724 176.322 145.724C177.619 145.724 178.529 146.177 179.052 147.082C179.574 147.978 179.836 149.229 179.836 150.834C179.836 152.467 179.574 153.737 179.052 154.642C178.529 155.547 177.619 156 176.322 156C175.015 156 174.1 155.547 173.578 154.642C173.055 153.737 172.794 152.467 172.794 150.834ZM178.576 150.834C178.576 150.022 178.52 149.336 178.408 148.776C178.305 148.207 178.086 147.749 177.75 147.404C177.423 147.059 176.947 146.886 176.322 146.886C175.687 146.886 175.202 147.059 174.866 147.404C174.539 147.749 174.32 148.207 174.208 148.776C174.105 149.336 174.054 150.022 174.054 150.834C174.054 151.674 174.105 152.379 174.208 152.948C174.32 153.517 174.539 153.975 174.866 154.32C175.202 154.665 175.687 154.838 176.322 154.838C176.947 154.838 177.423 154.665 177.75 154.32C178.086 153.975 178.305 153.517 178.408 152.948C178.52 152.379 178.576 151.674 178.576 150.834ZM181.585 150.834C181.585 149.229 181.846 147.978 182.369 147.082C182.891 146.177 183.806 145.724 185.113 145.724C186.41 145.724 187.32 146.177 187.843 147.082C188.365 147.978 188.627 149.229 188.627 150.834C188.627 152.467 188.365 153.737 187.843 154.642C187.32 155.547 186.41 156 185.113 156C183.806 156 182.891 155.547 182.369 154.642C181.846 153.737 181.585 152.467 181.585 150.834ZM187.367 150.834C187.367 150.022 187.311 149.336 187.199 148.776C187.096 148.207 186.877 147.749 186.541 147.404C186.214 147.059 185.738 146.886 185.113 146.886C184.478 146.886 183.993 147.059 183.657 147.404C183.33 147.749 183.111 148.207 182.999 148.776C182.896 149.336 182.845 150.022 182.845 150.834C182.845 151.674 182.896 152.379 182.999 152.948C183.111 153.517 183.33 153.975 183.657 154.32C183.993 154.665 184.478 154.838 185.113 154.838C185.738 154.838 186.214 154.665 186.541 154.32C186.877 153.975 187.096 153.517 187.199 152.948C187.311 152.379 187.367 151.674 187.367 150.834Z" fill="white"/>
<rect width="46" height="3" transform="translate(202 149.5)" fill="#BE3830"/>
<rect x="24" y="193" width="178" height="38" rx="19" fill="#BE3830"/>
<path d="M40.172 217.098C39.528 217.098 38.9493 216.986 38.436 216.762C37.932 216.529 37.5353 216.211 37.246 215.81C36.9567 215.399 36.8073 214.928 36.798 214.396H38.156C38.2027 214.853 38.3893 215.241 38.716 215.558C39.052 215.866 39.5373 216.02 40.172 216.02C40.7787 216.02 41.2547 215.871 41.6 215.572C41.9547 215.264 42.132 214.872 42.132 214.396C42.132 214.023 42.0293 213.719 41.824 213.486C41.6187 213.253 41.362 213.075 41.054 212.954C40.746 212.833 40.3307 212.702 39.808 212.562C39.164 212.394 38.646 212.226 38.254 212.058C37.8713 211.89 37.54 211.629 37.26 211.274C36.9893 210.91 36.854 210.425 36.854 209.818C36.854 209.286 36.9893 208.815 37.26 208.404C37.5307 207.993 37.9087 207.676 38.394 207.452C38.8887 207.228 39.4533 207.116 40.088 207.116C41.0027 207.116 41.7493 207.345 42.328 207.802C42.916 208.259 43.2473 208.866 43.322 209.622H41.922C41.8753 209.249 41.6793 208.922 41.334 208.642C40.9887 208.353 40.5313 208.208 39.962 208.208C39.43 208.208 38.996 208.348 38.66 208.628C38.324 208.899 38.156 209.281 38.156 209.776C38.156 210.131 38.254 210.42 38.45 210.644C38.6553 210.868 38.9027 211.041 39.192 211.162C39.4907 211.274 39.906 211.405 40.438 211.554C41.082 211.731 41.6 211.909 41.992 212.086C42.384 212.254 42.72 212.52 43 212.884C43.28 213.239 43.42 213.724 43.42 214.34C43.42 214.816 43.294 215.264 43.042 215.684C42.79 216.104 42.4167 216.445 41.922 216.706C41.4273 216.967 40.844 217.098 40.172 217.098ZM52.0988 209.328V217H50.8248V215.866C50.5821 216.258 50.2415 216.566 49.8028 216.79C49.3735 217.005 48.8975 217.112 48.3748 217.112C47.7775 217.112 47.2408 216.991 46.7648 216.748C46.2888 216.496 45.9108 216.123 45.6308 215.628C45.3601 215.133 45.2248 214.531 45.2248 213.822V209.328H46.4848V213.654C46.4848 214.41 46.6761 214.993 47.0588 215.404C47.4415 215.805 47.9641 216.006 48.6268 216.006C49.3081 216.006 49.8448 215.796 50.2368 215.376C50.6288 214.956 50.8248 214.345 50.8248 213.542V209.328H52.0988ZM55.5239 210.574C55.7479 210.135 56.0652 209.795 56.4759 209.552C56.8959 209.309 57.4045 209.188 58.0019 209.188V210.504H57.6659C56.2379 210.504 55.5239 211.279 55.5239 212.828V217H54.2499V209.328H55.5239V210.574ZM62.5945 210.378H60.9845V217H59.7105V210.378H58.7165V209.328H59.7105V208.782C59.7105 207.923 59.9299 207.298 60.3685 206.906C60.8165 206.505 61.5305 206.304 62.5105 206.304V207.368C61.9505 207.368 61.5539 207.48 61.3205 207.704C61.0965 207.919 60.9845 208.278 60.9845 208.782V209.328H62.5945V210.378ZM63.604 213.136C63.604 212.352 63.7626 211.666 64.08 211.078C64.3973 210.481 64.8313 210.019 65.382 209.692C65.942 209.365 66.5626 209.202 67.244 209.202C67.916 209.202 68.4993 209.347 68.994 209.636C69.4886 209.925 69.8573 210.289 70.1 210.728V209.328H71.388V217H70.1V215.572C69.848 216.02 69.47 216.393 68.966 216.692C68.4713 216.981 67.8926 217.126 67.23 217.126C66.5486 217.126 65.9326 216.958 65.382 216.622C64.8313 216.286 64.3973 215.815 64.08 215.208C63.7626 214.601 63.604 213.911 63.604 213.136ZM70.1 213.15C70.1 212.571 69.9833 212.067 69.75 211.638C69.5166 211.209 69.1993 210.882 68.798 210.658C68.406 210.425 67.972 210.308 67.496 210.308C67.02 210.308 66.586 210.42 66.194 210.644C65.802 210.868 65.4893 211.195 65.256 211.624C65.0226 212.053 64.906 212.557 64.906 213.136C64.906 213.724 65.0226 214.237 65.256 214.676C65.4893 215.105 65.802 215.437 66.194 215.67C66.586 215.894 67.02 216.006 67.496 216.006C67.972 216.006 68.406 215.894 68.798 215.67C69.1993 215.437 69.5166 215.105 69.75 214.676C69.9833 214.237 70.1 213.729 70.1 213.15ZM73.0649 213.15C73.0649 212.357 73.2236 211.666 73.5409 211.078C73.8582 210.481 74.2969 210.019 74.8569 209.692C75.4262 209.365 76.0749 209.202 76.8029 209.202C77.7456 209.202 78.5202 209.431 79.1269 209.888C79.7429 210.345 80.1489 210.98 80.3449 211.792H78.9729C78.8422 211.325 78.5856 210.957 78.2029 210.686C77.8296 210.415 77.3629 210.28 76.8029 210.28C76.0749 210.28 75.4869 210.532 75.0389 211.036C74.5909 211.531 74.3669 212.235 74.3669 213.15C74.3669 214.074 74.5909 214.788 75.0389 215.292C75.4869 215.796 76.0749 216.048 76.8029 216.048C77.3629 216.048 77.8296 215.917 78.2029 215.656C78.5762 215.395 78.8329 215.021 78.9729 214.536H80.3449C80.1396 215.32 79.7289 215.95 79.1129 216.426C78.4969 216.893 77.7269 217.126 76.8029 217.126C76.0749 217.126 75.4262 216.963 74.8569 216.636C74.2969 216.309 73.8582 215.847 73.5409 215.25C73.2236 214.653 73.0649 213.953 73.0649 213.15ZM89.0448 212.87C89.0448 213.113 89.0308 213.369 89.0028 213.64H82.8708C82.9175 214.396 83.1741 214.989 83.6408 215.418C84.1168 215.838 84.6908 216.048 85.3628 216.048C85.9135 216.048 86.3708 215.922 86.7348 215.67C87.1081 215.409 87.3695 215.063 87.5188 214.634H88.8908C88.6855 215.371 88.2748 215.973 87.6588 216.44C87.0428 216.897 86.2775 217.126 85.3628 217.126C84.6348 217.126 83.9815 216.963 83.4028 216.636C82.8335 216.309 82.3855 215.847 82.0588 215.25C81.7321 214.643 81.5688 213.943 81.5688 213.15C81.5688 212.357 81.7275 211.661 82.0448 211.064C82.3621 210.467 82.8055 210.009 83.3748 209.692C83.9535 209.365 84.6161 209.202 85.3628 209.202C86.0908 209.202 86.7348 209.361 87.2948 209.678C87.8548 209.995 88.2841 210.434 88.5828 210.994C88.8908 211.545 89.0448 212.17 89.0448 212.87ZM87.7288 212.604C87.7288 212.119 87.6215 211.703 87.4068 211.358C87.1921 211.003 86.8981 210.737 86.5248 210.56C86.1608 210.373 85.7548 210.28 85.3068 210.28C84.6628 210.28 84.1121 210.485 83.6548 210.896C83.2068 211.307 82.9501 211.876 82.8848 212.604H87.7288ZM95.4864 203.812L91.6504 219.38H90.3904L94.2124 203.812H95.4864ZM98.6586 208.278V211.54H102.215V212.59H98.6586V215.95H102.635V217H97.3846V207.228H102.635V208.278H98.6586ZM105.836 206.64V217H104.562V206.64H105.836ZM115.008 212.87C115.008 213.113 114.994 213.369 114.966 213.64H108.834C108.88 214.396 109.137 214.989 109.604 215.418C110.08 215.838 110.654 216.048 111.326 216.048C111.876 216.048 112.334 215.922 112.698 215.67C113.071 215.409 113.332 215.063 113.482 214.634H114.854C114.648 215.371 114.238 215.973 113.622 216.44C113.006 216.897 112.24 217.126 111.326 217.126C110.598 217.126 109.944 216.963 109.366 216.636C108.796 216.309 108.348 215.847 108.022 215.25C107.695 214.643 107.532 213.943 107.532 213.15C107.532 212.357 107.69 211.661 108.008 211.064C108.325 210.467 108.768 210.009 109.338 209.692C109.916 209.365 110.579 209.202 111.326 209.202C112.054 209.202 112.698 209.361 113.258 209.678C113.818 209.995 114.247 210.434 114.546 210.994C114.854 211.545 115.008 212.17 115.008 212.87ZM113.692 212.604C113.692 212.119 113.584 211.703 113.37 211.358C113.155 211.003 112.861 210.737 112.488 210.56C112.124 210.373 111.718 210.28 111.27 210.28C110.626 210.28 110.075 210.485 109.618 210.896C109.17 211.307 108.913 211.876 108.848 212.604H113.692ZM119.545 215.824L121.925 209.328H123.283L120.273 217H118.789L115.779 209.328H117.151L119.545 215.824ZM124.061 213.136C124.061 212.352 124.22 211.666 124.537 211.078C124.854 210.481 125.288 210.019 125.839 209.692C126.399 209.365 127.02 209.202 127.701 209.202C128.373 209.202 128.956 209.347 129.451 209.636C129.946 209.925 130.314 210.289 130.557 210.728V209.328H131.845V217H130.557V215.572C130.305 216.02 129.927 216.393 129.423 216.692C128.928 216.981 128.35 217.126 127.687 217.126C127.006 217.126 126.39 216.958 125.839 216.622C125.288 216.286 124.854 215.815 124.537 215.208C124.22 214.601 124.061 213.911 124.061 213.136ZM130.557 213.15C130.557 212.571 130.44 212.067 130.207 211.638C129.974 211.209 129.656 210.882 129.255 210.658C128.863 210.425 128.429 210.308 127.953 210.308C127.477 210.308 127.043 210.42 126.651 210.644C126.259 210.868 125.946 211.195 125.713 211.624C125.48 212.053 125.363 212.557 125.363 213.136C125.363 213.724 125.48 214.237 125.713 214.676C125.946 215.105 126.259 215.437 126.651 215.67C127.043 215.894 127.477 216.006 127.953 216.006C128.429 216.006 128.863 215.894 129.255 215.67C129.656 215.437 129.974 215.105 130.207 214.676C130.44 214.237 130.557 213.729 130.557 213.15ZM135.552 210.378V214.9C135.552 215.273 135.631 215.539 135.79 215.698C135.949 215.847 136.224 215.922 136.616 215.922H137.554V217H136.406C135.697 217 135.165 216.837 134.81 216.51C134.455 216.183 134.278 215.647 134.278 214.9V210.378H133.284V209.328H134.278V207.396H135.552V209.328H137.554V210.378H135.552ZM146.098 212.87C146.098 213.113 146.084 213.369 146.056 213.64H139.924C139.97 214.396 140.227 214.989 140.694 215.418C141.17 215.838 141.744 216.048 142.416 216.048C142.966 216.048 143.424 215.922 143.788 215.67C144.161 215.409 144.422 215.063 144.572 214.634H145.944C145.738 215.371 145.328 215.973 144.712 216.44C144.096 216.897 143.33 217.126 142.416 217.126C141.688 217.126 141.034 216.963 140.456 216.636C139.886 216.309 139.438 215.847 139.112 215.25C138.785 214.643 138.622 213.943 138.622 213.15C138.622 212.357 138.78 211.661 139.098 211.064C139.415 210.467 139.858 210.009 140.428 209.692C141.006 209.365 141.669 209.202 142.416 209.202C143.144 209.202 143.788 209.361 144.348 209.678C144.908 209.995 145.337 210.434 145.636 210.994C145.944 211.545 146.098 212.17 146.098 212.87ZM144.782 212.604C144.782 212.119 144.674 211.703 144.46 211.358C144.245 211.003 143.951 210.737 143.578 210.56C143.214 210.373 142.808 210.28 142.36 210.28C141.716 210.28 141.165 210.485 140.708 210.896C140.26 211.307 140.003 211.876 139.938 212.604H144.782ZM147.303 213.136C147.303 212.352 147.462 211.666 147.779 211.078C148.097 210.481 148.531 210.019 149.081 209.692C149.641 209.365 150.267 209.202 150.957 209.202C151.555 209.202 152.11 209.342 152.623 209.622C153.137 209.893 153.529 210.252 153.799 210.7V206.64H155.087V217H153.799V215.558C153.547 216.015 153.174 216.393 152.679 216.692C152.185 216.981 151.606 217.126 150.943 217.126C150.262 217.126 149.641 216.958 149.081 216.622C148.531 216.286 148.097 215.815 147.779 215.208C147.462 214.601 147.303 213.911 147.303 213.136ZM153.799 213.15C153.799 212.571 153.683 212.067 153.449 211.638C153.216 211.209 152.899 210.882 152.497 210.658C152.105 210.425 151.671 210.308 151.195 210.308C150.719 210.308 150.285 210.42 149.893 210.644C149.501 210.868 149.189 211.195 148.955 211.624C148.722 212.053 148.605 212.557 148.605 213.136C148.605 213.724 148.722 214.237 148.955 214.676C149.189 215.105 149.501 215.437 149.893 215.67C150.285 215.894 150.719 216.006 151.195 216.006C151.671 216.006 152.105 215.894 152.497 215.67C152.899 215.437 153.216 215.105 153.449 214.676C153.683 214.237 153.799 213.729 153.799 213.15ZM162.56 211.33V212.408H156.974V211.33H162.56ZM164.713 209.426C164.778 208.567 165.11 207.895 165.707 207.41C166.304 206.925 167.079 206.682 168.031 206.682C168.666 206.682 169.212 206.799 169.669 207.032C170.136 207.256 170.486 207.564 170.719 207.956C170.962 208.348 171.083 208.791 171.083 209.286C171.083 209.865 170.915 210.364 170.579 210.784C170.252 211.204 169.823 211.475 169.291 211.596V211.666C169.898 211.815 170.378 212.109 170.733 212.548C171.088 212.987 171.265 213.561 171.265 214.27C171.265 214.802 171.144 215.283 170.901 215.712C170.658 216.132 170.294 216.463 169.809 216.706C169.324 216.949 168.74 217.07 168.059 217.07C167.07 217.07 166.258 216.813 165.623 216.3C164.988 215.777 164.634 215.04 164.559 214.088H165.791C165.856 214.648 166.085 215.105 166.477 215.46C166.869 215.815 167.392 215.992 168.045 215.992C168.698 215.992 169.193 215.824 169.529 215.488C169.874 215.143 170.047 214.699 170.047 214.158C170.047 213.458 169.814 212.954 169.347 212.646C168.88 212.338 168.176 212.184 167.233 212.184H166.911V211.12H167.247C168.106 211.111 168.754 210.971 169.193 210.7C169.632 210.42 169.851 209.991 169.851 209.412C169.851 208.917 169.688 208.521 169.361 208.222C169.044 207.923 168.586 207.774 167.989 207.774C167.41 207.774 166.944 207.923 166.589 208.222C166.234 208.521 166.024 208.922 165.959 209.426H164.713ZM172.985 211.834C172.985 210.229 173.247 208.978 173.769 208.082C174.292 207.177 175.207 206.724 176.513 206.724C177.811 206.724 178.721 207.177 179.243 208.082C179.766 208.978 180.027 210.229 180.027 211.834C180.027 213.467 179.766 214.737 179.243 215.642C178.721 216.547 177.811 217 176.513 217C175.207 217 174.292 216.547 173.769 215.642C173.247 214.737 172.985 213.467 172.985 211.834ZM178.767 211.834C178.767 211.022 178.711 210.336 178.599 209.776C178.497 209.207 178.277 208.749 177.941 208.404C177.615 208.059 177.139 207.886 176.513 207.886C175.879 207.886 175.393 208.059 175.057 208.404C174.731 208.749 174.511 209.207 174.399 209.776C174.297 210.336 174.245 211.022 174.245 211.834C174.245 212.674 174.297 213.379 174.399 213.948C174.511 214.517 174.731 214.975 175.057 215.32C175.393 215.665 175.879 215.838 176.513 215.838C177.139 215.838 177.615 215.665 177.941 215.32C178.277 214.975 178.497 214.517 178.599 213.948C178.711 213.379 178.767 212.674 178.767 211.834ZM181.776 211.834C181.776 210.229 182.038 208.978 182.56 208.082C183.083 207.177 183.998 206.724 185.304 206.724C186.602 206.724 187.512 207.177 188.034 208.082C188.557 208.978 188.818 210.229 188.818 211.834C188.818 213.467 188.557 214.737 188.034 215.642C187.512 216.547 186.602 217 185.304 217C183.998 217 183.083 216.547 182.56 215.642C182.038 214.737 181.776 213.467 181.776 211.834ZM187.558 211.834C187.558 211.022 187.502 210.336 187.39 209.776C187.288 209.207 187.068 208.749 186.732 208.404C186.406 208.059 185.93 207.886 185.304 207.886C184.67 207.886 184.184 208.059 183.848 208.404C183.522 208.749 183.302 209.207 183.19 209.776C183.088 210.336 183.036 211.022 183.036 211.834C183.036 212.674 183.088 213.379 183.19 213.948C183.302 214.517 183.522 214.975 183.848 215.32C184.184 215.665 184.67 215.838 185.304 215.838C185.93 215.838 186.406 215.665 186.732 215.32C187.068 214.975 187.288 214.517 187.39 213.948C187.502 213.379 187.558 212.674 187.558 211.834Z" fill="white"/>
<rect width="78" height="3" transform="translate(202 210.5)" fill="#BE3830"/>
<path d="M40.172 288.098C39.528 288.098 38.9493 287.986 38.436 287.762C37.932 287.529 37.5353 287.211 37.246 286.81C36.9567 286.399 36.8073 285.928 36.798 285.396H38.156C38.2027 285.853 38.3893 286.241 38.716 286.558C39.052 286.866 39.5373 287.02 40.172 287.02C40.7787 287.02 41.2547 286.871 41.6 286.572C41.9547 286.264 42.132 285.872 42.132 285.396C42.132 285.023 42.0293 284.719 41.824 284.486C41.6187 284.253 41.362 284.075 41.054 283.954C40.746 283.833 40.3307 283.702 39.808 283.562C39.164 283.394 38.646 283.226 38.254 283.058C37.8713 282.89 37.54 282.629 37.26 282.274C36.9893 281.91 36.854 281.425 36.854 280.818C36.854 280.286 36.9893 279.815 37.26 279.404C37.5307 278.993 37.9087 278.676 38.394 278.452C38.8887 278.228 39.4533 278.116 40.088 278.116C41.0027 278.116 41.7493 278.345 42.328 278.802C42.916 279.259 43.2473 279.866 43.322 280.622H41.922C41.8753 280.249 41.6793 279.922 41.334 279.642C40.9887 279.353 40.5313 279.208 39.962 279.208C39.43 279.208 38.996 279.348 38.66 279.628C38.324 279.899 38.156 280.281 38.156 280.776C38.156 281.131 38.254 281.42 38.45 281.644C38.6553 281.868 38.9027 282.041 39.192 282.162C39.4907 282.274 39.906 282.405 40.438 282.554C41.082 282.731 41.6 282.909 41.992 283.086C42.384 283.254 42.72 283.52 43 283.884C43.28 284.239 43.42 284.724 43.42 285.34C43.42 285.816 43.294 286.264 43.042 286.684C42.79 287.104 42.4167 287.445 41.922 287.706C41.4273 287.967 40.844 288.098 40.172 288.098ZM52.0988 280.328V288H50.8248V286.866C50.5821 287.258 50.2415 287.566 49.8028 287.79C49.3735 288.005 48.8975 288.112 48.3748 288.112C47.7775 288.112 47.2408 287.991 46.7648 287.748C46.2888 287.496 45.9108 287.123 45.6308 286.628C45.3601 286.133 45.2248 285.531 45.2248 284.822V280.328H46.4848V284.654C46.4848 285.41 46.6761 285.993 47.0588 286.404C47.4415 286.805 47.9641 287.006 48.6268 287.006C49.3081 287.006 49.8448 286.796 50.2368 286.376C50.6288 285.956 50.8248 285.345 50.8248 284.542V280.328H52.0988ZM55.5239 281.574C55.7479 281.135 56.0652 280.795 56.4759 280.552C56.8959 280.309 57.4045 280.188 58.0019 280.188V281.504H57.6659C56.2379 281.504 55.5239 282.279 55.5239 283.828V288H54.2499V280.328H55.5239V281.574ZM62.5945 281.378H60.9845V288H59.7105V281.378H58.7165V280.328H59.7105V279.782C59.7105 278.923 59.9299 278.298 60.3685 277.906C60.8165 277.505 61.5305 277.304 62.5105 277.304V278.368C61.9505 278.368 61.5539 278.48 61.3205 278.704C61.0965 278.919 60.9845 279.278 60.9845 279.782V280.328H62.5945V281.378ZM63.604 284.136C63.604 283.352 63.7626 282.666 64.08 282.078C64.3973 281.481 64.8313 281.019 65.382 280.692C65.942 280.365 66.5626 280.202 67.244 280.202C67.916 280.202 68.4993 280.347 68.994 280.636C69.4886 280.925 69.8573 281.289 70.1 281.728V280.328H71.388V288H70.1V286.572C69.848 287.02 69.47 287.393 68.966 287.692C68.4713 287.981 67.8926 288.126 67.23 288.126C66.5486 288.126 65.9326 287.958 65.382 287.622C64.8313 287.286 64.3973 286.815 64.08 286.208C63.7626 285.601 63.604 284.911 63.604 284.136ZM70.1 284.15C70.1 283.571 69.9833 283.067 69.75 282.638C69.5166 282.209 69.1993 281.882 68.798 281.658C68.406 281.425 67.972 281.308 67.496 281.308C67.02 281.308 66.586 281.42 66.194 281.644C65.802 281.868 65.4893 282.195 65.256 282.624C65.0226 283.053 64.906 283.557 64.906 284.136C64.906 284.724 65.0226 285.237 65.256 285.676C65.4893 286.105 65.802 286.437 66.194 286.67C66.586 286.894 67.02 287.006 67.496 287.006C67.972 287.006 68.406 286.894 68.798 286.67C69.1993 286.437 69.5166 286.105 69.75 285.676C69.9833 285.237 70.1 284.729 70.1 284.15ZM73.0649 284.15C73.0649 283.357 73.2236 282.666 73.5409 282.078C73.8582 281.481 74.2969 281.019 74.8569 280.692C75.4262 280.365 76.0749 280.202 76.8029 280.202C77.7456 280.202 78.5202 280.431 79.1269 280.888C79.7429 281.345 80.1489 281.98 80.3449 282.792H78.9729C78.8422 282.325 78.5856 281.957 78.2029 281.686C77.8296 281.415 77.3629 281.28 76.8029 281.28C76.0749 281.28 75.4869 281.532 75.0389 282.036C74.5909 282.531 74.3669 283.235 74.3669 284.15C74.3669 285.074 74.5909 285.788 75.0389 286.292C75.4869 286.796 76.0749 287.048 76.8029 287.048C77.3629 287.048 77.8296 286.917 78.2029 286.656C78.5762 286.395 78.8329 286.021 78.9729 285.536H80.3449C80.1396 286.32 79.7289 286.95 79.1129 287.426C78.4969 287.893 77.7269 288.126 76.8029 288.126C76.0749 288.126 75.4262 287.963 74.8569 287.636C74.2969 287.309 73.8582 286.847 73.5409 286.25C73.2236 285.653 73.0649 284.953 73.0649 284.15ZM89.0448 283.87C89.0448 284.113 89.0308 284.369 89.0028 284.64H82.8708C82.9175 285.396 83.1741 285.989 83.6408 286.418C84.1168 286.838 84.6908 287.048 85.3628 287.048C85.9135 287.048 86.3708 286.922 86.7348 286.67C87.1081 286.409 87.3695 286.063 87.5188 285.634H88.8908C88.6855 286.371 88.2748 286.973 87.6588 287.44C87.0428 287.897 86.2775 288.126 85.3628 288.126C84.6348 288.126 83.9815 287.963 83.4028 287.636C82.8335 287.309 82.3855 286.847 82.0588 286.25C81.7321 285.643 81.5688 284.943 81.5688 284.15C81.5688 283.357 81.7275 282.661 82.0448 282.064C82.3621 281.467 82.8055 281.009 83.3748 280.692C83.9535 280.365 84.6161 280.202 85.3628 280.202C86.0908 280.202 86.7348 280.361 87.2948 280.678C87.8548 280.995 88.2841 281.434 88.5828 281.994C88.8908 282.545 89.0448 283.17 89.0448 283.87ZM87.7288 283.604C87.7288 283.119 87.6215 282.703 87.4068 282.358C87.1921 282.003 86.8981 281.737 86.5248 281.56C86.1608 281.373 85.7548 281.28 85.3068 281.28C84.6628 281.28 84.1121 281.485 83.6548 281.896C83.2068 282.307 82.9501 282.876 82.8848 283.604H87.7288ZM95.4864 274.812L91.6504 290.38H90.3904L94.2124 274.812H95.4864ZM100.479 288.098C99.8346 288.098 99.256 287.986 98.7426 287.762C98.2386 287.529 97.842 287.211 97.5526 286.81C97.2633 286.399 97.114 285.928 97.1046 285.396H98.4626C98.5093 285.853 98.696 286.241 99.0226 286.558C99.3586 286.866 99.844 287.02 100.479 287.02C101.085 287.02 101.561 286.871 101.907 286.572C102.261 286.264 102.439 285.872 102.439 285.396C102.439 285.023 102.336 284.719 102.131 284.486C101.925 284.253 101.669 284.075 101.361 283.954C101.053 283.833 100.637 283.702 100.115 283.562C99.4706 283.394 98.9526 283.226 98.5606 283.058C98.178 282.89 97.8466 282.629 97.5666 282.274C97.296 281.91 97.1606 281.425 97.1606 280.818C97.1606 280.286 97.296 279.815 97.5666 279.404C97.8373 278.993 98.2153 278.676 98.7006 278.452C99.1953 278.228 99.76 278.116 100.395 278.116C101.309 278.116 102.056 278.345 102.635 278.802C103.223 279.259 103.554 279.866 103.629 280.622H102.229C102.182 280.249 101.986 279.922 101.641 279.642C101.295 279.353 100.838 279.208 100.269 279.208C99.7366 279.208 99.3026 279.348 98.9666 279.628C98.6306 279.899 98.4626 280.281 98.4626 280.776C98.4626 281.131 98.5606 281.42 98.7566 281.644C98.962 281.868 99.2093 282.041 99.4986 282.162C99.7973 282.274 100.213 282.405 100.745 282.554C101.389 282.731 101.907 282.909 102.299 283.086C102.691 283.254 103.027 283.52 103.307 283.884C103.587 284.239 103.727 284.724 103.727 285.34C103.727 285.816 103.601 286.264 103.349 286.684C103.097 287.104 102.723 287.445 102.229 287.706C101.734 287.967 101.151 288.098 100.479 288.098ZM112.405 280.328V288H111.131V286.866C110.889 287.258 110.548 287.566 110.109 287.79C109.68 288.005 109.204 288.112 108.681 288.112C108.084 288.112 107.547 287.991 107.071 287.748C106.595 287.496 106.217 287.123 105.937 286.628C105.667 286.133 105.531 285.531 105.531 284.822V280.328H106.791V284.654C106.791 285.41 106.983 285.993 107.365 286.404C107.748 286.805 108.271 287.006 108.933 287.006C109.615 287.006 110.151 286.796 110.543 286.376C110.935 285.956 111.131 285.345 111.131 284.542V280.328H112.405ZM118.295 280.188C119.228 280.188 119.984 280.473 120.563 281.042C121.141 281.602 121.431 282.414 121.431 283.478V288H120.171V283.66C120.171 282.895 119.979 282.311 119.597 281.91C119.214 281.499 118.691 281.294 118.029 281.294C117.357 281.294 116.82 281.504 116.419 281.924C116.027 282.344 115.831 282.955 115.831 283.758V288H114.557V280.328H115.831V281.42C116.083 281.028 116.423 280.725 116.853 280.51C117.291 280.295 117.772 280.188 118.295 280.188ZM127.796 288L124.786 284.612V288H123.512V277.64H124.786V283.73L127.74 280.328H129.518L125.906 284.15L129.532 288H127.796ZM137.717 283.87C137.717 284.113 137.703 284.369 137.675 284.64H131.543C131.589 285.396 131.846 285.989 132.313 286.418C132.789 286.838 133.363 287.048 134.035 287.048C134.585 287.048 135.043 286.922 135.407 286.67C135.78 286.409 136.041 286.063 136.191 285.634H137.563C137.357 286.371 136.947 286.973 136.331 287.44C135.715 287.897 134.949 288.126 134.035 288.126C133.307 288.126 132.653 287.963 132.075 287.636C131.505 287.309 131.057 286.847 130.731 286.25C130.404 285.643 130.241 284.943 130.241 284.15C130.241 283.357 130.399 282.661 130.717 282.064C131.034 281.467 131.477 281.009 132.047 280.692C132.625 280.365 133.288 280.202 134.035 280.202C134.763 280.202 135.407 280.361 135.967 280.678C136.527 280.995 136.956 281.434 137.255 281.994C137.563 282.545 137.717 283.17 137.717 283.87ZM136.401 283.604C136.401 283.119 136.293 282.703 136.079 282.358C135.864 282.003 135.57 281.737 135.197 281.56C134.833 281.373 134.427 281.28 133.979 281.28C133.335 281.28 132.784 281.485 132.327 281.896C131.879 282.307 131.622 282.876 131.557 283.604H136.401ZM143.136 280.188C144.07 280.188 144.826 280.473 145.404 281.042C145.983 281.602 146.272 282.414 146.272 283.478V288H145.012V283.66C145.012 282.895 144.821 282.311 144.438 281.91C144.056 281.499 143.533 281.294 142.87 281.294C142.198 281.294 141.662 281.504 141.26 281.924C140.868 282.344 140.672 282.955 140.672 283.758V288H139.398V280.328H140.672V281.42C140.924 281.028 141.265 280.725 141.694 280.51C142.133 280.295 142.614 280.188 143.136 280.188Z" fill="#5C5C66"/>
</g>
<g clip-path="url(#clip1_6136_140)">
<rect width="344" height="320" transform="translate(344)" fill="#121212"/>
<g filter="url(#filter3_dd_6136_140)">
<rect x="216" y="32" width="256" height="256" rx="24" fill="#26262B"/>
</g>
<g filter="url(#filter4_dd_6136_140)">
<rect x="248" y="64" width="192" height="192" rx="16" fill="#2B2B30"/>
</g>
<g filter="url(#filter5_dd_6136_140)">
<rect x="280" y="96" width="128" height="128" rx="16" fill="#333338"/>
</g>
</g>
<defs>
<filter id="filter0_dd_6136_140" x="208" y="27" width="272" height="272" filterUnits="userSpaceOnUse" color-interpolation-filters="sRGB">
<feFlood flood-opacity="0" result="BackgroundImageFix"/>
<feColorMatrix in="SourceAlpha" type="matrix" values="0 0 0 0 0 0 0 0 0 0 0 0 0 0 0 0 0 0 127 0" result="hardAlpha"/>
<feOffset dy="3"/>
<feGaussianBlur stdDeviation="4"/>
<feComposite in2="hardAlpha" operator="out"/>
<feColorMatrix type="matrix" values="0 0 0 0 0 0 0 0 0 0 0 0 0 0 0 0 0 0 0.16 0"/>
<feBlend mode="normal" in2="BackgroundImageFix" result="effect1_dropShadow_6136_140"/>
<feColorMatrix in="SourceAlpha" type="matrix" values="0 0 0 0 0 0 0 0 0 0 0 0 0 0 0 0 0 0 127 0" result="hardAlpha"/>
<feOffset dy="3"/>
<feGaussianBlur stdDeviation="3"/>
<feComposite in2="hardAlpha" operator="out"/>
<feColorMatrix type="matrix" values="0 0 0 0 0 0 0 0 0 0 0 0 0 0 0 0 0 0 0.1 0"/>
<feBlend mode="normal" in2="effect1_dropShadow_6136_140" result="effect2_dropShadow_6136_140"/>
<feBlend mode="normal" in="SourceGraphic" in2="effect2_dropShadow_6136_140" result="shape"/>
</filter>
<filter id="filter1_dd_6136_140" x="242" y="59" width="204" height="204" filterUnits="userSpaceOnUse" color-interpolation-filters="sRGB">
<feFlood flood-opacity="0" result="BackgroundImageFix"/>
<feColorMatrix in="SourceAlpha" type="matrix" values="0 0 0 0 0 0 0 0 0 0 0 0 0 0 0 0 0 0 127 0" result="hardAlpha"/>
<feOffset dy="1"/>
<feGaussianBlur stdDeviation="0.5"/>
<feComposite in2="hardAlpha" operator="out"/>
<feColorMatrix type="matrix" values="0 0 0 0 0 0 0 0 0 0 0 0 0 0 0 0 0 0 0.16 0"/>
<feBlend mode="normal" in2="BackgroundImageFix" result="effect1_dropShadow_6136_140"/>
<feColorMatrix in="SourceAlpha" type="matrix" values="0 0 0 0 0 0 0 0 0 0 0 0 0 0 0 0 0 0 127 0" result="hardAlpha"/>
<feOffset dy="1"/>
<feGaussianBlur stdDeviation="3"/>
<feComposite in2="hardAlpha" operator="out"/>
<feColorMatrix type="matrix" values="0 0 0 0 0 0 0 0 0 0 0 0 0 0 0 0 0 0 0.12 0"/>
<feBlend mode="normal" in2="effect1_dropShadow_6136_140" result="effect2_dropShadow_6136_140"/>
<feBlend mode="normal" in="SourceGraphic" in2="effect2_dropShadow_6136_140" result="shape"/>
</filter>
<filter id="filter2_dd_6136_140" x="272" y="91" width="144" height="144" filterUnits="userSpaceOnUse" color-interpolation-filters="sRGB">
<feFlood flood-opacity="0" result="BackgroundImageFix"/>
<feColorMatrix in="SourceAlpha" type="matrix" values="0 0 0 0 0 0 0 0 0 0 0 0 0 0 0 0 0 0 127 0" result="hardAlpha"/>
<feOffset dy="3"/>
<feGaussianBlur stdDeviation="4"/>
<feComposite in2="hardAlpha" operator="out"/>
<feColorMatrix type="matrix" values="0 0 0 0 0 0 0 0 0 0 0 0 0 0 0 0 0 0 0.16 0"/>
<feBlend mode="normal" in2="BackgroundImageFix" result="effect1_dropShadow_6136_140"/>
<feColorMatrix in="SourceAlpha" type="matrix" values="0 0 0 0 0 0 0 0 0 0 0 0 0 0 0 0 0 0 127 0" result="hardAlpha"/>
<feOffset dy="3"/>
<feGaussianBlur stdDeviation="3"/>
<feComposite in2="hardAlpha" operator="out"/>
<feColorMatrix type="matrix" values="0 0 0 0 0 0 0 0 0 0 0 0 0 0 0 0 0 0 0.1 0"/>
<feBlend mode="normal" in2="effect1_dropShadow_6136_140" result="effect2_dropShadow_6136_140"/>
<feBlend mode="normal" in="SourceGraphic" in2="effect2_dropShadow_6136_140" result="shape"/>
</filter>
<filter id="filter3_dd_6136_140" x="208" y="27" width="272" height="272" filterUnits="userSpaceOnUse" color-interpolation-filters="sRGB">
<feFlood flood-opacity="0" result="BackgroundImageFix"/>
<feColorMatrix in="SourceAlpha" type="matrix" values="0 0 0 0 0 0 0 0 0 0 0 0 0 0 0 0 0 0 127 0" result="hardAlpha"/>
<feOffset dy="3"/>
<feGaussianBlur stdDeviation="4"/>
<feComposite in2="hardAlpha" operator="out"/>
<feColorMatrix type="matrix" values="0 0 0 0 0 0 0 0 0 0 0 0 0 0 0 0 0 0 0.16 0"/>
<feBlend mode="normal" in2="BackgroundImageFix" result="effect1_dropShadow_6136_140"/>
<feColorMatrix in="SourceAlpha" type="matrix" values="0 0 0 0 0 0 0 0 0 0 0 0 0 0 0 0 0 0 127 0" result="hardAlpha"/>
<feOffset dy="3"/>
<feGaussianBlur stdDeviation="3"/>
<feComposite in2="hardAlpha" operator="out"/>
<feColorMatrix type="matrix" values="0 0 0 0 0 0 0 0 0 0 0 0 0 0 0 0 0 0 0.1 0"/>
<feBlend mode="normal" in2="effect1_dropShadow_6136_140" result="effect2_dropShadow_6136_140"/>
<feBlend mode="normal" in="SourceGraphic" in2="effect2_dropShadow_6136_140" result="shape"/>
</filter>
<filter id="filter4_dd_6136_140" x="242" y="59" width="204" height="204" filterUnits="userSpaceOnUse" color-interpolation-filters="sRGB">
<feFlood flood-opacity="0" result="BackgroundImageFix"/>
<feColorMatrix in="SourceAlpha" type="matrix" values="0 0 0 0 0 0 0 0 0 0 0 0 0 0 0 0 0 0 127 0" result="hardAlpha"/>
<feOffset dy="1"/>
<feGaussianBlur stdDeviation="0.5"/>
<feComposite in2="hardAlpha" operator="out"/>
<feColorMatrix type="matrix" values="0 0 0 0 0 0 0 0 0 0 0 0 0 0 0 0 0 0 0.16 0"/>
<feBlend mode="normal" in2="BackgroundImageFix" result="effect1_dropShadow_6136_140"/>
<feColorMatrix in="SourceAlpha" type="matrix" values="0 0 0 0 0 0 0 0 0 0 0 0 0 0 0 0 0 0 127 0" result="hardAlpha"/>
<feOffset dy="1"/>
<feGaussianBlur stdDeviation="3"/>
<feComposite in2="hardAlpha" operator="out"/>
<feColorMatrix type="matrix" values="0 0 0 0 0 0 0 0 0 0 0 0 0 0 0 0 0 0 0.12 0"/>
<feBlend mode="normal" in2="effect1_dropShadow_6136_140" result="effect2_dropShadow_6136_140"/>
<feBlend mode="normal" in="SourceGraphic" in2="effect2_dropShadow_6136_140" result="shape"/>
</filter>
<filter id="filter5_dd_6136_140" x="272" y="91" width="144" height="144" filterUnits="userSpaceOnUse" color-interpolation-filters="sRGB">
<feFlood flood-opacity="0" result="BackgroundImageFix"/>
<feColorMatrix in="SourceAlpha" type="matrix" values="0 0 0 0 0 0 0 0 0 0 0 0 0 0 0 0 0 0 127 0" result="hardAlpha"/>
<feOffset dy="3"/>
<feGaussianBlur stdDeviation="4"/>
<feComposite in2="hardAlpha" operator="out"/>
<feColorMatrix type="matrix" values="0 0 0 0 0 0 0 0 0 0 0 0 0 0 0 0 0 0 0.16 0"/>
<feBlend mode="normal" in2="BackgroundImageFix" result="effect1_dropShadow_6136_140"/>
<feColorMatrix in="SourceAlpha" type="matrix" values="0 0 0 0 0 0 0 0 0 0 0 0 0 0 0 0 0 0 127 0" result="hardAlpha"/>
<feOffset dy="3"/>
<feGaussianBlur stdDeviation="3"/>
<feComposite in2="hardAlpha" operator="out"/>
<feColorMatrix type="matrix" values="0 0 0 0 0 0 0 0 0 0 0 0 0 0 0 0 0 0 0.1 0"/>
<feBlend mode="normal" in2="effect1_dropShadow_6136_140" result="effect2_dropShadow_6136_140"/>
<feBlend mode="normal" in="SourceGraphic" in2="effect2_dropShadow_6136_140" result="shape"/>
</filter>
<clipPath id="clip0_6136_140">
<rect width="344" height="320" fill="white"/>
</clipPath>
<clipPath id="clip1_6136_140">
<rect width="344" height="320" fill="white" transform="translate(344)"/>
</clipPath>
</defs>
</svg>
