<svg width="124" height="90" viewBox="0 0 124 90" fill="none" xmlns="http://www.w3.org/2000/svg">
<rect y="0.5" width="124" height="89" rx="4" fill="var(--vp-c-svg2, #131B2D )"/>
<path d="M21.9063 24.2344L18.8125 21.1406L21.9063 18.0469" stroke="var(--vp-c-svg3, #9EACC9 )" stroke-width="0.84375" stroke-linecap="round" stroke-linejoin="round"/>
<rect x="33" y="19" width="58" height="4" rx="2" fill="var(--vp-c-svg1, #FFFBD5 )"/>
<path d="M102.094 24.2344L105.188 21.1406L102.094 18.0469" stroke="var(--vp-c-svg3, #9EACC9 )" stroke-width="0.84375" stroke-linecap="round" stroke-linejoin="round"/>
<rect x="16" y="33.5" width="8.66667" height="4" rx="2" fill="var(--vp-c-svg3, #9EACC9 )"/>
<rect x="32.6667" y="33.5" width="8.66667" height="4" rx="2" fill="var(--vp-c-svg3, #9EACC9 )"/>
<rect x="49.3333" y="33.5" width="8.66667" height="4" rx="2" fill="var(--vp-c-svg3, #9EACC9 )"/>
<rect x="66" y="33.5" width="8.66667" height="4" rx="2" fill="var(--vp-c-svg3, #9EACC9 )"/>
<rect x="82.6667" y="33.5" width="8.66667" height="4" rx="2" fill="var(--vp-c-svg3, #9EACC9 )"/>
<rect x="99.3333" y="33.5" width="8.66667" height="4" rx="2" fill="var(--vp-c-svg3, #9EACC9 )"/>
<rect x="16" y="45.5" width="8.66667" height="4" rx="2" fill="var(--vp-c-svg3, #9EACC9 )"/>
<rect x="32.6667" y="45.5" width="8.66667" height="4" rx="2" fill="var(--vp-c-svg3, #9EACC9 )"/>
<rect x="49.3333" y="45.5" width="8.66667" height="4" rx="2" fill="var(--vp-c-svg3, #9EACC9 )"/>
<rect x="66" y="45.5" width="8.66667" height="4" rx="2" fill="var(--vp-c-svg3, #9EACC9 )"/>
<rect x="82.6667" y="45.5" width="8.66667" height="4" rx="2" fill="var(--vp-c-svg3, #9EACC9 )"/>
<rect x="99.3333" y="45.5" width="8.66667" height="4" rx="2" fill="var(--vp-c-svg3, #9EACC9 )"/>
<rect x="16" y="57.5" width="8.66667" height="4" rx="2" fill="var(--vp-c-svg3, #9EACC9 )"/>
<rect x="32.6667" y="57.5" width="8.66667" height="4" rx="2" fill="var(--vp-c-svg3, #9EACC9 )"/>
<rect x="49.3333" y="57.5" width="8.66667" height="4" rx="2" fill="var(--vp-c-svg3, #9EACC9 )"/>
<rect x="66" y="57.5" width="8.66667" height="4" rx="2" fill="var(--vp-c-svg3, #9EACC9 )"/>
<rect x="82.6667" y="57.5" width="8.66667" height="4" rx="2" fill="var(--vp-c-svg3, #9EACC9 )"/>
<rect x="99.3333" y="57.5" width="8.66667" height="4" rx="2" fill="var(--vp-c-svg3, #9EACC9 )"/>
<rect x="16" y="69.5" width="8.66667" height="4" rx="2" fill="var(--vp-c-svg3, #9EACC9 )"/>
<rect x="32.6667" y="69.5" width="8.66667" height="4" rx="2" fill="var(--vp-c-svg3, #9EACC9 )"/>
<rect x="49.3333" y="69.5" width="8.66667" height="4" rx="2" fill="var(--vp-c-svg3, #9EACC9 )"/>
<rect x="66" y="69.5" width="8.66667" height="4" rx="2" fill="var(--vp-c-svg3, #9EACC9 )"/>
<rect x="82.6667" y="69.5" width="8.66667" height="4" rx="2" fill="var(--vp-c-svg3, #9EACC9 )"/>
<rect x="99.3333" y="69.5" width="8.66667" height="4" rx="2" fill="var(--vp-c-svg3, #9EACC9 )"/>
<circle cx="37" cy="59.5" r="6" fill="var(--vp-c-svg1, #FFFBD5 )"/>
</svg>
