<svg width="332" height="220" viewBox="0 0 332 220" fill="none" xmlns="http://www.w3.org/2000/svg">
<rect x="40.5" y="132.5" width="113" height="47" rx="3.5" fill="white"/>
<rect x="40.5" y="132.5" width="113" height="47" rx="3.5" stroke="#84848F"/>
<g clip-path="url(#clip0_5449_11189)">
<path d="M58.304 149.896C58.368 149.725 58.4907 149.64 58.672 149.64H59.92C60.1333 149.64 60.24 149.747 60.24 149.96V160.68C60.24 160.893 60.1333 161 59.92 161H59.456C59.2427 161 59.136 160.893 59.136 160.68V155.368C59.136 154.227 59.1467 152.579 59.168 150.424C58.7307 151.672 58.1333 153.32 57.376 155.368L55.408 160.744C55.344 160.915 55.2213 161 55.04 161H54.576C54.3947 161 54.272 160.915 54.208 160.744L52.192 155.352C51.7653 154.243 51.1733 152.6 50.416 150.424C50.4373 152.579 50.448 154.232 50.448 155.384V160.68C50.448 160.893 50.3413 161 50.128 161H49.696C49.4827 161 49.376 160.893 49.376 160.68V149.96C49.376 149.747 49.4827 149.64 49.696 149.64H50.928C51.1093 149.64 51.232 149.725 51.296 149.896L53.12 154.808C53.9627 157.101 54.528 158.717 54.816 159.656C55.0827 158.76 55.5413 157.421 56.192 155.64C56.2347 155.523 56.2827 155.395 56.336 155.256C56.3893 155.117 56.4427 154.968 56.496 154.808L58.304 149.896ZM63.3214 151.112C63.108 151.112 62.9267 151.037 62.7774 150.888C62.6387 150.739 62.5694 150.557 62.5694 150.344C62.5694 150.131 62.6387 149.955 62.7774 149.816C62.9267 149.677 63.108 149.608 63.3214 149.608C63.5454 149.608 63.7267 149.677 63.8654 149.816C64.0147 149.955 64.0894 150.131 64.0894 150.344C64.0894 150.557 64.0147 150.739 63.8654 150.888C63.7267 151.037 63.5454 151.112 63.3214 151.112ZM63.1134 161C62.9 161 62.7934 160.893 62.7934 160.68V153.432C62.7934 153.219 62.9 153.112 63.1134 153.112H63.5294C63.7427 153.112 63.8494 153.219 63.8494 153.432V160.68C63.8494 160.893 63.7427 161 63.5294 161H63.1134ZM69.7196 152.92C70.6476 152.92 71.3463 153.176 71.8156 153.688C72.2956 154.2 72.5356 154.84 72.5356 155.608V160.68C72.5356 160.893 72.429 161 72.2156 161H71.7996C71.5863 161 71.4796 160.893 71.4796 160.68V155.96C71.4796 155.256 71.309 154.723 70.9676 154.36C70.6263 153.997 70.1356 153.816 69.4956 153.816C69.0903 153.816 68.717 153.917 68.3756 154.12C68.0343 154.312 67.7623 154.579 67.5596 154.92C67.357 155.261 67.2556 155.635 67.2556 156.04V160.68C67.2556 160.893 67.149 161 66.9356 161H66.5196C66.3063 161 66.1996 160.893 66.1996 160.68V153.432C66.1996 153.219 66.3063 153.112 66.5196 153.112H66.8716C67.085 153.112 67.1916 153.219 67.1916 153.432V154.2C67.4583 153.773 67.8103 153.453 68.2476 153.24C68.685 153.027 69.1756 152.92 69.7196 152.92Z" fill="#1B1B1F"/>
</g>
<rect x="178.5" y="132.5" width="113" height="47" rx="3.5" fill="white"/>
<rect x="178.5" y="132.5" width="113" height="47" rx="3.5" stroke="#84848F"/>
<g clip-path="url(#clip1_5449_11189)">
<path d="M196.304 149.896C196.368 149.725 196.491 149.64 196.672 149.64H197.92C198.133 149.64 198.24 149.747 198.24 149.96V160.68C198.24 160.893 198.133 161 197.92 161H197.456C197.243 161 197.136 160.893 197.136 160.68V155.368C197.136 154.227 197.147 152.579 197.168 150.424C196.731 151.672 196.133 153.32 195.376 155.368L193.408 160.744C193.344 160.915 193.221 161 193.04 161H192.576C192.395 161 192.272 160.915 192.208 160.744L190.192 155.352C189.765 154.243 189.173 152.6 188.416 150.424C188.437 152.579 188.448 154.232 188.448 155.384V160.68C188.448 160.893 188.341 161 188.128 161H187.696C187.483 161 187.376 160.893 187.376 160.68V149.96C187.376 149.747 187.483 149.64 187.696 149.64H188.928C189.109 149.64 189.232 149.725 189.296 149.896L191.12 154.808C191.963 157.101 192.528 158.717 192.816 159.656C193.083 158.76 193.541 157.421 194.192 155.64C194.235 155.523 194.283 155.395 194.336 155.256C194.389 155.117 194.443 154.968 194.496 154.808L196.304 149.896ZM203.833 152.92C204.804 152.92 205.561 153.155 206.105 153.624C206.649 154.083 206.921 154.691 206.921 155.448V160.68C206.921 160.893 206.815 161 206.601 161H206.281C206.068 161 205.961 160.893 205.961 160.68V159.96C205.695 160.387 205.316 160.707 204.825 160.92C204.345 161.133 203.807 161.24 203.209 161.24C202.377 161.24 201.7 161.064 201.177 160.712C200.655 160.36 200.393 159.816 200.393 159.08C200.393 158.493 200.559 158.024 200.889 157.672C201.22 157.309 201.652 157.037 202.185 156.856C202.719 156.664 203.385 156.493 204.185 156.344L205.913 156.04V155.528C205.913 154.984 205.727 154.563 205.353 154.264C204.98 153.955 204.489 153.8 203.881 153.8C203.423 153.8 203.007 153.885 202.633 154.056C202.26 154.227 201.86 154.52 201.433 154.936C201.359 155.011 201.279 155.048 201.193 155.048C201.119 155.048 201.049 155.016 200.985 154.952L200.777 154.76C200.703 154.685 200.665 154.605 200.665 154.52C200.665 154.424 200.703 154.339 200.777 154.264C201.225 153.795 201.695 153.453 202.185 153.24C202.687 153.027 203.236 152.92 203.833 152.92ZM203.257 160.36C204.025 160.36 204.66 160.157 205.161 159.752C205.663 159.347 205.913 158.829 205.913 158.2V156.856L204.425 157.144C203.732 157.283 203.183 157.416 202.777 157.544C202.372 157.672 202.047 157.859 201.801 158.104C201.556 158.349 201.433 158.669 201.433 159.064C201.433 159.469 201.593 159.789 201.913 160.024C202.244 160.248 202.692 160.36 203.257 160.36ZM215.054 160.616C215.097 160.691 215.118 160.755 215.118 160.808C215.118 160.936 215.033 161 214.862 161H214.382C214.222 161 214.094 160.931 213.998 160.792L211.822 157.592L209.662 160.792C209.566 160.931 209.438 161 209.278 161H208.83C208.745 161 208.675 160.984 208.622 160.952C208.579 160.909 208.558 160.861 208.558 160.808C208.558 160.733 208.579 160.669 208.622 160.616L211.214 156.888L208.83 153.496C208.787 153.443 208.766 153.384 208.766 153.32C208.766 153.181 208.857 153.112 209.038 153.112H209.502C209.662 153.112 209.79 153.181 209.886 153.32L211.838 156.184L213.774 153.32C213.87 153.181 213.998 153.112 214.158 153.112H214.59C214.675 153.112 214.739 153.133 214.782 153.176C214.835 153.208 214.862 153.251 214.862 153.304C214.862 153.379 214.841 153.443 214.798 153.496L212.462 156.84L215.054 160.616Z" fill="#1B1B1F"/>
</g>
<path d="M43.472 106.172C43.5747 106.097 43.6913 106.06 43.822 106.06H44.046C44.2327 106.06 44.326 106.153 44.326 106.34V115.72C44.326 115.907 44.2327 116 44.046 116H43.668C43.4813 116 43.388 115.907 43.388 115.72V107.264L41.274 108.776C41.2087 108.823 41.148 108.846 41.092 108.846C41.008 108.846 40.938 108.804 40.882 108.72L40.742 108.51C40.7047 108.463 40.686 108.407 40.686 108.342C40.686 108.258 40.728 108.183 40.812 108.118L43.472 106.172ZM50.5405 105.85C51.2871 105.85 51.9265 106.018 52.4585 106.354C52.9905 106.681 53.3918 107.129 53.6625 107.698C53.9331 108.267 54.0685 108.907 54.0685 109.616C54.0685 110.363 53.9378 111.058 53.6765 111.702C53.4151 112.346 53.0651 112.943 52.6265 113.494C52.1971 114.045 51.6558 114.633 51.0025 115.258L50.3725 115.86C50.2791 115.953 50.1671 116 50.0365 116H49.4765C49.3178 116 49.2385 115.949 49.2385 115.846C49.2385 115.79 49.2758 115.725 49.3505 115.65L50.2325 114.838C51.6511 113.541 52.5565 112.369 52.9485 111.324C52.6778 111.697 52.3231 111.996 51.8845 112.22C51.4458 112.435 50.9465 112.542 50.3865 112.542C49.7051 112.542 49.1125 112.393 48.6085 112.094C48.1045 111.786 47.7171 111.38 47.4465 110.876C47.1851 110.363 47.0545 109.807 47.0545 109.21C47.0545 108.613 47.1945 108.057 47.4745 107.544C47.7545 107.031 48.1558 106.62 48.6785 106.312C49.2105 106.004 49.8311 105.85 50.5405 105.85ZM50.4565 111.73C50.9885 111.73 51.4505 111.618 51.8425 111.394C52.2438 111.17 52.5471 110.867 52.7525 110.484C52.9671 110.101 53.0745 109.672 53.0745 109.196C53.0745 108.72 52.9718 108.291 52.7665 107.908C52.5611 107.516 52.2671 107.213 51.8845 106.998C51.5018 106.774 51.0538 106.662 50.5405 106.662C49.7658 106.662 49.1498 106.9 48.6925 107.376C48.2445 107.852 48.0205 108.459 48.0205 109.196C48.0205 109.933 48.2351 110.54 48.6645 111.016C49.0938 111.492 49.6911 111.73 50.4565 111.73ZM59.2293 109.588C59.8733 109.588 60.438 109.723 60.9233 109.994C61.418 110.255 61.8007 110.629 62.0713 111.114C62.342 111.599 62.4773 112.159 62.4773 112.794C62.4773 113.363 62.342 113.909 62.0713 114.432C61.8007 114.955 61.4087 115.379 60.8953 115.706C60.382 116.033 59.78 116.196 59.0893 116.196C58.4173 116.196 57.834 116.112 57.3393 115.944C56.854 115.776 56.3033 115.487 55.6873 115.076C55.594 115.02 55.5473 114.945 55.5473 114.852C55.5473 114.787 55.566 114.731 55.6033 114.684L55.7853 114.432C55.8413 114.348 55.9067 114.306 55.9813 114.306C56.0373 114.306 56.1027 114.329 56.1773 114.376C56.7467 114.759 57.232 115.025 57.6333 115.174C58.044 115.323 58.4967 115.398 58.9913 115.398C59.514 115.398 59.9667 115.281 60.3493 115.048C60.732 114.805 61.0213 114.488 61.2173 114.096C61.4227 113.695 61.5253 113.261 61.5253 112.794C61.5253 112.047 61.3153 111.464 60.8953 111.044C60.4847 110.624 59.892 110.414 59.1173 110.414C58.2867 110.414 57.5913 110.666 57.0313 111.17C56.9287 111.263 56.8073 111.301 56.6673 111.282L56.3593 111.24C56.2753 111.231 56.21 111.198 56.1633 111.142C56.1167 111.086 56.098 111.016 56.1073 110.932L56.4853 106.326C56.4947 106.242 56.5227 106.177 56.5693 106.13C56.6253 106.083 56.6953 106.06 56.7793 106.06H61.7633C61.95 106.06 62.0433 106.153 62.0433 106.34V106.592C62.0433 106.779 61.95 106.872 61.7633 106.872H57.3113L57.0173 110.316C57.2787 110.101 57.596 109.929 57.9693 109.798C58.352 109.658 58.772 109.588 59.2293 109.588ZM67.4559 116.21C66.8025 116.21 66.2285 116.051 65.7339 115.734C65.2485 115.417 64.8612 114.973 64.5719 114.404C64.1145 113.499 63.8859 112.374 63.8859 111.03C63.8859 109.677 64.1145 108.547 64.5719 107.642C64.8612 107.073 65.2485 106.634 65.7339 106.326C66.2285 106.009 66.8025 105.85 67.4559 105.85C68.1092 105.85 68.6785 106.009 69.1639 106.326C69.6585 106.634 70.0505 107.073 70.3399 107.642C70.7972 108.547 71.0259 109.677 71.0259 111.03C71.0259 112.374 70.7972 113.499 70.3399 114.404C70.0505 114.973 69.6585 115.417 69.1639 115.734C68.6785 116.051 68.1092 116.21 67.4559 116.21ZM67.4559 115.398C68.3705 115.398 69.0565 114.922 69.5139 113.97C69.8779 113.195 70.0599 112.215 70.0599 111.03C70.0599 109.826 69.8779 108.841 69.5139 108.076C69.0659 107.133 68.3799 106.662 67.4559 106.662C66.5319 106.662 65.8459 107.133 65.3979 108.076C65.0339 108.841 64.8519 109.826 64.8519 111.03C64.8519 112.225 65.0339 113.205 65.3979 113.97C65.8552 114.922 66.5412 115.398 67.4559 115.398Z" fill="#5C5C66"/>
<path d="M233.318 116C233.159 116 233.052 115.925 232.996 115.776L232.072 113.214H227.55L226.64 115.776C226.584 115.925 226.476 116 226.318 116H225.884C225.809 116 225.748 115.981 225.702 115.944C225.655 115.907 225.632 115.855 225.632 115.79L225.66 115.678L229.09 106.284C229.146 106.135 229.253 106.06 229.412 106.06H230.224C230.382 106.06 230.49 106.135 230.546 106.284L233.976 115.678L234.004 115.79C234.004 115.855 233.98 115.907 233.934 115.944C233.887 115.981 233.826 116 233.752 116H233.318ZM231.764 112.374L231.274 111.002L231.162 110.708C231.031 110.353 230.816 109.761 230.518 108.93C230.228 108.099 229.99 107.395 229.804 106.816C229.552 107.609 229.155 108.762 228.614 110.274C228.576 110.377 228.534 110.489 228.488 110.61C228.441 110.731 228.394 110.862 228.348 111.002L227.858 112.374H231.764ZM237.809 106.662C237.389 106.662 237.09 106.774 236.913 106.998C236.735 107.213 236.647 107.577 236.647 108.09V109.098H238.187C238.373 109.098 238.467 109.191 238.467 109.378V109.518C238.467 109.705 238.373 109.798 238.187 109.798H236.647V115.72C236.647 115.907 236.553 116 236.367 116H236.003C235.816 116 235.723 115.907 235.723 115.72V109.798H234.687C234.5 109.798 234.407 109.705 234.407 109.518V109.378C234.407 109.191 234.5 109.098 234.687 109.098H235.723V107.936C235.723 107.292 235.891 106.788 236.227 106.424C236.572 106.06 237.062 105.878 237.697 105.878C238.051 105.878 238.415 105.929 238.789 106.032C238.966 106.088 239.031 106.205 238.985 106.382L238.929 106.578C238.882 106.709 238.789 106.774 238.649 106.774C238.621 106.774 238.56 106.765 238.467 106.746C238.261 106.69 238.042 106.662 237.809 106.662ZM243.015 115.23C243.043 115.221 243.08 115.216 243.127 115.216C243.183 115.216 243.234 115.235 243.281 115.272C243.328 115.309 243.356 115.361 243.365 115.426L243.407 115.622C243.416 115.641 243.421 115.673 243.421 115.72C243.421 115.851 243.351 115.93 243.211 115.958C242.875 116.061 242.516 116.112 242.133 116.112C241.526 116.112 241.092 115.977 240.831 115.706C240.579 115.426 240.453 115.025 240.453 114.502V109.798H239.417C239.23 109.798 239.137 109.705 239.137 109.518V109.378C239.137 109.191 239.23 109.098 239.417 109.098H240.453V106.97C240.453 106.783 240.546 106.69 240.733 106.69H241.097C241.284 106.69 241.377 106.783 241.377 106.97V109.098H243.057C243.244 109.098 243.337 109.191 243.337 109.378V109.518C243.337 109.705 243.244 109.798 243.057 109.798H241.377V114.39C241.377 114.735 241.442 114.978 241.573 115.118C241.704 115.258 241.928 115.328 242.245 115.328C242.469 115.328 242.726 115.295 243.015 115.23ZM249.513 114.362C249.579 114.297 249.649 114.264 249.723 114.264C249.789 114.264 249.849 114.292 249.905 114.348L250.087 114.516C250.153 114.581 250.185 114.651 250.185 114.726C250.185 114.782 250.157 114.847 250.101 114.922C249.644 115.379 249.201 115.706 248.771 115.902C248.342 116.089 247.861 116.182 247.329 116.182C246.657 116.182 246.074 116.033 245.579 115.734C245.085 115.435 244.702 115.02 244.431 114.488C244.161 113.947 244.025 113.321 244.025 112.612C244.025 111.893 244.156 111.259 244.417 110.708C244.688 110.148 245.066 109.714 245.551 109.406C246.037 109.089 246.597 108.93 247.231 108.93C248.174 108.93 248.916 109.224 249.457 109.812C249.999 110.4 250.269 111.193 250.269 112.192V112.36C250.26 112.444 250.227 112.509 250.171 112.556C250.125 112.603 250.059 112.626 249.975 112.626H244.963C244.991 113.41 245.197 114.073 245.579 114.614C245.971 115.146 246.555 115.412 247.329 115.412C247.749 115.412 248.118 115.337 248.435 115.188C248.762 115.029 249.121 114.754 249.513 114.362ZM247.231 109.7C246.615 109.7 246.107 109.891 245.705 110.274C245.313 110.647 245.075 111.198 244.991 111.926H249.345C249.327 111.245 249.131 110.703 248.757 110.302C248.384 109.901 247.875 109.7 247.231 109.7ZM254.501 109.042C254.734 109.042 255.009 109.079 255.327 109.154C255.495 109.21 255.56 109.327 255.523 109.504L255.467 109.728C255.42 109.905 255.303 109.971 255.117 109.924C254.893 109.868 254.687 109.84 254.501 109.84C254.025 109.84 253.628 110.045 253.311 110.456C253.003 110.867 252.849 111.436 252.849 112.164V115.72C252.849 115.907 252.755 116 252.569 116H252.205C252.018 116 251.925 115.907 251.925 115.72V109.378C251.925 109.191 252.018 109.098 252.205 109.098H252.513C252.699 109.098 252.793 109.191 252.793 109.378V110.148C252.951 109.803 253.175 109.532 253.465 109.336C253.763 109.14 254.109 109.042 254.501 109.042ZM266.095 115.188C266.281 115.188 266.375 115.281 266.375 115.468V115.72C266.375 115.907 266.281 116 266.095 116H259.879C259.692 116 259.599 115.907 259.599 115.72V115.664C259.599 114.983 259.715 114.409 259.949 113.942C260.191 113.466 260.504 113.065 260.887 112.738C261.279 112.411 261.815 112.038 262.497 111.618C262.562 111.571 262.805 111.427 263.225 111.184C263.719 110.904 264.107 110.661 264.387 110.456C264.667 110.251 264.9 109.999 265.087 109.7C265.273 109.392 265.367 109.033 265.367 108.622C265.367 107.997 265.157 107.516 264.737 107.18C264.317 106.844 263.808 106.676 263.211 106.676C262.632 106.676 262.151 106.797 261.769 107.04C261.386 107.283 260.943 107.703 260.439 108.3C260.373 108.384 260.294 108.426 260.201 108.426C260.154 108.426 260.098 108.403 260.033 108.356L259.795 108.174C259.711 108.099 259.669 108.025 259.669 107.95C259.669 107.903 259.692 107.847 259.739 107.782C260.233 107.157 260.747 106.681 261.279 106.354C261.82 106.027 262.455 105.864 263.183 105.864C263.789 105.864 264.331 105.981 264.807 106.214C265.283 106.438 265.651 106.76 265.913 107.18C266.183 107.591 266.319 108.057 266.319 108.58C266.319 109.131 266.202 109.607 265.969 110.008C265.745 110.4 265.46 110.727 265.115 110.988C264.769 111.24 264.303 111.539 263.715 111.884L263.015 112.304C262.427 112.668 261.979 112.967 261.671 113.2C261.363 113.424 261.106 113.699 260.901 114.026C260.695 114.343 260.574 114.731 260.537 115.188H266.095ZM271.276 116.21C270.623 116.21 270.049 116.051 269.554 115.734C269.069 115.417 268.682 114.973 268.392 114.404C267.935 113.499 267.706 112.374 267.706 111.03C267.706 109.677 267.935 108.547 268.392 107.642C268.682 107.073 269.069 106.634 269.554 106.326C270.049 106.009 270.623 105.85 271.276 105.85C271.93 105.85 272.499 106.009 272.984 106.326C273.479 106.634 273.871 107.073 274.16 107.642C274.618 108.547 274.846 109.677 274.846 111.03C274.846 112.374 274.618 113.499 274.16 114.404C273.871 114.973 273.479 115.417 272.984 115.734C272.499 116.051 271.93 116.21 271.276 116.21ZM271.276 115.398C272.191 115.398 272.877 114.922 273.334 113.97C273.698 113.195 273.88 112.215 273.88 111.03C273.88 109.826 273.698 108.841 273.334 108.076C272.886 107.133 272.2 106.662 271.276 106.662C270.352 106.662 269.666 107.133 269.218 108.076C268.854 108.841 268.672 109.826 268.672 111.03C268.672 112.225 268.854 113.205 269.218 113.97C269.676 114.922 270.362 115.398 271.276 115.398ZM282.624 115.188C282.811 115.188 282.904 115.281 282.904 115.468V115.72C282.904 115.907 282.811 116 282.624 116H276.408C276.221 116 276.128 115.907 276.128 115.72V115.664C276.128 114.983 276.245 114.409 276.478 113.942C276.721 113.466 277.033 113.065 277.416 112.738C277.808 112.411 278.345 112.038 279.026 111.618C279.091 111.571 279.334 111.427 279.754 111.184C280.249 110.904 280.636 110.661 280.916 110.456C281.196 110.251 281.429 109.999 281.616 109.7C281.803 109.392 281.896 109.033 281.896 108.622C281.896 107.997 281.686 107.516 281.266 107.18C280.846 106.844 280.337 106.676 279.74 106.676C279.161 106.676 278.681 106.797 278.298 107.04C277.915 107.283 277.472 107.703 276.968 108.3C276.903 108.384 276.823 108.426 276.73 108.426C276.683 108.426 276.627 108.403 276.562 108.356L276.324 108.174C276.24 108.099 276.198 108.025 276.198 107.95C276.198 107.903 276.221 107.847 276.268 107.782C276.763 107.157 277.276 106.681 277.808 106.354C278.349 106.027 278.984 105.864 279.712 105.864C280.319 105.864 280.86 105.981 281.336 106.214C281.812 106.438 282.181 106.76 282.442 107.18C282.713 107.591 282.848 108.057 282.848 108.58C282.848 109.131 282.731 109.607 282.498 110.008C282.274 110.4 281.989 110.727 281.644 110.988C281.299 111.24 280.832 111.539 280.244 111.884L279.544 112.304C278.956 112.668 278.508 112.967 278.2 113.2C277.892 113.424 277.635 113.699 277.43 114.026C277.225 114.343 277.103 114.731 277.066 115.188H282.624ZM287.805 116.21C287.152 116.21 286.578 116.051 286.083 115.734C285.598 115.417 285.211 114.973 284.921 114.404C284.464 113.499 284.235 112.374 284.235 111.03C284.235 109.677 284.464 108.547 284.921 107.642C285.211 107.073 285.598 106.634 286.083 106.326C286.578 106.009 287.152 105.85 287.805 105.85C288.459 105.85 289.028 106.009 289.513 106.326C290.008 106.634 290.4 107.073 290.689 107.642C291.147 108.547 291.375 109.677 291.375 111.03C291.375 112.374 291.147 113.499 290.689 114.404C290.4 114.973 290.008 115.417 289.513 115.734C289.028 116.051 288.459 116.21 287.805 116.21ZM287.805 115.398C288.72 115.398 289.406 114.922 289.863 113.97C290.227 113.195 290.409 112.215 290.409 111.03C290.409 109.826 290.227 108.841 289.863 108.076C289.415 107.133 288.729 106.662 287.805 106.662C286.881 106.662 286.195 107.133 285.747 108.076C285.383 108.841 285.201 109.826 285.201 111.03C285.201 112.225 285.383 113.205 285.747 113.97C286.205 114.922 286.891 115.398 287.805 115.398Z" fill="#5C5C66"/>
<path d="M48.694 44.466C48.778 44.1953 48.9647 44.06 49.254 44.06H50.85C51.0087 44.06 51.13 44.102 51.214 44.186C51.298 44.27 51.34 44.3913 51.34 44.55V53.51C51.34 53.6593 51.298 53.7807 51.214 53.874C51.13 53.958 51.0087 54 50.85 54H50.276C50.1267 54 50.0053 53.958 49.912 53.874C49.828 53.7807 49.786 53.6593 49.786 53.51V49.002C49.786 48.442 49.7953 47.602 49.814 46.482L49.828 45.264C49.716 45.6187 49.45 46.426 49.03 47.686L48.596 49.002L47.056 53.594C46.972 53.8647 46.7853 54 46.496 54H45.95C45.6607 54 45.474 53.8693 45.39 53.608L43.822 49.002C43.2713 47.4153 42.856 46.1693 42.576 45.264C42.5947 46.9067 42.604 48.1527 42.604 49.002V53.51C42.604 53.6593 42.562 53.7807 42.478 53.874C42.394 53.958 42.2727 54 42.114 54H41.568C41.4187 54 41.2973 53.958 41.204 53.874C41.12 53.7807 41.078 53.6593 41.078 53.51V44.55C41.078 44.3913 41.12 44.27 41.204 44.186C41.2973 44.102 41.4187 44.06 41.568 44.06H43.192C43.4813 44.06 43.668 44.1907 43.752 44.452L45.054 48.288C45.6047 49.9307 45.9967 51.1767 46.23 52.026C46.5287 50.9807 46.9207 49.7347 47.406 48.288L48.694 44.466ZM56.3761 54.21C55.6947 54.21 55.0881 54.056 54.5561 53.748C54.0334 53.44 53.6227 53.0107 53.3241 52.46C53.0254 51.9 52.8761 51.2607 52.8761 50.542C52.8761 49.8233 53.0254 49.1887 53.3241 48.638C53.6227 48.0873 54.0334 47.658 54.5561 47.35C55.0881 47.042 55.6947 46.888 56.3761 46.888C57.0481 46.888 57.6501 47.042 58.1821 47.35C58.7141 47.658 59.1294 48.092 59.4281 48.652C59.7267 49.2027 59.8761 49.8327 59.8761 50.542C59.8761 51.2607 59.7267 51.9 59.4281 52.46C59.1294 53.0107 58.7141 53.44 58.1821 53.748C57.6501 54.056 57.0481 54.21 56.3761 54.21ZM56.3761 52.964C56.9734 52.964 57.4541 52.7447 57.8181 52.306C58.1821 51.858 58.3641 51.27 58.3641 50.542C58.3641 49.8233 58.1821 49.2447 57.8181 48.806C57.4541 48.3673 56.9734 48.148 56.3761 48.148C55.7787 48.148 55.2981 48.3673 54.9341 48.806C54.5701 49.2447 54.3881 49.8233 54.3881 50.542C54.3881 51.27 54.5701 51.858 54.9341 52.306C55.2981 52.7447 55.7787 52.964 56.3761 52.964ZM66.1241 44.536C66.1241 44.3773 66.1661 44.256 66.2501 44.172C66.3434 44.088 66.4648 44.046 66.6141 44.046H67.1181C67.2768 44.046 67.3981 44.088 67.4821 44.172C67.5661 44.256 67.6081 44.3773 67.6081 44.536V53.51C67.6081 53.6593 67.5661 53.7807 67.4821 53.874C67.3981 53.958 67.2768 54 67.1181 54H66.7121C66.5628 54 66.4414 53.958 66.3481 53.874C66.2641 53.7807 66.2221 53.6593 66.2221 53.51V53.02C65.7368 53.804 64.9761 54.196 63.9401 54.196C63.3614 54.196 62.8388 54.0467 62.3721 53.748C61.9148 53.4493 61.5554 53.0247 61.2941 52.474C61.0328 51.9233 60.9021 51.284 60.9021 50.556C60.9021 49.8373 61.0328 49.2027 61.2941 48.652C61.5648 48.1013 61.9334 47.6767 62.4001 47.378C62.8668 47.0793 63.3894 46.93 63.9681 46.93C64.9201 46.93 65.6388 47.2613 66.1241 47.924V44.536ZM64.2481 52.922C64.8174 52.922 65.2841 52.712 65.6481 52.292C66.0121 51.8627 66.1941 51.284 66.1941 50.556C66.1941 49.828 66.0121 49.254 65.6481 48.834C65.2841 48.414 64.8174 48.204 64.2481 48.204C63.6974 48.204 63.2541 48.4187 62.9181 48.848C62.5821 49.2773 62.4141 49.8467 62.4141 50.556C62.4141 51.2747 62.5774 51.8487 62.9041 52.278C63.2401 52.7073 63.6881 52.922 64.2481 52.922ZM74.2745 52.236C74.3958 52.1333 74.5125 52.082 74.6245 52.082C74.7365 52.082 74.8532 52.1427 74.9745 52.264L75.1705 52.474C75.2732 52.5953 75.3245 52.712 75.3245 52.824C75.3245 52.9453 75.2638 53.062 75.1425 53.174C74.7132 53.5473 74.2838 53.8133 73.8545 53.972C73.4345 54.1307 72.9678 54.21 72.4545 54.21C71.7358 54.21 71.1105 54.0607 70.5785 53.762C70.0558 53.4633 69.6498 53.0433 69.3605 52.502C69.0805 51.9513 68.9405 51.3167 68.9405 50.598C68.9405 49.8887 69.0758 49.254 69.3465 48.694C69.6265 48.1247 70.0185 47.6813 70.5225 47.364C71.0358 47.0467 71.6332 46.888 72.3145 46.888C73.3318 46.888 74.1158 47.1913 74.6665 47.798C75.2172 48.3953 75.4925 49.2213 75.4925 50.276V50.402C75.4832 50.5513 75.4365 50.668 75.3525 50.752C75.2685 50.836 75.1472 50.878 74.9885 50.878H70.3965C70.4525 51.494 70.6532 51.998 70.9985 52.39C71.3532 52.7727 71.8478 52.964 72.4825 52.964C72.8278 52.964 73.1312 52.9127 73.3925 52.81C73.6538 52.698 73.9478 52.5067 74.2745 52.236ZM72.2865 48.064C71.7732 48.064 71.3578 48.218 71.0405 48.526C70.7325 48.8247 70.5318 49.2493 70.4385 49.8H74.0365C73.9992 49.2587 73.8312 48.834 73.5325 48.526C73.2338 48.218 72.8185 48.064 72.2865 48.064ZM77.398 54C77.2487 54 77.1274 53.958 77.034 53.874C76.95 53.7807 76.908 53.6593 76.908 53.51V44.55C76.908 44.3913 76.95 44.27 77.034 44.186C77.1274 44.102 77.2487 44.06 77.398 44.06H77.902C78.0607 44.06 78.182 44.102 78.266 44.186C78.35 44.27 78.392 44.3913 78.392 44.55V53.51C78.392 53.6593 78.35 53.7807 78.266 53.874C78.182 53.958 78.0607 54 77.902 54H77.398ZM87.3828 47.504C87.4668 47.2333 87.6488 47.098 87.9288 47.098H88.4328C88.5728 47.098 88.6801 47.1307 88.7548 47.196C88.8294 47.2613 88.8668 47.35 88.8668 47.462C88.8668 47.518 88.8528 47.5833 88.8248 47.658L86.3188 54.854C86.0948 55.5073 85.8148 55.9693 85.4788 56.24C85.1521 56.52 84.6854 56.66 84.0788 56.66C83.7988 56.66 83.5608 56.6413 83.3648 56.604C83.2341 56.5947 83.1361 56.548 83.0708 56.464C83.0054 56.3893 82.9728 56.296 82.9728 56.184C82.9728 56.1187 82.9774 56.0673 82.9868 56.03L83.0288 55.848C83.0941 55.5867 83.2341 55.456 83.4488 55.456C83.5328 55.456 83.6121 55.4607 83.6868 55.47C83.7614 55.4793 83.8361 55.484 83.9108 55.484C84.1814 55.484 84.4054 55.414 84.5828 55.274C84.7694 55.134 84.9234 54.8773 85.0448 54.504L85.0868 54.392L82.6928 47.658C82.6648 47.5833 82.6508 47.5133 82.6508 47.448C82.6508 47.336 82.6881 47.252 82.7628 47.196C82.8468 47.1307 82.9588 47.098 83.0988 47.098H83.6308C83.9201 47.098 84.1068 47.2333 84.1908 47.504L84.7368 49.142C85.1474 50.318 85.4974 51.396 85.7868 52.376L86.1928 51.13C86.2581 50.934 86.3561 50.626 86.4868 50.206C86.6174 49.786 86.7341 49.4267 86.8368 49.128L87.3828 47.504ZM94.919 52.236C95.0404 52.1333 95.157 52.082 95.269 52.082C95.381 52.082 95.4977 52.1427 95.619 52.264L95.815 52.474C95.9177 52.5953 95.969 52.712 95.969 52.824C95.969 52.9453 95.9084 53.062 95.787 53.174C95.3577 53.5473 94.9284 53.8133 94.499 53.972C94.079 54.1307 93.6124 54.21 93.099 54.21C92.3804 54.21 91.755 54.0607 91.223 53.762C90.7004 53.4633 90.2944 53.0433 90.005 52.502C89.725 51.9513 89.585 51.3167 89.585 50.598C89.585 49.8887 89.7204 49.254 89.991 48.694C90.271 48.1247 90.663 47.6813 91.167 47.364C91.6804 47.0467 92.2777 46.888 92.959 46.888C93.9764 46.888 94.7604 47.1913 95.311 47.798C95.8617 48.3953 96.137 49.2213 96.137 50.276V50.402C96.1277 50.5513 96.081 50.668 95.997 50.752C95.913 50.836 95.7917 50.878 95.633 50.878H91.041C91.097 51.494 91.2977 51.998 91.643 52.39C91.9977 52.7727 92.4924 52.964 93.127 52.964C93.4724 52.964 93.7757 52.9127 94.037 52.81C94.2984 52.698 94.5924 52.5067 94.919 52.236ZM92.931 48.064C92.4177 48.064 92.0024 48.218 91.685 48.526C91.377 48.8247 91.1764 49.2493 91.083 49.8H94.681C94.6437 49.2587 94.4757 48.834 94.177 48.526C93.8784 48.218 93.463 48.064 92.931 48.064ZM100.313 46.888C101.246 46.888 101.965 47.1073 102.469 47.546C102.973 47.9753 103.225 48.5493 103.225 49.268V53.51C103.225 53.6593 103.183 53.7807 103.099 53.874C103.015 53.958 102.894 54 102.735 54H102.371C102.222 54 102.1 53.958 102.007 53.874C101.923 53.7807 101.881 53.6593 101.881 53.51V53.202C101.657 53.5287 101.349 53.7807 100.957 53.958C100.565 54.1353 100.108 54.224 99.5849 54.224C98.8662 54.224 98.2735 54.0653 97.8069 53.748C97.3495 53.4213 97.1209 52.9313 97.1209 52.278C97.1209 51.55 97.3915 51.0133 97.9329 50.668C98.4835 50.3133 99.2442 50.0473 100.215 49.87L101.797 49.576V49.324C101.797 48.9413 101.662 48.6473 101.391 48.442C101.13 48.2273 100.78 48.12 100.341 48.12C99.9675 48.12 99.6409 48.1853 99.3609 48.316C99.0902 48.4373 98.7962 48.6427 98.4789 48.932C98.3575 49.0347 98.2409 49.086 98.1289 49.086C98.0169 49.086 97.9002 49.0347 97.7789 48.932L97.5549 48.736C97.4335 48.624 97.3729 48.5027 97.3729 48.372C97.3729 48.2507 97.4289 48.134 97.5409 48.022C97.9422 47.6393 98.3669 47.3547 98.8149 47.168C99.2629 46.9813 99.7622 46.888 100.313 46.888ZM99.7949 53.034C100.355 53.034 100.826 52.8847 101.209 52.586C101.601 52.2873 101.797 51.858 101.797 51.298V50.654L100.579 50.906C99.8975 51.046 99.3935 51.2047 99.0669 51.382C98.7402 51.5593 98.5769 51.83 98.5769 52.194C98.5769 52.4553 98.6842 52.6607 98.8989 52.81C99.1135 52.9593 99.4122 53.034 99.7949 53.034ZM108.028 47.028C108.234 47.028 108.444 47.0513 108.658 47.098C108.91 47.154 109.036 47.3033 109.036 47.546C109.036 47.6113 109.032 47.658 109.022 47.686L108.952 48.022C108.896 48.2833 108.756 48.414 108.532 48.414L108.406 48.4C108.238 48.372 108.089 48.358 107.958 48.358C107.492 48.358 107.114 48.5447 106.824 48.918C106.544 49.282 106.404 49.7907 106.404 50.444V53.51C106.404 53.6593 106.362 53.7807 106.278 53.874C106.194 53.958 106.073 54 105.914 54H105.41C105.261 54 105.14 53.958 105.046 53.874C104.962 53.7807 104.92 53.6593 104.92 53.51V47.588C104.92 47.4293 104.962 47.308 105.046 47.224C105.14 47.14 105.261 47.098 105.41 47.098H105.816C105.975 47.098 106.096 47.14 106.18 47.224C106.264 47.308 106.306 47.4293 106.306 47.588V48.134C106.474 47.7887 106.703 47.518 106.992 47.322C107.282 47.126 107.627 47.028 108.028 47.028Z" fill="#1B1B1F"/>
<rect x="40" y="78" width="252" height="4" rx="2" fill="#DEDEE3"/>
<rect x="54" y="77" width="224" height="6" rx="3" fill="#0063FB"/>
<rect x="264" y="66" width="28" height="28" rx="14" fill="#0063FB"/>
<rect x="40" y="66" width="28" height="28" rx="14" fill="#0063FB"/>
<defs>
<clipPath id="clip0_5449_11189">
<rect width="98" height="22" fill="white" transform="translate(48 145)"/>
</clipPath>
<clipPath id="clip1_5449_11189">
<rect width="98" height="22" fill="white" transform="translate(186 145)"/>
</clipPath>
</defs>
</svg>
