<svg width="332" height="220" viewBox="0 0 332 220" fill="none" xmlns="http://www.w3.org/2000/svg">
<rect x="40.5" y="132.5" width="113" height="47" rx="3.5" fill="white"/>
<rect x="40.5" y="132.5" width="113" height="47" rx="3.5" stroke="#84848F"/>
<g clip-path="url(#clip0_5488_18169)">
<path d="M53.44 161.224C52.0427 161.224 51.0027 160.899 50.32 160.248C49.6373 159.587 49.296 158.664 49.296 157.48V149.96C49.296 149.747 49.4027 149.64 49.616 149.64H50.112C50.3253 149.64 50.432 149.747 50.432 149.96V157.4C50.432 158.339 50.688 159.048 51.2 159.528C51.7227 160.008 52.4693 160.248 53.44 160.248C54.432 160.248 55.184 160.008 55.696 159.528C56.208 159.048 56.464 158.339 56.464 157.4V149.96C56.464 149.747 56.5707 149.64 56.784 149.64H57.28C57.4933 149.64 57.6 149.747 57.6 149.96V157.48C57.6 158.664 57.2587 159.587 56.576 160.248C55.8933 160.899 54.848 161.224 53.44 161.224ZM63.579 152.92C64.507 152.92 65.2057 153.176 65.675 153.688C66.155 154.2 66.395 154.84 66.395 155.608V160.68C66.395 160.893 66.2883 161 66.075 161H65.659C65.4457 161 65.339 160.893 65.339 160.68V155.96C65.339 155.256 65.1683 154.723 64.827 154.36C64.4857 153.997 63.995 153.816 63.355 153.816C62.9497 153.816 62.5763 153.917 62.235 154.12C61.8937 154.312 61.6217 154.579 61.419 154.92C61.2163 155.261 61.115 155.635 61.115 156.04V160.68C61.115 160.893 61.0083 161 60.795 161H60.379C60.1657 161 60.059 160.893 60.059 160.68V153.432C60.059 153.219 60.1657 153.112 60.379 153.112H60.731C60.9443 153.112 61.051 153.219 61.051 153.432V154.2C61.3177 153.773 61.6697 153.453 62.107 153.24C62.5443 153.027 63.035 152.92 63.579 152.92ZM74.4269 149.96C74.4269 149.747 74.5335 149.64 74.7469 149.64H75.1629C75.3762 149.64 75.4829 149.747 75.4829 149.96V160.68C75.4829 160.893 75.3762 161 75.1629 161H74.8269C74.6135 161 74.5069 160.893 74.5069 160.68V159.64C74.2189 160.141 73.8402 160.525 73.3709 160.792C72.9015 161.059 72.3469 161.192 71.7069 161.192C71.0349 161.192 70.4375 161.021 69.9149 160.68C69.3922 160.328 68.9815 159.843 68.6829 159.224C68.3842 158.595 68.2349 157.875 68.2349 157.064C68.2349 156.253 68.3842 155.539 68.6829 154.92C68.9922 154.291 69.4135 153.805 69.9469 153.464C70.4802 153.112 71.0775 152.936 71.7389 152.936C72.9549 152.936 73.8509 153.389 74.4269 154.296V149.96ZM71.7869 160.296C72.5869 160.296 73.2322 160.013 73.7229 159.448C74.2242 158.872 74.4749 158.077 74.4749 157.064C74.4749 156.061 74.2242 155.272 73.7229 154.696C73.2322 154.12 72.5869 153.832 71.7869 153.832C71.0509 153.832 70.4535 154.131 69.9949 154.728C69.5469 155.325 69.3229 156.104 69.3229 157.064C69.3229 158.035 69.5469 158.819 69.9949 159.416C70.4429 160.003 71.0402 160.296 71.7869 160.296ZM83.5999 159.128C83.6745 159.053 83.7545 159.016 83.8399 159.016C83.9145 159.016 83.9839 159.048 84.0479 159.112L84.2559 159.304C84.3305 159.379 84.3679 159.459 84.3679 159.544C84.3679 159.608 84.3359 159.683 84.2719 159.768C83.7492 160.291 83.2425 160.664 82.7519 160.888C82.2612 161.101 81.7119 161.208 81.1039 161.208C80.3359 161.208 79.6692 161.037 79.1039 160.696C78.5385 160.355 78.1012 159.88 77.7919 159.272C77.4825 158.653 77.3279 157.939 77.3279 157.128C77.3279 156.307 77.4772 155.581 77.7759 154.952C78.0852 154.312 78.5172 153.816 79.0719 153.464C79.6265 153.101 80.2665 152.92 80.9919 152.92C82.0692 152.92 82.9172 153.256 83.5359 153.928C84.1545 154.6 84.4639 155.507 84.4639 156.648V156.84C84.4532 156.936 84.4159 157.011 84.3519 157.064C84.2985 157.117 84.2239 157.144 84.1279 157.144H78.3999C78.4319 158.04 78.6665 158.797 79.1039 159.416C79.5519 160.024 80.2185 160.328 81.1039 160.328C81.5839 160.328 82.0052 160.243 82.3679 160.072C82.7412 159.891 83.1519 159.576 83.5999 159.128ZM80.9919 153.8C80.2879 153.8 79.7065 154.019 79.2479 154.456C78.7999 154.883 78.5279 155.512 78.4319 156.344H83.4079C83.3865 155.565 83.1625 154.947 82.7359 154.488C82.3092 154.029 81.7279 153.8 80.9919 153.8ZM89.2999 153.048C89.5665 153.048 89.8812 153.091 90.2439 153.176C90.4359 153.24 90.5105 153.373 90.4679 153.576L90.4039 153.832C90.3505 154.035 90.2172 154.109 90.0039 154.056C89.7479 153.992 89.5132 153.96 89.2999 153.96C88.7559 153.96 88.3025 154.195 87.9399 154.664C87.5879 155.133 87.4119 155.784 87.4119 156.616V160.68C87.4119 160.893 87.3052 161 87.0919 161H86.6759C86.4625 161 86.3559 160.893 86.3559 160.68V153.432C86.3559 153.219 86.4625 153.112 86.6759 153.112H87.0279C87.2412 153.112 87.3479 153.219 87.3479 153.432V154.312C87.5292 153.917 87.7852 153.608 88.1159 153.384C88.4572 153.16 88.8519 153.048 89.2999 153.048ZM99.0143 154.248C100.145 154.248 101.062 154.536 101.766 155.112C102.47 155.688 102.822 156.509 102.822 157.576C102.822 158.173 102.673 158.755 102.374 159.32C102.086 159.885 101.654 160.349 101.078 160.712C100.502 161.064 99.8089 161.24 98.9983 161.24C98.3263 161.24 97.6809 161.144 97.0623 160.952C96.4543 160.749 95.8303 160.445 95.1903 160.04C95.0836 159.976 95.0303 159.891 95.0303 159.784C95.0303 159.709 95.0516 159.645 95.0943 159.592L95.3023 159.304C95.3663 159.208 95.4463 159.16 95.5423 159.16C95.6276 159.16 95.6969 159.181 95.7503 159.224C96.3796 159.619 96.9343 159.901 97.4143 160.072C97.9049 160.232 98.4223 160.312 98.9663 160.312C99.5209 160.312 100.006 160.195 100.422 159.96C100.838 159.715 101.158 159.389 101.382 158.984C101.617 158.568 101.734 158.104 101.734 157.592C101.734 156.824 101.489 156.221 100.998 155.784C100.508 155.347 99.7769 155.128 98.8063 155.128C98.4009 155.128 98.0436 155.171 97.7343 155.256C97.7023 155.267 97.6596 155.272 97.6063 155.272C97.4889 155.272 97.3929 155.219 97.3183 155.112L97.1423 154.872C97.0889 154.787 97.0623 154.712 97.0623 154.648C97.0623 154.563 97.0996 154.488 97.1743 154.424L101.206 150.568H95.7983C95.5849 150.568 95.4783 150.461 95.4783 150.248V149.96C95.4783 149.747 95.5849 149.64 95.7983 149.64H102.23C102.444 149.64 102.55 149.747 102.55 149.96V150.312C102.55 150.461 102.492 150.595 102.374 150.712L98.6302 154.264L99.0143 154.248ZM108.581 161.24C107.835 161.24 107.179 161.059 106.613 160.696C106.059 160.333 105.616 159.827 105.285 159.176C104.763 158.141 104.501 156.856 104.501 155.32C104.501 153.773 104.763 152.483 105.285 151.448C105.616 150.797 106.059 150.296 106.613 149.944C107.179 149.581 107.835 149.4 108.581 149.4C109.328 149.4 109.979 149.581 110.533 149.944C111.099 150.296 111.547 150.797 111.877 151.448C112.4 152.483 112.661 153.773 112.661 155.32C112.661 156.856 112.4 158.141 111.877 159.176C111.547 159.827 111.099 160.333 110.533 160.696C109.979 161.059 109.328 161.24 108.581 161.24ZM108.581 160.312C109.627 160.312 110.411 159.768 110.933 158.68C111.349 157.795 111.557 156.675 111.557 155.32C111.557 153.944 111.349 152.819 110.933 151.944C110.421 150.867 109.637 150.328 108.581 150.328C107.525 150.328 106.741 150.867 106.229 151.944C105.813 152.819 105.605 153.944 105.605 155.32C105.605 156.685 105.813 157.805 106.229 158.68C106.752 159.768 107.536 160.312 108.581 160.312ZM118.394 161.24C117.647 161.24 116.991 161.059 116.426 160.696C115.871 160.333 115.428 159.827 115.098 159.176C114.575 158.141 114.314 156.856 114.314 155.32C114.314 153.773 114.575 152.483 115.098 151.448C115.428 150.797 115.871 150.296 116.426 149.944C116.991 149.581 117.647 149.4 118.394 149.4C119.14 149.4 119.791 149.581 120.346 149.944C120.911 150.296 121.359 150.797 121.69 151.448C122.212 152.483 122.474 153.773 122.474 155.32C122.474 156.856 122.212 158.141 121.69 159.176C121.359 159.827 120.911 160.333 120.346 160.696C119.791 161.059 119.14 161.24 118.394 161.24ZM118.394 160.312C119.439 160.312 120.223 159.768 120.746 158.68C121.162 157.795 121.37 156.675 121.37 155.32C121.37 153.944 121.162 152.819 120.746 151.944C120.234 150.867 119.45 150.328 118.394 150.328C117.338 150.328 116.554 150.867 116.042 151.944C115.626 152.819 115.418 153.944 115.418 155.32C115.418 156.685 115.626 157.805 116.042 158.68C116.564 159.768 117.348 160.312 118.394 160.312Z" fill="#1B1B1F"/>
<path d="M140.16 160C140.04 160 139.944 159.948 139.872 159.844L137.844 156.892L136.68 158.08V159.76C136.68 159.92 136.6 160 136.44 160H136.128C135.968 160 135.888 159.92 135.888 159.76V151.72C135.888 151.56 135.968 151.48 136.128 151.48H136.44C136.6 151.48 136.68 151.56 136.68 151.72V157.18L139.56 154.192C139.632 154.112 139.732 154.072 139.86 154.072H140.196C140.26 154.072 140.308 154.088 140.34 154.12C140.38 154.144 140.4 154.176 140.4 154.216C140.4 154.256 140.376 154.308 140.328 154.372L138.396 156.388L140.664 159.712C140.696 159.768 140.712 159.816 140.712 159.856C140.712 159.952 140.648 160 140.52 160H140.16ZM144.073 154.036C144.273 154.036 144.509 154.068 144.781 154.132C144.925 154.18 144.981 154.28 144.949 154.432L144.901 154.624C144.861 154.776 144.761 154.832 144.601 154.792C144.409 154.744 144.233 154.72 144.073 154.72C143.665 154.72 143.325 154.896 143.053 155.248C142.789 155.6 142.657 156.088 142.657 156.712V159.76C142.657 159.92 142.577 160 142.417 160H142.105C141.945 160 141.865 159.92 141.865 159.76V154.324C141.865 154.164 141.945 154.084 142.105 154.084H142.369C142.529 154.084 142.609 154.164 142.609 154.324V154.984C142.745 154.688 142.937 154.456 143.185 154.288C143.441 154.12 143.737 154.036 144.073 154.036Z" fill="#5C5C66"/>
</g>
<rect x="178.5" y="132.5" width="113" height="47" rx="3.5" fill="white"/>
<rect x="178.5" y="132.5" width="113" height="47" rx="3.5" stroke="#84848F"/>
<g clip-path="url(#clip1_5488_18169)">
<path d="M186.336 149.96C186.336 149.747 186.443 149.64 186.656 149.64H193.92C194.133 149.64 194.24 149.747 194.24 149.96V150.184C194.24 150.344 194.192 150.477 194.096 150.584C193.029 151.928 192.075 153.507 191.232 155.32C190.4 157.123 189.845 158.92 189.568 160.712C189.536 160.904 189.419 161 189.216 161H188.72C188.613 161 188.533 160.973 188.48 160.92C188.427 160.856 188.405 160.771 188.416 160.664C188.715 158.925 189.296 157.139 190.16 155.304C191.024 153.469 191.979 151.885 193.024 150.552H186.656C186.443 150.552 186.336 150.445 186.336 150.232V149.96ZM199.519 161.24C198.772 161.24 198.116 161.059 197.551 160.696C196.996 160.333 196.553 159.827 196.223 159.176C195.7 158.141 195.439 156.856 195.439 155.32C195.439 153.773 195.7 152.483 196.223 151.448C196.553 150.797 196.996 150.296 197.551 149.944C198.116 149.581 198.772 149.4 199.519 149.4C200.265 149.4 200.916 149.581 201.471 149.944C202.036 150.296 202.484 150.797 202.815 151.448C203.337 152.483 203.599 153.773 203.599 155.32C203.599 156.856 203.337 158.141 202.815 159.176C202.484 159.827 202.036 160.333 201.471 160.696C200.916 161.059 200.265 161.24 199.519 161.24ZM199.519 160.312C200.564 160.312 201.348 159.768 201.871 158.68C202.287 157.795 202.495 156.675 202.495 155.32C202.495 153.944 202.287 152.819 201.871 151.944C201.359 150.867 200.575 150.328 199.519 150.328C198.463 150.328 197.679 150.867 197.167 151.944C196.751 152.819 196.543 153.944 196.543 155.32C196.543 156.685 196.751 157.805 197.167 158.68C197.689 159.768 198.473 160.312 199.519 160.312ZM209.331 161.24C208.585 161.24 207.929 161.059 207.363 160.696C206.809 160.333 206.366 159.827 206.035 159.176C205.513 158.141 205.251 156.856 205.251 155.32C205.251 153.773 205.513 152.483 206.035 151.448C206.366 150.797 206.809 150.296 207.363 149.944C207.929 149.581 208.585 149.4 209.331 149.4C210.078 149.4 210.729 149.581 211.283 149.944C211.849 150.296 212.297 150.797 212.627 151.448C213.15 152.483 213.411 153.773 213.411 155.32C213.411 156.856 213.15 158.141 212.627 159.176C212.297 159.827 211.849 160.333 211.283 160.696C210.729 161.059 210.078 161.24 209.331 161.24ZM209.331 160.312C210.377 160.312 211.161 159.768 211.683 158.68C212.099 157.795 212.307 156.675 212.307 155.32C212.307 153.944 212.099 152.819 211.683 151.944C211.171 150.867 210.387 150.328 209.331 150.328C208.275 150.328 207.491 150.867 206.979 151.944C206.563 152.819 206.355 153.944 206.355 155.32C206.355 156.685 206.563 157.805 206.979 158.68C207.502 159.768 208.286 160.312 209.331 160.312ZM222.613 161.24C221.866 161.24 221.21 161.059 220.645 160.696C220.09 160.333 219.647 159.827 219.317 159.176C218.794 158.141 218.533 156.856 218.533 155.32C218.533 153.773 218.794 152.483 219.317 151.448C219.647 150.797 220.09 150.296 220.645 149.944C221.21 149.581 221.866 149.4 222.613 149.4C223.359 149.4 224.01 149.581 224.565 149.944C225.13 150.296 225.578 150.797 225.909 151.448C226.431 152.483 226.693 153.773 226.693 155.32C226.693 156.856 226.431 158.141 225.909 159.176C225.578 159.827 225.13 160.333 224.565 160.696C224.01 161.059 223.359 161.24 222.613 161.24ZM222.613 160.312C223.658 160.312 224.442 159.768 224.965 158.68C225.381 157.795 225.589 156.675 225.589 155.32C225.589 153.944 225.381 152.819 224.965 151.944C224.453 150.867 223.669 150.328 222.613 150.328C221.557 150.328 220.773 150.867 220.261 151.944C219.845 152.819 219.637 153.944 219.637 155.32C219.637 156.685 219.845 157.805 220.261 158.68C220.783 159.768 221.567 160.312 222.613 160.312ZM232.425 161.24C231.678 161.24 231.022 161.059 230.457 160.696C229.902 160.333 229.46 159.827 229.129 159.176C228.606 158.141 228.345 156.856 228.345 155.32C228.345 153.773 228.606 152.483 229.129 151.448C229.46 150.797 229.902 150.296 230.457 149.944C231.022 149.581 231.678 149.4 232.425 149.4C233.172 149.4 233.822 149.581 234.377 149.944C234.942 150.296 235.39 150.797 235.721 151.448C236.244 152.483 236.505 153.773 236.505 155.32C236.505 156.856 236.244 158.141 235.721 159.176C235.39 159.827 234.942 160.333 234.377 160.696C233.822 161.059 233.172 161.24 232.425 161.24ZM232.425 160.312C233.47 160.312 234.254 159.768 234.777 158.68C235.193 157.795 235.401 156.675 235.401 155.32C235.401 153.944 235.193 152.819 234.777 151.944C234.265 150.867 233.481 150.328 232.425 150.328C231.369 150.328 230.585 150.867 230.073 151.944C229.657 152.819 229.449 153.944 229.449 155.32C229.449 156.685 229.657 157.805 230.073 158.68C230.596 159.768 231.38 160.312 232.425 160.312ZM242.238 161.24C241.491 161.24 240.835 161.059 240.27 160.696C239.715 160.333 239.272 159.827 238.942 159.176C238.419 158.141 238.158 156.856 238.158 155.32C238.158 153.773 238.419 152.483 238.942 151.448C239.272 150.797 239.715 150.296 240.27 149.944C240.835 149.581 241.491 149.4 242.238 149.4C242.984 149.4 243.635 149.581 244.19 149.944C244.755 150.296 245.203 150.797 245.534 151.448C246.056 152.483 246.318 153.773 246.318 155.32C246.318 156.856 246.056 158.141 245.534 159.176C245.203 159.827 244.755 160.333 244.19 160.696C243.635 161.059 242.984 161.24 242.238 161.24ZM242.238 160.312C243.283 160.312 244.067 159.768 244.59 158.68C245.006 157.795 245.214 156.675 245.214 155.32C245.214 153.944 245.006 152.819 244.59 151.944C244.078 150.867 243.294 150.328 242.238 150.328C241.182 150.328 240.398 150.867 239.886 151.944C239.47 152.819 239.262 153.944 239.262 155.32C239.262 156.685 239.47 157.805 239.886 158.68C240.408 159.768 241.192 160.312 242.238 160.312ZM251.687 160.2C251.474 160.2 251.367 160.093 251.367 159.88V156.488H247.991C247.778 156.488 247.671 156.381 247.671 156.168V155.912C247.671 155.699 247.778 155.592 247.991 155.592H251.367V152.2C251.367 151.987 251.474 151.88 251.687 151.88H251.975C252.189 151.88 252.295 151.987 252.295 152.2V155.592H255.671C255.885 155.592 255.991 155.699 255.991 155.912V156.168C255.991 156.381 255.885 156.488 255.671 156.488H252.295V159.88C252.295 160.093 252.189 160.2 251.975 160.2H251.687Z" fill="#1B1B1F"/>
<path d="M278.16 160C278.04 160 277.944 159.948 277.872 159.844L275.844 156.892L274.68 158.08V159.76C274.68 159.92 274.6 160 274.44 160H274.128C273.968 160 273.888 159.92 273.888 159.76V151.72C273.888 151.56 273.968 151.48 274.128 151.48H274.44C274.6 151.48 274.68 151.56 274.68 151.72V157.18L277.56 154.192C277.632 154.112 277.732 154.072 277.86 154.072H278.196C278.26 154.072 278.308 154.088 278.34 154.12C278.38 154.144 278.4 154.176 278.4 154.216C278.4 154.256 278.376 154.308 278.328 154.372L276.396 156.388L278.664 159.712C278.696 159.768 278.712 159.816 278.712 159.856C278.712 159.952 278.648 160 278.52 160H278.16ZM282.073 154.036C282.273 154.036 282.509 154.068 282.781 154.132C282.925 154.18 282.981 154.28 282.949 154.432L282.901 154.624C282.861 154.776 282.761 154.832 282.601 154.792C282.409 154.744 282.233 154.72 282.073 154.72C281.665 154.72 281.325 154.896 281.053 155.248C280.789 155.6 280.657 156.088 280.657 156.712V159.76C280.657 159.92 280.577 160 280.417 160H280.105C279.945 160 279.865 159.92 279.865 159.76V154.324C279.865 154.164 279.945 154.084 280.105 154.084H280.369C280.529 154.084 280.609 154.164 280.609 154.324V154.984C280.745 154.688 280.937 154.456 281.185 154.288C281.441 154.12 281.737 154.036 282.073 154.036Z" fill="#5C5C66"/>
</g>
<path d="M44.76 116.196C43.5373 116.196 42.6273 115.911 42.03 115.342C41.4327 114.763 41.134 113.956 41.134 112.92V106.34C41.134 106.153 41.2273 106.06 41.414 106.06H41.848C42.0347 106.06 42.128 106.153 42.128 106.34V112.85C42.128 113.671 42.352 114.292 42.8 114.712C43.2573 115.132 43.9107 115.342 44.76 115.342C45.628 115.342 46.286 115.132 46.734 114.712C47.182 114.292 47.406 113.671 47.406 112.85V106.34C47.406 106.153 47.4993 106.06 47.686 106.06H48.12C48.3067 106.06 48.4 106.153 48.4 106.34V112.92C48.4 113.956 48.1013 114.763 47.504 115.342C46.9067 115.911 45.992 116.196 44.76 116.196ZM53.6316 108.93C54.4436 108.93 55.055 109.154 55.4656 109.602C55.8856 110.05 56.0956 110.61 56.0956 111.282V115.72C56.0956 115.907 56.0023 116 55.8156 116H55.4516C55.265 116 55.1716 115.907 55.1716 115.72V111.59C55.1716 110.974 55.0223 110.507 54.7236 110.19C54.425 109.873 53.9956 109.714 53.4356 109.714C53.081 109.714 52.7543 109.803 52.4556 109.98C52.157 110.148 51.919 110.381 51.7416 110.68C51.5643 110.979 51.4756 111.305 51.4756 111.66V115.72C51.4756 115.907 51.3823 116 51.1956 116H50.8316C50.645 116 50.5516 115.907 50.5516 115.72V109.378C50.5516 109.191 50.645 109.098 50.8316 109.098H51.1396C51.3263 109.098 51.4196 109.191 51.4196 109.378V110.05C51.653 109.677 51.961 109.397 52.3436 109.21C52.7263 109.023 53.1556 108.93 53.6316 108.93ZM63.1235 106.34C63.1235 106.153 63.2168 106.06 63.4035 106.06H63.7675C63.9542 106.06 64.0475 106.153 64.0475 106.34V115.72C64.0475 115.907 63.9542 116 63.7675 116H63.4735C63.2868 116 63.1935 115.907 63.1935 115.72V114.81C62.9415 115.249 62.6102 115.585 62.1995 115.818C61.7888 116.051 61.3035 116.168 60.7435 116.168C60.1555 116.168 59.6328 116.019 59.1755 115.72C58.7182 115.412 58.3588 114.987 58.0975 114.446C57.8362 113.895 57.7055 113.265 57.7055 112.556C57.7055 111.847 57.8362 111.221 58.0975 110.68C58.3682 110.129 58.7368 109.705 59.2035 109.406C59.6702 109.098 60.1928 108.944 60.7715 108.944C61.8355 108.944 62.6195 109.341 63.1235 110.134V106.34ZM60.8135 115.384C61.5135 115.384 62.0782 115.137 62.5075 114.642C62.9462 114.138 63.1655 113.443 63.1655 112.556C63.1655 111.679 62.9462 110.988 62.5075 110.484C62.0782 109.98 61.5135 109.728 60.8135 109.728C60.1695 109.728 59.6468 109.989 59.2455 110.512C58.8535 111.035 58.6575 111.716 58.6575 112.556C58.6575 113.405 58.8535 114.091 59.2455 114.614C59.6375 115.127 60.1602 115.384 60.8135 115.384ZM71.1499 114.362C71.2152 114.297 71.2852 114.264 71.3599 114.264C71.4252 114.264 71.4859 114.292 71.5419 114.348L71.7239 114.516C71.7892 114.581 71.8219 114.651 71.8219 114.726C71.8219 114.782 71.7939 114.847 71.7379 114.922C71.2806 115.379 70.8372 115.706 70.4079 115.902C69.9786 116.089 69.4979 116.182 68.9659 116.182C68.2939 116.182 67.7106 116.033 67.2159 115.734C66.7212 115.435 66.3386 115.02 66.0679 114.488C65.7972 113.947 65.6619 113.321 65.6619 112.612C65.6619 111.893 65.7926 111.259 66.0539 110.708C66.3246 110.148 66.7026 109.714 67.1879 109.406C67.6732 109.089 68.2332 108.93 68.8679 108.93C69.8106 108.93 70.5526 109.224 71.0939 109.812C71.6352 110.4 71.9059 111.193 71.9059 112.192V112.36C71.8966 112.444 71.8639 112.509 71.8079 112.556C71.7612 112.603 71.6959 112.626 71.6119 112.626H66.5999C66.6279 113.41 66.8332 114.073 67.2159 114.614C67.6079 115.146 68.1912 115.412 68.9659 115.412C69.3859 115.412 69.7546 115.337 70.0719 115.188C70.3986 115.029 70.7579 114.754 71.1499 114.362ZM68.8679 109.7C68.2519 109.7 67.7432 109.891 67.3419 110.274C66.9499 110.647 66.7119 111.198 66.6279 111.926H70.9819C70.9632 111.245 70.7672 110.703 70.3939 110.302C70.0206 109.901 69.5119 109.7 68.8679 109.7ZM76.1374 109.042C76.3707 109.042 76.6461 109.079 76.9634 109.154C77.1314 109.21 77.1967 109.327 77.1594 109.504L77.1034 109.728C77.0567 109.905 76.9401 109.971 76.7534 109.924C76.5294 109.868 76.3241 109.84 76.1374 109.84C75.6614 109.84 75.2647 110.045 74.9474 110.456C74.6394 110.867 74.4854 111.436 74.4854 112.164V115.72C74.4854 115.907 74.3921 116 74.2054 116H73.8414C73.6547 116 73.5614 115.907 73.5614 115.72V109.378C73.5614 109.191 73.6547 109.098 73.8414 109.098H74.1494C74.3361 109.098 74.4294 109.191 74.4294 109.378V110.148C74.5881 109.803 74.8121 109.532 75.1014 109.336C75.4001 109.14 75.7454 109.042 76.1374 109.042ZM84.6375 110.092C85.6268 110.092 86.4295 110.344 87.0455 110.848C87.6615 111.352 87.9695 112.071 87.9695 113.004C87.9695 113.527 87.8388 114.035 87.5775 114.53C87.3255 115.025 86.9475 115.431 86.4435 115.748C85.9395 116.056 85.3328 116.21 84.6235 116.21C84.0355 116.21 83.4708 116.126 82.9295 115.958C82.3975 115.781 81.8515 115.515 81.2915 115.16C81.1981 115.104 81.1515 115.029 81.1515 114.936C81.1515 114.871 81.1701 114.815 81.2075 114.768L81.3895 114.516C81.4455 114.432 81.5155 114.39 81.5995 114.39C81.6741 114.39 81.7348 114.409 81.7815 114.446C82.3321 114.791 82.8175 115.039 83.2375 115.188C83.6668 115.328 84.1195 115.398 84.5955 115.398C85.0808 115.398 85.5055 115.295 85.8695 115.09C86.2335 114.875 86.5135 114.591 86.7095 114.236C86.9148 113.872 87.0175 113.466 87.0175 113.018C87.0175 112.346 86.8028 111.819 86.3735 111.436C85.9441 111.053 85.3048 110.862 84.4555 110.862C84.1008 110.862 83.7881 110.899 83.5175 110.974C83.4895 110.983 83.4521 110.988 83.4055 110.988C83.3028 110.988 83.2188 110.941 83.1535 110.848L82.9995 110.638C82.9528 110.563 82.9295 110.498 82.9295 110.442C82.9295 110.367 82.9621 110.302 83.0275 110.246L86.5555 106.872H81.8235C81.6368 106.872 81.5435 106.779 81.5435 106.592V106.34C81.5435 106.153 81.6368 106.06 81.8235 106.06H87.4515C87.6381 106.06 87.7315 106.153 87.7315 106.34V106.648C87.7315 106.779 87.6801 106.895 87.5775 106.998L84.3015 110.106L84.6375 110.092ZM93.0086 116.21C92.3553 116.21 91.7813 116.051 91.2866 115.734C90.8013 115.417 90.4139 114.973 90.1246 114.404C89.6673 113.499 89.4386 112.374 89.4386 111.03C89.4386 109.677 89.6673 108.547 90.1246 107.642C90.4139 107.073 90.8013 106.634 91.2866 106.326C91.7813 106.009 92.3553 105.85 93.0086 105.85C93.6619 105.85 94.2313 106.009 94.7166 106.326C95.2113 106.634 95.6033 107.073 95.8926 107.642C96.3499 108.547 96.5786 109.677 96.5786 111.03C96.5786 112.374 96.3499 113.499 95.8926 114.404C95.6033 114.973 95.2113 115.417 94.7166 115.734C94.2313 116.051 93.6619 116.21 93.0086 116.21ZM93.0086 115.398C93.9233 115.398 94.6093 114.922 95.0666 113.97C95.4306 113.195 95.6126 112.215 95.6126 111.03C95.6126 109.826 95.4306 108.841 95.0666 108.076C94.6186 107.133 93.9326 106.662 93.0086 106.662C92.0846 106.662 91.3986 107.133 90.9506 108.076C90.5866 108.841 90.4046 109.826 90.4046 111.03C90.4046 112.225 90.5866 113.205 90.9506 113.97C91.4079 114.922 92.0939 115.398 93.0086 115.398ZM101.595 116.21C100.941 116.21 100.367 116.051 99.8725 115.734C99.3872 115.417 98.9999 114.973 98.7105 114.404C98.2532 113.499 98.0245 112.374 98.0245 111.03C98.0245 109.677 98.2532 108.547 98.7105 107.642C98.9999 107.073 99.3872 106.634 99.8725 106.326C100.367 106.009 100.941 105.85 101.595 105.85C102.248 105.85 102.817 106.009 103.303 106.326C103.797 106.634 104.189 107.073 104.479 107.642C104.936 108.547 105.165 109.677 105.165 111.03C105.165 112.374 104.936 113.499 104.479 114.404C104.189 114.973 103.797 115.417 103.303 115.734C102.817 116.051 102.248 116.21 101.595 116.21ZM101.595 115.398C102.509 115.398 103.195 114.922 103.653 113.97C104.017 113.195 104.199 112.215 104.199 111.03C104.199 109.826 104.017 108.841 103.653 108.076C103.205 107.133 102.519 106.662 101.595 106.662C100.671 106.662 99.9845 107.133 99.5365 108.076C99.1725 108.841 98.9905 109.826 98.9905 111.03C98.9905 112.225 99.1725 113.205 99.5365 113.97C99.9939 114.922 100.68 115.398 101.595 115.398ZM115.036 116C114.896 116 114.784 115.939 114.7 115.818L112.334 112.374L110.976 113.76V115.72C110.976 115.907 110.882 116 110.696 116H110.332C110.145 116 110.052 115.907 110.052 115.72V106.34C110.052 106.153 110.145 106.06 110.332 106.06H110.696C110.882 106.06 110.976 106.153 110.976 106.34V112.71L114.336 109.224C114.42 109.131 114.536 109.084 114.686 109.084H115.078C115.152 109.084 115.208 109.103 115.246 109.14C115.292 109.168 115.316 109.205 115.316 109.252C115.316 109.299 115.288 109.359 115.232 109.434L112.978 111.786L115.624 115.664C115.661 115.729 115.68 115.785 115.68 115.832C115.68 115.944 115.605 116 115.456 116H115.036ZM119.6 109.042C119.834 109.042 120.109 109.079 120.426 109.154C120.594 109.21 120.66 109.327 120.622 109.504L120.566 109.728C120.52 109.905 120.403 109.971 120.216 109.924C119.992 109.868 119.787 109.84 119.6 109.84C119.124 109.84 118.728 110.045 118.41 110.456C118.102 110.867 117.948 111.436 117.948 112.164V115.72C117.948 115.907 117.855 116 117.668 116H117.304C117.118 116 117.024 115.907 117.024 115.72V109.378C117.024 109.191 117.118 109.098 117.304 109.098H117.612C117.799 109.098 117.892 109.191 117.892 109.378V110.148C118.051 109.803 118.275 109.532 118.564 109.336C118.863 109.14 119.208 109.042 119.6 109.042Z" fill="#5C5C66"/>
<path d="M215.444 106.34C215.444 106.153 215.538 106.06 215.724 106.06H222.08C222.267 106.06 222.36 106.153 222.36 106.34V106.536C222.36 106.676 222.318 106.793 222.234 106.886C221.301 108.062 220.466 109.443 219.728 111.03C219 112.607 218.515 114.18 218.272 115.748C218.244 115.916 218.142 116 217.964 116H217.53C217.437 116 217.367 115.977 217.32 115.93C217.274 115.874 217.255 115.799 217.264 115.706C217.526 114.185 218.034 112.621 218.79 111.016C219.546 109.411 220.382 108.025 221.296 106.858H215.724C215.538 106.858 215.444 106.765 215.444 106.578V106.34ZM226.979 116.21C226.326 116.21 225.752 116.051 225.257 115.734C224.772 115.417 224.385 114.973 224.095 114.404C223.638 113.499 223.409 112.374 223.409 111.03C223.409 109.677 223.638 108.547 224.095 107.642C224.385 107.073 224.772 106.634 225.257 106.326C225.752 106.009 226.326 105.85 226.979 105.85C227.633 105.85 228.202 106.009 228.687 106.326C229.182 106.634 229.574 107.073 229.863 107.642C230.321 108.547 230.549 109.677 230.549 111.03C230.549 112.374 230.321 113.499 229.863 114.404C229.574 114.973 229.182 115.417 228.687 115.734C228.202 116.051 227.633 116.21 226.979 116.21ZM226.979 115.398C227.894 115.398 228.58 114.922 229.037 113.97C229.401 113.195 229.583 112.215 229.583 111.03C229.583 109.826 229.401 108.841 229.037 108.076C228.589 107.133 227.903 106.662 226.979 106.662C226.055 106.662 225.369 107.133 224.921 108.076C224.557 108.841 224.375 109.826 224.375 111.03C224.375 112.225 224.557 113.205 224.921 113.97C225.379 114.922 226.065 115.398 226.979 115.398ZM235.565 116.21C234.912 116.21 234.338 116.051 233.843 115.734C233.358 115.417 232.971 114.973 232.681 114.404C232.224 113.499 231.995 112.374 231.995 111.03C231.995 109.677 232.224 108.547 232.681 107.642C232.971 107.073 233.358 106.634 233.843 106.326C234.338 106.009 234.912 105.85 235.565 105.85C236.219 105.85 236.788 106.009 237.273 106.326C237.768 106.634 238.16 107.073 238.449 107.642C238.907 108.547 239.135 109.677 239.135 111.03C239.135 112.374 238.907 113.499 238.449 114.404C238.16 114.973 237.768 115.417 237.273 115.734C236.788 116.051 236.219 116.21 235.565 116.21ZM235.565 115.398C236.48 115.398 237.166 114.922 237.623 113.97C237.987 113.195 238.169 112.215 238.169 111.03C238.169 109.826 237.987 108.841 237.623 108.076C237.175 107.133 236.489 106.662 235.565 106.662C234.641 106.662 233.955 107.133 233.507 108.076C233.143 108.841 232.961 109.826 232.961 111.03C232.961 112.225 233.143 113.205 233.507 113.97C233.965 114.922 234.651 115.398 235.565 115.398ZM247.186 116.21C246.533 116.21 245.959 116.051 245.464 115.734C244.979 115.417 244.592 114.973 244.302 114.404C243.845 113.499 243.616 112.374 243.616 111.03C243.616 109.677 243.845 108.547 244.302 107.642C244.592 107.073 244.979 106.634 245.464 106.326C245.959 106.009 246.533 105.85 247.186 105.85C247.84 105.85 248.409 106.009 248.894 106.326C249.389 106.634 249.781 107.073 250.07 107.642C250.528 108.547 250.756 109.677 250.756 111.03C250.756 112.374 250.528 113.499 250.07 114.404C249.781 114.973 249.389 115.417 248.894 115.734C248.409 116.051 247.84 116.21 247.186 116.21ZM247.186 115.398C248.101 115.398 248.787 114.922 249.244 113.97C249.608 113.195 249.79 112.215 249.79 111.03C249.79 109.826 249.608 108.841 249.244 108.076C248.796 107.133 248.11 106.662 247.186 106.662C246.262 106.662 245.576 107.133 245.128 108.076C244.764 108.841 244.582 109.826 244.582 111.03C244.582 112.225 244.764 113.205 245.128 113.97C245.586 114.922 246.272 115.398 247.186 115.398ZM255.772 116.21C255.119 116.21 254.545 116.051 254.05 115.734C253.565 115.417 253.178 114.973 252.888 114.404C252.431 113.499 252.202 112.374 252.202 111.03C252.202 109.677 252.431 108.547 252.888 107.642C253.178 107.073 253.565 106.634 254.05 106.326C254.545 106.009 255.119 105.85 255.772 105.85C256.426 105.85 256.995 106.009 257.48 106.326C257.975 106.634 258.367 107.073 258.656 107.642C259.114 108.547 259.342 109.677 259.342 111.03C259.342 112.374 259.114 113.499 258.656 114.404C258.367 114.973 257.975 115.417 257.48 115.734C256.995 116.051 256.426 116.21 255.772 116.21ZM255.772 115.398C256.687 115.398 257.373 114.922 257.83 113.97C258.194 113.195 258.376 112.215 258.376 111.03C258.376 109.826 258.194 108.841 257.83 108.076C257.382 107.133 256.696 106.662 255.772 106.662C254.848 106.662 254.162 107.133 253.714 108.076C253.35 108.841 253.168 109.826 253.168 111.03C253.168 112.225 253.35 113.205 253.714 113.97C254.172 114.922 254.858 115.398 255.772 115.398ZM264.358 116.21C263.705 116.21 263.131 116.051 262.636 115.734C262.151 115.417 261.764 114.973 261.474 114.404C261.017 113.499 260.788 112.374 260.788 111.03C260.788 109.677 261.017 108.547 261.474 107.642C261.764 107.073 262.151 106.634 262.636 106.326C263.131 106.009 263.705 105.85 264.358 105.85C265.012 105.85 265.581 106.009 266.066 106.326C266.561 106.634 266.953 107.073 267.242 107.642C267.7 108.547 267.928 109.677 267.928 111.03C267.928 112.374 267.7 113.499 267.242 114.404C266.953 114.973 266.561 115.417 266.066 115.734C265.581 116.051 265.012 116.21 264.358 116.21ZM264.358 115.398C265.273 115.398 265.959 114.922 266.416 113.97C266.78 113.195 266.962 112.215 266.962 111.03C266.962 109.826 266.78 108.841 266.416 108.076C265.968 107.133 265.282 106.662 264.358 106.662C263.434 106.662 262.748 107.133 262.3 108.076C261.936 108.841 261.754 109.826 261.754 111.03C261.754 112.225 261.936 113.205 262.3 113.97C262.758 114.922 263.444 115.398 264.358 115.398ZM272.627 115.3C272.44 115.3 272.347 115.207 272.347 115.02V112.052H269.393C269.206 112.052 269.113 111.959 269.113 111.772V111.548C269.113 111.361 269.206 111.268 269.393 111.268H272.347V108.3C272.347 108.113 272.44 108.02 272.627 108.02H272.879C273.065 108.02 273.159 108.113 273.159 108.3V111.268H276.113C276.299 111.268 276.393 111.361 276.393 111.548V111.772C276.393 111.959 276.299 112.052 276.113 112.052H273.159V115.02C273.159 115.207 273.065 115.3 272.879 115.3H272.627ZM286.194 116C286.054 116 285.942 115.939 285.858 115.818L283.492 112.374L282.134 113.76V115.72C282.134 115.907 282.04 116 281.854 116H281.49C281.303 116 281.21 115.907 281.21 115.72V106.34C281.21 106.153 281.303 106.06 281.49 106.06H281.854C282.04 106.06 282.134 106.153 282.134 106.34V112.71L285.494 109.224C285.578 109.131 285.694 109.084 285.844 109.084H286.236C286.31 109.084 286.366 109.103 286.404 109.14C286.45 109.168 286.474 109.205 286.474 109.252C286.474 109.299 286.446 109.359 286.39 109.434L284.136 111.786L286.782 115.664C286.819 115.729 286.838 115.785 286.838 115.832C286.838 115.944 286.763 116 286.614 116H286.194ZM290.758 109.042C290.992 109.042 291.267 109.079 291.584 109.154C291.752 109.21 291.818 109.327 291.78 109.504L291.724 109.728C291.678 109.905 291.561 109.971 291.374 109.924C291.15 109.868 290.945 109.84 290.758 109.84C290.282 109.84 289.886 110.045 289.568 110.456C289.26 110.867 289.106 111.436 289.106 112.164V115.72C289.106 115.907 289.013 116 288.826 116H288.462C288.276 116 288.182 115.907 288.182 115.72V109.378C288.182 109.191 288.276 109.098 288.462 109.098H288.77C288.957 109.098 289.05 109.191 289.05 109.378V110.148C289.209 109.803 289.433 109.532 289.722 109.336C290.021 109.14 290.366 109.042 290.758 109.042Z" fill="#5C5C66"/>
<path d="M41.568 54C41.4187 54 41.2973 53.958 41.204 53.874C41.12 53.7807 41.078 53.6593 41.078 53.51V44.55C41.078 44.3913 41.12 44.27 41.204 44.186C41.2973 44.102 41.4187 44.06 41.568 44.06H45.586C46.5753 44.06 47.364 44.3353 47.952 44.886C48.54 45.4273 48.834 46.1693 48.834 47.112C48.834 48.0547 48.54 48.7967 47.952 49.338C47.364 49.8793 46.5753 50.15 45.586 50.15H42.674V53.51C42.674 53.6593 42.632 53.7807 42.548 53.874C42.464 53.958 42.3427 54 42.184 54H41.568ZM45.334 48.82C45.9313 48.82 46.398 48.6753 46.734 48.386C47.0793 48.0873 47.252 47.6627 47.252 47.112C47.252 46.552 47.0793 46.1273 46.734 45.838C46.398 45.5393 45.9313 45.39 45.334 45.39H42.674V48.82H45.334ZM53.2589 47.028C53.4642 47.028 53.6742 47.0513 53.8889 47.098C54.1409 47.154 54.2669 47.3033 54.2669 47.546C54.2669 47.6113 54.2622 47.658 54.2529 47.686L54.1829 48.022C54.1269 48.2833 53.9869 48.414 53.7629 48.414L53.6369 48.4C53.4689 48.372 53.3195 48.358 53.1889 48.358C52.7222 48.358 52.3442 48.5447 52.0549 48.918C51.7749 49.282 51.6349 49.7907 51.6349 50.444V53.51C51.6349 53.6593 51.5929 53.7807 51.5089 53.874C51.4249 53.958 51.3035 54 51.1449 54H50.6409C50.4915 54 50.3702 53.958 50.2769 53.874C50.1929 53.7807 50.1509 53.6593 50.1509 53.51V47.588C50.1509 47.4293 50.1929 47.308 50.2769 47.224C50.3702 47.14 50.4915 47.098 50.6409 47.098H51.0469C51.2055 47.098 51.3269 47.14 51.4109 47.224C51.4949 47.308 51.5369 47.4293 51.5369 47.588V48.134C51.7049 47.7887 51.9335 47.518 52.2229 47.322C52.5122 47.126 52.8575 47.028 53.2589 47.028ZM56.1022 45.754C55.8315 45.754 55.6029 45.6653 55.4162 45.488C55.2295 45.3013 55.1362 45.082 55.1362 44.83C55.1362 44.5687 55.2295 44.3493 55.4162 44.172C55.6029 43.9947 55.8315 43.906 56.1022 43.906C56.3729 43.906 56.6015 43.9947 56.7882 44.172C56.9749 44.3493 57.0682 44.5687 57.0682 44.83C57.0682 45.082 56.9749 45.3013 56.7882 45.488C56.6015 45.6653 56.3729 45.754 56.1022 45.754ZM55.8362 54C55.6869 54 55.5655 53.958 55.4722 53.874C55.3882 53.7807 55.3462 53.6593 55.3462 53.51V47.588C55.3462 47.4293 55.3882 47.308 55.4722 47.224C55.5655 47.14 55.6869 47.098 55.8362 47.098H56.3402C56.4989 47.098 56.6202 47.14 56.7042 47.224C56.7882 47.308 56.8302 47.4293 56.8302 47.588V53.51C56.8302 53.6593 56.7882 53.7807 56.7042 53.874C56.6202 53.958 56.4989 54 56.3402 54H55.8362ZM61.5834 54.21C60.9021 54.21 60.3001 54.0607 59.7774 53.762C59.2641 53.4633 58.8627 53.0387 58.5734 52.488C58.2934 51.928 58.1534 51.2793 58.1534 50.542C58.1534 49.8047 58.2981 49.1607 58.5874 48.61C58.8767 48.0593 59.2827 47.6347 59.8054 47.336C60.3281 47.0373 60.9301 46.888 61.6114 46.888C62.1061 46.888 62.5494 46.9627 62.9414 47.112C63.3427 47.252 63.7254 47.4947 64.0894 47.84C64.2014 47.952 64.2574 48.0687 64.2574 48.19C64.2574 48.302 64.1967 48.4187 64.0754 48.54L63.8374 48.778C63.7347 48.8807 63.6227 48.932 63.5014 48.932C63.3801 48.932 63.2541 48.876 63.1234 48.764C62.8527 48.5307 62.5961 48.372 62.3534 48.288C62.1201 48.1947 61.8681 48.148 61.5974 48.148C60.9814 48.148 60.5054 48.3767 60.1694 48.834C59.8334 49.2913 59.6654 49.8607 59.6654 50.542C59.6654 51.2233 59.8334 51.7973 60.1694 52.264C60.5054 52.7213 60.9814 52.95 61.5974 52.95C61.8961 52.95 62.1714 52.894 62.4234 52.782C62.6754 52.6607 62.9461 52.46 63.2354 52.18C63.3567 52.0587 63.4827 51.998 63.6134 51.998C63.7254 51.998 63.8327 52.0447 63.9354 52.138L64.1734 52.334C64.2947 52.4367 64.3554 52.5533 64.3554 52.684C64.3554 52.824 64.2854 52.9733 64.1454 53.132C63.7627 53.524 63.3661 53.804 62.9554 53.972C62.5541 54.1307 62.0967 54.21 61.5834 54.21ZM70.3917 52.236C70.513 52.1333 70.6297 52.082 70.7417 52.082C70.8537 52.082 70.9704 52.1427 71.0917 52.264L71.2877 52.474C71.3904 52.5953 71.4417 52.712 71.4417 52.824C71.4417 52.9453 71.381 53.062 71.2597 53.174C70.8304 53.5473 70.401 53.8133 69.9717 53.972C69.5517 54.1307 69.085 54.21 68.5717 54.21C67.853 54.21 67.2277 54.0607 66.6957 53.762C66.173 53.4633 65.767 53.0433 65.4777 52.502C65.1977 51.9513 65.0577 51.3167 65.0577 50.598C65.0577 49.8887 65.193 49.254 65.4637 48.694C65.7437 48.1247 66.1357 47.6813 66.6397 47.364C67.153 47.0467 67.7504 46.888 68.4317 46.888C69.449 46.888 70.233 47.1913 70.7837 47.798C71.3344 48.3953 71.6097 49.2213 71.6097 50.276V50.402C71.6004 50.5513 71.5537 50.668 71.4697 50.752C71.3857 50.836 71.2644 50.878 71.1057 50.878H66.5137C66.5697 51.494 66.7704 51.998 67.1157 52.39C67.4704 52.7727 67.965 52.964 68.5997 52.964C68.945 52.964 69.2484 52.9127 69.5097 52.81C69.771 52.698 70.065 52.5067 70.3917 52.236ZM68.4037 48.064C67.8904 48.064 67.475 48.218 67.1577 48.526C66.8497 48.8247 66.649 49.2493 66.5557 49.8H70.1537C70.1164 49.2587 69.9484 48.834 69.6497 48.526C69.351 48.218 68.9357 48.064 68.4037 48.064ZM79.3901 56.072C79.2688 56.1653 79.1568 56.212 79.0541 56.212C78.9234 56.212 78.8021 56.1467 78.6901 56.016C77.8968 55.0827 77.2808 54.112 76.8421 53.104C76.4034 52.0867 76.1841 50.9527 76.1841 49.702C76.1841 48.4513 76.4034 47.322 76.8421 46.314C77.2808 45.2967 77.8968 44.3213 78.6901 43.388C78.8021 43.2573 78.9234 43.192 79.0541 43.192C79.1568 43.192 79.2688 43.2387 79.3901 43.332L79.5861 43.486C79.7168 43.5887 79.7821 43.7147 79.7821 43.864C79.7821 43.976 79.7448 44.0833 79.6701 44.186C78.9794 45.11 78.4661 46.0013 78.1301 46.86C77.7941 47.7093 77.6261 48.6567 77.6261 49.702C77.6261 50.7473 77.7941 51.6993 78.1301 52.558C78.4661 53.4073 78.9794 54.294 79.6701 55.218C79.7448 55.3207 79.7821 55.428 79.7821 55.54C79.7821 55.6893 79.7168 55.8153 79.5861 55.918L79.3901 56.072ZM85.9679 54C85.7066 54 85.5106 53.8927 85.3799 53.678L83.4479 50.682L82.3419 51.802V53.51C82.3419 53.6593 82.2999 53.7807 82.2159 53.874C82.1319 53.958 82.0106 54 81.8519 54H81.3479C81.1986 54 81.0772 53.958 80.9839 53.874C80.8999 53.7807 80.8579 53.6593 80.8579 53.51V44.55C80.8579 44.3913 80.8999 44.27 80.9839 44.186C81.0772 44.102 81.1986 44.06 81.3479 44.06H81.8519C82.0106 44.06 82.1319 44.102 82.2159 44.186C82.2999 44.27 82.3419 44.3913 82.3419 44.55V50.164L84.9879 47.364C85.1559 47.1867 85.3612 47.098 85.6039 47.098H86.1359C86.2759 47.098 86.3786 47.126 86.4439 47.182C86.5186 47.2287 86.5559 47.294 86.5559 47.378C86.5559 47.49 86.5046 47.5973 86.4019 47.7L84.4699 49.716L86.8499 53.412C86.9152 53.5147 86.9479 53.608 86.9479 53.692C86.9479 53.7853 86.9106 53.86 86.8359 53.916C86.7612 53.972 86.6586 54 86.5279 54H85.9679ZM91.2257 47.028C91.431 47.028 91.641 47.0513 91.8557 47.098C92.1077 47.154 92.2337 47.3033 92.2337 47.546C92.2337 47.6113 92.229 47.658 92.2197 47.686L92.1497 48.022C92.0937 48.2833 91.9537 48.414 91.7297 48.414L91.6037 48.4C91.4357 48.372 91.2863 48.358 91.1557 48.358C90.689 48.358 90.311 48.5447 90.0217 48.918C89.7417 49.282 89.6017 49.7907 89.6017 50.444V53.51C89.6017 53.6593 89.5597 53.7807 89.4757 53.874C89.3917 53.958 89.2703 54 89.1117 54H88.6077C88.4583 54 88.337 53.958 88.2437 53.874C88.1597 53.7807 88.1177 53.6593 88.1177 53.51V47.588C88.1177 47.4293 88.1597 47.308 88.2437 47.224C88.337 47.14 88.4583 47.098 88.6077 47.098H89.0137C89.1723 47.098 89.2937 47.14 89.3777 47.224C89.4617 47.308 89.5037 47.4293 89.5037 47.588V48.134C89.6717 47.7887 89.9003 47.518 90.1897 47.322C90.479 47.126 90.8243 47.028 91.2257 47.028ZM93.775 55.974C93.663 56.1047 93.5417 56.17 93.411 56.17C93.3083 56.17 93.1963 56.1233 93.075 56.03L92.893 55.89C92.753 55.778 92.683 55.652 92.683 55.512C92.683 55.4093 92.725 55.302 92.809 55.19C93.4997 54.266 94.0083 53.3747 94.335 52.516C94.671 51.6573 94.839 50.7053 94.839 49.66C94.839 48.624 94.671 47.6767 94.335 46.818C94.0083 45.9593 93.4997 45.068 92.809 44.144C92.725 44.032 92.683 43.9247 92.683 43.822C92.683 43.682 92.753 43.556 92.893 43.444L93.075 43.29C93.1963 43.1967 93.3037 43.15 93.397 43.15C93.537 43.15 93.663 43.22 93.775 43.36C94.5683 44.2933 95.1843 45.2687 95.623 46.286C96.0617 47.294 96.281 48.4187 96.281 49.66C96.281 50.9107 96.0617 52.0447 95.623 53.062C95.1843 54.07 94.5683 55.0407 93.775 55.974Z" fill="#1B1B1F"/>
<rect x="40" y="78" width="252" height="4" rx="2" fill="#DEDEE3"/>
<rect x="54" y="77" width="224" height="6" rx="3" fill="#0063FB"/>
<rect x="264" y="66" width="28" height="28" rx="14" fill="#0063FB"/>
<rect x="40" y="66" width="28" height="28" rx="14" fill="#0063FB"/>
<defs>
<clipPath id="clip0_5488_18169">
<rect width="98" height="22" fill="white" transform="translate(48 145)"/>
</clipPath>
<clipPath id="clip1_5488_18169">
<rect width="98" height="22" fill="white" transform="translate(186 145)"/>
</clipPath>
</defs>
</svg>
