<svg width="332" height="220" viewBox="0 0 332 220" fill="none" xmlns="http://www.w3.org/2000/svg">
<rect x="40.5" y="132.5" width="113" height="47" rx="3.5" fill="white"/>
<rect x="40.5" y="132.5" width="113" height="47" rx="3.5" stroke="#84848F"/>
<g clip-path="url(#clip0_5483_12779)">
<path d="M58.304 149.896C58.368 149.725 58.4907 149.64 58.672 149.64H59.92C60.1333 149.64 60.24 149.747 60.24 149.96V160.68C60.24 160.893 60.1333 161 59.92 161H59.456C59.2427 161 59.136 160.893 59.136 160.68V155.368C59.136 154.227 59.1467 152.579 59.168 150.424C58.7307 151.672 58.1333 153.32 57.376 155.368L55.408 160.744C55.344 160.915 55.2213 161 55.04 161H54.576C54.3947 161 54.272 160.915 54.208 160.744L52.192 155.352C51.7653 154.243 51.1733 152.6 50.416 150.424C50.4373 152.579 50.448 154.232 50.448 155.384V160.68C50.448 160.893 50.3413 161 50.128 161H49.696C49.4827 161 49.376 160.893 49.376 160.68V149.96C49.376 149.747 49.4827 149.64 49.696 149.64H50.928C51.1093 149.64 51.232 149.725 51.296 149.896L53.12 154.808C53.9627 157.101 54.528 158.717 54.816 159.656C55.0827 158.76 55.5413 157.421 56.192 155.64C56.2347 155.523 56.2827 155.395 56.336 155.256C56.3893 155.117 56.4427 154.968 56.496 154.808L58.304 149.896ZM63.3214 151.112C63.108 151.112 62.9267 151.037 62.7774 150.888C62.6387 150.739 62.5694 150.557 62.5694 150.344C62.5694 150.131 62.6387 149.955 62.7774 149.816C62.9267 149.677 63.108 149.608 63.3214 149.608C63.5454 149.608 63.7267 149.677 63.8654 149.816C64.0147 149.955 64.0894 150.131 64.0894 150.344C64.0894 150.557 64.0147 150.739 63.8654 150.888C63.7267 151.037 63.5454 151.112 63.3214 151.112ZM63.1134 161C62.9 161 62.7934 160.893 62.7934 160.68V153.432C62.7934 153.219 62.9 153.112 63.1134 153.112H63.5294C63.7427 153.112 63.8494 153.219 63.8494 153.432V160.68C63.8494 160.893 63.7427 161 63.5294 161H63.1134ZM69.7196 152.92C70.6476 152.92 71.3463 153.176 71.8156 153.688C72.2956 154.2 72.5356 154.84 72.5356 155.608V160.68C72.5356 160.893 72.429 161 72.2156 161H71.7996C71.5863 161 71.4796 160.893 71.4796 160.68V155.96C71.4796 155.256 71.309 154.723 70.9676 154.36C70.6263 153.997 70.1356 153.816 69.4956 153.816C69.0903 153.816 68.717 153.917 68.3756 154.12C68.0343 154.312 67.7623 154.579 67.5596 154.92C67.357 155.261 67.2556 155.635 67.2556 156.04V160.68C67.2556 160.893 67.149 161 66.9356 161H66.5196C66.3063 161 66.1996 160.893 66.1996 160.68V153.432C66.1996 153.219 66.3063 153.112 66.5196 153.112H66.8716C67.085 153.112 67.1916 153.219 67.1916 153.432V154.2C67.4583 153.773 67.8103 153.453 68.2476 153.24C68.685 153.027 69.1756 152.92 69.7196 152.92Z" fill="#1B1B1F"/>
<path d="M140.16 160C140.04 160 139.944 159.948 139.872 159.844L137.844 156.892L136.68 158.08V159.76C136.68 159.92 136.6 160 136.44 160H136.128C135.968 160 135.888 159.92 135.888 159.76V151.72C135.888 151.56 135.968 151.48 136.128 151.48H136.44C136.6 151.48 136.68 151.56 136.68 151.72V157.18L139.56 154.192C139.632 154.112 139.732 154.072 139.86 154.072H140.196C140.26 154.072 140.308 154.088 140.34 154.12C140.38 154.144 140.4 154.176 140.4 154.216C140.4 154.256 140.376 154.308 140.328 154.372L138.396 156.388L140.664 159.712C140.696 159.768 140.712 159.816 140.712 159.856C140.712 159.952 140.648 160 140.52 160H140.16ZM144.073 154.036C144.273 154.036 144.509 154.068 144.781 154.132C144.925 154.18 144.981 154.28 144.949 154.432L144.901 154.624C144.861 154.776 144.761 154.832 144.601 154.792C144.409 154.744 144.233 154.72 144.073 154.72C143.665 154.72 143.325 154.896 143.053 155.248C142.789 155.6 142.657 156.088 142.657 156.712V159.76C142.657 159.92 142.577 160 142.417 160H142.105C141.945 160 141.865 159.92 141.865 159.76V154.324C141.865 154.164 141.945 154.084 142.105 154.084H142.369C142.529 154.084 142.609 154.164 142.609 154.324V154.984C142.745 154.688 142.937 154.456 143.185 154.288C143.441 154.12 143.737 154.036 144.073 154.036Z" fill="#5C5C66"/>
</g>
<rect x="178.5" y="132.5" width="113" height="47" rx="3.5" fill="white"/>
<rect x="178.5" y="132.5" width="113" height="47" rx="3.5" stroke="#84848F"/>
<g clip-path="url(#clip1_5483_12779)">
<path d="M196.304 149.896C196.368 149.725 196.491 149.64 196.672 149.64H197.92C198.133 149.64 198.24 149.747 198.24 149.96V160.68C198.24 160.893 198.133 161 197.92 161H197.456C197.243 161 197.136 160.893 197.136 160.68V155.368C197.136 154.227 197.147 152.579 197.168 150.424C196.731 151.672 196.133 153.32 195.376 155.368L193.408 160.744C193.344 160.915 193.221 161 193.04 161H192.576C192.395 161 192.272 160.915 192.208 160.744L190.192 155.352C189.765 154.243 189.173 152.6 188.416 150.424C188.437 152.579 188.448 154.232 188.448 155.384V160.68C188.448 160.893 188.341 161 188.128 161H187.696C187.483 161 187.376 160.893 187.376 160.68V149.96C187.376 149.747 187.483 149.64 187.696 149.64H188.928C189.109 149.64 189.232 149.725 189.296 149.896L191.12 154.808C191.963 157.101 192.528 158.717 192.816 159.656C193.083 158.76 193.541 157.421 194.192 155.64C194.235 155.523 194.283 155.395 194.336 155.256C194.389 155.117 194.443 154.968 194.496 154.808L196.304 149.896ZM203.833 152.92C204.804 152.92 205.561 153.155 206.105 153.624C206.649 154.083 206.921 154.691 206.921 155.448V160.68C206.921 160.893 206.815 161 206.601 161H206.281C206.068 161 205.961 160.893 205.961 160.68V159.96C205.695 160.387 205.316 160.707 204.825 160.92C204.345 161.133 203.807 161.24 203.209 161.24C202.377 161.24 201.7 161.064 201.177 160.712C200.655 160.36 200.393 159.816 200.393 159.08C200.393 158.493 200.559 158.024 200.889 157.672C201.22 157.309 201.652 157.037 202.185 156.856C202.719 156.664 203.385 156.493 204.185 156.344L205.913 156.04V155.528C205.913 154.984 205.727 154.563 205.353 154.264C204.98 153.955 204.489 153.8 203.881 153.8C203.423 153.8 203.007 153.885 202.633 154.056C202.26 154.227 201.86 154.52 201.433 154.936C201.359 155.011 201.279 155.048 201.193 155.048C201.119 155.048 201.049 155.016 200.985 154.952L200.777 154.76C200.703 154.685 200.665 154.605 200.665 154.52C200.665 154.424 200.703 154.339 200.777 154.264C201.225 153.795 201.695 153.453 202.185 153.24C202.687 153.027 203.236 152.92 203.833 152.92ZM203.257 160.36C204.025 160.36 204.66 160.157 205.161 159.752C205.663 159.347 205.913 158.829 205.913 158.2V156.856L204.425 157.144C203.732 157.283 203.183 157.416 202.777 157.544C202.372 157.672 202.047 157.859 201.801 158.104C201.556 158.349 201.433 158.669 201.433 159.064C201.433 159.469 201.593 159.789 201.913 160.024C202.244 160.248 202.692 160.36 203.257 160.36ZM215.054 160.616C215.097 160.691 215.118 160.755 215.118 160.808C215.118 160.936 215.033 161 214.862 161H214.382C214.222 161 214.094 160.931 213.998 160.792L211.822 157.592L209.662 160.792C209.566 160.931 209.438 161 209.278 161H208.83C208.745 161 208.675 160.984 208.622 160.952C208.579 160.909 208.558 160.861 208.558 160.808C208.558 160.733 208.579 160.669 208.622 160.616L211.214 156.888L208.83 153.496C208.787 153.443 208.766 153.384 208.766 153.32C208.766 153.181 208.857 153.112 209.038 153.112H209.502C209.662 153.112 209.79 153.181 209.886 153.32L211.838 156.184L213.774 153.32C213.87 153.181 213.998 153.112 214.158 153.112H214.59C214.675 153.112 214.739 153.133 214.782 153.176C214.835 153.208 214.862 153.251 214.862 153.304C214.862 153.379 214.841 153.443 214.798 153.496L212.462 156.84L215.054 160.616Z" fill="#1B1B1F"/>
<path d="M278.16 160C278.04 160 277.944 159.948 277.872 159.844L275.844 156.892L274.68 158.08V159.76C274.68 159.92 274.6 160 274.44 160H274.128C273.968 160 273.888 159.92 273.888 159.76V151.72C273.888 151.56 273.968 151.48 274.128 151.48H274.44C274.6 151.48 274.68 151.56 274.68 151.72V157.18L277.56 154.192C277.632 154.112 277.732 154.072 277.86 154.072H278.196C278.26 154.072 278.308 154.088 278.34 154.12C278.38 154.144 278.4 154.176 278.4 154.216C278.4 154.256 278.376 154.308 278.328 154.372L276.396 156.388L278.664 159.712C278.696 159.768 278.712 159.816 278.712 159.856C278.712 159.952 278.648 160 278.52 160H278.16ZM282.073 154.036C282.273 154.036 282.509 154.068 282.781 154.132C282.925 154.18 282.981 154.28 282.949 154.432L282.901 154.624C282.861 154.776 282.761 154.832 282.601 154.792C282.409 154.744 282.233 154.72 282.073 154.72C281.665 154.72 281.325 154.896 281.053 155.248C280.789 155.6 280.657 156.088 280.657 156.712V159.76C280.657 159.92 280.577 160 280.417 160H280.105C279.945 160 279.865 159.92 279.865 159.76V154.324C279.865 154.164 279.945 154.084 280.105 154.084H280.369C280.529 154.084 280.609 154.164 280.609 154.324V154.984C280.745 154.688 280.937 154.456 281.185 154.288C281.441 154.12 281.737 154.036 282.073 154.036Z" fill="#5C5C66"/>
</g>
<path d="M44.2 116.21C43.5467 116.21 42.9727 116.051 42.478 115.734C41.9927 115.417 41.6053 114.973 41.316 114.404C40.8587 113.499 40.63 112.374 40.63 111.03C40.63 109.677 40.8587 108.547 41.316 107.642C41.6053 107.073 41.9927 106.634 42.478 106.326C42.9727 106.009 43.5467 105.85 44.2 105.85C44.8533 105.85 45.4227 106.009 45.908 106.326C46.4027 106.634 46.7947 107.073 47.084 107.642C47.5413 108.547 47.77 109.677 47.77 111.03C47.77 112.374 47.5413 113.499 47.084 114.404C46.7947 114.973 46.4027 115.417 45.908 115.734C45.4227 116.051 44.8533 116.21 44.2 116.21ZM44.2 115.398C45.1147 115.398 45.8007 114.922 46.258 113.97C46.622 113.195 46.804 112.215 46.804 111.03C46.804 109.826 46.622 108.841 46.258 108.076C45.81 107.133 45.124 106.662 44.2 106.662C43.276 106.662 42.59 107.133 42.142 108.076C41.778 108.841 41.596 109.826 41.596 111.03C41.596 112.225 41.778 113.205 42.142 113.97C42.5993 114.922 43.2853 115.398 44.2 115.398Z" fill="#5C5C66"/>
<path d="M230.497 106.34C230.497 106.153 230.59 106.06 230.777 106.06H237.133C237.32 106.06 237.413 106.153 237.413 106.34V106.536C237.413 106.676 237.371 106.793 237.287 106.886C236.354 108.062 235.518 109.443 234.781 111.03C234.053 112.607 233.568 114.18 233.325 115.748C233.297 115.916 233.194 116 233.017 116H232.583C232.49 116 232.42 115.977 232.373 115.93C232.326 115.874 232.308 115.799 232.317 115.706C232.578 114.185 233.087 112.621 233.843 111.016C234.599 109.411 235.434 108.025 236.349 106.858H230.777C230.59 106.858 230.497 106.765 230.497 106.578V106.34ZM242.032 116.21C241.379 116.21 240.805 116.051 240.31 115.734C239.825 115.417 239.437 114.973 239.148 114.404C238.691 113.499 238.462 112.374 238.462 111.03C238.462 109.677 238.691 108.547 239.148 107.642C239.437 107.073 239.825 106.634 240.31 106.326C240.805 106.009 241.379 105.85 242.032 105.85C242.685 105.85 243.255 106.009 243.74 106.326C244.235 106.634 244.627 107.073 244.916 107.642C245.373 108.547 245.602 109.677 245.602 111.03C245.602 112.374 245.373 113.499 244.916 114.404C244.627 114.973 244.235 115.417 243.74 115.734C243.255 116.051 242.685 116.21 242.032 116.21ZM242.032 115.398C242.947 115.398 243.633 114.922 244.09 113.97C244.454 113.195 244.636 112.215 244.636 111.03C244.636 109.826 244.454 108.841 244.09 108.076C243.642 107.133 242.956 106.662 242.032 106.662C241.108 106.662 240.422 107.133 239.974 108.076C239.61 108.841 239.428 109.826 239.428 111.03C239.428 112.225 239.61 113.205 239.974 113.97C240.431 114.922 241.117 115.398 242.032 115.398ZM250.618 116.21C249.965 116.21 249.391 116.051 248.896 115.734C248.411 115.417 248.023 114.973 247.734 114.404C247.277 113.499 247.048 112.374 247.048 111.03C247.048 109.677 247.277 108.547 247.734 107.642C248.023 107.073 248.411 106.634 248.896 106.326C249.391 106.009 249.965 105.85 250.618 105.85C251.271 105.85 251.841 106.009 252.326 106.326C252.821 106.634 253.213 107.073 253.502 107.642C253.959 108.547 254.188 109.677 254.188 111.03C254.188 112.374 253.959 113.499 253.502 114.404C253.213 114.973 252.821 115.417 252.326 115.734C251.841 116.051 251.271 116.21 250.618 116.21ZM250.618 115.398C251.533 115.398 252.219 114.922 252.676 113.97C253.04 113.195 253.222 112.215 253.222 111.03C253.222 109.826 253.04 108.841 252.676 108.076C252.228 107.133 251.542 106.662 250.618 106.662C249.694 106.662 249.008 107.133 248.56 108.076C248.196 108.841 248.014 109.826 248.014 111.03C248.014 112.225 248.196 113.205 248.56 113.97C249.017 114.922 249.703 115.398 250.618 115.398ZM262.239 116.21C261.586 116.21 261.012 116.051 260.517 115.734C260.032 115.417 259.644 114.973 259.355 114.404C258.898 113.499 258.669 112.374 258.669 111.03C258.669 109.677 258.898 108.547 259.355 107.642C259.644 107.073 260.032 106.634 260.517 106.326C261.012 106.009 261.586 105.85 262.239 105.85C262.892 105.85 263.462 106.009 263.947 106.326C264.442 106.634 264.834 107.073 265.123 107.642C265.58 108.547 265.809 109.677 265.809 111.03C265.809 112.374 265.58 113.499 265.123 114.404C264.834 114.973 264.442 115.417 263.947 115.734C263.462 116.051 262.892 116.21 262.239 116.21ZM262.239 115.398C263.154 115.398 263.84 114.922 264.297 113.97C264.661 113.195 264.843 112.215 264.843 111.03C264.843 109.826 264.661 108.841 264.297 108.076C263.849 107.133 263.163 106.662 262.239 106.662C261.315 106.662 260.629 107.133 260.181 108.076C259.817 108.841 259.635 109.826 259.635 111.03C259.635 112.225 259.817 113.205 260.181 113.97C260.638 114.922 261.324 115.398 262.239 115.398ZM270.825 116.21C270.172 116.21 269.598 116.051 269.103 115.734C268.618 115.417 268.23 114.973 267.941 114.404C267.484 113.499 267.255 112.374 267.255 111.03C267.255 109.677 267.484 108.547 267.941 107.642C268.23 107.073 268.618 106.634 269.103 106.326C269.598 106.009 270.172 105.85 270.825 105.85C271.478 105.85 272.048 106.009 272.533 106.326C273.028 106.634 273.42 107.073 273.709 107.642C274.166 108.547 274.395 109.677 274.395 111.03C274.395 112.374 274.166 113.499 273.709 114.404C273.42 114.973 273.028 115.417 272.533 115.734C272.048 116.051 271.478 116.21 270.825 116.21ZM270.825 115.398C271.74 115.398 272.426 114.922 272.883 113.97C273.247 113.195 273.429 112.215 273.429 111.03C273.429 109.826 273.247 108.841 272.883 108.076C272.435 107.133 271.749 106.662 270.825 106.662C269.901 106.662 269.215 107.133 268.767 108.076C268.403 108.841 268.221 109.826 268.221 111.03C268.221 112.225 268.403 113.205 268.767 113.97C269.224 114.922 269.91 115.398 270.825 115.398ZM279.411 116.21C278.758 116.21 278.184 116.051 277.689 115.734C277.204 115.417 276.816 114.973 276.527 114.404C276.07 113.499 275.841 112.374 275.841 111.03C275.841 109.677 276.07 108.547 276.527 107.642C276.816 107.073 277.204 106.634 277.689 106.326C278.184 106.009 278.758 105.85 279.411 105.85C280.064 105.85 280.634 106.009 281.119 106.326C281.614 106.634 282.006 107.073 282.295 107.642C282.752 108.547 282.981 109.677 282.981 111.03C282.981 112.374 282.752 113.499 282.295 114.404C282.006 114.973 281.614 115.417 281.119 115.734C280.634 116.051 280.064 116.21 279.411 116.21ZM279.411 115.398C280.326 115.398 281.012 114.922 281.469 113.97C281.833 113.195 282.015 112.215 282.015 111.03C282.015 109.826 281.833 108.841 281.469 108.076C281.021 107.133 280.335 106.662 279.411 106.662C278.487 106.662 277.801 107.133 277.353 108.076C276.989 108.841 276.807 109.826 276.807 111.03C276.807 112.225 276.989 113.205 277.353 113.97C277.81 114.922 278.496 115.398 279.411 115.398ZM287.679 115.3C287.493 115.3 287.399 115.207 287.399 115.02V112.052H284.445C284.259 112.052 284.165 111.959 284.165 111.772V111.548C284.165 111.361 284.259 111.268 284.445 111.268H287.399V108.3C287.399 108.113 287.493 108.02 287.679 108.02H287.931C288.118 108.02 288.211 108.113 288.211 108.3V111.268H291.165C291.352 111.268 291.445 111.361 291.445 111.548V111.772C291.445 111.959 291.352 112.052 291.165 112.052H288.211V115.02C288.211 115.207 288.118 115.3 287.931 115.3H287.679Z" fill="#5C5C66"/>
<path d="M41.568 54C41.4187 54 41.2973 53.958 41.204 53.874C41.12 53.7807 41.078 53.6593 41.078 53.51V44.55C41.078 44.3913 41.12 44.27 41.204 44.186C41.2973 44.102 41.4187 44.06 41.568 44.06H45.586C46.5753 44.06 47.364 44.3353 47.952 44.886C48.54 45.4273 48.834 46.1693 48.834 47.112C48.834 48.0547 48.54 48.7967 47.952 49.338C47.364 49.8793 46.5753 50.15 45.586 50.15H42.674V53.51C42.674 53.6593 42.632 53.7807 42.548 53.874C42.464 53.958 42.3427 54 42.184 54H41.568ZM45.334 48.82C45.9313 48.82 46.398 48.6753 46.734 48.386C47.0793 48.0873 47.252 47.6627 47.252 47.112C47.252 46.552 47.0793 46.1273 46.734 45.838C46.398 45.5393 45.9313 45.39 45.334 45.39H42.674V48.82H45.334ZM53.2589 47.028C53.4642 47.028 53.6742 47.0513 53.8889 47.098C54.1409 47.154 54.2669 47.3033 54.2669 47.546C54.2669 47.6113 54.2622 47.658 54.2529 47.686L54.1829 48.022C54.1269 48.2833 53.9869 48.414 53.7629 48.414L53.6369 48.4C53.4689 48.372 53.3195 48.358 53.1889 48.358C52.7222 48.358 52.3442 48.5447 52.0549 48.918C51.7749 49.282 51.6349 49.7907 51.6349 50.444V53.51C51.6349 53.6593 51.5929 53.7807 51.5089 53.874C51.4249 53.958 51.3035 54 51.1449 54H50.6409C50.4915 54 50.3702 53.958 50.2769 53.874C50.1929 53.7807 50.1509 53.6593 50.1509 53.51V47.588C50.1509 47.4293 50.1929 47.308 50.2769 47.224C50.3702 47.14 50.4915 47.098 50.6409 47.098H51.0469C51.2055 47.098 51.3269 47.14 51.4109 47.224C51.4949 47.308 51.5369 47.4293 51.5369 47.588V48.134C51.7049 47.7887 51.9335 47.518 52.2229 47.322C52.5122 47.126 52.8575 47.028 53.2589 47.028ZM56.1022 45.754C55.8315 45.754 55.6029 45.6653 55.4162 45.488C55.2295 45.3013 55.1362 45.082 55.1362 44.83C55.1362 44.5687 55.2295 44.3493 55.4162 44.172C55.6029 43.9947 55.8315 43.906 56.1022 43.906C56.3729 43.906 56.6015 43.9947 56.7882 44.172C56.9749 44.3493 57.0682 44.5687 57.0682 44.83C57.0682 45.082 56.9749 45.3013 56.7882 45.488C56.6015 45.6653 56.3729 45.754 56.1022 45.754ZM55.8362 54C55.6869 54 55.5655 53.958 55.4722 53.874C55.3882 53.7807 55.3462 53.6593 55.3462 53.51V47.588C55.3462 47.4293 55.3882 47.308 55.4722 47.224C55.5655 47.14 55.6869 47.098 55.8362 47.098H56.3402C56.4989 47.098 56.6202 47.14 56.7042 47.224C56.7882 47.308 56.8302 47.4293 56.8302 47.588V53.51C56.8302 53.6593 56.7882 53.7807 56.7042 53.874C56.6202 53.958 56.4989 54 56.3402 54H55.8362ZM61.5834 54.21C60.9021 54.21 60.3001 54.0607 59.7774 53.762C59.2641 53.4633 58.8627 53.0387 58.5734 52.488C58.2934 51.928 58.1534 51.2793 58.1534 50.542C58.1534 49.8047 58.2981 49.1607 58.5874 48.61C58.8767 48.0593 59.2827 47.6347 59.8054 47.336C60.3281 47.0373 60.9301 46.888 61.6114 46.888C62.1061 46.888 62.5494 46.9627 62.9414 47.112C63.3427 47.252 63.7254 47.4947 64.0894 47.84C64.2014 47.952 64.2574 48.0687 64.2574 48.19C64.2574 48.302 64.1967 48.4187 64.0754 48.54L63.8374 48.778C63.7347 48.8807 63.6227 48.932 63.5014 48.932C63.3801 48.932 63.2541 48.876 63.1234 48.764C62.8527 48.5307 62.5961 48.372 62.3534 48.288C62.1201 48.1947 61.8681 48.148 61.5974 48.148C60.9814 48.148 60.5054 48.3767 60.1694 48.834C59.8334 49.2913 59.6654 49.8607 59.6654 50.542C59.6654 51.2233 59.8334 51.7973 60.1694 52.264C60.5054 52.7213 60.9814 52.95 61.5974 52.95C61.8961 52.95 62.1714 52.894 62.4234 52.782C62.6754 52.6607 62.9461 52.46 63.2354 52.18C63.3567 52.0587 63.4827 51.998 63.6134 51.998C63.7254 51.998 63.8327 52.0447 63.9354 52.138L64.1734 52.334C64.2947 52.4367 64.3554 52.5533 64.3554 52.684C64.3554 52.824 64.2854 52.9733 64.1454 53.132C63.7627 53.524 63.3661 53.804 62.9554 53.972C62.5541 54.1307 62.0967 54.21 61.5834 54.21ZM70.3917 52.236C70.513 52.1333 70.6297 52.082 70.7417 52.082C70.8537 52.082 70.9704 52.1427 71.0917 52.264L71.2877 52.474C71.3904 52.5953 71.4417 52.712 71.4417 52.824C71.4417 52.9453 71.381 53.062 71.2597 53.174C70.8304 53.5473 70.401 53.8133 69.9717 53.972C69.5517 54.1307 69.085 54.21 68.5717 54.21C67.853 54.21 67.2277 54.0607 66.6957 53.762C66.173 53.4633 65.767 53.0433 65.4777 52.502C65.1977 51.9513 65.0577 51.3167 65.0577 50.598C65.0577 49.8887 65.193 49.254 65.4637 48.694C65.7437 48.1247 66.1357 47.6813 66.6397 47.364C67.153 47.0467 67.7504 46.888 68.4317 46.888C69.449 46.888 70.233 47.1913 70.7837 47.798C71.3344 48.3953 71.6097 49.2213 71.6097 50.276V50.402C71.6004 50.5513 71.5537 50.668 71.4697 50.752C71.3857 50.836 71.2644 50.878 71.1057 50.878H66.5137C66.5697 51.494 66.7704 51.998 67.1157 52.39C67.4704 52.7727 67.965 52.964 68.5997 52.964C68.945 52.964 69.2484 52.9127 69.5097 52.81C69.771 52.698 70.065 52.5067 70.3917 52.236ZM68.4037 48.064C67.8904 48.064 67.475 48.218 67.1577 48.526C66.8497 48.8247 66.649 49.2493 66.5557 49.8H70.1537C70.1164 49.2587 69.9484 48.834 69.6497 48.526C69.351 48.218 68.9357 48.064 68.4037 48.064Z" fill="#1B1B1F"/>
<rect x="40" y="78" width="252" height="4" rx="2" fill="#DEDEE3"/>
<rect x="54" y="77" width="224" height="6" rx="3" fill="#0063FB"/>
<rect x="264" y="66" width="28" height="28" rx="14" fill="#0063FB"/>
<rect x="40" y="66" width="28" height="28" rx="14" fill="#0063FB"/>
<defs>
<clipPath id="clip0_5483_12779">
<rect width="98" height="22" fill="white" transform="translate(48 145)"/>
</clipPath>
<clipPath id="clip1_5483_12779">
<rect width="98" height="22" fill="white" transform="translate(186 145)"/>
</clipPath>
</defs>
</svg>
