<svg width="332" height="220" viewBox="0 0 332 220" fill="none" xmlns="http://www.w3.org/2000/svg">
<rect x="40.5" y="132.5" width="113" height="47" rx="3.5" fill="white"/>
<rect x="40.5" y="132.5" width="113" height="47" rx="3.5" stroke="#84848F"/>
<g clip-path="url(#clip0_5449_13395)">
<path d="M58.304 149.896C58.368 149.725 58.4907 149.64 58.672 149.64H59.92C60.1333 149.64 60.24 149.747 60.24 149.96V160.68C60.24 160.893 60.1333 161 59.92 161H59.456C59.2427 161 59.136 160.893 59.136 160.68V155.368C59.136 154.227 59.1467 152.579 59.168 150.424C58.7307 151.672 58.1333 153.32 57.376 155.368L55.408 160.744C55.344 160.915 55.2213 161 55.04 161H54.576C54.3947 161 54.272 160.915 54.208 160.744L52.192 155.352C51.7653 154.243 51.1733 152.6 50.416 150.424C50.4373 152.579 50.448 154.232 50.448 155.384V160.68C50.448 160.893 50.3413 161 50.128 161H49.696C49.4827 161 49.376 160.893 49.376 160.68V149.96C49.376 149.747 49.4827 149.64 49.696 149.64H50.928C51.1093 149.64 51.232 149.725 51.296 149.896L53.12 154.808C53.9627 157.101 54.528 158.717 54.816 159.656C55.0827 158.76 55.5413 157.421 56.192 155.64C56.2347 155.523 56.2827 155.395 56.336 155.256C56.3893 155.117 56.4427 154.968 56.496 154.808L58.304 149.896ZM63.3214 151.112C63.108 151.112 62.9267 151.037 62.7774 150.888C62.6387 150.739 62.5694 150.557 62.5694 150.344C62.5694 150.131 62.6387 149.955 62.7774 149.816C62.9267 149.677 63.108 149.608 63.3214 149.608C63.5454 149.608 63.7267 149.677 63.8654 149.816C64.0147 149.955 64.0894 150.131 64.0894 150.344C64.0894 150.557 64.0147 150.739 63.8654 150.888C63.7267 151.037 63.5454 151.112 63.3214 151.112ZM63.1134 161C62.9 161 62.7934 160.893 62.7934 160.68V153.432C62.7934 153.219 62.9 153.112 63.1134 153.112H63.5294C63.7427 153.112 63.8494 153.219 63.8494 153.432V160.68C63.8494 160.893 63.7427 161 63.5294 161H63.1134ZM69.7196 152.92C70.6476 152.92 71.3463 153.176 71.8156 153.688C72.2956 154.2 72.5356 154.84 72.5356 155.608V160.68C72.5356 160.893 72.429 161 72.2156 161H71.7996C71.5863 161 71.4796 160.893 71.4796 160.68V155.96C71.4796 155.256 71.309 154.723 70.9676 154.36C70.6263 153.997 70.1356 153.816 69.4956 153.816C69.0903 153.816 68.717 153.917 68.3756 154.12C68.0343 154.312 67.7623 154.579 67.5596 154.92C67.357 155.261 67.2556 155.635 67.2556 156.04V160.68C67.2556 160.893 67.149 161 66.9356 161H66.5196C66.3063 161 66.1996 160.893 66.1996 160.68V153.432C66.1996 153.219 66.3063 153.112 66.5196 153.112H66.8716C67.085 153.112 67.1916 153.219 67.1916 153.432V154.2C67.4583 153.773 67.8103 153.453 68.2476 153.24C68.685 153.027 69.1756 152.92 69.7196 152.92Z" fill="#1B1B1F"/>
</g>
<rect x="178.5" y="132.5" width="113" height="47" rx="3.5" fill="white"/>
<rect x="178.5" y="132.5" width="113" height="47" rx="3.5" stroke="#84848F"/>
<g clip-path="url(#clip1_5449_13395)">
<path d="M196.304 149.896C196.368 149.725 196.491 149.64 196.672 149.64H197.92C198.133 149.64 198.24 149.747 198.24 149.96V160.68C198.24 160.893 198.133 161 197.92 161H197.456C197.243 161 197.136 160.893 197.136 160.68V155.368C197.136 154.227 197.147 152.579 197.168 150.424C196.731 151.672 196.133 153.32 195.376 155.368L193.408 160.744C193.344 160.915 193.221 161 193.04 161H192.576C192.395 161 192.272 160.915 192.208 160.744L190.192 155.352C189.765 154.243 189.173 152.6 188.416 150.424C188.437 152.579 188.448 154.232 188.448 155.384V160.68C188.448 160.893 188.341 161 188.128 161H187.696C187.483 161 187.376 160.893 187.376 160.68V149.96C187.376 149.747 187.483 149.64 187.696 149.64H188.928C189.109 149.64 189.232 149.725 189.296 149.896L191.12 154.808C191.963 157.101 192.528 158.717 192.816 159.656C193.083 158.76 193.541 157.421 194.192 155.64C194.235 155.523 194.283 155.395 194.336 155.256C194.389 155.117 194.443 154.968 194.496 154.808L196.304 149.896ZM203.833 152.92C204.804 152.92 205.561 153.155 206.105 153.624C206.649 154.083 206.921 154.691 206.921 155.448V160.68C206.921 160.893 206.815 161 206.601 161H206.281C206.068 161 205.961 160.893 205.961 160.68V159.96C205.695 160.387 205.316 160.707 204.825 160.92C204.345 161.133 203.807 161.24 203.209 161.24C202.377 161.24 201.7 161.064 201.177 160.712C200.655 160.36 200.393 159.816 200.393 159.08C200.393 158.493 200.559 158.024 200.889 157.672C201.22 157.309 201.652 157.037 202.185 156.856C202.719 156.664 203.385 156.493 204.185 156.344L205.913 156.04V155.528C205.913 154.984 205.727 154.563 205.353 154.264C204.98 153.955 204.489 153.8 203.881 153.8C203.423 153.8 203.007 153.885 202.633 154.056C202.26 154.227 201.86 154.52 201.433 154.936C201.359 155.011 201.279 155.048 201.193 155.048C201.119 155.048 201.049 155.016 200.985 154.952L200.777 154.76C200.703 154.685 200.665 154.605 200.665 154.52C200.665 154.424 200.703 154.339 200.777 154.264C201.225 153.795 201.695 153.453 202.185 153.24C202.687 153.027 203.236 152.92 203.833 152.92ZM203.257 160.36C204.025 160.36 204.66 160.157 205.161 159.752C205.663 159.347 205.913 158.829 205.913 158.2V156.856L204.425 157.144C203.732 157.283 203.183 157.416 202.777 157.544C202.372 157.672 202.047 157.859 201.801 158.104C201.556 158.349 201.433 158.669 201.433 159.064C201.433 159.469 201.593 159.789 201.913 160.024C202.244 160.248 202.692 160.36 203.257 160.36ZM215.054 160.616C215.097 160.691 215.118 160.755 215.118 160.808C215.118 160.936 215.033 161 214.862 161H214.382C214.222 161 214.094 160.931 213.998 160.792L211.822 157.592L209.662 160.792C209.566 160.931 209.438 161 209.278 161H208.83C208.745 161 208.675 160.984 208.622 160.952C208.579 160.909 208.558 160.861 208.558 160.808C208.558 160.733 208.579 160.669 208.622 160.616L211.214 156.888L208.83 153.496C208.787 153.443 208.766 153.384 208.766 153.32C208.766 153.181 208.857 153.112 209.038 153.112H209.502C209.662 153.112 209.79 153.181 209.886 153.32L211.838 156.184L213.774 153.32C213.87 153.181 213.998 153.112 214.158 153.112H214.59C214.675 153.112 214.739 153.133 214.782 153.176C214.835 153.208 214.862 153.251 214.862 153.304C214.862 153.379 214.841 153.443 214.798 153.496L212.462 156.84L215.054 160.616Z" fill="#1B1B1F"/>
</g>
<path d="M46.748 110.736C47.3267 110.913 47.784 111.212 48.12 111.632C48.4653 112.052 48.638 112.579 48.638 113.214C48.638 114.063 48.3627 114.74 47.812 115.244C47.2613 115.748 46.524 116 45.6 116H41.484C41.2973 116 41.204 115.907 41.204 115.72V106.34C41.204 106.153 41.2973 106.06 41.484 106.06H45.432C46.2907 106.06 46.9813 106.275 47.504 106.704C48.0267 107.133 48.288 107.754 48.288 108.566C48.288 109.107 48.148 109.565 47.868 109.938C47.5973 110.311 47.224 110.577 46.748 110.736ZM42.198 110.372H45.264C45.908 110.372 46.412 110.218 46.776 109.91C47.14 109.593 47.322 109.149 47.322 108.58C47.322 108.039 47.14 107.623 46.776 107.334C46.4213 107.035 45.9173 106.886 45.264 106.886H42.198V110.372ZM45.334 115.174C46.09 115.174 46.664 114.997 47.056 114.642C47.4573 114.287 47.658 113.807 47.658 113.2C47.658 112.584 47.4527 112.094 47.042 111.73C46.6407 111.366 46.076 111.184 45.348 111.184H42.198V115.174H45.334ZM55.4546 114.362C55.5199 114.297 55.5899 114.264 55.6646 114.264C55.7299 114.264 55.7906 114.292 55.8466 114.348L56.0286 114.516C56.0939 114.581 56.1266 114.651 56.1266 114.726C56.1266 114.782 56.0986 114.847 56.0426 114.922C55.5852 115.379 55.1419 115.706 54.7126 115.902C54.2832 116.089 53.8026 116.182 53.2706 116.182C52.5986 116.182 52.0152 116.033 51.5206 115.734C51.0259 115.435 50.6432 115.02 50.3726 114.488C50.1019 113.947 49.9666 113.321 49.9666 112.612C49.9666 111.893 50.0972 111.259 50.3586 110.708C50.6292 110.148 51.0072 109.714 51.4926 109.406C51.9779 109.089 52.5379 108.93 53.1726 108.93C54.1152 108.93 54.8572 109.224 55.3986 109.812C55.9399 110.4 56.2106 111.193 56.2106 112.192V112.36C56.2012 112.444 56.1686 112.509 56.1126 112.556C56.0659 112.603 56.0006 112.626 55.9166 112.626H50.9046C50.9326 113.41 51.1379 114.073 51.5206 114.614C51.9126 115.146 52.4959 115.412 53.2706 115.412C53.6906 115.412 54.0592 115.337 54.3766 115.188C54.7032 115.029 55.0626 114.754 55.4546 114.362ZM53.1726 109.7C52.5566 109.7 52.0479 109.891 51.6466 110.274C51.2546 110.647 51.0166 111.198 50.9326 111.926H55.2866C55.2679 111.245 55.0719 110.703 54.6986 110.302C54.3252 109.901 53.8166 109.7 53.1726 109.7ZM60.4844 106.662C60.0644 106.662 59.7657 106.774 59.5884 106.998C59.4111 107.213 59.3224 107.577 59.3224 108.09V109.098H60.8624C61.0491 109.098 61.1424 109.191 61.1424 109.378V109.518C61.1424 109.705 61.0491 109.798 60.8624 109.798H59.3224V115.72C59.3224 115.907 59.2291 116 59.0424 116H58.6784C58.4917 116 58.3984 115.907 58.3984 115.72V109.798H57.3624C57.1757 109.798 57.0824 109.705 57.0824 109.518V109.378C57.0824 109.191 57.1757 109.098 57.3624 109.098H58.3984V107.936C58.3984 107.292 58.5664 106.788 58.9024 106.424C59.2477 106.06 59.7377 105.878 60.3724 105.878C60.7271 105.878 61.0911 105.929 61.4644 106.032C61.6417 106.088 61.7071 106.205 61.6604 106.382L61.6044 106.578C61.5577 106.709 61.4644 106.774 61.3244 106.774C61.2964 106.774 61.2357 106.765 61.1424 106.746C60.9371 106.69 60.7177 106.662 60.4844 106.662ZM64.9467 116.182C64.3027 116.182 63.7287 116.028 63.2247 115.72C62.7207 115.412 62.3287 114.987 62.0487 114.446C61.7687 113.895 61.6287 113.265 61.6287 112.556C61.6287 111.847 61.7687 111.221 62.0487 110.68C62.3287 110.129 62.7207 109.7 63.2247 109.392C63.7287 109.084 64.3027 108.93 64.9467 108.93C65.5907 108.93 66.1647 109.084 66.6687 109.392C67.1727 109.7 67.5647 110.129 67.8447 110.68C68.1247 111.221 68.2647 111.847 68.2647 112.556C68.2647 113.265 68.1247 113.895 67.8447 114.446C67.5647 114.987 67.1727 115.412 66.6687 115.72C66.1647 116.028 65.5907 116.182 64.9467 116.182ZM64.9467 115.412C65.6654 115.412 66.2394 115.151 66.6687 114.628C67.098 114.096 67.3127 113.405 67.3127 112.556C67.3127 111.707 67.098 111.021 66.6687 110.498C66.2394 109.966 65.6654 109.7 64.9467 109.7C64.228 109.7 63.654 109.966 63.2247 110.498C62.7954 111.021 62.5807 111.707 62.5807 112.556C62.5807 113.405 62.7954 114.096 63.2247 114.628C63.654 115.151 64.228 115.412 64.9467 115.412ZM72.446 109.042C72.6793 109.042 72.9547 109.079 73.272 109.154C73.44 109.21 73.5053 109.327 73.468 109.504L73.412 109.728C73.3653 109.905 73.2487 109.971 73.062 109.924C72.838 109.868 72.6327 109.84 72.446 109.84C71.97 109.84 71.5733 110.045 71.256 110.456C70.948 110.867 70.794 111.436 70.794 112.164V115.72C70.794 115.907 70.7007 116 70.514 116H70.15C69.9633 116 69.87 115.907 69.87 115.72V109.378C69.87 109.191 69.9633 109.098 70.15 109.098H70.458C70.6447 109.098 70.738 109.191 70.738 109.378V110.148C70.8967 109.803 71.1207 109.532 71.41 109.336C71.7087 109.14 72.054 109.042 72.446 109.042ZM79.3667 114.362C79.432 114.297 79.502 114.264 79.5767 114.264C79.642 114.264 79.7027 114.292 79.7587 114.348L79.9407 114.516C80.006 114.581 80.0387 114.651 80.0387 114.726C80.0387 114.782 80.0107 114.847 79.9547 114.922C79.4974 115.379 79.054 115.706 78.6247 115.902C78.1954 116.089 77.7147 116.182 77.1827 116.182C76.5107 116.182 75.9274 116.033 75.4327 115.734C74.938 115.435 74.5554 115.02 74.2847 114.488C74.014 113.947 73.8787 113.321 73.8787 112.612C73.8787 111.893 74.0094 111.259 74.2707 110.708C74.5414 110.148 74.9194 109.714 75.4047 109.406C75.89 109.089 76.45 108.93 77.0847 108.93C78.0274 108.93 78.7694 109.224 79.3107 109.812C79.852 110.4 80.1227 111.193 80.1227 112.192V112.36C80.1134 112.444 80.0807 112.509 80.0247 112.556C79.978 112.603 79.9127 112.626 79.8287 112.626H74.8167C74.8447 113.41 75.05 114.073 75.4327 114.614C75.8247 115.146 76.408 115.412 77.1827 115.412C77.6027 115.412 77.9714 115.337 78.2887 115.188C78.6154 115.029 78.9747 114.754 79.3667 114.362ZM77.0847 109.7C76.4687 109.7 75.96 109.891 75.5587 110.274C75.1667 110.647 74.9287 111.198 74.8447 111.926H79.1987C79.18 111.245 78.984 110.703 78.6107 110.302C78.2374 109.901 77.7287 109.7 77.0847 109.7ZM87.4408 106.172C87.5434 106.097 87.6601 106.06 87.7908 106.06H88.0148C88.2014 106.06 88.2948 106.153 88.2948 106.34V115.72C88.2948 115.907 88.2014 116 88.0148 116H87.6368C87.4501 116 87.3568 115.907 87.3568 115.72V107.264L85.2428 108.776C85.1774 108.823 85.1168 108.846 85.0608 108.846C84.9768 108.846 84.9068 108.804 84.8508 108.72L84.7108 108.51C84.6734 108.463 84.6548 108.407 84.6548 108.342C84.6548 108.258 84.6968 108.183 84.7808 108.118L87.4408 106.172ZM94.5092 105.85C95.2559 105.85 95.8952 106.018 96.4272 106.354C96.9592 106.681 97.3606 107.129 97.6312 107.698C97.9019 108.267 98.0372 108.907 98.0372 109.616C98.0372 110.363 97.9066 111.058 97.6452 111.702C97.3839 112.346 97.0339 112.943 96.5952 113.494C96.1659 114.045 95.6246 114.633 94.9712 115.258L94.3412 115.86C94.2479 115.953 94.1359 116 94.0052 116H93.4452C93.2866 116 93.2072 115.949 93.2072 115.846C93.2072 115.79 93.2446 115.725 93.3192 115.65L94.2012 114.838C95.6199 113.541 96.5252 112.369 96.9172 111.324C96.6466 111.697 96.2919 111.996 95.8532 112.22C95.4146 112.435 94.9152 112.542 94.3552 112.542C93.6739 112.542 93.0812 112.393 92.5772 112.094C92.0732 111.786 91.6859 111.38 91.4152 110.876C91.1539 110.363 91.0232 109.807 91.0232 109.21C91.0232 108.613 91.1632 108.057 91.4432 107.544C91.7232 107.031 92.1246 106.62 92.6472 106.312C93.1792 106.004 93.7999 105.85 94.5092 105.85ZM94.4252 111.73C94.9572 111.73 95.4192 111.618 95.8112 111.394C96.2126 111.17 96.5159 110.867 96.7212 110.484C96.9359 110.101 97.0432 109.672 97.0432 109.196C97.0432 108.72 96.9406 108.291 96.7352 107.908C96.5299 107.516 96.2359 107.213 95.8532 106.998C95.4706 106.774 95.0226 106.662 94.5092 106.662C93.7346 106.662 93.1186 106.9 92.6612 107.376C92.2132 107.852 91.9892 108.459 91.9892 109.196C91.9892 109.933 92.2039 110.54 92.6332 111.016C93.0626 111.492 93.6599 111.73 94.4252 111.73ZM103.198 109.588C103.842 109.588 104.407 109.723 104.892 109.994C105.387 110.255 105.769 110.629 106.04 111.114C106.311 111.599 106.446 112.159 106.446 112.794C106.446 113.363 106.311 113.909 106.04 114.432C105.769 114.955 105.377 115.379 104.864 115.706C104.351 116.033 103.749 116.196 103.058 116.196C102.386 116.196 101.803 116.112 101.308 115.944C100.823 115.776 100.272 115.487 99.6561 115.076C99.5627 115.02 99.5161 114.945 99.5161 114.852C99.5161 114.787 99.5347 114.731 99.5721 114.684L99.7541 114.432C99.8101 114.348 99.8754 114.306 99.9501 114.306C100.006 114.306 100.071 114.329 100.146 114.376C100.715 114.759 101.201 115.025 101.602 115.174C102.013 115.323 102.465 115.398 102.96 115.398C103.483 115.398 103.935 115.281 104.318 115.048C104.701 114.805 104.99 114.488 105.186 114.096C105.391 113.695 105.494 113.261 105.494 112.794C105.494 112.047 105.284 111.464 104.864 111.044C104.453 110.624 103.861 110.414 103.086 110.414C102.255 110.414 101.56 110.666 101 111.17C100.897 111.263 100.776 111.301 100.636 111.282L100.328 111.24C100.244 111.231 100.179 111.198 100.132 111.142C100.085 111.086 100.067 111.016 100.076 110.932L100.454 106.326C100.463 106.242 100.491 106.177 100.538 106.13C100.594 106.083 100.664 106.06 100.748 106.06H105.732C105.919 106.06 106.012 106.153 106.012 106.34V106.592C106.012 106.779 105.919 106.872 105.732 106.872H101.28L100.986 110.316C101.247 110.101 101.565 109.929 101.938 109.798C102.321 109.658 102.741 109.588 103.198 109.588ZM111.425 116.21C110.771 116.21 110.197 116.051 109.703 115.734C109.217 115.417 108.83 114.973 108.541 114.404C108.083 113.499 107.855 112.374 107.855 111.03C107.855 109.677 108.083 108.547 108.541 107.642C108.83 107.073 109.217 106.634 109.703 106.326C110.197 106.009 110.771 105.85 111.425 105.85C112.078 105.85 112.647 106.009 113.133 106.326C113.627 106.634 114.019 107.073 114.309 107.642C114.766 108.547 114.995 109.677 114.995 111.03C114.995 112.374 114.766 113.499 114.309 114.404C114.019 114.973 113.627 115.417 113.133 115.734C112.647 116.051 112.078 116.21 111.425 116.21ZM111.425 115.398C112.339 115.398 113.025 114.922 113.483 113.97C113.847 113.195 114.029 112.215 114.029 111.03C114.029 109.826 113.847 108.841 113.483 108.076C113.035 107.133 112.349 106.662 111.425 106.662C110.501 106.662 109.815 107.133 109.367 108.076C109.003 108.841 108.821 109.826 108.821 111.03C108.821 112.225 109.003 113.205 109.367 113.97C109.824 114.922 110.51 115.398 111.425 115.398Z" fill="#5C5C66"/>
<path d="M266.956 115.188C267.143 115.188 267.236 115.281 267.236 115.468V115.72C267.236 115.907 267.143 116 266.956 116H260.74C260.553 116 260.46 115.907 260.46 115.72V115.664C260.46 114.983 260.577 114.409 260.81 113.942C261.053 113.466 261.365 113.065 261.748 112.738C262.14 112.411 262.677 112.038 263.358 111.618C263.423 111.571 263.666 111.427 264.086 111.184C264.581 110.904 264.968 110.661 265.248 110.456C265.528 110.251 265.761 109.999 265.948 109.7C266.135 109.392 266.228 109.033 266.228 108.622C266.228 107.997 266.018 107.516 265.598 107.18C265.178 106.844 264.669 106.676 264.072 106.676C263.493 106.676 263.013 106.797 262.63 107.04C262.247 107.283 261.804 107.703 261.3 108.3C261.235 108.384 261.155 108.426 261.062 108.426C261.015 108.426 260.959 108.403 260.894 108.356L260.656 108.174C260.572 108.099 260.53 108.025 260.53 107.95C260.53 107.903 260.553 107.847 260.6 107.782C261.095 107.157 261.608 106.681 262.14 106.354C262.681 106.027 263.316 105.864 264.044 105.864C264.651 105.864 265.192 105.981 265.668 106.214C266.144 106.438 266.513 106.76 266.774 107.18C267.045 107.591 267.18 108.057 267.18 108.58C267.18 109.131 267.063 109.607 266.83 110.008C266.606 110.4 266.321 110.727 265.976 110.988C265.631 111.24 265.164 111.539 264.576 111.884L263.876 112.304C263.288 112.668 262.84 112.967 262.532 113.2C262.224 113.424 261.967 113.699 261.762 114.026C261.557 114.343 261.435 114.731 261.398 115.188H266.956ZM272.138 116.21C271.484 116.21 270.91 116.051 270.416 115.734C269.93 115.417 269.543 114.973 269.254 114.404C268.796 113.499 268.568 112.374 268.568 111.03C268.568 109.677 268.796 108.547 269.254 107.642C269.543 107.073 269.93 106.634 270.416 106.326C270.91 106.009 271.484 105.85 272.138 105.85C272.791 105.85 273.36 106.009 273.846 106.326C274.34 106.634 274.732 107.073 275.022 107.642C275.479 108.547 275.708 109.677 275.708 111.03C275.708 112.374 275.479 113.499 275.022 114.404C274.732 114.973 274.34 115.417 273.846 115.734C273.36 116.051 272.791 116.21 272.138 116.21ZM272.138 115.398C273.052 115.398 273.738 114.922 274.196 113.97C274.56 113.195 274.742 112.215 274.742 111.03C274.742 109.826 274.56 108.841 274.196 108.076C273.748 107.133 273.062 106.662 272.138 106.662C271.214 106.662 270.528 107.133 270.08 108.076C269.716 108.841 269.534 109.826 269.534 111.03C269.534 112.225 269.716 113.205 270.08 113.97C270.537 114.922 271.223 115.398 272.138 115.398ZM283.485 115.188C283.672 115.188 283.765 115.281 283.765 115.468V115.72C283.765 115.907 283.672 116 283.485 116H277.269C277.083 116 276.989 115.907 276.989 115.72V115.664C276.989 114.983 277.106 114.409 277.339 113.942C277.582 113.466 277.895 113.065 278.277 112.738C278.669 112.411 279.206 112.038 279.887 111.618C279.953 111.571 280.195 111.427 280.615 111.184C281.11 110.904 281.497 110.661 281.777 110.456C282.057 110.251 282.291 109.999 282.477 109.7C282.664 109.392 282.757 109.033 282.757 108.622C282.757 107.997 282.547 107.516 282.127 107.18C281.707 106.844 281.199 106.676 280.601 106.676C280.023 106.676 279.542 106.797 279.159 107.04C278.777 107.283 278.333 107.703 277.829 108.3C277.764 108.384 277.685 108.426 277.591 108.426C277.545 108.426 277.489 108.403 277.423 108.356L277.185 108.174C277.101 108.099 277.059 108.025 277.059 107.95C277.059 107.903 277.083 107.847 277.129 107.782C277.624 107.157 278.137 106.681 278.669 106.354C279.211 106.027 279.845 105.864 280.573 105.864C281.18 105.864 281.721 105.981 282.197 106.214C282.673 106.438 283.042 106.76 283.303 107.18C283.574 107.591 283.709 108.057 283.709 108.58C283.709 109.131 283.593 109.607 283.359 110.008C283.135 110.4 282.851 110.727 282.505 110.988C282.16 111.24 281.693 111.539 281.105 111.884L280.405 112.304C279.817 112.668 279.369 112.967 279.061 113.2C278.753 113.424 278.497 113.699 278.291 114.026C278.086 114.343 277.965 114.731 277.927 115.188H283.485ZM284.747 106.34C284.747 106.153 284.84 106.06 285.027 106.06H291.383C291.57 106.06 291.663 106.153 291.663 106.34V106.536C291.663 106.676 291.621 106.793 291.537 106.886C290.604 108.062 289.768 109.443 289.031 111.03C288.303 112.607 287.818 114.18 287.575 115.748C287.547 115.916 287.444 116 287.267 116H286.833C286.74 116 286.67 115.977 286.623 115.93C286.576 115.874 286.558 115.799 286.567 115.706C286.828 114.185 287.337 112.621 288.093 111.016C288.849 109.411 289.684 108.025 290.599 106.858H285.027C284.84 106.858 284.747 106.765 284.747 106.578V106.34Z" fill="#5C5C66"/>
<path d="M48.694 44.466C48.778 44.1953 48.9647 44.06 49.254 44.06H50.85C51.0087 44.06 51.13 44.102 51.214 44.186C51.298 44.27 51.34 44.3913 51.34 44.55V53.51C51.34 53.6593 51.298 53.7807 51.214 53.874C51.13 53.958 51.0087 54 50.85 54H50.276C50.1267 54 50.0053 53.958 49.912 53.874C49.828 53.7807 49.786 53.6593 49.786 53.51V49.002C49.786 48.442 49.7953 47.602 49.814 46.482L49.828 45.264C49.716 45.6187 49.45 46.426 49.03 47.686L48.596 49.002L47.056 53.594C46.972 53.8647 46.7853 54 46.496 54H45.95C45.6607 54 45.474 53.8693 45.39 53.608L43.822 49.002C43.2713 47.4153 42.856 46.1693 42.576 45.264C42.5947 46.9067 42.604 48.1527 42.604 49.002V53.51C42.604 53.6593 42.562 53.7807 42.478 53.874C42.394 53.958 42.2727 54 42.114 54H41.568C41.4187 54 41.2973 53.958 41.204 53.874C41.12 53.7807 41.078 53.6593 41.078 53.51V44.55C41.078 44.3913 41.12 44.27 41.204 44.186C41.2973 44.102 41.4187 44.06 41.568 44.06H43.192C43.4813 44.06 43.668 44.1907 43.752 44.452L45.054 48.288C45.6047 49.9307 45.9967 51.1767 46.23 52.026C46.5287 50.9807 46.9207 49.7347 47.406 48.288L48.694 44.466ZM56.3761 54.21C55.6947 54.21 55.0881 54.056 54.5561 53.748C54.0334 53.44 53.6227 53.0107 53.3241 52.46C53.0254 51.9 52.8761 51.2607 52.8761 50.542C52.8761 49.8233 53.0254 49.1887 53.3241 48.638C53.6227 48.0873 54.0334 47.658 54.5561 47.35C55.0881 47.042 55.6947 46.888 56.3761 46.888C57.0481 46.888 57.6501 47.042 58.1821 47.35C58.7141 47.658 59.1294 48.092 59.4281 48.652C59.7267 49.2027 59.8761 49.8327 59.8761 50.542C59.8761 51.2607 59.7267 51.9 59.4281 52.46C59.1294 53.0107 58.7141 53.44 58.1821 53.748C57.6501 54.056 57.0481 54.21 56.3761 54.21ZM56.3761 52.964C56.9734 52.964 57.4541 52.7447 57.8181 52.306C58.1821 51.858 58.3641 51.27 58.3641 50.542C58.3641 49.8233 58.1821 49.2447 57.8181 48.806C57.4541 48.3673 56.9734 48.148 56.3761 48.148C55.7787 48.148 55.2981 48.3673 54.9341 48.806C54.5701 49.2447 54.3881 49.8233 54.3881 50.542C54.3881 51.27 54.5701 51.858 54.9341 52.306C55.2981 52.7447 55.7787 52.964 56.3761 52.964ZM66.1241 44.536C66.1241 44.3773 66.1661 44.256 66.2501 44.172C66.3434 44.088 66.4648 44.046 66.6141 44.046H67.1181C67.2768 44.046 67.3981 44.088 67.4821 44.172C67.5661 44.256 67.6081 44.3773 67.6081 44.536V53.51C67.6081 53.6593 67.5661 53.7807 67.4821 53.874C67.3981 53.958 67.2768 54 67.1181 54H66.7121C66.5628 54 66.4414 53.958 66.3481 53.874C66.2641 53.7807 66.2221 53.6593 66.2221 53.51V53.02C65.7368 53.804 64.9761 54.196 63.9401 54.196C63.3614 54.196 62.8388 54.0467 62.3721 53.748C61.9148 53.4493 61.5554 53.0247 61.2941 52.474C61.0328 51.9233 60.9021 51.284 60.9021 50.556C60.9021 49.8373 61.0328 49.2027 61.2941 48.652C61.5648 48.1013 61.9334 47.6767 62.4001 47.378C62.8668 47.0793 63.3894 46.93 63.9681 46.93C64.9201 46.93 65.6388 47.2613 66.1241 47.924V44.536ZM64.2481 52.922C64.8174 52.922 65.2841 52.712 65.6481 52.292C66.0121 51.8627 66.1941 51.284 66.1941 50.556C66.1941 49.828 66.0121 49.254 65.6481 48.834C65.2841 48.414 64.8174 48.204 64.2481 48.204C63.6974 48.204 63.2541 48.4187 62.9181 48.848C62.5821 49.2773 62.4141 49.8467 62.4141 50.556C62.4141 51.2747 62.5774 51.8487 62.9041 52.278C63.2401 52.7073 63.6881 52.922 64.2481 52.922ZM74.2745 52.236C74.3958 52.1333 74.5125 52.082 74.6245 52.082C74.7365 52.082 74.8532 52.1427 74.9745 52.264L75.1705 52.474C75.2732 52.5953 75.3245 52.712 75.3245 52.824C75.3245 52.9453 75.2638 53.062 75.1425 53.174C74.7132 53.5473 74.2838 53.8133 73.8545 53.972C73.4345 54.1307 72.9678 54.21 72.4545 54.21C71.7358 54.21 71.1105 54.0607 70.5785 53.762C70.0558 53.4633 69.6498 53.0433 69.3605 52.502C69.0805 51.9513 68.9405 51.3167 68.9405 50.598C68.9405 49.8887 69.0758 49.254 69.3465 48.694C69.6265 48.1247 70.0185 47.6813 70.5225 47.364C71.0358 47.0467 71.6332 46.888 72.3145 46.888C73.3318 46.888 74.1158 47.1913 74.6665 47.798C75.2172 48.3953 75.4925 49.2213 75.4925 50.276V50.402C75.4832 50.5513 75.4365 50.668 75.3525 50.752C75.2685 50.836 75.1472 50.878 74.9885 50.878H70.3965C70.4525 51.494 70.6532 51.998 70.9985 52.39C71.3532 52.7727 71.8478 52.964 72.4825 52.964C72.8278 52.964 73.1312 52.9127 73.3925 52.81C73.6538 52.698 73.9478 52.5067 74.2745 52.236ZM72.2865 48.064C71.7732 48.064 71.3578 48.218 71.0405 48.526C70.7325 48.8247 70.5318 49.2493 70.4385 49.8H74.0365C73.9992 49.2587 73.8312 48.834 73.5325 48.526C73.2338 48.218 72.8185 48.064 72.2865 48.064ZM77.398 54C77.2487 54 77.1274 53.958 77.034 53.874C76.95 53.7807 76.908 53.6593 76.908 53.51V44.55C76.908 44.3913 76.95 44.27 77.034 44.186C77.1274 44.102 77.2487 44.06 77.398 44.06H77.902C78.0607 44.06 78.182 44.102 78.266 44.186C78.35 44.27 78.392 44.3913 78.392 44.55V53.51C78.392 53.6593 78.35 53.7807 78.266 53.874C78.182 53.958 78.0607 54 77.902 54H77.398ZM87.3828 47.504C87.4668 47.2333 87.6488 47.098 87.9288 47.098H88.4328C88.5728 47.098 88.6801 47.1307 88.7548 47.196C88.8294 47.2613 88.8668 47.35 88.8668 47.462C88.8668 47.518 88.8528 47.5833 88.8248 47.658L86.3188 54.854C86.0948 55.5073 85.8148 55.9693 85.4788 56.24C85.1521 56.52 84.6854 56.66 84.0788 56.66C83.7988 56.66 83.5608 56.6413 83.3648 56.604C83.2341 56.5947 83.1361 56.548 83.0708 56.464C83.0054 56.3893 82.9728 56.296 82.9728 56.184C82.9728 56.1187 82.9774 56.0673 82.9868 56.03L83.0288 55.848C83.0941 55.5867 83.2341 55.456 83.4488 55.456C83.5328 55.456 83.6121 55.4607 83.6868 55.47C83.7614 55.4793 83.8361 55.484 83.9108 55.484C84.1814 55.484 84.4054 55.414 84.5828 55.274C84.7694 55.134 84.9234 54.8773 85.0448 54.504L85.0868 54.392L82.6928 47.658C82.6648 47.5833 82.6508 47.5133 82.6508 47.448C82.6508 47.336 82.6881 47.252 82.7628 47.196C82.8468 47.1307 82.9588 47.098 83.0988 47.098H83.6308C83.9201 47.098 84.1068 47.2333 84.1908 47.504L84.7368 49.142C85.1474 50.318 85.4974 51.396 85.7868 52.376L86.1928 51.13C86.2581 50.934 86.3561 50.626 86.4868 50.206C86.6174 49.786 86.7341 49.4267 86.8368 49.128L87.3828 47.504ZM94.919 52.236C95.0404 52.1333 95.157 52.082 95.269 52.082C95.381 52.082 95.4977 52.1427 95.619 52.264L95.815 52.474C95.9177 52.5953 95.969 52.712 95.969 52.824C95.969 52.9453 95.9084 53.062 95.787 53.174C95.3577 53.5473 94.9284 53.8133 94.499 53.972C94.079 54.1307 93.6124 54.21 93.099 54.21C92.3804 54.21 91.755 54.0607 91.223 53.762C90.7004 53.4633 90.2944 53.0433 90.005 52.502C89.725 51.9513 89.585 51.3167 89.585 50.598C89.585 49.8887 89.7204 49.254 89.991 48.694C90.271 48.1247 90.663 47.6813 91.167 47.364C91.6804 47.0467 92.2777 46.888 92.959 46.888C93.9764 46.888 94.7604 47.1913 95.311 47.798C95.8617 48.3953 96.137 49.2213 96.137 50.276V50.402C96.1277 50.5513 96.081 50.668 95.997 50.752C95.913 50.836 95.7917 50.878 95.633 50.878H91.041C91.097 51.494 91.2977 51.998 91.643 52.39C91.9977 52.7727 92.4924 52.964 93.127 52.964C93.4724 52.964 93.7757 52.9127 94.037 52.81C94.2984 52.698 94.5924 52.5067 94.919 52.236ZM92.931 48.064C92.4177 48.064 92.0024 48.218 91.685 48.526C91.377 48.8247 91.1764 49.2493 91.083 49.8H94.681C94.6437 49.2587 94.4757 48.834 94.177 48.526C93.8784 48.218 93.463 48.064 92.931 48.064ZM100.313 46.888C101.246 46.888 101.965 47.1073 102.469 47.546C102.973 47.9753 103.225 48.5493 103.225 49.268V53.51C103.225 53.6593 103.183 53.7807 103.099 53.874C103.015 53.958 102.894 54 102.735 54H102.371C102.222 54 102.1 53.958 102.007 53.874C101.923 53.7807 101.881 53.6593 101.881 53.51V53.202C101.657 53.5287 101.349 53.7807 100.957 53.958C100.565 54.1353 100.108 54.224 99.5849 54.224C98.8662 54.224 98.2735 54.0653 97.8069 53.748C97.3495 53.4213 97.1209 52.9313 97.1209 52.278C97.1209 51.55 97.3915 51.0133 97.9329 50.668C98.4835 50.3133 99.2442 50.0473 100.215 49.87L101.797 49.576V49.324C101.797 48.9413 101.662 48.6473 101.391 48.442C101.13 48.2273 100.78 48.12 100.341 48.12C99.9675 48.12 99.6409 48.1853 99.3609 48.316C99.0902 48.4373 98.7962 48.6427 98.4789 48.932C98.3575 49.0347 98.2409 49.086 98.1289 49.086C98.0169 49.086 97.9002 49.0347 97.7789 48.932L97.5549 48.736C97.4335 48.624 97.3729 48.5027 97.3729 48.372C97.3729 48.2507 97.4289 48.134 97.5409 48.022C97.9422 47.6393 98.3669 47.3547 98.8149 47.168C99.2629 46.9813 99.7622 46.888 100.313 46.888ZM99.7949 53.034C100.355 53.034 100.826 52.8847 101.209 52.586C101.601 52.2873 101.797 51.858 101.797 51.298V50.654L100.579 50.906C99.8975 51.046 99.3935 51.2047 99.0669 51.382C98.7402 51.5593 98.5769 51.83 98.5769 52.194C98.5769 52.4553 98.6842 52.6607 98.8989 52.81C99.1135 52.9593 99.4122 53.034 99.7949 53.034ZM108.028 47.028C108.234 47.028 108.444 47.0513 108.658 47.098C108.91 47.154 109.036 47.3033 109.036 47.546C109.036 47.6113 109.032 47.658 109.022 47.686L108.952 48.022C108.896 48.2833 108.756 48.414 108.532 48.414L108.406 48.4C108.238 48.372 108.089 48.358 107.958 48.358C107.492 48.358 107.114 48.5447 106.824 48.918C106.544 49.282 106.404 49.7907 106.404 50.444V53.51C106.404 53.6593 106.362 53.7807 106.278 53.874C106.194 53.958 106.073 54 105.914 54H105.41C105.261 54 105.14 53.958 105.046 53.874C104.962 53.7807 104.92 53.6593 104.92 53.51V47.588C104.92 47.4293 104.962 47.308 105.046 47.224C105.14 47.14 105.261 47.098 105.41 47.098H105.816C105.975 47.098 106.096 47.14 106.18 47.224C106.264 47.308 106.306 47.4293 106.306 47.588V48.134C106.474 47.7887 106.703 47.518 106.992 47.322C107.282 47.126 107.627 47.028 108.028 47.028Z" fill="#1B1B1F"/>
<rect x="40" y="78" width="252" height="4" rx="2" fill="#DEDEE3"/>
<rect x="54" y="77" width="224" height="6" rx="3" fill="#0063FB"/>
<g filter="url(#filter0_dd_5449_13395)">
<rect x="253.5" y="19" width="49" height="32" rx="4" fill="#1B1B1F"/>
<path d="M268.626 39.188C268.813 39.188 268.906 39.2813 268.906 39.468V39.72C268.906 39.9067 268.813 40 268.626 40H262.41C262.223 40 262.13 39.9067 262.13 39.72V39.664C262.13 38.9827 262.247 38.4087 262.48 37.942C262.723 37.466 263.035 37.0647 263.418 36.738C263.81 36.4113 264.347 36.038 265.028 35.618C265.093 35.5713 265.336 35.4267 265.756 35.184C266.251 34.904 266.638 34.6613 266.918 34.456C267.198 34.2507 267.431 33.9987 267.618 33.7C267.805 33.392 267.898 33.0327 267.898 32.622C267.898 31.9967 267.688 31.516 267.268 31.18C266.848 30.844 266.339 30.676 265.742 30.676C265.163 30.676 264.683 30.7973 264.3 31.04C263.917 31.2827 263.474 31.7027 262.97 32.3C262.905 32.384 262.825 32.426 262.732 32.426C262.685 32.426 262.629 32.4027 262.564 32.356L262.326 32.174C262.242 32.0993 262.2 32.0247 262.2 31.95C262.2 31.9033 262.223 31.8473 262.27 31.782C262.765 31.1567 263.278 30.6807 263.81 30.354C264.351 30.0273 264.986 29.864 265.714 29.864C266.321 29.864 266.862 29.9807 267.338 30.214C267.814 30.438 268.183 30.76 268.444 31.18C268.715 31.5907 268.85 32.0573 268.85 32.58C268.85 33.1307 268.733 33.6067 268.5 34.008C268.276 34.4 267.991 34.7267 267.646 34.988C267.301 35.24 266.834 35.5387 266.246 35.884L265.546 36.304C264.958 36.668 264.51 36.9667 264.202 37.2C263.894 37.424 263.637 37.6993 263.432 38.026C263.227 38.3433 263.105 38.7307 263.068 39.188H268.626ZM273.807 40.21C273.154 40.21 272.58 40.0513 272.085 39.734C271.6 39.4167 271.213 38.9733 270.923 38.404C270.466 37.4987 270.237 36.374 270.237 35.03C270.237 33.6767 270.466 32.5473 270.923 31.642C271.213 31.0727 271.6 30.634 272.085 30.326C272.58 30.0087 273.154 29.85 273.807 29.85C274.461 29.85 275.03 30.0087 275.515 30.326C276.01 30.634 276.402 31.0727 276.691 31.642C277.149 32.5473 277.377 33.6767 277.377 35.03C277.377 36.374 277.149 37.4987 276.691 38.404C276.402 38.9733 276.01 39.4167 275.515 39.734C275.03 40.0513 274.461 40.21 273.807 40.21ZM273.807 39.398C274.722 39.398 275.408 38.922 275.865 37.97C276.229 37.1953 276.411 36.2153 276.411 35.03C276.411 33.826 276.229 32.8413 275.865 32.076C275.417 31.1333 274.731 30.662 273.807 30.662C272.883 30.662 272.197 31.1333 271.749 32.076C271.385 32.8413 271.203 33.826 271.203 35.03C271.203 36.2247 271.385 37.2047 271.749 37.97C272.207 38.922 272.893 39.398 273.807 39.398ZM285.155 39.188C285.342 39.188 285.435 39.2813 285.435 39.468V39.72C285.435 39.9067 285.342 40 285.155 40H278.939C278.753 40 278.659 39.9067 278.659 39.72V39.664C278.659 38.9827 278.776 38.4087 279.009 37.942C279.252 37.466 279.565 37.0647 279.947 36.738C280.339 36.4113 280.876 36.038 281.557 35.618C281.623 35.5713 281.865 35.4267 282.285 35.184C282.78 34.904 283.167 34.6613 283.447 34.456C283.727 34.2507 283.961 33.9987 284.147 33.7C284.334 33.392 284.427 33.0327 284.427 32.622C284.427 31.9967 284.217 31.516 283.797 31.18C283.377 30.844 282.869 30.676 282.271 30.676C281.693 30.676 281.212 30.7973 280.829 31.04C280.447 31.2827 280.003 31.7027 279.499 32.3C279.434 32.384 279.355 32.426 279.261 32.426C279.215 32.426 279.159 32.4027 279.093 32.356L278.855 32.174C278.771 32.0993 278.729 32.0247 278.729 31.95C278.729 31.9033 278.753 31.8473 278.799 31.782C279.294 31.1567 279.807 30.6807 280.339 30.354C280.881 30.0273 281.515 29.864 282.243 29.864C282.85 29.864 283.391 29.9807 283.867 30.214C284.343 30.438 284.712 30.76 284.973 31.18C285.244 31.5907 285.379 32.0573 285.379 32.58C285.379 33.1307 285.263 33.6067 285.029 34.008C284.805 34.4 284.521 34.7267 284.175 34.988C283.83 35.24 283.363 35.5387 282.775 35.884L282.075 36.304C281.487 36.668 281.039 36.9667 280.731 37.2C280.423 37.424 280.167 37.6993 279.961 38.026C279.756 38.3433 279.635 38.7307 279.597 39.188H285.155ZM286.417 30.34C286.417 30.1533 286.51 30.06 286.697 30.06H293.053C293.24 30.06 293.333 30.1533 293.333 30.34V30.536C293.333 30.676 293.291 30.7927 293.207 30.886C292.274 32.062 291.438 33.4433 290.701 35.03C289.973 36.6073 289.488 38.18 289.245 39.748C289.217 39.916 289.114 40 288.937 40H288.503C288.41 40 288.34 39.9767 288.293 39.93C288.246 39.874 288.228 39.7993 288.237 39.706C288.498 38.1847 289.007 36.6213 289.763 35.016C290.519 33.4107 291.354 32.0247 292.269 30.858H286.697C286.51 30.858 286.417 30.7647 286.417 30.578V30.34Z" fill="white"/>
<path d="M276.586 57.5858L272.343 53.3431C270.843 51.8429 268.808 51 266.686 51H289.314C287.192 51 285.157 51.8429 283.657 53.3431L279.414 57.5858C278.633 58.3668 277.367 58.3668 276.586 57.5858Z" fill="#1B1B1F"/>
</g>
<path d="M264 80C264 72.268 270.268 66 278 66C285.732 66 292 72.268 292 80C292 87.732 285.732 94 278 94C270.268 94 264 87.732 264 80Z" fill="#0063FB"/>
<rect x="40" y="66" width="28" height="28" rx="14" fill="#0063FB"/>
<defs>
<filter id="filter0_dd_5449_13395" x="245.5" y="14" width="65" height="55.1719" filterUnits="userSpaceOnUse" color-interpolation-filters="sRGB">
<feFlood flood-opacity="0" result="BackgroundImageFix"/>
<feColorMatrix in="SourceAlpha" type="matrix" values="0 0 0 0 0 0 0 0 0 0 0 0 0 0 0 0 0 0 127 0" result="hardAlpha"/>
<feOffset dy="3"/>
<feGaussianBlur stdDeviation="4"/>
<feComposite in2="hardAlpha" operator="out"/>
<feColorMatrix type="matrix" values="0 0 0 0 0 0 0 0 0 0 0 0 0 0 0 0 0 0 0.16 0"/>
<feBlend mode="normal" in2="BackgroundImageFix" result="effect1_dropShadow_5449_13395"/>
<feColorMatrix in="SourceAlpha" type="matrix" values="0 0 0 0 0 0 0 0 0 0 0 0 0 0 0 0 0 0 127 0" result="hardAlpha"/>
<feOffset dy="3"/>
<feGaussianBlur stdDeviation="3"/>
<feComposite in2="hardAlpha" operator="out"/>
<feColorMatrix type="matrix" values="0 0 0 0 0 0 0 0 0 0 0 0 0 0 0 0 0 0 0.1 0"/>
<feBlend mode="normal" in2="effect1_dropShadow_5449_13395" result="effect2_dropShadow_5449_13395"/>
<feBlend mode="normal" in="SourceGraphic" in2="effect2_dropShadow_5449_13395" result="shape"/>
</filter>
<clipPath id="clip0_5449_13395">
<rect width="98" height="22" fill="white" transform="translate(48 145)"/>
</clipPath>
<clipPath id="clip1_5449_13395">
<rect width="98" height="22" fill="white" transform="translate(186 145)"/>
</clipPath>
</defs>
</svg>
