<svg width="332" height="220" viewBox="0 0 332 220" fill="none" xmlns="http://www.w3.org/2000/svg">
<rect x="40.5" y="132.5" width="113" height="47" rx="3.5" fill="white"/>
<rect x="40.5" y="132.5" width="113" height="47" rx="3.5" stroke="#84848F"/>
<g clip-path="url(#clip0_5488_18478)">
<path d="M52.8 161.24C52.0533 161.24 51.3973 161.059 50.832 160.696C50.2773 160.333 49.8347 159.827 49.504 159.176C48.9813 158.141 48.72 156.856 48.72 155.32C48.72 153.773 48.9813 152.483 49.504 151.448C49.8347 150.797 50.2773 150.296 50.832 149.944C51.3973 149.581 52.0533 149.4 52.8 149.4C53.5467 149.4 54.1973 149.581 54.752 149.944C55.3173 150.296 55.7653 150.797 56.096 151.448C56.6187 152.483 56.88 153.773 56.88 155.32C56.88 156.856 56.6187 158.141 56.096 159.176C55.7653 159.827 55.3173 160.333 54.752 160.696C54.1973 161.059 53.5467 161.24 52.8 161.24ZM52.8 160.312C53.8453 160.312 54.6293 159.768 55.152 158.68C55.568 157.795 55.776 156.675 55.776 155.32C55.776 153.944 55.568 152.819 55.152 151.944C54.64 150.867 53.856 150.328 52.8 150.328C51.744 150.328 50.96 150.867 50.448 151.944C50.032 152.819 49.824 153.944 49.824 155.32C49.824 156.685 50.032 157.805 50.448 158.68C50.9707 159.768 51.7547 160.312 52.8 160.312Z" fill="#1B1B1F"/>
<path d="M138.9 153.94C139.54 153.94 140.028 154.124 140.364 154.492C140.708 154.852 140.88 155.316 140.88 155.884V159.76C140.88 159.92 140.8 160 140.64 160H140.328C140.168 160 140.088 159.92 140.088 159.76V156.1C140.088 155.62 139.976 155.252 139.752 154.996C139.536 154.74 139.212 154.612 138.78 154.612C138.324 154.612 137.96 154.764 137.688 155.068C137.416 155.372 137.28 155.764 137.28 156.244V159.76C137.28 159.92 137.2 160 137.04 160H136.728C136.568 160 136.488 159.92 136.488 159.76V156.1C136.488 155.62 136.376 155.252 136.152 154.996C135.936 154.74 135.608 154.612 135.168 154.612C134.76 154.612 134.42 154.74 134.148 154.996C133.884 155.252 133.728 155.588 133.68 156.004V159.76C133.68 159.92 133.6 160 133.44 160H133.128C132.968 160 132.888 159.92 132.888 159.76V154.324C132.888 154.164 132.968 154.084 133.128 154.084H133.392C133.552 154.084 133.632 154.164 133.632 154.324V154.816C133.992 154.232 134.564 153.94 135.348 153.94C135.756 153.94 136.104 154.032 136.392 154.216C136.688 154.392 136.908 154.632 137.052 154.936C137.476 154.272 138.092 153.94 138.9 153.94ZM145.422 155.008H142.05V154.564L143.478 153.136C143.782 152.832 144.026 152.572 144.21 152.356C144.402 152.14 144.542 151.94 144.63 151.756C144.718 151.572 144.762 151.376 144.762 151.168C144.762 150.88 144.674 150.656 144.498 150.496C144.33 150.328 144.086 150.244 143.766 150.244C143.518 150.244 143.29 150.288 143.082 150.376C142.882 150.464 142.674 150.588 142.458 150.748L142.17 150.352C142.394 150.16 142.638 150.012 142.902 149.908C143.174 149.804 143.462 149.752 143.766 149.752C144.262 149.752 144.65 149.88 144.93 150.136C145.21 150.384 145.35 150.72 145.35 151.144C145.35 151.416 145.29 151.664 145.17 151.888C145.058 152.112 144.894 152.344 144.678 152.584C144.462 152.824 144.198 153.096 143.886 153.4L142.782 154.492H145.422V155.008Z" fill="#5C5C66"/>
</g>
<rect x="178.5" y="132.5" width="113" height="47" rx="3.5" fill="white"/>
<rect x="178.5" y="132.5" width="113" height="47" rx="3.5" stroke="#84848F"/>
<g clip-path="url(#clip1_5488_18478)">
<path d="M194.144 160.072C194.357 160.072 194.464 160.179 194.464 160.392V160.68C194.464 160.893 194.357 161 194.144 161H187.04C186.827 161 186.72 160.893 186.72 160.68V160.616C186.72 159.837 186.853 159.181 187.12 158.648C187.397 158.104 187.755 157.645 188.192 157.272C188.64 156.899 189.253 156.472 190.032 155.992C190.107 155.939 190.384 155.773 190.864 155.496C191.429 155.176 191.872 154.899 192.192 154.664C192.512 154.429 192.779 154.141 192.992 153.8C193.205 153.448 193.312 153.037 193.312 152.568C193.312 151.853 193.072 151.304 192.592 150.92C192.112 150.536 191.531 150.344 190.848 150.344C190.187 150.344 189.637 150.483 189.2 150.76C188.763 151.037 188.256 151.517 187.68 152.2C187.605 152.296 187.515 152.344 187.408 152.344C187.355 152.344 187.291 152.317 187.216 152.264L186.944 152.056C186.848 151.971 186.8 151.885 186.8 151.8C186.8 151.747 186.827 151.683 186.88 151.608C187.445 150.893 188.032 150.349 188.64 149.976C189.259 149.603 189.984 149.416 190.816 149.416C191.509 149.416 192.128 149.549 192.672 149.816C193.216 150.072 193.637 150.44 193.936 150.92C194.245 151.389 194.4 151.923 194.4 152.52C194.4 153.149 194.267 153.693 194 154.152C193.744 154.6 193.419 154.973 193.024 155.272C192.629 155.56 192.096 155.901 191.424 156.296L190.624 156.776C189.952 157.192 189.44 157.533 189.088 157.8C188.736 158.056 188.443 158.371 188.208 158.744C187.973 159.107 187.835 159.549 187.792 160.072H194.144ZM200.066 161.24C199.319 161.24 198.663 161.059 198.098 160.696C197.543 160.333 197.1 159.827 196.77 159.176C196.247 158.141 195.986 156.856 195.986 155.32C195.986 153.773 196.247 152.483 196.77 151.448C197.1 150.797 197.543 150.296 198.098 149.944C198.663 149.581 199.319 149.4 200.066 149.4C200.812 149.4 201.463 149.581 202.018 149.944C202.583 150.296 203.031 150.797 203.362 151.448C203.884 152.483 204.146 153.773 204.146 155.32C204.146 156.856 203.884 158.141 203.362 159.176C203.031 159.827 202.583 160.333 202.018 160.696C201.463 161.059 200.812 161.24 200.066 161.24ZM200.066 160.312C201.111 160.312 201.895 159.768 202.418 158.68C202.834 157.795 203.042 156.675 203.042 155.32C203.042 153.944 202.834 152.819 202.418 151.944C201.906 150.867 201.122 150.328 200.066 150.328C199.01 150.328 198.226 150.867 197.714 151.944C197.298 152.819 197.09 153.944 197.09 155.32C197.09 156.685 197.298 157.805 197.714 158.68C198.236 159.768 199.02 160.312 200.066 160.312ZM209.878 161.24C209.131 161.24 208.475 161.059 207.91 160.696C207.355 160.333 206.913 159.827 206.582 159.176C206.059 158.141 205.798 156.856 205.798 155.32C205.798 153.773 206.059 152.483 206.582 151.448C206.913 150.797 207.355 150.296 207.91 149.944C208.475 149.581 209.131 149.4 209.878 149.4C210.625 149.4 211.275 149.581 211.83 149.944C212.395 150.296 212.843 150.797 213.174 151.448C213.697 152.483 213.958 153.773 213.958 155.32C213.958 156.856 213.697 158.141 213.174 159.176C212.843 159.827 212.395 160.333 211.83 160.696C211.275 161.059 210.625 161.24 209.878 161.24ZM209.878 160.312C210.923 160.312 211.707 159.768 212.23 158.68C212.646 157.795 212.854 156.675 212.854 155.32C212.854 153.944 212.646 152.819 212.23 151.944C211.718 150.867 210.934 150.328 209.878 150.328C208.822 150.328 208.038 150.867 207.526 151.944C207.11 152.819 206.902 153.944 206.902 155.32C206.902 156.685 207.11 157.805 207.526 158.68C208.049 159.768 208.833 160.312 209.878 160.312Z" fill="#1B1B1F"/>
<path d="M276.9 153.94C277.54 153.94 278.028 154.124 278.364 154.492C278.708 154.852 278.88 155.316 278.88 155.884V159.76C278.88 159.92 278.8 160 278.64 160H278.328C278.168 160 278.088 159.92 278.088 159.76V156.1C278.088 155.62 277.976 155.252 277.752 154.996C277.536 154.74 277.212 154.612 276.78 154.612C276.324 154.612 275.96 154.764 275.688 155.068C275.416 155.372 275.28 155.764 275.28 156.244V159.76C275.28 159.92 275.2 160 275.04 160H274.728C274.568 160 274.488 159.92 274.488 159.76V156.1C274.488 155.62 274.376 155.252 274.152 154.996C273.936 154.74 273.608 154.612 273.168 154.612C272.76 154.612 272.42 154.74 272.148 154.996C271.884 155.252 271.728 155.588 271.68 156.004V159.76C271.68 159.92 271.6 160 271.44 160H271.128C270.968 160 270.888 159.92 270.888 159.76V154.324C270.888 154.164 270.968 154.084 271.128 154.084H271.392C271.552 154.084 271.632 154.164 271.632 154.324V154.816C271.992 154.232 272.564 153.94 273.348 153.94C273.756 153.94 274.104 154.032 274.392 154.216C274.688 154.392 274.908 154.632 275.052 154.936C275.476 154.272 276.092 153.94 276.9 153.94ZM283.422 155.008H280.05V154.564L281.478 153.136C281.782 152.832 282.026 152.572 282.21 152.356C282.402 152.14 282.542 151.94 282.63 151.756C282.718 151.572 282.762 151.376 282.762 151.168C282.762 150.88 282.674 150.656 282.498 150.496C282.33 150.328 282.086 150.244 281.766 150.244C281.518 150.244 281.29 150.288 281.082 150.376C280.882 150.464 280.674 150.588 280.458 150.748L280.17 150.352C280.394 150.16 280.638 150.012 280.902 149.908C281.174 149.804 281.462 149.752 281.766 149.752C282.262 149.752 282.65 149.88 282.93 150.136C283.21 150.384 283.35 150.72 283.35 151.144C283.35 151.416 283.29 151.664 283.17 151.888C283.058 152.112 282.894 152.344 282.678 152.584C282.462 152.824 282.198 153.096 281.886 153.4L280.782 154.492H283.422V155.008Z" fill="#5C5C66"/>
</g>
<path d="M44.2 116.21C43.5467 116.21 42.9727 116.051 42.478 115.734C41.9927 115.417 41.6053 114.973 41.316 114.404C40.8587 113.499 40.63 112.374 40.63 111.03C40.63 109.677 40.8587 108.547 41.316 107.642C41.6053 107.073 41.9927 106.634 42.478 106.326C42.9727 106.009 43.5467 105.85 44.2 105.85C44.8533 105.85 45.4227 106.009 45.908 106.326C46.4027 106.634 46.7947 107.073 47.084 107.642C47.5413 108.547 47.77 109.677 47.77 111.03C47.77 112.374 47.5413 113.499 47.084 114.404C46.7947 114.973 46.4027 115.417 45.908 115.734C45.4227 116.051 44.8533 116.21 44.2 116.21ZM44.2 115.398C45.1147 115.398 45.8007 114.922 46.258 113.97C46.622 113.195 46.804 112.215 46.804 111.03C46.804 109.826 46.622 108.841 46.258 108.076C45.81 107.133 45.124 106.662 44.2 106.662C43.276 106.662 42.59 107.133 42.142 108.076C41.778 108.841 41.596 109.826 41.596 111.03C41.596 112.225 41.778 113.205 42.142 113.97C42.5993 114.922 43.2853 115.398 44.2 115.398Z" fill="#5C5C66"/>
<path d="M274.038 115.188C274.225 115.188 274.318 115.281 274.318 115.468V115.72C274.318 115.907 274.225 116 274.038 116H267.822C267.635 116 267.542 115.907 267.542 115.72V115.664C267.542 114.983 267.659 114.409 267.892 113.942C268.135 113.466 268.447 113.065 268.83 112.738C269.222 112.411 269.759 112.038 270.44 111.618C270.505 111.571 270.748 111.427 271.168 111.184C271.663 110.904 272.05 110.661 272.33 110.456C272.61 110.251 272.843 109.999 273.03 109.7C273.217 109.392 273.31 109.033 273.31 108.622C273.31 107.997 273.1 107.516 272.68 107.18C272.26 106.844 271.751 106.676 271.154 106.676C270.575 106.676 270.095 106.797 269.712 107.04C269.329 107.283 268.886 107.703 268.382 108.3C268.317 108.384 268.237 108.426 268.144 108.426C268.097 108.426 268.041 108.403 267.976 108.356L267.738 108.174C267.654 108.099 267.612 108.025 267.612 107.95C267.612 107.903 267.635 107.847 267.682 107.782C268.177 107.157 268.69 106.681 269.222 106.354C269.763 106.027 270.398 105.864 271.126 105.864C271.733 105.864 272.274 105.981 272.75 106.214C273.226 106.438 273.595 106.76 273.856 107.18C274.127 107.591 274.262 108.057 274.262 108.58C274.262 109.131 274.145 109.607 273.912 110.008C273.688 110.4 273.403 110.727 273.058 110.988C272.713 111.24 272.246 111.539 271.658 111.884L270.958 112.304C270.37 112.668 269.922 112.967 269.614 113.2C269.306 113.424 269.049 113.699 268.844 114.026C268.639 114.343 268.517 114.731 268.48 115.188H274.038ZM279.22 116.21C278.566 116.21 277.992 116.051 277.498 115.734C277.012 115.417 276.625 114.973 276.336 114.404C275.878 113.499 275.65 112.374 275.65 111.03C275.65 109.677 275.878 108.547 276.336 107.642C276.625 107.073 277.012 106.634 277.498 106.326C277.992 106.009 278.566 105.85 279.22 105.85C279.873 105.85 280.442 106.009 280.928 106.326C281.422 106.634 281.814 107.073 282.104 107.642C282.561 108.547 282.79 109.677 282.79 111.03C282.79 112.374 282.561 113.499 282.104 114.404C281.814 114.973 281.422 115.417 280.928 115.734C280.442 116.051 279.873 116.21 279.22 116.21ZM279.22 115.398C280.134 115.398 280.82 114.922 281.278 113.97C281.642 113.195 281.824 112.215 281.824 111.03C281.824 109.826 281.642 108.841 281.278 108.076C280.83 107.133 280.144 106.662 279.22 106.662C278.296 106.662 277.61 107.133 277.162 108.076C276.798 108.841 276.616 109.826 276.616 111.03C276.616 112.225 276.798 113.205 277.162 113.97C277.619 114.922 278.305 115.398 279.22 115.398ZM287.805 116.21C287.152 116.21 286.578 116.051 286.083 115.734C285.598 115.417 285.211 114.973 284.921 114.404C284.464 113.499 284.235 112.374 284.235 111.03C284.235 109.677 284.464 108.547 284.921 107.642C285.211 107.073 285.598 106.634 286.083 106.326C286.578 106.009 287.152 105.85 287.805 105.85C288.459 105.85 289.028 106.009 289.513 106.326C290.008 106.634 290.4 107.073 290.689 107.642C291.147 108.547 291.375 109.677 291.375 111.03C291.375 112.374 291.147 113.499 290.689 114.404C290.4 114.973 290.008 115.417 289.513 115.734C289.028 116.051 288.459 116.21 287.805 116.21ZM287.805 115.398C288.72 115.398 289.406 114.922 289.863 113.97C290.227 113.195 290.409 112.215 290.409 111.03C290.409 109.826 290.227 108.841 289.863 108.076C289.415 107.133 288.729 106.662 287.805 106.662C286.881 106.662 286.195 107.133 285.747 108.076C285.383 108.841 285.201 109.826 285.201 111.03C285.201 112.225 285.383 113.205 285.747 113.97C286.205 114.922 286.891 115.398 287.805 115.398Z" fill="#5C5C66"/>
<path d="M48.218 54C47.938 54 47.7513 53.8693 47.658 53.608L47 51.718H42.604L41.946 53.608C41.8527 53.8693 41.666 54 41.386 54H40.798C40.658 54 40.546 53.972 40.462 53.916C40.3873 53.8507 40.35 53.762 40.35 53.65C40.35 53.594 40.364 53.524 40.392 53.44L43.64 44.452C43.7333 44.1907 43.92 44.06 44.2 44.06H45.446C45.726 44.06 45.9127 44.1907 46.006 44.452L49.254 53.44C49.282 53.524 49.296 53.594 49.296 53.65C49.296 53.762 49.254 53.8507 49.17 53.916C49.0953 53.972 48.988 54 48.848 54H48.218ZM46.552 50.388L46.118 49.156C46.1087 49.1373 46.006 48.8433 45.81 48.274C45.3153 46.874 44.9793 45.8753 44.802 45.278C44.5313 46.1367 44.172 47.2007 43.724 48.47L43.486 49.17L43.066 50.388H46.552ZM54.1743 46.916C54.7623 46.916 55.285 47.0653 55.7423 47.364C56.209 47.6627 56.573 48.0873 56.8343 48.638C57.0957 49.1887 57.2263 49.8233 57.2263 50.542C57.2263 51.27 57.0957 51.9093 56.8343 52.46C56.573 53.0107 56.209 53.4353 55.7423 53.734C55.2757 54.0327 54.753 54.182 54.1743 54.182C53.2037 54.182 52.4757 53.846 51.9903 53.174V55.988C51.9903 56.1467 51.9483 56.268 51.8643 56.352C51.7803 56.436 51.659 56.478 51.5003 56.478H50.9963C50.847 56.478 50.7257 56.436 50.6323 56.352C50.5483 56.268 50.5063 56.1467 50.5063 55.988V47.588C50.5063 47.4293 50.5483 47.308 50.6323 47.224C50.7257 47.14 50.847 47.098 50.9963 47.098H51.4023C51.561 47.098 51.6823 47.14 51.7663 47.224C51.8503 47.308 51.8923 47.4293 51.8923 47.588V48.106C52.387 47.3127 53.1477 46.916 54.1743 46.916ZM53.8663 52.894C54.4263 52.894 54.8743 52.684 55.2103 52.264C55.5463 51.8347 55.7143 51.2607 55.7143 50.542C55.7143 49.8327 55.5463 49.2633 55.2103 48.834C54.8837 48.4047 54.4403 48.19 53.8803 48.19C53.311 48.19 52.8443 48.4 52.4803 48.82C52.1163 49.24 51.9343 49.814 51.9343 50.542C51.9343 51.27 52.1163 51.844 52.4803 52.264C52.8443 52.684 53.3063 52.894 53.8663 52.894ZM61.4848 46.888C62.4181 46.888 63.1368 47.1073 63.6408 47.546C64.1448 47.9753 64.3968 48.5493 64.3968 49.268V53.51C64.3968 53.6593 64.3548 53.7807 64.2708 53.874C64.1868 53.958 64.0654 54 63.9068 54H63.5428C63.3934 54 63.2721 53.958 63.1788 53.874C63.0948 53.7807 63.0528 53.6593 63.0528 53.51V53.202C62.8288 53.5287 62.5208 53.7807 62.1288 53.958C61.7368 54.1353 61.2794 54.224 60.7568 54.224C60.0381 54.224 59.4454 54.0653 58.9788 53.748C58.5214 53.4213 58.2928 52.9313 58.2928 52.278C58.2928 51.55 58.5634 51.0133 59.1048 50.668C59.6554 50.3133 60.4161 50.0473 61.3868 49.87L62.9688 49.576V49.324C62.9688 48.9413 62.8334 48.6473 62.5628 48.442C62.3014 48.2273 61.9514 48.12 61.5128 48.12C61.1394 48.12 60.8128 48.1853 60.5328 48.316C60.2621 48.4373 59.9681 48.6427 59.6508 48.932C59.5294 49.0347 59.4128 49.086 59.3008 49.086C59.1888 49.086 59.0721 49.0347 58.9508 48.932L58.7268 48.736C58.6054 48.624 58.5448 48.5027 58.5448 48.372C58.5448 48.2507 58.6008 48.134 58.7128 48.022C59.1141 47.6393 59.5388 47.3547 59.9868 47.168C60.4348 46.9813 60.9341 46.888 61.4848 46.888ZM60.9668 53.034C61.5268 53.034 61.9981 52.8847 62.3808 52.586C62.7728 52.2873 62.9688 51.858 62.9688 51.298V50.654L61.7508 50.906C61.0694 51.046 60.5654 51.2047 60.2388 51.382C59.9121 51.5593 59.7488 51.83 59.7488 52.194C59.7488 52.4553 59.8561 52.6607 60.0708 52.81C60.2854 52.9593 60.5841 53.034 60.9668 53.034ZM69.2003 47.028C69.4056 47.028 69.6156 47.0513 69.8303 47.098C70.0823 47.154 70.2083 47.3033 70.2083 47.546C70.2083 47.6113 70.2036 47.658 70.1943 47.686L70.1243 48.022C70.0683 48.2833 69.9283 48.414 69.7043 48.414L69.5783 48.4C69.4103 48.372 69.2609 48.358 69.1303 48.358C68.6636 48.358 68.2856 48.5447 67.9963 48.918C67.7163 49.282 67.5763 49.7907 67.5763 50.444V53.51C67.5763 53.6593 67.5343 53.7807 67.4503 53.874C67.3663 53.958 67.2449 54 67.0863 54H66.5823C66.4329 54 66.3116 53.958 66.2183 53.874C66.1343 53.7807 66.0923 53.6593 66.0923 53.51V47.588C66.0923 47.4293 66.1343 47.308 66.2183 47.224C66.3116 47.14 66.4329 47.098 66.5823 47.098H66.9883C67.1469 47.098 67.2683 47.14 67.3523 47.224C67.4363 47.308 67.4783 47.4293 67.4783 47.588V48.134C67.6463 47.7887 67.8749 47.518 68.1643 47.322C68.4536 47.126 68.7989 47.028 69.2003 47.028ZM74.7837 52.824C74.8117 52.8147 74.8537 52.81 74.9097 52.81C75.143 52.81 75.283 52.9453 75.3297 53.216L75.3717 53.44C75.381 53.468 75.3857 53.5147 75.3857 53.58C75.3857 53.8133 75.255 53.9627 74.9937 54.028C74.6203 54.112 74.2797 54.154 73.9717 54.154C73.309 54.154 72.8283 54 72.5297 53.692C72.2403 53.384 72.0957 52.922 72.0957 52.306V48.232H71.3257C71.1763 48.232 71.055 48.19 70.9617 48.106C70.8777 48.0127 70.8357 47.8913 70.8357 47.742V47.588C70.8357 47.4293 70.8777 47.308 70.9617 47.224C71.055 47.14 71.1763 47.098 71.3257 47.098H72.0957V45.362C72.0957 45.2033 72.1377 45.082 72.2217 44.998C72.315 44.914 72.4363 44.872 72.5857 44.872H73.0897C73.2483 44.872 73.3697 44.914 73.4537 44.998C73.5377 45.082 73.5797 45.2033 73.5797 45.362V47.098H74.8397C74.9983 47.098 75.1197 47.14 75.2037 47.224C75.2877 47.308 75.3297 47.4293 75.3297 47.588V47.742C75.3297 47.8913 75.2877 48.0127 75.2037 48.106C75.1197 48.19 74.9983 48.232 74.8397 48.232H73.5797V52.124C73.5797 52.3947 73.6357 52.586 73.7477 52.698C73.869 52.81 74.0603 52.866 74.3217 52.866C74.4337 52.866 74.5877 52.852 74.7837 52.824ZM83.9573 46.888C84.6946 46.888 85.2639 47.098 85.6653 47.518C86.0666 47.9287 86.2673 48.484 86.2673 49.184V53.51C86.2673 53.6593 86.2253 53.7807 86.1413 53.874C86.0573 53.958 85.9359 54 85.7773 54H85.2733C85.1239 54 85.0026 53.958 84.9093 53.874C84.8253 53.7807 84.7833 53.6593 84.7833 53.51V49.632C84.7833 49.1747 84.6806 48.8153 84.4753 48.554C84.2699 48.2927 83.9573 48.162 83.5373 48.162C83.1079 48.162 82.7673 48.3067 82.5153 48.596C82.2726 48.8853 82.1513 49.2587 82.1513 49.716V53.51C82.1513 53.6593 82.1093 53.7807 82.0253 53.874C81.9413 53.958 81.8199 54 81.6613 54H81.1573C81.0079 54 80.8866 53.958 80.7933 53.874C80.7093 53.7807 80.6673 53.6593 80.6673 53.51V49.632C80.6673 49.1747 80.5646 48.8153 80.3593 48.554C80.1633 48.2927 79.8553 48.162 79.4353 48.162C79.0246 48.162 78.6933 48.2973 78.4413 48.568C78.1893 48.8387 78.0539 49.1887 78.0353 49.618V53.51C78.0353 53.6593 77.9933 53.7807 77.9093 53.874C77.8253 53.958 77.7039 54 77.5453 54H77.0413C76.8919 54 76.7706 53.958 76.6773 53.874C76.5933 53.7807 76.5513 53.6593 76.5513 53.51V47.588C76.5513 47.4293 76.5933 47.308 76.6773 47.224C76.7706 47.14 76.8919 47.098 77.0413 47.098H77.4473C77.6059 47.098 77.7273 47.14 77.8113 47.224C77.8953 47.308 77.9373 47.4293 77.9373 47.588V47.896C78.3666 47.224 79.0293 46.888 79.9253 46.888C80.3733 46.888 80.7653 46.9813 81.1013 47.168C81.4373 47.3547 81.6939 47.616 81.8713 47.952C82.3473 47.2427 83.0426 46.888 83.9573 46.888ZM92.9093 52.236C93.0306 52.1333 93.1473 52.082 93.2593 52.082C93.3713 52.082 93.4879 52.1427 93.6093 52.264L93.8053 52.474C93.9079 52.5953 93.9593 52.712 93.9593 52.824C93.9593 52.9453 93.8986 53.062 93.7773 53.174C93.3479 53.5473 92.9186 53.8133 92.4893 53.972C92.0693 54.1307 91.6026 54.21 91.0893 54.21C90.3706 54.21 89.7453 54.0607 89.2133 53.762C88.6906 53.4633 88.2846 53.0433 87.9953 52.502C87.7153 51.9513 87.5753 51.3167 87.5753 50.598C87.5753 49.8887 87.7106 49.254 87.9813 48.694C88.2613 48.1247 88.6533 47.6813 89.1573 47.364C89.6706 47.0467 90.2679 46.888 90.9493 46.888C91.9666 46.888 92.7506 47.1913 93.3013 47.798C93.8519 48.3953 94.1273 49.2213 94.1273 50.276V50.402C94.1179 50.5513 94.0713 50.668 93.9873 50.752C93.9033 50.836 93.7819 50.878 93.6233 50.878H89.0313C89.0873 51.494 89.2879 51.998 89.6333 52.39C89.9879 52.7727 90.4826 52.964 91.1173 52.964C91.4626 52.964 91.7659 52.9127 92.0273 52.81C92.2886 52.698 92.5826 52.5067 92.9093 52.236ZM90.9213 48.064C90.4079 48.064 89.9926 48.218 89.6753 48.526C89.3673 48.8247 89.1666 49.2493 89.0733 49.8H92.6713C92.6339 49.2587 92.4659 48.834 92.1673 48.526C91.8686 48.218 91.4533 48.064 90.9213 48.064ZM99.0008 46.888C99.7941 46.888 100.401 47.112 100.821 47.56C101.25 47.9987 101.465 48.568 101.465 49.268V53.51C101.465 53.6593 101.423 53.7807 101.339 53.874C101.255 53.958 101.133 54 100.975 54H100.471C100.321 54 100.2 53.958 100.107 53.874C100.023 53.7807 99.9808 53.6593 99.9808 53.51V49.73C99.9808 49.226 99.8548 48.8387 99.6028 48.568C99.3601 48.2973 99.0101 48.162 98.5528 48.162C98.1048 48.162 97.7268 48.316 97.4188 48.624C97.1201 48.932 96.9708 49.3193 96.9708 49.786V53.51C96.9708 53.6593 96.9288 53.7807 96.8448 53.874C96.7608 53.958 96.6395 54 96.4808 54H95.9768C95.8275 54 95.7061 53.958 95.6128 53.874C95.5288 53.7807 95.4868 53.6593 95.4868 53.51V47.588C95.4868 47.4293 95.5288 47.308 95.6128 47.224C95.7061 47.14 95.8275 47.098 95.9768 47.098H96.3828C96.5415 47.098 96.6628 47.14 96.7468 47.224C96.8308 47.308 96.8728 47.4293 96.8728 47.588V47.952C97.0968 47.6067 97.3908 47.3453 97.7548 47.168C98.1188 46.9813 98.5341 46.888 99.0008 46.888ZM106.352 52.824C106.38 52.8147 106.422 52.81 106.478 52.81C106.711 52.81 106.851 52.9453 106.898 53.216L106.94 53.44C106.949 53.468 106.954 53.5147 106.954 53.58C106.954 53.8133 106.823 53.9627 106.562 54.028C106.189 54.112 105.848 54.154 105.54 54.154C104.877 54.154 104.397 54 104.098 53.692C103.809 53.384 103.664 52.922 103.664 52.306V48.232H102.894C102.745 48.232 102.623 48.19 102.53 48.106C102.446 48.0127 102.404 47.8913 102.404 47.742V47.588C102.404 47.4293 102.446 47.308 102.53 47.224C102.623 47.14 102.745 47.098 102.894 47.098H103.664V45.362C103.664 45.2033 103.706 45.082 103.79 44.998C103.883 44.914 104.005 44.872 104.154 44.872H104.658C104.817 44.872 104.938 44.914 105.022 44.998C105.106 45.082 105.148 45.2033 105.148 45.362V47.098H106.408C106.567 47.098 106.688 47.14 106.772 47.224C106.856 47.308 106.898 47.4293 106.898 47.588V47.742C106.898 47.8913 106.856 48.0127 106.772 48.106C106.688 48.19 106.567 48.232 106.408 48.232H105.148V52.124C105.148 52.3947 105.204 52.586 105.316 52.698C105.437 52.81 105.629 52.866 105.89 52.866C106.002 52.866 106.156 52.852 106.352 52.824ZM113.91 54.21C113.341 54.21 112.832 54.14 112.384 54C111.946 53.8507 111.498 53.594 111.04 53.23C110.9 53.1273 110.83 53.0107 110.83 52.88C110.83 52.7773 110.882 52.6653 110.984 52.544L111.194 52.306C111.306 52.1753 111.428 52.11 111.558 52.11C111.661 52.11 111.773 52.1567 111.894 52.25C112.286 52.5393 112.632 52.74 112.93 52.852C113.229 52.9547 113.565 53.006 113.938 53.006C114.34 53.006 114.666 52.9267 114.918 52.768C115.18 52.6 115.31 52.376 115.31 52.096C115.31 51.8813 115.236 51.7133 115.086 51.592C114.946 51.4613 114.76 51.3633 114.526 51.298C114.293 51.2233 113.948 51.1393 113.49 51.046C112.846 50.906 112.342 50.7567 111.978 50.598C111.624 50.43 111.367 50.22 111.208 49.968C111.05 49.716 110.97 49.394 110.97 49.002C110.97 48.6007 111.082 48.2413 111.306 47.924C111.54 47.6067 111.862 47.3547 112.272 47.168C112.692 46.9813 113.182 46.888 113.742 46.888C114.246 46.888 114.694 46.944 115.086 47.056C115.488 47.168 115.88 47.3593 116.262 47.63C116.412 47.742 116.486 47.868 116.486 48.008C116.486 48.1013 116.44 48.2087 116.346 48.33L116.164 48.554C116.062 48.6847 115.936 48.75 115.786 48.75C115.674 48.75 115.567 48.7127 115.464 48.638C115.156 48.4327 114.872 48.2927 114.61 48.218C114.349 48.134 114.055 48.092 113.728 48.092C113.327 48.092 113.005 48.1713 112.762 48.33C112.52 48.4887 112.398 48.694 112.398 48.946C112.398 49.114 112.454 49.2493 112.566 49.352C112.688 49.4453 112.856 49.5293 113.07 49.604C113.294 49.6693 113.644 49.7533 114.12 49.856C114.764 49.996 115.273 50.1547 115.646 50.332C116.029 50.5 116.309 50.7193 116.486 50.99C116.673 51.2513 116.766 51.592 116.766 52.012C116.766 52.6653 116.505 53.1973 115.982 53.608C115.469 54.0093 114.778 54.21 113.91 54.21ZM118.801 45.754C118.531 45.754 118.302 45.6653 118.115 45.488C117.929 45.3013 117.835 45.082 117.835 44.83C117.835 44.5687 117.929 44.3493 118.115 44.172C118.302 43.9947 118.531 43.906 118.801 43.906C119.072 43.906 119.301 43.9947 119.487 44.172C119.674 44.3493 119.767 44.5687 119.767 44.83C119.767 45.082 119.674 45.3013 119.487 45.488C119.301 45.6653 119.072 45.754 118.801 45.754ZM118.535 54C118.386 54 118.265 53.958 118.171 53.874C118.087 53.7807 118.045 53.6593 118.045 53.51V47.588C118.045 47.4293 118.087 47.308 118.171 47.224C118.265 47.14 118.386 47.098 118.535 47.098H119.039C119.198 47.098 119.319 47.14 119.403 47.224C119.487 47.308 119.529 47.4293 119.529 47.588V53.51C119.529 53.6593 119.487 53.7807 119.403 53.874C119.319 53.958 119.198 54 119.039 54H118.535ZM126.033 47.098C126.191 47.098 126.313 47.14 126.397 47.224C126.481 47.308 126.523 47.4293 126.523 47.588V47.854C126.523 48.0873 126.448 48.2927 126.299 48.47L122.715 52.782H126.033C126.191 52.782 126.313 52.824 126.397 52.908C126.481 52.992 126.523 53.1133 126.523 53.272V53.51C126.523 53.6593 126.481 53.7807 126.397 53.874C126.313 53.958 126.191 54 126.033 54H121.371C121.221 54 121.1 53.958 121.007 53.874C120.923 53.7807 120.881 53.6593 120.881 53.51V53.23C120.881 52.9967 120.955 52.7913 121.105 52.614L124.703 48.302H121.609C121.459 48.302 121.338 48.26 121.245 48.176C121.161 48.0827 121.119 47.9613 121.119 47.812V47.588C121.119 47.4293 121.161 47.308 121.245 47.224C121.338 47.14 121.459 47.098 121.609 47.098H126.033ZM132.653 52.236C132.775 52.1333 132.891 52.082 133.003 52.082C133.115 52.082 133.232 52.1427 133.353 52.264L133.549 52.474C133.652 52.5953 133.703 52.712 133.703 52.824C133.703 52.9453 133.643 53.062 133.521 53.174C133.092 53.5473 132.663 53.8133 132.233 53.972C131.813 54.1307 131.347 54.21 130.833 54.21C130.115 54.21 129.489 54.0607 128.957 53.762C128.435 53.4633 128.029 53.0433 127.739 52.502C127.459 51.9513 127.319 51.3167 127.319 50.598C127.319 49.8887 127.455 49.254 127.725 48.694C128.005 48.1247 128.397 47.6813 128.901 47.364C129.415 47.0467 130.012 46.888 130.693 46.888C131.711 46.888 132.495 47.1913 133.045 47.798C133.596 48.3953 133.871 49.2213 133.871 50.276V50.402C133.862 50.5513 133.815 50.668 133.731 50.752C133.647 50.836 133.526 50.878 133.367 50.878H128.775C128.831 51.494 129.032 51.998 129.377 52.39C129.732 52.7727 130.227 52.964 130.861 52.964C131.207 52.964 131.51 52.9127 131.771 52.81C132.033 52.698 132.327 52.5067 132.653 52.236ZM130.665 48.064C130.152 48.064 129.737 48.218 129.419 48.526C129.111 48.8247 128.911 49.2493 128.817 49.8H132.415C132.378 49.2587 132.21 48.834 131.911 48.526C131.613 48.218 131.197 48.064 130.665 48.064Z" fill="#1B1B1F"/>
<rect x="40" y="78" width="252" height="4" rx="2" fill="#DEDEE3"/>
<rect x="54" y="77" width="224" height="6" rx="3" fill="#0063FB"/>
<rect x="264" y="66" width="28" height="28" rx="14" fill="#0063FB"/>
<rect x="40" y="66" width="28" height="28" rx="14" fill="#0063FB"/>
<defs>
<clipPath id="clip0_5488_18478">
<rect width="98" height="22" fill="white" transform="translate(48 145)"/>
</clipPath>
<clipPath id="clip1_5488_18478">
<rect width="98" height="22" fill="white" transform="translate(186 145)"/>
</clipPath>
</defs>
</svg>
