<svg width="332" height="220" viewBox="0 0 332 220" fill="none" xmlns="http://www.w3.org/2000/svg">
<rect x="40.5" y="132.5" width="113" height="47" rx="3.5" fill="white"/>
<rect x="40.5" y="132.5" width="113" height="47" rx="3.5" stroke="#84848F"/>
<g clip-path="url(#clip0_5449_12766)">
<path d="M52.8 161.24C52.0533 161.24 51.3973 161.059 50.832 160.696C50.2773 160.333 49.8347 159.827 49.504 159.176C48.9813 158.141 48.72 156.856 48.72 155.32C48.72 153.773 48.9813 152.483 49.504 151.448C49.8347 150.797 50.2773 150.296 50.832 149.944C51.3973 149.581 52.0533 149.4 52.8 149.4C53.5467 149.4 54.1973 149.581 54.752 149.944C55.3173 150.296 55.7653 150.797 56.096 151.448C56.6187 152.483 56.88 153.773 56.88 155.32C56.88 156.856 56.6187 158.141 56.096 159.176C55.7653 159.827 55.3173 160.333 54.752 160.696C54.1973 161.059 53.5467 161.24 52.8 161.24ZM52.8 160.312C53.8453 160.312 54.6293 159.768 55.152 158.68C55.568 157.795 55.776 156.675 55.776 155.32C55.776 153.944 55.568 152.819 55.152 151.944C54.64 150.867 53.856 150.328 52.8 150.328C51.744 150.328 50.96 150.867 50.448 151.944C50.032 152.819 49.824 153.944 49.824 155.32C49.824 156.685 50.032 157.805 50.448 158.68C50.9707 159.768 51.7547 160.312 52.8 160.312Z" fill="#1B1B1F"/>
<path d="M125.952 160.156C125.464 160.156 125.032 160.088 124.656 159.952C124.288 159.808 123.9 159.568 123.492 159.232C123.42 159.184 123.384 159.128 123.384 159.064C123.384 159.008 123.412 158.952 123.468 158.896L123.624 158.728C123.672 158.664 123.732 158.632 123.804 158.632C123.86 158.632 123.912 158.656 123.96 158.704C124.344 159 124.684 159.208 124.98 159.328C125.276 159.44 125.6 159.496 125.952 159.496C126.392 159.496 126.752 159.4 127.032 159.208C127.312 159.008 127.452 158.74 127.452 158.404C127.452 158.068 127.308 157.82 127.02 157.66C126.732 157.5 126.288 157.356 125.688 157.228C125.16 157.116 124.744 157 124.44 156.88C124.144 156.752 123.924 156.592 123.78 156.4C123.636 156.208 123.564 155.956 123.564 155.644C123.564 155.132 123.772 154.72 124.188 154.408C124.604 154.096 125.128 153.94 125.76 153.94C126.192 153.94 126.576 153.996 126.912 154.108C127.256 154.212 127.6 154.388 127.944 154.636C128.016 154.692 128.052 154.752 128.052 154.816C128.052 154.856 128.032 154.908 127.992 154.972L127.848 155.152C127.808 155.216 127.752 155.248 127.68 155.248C127.616 155.248 127.56 155.228 127.512 155.188C127.184 154.956 126.892 154.8 126.636 154.72C126.388 154.64 126.104 154.6 125.784 154.6C125.344 154.6 124.992 154.696 124.728 154.888C124.464 155.08 124.332 155.324 124.332 155.62C124.332 155.804 124.392 155.952 124.512 156.064C124.632 156.176 124.804 156.272 125.028 156.352C125.252 156.424 125.58 156.508 126.012 156.604C126.812 156.78 127.38 156.996 127.716 157.252C128.06 157.508 128.232 157.88 128.232 158.368C128.232 158.904 128.02 159.336 127.596 159.664C127.172 159.992 126.624 160.156 125.952 160.156ZM133.88 158.596C133.936 158.54 133.996 158.512 134.06 158.512C134.116 158.512 134.168 158.536 134.216 158.584L134.372 158.728C134.428 158.784 134.456 158.844 134.456 158.908C134.456 158.956 134.432 159.012 134.384 159.076C133.992 159.468 133.612 159.748 133.244 159.916C132.876 160.076 132.464 160.156 132.008 160.156C131.432 160.156 130.932 160.028 130.508 159.772C130.084 159.516 129.756 159.16 129.524 158.704C129.292 158.24 129.176 157.704 129.176 157.096C129.176 156.48 129.288 155.936 129.512 155.464C129.744 154.984 130.068 154.612 130.484 154.348C130.9 154.076 131.38 153.94 131.924 153.94C132.732 153.94 133.368 154.192 133.832 154.696C134.296 155.2 134.528 155.88 134.528 156.736V156.88C134.52 156.952 134.492 157.008 134.444 157.048C134.404 157.088 134.348 157.108 134.276 157.108H129.98C130.004 157.78 130.18 158.348 130.508 158.812C130.844 159.268 131.344 159.496 132.008 159.496C132.368 159.496 132.684 159.432 132.956 159.304C133.236 159.168 133.544 158.932 133.88 158.596ZM131.924 154.6C131.396 154.6 130.96 154.764 130.616 155.092C130.28 155.412 130.076 155.884 130.004 156.508H133.736C133.72 155.924 133.552 155.46 133.232 155.116C132.912 154.772 132.476 154.6 131.924 154.6ZM138.121 153.94C138.849 153.94 139.417 154.116 139.825 154.468C140.233 154.812 140.437 155.268 140.437 155.836V159.76C140.437 159.92 140.357 160 140.197 160H139.957C139.797 160 139.717 159.92 139.717 159.76V159.22C139.517 159.54 139.233 159.78 138.865 159.94C138.505 160.1 138.101 160.18 137.653 160.18C137.029 160.18 136.521 160.048 136.129 159.784C135.737 159.52 135.541 159.112 135.541 158.56C135.541 158.12 135.665 157.768 135.913 157.504C136.161 157.232 136.485 157.028 136.885 156.892C137.285 156.748 137.785 156.62 138.385 156.508L139.681 156.28V155.896C139.681 155.488 139.541 155.172 139.261 154.948C138.981 154.716 138.613 154.6 138.157 154.6C137.813 154.6 137.501 154.664 137.221 154.792C136.941 154.92 136.641 155.14 136.321 155.452C136.265 155.508 136.205 155.536 136.141 155.536C136.085 155.536 136.033 155.512 135.985 155.464L135.829 155.32C135.773 155.264 135.745 155.204 135.745 155.14C135.745 155.068 135.773 155.004 135.829 154.948C136.165 154.596 136.517 154.34 136.885 154.18C137.261 154.02 137.673 153.94 138.121 153.94ZM137.689 159.52C138.265 159.52 138.741 159.368 139.117 159.064C139.493 158.76 139.681 158.372 139.681 157.9V156.892L138.565 157.108C138.045 157.212 137.633 157.312 137.329 157.408C137.025 157.504 136.781 157.644 136.597 157.828C136.413 158.012 136.321 158.252 136.321 158.548C136.321 158.852 136.441 159.092 136.681 159.268C136.929 159.436 137.265 159.52 137.689 159.52ZM144.693 159.34C144.717 159.332 144.749 159.328 144.789 159.328C144.837 159.328 144.881 159.344 144.921 159.376C144.961 159.408 144.985 159.452 144.993 159.508L145.029 159.676C145.037 159.692 145.041 159.72 145.041 159.76C145.041 159.872 144.981 159.94 144.861 159.964C144.573 160.052 144.265 160.096 143.937 160.096C143.417 160.096 143.045 159.98 142.821 159.748C142.605 159.508 142.497 159.164 142.497 158.716V154.684H141.609C141.449 154.684 141.369 154.604 141.369 154.444V154.324C141.369 154.164 141.449 154.084 141.609 154.084H142.497V152.26C142.497 152.1 142.577 152.02 142.737 152.02H143.049C143.209 152.02 143.289 152.1 143.289 152.26V154.084H144.729C144.889 154.084 144.969 154.164 144.969 154.324V154.444C144.969 154.604 144.889 154.684 144.729 154.684H143.289V158.62C143.289 158.916 143.345 159.124 143.457 159.244C143.569 159.364 143.761 159.424 144.033 159.424C144.225 159.424 144.445 159.396 144.693 159.34Z" fill="#5C5C66"/>
</g>
<rect x="178.5" y="132.5" width="113" height="47" rx="3.5" fill="white"/>
<rect x="178.5" y="132.5" width="113" height="47" rx="3.5" stroke="#84848F"/>
<g clip-path="url(#clip1_5449_12766)">
<path d="M190.992 153.672C191.728 153.672 192.373 153.827 192.928 154.136C193.493 154.435 193.931 154.861 194.24 155.416C194.549 155.971 194.704 156.611 194.704 157.336C194.704 157.987 194.549 158.611 194.24 159.208C193.931 159.805 193.483 160.291 192.896 160.664C192.309 161.037 191.621 161.224 190.832 161.224C190.064 161.224 189.397 161.128 188.832 160.936C188.277 160.744 187.648 160.413 186.944 159.944C186.837 159.88 186.784 159.795 186.784 159.688C186.784 159.613 186.805 159.549 186.848 159.496L187.056 159.208C187.12 159.112 187.195 159.064 187.28 159.064C187.344 159.064 187.419 159.091 187.504 159.144C188.155 159.581 188.709 159.885 189.168 160.056C189.637 160.227 190.155 160.312 190.72 160.312C191.317 160.312 191.835 160.179 192.272 159.912C192.709 159.635 193.04 159.272 193.264 158.824C193.499 158.365 193.616 157.869 193.616 157.336C193.616 156.483 193.376 155.816 192.896 155.336C192.427 154.856 191.749 154.616 190.864 154.616C189.915 154.616 189.12 154.904 188.48 155.48C188.363 155.587 188.224 155.629 188.064 155.608L187.712 155.56C187.616 155.549 187.541 155.512 187.488 155.448C187.435 155.384 187.413 155.304 187.424 155.208L187.856 149.944C187.867 149.848 187.899 149.773 187.952 149.72C188.016 149.667 188.096 149.64 188.192 149.64H193.888C194.101 149.64 194.208 149.747 194.208 149.96V150.248C194.208 150.461 194.101 150.568 193.888 150.568H188.8L188.464 154.504C188.763 154.259 189.125 154.061 189.552 153.912C189.989 153.752 190.469 153.672 190.992 153.672ZM200.394 161.24C199.647 161.24 198.991 161.059 198.426 160.696C197.871 160.333 197.428 159.827 197.098 159.176C196.575 158.141 196.314 156.856 196.314 155.32C196.314 153.773 196.575 152.483 197.098 151.448C197.428 150.797 197.871 150.296 198.426 149.944C198.991 149.581 199.647 149.4 200.394 149.4C201.14 149.4 201.791 149.581 202.346 149.944C202.911 150.296 203.359 150.797 203.69 151.448C204.212 152.483 204.474 153.773 204.474 155.32C204.474 156.856 204.212 158.141 203.69 159.176C203.359 159.827 202.911 160.333 202.346 160.696C201.791 161.059 201.14 161.24 200.394 161.24ZM200.394 160.312C201.439 160.312 202.223 159.768 202.746 158.68C203.162 157.795 203.37 156.675 203.37 155.32C203.37 153.944 203.162 152.819 202.746 151.944C202.234 150.867 201.45 150.328 200.394 150.328C199.338 150.328 198.554 150.867 198.042 151.944C197.626 152.819 197.418 153.944 197.418 155.32C197.418 156.685 197.626 157.805 198.042 158.68C198.564 159.768 199.348 160.312 200.394 160.312Z" fill="#1B1B1F"/>
<path d="M263.952 160.156C263.464 160.156 263.032 160.088 262.656 159.952C262.288 159.808 261.9 159.568 261.492 159.232C261.42 159.184 261.384 159.128 261.384 159.064C261.384 159.008 261.412 158.952 261.468 158.896L261.624 158.728C261.672 158.664 261.732 158.632 261.804 158.632C261.86 158.632 261.912 158.656 261.96 158.704C262.344 159 262.684 159.208 262.98 159.328C263.276 159.44 263.6 159.496 263.952 159.496C264.392 159.496 264.752 159.4 265.032 159.208C265.312 159.008 265.452 158.74 265.452 158.404C265.452 158.068 265.308 157.82 265.02 157.66C264.732 157.5 264.288 157.356 263.688 157.228C263.16 157.116 262.744 157 262.44 156.88C262.144 156.752 261.924 156.592 261.78 156.4C261.636 156.208 261.564 155.956 261.564 155.644C261.564 155.132 261.772 154.72 262.188 154.408C262.604 154.096 263.128 153.94 263.76 153.94C264.192 153.94 264.576 153.996 264.912 154.108C265.256 154.212 265.6 154.388 265.944 154.636C266.016 154.692 266.052 154.752 266.052 154.816C266.052 154.856 266.032 154.908 265.992 154.972L265.848 155.152C265.808 155.216 265.752 155.248 265.68 155.248C265.616 155.248 265.56 155.228 265.512 155.188C265.184 154.956 264.892 154.8 264.636 154.72C264.388 154.64 264.104 154.6 263.784 154.6C263.344 154.6 262.992 154.696 262.728 154.888C262.464 155.08 262.332 155.324 262.332 155.62C262.332 155.804 262.392 155.952 262.512 156.064C262.632 156.176 262.804 156.272 263.028 156.352C263.252 156.424 263.58 156.508 264.012 156.604C264.812 156.78 265.38 156.996 265.716 157.252C266.06 157.508 266.232 157.88 266.232 158.368C266.232 158.904 266.02 159.336 265.596 159.664C265.172 159.992 264.624 160.156 263.952 160.156ZM271.88 158.596C271.936 158.54 271.996 158.512 272.06 158.512C272.116 158.512 272.168 158.536 272.216 158.584L272.372 158.728C272.428 158.784 272.456 158.844 272.456 158.908C272.456 158.956 272.432 159.012 272.384 159.076C271.992 159.468 271.612 159.748 271.244 159.916C270.876 160.076 270.464 160.156 270.008 160.156C269.432 160.156 268.932 160.028 268.508 159.772C268.084 159.516 267.756 159.16 267.524 158.704C267.292 158.24 267.176 157.704 267.176 157.096C267.176 156.48 267.288 155.936 267.512 155.464C267.744 154.984 268.068 154.612 268.484 154.348C268.9 154.076 269.38 153.94 269.924 153.94C270.732 153.94 271.368 154.192 271.832 154.696C272.296 155.2 272.528 155.88 272.528 156.736V156.88C272.52 156.952 272.492 157.008 272.444 157.048C272.404 157.088 272.348 157.108 272.276 157.108H267.98C268.004 157.78 268.18 158.348 268.508 158.812C268.844 159.268 269.344 159.496 270.008 159.496C270.368 159.496 270.684 159.432 270.956 159.304C271.236 159.168 271.544 158.932 271.88 158.596ZM269.924 154.6C269.396 154.6 268.96 154.764 268.616 155.092C268.28 155.412 268.076 155.884 268.004 156.508H271.736C271.72 155.924 271.552 155.46 271.232 155.116C270.912 154.772 270.476 154.6 269.924 154.6ZM276.121 153.94C276.849 153.94 277.417 154.116 277.825 154.468C278.233 154.812 278.437 155.268 278.437 155.836V159.76C278.437 159.92 278.357 160 278.197 160H277.957C277.797 160 277.717 159.92 277.717 159.76V159.22C277.517 159.54 277.233 159.78 276.865 159.94C276.505 160.1 276.101 160.18 275.653 160.18C275.029 160.18 274.521 160.048 274.129 159.784C273.737 159.52 273.541 159.112 273.541 158.56C273.541 158.12 273.665 157.768 273.913 157.504C274.161 157.232 274.485 157.028 274.885 156.892C275.285 156.748 275.785 156.62 276.385 156.508L277.681 156.28V155.896C277.681 155.488 277.541 155.172 277.261 154.948C276.981 154.716 276.613 154.6 276.157 154.6C275.813 154.6 275.501 154.664 275.221 154.792C274.941 154.92 274.641 155.14 274.321 155.452C274.265 155.508 274.205 155.536 274.141 155.536C274.085 155.536 274.033 155.512 273.985 155.464L273.829 155.32C273.773 155.264 273.745 155.204 273.745 155.14C273.745 155.068 273.773 155.004 273.829 154.948C274.165 154.596 274.517 154.34 274.885 154.18C275.261 154.02 275.673 153.94 276.121 153.94ZM275.689 159.52C276.265 159.52 276.741 159.368 277.117 159.064C277.493 158.76 277.681 158.372 277.681 157.9V156.892L276.565 157.108C276.045 157.212 275.633 157.312 275.329 157.408C275.025 157.504 274.781 157.644 274.597 157.828C274.413 158.012 274.321 158.252 274.321 158.548C274.321 158.852 274.441 159.092 274.681 159.268C274.929 159.436 275.265 159.52 275.689 159.52ZM282.693 159.34C282.717 159.332 282.749 159.328 282.789 159.328C282.837 159.328 282.881 159.344 282.921 159.376C282.961 159.408 282.985 159.452 282.993 159.508L283.029 159.676C283.037 159.692 283.041 159.72 283.041 159.76C283.041 159.872 282.981 159.94 282.861 159.964C282.573 160.052 282.265 160.096 281.937 160.096C281.417 160.096 281.045 159.98 280.821 159.748C280.605 159.508 280.497 159.164 280.497 158.716V154.684H279.609C279.449 154.684 279.369 154.604 279.369 154.444V154.324C279.369 154.164 279.449 154.084 279.609 154.084H280.497V152.26C280.497 152.1 280.577 152.02 280.737 152.02H281.049C281.209 152.02 281.289 152.1 281.289 152.26V154.084H282.729C282.889 154.084 282.969 154.164 282.969 154.324V154.444C282.969 154.604 282.889 154.684 282.729 154.684H281.289V158.62C281.289 158.916 281.345 159.124 281.457 159.244C281.569 159.364 281.761 159.424 282.033 159.424C282.225 159.424 282.445 159.396 282.693 159.34Z" fill="#5C5C66"/>
</g>
<path d="M44.2 116.21C43.5467 116.21 42.9727 116.051 42.478 115.734C41.9927 115.417 41.6053 114.973 41.316 114.404C40.8587 113.499 40.63 112.374 40.63 111.03C40.63 109.677 40.8587 108.547 41.316 107.642C41.6053 107.073 41.9927 106.634 42.478 106.326C42.9727 106.009 43.5467 105.85 44.2 105.85C44.8533 105.85 45.4227 106.009 45.908 106.326C46.4027 106.634 46.7947 107.073 47.084 107.642C47.5413 108.547 47.77 109.677 47.77 111.03C47.77 112.374 47.5413 113.499 47.084 114.404C46.7947 114.973 46.4027 115.417 45.908 115.734C45.4227 116.051 44.8533 116.21 44.2 116.21ZM44.2 115.398C45.1147 115.398 45.8007 114.922 46.258 113.97C46.622 113.195 46.804 112.215 46.804 111.03C46.804 109.826 46.622 108.841 46.258 108.076C45.81 107.133 45.124 106.662 44.2 106.662C43.276 106.662 42.59 107.133 42.142 108.076C41.778 108.841 41.596 109.826 41.596 111.03C41.596 112.225 41.778 113.205 42.142 113.97C42.5993 114.922 43.2853 115.398 44.2 115.398Z" fill="#5C5C66"/>
<path d="M279.579 109.588C280.223 109.588 280.788 109.723 281.273 109.994C281.768 110.255 282.15 110.629 282.421 111.114C282.692 111.599 282.827 112.159 282.827 112.794C282.827 113.363 282.692 113.909 282.421 114.432C282.15 114.955 281.758 115.379 281.245 115.706C280.732 116.033 280.13 116.196 279.439 116.196C278.767 116.196 278.184 116.112 277.689 115.944C277.204 115.776 276.653 115.487 276.037 115.076C275.944 115.02 275.897 114.945 275.897 114.852C275.897 114.787 275.916 114.731 275.953 114.684L276.135 114.432C276.191 114.348 276.256 114.306 276.331 114.306C276.387 114.306 276.452 114.329 276.527 114.376C277.096 114.759 277.582 115.025 277.983 115.174C278.394 115.323 278.846 115.398 279.341 115.398C279.864 115.398 280.316 115.281 280.699 115.048C281.082 114.805 281.371 114.488 281.567 114.096C281.772 113.695 281.875 113.261 281.875 112.794C281.875 112.047 281.665 111.464 281.245 111.044C280.834 110.624 280.242 110.414 279.467 110.414C278.636 110.414 277.941 110.666 277.381 111.17C277.278 111.263 277.157 111.301 277.017 111.282L276.709 111.24C276.625 111.231 276.56 111.198 276.513 111.142C276.466 111.086 276.448 111.016 276.457 110.932L276.835 106.326C276.844 106.242 276.872 106.177 276.919 106.13C276.975 106.083 277.045 106.06 277.129 106.06H282.113C282.3 106.06 282.393 106.153 282.393 106.34V106.592C282.393 106.779 282.3 106.872 282.113 106.872H277.661L277.367 110.316C277.628 110.101 277.946 109.929 278.319 109.798C278.702 109.658 279.122 109.588 279.579 109.588ZM287.805 116.21C287.152 116.21 286.578 116.051 286.083 115.734C285.598 115.417 285.211 114.973 284.921 114.404C284.464 113.499 284.235 112.374 284.235 111.03C284.235 109.677 284.464 108.547 284.921 107.642C285.211 107.073 285.598 106.634 286.083 106.326C286.578 106.009 287.152 105.85 287.805 105.85C288.459 105.85 289.028 106.009 289.513 106.326C290.008 106.634 290.4 107.073 290.689 107.642C291.147 108.547 291.375 109.677 291.375 111.03C291.375 112.374 291.147 113.499 290.689 114.404C290.4 114.973 290.008 115.417 289.513 115.734C289.028 116.051 288.459 116.21 287.805 116.21ZM287.805 115.398C288.72 115.398 289.406 114.922 289.863 113.97C290.227 113.195 290.409 112.215 290.409 111.03C290.409 109.826 290.227 108.841 289.863 108.076C289.415 107.133 288.729 106.662 287.805 106.662C286.881 106.662 286.195 107.133 285.747 108.076C285.383 108.841 285.201 109.826 285.201 111.03C285.201 112.225 285.383 113.205 285.747 113.97C286.205 114.922 286.891 115.398 287.805 115.398Z" fill="#5C5C66"/>
<path d="M44.578 54.224C43.8127 54.224 43.1267 54.1167 42.52 53.902C41.9227 53.678 41.3067 53.3047 40.672 52.782C40.5413 52.6793 40.476 52.558 40.476 52.418C40.476 52.2967 40.5227 52.1847 40.616 52.082L40.938 51.704C41.0407 51.5733 41.1573 51.508 41.288 51.508C41.3907 51.508 41.5073 51.5593 41.638 51.662C42.198 52.11 42.6973 52.418 43.136 52.586C43.584 52.754 44.074 52.838 44.606 52.838C45.25 52.838 45.7727 52.6933 46.174 52.404C46.5753 52.1053 46.776 51.6993 46.776 51.186C46.776 50.85 46.6733 50.5887 46.468 50.402C46.2627 50.206 45.9967 50.0567 45.67 49.954C45.3527 49.8513 44.8347 49.716 44.116 49.548C43.248 49.3427 42.5713 49.1187 42.086 48.876C41.6007 48.6333 41.2507 48.344 41.036 48.008C40.8307 47.6627 40.728 47.2287 40.728 46.706C40.728 46.1553 40.8867 45.6607 41.204 45.222C41.5213 44.7833 41.9553 44.4427 42.506 44.2C43.066 43.9573 43.6913 43.836 44.382 43.836C45.082 43.836 45.698 43.9293 46.23 44.116C46.7713 44.3027 47.3127 44.606 47.854 45.026C47.994 45.138 48.064 45.2547 48.064 45.376C48.064 45.4787 48.0173 45.5907 47.924 45.712L47.616 46.076C47.504 46.2067 47.3873 46.272 47.266 46.272C47.154 46.272 47.0373 46.2253 46.916 46.132C46.468 45.7867 46.0527 45.5487 45.67 45.418C45.2873 45.2873 44.8533 45.222 44.368 45.222C43.752 45.222 43.2527 45.3573 42.87 45.628C42.4873 45.8987 42.296 46.2393 42.296 46.65C42.296 46.9487 42.3847 47.1867 42.562 47.364C42.7393 47.5413 42.996 47.686 43.332 47.798C43.668 47.91 44.186 48.0453 44.886 48.204C45.7353 48.4093 46.4073 48.6287 46.902 48.862C47.3967 49.086 47.7653 49.3753 48.008 49.73C48.2507 50.0847 48.372 50.5373 48.372 51.088C48.372 51.704 48.2133 52.25 47.896 52.726C47.5787 53.202 47.1353 53.5707 46.566 53.832C45.9967 54.0933 45.334 54.224 44.578 54.224ZM54.7511 52.236C54.8724 52.1333 54.9891 52.082 55.1011 52.082C55.2131 52.082 55.3297 52.1427 55.4511 52.264L55.6471 52.474C55.7497 52.5953 55.8011 52.712 55.8011 52.824C55.8011 52.9453 55.7404 53.062 55.6191 53.174C55.1897 53.5473 54.7604 53.8133 54.3311 53.972C53.9111 54.1307 53.4444 54.21 52.9311 54.21C52.2124 54.21 51.5871 54.0607 51.0551 53.762C50.5324 53.4633 50.1264 53.0433 49.8371 52.502C49.5571 51.9513 49.4171 51.3167 49.4171 50.598C49.4171 49.8887 49.5524 49.254 49.8231 48.694C50.1031 48.1247 50.4951 47.6813 50.9991 47.364C51.5124 47.0467 52.1097 46.888 52.7911 46.888C53.8084 46.888 54.5924 47.1913 55.1431 47.798C55.6937 48.3953 55.9691 49.2213 55.9691 50.276V50.402C55.9597 50.5513 55.9131 50.668 55.8291 50.752C55.7451 50.836 55.6237 50.878 55.4651 50.878H50.8731C50.9291 51.494 51.1297 51.998 51.4751 52.39C51.8297 52.7727 52.3244 52.964 52.9591 52.964C53.3044 52.964 53.6077 52.9127 53.8691 52.81C54.1304 52.698 54.4244 52.5067 54.7511 52.236ZM52.7631 48.064C52.2497 48.064 51.8344 48.218 51.5171 48.526C51.2091 48.8247 51.0084 49.2493 50.9151 49.8H54.5131C54.4757 49.2587 54.3077 48.834 54.0091 48.526C53.7104 48.218 53.2951 48.064 52.7631 48.064ZM60.1449 46.888C61.0782 46.888 61.7969 47.1073 62.3009 47.546C62.8049 47.9753 63.0569 48.5493 63.0569 49.268V53.51C63.0569 53.6593 63.0149 53.7807 62.9309 53.874C62.8469 53.958 62.7256 54 62.5669 54H62.2029C62.0536 54 61.9322 53.958 61.8389 53.874C61.7549 53.7807 61.7129 53.6593 61.7129 53.51V53.202C61.4889 53.5287 61.1809 53.7807 60.7889 53.958C60.3969 54.1353 59.9396 54.224 59.4169 54.224C58.6982 54.224 58.1056 54.0653 57.6389 53.748C57.1816 53.4213 56.9529 52.9313 56.9529 52.278C56.9529 51.55 57.2236 51.0133 57.7649 50.668C58.3156 50.3133 59.0762 50.0473 60.0469 49.87L61.6289 49.576V49.324C61.6289 48.9413 61.4936 48.6473 61.2229 48.442C60.9616 48.2273 60.6116 48.12 60.1729 48.12C59.7996 48.12 59.4729 48.1853 59.1929 48.316C58.9222 48.4373 58.6282 48.6427 58.3109 48.932C58.1896 49.0347 58.0729 49.086 57.9609 49.086C57.8489 49.086 57.7322 49.0347 57.6109 48.932L57.3869 48.736C57.2656 48.624 57.2049 48.5027 57.2049 48.372C57.2049 48.2507 57.2609 48.134 57.3729 48.022C57.7742 47.6393 58.1989 47.3547 58.6469 47.168C59.0949 46.9813 59.5942 46.888 60.1449 46.888ZM59.6269 53.034C60.1869 53.034 60.6582 52.8847 61.0409 52.586C61.4329 52.2873 61.6289 51.858 61.6289 51.298V50.654L60.4109 50.906C59.7296 51.046 59.2256 51.2047 58.8989 51.382C58.5722 51.5593 58.4089 51.83 58.4089 52.194C58.4089 52.4553 58.5162 52.6607 58.7309 52.81C58.9456 52.9593 59.2442 53.034 59.6269 53.034ZM67.934 52.824C67.962 52.8147 68.004 52.81 68.06 52.81C68.2934 52.81 68.4334 52.9453 68.48 53.216L68.522 53.44C68.5314 53.468 68.536 53.5147 68.536 53.58C68.536 53.8133 68.4054 53.9627 68.144 54.028C67.7707 54.112 67.43 54.154 67.122 54.154C66.4594 54.154 65.9787 54 65.68 53.692C65.3907 53.384 65.246 52.922 65.246 52.306V48.232H64.476C64.3267 48.232 64.2054 48.19 64.112 48.106C64.028 48.0127 63.986 47.8913 63.986 47.742V47.588C63.986 47.4293 64.028 47.308 64.112 47.224C64.2054 47.14 64.3267 47.098 64.476 47.098H65.246V45.362C65.246 45.2033 65.288 45.082 65.372 44.998C65.4654 44.914 65.5867 44.872 65.736 44.872H66.24C66.3987 44.872 66.52 44.914 66.604 44.998C66.688 45.082 66.73 45.2033 66.73 45.362V47.098H67.99C68.1487 47.098 68.27 47.14 68.354 47.224C68.438 47.308 68.48 47.4293 68.48 47.588V47.742C68.48 47.8913 68.438 48.0127 68.354 48.106C68.27 48.19 68.1487 48.232 67.99 48.232H66.73V52.124C66.73 52.3947 66.786 52.586 66.898 52.698C67.0194 52.81 67.2107 52.866 67.472 52.866C67.584 52.866 67.738 52.852 67.934 52.824ZM72.471 54.21C71.9017 54.21 71.393 54.14 70.945 54C70.5064 53.8507 70.0584 53.594 69.601 53.23C69.461 53.1273 69.391 53.0107 69.391 52.88C69.391 52.7773 69.4424 52.6653 69.545 52.544L69.755 52.306C69.867 52.1753 69.9884 52.11 70.119 52.11C70.2217 52.11 70.3337 52.1567 70.455 52.25C70.847 52.5393 71.1924 52.74 71.491 52.852C71.7897 52.9547 72.1257 53.006 72.499 53.006C72.9004 53.006 73.227 52.9267 73.479 52.768C73.7404 52.6 73.871 52.376 73.871 52.096C73.871 51.8813 73.7964 51.7133 73.647 51.592C73.507 51.4613 73.3204 51.3633 73.087 51.298C72.8537 51.2233 72.5084 51.1393 72.051 51.046C71.407 50.906 70.903 50.7567 70.539 50.598C70.1844 50.43 69.9277 50.22 69.769 49.968C69.6104 49.716 69.531 49.394 69.531 49.002C69.531 48.6007 69.643 48.2413 69.867 47.924C70.1004 47.6067 70.4224 47.3547 70.833 47.168C71.253 46.9813 71.743 46.888 72.303 46.888C72.807 46.888 73.255 46.944 73.647 47.056C74.0484 47.168 74.4404 47.3593 74.823 47.63C74.9724 47.742 75.047 47.868 75.047 48.008C75.047 48.1013 75.0004 48.2087 74.907 48.33L74.725 48.554C74.6224 48.6847 74.4964 48.75 74.347 48.75C74.235 48.75 74.1277 48.7127 74.025 48.638C73.717 48.4327 73.4324 48.2927 73.171 48.218C72.9097 48.134 72.6157 48.092 72.289 48.092C71.8877 48.092 71.5657 48.1713 71.323 48.33C71.0804 48.4887 70.959 48.694 70.959 48.946C70.959 49.114 71.015 49.2493 71.127 49.352C71.2484 49.4453 71.4164 49.5293 71.631 49.604C71.855 49.6693 72.205 49.7533 72.681 49.856C73.325 49.996 73.8337 50.1547 74.207 50.332C74.5897 50.5 74.8697 50.7193 75.047 50.99C75.2337 51.2513 75.327 51.592 75.327 52.012C75.327 52.6653 75.0657 53.1973 74.543 53.608C74.0297 54.0093 73.339 54.21 72.471 54.21Z" fill="#1B1B1F"/>
<rect x="40" y="78" width="252" height="4" rx="2" fill="#DEDEE3"/>
<rect x="54" y="77" width="224" height="6" rx="3" fill="#0063FB"/>
<rect x="264" y="66" width="28" height="28" rx="14" fill="#0063FB"/>
<rect x="40" y="66" width="28" height="28" rx="14" fill="#0063FB"/>
<defs>
<clipPath id="clip0_5449_12766">
<rect width="98" height="22" fill="white" transform="translate(48 145)"/>
</clipPath>
<clipPath id="clip1_5449_12766">
<rect width="98" height="22" fill="white" transform="translate(186 145)"/>
</clipPath>
</defs>
</svg>
