<svg width="332" height="220" viewBox="0 0 332 220" fill="none" xmlns="http://www.w3.org/2000/svg">
<rect x="40.5" y="132.5" width="113" height="47" rx="3.5" fill="white"/>
<rect x="40.5" y="132.5" width="113" height="47" rx="3.5" stroke="#84848F"/>
<g clip-path="url(#clip0_5485_16354)">
<path d="M52.8 161.24C52.0533 161.24 51.3973 161.059 50.832 160.696C50.2773 160.333 49.8347 159.827 49.504 159.176C48.9813 158.141 48.72 156.856 48.72 155.32C48.72 153.773 48.9813 152.483 49.504 151.448C49.8347 150.797 50.2773 150.296 50.832 149.944C51.3973 149.581 52.0533 149.4 52.8 149.4C53.5467 149.4 54.1973 149.581 54.752 149.944C55.3173 150.296 55.7653 150.797 56.096 151.448C56.6187 152.483 56.88 153.773 56.88 155.32C56.88 156.856 56.6187 158.141 56.096 159.176C55.7653 159.827 55.3173 160.333 54.752 160.696C54.1973 161.059 53.5467 161.24 52.8 161.24ZM52.8 160.312C53.8453 160.312 54.6293 159.768 55.152 158.68C55.568 157.795 55.776 156.675 55.776 155.32C55.776 153.944 55.568 152.819 55.152 151.944C54.64 150.867 53.856 150.328 52.8 150.328C51.744 150.328 50.96 150.867 50.448 151.944C50.032 152.819 49.824 153.944 49.824 155.32C49.824 156.685 50.032 157.805 50.448 158.68C50.9707 159.768 51.7547 160.312 52.8 160.312Z" fill="#1B1B1F"/>
<path d="M138.9 153.94C139.54 153.94 140.028 154.124 140.364 154.492C140.708 154.852 140.88 155.316 140.88 155.884V159.76C140.88 159.92 140.8 160 140.64 160H140.328C140.168 160 140.088 159.92 140.088 159.76V156.1C140.088 155.62 139.976 155.252 139.752 154.996C139.536 154.74 139.212 154.612 138.78 154.612C138.324 154.612 137.96 154.764 137.688 155.068C137.416 155.372 137.28 155.764 137.28 156.244V159.76C137.28 159.92 137.2 160 137.04 160H136.728C136.568 160 136.488 159.92 136.488 159.76V156.1C136.488 155.62 136.376 155.252 136.152 154.996C135.936 154.74 135.608 154.612 135.168 154.612C134.76 154.612 134.42 154.74 134.148 154.996C133.884 155.252 133.728 155.588 133.68 156.004V159.76C133.68 159.92 133.6 160 133.44 160H133.128C132.968 160 132.888 159.92 132.888 159.76V154.324C132.888 154.164 132.968 154.084 133.128 154.084H133.392C133.552 154.084 133.632 154.164 133.632 154.324V154.816C133.992 154.232 134.564 153.94 135.348 153.94C135.756 153.94 136.104 154.032 136.392 154.216C136.688 154.392 136.908 154.632 137.052 154.936C137.476 154.272 138.092 153.94 138.9 153.94ZM145.422 155.008H142.05V154.564L143.478 153.136C143.782 152.832 144.026 152.572 144.21 152.356C144.402 152.14 144.542 151.94 144.63 151.756C144.718 151.572 144.762 151.376 144.762 151.168C144.762 150.88 144.674 150.656 144.498 150.496C144.33 150.328 144.086 150.244 143.766 150.244C143.518 150.244 143.29 150.288 143.082 150.376C142.882 150.464 142.674 150.588 142.458 150.748L142.17 150.352C142.394 150.16 142.638 150.012 142.902 149.908C143.174 149.804 143.462 149.752 143.766 149.752C144.262 149.752 144.65 149.88 144.93 150.136C145.21 150.384 145.35 150.72 145.35 151.144C145.35 151.416 145.29 151.664 145.17 151.888C145.058 152.112 144.894 152.344 144.678 152.584C144.462 152.824 144.198 153.096 143.886 153.4L142.782 154.492H145.422V155.008Z" fill="#5C5C66"/>
</g>
<rect x="178.5" y="132.5" width="113" height="47" rx="3.5" fill="white"/>
<rect x="178.5" y="132.5" width="113" height="47" rx="3.5" stroke="#84848F"/>
<g clip-path="url(#clip1_5485_16354)">
<path d="M196.304 149.896C196.368 149.725 196.491 149.64 196.672 149.64H197.92C198.133 149.64 198.24 149.747 198.24 149.96V160.68C198.24 160.893 198.133 161 197.92 161H197.456C197.243 161 197.136 160.893 197.136 160.68V155.368C197.136 154.227 197.147 152.579 197.168 150.424C196.731 151.672 196.133 153.32 195.376 155.368L193.408 160.744C193.344 160.915 193.221 161 193.04 161H192.576C192.395 161 192.272 160.915 192.208 160.744L190.192 155.352C189.765 154.243 189.173 152.6 188.416 150.424C188.437 152.579 188.448 154.232 188.448 155.384V160.68C188.448 160.893 188.341 161 188.128 161H187.696C187.483 161 187.376 160.893 187.376 160.68V149.96C187.376 149.747 187.483 149.64 187.696 149.64H188.928C189.109 149.64 189.232 149.725 189.296 149.896L191.12 154.808C191.963 157.101 192.528 158.717 192.816 159.656C193.083 158.76 193.541 157.421 194.192 155.64C194.235 155.523 194.283 155.395 194.336 155.256C194.389 155.117 194.443 154.968 194.496 154.808L196.304 149.896ZM203.833 152.92C204.804 152.92 205.561 153.155 206.105 153.624C206.649 154.083 206.921 154.691 206.921 155.448V160.68C206.921 160.893 206.815 161 206.601 161H206.281C206.068 161 205.961 160.893 205.961 160.68V159.96C205.695 160.387 205.316 160.707 204.825 160.92C204.345 161.133 203.807 161.24 203.209 161.24C202.377 161.24 201.7 161.064 201.177 160.712C200.655 160.36 200.393 159.816 200.393 159.08C200.393 158.493 200.559 158.024 200.889 157.672C201.22 157.309 201.652 157.037 202.185 156.856C202.719 156.664 203.385 156.493 204.185 156.344L205.913 156.04V155.528C205.913 154.984 205.727 154.563 205.353 154.264C204.98 153.955 204.489 153.8 203.881 153.8C203.423 153.8 203.007 153.885 202.633 154.056C202.26 154.227 201.86 154.52 201.433 154.936C201.359 155.011 201.279 155.048 201.193 155.048C201.119 155.048 201.049 155.016 200.985 154.952L200.777 154.76C200.703 154.685 200.665 154.605 200.665 154.52C200.665 154.424 200.703 154.339 200.777 154.264C201.225 153.795 201.695 153.453 202.185 153.24C202.687 153.027 203.236 152.92 203.833 152.92ZM203.257 160.36C204.025 160.36 204.66 160.157 205.161 159.752C205.663 159.347 205.913 158.829 205.913 158.2V156.856L204.425 157.144C203.732 157.283 203.183 157.416 202.777 157.544C202.372 157.672 202.047 157.859 201.801 158.104C201.556 158.349 201.433 158.669 201.433 159.064C201.433 159.469 201.593 159.789 201.913 160.024C202.244 160.248 202.692 160.36 203.257 160.36ZM215.054 160.616C215.097 160.691 215.118 160.755 215.118 160.808C215.118 160.936 215.033 161 214.862 161H214.382C214.222 161 214.094 160.931 213.998 160.792L211.822 157.592L209.662 160.792C209.566 160.931 209.438 161 209.278 161H208.83C208.745 161 208.675 160.984 208.622 160.952C208.579 160.909 208.558 160.861 208.558 160.808C208.558 160.733 208.579 160.669 208.622 160.616L211.214 156.888L208.83 153.496C208.787 153.443 208.766 153.384 208.766 153.32C208.766 153.181 208.857 153.112 209.038 153.112H209.502C209.662 153.112 209.79 153.181 209.886 153.32L211.838 156.184L213.774 153.32C213.87 153.181 213.998 153.112 214.158 153.112H214.59C214.675 153.112 214.739 153.133 214.782 153.176C214.835 153.208 214.862 153.251 214.862 153.304C214.862 153.379 214.841 153.443 214.798 153.496L212.462 156.84L215.054 160.616Z" fill="#1B1B1F"/>
<path d="M276.9 153.94C277.54 153.94 278.028 154.124 278.364 154.492C278.708 154.852 278.88 155.316 278.88 155.884V159.76C278.88 159.92 278.8 160 278.64 160H278.328C278.168 160 278.088 159.92 278.088 159.76V156.1C278.088 155.62 277.976 155.252 277.752 154.996C277.536 154.74 277.212 154.612 276.78 154.612C276.324 154.612 275.96 154.764 275.688 155.068C275.416 155.372 275.28 155.764 275.28 156.244V159.76C275.28 159.92 275.2 160 275.04 160H274.728C274.568 160 274.488 159.92 274.488 159.76V156.1C274.488 155.62 274.376 155.252 274.152 154.996C273.936 154.74 273.608 154.612 273.168 154.612C272.76 154.612 272.42 154.74 272.148 154.996C271.884 155.252 271.728 155.588 271.68 156.004V159.76C271.68 159.92 271.6 160 271.44 160H271.128C270.968 160 270.888 159.92 270.888 159.76V154.324C270.888 154.164 270.968 154.084 271.128 154.084H271.392C271.552 154.084 271.632 154.164 271.632 154.324V154.816C271.992 154.232 272.564 153.94 273.348 153.94C273.756 153.94 274.104 154.032 274.392 154.216C274.688 154.392 274.908 154.632 275.052 154.936C275.476 154.272 276.092 153.94 276.9 153.94ZM283.422 155.008H280.05V154.564L281.478 153.136C281.782 152.832 282.026 152.572 282.21 152.356C282.402 152.14 282.542 151.94 282.63 151.756C282.718 151.572 282.762 151.376 282.762 151.168C282.762 150.88 282.674 150.656 282.498 150.496C282.33 150.328 282.086 150.244 281.766 150.244C281.518 150.244 281.29 150.288 281.082 150.376C280.882 150.464 280.674 150.588 280.458 150.748L280.17 150.352C280.394 150.16 280.638 150.012 280.902 149.908C281.174 149.804 281.462 149.752 281.766 149.752C282.262 149.752 282.65 149.88 282.93 150.136C283.21 150.384 283.35 150.72 283.35 151.144C283.35 151.416 283.29 151.664 283.17 151.888C283.058 152.112 282.894 152.344 282.678 152.584C282.462 152.824 282.198 153.096 281.886 153.4L280.782 154.492H283.422V155.008Z" fill="#5C5C66"/>
</g>
<path d="M44.2 116.21C43.5467 116.21 42.9727 116.051 42.478 115.734C41.9927 115.417 41.6053 114.973 41.316 114.404C40.8587 113.499 40.63 112.374 40.63 111.03C40.63 109.677 40.8587 108.547 41.316 107.642C41.6053 107.073 41.9927 106.634 42.478 106.326C42.9727 106.009 43.5467 105.85 44.2 105.85C44.8533 105.85 45.4227 106.009 45.908 106.326C46.4027 106.634 46.7947 107.073 47.084 107.642C47.5413 108.547 47.77 109.677 47.77 111.03C47.77 112.374 47.5413 113.499 47.084 114.404C46.7947 114.973 46.4027 115.417 45.908 115.734C45.4227 116.051 44.8533 116.21 44.2 116.21ZM44.2 115.398C45.1147 115.398 45.8007 114.922 46.258 113.97C46.622 113.195 46.804 112.215 46.804 111.03C46.804 109.826 46.622 108.841 46.258 108.076C45.81 107.133 45.124 106.662 44.2 106.662C43.276 106.662 42.59 107.133 42.142 108.076C41.778 108.841 41.596 109.826 41.596 111.03C41.596 112.225 41.778 113.205 42.142 113.97C42.5993 114.922 43.2853 115.398 44.2 115.398Z" fill="#5C5C66"/>
<path d="M265.644 115.188C265.83 115.188 265.924 115.281 265.924 115.468V115.72C265.924 115.907 265.83 116 265.644 116H259.428C259.241 116 259.148 115.907 259.148 115.72V115.664C259.148 114.983 259.264 114.409 259.498 113.942C259.74 113.466 260.053 113.065 260.436 112.738C260.828 112.411 261.364 112.038 262.046 111.618C262.111 111.571 262.354 111.427 262.774 111.184C263.268 110.904 263.656 110.661 263.936 110.456C264.216 110.251 264.449 109.999 264.636 109.7C264.822 109.392 264.916 109.033 264.916 108.622C264.916 107.997 264.706 107.516 264.286 107.18C263.866 106.844 263.357 106.676 262.76 106.676C262.181 106.676 261.7 106.797 261.318 107.04C260.935 107.283 260.492 107.703 259.988 108.3C259.922 108.384 259.843 108.426 259.75 108.426C259.703 108.426 259.647 108.403 259.582 108.356L259.344 108.174C259.26 108.099 259.218 108.025 259.218 107.95C259.218 107.903 259.241 107.847 259.288 107.782C259.782 107.157 260.296 106.681 260.828 106.354C261.369 106.027 262.004 105.864 262.732 105.864C263.338 105.864 263.88 105.981 264.356 106.214C264.832 106.438 265.2 106.76 265.462 107.18C265.732 107.591 265.868 108.057 265.868 108.58C265.868 109.131 265.751 109.607 265.518 110.008C265.294 110.4 265.009 110.727 264.664 110.988C264.318 111.24 263.852 111.539 263.264 111.884L262.564 112.304C261.976 112.668 261.528 112.967 261.22 113.2C260.912 113.424 260.655 113.699 260.45 114.026C260.244 114.343 260.123 114.731 260.086 115.188H265.644ZM270.825 116.21C270.172 116.21 269.598 116.051 269.103 115.734C268.618 115.417 268.23 114.973 267.941 114.404C267.484 113.499 267.255 112.374 267.255 111.03C267.255 109.677 267.484 108.547 267.941 107.642C268.23 107.073 268.618 106.634 269.103 106.326C269.598 106.009 270.172 105.85 270.825 105.85C271.478 105.85 272.048 106.009 272.533 106.326C273.028 106.634 273.42 107.073 273.709 107.642C274.166 108.547 274.395 109.677 274.395 111.03C274.395 112.374 274.166 113.499 273.709 114.404C273.42 114.973 273.028 115.417 272.533 115.734C272.048 116.051 271.478 116.21 270.825 116.21ZM270.825 115.398C271.74 115.398 272.426 114.922 272.883 113.97C273.247 113.195 273.429 112.215 273.429 111.03C273.429 109.826 273.247 108.841 272.883 108.076C272.435 107.133 271.749 106.662 270.825 106.662C269.901 106.662 269.215 107.133 268.767 108.076C268.403 108.841 268.221 109.826 268.221 111.03C268.221 112.225 268.403 113.205 268.767 113.97C269.224 114.922 269.91 115.398 270.825 115.398ZM279.411 116.21C278.758 116.21 278.184 116.051 277.689 115.734C277.204 115.417 276.816 114.973 276.527 114.404C276.07 113.499 275.841 112.374 275.841 111.03C275.841 109.677 276.07 108.547 276.527 107.642C276.816 107.073 277.204 106.634 277.689 106.326C278.184 106.009 278.758 105.85 279.411 105.85C280.064 105.85 280.634 106.009 281.119 106.326C281.614 106.634 282.006 107.073 282.295 107.642C282.752 108.547 282.981 109.677 282.981 111.03C282.981 112.374 282.752 113.499 282.295 114.404C282.006 114.973 281.614 115.417 281.119 115.734C280.634 116.051 280.064 116.21 279.411 116.21ZM279.411 115.398C280.326 115.398 281.012 114.922 281.469 113.97C281.833 113.195 282.015 112.215 282.015 111.03C282.015 109.826 281.833 108.841 281.469 108.076C281.021 107.133 280.335 106.662 279.411 106.662C278.487 106.662 277.801 107.133 277.353 108.076C276.989 108.841 276.807 109.826 276.807 111.03C276.807 112.225 276.989 113.205 277.353 113.97C277.81 114.922 278.496 115.398 279.411 115.398ZM287.679 115.3C287.493 115.3 287.399 115.207 287.399 115.02V112.052H284.445C284.259 112.052 284.165 111.959 284.165 111.772V111.548C284.165 111.361 284.259 111.268 284.445 111.268H287.399V108.3C287.399 108.113 287.493 108.02 287.679 108.02H287.931C288.118 108.02 288.211 108.113 288.211 108.3V111.268H291.165C291.352 111.268 291.445 111.361 291.445 111.548V111.772C291.445 111.959 291.352 112.052 291.165 112.052H288.211V115.02C288.211 115.207 288.118 115.3 287.931 115.3H287.679Z" fill="#5C5C66"/>
<path d="M41.568 54C41.4187 54 41.2973 53.958 41.204 53.874C41.12 53.7807 41.078 53.6593 41.078 53.51V44.55C41.078 44.3913 41.12 44.27 41.204 44.186C41.2973 44.102 41.4187 44.06 41.568 44.06H45.586C46.5753 44.06 47.364 44.3353 47.952 44.886C48.54 45.4273 48.834 46.1693 48.834 47.112C48.834 48.0547 48.54 48.7967 47.952 49.338C47.364 49.8793 46.5753 50.15 45.586 50.15H42.674V53.51C42.674 53.6593 42.632 53.7807 42.548 53.874C42.464 53.958 42.3427 54 42.184 54H41.568ZM45.334 48.82C45.9313 48.82 46.398 48.6753 46.734 48.386C47.0793 48.0873 47.252 47.6627 47.252 47.112C47.252 46.552 47.0793 46.1273 46.734 45.838C46.398 45.5393 45.9313 45.39 45.334 45.39H42.674V48.82H45.334ZM53.2589 47.028C53.4642 47.028 53.6742 47.0513 53.8889 47.098C54.1409 47.154 54.2669 47.3033 54.2669 47.546C54.2669 47.6113 54.2622 47.658 54.2529 47.686L54.1829 48.022C54.1269 48.2833 53.9869 48.414 53.7629 48.414L53.6369 48.4C53.4689 48.372 53.3195 48.358 53.1889 48.358C52.7222 48.358 52.3442 48.5447 52.0549 48.918C51.7749 49.282 51.6349 49.7907 51.6349 50.444V53.51C51.6349 53.6593 51.5929 53.7807 51.5089 53.874C51.4249 53.958 51.3035 54 51.1449 54H50.6409C50.4915 54 50.3702 53.958 50.2769 53.874C50.1929 53.7807 50.1509 53.6593 50.1509 53.51V47.588C50.1509 47.4293 50.1929 47.308 50.2769 47.224C50.3702 47.14 50.4915 47.098 50.6409 47.098H51.0469C51.2055 47.098 51.3269 47.14 51.4109 47.224C51.4949 47.308 51.5369 47.4293 51.5369 47.588V48.134C51.7049 47.7887 51.9335 47.518 52.2229 47.322C52.5122 47.126 52.8575 47.028 53.2589 47.028ZM58.1261 54.21C57.4447 54.21 56.8381 54.056 56.3061 53.748C55.7834 53.44 55.3727 53.0107 55.0741 52.46C54.7754 51.9 54.6261 51.2607 54.6261 50.542C54.6261 49.8233 54.7754 49.1887 55.0741 48.638C55.3727 48.0873 55.7834 47.658 56.3061 47.35C56.8381 47.042 57.4447 46.888 58.1261 46.888C58.7981 46.888 59.4001 47.042 59.9321 47.35C60.4641 47.658 60.8794 48.092 61.1781 48.652C61.4767 49.2027 61.6261 49.8327 61.6261 50.542C61.6261 51.2607 61.4767 51.9 61.1781 52.46C60.8794 53.0107 60.4641 53.44 59.9321 53.748C59.4001 54.056 58.7981 54.21 58.1261 54.21ZM58.1261 52.964C58.7234 52.964 59.2041 52.7447 59.5681 52.306C59.9321 51.858 60.1141 51.27 60.1141 50.542C60.1141 49.8233 59.9321 49.2447 59.5681 48.806C59.2041 48.3673 58.7234 48.148 58.1261 48.148C57.5287 48.148 57.0481 48.3673 56.6841 48.806C56.3201 49.2447 56.1381 49.8233 56.1381 50.542C56.1381 51.27 56.3201 51.858 56.6841 52.306C57.0481 52.7447 57.5287 52.964 58.1261 52.964ZM66.6021 46.916C67.1901 46.916 67.7127 47.0653 68.1701 47.364C68.6367 47.6627 69.0007 48.0873 69.2621 48.638C69.5234 49.1887 69.6541 49.8233 69.6541 50.542C69.6541 51.27 69.5234 51.9093 69.2621 52.46C69.0007 53.0107 68.6367 53.4353 68.1701 53.734C67.7034 54.0327 67.1807 54.182 66.6021 54.182C65.6314 54.182 64.9034 53.846 64.4181 53.174V55.988C64.4181 56.1467 64.3761 56.268 64.2921 56.352C64.2081 56.436 64.0867 56.478 63.9281 56.478H63.4241C63.2747 56.478 63.1534 56.436 63.0601 56.352C62.9761 56.268 62.9341 56.1467 62.9341 55.988V47.588C62.9341 47.4293 62.9761 47.308 63.0601 47.224C63.1534 47.14 63.2747 47.098 63.4241 47.098H63.8301C63.9887 47.098 64.1101 47.14 64.1941 47.224C64.2781 47.308 64.3201 47.4293 64.3201 47.588V48.106C64.8147 47.3127 65.5754 46.916 66.6021 46.916ZM66.2941 52.894C66.8541 52.894 67.3021 52.684 67.6381 52.264C67.9741 51.8347 68.1421 51.2607 68.1421 50.542C68.1421 49.8327 67.9741 49.2633 67.6381 48.834C67.3114 48.4047 66.8681 48.19 66.3081 48.19C65.7387 48.19 65.2721 48.4 64.9081 48.82C64.5441 49.24 64.3621 49.814 64.3621 50.542C64.3621 51.27 64.5441 51.844 64.9081 52.264C65.2721 52.684 65.7341 52.894 66.2941 52.894ZM76.0245 52.236C76.1458 52.1333 76.2625 52.082 76.3745 52.082C76.4865 52.082 76.6032 52.1427 76.7245 52.264L76.9205 52.474C77.0232 52.5953 77.0745 52.712 77.0745 52.824C77.0745 52.9453 77.0138 53.062 76.8925 53.174C76.4632 53.5473 76.0338 53.8133 75.6045 53.972C75.1845 54.1307 74.7178 54.21 74.2045 54.21C73.4858 54.21 72.8605 54.0607 72.3285 53.762C71.8058 53.4633 71.3998 53.0433 71.1105 52.502C70.8305 51.9513 70.6905 51.3167 70.6905 50.598C70.6905 49.8887 70.8258 49.254 71.0965 48.694C71.3765 48.1247 71.7685 47.6813 72.2725 47.364C72.7858 47.0467 73.3832 46.888 74.0645 46.888C75.0818 46.888 75.8658 47.1913 76.4165 47.798C76.9672 48.3953 77.2425 49.2213 77.2425 50.276V50.402C77.2332 50.5513 77.1865 50.668 77.1025 50.752C77.0185 50.836 76.8972 50.878 76.7385 50.878H72.1465C72.2025 51.494 72.4032 51.998 72.7485 52.39C73.1032 52.7727 73.5978 52.964 74.2325 52.964C74.5778 52.964 74.8812 52.9127 75.1425 52.81C75.4038 52.698 75.6978 52.5067 76.0245 52.236ZM74.0365 48.064C73.5232 48.064 73.1078 48.218 72.7905 48.526C72.4825 48.8247 72.2818 49.2493 72.1885 49.8H75.7865C75.7492 49.2587 75.5812 48.834 75.2825 48.526C74.9838 48.218 74.5685 48.064 74.0365 48.064ZM81.71 47.028C81.9154 47.028 82.1254 47.0513 82.34 47.098C82.592 47.154 82.718 47.3033 82.718 47.546C82.718 47.6113 82.7134 47.658 82.704 47.686L82.634 48.022C82.578 48.2833 82.438 48.414 82.214 48.414L82.088 48.4C81.92 48.372 81.7707 48.358 81.64 48.358C81.1734 48.358 80.7954 48.5447 80.506 48.918C80.226 49.282 80.086 49.7907 80.086 50.444V53.51C80.086 53.6593 80.044 53.7807 79.96 53.874C79.876 53.958 79.7547 54 79.596 54H79.092C78.9427 54 78.8214 53.958 78.728 53.874C78.644 53.7807 78.602 53.6593 78.602 53.51V47.588C78.602 47.4293 78.644 47.308 78.728 47.224C78.8214 47.14 78.9427 47.098 79.092 47.098H79.498C79.6567 47.098 79.778 47.14 79.862 47.224C79.946 47.308 79.988 47.4293 79.988 47.588V48.134C80.156 47.7887 80.3847 47.518 80.674 47.322C80.9634 47.126 81.3087 47.028 81.71 47.028ZM87.2934 52.824C87.3214 52.8147 87.3634 52.81 87.4194 52.81C87.6528 52.81 87.7928 52.9453 87.8394 53.216L87.8814 53.44C87.8908 53.468 87.8954 53.5147 87.8954 53.58C87.8954 53.8133 87.7648 53.9627 87.5034 54.028C87.1301 54.112 86.7894 54.154 86.4814 54.154C85.8188 54.154 85.3381 54 85.0394 53.692C84.7501 53.384 84.6054 52.922 84.6054 52.306V48.232H83.8354C83.6861 48.232 83.5648 48.19 83.4714 48.106C83.3874 48.0127 83.3454 47.8913 83.3454 47.742V47.588C83.3454 47.4293 83.3874 47.308 83.4714 47.224C83.5648 47.14 83.6861 47.098 83.8354 47.098H84.6054V45.362C84.6054 45.2033 84.6474 45.082 84.7314 44.998C84.8248 44.914 84.9461 44.872 85.0954 44.872H85.5994C85.7581 44.872 85.8794 44.914 85.9634 44.998C86.0474 45.082 86.0894 45.2033 86.0894 45.362V47.098H87.3494C87.5081 47.098 87.6294 47.14 87.7134 47.224C87.7974 47.308 87.8394 47.4293 87.8394 47.588V47.742C87.8394 47.8913 87.7974 48.0127 87.7134 48.106C87.6294 48.19 87.5081 48.232 87.3494 48.232H86.0894V52.124C86.0894 52.3947 86.1454 52.586 86.2574 52.698C86.3788 52.81 86.5701 52.866 86.8314 52.866C86.9434 52.866 87.0974 52.852 87.2934 52.824ZM93.4531 47.504C93.5371 47.2333 93.7191 47.098 93.9991 47.098H94.5031C94.6431 47.098 94.7504 47.1307 94.8251 47.196C94.8998 47.2613 94.9371 47.35 94.9371 47.462C94.9371 47.518 94.9231 47.5833 94.8951 47.658L92.3891 54.854C92.1651 55.5073 91.8851 55.9693 91.5491 56.24C91.2224 56.52 90.7558 56.66 90.1491 56.66C89.8691 56.66 89.6311 56.6413 89.4351 56.604C89.3044 56.5947 89.2064 56.548 89.1411 56.464C89.0758 56.3893 89.0431 56.296 89.0431 56.184C89.0431 56.1187 89.0478 56.0673 89.0571 56.03L89.0991 55.848C89.1644 55.5867 89.3044 55.456 89.5191 55.456C89.6031 55.456 89.6824 55.4607 89.7571 55.47C89.8318 55.4793 89.9064 55.484 89.9811 55.484C90.2518 55.484 90.4758 55.414 90.6531 55.274C90.8398 55.134 90.9938 54.8773 91.1151 54.504L91.1571 54.392L88.7631 47.658C88.7351 47.5833 88.7211 47.5133 88.7211 47.448C88.7211 47.336 88.7584 47.252 88.8331 47.196C88.9171 47.1307 89.0291 47.098 89.1691 47.098H89.7011C89.9904 47.098 90.1771 47.2333 90.2611 47.504L90.8071 49.142C91.2178 50.318 91.5678 51.396 91.8571 52.376L92.2631 51.13C92.3284 50.934 92.4264 50.626 92.5571 50.206C92.6878 49.786 92.8044 49.4267 92.9071 49.128L93.4531 47.504ZM101.797 54.21C101.228 54.21 100.719 54.14 100.271 54C99.8325 53.8507 99.3845 53.594 98.9272 53.23C98.7872 53.1273 98.7172 53.0107 98.7172 52.88C98.7172 52.7773 98.7685 52.6653 98.8712 52.544L99.0812 52.306C99.1932 52.1753 99.3145 52.11 99.4452 52.11C99.5479 52.11 99.6599 52.1567 99.7812 52.25C100.173 52.5393 100.519 52.74 100.817 52.852C101.116 52.9547 101.452 53.006 101.825 53.006C102.227 53.006 102.553 52.9267 102.805 52.768C103.067 52.6 103.197 52.376 103.197 52.096C103.197 51.8813 103.123 51.7133 102.973 51.592C102.833 51.4613 102.647 51.3633 102.413 51.298C102.18 51.2233 101.835 51.1393 101.377 51.046C100.733 50.906 100.229 50.7567 99.8652 50.598C99.5105 50.43 99.2539 50.22 99.0952 49.968C98.9365 49.716 98.8572 49.394 98.8572 49.002C98.8572 48.6007 98.9692 48.2413 99.1932 47.924C99.4265 47.6067 99.7485 47.3547 100.159 47.168C100.579 46.9813 101.069 46.888 101.629 46.888C102.133 46.888 102.581 46.944 102.973 47.056C103.375 47.168 103.767 47.3593 104.149 47.63C104.299 47.742 104.373 47.868 104.373 48.008C104.373 48.1013 104.327 48.2087 104.233 48.33L104.051 48.554C103.949 48.6847 103.823 48.75 103.673 48.75C103.561 48.75 103.454 48.7127 103.351 48.638C103.043 48.4327 102.759 48.2927 102.497 48.218C102.236 48.134 101.942 48.092 101.615 48.092C101.214 48.092 100.892 48.1713 100.649 48.33C100.407 48.4887 100.285 48.694 100.285 48.946C100.285 49.114 100.341 49.2493 100.453 49.352C100.575 49.4453 100.743 49.5293 100.957 49.604C101.181 49.6693 101.531 49.7533 102.007 49.856C102.651 49.996 103.16 50.1547 103.533 50.332C103.916 50.5 104.196 50.7193 104.373 50.99C104.56 51.2513 104.653 51.592 104.653 52.012C104.653 52.6653 104.392 53.1973 103.869 53.608C103.356 54.0093 102.665 54.21 101.797 54.21ZM106.688 45.754C106.417 45.754 106.189 45.6653 106.002 45.488C105.815 45.3013 105.722 45.082 105.722 44.83C105.722 44.5687 105.815 44.3493 106.002 44.172C106.189 43.9947 106.417 43.906 106.688 43.906C106.959 43.906 107.187 43.9947 107.374 44.172C107.561 44.3493 107.654 44.5687 107.654 44.83C107.654 45.082 107.561 45.3013 107.374 45.488C107.187 45.6653 106.959 45.754 106.688 45.754ZM106.422 54C106.273 54 106.151 53.958 106.058 53.874C105.974 53.7807 105.932 53.6593 105.932 53.51V47.588C105.932 47.4293 105.974 47.308 106.058 47.224C106.151 47.14 106.273 47.098 106.422 47.098H106.926C107.085 47.098 107.206 47.14 107.29 47.224C107.374 47.308 107.416 47.4293 107.416 47.588V53.51C107.416 53.6593 107.374 53.7807 107.29 53.874C107.206 53.958 107.085 54 106.926 54H106.422ZM113.919 47.098C114.078 47.098 114.199 47.14 114.283 47.224C114.367 47.308 114.409 47.4293 114.409 47.588V47.854C114.409 48.0873 114.335 48.2927 114.185 48.47L110.601 52.782H113.919C114.078 52.782 114.199 52.824 114.283 52.908C114.367 52.992 114.409 53.1133 114.409 53.272V53.51C114.409 53.6593 114.367 53.7807 114.283 53.874C114.199 53.958 114.078 54 113.919 54H109.257C109.108 54 108.987 53.958 108.893 53.874C108.809 53.7807 108.767 53.6593 108.767 53.51V53.23C108.767 52.9967 108.842 52.7913 108.991 52.614L112.589 48.302H109.495C109.346 48.302 109.225 48.26 109.131 48.176C109.047 48.0827 109.005 47.9613 109.005 47.812V47.588C109.005 47.4293 109.047 47.308 109.131 47.224C109.225 47.14 109.346 47.098 109.495 47.098H113.919ZM120.54 52.236C120.661 52.1333 120.778 52.082 120.89 52.082C121.002 52.082 121.119 52.1427 121.24 52.264L121.436 52.474C121.539 52.5953 121.59 52.712 121.59 52.824C121.59 52.9453 121.529 53.062 121.408 53.174C120.979 53.5473 120.549 53.8133 120.12 53.972C119.7 54.1307 119.233 54.21 118.72 54.21C118.001 54.21 117.376 54.0607 116.844 53.762C116.321 53.4633 115.915 53.0433 115.626 52.502C115.346 51.9513 115.206 51.3167 115.206 50.598C115.206 49.8887 115.341 49.254 115.612 48.694C115.892 48.1247 116.284 47.6813 116.788 47.364C117.301 47.0467 117.899 46.888 118.58 46.888C119.597 46.888 120.381 47.1913 120.932 47.798C121.483 48.3953 121.758 49.2213 121.758 50.276V50.402C121.749 50.5513 121.702 50.668 121.618 50.752C121.534 50.836 121.413 50.878 121.254 50.878H116.662C116.718 51.494 116.919 51.998 117.264 52.39C117.619 52.7727 118.113 52.964 118.748 52.964C119.093 52.964 119.397 52.9127 119.658 52.81C119.919 52.698 120.213 52.5067 120.54 52.236ZM118.552 48.064C118.039 48.064 117.623 48.218 117.306 48.526C116.998 48.8247 116.797 49.2493 116.704 49.8H120.302C120.265 49.2587 120.097 48.834 119.798 48.526C119.499 48.218 119.084 48.064 118.552 48.064Z" fill="#1B1B1F"/>
<rect x="40" y="78" width="252" height="4" rx="2" fill="#DEDEE3"/>
<rect x="54" y="77" width="224" height="6" rx="3" fill="#0063FB"/>
<rect x="264" y="66" width="28" height="28" rx="14" fill="#0063FB"/>
<rect x="40" y="66" width="28" height="28" rx="14" fill="#0063FB"/>
<defs>
<clipPath id="clip0_5485_16354">
<rect width="98" height="22" fill="white" transform="translate(48 145)"/>
</clipPath>
<clipPath id="clip1_5485_16354">
<rect width="98" height="22" fill="white" transform="translate(186 145)"/>
</clipPath>
</defs>
</svg>
