<svg width="332" height="220" viewBox="0 0 332 220" fill="none" xmlns="http://www.w3.org/2000/svg">
<rect x="40.5" y="132.5" width="113" height="47" rx="3.5" fill="white"/>
<rect x="40.5" y="132.5" width="113" height="47" rx="3.5" stroke="#84848F"/>
<g clip-path="url(#clip0_5449_12421)">
<path d="M52.8 161.24C52.0533 161.24 51.3973 161.059 50.832 160.696C50.2773 160.333 49.8347 159.827 49.504 159.176C48.9813 158.141 48.72 156.856 48.72 155.32C48.72 153.773 48.9813 152.483 49.504 151.448C49.8347 150.797 50.2773 150.296 50.832 149.944C51.3973 149.581 52.0533 149.4 52.8 149.4C53.5467 149.4 54.1973 149.581 54.752 149.944C55.3173 150.296 55.7653 150.797 56.096 151.448C56.6187 152.483 56.88 153.773 56.88 155.32C56.88 156.856 56.6187 158.141 56.096 159.176C55.7653 159.827 55.3173 160.333 54.752 160.696C54.1973 161.059 53.5467 161.24 52.8 161.24ZM52.8 160.312C53.8453 160.312 54.6293 159.768 55.152 158.68C55.568 157.795 55.776 156.675 55.776 155.32C55.776 153.944 55.568 152.819 55.152 151.944C54.64 150.867 53.856 150.328 52.8 150.328C51.744 150.328 50.96 150.867 50.448 151.944C50.032 152.819 49.824 153.944 49.824 155.32C49.824 156.685 50.032 157.805 50.448 158.68C50.9707 159.768 51.7547 160.312 52.8 160.312Z" fill="#CACAD1"/>
<path d="M140.16 160C140.04 160 139.944 159.948 139.872 159.844L137.844 156.892L136.68 158.08V159.76C136.68 159.92 136.6 160 136.44 160H136.128C135.968 160 135.888 159.92 135.888 159.76V151.72C135.888 151.56 135.968 151.48 136.128 151.48H136.44C136.6 151.48 136.68 151.56 136.68 151.72V157.18L139.56 154.192C139.632 154.112 139.732 154.072 139.86 154.072H140.196C140.26 154.072 140.308 154.088 140.34 154.12C140.38 154.144 140.4 154.176 140.4 154.216C140.4 154.256 140.376 154.308 140.328 154.372L138.396 156.388L140.664 159.712C140.696 159.768 140.712 159.816 140.712 159.856C140.712 159.952 140.648 160 140.52 160H140.16ZM144.073 154.036C144.273 154.036 144.509 154.068 144.781 154.132C144.925 154.18 144.981 154.28 144.949 154.432L144.901 154.624C144.861 154.776 144.761 154.832 144.601 154.792C144.409 154.744 144.233 154.72 144.073 154.72C143.665 154.72 143.325 154.896 143.053 155.248C142.789 155.6 142.657 156.088 142.657 156.712V159.76C142.657 159.92 142.577 160 142.417 160H142.105C141.945 160 141.865 159.92 141.865 159.76V154.324C141.865 154.164 141.945 154.084 142.105 154.084H142.369C142.529 154.084 142.609 154.164 142.609 154.324V154.984C142.745 154.688 142.937 154.456 143.185 154.288C143.441 154.12 143.737 154.036 144.073 154.036Z" fill="#5C5C66"/>
</g>
<rect x="178.5" y="132.5" width="113" height="47" rx="3.5" fill="white"/>
<rect x="178.5" y="132.5" width="113" height="47" rx="3.5" stroke="#84848F"/>
<g clip-path="url(#clip1_5449_12421)">
<path d="M189.968 149.768C190.085 149.683 190.219 149.64 190.368 149.64H190.624C190.837 149.64 190.944 149.747 190.944 149.96V160.68C190.944 160.893 190.837 161 190.624 161H190.192C189.979 161 189.872 160.893 189.872 160.68V151.016L187.456 152.744C187.381 152.797 187.312 152.824 187.248 152.824C187.152 152.824 187.072 152.776 187.008 152.68L186.848 152.44C186.805 152.387 186.784 152.323 186.784 152.248C186.784 152.152 186.832 152.067 186.928 151.992L189.968 149.768ZM201.988 161.24C201.241 161.24 200.585 161.059 200.02 160.696C199.465 160.333 199.022 159.827 198.692 159.176C198.169 158.141 197.908 156.856 197.908 155.32C197.908 153.773 198.169 152.483 198.692 151.448C199.022 150.797 199.465 150.296 200.02 149.944C200.585 149.581 201.241 149.4 201.988 149.4C202.734 149.4 203.385 149.581 203.94 149.944C204.505 150.296 204.953 150.797 205.284 151.448C205.806 152.483 206.068 153.773 206.068 155.32C206.068 156.856 205.806 158.141 205.284 159.176C204.953 159.827 204.505 160.333 203.94 160.696C203.385 161.059 202.734 161.24 201.988 161.24ZM201.988 160.312C203.033 160.312 203.817 159.768 204.34 158.68C204.756 157.795 204.964 156.675 204.964 155.32C204.964 153.944 204.756 152.819 204.34 151.944C203.828 150.867 203.044 150.328 201.988 150.328C200.932 150.328 200.148 150.867 199.636 151.944C199.22 152.819 199.012 153.944 199.012 155.32C199.012 156.685 199.22 157.805 199.636 158.68C200.158 159.768 200.942 160.312 201.988 160.312ZM211.8 161.24C211.053 161.24 210.397 161.059 209.832 160.696C209.277 160.333 208.835 159.827 208.504 159.176C207.981 158.141 207.72 156.856 207.72 155.32C207.72 153.773 207.981 152.483 208.504 151.448C208.835 150.797 209.277 150.296 209.832 149.944C210.397 149.581 211.053 149.4 211.8 149.4C212.547 149.4 213.197 149.581 213.752 149.944C214.317 150.296 214.765 150.797 215.096 151.448C215.619 152.483 215.88 153.773 215.88 155.32C215.88 156.856 215.619 158.141 215.096 159.176C214.765 159.827 214.317 160.333 213.752 160.696C213.197 161.059 212.547 161.24 211.8 161.24ZM211.8 160.312C212.845 160.312 213.629 159.768 214.152 158.68C214.568 157.795 214.776 156.675 214.776 155.32C214.776 153.944 214.568 152.819 214.152 151.944C213.64 150.867 212.856 150.328 211.8 150.328C210.744 150.328 209.96 150.867 209.448 151.944C209.032 152.819 208.824 153.944 208.824 155.32C208.824 156.685 209.032 157.805 209.448 158.68C209.971 159.768 210.755 160.312 211.8 160.312ZM221.613 161.24C220.866 161.24 220.21 161.059 219.645 160.696C219.09 160.333 218.647 159.827 218.317 159.176C217.794 158.141 217.533 156.856 217.533 155.32C217.533 153.773 217.794 152.483 218.317 151.448C218.647 150.797 219.09 150.296 219.645 149.944C220.21 149.581 220.866 149.4 221.613 149.4C222.359 149.4 223.01 149.581 223.565 149.944C224.13 150.296 224.578 150.797 224.909 151.448C225.431 152.483 225.693 153.773 225.693 155.32C225.693 156.856 225.431 158.141 224.909 159.176C224.578 159.827 224.13 160.333 223.565 160.696C223.01 161.059 222.359 161.24 221.613 161.24ZM221.613 160.312C222.658 160.312 223.442 159.768 223.965 158.68C224.381 157.795 224.589 156.675 224.589 155.32C224.589 153.944 224.381 152.819 223.965 151.944C223.453 150.867 222.669 150.328 221.613 150.328C220.557 150.328 219.773 150.867 219.261 151.944C218.845 152.819 218.637 153.944 218.637 155.32C218.637 156.685 218.845 157.805 219.261 158.68C219.783 159.768 220.567 160.312 221.613 160.312ZM234.894 161.24C234.147 161.24 233.491 161.059 232.926 160.696C232.371 160.333 231.928 159.827 231.598 159.176C231.075 158.141 230.814 156.856 230.814 155.32C230.814 153.773 231.075 152.483 231.598 151.448C231.928 150.797 232.371 150.296 232.926 149.944C233.491 149.581 234.147 149.4 234.894 149.4C235.64 149.4 236.291 149.581 236.846 149.944C237.411 150.296 237.859 150.797 238.19 151.448C238.712 152.483 238.974 153.773 238.974 155.32C238.974 156.856 238.712 158.141 238.19 159.176C237.859 159.827 237.411 160.333 236.846 160.696C236.291 161.059 235.64 161.24 234.894 161.24ZM234.894 160.312C235.939 160.312 236.723 159.768 237.246 158.68C237.662 157.795 237.87 156.675 237.87 155.32C237.87 153.944 237.662 152.819 237.246 151.944C236.734 150.867 235.95 150.328 234.894 150.328C233.838 150.328 233.054 150.867 232.542 151.944C232.126 152.819 231.918 153.944 231.918 155.32C231.918 156.685 232.126 157.805 232.542 158.68C233.064 159.768 233.848 160.312 234.894 160.312ZM244.706 161.24C243.96 161.24 243.304 161.059 242.738 160.696C242.184 160.333 241.741 159.827 241.41 159.176C240.888 158.141 240.626 156.856 240.626 155.32C240.626 153.773 240.888 152.483 241.41 151.448C241.741 150.797 242.184 150.296 242.738 149.944C243.304 149.581 243.96 149.4 244.706 149.4C245.453 149.4 246.104 149.581 246.658 149.944C247.224 150.296 247.672 150.797 248.002 151.448C248.525 152.483 248.786 153.773 248.786 155.32C248.786 156.856 248.525 158.141 248.002 159.176C247.672 159.827 247.224 160.333 246.658 160.696C246.104 161.059 245.453 161.24 244.706 161.24ZM244.706 160.312C245.752 160.312 246.536 159.768 247.058 158.68C247.474 157.795 247.682 156.675 247.682 155.32C247.682 153.944 247.474 152.819 247.058 151.944C246.546 150.867 245.762 150.328 244.706 150.328C243.65 150.328 242.866 150.867 242.354 151.944C241.938 152.819 241.73 153.944 241.73 155.32C241.73 156.685 241.938 157.805 242.354 158.68C242.877 159.768 243.661 160.312 244.706 160.312ZM254.519 161.24C253.772 161.24 253.116 161.059 252.551 160.696C251.996 160.333 251.553 159.827 251.223 159.176C250.7 158.141 250.439 156.856 250.439 155.32C250.439 153.773 250.7 152.483 251.223 151.448C251.553 150.797 251.996 150.296 252.551 149.944C253.116 149.581 253.772 149.4 254.519 149.4C255.265 149.4 255.916 149.581 256.471 149.944C257.036 150.296 257.484 150.797 257.815 151.448C258.337 152.483 258.599 153.773 258.599 155.32C258.599 156.856 258.337 158.141 257.815 159.176C257.484 159.827 257.036 160.333 256.471 160.696C255.916 161.059 255.265 161.24 254.519 161.24ZM254.519 160.312C255.564 160.312 256.348 159.768 256.871 158.68C257.287 157.795 257.495 156.675 257.495 155.32C257.495 153.944 257.287 152.819 256.871 151.944C256.359 150.867 255.575 150.328 254.519 150.328C253.463 150.328 252.679 150.867 252.167 151.944C251.751 152.819 251.543 153.944 251.543 155.32C251.543 156.685 251.751 157.805 252.167 158.68C252.689 159.768 253.473 160.312 254.519 160.312Z" fill="#CACAD1"/>
<path d="M278.16 160C278.04 160 277.944 159.948 277.872 159.844L275.844 156.892L274.68 158.08V159.76C274.68 159.92 274.6 160 274.44 160H274.128C273.968 160 273.888 159.92 273.888 159.76V151.72C273.888 151.56 273.968 151.48 274.128 151.48H274.44C274.6 151.48 274.68 151.56 274.68 151.72V157.18L277.56 154.192C277.632 154.112 277.732 154.072 277.86 154.072H278.196C278.26 154.072 278.308 154.088 278.34 154.12C278.38 154.144 278.4 154.176 278.4 154.216C278.4 154.256 278.376 154.308 278.328 154.372L276.396 156.388L278.664 159.712C278.696 159.768 278.712 159.816 278.712 159.856C278.712 159.952 278.648 160 278.52 160H278.16ZM282.073 154.036C282.273 154.036 282.509 154.068 282.781 154.132C282.925 154.18 282.981 154.28 282.949 154.432L282.901 154.624C282.861 154.776 282.761 154.832 282.601 154.792C282.409 154.744 282.233 154.72 282.073 154.72C281.665 154.72 281.325 154.896 281.053 155.248C280.789 155.6 280.657 156.088 280.657 156.712V159.76C280.657 159.92 280.577 160 280.417 160H280.105C279.945 160 279.865 159.92 279.865 159.76V154.324C279.865 154.164 279.945 154.084 280.105 154.084H280.369C280.529 154.084 280.609 154.164 280.609 154.324V154.984C280.745 154.688 280.937 154.456 281.185 154.288C281.441 154.12 281.737 154.036 282.073 154.036Z" fill="#5C5C66"/>
</g>
<path d="M44.2 116.21C43.5467 116.21 42.9727 116.051 42.478 115.734C41.9927 115.417 41.6053 114.973 41.316 114.404C40.8587 113.499 40.63 112.374 40.63 111.03C40.63 109.677 40.8587 108.547 41.316 107.642C41.6053 107.073 41.9927 106.634 42.478 106.326C42.9727 106.009 43.5467 105.85 44.2 105.85C44.8533 105.85 45.4227 106.009 45.908 106.326C46.4027 106.634 46.7947 107.073 47.084 107.642C47.5413 108.547 47.77 109.677 47.77 111.03C47.77 112.374 47.5413 113.499 47.084 114.404C46.7947 114.973 46.4027 115.417 45.908 115.734C45.4227 116.051 44.8533 116.21 44.2 116.21ZM44.2 115.398C45.1147 115.398 45.8007 114.922 46.258 113.97C46.622 113.195 46.804 112.215 46.804 111.03C46.804 109.826 46.622 108.841 46.258 108.076C45.81 107.133 45.124 106.662 44.2 106.662C43.276 106.662 42.59 107.133 42.142 108.076C41.778 108.841 41.596 109.826 41.596 111.03C41.596 112.225 41.778 113.205 42.142 113.97C42.5993 114.922 43.2853 115.398 44.2 115.398Z" fill="#5C5C66"/>
<path d="M231.324 106.172C231.426 106.097 231.543 106.06 231.674 106.06H231.898C232.084 106.06 232.178 106.153 232.178 106.34V115.72C232.178 115.907 232.084 116 231.898 116H231.52C231.333 116 231.24 115.907 231.24 115.72V107.264L229.126 108.776C229.06 108.823 229 108.846 228.944 108.846C228.86 108.846 228.79 108.804 228.734 108.72L228.594 108.51C228.556 108.463 228.538 108.407 228.538 108.342C228.538 108.258 228.58 108.183 228.664 108.118L231.324 106.172ZM241.841 116.21C241.187 116.21 240.613 116.051 240.119 115.734C239.633 115.417 239.246 114.973 238.957 114.404C238.499 113.499 238.271 112.374 238.271 111.03C238.271 109.677 238.499 108.547 238.957 107.642C239.246 107.073 239.633 106.634 240.119 106.326C240.613 106.009 241.187 105.85 241.841 105.85C242.494 105.85 243.063 106.009 243.549 106.326C244.043 106.634 244.435 107.073 244.725 107.642C245.182 108.547 245.411 109.677 245.411 111.03C245.411 112.374 245.182 113.499 244.725 114.404C244.435 114.973 244.043 115.417 243.549 115.734C243.063 116.051 242.494 116.21 241.841 116.21ZM241.841 115.398C242.755 115.398 243.441 114.922 243.899 113.97C244.263 113.195 244.445 112.215 244.445 111.03C244.445 109.826 244.263 108.841 243.899 108.076C243.451 107.133 242.765 106.662 241.841 106.662C240.917 106.662 240.231 107.133 239.783 108.076C239.419 108.841 239.237 109.826 239.237 111.03C239.237 112.225 239.419 113.205 239.783 113.97C240.24 114.922 240.926 115.398 241.841 115.398ZM250.427 116.21C249.773 116.21 249.199 116.051 248.705 115.734C248.219 115.417 247.832 114.973 247.543 114.404C247.085 113.499 246.857 112.374 246.857 111.03C246.857 109.677 247.085 108.547 247.543 107.642C247.832 107.073 248.219 106.634 248.705 106.326C249.199 106.009 249.773 105.85 250.427 105.85C251.08 105.85 251.649 106.009 252.135 106.326C252.629 106.634 253.021 107.073 253.311 107.642C253.768 108.547 253.997 109.677 253.997 111.03C253.997 112.374 253.768 113.499 253.311 114.404C253.021 114.973 252.629 115.417 252.135 115.734C251.649 116.051 251.08 116.21 250.427 116.21ZM250.427 115.398C251.341 115.398 252.027 114.922 252.485 113.97C252.849 113.195 253.031 112.215 253.031 111.03C253.031 109.826 252.849 108.841 252.485 108.076C252.037 107.133 251.351 106.662 250.427 106.662C249.503 106.662 248.817 107.133 248.369 108.076C248.005 108.841 247.823 109.826 247.823 111.03C247.823 112.225 248.005 113.205 248.369 113.97C248.826 114.922 249.512 115.398 250.427 115.398ZM259.013 116.21C258.359 116.21 257.785 116.051 257.291 115.734C256.805 115.417 256.418 114.973 256.129 114.404C255.671 113.499 255.443 112.374 255.443 111.03C255.443 109.677 255.671 108.547 256.129 107.642C256.418 107.073 256.805 106.634 257.291 106.326C257.785 106.009 258.359 105.85 259.013 105.85C259.666 105.85 260.235 106.009 260.721 106.326C261.215 106.634 261.607 107.073 261.897 107.642C262.354 108.547 262.583 109.677 262.583 111.03C262.583 112.374 262.354 113.499 261.897 114.404C261.607 114.973 261.215 115.417 260.721 115.734C260.235 116.051 259.666 116.21 259.013 116.21ZM259.013 115.398C259.927 115.398 260.613 114.922 261.071 113.97C261.435 113.195 261.617 112.215 261.617 111.03C261.617 109.826 261.435 108.841 261.071 108.076C260.623 107.133 259.937 106.662 259.013 106.662C258.089 106.662 257.403 107.133 256.955 108.076C256.591 108.841 256.409 109.826 256.409 111.03C256.409 112.225 256.591 113.205 256.955 113.97C257.412 114.922 258.098 115.398 259.013 115.398ZM270.634 116.21C269.98 116.21 269.406 116.051 268.912 115.734C268.426 115.417 268.039 114.973 267.75 114.404C267.292 113.499 267.064 112.374 267.064 111.03C267.064 109.677 267.292 108.547 267.75 107.642C268.039 107.073 268.426 106.634 268.912 106.326C269.406 106.009 269.98 105.85 270.634 105.85C271.287 105.85 271.856 106.009 272.342 106.326C272.836 106.634 273.228 107.073 273.518 107.642C273.975 108.547 274.204 109.677 274.204 111.03C274.204 112.374 273.975 113.499 273.518 114.404C273.228 114.973 272.836 115.417 272.342 115.734C271.856 116.051 271.287 116.21 270.634 116.21ZM270.634 115.398C271.548 115.398 272.234 114.922 272.692 113.97C273.056 113.195 273.238 112.215 273.238 111.03C273.238 109.826 273.056 108.841 272.692 108.076C272.244 107.133 271.558 106.662 270.634 106.662C269.71 106.662 269.024 107.133 268.576 108.076C268.212 108.841 268.03 109.826 268.03 111.03C268.03 112.225 268.212 113.205 268.576 113.97C269.033 114.922 269.719 115.398 270.634 115.398ZM279.22 116.21C278.566 116.21 277.992 116.051 277.498 115.734C277.012 115.417 276.625 114.973 276.336 114.404C275.878 113.499 275.65 112.374 275.65 111.03C275.65 109.677 275.878 108.547 276.336 107.642C276.625 107.073 277.012 106.634 277.498 106.326C277.992 106.009 278.566 105.85 279.22 105.85C279.873 105.85 280.442 106.009 280.928 106.326C281.422 106.634 281.814 107.073 282.104 107.642C282.561 108.547 282.79 109.677 282.79 111.03C282.79 112.374 282.561 113.499 282.104 114.404C281.814 114.973 281.422 115.417 280.928 115.734C280.442 116.051 279.873 116.21 279.22 116.21ZM279.22 115.398C280.134 115.398 280.82 114.922 281.278 113.97C281.642 113.195 281.824 112.215 281.824 111.03C281.824 109.826 281.642 108.841 281.278 108.076C280.83 107.133 280.144 106.662 279.22 106.662C278.296 106.662 277.61 107.133 277.162 108.076C276.798 108.841 276.616 109.826 276.616 111.03C276.616 112.225 276.798 113.205 277.162 113.97C277.619 114.922 278.305 115.398 279.22 115.398ZM287.805 116.21C287.152 116.21 286.578 116.051 286.083 115.734C285.598 115.417 285.211 114.973 284.921 114.404C284.464 113.499 284.235 112.374 284.235 111.03C284.235 109.677 284.464 108.547 284.921 107.642C285.211 107.073 285.598 106.634 286.083 106.326C286.578 106.009 287.152 105.85 287.805 105.85C288.459 105.85 289.028 106.009 289.513 106.326C290.008 106.634 290.4 107.073 290.689 107.642C291.147 108.547 291.375 109.677 291.375 111.03C291.375 112.374 291.147 113.499 290.689 114.404C290.4 114.973 290.008 115.417 289.513 115.734C289.028 116.051 288.459 116.21 287.805 116.21ZM287.805 115.398C288.72 115.398 289.406 114.922 289.863 113.97C290.227 113.195 290.409 112.215 290.409 111.03C290.409 109.826 290.227 108.841 289.863 108.076C289.415 107.133 288.729 106.662 287.805 106.662C286.881 106.662 286.195 107.133 285.747 108.076C285.383 108.841 285.201 109.826 285.201 111.03C285.201 112.225 285.383 113.205 285.747 113.97C286.205 114.922 286.891 115.398 287.805 115.398Z" fill="#5C5C66"/>
<path d="M41.568 54C41.4187 54 41.2973 53.958 41.204 53.874C41.12 53.7807 41.078 53.6593 41.078 53.51V44.55C41.078 44.3913 41.12 44.27 41.204 44.186C41.2973 44.102 41.4187 44.06 41.568 44.06H45.586C46.5753 44.06 47.364 44.3353 47.952 44.886C48.54 45.4273 48.834 46.1693 48.834 47.112C48.834 48.0547 48.54 48.7967 47.952 49.338C47.364 49.8793 46.5753 50.15 45.586 50.15H42.674V53.51C42.674 53.6593 42.632 53.7807 42.548 53.874C42.464 53.958 42.3427 54 42.184 54H41.568ZM45.334 48.82C45.9313 48.82 46.398 48.6753 46.734 48.386C47.0793 48.0873 47.252 47.6627 47.252 47.112C47.252 46.552 47.0793 46.1273 46.734 45.838C46.398 45.5393 45.9313 45.39 45.334 45.39H42.674V48.82H45.334ZM53.2589 47.028C53.4642 47.028 53.6742 47.0513 53.8889 47.098C54.1409 47.154 54.2669 47.3033 54.2669 47.546C54.2669 47.6113 54.2622 47.658 54.2529 47.686L54.1829 48.022C54.1269 48.2833 53.9869 48.414 53.7629 48.414L53.6369 48.4C53.4689 48.372 53.3195 48.358 53.1889 48.358C52.7222 48.358 52.3442 48.5447 52.0549 48.918C51.7749 49.282 51.6349 49.7907 51.6349 50.444V53.51C51.6349 53.6593 51.5929 53.7807 51.5089 53.874C51.4249 53.958 51.3035 54 51.1449 54H50.6409C50.4915 54 50.3702 53.958 50.2769 53.874C50.1929 53.7807 50.1509 53.6593 50.1509 53.51V47.588C50.1509 47.4293 50.1929 47.308 50.2769 47.224C50.3702 47.14 50.4915 47.098 50.6409 47.098H51.0469C51.2055 47.098 51.3269 47.14 51.4109 47.224C51.4949 47.308 51.5369 47.4293 51.5369 47.588V48.134C51.7049 47.7887 51.9335 47.518 52.2229 47.322C52.5122 47.126 52.8575 47.028 53.2589 47.028ZM56.1022 45.754C55.8315 45.754 55.6029 45.6653 55.4162 45.488C55.2295 45.3013 55.1362 45.082 55.1362 44.83C55.1362 44.5687 55.2295 44.3493 55.4162 44.172C55.6029 43.9947 55.8315 43.906 56.1022 43.906C56.3729 43.906 56.6015 43.9947 56.7882 44.172C56.9749 44.3493 57.0682 44.5687 57.0682 44.83C57.0682 45.082 56.9749 45.3013 56.7882 45.488C56.6015 45.6653 56.3729 45.754 56.1022 45.754ZM55.8362 54C55.6869 54 55.5655 53.958 55.4722 53.874C55.3882 53.7807 55.3462 53.6593 55.3462 53.51V47.588C55.3462 47.4293 55.3882 47.308 55.4722 47.224C55.5655 47.14 55.6869 47.098 55.8362 47.098H56.3402C56.4989 47.098 56.6202 47.14 56.7042 47.224C56.7882 47.308 56.8302 47.4293 56.8302 47.588V53.51C56.8302 53.6593 56.7882 53.7807 56.7042 53.874C56.6202 53.958 56.4989 54 56.3402 54H55.8362ZM61.5834 54.21C60.9021 54.21 60.3001 54.0607 59.7774 53.762C59.2641 53.4633 58.8627 53.0387 58.5734 52.488C58.2934 51.928 58.1534 51.2793 58.1534 50.542C58.1534 49.8047 58.2981 49.1607 58.5874 48.61C58.8767 48.0593 59.2827 47.6347 59.8054 47.336C60.3281 47.0373 60.9301 46.888 61.6114 46.888C62.1061 46.888 62.5494 46.9627 62.9414 47.112C63.3427 47.252 63.7254 47.4947 64.0894 47.84C64.2014 47.952 64.2574 48.0687 64.2574 48.19C64.2574 48.302 64.1967 48.4187 64.0754 48.54L63.8374 48.778C63.7347 48.8807 63.6227 48.932 63.5014 48.932C63.3801 48.932 63.2541 48.876 63.1234 48.764C62.8527 48.5307 62.5961 48.372 62.3534 48.288C62.1201 48.1947 61.8681 48.148 61.5974 48.148C60.9814 48.148 60.5054 48.3767 60.1694 48.834C59.8334 49.2913 59.6654 49.8607 59.6654 50.542C59.6654 51.2233 59.8334 51.7973 60.1694 52.264C60.5054 52.7213 60.9814 52.95 61.5974 52.95C61.8961 52.95 62.1714 52.894 62.4234 52.782C62.6754 52.6607 62.9461 52.46 63.2354 52.18C63.3567 52.0587 63.4827 51.998 63.6134 51.998C63.7254 51.998 63.8327 52.0447 63.9354 52.138L64.1734 52.334C64.2947 52.4367 64.3554 52.5533 64.3554 52.684C64.3554 52.824 64.2854 52.9733 64.1454 53.132C63.7627 53.524 63.3661 53.804 62.9554 53.972C62.5541 54.1307 62.0967 54.21 61.5834 54.21ZM70.3917 52.236C70.513 52.1333 70.6297 52.082 70.7417 52.082C70.8537 52.082 70.9704 52.1427 71.0917 52.264L71.2877 52.474C71.3904 52.5953 71.4417 52.712 71.4417 52.824C71.4417 52.9453 71.381 53.062 71.2597 53.174C70.8304 53.5473 70.401 53.8133 69.9717 53.972C69.5517 54.1307 69.085 54.21 68.5717 54.21C67.853 54.21 67.2277 54.0607 66.6957 53.762C66.173 53.4633 65.767 53.0433 65.4777 52.502C65.1977 51.9513 65.0577 51.3167 65.0577 50.598C65.0577 49.8887 65.193 49.254 65.4637 48.694C65.7437 48.1247 66.1357 47.6813 66.6397 47.364C67.153 47.0467 67.7504 46.888 68.4317 46.888C69.449 46.888 70.233 47.1913 70.7837 47.798C71.3344 48.3953 71.6097 49.2213 71.6097 50.276V50.402C71.6004 50.5513 71.5537 50.668 71.4697 50.752C71.3857 50.836 71.2644 50.878 71.1057 50.878H66.5137C66.5697 51.494 66.7704 51.998 67.1157 52.39C67.4704 52.7727 67.965 52.964 68.5997 52.964C68.945 52.964 69.2484 52.9127 69.5097 52.81C69.771 52.698 70.065 52.5067 70.3917 52.236ZM68.4037 48.064C67.8904 48.064 67.475 48.218 67.1577 48.526C66.8497 48.8247 66.649 49.2493 66.5557 49.8H70.1537C70.1164 49.2587 69.9484 48.834 69.6497 48.526C69.351 48.218 68.9357 48.064 68.4037 48.064Z" fill="#1B1B1F"/>
<rect x="40" y="78" width="252" height="4" rx="2" fill="#DEDEE3"/>
<rect x="54" y="77" width="224" height="6" rx="3" fill="#0063FB"/>
<rect x="264" y="66" width="28" height="28" rx="14" fill="#0063FB"/>
<rect x="40" y="66" width="28" height="28" rx="14" fill="#0063FB"/>
<defs>
<clipPath id="clip0_5449_12421">
<rect width="98" height="22" fill="white" transform="translate(48 145)"/>
</clipPath>
<clipPath id="clip1_5449_12421">
<rect width="98" height="22" fill="white" transform="translate(186 145)"/>
</clipPath>
</defs>
</svg>
