<svg width="332" height="220" viewBox="0 0 332 220" fill="none" xmlns="http://www.w3.org/2000/svg">
<rect x="40.5" y="132.5" width="113" height="47" rx="3.5" fill="white"/>
<rect x="40.5" y="132.5" width="113" height="47" rx="3.5" stroke="#84848F"/>
<g clip-path="url(#clip0_5449_10734)">
<path d="M58.304 149.896C58.368 149.725 58.4907 149.64 58.672 149.64H59.92C60.1333 149.64 60.24 149.747 60.24 149.96V160.68C60.24 160.893 60.1333 161 59.92 161H59.456C59.2427 161 59.136 160.893 59.136 160.68V155.368C59.136 154.227 59.1467 152.579 59.168 150.424C58.7307 151.672 58.1333 153.32 57.376 155.368L55.408 160.744C55.344 160.915 55.2213 161 55.04 161H54.576C54.3947 161 54.272 160.915 54.208 160.744L52.192 155.352C51.7653 154.243 51.1733 152.6 50.416 150.424C50.4373 152.579 50.448 154.232 50.448 155.384V160.68C50.448 160.893 50.3413 161 50.128 161H49.696C49.4827 161 49.376 160.893 49.376 160.68V149.96C49.376 149.747 49.4827 149.64 49.696 149.64H50.928C51.1093 149.64 51.232 149.725 51.296 149.896L53.12 154.808C53.9627 157.101 54.528 158.717 54.816 159.656C55.0827 158.76 55.5413 157.421 56.192 155.64C56.2347 155.523 56.2827 155.395 56.336 155.256C56.3893 155.117 56.4427 154.968 56.496 154.808L58.304 149.896ZM63.3214 151.112C63.108 151.112 62.9267 151.037 62.7774 150.888C62.6387 150.739 62.5694 150.557 62.5694 150.344C62.5694 150.131 62.6387 149.955 62.7774 149.816C62.9267 149.677 63.108 149.608 63.3214 149.608C63.5454 149.608 63.7267 149.677 63.8654 149.816C64.0147 149.955 64.0894 150.131 64.0894 150.344C64.0894 150.557 64.0147 150.739 63.8654 150.888C63.7267 151.037 63.5454 151.112 63.3214 151.112ZM63.1134 161C62.9 161 62.7934 160.893 62.7934 160.68V153.432C62.7934 153.219 62.9 153.112 63.1134 153.112H63.5294C63.7427 153.112 63.8494 153.219 63.8494 153.432V160.68C63.8494 160.893 63.7427 161 63.5294 161H63.1134ZM69.7196 152.92C70.6476 152.92 71.3463 153.176 71.8156 153.688C72.2956 154.2 72.5356 154.84 72.5356 155.608V160.68C72.5356 160.893 72.429 161 72.2156 161H71.7996C71.5863 161 71.4796 160.893 71.4796 160.68V155.96C71.4796 155.256 71.309 154.723 70.9676 154.36C70.6263 153.997 70.1356 153.816 69.4956 153.816C69.0903 153.816 68.717 153.917 68.3756 154.12C68.0343 154.312 67.7623 154.579 67.5596 154.92C67.357 155.261 67.2556 155.635 67.2556 156.04V160.68C67.2556 160.893 67.149 161 66.9356 161H66.5196C66.3063 161 66.1996 160.893 66.1996 160.68V153.432C66.1996 153.219 66.3063 153.112 66.5196 153.112H66.8716C67.085 153.112 67.1916 153.219 67.1916 153.432V154.2C67.4583 153.773 67.8103 153.453 68.2476 153.24C68.685 153.027 69.1756 152.92 69.7196 152.92Z" fill="#1B1B1F"/>
<path d="M140.16 160C140.04 160 139.944 159.948 139.872 159.844L137.844 156.892L136.68 158.08V159.76C136.68 159.92 136.6 160 136.44 160H136.128C135.968 160 135.888 159.92 135.888 159.76V151.72C135.888 151.56 135.968 151.48 136.128 151.48H136.44C136.6 151.48 136.68 151.56 136.68 151.72V157.18L139.56 154.192C139.632 154.112 139.732 154.072 139.86 154.072H140.196C140.26 154.072 140.308 154.088 140.34 154.12C140.38 154.144 140.4 154.176 140.4 154.216C140.4 154.256 140.376 154.308 140.328 154.372L138.396 156.388L140.664 159.712C140.696 159.768 140.712 159.816 140.712 159.856C140.712 159.952 140.648 160 140.52 160H140.16ZM144.073 154.036C144.273 154.036 144.509 154.068 144.781 154.132C144.925 154.18 144.981 154.28 144.949 154.432L144.901 154.624C144.861 154.776 144.761 154.832 144.601 154.792C144.409 154.744 144.233 154.72 144.073 154.72C143.665 154.72 143.325 154.896 143.053 155.248C142.789 155.6 142.657 156.088 142.657 156.712V159.76C142.657 159.92 142.577 160 142.417 160H142.105C141.945 160 141.865 159.92 141.865 159.76V154.324C141.865 154.164 141.945 154.084 142.105 154.084H142.369C142.529 154.084 142.609 154.164 142.609 154.324V154.984C142.745 154.688 142.937 154.456 143.185 154.288C143.441 154.12 143.737 154.036 144.073 154.036Z" fill="#5C5C66"/>
</g>
<rect x="178.5" y="132.5" width="113" height="47" rx="3.5" fill="white"/>
<rect x="178.5" y="132.5" width="113" height="47" rx="3.5" stroke="#84848F"/>
<g clip-path="url(#clip1_5449_10734)">
<path d="M196.304 149.896C196.368 149.725 196.491 149.64 196.672 149.64H197.92C198.133 149.64 198.24 149.747 198.24 149.96V160.68C198.24 160.893 198.133 161 197.92 161H197.456C197.243 161 197.136 160.893 197.136 160.68V155.368C197.136 154.227 197.147 152.579 197.168 150.424C196.731 151.672 196.133 153.32 195.376 155.368L193.408 160.744C193.344 160.915 193.221 161 193.04 161H192.576C192.395 161 192.272 160.915 192.208 160.744L190.192 155.352C189.765 154.243 189.173 152.6 188.416 150.424C188.437 152.579 188.448 154.232 188.448 155.384V160.68C188.448 160.893 188.341 161 188.128 161H187.696C187.483 161 187.376 160.893 187.376 160.68V149.96C187.376 149.747 187.483 149.64 187.696 149.64H188.928C189.109 149.64 189.232 149.725 189.296 149.896L191.12 154.808C191.963 157.101 192.528 158.717 192.816 159.656C193.083 158.76 193.541 157.421 194.192 155.64C194.235 155.523 194.283 155.395 194.336 155.256C194.389 155.117 194.443 154.968 194.496 154.808L196.304 149.896ZM203.833 152.92C204.804 152.92 205.561 153.155 206.105 153.624C206.649 154.083 206.921 154.691 206.921 155.448V160.68C206.921 160.893 206.815 161 206.601 161H206.281C206.068 161 205.961 160.893 205.961 160.68V159.96C205.695 160.387 205.316 160.707 204.825 160.92C204.345 161.133 203.807 161.24 203.209 161.24C202.377 161.24 201.7 161.064 201.177 160.712C200.655 160.36 200.393 159.816 200.393 159.08C200.393 158.493 200.559 158.024 200.889 157.672C201.22 157.309 201.652 157.037 202.185 156.856C202.719 156.664 203.385 156.493 204.185 156.344L205.913 156.04V155.528C205.913 154.984 205.727 154.563 205.353 154.264C204.98 153.955 204.489 153.8 203.881 153.8C203.423 153.8 203.007 153.885 202.633 154.056C202.26 154.227 201.86 154.52 201.433 154.936C201.359 155.011 201.279 155.048 201.193 155.048C201.119 155.048 201.049 155.016 200.985 154.952L200.777 154.76C200.703 154.685 200.665 154.605 200.665 154.52C200.665 154.424 200.703 154.339 200.777 154.264C201.225 153.795 201.695 153.453 202.185 153.24C202.687 153.027 203.236 152.92 203.833 152.92ZM203.257 160.36C204.025 160.36 204.66 160.157 205.161 159.752C205.663 159.347 205.913 158.829 205.913 158.2V156.856L204.425 157.144C203.732 157.283 203.183 157.416 202.777 157.544C202.372 157.672 202.047 157.859 201.801 158.104C201.556 158.349 201.433 158.669 201.433 159.064C201.433 159.469 201.593 159.789 201.913 160.024C202.244 160.248 202.692 160.36 203.257 160.36ZM215.054 160.616C215.097 160.691 215.118 160.755 215.118 160.808C215.118 160.936 215.033 161 214.862 161H214.382C214.222 161 214.094 160.931 213.998 160.792L211.822 157.592L209.662 160.792C209.566 160.931 209.438 161 209.278 161H208.83C208.745 161 208.675 160.984 208.622 160.952C208.579 160.909 208.558 160.861 208.558 160.808C208.558 160.733 208.579 160.669 208.622 160.616L211.214 156.888L208.83 153.496C208.787 153.443 208.766 153.384 208.766 153.32C208.766 153.181 208.857 153.112 209.038 153.112H209.502C209.662 153.112 209.79 153.181 209.886 153.32L211.838 156.184L213.774 153.32C213.87 153.181 213.998 153.112 214.158 153.112H214.59C214.675 153.112 214.739 153.133 214.782 153.176C214.835 153.208 214.862 153.251 214.862 153.304C214.862 153.379 214.841 153.443 214.798 153.496L212.462 156.84L215.054 160.616Z" fill="#1B1B1F"/>
<path d="M278.16 160C278.04 160 277.944 159.948 277.872 159.844L275.844 156.892L274.68 158.08V159.76C274.68 159.92 274.6 160 274.44 160H274.128C273.968 160 273.888 159.92 273.888 159.76V151.72C273.888 151.56 273.968 151.48 274.128 151.48H274.44C274.6 151.48 274.68 151.56 274.68 151.72V157.18L277.56 154.192C277.632 154.112 277.732 154.072 277.86 154.072H278.196C278.26 154.072 278.308 154.088 278.34 154.12C278.38 154.144 278.4 154.176 278.4 154.216C278.4 154.256 278.376 154.308 278.328 154.372L276.396 156.388L278.664 159.712C278.696 159.768 278.712 159.816 278.712 159.856C278.712 159.952 278.648 160 278.52 160H278.16ZM282.073 154.036C282.273 154.036 282.509 154.068 282.781 154.132C282.925 154.18 282.981 154.28 282.949 154.432L282.901 154.624C282.861 154.776 282.761 154.832 282.601 154.792C282.409 154.744 282.233 154.72 282.073 154.72C281.665 154.72 281.325 154.896 281.053 155.248C280.789 155.6 280.657 156.088 280.657 156.712V159.76C280.657 159.92 280.577 160 280.417 160H280.105C279.945 160 279.865 159.92 279.865 159.76V154.324C279.865 154.164 279.945 154.084 280.105 154.084H280.369C280.529 154.084 280.609 154.164 280.609 154.324V154.984C280.745 154.688 280.937 154.456 281.185 154.288C281.441 154.12 281.737 154.036 282.073 154.036Z" fill="#5C5C66"/>
</g>
<path d="M44.2 116.21C43.5467 116.21 42.9727 116.051 42.478 115.734C41.9927 115.417 41.6053 114.973 41.316 114.404C40.8587 113.499 40.63 112.374 40.63 111.03C40.63 109.677 40.8587 108.547 41.316 107.642C41.6053 107.073 41.9927 106.634 42.478 106.326C42.9727 106.009 43.5467 105.85 44.2 105.85C44.8533 105.85 45.4227 106.009 45.908 106.326C46.4027 106.634 46.7947 107.073 47.084 107.642C47.5413 108.547 47.77 109.677 47.77 111.03C47.77 112.374 47.5413 113.499 47.084 114.404C46.7947 114.973 46.4027 115.417 45.908 115.734C45.4227 116.051 44.8533 116.21 44.2 116.21ZM44.2 115.398C45.1147 115.398 45.8007 114.922 46.258 113.97C46.622 113.195 46.804 112.215 46.804 111.03C46.804 109.826 46.622 108.841 46.258 108.076C45.81 107.133 45.124 106.662 44.2 106.662C43.276 106.662 42.59 107.133 42.142 108.076C41.778 108.841 41.596 109.826 41.596 111.03C41.596 112.225 41.778 113.205 42.142 113.97C42.5993 114.922 43.2853 115.398 44.2 115.398Z" fill="#5C5C66"/>
<path d="M228.115 113.494L233.715 111.002L228.115 108.37V107.642L234.611 110.792V111.268L228.115 114.222V113.494ZM238.892 106.34C238.892 106.153 238.985 106.06 239.172 106.06H245.528C245.714 106.06 245.808 106.153 245.808 106.34V106.536C245.808 106.676 245.766 106.793 245.682 106.886C244.748 108.062 243.913 109.443 243.176 111.03C242.448 112.607 241.962 114.18 241.72 115.748C241.692 115.916 241.589 116 241.412 116H240.978C240.884 116 240.814 115.977 240.768 115.93C240.721 115.874 240.702 115.799 240.712 115.706C240.973 114.185 241.482 112.621 242.238 111.016C242.994 109.411 243.829 108.025 244.744 106.858H239.172C238.985 106.858 238.892 106.765 238.892 106.578V106.34ZM250.427 116.21C249.773 116.21 249.199 116.051 248.705 115.734C248.219 115.417 247.832 114.973 247.543 114.404C247.085 113.499 246.857 112.374 246.857 111.03C246.857 109.677 247.085 108.547 247.543 107.642C247.832 107.073 248.219 106.634 248.705 106.326C249.199 106.009 249.773 105.85 250.427 105.85C251.08 105.85 251.649 106.009 252.135 106.326C252.629 106.634 253.021 107.073 253.311 107.642C253.768 108.547 253.997 109.677 253.997 111.03C253.997 112.374 253.768 113.499 253.311 114.404C253.021 114.973 252.629 115.417 252.135 115.734C251.649 116.051 251.08 116.21 250.427 116.21ZM250.427 115.398C251.341 115.398 252.027 114.922 252.485 113.97C252.849 113.195 253.031 112.215 253.031 111.03C253.031 109.826 252.849 108.841 252.485 108.076C252.037 107.133 251.351 106.662 250.427 106.662C249.503 106.662 248.817 107.133 248.369 108.076C248.005 108.841 247.823 109.826 247.823 111.03C247.823 112.225 248.005 113.205 248.369 113.97C248.826 114.922 249.512 115.398 250.427 115.398ZM259.013 116.21C258.359 116.21 257.785 116.051 257.291 115.734C256.805 115.417 256.418 114.973 256.129 114.404C255.671 113.499 255.443 112.374 255.443 111.03C255.443 109.677 255.671 108.547 256.129 107.642C256.418 107.073 256.805 106.634 257.291 106.326C257.785 106.009 258.359 105.85 259.013 105.85C259.666 105.85 260.235 106.009 260.721 106.326C261.215 106.634 261.607 107.073 261.897 107.642C262.354 108.547 262.583 109.677 262.583 111.03C262.583 112.374 262.354 113.499 261.897 114.404C261.607 114.973 261.215 115.417 260.721 115.734C260.235 116.051 259.666 116.21 259.013 116.21ZM259.013 115.398C259.927 115.398 260.613 114.922 261.071 113.97C261.435 113.195 261.617 112.215 261.617 111.03C261.617 109.826 261.435 108.841 261.071 108.076C260.623 107.133 259.937 106.662 259.013 106.662C258.089 106.662 257.403 107.133 256.955 108.076C256.591 108.841 256.409 109.826 256.409 111.03C256.409 112.225 256.591 113.205 256.955 113.97C257.412 114.922 258.098 115.398 259.013 115.398ZM270.634 116.21C269.98 116.21 269.406 116.051 268.912 115.734C268.426 115.417 268.039 114.973 267.75 114.404C267.292 113.499 267.064 112.374 267.064 111.03C267.064 109.677 267.292 108.547 267.75 107.642C268.039 107.073 268.426 106.634 268.912 106.326C269.406 106.009 269.98 105.85 270.634 105.85C271.287 105.85 271.856 106.009 272.342 106.326C272.836 106.634 273.228 107.073 273.518 107.642C273.975 108.547 274.204 109.677 274.204 111.03C274.204 112.374 273.975 113.499 273.518 114.404C273.228 114.973 272.836 115.417 272.342 115.734C271.856 116.051 271.287 116.21 270.634 116.21ZM270.634 115.398C271.548 115.398 272.234 114.922 272.692 113.97C273.056 113.195 273.238 112.215 273.238 111.03C273.238 109.826 273.056 108.841 272.692 108.076C272.244 107.133 271.558 106.662 270.634 106.662C269.71 106.662 269.024 107.133 268.576 108.076C268.212 108.841 268.03 109.826 268.03 111.03C268.03 112.225 268.212 113.205 268.576 113.97C269.033 114.922 269.719 115.398 270.634 115.398ZM279.22 116.21C278.566 116.21 277.992 116.051 277.498 115.734C277.012 115.417 276.625 114.973 276.336 114.404C275.878 113.499 275.65 112.374 275.65 111.03C275.65 109.677 275.878 108.547 276.336 107.642C276.625 107.073 277.012 106.634 277.498 106.326C277.992 106.009 278.566 105.85 279.22 105.85C279.873 105.85 280.442 106.009 280.928 106.326C281.422 106.634 281.814 107.073 282.104 107.642C282.561 108.547 282.79 109.677 282.79 111.03C282.79 112.374 282.561 113.499 282.104 114.404C281.814 114.973 281.422 115.417 280.928 115.734C280.442 116.051 279.873 116.21 279.22 116.21ZM279.22 115.398C280.134 115.398 280.82 114.922 281.278 113.97C281.642 113.195 281.824 112.215 281.824 111.03C281.824 109.826 281.642 108.841 281.278 108.076C280.83 107.133 280.144 106.662 279.22 106.662C278.296 106.662 277.61 107.133 277.162 108.076C276.798 108.841 276.616 109.826 276.616 111.03C276.616 112.225 276.798 113.205 277.162 113.97C277.619 114.922 278.305 115.398 279.22 115.398ZM287.805 116.21C287.152 116.21 286.578 116.051 286.083 115.734C285.598 115.417 285.211 114.973 284.921 114.404C284.464 113.499 284.235 112.374 284.235 111.03C284.235 109.677 284.464 108.547 284.921 107.642C285.211 107.073 285.598 106.634 286.083 106.326C286.578 106.009 287.152 105.85 287.805 105.85C288.459 105.85 289.028 106.009 289.513 106.326C290.008 106.634 290.4 107.073 290.689 107.642C291.147 108.547 291.375 109.677 291.375 111.03C291.375 112.374 291.147 113.499 290.689 114.404C290.4 114.973 290.008 115.417 289.513 115.734C289.028 116.051 288.459 116.21 287.805 116.21ZM287.805 115.398C288.72 115.398 289.406 114.922 289.863 113.97C290.227 113.195 290.409 112.215 290.409 111.03C290.409 109.826 290.227 108.841 289.863 108.076C289.415 107.133 288.729 106.662 287.805 106.662C286.881 106.662 286.195 107.133 285.747 108.076C285.383 108.841 285.201 109.826 285.201 111.03C285.201 112.225 285.383 113.205 285.747 113.97C286.205 114.922 286.891 115.398 287.805 115.398Z" fill="#5C5C66"/>
<path d="M41.568 54C41.4187 54 41.2973 53.958 41.204 53.874C41.12 53.7807 41.078 53.6593 41.078 53.51V44.55C41.078 44.3913 41.12 44.27 41.204 44.186C41.2973 44.102 41.4187 44.06 41.568 44.06H45.586C46.5753 44.06 47.364 44.3353 47.952 44.886C48.54 45.4273 48.834 46.1693 48.834 47.112C48.834 48.0547 48.54 48.7967 47.952 49.338C47.364 49.8793 46.5753 50.15 45.586 50.15H42.674V53.51C42.674 53.6593 42.632 53.7807 42.548 53.874C42.464 53.958 42.3427 54 42.184 54H41.568ZM45.334 48.82C45.9313 48.82 46.398 48.6753 46.734 48.386C47.0793 48.0873 47.252 47.6627 47.252 47.112C47.252 46.552 47.0793 46.1273 46.734 45.838C46.398 45.5393 45.9313 45.39 45.334 45.39H42.674V48.82H45.334ZM53.2589 47.028C53.4642 47.028 53.6742 47.0513 53.8889 47.098C54.1409 47.154 54.2669 47.3033 54.2669 47.546C54.2669 47.6113 54.2622 47.658 54.2529 47.686L54.1829 48.022C54.1269 48.2833 53.9869 48.414 53.7629 48.414L53.6369 48.4C53.4689 48.372 53.3195 48.358 53.1889 48.358C52.7222 48.358 52.3442 48.5447 52.0549 48.918C51.7749 49.282 51.6349 49.7907 51.6349 50.444V53.51C51.6349 53.6593 51.5929 53.7807 51.5089 53.874C51.4249 53.958 51.3035 54 51.1449 54H50.6409C50.4915 54 50.3702 53.958 50.2769 53.874C50.1929 53.7807 50.1509 53.6593 50.1509 53.51V47.588C50.1509 47.4293 50.1929 47.308 50.2769 47.224C50.3702 47.14 50.4915 47.098 50.6409 47.098H51.0469C51.2055 47.098 51.3269 47.14 51.4109 47.224C51.4949 47.308 51.5369 47.4293 51.5369 47.588V48.134C51.7049 47.7887 51.9335 47.518 52.2229 47.322C52.5122 47.126 52.8575 47.028 53.2589 47.028ZM56.1022 45.754C55.8315 45.754 55.6029 45.6653 55.4162 45.488C55.2295 45.3013 55.1362 45.082 55.1362 44.83C55.1362 44.5687 55.2295 44.3493 55.4162 44.172C55.6029 43.9947 55.8315 43.906 56.1022 43.906C56.3729 43.906 56.6015 43.9947 56.7882 44.172C56.9749 44.3493 57.0682 44.5687 57.0682 44.83C57.0682 45.082 56.9749 45.3013 56.7882 45.488C56.6015 45.6653 56.3729 45.754 56.1022 45.754ZM55.8362 54C55.6869 54 55.5655 53.958 55.4722 53.874C55.3882 53.7807 55.3462 53.6593 55.3462 53.51V47.588C55.3462 47.4293 55.3882 47.308 55.4722 47.224C55.5655 47.14 55.6869 47.098 55.8362 47.098H56.3402C56.4989 47.098 56.6202 47.14 56.7042 47.224C56.7882 47.308 56.8302 47.4293 56.8302 47.588V53.51C56.8302 53.6593 56.7882 53.7807 56.7042 53.874C56.6202 53.958 56.4989 54 56.3402 54H55.8362ZM61.5834 54.21C60.9021 54.21 60.3001 54.0607 59.7774 53.762C59.2641 53.4633 58.8627 53.0387 58.5734 52.488C58.2934 51.928 58.1534 51.2793 58.1534 50.542C58.1534 49.8047 58.2981 49.1607 58.5874 48.61C58.8767 48.0593 59.2827 47.6347 59.8054 47.336C60.3281 47.0373 60.9301 46.888 61.6114 46.888C62.1061 46.888 62.5494 46.9627 62.9414 47.112C63.3427 47.252 63.7254 47.4947 64.0894 47.84C64.2014 47.952 64.2574 48.0687 64.2574 48.19C64.2574 48.302 64.1967 48.4187 64.0754 48.54L63.8374 48.778C63.7347 48.8807 63.6227 48.932 63.5014 48.932C63.3801 48.932 63.2541 48.876 63.1234 48.764C62.8527 48.5307 62.5961 48.372 62.3534 48.288C62.1201 48.1947 61.8681 48.148 61.5974 48.148C60.9814 48.148 60.5054 48.3767 60.1694 48.834C59.8334 49.2913 59.6654 49.8607 59.6654 50.542C59.6654 51.2233 59.8334 51.7973 60.1694 52.264C60.5054 52.7213 60.9814 52.95 61.5974 52.95C61.8961 52.95 62.1714 52.894 62.4234 52.782C62.6754 52.6607 62.9461 52.46 63.2354 52.18C63.3567 52.0587 63.4827 51.998 63.6134 51.998C63.7254 51.998 63.8327 52.0447 63.9354 52.138L64.1734 52.334C64.2947 52.4367 64.3554 52.5533 64.3554 52.684C64.3554 52.824 64.2854 52.9733 64.1454 53.132C63.7627 53.524 63.3661 53.804 62.9554 53.972C62.5541 54.1307 62.0967 54.21 61.5834 54.21ZM70.3917 52.236C70.513 52.1333 70.6297 52.082 70.7417 52.082C70.8537 52.082 70.9704 52.1427 71.0917 52.264L71.2877 52.474C71.3904 52.5953 71.4417 52.712 71.4417 52.824C71.4417 52.9453 71.381 53.062 71.2597 53.174C70.8304 53.5473 70.401 53.8133 69.9717 53.972C69.5517 54.1307 69.085 54.21 68.5717 54.21C67.853 54.21 67.2277 54.0607 66.6957 53.762C66.173 53.4633 65.767 53.0433 65.4777 52.502C65.1977 51.9513 65.0577 51.3167 65.0577 50.598C65.0577 49.8887 65.193 49.254 65.4637 48.694C65.7437 48.1247 66.1357 47.6813 66.6397 47.364C67.153 47.0467 67.7504 46.888 68.4317 46.888C69.449 46.888 70.233 47.1913 70.7837 47.798C71.3344 48.3953 71.6097 49.2213 71.6097 50.276V50.402C71.6004 50.5513 71.5537 50.668 71.4697 50.752C71.3857 50.836 71.2644 50.878 71.1057 50.878H66.5137C66.5697 51.494 66.7704 51.998 67.1157 52.39C67.4704 52.7727 67.965 52.964 68.5997 52.964C68.945 52.964 69.2484 52.9127 69.5097 52.81C69.771 52.698 70.065 52.5067 70.3917 52.236ZM68.4037 48.064C67.8904 48.064 67.475 48.218 67.1577 48.526C66.8497 48.8247 66.649 49.2493 66.5557 49.8H70.1537C70.1164 49.2587 69.9484 48.834 69.6497 48.526C69.351 48.218 68.9357 48.064 68.4037 48.064Z" fill="#1B1B1F"/>
<rect x="40" y="78" width="252" height="4" rx="2" fill="#DEDEE3"/>
<rect x="54" y="77" width="224" height="6" rx="3" fill="#0063FB"/>
<rect x="264" y="66" width="28" height="28" rx="14" fill="#0063FB"/>
<rect x="40" y="66" width="28" height="28" rx="14" fill="#0063FB"/>
<defs>
<clipPath id="clip0_5449_10734">
<rect width="98" height="22" fill="white" transform="translate(48 145)"/>
</clipPath>
<clipPath id="clip1_5449_10734">
<rect width="98" height="22" fill="white" transform="translate(186 145)"/>
</clipPath>
</defs>
</svg>
