<svg width="332" height="220" viewBox="0 0 332 220" fill="none" xmlns="http://www.w3.org/2000/svg">
<rect x="40.5" y="132.5" width="113" height="47" rx="3.5" fill="white"/>
<rect x="40.5" y="132.5" width="113" height="47" rx="3.5" stroke="#84848F"/>
<g clip-path="url(#clip0_5449_10367)">
<path d="M58.304 149.896C58.368 149.725 58.4907 149.64 58.672 149.64H59.92C60.1333 149.64 60.24 149.747 60.24 149.96V160.68C60.24 160.893 60.1333 161 59.92 161H59.456C59.2427 161 59.136 160.893 59.136 160.68V155.368C59.136 154.227 59.1467 152.579 59.168 150.424C58.7307 151.672 58.1333 153.32 57.376 155.368L55.408 160.744C55.344 160.915 55.2213 161 55.04 161H54.576C54.3947 161 54.272 160.915 54.208 160.744L52.192 155.352C51.7653 154.243 51.1733 152.6 50.416 150.424C50.4373 152.579 50.448 154.232 50.448 155.384V160.68C50.448 160.893 50.3413 161 50.128 161H49.696C49.4827 161 49.376 160.893 49.376 160.68V149.96C49.376 149.747 49.4827 149.64 49.696 149.64H50.928C51.1093 149.64 51.232 149.725 51.296 149.896L53.12 154.808C53.9627 157.101 54.528 158.717 54.816 159.656C55.0827 158.76 55.5413 157.421 56.192 155.64C56.2347 155.523 56.2827 155.395 56.336 155.256C56.3893 155.117 56.4427 154.968 56.496 154.808L58.304 149.896ZM63.3214 151.112C63.108 151.112 62.9267 151.037 62.7774 150.888C62.6387 150.739 62.5694 150.557 62.5694 150.344C62.5694 150.131 62.6387 149.955 62.7774 149.816C62.9267 149.677 63.108 149.608 63.3214 149.608C63.5454 149.608 63.7267 149.677 63.8654 149.816C64.0147 149.955 64.0894 150.131 64.0894 150.344C64.0894 150.557 64.0147 150.739 63.8654 150.888C63.7267 151.037 63.5454 151.112 63.3214 151.112ZM63.1134 161C62.9 161 62.7934 160.893 62.7934 160.68V153.432C62.7934 153.219 62.9 153.112 63.1134 153.112H63.5294C63.7427 153.112 63.8494 153.219 63.8494 153.432V160.68C63.8494 160.893 63.7427 161 63.5294 161H63.1134ZM69.7196 152.92C70.6476 152.92 71.3463 153.176 71.8156 153.688C72.2956 154.2 72.5356 154.84 72.5356 155.608V160.68C72.5356 160.893 72.429 161 72.2156 161H71.7996C71.5863 161 71.4796 160.893 71.4796 160.68V155.96C71.4796 155.256 71.309 154.723 70.9676 154.36C70.6263 153.997 70.1356 153.816 69.4956 153.816C69.0903 153.816 68.717 153.917 68.3756 154.12C68.0343 154.312 67.7623 154.579 67.5596 154.92C67.357 155.261 67.2556 155.635 67.2556 156.04V160.68C67.2556 160.893 67.149 161 66.9356 161H66.5196C66.3063 161 66.1996 160.893 66.1996 160.68V153.432C66.1996 153.219 66.3063 153.112 66.5196 153.112H66.8716C67.085 153.112 67.1916 153.219 67.1916 153.432V154.2C67.4583 153.773 67.8103 153.453 68.2476 153.24C68.685 153.027 69.1756 152.92 69.7196 152.92Z" fill="#1B1B1F"/>
</g>
<rect x="178.5" y="132.5" width="113" height="47" rx="3.5" fill="white"/>
<rect x="178.5" y="132.5" width="113" height="47" rx="3.5" stroke="#84848F"/>
<g clip-path="url(#clip1_5449_10367)">
<path d="M196.304 149.896C196.368 149.725 196.491 149.64 196.672 149.64H197.92C198.133 149.64 198.24 149.747 198.24 149.96V160.68C198.24 160.893 198.133 161 197.92 161H197.456C197.243 161 197.136 160.893 197.136 160.68V155.368C197.136 154.227 197.147 152.579 197.168 150.424C196.731 151.672 196.133 153.32 195.376 155.368L193.408 160.744C193.344 160.915 193.221 161 193.04 161H192.576C192.395 161 192.272 160.915 192.208 160.744L190.192 155.352C189.765 154.243 189.173 152.6 188.416 150.424C188.437 152.579 188.448 154.232 188.448 155.384V160.68C188.448 160.893 188.341 161 188.128 161H187.696C187.483 161 187.376 160.893 187.376 160.68V149.96C187.376 149.747 187.483 149.64 187.696 149.64H188.928C189.109 149.64 189.232 149.725 189.296 149.896L191.12 154.808C191.963 157.101 192.528 158.717 192.816 159.656C193.083 158.76 193.541 157.421 194.192 155.64C194.235 155.523 194.283 155.395 194.336 155.256C194.389 155.117 194.443 154.968 194.496 154.808L196.304 149.896ZM203.833 152.92C204.804 152.92 205.561 153.155 206.105 153.624C206.649 154.083 206.921 154.691 206.921 155.448V160.68C206.921 160.893 206.815 161 206.601 161H206.281C206.068 161 205.961 160.893 205.961 160.68V159.96C205.695 160.387 205.316 160.707 204.825 160.92C204.345 161.133 203.807 161.24 203.209 161.24C202.377 161.24 201.7 161.064 201.177 160.712C200.655 160.36 200.393 159.816 200.393 159.08C200.393 158.493 200.559 158.024 200.889 157.672C201.22 157.309 201.652 157.037 202.185 156.856C202.719 156.664 203.385 156.493 204.185 156.344L205.913 156.04V155.528C205.913 154.984 205.727 154.563 205.353 154.264C204.98 153.955 204.489 153.8 203.881 153.8C203.423 153.8 203.007 153.885 202.633 154.056C202.26 154.227 201.86 154.52 201.433 154.936C201.359 155.011 201.279 155.048 201.193 155.048C201.119 155.048 201.049 155.016 200.985 154.952L200.777 154.76C200.703 154.685 200.665 154.605 200.665 154.52C200.665 154.424 200.703 154.339 200.777 154.264C201.225 153.795 201.695 153.453 202.185 153.24C202.687 153.027 203.236 152.92 203.833 152.92ZM203.257 160.36C204.025 160.36 204.66 160.157 205.161 159.752C205.663 159.347 205.913 158.829 205.913 158.2V156.856L204.425 157.144C203.732 157.283 203.183 157.416 202.777 157.544C202.372 157.672 202.047 157.859 201.801 158.104C201.556 158.349 201.433 158.669 201.433 159.064C201.433 159.469 201.593 159.789 201.913 160.024C202.244 160.248 202.692 160.36 203.257 160.36ZM215.054 160.616C215.097 160.691 215.118 160.755 215.118 160.808C215.118 160.936 215.033 161 214.862 161H214.382C214.222 161 214.094 160.931 213.998 160.792L211.822 157.592L209.662 160.792C209.566 160.931 209.438 161 209.278 161H208.83C208.745 161 208.675 160.984 208.622 160.952C208.579 160.909 208.558 160.861 208.558 160.808C208.558 160.733 208.579 160.669 208.622 160.616L211.214 156.888L208.83 153.496C208.787 153.443 208.766 153.384 208.766 153.32C208.766 153.181 208.857 153.112 209.038 153.112H209.502C209.662 153.112 209.79 153.181 209.886 153.32L211.838 156.184L213.774 153.32C213.87 153.181 213.998 153.112 214.158 153.112H214.59C214.675 153.112 214.739 153.133 214.782 153.176C214.835 153.208 214.862 153.251 214.862 153.304C214.862 153.379 214.841 153.443 214.798 153.496L212.462 156.84L215.054 160.616Z" fill="#1B1B1F"/>
</g>
<path d="M44.2 116.21C43.5467 116.21 42.9727 116.051 42.478 115.734C41.9927 115.417 41.6053 114.973 41.316 114.404C40.8587 113.499 40.63 112.374 40.63 111.03C40.63 109.677 40.8587 108.547 41.316 107.642C41.6053 107.073 41.9927 106.634 42.478 106.326C42.9727 106.009 43.5467 105.85 44.2 105.85C44.8533 105.85 45.4227 106.009 45.908 106.326C46.4027 106.634 46.7947 107.073 47.084 107.642C47.5413 108.547 47.77 109.677 47.77 111.03C47.77 112.374 47.5413 113.499 47.084 114.404C46.7947 114.973 46.4027 115.417 45.908 115.734C45.4227 116.051 44.8533 116.21 44.2 116.21ZM44.2 115.398C45.1147 115.398 45.8007 114.922 46.258 113.97C46.622 113.195 46.804 112.215 46.804 111.03C46.804 109.826 46.622 108.841 46.258 108.076C45.81 107.133 45.124 106.662 44.2 106.662C43.276 106.662 42.59 107.133 42.142 108.076C41.778 108.841 41.596 109.826 41.596 111.03C41.596 112.225 41.778 113.205 42.142 113.97C42.5993 114.922 43.2853 115.398 44.2 115.398ZM59.6711 108.93C60.4178 108.93 60.9871 109.145 61.3791 109.574C61.7804 109.994 61.9811 110.535 61.9811 111.198V115.72C61.9811 115.907 61.8878 116 61.7011 116H61.3371C61.1504 116 61.0571 115.907 61.0571 115.72V111.45C61.0571 110.89 60.9264 110.461 60.6651 110.162C60.4131 109.863 60.0351 109.714 59.5311 109.714C58.9991 109.714 58.5744 109.891 58.2571 110.246C57.9398 110.601 57.7811 111.058 57.7811 111.618V115.72C57.7811 115.907 57.6878 116 57.5011 116H57.1371C56.9504 116 56.8571 115.907 56.8571 115.72V111.45C56.8571 110.89 56.7264 110.461 56.4651 110.162C56.2131 109.863 55.8304 109.714 55.3171 109.714C54.8411 109.714 54.4444 109.863 54.1271 110.162C53.8191 110.461 53.6371 110.853 53.5811 111.338V115.72C53.5811 115.907 53.4878 116 53.3011 116H52.9371C52.7504 116 52.6571 115.907 52.6571 115.72V109.378C52.6571 109.191 52.7504 109.098 52.9371 109.098H53.2451C53.4318 109.098 53.5251 109.191 53.5251 109.378V109.952C53.9451 109.271 54.6124 108.93 55.5271 108.93C56.0031 108.93 56.4091 109.037 56.7451 109.252C57.0904 109.457 57.3471 109.737 57.5151 110.092C58.0098 109.317 58.7284 108.93 59.6711 108.93ZM67.2804 110.176H63.3464V109.658L65.0124 107.992C65.3671 107.637 65.6518 107.334 65.8664 107.082C66.0904 106.83 66.2538 106.597 66.3564 106.382C66.4591 106.167 66.5104 105.939 66.5104 105.696C66.5104 105.36 66.4078 105.099 66.2024 104.912C66.0064 104.716 65.7218 104.618 65.3484 104.618C65.0591 104.618 64.7931 104.669 64.5504 104.772C64.3171 104.875 64.0744 105.019 63.8224 105.206L63.4864 104.744C63.7478 104.52 64.0324 104.347 64.3404 104.226C64.6578 104.105 64.9938 104.044 65.3484 104.044C65.9271 104.044 66.3798 104.193 66.7064 104.492C67.0331 104.781 67.1964 105.173 67.1964 105.668C67.1964 105.985 67.1264 106.275 66.9864 106.536C66.8558 106.797 66.6644 107.068 66.4124 107.348C66.1604 107.628 65.8524 107.945 65.4884 108.3L64.2004 109.574H67.2804V110.176Z" fill="#5C5C66"/>
<path d="M251.661 109.588C252.305 109.588 252.87 109.723 253.355 109.994C253.85 110.255 254.232 110.629 254.503 111.114C254.774 111.599 254.909 112.159 254.909 112.794C254.909 113.363 254.774 113.909 254.503 114.432C254.232 114.955 253.84 115.379 253.327 115.706C252.814 116.033 252.212 116.196 251.521 116.196C250.849 116.196 250.266 116.112 249.771 115.944C249.286 115.776 248.735 115.487 248.119 115.076C248.026 115.02 247.979 114.945 247.979 114.852C247.979 114.787 247.998 114.731 248.035 114.684L248.217 114.432C248.273 114.348 248.338 114.306 248.413 114.306C248.469 114.306 248.534 114.329 248.609 114.376C249.178 114.759 249.664 115.025 250.065 115.174C250.476 115.323 250.928 115.398 251.423 115.398C251.946 115.398 252.398 115.281 252.781 115.048C253.164 114.805 253.453 114.488 253.649 114.096C253.854 113.695 253.957 113.261 253.957 112.794C253.957 112.047 253.747 111.464 253.327 111.044C252.916 110.624 252.324 110.414 251.549 110.414C250.718 110.414 250.023 110.666 249.463 111.17C249.36 111.263 249.239 111.301 249.099 111.282L248.791 111.24C248.707 111.231 248.642 111.198 248.595 111.142C248.548 111.086 248.53 111.016 248.539 110.932L248.917 106.326C248.926 106.242 248.954 106.177 249.001 106.13C249.057 106.083 249.127 106.06 249.211 106.06H254.195C254.382 106.06 254.475 106.153 254.475 106.34V106.592C254.475 106.779 254.382 106.872 254.195 106.872H249.743L249.449 110.316C249.71 110.101 250.028 109.929 250.401 109.798C250.784 109.658 251.204 109.588 251.661 109.588ZM259.888 116.21C259.234 116.21 258.66 116.051 258.166 115.734C257.68 115.417 257.293 114.973 257.004 114.404C256.546 113.499 256.318 112.374 256.318 111.03C256.318 109.677 256.546 108.547 257.004 107.642C257.293 107.073 257.68 106.634 258.166 106.326C258.66 106.009 259.234 105.85 259.888 105.85C260.541 105.85 261.11 106.009 261.596 106.326C262.09 106.634 262.482 107.073 262.772 107.642C263.229 108.547 263.458 109.677 263.458 111.03C263.458 112.374 263.229 113.499 262.772 114.404C262.482 114.973 262.09 115.417 261.596 115.734C261.11 116.051 260.541 116.21 259.888 116.21ZM259.888 115.398C260.802 115.398 261.488 114.922 261.946 113.97C262.31 113.195 262.492 112.215 262.492 111.03C262.492 109.826 262.31 108.841 261.946 108.076C261.498 107.133 260.812 106.662 259.888 106.662C258.964 106.662 258.278 107.133 257.83 108.076C257.466 108.841 257.284 109.826 257.284 111.03C257.284 112.225 257.466 113.205 257.83 113.97C258.287 114.922 258.973 115.398 259.888 115.398ZM268.473 116.21C267.82 116.21 267.246 116.051 266.751 115.734C266.266 115.417 265.879 114.973 265.589 114.404C265.132 113.499 264.903 112.374 264.903 111.03C264.903 109.677 265.132 108.547 265.589 107.642C265.879 107.073 266.266 106.634 266.751 106.326C267.246 106.009 267.82 105.85 268.473 105.85C269.127 105.85 269.696 106.009 270.181 106.326C270.676 106.634 271.068 107.073 271.357 107.642C271.815 108.547 272.043 109.677 272.043 111.03C272.043 112.374 271.815 113.499 271.357 114.404C271.068 114.973 270.676 115.417 270.181 115.734C269.696 116.051 269.127 116.21 268.473 116.21ZM268.473 115.398C269.388 115.398 270.074 114.922 270.531 113.97C270.895 113.195 271.077 112.215 271.077 111.03C271.077 109.826 270.895 108.841 270.531 108.076C270.083 107.133 269.397 106.662 268.473 106.662C267.549 106.662 266.863 107.133 266.415 108.076C266.051 108.841 265.869 109.826 265.869 111.03C265.869 112.225 266.051 113.205 266.415 113.97C266.873 114.922 267.559 115.398 268.473 115.398ZM283.945 108.93C284.691 108.93 285.261 109.145 285.653 109.574C286.054 109.994 286.255 110.535 286.255 111.198V115.72C286.255 115.907 286.161 116 285.975 116H285.611C285.424 116 285.331 115.907 285.331 115.72V111.45C285.331 110.89 285.2 110.461 284.939 110.162C284.687 109.863 284.309 109.714 283.805 109.714C283.273 109.714 282.848 109.891 282.531 110.246C282.213 110.601 282.055 111.058 282.055 111.618V115.72C282.055 115.907 281.961 116 281.775 116H281.411C281.224 116 281.131 115.907 281.131 115.72V111.45C281.131 110.89 281 110.461 280.739 110.162C280.487 109.863 280.104 109.714 279.591 109.714C279.115 109.714 278.718 109.863 278.401 110.162C278.093 110.461 277.911 110.853 277.855 111.338V115.72C277.855 115.907 277.761 116 277.575 116H277.211C277.024 116 276.931 115.907 276.931 115.72V109.378C276.931 109.191 277.024 109.098 277.211 109.098H277.519C277.705 109.098 277.799 109.191 277.799 109.378V109.952C278.219 109.271 278.886 108.93 279.801 108.93C280.277 108.93 280.683 109.037 281.019 109.252C281.364 109.457 281.621 109.737 281.789 110.092C282.283 109.317 283.002 108.93 283.945 108.93ZM291.554 110.176H287.62V109.658L289.286 107.992C289.641 107.637 289.925 107.334 290.14 107.082C290.364 106.83 290.527 106.597 290.63 106.382C290.733 106.167 290.784 105.939 290.784 105.696C290.784 105.36 290.681 105.099 290.476 104.912C290.28 104.716 289.995 104.618 289.622 104.618C289.333 104.618 289.067 104.669 288.824 104.772C288.591 104.875 288.348 105.019 288.096 105.206L287.76 104.744C288.021 104.52 288.306 104.347 288.614 104.226C288.931 104.105 289.267 104.044 289.622 104.044C290.201 104.044 290.653 104.193 290.98 104.492C291.307 104.781 291.47 105.173 291.47 105.668C291.47 105.985 291.4 106.275 291.26 106.536C291.129 106.797 290.938 107.068 290.686 107.348C290.434 107.628 290.126 107.945 289.762 108.3L288.474 109.574H291.554V110.176Z" fill="#5C5C66"/>
<path d="M48.218 54C47.938 54 47.7513 53.8693 47.658 53.608L47 51.718H42.604L41.946 53.608C41.8527 53.8693 41.666 54 41.386 54H40.798C40.658 54 40.546 53.972 40.462 53.916C40.3873 53.8507 40.35 53.762 40.35 53.65C40.35 53.594 40.364 53.524 40.392 53.44L43.64 44.452C43.7333 44.1907 43.92 44.06 44.2 44.06H45.446C45.726 44.06 45.9127 44.1907 46.006 44.452L49.254 53.44C49.282 53.524 49.296 53.594 49.296 53.65C49.296 53.762 49.254 53.8507 49.17 53.916C49.0953 53.972 48.988 54 48.848 54H48.218ZM46.552 50.388L46.118 49.156C46.1087 49.1373 46.006 48.8433 45.81 48.274C45.3153 46.874 44.9793 45.8753 44.802 45.278C44.5313 46.1367 44.172 47.2007 43.724 48.47L43.486 49.17L43.066 50.388H46.552ZM54.1743 46.916C54.7623 46.916 55.285 47.0653 55.7423 47.364C56.209 47.6627 56.573 48.0873 56.8343 48.638C57.0957 49.1887 57.2263 49.8233 57.2263 50.542C57.2263 51.27 57.0957 51.9093 56.8343 52.46C56.573 53.0107 56.209 53.4353 55.7423 53.734C55.2757 54.0327 54.753 54.182 54.1743 54.182C53.2037 54.182 52.4757 53.846 51.9903 53.174V55.988C51.9903 56.1467 51.9483 56.268 51.8643 56.352C51.7803 56.436 51.659 56.478 51.5003 56.478H50.9963C50.847 56.478 50.7257 56.436 50.6323 56.352C50.5483 56.268 50.5063 56.1467 50.5063 55.988V47.588C50.5063 47.4293 50.5483 47.308 50.6323 47.224C50.7257 47.14 50.847 47.098 50.9963 47.098H51.4023C51.561 47.098 51.6823 47.14 51.7663 47.224C51.8503 47.308 51.8923 47.4293 51.8923 47.588V48.106C52.387 47.3127 53.1477 46.916 54.1743 46.916ZM53.8663 52.894C54.4263 52.894 54.8743 52.684 55.2103 52.264C55.5463 51.8347 55.7143 51.2607 55.7143 50.542C55.7143 49.8327 55.5463 49.2633 55.2103 48.834C54.8837 48.4047 54.4403 48.19 53.8803 48.19C53.311 48.19 52.8443 48.4 52.4803 48.82C52.1163 49.24 51.9343 49.814 51.9343 50.542C51.9343 51.27 52.1163 51.844 52.4803 52.264C52.8443 52.684 53.3063 52.894 53.8663 52.894ZM61.4848 46.888C62.4181 46.888 63.1368 47.1073 63.6408 47.546C64.1448 47.9753 64.3968 48.5493 64.3968 49.268V53.51C64.3968 53.6593 64.3548 53.7807 64.2708 53.874C64.1868 53.958 64.0654 54 63.9068 54H63.5428C63.3934 54 63.2721 53.958 63.1788 53.874C63.0948 53.7807 63.0528 53.6593 63.0528 53.51V53.202C62.8288 53.5287 62.5208 53.7807 62.1288 53.958C61.7368 54.1353 61.2794 54.224 60.7568 54.224C60.0381 54.224 59.4454 54.0653 58.9788 53.748C58.5214 53.4213 58.2928 52.9313 58.2928 52.278C58.2928 51.55 58.5634 51.0133 59.1048 50.668C59.6554 50.3133 60.4161 50.0473 61.3868 49.87L62.9688 49.576V49.324C62.9688 48.9413 62.8334 48.6473 62.5628 48.442C62.3014 48.2273 61.9514 48.12 61.5128 48.12C61.1394 48.12 60.8128 48.1853 60.5328 48.316C60.2621 48.4373 59.9681 48.6427 59.6508 48.932C59.5294 49.0347 59.4128 49.086 59.3008 49.086C59.1888 49.086 59.0721 49.0347 58.9508 48.932L58.7268 48.736C58.6054 48.624 58.5448 48.5027 58.5448 48.372C58.5448 48.2507 58.6008 48.134 58.7128 48.022C59.1141 47.6393 59.5388 47.3547 59.9868 47.168C60.4348 46.9813 60.9341 46.888 61.4848 46.888ZM60.9668 53.034C61.5268 53.034 61.9981 52.8847 62.3808 52.586C62.7728 52.2873 62.9688 51.858 62.9688 51.298V50.654L61.7508 50.906C61.0694 51.046 60.5654 51.2047 60.2388 51.382C59.9121 51.5593 59.7488 51.83 59.7488 52.194C59.7488 52.4553 59.8561 52.6607 60.0708 52.81C60.2854 52.9593 60.5841 53.034 60.9668 53.034ZM69.2003 47.028C69.4056 47.028 69.6156 47.0513 69.8303 47.098C70.0823 47.154 70.2083 47.3033 70.2083 47.546C70.2083 47.6113 70.2036 47.658 70.1943 47.686L70.1243 48.022C70.0683 48.2833 69.9283 48.414 69.7043 48.414L69.5783 48.4C69.4103 48.372 69.2609 48.358 69.1303 48.358C68.6636 48.358 68.2856 48.5447 67.9963 48.918C67.7163 49.282 67.5763 49.7907 67.5763 50.444V53.51C67.5763 53.6593 67.5343 53.7807 67.4503 53.874C67.3663 53.958 67.2449 54 67.0863 54H66.5823C66.4329 54 66.3116 53.958 66.2183 53.874C66.1343 53.7807 66.0923 53.6593 66.0923 53.51V47.588C66.0923 47.4293 66.1343 47.308 66.2183 47.224C66.3116 47.14 66.4329 47.098 66.5823 47.098H66.9883C67.1469 47.098 67.2683 47.14 67.3523 47.224C67.4363 47.308 67.4783 47.4293 67.4783 47.588V48.134C67.6463 47.7887 67.8749 47.518 68.1643 47.322C68.4536 47.126 68.7989 47.028 69.2003 47.028ZM74.7837 52.824C74.8117 52.8147 74.8537 52.81 74.9097 52.81C75.143 52.81 75.283 52.9453 75.3297 53.216L75.3717 53.44C75.381 53.468 75.3857 53.5147 75.3857 53.58C75.3857 53.8133 75.255 53.9627 74.9937 54.028C74.6203 54.112 74.2797 54.154 73.9717 54.154C73.309 54.154 72.8283 54 72.5297 53.692C72.2403 53.384 72.0957 52.922 72.0957 52.306V48.232H71.3257C71.1763 48.232 71.055 48.19 70.9617 48.106C70.8777 48.0127 70.8357 47.8913 70.8357 47.742V47.588C70.8357 47.4293 70.8777 47.308 70.9617 47.224C71.055 47.14 71.1763 47.098 71.3257 47.098H72.0957V45.362C72.0957 45.2033 72.1377 45.082 72.2217 44.998C72.315 44.914 72.4363 44.872 72.5857 44.872H73.0897C73.2483 44.872 73.3697 44.914 73.4537 44.998C73.5377 45.082 73.5797 45.2033 73.5797 45.362V47.098H74.8397C74.9983 47.098 75.1197 47.14 75.2037 47.224C75.2877 47.308 75.3297 47.4293 75.3297 47.588V47.742C75.3297 47.8913 75.2877 48.0127 75.2037 48.106C75.1197 48.19 74.9983 48.232 74.8397 48.232H73.5797V52.124C73.5797 52.3947 73.6357 52.586 73.7477 52.698C73.869 52.81 74.0603 52.866 74.3217 52.866C74.4337 52.866 74.5877 52.852 74.7837 52.824ZM83.9573 46.888C84.6946 46.888 85.2639 47.098 85.6653 47.518C86.0666 47.9287 86.2673 48.484 86.2673 49.184V53.51C86.2673 53.6593 86.2253 53.7807 86.1413 53.874C86.0573 53.958 85.9359 54 85.7773 54H85.2733C85.1239 54 85.0026 53.958 84.9093 53.874C84.8253 53.7807 84.7833 53.6593 84.7833 53.51V49.632C84.7833 49.1747 84.6806 48.8153 84.4753 48.554C84.2699 48.2927 83.9573 48.162 83.5373 48.162C83.1079 48.162 82.7673 48.3067 82.5153 48.596C82.2726 48.8853 82.1513 49.2587 82.1513 49.716V53.51C82.1513 53.6593 82.1093 53.7807 82.0253 53.874C81.9413 53.958 81.8199 54 81.6613 54H81.1573C81.0079 54 80.8866 53.958 80.7933 53.874C80.7093 53.7807 80.6673 53.6593 80.6673 53.51V49.632C80.6673 49.1747 80.5646 48.8153 80.3593 48.554C80.1633 48.2927 79.8553 48.162 79.4353 48.162C79.0246 48.162 78.6933 48.2973 78.4413 48.568C78.1893 48.8387 78.0539 49.1887 78.0353 49.618V53.51C78.0353 53.6593 77.9933 53.7807 77.9093 53.874C77.8253 53.958 77.7039 54 77.5453 54H77.0413C76.8919 54 76.7706 53.958 76.6773 53.874C76.5933 53.7807 76.5513 53.6593 76.5513 53.51V47.588C76.5513 47.4293 76.5933 47.308 76.6773 47.224C76.7706 47.14 76.8919 47.098 77.0413 47.098H77.4473C77.6059 47.098 77.7273 47.14 77.8113 47.224C77.8953 47.308 77.9373 47.4293 77.9373 47.588V47.896C78.3666 47.224 79.0293 46.888 79.9253 46.888C80.3733 46.888 80.7653 46.9813 81.1013 47.168C81.4373 47.3547 81.6939 47.616 81.8713 47.952C82.3473 47.2427 83.0426 46.888 83.9573 46.888ZM92.9093 52.236C93.0306 52.1333 93.1473 52.082 93.2593 52.082C93.3713 52.082 93.4879 52.1427 93.6093 52.264L93.8053 52.474C93.9079 52.5953 93.9593 52.712 93.9593 52.824C93.9593 52.9453 93.8986 53.062 93.7773 53.174C93.3479 53.5473 92.9186 53.8133 92.4893 53.972C92.0693 54.1307 91.6026 54.21 91.0893 54.21C90.3706 54.21 89.7453 54.0607 89.2133 53.762C88.6906 53.4633 88.2846 53.0433 87.9953 52.502C87.7153 51.9513 87.5753 51.3167 87.5753 50.598C87.5753 49.8887 87.7106 49.254 87.9813 48.694C88.2613 48.1247 88.6533 47.6813 89.1573 47.364C89.6706 47.0467 90.2679 46.888 90.9493 46.888C91.9666 46.888 92.7506 47.1913 93.3013 47.798C93.8519 48.3953 94.1273 49.2213 94.1273 50.276V50.402C94.1179 50.5513 94.0713 50.668 93.9873 50.752C93.9033 50.836 93.7819 50.878 93.6233 50.878H89.0313C89.0873 51.494 89.2879 51.998 89.6333 52.39C89.9879 52.7727 90.4826 52.964 91.1173 52.964C91.4626 52.964 91.7659 52.9127 92.0273 52.81C92.2886 52.698 92.5826 52.5067 92.9093 52.236ZM90.9213 48.064C90.4079 48.064 89.9926 48.218 89.6753 48.526C89.3673 48.8247 89.1666 49.2493 89.0733 49.8H92.6713C92.6339 49.2587 92.4659 48.834 92.1673 48.526C91.8686 48.218 91.4533 48.064 90.9213 48.064ZM99.0008 46.888C99.7941 46.888 100.401 47.112 100.821 47.56C101.25 47.9987 101.465 48.568 101.465 49.268V53.51C101.465 53.6593 101.423 53.7807 101.339 53.874C101.255 53.958 101.133 54 100.975 54H100.471C100.321 54 100.2 53.958 100.107 53.874C100.023 53.7807 99.9808 53.6593 99.9808 53.51V49.73C99.9808 49.226 99.8548 48.8387 99.6028 48.568C99.3601 48.2973 99.0101 48.162 98.5528 48.162C98.1048 48.162 97.7268 48.316 97.4188 48.624C97.1201 48.932 96.9708 49.3193 96.9708 49.786V53.51C96.9708 53.6593 96.9288 53.7807 96.8448 53.874C96.7608 53.958 96.6395 54 96.4808 54H95.9768C95.8275 54 95.7061 53.958 95.6128 53.874C95.5288 53.7807 95.4868 53.6593 95.4868 53.51V47.588C95.4868 47.4293 95.5288 47.308 95.6128 47.224C95.7061 47.14 95.8275 47.098 95.9768 47.098H96.3828C96.5415 47.098 96.6628 47.14 96.7468 47.224C96.8308 47.308 96.8728 47.4293 96.8728 47.588V47.952C97.0968 47.6067 97.3908 47.3453 97.7548 47.168C98.1188 46.9813 98.5341 46.888 99.0008 46.888ZM106.352 52.824C106.38 52.8147 106.422 52.81 106.478 52.81C106.711 52.81 106.851 52.9453 106.898 53.216L106.94 53.44C106.949 53.468 106.954 53.5147 106.954 53.58C106.954 53.8133 106.823 53.9627 106.562 54.028C106.189 54.112 105.848 54.154 105.54 54.154C104.877 54.154 104.397 54 104.098 53.692C103.809 53.384 103.664 52.922 103.664 52.306V48.232H102.894C102.745 48.232 102.623 48.19 102.53 48.106C102.446 48.0127 102.404 47.8913 102.404 47.742V47.588C102.404 47.4293 102.446 47.308 102.53 47.224C102.623 47.14 102.745 47.098 102.894 47.098H103.664V45.362C103.664 45.2033 103.706 45.082 103.79 44.998C103.883 44.914 104.005 44.872 104.154 44.872H104.658C104.817 44.872 104.938 44.914 105.022 44.998C105.106 45.082 105.148 45.2033 105.148 45.362V47.098H106.408C106.567 47.098 106.688 47.14 106.772 47.224C106.856 47.308 106.898 47.4293 106.898 47.588V47.742C106.898 47.8913 106.856 48.0127 106.772 48.106C106.688 48.19 106.567 48.232 106.408 48.232H105.148V52.124C105.148 52.3947 105.204 52.586 105.316 52.698C105.437 52.81 105.629 52.866 105.89 52.866C106.002 52.866 106.156 52.852 106.352 52.824ZM113.91 54.21C113.341 54.21 112.832 54.14 112.384 54C111.946 53.8507 111.498 53.594 111.04 53.23C110.9 53.1273 110.83 53.0107 110.83 52.88C110.83 52.7773 110.882 52.6653 110.984 52.544L111.194 52.306C111.306 52.1753 111.428 52.11 111.558 52.11C111.661 52.11 111.773 52.1567 111.894 52.25C112.286 52.5393 112.632 52.74 112.93 52.852C113.229 52.9547 113.565 53.006 113.938 53.006C114.34 53.006 114.666 52.9267 114.918 52.768C115.18 52.6 115.31 52.376 115.31 52.096C115.31 51.8813 115.236 51.7133 115.086 51.592C114.946 51.4613 114.76 51.3633 114.526 51.298C114.293 51.2233 113.948 51.1393 113.49 51.046C112.846 50.906 112.342 50.7567 111.978 50.598C111.624 50.43 111.367 50.22 111.208 49.968C111.05 49.716 110.97 49.394 110.97 49.002C110.97 48.6007 111.082 48.2413 111.306 47.924C111.54 47.6067 111.862 47.3547 112.272 47.168C112.692 46.9813 113.182 46.888 113.742 46.888C114.246 46.888 114.694 46.944 115.086 47.056C115.488 47.168 115.88 47.3593 116.262 47.63C116.412 47.742 116.486 47.868 116.486 48.008C116.486 48.1013 116.44 48.2087 116.346 48.33L116.164 48.554C116.062 48.6847 115.936 48.75 115.786 48.75C115.674 48.75 115.567 48.7127 115.464 48.638C115.156 48.4327 114.872 48.2927 114.61 48.218C114.349 48.134 114.055 48.092 113.728 48.092C113.327 48.092 113.005 48.1713 112.762 48.33C112.52 48.4887 112.398 48.694 112.398 48.946C112.398 49.114 112.454 49.2493 112.566 49.352C112.688 49.4453 112.856 49.5293 113.07 49.604C113.294 49.6693 113.644 49.7533 114.12 49.856C114.764 49.996 115.273 50.1547 115.646 50.332C116.029 50.5 116.309 50.7193 116.486 50.99C116.673 51.2513 116.766 51.592 116.766 52.012C116.766 52.6653 116.505 53.1973 115.982 53.608C115.469 54.0093 114.778 54.21 113.91 54.21ZM118.801 45.754C118.531 45.754 118.302 45.6653 118.115 45.488C117.929 45.3013 117.835 45.082 117.835 44.83C117.835 44.5687 117.929 44.3493 118.115 44.172C118.302 43.9947 118.531 43.906 118.801 43.906C119.072 43.906 119.301 43.9947 119.487 44.172C119.674 44.3493 119.767 44.5687 119.767 44.83C119.767 45.082 119.674 45.3013 119.487 45.488C119.301 45.6653 119.072 45.754 118.801 45.754ZM118.535 54C118.386 54 118.265 53.958 118.171 53.874C118.087 53.7807 118.045 53.6593 118.045 53.51V47.588C118.045 47.4293 118.087 47.308 118.171 47.224C118.265 47.14 118.386 47.098 118.535 47.098H119.039C119.198 47.098 119.319 47.14 119.403 47.224C119.487 47.308 119.529 47.4293 119.529 47.588V53.51C119.529 53.6593 119.487 53.7807 119.403 53.874C119.319 53.958 119.198 54 119.039 54H118.535ZM126.033 47.098C126.191 47.098 126.313 47.14 126.397 47.224C126.481 47.308 126.523 47.4293 126.523 47.588V47.854C126.523 48.0873 126.448 48.2927 126.299 48.47L122.715 52.782H126.033C126.191 52.782 126.313 52.824 126.397 52.908C126.481 52.992 126.523 53.1133 126.523 53.272V53.51C126.523 53.6593 126.481 53.7807 126.397 53.874C126.313 53.958 126.191 54 126.033 54H121.371C121.221 54 121.1 53.958 121.007 53.874C120.923 53.7807 120.881 53.6593 120.881 53.51V53.23C120.881 52.9967 120.955 52.7913 121.105 52.614L124.703 48.302H121.609C121.459 48.302 121.338 48.26 121.245 48.176C121.161 48.0827 121.119 47.9613 121.119 47.812V47.588C121.119 47.4293 121.161 47.308 121.245 47.224C121.338 47.14 121.459 47.098 121.609 47.098H126.033ZM132.653 52.236C132.775 52.1333 132.891 52.082 133.003 52.082C133.115 52.082 133.232 52.1427 133.353 52.264L133.549 52.474C133.652 52.5953 133.703 52.712 133.703 52.824C133.703 52.9453 133.643 53.062 133.521 53.174C133.092 53.5473 132.663 53.8133 132.233 53.972C131.813 54.1307 131.347 54.21 130.833 54.21C130.115 54.21 129.489 54.0607 128.957 53.762C128.435 53.4633 128.029 53.0433 127.739 52.502C127.459 51.9513 127.319 51.3167 127.319 50.598C127.319 49.8887 127.455 49.254 127.725 48.694C128.005 48.1247 128.397 47.6813 128.901 47.364C129.415 47.0467 130.012 46.888 130.693 46.888C131.711 46.888 132.495 47.1913 133.045 47.798C133.596 48.3953 133.871 49.2213 133.871 50.276V50.402C133.862 50.5513 133.815 50.668 133.731 50.752C133.647 50.836 133.526 50.878 133.367 50.878H128.775C128.831 51.494 129.032 51.998 129.377 52.39C129.732 52.7727 130.227 52.964 130.861 52.964C131.207 52.964 131.51 52.9127 131.771 52.81C132.033 52.698 132.327 52.5067 132.653 52.236ZM130.665 48.064C130.152 48.064 129.737 48.218 129.419 48.526C129.111 48.8247 128.911 49.2493 128.817 49.8H132.415C132.378 49.2587 132.21 48.834 131.911 48.526C131.613 48.218 131.197 48.064 130.665 48.064Z" fill="#1B1B1F"/>
<rect x="40" y="78" width="252" height="4" rx="2" fill="#DEDEE3"/>
<rect x="54" y="77" width="224" height="6" rx="3" fill="#0063FB"/>
<rect x="264" y="66" width="28" height="28" rx="14" fill="#0063FB"/>
<rect x="40" y="66" width="28" height="28" rx="14" fill="#0063FB"/>
<defs>
<clipPath id="clip0_5449_10367">
<rect width="98" height="22" fill="white" transform="translate(48 145)"/>
</clipPath>
<clipPath id="clip1_5449_10367">
<rect width="98" height="22" fill="white" transform="translate(186 145)"/>
</clipPath>
</defs>
</svg>
