<svg width="688" height="352" viewBox="0 0 688 352" fill="none" xmlns="http://www.w3.org/2000/svg">
<rect y="16" width="688" height="320" rx="10" fill="#FAFAFA"/>
<path d="M212.2 231.21C211.547 231.21 210.973 231.051 210.478 230.734C209.993 230.417 209.605 229.973 209.316 229.404C208.859 228.499 208.63 227.374 208.63 226.03C208.63 224.677 208.859 223.547 209.316 222.642C209.605 222.073 209.993 221.634 210.478 221.326C210.973 221.009 211.547 220.85 212.2 220.85C212.853 220.85 213.423 221.009 213.908 221.326C214.403 221.634 214.795 222.073 215.084 222.642C215.541 223.547 215.77 224.677 215.77 226.03C215.77 227.374 215.541 228.499 215.084 229.404C214.795 229.973 214.403 230.417 213.908 230.734C213.423 231.051 212.853 231.21 212.2 231.21ZM212.2 230.398C213.115 230.398 213.801 229.922 214.258 228.97C214.622 228.195 214.804 227.215 214.804 226.03C214.804 224.826 214.622 223.841 214.258 223.076C213.81 222.133 213.124 221.662 212.2 221.662C211.276 221.662 210.59 222.133 210.142 223.076C209.778 223.841 209.596 224.826 209.596 226.03C209.596 227.225 209.778 228.205 210.142 228.97C210.599 229.922 211.285 230.398 212.2 230.398Z" fill="#5C5C66"/>
<path d="M418.497 221.34C418.497 221.153 418.59 221.06 418.777 221.06H425.133C425.32 221.06 425.413 221.153 425.413 221.34V221.536C425.413 221.676 425.371 221.793 425.287 221.886C424.354 223.062 423.518 224.443 422.781 226.03C422.053 227.607 421.568 229.18 421.325 230.748C421.297 230.916 421.194 231 421.017 231H420.583C420.49 231 420.42 230.977 420.373 230.93C420.326 230.874 420.308 230.799 420.317 230.706C420.578 229.185 421.087 227.621 421.843 226.016C422.599 224.411 423.434 223.025 424.349 221.858H418.777C418.59 221.858 418.497 221.765 418.497 221.578V221.34ZM430.032 231.21C429.379 231.21 428.805 231.051 428.31 230.734C427.825 230.417 427.437 229.973 427.148 229.404C426.691 228.499 426.462 227.374 426.462 226.03C426.462 224.677 426.691 223.547 427.148 222.642C427.437 222.073 427.825 221.634 428.31 221.326C428.805 221.009 429.379 220.85 430.032 220.85C430.685 220.85 431.255 221.009 431.74 221.326C432.235 221.634 432.627 222.073 432.916 222.642C433.373 223.547 433.602 224.677 433.602 226.03C433.602 227.374 433.373 228.499 432.916 229.404C432.627 229.973 432.235 230.417 431.74 230.734C431.255 231.051 430.685 231.21 430.032 231.21ZM430.032 230.398C430.947 230.398 431.633 229.922 432.09 228.97C432.454 228.195 432.636 227.215 432.636 226.03C432.636 224.826 432.454 223.841 432.09 223.076C431.642 222.133 430.956 221.662 430.032 221.662C429.108 221.662 428.422 222.133 427.974 223.076C427.61 223.841 427.428 224.826 427.428 226.03C427.428 227.225 427.61 228.205 427.974 228.97C428.431 229.922 429.117 230.398 430.032 230.398ZM438.618 231.21C437.965 231.21 437.391 231.051 436.896 230.734C436.411 230.417 436.023 229.973 435.734 229.404C435.277 228.499 435.048 227.374 435.048 226.03C435.048 224.677 435.277 223.547 435.734 222.642C436.023 222.073 436.411 221.634 436.896 221.326C437.391 221.009 437.965 220.85 438.618 220.85C439.271 220.85 439.841 221.009 440.326 221.326C440.821 221.634 441.213 222.073 441.502 222.642C441.959 223.547 442.188 224.677 442.188 226.03C442.188 227.374 441.959 228.499 441.502 229.404C441.213 229.973 440.821 230.417 440.326 230.734C439.841 231.051 439.271 231.21 438.618 231.21ZM438.618 230.398C439.533 230.398 440.219 229.922 440.676 228.97C441.04 228.195 441.222 227.215 441.222 226.03C441.222 224.826 441.04 223.841 440.676 223.076C440.228 222.133 439.542 221.662 438.618 221.662C437.694 221.662 437.008 222.133 436.56 223.076C436.196 223.841 436.014 224.826 436.014 226.03C436.014 227.225 436.196 228.205 436.56 228.97C437.017 229.922 437.703 230.398 438.618 230.398ZM450.239 231.21C449.586 231.21 449.012 231.051 448.517 230.734C448.032 230.417 447.644 229.973 447.355 229.404C446.898 228.499 446.669 227.374 446.669 226.03C446.669 224.677 446.898 223.547 447.355 222.642C447.644 222.073 448.032 221.634 448.517 221.326C449.012 221.009 449.586 220.85 450.239 220.85C450.892 220.85 451.462 221.009 451.947 221.326C452.442 221.634 452.834 222.073 453.123 222.642C453.58 223.547 453.809 224.677 453.809 226.03C453.809 227.374 453.58 228.499 453.123 229.404C452.834 229.973 452.442 230.417 451.947 230.734C451.462 231.051 450.892 231.21 450.239 231.21ZM450.239 230.398C451.154 230.398 451.84 229.922 452.297 228.97C452.661 228.195 452.843 227.215 452.843 226.03C452.843 224.826 452.661 223.841 452.297 223.076C451.849 222.133 451.163 221.662 450.239 221.662C449.315 221.662 448.629 222.133 448.181 223.076C447.817 223.841 447.635 224.826 447.635 226.03C447.635 227.225 447.817 228.205 448.181 228.97C448.638 229.922 449.324 230.398 450.239 230.398ZM458.825 231.21C458.172 231.21 457.598 231.051 457.103 230.734C456.618 230.417 456.23 229.973 455.941 229.404C455.484 228.499 455.255 227.374 455.255 226.03C455.255 224.677 455.484 223.547 455.941 222.642C456.23 222.073 456.618 221.634 457.103 221.326C457.598 221.009 458.172 220.85 458.825 220.85C459.478 220.85 460.048 221.009 460.533 221.326C461.028 221.634 461.42 222.073 461.709 222.642C462.166 223.547 462.395 224.677 462.395 226.03C462.395 227.374 462.166 228.499 461.709 229.404C461.42 229.973 461.028 230.417 460.533 230.734C460.048 231.051 459.478 231.21 458.825 231.21ZM458.825 230.398C459.74 230.398 460.426 229.922 460.883 228.97C461.247 228.195 461.429 227.215 461.429 226.03C461.429 224.826 461.247 223.841 460.883 223.076C460.435 222.133 459.749 221.662 458.825 221.662C457.901 221.662 457.215 222.133 456.767 223.076C456.403 223.841 456.221 224.826 456.221 226.03C456.221 227.225 456.403 228.205 456.767 228.97C457.224 229.922 457.91 230.398 458.825 230.398ZM467.411 231.21C466.758 231.21 466.184 231.051 465.689 230.734C465.204 230.417 464.816 229.973 464.527 229.404C464.07 228.499 463.841 227.374 463.841 226.03C463.841 224.677 464.07 223.547 464.527 222.642C464.816 222.073 465.204 221.634 465.689 221.326C466.184 221.009 466.758 220.85 467.411 220.85C468.064 220.85 468.634 221.009 469.119 221.326C469.614 221.634 470.006 222.073 470.295 222.642C470.752 223.547 470.981 224.677 470.981 226.03C470.981 227.374 470.752 228.499 470.295 229.404C470.006 229.973 469.614 230.417 469.119 230.734C468.634 231.051 468.064 231.21 467.411 231.21ZM467.411 230.398C468.326 230.398 469.012 229.922 469.469 228.97C469.833 228.195 470.015 227.215 470.015 226.03C470.015 224.826 469.833 223.841 469.469 223.076C469.021 222.133 468.335 221.662 467.411 221.662C466.487 221.662 465.801 222.133 465.353 223.076C464.989 223.841 464.807 224.826 464.807 226.03C464.807 227.225 464.989 228.205 465.353 228.97C465.81 229.922 466.496 230.398 467.411 230.398ZM475.679 230.3C475.493 230.3 475.399 230.207 475.399 230.02V227.052H472.445C472.259 227.052 472.165 226.959 472.165 226.772V226.548C472.165 226.361 472.259 226.268 472.445 226.268H475.399V223.3C475.399 223.113 475.493 223.02 475.679 223.02H475.931C476.118 223.02 476.211 223.113 476.211 223.3V226.268H479.165C479.352 226.268 479.445 226.361 479.445 226.548V226.772C479.445 226.959 479.352 227.052 479.165 227.052H476.211V230.02C476.211 230.207 476.118 230.3 475.931 230.3H475.679Z" fill="#5C5C66"/>
<rect x="208" y="193" width="272" height="4" rx="2" fill="#DEDEE3"/>
<rect x="222" y="192" width="244" height="6" rx="3" fill="#0063FB"/>
<rect x="452" y="181" width="28" height="28" rx="14" fill="#0063FB"/>
<rect x="208" y="181" width="28" height="28" rx="14" fill="#0063FB"/>
<mask id="path-8-inside-1_5456_14539" fill="white">
<path d="M208 117H332V165H208V117Z"/>
</mask>
<path d="M332 165V164H208V165V166H332V165Z" fill="#84848F" mask="url(#path-8-inside-1_5456_14539)"/>
<g clip-path="url(#clip0_5456_14539)">
<path d="M221.662 133.018C221.794 132.593 222.087 132.38 222.542 132.38H225.05C225.299 132.38 225.49 132.446 225.622 132.578C225.754 132.71 225.82 132.901 225.82 133.15V147.23C225.82 147.465 225.754 147.655 225.622 147.802C225.49 147.934 225.299 148 225.05 148H224.148C223.913 148 223.723 147.934 223.576 147.802C223.444 147.655 223.378 147.465 223.378 147.23V140.146C223.378 139.266 223.393 137.946 223.422 136.186L223.444 134.272C223.268 134.829 222.85 136.098 222.19 138.078L221.508 140.146L219.088 147.362C218.956 147.787 218.663 148 218.208 148H217.35C216.895 148 216.602 147.795 216.47 147.384L214.006 140.146C213.141 137.653 212.488 135.695 212.048 134.272C212.077 136.853 212.092 138.811 212.092 140.146V147.23C212.092 147.465 212.026 147.655 211.894 147.802C211.762 147.934 211.571 148 211.322 148H210.464C210.229 148 210.039 147.934 209.892 147.802C209.76 147.655 209.694 147.465 209.694 147.23V133.15C209.694 132.901 209.76 132.71 209.892 132.578C210.039 132.446 210.229 132.38 210.464 132.38H213.016C213.471 132.38 213.764 132.585 213.896 132.996L215.942 139.024C216.807 141.605 217.423 143.563 217.79 144.898C218.259 143.255 218.875 141.297 219.638 139.024L221.662 133.018ZM230.038 135.042C229.612 135.042 229.253 134.903 228.96 134.624C228.666 134.331 228.52 133.986 228.52 133.59C228.52 133.179 228.666 132.835 228.96 132.556C229.253 132.277 229.612 132.138 230.038 132.138C230.463 132.138 230.822 132.277 231.116 132.556C231.409 132.835 231.556 133.179 231.556 133.59C231.556 133.986 231.409 134.331 231.116 134.624C230.822 134.903 230.463 135.042 230.038 135.042ZM229.62 148C229.385 148 229.194 147.934 229.048 147.802C228.916 147.655 228.85 147.465 228.85 147.23V137.924C228.85 137.675 228.916 137.484 229.048 137.352C229.194 137.22 229.385 137.154 229.62 137.154H230.412C230.661 137.154 230.852 137.22 230.984 137.352C231.116 137.484 231.182 137.675 231.182 137.924V147.23C231.182 147.465 231.116 147.655 230.984 147.802C230.852 147.934 230.661 148 230.412 148H229.62ZM239.399 136.824C240.646 136.824 241.599 137.176 242.259 137.88C242.934 138.569 243.271 139.464 243.271 140.564V147.23C243.271 147.465 243.205 147.655 243.073 147.802C242.941 147.934 242.75 148 242.501 148H241.709C241.474 148 241.284 147.934 241.137 147.802C241.005 147.655 240.939 147.465 240.939 147.23V141.29C240.939 140.498 240.741 139.889 240.345 139.464C239.964 139.039 239.414 138.826 238.695 138.826C237.991 138.826 237.397 139.068 236.913 139.552C236.444 140.036 236.209 140.645 236.209 141.378V147.23C236.209 147.465 236.143 147.655 236.011 147.802C235.879 147.934 235.688 148 235.439 148H234.647C234.412 148 234.222 147.934 234.075 147.802C233.943 147.655 233.877 147.465 233.877 147.23V137.924C233.877 137.675 233.943 137.484 234.075 137.352C234.222 137.22 234.412 137.154 234.647 137.154H235.285C235.534 137.154 235.725 137.22 235.857 137.352C235.989 137.484 236.055 137.675 236.055 137.924V138.496C236.407 137.953 236.869 137.543 237.441 137.264C238.013 136.971 238.666 136.824 239.399 136.824ZM258.901 148C258.491 148 258.183 147.831 257.977 147.494L254.941 142.786L253.203 144.546V147.23C253.203 147.465 253.137 147.655 253.005 147.802C252.873 147.934 252.683 148 252.433 148H251.641C251.407 148 251.216 147.934 251.069 147.802C250.937 147.655 250.871 147.465 250.871 147.23V133.15C250.871 132.901 250.937 132.71 251.069 132.578C251.216 132.446 251.407 132.38 251.641 132.38H252.433C252.683 132.38 252.873 132.446 253.005 132.578C253.137 132.71 253.203 132.901 253.203 133.15V141.972L257.361 137.572C257.625 137.293 257.948 137.154 258.329 137.154H259.165C259.385 137.154 259.547 137.198 259.649 137.286C259.767 137.359 259.825 137.462 259.825 137.594C259.825 137.77 259.745 137.939 259.583 138.1L256.547 141.268L260.287 147.076C260.39 147.237 260.441 147.384 260.441 147.516C260.441 147.663 260.383 147.78 260.265 147.868C260.148 147.956 259.987 148 259.781 148H258.901ZM267.164 137.044C267.486 137.044 267.816 137.081 268.154 137.154C268.55 137.242 268.748 137.477 268.748 137.858C268.748 137.961 268.74 138.034 268.726 138.078L268.616 138.606C268.528 139.017 268.308 139.222 267.956 139.222L267.758 139.2C267.494 139.156 267.259 139.134 267.054 139.134C266.32 139.134 265.726 139.427 265.272 140.014C264.832 140.586 264.612 141.385 264.612 142.412V147.23C264.612 147.465 264.546 147.655 264.414 147.802C264.282 147.934 264.091 148 263.841 148H263.05C262.815 148 262.624 147.934 262.478 147.802C262.346 147.655 262.28 147.465 262.28 147.23V137.924C262.28 137.675 262.346 137.484 262.478 137.352C262.624 137.22 262.815 137.154 263.05 137.154H263.688C263.937 137.154 264.128 137.22 264.26 137.352C264.392 137.484 264.458 137.675 264.458 137.924V138.782C264.722 138.239 265.081 137.814 265.536 137.506C265.99 137.198 266.533 137.044 267.164 137.044Z" fill="#1B1B1F"/>
</g>
<mask id="path-11-inside-2_5456_14539" fill="white">
<path d="M356 117H480V165H356V117Z"/>
</mask>
<path d="M480 165V164H356V165V166H480V165Z" fill="#84848F" mask="url(#path-11-inside-2_5456_14539)"/>
<g clip-path="url(#clip1_5456_14539)">
<path d="M369.662 133.018C369.794 132.593 370.087 132.38 370.542 132.38H373.05C373.299 132.38 373.49 132.446 373.622 132.578C373.754 132.71 373.82 132.901 373.82 133.15V147.23C373.82 147.465 373.754 147.655 373.622 147.802C373.49 147.934 373.299 148 373.05 148H372.148C371.913 148 371.723 147.934 371.576 147.802C371.444 147.655 371.378 147.465 371.378 147.23V140.146C371.378 139.266 371.393 137.946 371.422 136.186L371.444 134.272C371.268 134.829 370.85 136.098 370.19 138.078L369.508 140.146L367.088 147.362C366.956 147.787 366.663 148 366.208 148H365.35C364.895 148 364.602 147.795 364.47 147.384L362.006 140.146C361.141 137.653 360.488 135.695 360.048 134.272C360.077 136.853 360.092 138.811 360.092 140.146V147.23C360.092 147.465 360.026 147.655 359.894 147.802C359.762 147.934 359.571 148 359.322 148H358.464C358.229 148 358.039 147.934 357.892 147.802C357.76 147.655 357.694 147.465 357.694 147.23V133.15C357.694 132.901 357.76 132.71 357.892 132.578C358.039 132.446 358.229 132.38 358.464 132.38H361.016C361.471 132.38 361.764 132.585 361.896 132.996L363.942 139.024C364.807 141.605 365.423 143.563 365.79 144.898C366.259 143.255 366.875 141.297 367.638 139.024L369.662 133.018ZM381.426 136.824C382.892 136.824 384.022 137.169 384.814 137.858C385.606 138.533 386.002 139.435 386.002 140.564V147.23C386.002 147.465 385.936 147.655 385.804 147.802C385.672 147.934 385.481 148 385.232 148H384.66C384.425 148 384.234 147.934 384.088 147.802C383.956 147.655 383.89 147.465 383.89 147.23V146.746C383.538 147.259 383.054 147.655 382.438 147.934C381.822 148.213 381.103 148.352 380.282 148.352C379.152 148.352 378.221 148.103 377.488 147.604C376.769 147.091 376.41 146.321 376.41 145.294C376.41 144.15 376.835 143.307 377.686 142.764C378.551 142.207 379.746 141.789 381.272 141.51L383.758 141.048V140.652C383.758 140.051 383.545 139.589 383.12 139.266C382.709 138.929 382.159 138.76 381.47 138.76C380.883 138.76 380.37 138.863 379.93 139.068C379.504 139.259 379.042 139.581 378.544 140.036C378.353 140.197 378.17 140.278 377.994 140.278C377.818 140.278 377.634 140.197 377.444 140.036L377.092 139.728C376.901 139.552 376.806 139.361 376.806 139.156C376.806 138.965 376.894 138.782 377.07 138.606C377.7 138.005 378.368 137.557 379.072 137.264C379.776 136.971 380.56 136.824 381.426 136.824ZM380.612 146.482C381.492 146.482 382.232 146.247 382.834 145.778C383.45 145.309 383.758 144.634 383.758 143.754V142.742L381.844 143.138C380.773 143.358 379.981 143.607 379.468 143.886C378.954 144.165 378.698 144.59 378.698 145.162C378.698 145.573 378.866 145.895 379.204 146.13C379.541 146.365 380.01 146.482 380.612 146.482ZM397.356 147.076C397.474 147.267 397.532 147.421 397.532 147.538C397.532 147.685 397.474 147.802 397.356 147.89C397.239 147.963 397.078 148 396.872 148H396.014C395.604 148 395.296 147.831 395.09 147.494L392.736 143.952L390.382 147.494C390.177 147.831 389.869 148 389.458 148H388.666C388.446 148 388.278 147.963 388.16 147.89C388.043 147.802 387.984 147.685 387.984 147.538C387.984 147.421 388.043 147.267 388.16 147.076L391.438 142.324L388.49 138.078C388.373 137.887 388.314 137.733 388.314 137.616C388.314 137.469 388.373 137.359 388.49 137.286C388.608 137.198 388.776 137.154 388.996 137.154H389.81C390.206 137.154 390.514 137.315 390.734 137.638L392.78 140.674L394.782 137.66C394.988 137.323 395.296 137.154 395.706 137.154H396.476C396.682 137.154 396.843 137.198 396.96 137.286C397.078 137.374 397.136 137.491 397.136 137.638C397.136 137.755 397.078 137.909 396.96 138.1L394.078 142.236L397.356 147.076ZM412.466 148C412.055 148 411.747 147.831 411.542 147.494L408.506 142.786L406.768 144.546V147.23C406.768 147.465 406.702 147.655 406.57 147.802C406.438 147.934 406.247 148 405.998 148H405.206C404.971 148 404.78 147.934 404.634 147.802C404.502 147.655 404.436 147.465 404.436 147.23V133.15C404.436 132.901 404.502 132.71 404.634 132.578C404.78 132.446 404.971 132.38 405.206 132.38H405.998C406.247 132.38 406.438 132.446 406.57 132.578C406.702 132.71 406.768 132.901 406.768 133.15V141.972L410.926 137.572C411.19 137.293 411.512 137.154 411.894 137.154H412.73C412.95 137.154 413.111 137.198 413.214 137.286C413.331 137.359 413.39 137.462 413.39 137.594C413.39 137.77 413.309 137.939 413.148 138.1L410.112 141.268L413.852 147.076C413.954 147.237 414.006 147.384 414.006 147.516C414.006 147.663 413.947 147.78 413.83 147.868C413.712 147.956 413.551 148 413.346 148H412.466ZM420.728 137.044C421.051 137.044 421.381 137.081 421.718 137.154C422.114 137.242 422.312 137.477 422.312 137.858C422.312 137.961 422.305 138.034 422.29 138.078L422.18 138.606C422.092 139.017 421.872 139.222 421.52 139.222L421.322 139.2C421.058 139.156 420.823 139.134 420.618 139.134C419.885 139.134 419.291 139.427 418.836 140.014C418.396 140.586 418.176 141.385 418.176 142.412V147.23C418.176 147.465 418.11 147.655 417.978 147.802C417.846 147.934 417.655 148 417.406 148H416.614C416.379 148 416.189 147.934 416.042 147.802C415.91 147.655 415.844 147.465 415.844 147.23V137.924C415.844 137.675 415.91 137.484 416.042 137.352C416.189 137.22 416.379 137.154 416.614 137.154H417.252C417.501 137.154 417.692 137.22 417.824 137.352C417.956 137.484 418.022 137.675 418.022 137.924V138.782C418.286 138.239 418.645 137.814 419.1 137.506C419.555 137.198 420.097 137.044 420.728 137.044Z" fill="#1B1B1F"/>
</g>
<defs>
<clipPath id="clip0_5456_14539">
<rect width="124" height="22" fill="white" transform="translate(208 130)"/>
</clipPath>
<clipPath id="clip1_5456_14539">
<rect width="124" height="22" fill="white" transform="translate(356 130)"/>
</clipPath>
</defs>
</svg>
