<svg width="332" height="220" viewBox="0 0 332 220" fill="none" xmlns="http://www.w3.org/2000/svg">
<rect x="40.5" y="132.5" width="113" height="47" rx="3.5" fill="white"/>
<rect x="40.5" y="132.5" width="113" height="47" rx="3.5" stroke="#84848F"/>
<g clip-path="url(#clip0_5485_16414)">
<path d="M52.8 161.24C52.0533 161.24 51.3973 161.059 50.832 160.696C50.2773 160.333 49.8347 159.827 49.504 159.176C48.9813 158.141 48.72 156.856 48.72 155.32C48.72 153.773 48.9813 152.483 49.504 151.448C49.8347 150.797 50.2773 150.296 50.832 149.944C51.3973 149.581 52.0533 149.4 52.8 149.4C53.5467 149.4 54.1973 149.581 54.752 149.944C55.3173 150.296 55.7653 150.797 56.096 151.448C56.6187 152.483 56.88 153.773 56.88 155.32C56.88 156.856 56.6187 158.141 56.096 159.176C55.7653 159.827 55.3173 160.333 54.752 160.696C54.1973 161.059 53.5467 161.24 52.8 161.24ZM52.8 160.312C53.8453 160.312 54.6293 159.768 55.152 158.68C55.568 157.795 55.776 156.675 55.776 155.32C55.776 153.944 55.568 152.819 55.152 151.944C54.64 150.867 53.856 150.328 52.8 150.328C51.744 150.328 50.96 150.867 50.448 151.944C50.032 152.819 49.824 153.944 49.824 155.32C49.824 156.685 50.032 157.805 50.448 158.68C50.9707 159.768 51.7547 160.312 52.8 160.312Z" fill="#1B1B1F"/>
<path d="M123.272 160C123.112 160 123.032 159.92 123.032 159.76V151.72C123.032 151.56 123.112 151.48 123.272 151.48H128.312C128.472 151.48 128.552 151.56 128.552 151.72V151.948C128.552 152.108 128.472 152.188 128.312 152.188H123.884V155.272H127.976C128.136 155.272 128.216 155.352 128.216 155.512V155.728C128.216 155.888 128.136 155.968 127.976 155.968H123.884V159.292H128.408C128.568 159.292 128.648 159.372 128.648 159.532V159.76C128.648 159.92 128.568 160 128.408 160H123.272ZM133.275 160.168C132.227 160.168 131.447 159.924 130.935 159.436C130.423 158.94 130.167 158.248 130.167 157.36V151.72C130.167 151.56 130.247 151.48 130.407 151.48H130.779C130.939 151.48 131.019 151.56 131.019 151.72V157.3C131.019 158.004 131.211 158.536 131.595 158.896C131.987 159.256 132.547 159.436 133.275 159.436C134.019 159.436 134.583 159.256 134.967 158.896C135.351 158.536 135.543 158.004 135.543 157.3V151.72C135.543 151.56 135.623 151.48 135.783 151.48H136.155C136.315 151.48 136.395 151.56 136.395 151.72V157.36C136.395 158.248 136.139 158.94 135.627 159.436C135.115 159.924 134.331 160.168 133.275 160.168ZM144.588 159.712C144.62 159.752 144.636 159.796 144.636 159.844C144.636 159.948 144.568 160 144.432 160H143.988C143.868 160 143.772 159.948 143.7 159.844L141.42 156.46H139.236V159.76C139.236 159.92 139.156 160 138.996 160H138.624C138.464 160 138.384 159.92 138.384 159.76V151.72C138.384 151.56 138.464 151.48 138.624 151.48H141.756C142.572 151.48 143.232 151.7 143.736 152.14C144.24 152.572 144.492 153.18 144.492 153.964C144.492 154.652 144.296 155.208 143.904 155.632C143.52 156.056 143 156.316 142.344 156.412L144.588 159.712ZM139.236 155.752H141.624C142.256 155.752 142.752 155.6 143.112 155.296C143.472 154.992 143.652 154.548 143.652 153.964C143.652 153.388 143.468 152.948 143.1 152.644C142.74 152.34 142.244 152.188 141.612 152.188H139.236V155.752Z" fill="#5C5C66"/>
</g>
<rect x="178.5" y="132.5" width="113" height="47" rx="3.5" fill="white"/>
<rect x="178.5" y="132.5" width="113" height="47" rx="3.5" stroke="#84848F"/>
<g clip-path="url(#clip1_5485_16414)">
<path d="M196.304 149.896C196.368 149.725 196.491 149.64 196.672 149.64H197.92C198.133 149.64 198.24 149.747 198.24 149.96V160.68C198.24 160.893 198.133 161 197.92 161H197.456C197.243 161 197.136 160.893 197.136 160.68V155.368C197.136 154.227 197.147 152.579 197.168 150.424C196.731 151.672 196.133 153.32 195.376 155.368L193.408 160.744C193.344 160.915 193.221 161 193.04 161H192.576C192.395 161 192.272 160.915 192.208 160.744L190.192 155.352C189.765 154.243 189.173 152.6 188.416 150.424C188.437 152.579 188.448 154.232 188.448 155.384V160.68C188.448 160.893 188.341 161 188.128 161H187.696C187.483 161 187.376 160.893 187.376 160.68V149.96C187.376 149.747 187.483 149.64 187.696 149.64H188.928C189.109 149.64 189.232 149.725 189.296 149.896L191.12 154.808C191.963 157.101 192.528 158.717 192.816 159.656C193.083 158.76 193.541 157.421 194.192 155.64C194.235 155.523 194.283 155.395 194.336 155.256C194.389 155.117 194.443 154.968 194.496 154.808L196.304 149.896ZM203.833 152.92C204.804 152.92 205.561 153.155 206.105 153.624C206.649 154.083 206.921 154.691 206.921 155.448V160.68C206.921 160.893 206.815 161 206.601 161H206.281C206.068 161 205.961 160.893 205.961 160.68V159.96C205.695 160.387 205.316 160.707 204.825 160.92C204.345 161.133 203.807 161.24 203.209 161.24C202.377 161.24 201.7 161.064 201.177 160.712C200.655 160.36 200.393 159.816 200.393 159.08C200.393 158.493 200.559 158.024 200.889 157.672C201.22 157.309 201.652 157.037 202.185 156.856C202.719 156.664 203.385 156.493 204.185 156.344L205.913 156.04V155.528C205.913 154.984 205.727 154.563 205.353 154.264C204.98 153.955 204.489 153.8 203.881 153.8C203.423 153.8 203.007 153.885 202.633 154.056C202.26 154.227 201.86 154.52 201.433 154.936C201.359 155.011 201.279 155.048 201.193 155.048C201.119 155.048 201.049 155.016 200.985 154.952L200.777 154.76C200.703 154.685 200.665 154.605 200.665 154.52C200.665 154.424 200.703 154.339 200.777 154.264C201.225 153.795 201.695 153.453 202.185 153.24C202.687 153.027 203.236 152.92 203.833 152.92ZM203.257 160.36C204.025 160.36 204.66 160.157 205.161 159.752C205.663 159.347 205.913 158.829 205.913 158.2V156.856L204.425 157.144C203.732 157.283 203.183 157.416 202.777 157.544C202.372 157.672 202.047 157.859 201.801 158.104C201.556 158.349 201.433 158.669 201.433 159.064C201.433 159.469 201.593 159.789 201.913 160.024C202.244 160.248 202.692 160.36 203.257 160.36ZM215.054 160.616C215.097 160.691 215.118 160.755 215.118 160.808C215.118 160.936 215.033 161 214.862 161H214.382C214.222 161 214.094 160.931 213.998 160.792L211.822 157.592L209.662 160.792C209.566 160.931 209.438 161 209.278 161H208.83C208.745 161 208.675 160.984 208.622 160.952C208.579 160.909 208.558 160.861 208.558 160.808C208.558 160.733 208.579 160.669 208.622 160.616L211.214 156.888L208.83 153.496C208.787 153.443 208.766 153.384 208.766 153.32C208.766 153.181 208.857 153.112 209.038 153.112H209.502C209.662 153.112 209.79 153.181 209.886 153.32L211.838 156.184L213.774 153.32C213.87 153.181 213.998 153.112 214.158 153.112H214.59C214.675 153.112 214.739 153.133 214.782 153.176C214.835 153.208 214.862 153.251 214.862 153.304C214.862 153.379 214.841 153.443 214.798 153.496L212.462 156.84L215.054 160.616Z" fill="#1B1B1F"/>
<path d="M261.272 160C261.112 160 261.032 159.92 261.032 159.76V151.72C261.032 151.56 261.112 151.48 261.272 151.48H266.312C266.472 151.48 266.552 151.56 266.552 151.72V151.948C266.552 152.108 266.472 152.188 266.312 152.188H261.884V155.272H265.976C266.136 155.272 266.216 155.352 266.216 155.512V155.728C266.216 155.888 266.136 155.968 265.976 155.968H261.884V159.292H266.408C266.568 159.292 266.648 159.372 266.648 159.532V159.76C266.648 159.92 266.568 160 266.408 160H261.272ZM271.275 160.168C270.227 160.168 269.447 159.924 268.935 159.436C268.423 158.94 268.167 158.248 268.167 157.36V151.72C268.167 151.56 268.247 151.48 268.407 151.48H268.779C268.939 151.48 269.019 151.56 269.019 151.72V157.3C269.019 158.004 269.211 158.536 269.595 158.896C269.987 159.256 270.547 159.436 271.275 159.436C272.019 159.436 272.583 159.256 272.967 158.896C273.351 158.536 273.543 158.004 273.543 157.3V151.72C273.543 151.56 273.623 151.48 273.783 151.48H274.155C274.315 151.48 274.395 151.56 274.395 151.72V157.36C274.395 158.248 274.139 158.94 273.627 159.436C273.115 159.924 272.331 160.168 271.275 160.168ZM282.588 159.712C282.62 159.752 282.636 159.796 282.636 159.844C282.636 159.948 282.568 160 282.432 160H281.988C281.868 160 281.772 159.948 281.7 159.844L279.42 156.46H277.236V159.76C277.236 159.92 277.156 160 276.996 160H276.624C276.464 160 276.384 159.92 276.384 159.76V151.72C276.384 151.56 276.464 151.48 276.624 151.48H279.756C280.572 151.48 281.232 151.7 281.736 152.14C282.24 152.572 282.492 153.18 282.492 153.964C282.492 154.652 282.296 155.208 281.904 155.632C281.52 156.056 281 156.316 280.344 156.412L282.588 159.712ZM277.236 155.752H279.624C280.256 155.752 280.752 155.6 281.112 155.296C281.472 154.992 281.652 154.548 281.652 153.964C281.652 153.388 281.468 152.948 281.1 152.644C280.74 152.34 280.244 152.188 279.612 152.188H277.236V155.752Z" fill="#5C5C66"/>
</g>
<path d="M44.2 116.21C43.5467 116.21 42.9727 116.051 42.478 115.734C41.9927 115.417 41.6053 114.973 41.316 114.404C40.8587 113.499 40.63 112.374 40.63 111.03C40.63 109.677 40.8587 108.547 41.316 107.642C41.6053 107.073 41.9927 106.634 42.478 106.326C42.9727 106.009 43.5467 105.85 44.2 105.85C44.8533 105.85 45.4227 106.009 45.908 106.326C46.4027 106.634 46.7947 107.073 47.084 107.642C47.5413 108.547 47.77 109.677 47.77 111.03C47.77 112.374 47.5413 113.499 47.084 114.404C46.7947 114.973 46.4027 115.417 45.908 115.734C45.4227 116.051 44.8533 116.21 44.2 116.21ZM44.2 115.398C45.1147 115.398 45.8007 114.922 46.258 113.97C46.622 113.195 46.804 112.215 46.804 111.03C46.804 109.826 46.622 108.841 46.258 108.076C45.81 107.133 45.124 106.662 44.2 106.662C43.276 106.662 42.59 107.133 42.142 108.076C41.778 108.841 41.596 109.826 41.596 111.03C41.596 112.225 41.778 113.205 42.142 113.97C42.5993 114.922 43.2853 115.398 44.2 115.398Z" fill="#5C5C66"/>
<path d="M225.147 115.188C225.334 115.188 225.427 115.281 225.427 115.468V115.72C225.427 115.907 225.334 116 225.147 116H218.931C218.745 116 218.651 115.907 218.651 115.72V115.664C218.651 114.983 218.768 114.409 219.001 113.942C219.244 113.466 219.557 113.065 219.939 112.738C220.331 112.411 220.868 112.038 221.549 111.618C221.615 111.571 221.857 111.427 222.277 111.184C222.772 110.904 223.159 110.661 223.439 110.456C223.719 110.251 223.953 109.999 224.139 109.7C224.326 109.392 224.419 109.033 224.419 108.622C224.419 107.997 224.209 107.516 223.789 107.18C223.369 106.844 222.861 106.676 222.263 106.676C221.685 106.676 221.204 106.797 220.821 107.04C220.439 107.283 219.995 107.703 219.491 108.3C219.426 108.384 219.347 108.426 219.253 108.426C219.207 108.426 219.151 108.403 219.085 108.356L218.847 108.174C218.763 108.099 218.721 108.025 218.721 107.95C218.721 107.903 218.745 107.847 218.791 107.782C219.286 107.157 219.799 106.681 220.331 106.354C220.873 106.027 221.507 105.864 222.235 105.864C222.842 105.864 223.383 105.981 223.859 106.214C224.335 106.438 224.704 106.76 224.965 107.18C225.236 107.591 225.371 108.057 225.371 108.58C225.371 109.131 225.255 109.607 225.021 110.008C224.797 110.4 224.513 110.727 224.167 110.988C223.822 111.24 223.355 111.539 222.767 111.884L222.067 112.304C221.479 112.668 221.031 112.967 220.723 113.2C220.415 113.424 220.159 113.699 219.953 114.026C219.748 114.343 219.627 114.731 219.589 115.188H225.147ZM233.446 116.21C232.793 116.21 232.219 116.051 231.724 115.734C231.239 115.417 230.851 114.973 230.562 114.404C230.105 113.499 229.876 112.374 229.876 111.03C229.876 109.677 230.105 108.547 230.562 107.642C230.851 107.073 231.239 106.634 231.724 106.326C232.219 106.009 232.793 105.85 233.446 105.85C234.099 105.85 234.669 106.009 235.154 106.326C235.649 106.634 236.041 107.073 236.33 107.642C236.787 108.547 237.016 109.677 237.016 111.03C237.016 112.374 236.787 113.499 236.33 114.404C236.041 114.973 235.649 115.417 235.154 115.734C234.669 116.051 234.099 116.21 233.446 116.21ZM233.446 115.398C234.361 115.398 235.047 114.922 235.504 113.97C235.868 113.195 236.05 112.215 236.05 111.03C236.05 109.826 235.868 108.841 235.504 108.076C235.056 107.133 234.37 106.662 233.446 106.662C232.522 106.662 231.836 107.133 231.388 108.076C231.024 108.841 230.842 109.826 230.842 111.03C230.842 112.225 231.024 113.205 231.388 113.97C231.845 114.922 232.531 115.398 233.446 115.398ZM242.032 116.21C241.379 116.21 240.805 116.051 240.31 115.734C239.825 115.417 239.437 114.973 239.148 114.404C238.691 113.499 238.462 112.374 238.462 111.03C238.462 109.677 238.691 108.547 239.148 107.642C239.437 107.073 239.825 106.634 240.31 106.326C240.805 106.009 241.379 105.85 242.032 105.85C242.685 105.85 243.255 106.009 243.74 106.326C244.235 106.634 244.627 107.073 244.916 107.642C245.373 108.547 245.602 109.677 245.602 111.03C245.602 112.374 245.373 113.499 244.916 114.404C244.627 114.973 244.235 115.417 243.74 115.734C243.255 116.051 242.685 116.21 242.032 116.21ZM242.032 115.398C242.947 115.398 243.633 114.922 244.09 113.97C244.454 113.195 244.636 112.215 244.636 111.03C244.636 109.826 244.454 108.841 244.09 108.076C243.642 107.133 242.956 106.662 242.032 106.662C241.108 106.662 240.422 107.133 239.974 108.076C239.61 108.841 239.428 109.826 239.428 111.03C239.428 112.225 239.61 113.205 239.974 113.97C240.431 114.922 241.117 115.398 242.032 115.398ZM250.618 116.21C249.965 116.21 249.391 116.051 248.896 115.734C248.411 115.417 248.023 114.973 247.734 114.404C247.277 113.499 247.048 112.374 247.048 111.03C247.048 109.677 247.277 108.547 247.734 107.642C248.023 107.073 248.411 106.634 248.896 106.326C249.391 106.009 249.965 105.85 250.618 105.85C251.271 105.85 251.841 106.009 252.326 106.326C252.821 106.634 253.213 107.073 253.502 107.642C253.959 108.547 254.188 109.677 254.188 111.03C254.188 112.374 253.959 113.499 253.502 114.404C253.213 114.973 252.821 115.417 252.326 115.734C251.841 116.051 251.271 116.21 250.618 116.21ZM250.618 115.398C251.533 115.398 252.219 114.922 252.676 113.97C253.04 113.195 253.222 112.215 253.222 111.03C253.222 109.826 253.04 108.841 252.676 108.076C252.228 107.133 251.542 106.662 250.618 106.662C249.694 106.662 249.008 107.133 248.56 108.076C248.196 108.841 248.014 109.826 248.014 111.03C248.014 112.225 248.196 113.205 248.56 113.97C249.017 114.922 249.703 115.398 250.618 115.398ZM262.239 116.21C261.586 116.21 261.012 116.051 260.517 115.734C260.032 115.417 259.644 114.973 259.355 114.404C258.898 113.499 258.669 112.374 258.669 111.03C258.669 109.677 258.898 108.547 259.355 107.642C259.644 107.073 260.032 106.634 260.517 106.326C261.012 106.009 261.586 105.85 262.239 105.85C262.892 105.85 263.462 106.009 263.947 106.326C264.442 106.634 264.834 107.073 265.123 107.642C265.58 108.547 265.809 109.677 265.809 111.03C265.809 112.374 265.58 113.499 265.123 114.404C264.834 114.973 264.442 115.417 263.947 115.734C263.462 116.051 262.892 116.21 262.239 116.21ZM262.239 115.398C263.154 115.398 263.84 114.922 264.297 113.97C264.661 113.195 264.843 112.215 264.843 111.03C264.843 109.826 264.661 108.841 264.297 108.076C263.849 107.133 263.163 106.662 262.239 106.662C261.315 106.662 260.629 107.133 260.181 108.076C259.817 108.841 259.635 109.826 259.635 111.03C259.635 112.225 259.817 113.205 260.181 113.97C260.638 114.922 261.324 115.398 262.239 115.398ZM270.825 116.21C270.172 116.21 269.598 116.051 269.103 115.734C268.618 115.417 268.23 114.973 267.941 114.404C267.484 113.499 267.255 112.374 267.255 111.03C267.255 109.677 267.484 108.547 267.941 107.642C268.23 107.073 268.618 106.634 269.103 106.326C269.598 106.009 270.172 105.85 270.825 105.85C271.478 105.85 272.048 106.009 272.533 106.326C273.028 106.634 273.42 107.073 273.709 107.642C274.166 108.547 274.395 109.677 274.395 111.03C274.395 112.374 274.166 113.499 273.709 114.404C273.42 114.973 273.028 115.417 272.533 115.734C272.048 116.051 271.478 116.21 270.825 116.21ZM270.825 115.398C271.74 115.398 272.426 114.922 272.883 113.97C273.247 113.195 273.429 112.215 273.429 111.03C273.429 109.826 273.247 108.841 272.883 108.076C272.435 107.133 271.749 106.662 270.825 106.662C269.901 106.662 269.215 107.133 268.767 108.076C268.403 108.841 268.221 109.826 268.221 111.03C268.221 112.225 268.403 113.205 268.767 113.97C269.224 114.922 269.91 115.398 270.825 115.398ZM279.411 116.21C278.758 116.21 278.184 116.051 277.689 115.734C277.204 115.417 276.816 114.973 276.527 114.404C276.07 113.499 275.841 112.374 275.841 111.03C275.841 109.677 276.07 108.547 276.527 107.642C276.816 107.073 277.204 106.634 277.689 106.326C278.184 106.009 278.758 105.85 279.411 105.85C280.064 105.85 280.634 106.009 281.119 106.326C281.614 106.634 282.006 107.073 282.295 107.642C282.752 108.547 282.981 109.677 282.981 111.03C282.981 112.374 282.752 113.499 282.295 114.404C282.006 114.973 281.614 115.417 281.119 115.734C280.634 116.051 280.064 116.21 279.411 116.21ZM279.411 115.398C280.326 115.398 281.012 114.922 281.469 113.97C281.833 113.195 282.015 112.215 282.015 111.03C282.015 109.826 281.833 108.841 281.469 108.076C281.021 107.133 280.335 106.662 279.411 106.662C278.487 106.662 277.801 107.133 277.353 108.076C276.989 108.841 276.807 109.826 276.807 111.03C276.807 112.225 276.989 113.205 277.353 113.97C277.81 114.922 278.496 115.398 279.411 115.398ZM287.679 115.3C287.493 115.3 287.399 115.207 287.399 115.02V112.052H284.445C284.259 112.052 284.165 111.959 284.165 111.772V111.548C284.165 111.361 284.259 111.268 284.445 111.268H287.399V108.3C287.399 108.113 287.493 108.02 287.679 108.02H287.931C288.118 108.02 288.211 108.113 288.211 108.3V111.268H291.165C291.352 111.268 291.445 111.361 291.445 111.548V111.772C291.445 111.959 291.352 112.052 291.165 112.052H288.211V115.02C288.211 115.207 288.118 115.3 287.931 115.3H287.679Z" fill="#5C5C66"/>
<path d="M41.568 54C41.4187 54 41.2973 53.958 41.204 53.874C41.12 53.7807 41.078 53.6593 41.078 53.51V44.55C41.078 44.3913 41.12 44.27 41.204 44.186C41.2973 44.102 41.4187 44.06 41.568 44.06H45.586C46.5753 44.06 47.364 44.3353 47.952 44.886C48.54 45.4273 48.834 46.1693 48.834 47.112C48.834 48.0547 48.54 48.7967 47.952 49.338C47.364 49.8793 46.5753 50.15 45.586 50.15H42.674V53.51C42.674 53.6593 42.632 53.7807 42.548 53.874C42.464 53.958 42.3427 54 42.184 54H41.568ZM45.334 48.82C45.9313 48.82 46.398 48.6753 46.734 48.386C47.0793 48.0873 47.252 47.6627 47.252 47.112C47.252 46.552 47.0793 46.1273 46.734 45.838C46.398 45.5393 45.9313 45.39 45.334 45.39H42.674V48.82H45.334ZM53.2589 47.028C53.4642 47.028 53.6742 47.0513 53.8889 47.098C54.1409 47.154 54.2669 47.3033 54.2669 47.546C54.2669 47.6113 54.2622 47.658 54.2529 47.686L54.1829 48.022C54.1269 48.2833 53.9869 48.414 53.7629 48.414L53.6369 48.4C53.4689 48.372 53.3195 48.358 53.1889 48.358C52.7222 48.358 52.3442 48.5447 52.0549 48.918C51.7749 49.282 51.6349 49.7907 51.6349 50.444V53.51C51.6349 53.6593 51.5929 53.7807 51.5089 53.874C51.4249 53.958 51.3035 54 51.1449 54H50.6409C50.4915 54 50.3702 53.958 50.2769 53.874C50.1929 53.7807 50.1509 53.6593 50.1509 53.51V47.588C50.1509 47.4293 50.1929 47.308 50.2769 47.224C50.3702 47.14 50.4915 47.098 50.6409 47.098H51.0469C51.2055 47.098 51.3269 47.14 51.4109 47.224C51.4949 47.308 51.5369 47.4293 51.5369 47.588V48.134C51.7049 47.7887 51.9335 47.518 52.2229 47.322C52.5122 47.126 52.8575 47.028 53.2589 47.028ZM56.1022 45.754C55.8315 45.754 55.6029 45.6653 55.4162 45.488C55.2295 45.3013 55.1362 45.082 55.1362 44.83C55.1362 44.5687 55.2295 44.3493 55.4162 44.172C55.6029 43.9947 55.8315 43.906 56.1022 43.906C56.3729 43.906 56.6015 43.9947 56.7882 44.172C56.9749 44.3493 57.0682 44.5687 57.0682 44.83C57.0682 45.082 56.9749 45.3013 56.7882 45.488C56.6015 45.6653 56.3729 45.754 56.1022 45.754ZM55.8362 54C55.6869 54 55.5655 53.958 55.4722 53.874C55.3882 53.7807 55.3462 53.6593 55.3462 53.51V47.588C55.3462 47.4293 55.3882 47.308 55.4722 47.224C55.5655 47.14 55.6869 47.098 55.8362 47.098H56.3402C56.4989 47.098 56.6202 47.14 56.7042 47.224C56.7882 47.308 56.8302 47.4293 56.8302 47.588V53.51C56.8302 53.6593 56.7882 53.7807 56.7042 53.874C56.6202 53.958 56.4989 54 56.3402 54H55.8362ZM61.5834 54.21C60.9021 54.21 60.3001 54.0607 59.7774 53.762C59.2641 53.4633 58.8627 53.0387 58.5734 52.488C58.2934 51.928 58.1534 51.2793 58.1534 50.542C58.1534 49.8047 58.2981 49.1607 58.5874 48.61C58.8767 48.0593 59.2827 47.6347 59.8054 47.336C60.3281 47.0373 60.9301 46.888 61.6114 46.888C62.1061 46.888 62.5494 46.9627 62.9414 47.112C63.3427 47.252 63.7254 47.4947 64.0894 47.84C64.2014 47.952 64.2574 48.0687 64.2574 48.19C64.2574 48.302 64.1967 48.4187 64.0754 48.54L63.8374 48.778C63.7347 48.8807 63.6227 48.932 63.5014 48.932C63.3801 48.932 63.2541 48.876 63.1234 48.764C62.8527 48.5307 62.5961 48.372 62.3534 48.288C62.1201 48.1947 61.8681 48.148 61.5974 48.148C60.9814 48.148 60.5054 48.3767 60.1694 48.834C59.8334 49.2913 59.6654 49.8607 59.6654 50.542C59.6654 51.2233 59.8334 51.7973 60.1694 52.264C60.5054 52.7213 60.9814 52.95 61.5974 52.95C61.8961 52.95 62.1714 52.894 62.4234 52.782C62.6754 52.6607 62.9461 52.46 63.2354 52.18C63.3567 52.0587 63.4827 51.998 63.6134 51.998C63.7254 51.998 63.8327 52.0447 63.9354 52.138L64.1734 52.334C64.2947 52.4367 64.3554 52.5533 64.3554 52.684C64.3554 52.824 64.2854 52.9733 64.1454 53.132C63.7627 53.524 63.3661 53.804 62.9554 53.972C62.5541 54.1307 62.0967 54.21 61.5834 54.21ZM70.3917 52.236C70.513 52.1333 70.6297 52.082 70.7417 52.082C70.8537 52.082 70.9704 52.1427 71.0917 52.264L71.2877 52.474C71.3904 52.5953 71.4417 52.712 71.4417 52.824C71.4417 52.9453 71.381 53.062 71.2597 53.174C70.8304 53.5473 70.401 53.8133 69.9717 53.972C69.5517 54.1307 69.085 54.21 68.5717 54.21C67.853 54.21 67.2277 54.0607 66.6957 53.762C66.173 53.4633 65.767 53.0433 65.4777 52.502C65.1977 51.9513 65.0577 51.3167 65.0577 50.598C65.0577 49.8887 65.193 49.254 65.4637 48.694C65.7437 48.1247 66.1357 47.6813 66.6397 47.364C67.153 47.0467 67.7504 46.888 68.4317 46.888C69.449 46.888 70.233 47.1913 70.7837 47.798C71.3344 48.3953 71.6097 49.2213 71.6097 50.276V50.402C71.6004 50.5513 71.5537 50.668 71.4697 50.752C71.3857 50.836 71.2644 50.878 71.1057 50.878H66.5137C66.5697 51.494 66.7704 51.998 67.1157 52.39C67.4704 52.7727 67.965 52.964 68.5997 52.964C68.945 52.964 69.2484 52.9127 69.5097 52.81C69.771 52.698 70.065 52.5067 70.3917 52.236ZM68.4037 48.064C67.8904 48.064 67.475 48.218 67.1577 48.526C66.8497 48.8247 66.649 49.2493 66.5557 49.8H70.1537C70.1164 49.2587 69.9484 48.834 69.6497 48.526C69.351 48.218 68.9357 48.064 68.4037 48.064Z" fill="#1B1B1F"/>
<rect x="40" y="78" width="252" height="4" rx="2" fill="#DEDEE3"/>
<rect x="54" y="77" width="224" height="6" rx="3" fill="#0063FB"/>
<rect x="264" y="66" width="28" height="28" rx="14" fill="#0063FB"/>
<rect x="40" y="66" width="28" height="28" rx="14" fill="#0063FB"/>
<defs>
<clipPath id="clip0_5485_16414">
<rect width="98" height="22" fill="white" transform="translate(48 145)"/>
</clipPath>
<clipPath id="clip1_5485_16414">
<rect width="98" height="22" fill="white" transform="translate(186 145)"/>
</clipPath>
</defs>
</svg>
