<svg width="332" height="220" viewBox="0 0 332 220" fill="none" xmlns="http://www.w3.org/2000/svg">
<rect x="40.5" y="132.5" width="113" height="47" rx="3.5" fill="white"/>
<rect x="40.5" y="132.5" width="113" height="47" rx="3.5" stroke="#84848F"/>
<g clip-path="url(#clip0_5488_18484)">
<path d="M51.968 149.768C52.0853 149.683 52.2187 149.64 52.368 149.64H52.624C52.8373 149.64 52.944 149.747 52.944 149.96V160.68C52.944 160.893 52.8373 161 52.624 161H52.192C51.9787 161 51.872 160.893 51.872 160.68V151.016L49.456 152.744C49.3813 152.797 49.312 152.824 49.248 152.824C49.152 152.824 49.072 152.776 49.008 152.68L48.848 152.44C48.8053 152.387 48.784 152.323 48.784 152.248C48.784 152.152 48.832 152.067 48.928 151.992L51.968 149.768ZM60.0463 149.4C60.8996 149.4 61.6303 149.592 62.2383 149.976C62.8463 150.349 63.3049 150.861 63.6143 151.512C63.9236 152.163 64.0783 152.893 64.0783 153.704C64.0783 154.557 63.9289 155.352 63.6302 156.088C63.3316 156.824 62.9316 157.507 62.4303 158.136C61.9396 158.765 61.3209 159.437 60.5743 160.152L59.8543 160.84C59.7476 160.947 59.6196 161 59.4703 161H58.8303C58.6489 161 58.5583 160.941 58.5583 160.824C58.5583 160.76 58.6009 160.685 58.6863 160.6L59.6943 159.672C61.3156 158.189 62.3503 156.851 62.7983 155.656C62.4889 156.083 62.0836 156.424 61.5823 156.68C61.0809 156.925 60.5103 157.048 59.8703 157.048C59.0916 157.048 58.4143 156.877 57.8383 156.536C57.2623 156.184 56.8196 155.72 56.5103 155.144C56.2116 154.557 56.0623 153.923 56.0623 153.24C56.0623 152.557 56.2223 151.923 56.5423 151.336C56.8623 150.749 57.3209 150.28 57.9183 149.928C58.5263 149.576 59.2356 149.4 60.0463 149.4ZM59.9503 156.12C60.5583 156.12 61.0863 155.992 61.5343 155.736C61.9929 155.48 62.3396 155.133 62.5743 154.696C62.8196 154.259 62.9423 153.768 62.9423 153.224C62.9423 152.68 62.8249 152.189 62.5903 151.752C62.3556 151.304 62.0196 150.957 61.5823 150.712C61.1449 150.456 60.6329 150.328 60.0463 150.328C59.1609 150.328 58.4569 150.6 57.9343 151.144C57.4223 151.688 57.1663 152.381 57.1663 153.224C57.1663 154.067 57.4116 154.76 57.9023 155.304C58.3929 155.848 59.0756 156.12 59.9503 156.12ZM69.9764 153.672C70.7124 153.672 71.3577 153.827 71.9124 154.136C72.4777 154.435 72.915 154.861 73.2244 155.416C73.5337 155.971 73.6884 156.611 73.6884 157.336C73.6884 157.987 73.5337 158.611 73.2244 159.208C72.915 159.805 72.467 160.291 71.8804 160.664C71.2937 161.037 70.6057 161.224 69.8164 161.224C69.0484 161.224 68.3817 161.128 67.8164 160.936C67.2617 160.744 66.6324 160.413 65.9284 159.944C65.8217 159.88 65.7684 159.795 65.7684 159.688C65.7684 159.613 65.7897 159.549 65.8324 159.496L66.0404 159.208C66.1044 159.112 66.179 159.064 66.2644 159.064C66.3284 159.064 66.403 159.091 66.4884 159.144C67.139 159.581 67.6937 159.885 68.1524 160.056C68.6217 160.227 69.139 160.312 69.7044 160.312C70.3017 160.312 70.819 160.179 71.2564 159.912C71.6937 159.635 72.0244 159.272 72.2484 158.824C72.483 158.365 72.6004 157.869 72.6004 157.336C72.6004 156.483 72.3604 155.816 71.8804 155.336C71.411 154.856 70.7337 154.616 69.8484 154.616C68.899 154.616 68.1044 154.904 67.4644 155.48C67.347 155.587 67.2084 155.629 67.0484 155.608L66.6964 155.56C66.6004 155.549 66.5257 155.512 66.4724 155.448C66.419 155.384 66.3977 155.304 66.4084 155.208L66.8404 149.944C66.851 149.848 66.883 149.773 66.9364 149.72C67.0004 149.667 67.0804 149.64 67.1764 149.64H72.8724C73.0857 149.64 73.1924 149.747 73.1924 149.96V150.248C73.1924 150.461 73.0857 150.568 72.8724 150.568H67.7844L67.4484 154.504C67.747 154.259 68.1097 154.061 68.5364 153.912C68.9737 153.752 69.4537 153.672 69.9764 153.672ZM79.3781 161.24C78.6315 161.24 77.9755 161.059 77.4101 160.696C76.8555 160.333 76.4128 159.827 76.0821 159.176C75.5595 158.141 75.2981 156.856 75.2981 155.32C75.2981 153.773 75.5595 152.483 76.0821 151.448C76.4128 150.797 76.8555 150.296 77.4101 149.944C77.9755 149.581 78.6315 149.4 79.3781 149.4C80.1248 149.4 80.7755 149.581 81.3301 149.944C81.8955 150.296 82.3435 150.797 82.6741 151.448C83.1968 152.483 83.4581 153.773 83.4581 155.32C83.4581 156.856 83.1968 158.141 82.6741 159.176C82.3435 159.827 81.8955 160.333 81.3301 160.696C80.7755 161.059 80.1248 161.24 79.3781 161.24ZM79.3781 160.312C80.4235 160.312 81.2075 159.768 81.7301 158.68C82.1461 157.795 82.3541 156.675 82.3541 155.32C82.3541 153.944 82.1461 152.819 81.7301 151.944C81.2181 150.867 80.4341 150.328 79.3781 150.328C78.3221 150.328 77.5381 150.867 77.0261 151.944C76.6101 152.819 76.4021 153.944 76.4021 155.32C76.4021 156.685 76.6101 157.805 77.0261 158.68C77.5488 159.768 78.3328 160.312 79.3781 160.312Z" fill="#1B1B1F"/>
</g>
<rect x="178.5" y="132.5" width="113" height="47" rx="3.5" fill="white"/>
<rect x="178.5" y="132.5" width="113" height="47" rx="3.5" stroke="#84848F"/>
<g clip-path="url(#clip1_5488_18484)">
<path d="M194.144 160.072C194.357 160.072 194.464 160.179 194.464 160.392V160.68C194.464 160.893 194.357 161 194.144 161H187.04C186.827 161 186.72 160.893 186.72 160.68V160.616C186.72 159.837 186.853 159.181 187.12 158.648C187.397 158.104 187.755 157.645 188.192 157.272C188.64 156.899 189.253 156.472 190.032 155.992C190.107 155.939 190.384 155.773 190.864 155.496C191.429 155.176 191.872 154.899 192.192 154.664C192.512 154.429 192.779 154.141 192.992 153.8C193.205 153.448 193.312 153.037 193.312 152.568C193.312 151.853 193.072 151.304 192.592 150.92C192.112 150.536 191.531 150.344 190.848 150.344C190.187 150.344 189.637 150.483 189.2 150.76C188.763 151.037 188.256 151.517 187.68 152.2C187.605 152.296 187.515 152.344 187.408 152.344C187.355 152.344 187.291 152.317 187.216 152.264L186.944 152.056C186.848 151.971 186.8 151.885 186.8 151.8C186.8 151.747 186.827 151.683 186.88 151.608C187.445 150.893 188.032 150.349 188.64 149.976C189.259 149.603 189.984 149.416 190.816 149.416C191.509 149.416 192.128 149.549 192.672 149.816C193.216 150.072 193.637 150.44 193.936 150.92C194.245 151.389 194.4 151.923 194.4 152.52C194.4 153.149 194.267 153.693 194 154.152C193.744 154.6 193.419 154.973 193.024 155.272C192.629 155.56 192.096 155.901 191.424 156.296L190.624 156.776C189.952 157.192 189.44 157.533 189.088 157.8C188.736 158.056 188.443 158.371 188.208 158.744C187.973 159.107 187.835 159.549 187.792 160.072H194.144ZM200.066 161.24C199.319 161.24 198.663 161.059 198.098 160.696C197.543 160.333 197.1 159.827 196.77 159.176C196.247 158.141 195.986 156.856 195.986 155.32C195.986 153.773 196.247 152.483 196.77 151.448C197.1 150.797 197.543 150.296 198.098 149.944C198.663 149.581 199.319 149.4 200.066 149.4C200.812 149.4 201.463 149.581 202.018 149.944C202.583 150.296 203.031 150.797 203.362 151.448C203.884 152.483 204.146 153.773 204.146 155.32C204.146 156.856 203.884 158.141 203.362 159.176C203.031 159.827 202.583 160.333 202.018 160.696C201.463 161.059 200.812 161.24 200.066 161.24ZM200.066 160.312C201.111 160.312 201.895 159.768 202.418 158.68C202.834 157.795 203.042 156.675 203.042 155.32C203.042 153.944 202.834 152.819 202.418 151.944C201.906 150.867 201.122 150.328 200.066 150.328C199.01 150.328 198.226 150.867 197.714 151.944C197.298 152.819 197.09 153.944 197.09 155.32C197.09 156.685 197.298 157.805 197.714 158.68C198.236 159.768 199.02 160.312 200.066 160.312ZM213.035 160.072C213.248 160.072 213.355 160.179 213.355 160.392V160.68C213.355 160.893 213.248 161 213.035 161H205.931C205.717 161 205.611 160.893 205.611 160.68V160.616C205.611 159.837 205.744 159.181 206.011 158.648C206.288 158.104 206.645 157.645 207.083 157.272C207.531 156.899 208.144 156.472 208.923 155.992C208.997 155.939 209.275 155.773 209.755 155.496C210.32 155.176 210.763 154.899 211.083 154.664C211.403 154.429 211.669 154.141 211.883 153.8C212.096 153.448 212.203 153.037 212.203 152.568C212.203 151.853 211.963 151.304 211.483 150.92C211.003 150.536 210.421 150.344 209.739 150.344C209.077 150.344 208.528 150.483 208.091 150.76C207.653 151.037 207.147 151.517 206.571 152.2C206.496 152.296 206.405 152.344 206.299 152.344C206.245 152.344 206.181 152.317 206.107 152.264L205.835 152.056C205.739 151.971 205.691 151.885 205.691 151.8C205.691 151.747 205.717 151.683 205.771 151.608C206.336 150.893 206.923 150.349 207.531 149.976C208.149 149.603 208.875 149.416 209.707 149.416C210.4 149.416 211.019 149.549 211.563 149.816C212.107 150.072 212.528 150.44 212.827 150.92C213.136 151.389 213.291 151.923 213.291 152.52C213.291 153.149 213.157 153.693 212.891 154.152C212.635 154.6 212.309 154.973 211.915 155.272C211.52 155.56 210.987 155.901 210.315 156.296L209.515 156.776C208.843 157.192 208.331 157.533 207.979 157.8C207.627 158.056 207.333 158.371 207.099 158.744C206.864 159.107 206.725 159.549 206.683 160.072H213.035ZM214.477 149.96C214.477 149.747 214.583 149.64 214.797 149.64H222.061C222.274 149.64 222.381 149.747 222.381 149.96V150.184C222.381 150.344 222.333 150.477 222.237 150.584C221.17 151.928 220.215 153.507 219.373 155.32C218.541 157.123 217.986 158.92 217.709 160.712C217.677 160.904 217.559 161 217.357 161H216.861C216.754 161 216.674 160.973 216.621 160.92C216.567 160.856 216.546 160.771 216.557 160.664C216.855 158.925 217.437 157.139 218.301 155.304C219.165 153.469 220.119 151.885 221.165 150.552H214.797C214.583 150.552 214.477 150.445 214.477 150.232V149.96Z" fill="#1B1B1F"/>
</g>
<path d="M43.472 106.172C43.5747 106.097 43.6913 106.06 43.822 106.06H44.046C44.2327 106.06 44.326 106.153 44.326 106.34V115.72C44.326 115.907 44.2327 116 44.046 116H43.668C43.4813 116 43.388 115.907 43.388 115.72V107.264L41.274 108.776C41.2087 108.823 41.148 108.846 41.092 108.846C41.008 108.846 40.938 108.804 40.882 108.72L40.742 108.51C40.7047 108.463 40.686 108.407 40.686 108.342C40.686 108.258 40.728 108.183 40.812 108.118L43.472 106.172ZM50.5405 105.85C51.2871 105.85 51.9265 106.018 52.4585 106.354C52.9905 106.681 53.3918 107.129 53.6625 107.698C53.9331 108.267 54.0685 108.907 54.0685 109.616C54.0685 110.363 53.9378 111.058 53.6765 111.702C53.4151 112.346 53.0651 112.943 52.6265 113.494C52.1971 114.045 51.6558 114.633 51.0025 115.258L50.3725 115.86C50.2791 115.953 50.1671 116 50.0365 116H49.4765C49.3178 116 49.2385 115.949 49.2385 115.846C49.2385 115.79 49.2758 115.725 49.3505 115.65L50.2325 114.838C51.6511 113.541 52.5565 112.369 52.9485 111.324C52.6778 111.697 52.3231 111.996 51.8845 112.22C51.4458 112.435 50.9465 112.542 50.3865 112.542C49.7051 112.542 49.1125 112.393 48.6085 112.094C48.1045 111.786 47.7171 111.38 47.4465 110.876C47.1851 110.363 47.0545 109.807 47.0545 109.21C47.0545 108.613 47.1945 108.057 47.4745 107.544C47.7545 107.031 48.1558 106.62 48.6785 106.312C49.2105 106.004 49.8311 105.85 50.5405 105.85ZM50.4565 111.73C50.9885 111.73 51.4505 111.618 51.8425 111.394C52.2438 111.17 52.5471 110.867 52.7525 110.484C52.9671 110.101 53.0745 109.672 53.0745 109.196C53.0745 108.72 52.9718 108.291 52.7665 107.908C52.5611 107.516 52.2671 107.213 51.8845 106.998C51.5018 106.774 51.0538 106.662 50.5405 106.662C49.7658 106.662 49.1498 106.9 48.6925 107.376C48.2445 107.852 48.0205 108.459 48.0205 109.196C48.0205 109.933 48.2351 110.54 48.6645 111.016C49.0938 111.492 49.6911 111.73 50.4565 111.73ZM59.2293 109.588C59.8733 109.588 60.438 109.723 60.9233 109.994C61.418 110.255 61.8007 110.629 62.0713 111.114C62.342 111.599 62.4773 112.159 62.4773 112.794C62.4773 113.363 62.342 113.909 62.0713 114.432C61.8007 114.955 61.4087 115.379 60.8953 115.706C60.382 116.033 59.78 116.196 59.0893 116.196C58.4173 116.196 57.834 116.112 57.3393 115.944C56.854 115.776 56.3033 115.487 55.6873 115.076C55.594 115.02 55.5473 114.945 55.5473 114.852C55.5473 114.787 55.566 114.731 55.6033 114.684L55.7853 114.432C55.8413 114.348 55.9067 114.306 55.9813 114.306C56.0373 114.306 56.1027 114.329 56.1773 114.376C56.7467 114.759 57.232 115.025 57.6333 115.174C58.044 115.323 58.4967 115.398 58.9913 115.398C59.514 115.398 59.9667 115.281 60.3493 115.048C60.732 114.805 61.0213 114.488 61.2173 114.096C61.4227 113.695 61.5253 113.261 61.5253 112.794C61.5253 112.047 61.3153 111.464 60.8953 111.044C60.4847 110.624 59.892 110.414 59.1173 110.414C58.2867 110.414 57.5913 110.666 57.0313 111.17C56.9287 111.263 56.8073 111.301 56.6673 111.282L56.3593 111.24C56.2753 111.231 56.21 111.198 56.1633 111.142C56.1167 111.086 56.098 111.016 56.1073 110.932L56.4853 106.326C56.4947 106.242 56.5227 106.177 56.5693 106.13C56.6253 106.083 56.6953 106.06 56.7793 106.06H61.7633C61.95 106.06 62.0433 106.153 62.0433 106.34V106.592C62.0433 106.779 61.95 106.872 61.7633 106.872H57.3113L57.0173 110.316C57.2787 110.101 57.596 109.929 57.9693 109.798C58.352 109.658 58.772 109.588 59.2293 109.588ZM67.4559 116.21C66.8025 116.21 66.2285 116.051 65.7339 115.734C65.2485 115.417 64.8612 114.973 64.5719 114.404C64.1145 113.499 63.8859 112.374 63.8859 111.03C63.8859 109.677 64.1145 108.547 64.5719 107.642C64.8612 107.073 65.2485 106.634 65.7339 106.326C66.2285 106.009 66.8025 105.85 67.4559 105.85C68.1092 105.85 68.6785 106.009 69.1639 106.326C69.6585 106.634 70.0505 107.073 70.3399 107.642C70.7972 108.547 71.0259 109.677 71.0259 111.03C71.0259 112.374 70.7972 113.499 70.3399 114.404C70.0505 114.973 69.6585 115.417 69.1639 115.734C68.6785 116.051 68.1092 116.21 67.4559 116.21ZM67.4559 115.398C68.3705 115.398 69.0565 114.922 69.5139 113.97C69.8779 113.195 70.0599 112.215 70.0599 111.03C70.0599 109.826 69.8779 108.841 69.5139 108.076C69.0659 107.133 68.3799 106.662 67.4559 106.662C66.5319 106.662 65.8459 107.133 65.3979 108.076C65.0339 108.841 64.8519 109.826 64.8519 111.03C64.8519 112.225 65.0339 113.205 65.3979 113.97C65.8552 114.922 66.5412 115.398 67.4559 115.398Z" fill="#5C5C66"/>
<path d="M266.956 115.188C267.143 115.188 267.236 115.281 267.236 115.468V115.72C267.236 115.907 267.143 116 266.956 116H260.74C260.553 116 260.46 115.907 260.46 115.72V115.664C260.46 114.983 260.577 114.409 260.81 113.942C261.053 113.466 261.365 113.065 261.748 112.738C262.14 112.411 262.677 112.038 263.358 111.618C263.423 111.571 263.666 111.427 264.086 111.184C264.581 110.904 264.968 110.661 265.248 110.456C265.528 110.251 265.761 109.999 265.948 109.7C266.135 109.392 266.228 109.033 266.228 108.622C266.228 107.997 266.018 107.516 265.598 107.18C265.178 106.844 264.669 106.676 264.072 106.676C263.493 106.676 263.013 106.797 262.63 107.04C262.247 107.283 261.804 107.703 261.3 108.3C261.235 108.384 261.155 108.426 261.062 108.426C261.015 108.426 260.959 108.403 260.894 108.356L260.656 108.174C260.572 108.099 260.53 108.025 260.53 107.95C260.53 107.903 260.553 107.847 260.6 107.782C261.095 107.157 261.608 106.681 262.14 106.354C262.681 106.027 263.316 105.864 264.044 105.864C264.651 105.864 265.192 105.981 265.668 106.214C266.144 106.438 266.513 106.76 266.774 107.18C267.045 107.591 267.18 108.057 267.18 108.58C267.18 109.131 267.063 109.607 266.83 110.008C266.606 110.4 266.321 110.727 265.976 110.988C265.631 111.24 265.164 111.539 264.576 111.884L263.876 112.304C263.288 112.668 262.84 112.967 262.532 113.2C262.224 113.424 261.967 113.699 261.762 114.026C261.557 114.343 261.435 114.731 261.398 115.188H266.956ZM272.138 116.21C271.484 116.21 270.91 116.051 270.416 115.734C269.93 115.417 269.543 114.973 269.254 114.404C268.796 113.499 268.568 112.374 268.568 111.03C268.568 109.677 268.796 108.547 269.254 107.642C269.543 107.073 269.93 106.634 270.416 106.326C270.91 106.009 271.484 105.85 272.138 105.85C272.791 105.85 273.36 106.009 273.846 106.326C274.34 106.634 274.732 107.073 275.022 107.642C275.479 108.547 275.708 109.677 275.708 111.03C275.708 112.374 275.479 113.499 275.022 114.404C274.732 114.973 274.34 115.417 273.846 115.734C273.36 116.051 272.791 116.21 272.138 116.21ZM272.138 115.398C273.052 115.398 273.738 114.922 274.196 113.97C274.56 113.195 274.742 112.215 274.742 111.03C274.742 109.826 274.56 108.841 274.196 108.076C273.748 107.133 273.062 106.662 272.138 106.662C271.214 106.662 270.528 107.133 270.08 108.076C269.716 108.841 269.534 109.826 269.534 111.03C269.534 112.225 269.716 113.205 270.08 113.97C270.537 114.922 271.223 115.398 272.138 115.398ZM283.485 115.188C283.672 115.188 283.765 115.281 283.765 115.468V115.72C283.765 115.907 283.672 116 283.485 116H277.269C277.083 116 276.989 115.907 276.989 115.72V115.664C276.989 114.983 277.106 114.409 277.339 113.942C277.582 113.466 277.895 113.065 278.277 112.738C278.669 112.411 279.206 112.038 279.887 111.618C279.953 111.571 280.195 111.427 280.615 111.184C281.11 110.904 281.497 110.661 281.777 110.456C282.057 110.251 282.291 109.999 282.477 109.7C282.664 109.392 282.757 109.033 282.757 108.622C282.757 107.997 282.547 107.516 282.127 107.18C281.707 106.844 281.199 106.676 280.601 106.676C280.023 106.676 279.542 106.797 279.159 107.04C278.777 107.283 278.333 107.703 277.829 108.3C277.764 108.384 277.685 108.426 277.591 108.426C277.545 108.426 277.489 108.403 277.423 108.356L277.185 108.174C277.101 108.099 277.059 108.025 277.059 107.95C277.059 107.903 277.083 107.847 277.129 107.782C277.624 107.157 278.137 106.681 278.669 106.354C279.211 106.027 279.845 105.864 280.573 105.864C281.18 105.864 281.721 105.981 282.197 106.214C282.673 106.438 283.042 106.76 283.303 107.18C283.574 107.591 283.709 108.057 283.709 108.58C283.709 109.131 283.593 109.607 283.359 110.008C283.135 110.4 282.851 110.727 282.505 110.988C282.16 111.24 281.693 111.539 281.105 111.884L280.405 112.304C279.817 112.668 279.369 112.967 279.061 113.2C278.753 113.424 278.497 113.699 278.291 114.026C278.086 114.343 277.965 114.731 277.927 115.188H283.485ZM284.747 106.34C284.747 106.153 284.84 106.06 285.027 106.06H291.383C291.57 106.06 291.663 106.153 291.663 106.34V106.536C291.663 106.676 291.621 106.793 291.537 106.886C290.604 108.062 289.768 109.443 289.031 111.03C288.303 112.607 287.818 114.18 287.575 115.748C287.547 115.916 287.444 116 287.267 116H286.833C286.74 116 286.67 115.977 286.623 115.93C286.576 115.874 286.558 115.799 286.567 115.706C286.828 114.185 287.337 112.621 288.093 111.016C288.849 109.411 289.684 108.025 290.599 106.858H285.027C284.84 106.858 284.747 106.765 284.747 106.578V106.34Z" fill="#5C5C66"/>
<path d="M48.694 44.466C48.778 44.1953 48.9647 44.06 49.254 44.06H50.85C51.0087 44.06 51.13 44.102 51.214 44.186C51.298 44.27 51.34 44.3913 51.34 44.55V53.51C51.34 53.6593 51.298 53.7807 51.214 53.874C51.13 53.958 51.0087 54 50.85 54H50.276C50.1267 54 50.0053 53.958 49.912 53.874C49.828 53.7807 49.786 53.6593 49.786 53.51V49.002C49.786 48.442 49.7953 47.602 49.814 46.482L49.828 45.264C49.716 45.6187 49.45 46.426 49.03 47.686L48.596 49.002L47.056 53.594C46.972 53.8647 46.7853 54 46.496 54H45.95C45.6607 54 45.474 53.8693 45.39 53.608L43.822 49.002C43.2713 47.4153 42.856 46.1693 42.576 45.264C42.5947 46.9067 42.604 48.1527 42.604 49.002V53.51C42.604 53.6593 42.562 53.7807 42.478 53.874C42.394 53.958 42.2727 54 42.114 54H41.568C41.4187 54 41.2973 53.958 41.204 53.874C41.12 53.7807 41.078 53.6593 41.078 53.51V44.55C41.078 44.3913 41.12 44.27 41.204 44.186C41.2973 44.102 41.4187 44.06 41.568 44.06H43.192C43.4813 44.06 43.668 44.1907 43.752 44.452L45.054 48.288C45.6047 49.9307 45.9967 51.1767 46.23 52.026C46.5287 50.9807 46.9207 49.7347 47.406 48.288L48.694 44.466ZM56.3761 54.21C55.6947 54.21 55.0881 54.056 54.5561 53.748C54.0334 53.44 53.6227 53.0107 53.3241 52.46C53.0254 51.9 52.8761 51.2607 52.8761 50.542C52.8761 49.8233 53.0254 49.1887 53.3241 48.638C53.6227 48.0873 54.0334 47.658 54.5561 47.35C55.0881 47.042 55.6947 46.888 56.3761 46.888C57.0481 46.888 57.6501 47.042 58.1821 47.35C58.7141 47.658 59.1294 48.092 59.4281 48.652C59.7267 49.2027 59.8761 49.8327 59.8761 50.542C59.8761 51.2607 59.7267 51.9 59.4281 52.46C59.1294 53.0107 58.7141 53.44 58.1821 53.748C57.6501 54.056 57.0481 54.21 56.3761 54.21ZM56.3761 52.964C56.9734 52.964 57.4541 52.7447 57.8181 52.306C58.1821 51.858 58.3641 51.27 58.3641 50.542C58.3641 49.8233 58.1821 49.2447 57.8181 48.806C57.4541 48.3673 56.9734 48.148 56.3761 48.148C55.7787 48.148 55.2981 48.3673 54.9341 48.806C54.5701 49.2447 54.3881 49.8233 54.3881 50.542C54.3881 51.27 54.5701 51.858 54.9341 52.306C55.2981 52.7447 55.7787 52.964 56.3761 52.964ZM66.1241 44.536C66.1241 44.3773 66.1661 44.256 66.2501 44.172C66.3434 44.088 66.4648 44.046 66.6141 44.046H67.1181C67.2768 44.046 67.3981 44.088 67.4821 44.172C67.5661 44.256 67.6081 44.3773 67.6081 44.536V53.51C67.6081 53.6593 67.5661 53.7807 67.4821 53.874C67.3981 53.958 67.2768 54 67.1181 54H66.7121C66.5628 54 66.4414 53.958 66.3481 53.874C66.2641 53.7807 66.2221 53.6593 66.2221 53.51V53.02C65.7368 53.804 64.9761 54.196 63.9401 54.196C63.3614 54.196 62.8388 54.0467 62.3721 53.748C61.9148 53.4493 61.5554 53.0247 61.2941 52.474C61.0328 51.9233 60.9021 51.284 60.9021 50.556C60.9021 49.8373 61.0328 49.2027 61.2941 48.652C61.5648 48.1013 61.9334 47.6767 62.4001 47.378C62.8668 47.0793 63.3894 46.93 63.9681 46.93C64.9201 46.93 65.6388 47.2613 66.1241 47.924V44.536ZM64.2481 52.922C64.8174 52.922 65.2841 52.712 65.6481 52.292C66.0121 51.8627 66.1941 51.284 66.1941 50.556C66.1941 49.828 66.0121 49.254 65.6481 48.834C65.2841 48.414 64.8174 48.204 64.2481 48.204C63.6974 48.204 63.2541 48.4187 62.9181 48.848C62.5821 49.2773 62.4141 49.8467 62.4141 50.556C62.4141 51.2747 62.5774 51.8487 62.9041 52.278C63.2401 52.7073 63.6881 52.922 64.2481 52.922ZM74.2745 52.236C74.3958 52.1333 74.5125 52.082 74.6245 52.082C74.7365 52.082 74.8532 52.1427 74.9745 52.264L75.1705 52.474C75.2732 52.5953 75.3245 52.712 75.3245 52.824C75.3245 52.9453 75.2638 53.062 75.1425 53.174C74.7132 53.5473 74.2838 53.8133 73.8545 53.972C73.4345 54.1307 72.9678 54.21 72.4545 54.21C71.7358 54.21 71.1105 54.0607 70.5785 53.762C70.0558 53.4633 69.6498 53.0433 69.3605 52.502C69.0805 51.9513 68.9405 51.3167 68.9405 50.598C68.9405 49.8887 69.0758 49.254 69.3465 48.694C69.6265 48.1247 70.0185 47.6813 70.5225 47.364C71.0358 47.0467 71.6332 46.888 72.3145 46.888C73.3318 46.888 74.1158 47.1913 74.6665 47.798C75.2172 48.3953 75.4925 49.2213 75.4925 50.276V50.402C75.4832 50.5513 75.4365 50.668 75.3525 50.752C75.2685 50.836 75.1472 50.878 74.9885 50.878H70.3965C70.4525 51.494 70.6532 51.998 70.9985 52.39C71.3532 52.7727 71.8478 52.964 72.4825 52.964C72.8278 52.964 73.1312 52.9127 73.3925 52.81C73.6538 52.698 73.9478 52.5067 74.2745 52.236ZM72.2865 48.064C71.7732 48.064 71.3578 48.218 71.0405 48.526C70.7325 48.8247 70.5318 49.2493 70.4385 49.8H74.0365C73.9992 49.2587 73.8312 48.834 73.5325 48.526C73.2338 48.218 72.8185 48.064 72.2865 48.064ZM77.398 54C77.2487 54 77.1274 53.958 77.034 53.874C76.95 53.7807 76.908 53.6593 76.908 53.51V44.55C76.908 44.3913 76.95 44.27 77.034 44.186C77.1274 44.102 77.2487 44.06 77.398 44.06H77.902C78.0607 44.06 78.182 44.102 78.266 44.186C78.35 44.27 78.392 44.3913 78.392 44.55V53.51C78.392 53.6593 78.35 53.7807 78.266 53.874C78.182 53.958 78.0607 54 77.902 54H77.398ZM87.3828 47.504C87.4668 47.2333 87.6488 47.098 87.9288 47.098H88.4328C88.5728 47.098 88.6801 47.1307 88.7548 47.196C88.8294 47.2613 88.8668 47.35 88.8668 47.462C88.8668 47.518 88.8528 47.5833 88.8248 47.658L86.3188 54.854C86.0948 55.5073 85.8148 55.9693 85.4788 56.24C85.1521 56.52 84.6854 56.66 84.0788 56.66C83.7988 56.66 83.5608 56.6413 83.3648 56.604C83.2341 56.5947 83.1361 56.548 83.0708 56.464C83.0054 56.3893 82.9728 56.296 82.9728 56.184C82.9728 56.1187 82.9774 56.0673 82.9868 56.03L83.0288 55.848C83.0941 55.5867 83.2341 55.456 83.4488 55.456C83.5328 55.456 83.6121 55.4607 83.6868 55.47C83.7614 55.4793 83.8361 55.484 83.9108 55.484C84.1814 55.484 84.4054 55.414 84.5828 55.274C84.7694 55.134 84.9234 54.8773 85.0448 54.504L85.0868 54.392L82.6928 47.658C82.6648 47.5833 82.6508 47.5133 82.6508 47.448C82.6508 47.336 82.6881 47.252 82.7628 47.196C82.8468 47.1307 82.9588 47.098 83.0988 47.098H83.6308C83.9201 47.098 84.1068 47.2333 84.1908 47.504L84.7368 49.142C85.1474 50.318 85.4974 51.396 85.7868 52.376L86.1928 51.13C86.2581 50.934 86.3561 50.626 86.4868 50.206C86.6174 49.786 86.7341 49.4267 86.8368 49.128L87.3828 47.504ZM94.919 52.236C95.0404 52.1333 95.157 52.082 95.269 52.082C95.381 52.082 95.4977 52.1427 95.619 52.264L95.815 52.474C95.9177 52.5953 95.969 52.712 95.969 52.824C95.969 52.9453 95.9084 53.062 95.787 53.174C95.3577 53.5473 94.9284 53.8133 94.499 53.972C94.079 54.1307 93.6124 54.21 93.099 54.21C92.3804 54.21 91.755 54.0607 91.223 53.762C90.7004 53.4633 90.2944 53.0433 90.005 52.502C89.725 51.9513 89.585 51.3167 89.585 50.598C89.585 49.8887 89.7204 49.254 89.991 48.694C90.271 48.1247 90.663 47.6813 91.167 47.364C91.6804 47.0467 92.2777 46.888 92.959 46.888C93.9764 46.888 94.7604 47.1913 95.311 47.798C95.8617 48.3953 96.137 49.2213 96.137 50.276V50.402C96.1277 50.5513 96.081 50.668 95.997 50.752C95.913 50.836 95.7917 50.878 95.633 50.878H91.041C91.097 51.494 91.2977 51.998 91.643 52.39C91.9977 52.7727 92.4924 52.964 93.127 52.964C93.4724 52.964 93.7757 52.9127 94.037 52.81C94.2984 52.698 94.5924 52.5067 94.919 52.236ZM92.931 48.064C92.4177 48.064 92.0024 48.218 91.685 48.526C91.377 48.8247 91.1764 49.2493 91.083 49.8H94.681C94.6437 49.2587 94.4757 48.834 94.177 48.526C93.8784 48.218 93.463 48.064 92.931 48.064ZM100.313 46.888C101.246 46.888 101.965 47.1073 102.469 47.546C102.973 47.9753 103.225 48.5493 103.225 49.268V53.51C103.225 53.6593 103.183 53.7807 103.099 53.874C103.015 53.958 102.894 54 102.735 54H102.371C102.222 54 102.1 53.958 102.007 53.874C101.923 53.7807 101.881 53.6593 101.881 53.51V53.202C101.657 53.5287 101.349 53.7807 100.957 53.958C100.565 54.1353 100.108 54.224 99.5849 54.224C98.8662 54.224 98.2735 54.0653 97.8069 53.748C97.3495 53.4213 97.1209 52.9313 97.1209 52.278C97.1209 51.55 97.3915 51.0133 97.9329 50.668C98.4835 50.3133 99.2442 50.0473 100.215 49.87L101.797 49.576V49.324C101.797 48.9413 101.662 48.6473 101.391 48.442C101.13 48.2273 100.78 48.12 100.341 48.12C99.9675 48.12 99.6409 48.1853 99.3609 48.316C99.0902 48.4373 98.7962 48.6427 98.4789 48.932C98.3575 49.0347 98.2409 49.086 98.1289 49.086C98.0169 49.086 97.9002 49.0347 97.7789 48.932L97.5549 48.736C97.4335 48.624 97.3729 48.5027 97.3729 48.372C97.3729 48.2507 97.4289 48.134 97.5409 48.022C97.9422 47.6393 98.3669 47.3547 98.8149 47.168C99.2629 46.9813 99.7622 46.888 100.313 46.888ZM99.7949 53.034C100.355 53.034 100.826 52.8847 101.209 52.586C101.601 52.2873 101.797 51.858 101.797 51.298V50.654L100.579 50.906C99.8975 51.046 99.3935 51.2047 99.0669 51.382C98.7402 51.5593 98.5769 51.83 98.5769 52.194C98.5769 52.4553 98.6842 52.6607 98.8989 52.81C99.1135 52.9593 99.4122 53.034 99.7949 53.034ZM108.028 47.028C108.234 47.028 108.444 47.0513 108.658 47.098C108.91 47.154 109.036 47.3033 109.036 47.546C109.036 47.6113 109.032 47.658 109.022 47.686L108.952 48.022C108.896 48.2833 108.756 48.414 108.532 48.414L108.406 48.4C108.238 48.372 108.089 48.358 107.958 48.358C107.492 48.358 107.114 48.5447 106.824 48.918C106.544 49.282 106.404 49.7907 106.404 50.444V53.51C106.404 53.6593 106.362 53.7807 106.278 53.874C106.194 53.958 106.073 54 105.914 54H105.41C105.261 54 105.14 53.958 105.046 53.874C104.962 53.7807 104.92 53.6593 104.92 53.51V47.588C104.92 47.4293 104.962 47.308 105.046 47.224C105.14 47.14 105.261 47.098 105.41 47.098H105.816C105.975 47.098 106.096 47.14 106.18 47.224C106.264 47.308 106.306 47.4293 106.306 47.588V48.134C106.474 47.7887 106.703 47.518 106.992 47.322C107.282 47.126 107.627 47.028 108.028 47.028Z" fill="#1B1B1F"/>
<rect x="40" y="78" width="252" height="4" rx="2" fill="#DEDEE3"/>
<rect x="54" y="77" width="224" height="6" rx="3" fill="#0063FB"/>
<rect x="264" y="66" width="28" height="28" rx="14" fill="#0063FB"/>
<rect x="40" y="66" width="28" height="28" rx="14" fill="#0063FB"/>
<defs>
<clipPath id="clip0_5488_18484">
<rect width="98" height="22" fill="white" transform="translate(48 145)"/>
</clipPath>
<clipPath id="clip1_5488_18484">
<rect width="98" height="22" fill="white" transform="translate(186 145)"/>
</clipPath>
</defs>
</svg>
