<svg width="332" height="220" viewBox="0 0 332 220" fill="none" xmlns="http://www.w3.org/2000/svg">
<rect x="40.5" y="132.5" width="113" height="47" rx="3.5" fill="white"/>
<rect x="40.5" y="132.5" width="113" height="47" rx="3.5" stroke="#84848F"/>
<g clip-path="url(#clip0_5449_11575)">
<path d="M58.304 149.896C58.368 149.725 58.4907 149.64 58.672 149.64H59.92C60.1333 149.64 60.24 149.747 60.24 149.96V160.68C60.24 160.893 60.1333 161 59.92 161H59.456C59.2427 161 59.136 160.893 59.136 160.68V155.368C59.136 154.227 59.1467 152.579 59.168 150.424C58.7307 151.672 58.1333 153.32 57.376 155.368L55.408 160.744C55.344 160.915 55.2213 161 55.04 161H54.576C54.3947 161 54.272 160.915 54.208 160.744L52.192 155.352C51.7653 154.243 51.1733 152.6 50.416 150.424C50.4373 152.579 50.448 154.232 50.448 155.384V160.68C50.448 160.893 50.3413 161 50.128 161H49.696C49.4827 161 49.376 160.893 49.376 160.68V149.96C49.376 149.747 49.4827 149.64 49.696 149.64H50.928C51.1093 149.64 51.232 149.725 51.296 149.896L53.12 154.808C53.9627 157.101 54.528 158.717 54.816 159.656C55.0827 158.76 55.5413 157.421 56.192 155.64C56.2347 155.523 56.2827 155.395 56.336 155.256C56.3893 155.117 56.4427 154.968 56.496 154.808L58.304 149.896ZM63.3214 151.112C63.108 151.112 62.9267 151.037 62.7774 150.888C62.6387 150.739 62.5694 150.557 62.5694 150.344C62.5694 150.131 62.6387 149.955 62.7774 149.816C62.9267 149.677 63.108 149.608 63.3214 149.608C63.5454 149.608 63.7267 149.677 63.8654 149.816C64.0147 149.955 64.0894 150.131 64.0894 150.344C64.0894 150.557 64.0147 150.739 63.8654 150.888C63.7267 151.037 63.5454 151.112 63.3214 151.112ZM63.1134 161C62.9 161 62.7934 160.893 62.7934 160.68V153.432C62.7934 153.219 62.9 153.112 63.1134 153.112H63.5294C63.7427 153.112 63.8494 153.219 63.8494 153.432V160.68C63.8494 160.893 63.7427 161 63.5294 161H63.1134ZM69.7196 152.92C70.6476 152.92 71.3463 153.176 71.8156 153.688C72.2956 154.2 72.5356 154.84 72.5356 155.608V160.68C72.5356 160.893 72.429 161 72.2156 161H71.7996C71.5863 161 71.4796 160.893 71.4796 160.68V155.96C71.4796 155.256 71.309 154.723 70.9676 154.36C70.6263 153.997 70.1356 153.816 69.4956 153.816C69.0903 153.816 68.717 153.917 68.3756 154.12C68.0343 154.312 67.7623 154.579 67.5596 154.92C67.357 155.261 67.2556 155.635 67.2556 156.04V160.68C67.2556 160.893 67.149 161 66.9356 161H66.5196C66.3063 161 66.1996 160.893 66.1996 160.68V153.432C66.1996 153.219 66.3063 153.112 66.5196 153.112H66.8716C67.085 153.112 67.1916 153.219 67.1916 153.432V154.2C67.4583 153.773 67.8103 153.453 68.2476 153.24C68.685 153.027 69.1756 152.92 69.7196 152.92Z" fill="#1B1B1F"/>
<path d="M138.16 160C138.04 160 137.944 159.948 137.872 159.844L135.844 156.892L134.68 158.08V159.76C134.68 159.92 134.6 160 134.44 160H134.128C133.968 160 133.888 159.92 133.888 159.76V151.72C133.888 151.56 133.968 151.48 134.128 151.48H134.44C134.6 151.48 134.68 151.56 134.68 151.72V157.18L137.56 154.192C137.632 154.112 137.732 154.072 137.86 154.072H138.196C138.26 154.072 138.308 154.088 138.34 154.12C138.38 154.144 138.4 154.176 138.4 154.216C138.4 154.256 138.376 154.308 138.328 154.372L136.396 156.388L138.664 159.712C138.696 159.768 138.712 159.816 138.712 159.856C138.712 159.952 138.648 160 138.52 160H138.16ZM142.505 153.94C143.201 153.94 143.725 154.132 144.077 154.516C144.437 154.9 144.617 155.38 144.617 155.956V159.76C144.617 159.92 144.537 160 144.377 160H144.065C143.905 160 143.825 159.92 143.825 159.76V156.22C143.825 155.692 143.697 155.292 143.441 155.02C143.185 154.748 142.817 154.612 142.337 154.612C142.033 154.612 141.753 154.688 141.497 154.84C141.241 154.984 141.037 155.184 140.885 155.44C140.733 155.696 140.657 155.976 140.657 156.28V159.76C140.657 159.92 140.577 160 140.417 160H140.105C139.945 160 139.865 159.92 139.865 159.76V154.324C139.865 154.164 139.945 154.084 140.105 154.084H140.369C140.529 154.084 140.609 154.164 140.609 154.324V154.9C140.809 154.58 141.073 154.34 141.401 154.18C141.729 154.02 142.097 153.94 142.505 153.94Z" fill="#5C5C66"/>
</g>
<rect x="178.5" y="132.5" width="113" height="47" rx="3.5" fill="white"/>
<rect x="178.5" y="132.5" width="113" height="47" rx="3.5" stroke="#84848F"/>
<g clip-path="url(#clip1_5449_11575)">
<path d="M196.304 149.896C196.368 149.725 196.491 149.64 196.672 149.64H197.92C198.133 149.64 198.24 149.747 198.24 149.96V160.68C198.24 160.893 198.133 161 197.92 161H197.456C197.243 161 197.136 160.893 197.136 160.68V155.368C197.136 154.227 197.147 152.579 197.168 150.424C196.731 151.672 196.133 153.32 195.376 155.368L193.408 160.744C193.344 160.915 193.221 161 193.04 161H192.576C192.395 161 192.272 160.915 192.208 160.744L190.192 155.352C189.765 154.243 189.173 152.6 188.416 150.424C188.437 152.579 188.448 154.232 188.448 155.384V160.68C188.448 160.893 188.341 161 188.128 161H187.696C187.483 161 187.376 160.893 187.376 160.68V149.96C187.376 149.747 187.483 149.64 187.696 149.64H188.928C189.109 149.64 189.232 149.725 189.296 149.896L191.12 154.808C191.963 157.101 192.528 158.717 192.816 159.656C193.083 158.76 193.541 157.421 194.192 155.64C194.235 155.523 194.283 155.395 194.336 155.256C194.389 155.117 194.443 154.968 194.496 154.808L196.304 149.896ZM203.833 152.92C204.804 152.92 205.561 153.155 206.105 153.624C206.649 154.083 206.921 154.691 206.921 155.448V160.68C206.921 160.893 206.815 161 206.601 161H206.281C206.068 161 205.961 160.893 205.961 160.68V159.96C205.695 160.387 205.316 160.707 204.825 160.92C204.345 161.133 203.807 161.24 203.209 161.24C202.377 161.24 201.7 161.064 201.177 160.712C200.655 160.36 200.393 159.816 200.393 159.08C200.393 158.493 200.559 158.024 200.889 157.672C201.22 157.309 201.652 157.037 202.185 156.856C202.719 156.664 203.385 156.493 204.185 156.344L205.913 156.04V155.528C205.913 154.984 205.727 154.563 205.353 154.264C204.98 153.955 204.489 153.8 203.881 153.8C203.423 153.8 203.007 153.885 202.633 154.056C202.26 154.227 201.86 154.52 201.433 154.936C201.359 155.011 201.279 155.048 201.193 155.048C201.119 155.048 201.049 155.016 200.985 154.952L200.777 154.76C200.703 154.685 200.665 154.605 200.665 154.52C200.665 154.424 200.703 154.339 200.777 154.264C201.225 153.795 201.695 153.453 202.185 153.24C202.687 153.027 203.236 152.92 203.833 152.92ZM203.257 160.36C204.025 160.36 204.66 160.157 205.161 159.752C205.663 159.347 205.913 158.829 205.913 158.2V156.856L204.425 157.144C203.732 157.283 203.183 157.416 202.777 157.544C202.372 157.672 202.047 157.859 201.801 158.104C201.556 158.349 201.433 158.669 201.433 159.064C201.433 159.469 201.593 159.789 201.913 160.024C202.244 160.248 202.692 160.36 203.257 160.36ZM215.054 160.616C215.097 160.691 215.118 160.755 215.118 160.808C215.118 160.936 215.033 161 214.862 161H214.382C214.222 161 214.094 160.931 213.998 160.792L211.822 157.592L209.662 160.792C209.566 160.931 209.438 161 209.278 161H208.83C208.745 161 208.675 160.984 208.622 160.952C208.579 160.909 208.558 160.861 208.558 160.808C208.558 160.733 208.579 160.669 208.622 160.616L211.214 156.888L208.83 153.496C208.787 153.443 208.766 153.384 208.766 153.32C208.766 153.181 208.857 153.112 209.038 153.112H209.502C209.662 153.112 209.79 153.181 209.886 153.32L211.838 156.184L213.774 153.32C213.87 153.181 213.998 153.112 214.158 153.112H214.59C214.675 153.112 214.739 153.133 214.782 153.176C214.835 153.208 214.862 153.251 214.862 153.304C214.862 153.379 214.841 153.443 214.798 153.496L212.462 156.84L215.054 160.616Z" fill="#1B1B1F"/>
<path d="M276.16 160C276.04 160 275.944 159.948 275.872 159.844L273.844 156.892L272.68 158.08V159.76C272.68 159.92 272.6 160 272.44 160H272.128C271.968 160 271.888 159.92 271.888 159.76V151.72C271.888 151.56 271.968 151.48 272.128 151.48H272.44C272.6 151.48 272.68 151.56 272.68 151.72V157.18L275.56 154.192C275.632 154.112 275.732 154.072 275.86 154.072H276.196C276.26 154.072 276.308 154.088 276.34 154.12C276.38 154.144 276.4 154.176 276.4 154.216C276.4 154.256 276.376 154.308 276.328 154.372L274.396 156.388L276.664 159.712C276.696 159.768 276.712 159.816 276.712 159.856C276.712 159.952 276.648 160 276.52 160H276.16ZM280.505 153.94C281.201 153.94 281.725 154.132 282.077 154.516C282.437 154.9 282.617 155.38 282.617 155.956V159.76C282.617 159.92 282.537 160 282.377 160H282.065C281.905 160 281.825 159.92 281.825 159.76V156.22C281.825 155.692 281.697 155.292 281.441 155.02C281.185 154.748 280.817 154.612 280.337 154.612C280.033 154.612 279.753 154.688 279.497 154.84C279.241 154.984 279.037 155.184 278.885 155.44C278.733 155.696 278.657 155.976 278.657 156.28V159.76C278.657 159.92 278.577 160 278.417 160H278.105C277.945 160 277.865 159.92 277.865 159.76V154.324C277.865 154.164 277.945 154.084 278.105 154.084H278.369C278.529 154.084 278.609 154.164 278.609 154.324V154.9C278.809 154.58 279.073 154.34 279.401 154.18C279.729 154.02 280.097 153.94 280.505 153.94Z" fill="#5C5C66"/>
</g>
<path d="M44.76 116.196C43.5373 116.196 42.6273 115.911 42.03 115.342C41.4327 114.763 41.134 113.956 41.134 112.92V106.34C41.134 106.153 41.2273 106.06 41.414 106.06H41.848C42.0347 106.06 42.128 106.153 42.128 106.34V112.85C42.128 113.671 42.352 114.292 42.8 114.712C43.2573 115.132 43.9107 115.342 44.76 115.342C45.628 115.342 46.286 115.132 46.734 114.712C47.182 114.292 47.406 113.671 47.406 112.85V106.34C47.406 106.153 47.4993 106.06 47.686 106.06H48.12C48.3067 106.06 48.4 106.153 48.4 106.34V112.92C48.4 113.956 48.1013 114.763 47.504 115.342C46.9067 115.911 45.992 116.196 44.76 116.196ZM53.6316 108.93C54.4436 108.93 55.055 109.154 55.4656 109.602C55.8856 110.05 56.0956 110.61 56.0956 111.282V115.72C56.0956 115.907 56.0023 116 55.8156 116H55.4516C55.265 116 55.1716 115.907 55.1716 115.72V111.59C55.1716 110.974 55.0223 110.507 54.7236 110.19C54.425 109.873 53.9956 109.714 53.4356 109.714C53.081 109.714 52.7543 109.803 52.4556 109.98C52.157 110.148 51.919 110.381 51.7416 110.68C51.5643 110.979 51.4756 111.305 51.4756 111.66V115.72C51.4756 115.907 51.3823 116 51.1956 116H50.8316C50.645 116 50.5516 115.907 50.5516 115.72V109.378C50.5516 109.191 50.645 109.098 50.8316 109.098H51.1396C51.3263 109.098 51.4196 109.191 51.4196 109.378V110.05C51.653 109.677 51.961 109.397 52.3436 109.21C52.7263 109.023 53.1556 108.93 53.6316 108.93ZM63.1235 106.34C63.1235 106.153 63.2168 106.06 63.4035 106.06H63.7675C63.9542 106.06 64.0475 106.153 64.0475 106.34V115.72C64.0475 115.907 63.9542 116 63.7675 116H63.4735C63.2868 116 63.1935 115.907 63.1935 115.72V114.81C62.9415 115.249 62.6102 115.585 62.1995 115.818C61.7888 116.051 61.3035 116.168 60.7435 116.168C60.1555 116.168 59.6328 116.019 59.1755 115.72C58.7182 115.412 58.3588 114.987 58.0975 114.446C57.8362 113.895 57.7055 113.265 57.7055 112.556C57.7055 111.847 57.8362 111.221 58.0975 110.68C58.3682 110.129 58.7368 109.705 59.2035 109.406C59.6702 109.098 60.1928 108.944 60.7715 108.944C61.8355 108.944 62.6195 109.341 63.1235 110.134V106.34ZM60.8135 115.384C61.5135 115.384 62.0782 115.137 62.5075 114.642C62.9462 114.138 63.1655 113.443 63.1655 112.556C63.1655 111.679 62.9462 110.988 62.5075 110.484C62.0782 109.98 61.5135 109.728 60.8135 109.728C60.1695 109.728 59.6468 109.989 59.2455 110.512C58.8535 111.035 58.6575 111.716 58.6575 112.556C58.6575 113.405 58.8535 114.091 59.2455 114.614C59.6375 115.127 60.1602 115.384 60.8135 115.384ZM71.1499 114.362C71.2152 114.297 71.2852 114.264 71.3599 114.264C71.4252 114.264 71.4859 114.292 71.5419 114.348L71.7239 114.516C71.7892 114.581 71.8219 114.651 71.8219 114.726C71.8219 114.782 71.7939 114.847 71.7379 114.922C71.2806 115.379 70.8372 115.706 70.4079 115.902C69.9786 116.089 69.4979 116.182 68.9659 116.182C68.2939 116.182 67.7106 116.033 67.2159 115.734C66.7212 115.435 66.3386 115.02 66.0679 114.488C65.7972 113.947 65.6619 113.321 65.6619 112.612C65.6619 111.893 65.7926 111.259 66.0539 110.708C66.3246 110.148 66.7026 109.714 67.1879 109.406C67.6732 109.089 68.2332 108.93 68.8679 108.93C69.8106 108.93 70.5526 109.224 71.0939 109.812C71.6352 110.4 71.9059 111.193 71.9059 112.192V112.36C71.8966 112.444 71.8639 112.509 71.8079 112.556C71.7612 112.603 71.6959 112.626 71.6119 112.626H66.5999C66.6279 113.41 66.8332 114.073 67.2159 114.614C67.6079 115.146 68.1912 115.412 68.9659 115.412C69.3859 115.412 69.7546 115.337 70.0719 115.188C70.3986 115.029 70.7579 114.754 71.1499 114.362ZM68.8679 109.7C68.2519 109.7 67.7432 109.891 67.3419 110.274C66.9499 110.647 66.7119 111.198 66.6279 111.926H70.9819C70.9632 111.245 70.7672 110.703 70.3939 110.302C70.0206 109.901 69.5119 109.7 68.8679 109.7ZM76.1374 109.042C76.3707 109.042 76.6461 109.079 76.9634 109.154C77.1314 109.21 77.1967 109.327 77.1594 109.504L77.1034 109.728C77.0567 109.905 76.9401 109.971 76.7534 109.924C76.5294 109.868 76.3241 109.84 76.1374 109.84C75.6614 109.84 75.2647 110.045 74.9474 110.456C74.6394 110.867 74.4854 111.436 74.4854 112.164V115.72C74.4854 115.907 74.3921 116 74.2054 116H73.8414C73.6547 116 73.5614 115.907 73.5614 115.72V109.378C73.5614 109.191 73.6547 109.098 73.8414 109.098H74.1494C74.3361 109.098 74.4294 109.191 74.4294 109.378V110.148C74.5881 109.803 74.8121 109.532 75.1014 109.336C75.4001 109.14 75.7454 109.042 76.1374 109.042ZM84.9735 109.588C85.6175 109.588 86.1821 109.723 86.6675 109.994C87.1621 110.255 87.5448 110.629 87.8155 111.114C88.0861 111.599 88.2215 112.159 88.2215 112.794C88.2215 113.363 88.0861 113.909 87.8155 114.432C87.5448 114.955 87.1528 115.379 86.6395 115.706C86.1261 116.033 85.5241 116.196 84.8335 116.196C84.1615 116.196 83.5781 116.112 83.0835 115.944C82.5981 115.776 82.0475 115.487 81.4315 115.076C81.3381 115.02 81.2915 114.945 81.2915 114.852C81.2915 114.787 81.3101 114.731 81.3475 114.684L81.5295 114.432C81.5855 114.348 81.6508 114.306 81.7255 114.306C81.7815 114.306 81.8468 114.329 81.9215 114.376C82.4908 114.759 82.9761 115.025 83.3775 115.174C83.7881 115.323 84.2408 115.398 84.7355 115.398C85.2581 115.398 85.7108 115.281 86.0935 115.048C86.4761 114.805 86.7655 114.488 86.9615 114.096C87.1668 113.695 87.2695 113.261 87.2695 112.794C87.2695 112.047 87.0595 111.464 86.6395 111.044C86.2288 110.624 85.6361 110.414 84.8615 110.414C84.0308 110.414 83.3355 110.666 82.7755 111.17C82.6728 111.263 82.5515 111.301 82.4115 111.282L82.1035 111.24C82.0195 111.231 81.9541 111.198 81.9075 111.142C81.8608 111.086 81.8421 111.016 81.8515 110.932L82.2295 106.326C82.2388 106.242 82.2668 106.177 82.3135 106.13C82.3695 106.083 82.4395 106.06 82.5235 106.06H87.5075C87.6941 106.06 87.7875 106.153 87.7875 106.34V106.592C87.7875 106.779 87.6941 106.872 87.5075 106.872H83.0555L82.7615 110.316C83.0228 110.101 83.3401 109.929 83.7135 109.798C84.0961 109.658 84.5161 109.588 84.9735 109.588Z" fill="#5C5C66"/>
<path d="M271.997 106.172C272.1 106.097 272.217 106.06 272.347 106.06H272.571C272.758 106.06 272.851 106.153 272.851 106.34V115.72C272.851 115.907 272.758 116 272.571 116H272.193C272.007 116 271.913 115.907 271.913 115.72V107.264L269.799 108.776C269.734 108.823 269.673 108.846 269.617 108.846C269.533 108.846 269.463 108.804 269.407 108.72L269.267 108.51C269.23 108.463 269.211 108.407 269.211 108.342C269.211 108.258 269.253 108.183 269.337 108.118L271.997 106.172ZM279.22 116.21C278.566 116.21 277.992 116.051 277.498 115.734C277.012 115.417 276.625 114.973 276.336 114.404C275.878 113.499 275.65 112.374 275.65 111.03C275.65 109.677 275.878 108.547 276.336 107.642C276.625 107.073 277.012 106.634 277.498 106.326C277.992 106.009 278.566 105.85 279.22 105.85C279.873 105.85 280.442 106.009 280.928 106.326C281.422 106.634 281.814 107.073 282.104 107.642C282.561 108.547 282.79 109.677 282.79 111.03C282.79 112.374 282.561 113.499 282.104 114.404C281.814 114.973 281.422 115.417 280.928 115.734C280.442 116.051 279.873 116.21 279.22 116.21ZM279.22 115.398C280.134 115.398 280.82 114.922 281.278 113.97C281.642 113.195 281.824 112.215 281.824 111.03C281.824 109.826 281.642 108.841 281.278 108.076C280.83 107.133 280.144 106.662 279.22 106.662C278.296 106.662 277.61 107.133 277.162 108.076C276.798 108.841 276.616 109.826 276.616 111.03C276.616 112.225 276.798 113.205 277.162 113.97C277.619 114.922 278.305 115.398 279.22 115.398ZM287.805 116.21C287.152 116.21 286.578 116.051 286.083 115.734C285.598 115.417 285.211 114.973 284.921 114.404C284.464 113.499 284.235 112.374 284.235 111.03C284.235 109.677 284.464 108.547 284.921 107.642C285.211 107.073 285.598 106.634 286.083 106.326C286.578 106.009 287.152 105.85 287.805 105.85C288.459 105.85 289.028 106.009 289.513 106.326C290.008 106.634 290.4 107.073 290.689 107.642C291.147 108.547 291.375 109.677 291.375 111.03C291.375 112.374 291.147 113.499 290.689 114.404C290.4 114.973 290.008 115.417 289.513 115.734C289.028 116.051 288.459 116.21 287.805 116.21ZM287.805 115.398C288.72 115.398 289.406 114.922 289.863 113.97C290.227 113.195 290.409 112.215 290.409 111.03C290.409 109.826 290.227 108.841 289.863 108.076C289.415 107.133 288.729 106.662 287.805 106.662C286.881 106.662 286.195 107.133 285.747 108.076C285.383 108.841 285.201 109.826 285.201 111.03C285.201 112.225 285.383 113.205 285.747 113.97C286.205 114.922 286.891 115.398 287.805 115.398Z" fill="#5C5C66"/>
<path d="M47.938 54C47.6767 54 47.4807 53.8927 47.35 53.678L44.34 49.044L42.674 50.78V53.51C42.674 53.6593 42.632 53.7807 42.548 53.874C42.464 53.958 42.3427 54 42.184 54H41.568C41.4187 54 41.2973 53.958 41.204 53.874C41.12 53.7807 41.078 53.6593 41.078 53.51V44.55C41.078 44.3913 41.12 44.27 41.204 44.186C41.2973 44.102 41.4187 44.06 41.568 44.06H42.184C42.3427 44.06 42.464 44.102 42.548 44.186C42.632 44.27 42.674 44.3913 42.674 44.55V48.862L46.93 44.326C47.098 44.1487 47.3033 44.06 47.546 44.06H48.302C48.442 44.06 48.5447 44.088 48.61 44.144C48.6847 44.1907 48.722 44.256 48.722 44.34C48.722 44.452 48.6707 44.5593 48.568 44.662L45.432 47.924L48.988 53.412C49.0533 53.5147 49.086 53.608 49.086 53.692C49.086 53.7853 49.0487 53.86 48.974 53.916C48.8993 53.972 48.7967 54 48.666 54H47.938ZM53.7879 46.888C54.5813 46.888 55.1879 47.112 55.6079 47.56C56.0373 47.9987 56.2519 48.568 56.2519 49.268V53.51C56.2519 53.6593 56.2099 53.7807 56.1259 53.874C56.0419 53.958 55.9206 54 55.7619 54H55.2579C55.1086 54 54.9873 53.958 54.8939 53.874C54.8099 53.7807 54.7679 53.6593 54.7679 53.51V49.73C54.7679 49.226 54.6419 48.8387 54.3899 48.568C54.1473 48.2973 53.7973 48.162 53.3399 48.162C52.8919 48.162 52.5139 48.316 52.2059 48.624C51.9073 48.932 51.7579 49.3193 51.7579 49.786V53.51C51.7579 53.6593 51.7159 53.7807 51.6319 53.874C51.5479 53.958 51.4266 54 51.2679 54H50.7639C50.6146 54 50.4933 53.958 50.3999 53.874C50.3159 53.7807 50.2739 53.6593 50.2739 53.51V47.588C50.2739 47.4293 50.3159 47.308 50.3999 47.224C50.4933 47.14 50.6146 47.098 50.7639 47.098H51.1699C51.3286 47.098 51.4499 47.14 51.5339 47.224C51.6179 47.308 51.6599 47.4293 51.6599 47.588V47.952C51.8839 47.6067 52.1779 47.3453 52.5419 47.168C52.9059 46.9813 53.3213 46.888 53.7879 46.888ZM61.0655 54.21C60.3842 54.21 59.7775 54.056 59.2455 53.748C58.7228 53.44 58.3122 53.0107 58.0135 52.46C57.7148 51.9 57.5655 51.2607 57.5655 50.542C57.5655 49.8233 57.7148 49.1887 58.0135 48.638C58.3122 48.0873 58.7228 47.658 59.2455 47.35C59.7775 47.042 60.3842 46.888 61.0655 46.888C61.7375 46.888 62.3395 47.042 62.8715 47.35C63.4035 47.658 63.8188 48.092 64.1175 48.652C64.4162 49.2027 64.5655 49.8327 64.5655 50.542C64.5655 51.2607 64.4162 51.9 64.1175 52.46C63.8188 53.0107 63.4035 53.44 62.8715 53.748C62.3395 54.056 61.7375 54.21 61.0655 54.21ZM61.0655 52.964C61.6628 52.964 62.1435 52.7447 62.5075 52.306C62.8715 51.858 63.0535 51.27 63.0535 50.542C63.0535 49.8233 62.8715 49.2447 62.5075 48.806C62.1435 48.3673 61.6628 48.148 61.0655 48.148C60.4682 48.148 59.9875 48.3673 59.6235 48.806C59.2595 49.2447 59.0775 49.8233 59.0775 50.542C59.0775 51.27 59.2595 51.858 59.6235 52.306C59.9875 52.7447 60.4682 52.964 61.0655 52.964ZM68.9731 52.824C69.0011 52.8147 69.0431 52.81 69.0991 52.81C69.3324 52.81 69.4724 52.9453 69.5191 53.216L69.5611 53.44C69.5704 53.468 69.5751 53.5147 69.5751 53.58C69.5751 53.8133 69.4444 53.9627 69.1831 54.028C68.8098 54.112 68.4691 54.154 68.1611 54.154C67.4984 54.154 67.0178 54 66.7191 53.692C66.4298 53.384 66.2851 52.922 66.2851 52.306V48.232H65.5151C65.3658 48.232 65.2444 48.19 65.1511 48.106C65.0671 48.0127 65.0251 47.8913 65.0251 47.742V47.588C65.0251 47.4293 65.0671 47.308 65.1511 47.224C65.2444 47.14 65.3658 47.098 65.5151 47.098H66.2851V45.362C66.2851 45.2033 66.3271 45.082 66.4111 44.998C66.5044 44.914 66.6258 44.872 66.7751 44.872H67.2791C67.4378 44.872 67.5591 44.914 67.6431 44.998C67.7271 45.082 67.7691 45.2033 67.7691 45.362V47.098H69.0291C69.1878 47.098 69.3091 47.14 69.3931 47.224C69.4771 47.308 69.5191 47.4293 69.5191 47.588V47.742C69.5191 47.8913 69.4771 48.0127 69.3931 48.106C69.3091 48.19 69.1878 48.232 69.0291 48.232H67.7691V52.124C67.7691 52.3947 67.8251 52.586 67.9371 52.698C68.0584 52.81 68.2498 52.866 68.5111 52.866C68.6231 52.866 68.7771 52.852 68.9731 52.824ZM73.5101 54.21C72.9408 54.21 72.4321 54.14 71.9841 54C71.5454 53.8507 71.0974 53.594 70.6401 53.23C70.5001 53.1273 70.4301 53.0107 70.4301 52.88C70.4301 52.7773 70.4814 52.6653 70.5841 52.544L70.7941 52.306C70.9061 52.1753 71.0274 52.11 71.1581 52.11C71.2608 52.11 71.3728 52.1567 71.4941 52.25C71.8861 52.5393 72.2314 52.74 72.5301 52.852C72.8288 52.9547 73.1648 53.006 73.5381 53.006C73.9394 53.006 74.2661 52.9267 74.5181 52.768C74.7794 52.6 74.9101 52.376 74.9101 52.096C74.9101 51.8813 74.8354 51.7133 74.6861 51.592C74.5461 51.4613 74.3594 51.3633 74.1261 51.298C73.8928 51.2233 73.5474 51.1393 73.0901 51.046C72.4461 50.906 71.9421 50.7567 71.5781 50.598C71.2234 50.43 70.9668 50.22 70.8081 49.968C70.6494 49.716 70.5701 49.394 70.5701 49.002C70.5701 48.6007 70.6821 48.2413 70.9061 47.924C71.1394 47.6067 71.4614 47.3547 71.8721 47.168C72.2921 46.9813 72.7821 46.888 73.3421 46.888C73.8461 46.888 74.2941 46.944 74.6861 47.056C75.0874 47.168 75.4794 47.3593 75.8621 47.63C76.0114 47.742 76.0861 47.868 76.0861 48.008C76.0861 48.1013 76.0394 48.2087 75.9461 48.33L75.7641 48.554C75.6614 48.6847 75.5354 48.75 75.3861 48.75C75.2741 48.75 75.1668 48.7127 75.0641 48.638C74.7561 48.4327 74.4714 48.2927 74.2101 48.218C73.9488 48.134 73.6548 48.092 73.3281 48.092C72.9268 48.092 72.6048 48.1713 72.3621 48.33C72.1194 48.4887 71.9981 48.694 71.9981 48.946C71.9981 49.114 72.0541 49.2493 72.1661 49.352C72.2874 49.4453 72.4554 49.5293 72.6701 49.604C72.8941 49.6693 73.2441 49.7533 73.7201 49.856C74.3641 49.996 74.8728 50.1547 75.2461 50.332C75.6288 50.5 75.9088 50.7193 76.0861 50.99C76.2728 51.2513 76.3661 51.592 76.3661 52.012C76.3661 52.6653 76.1048 53.1973 75.5821 53.608C75.0688 54.0093 74.3781 54.21 73.5101 54.21Z" fill="#1B1B1F"/>
<rect x="40" y="78" width="252" height="4" rx="2" fill="#DEDEE3"/>
<rect x="54" y="77" width="224" height="6" rx="3" fill="#0063FB"/>
<rect x="264" y="66" width="28" height="28" rx="14" fill="#0063FB"/>
<rect x="40" y="66" width="28" height="28" rx="14" fill="#0063FB"/>
<defs>
<clipPath id="clip0_5449_11575">
<rect width="98" height="22" fill="white" transform="translate(48 145)"/>
</clipPath>
<clipPath id="clip1_5449_11575">
<rect width="98" height="22" fill="white" transform="translate(186 145)"/>
</clipPath>
</defs>
</svg>
