<svg width="688" height="272" viewBox="0 0 688 272" fill="none" xmlns="http://www.w3.org/2000/svg">
<rect width="688" height="272" fill="#F6F6F6"/>
<rect x="112" y="80" width="464" height="112" rx="8" fill="white"/>
<path d="M264.5 126C264.5 126 258 122.5 258 118.375C258 117.48 258.356 116.621 258.989 115.989C259.621 115.356 260.48 115 261.375 115C262.787 115 263.996 115.769 264.5 117C265.004 115.769 266.213 115 267.625 115C268.52 115 269.379 115.356 270.011 115.989C270.644 116.621 271 117.48 271 118.375C271 122.5 264.5 126 264.5 126Z" stroke="#1B1B1F" stroke-linecap="round" stroke-linejoin="round"/>
<path d="M247.076 144.4V142.336H250.932V154H248.628V144.4H247.076ZM259.193 145.248C259.086 144.8 258.9 144.464 258.633 144.24C258.377 144.016 258.004 143.904 257.513 143.904C256.777 143.904 256.233 144.203 255.881 144.8C255.54 145.387 255.364 146.347 255.353 147.68C255.609 147.253 255.982 146.923 256.473 146.688C256.964 146.443 257.497 146.32 258.073 146.32C258.766 146.32 259.38 146.469 259.913 146.768C260.446 147.067 260.862 147.504 261.161 148.08C261.46 148.645 261.609 149.328 261.609 150.128C261.609 150.885 261.454 151.563 261.145 152.16C260.846 152.747 260.404 153.205 259.817 153.536C259.23 153.867 258.532 154.032 257.721 154.032C256.612 154.032 255.737 153.787 255.097 153.296C254.468 152.805 254.025 152.123 253.769 151.248C253.524 150.363 253.401 149.275 253.401 147.984C253.401 146.032 253.737 144.56 254.409 143.568C255.081 142.565 256.142 142.064 257.593 142.064C258.713 142.064 259.582 142.368 260.201 142.976C260.82 143.584 261.177 144.341 261.273 145.248H259.193ZM257.561 148.16C256.996 148.16 256.521 148.325 256.137 148.656C255.753 148.987 255.561 149.467 255.561 150.096C255.561 150.725 255.737 151.221 256.089 151.584C256.452 151.947 256.958 152.128 257.609 152.128C258.185 152.128 258.638 151.952 258.969 151.6C259.31 151.248 259.481 150.773 259.481 150.176C259.481 149.557 259.316 149.067 258.985 148.704C258.665 148.341 258.19 148.16 257.561 148.16ZM265.875 146.416C266.163 146.011 266.558 145.675 267.059 145.408C267.571 145.131 268.153 144.992 268.803 144.992C269.561 144.992 270.243 145.179 270.851 145.552C271.47 145.925 271.955 146.459 272.307 147.152C272.67 147.835 272.851 148.629 272.851 149.536C272.851 150.443 272.67 151.248 272.307 151.952C271.955 152.645 271.47 153.184 270.851 153.568C270.243 153.952 269.561 154.144 268.803 154.144C268.153 154.144 267.577 154.011 267.075 153.744C266.585 153.477 266.185 153.141 265.875 152.736V158.224H263.635V145.136H265.875V146.416ZM270.563 149.536C270.563 149.003 270.451 148.544 270.227 148.16C270.014 147.765 269.726 147.467 269.363 147.264C269.011 147.061 268.627 146.96 268.211 146.96C267.806 146.96 267.422 147.067 267.059 147.28C266.707 147.483 266.419 147.781 266.195 148.176C265.982 148.571 265.875 149.035 265.875 149.568C265.875 150.101 265.982 150.565 266.195 150.96C266.419 151.355 266.707 151.659 267.059 151.872C267.422 152.075 267.806 152.176 268.211 152.176C268.627 152.176 269.011 152.069 269.363 151.856C269.726 151.643 270.014 151.339 270.227 150.944C270.451 150.549 270.563 150.08 270.563 149.536ZM279.375 154L277.551 151.248L275.935 154H273.535L276.431 149.552L273.503 145.136H276.031L277.839 147.872L279.471 145.136H281.871L278.959 149.552L281.903 154H279.375Z" fill="black"/>
<path d="M342.5 129C342.5 129 332.75 123.75 332.75 117.562C332.75 116.22 333.283 114.932 334.233 113.983C335.182 113.033 336.47 112.5 337.812 112.5C339.93 112.5 341.744 113.654 342.5 115.5C343.256 113.654 345.07 112.5 347.188 112.5C348.53 112.5 349.818 113.033 350.767 113.983C351.717 114.932 352.25 116.22 352.25 117.562C352.25 123.75 342.5 129 342.5 129Z" stroke="#1B1B1F" stroke-width="1.5" stroke-linecap="round" stroke-linejoin="round"/>
<path d="M324.052 155.472C325.076 154.619 325.892 153.909 326.5 153.344C327.108 152.768 327.615 152.171 328.02 151.552C328.425 150.933 328.628 150.325 328.628 149.728C328.628 149.184 328.5 148.757 328.244 148.448C327.988 148.139 327.593 147.984 327.06 147.984C326.527 147.984 326.116 148.165 325.828 148.528C325.54 148.88 325.391 149.365 325.38 149.984H323.204C323.247 148.704 323.625 147.733 324.34 147.072C325.065 146.411 325.983 146.08 327.092 146.08C328.308 146.08 329.241 146.405 329.892 147.056C330.543 147.696 330.868 148.544 330.868 149.6C330.868 150.432 330.644 151.227 330.196 151.984C329.748 152.741 329.236 153.403 328.66 153.968C328.084 154.523 327.332 155.195 326.404 155.984H331.124V157.84H323.22V156.176L324.052 155.472ZM332.44 155.728V153.968L337.672 146.48H340.28V153.776H341.688V155.728H340.28V158H338.04V155.728H332.44ZM338.184 148.88L334.904 153.776H338.184V148.88ZM345.61 150.416C345.898 150.011 346.292 149.675 346.794 149.408C347.306 149.131 347.887 148.992 348.538 148.992C349.295 148.992 349.978 149.179 350.586 149.552C351.204 149.925 351.69 150.459 352.042 151.152C352.404 151.835 352.586 152.629 352.586 153.536C352.586 154.443 352.404 155.248 352.042 155.952C351.69 156.645 351.204 157.184 350.586 157.568C349.978 157.952 349.295 158.144 348.538 158.144C347.887 158.144 347.311 158.011 346.81 157.744C346.319 157.477 345.919 157.141 345.61 156.736V162.224H343.37V149.136H345.61V150.416ZM350.298 153.536C350.298 153.003 350.186 152.544 349.962 152.16C349.748 151.765 349.46 151.467 349.098 151.264C348.746 151.061 348.362 150.96 347.946 150.96C347.54 150.96 347.156 151.067 346.794 151.28C346.442 151.483 346.154 151.781 345.93 152.176C345.716 152.571 345.61 153.035 345.61 153.568C345.61 154.101 345.716 154.565 345.93 154.96C346.154 155.355 346.442 155.659 346.794 155.872C347.156 156.075 347.54 156.176 347.946 156.176C348.362 156.176 348.746 156.069 349.098 155.856C349.46 155.643 349.748 155.339 349.962 154.944C350.186 154.549 350.298 154.08 350.298 153.536ZM359.109 158L357.285 155.248L355.669 158H353.269L356.165 153.552L353.237 149.136H355.765L357.573 151.872L359.205 149.136H361.605L358.693 153.552L361.637 158H359.109Z" fill="black"/>
<path d="M422 132C422 132 409 125 409 116.75C409 114.96 409.711 113.243 410.977 111.977C412.243 110.711 413.96 110 415.75 110C418.574 110 420.992 111.539 422 114C423.008 111.539 425.426 110 428.25 110C430.04 110 431.757 110.711 433.023 111.977C434.289 113.243 435 114.96 435 116.75C435 125 422 132 422 132Z" stroke="#1B1B1F" stroke-width="2" stroke-linecap="round" stroke-linejoin="round"/>
<path d="M403.38 153.408C403.433 152.341 403.807 151.52 404.5 150.944C405.204 150.357 406.127 150.064 407.268 150.064C408.047 150.064 408.713 150.203 409.268 150.48C409.823 150.747 410.239 151.115 410.516 151.584C410.804 152.043 410.948 152.565 410.948 153.152C410.948 153.824 410.772 154.395 410.42 154.864C410.079 155.323 409.668 155.632 409.188 155.792V155.856C409.807 156.048 410.287 156.389 410.628 156.88C410.98 157.371 411.156 158 411.156 158.768C411.156 159.408 411.007 159.979 410.708 160.48C410.42 160.981 409.988 161.376 409.412 161.664C408.847 161.941 408.164 162.08 407.364 162.08C406.159 162.08 405.177 161.776 404.42 161.168C403.663 160.56 403.263 159.664 403.22 158.48H405.396C405.417 159.003 405.593 159.424 405.924 159.744C406.265 160.053 406.729 160.208 407.316 160.208C407.86 160.208 408.276 160.059 408.564 159.76C408.863 159.451 409.012 159.056 409.012 158.576C409.012 157.936 408.809 157.477 408.404 157.2C407.999 156.923 407.369 156.784 406.516 156.784H406.052V154.944H406.516C408.031 154.944 408.788 154.437 408.788 153.424C408.788 152.965 408.649 152.608 408.372 152.352C408.105 152.096 407.716 151.968 407.204 151.968C406.703 151.968 406.313 152.107 406.036 152.384C405.769 152.651 405.615 152.992 405.572 153.408H403.38ZM413.63 159.472C414.654 158.619 415.47 157.909 416.078 157.344C416.686 156.768 417.193 156.171 417.598 155.552C418.003 154.933 418.206 154.325 418.206 153.728C418.206 153.184 418.078 152.757 417.822 152.448C417.566 152.139 417.171 151.984 416.638 151.984C416.105 151.984 415.694 152.165 415.406 152.528C415.118 152.88 414.969 153.365 414.958 153.984H412.782C412.825 152.704 413.203 151.733 413.918 151.072C414.643 150.411 415.561 150.08 416.67 150.08C417.886 150.08 418.819 150.405 419.47 151.056C420.121 151.696 420.446 152.544 420.446 153.6C420.446 154.432 420.222 155.227 419.774 155.984C419.326 156.741 418.814 157.403 418.238 157.968C417.662 158.523 416.91 159.195 415.982 159.984H420.702V161.84H412.798V160.176L413.63 159.472ZM424.61 154.416C424.898 154.011 425.292 153.675 425.794 153.408C426.306 153.131 426.887 152.992 427.538 152.992C428.295 152.992 428.978 153.179 429.586 153.552C430.204 153.925 430.69 154.459 431.042 155.152C431.404 155.835 431.586 156.629 431.586 157.536C431.586 158.443 431.404 159.248 431.042 159.952C430.69 160.645 430.204 161.184 429.586 161.568C428.978 161.952 428.295 162.144 427.538 162.144C426.887 162.144 426.311 162.011 425.81 161.744C425.319 161.477 424.919 161.141 424.61 160.736V166.224H422.37V153.136H424.61V154.416ZM429.298 157.536C429.298 157.003 429.186 156.544 428.962 156.16C428.748 155.765 428.46 155.467 428.098 155.264C427.746 155.061 427.362 154.96 426.946 154.96C426.54 154.96 426.156 155.067 425.794 155.28C425.442 155.483 425.154 155.781 424.93 156.176C424.716 156.571 424.61 157.035 424.61 157.568C424.61 158.101 424.716 158.565 424.93 158.96C425.154 159.355 425.442 159.659 425.794 159.872C426.156 160.075 426.54 160.176 426.946 160.176C427.362 160.176 427.746 160.069 428.098 159.856C428.46 159.643 428.748 159.339 428.962 158.944C429.186 158.549 429.298 158.08 429.298 157.536ZM438.109 162L436.285 159.248L434.669 162H432.269L435.165 157.552L432.237 153.136H434.765L436.573 155.872L438.205 153.136H440.605L437.693 157.552L440.637 162H438.109Z" fill="black"/>
</svg>
