<svg width="332" height="220" viewBox="0 0 332 220" fill="none" xmlns="http://www.w3.org/2000/svg">
<mask id="path-1-inside-1_6035_3337" fill="white">
<path d="M23.5 36H308.5V70H23.5V36Z"/>
</mask>
<path d="M308.5 70V69H23.5V70V71H308.5V70Z" fill="#DEDEE3" mask="url(#path-1-inside-1_6035_3337)"/>
<mask id="path-3-inside-2_6035_3337" fill="white">
<path d="M23.5 36H122.5V70H23.5V36Z"/>
</mask>
<path d="M122.5 70V67H23.5V70V73H122.5V70Z" fill="#0063FB" mask="url(#path-3-inside-2_6035_3337)"/>
<path d="M45.612 58.256C44.492 58.256 43.516 58 42.684 57.488C41.852 56.976 41.212 56.272 40.764 55.376C40.3267 54.4693 40.108 53.4507 40.108 52.32C40.108 51.1893 40.3267 50.176 40.764 49.28C41.212 48.3733 41.852 47.664 42.684 47.152C43.516 46.64 44.492 46.384 45.612 46.384C46.7213 46.384 47.692 46.64 48.524 47.152C49.356 47.664 49.9907 48.3733 50.428 49.28C50.876 50.176 51.1 51.1893 51.1 52.32C51.1 53.4507 50.876 54.4693 50.428 55.376C49.9907 56.272 49.356 56.976 48.524 57.488C47.692 58 46.7213 58.256 45.612 58.256ZM45.612 56.656C46.3267 56.656 46.956 56.4747 47.5 56.112C48.0547 55.7493 48.4813 55.2427 48.78 54.592C49.0787 53.9307 49.228 53.1733 49.228 52.32C49.228 51.4667 49.0787 50.7147 48.78 50.064C48.4813 49.4027 48.0547 48.8907 47.5 48.528C46.956 48.1653 46.3267 47.984 45.612 47.984C44.8867 47.984 44.2467 48.1653 43.692 48.528C43.148 48.8907 42.7267 49.4027 42.428 50.064C42.1293 50.7147 41.98 51.4667 41.98 52.32C41.98 53.1733 42.1293 53.9307 42.428 54.592C42.7267 55.2427 43.148 55.7493 43.692 56.112C44.2467 56.4747 44.8867 56.656 45.612 56.656ZM57.4795 50.576C57.5755 50.2667 57.7835 50.112 58.1035 50.112H58.6955C59.0262 50.112 59.1915 50.2453 59.1915 50.512C59.1915 50.5867 59.1755 50.6667 59.1435 50.752L56.8235 57.552C56.7275 57.8507 56.5142 58 56.1835 58H55.0475C54.7168 58 54.5035 57.8507 54.4075 57.552L52.0875 50.752C52.0555 50.6667 52.0395 50.5867 52.0395 50.512C52.0395 50.2453 52.2048 50.112 52.5355 50.112H53.1755C53.4955 50.112 53.7035 50.2667 53.7995 50.576L54.5355 52.864C55.0155 54.4 55.3835 55.648 55.6395 56.608C55.9808 55.3387 56.3488 54.0907 56.7435 52.864L57.4795 50.576ZM66.0771 55.984C66.2158 55.8667 66.3491 55.808 66.4771 55.808C66.6051 55.808 66.7385 55.8773 66.8771 56.016L67.1011 56.256C67.2185 56.3947 67.2771 56.528 67.2771 56.656C67.2771 56.7947 67.2078 56.928 67.0691 57.056C66.5785 57.4827 66.0878 57.7867 65.5971 57.968C65.1171 58.1493 64.5838 58.24 63.9971 58.24C63.1758 58.24 62.4611 58.0693 61.8531 57.728C61.2558 57.3867 60.7918 56.9067 60.4611 56.288C60.1411 55.6587 59.9811 54.9333 59.9811 54.112C59.9811 53.3013 60.1358 52.576 60.4451 51.936C60.7651 51.2853 61.2131 50.7787 61.7891 50.416C62.3758 50.0533 63.0585 49.872 63.8371 49.872C64.9998 49.872 65.8958 50.2187 66.5251 50.912C67.1545 51.5947 67.4691 52.5387 67.4691 53.744V53.888C67.4585 54.0587 67.4051 54.192 67.3091 54.288C67.2131 54.384 67.0745 54.432 66.8931 54.432H61.6451C61.7091 55.136 61.9385 55.712 62.3331 56.16C62.7385 56.5973 63.3038 56.816 64.0291 56.816C64.4238 56.816 64.7705 56.7573 65.0691 56.64C65.3678 56.512 65.7038 56.2933 66.0771 55.984ZM63.8051 51.216C63.2185 51.216 62.7438 51.392 62.3811 51.744C62.0291 52.0853 61.7998 52.5707 61.6931 53.2H65.8051C65.7625 52.5813 65.5705 52.096 65.2291 51.744C64.8878 51.392 64.4131 51.216 63.8051 51.216ZM72.5749 50.032C72.8095 50.032 73.0495 50.0587 73.2949 50.112C73.5829 50.176 73.7269 50.3467 73.7269 50.624C73.7269 50.6987 73.7215 50.752 73.7109 50.784L73.6309 51.168C73.5669 51.4667 73.4069 51.616 73.1509 51.616L73.0069 51.6C72.8149 51.568 72.6442 51.552 72.4949 51.552C71.9615 51.552 71.5295 51.7653 71.1989 52.192C70.8789 52.608 70.7189 53.1893 70.7189 53.936V57.44C70.7189 57.6107 70.6709 57.7493 70.5749 57.856C70.4789 57.952 70.3402 58 70.1589 58H69.5829C69.4122 58 69.2735 57.952 69.1669 57.856C69.0709 57.7493 69.0229 57.6107 69.0229 57.44V50.672C69.0229 50.4907 69.0709 50.352 69.1669 50.256C69.2735 50.16 69.4122 50.112 69.5829 50.112H70.0469C70.2282 50.112 70.3669 50.16 70.4629 50.256C70.5589 50.352 70.6069 50.4907 70.6069 50.672V51.296C70.7989 50.9013 71.0602 50.592 71.3909 50.368C71.7215 50.144 72.1162 50.032 72.5749 50.032ZM80.0576 50.576C80.1536 50.2667 80.3616 50.112 80.6816 50.112H81.2736C81.6043 50.112 81.7696 50.2453 81.7696 50.512C81.7696 50.5867 81.7536 50.6667 81.7216 50.752L79.4016 57.552C79.3056 57.8507 79.0923 58 78.7616 58H77.6256C77.295 58 77.0816 57.8507 76.9856 57.552L74.6656 50.752C74.6336 50.6667 74.6176 50.5867 74.6176 50.512C74.6176 50.2453 74.783 50.112 75.1136 50.112H75.7536C76.0736 50.112 76.2816 50.2667 76.3776 50.576L77.1136 52.864C77.5936 54.4 77.9616 55.648 78.2176 56.608C78.559 55.3387 78.927 54.0907 79.3216 52.864L80.0576 50.576ZM83.9806 48.576C83.6713 48.576 83.41 48.4747 83.1966 48.272C82.9833 48.0587 82.8766 47.808 82.8766 47.52C82.8766 47.2213 82.9833 46.9707 83.1966 46.768C83.41 46.5653 83.6713 46.464 83.9806 46.464C84.29 46.464 84.5513 46.5653 84.7646 46.768C84.978 46.9707 85.0846 47.2213 85.0846 47.52C85.0846 47.808 84.978 48.0587 84.7646 48.272C84.5513 48.4747 84.29 48.576 83.9806 48.576ZM83.6766 58C83.506 58 83.3673 57.952 83.2606 57.856C83.1646 57.7493 83.1166 57.6107 83.1166 57.44V50.672C83.1166 50.4907 83.1646 50.352 83.2606 50.256C83.3673 50.16 83.506 50.112 83.6766 50.112H84.2526C84.434 50.112 84.5726 50.16 84.6686 50.256C84.7646 50.352 84.8126 50.4907 84.8126 50.672V57.44C84.8126 57.6107 84.7646 57.7493 84.6686 57.856C84.5726 57.952 84.434 58 84.2526 58H83.6766ZM92.4209 55.984C92.5595 55.8667 92.6929 55.808 92.8209 55.808C92.9489 55.808 93.0822 55.8773 93.2209 56.016L93.4449 56.256C93.5622 56.3947 93.6209 56.528 93.6209 56.656C93.6209 56.7947 93.5515 56.928 93.4129 57.056C92.9222 57.4827 92.4315 57.7867 91.9409 57.968C91.4609 58.1493 90.9275 58.24 90.3409 58.24C89.5195 58.24 88.8049 58.0693 88.1969 57.728C87.5995 57.3867 87.1355 56.9067 86.8049 56.288C86.4849 55.6587 86.3249 54.9333 86.3249 54.112C86.3249 53.3013 86.4795 52.576 86.7889 51.936C87.1089 51.2853 87.5569 50.7787 88.1329 50.416C88.7195 50.0533 89.4022 49.872 90.1809 49.872C91.3435 49.872 92.2395 50.2187 92.8689 50.912C93.4982 51.5947 93.8129 52.5387 93.8129 53.744V53.888C93.8022 54.0587 93.7489 54.192 93.6529 54.288C93.5569 54.384 93.4182 54.432 93.2369 54.432H87.9889C88.0529 55.136 88.2822 55.712 88.6769 56.16C89.0822 56.5973 89.6475 56.816 90.3729 56.816C90.7675 56.816 91.1142 56.7573 91.4129 56.64C91.7115 56.512 92.0475 56.2933 92.4209 55.984ZM90.1489 51.216C89.5622 51.216 89.0875 51.392 88.7249 51.744C88.3729 52.0853 88.1435 52.5707 88.0369 53.2H92.1489C92.1062 52.5813 91.9142 52.096 91.5729 51.744C91.2315 51.392 90.7569 51.216 90.1489 51.216ZM104.169 50.592C104.243 50.272 104.451 50.112 104.793 50.112H105.385C105.545 50.112 105.667 50.1493 105.753 50.224C105.849 50.288 105.897 50.3893 105.897 50.528C105.897 50.56 105.886 50.6293 105.865 50.736L103.961 57.52C103.886 57.84 103.678 58 103.337 58H102.297C101.977 58 101.769 57.84 101.673 57.52L101.145 55.664C100.91 54.8427 100.649 53.8133 100.361 52.576L100.281 52.224C99.9925 53.5253 99.7152 54.6773 99.4485 55.68L98.9525 57.52C98.8778 57.84 98.6698 58 98.3285 58H97.3045C96.9845 58 96.7765 57.84 96.6805 57.52L94.7605 50.736C94.7392 50.6293 94.7285 50.56 94.7285 50.528C94.7285 50.3893 94.7712 50.288 94.8565 50.224C94.9525 50.1493 95.0805 50.112 95.2405 50.112H95.8645C96.2058 50.112 96.4138 50.272 96.4885 50.592L97.0645 52.864C97.2885 53.696 97.5498 54.8053 97.8485 56.192L97.9125 56.512C98.2218 55.0827 98.5098 53.8667 98.7765 52.864L99.3845 50.592C99.4592 50.272 99.6672 50.112 100.009 50.112H100.617C100.958 50.112 101.166 50.272 101.241 50.592L101.865 52.864C102.163 53.9733 102.462 55.1893 102.76 56.512C102.985 55.3707 103.262 54.1547 103.593 52.864L104.169 50.592Z" fill="#0063FB"/>
<path d="M143.732 58.256C142.857 58.256 142.073 58.1333 141.38 57.888C140.697 57.632 139.993 57.2053 139.268 56.608C139.119 56.4907 139.044 56.352 139.044 56.192C139.044 56.0533 139.097 55.9253 139.204 55.808L139.572 55.376C139.689 55.2267 139.823 55.152 139.972 55.152C140.089 55.152 140.223 55.2107 140.372 55.328C141.012 55.84 141.583 56.192 142.084 56.384C142.596 56.576 143.156 56.672 143.764 56.672C144.5 56.672 145.097 56.5067 145.556 56.176C146.015 55.8347 146.244 55.3707 146.244 54.784C146.244 54.4 146.127 54.1013 145.892 53.888C145.657 53.664 145.353 53.4933 144.98 53.376C144.617 53.2587 144.025 53.104 143.204 52.912C142.212 52.6773 141.439 52.4213 140.884 52.144C140.329 51.8667 139.929 51.536 139.684 51.152C139.449 50.7573 139.332 50.2613 139.332 49.664C139.332 49.0347 139.513 48.4693 139.876 47.968C140.239 47.4667 140.735 47.0773 141.364 46.8C142.004 46.5227 142.719 46.384 143.508 46.384C144.308 46.384 145.012 46.4907 145.62 46.704C146.239 46.9173 146.857 47.264 147.476 47.744C147.636 47.872 147.716 48.0053 147.716 48.144C147.716 48.2613 147.663 48.3893 147.556 48.528L147.204 48.944C147.076 49.0933 146.943 49.168 146.804 49.168C146.676 49.168 146.543 49.1147 146.404 49.008C145.892 48.6133 145.417 48.3413 144.98 48.192C144.543 48.0427 144.047 47.968 143.492 47.968C142.788 47.968 142.217 48.1227 141.78 48.432C141.343 48.7413 141.124 49.1307 141.124 49.6C141.124 49.9413 141.225 50.2133 141.428 50.416C141.631 50.6187 141.924 50.784 142.308 50.912C142.692 51.04 143.284 51.1947 144.084 51.376C145.055 51.6107 145.823 51.8613 146.388 52.128C146.953 52.384 147.375 52.7147 147.652 53.12C147.929 53.5253 148.068 54.0427 148.068 54.672C148.068 55.376 147.887 56 147.524 56.544C147.161 57.088 146.655 57.5093 146.004 57.808C145.353 58.1067 144.596 58.256 143.732 58.256ZM153.84 49.904C154.512 49.904 155.109 50.0747 155.632 50.416C156.165 50.7573 156.581 51.2427 156.88 51.872C157.179 52.5013 157.328 53.2267 157.328 54.048C157.328 54.88 157.179 55.6107 156.88 56.24C156.581 56.8693 156.165 57.3547 155.632 57.696C155.099 58.0373 154.501 58.208 153.84 58.208C152.731 58.208 151.899 57.824 151.344 57.056V60.272C151.344 60.4533 151.296 60.592 151.2 60.688C151.104 60.784 150.965 60.832 150.784 60.832H150.208C150.037 60.832 149.899 60.784 149.792 60.688C149.696 60.592 149.648 60.4533 149.648 60.272V50.672C149.648 50.4907 149.696 50.352 149.792 50.256C149.899 50.16 150.037 50.112 150.208 50.112H150.672C150.853 50.112 150.992 50.16 151.088 50.256C151.184 50.352 151.232 50.4907 151.232 50.672V51.264C151.797 50.3573 152.667 49.904 153.84 49.904ZM153.488 56.736C154.128 56.736 154.64 56.496 155.024 56.016C155.408 55.5253 155.6 54.8693 155.6 54.048C155.6 53.2373 155.408 52.5867 155.024 52.096C154.651 51.6053 154.144 51.36 153.504 51.36C152.853 51.36 152.32 51.6 151.904 52.08C151.488 52.56 151.28 53.216 151.28 54.048C151.28 54.88 151.488 55.536 151.904 56.016C152.32 56.496 152.848 56.736 153.488 56.736ZM164.608 55.984C164.747 55.8667 164.88 55.808 165.008 55.808C165.136 55.808 165.27 55.8773 165.408 56.016L165.632 56.256C165.75 56.3947 165.808 56.528 165.808 56.656C165.808 56.7947 165.739 56.928 165.6 57.056C165.11 57.4827 164.619 57.7867 164.128 57.968C163.648 58.1493 163.115 58.24 162.528 58.24C161.707 58.24 160.992 58.0693 160.384 57.728C159.787 57.3867 159.323 56.9067 158.992 56.288C158.672 55.6587 158.512 54.9333 158.512 54.112C158.512 53.3013 158.667 52.576 158.976 51.936C159.296 51.2853 159.744 50.7787 160.32 50.416C160.907 50.0533 161.59 49.872 162.368 49.872C163.531 49.872 164.427 50.2187 165.056 50.912C165.686 51.5947 166 52.5387 166 53.744V53.888C165.99 54.0587 165.936 54.192 165.84 54.288C165.744 54.384 165.606 54.432 165.424 54.432H160.176C160.24 55.136 160.47 55.712 160.864 56.16C161.27 56.5973 161.835 56.816 162.56 56.816C162.955 56.816 163.302 56.7573 163.6 56.64C163.899 56.512 164.235 56.2933 164.608 55.984ZM162.336 51.216C161.75 51.216 161.275 51.392 160.912 51.744C160.56 52.0853 160.331 52.5707 160.224 53.2H164.336C164.294 52.5813 164.102 52.096 163.76 51.744C163.419 51.392 162.944 51.216 162.336 51.216ZM171.057 58.24C170.279 58.24 169.591 58.0693 168.993 57.728C168.407 57.3867 167.948 56.9013 167.617 56.272C167.297 55.632 167.137 54.8907 167.137 54.048C167.137 53.2053 167.303 52.4693 167.633 51.84C167.964 51.2107 168.428 50.7253 169.025 50.384C169.623 50.0427 170.311 49.872 171.089 49.872C171.655 49.872 172.161 49.9573 172.609 50.128C173.068 50.288 173.505 50.5653 173.921 50.96C174.049 51.088 174.113 51.2213 174.113 51.36C174.113 51.488 174.044 51.6213 173.905 51.76L173.633 52.032C173.516 52.1493 173.388 52.208 173.249 52.208C173.111 52.208 172.967 52.144 172.817 52.016C172.508 51.7493 172.215 51.568 171.937 51.472C171.671 51.3653 171.383 51.312 171.073 51.312C170.369 51.312 169.825 51.5733 169.441 52.096C169.057 52.6187 168.865 53.2693 168.865 54.048C168.865 54.8267 169.057 55.4827 169.441 56.016C169.825 56.5387 170.369 56.8 171.073 56.8C171.415 56.8 171.729 56.736 172.017 56.608C172.305 56.4693 172.615 56.24 172.945 55.92C173.084 55.7813 173.228 55.712 173.377 55.712C173.505 55.712 173.628 55.7653 173.745 55.872L174.017 56.096C174.156 56.2133 174.225 56.3467 174.225 56.496C174.225 56.656 174.145 56.8267 173.985 57.008C173.548 57.456 173.095 57.776 172.625 57.968C172.167 58.1493 171.644 58.24 171.057 58.24ZM178.688 58.24C178.037 58.24 177.456 58.16 176.944 58C176.443 57.8293 175.931 57.536 175.408 57.12C175.248 57.0027 175.168 56.8693 175.168 56.72C175.168 56.6027 175.227 56.4747 175.344 56.336L175.584 56.064C175.712 55.9147 175.851 55.84 176 55.84C176.117 55.84 176.245 55.8933 176.384 56C176.832 56.3307 177.227 56.56 177.568 56.688C177.909 56.8053 178.293 56.864 178.72 56.864C179.179 56.864 179.552 56.7733 179.84 56.592C180.139 56.4 180.288 56.144 180.288 55.824C180.288 55.5787 180.203 55.3867 180.032 55.248C179.872 55.0987 179.659 54.9867 179.392 54.912C179.125 54.8267 178.731 54.7307 178.208 54.624C177.472 54.464 176.896 54.2933 176.48 54.112C176.075 53.92 175.781 53.68 175.6 53.392C175.419 53.104 175.328 52.736 175.328 52.288C175.328 51.8293 175.456 51.4187 175.712 51.056C175.979 50.6933 176.347 50.4053 176.816 50.192C177.296 49.9787 177.856 49.872 178.496 49.872C179.072 49.872 179.584 49.936 180.032 50.064C180.491 50.192 180.939 50.4107 181.376 50.72C181.547 50.848 181.632 50.992 181.632 51.152C181.632 51.2587 181.579 51.3813 181.472 51.52L181.264 51.776C181.147 51.9253 181.003 52 180.832 52C180.704 52 180.581 51.9573 180.464 51.872C180.112 51.6373 179.787 51.4773 179.488 51.392C179.189 51.296 178.853 51.248 178.48 51.248C178.021 51.248 177.653 51.3387 177.376 51.52C177.099 51.7013 176.96 51.936 176.96 52.224C176.96 52.416 177.024 52.5707 177.152 52.688C177.291 52.7947 177.483 52.8907 177.728 52.976C177.984 53.0507 178.384 53.1467 178.928 53.264C179.664 53.424 180.245 53.6053 180.672 53.808C181.109 54 181.429 54.2507 181.632 54.56C181.845 54.8587 181.952 55.248 181.952 55.728C181.952 56.4747 181.653 57.0827 181.056 57.552C180.469 58.0107 179.68 58.24 178.688 58.24Z" fill="#5C5C66"/>
<path d="M224.452 57.328C224.527 57.4453 224.564 57.552 224.564 57.648C224.564 57.7547 224.521 57.84 224.436 57.904C224.351 57.968 224.233 58 224.084 58H223.284C222.985 58 222.761 57.8773 222.612 57.632L219.972 53.6H217.556V57.44C217.556 57.6107 217.508 57.7493 217.412 57.856C217.316 57.952 217.177 58 216.996 58H216.292C216.121 58 215.983 57.952 215.876 57.856C215.78 57.7493 215.732 57.6107 215.732 57.44V47.2C215.732 47.0187 215.78 46.88 215.876 46.784C215.983 46.688 216.121 46.64 216.292 46.64H220.772C221.487 46.64 222.127 46.784 222.692 47.072C223.257 47.3493 223.695 47.7547 224.004 48.288C224.324 48.8107 224.484 49.424 224.484 50.128C224.484 50.9813 224.249 51.7067 223.78 52.304C223.311 52.8907 222.681 53.28 221.892 53.472L224.452 57.328ZM217.556 52.08H220.468C221.151 52.08 221.689 51.9147 222.084 51.584C222.489 51.2427 222.692 50.7573 222.692 50.128C222.692 49.488 222.489 49.0027 222.084 48.672C221.689 48.3307 221.151 48.16 220.468 48.16H217.556V52.08ZM231.64 55.984C231.778 55.8667 231.912 55.808 232.04 55.808C232.168 55.808 232.301 55.8773 232.44 56.016L232.664 56.256C232.781 56.3947 232.84 56.528 232.84 56.656C232.84 56.7947 232.77 56.928 232.632 57.056C232.141 57.4827 231.65 57.7867 231.16 57.968C230.68 58.1493 230.146 58.24 229.56 58.24C228.738 58.24 228.024 58.0693 227.416 57.728C226.818 57.3867 226.354 56.9067 226.024 56.288C225.704 55.6587 225.544 54.9333 225.544 54.112C225.544 53.3013 225.698 52.576 226.008 51.936C226.328 51.2853 226.776 50.7787 227.352 50.416C227.938 50.0533 228.621 49.872 229.4 49.872C230.562 49.872 231.458 50.2187 232.088 50.912C232.717 51.5947 233.032 52.5387 233.032 53.744V53.888C233.021 54.0587 232.968 54.192 232.872 54.288C232.776 54.384 232.637 54.432 232.456 54.432H227.208C227.272 55.136 227.501 55.712 227.896 56.16C228.301 56.5973 228.866 56.816 229.592 56.816C229.986 56.816 230.333 56.7573 230.632 56.64C230.93 56.512 231.266 56.2933 231.64 55.984ZM229.368 51.216C228.781 51.216 228.306 51.392 227.944 51.744C227.592 52.0853 227.362 52.5707 227.256 53.2H231.368C231.325 52.5813 231.133 52.096 230.792 51.744C230.45 51.392 229.976 51.216 229.368 51.216ZM239.386 50.576C239.482 50.2667 239.69 50.112 240.01 50.112H240.602C240.932 50.112 241.098 50.2453 241.098 50.512C241.098 50.5867 241.082 50.6667 241.05 50.752L238.73 57.552C238.634 57.8507 238.42 58 238.09 58H236.954C236.623 58 236.41 57.8507 236.314 57.552L233.994 50.752C233.962 50.6667 233.946 50.5867 233.946 50.512C233.946 50.2453 234.111 50.112 234.442 50.112H235.082C235.402 50.112 235.61 50.2667 235.706 50.576L236.442 52.864C236.922 54.4 237.29 55.648 237.546 56.608C237.887 55.3387 238.255 54.0907 238.65 52.864L239.386 50.576ZM243.309 48.576C242.999 48.576 242.738 48.4747 242.525 48.272C242.311 48.0587 242.205 47.808 242.205 47.52C242.205 47.2213 242.311 46.9707 242.525 46.768C242.738 46.5653 242.999 46.464 243.309 46.464C243.618 46.464 243.879 46.5653 244.093 46.768C244.306 46.9707 244.413 47.2213 244.413 47.52C244.413 47.808 244.306 48.0587 244.093 48.272C243.879 48.4747 243.618 48.576 243.309 48.576ZM243.005 58C242.834 58 242.695 57.952 242.589 57.856C242.493 57.7493 242.445 57.6107 242.445 57.44V50.672C242.445 50.4907 242.493 50.352 242.589 50.256C242.695 50.16 242.834 50.112 243.005 50.112H243.581C243.762 50.112 243.901 50.16 243.997 50.256C244.093 50.352 244.141 50.4907 244.141 50.672V57.44C244.141 57.6107 244.093 57.7493 243.997 57.856C243.901 57.952 243.762 58 243.581 58H243.005ZM251.749 55.984C251.888 55.8667 252.021 55.808 252.149 55.808C252.277 55.808 252.41 55.8773 252.549 56.016L252.773 56.256C252.89 56.3947 252.949 56.528 252.949 56.656C252.949 56.7947 252.88 56.928 252.741 57.056C252.25 57.4827 251.76 57.7867 251.269 57.968C250.789 58.1493 250.256 58.24 249.669 58.24C248.848 58.24 248.133 58.0693 247.525 57.728C246.928 57.3867 246.464 56.9067 246.133 56.288C245.813 55.6587 245.653 54.9333 245.653 54.112C245.653 53.3013 245.808 52.576 246.117 51.936C246.437 51.2853 246.885 50.7787 247.461 50.416C248.048 50.0533 248.73 49.872 249.509 49.872C250.672 49.872 251.568 50.2187 252.197 50.912C252.826 51.5947 253.141 52.5387 253.141 53.744V53.888C253.13 54.0587 253.077 54.192 252.981 54.288C252.885 54.384 252.746 54.432 252.565 54.432H247.317C247.381 55.136 247.61 55.712 248.005 56.16C248.41 56.5973 248.976 56.816 249.701 56.816C250.096 56.816 250.442 56.7573 250.741 56.64C251.04 56.512 251.376 56.2933 251.749 55.984ZM249.477 51.216C248.89 51.216 248.416 51.392 248.053 51.744C247.701 52.0853 247.472 52.5707 247.365 53.2H251.477C251.434 52.5813 251.242 52.096 250.901 51.744C250.56 51.392 250.085 51.216 249.477 51.216ZM263.497 50.592C263.571 50.272 263.779 50.112 264.121 50.112H264.713C264.873 50.112 264.995 50.1493 265.081 50.224C265.177 50.288 265.225 50.3893 265.225 50.528C265.225 50.56 265.214 50.6293 265.193 50.736L263.289 57.52C263.214 57.84 263.006 58 262.665 58H261.625C261.305 58 261.097 57.84 261.001 57.52L260.473 55.664C260.238 54.8427 259.977 53.8133 259.689 52.576L259.609 52.224C259.321 53.5253 259.043 54.6773 258.777 55.68L258.281 57.52C258.206 57.84 257.998 58 257.657 58H256.633C256.313 58 256.105 57.84 256.009 57.52L254.089 50.736C254.067 50.6293 254.057 50.56 254.057 50.528C254.057 50.3893 254.099 50.288 254.185 50.224C254.281 50.1493 254.409 50.112 254.569 50.112H255.193C255.534 50.112 255.742 50.272 255.817 50.592L256.393 52.864C256.617 53.696 256.878 54.8053 257.177 56.192L257.241 56.512C257.55 55.0827 257.838 53.8667 258.105 52.864L258.713 50.592C258.787 50.272 258.995 50.112 259.337 50.112H259.945C260.286 50.112 260.494 50.272 260.569 50.592L261.193 52.864C261.491 53.9733 261.79 55.1893 262.089 56.512C262.313 55.3707 262.59 54.1547 262.921 52.864L263.497 50.592ZM269.672 58.24C269.022 58.24 268.44 58.16 267.928 58C267.427 57.8293 266.915 57.536 266.392 57.12C266.232 57.0027 266.152 56.8693 266.152 56.72C266.152 56.6027 266.211 56.4747 266.328 56.336L266.568 56.064C266.696 55.9147 266.835 55.84 266.984 55.84C267.102 55.84 267.23 55.8933 267.368 56C267.816 56.3307 268.211 56.56 268.552 56.688C268.894 56.8053 269.278 56.864 269.704 56.864C270.163 56.864 270.536 56.7733 270.824 56.592C271.123 56.4 271.272 56.144 271.272 55.824C271.272 55.5787 271.187 55.3867 271.016 55.248C270.856 55.0987 270.643 54.9867 270.376 54.912C270.11 54.8267 269.715 54.7307 269.192 54.624C268.456 54.464 267.88 54.2933 267.464 54.112C267.059 53.92 266.766 53.68 266.584 53.392C266.403 53.104 266.312 52.736 266.312 52.288C266.312 51.8293 266.44 51.4187 266.696 51.056C266.963 50.6933 267.331 50.4053 267.8 50.192C268.28 49.9787 268.84 49.872 269.48 49.872C270.056 49.872 270.568 49.936 271.016 50.064C271.475 50.192 271.923 50.4107 272.36 50.72C272.531 50.848 272.616 50.992 272.616 51.152C272.616 51.2587 272.563 51.3813 272.456 51.52L272.248 51.776C272.131 51.9253 271.987 52 271.816 52C271.688 52 271.566 51.9573 271.448 51.872C271.096 51.6373 270.771 51.4773 270.472 51.392C270.174 51.296 269.838 51.248 269.464 51.248C269.006 51.248 268.638 51.3387 268.36 51.52C268.083 51.7013 267.944 51.936 267.944 52.224C267.944 52.416 268.008 52.5707 268.136 52.688C268.275 52.7947 268.467 52.8907 268.712 52.976C268.968 53.0507 269.368 53.1467 269.912 53.264C270.648 53.424 271.23 53.6053 271.656 53.808C272.094 54 272.414 54.2507 272.616 54.56C272.83 54.8587 272.936 55.248 272.936 55.728C272.936 56.4747 272.638 57.0827 272.04 57.552C271.454 58.0107 270.664 58.24 269.672 58.24Z" fill="#5C5C66"/>
<mask id="path-8-inside-3_6035_3337" fill="white">
<path d="M23.5 70H308.5V104H23.5V70Z"/>
</mask>
<path d="M308.5 104V103H23.5V104V105H308.5V104Z" fill="#DEDEE3" mask="url(#path-8-inside-3_6035_3337)"/>
<path d="M41.292 92C41.1213 92 40.9827 91.952 40.876 91.856C40.78 91.7493 40.732 91.6107 40.732 91.44V81.2C40.732 81.0187 40.78 80.88 40.876 80.784C40.9827 80.688 41.1213 80.64 41.292 80.64H41.996C42.1773 80.64 42.316 80.688 42.412 80.784C42.508 80.88 42.556 81.0187 42.556 81.2V85.312H48.188V81.2C48.188 81.0187 48.236 80.88 48.332 80.784C48.4387 80.688 48.5773 80.64 48.748 80.64H49.468C49.6493 80.64 49.788 80.688 49.884 80.784C49.98 80.88 50.028 81.0187 50.028 81.2V91.44C50.028 91.6107 49.98 91.7493 49.884 91.856C49.788 91.952 49.6493 92 49.468 92H48.748C48.5773 92 48.4387 91.952 48.332 91.856C48.236 91.7493 48.188 91.6107 48.188 91.44V86.848H42.556V91.44C42.556 91.6107 42.508 91.7493 42.412 91.856C42.316 91.952 42.1773 92 41.996 92H41.292ZM57.8896 89.984C58.0283 89.8667 58.1616 89.808 58.2896 89.808C58.4176 89.808 58.551 89.8773 58.6896 90.016L58.9136 90.256C59.031 90.3947 59.0896 90.528 59.0896 90.656C59.0896 90.7947 59.0203 90.928 58.8816 91.056C58.391 91.4827 57.9003 91.7867 57.4096 91.968C56.9296 92.1493 56.3963 92.24 55.8096 92.24C54.9883 92.24 54.2736 92.0693 53.6656 91.728C53.0683 91.3867 52.6043 90.9067 52.2736 90.288C51.9536 89.6587 51.7936 88.9333 51.7936 88.112C51.7936 87.3013 51.9483 86.576 52.2576 85.936C52.5776 85.2853 53.0256 84.7787 53.6016 84.416C54.1883 84.0533 54.871 83.872 55.6496 83.872C56.8123 83.872 57.7083 84.2187 58.3376 84.912C58.967 85.5947 59.2816 86.5387 59.2816 87.744V87.888C59.271 88.0587 59.2176 88.192 59.1216 88.288C59.0256 88.384 58.887 88.432 58.7056 88.432H53.4576C53.5216 89.136 53.751 89.712 54.1456 90.16C54.551 90.5973 55.1163 90.816 55.8416 90.816C56.2363 90.816 56.583 90.7573 56.8816 90.64C57.1803 90.512 57.5163 90.2933 57.8896 89.984ZM55.6176 85.216C55.031 85.216 54.5563 85.392 54.1936 85.744C53.8416 86.0853 53.6123 86.5707 53.5056 87.2H57.6176C57.575 86.5813 57.383 86.096 57.0416 85.744C56.7003 85.392 56.2256 85.216 55.6176 85.216ZM61.4594 92C61.2887 92 61.15 91.952 61.0434 91.856C60.9474 91.7493 60.8994 91.6107 60.8994 91.44V81.2C60.8994 81.0187 60.9474 80.88 61.0434 80.784C61.15 80.688 61.2887 80.64 61.4594 80.64H62.0354C62.2167 80.64 62.3554 80.688 62.4514 80.784C62.5474 80.88 62.5954 81.0187 62.5954 81.2V91.44C62.5954 91.6107 62.5474 91.7493 62.4514 91.856C62.3554 91.952 62.2167 92 62.0354 92H61.4594ZM68.8086 83.904C69.4806 83.904 70.078 84.0747 70.6006 84.416C71.134 84.7573 71.55 85.2427 71.8486 85.872C72.1473 86.5013 72.2966 87.2267 72.2966 88.048C72.2966 88.88 72.1473 89.6107 71.8486 90.24C71.55 90.8693 71.134 91.3547 70.6006 91.696C70.0673 92.0373 69.47 92.208 68.8086 92.208C67.6993 92.208 66.8673 91.824 66.3126 91.056V94.272C66.3126 94.4533 66.2646 94.592 66.1686 94.688C66.0726 94.784 65.934 94.832 65.7526 94.832H65.1766C65.006 94.832 64.8673 94.784 64.7606 94.688C64.6646 94.592 64.6166 94.4533 64.6166 94.272V84.672C64.6166 84.4907 64.6646 84.352 64.7606 84.256C64.8673 84.16 65.006 84.112 65.1766 84.112H65.6406C65.822 84.112 65.9606 84.16 66.0566 84.256C66.1526 84.352 66.2006 84.4907 66.2006 84.672V85.264C66.766 84.3573 67.6353 83.904 68.8086 83.904ZM68.4566 90.736C69.0966 90.736 69.6086 90.496 69.9926 90.016C70.3766 89.5253 70.5686 88.8693 70.5686 88.048C70.5686 87.2373 70.3766 86.5867 69.9926 86.096C69.6193 85.6053 69.1126 85.36 68.4726 85.36C67.822 85.36 67.2886 85.6 66.8726 86.08C66.4566 86.56 66.2486 87.216 66.2486 88.048C66.2486 88.88 66.4566 89.536 66.8726 90.016C67.2886 90.496 67.8166 90.736 68.4566 90.736Z" fill="#5C5C66"/>
<path d="M115.452 91.328C115.527 91.4453 115.564 91.552 115.564 91.648C115.564 91.7547 115.521 91.84 115.436 91.904C115.351 91.968 115.233 92 115.084 92H114.284C113.985 92 113.761 91.8773 113.612 91.632L110.972 87.6H108.556V91.44C108.556 91.6107 108.508 91.7493 108.412 91.856C108.316 91.952 108.177 92 107.996 92H107.292C107.121 92 106.983 91.952 106.876 91.856C106.78 91.7493 106.732 91.6107 106.732 91.44V81.2C106.732 81.0187 106.78 80.88 106.876 80.784C106.983 80.688 107.121 80.64 107.292 80.64H111.772C112.487 80.64 113.127 80.784 113.692 81.072C114.257 81.3493 114.695 81.7547 115.004 82.288C115.324 82.8107 115.484 83.424 115.484 84.128C115.484 84.9813 115.249 85.7067 114.78 86.304C114.311 86.8907 113.681 87.28 112.892 87.472L115.452 91.328ZM108.556 86.08H111.468C112.151 86.08 112.689 85.9147 113.084 85.584C113.489 85.2427 113.692 84.7573 113.692 84.128C113.692 83.488 113.489 83.0027 113.084 82.672C112.689 82.3307 112.151 82.16 111.468 82.16H108.556V86.08ZM122.64 89.984C122.778 89.8667 122.912 89.808 123.04 89.808C123.168 89.808 123.301 89.8773 123.44 90.016L123.664 90.256C123.781 90.3947 123.84 90.528 123.84 90.656C123.84 90.7947 123.77 90.928 123.632 91.056C123.141 91.4827 122.65 91.7867 122.16 91.968C121.68 92.1493 121.146 92.24 120.56 92.24C119.738 92.24 119.024 92.0693 118.416 91.728C117.818 91.3867 117.354 90.9067 117.024 90.288C116.704 89.6587 116.544 88.9333 116.544 88.112C116.544 87.3013 116.698 86.576 117.008 85.936C117.328 85.2853 117.776 84.7787 118.352 84.416C118.938 84.0533 119.621 83.872 120.4 83.872C121.562 83.872 122.458 84.2187 123.088 84.912C123.717 85.5947 124.032 86.5387 124.032 87.744V87.888C124.021 88.0587 123.968 88.192 123.872 88.288C123.776 88.384 123.637 88.432 123.456 88.432H118.208C118.272 89.136 118.501 89.712 118.896 90.16C119.301 90.5973 119.866 90.816 120.592 90.816C120.986 90.816 121.333 90.7573 121.632 90.64C121.93 90.512 122.266 90.2933 122.64 89.984ZM120.368 85.216C119.781 85.216 119.306 85.392 118.944 85.744C118.592 86.0853 118.362 86.5707 118.256 87.2H122.368C122.325 86.5813 122.133 86.096 121.792 85.744C121.45 85.392 120.976 85.216 120.368 85.216ZM129.3 90.656C129.332 90.6453 129.38 90.64 129.444 90.64C129.71 90.64 129.87 90.7947 129.924 91.104L129.972 91.36C129.982 91.392 129.988 91.4453 129.988 91.52C129.988 91.7867 129.838 91.9573 129.54 92.032C129.113 92.128 128.724 92.176 128.372 92.176C127.614 92.176 127.065 92 126.724 91.648C126.393 91.296 126.228 90.768 126.228 90.064V85.408H125.348C125.177 85.408 125.038 85.36 124.932 85.264C124.836 85.1573 124.788 85.0187 124.788 84.848V84.672C124.788 84.4907 124.836 84.352 124.932 84.256C125.038 84.16 125.177 84.112 125.348 84.112H126.228V82.128C126.228 81.9467 126.276 81.808 126.372 81.712C126.478 81.616 126.617 81.568 126.788 81.568H127.364C127.545 81.568 127.684 81.616 127.78 81.712C127.876 81.808 127.924 81.9467 127.924 82.128V84.112H129.364C129.545 84.112 129.684 84.16 129.78 84.256C129.876 84.352 129.924 84.4907 129.924 84.672V84.848C129.924 85.0187 129.876 85.1573 129.78 85.264C129.684 85.36 129.545 85.408 129.364 85.408H127.924V89.856C127.924 90.1653 127.988 90.384 128.116 90.512C128.254 90.64 128.473 90.704 128.772 90.704C128.9 90.704 129.076 90.688 129.3 90.656ZM136.297 84.672C136.297 84.4907 136.345 84.352 136.441 84.256C136.547 84.16 136.686 84.112 136.857 84.112H137.433C137.614 84.112 137.753 84.16 137.849 84.256C137.945 84.352 137.993 84.4907 137.993 84.672V91.44C137.993 91.6107 137.945 91.7493 137.849 91.856C137.753 91.952 137.614 92 137.433 92H137.001C136.83 92 136.691 91.952 136.585 91.856C136.489 91.7493 136.441 91.6107 136.441 91.44V91.072C136.227 91.4347 135.918 91.7227 135.513 91.936C135.107 92.1387 134.627 92.24 134.073 92.24C133.134 92.24 132.435 92.0107 131.977 91.552C131.518 91.0827 131.289 90.464 131.289 89.696V84.672C131.289 84.4907 131.337 84.352 131.433 84.256C131.539 84.16 131.678 84.112 131.849 84.112H132.424C132.606 84.112 132.745 84.16 132.841 84.256C132.937 84.352 132.985 84.4907 132.985 84.672V89.248C132.985 89.7387 133.107 90.1173 133.353 90.384C133.609 90.64 133.977 90.768 134.457 90.768C135.011 90.768 135.454 90.608 135.785 90.288C136.126 89.968 136.297 89.504 136.297 88.896V84.672ZM143.497 84.032C143.731 84.032 143.971 84.0587 144.217 84.112C144.505 84.176 144.649 84.3467 144.649 84.624C144.649 84.6987 144.643 84.752 144.633 84.784L144.553 85.168C144.489 85.4667 144.329 85.616 144.073 85.616L143.929 85.6C143.737 85.568 143.566 85.552 143.417 85.552C142.883 85.552 142.451 85.7653 142.121 86.192C141.801 86.608 141.641 87.1893 141.641 87.936V91.44C141.641 91.6107 141.593 91.7493 141.497 91.856C141.401 91.952 141.262 92 141.081 92H140.505C140.334 92 140.195 91.952 140.089 91.856C139.993 91.7493 139.945 91.6107 139.945 91.44V84.672C139.945 84.4907 139.993 84.352 140.089 84.256C140.195 84.16 140.334 84.112 140.505 84.112H140.969C141.15 84.112 141.289 84.16 141.385 84.256C141.481 84.352 141.529 84.4907 141.529 84.672V85.296C141.721 84.9013 141.982 84.592 142.313 84.368C142.643 84.144 143.038 84.032 143.497 84.032ZM149.898 83.872C150.805 83.872 151.498 84.128 151.978 84.64C152.469 85.1413 152.714 85.792 152.714 86.592V91.44C152.714 91.6107 152.666 91.7493 152.57 91.856C152.474 91.952 152.336 92 152.154 92H151.578C151.408 92 151.269 91.952 151.162 91.856C151.066 91.7493 151.018 91.6107 151.018 91.44V87.12C151.018 86.544 150.874 86.1013 150.586 85.792C150.309 85.4827 149.909 85.328 149.386 85.328C148.874 85.328 148.442 85.504 148.09 85.856C147.749 86.208 147.578 86.6507 147.578 87.184V91.44C147.578 91.6107 147.53 91.7493 147.434 91.856C147.338 91.952 147.2 92 147.018 92H146.442C146.272 92 146.133 91.952 146.026 91.856C145.93 91.7493 145.882 91.6107 145.882 91.44V84.672C145.882 84.4907 145.93 84.352 146.026 84.256C146.133 84.16 146.272 84.112 146.442 84.112H146.906C147.088 84.112 147.226 84.16 147.322 84.256C147.418 84.352 147.466 84.4907 147.466 84.672V85.088C147.722 84.6933 148.058 84.3947 148.474 84.192C148.89 83.9787 149.365 83.872 149.898 83.872ZM157.704 92.24C157.053 92.24 156.472 92.16 155.96 92C155.458 91.8293 154.946 91.536 154.424 91.12C154.264 91.0027 154.184 90.8693 154.184 90.72C154.184 90.6027 154.242 90.4747 154.36 90.336L154.6 90.064C154.728 89.9147 154.866 89.84 155.016 89.84C155.133 89.84 155.261 89.8933 155.4 90C155.848 90.3307 156.242 90.56 156.584 90.688C156.925 90.8053 157.309 90.864 157.736 90.864C158.194 90.864 158.568 90.7733 158.856 90.592C159.154 90.4 159.304 90.144 159.304 89.824C159.304 89.5787 159.218 89.3867 159.048 89.248C158.888 89.0987 158.674 88.9867 158.408 88.912C158.141 88.8267 157.746 88.7307 157.224 88.624C156.488 88.464 155.912 88.2933 155.496 88.112C155.09 87.92 154.797 87.68 154.616 87.392C154.434 87.104 154.344 86.736 154.344 86.288C154.344 85.8293 154.472 85.4187 154.728 85.056C154.994 84.6933 155.362 84.4053 155.832 84.192C156.312 83.9787 156.872 83.872 157.512 83.872C158.088 83.872 158.6 83.936 159.048 84.064C159.506 84.192 159.954 84.4107 160.392 84.72C160.562 84.848 160.648 84.992 160.648 85.152C160.648 85.2587 160.594 85.3813 160.488 85.52L160.28 85.776C160.162 85.9253 160.018 86 159.848 86C159.72 86 159.597 85.9573 159.48 85.872C159.128 85.6373 158.802 85.4773 158.504 85.392C158.205 85.296 157.869 85.248 157.496 85.248C157.037 85.248 156.669 85.3387 156.392 85.52C156.114 85.7013 155.976 85.936 155.976 86.224C155.976 86.416 156.04 86.5707 156.168 86.688C156.306 86.7947 156.498 86.8907 156.744 86.976C157 87.0507 157.4 87.1467 157.944 87.264C158.68 87.424 159.261 87.6053 159.688 87.808C160.125 88 160.445 88.2507 160.648 88.56C160.861 88.8587 160.968 89.248 160.968 89.728C160.968 90.4747 160.669 91.0827 160.072 91.552C159.485 92.0107 158.696 92.24 157.704 92.24Z" fill="#5C5C66"/>
<path d="M23.5 104H308.5V180C308.5 182.209 306.709 184 304.5 184H27.5C25.2909 184 23.5 182.209 23.5 180V104Z" fill="white"/>
<rect x="39.5" y="120" width="253" height="8" rx="4" fill="#F0F0F2"/>
<rect x="39.5" y="136" width="191" height="8" rx="4" fill="#F0F0F2"/>
<rect x="39.5" y="152" width="159" height="8" rx="4" fill="#F0F0F2"/>
</svg>
