<svg width="688" height="368" viewBox="0 0 688 368" fill="none" xmlns="http://www.w3.org/2000/svg">
<rect width="688" height="368" rx="10" fill="#FAFAFA"/>
<rect x="224.5" y="206.5" width="119" height="47" rx="3.5" fill="white"/>
<rect x="224.5" y="206.5" width="119" height="47" rx="3.5" stroke="#84848F"/>
<g clip-path="url(#clip0_5483_11813)">
<path d="M236.608 228.248C237.739 228.248 238.656 228.536 239.36 229.112C240.064 229.688 240.416 230.509 240.416 231.576C240.416 232.173 240.267 232.755 239.968 233.32C239.68 233.885 239.248 234.349 238.672 234.712C238.096 235.064 237.403 235.24 236.592 235.24C235.92 235.24 235.275 235.144 234.656 234.952C234.048 234.749 233.424 234.445 232.784 234.04C232.677 233.976 232.624 233.891 232.624 233.784C232.624 233.709 232.645 233.645 232.688 233.592L232.896 233.304C232.96 233.208 233.04 233.16 233.136 233.16C233.221 233.16 233.291 233.181 233.344 233.224C233.973 233.619 234.528 233.901 235.008 234.072C235.499 234.232 236.016 234.312 236.56 234.312C237.115 234.312 237.6 234.195 238.016 233.96C238.432 233.715 238.752 233.389 238.976 232.984C239.211 232.568 239.328 232.104 239.328 231.592C239.328 230.824 239.083 230.221 238.592 229.784C238.101 229.347 237.371 229.128 236.4 229.128C235.995 229.128 235.637 229.171 235.328 229.256C235.296 229.267 235.253 229.272 235.2 229.272C235.083 229.272 234.987 229.219 234.912 229.112L234.736 228.872C234.683 228.787 234.656 228.712 234.656 228.648C234.656 228.563 234.693 228.488 234.768 228.424L238.8 224.568H233.392C233.179 224.568 233.072 224.461 233.072 224.248V223.96C233.072 223.747 233.179 223.64 233.392 223.64H239.824C240.037 223.64 240.144 223.747 240.144 223.96V224.312C240.144 224.461 240.085 224.595 239.968 224.712L236.224 228.264L236.608 228.248ZM246.336 227.672C247.072 227.672 247.717 227.827 248.272 228.136C248.837 228.435 249.274 228.861 249.584 229.416C249.893 229.971 250.048 230.611 250.048 231.336C250.048 231.987 249.893 232.611 249.584 233.208C249.274 233.805 248.826 234.291 248.24 234.664C247.653 235.037 246.965 235.224 246.176 235.224C245.408 235.224 244.741 235.128 244.176 234.936C243.621 234.744 242.992 234.413 242.288 233.944C242.181 233.88 242.128 233.795 242.128 233.688C242.128 233.613 242.149 233.549 242.192 233.496L242.4 233.208C242.464 233.112 242.538 233.064 242.624 233.064C242.688 233.064 242.762 233.091 242.848 233.144C243.498 233.581 244.053 233.885 244.512 234.056C244.981 234.227 245.498 234.312 246.064 234.312C246.661 234.312 247.178 234.179 247.616 233.912C248.053 233.635 248.384 233.272 248.608 232.824C248.842 232.365 248.96 231.869 248.96 231.336C248.96 230.483 248.72 229.816 248.24 229.336C247.77 228.856 247.093 228.616 246.208 228.616C245.258 228.616 244.464 228.904 243.824 229.48C243.706 229.587 243.568 229.629 243.408 229.608L243.056 229.56C242.96 229.549 242.885 229.512 242.832 229.448C242.778 229.384 242.757 229.304 242.768 229.208L243.2 223.944C243.21 223.848 243.242 223.773 243.296 223.72C243.36 223.667 243.44 223.64 243.536 223.64H249.232C249.445 223.64 249.552 223.747 249.552 223.96V224.248C249.552 224.461 249.445 224.568 249.232 224.568H244.144L243.808 228.504C244.106 228.259 244.469 228.061 244.896 227.912C245.333 227.752 245.813 227.672 246.336 227.672ZM255.738 235.24C254.991 235.24 254.335 235.059 253.77 234.696C253.215 234.333 252.772 233.827 252.442 233.176C251.919 232.141 251.658 230.856 251.658 229.32C251.658 227.773 251.919 226.483 252.442 225.448C252.772 224.797 253.215 224.296 253.77 223.944C254.335 223.581 254.991 223.4 255.738 223.4C256.484 223.4 257.135 223.581 257.69 223.944C258.255 224.296 258.703 224.797 259.034 225.448C259.556 226.483 259.818 227.773 259.818 229.32C259.818 230.856 259.556 232.141 259.034 233.176C258.703 233.827 258.255 234.333 257.69 234.696C257.135 235.059 256.484 235.24 255.738 235.24ZM255.738 234.312C256.783 234.312 257.567 233.768 258.09 232.68C258.506 231.795 258.714 230.675 258.714 229.32C258.714 227.944 258.506 226.819 258.09 225.944C257.578 224.867 256.794 224.328 255.738 224.328C254.682 224.328 253.898 224.867 253.386 225.944C252.97 226.819 252.762 227.944 252.762 229.32C252.762 230.685 252.97 231.805 253.386 232.68C253.908 233.768 254.692 234.312 255.738 234.312Z" fill="#1B1B1F"/>
<path d="M325.16 234C325.04 234 324.944 233.948 324.872 233.844L322.844 230.892L321.68 232.08V233.76C321.68 233.92 321.6 234 321.44 234H321.128C320.968 234 320.888 233.92 320.888 233.76V225.72C320.888 225.56 320.968 225.48 321.128 225.48H321.44C321.6 225.48 321.68 225.56 321.68 225.72V231.18L324.56 228.192C324.632 228.112 324.732 228.072 324.86 228.072H325.196C325.26 228.072 325.308 228.088 325.34 228.12C325.38 228.144 325.4 228.176 325.4 228.216C325.4 228.256 325.376 228.308 325.328 228.372L323.396 230.388L325.664 233.712C325.696 233.768 325.712 233.816 325.712 233.856C325.712 233.952 325.648 234 325.52 234H325.16ZM332.877 227.94C333.517 227.94 334.005 228.124 334.341 228.492C334.685 228.852 334.857 229.316 334.857 229.884V233.76C334.857 233.92 334.777 234 334.617 234H334.305C334.145 234 334.065 233.92 334.065 233.76V230.1C334.065 229.62 333.953 229.252 333.729 228.996C333.513 228.74 333.189 228.612 332.757 228.612C332.301 228.612 331.937 228.764 331.665 229.068C331.393 229.372 331.257 229.764 331.257 230.244V233.76C331.257 233.92 331.177 234 331.017 234H330.705C330.545 234 330.465 233.92 330.465 233.76V230.1C330.465 229.62 330.353 229.252 330.129 228.996C329.913 228.74 329.585 228.612 329.145 228.612C328.737 228.612 328.397 228.74 328.125 228.996C327.861 229.252 327.705 229.588 327.657 230.004V233.76C327.657 233.92 327.577 234 327.417 234H327.105C326.945 234 326.865 233.92 326.865 233.76V228.324C326.865 228.164 326.945 228.084 327.105 228.084H327.369C327.529 228.084 327.609 228.164 327.609 228.324V228.816C327.969 228.232 328.541 227.94 329.325 227.94C329.733 227.94 330.081 228.032 330.369 228.216C330.665 228.392 330.885 228.632 331.029 228.936C331.453 228.272 332.069 227.94 332.877 227.94Z" fill="#5C5C66"/>
</g>
<path d="M228.2 190.21C227.547 190.21 226.973 190.051 226.478 189.734C225.993 189.417 225.605 188.973 225.316 188.404C224.859 187.499 224.63 186.374 224.63 185.03C224.63 183.677 224.859 182.547 225.316 181.642C225.605 181.073 225.993 180.634 226.478 180.326C226.973 180.009 227.547 179.85 228.2 179.85C228.853 179.85 229.423 180.009 229.908 180.326C230.403 180.634 230.795 181.073 231.084 181.642C231.541 182.547 231.77 183.677 231.77 185.03C231.77 186.374 231.541 187.499 231.084 188.404C230.795 188.973 230.403 189.417 229.908 189.734C229.423 190.051 228.853 190.21 228.2 190.21ZM228.2 189.398C229.115 189.398 229.801 188.922 230.258 187.97C230.622 187.195 230.804 186.215 230.804 185.03C230.804 183.826 230.622 182.841 230.258 182.076C229.81 181.133 229.124 180.662 228.2 180.662C227.276 180.662 226.59 181.133 226.142 182.076C225.778 182.841 225.596 183.826 225.596 185.03C225.596 186.225 225.778 187.205 226.142 187.97C226.599 188.922 227.285 189.398 228.2 189.398Z" fill="#5C5C66"/>
<path d="M442.993 183.588C443.637 183.588 444.202 183.723 444.687 183.994C445.182 184.255 445.564 184.629 445.835 185.114C446.106 185.599 446.241 186.159 446.241 186.794C446.241 187.363 446.106 187.909 445.835 188.432C445.564 188.955 445.172 189.379 444.659 189.706C444.146 190.033 443.544 190.196 442.853 190.196C442.181 190.196 441.598 190.112 441.103 189.944C440.618 189.776 440.067 189.487 439.451 189.076C439.358 189.02 439.311 188.945 439.311 188.852C439.311 188.787 439.33 188.731 439.367 188.684L439.549 188.432C439.605 188.348 439.67 188.306 439.745 188.306C439.801 188.306 439.866 188.329 439.941 188.376C440.51 188.759 440.996 189.025 441.397 189.174C441.808 189.323 442.26 189.398 442.755 189.398C443.278 189.398 443.73 189.281 444.113 189.048C444.496 188.805 444.785 188.488 444.981 188.096C445.186 187.695 445.289 187.261 445.289 186.794C445.289 186.047 445.079 185.464 444.659 185.044C444.248 184.624 443.656 184.414 442.881 184.414C442.05 184.414 441.355 184.666 440.795 185.17C440.692 185.263 440.571 185.301 440.431 185.282L440.123 185.24C440.039 185.231 439.974 185.198 439.927 185.142C439.88 185.086 439.862 185.016 439.871 184.932L440.249 180.326C440.258 180.242 440.286 180.177 440.333 180.13C440.389 180.083 440.459 180.06 440.543 180.06H445.527C445.714 180.06 445.807 180.153 445.807 180.34V180.592C445.807 180.779 445.714 180.872 445.527 180.872H441.075L440.781 184.316C441.042 184.101 441.36 183.929 441.733 183.798C442.116 183.658 442.536 183.588 442.993 183.588ZM451.22 190.21C450.566 190.21 449.992 190.051 449.498 189.734C449.012 189.417 448.625 188.973 448.336 188.404C447.878 187.499 447.65 186.374 447.65 185.03C447.65 183.677 447.878 182.547 448.336 181.642C448.625 181.073 449.012 180.634 449.498 180.326C449.992 180.009 450.566 179.85 451.22 179.85C451.873 179.85 452.442 180.009 452.928 180.326C453.422 180.634 453.814 181.073 454.104 181.642C454.561 182.547 454.79 183.677 454.79 185.03C454.79 186.374 454.561 187.499 454.104 188.404C453.814 188.973 453.422 189.417 452.928 189.734C452.442 190.051 451.873 190.21 451.22 190.21ZM451.22 189.398C452.134 189.398 452.82 188.922 453.278 187.97C453.642 187.195 453.824 186.215 453.824 185.03C453.824 183.826 453.642 182.841 453.278 182.076C452.83 181.133 452.144 180.662 451.22 180.662C450.296 180.662 449.61 181.133 449.162 182.076C448.798 182.841 448.616 183.826 448.616 185.03C448.616 186.225 448.798 187.205 449.162 187.97C449.619 188.922 450.305 189.398 451.22 189.398ZM459.805 190.21C459.152 190.21 458.578 190.051 458.083 189.734C457.598 189.417 457.211 188.973 456.921 188.404C456.464 187.499 456.235 186.374 456.235 185.03C456.235 183.677 456.464 182.547 456.921 181.642C457.211 181.073 457.598 180.634 458.083 180.326C458.578 180.009 459.152 179.85 459.805 179.85C460.459 179.85 461.028 180.009 461.513 180.326C462.008 180.634 462.4 181.073 462.689 181.642C463.147 182.547 463.375 183.677 463.375 185.03C463.375 186.374 463.147 187.499 462.689 188.404C462.4 188.973 462.008 189.417 461.513 189.734C461.028 190.051 460.459 190.21 459.805 190.21ZM459.805 189.398C460.72 189.398 461.406 188.922 461.863 187.97C462.227 187.195 462.409 186.215 462.409 185.03C462.409 183.826 462.227 182.841 461.863 182.076C461.415 181.133 460.729 180.662 459.805 180.662C458.881 180.662 458.195 181.133 457.747 182.076C457.383 182.841 457.201 183.826 457.201 185.03C457.201 186.225 457.383 187.205 457.747 187.97C458.205 188.922 458.891 189.398 459.805 189.398Z" fill="#5C5C66"/>
<path d="M225.568 128C225.419 128 225.297 127.958 225.204 127.874C225.12 127.781 225.078 127.659 225.078 127.51V118.55C225.078 118.391 225.12 118.27 225.204 118.186C225.297 118.102 225.419 118.06 225.568 118.06H228.942C229.875 118.06 230.673 118.27 231.336 118.69C232.008 119.11 232.517 119.698 232.862 120.454C233.217 121.201 233.394 122.059 233.394 123.03C233.394 124.001 233.217 124.864 232.862 125.62C232.517 126.367 232.008 126.95 231.336 127.37C230.673 127.79 229.875 128 228.942 128H225.568ZM228.704 126.656C229.656 126.656 230.403 126.343 230.944 125.718C231.495 125.083 231.77 124.187 231.77 123.03C231.77 121.873 231.495 120.981 230.944 120.356C230.403 119.721 229.656 119.404 228.704 119.404H226.674V126.656H228.704ZM235.536 119.754C235.265 119.754 235.036 119.665 234.85 119.488C234.663 119.301 234.57 119.082 234.57 118.83C234.57 118.569 234.663 118.349 234.85 118.172C235.036 117.995 235.265 117.906 235.536 117.906C235.806 117.906 236.035 117.995 236.222 118.172C236.408 118.349 236.502 118.569 236.502 118.83C236.502 119.082 236.408 119.301 236.222 119.488C236.035 119.665 235.806 119.754 235.536 119.754ZM235.27 128C235.12 128 234.999 127.958 234.906 127.874C234.822 127.781 234.78 127.659 234.78 127.51V121.588C234.78 121.429 234.822 121.308 234.906 121.224C234.999 121.14 235.12 121.098 235.27 121.098H235.774C235.932 121.098 236.054 121.14 236.138 121.224C236.222 121.308 236.264 121.429 236.264 121.588V127.51C236.264 127.659 236.222 127.781 236.138 127.874C236.054 127.958 235.932 128 235.774 128H235.27ZM240.639 128.21C240.07 128.21 239.561 128.14 239.113 128C238.674 127.851 238.226 127.594 237.769 127.23C237.629 127.127 237.559 127.011 237.559 126.88C237.559 126.777 237.61 126.665 237.713 126.544L237.923 126.306C238.035 126.175 238.156 126.11 238.287 126.11C238.39 126.11 238.502 126.157 238.623 126.25C239.015 126.539 239.36 126.74 239.659 126.852C239.958 126.955 240.294 127.006 240.667 127.006C241.068 127.006 241.395 126.927 241.647 126.768C241.908 126.6 242.039 126.376 242.039 126.096C242.039 125.881 241.964 125.713 241.815 125.592C241.675 125.461 241.488 125.363 241.255 125.298C241.022 125.223 240.676 125.139 240.219 125.046C239.575 124.906 239.071 124.757 238.707 124.598C238.352 124.43 238.096 124.22 237.937 123.968C237.778 123.716 237.699 123.394 237.699 123.002C237.699 122.601 237.811 122.241 238.035 121.924C238.268 121.607 238.59 121.355 239.001 121.168C239.421 120.981 239.911 120.888 240.471 120.888C240.975 120.888 241.423 120.944 241.815 121.056C242.216 121.168 242.608 121.359 242.991 121.63C243.14 121.742 243.215 121.868 243.215 122.008C243.215 122.101 243.168 122.209 243.075 122.33L242.893 122.554C242.79 122.685 242.664 122.75 242.515 122.75C242.403 122.75 242.296 122.713 242.193 122.638C241.885 122.433 241.6 122.293 241.339 122.218C241.078 122.134 240.784 122.092 240.457 122.092C240.056 122.092 239.734 122.171 239.491 122.33C239.248 122.489 239.127 122.694 239.127 122.946C239.127 123.114 239.183 123.249 239.295 123.352C239.416 123.445 239.584 123.529 239.799 123.604C240.023 123.669 240.373 123.753 240.849 123.856C241.493 123.996 242.002 124.155 242.375 124.332C242.758 124.5 243.038 124.719 243.215 124.99C243.402 125.251 243.495 125.592 243.495 126.012C243.495 126.665 243.234 127.197 242.711 127.608C242.198 128.009 241.507 128.21 240.639 128.21ZM248.079 126.824C248.107 126.815 248.149 126.81 248.205 126.81C248.438 126.81 248.578 126.945 248.625 127.216L248.667 127.44C248.676 127.468 248.681 127.515 248.681 127.58C248.681 127.813 248.55 127.963 248.289 128.028C247.915 128.112 247.575 128.154 247.267 128.154C246.604 128.154 246.123 128 245.825 127.692C245.535 127.384 245.391 126.922 245.391 126.306V122.232H244.621C244.471 122.232 244.35 122.19 244.257 122.106C244.173 122.013 244.131 121.891 244.131 121.742V121.588C244.131 121.429 244.173 121.308 244.257 121.224C244.35 121.14 244.471 121.098 244.621 121.098H245.391V119.362C245.391 119.203 245.433 119.082 245.517 118.998C245.61 118.914 245.731 118.872 245.881 118.872H246.385C246.543 118.872 246.665 118.914 246.749 118.998C246.833 119.082 246.875 119.203 246.875 119.362V121.098H248.135C248.293 121.098 248.415 121.14 248.499 121.224C248.583 121.308 248.625 121.429 248.625 121.588V121.742C248.625 121.891 248.583 122.013 248.499 122.106C248.415 122.19 248.293 122.232 248.135 122.232H246.875V126.124C246.875 126.395 246.931 126.586 247.043 126.698C247.164 126.81 247.355 126.866 247.617 126.866C247.729 126.866 247.883 126.852 248.079 126.824ZM252.772 120.888C253.705 120.888 254.424 121.107 254.928 121.546C255.432 121.975 255.684 122.549 255.684 123.268V127.51C255.684 127.659 255.642 127.781 255.558 127.874C255.474 127.958 255.353 128 255.194 128H254.83C254.681 128 254.559 127.958 254.466 127.874C254.382 127.781 254.34 127.659 254.34 127.51V127.202C254.116 127.529 253.808 127.781 253.416 127.958C253.024 128.135 252.567 128.224 252.044 128.224C251.325 128.224 250.733 128.065 250.266 127.748C249.809 127.421 249.58 126.931 249.58 126.278C249.58 125.55 249.851 125.013 250.392 124.668C250.943 124.313 251.703 124.047 252.674 123.87L254.256 123.576V123.324C254.256 122.941 254.121 122.647 253.85 122.442C253.589 122.227 253.239 122.12 252.8 122.12C252.427 122.12 252.1 122.185 251.82 122.316C251.549 122.437 251.255 122.643 250.938 122.932C250.817 123.035 250.7 123.086 250.588 123.086C250.476 123.086 250.359 123.035 250.238 122.932L250.014 122.736C249.893 122.624 249.832 122.503 249.832 122.372C249.832 122.251 249.888 122.134 250 122.022C250.401 121.639 250.826 121.355 251.274 121.168C251.722 120.981 252.221 120.888 252.772 120.888ZM252.254 127.034C252.814 127.034 253.285 126.885 253.668 126.586C254.06 126.287 254.256 125.858 254.256 125.298V124.654L253.038 124.906C252.357 125.046 251.853 125.205 251.526 125.382C251.199 125.559 251.036 125.83 251.036 126.194C251.036 126.455 251.143 126.661 251.358 126.81C251.573 126.959 251.871 127.034 252.254 127.034ZM260.893 120.888C261.687 120.888 262.293 121.112 262.713 121.56C263.143 121.999 263.357 122.568 263.357 123.268V127.51C263.357 127.659 263.315 127.781 263.231 127.874C263.147 127.958 263.026 128 262.867 128H262.363C262.214 128 262.093 127.958 261.999 127.874C261.915 127.781 261.873 127.659 261.873 127.51V123.73C261.873 123.226 261.747 122.839 261.495 122.568C261.253 122.297 260.903 122.162 260.445 122.162C259.997 122.162 259.619 122.316 259.311 122.624C259.013 122.932 258.863 123.319 258.863 123.786V127.51C258.863 127.659 258.821 127.781 258.737 127.874C258.653 127.958 258.532 128 258.373 128H257.869C257.72 128 257.599 127.958 257.505 127.874C257.421 127.781 257.379 127.659 257.379 127.51V121.588C257.379 121.429 257.421 121.308 257.505 121.224C257.599 121.14 257.72 121.098 257.869 121.098H258.275C258.434 121.098 258.555 121.14 258.639 121.224C258.723 121.308 258.765 121.429 258.765 121.588V121.952C258.989 121.607 259.283 121.345 259.647 121.168C260.011 120.981 260.427 120.888 260.893 120.888ZM268.101 128.21C267.42 128.21 266.818 128.061 266.295 127.762C265.782 127.463 265.38 127.039 265.091 126.488C264.811 125.928 264.671 125.279 264.671 124.542C264.671 123.805 264.816 123.161 265.105 122.61C265.394 122.059 265.8 121.635 266.323 121.336C266.846 121.037 267.448 120.888 268.129 120.888C268.624 120.888 269.067 120.963 269.459 121.112C269.86 121.252 270.243 121.495 270.607 121.84C270.719 121.952 270.775 122.069 270.775 122.19C270.775 122.302 270.714 122.419 270.593 122.54L270.355 122.778C270.252 122.881 270.14 122.932 270.019 122.932C269.898 122.932 269.772 122.876 269.641 122.764C269.37 122.531 269.114 122.372 268.871 122.288C268.638 122.195 268.386 122.148 268.115 122.148C267.499 122.148 267.023 122.377 266.687 122.834C266.351 123.291 266.183 123.861 266.183 124.542C266.183 125.223 266.351 125.797 266.687 126.264C267.023 126.721 267.499 126.95 268.115 126.95C268.414 126.95 268.689 126.894 268.941 126.782C269.193 126.661 269.464 126.46 269.753 126.18C269.874 126.059 270 125.998 270.131 125.998C270.243 125.998 270.35 126.045 270.453 126.138L270.691 126.334C270.812 126.437 270.873 126.553 270.873 126.684C270.873 126.824 270.803 126.973 270.663 127.132C270.28 127.524 269.884 127.804 269.473 127.972C269.072 128.131 268.614 128.21 268.101 128.21ZM276.909 126.236C277.031 126.133 277.147 126.082 277.259 126.082C277.371 126.082 277.488 126.143 277.609 126.264L277.805 126.474C277.908 126.595 277.959 126.712 277.959 126.824C277.959 126.945 277.899 127.062 277.777 127.174C277.348 127.547 276.919 127.813 276.489 127.972C276.069 128.131 275.603 128.21 275.089 128.21C274.371 128.21 273.745 128.061 273.213 127.762C272.691 127.463 272.285 127.043 271.995 126.502C271.715 125.951 271.575 125.317 271.575 124.598C271.575 123.889 271.711 123.254 271.981 122.694C272.261 122.125 272.653 121.681 273.157 121.364C273.671 121.047 274.268 120.888 274.949 120.888C275.967 120.888 276.751 121.191 277.301 121.798C277.852 122.395 278.127 123.221 278.127 124.276V124.402C278.118 124.551 278.071 124.668 277.987 124.752C277.903 124.836 277.782 124.878 277.623 124.878H273.031C273.087 125.494 273.288 125.998 273.633 126.39C273.988 126.773 274.483 126.964 275.117 126.964C275.463 126.964 275.766 126.913 276.027 126.81C276.289 126.698 276.583 126.507 276.909 126.236ZM274.921 122.064C274.408 122.064 273.993 122.218 273.675 122.526C273.367 122.825 273.167 123.249 273.073 123.8H276.671C276.634 123.259 276.466 122.834 276.167 122.526C275.869 122.218 275.453 122.064 274.921 122.064Z" fill="#1B1B1F"/>
<rect x="224" y="152" width="240" height="4" rx="2" fill="#DEDEE3"/>
<rect x="224" y="151" width="154" height="6" rx="3" fill="#0063FB"/>
<g filter="url(#filter0_dd_5483_11813)">
<rect x="346.5" y="93" width="63" height="32" rx="4" fill="#1B1B1F"/>
<path d="M358.532 108.092C359.521 108.092 360.324 108.344 360.94 108.848C361.556 109.352 361.864 110.071 361.864 111.004C361.864 111.527 361.733 112.035 361.472 112.53C361.22 113.025 360.842 113.431 360.338 113.748C359.834 114.056 359.227 114.21 358.518 114.21C357.93 114.21 357.365 114.126 356.824 113.958C356.292 113.781 355.746 113.515 355.186 113.16C355.093 113.104 355.046 113.029 355.046 112.936C355.046 112.871 355.065 112.815 355.102 112.768L355.284 112.516C355.34 112.432 355.41 112.39 355.494 112.39C355.569 112.39 355.629 112.409 355.676 112.446C356.227 112.791 356.712 113.039 357.132 113.188C357.561 113.328 358.014 113.398 358.49 113.398C358.975 113.398 359.4 113.295 359.764 113.09C360.128 112.875 360.408 112.591 360.604 112.236C360.809 111.872 360.912 111.466 360.912 111.018C360.912 110.346 360.697 109.819 360.268 109.436C359.839 109.053 359.199 108.862 358.35 108.862C357.995 108.862 357.683 108.899 357.412 108.974C357.384 108.983 357.347 108.988 357.3 108.988C357.197 108.988 357.113 108.941 357.048 108.848L356.894 108.638C356.847 108.563 356.824 108.498 356.824 108.442C356.824 108.367 356.857 108.302 356.922 108.246L360.45 104.872H355.718C355.531 104.872 355.438 104.779 355.438 104.592V104.34C355.438 104.153 355.531 104.06 355.718 104.06H361.346C361.533 104.06 361.626 104.153 361.626 104.34V104.648C361.626 104.779 361.575 104.895 361.472 104.998L358.196 108.106L358.532 108.092ZM367.044 107.588C367.688 107.588 368.252 107.723 368.738 107.994C369.232 108.255 369.615 108.629 369.886 109.114C370.156 109.599 370.292 110.159 370.292 110.794C370.292 111.363 370.156 111.909 369.886 112.432C369.615 112.955 369.223 113.379 368.71 113.706C368.196 114.033 367.594 114.196 366.904 114.196C366.232 114.196 365.648 114.112 365.154 113.944C364.668 113.776 364.118 113.487 363.502 113.076C363.408 113.02 363.362 112.945 363.362 112.852C363.362 112.787 363.38 112.731 363.418 112.684L363.6 112.432C363.656 112.348 363.721 112.306 363.796 112.306C363.852 112.306 363.917 112.329 363.992 112.376C364.561 112.759 365.046 113.025 365.448 113.174C365.858 113.323 366.311 113.398 366.806 113.398C367.328 113.398 367.781 113.281 368.164 113.048C368.546 112.805 368.836 112.488 369.032 112.096C369.237 111.695 369.34 111.261 369.34 110.794C369.34 110.047 369.13 109.464 368.71 109.044C368.299 108.624 367.706 108.414 366.932 108.414C366.101 108.414 365.406 108.666 364.846 109.17C364.743 109.263 364.622 109.301 364.482 109.282L364.174 109.24C364.09 109.231 364.024 109.198 363.978 109.142C363.931 109.086 363.912 109.016 363.922 108.932L364.3 104.326C364.309 104.242 364.337 104.177 364.384 104.13C364.44 104.083 364.51 104.06 364.594 104.06H369.578C369.764 104.06 369.858 104.153 369.858 104.34V104.592C369.858 104.779 369.764 104.872 369.578 104.872H365.126L364.832 108.316C365.093 108.101 365.41 107.929 365.784 107.798C366.166 107.658 366.586 107.588 367.044 107.588ZM375.27 114.21C374.617 114.21 374.043 114.051 373.548 113.734C373.063 113.417 372.676 112.973 372.386 112.404C371.929 111.499 371.7 110.374 371.7 109.03C371.7 107.677 371.929 106.547 372.386 105.642C372.676 105.073 373.063 104.634 373.548 104.326C374.043 104.009 374.617 103.85 375.27 103.85C375.924 103.85 376.493 104.009 376.978 104.326C377.473 104.634 377.865 105.073 378.154 105.642C378.612 106.547 378.84 107.677 378.84 109.03C378.84 110.374 378.612 111.499 378.154 112.404C377.865 112.973 377.473 113.417 376.978 113.734C376.493 114.051 375.924 114.21 375.27 114.21ZM375.27 113.398C376.185 113.398 376.871 112.922 377.328 111.97C377.692 111.195 377.874 110.215 377.874 109.03C377.874 107.826 377.692 106.841 377.328 106.076C376.88 105.133 376.194 104.662 375.27 104.662C374.346 104.662 373.66 105.133 373.212 106.076C372.848 106.841 372.666 107.826 372.666 109.03C372.666 110.225 372.848 111.205 373.212 111.97C373.67 112.922 374.356 113.398 375.27 113.398ZM388.711 114C388.571 114 388.459 113.939 388.375 113.818L386.009 110.374L384.651 111.76V113.72C384.651 113.907 384.558 114 384.371 114H384.007C383.821 114 383.727 113.907 383.727 113.72V104.34C383.727 104.153 383.821 104.06 384.007 104.06H384.371C384.558 104.06 384.651 104.153 384.651 104.34V110.71L388.011 107.224C388.095 107.131 388.212 107.084 388.361 107.084H388.753C388.828 107.084 388.884 107.103 388.921 107.14C388.968 107.168 388.991 107.205 388.991 107.252C388.991 107.299 388.963 107.359 388.907 107.434L386.653 109.786L389.299 113.664C389.337 113.729 389.355 113.785 389.355 113.832C389.355 113.944 389.281 114 389.131 114H388.711ZM397.714 106.93C398.461 106.93 399.03 107.145 399.422 107.574C399.823 107.994 400.024 108.535 400.024 109.198V113.72C400.024 113.907 399.931 114 399.744 114H399.38C399.193 114 399.1 113.907 399.1 113.72V109.45C399.1 108.89 398.969 108.461 398.708 108.162C398.456 107.863 398.078 107.714 397.574 107.714C397.042 107.714 396.617 107.891 396.3 108.246C395.983 108.601 395.824 109.058 395.824 109.618V113.72C395.824 113.907 395.731 114 395.544 114H395.18C394.993 114 394.9 113.907 394.9 113.72V109.45C394.9 108.89 394.769 108.461 394.508 108.162C394.256 107.863 393.873 107.714 393.36 107.714C392.884 107.714 392.487 107.863 392.17 108.162C391.862 108.461 391.68 108.853 391.624 109.338V113.72C391.624 113.907 391.531 114 391.344 114H390.98C390.793 114 390.7 113.907 390.7 113.72V107.378C390.7 107.191 390.793 107.098 390.98 107.098H391.288C391.475 107.098 391.568 107.191 391.568 107.378V107.952C391.988 107.271 392.655 106.93 393.57 106.93C394.046 106.93 394.452 107.037 394.788 107.252C395.133 107.457 395.39 107.737 395.558 108.092C396.053 107.317 396.771 106.93 397.714 106.93Z" fill="white"/>
<path d="M376.586 131.586L372.343 127.343C370.843 125.843 368.808 125 366.686 125H389.314C387.192 125 385.157 125.843 383.657 127.343L379.414 131.586C378.633 132.367 377.367 132.367 376.586 131.586Z" fill="#1B1B1F"/>
</g>
<path d="M364 154C364 146.268 370.268 140 378 140C385.732 140 392 146.268 392 154C392 161.732 385.732 168 378 168C370.268 168 364 161.732 364 154Z" fill="#00337F"/>
<path d="M378 136C387.941 136 396 144.059 396 154C396 163.941 387.941 172 378 172C368.059 172 360 163.941 360 154C360 144.059 368.059 136 378 136Z" stroke="black" stroke-opacity="0.08" stroke-width="8"/>
<rect x="168" y="103" width="40" height="40" rx="20" fill="#BE3830"/>
<path d="M186.29 119.04V117.878H188.922V128H187.634V119.04H186.29Z" fill="white"/>
<rect width="12" height="3" transform="translate(208 121.5)" fill="#BE3830"/>
<rect x="358" y="24" width="41" height="40" rx="20" fill="#BE3830"/>
<path d="M375.218 41.426C375.283 40.5673 375.615 39.8953 376.212 39.41C376.809 38.9247 377.584 38.682 378.536 38.682C379.171 38.682 379.717 38.7987 380.174 39.032C380.641 39.256 380.991 39.564 381.224 39.956C381.467 40.348 381.588 40.7913 381.588 41.286C381.588 41.8647 381.42 42.364 381.084 42.784C380.757 43.204 380.328 43.4747 379.796 43.596V43.666C380.403 43.8153 380.883 44.1093 381.238 44.548C381.593 44.9867 381.77 45.5607 381.77 46.27C381.77 46.802 381.649 47.2827 381.406 47.712C381.163 48.132 380.799 48.4633 380.314 48.706C379.829 48.9487 379.245 49.07 378.564 49.07C377.575 49.07 376.763 48.8133 376.128 48.3C375.493 47.7773 375.139 47.04 375.064 46.088H376.296C376.361 46.648 376.59 47.1053 376.982 47.46C377.374 47.8147 377.897 47.992 378.55 47.992C379.203 47.992 379.698 47.824 380.034 47.488C380.379 47.1427 380.552 46.6993 380.552 46.158C380.552 45.458 380.319 44.954 379.852 44.646C379.385 44.338 378.681 44.184 377.738 44.184H377.416V43.12H377.752C378.611 43.1107 379.259 42.9707 379.698 42.7C380.137 42.42 380.356 41.9907 380.356 41.412C380.356 40.9173 380.193 40.5207 379.866 40.222C379.549 39.9233 379.091 39.774 378.494 39.774C377.915 39.774 377.449 39.9233 377.094 40.222C376.739 40.5207 376.529 40.922 376.464 41.426H375.218Z" fill="white"/>
<rect width="25" height="3" transform="translate(380 64) rotate(90)" fill="#BE3830"/>
<rect x="293" y="24" width="41" height="40" rx="20" fill="#BE3830"/>
<path d="M310.188 47.978C311.373 47.026 312.302 46.2467 312.974 45.64C313.646 45.024 314.21 44.3847 314.668 43.722C315.134 43.05 315.368 42.392 315.368 41.748C315.368 41.1413 315.218 40.6653 314.92 40.32C314.63 39.9653 314.159 39.788 313.506 39.788C312.871 39.788 312.376 39.9887 312.022 40.39C311.676 40.782 311.49 41.3093 311.462 41.972H310.23C310.267 40.9267 310.584 40.1193 311.182 39.55C311.779 38.9807 312.549 38.696 313.492 38.696C314.453 38.696 315.214 38.962 315.774 39.494C316.343 40.026 316.628 40.7587 316.628 41.692C316.628 42.4667 316.394 43.2227 315.928 43.96C315.47 44.688 314.948 45.332 314.36 45.892C313.772 46.4427 313.02 47.0867 312.106 47.824H316.922V48.888H310.188V47.978Z" fill="white"/>
<rect width="83" height="3" transform="translate(315 64) rotate(90)" fill="#BE3830"/>
<rect x="423" y="24" width="41" height="40" rx="20" fill="#BE3830"/>
<path d="M439.658 46.746V45.78L444.572 38.976H446.098V45.64H447.498V46.746H446.098V49H444.838V46.746H439.658ZM444.894 40.306L441.128 45.64H444.894V40.306Z" fill="white"/>
<rect width="83" height="3" transform="translate(445 64) rotate(90)" fill="#BE3830"/>
<rect width="124" height="3" transform="translate(379 180) rotate(90)" fill="#BE3830"/>
<rect x="357" y="304" width="41" height="40" rx="20" fill="#BE3830"/>
<path d="M380.426 319.984H375.512V323.176C375.727 322.877 376.044 322.635 376.464 322.448C376.884 322.252 377.337 322.154 377.822 322.154C378.597 322.154 379.227 322.317 379.712 322.644C380.198 322.961 380.543 323.377 380.748 323.89C380.963 324.394 381.07 324.931 381.07 325.5C381.07 326.172 380.944 326.774 380.692 327.306C380.44 327.838 380.053 328.258 379.53 328.566C379.017 328.874 378.378 329.028 377.612 329.028C376.632 329.028 375.839 328.776 375.232 328.272C374.626 327.768 374.257 327.096 374.126 326.256H375.372C375.494 326.788 375.75 327.203 376.142 327.502C376.534 327.801 377.029 327.95 377.626 327.95C378.364 327.95 378.919 327.731 379.292 327.292C379.666 326.844 379.852 326.256 379.852 325.528C379.852 324.8 379.666 324.24 379.292 323.848C378.919 323.447 378.368 323.246 377.64 323.246C377.146 323.246 376.712 323.367 376.338 323.61C375.974 323.843 375.708 324.165 375.54 324.576H374.336V318.864H380.426V319.984Z" fill="white"/>
<rect x="168" y="165" width="41" height="40" rx="20" fill="#BE3830"/>
<path d="M190.567 182.286C190.361 181.25 189.722 180.732 188.649 180.732C187.818 180.732 187.197 181.054 186.787 181.698C186.376 182.333 186.175 183.383 186.185 184.848C186.399 184.363 186.754 183.985 187.249 183.714C187.753 183.434 188.313 183.294 188.929 183.294C189.89 183.294 190.655 183.593 191.225 184.19C191.803 184.787 192.093 185.613 192.093 186.668C192.093 187.303 191.967 187.872 191.715 188.376C191.472 188.88 191.099 189.281 190.595 189.58C190.1 189.879 189.498 190.028 188.789 190.028C187.827 190.028 187.076 189.813 186.535 189.384C185.993 188.955 185.615 188.362 185.401 187.606C185.186 186.85 185.079 185.917 185.079 184.806C185.079 181.381 186.273 179.668 188.663 179.668C189.577 179.668 190.296 179.915 190.819 180.41C191.341 180.905 191.649 181.53 191.743 182.286H190.567ZM188.663 184.372C188.261 184.372 187.883 184.456 187.529 184.624C187.174 184.783 186.885 185.03 186.661 185.366C186.446 185.693 186.339 186.094 186.339 186.57C186.339 187.279 186.544 187.858 186.955 188.306C187.365 188.745 187.953 188.964 188.719 188.964C189.372 188.964 189.89 188.763 190.273 188.362C190.665 187.951 190.861 187.401 190.861 186.71C190.861 185.982 190.674 185.413 190.301 185.002C189.927 184.582 189.381 184.372 188.663 184.372Z" fill="white"/>
<rect width="11" height="3" transform="translate(209 183.5)" fill="#BE3830"/>
<rect width="12" height="3" transform="translate(468 183.5)" fill="#BE3830"/>
<rect x="480" y="165" width="40" height="40" rx="20" fill="#BE3830"/>
<path d="M503.277 180.872L499.385 190H498.097L502.045 180.998H496.641V179.906H503.277V180.872Z" fill="white"/>
<rect x="168" y="210" width="41" height="40" rx="20" fill="#BE3830"/>
<path d="M186.8 229.736C186.277 229.531 185.876 229.232 185.596 228.84C185.316 228.448 185.176 227.972 185.176 227.412C185.176 226.908 185.302 226.455 185.554 226.054C185.806 225.643 186.179 225.321 186.674 225.088C187.178 224.845 187.785 224.724 188.494 224.724C189.203 224.724 189.805 224.845 190.3 225.088C190.804 225.321 191.182 225.643 191.434 226.054C191.695 226.455 191.826 226.908 191.826 227.412C191.826 227.953 191.681 228.429 191.392 228.84C191.103 229.241 190.706 229.54 190.202 229.736C190.781 229.913 191.238 230.226 191.574 230.674C191.919 231.113 192.092 231.645 192.092 232.27C192.092 232.877 191.943 233.409 191.644 233.866C191.345 234.314 190.921 234.664 190.37 234.916C189.829 235.159 189.203 235.28 188.494 235.28C187.785 235.28 187.159 235.159 186.618 234.916C186.086 234.664 185.671 234.314 185.372 233.866C185.073 233.409 184.924 232.877 184.924 232.27C184.924 231.645 185.092 231.108 185.428 230.66C185.764 230.212 186.221 229.904 186.8 229.736ZM190.594 227.566C190.594 226.997 190.407 226.558 190.034 226.25C189.661 225.942 189.147 225.788 188.494 225.788C187.85 225.788 187.341 225.942 186.968 226.25C186.595 226.558 186.408 227.001 186.408 227.58C186.408 228.103 186.599 228.523 186.982 228.84C187.374 229.157 187.878 229.316 188.494 229.316C189.119 229.316 189.623 229.157 190.006 228.84C190.398 228.513 190.594 228.089 190.594 227.566ZM188.494 230.296C187.803 230.296 187.239 230.459 186.8 230.786C186.361 231.103 186.142 231.584 186.142 232.228C186.142 232.825 186.352 233.306 186.772 233.67C187.201 234.034 187.775 234.216 188.494 234.216C189.213 234.216 189.782 234.034 190.202 233.67C190.622 233.306 190.832 232.825 190.832 232.228C190.832 231.603 190.617 231.127 190.188 230.8C189.759 230.464 189.194 230.296 188.494 230.296Z" fill="white"/>
<rect width="11" height="3" transform="translate(209 228.5)" fill="#BE3830"/>
<rect width="62" height="3" transform="translate(329 242) rotate(90)" fill="#BE3830"/>
<rect x="307" y="304" width="41" height="40" rx="20" fill="#BE3830"/>
<path d="M325.597 326.284C325.69 326.816 325.905 327.227 326.241 327.516C326.586 327.805 327.048 327.95 327.627 327.95C328.401 327.95 328.971 327.647 329.335 327.04C329.708 326.433 329.885 325.411 329.867 323.974C329.671 324.394 329.344 324.725 328.887 324.968C328.429 325.201 327.921 325.318 327.361 325.318C326.735 325.318 326.175 325.192 325.681 324.94C325.195 324.679 324.813 324.301 324.533 323.806C324.253 323.311 324.113 322.714 324.113 322.014C324.113 321.015 324.402 320.213 324.981 319.606C325.559 318.99 326.381 318.682 327.445 318.682C328.751 318.682 329.666 319.107 330.189 319.956C330.721 320.805 330.987 322.07 330.987 323.75C330.987 324.926 330.879 325.897 330.665 326.662C330.459 327.427 330.105 328.011 329.601 328.412C329.106 328.813 328.425 329.014 327.557 329.014C326.605 329.014 325.863 328.757 325.331 328.244C324.799 327.731 324.495 327.077 324.421 326.284H325.597ZM327.571 324.24C328.196 324.24 328.709 324.049 329.111 323.666C329.512 323.274 329.713 322.747 329.713 322.084C329.713 321.384 329.517 320.819 329.125 320.39C328.733 319.961 328.182 319.746 327.473 319.746C326.819 319.746 326.297 319.951 325.905 320.362C325.522 320.773 325.331 321.314 325.331 321.986C325.331 322.667 325.522 323.213 325.905 323.624C326.287 324.035 326.843 324.24 327.571 324.24Z" fill="white"/>
<defs>
<filter id="filter0_dd_5483_11813" x="338.5" y="88" width="79" height="55.1716" filterUnits="userSpaceOnUse" color-interpolation-filters="sRGB">
<feFlood flood-opacity="0" result="BackgroundImageFix"/>
<feColorMatrix in="SourceAlpha" type="matrix" values="0 0 0 0 0 0 0 0 0 0 0 0 0 0 0 0 0 0 127 0" result="hardAlpha"/>
<feOffset dy="3"/>
<feGaussianBlur stdDeviation="4"/>
<feComposite in2="hardAlpha" operator="out"/>
<feColorMatrix type="matrix" values="0 0 0 0 0 0 0 0 0 0 0 0 0 0 0 0 0 0 0.16 0"/>
<feBlend mode="normal" in2="BackgroundImageFix" result="effect1_dropShadow_5483_11813"/>
<feColorMatrix in="SourceAlpha" type="matrix" values="0 0 0 0 0 0 0 0 0 0 0 0 0 0 0 0 0 0 127 0" result="hardAlpha"/>
<feOffset dy="3"/>
<feGaussianBlur stdDeviation="3"/>
<feComposite in2="hardAlpha" operator="out"/>
<feColorMatrix type="matrix" values="0 0 0 0 0 0 0 0 0 0 0 0 0 0 0 0 0 0 0.1 0"/>
<feBlend mode="normal" in2="effect1_dropShadow_5483_11813" result="effect2_dropShadow_5483_11813"/>
<feBlend mode="normal" in="SourceGraphic" in2="effect2_dropShadow_5483_11813" result="shape"/>
</filter>
<clipPath id="clip0_5483_11813">
<rect width="104" height="22" fill="white" transform="translate(232 219)"/>
</clipPath>
</defs>
</svg>
