<svg width="352" height="368" viewBox="0 0 352 368" fill="none" xmlns="http://www.w3.org/2000/svg">
<rect x="56.5" y="206.5" width="119" height="47" rx="3.5" fill="white"/>
<rect x="56.5" y="206.5" width="119" height="47" rx="3.5" stroke="#84848F"/>
<g clip-path="url(#clip0_5483_11837)">
<path d="M68.608 228.248C69.7387 228.248 70.656 228.536 71.36 229.112C72.064 229.688 72.416 230.509 72.416 231.576C72.416 232.173 72.2667 232.755 71.968 233.32C71.68 233.885 71.248 234.349 70.672 234.712C70.096 235.064 69.4027 235.24 68.592 235.24C67.92 235.24 67.2747 235.144 66.656 234.952C66.048 234.749 65.424 234.445 64.784 234.04C64.6773 233.976 64.624 233.891 64.624 233.784C64.624 233.709 64.6453 233.645 64.688 233.592L64.896 233.304C64.96 233.208 65.04 233.16 65.136 233.16C65.2213 233.16 65.2907 233.181 65.344 233.224C65.9733 233.619 66.528 233.901 67.008 234.072C67.4987 234.232 68.016 234.312 68.56 234.312C69.1147 234.312 69.6 234.195 70.016 233.96C70.432 233.715 70.752 233.389 70.976 232.984C71.2107 232.568 71.328 232.104 71.328 231.592C71.328 230.824 71.0827 230.221 70.592 229.784C70.1013 229.347 69.3707 229.128 68.4 229.128C67.9947 229.128 67.6373 229.171 67.328 229.256C67.296 229.267 67.2533 229.272 67.2 229.272C67.0827 229.272 66.9867 229.219 66.912 229.112L66.736 228.872C66.6827 228.787 66.656 228.712 66.656 228.648C66.656 228.563 66.6933 228.488 66.768 228.424L70.8 224.568H65.392C65.1787 224.568 65.072 224.461 65.072 224.248V223.96C65.072 223.747 65.1787 223.64 65.392 223.64H71.824C72.0373 223.64 72.144 223.747 72.144 223.96V224.312C72.144 224.461 72.0853 224.595 71.968 224.712L68.224 228.264L68.608 228.248ZM78.3358 227.672C79.0718 227.672 79.7171 227.827 80.2718 228.136C80.8371 228.435 81.2744 228.861 81.5838 229.416C81.8931 229.971 82.0478 230.611 82.0478 231.336C82.0478 231.987 81.8931 232.611 81.5838 233.208C81.2744 233.805 80.8264 234.291 80.2398 234.664C79.6531 235.037 78.9651 235.224 78.1758 235.224C77.4078 235.224 76.7411 235.128 76.1758 234.936C75.6211 234.744 74.9918 234.413 74.2878 233.944C74.1811 233.88 74.1278 233.795 74.1278 233.688C74.1278 233.613 74.1491 233.549 74.1918 233.496L74.3997 233.208C74.4638 233.112 74.5384 233.064 74.6238 233.064C74.6878 233.064 74.7624 233.091 74.8478 233.144C75.4984 233.581 76.0531 233.885 76.5118 234.056C76.9811 234.227 77.4984 234.312 78.0638 234.312C78.6611 234.312 79.1784 234.179 79.6158 233.912C80.0531 233.635 80.3838 233.272 80.6078 232.824C80.8424 232.365 80.9598 231.869 80.9598 231.336C80.9598 230.483 80.7198 229.816 80.2398 229.336C79.7704 228.856 79.0931 228.616 78.2078 228.616C77.2584 228.616 76.4638 228.904 75.8238 229.48C75.7064 229.587 75.5678 229.629 75.4078 229.608L75.0558 229.56C74.9598 229.549 74.8851 229.512 74.8318 229.448C74.7784 229.384 74.7571 229.304 74.7678 229.208L75.1998 223.944C75.2104 223.848 75.2424 223.773 75.2958 223.72C75.3598 223.667 75.4398 223.64 75.5358 223.64H81.2318C81.4451 223.64 81.5518 223.747 81.5518 223.96V224.248C81.5518 224.461 81.4451 224.568 81.2318 224.568H76.1438L75.8078 228.504C76.1064 228.259 76.4691 228.061 76.8958 227.912C77.3331 227.752 77.8131 227.672 78.3358 227.672ZM87.7375 235.24C86.9908 235.24 86.3348 235.059 85.7695 234.696C85.2148 234.333 84.7722 233.827 84.4415 233.176C83.9188 232.141 83.6575 230.856 83.6575 229.32C83.6575 227.773 83.9188 226.483 84.4415 225.448C84.7722 224.797 85.2148 224.296 85.7695 223.944C86.3348 223.581 86.9908 223.4 87.7375 223.4C88.4842 223.4 89.1348 223.581 89.6895 223.944C90.2548 224.296 90.7028 224.797 91.0335 225.448C91.5562 226.483 91.8175 227.773 91.8175 229.32C91.8175 230.856 91.5562 232.141 91.0335 233.176C90.7028 233.827 90.2548 234.333 89.6895 234.696C89.1348 235.059 88.4842 235.24 87.7375 235.24ZM87.7375 234.312C88.7828 234.312 89.5668 233.768 90.0895 232.68C90.5055 231.795 90.7135 230.675 90.7135 229.32C90.7135 227.944 90.5055 226.819 90.0895 225.944C89.5775 224.867 88.7935 224.328 87.7375 224.328C86.6815 224.328 85.8975 224.867 85.3855 225.944C84.9695 226.819 84.7615 227.944 84.7615 229.32C84.7615 230.685 84.9695 231.805 85.3855 232.68C85.9082 233.768 86.6922 234.312 87.7375 234.312Z" fill="#1B1B1F"/>
<path d="M157.16 234C157.04 234 156.944 233.948 156.872 233.844L154.844 230.892L153.68 232.08V233.76C153.68 233.92 153.6 234 153.44 234H153.128C152.968 234 152.888 233.92 152.888 233.76V225.72C152.888 225.56 152.968 225.48 153.128 225.48H153.44C153.6 225.48 153.68 225.56 153.68 225.72V231.18L156.56 228.192C156.632 228.112 156.732 228.072 156.86 228.072H157.196C157.26 228.072 157.308 228.088 157.34 228.12C157.38 228.144 157.4 228.176 157.4 228.216C157.4 228.256 157.376 228.308 157.328 228.372L155.396 230.388L157.664 233.712C157.696 233.768 157.712 233.816 157.712 233.856C157.712 233.952 157.648 234 157.52 234H157.16ZM164.877 227.94C165.517 227.94 166.005 228.124 166.341 228.492C166.685 228.852 166.857 229.316 166.857 229.884V233.76C166.857 233.92 166.777 234 166.617 234H166.305C166.145 234 166.065 233.92 166.065 233.76V230.1C166.065 229.62 165.953 229.252 165.729 228.996C165.513 228.74 165.189 228.612 164.757 228.612C164.301 228.612 163.937 228.764 163.665 229.068C163.393 229.372 163.257 229.764 163.257 230.244V233.76C163.257 233.92 163.177 234 163.017 234H162.705C162.545 234 162.465 233.92 162.465 233.76V230.1C162.465 229.62 162.353 229.252 162.129 228.996C161.913 228.74 161.585 228.612 161.145 228.612C160.737 228.612 160.397 228.74 160.125 228.996C159.861 229.252 159.705 229.588 159.657 230.004V233.76C159.657 233.92 159.577 234 159.417 234H159.105C158.945 234 158.865 233.92 158.865 233.76V228.324C158.865 228.164 158.945 228.084 159.105 228.084H159.369C159.529 228.084 159.609 228.164 159.609 228.324V228.816C159.969 228.232 160.541 227.94 161.325 227.94C161.733 227.94 162.081 228.032 162.369 228.216C162.665 228.392 162.885 228.632 163.029 228.936C163.453 228.272 164.069 227.94 164.877 227.94Z" fill="#5C5C66"/>
</g>
<path d="M60.2 190.21C59.5467 190.21 58.9727 190.051 58.478 189.734C57.9927 189.417 57.6053 188.973 57.316 188.404C56.8587 187.499 56.63 186.374 56.63 185.03C56.63 183.677 56.8587 182.547 57.316 181.642C57.6053 181.073 57.9927 180.634 58.478 180.326C58.9727 180.009 59.5467 179.85 60.2 179.85C60.8533 179.85 61.4227 180.009 61.908 180.326C62.4027 180.634 62.7947 181.073 63.084 181.642C63.5413 182.547 63.77 183.677 63.77 185.03C63.77 186.374 63.5413 187.499 63.084 188.404C62.7947 188.973 62.4027 189.417 61.908 189.734C61.4227 190.051 60.8533 190.21 60.2 190.21ZM60.2 189.398C61.1147 189.398 61.8007 188.922 62.258 187.97C62.622 187.195 62.804 186.215 62.804 185.03C62.804 183.826 62.622 182.841 62.258 182.076C61.81 181.133 61.124 180.662 60.2 180.662C59.276 180.662 58.59 181.133 58.142 182.076C57.778 182.841 57.596 183.826 57.596 185.03C57.596 186.225 57.778 187.205 58.142 187.97C58.5993 188.922 59.2853 189.398 60.2 189.398Z" fill="#5C5C66"/>
<path d="M274.993 183.588C275.637 183.588 276.202 183.723 276.687 183.994C277.182 184.255 277.564 184.629 277.835 185.114C278.106 185.599 278.241 186.159 278.241 186.794C278.241 187.363 278.106 187.909 277.835 188.432C277.564 188.955 277.172 189.379 276.659 189.706C276.146 190.033 275.544 190.196 274.853 190.196C274.181 190.196 273.598 190.112 273.103 189.944C272.618 189.776 272.067 189.487 271.451 189.076C271.358 189.02 271.311 188.945 271.311 188.852C271.311 188.787 271.33 188.731 271.367 188.684L271.549 188.432C271.605 188.348 271.67 188.306 271.745 188.306C271.801 188.306 271.866 188.329 271.941 188.376C272.51 188.759 272.996 189.025 273.397 189.174C273.808 189.323 274.26 189.398 274.755 189.398C275.278 189.398 275.73 189.281 276.113 189.048C276.496 188.805 276.785 188.488 276.981 188.096C277.186 187.695 277.289 187.261 277.289 186.794C277.289 186.047 277.079 185.464 276.659 185.044C276.248 184.624 275.656 184.414 274.881 184.414C274.05 184.414 273.355 184.666 272.795 185.17C272.692 185.263 272.571 185.301 272.431 185.282L272.123 185.24C272.039 185.231 271.974 185.198 271.927 185.142C271.88 185.086 271.862 185.016 271.871 184.932L272.249 180.326C272.258 180.242 272.286 180.177 272.333 180.13C272.389 180.083 272.459 180.06 272.543 180.06H277.527C277.714 180.06 277.807 180.153 277.807 180.34V180.592C277.807 180.779 277.714 180.872 277.527 180.872H273.075L272.781 184.316C273.042 184.101 273.36 183.929 273.733 183.798C274.116 183.658 274.536 183.588 274.993 183.588ZM283.22 190.21C282.566 190.21 281.992 190.051 281.498 189.734C281.012 189.417 280.625 188.973 280.336 188.404C279.878 187.499 279.65 186.374 279.65 185.03C279.65 183.677 279.878 182.547 280.336 181.642C280.625 181.073 281.012 180.634 281.498 180.326C281.992 180.009 282.566 179.85 283.22 179.85C283.873 179.85 284.442 180.009 284.928 180.326C285.422 180.634 285.814 181.073 286.104 181.642C286.561 182.547 286.79 183.677 286.79 185.03C286.79 186.374 286.561 187.499 286.104 188.404C285.814 188.973 285.422 189.417 284.928 189.734C284.442 190.051 283.873 190.21 283.22 190.21ZM283.22 189.398C284.134 189.398 284.82 188.922 285.278 187.97C285.642 187.195 285.824 186.215 285.824 185.03C285.824 183.826 285.642 182.841 285.278 182.076C284.83 181.133 284.144 180.662 283.22 180.662C282.296 180.662 281.61 181.133 281.162 182.076C280.798 182.841 280.616 183.826 280.616 185.03C280.616 186.225 280.798 187.205 281.162 187.97C281.619 188.922 282.305 189.398 283.22 189.398ZM291.805 190.21C291.152 190.21 290.578 190.051 290.083 189.734C289.598 189.417 289.211 188.973 288.921 188.404C288.464 187.499 288.235 186.374 288.235 185.03C288.235 183.677 288.464 182.547 288.921 181.642C289.211 181.073 289.598 180.634 290.083 180.326C290.578 180.009 291.152 179.85 291.805 179.85C292.459 179.85 293.028 180.009 293.513 180.326C294.008 180.634 294.4 181.073 294.689 181.642C295.147 182.547 295.375 183.677 295.375 185.03C295.375 186.374 295.147 187.499 294.689 188.404C294.4 188.973 294.008 189.417 293.513 189.734C293.028 190.051 292.459 190.21 291.805 190.21ZM291.805 189.398C292.72 189.398 293.406 188.922 293.863 187.97C294.227 187.195 294.409 186.215 294.409 185.03C294.409 183.826 294.227 182.841 293.863 182.076C293.415 181.133 292.729 180.662 291.805 180.662C290.881 180.662 290.195 181.133 289.747 182.076C289.383 182.841 289.201 183.826 289.201 185.03C289.201 186.225 289.383 187.205 289.747 187.97C290.205 188.922 290.891 189.398 291.805 189.398Z" fill="#5C5C66"/>
<path d="M57.568 128C57.4187 128 57.2973 127.958 57.204 127.874C57.12 127.781 57.078 127.659 57.078 127.51V118.55C57.078 118.391 57.12 118.27 57.204 118.186C57.2973 118.102 57.4187 118.06 57.568 118.06H60.942C61.8753 118.06 62.6733 118.27 63.336 118.69C64.008 119.11 64.5167 119.698 64.862 120.454C65.2167 121.201 65.394 122.059 65.394 123.03C65.394 124.001 65.2167 124.864 64.862 125.62C64.5167 126.367 64.008 126.95 63.336 127.37C62.6733 127.79 61.8753 128 60.942 128H57.568ZM60.704 126.656C61.656 126.656 62.4027 126.343 62.944 125.718C63.4947 125.083 63.77 124.187 63.77 123.03C63.77 121.873 63.4947 120.981 62.944 120.356C62.4027 119.721 61.656 119.404 60.704 119.404H58.674V126.656H60.704ZM67.5358 119.754C67.2651 119.754 67.0364 119.665 66.8498 119.488C66.6631 119.301 66.5698 119.082 66.5698 118.83C66.5698 118.569 66.6631 118.349 66.8498 118.172C67.0364 117.995 67.2651 117.906 67.5358 117.906C67.8064 117.906 68.0351 117.995 68.2218 118.172C68.4084 118.349 68.5018 118.569 68.5018 118.83C68.5018 119.082 68.4084 119.301 68.2218 119.488C68.0351 119.665 67.8064 119.754 67.5358 119.754ZM67.2698 128C67.1204 128 66.9991 127.958 66.9058 127.874C66.8218 127.781 66.7798 127.659 66.7798 127.51V121.588C66.7798 121.429 66.8218 121.308 66.9058 121.224C66.9991 121.14 67.1204 121.098 67.2698 121.098H67.7738C67.9324 121.098 68.0538 121.14 68.1378 121.224C68.2218 121.308 68.2638 121.429 68.2638 121.588V127.51C68.2638 127.659 68.2218 127.781 68.1378 127.874C68.0538 127.958 67.9324 128 67.7738 128H67.2698ZM72.639 128.21C72.0697 128.21 71.561 128.14 71.113 128C70.6743 127.851 70.2263 127.594 69.769 127.23C69.629 127.127 69.559 127.011 69.559 126.88C69.559 126.777 69.6103 126.665 69.713 126.544L69.923 126.306C70.035 126.175 70.1563 126.11 70.287 126.11C70.3897 126.11 70.5017 126.157 70.623 126.25C71.015 126.539 71.3603 126.74 71.659 126.852C71.9577 126.955 72.2937 127.006 72.667 127.006C73.0683 127.006 73.395 126.927 73.647 126.768C73.9083 126.6 74.039 126.376 74.039 126.096C74.039 125.881 73.9643 125.713 73.815 125.592C73.675 125.461 73.4883 125.363 73.255 125.298C73.0217 125.223 72.6763 125.139 72.219 125.046C71.575 124.906 71.071 124.757 70.707 124.598C70.3523 124.43 70.0957 124.22 69.937 123.968C69.7783 123.716 69.699 123.394 69.699 123.002C69.699 122.601 69.811 122.241 70.035 121.924C70.2683 121.607 70.5903 121.355 71.001 121.168C71.421 120.981 71.911 120.888 72.471 120.888C72.975 120.888 73.423 120.944 73.815 121.056C74.2163 121.168 74.6083 121.359 74.991 121.63C75.1403 121.742 75.215 121.868 75.215 122.008C75.215 122.101 75.1683 122.209 75.075 122.33L74.893 122.554C74.7903 122.685 74.6643 122.75 74.515 122.75C74.403 122.75 74.2957 122.713 74.193 122.638C73.885 122.433 73.6003 122.293 73.339 122.218C73.0777 122.134 72.7837 122.092 72.457 122.092C72.0557 122.092 71.7337 122.171 71.491 122.33C71.2483 122.489 71.127 122.694 71.127 122.946C71.127 123.114 71.183 123.249 71.295 123.352C71.4163 123.445 71.5843 123.529 71.799 123.604C72.023 123.669 72.373 123.753 72.849 123.856C73.493 123.996 74.0017 124.155 74.375 124.332C74.7577 124.5 75.0377 124.719 75.215 124.99C75.4017 125.251 75.495 125.592 75.495 126.012C75.495 126.665 75.2337 127.197 74.711 127.608C74.1977 128.009 73.507 128.21 72.639 128.21ZM80.0786 126.824C80.1066 126.815 80.1486 126.81 80.2046 126.81C80.4379 126.81 80.5779 126.945 80.6246 127.216L80.6666 127.44C80.6759 127.468 80.6806 127.515 80.6806 127.58C80.6806 127.813 80.5499 127.963 80.2886 128.028C79.9152 128.112 79.5746 128.154 79.2666 128.154C78.6039 128.154 78.1232 128 77.8246 127.692C77.5352 127.384 77.3906 126.922 77.3906 126.306V122.232H76.6206C76.4712 122.232 76.3499 122.19 76.2566 122.106C76.1726 122.013 76.1306 121.891 76.1306 121.742V121.588C76.1306 121.429 76.1726 121.308 76.2566 121.224C76.3499 121.14 76.4712 121.098 76.6206 121.098H77.3906V119.362C77.3906 119.203 77.4326 119.082 77.5166 118.998C77.6099 118.914 77.7312 118.872 77.8806 118.872H78.3846C78.5432 118.872 78.6646 118.914 78.7486 118.998C78.8326 119.082 78.8746 119.203 78.8746 119.362V121.098H80.1346C80.2932 121.098 80.4146 121.14 80.4986 121.224C80.5826 121.308 80.6246 121.429 80.6246 121.588V121.742C80.6246 121.891 80.5826 122.013 80.4986 122.106C80.4146 122.19 80.2932 122.232 80.1346 122.232H78.8746V126.124C78.8746 126.395 78.9306 126.586 79.0426 126.698C79.1639 126.81 79.3552 126.866 79.6166 126.866C79.7286 126.866 79.8826 126.852 80.0786 126.824ZM84.7719 120.888C85.7052 120.888 86.4239 121.107 86.9279 121.546C87.4319 121.975 87.6839 122.549 87.6839 123.268V127.51C87.6839 127.659 87.6419 127.781 87.5579 127.874C87.4739 127.958 87.3525 128 87.1939 128H86.8299C86.6805 128 86.5592 127.958 86.4659 127.874C86.3819 127.781 86.3399 127.659 86.3399 127.51V127.202C86.1159 127.529 85.8079 127.781 85.4159 127.958C85.0239 128.135 84.5665 128.224 84.0439 128.224C83.3252 128.224 82.7325 128.065 82.2659 127.748C81.8085 127.421 81.5799 126.931 81.5799 126.278C81.5799 125.55 81.8505 125.013 82.3919 124.668C82.9425 124.313 83.7032 124.047 84.6739 123.87L86.2559 123.576V123.324C86.2559 122.941 86.1205 122.647 85.8499 122.442C85.5885 122.227 85.2385 122.12 84.7999 122.12C84.4265 122.12 84.0999 122.185 83.8199 122.316C83.5492 122.437 83.2552 122.643 82.9379 122.932C82.8165 123.035 82.6999 123.086 82.5879 123.086C82.4759 123.086 82.3592 123.035 82.2379 122.932L82.0139 122.736C81.8925 122.624 81.8319 122.503 81.8319 122.372C81.8319 122.251 81.8879 122.134 81.9999 122.022C82.4012 121.639 82.8259 121.355 83.2739 121.168C83.7219 120.981 84.2212 120.888 84.7719 120.888ZM84.2539 127.034C84.8139 127.034 85.2852 126.885 85.6679 126.586C86.0599 126.287 86.2559 125.858 86.2559 125.298V124.654L85.0379 124.906C84.3565 125.046 83.8525 125.205 83.5259 125.382C83.1992 125.559 83.0359 125.83 83.0359 126.194C83.0359 126.455 83.1432 126.661 83.3579 126.81C83.5725 126.959 83.8712 127.034 84.2539 127.034ZM92.8934 120.888C93.6867 120.888 94.2934 121.112 94.7134 121.56C95.1427 121.999 95.3574 122.568 95.3574 123.268V127.51C95.3574 127.659 95.3154 127.781 95.2314 127.874C95.1474 127.958 95.0261 128 94.8674 128H94.3634C94.2141 128 94.0927 127.958 93.9994 127.874C93.9154 127.781 93.8734 127.659 93.8734 127.51V123.73C93.8734 123.226 93.7474 122.839 93.4954 122.568C93.2527 122.297 92.9027 122.162 92.4454 122.162C91.9974 122.162 91.6194 122.316 91.3114 122.624C91.0127 122.932 90.8634 123.319 90.8634 123.786V127.51C90.8634 127.659 90.8214 127.781 90.7374 127.874C90.6534 127.958 90.5321 128 90.3734 128H89.8694C89.7201 128 89.5987 127.958 89.5054 127.874C89.4214 127.781 89.3794 127.659 89.3794 127.51V121.588C89.3794 121.429 89.4214 121.308 89.5054 121.224C89.5987 121.14 89.7201 121.098 89.8694 121.098H90.2754C90.4341 121.098 90.5554 121.14 90.6394 121.224C90.7234 121.308 90.7654 121.429 90.7654 121.588V121.952C90.9894 121.607 91.2834 121.345 91.6474 121.168C92.0114 120.981 92.4267 120.888 92.8934 120.888ZM100.101 128.21C99.4197 128.21 98.8177 128.061 98.295 127.762C97.7817 127.463 97.3803 127.039 97.091 126.488C96.811 125.928 96.671 125.279 96.671 124.542C96.671 123.805 96.8157 123.161 97.105 122.61C97.3943 122.059 97.8003 121.635 98.323 121.336C98.8457 121.037 99.4477 120.888 100.129 120.888C100.624 120.888 101.067 120.963 101.459 121.112C101.86 121.252 102.243 121.495 102.607 121.84C102.719 121.952 102.775 122.069 102.775 122.19C102.775 122.302 102.714 122.419 102.593 122.54L102.355 122.778C102.252 122.881 102.14 122.932 102.019 122.932C101.898 122.932 101.772 122.876 101.641 122.764C101.37 122.531 101.114 122.372 100.871 122.288C100.638 122.195 100.386 122.148 100.115 122.148C99.499 122.148 99.023 122.377 98.687 122.834C98.351 123.291 98.183 123.861 98.183 124.542C98.183 125.223 98.351 125.797 98.687 126.264C99.023 126.721 99.499 126.95 100.115 126.95C100.414 126.95 100.689 126.894 100.941 126.782C101.193 126.661 101.464 126.46 101.753 126.18C101.874 126.059 102 125.998 102.131 125.998C102.243 125.998 102.35 126.045 102.453 126.138L102.691 126.334C102.812 126.437 102.873 126.553 102.873 126.684C102.873 126.824 102.803 126.973 102.663 127.132C102.28 127.524 101.884 127.804 101.473 127.972C101.072 128.131 100.614 128.21 100.101 128.21ZM108.909 126.236C109.031 126.133 109.147 126.082 109.259 126.082C109.371 126.082 109.488 126.143 109.609 126.264L109.805 126.474C109.908 126.595 109.959 126.712 109.959 126.824C109.959 126.945 109.899 127.062 109.777 127.174C109.348 127.547 108.919 127.813 108.489 127.972C108.069 128.131 107.603 128.21 107.089 128.21C106.371 128.21 105.745 128.061 105.213 127.762C104.691 127.463 104.285 127.043 103.995 126.502C103.715 125.951 103.575 125.317 103.575 124.598C103.575 123.889 103.711 123.254 103.981 122.694C104.261 122.125 104.653 121.681 105.157 121.364C105.671 121.047 106.268 120.888 106.949 120.888C107.967 120.888 108.751 121.191 109.301 121.798C109.852 122.395 110.127 123.221 110.127 124.276V124.402C110.118 124.551 110.071 124.668 109.987 124.752C109.903 124.836 109.782 124.878 109.623 124.878H105.031C105.087 125.494 105.288 125.998 105.633 126.39C105.988 126.773 106.483 126.964 107.117 126.964C107.463 126.964 107.766 126.913 108.027 126.81C108.289 126.698 108.583 126.507 108.909 126.236ZM106.921 122.064C106.408 122.064 105.993 122.218 105.675 122.526C105.367 122.825 105.167 123.249 105.073 123.8H108.671C108.634 123.259 108.466 122.834 108.167 122.526C107.869 122.218 107.453 122.064 106.921 122.064Z" fill="#1B1B1F"/>
<rect x="56" y="152" width="240" height="4" rx="2" fill="#DEDEE3"/>
<rect x="56" y="151" width="154" height="6" rx="3" fill="#0063FB"/>
<g filter="url(#filter0_dd_5483_11837)">
<rect x="178.5" y="93" width="63" height="32" rx="4" fill="#1B1B1F"/>
<path d="M190.532 108.092C191.521 108.092 192.324 108.344 192.94 108.848C193.556 109.352 193.864 110.071 193.864 111.004C193.864 111.527 193.733 112.035 193.472 112.53C193.22 113.025 192.842 113.431 192.338 113.748C191.834 114.056 191.227 114.21 190.518 114.21C189.93 114.21 189.365 114.126 188.824 113.958C188.292 113.781 187.746 113.515 187.186 113.16C187.093 113.104 187.046 113.029 187.046 112.936C187.046 112.871 187.065 112.815 187.102 112.768L187.284 112.516C187.34 112.432 187.41 112.39 187.494 112.39C187.569 112.39 187.629 112.409 187.676 112.446C188.227 112.791 188.712 113.039 189.132 113.188C189.561 113.328 190.014 113.398 190.49 113.398C190.975 113.398 191.4 113.295 191.764 113.09C192.128 112.875 192.408 112.591 192.604 112.236C192.809 111.872 192.912 111.466 192.912 111.018C192.912 110.346 192.697 109.819 192.268 109.436C191.839 109.053 191.199 108.862 190.35 108.862C189.995 108.862 189.683 108.899 189.412 108.974C189.384 108.983 189.347 108.988 189.3 108.988C189.197 108.988 189.113 108.941 189.048 108.848L188.894 108.638C188.847 108.563 188.824 108.498 188.824 108.442C188.824 108.367 188.857 108.302 188.922 108.246L192.45 104.872H187.718C187.531 104.872 187.438 104.779 187.438 104.592V104.34C187.438 104.153 187.531 104.06 187.718 104.06H193.346C193.533 104.06 193.626 104.153 193.626 104.34V104.648C193.626 104.779 193.575 104.895 193.472 104.998L190.196 108.106L190.532 108.092ZM199.044 107.588C199.688 107.588 200.252 107.723 200.738 107.994C201.232 108.255 201.615 108.629 201.886 109.114C202.156 109.599 202.292 110.159 202.292 110.794C202.292 111.363 202.156 111.909 201.886 112.432C201.615 112.955 201.223 113.379 200.71 113.706C200.196 114.033 199.594 114.196 198.904 114.196C198.232 114.196 197.648 114.112 197.154 113.944C196.668 113.776 196.118 113.487 195.502 113.076C195.408 113.02 195.362 112.945 195.362 112.852C195.362 112.787 195.38 112.731 195.418 112.684L195.6 112.432C195.656 112.348 195.721 112.306 195.796 112.306C195.852 112.306 195.917 112.329 195.992 112.376C196.561 112.759 197.046 113.025 197.448 113.174C197.858 113.323 198.311 113.398 198.806 113.398C199.328 113.398 199.781 113.281 200.164 113.048C200.546 112.805 200.836 112.488 201.032 112.096C201.237 111.695 201.34 111.261 201.34 110.794C201.34 110.047 201.13 109.464 200.71 109.044C200.299 108.624 199.706 108.414 198.932 108.414C198.101 108.414 197.406 108.666 196.846 109.17C196.743 109.263 196.622 109.301 196.482 109.282L196.174 109.24C196.09 109.231 196.024 109.198 195.978 109.142C195.931 109.086 195.912 109.016 195.922 108.932L196.3 104.326C196.309 104.242 196.337 104.177 196.384 104.13C196.44 104.083 196.51 104.06 196.594 104.06H201.578C201.764 104.06 201.858 104.153 201.858 104.34V104.592C201.858 104.779 201.764 104.872 201.578 104.872H197.126L196.832 108.316C197.093 108.101 197.41 107.929 197.784 107.798C198.166 107.658 198.586 107.588 199.044 107.588ZM207.27 114.21C206.617 114.21 206.043 114.051 205.548 113.734C205.063 113.417 204.676 112.973 204.386 112.404C203.929 111.499 203.7 110.374 203.7 109.03C203.7 107.677 203.929 106.547 204.386 105.642C204.676 105.073 205.063 104.634 205.548 104.326C206.043 104.009 206.617 103.85 207.27 103.85C207.924 103.85 208.493 104.009 208.978 104.326C209.473 104.634 209.865 105.073 210.154 105.642C210.612 106.547 210.84 107.677 210.84 109.03C210.84 110.374 210.612 111.499 210.154 112.404C209.865 112.973 209.473 113.417 208.978 113.734C208.493 114.051 207.924 114.21 207.27 114.21ZM207.27 113.398C208.185 113.398 208.871 112.922 209.328 111.97C209.692 111.195 209.874 110.215 209.874 109.03C209.874 107.826 209.692 106.841 209.328 106.076C208.88 105.133 208.194 104.662 207.27 104.662C206.346 104.662 205.66 105.133 205.212 106.076C204.848 106.841 204.666 107.826 204.666 109.03C204.666 110.225 204.848 111.205 205.212 111.97C205.67 112.922 206.356 113.398 207.27 113.398ZM220.711 114C220.571 114 220.459 113.939 220.375 113.818L218.009 110.374L216.651 111.76V113.72C216.651 113.907 216.558 114 216.371 114H216.007C215.821 114 215.727 113.907 215.727 113.72V104.34C215.727 104.153 215.821 104.06 216.007 104.06H216.371C216.558 104.06 216.651 104.153 216.651 104.34V110.71L220.011 107.224C220.095 107.131 220.212 107.084 220.361 107.084H220.753C220.828 107.084 220.884 107.103 220.921 107.14C220.968 107.168 220.991 107.205 220.991 107.252C220.991 107.299 220.963 107.359 220.907 107.434L218.653 109.786L221.299 113.664C221.337 113.729 221.355 113.785 221.355 113.832C221.355 113.944 221.281 114 221.131 114H220.711ZM229.714 106.93C230.461 106.93 231.03 107.145 231.422 107.574C231.823 107.994 232.024 108.535 232.024 109.198V113.72C232.024 113.907 231.931 114 231.744 114H231.38C231.193 114 231.1 113.907 231.1 113.72V109.45C231.1 108.89 230.969 108.461 230.708 108.162C230.456 107.863 230.078 107.714 229.574 107.714C229.042 107.714 228.617 107.891 228.3 108.246C227.983 108.601 227.824 109.058 227.824 109.618V113.72C227.824 113.907 227.731 114 227.544 114H227.18C226.993 114 226.9 113.907 226.9 113.72V109.45C226.9 108.89 226.769 108.461 226.508 108.162C226.256 107.863 225.873 107.714 225.36 107.714C224.884 107.714 224.487 107.863 224.17 108.162C223.862 108.461 223.68 108.853 223.624 109.338V113.72C223.624 113.907 223.531 114 223.344 114H222.98C222.793 114 222.7 113.907 222.7 113.72V107.378C222.7 107.191 222.793 107.098 222.98 107.098H223.288C223.475 107.098 223.568 107.191 223.568 107.378V107.952C223.988 107.271 224.655 106.93 225.57 106.93C226.046 106.93 226.452 107.037 226.788 107.252C227.133 107.457 227.39 107.737 227.558 108.092C228.053 107.317 228.771 106.93 229.714 106.93Z" fill="white"/>
<path d="M208.586 131.586L204.343 127.343C202.843 125.843 200.808 125 198.686 125H221.314C219.192 125 217.157 125.843 215.657 127.343L211.414 131.586C210.633 132.367 209.367 132.367 208.586 131.586Z" fill="#1B1B1F"/>
</g>
<path d="M196 154C196 146.268 202.268 140 210 140C217.732 140 224 146.268 224 154C224 161.732 217.732 168 210 168C202.268 168 196 161.732 196 154Z" fill="#00337F"/>
<path d="M210 136C219.941 136 228 144.059 228 154C228 163.941 219.941 172 210 172C200.059 172 192 163.941 192 154C192 144.059 200.059 136 210 136Z" stroke="black" stroke-opacity="0.08" stroke-width="8"/>
<rect y="103" width="40" height="40" rx="20" fill="#BE3830"/>
<path d="M18.2898 119.04V117.878H20.9218V128H19.6338V119.04H18.2898Z" fill="white"/>
<rect width="12" height="3" transform="translate(40 121.5)" fill="#BE3830"/>
<rect x="190" y="24" width="41" height="40" rx="20" fill="#BE3830"/>
<path d="M207.218 41.426C207.283 40.5673 207.615 39.8953 208.212 39.41C208.809 38.9247 209.584 38.682 210.536 38.682C211.171 38.682 211.717 38.7987 212.174 39.032C212.641 39.256 212.991 39.564 213.224 39.956C213.467 40.348 213.588 40.7913 213.588 41.286C213.588 41.8647 213.42 42.364 213.084 42.784C212.757 43.204 212.328 43.4747 211.796 43.596V43.666C212.403 43.8153 212.883 44.1093 213.238 44.548C213.593 44.9867 213.77 45.5607 213.77 46.27C213.77 46.802 213.649 47.2827 213.406 47.712C213.163 48.132 212.799 48.4633 212.314 48.706C211.829 48.9487 211.245 49.07 210.564 49.07C209.575 49.07 208.763 48.8133 208.128 48.3C207.493 47.7773 207.139 47.04 207.064 46.088H208.296C208.361 46.648 208.59 47.1053 208.982 47.46C209.374 47.8147 209.897 47.992 210.55 47.992C211.203 47.992 211.698 47.824 212.034 47.488C212.379 47.1427 212.552 46.6993 212.552 46.158C212.552 45.458 212.319 44.954 211.852 44.646C211.385 44.338 210.681 44.184 209.738 44.184H209.416V43.12H209.752C210.611 43.1107 211.259 42.9707 211.698 42.7C212.137 42.42 212.356 41.9907 212.356 41.412C212.356 40.9173 212.193 40.5207 211.866 40.222C211.549 39.9233 211.091 39.774 210.494 39.774C209.915 39.774 209.449 39.9233 209.094 40.222C208.739 40.5207 208.529 40.922 208.464 41.426H207.218Z" fill="white"/>
<rect width="25" height="3" transform="translate(212 64) rotate(90)" fill="#BE3830"/>
<rect x="125" y="24" width="41" height="40" rx="20" fill="#BE3830"/>
<path d="M142.188 47.978C143.373 47.026 144.302 46.2467 144.974 45.64C145.646 45.024 146.21 44.3847 146.668 43.722C147.134 43.05 147.368 42.392 147.368 41.748C147.368 41.1413 147.218 40.6653 146.92 40.32C146.63 39.9653 146.159 39.788 145.506 39.788C144.871 39.788 144.376 39.9887 144.022 40.39C143.676 40.782 143.49 41.3093 143.462 41.972H142.23C142.267 40.9267 142.584 40.1193 143.182 39.55C143.779 38.9807 144.549 38.696 145.492 38.696C146.453 38.696 147.214 38.962 147.774 39.494C148.343 40.026 148.628 40.7587 148.628 41.692C148.628 42.4667 148.394 43.2227 147.928 43.96C147.47 44.688 146.948 45.332 146.36 45.892C145.772 46.4427 145.02 47.0867 144.106 47.824H148.922V48.888H142.188V47.978Z" fill="white"/>
<rect width="83" height="3" transform="translate(147 64) rotate(90)" fill="#BE3830"/>
<rect x="255" y="24" width="41" height="40" rx="20" fill="#BE3830"/>
<path d="M271.658 46.746V45.78L276.572 38.976H278.098V45.64H279.498V46.746H278.098V49H276.838V46.746H271.658ZM276.894 40.306L273.128 45.64H276.894V40.306Z" fill="white"/>
<rect width="83" height="3" transform="translate(277 64) rotate(90)" fill="#BE3830"/>
<rect width="124" height="3" transform="translate(211 180) rotate(90)" fill="#BE3830"/>
<rect x="189" y="304" width="41" height="40" rx="20" fill="#BE3830"/>
<path d="M212.426 319.984H207.512V323.176C207.727 322.877 208.044 322.635 208.464 322.448C208.884 322.252 209.337 322.154 209.822 322.154C210.597 322.154 211.227 322.317 211.712 322.644C212.198 322.961 212.543 323.377 212.748 323.89C212.963 324.394 213.07 324.931 213.07 325.5C213.07 326.172 212.944 326.774 212.692 327.306C212.44 327.838 212.053 328.258 211.53 328.566C211.017 328.874 210.378 329.028 209.612 329.028C208.632 329.028 207.839 328.776 207.232 328.272C206.626 327.768 206.257 327.096 206.126 326.256H207.372C207.494 326.788 207.75 327.203 208.142 327.502C208.534 327.801 209.029 327.95 209.626 327.95C210.364 327.95 210.919 327.731 211.292 327.292C211.666 326.844 211.852 326.256 211.852 325.528C211.852 324.8 211.666 324.24 211.292 323.848C210.919 323.447 210.368 323.246 209.64 323.246C209.146 323.246 208.712 323.367 208.338 323.61C207.974 323.843 207.708 324.165 207.54 324.576H206.336V318.864H212.426V319.984Z" fill="white"/>
<rect y="165" width="41" height="40" rx="20" fill="#BE3830"/>
<path d="M22.5666 182.286C22.3613 181.25 21.722 180.732 20.6486 180.732C19.818 180.732 19.1973 181.054 18.7866 181.698C18.376 182.333 18.1753 183.383 18.1846 184.848C18.3993 184.363 18.754 183.985 19.2486 183.714C19.7526 183.434 20.3126 183.294 20.9286 183.294C21.89 183.294 22.6553 183.593 23.2246 184.19C23.8033 184.787 24.0926 185.613 24.0926 186.668C24.0926 187.303 23.9666 187.872 23.7146 188.376C23.472 188.88 23.0986 189.281 22.5946 189.58C22.1 189.879 21.498 190.028 20.7886 190.028C19.8273 190.028 19.076 189.813 18.5346 189.384C17.9933 188.955 17.6153 188.362 17.4006 187.606C17.186 186.85 17.0786 185.917 17.0786 184.806C17.0786 181.381 18.2733 179.668 20.6626 179.668C21.5773 179.668 22.296 179.915 22.8186 180.41C23.3413 180.905 23.6493 181.53 23.7426 182.286H22.5666ZM20.6626 184.372C20.2613 184.372 19.8833 184.456 19.5286 184.624C19.174 184.783 18.8846 185.03 18.6606 185.366C18.446 185.693 18.3386 186.094 18.3386 186.57C18.3386 187.279 18.544 187.858 18.9546 188.306C19.3653 188.745 19.9533 188.964 20.7186 188.964C21.372 188.964 21.89 188.763 22.2726 188.362C22.6646 187.951 22.8606 187.401 22.8606 186.71C22.8606 185.982 22.674 185.413 22.3006 185.002C21.9273 184.582 21.3813 184.372 20.6626 184.372Z" fill="white"/>
<rect width="11" height="3" transform="translate(41 183.5)" fill="#BE3830"/>
<rect width="12" height="3" transform="translate(300 183.5)" fill="#BE3830"/>
<rect x="312" y="165" width="40" height="40" rx="20" fill="#BE3830"/>
<path d="M335.277 180.872L331.385 190H330.097L334.045 180.998H328.641V179.906H335.277V180.872Z" fill="white"/>
<rect y="210" width="41" height="40" rx="20" fill="#BE3830"/>
<path d="M18.8 229.736C18.2773 229.531 17.876 229.232 17.596 228.84C17.316 228.448 17.176 227.972 17.176 227.412C17.176 226.908 17.302 226.455 17.554 226.054C17.806 225.643 18.1793 225.321 18.674 225.088C19.178 224.845 19.7847 224.724 20.494 224.724C21.2033 224.724 21.8053 224.845 22.3 225.088C22.804 225.321 23.182 225.643 23.434 226.054C23.6953 226.455 23.826 226.908 23.826 227.412C23.826 227.953 23.6813 228.429 23.392 228.84C23.1027 229.241 22.706 229.54 22.202 229.736C22.7807 229.913 23.238 230.226 23.574 230.674C23.9193 231.113 24.092 231.645 24.092 232.27C24.092 232.877 23.9427 233.409 23.644 233.866C23.3453 234.314 22.9207 234.664 22.37 234.916C21.8287 235.159 21.2033 235.28 20.494 235.28C19.7847 235.28 19.1593 235.159 18.618 234.916C18.086 234.664 17.6707 234.314 17.372 233.866C17.0733 233.409 16.924 232.877 16.924 232.27C16.924 231.645 17.092 231.108 17.428 230.66C17.764 230.212 18.2213 229.904 18.8 229.736ZM22.594 227.566C22.594 226.997 22.4073 226.558 22.034 226.25C21.6607 225.942 21.1473 225.788 20.494 225.788C19.85 225.788 19.3413 225.942 18.968 226.25C18.5947 226.558 18.408 227.001 18.408 227.58C18.408 228.103 18.5993 228.523 18.982 228.84C19.374 229.157 19.878 229.316 20.494 229.316C21.1193 229.316 21.6233 229.157 22.006 228.84C22.398 228.513 22.594 228.089 22.594 227.566ZM20.494 230.296C19.8033 230.296 19.2387 230.459 18.8 230.786C18.3613 231.103 18.142 231.584 18.142 232.228C18.142 232.825 18.352 233.306 18.772 233.67C19.2013 234.034 19.7753 234.216 20.494 234.216C21.2127 234.216 21.782 234.034 22.202 233.67C22.622 233.306 22.832 232.825 22.832 232.228C22.832 231.603 22.6173 231.127 22.188 230.8C21.7587 230.464 21.194 230.296 20.494 230.296Z" fill="white"/>
<rect width="11" height="3" transform="translate(41 228.5)" fill="#BE3830"/>
<rect width="62" height="3" transform="translate(161 242) rotate(90)" fill="#BE3830"/>
<rect x="139" y="304" width="41" height="40" rx="20" fill="#BE3830"/>
<path d="M157.597 326.284C157.69 326.816 157.905 327.227 158.241 327.516C158.586 327.805 159.048 327.95 159.627 327.95C160.401 327.95 160.971 327.647 161.335 327.04C161.708 326.433 161.885 325.411 161.867 323.974C161.671 324.394 161.344 324.725 160.887 324.968C160.429 325.201 159.921 325.318 159.361 325.318C158.735 325.318 158.175 325.192 157.681 324.94C157.195 324.679 156.813 324.301 156.533 323.806C156.253 323.311 156.113 322.714 156.113 322.014C156.113 321.015 156.402 320.213 156.981 319.606C157.559 318.99 158.381 318.682 159.445 318.682C160.751 318.682 161.666 319.107 162.189 319.956C162.721 320.805 162.987 322.07 162.987 323.75C162.987 324.926 162.879 325.897 162.665 326.662C162.459 327.427 162.105 328.011 161.601 328.412C161.106 328.813 160.425 329.014 159.557 329.014C158.605 329.014 157.863 328.757 157.331 328.244C156.799 327.731 156.495 327.077 156.421 326.284H157.597ZM159.571 324.24C160.196 324.24 160.709 324.049 161.111 323.666C161.512 323.274 161.713 322.747 161.713 322.084C161.713 321.384 161.517 320.819 161.125 320.39C160.733 319.961 160.182 319.746 159.473 319.746C158.819 319.746 158.297 319.951 157.905 320.362C157.522 320.773 157.331 321.314 157.331 321.986C157.331 322.667 157.522 323.213 157.905 323.624C158.287 324.035 158.843 324.24 159.571 324.24Z" fill="white"/>
<defs>
<filter id="filter0_dd_5483_11837" x="170.5" y="88" width="79" height="55.1716" filterUnits="userSpaceOnUse" color-interpolation-filters="sRGB">
<feFlood flood-opacity="0" result="BackgroundImageFix"/>
<feColorMatrix in="SourceAlpha" type="matrix" values="0 0 0 0 0 0 0 0 0 0 0 0 0 0 0 0 0 0 127 0" result="hardAlpha"/>
<feOffset dy="3"/>
<feGaussianBlur stdDeviation="4"/>
<feComposite in2="hardAlpha" operator="out"/>
<feColorMatrix type="matrix" values="0 0 0 0 0 0 0 0 0 0 0 0 0 0 0 0 0 0 0.16 0"/>
<feBlend mode="normal" in2="BackgroundImageFix" result="effect1_dropShadow_5483_11837"/>
<feColorMatrix in="SourceAlpha" type="matrix" values="0 0 0 0 0 0 0 0 0 0 0 0 0 0 0 0 0 0 127 0" result="hardAlpha"/>
<feOffset dy="3"/>
<feGaussianBlur stdDeviation="3"/>
<feComposite in2="hardAlpha" operator="out"/>
<feColorMatrix type="matrix" values="0 0 0 0 0 0 0 0 0 0 0 0 0 0 0 0 0 0 0.1 0"/>
<feBlend mode="normal" in2="effect1_dropShadow_5483_11837" result="effect2_dropShadow_5483_11837"/>
<feBlend mode="normal" in="SourceGraphic" in2="effect2_dropShadow_5483_11837" result="shape"/>
</filter>
<clipPath id="clip0_5483_11837">
<rect width="104" height="22" fill="white" transform="translate(64 219)"/>
</clipPath>
</defs>
</svg>
