<svg width="464" height="300" viewBox="0 0 464 300" fill="none" xmlns="http://www.w3.org/2000/svg">
<rect width="464" height="300" rx="8" fill="white"/>
<rect x="69.5" y="172.5" width="162" height="47" rx="3.5" fill="white"/>
<rect x="69.5" y="172.5" width="162" height="47" rx="3.5" stroke="#CACAD1"/>
<g clip-path="url(#clip0_26483_5972)">
<path d="M78.696 201C78.4827 201 78.376 200.893 78.376 200.68V189.96C78.376 189.747 78.4827 189.64 78.696 189.64H79.192C79.4053 189.64 79.512 189.747 79.512 189.96V194.664H86.072V189.96C86.072 189.747 86.1787 189.64 86.392 189.64H86.888C87.1013 189.64 87.208 189.747 87.208 189.96V200.68C87.208 200.893 87.1013 201 86.888 201H86.392C86.1787 201 86.072 200.893 86.072 200.68V195.608H79.512V200.68C79.512 200.893 79.4053 201 79.192 201H78.696ZM90.2901 191.112C90.0768 191.112 89.8955 191.037 89.7461 190.888C89.6075 190.739 89.5381 190.557 89.5381 190.344C89.5381 190.131 89.6075 189.955 89.7461 189.816C89.8955 189.677 90.0768 189.608 90.2901 189.608C90.5141 189.608 90.6955 189.677 90.8341 189.816C90.9835 189.955 91.0581 190.131 91.0581 190.344C91.0581 190.557 90.9835 190.739 90.8341 190.888C90.6955 191.037 90.5141 191.112 90.2901 191.112ZM90.0821 201C89.8688 201 89.7621 200.893 89.7621 200.68V193.432C89.7621 193.219 89.8688 193.112 90.0821 193.112H90.4981C90.7115 193.112 90.8181 193.219 90.8181 193.432V200.68C90.8181 200.893 90.7115 201 90.4981 201H90.0821ZM96.6884 192.92C97.6164 192.92 98.315 193.176 98.7844 193.688C99.2644 194.2 99.5044 194.84 99.5044 195.608V200.68C99.5044 200.893 99.3977 201 99.1844 201H98.7684C98.555 201 98.4484 200.893 98.4484 200.68V195.96C98.4484 195.256 98.2777 194.723 97.9364 194.36C97.595 193.997 97.1044 193.816 96.4644 193.816C96.059 193.816 95.6857 193.917 95.3444 194.12C95.003 194.312 94.731 194.579 94.5284 194.92C94.3257 195.261 94.2244 195.635 94.2244 196.04V200.68C94.2244 200.893 94.1177 201 93.9044 201H93.4884C93.275 201 93.1684 200.893 93.1684 200.68V193.432C93.1684 193.219 93.275 193.112 93.4884 193.112H93.8404C94.0537 193.112 94.1604 193.219 94.1604 193.432V194.2C94.427 193.773 94.779 193.453 95.2164 193.24C95.6537 193.027 96.1444 192.92 96.6884 192.92ZM105.174 200.12C105.206 200.109 105.248 200.104 105.302 200.104C105.366 200.104 105.424 200.125 105.478 200.168C105.531 200.211 105.563 200.269 105.574 200.344L105.622 200.568C105.632 200.589 105.638 200.627 105.638 200.68C105.638 200.829 105.558 200.92 105.398 200.952C105.014 201.069 104.603 201.128 104.166 201.128C103.472 201.128 102.976 200.973 102.678 200.664C102.39 200.344 102.246 199.885 102.246 199.288V193.912H101.062C100.848 193.912 100.742 193.805 100.742 193.592V193.432C100.742 193.219 100.848 193.112 101.062 193.112H102.246V190.68C102.246 190.467 102.352 190.36 102.566 190.36H102.982C103.195 190.36 103.302 190.467 103.302 190.68V193.112H105.222C105.435 193.112 105.542 193.219 105.542 193.432V193.592C105.542 193.805 105.435 193.912 105.222 193.912H103.302V199.16C103.302 199.555 103.376 199.832 103.526 199.992C103.675 200.152 103.931 200.232 104.294 200.232C104.55 200.232 104.843 200.195 105.174 200.12Z" fill="#1B1B1F"/>
</g>
<path d="M73.2 156.21C72.5467 156.21 71.9727 156.051 71.478 155.734C70.9927 155.417 70.6053 154.973 70.316 154.404C69.8587 153.499 69.63 152.374 69.63 151.03C69.63 149.677 69.8587 148.547 70.316 147.642C70.6053 147.073 70.9927 146.634 71.478 146.326C71.9727 146.009 72.5467 145.85 73.2 145.85C73.8533 145.85 74.4227 146.009 74.908 146.326C75.4027 146.634 75.7947 147.073 76.084 147.642C76.5413 148.547 76.77 149.677 76.77 151.03C76.77 152.374 76.5413 153.499 76.084 154.404C75.7947 154.973 75.4027 155.417 74.908 155.734C74.4227 156.051 73.8533 156.21 73.2 156.21ZM73.2 155.398C74.1147 155.398 74.8007 154.922 75.258 153.97C75.622 153.195 75.804 152.215 75.804 151.03C75.804 149.826 75.622 148.841 75.258 148.076C74.81 147.133 74.124 146.662 73.2 146.662C72.276 146.662 71.59 147.133 71.142 148.076C70.778 148.841 70.596 149.826 70.596 151.03C70.596 152.225 70.778 153.205 71.142 153.97C71.5993 154.922 72.2853 155.398 73.2 155.398Z" fill="#5C5C66"/>
<path d="M374.997 146.172C375.1 146.097 375.217 146.06 375.347 146.06H375.571C375.758 146.06 375.851 146.153 375.851 146.34V155.72C375.851 155.907 375.758 156 375.571 156H375.193C375.007 156 374.913 155.907 374.913 155.72V147.264L372.799 148.776C372.734 148.823 372.673 148.846 372.617 148.846C372.533 148.846 372.463 148.804 372.407 148.72L372.267 148.51C372.23 148.463 372.211 148.407 372.211 148.342C372.211 148.258 372.253 148.183 372.337 148.118L374.997 146.172ZM382.22 156.21C381.566 156.21 380.992 156.051 380.498 155.734C380.012 155.417 379.625 154.973 379.336 154.404C378.878 153.499 378.65 152.374 378.65 151.03C378.65 149.677 378.878 148.547 379.336 147.642C379.625 147.073 380.012 146.634 380.498 146.326C380.992 146.009 381.566 145.85 382.22 145.85C382.873 145.85 383.442 146.009 383.928 146.326C384.422 146.634 384.814 147.073 385.104 147.642C385.561 148.547 385.79 149.677 385.79 151.03C385.79 152.374 385.561 153.499 385.104 154.404C384.814 154.973 384.422 155.417 383.928 155.734C383.442 156.051 382.873 156.21 382.22 156.21ZM382.22 155.398C383.134 155.398 383.82 154.922 384.278 153.97C384.642 153.195 384.824 152.215 384.824 151.03C384.824 149.826 384.642 148.841 384.278 148.076C383.83 147.133 383.144 146.662 382.22 146.662C381.296 146.662 380.61 147.133 380.162 148.076C379.798 148.841 379.616 149.826 379.616 151.03C379.616 152.225 379.798 153.205 380.162 153.97C380.619 154.922 381.305 155.398 382.22 155.398ZM390.805 156.21C390.152 156.21 389.578 156.051 389.083 155.734C388.598 155.417 388.211 154.973 387.921 154.404C387.464 153.499 387.235 152.374 387.235 151.03C387.235 149.677 387.464 148.547 387.921 147.642C388.211 147.073 388.598 146.634 389.083 146.326C389.578 146.009 390.152 145.85 390.805 145.85C391.459 145.85 392.028 146.009 392.513 146.326C393.008 146.634 393.4 147.073 393.689 147.642C394.147 148.547 394.375 149.677 394.375 151.03C394.375 152.374 394.147 153.499 393.689 154.404C393.4 154.973 393.008 155.417 392.513 155.734C392.028 156.051 391.459 156.21 390.805 156.21ZM390.805 155.398C391.72 155.398 392.406 154.922 392.863 153.97C393.227 153.195 393.409 152.215 393.409 151.03C393.409 149.826 393.227 148.841 392.863 148.076C392.415 147.133 391.729 146.662 390.805 146.662C389.881 146.662 389.195 147.133 388.747 148.076C388.383 148.841 388.201 149.826 388.201 151.03C388.201 152.225 388.383 153.205 388.747 153.97C389.205 154.922 389.891 155.398 390.805 155.398Z" fill="#5C5C66"/>
<path d="M70.568 94C70.4187 94 70.2973 93.958 70.204 93.874C70.12 93.7807 70.078 93.6593 70.078 93.51V84.55C70.078 84.3913 70.12 84.27 70.204 84.186C70.2973 84.102 70.4187 84.06 70.568 84.06H71.184C71.3427 84.06 71.464 84.102 71.548 84.186C71.632 84.27 71.674 84.3913 71.674 84.55V92.642H75.72C75.8787 92.642 76 92.684 76.084 92.768C76.168 92.852 76.21 92.9733 76.21 93.132V93.51C76.21 93.6593 76.168 93.7807 76.084 93.874C76 93.958 75.8787 94 75.72 94H70.568ZM80.5043 86.888C81.4376 86.888 82.1563 87.1073 82.6603 87.546C83.1643 87.9753 83.4163 88.5493 83.4163 89.268V93.51C83.4163 93.6593 83.3743 93.7807 83.2903 93.874C83.2063 93.958 83.0849 94 82.9263 94H82.5623C82.4129 94 82.2916 93.958 82.1983 93.874C82.1143 93.7807 82.0723 93.6593 82.0723 93.51V93.202C81.8483 93.5287 81.5403 93.7807 81.1483 93.958C80.7563 94.1353 80.2989 94.224 79.7763 94.224C79.0576 94.224 78.4649 94.0653 77.9983 93.748C77.5409 93.4213 77.3123 92.9313 77.3123 92.278C77.3123 91.55 77.5829 91.0133 78.1243 90.668C78.6749 90.3133 79.4356 90.0473 80.4063 89.87L81.9883 89.576V89.324C81.9883 88.9413 81.8529 88.6473 81.5823 88.442C81.3209 88.2273 80.9709 88.12 80.5323 88.12C80.1589 88.12 79.8323 88.1853 79.5523 88.316C79.2816 88.4373 78.9876 88.6427 78.6703 88.932C78.5489 89.0347 78.4323 89.086 78.3203 89.086C78.2083 89.086 78.0916 89.0347 77.9703 88.932L77.7463 88.736C77.6249 88.624 77.5643 88.5027 77.5643 88.372C77.5643 88.2507 77.6203 88.134 77.7323 88.022C78.1336 87.6393 78.5583 87.3547 79.0063 87.168C79.4543 86.9813 79.9536 86.888 80.5043 86.888ZM79.9863 93.034C80.5463 93.034 81.0176 92.8847 81.4003 92.586C81.7923 92.2873 81.9883 91.858 81.9883 91.298V90.654L80.7703 90.906C80.0889 91.046 79.5849 91.2047 79.2583 91.382C78.9316 91.5593 78.7683 91.83 78.7683 92.194C78.7683 92.4553 78.8756 92.6607 79.0903 92.81C79.3049 92.9593 79.6036 93.034 79.9863 93.034ZM88.7798 86.916C89.3678 86.916 89.8905 87.0653 90.3478 87.364C90.8145 87.6627 91.1785 88.0873 91.4398 88.638C91.7011 89.1887 91.8318 89.8233 91.8318 90.542C91.8318 91.27 91.7011 91.9093 91.4398 92.46C91.1785 93.0107 90.8145 93.4353 90.3478 93.734C89.8811 94.0327 89.3585 94.182 88.7798 94.182C87.7438 94.182 86.9831 93.7947 86.4978 93.02V93.51C86.4978 93.6593 86.4558 93.7807 86.3718 93.874C86.2878 93.958 86.1665 94 86.0078 94H85.6018C85.4525 94 85.3311 93.958 85.2378 93.874C85.1538 93.7807 85.1118 93.6593 85.1118 93.51V84.55C85.1118 84.3913 85.1538 84.27 85.2378 84.186C85.3311 84.102 85.4525 84.06 85.6018 84.06H86.1058C86.2645 84.06 86.3858 84.102 86.4698 84.186C86.5538 84.27 86.5958 84.3913 86.5958 84.55V87.966C87.0905 87.266 87.8185 86.916 88.7798 86.916ZM88.4718 92.894C89.0318 92.894 89.4798 92.684 89.8158 92.264C90.1518 91.8347 90.3198 91.2607 90.3198 90.542C90.3198 89.8327 90.1518 89.2633 89.8158 88.834C89.4891 88.4047 89.0458 88.19 88.4858 88.19C87.9165 88.19 87.4498 88.4047 87.0858 88.834C86.7218 89.254 86.5398 89.8233 86.5398 90.542C86.5398 91.2793 86.7218 91.858 87.0858 92.278C87.4498 92.6887 87.9118 92.894 88.4718 92.894ZM98.2023 92.236C98.3236 92.1333 98.4403 92.082 98.5523 92.082C98.6643 92.082 98.7809 92.1427 98.9023 92.264L99.0983 92.474C99.2009 92.5953 99.2523 92.712 99.2523 92.824C99.2523 92.9453 99.1916 93.062 99.0703 93.174C98.6409 93.5473 98.2116 93.8133 97.7823 93.972C97.3623 94.1307 96.8956 94.21 96.3823 94.21C95.6636 94.21 95.0383 94.0607 94.5063 93.762C93.9836 93.4633 93.5776 93.0433 93.2883 92.502C93.0083 91.9513 92.8682 91.3167 92.8682 90.598C92.8682 89.8887 93.0036 89.254 93.2743 88.694C93.5543 88.1247 93.9463 87.6813 94.4503 87.364C94.9636 87.0467 95.5609 86.888 96.2423 86.888C97.2596 86.888 98.0436 87.1913 98.5943 87.798C99.1449 88.3953 99.4203 89.2213 99.4203 90.276V90.402C99.4109 90.5513 99.3643 90.668 99.2803 90.752C99.1963 90.836 99.0749 90.878 98.9163 90.878H94.3243C94.3803 91.494 94.5809 91.998 94.9263 92.39C95.2809 92.7727 95.7756 92.964 96.4103 92.964C96.7556 92.964 97.0589 92.9127 97.3203 92.81C97.5816 92.698 97.8756 92.5067 98.2023 92.236ZM96.2143 88.064C95.7009 88.064 95.2856 88.218 94.9683 88.526C94.6603 88.8247 94.4596 89.2493 94.3663 89.8H97.9643C97.9269 89.2587 97.7589 88.834 97.4603 88.526C97.1616 88.218 96.7463 88.064 96.2143 88.064ZM101.326 94C101.176 94 101.055 93.958 100.962 93.874C100.878 93.7807 100.836 93.6593 100.836 93.51V84.55C100.836 84.3913 100.878 84.27 100.962 84.186C101.055 84.102 101.176 84.06 101.326 84.06H101.83C101.988 84.06 102.11 84.102 102.194 84.186C102.278 84.27 102.32 84.3913 102.32 84.55V93.51C102.32 93.6593 102.278 93.7807 102.194 93.874C102.11 93.958 101.988 94 101.83 94H101.326Z" fill="#1B1B1F"/>
<rect x="69" y="118" width="326" height="4" rx="2" fill="#DEDEE3"/>
<rect x="69" y="117" width="240" height="6" rx="3" fill="#0063FB"/>
<g filter="url(#filter0_dd_26483_5972)">
<rect x="296.5" y="59" width="25" height="32" rx="4" fill="#1B1B1F"/>
<path d="M308.7 80.21C308.047 80.21 307.473 80.0513 306.978 79.734C306.493 79.4167 306.105 78.9733 305.816 78.404C305.359 77.4987 305.13 76.374 305.13 75.03C305.13 73.6767 305.359 72.5473 305.816 71.642C306.105 71.0727 306.493 70.634 306.978 70.326C307.473 70.0087 308.047 69.85 308.7 69.85C309.353 69.85 309.923 70.0087 310.408 70.326C310.903 70.634 311.295 71.0727 311.584 71.642C312.041 72.5473 312.27 73.6767 312.27 75.03C312.27 76.374 312.041 77.4987 311.584 78.404C311.295 78.9733 310.903 79.4167 310.408 79.734C309.923 80.0513 309.353 80.21 308.7 80.21ZM308.7 79.398C309.615 79.398 310.301 78.922 310.758 77.97C311.122 77.1953 311.304 76.2153 311.304 75.03C311.304 73.826 311.122 72.8413 310.758 72.076C310.31 71.1333 309.624 70.662 308.7 70.662C307.776 70.662 307.09 71.1333 306.642 72.076C306.278 72.8413 306.096 73.826 306.096 75.03C306.096 76.2247 306.278 77.2047 306.642 77.97C307.099 78.922 307.785 79.398 308.7 79.398Z" fill="white"/>
<path d="M307.586 97.5858L303.343 93.3431C301.843 91.8429 299.808 91 297.686 91H320.314C318.192 91 316.157 91.8429 314.657 93.3431L310.414 97.5858C309.633 98.3668 308.367 98.3668 307.586 97.5858Z" fill="#1B1B1F"/>
</g>
<path d="M295 120C295 112.268 301.268 106 309 106V106C316.732 106 323 112.268 323 120V120C323 127.732 316.732 134 309 134V134C301.268 134 295 127.732 295 120V120Z" fill="#00337F"/>
<path d="M309 102C318.941 102 327 110.059 327 120C327 129.941 318.941 138 309 138C299.059 138 291 129.941 291 120C291 110.059 299.059 102 309 102Z" stroke="black" stroke-opacity="0.08" stroke-width="8"/>
<rect x="168" y="4" width="41" height="40" rx="20" fill="#BE3830"/>
<path d="M184.714 27.978C185.899 27.026 186.828 26.2467 187.5 25.64C188.172 25.024 188.737 24.3847 189.194 23.722C189.661 23.05 189.894 22.392 189.894 21.748C189.894 21.1413 189.745 20.6653 189.446 20.32C189.157 19.9653 188.685 19.788 188.032 19.788C187.397 19.788 186.903 19.9887 186.548 20.39C186.203 20.782 186.016 21.3093 185.988 21.972H184.756C184.793 20.9267 185.111 20.1193 185.708 19.55C186.305 18.9807 187.075 18.696 188.018 18.696C188.979 18.696 189.74 18.962 190.3 19.494C190.869 20.026 191.154 20.7587 191.154 21.692C191.154 22.4667 190.921 23.2227 190.454 23.96C189.997 24.688 189.474 25.332 188.886 25.892C188.298 26.4427 187.547 27.0867 186.632 27.824H191.448V28.888H184.714V27.978Z" fill="white"/>
<rect width="69" height="3" transform="translate(190 44) rotate(90)" fill="#BE3830"/>
<rect x="288" y="4" width="41" height="40" rx="20" fill="#BE3830"/>
<path d="M304.84 21.426C304.905 20.5673 305.237 19.8953 305.834 19.41C306.431 18.9247 307.206 18.682 308.158 18.682C308.793 18.682 309.339 18.7987 309.796 19.032C310.263 19.256 310.613 19.564 310.846 19.956C311.089 20.348 311.21 20.7913 311.21 21.286C311.21 21.8647 311.042 22.364 310.706 22.784C310.379 23.204 309.95 23.4747 309.418 23.596V23.666C310.025 23.8153 310.505 24.1093 310.86 24.548C311.215 24.9867 311.392 25.5607 311.392 26.27C311.392 26.802 311.271 27.2827 311.028 27.712C310.785 28.132 310.421 28.4633 309.936 28.706C309.451 28.9487 308.867 29.07 308.186 29.07C307.197 29.07 306.385 28.8133 305.75 28.3C305.115 27.7773 304.761 27.04 304.686 26.088H305.918C305.983 26.648 306.212 27.1053 306.604 27.46C306.996 27.8147 307.519 27.992 308.172 27.992C308.825 27.992 309.32 27.824 309.656 27.488C310.001 27.1427 310.174 26.6993 310.174 26.158C310.174 25.458 309.941 24.954 309.474 24.646C309.007 24.338 308.303 24.184 307.36 24.184H307.038V23.12H307.374C308.233 23.1107 308.881 22.9707 309.32 22.7C309.759 22.42 309.978 21.9907 309.978 21.412C309.978 20.9173 309.815 20.5207 309.488 20.222C309.171 19.9233 308.713 19.774 308.116 19.774C307.537 19.774 307.071 19.9233 306.716 20.222C306.361 20.5207 306.151 20.922 306.086 21.426H304.84Z" fill="white"/>
<rect width="11" height="3" transform="translate(310 44) rotate(90)" fill="#BE3830"/>
<rect x="337" y="4" width="41" height="40" rx="20" fill="#BE3830"/>
<path d="M353.56 26.746V25.78L358.474 18.976H360V25.64H361.4V26.746H360V29H358.74V26.746H353.56ZM358.796 20.306L355.03 25.64H358.796V20.306Z" fill="white"/>
<rect width="70" height="3" transform="translate(359 44) rotate(90)" fill="#BE3830"/>
<rect width="109" height="3" transform="translate(311 147) rotate(90)" fill="#BE3830"/>
<rect x="289" y="256" width="41" height="40" rx="20" fill="#BE3830"/>
<path d="M312.322 271.984H307.408V275.176C307.623 274.877 307.94 274.635 308.36 274.448C308.78 274.252 309.233 274.154 309.718 274.154C310.493 274.154 311.123 274.317 311.608 274.644C312.093 274.961 312.439 275.377 312.644 275.89C312.859 276.394 312.966 276.931 312.966 277.5C312.966 278.172 312.84 278.774 312.588 279.306C312.336 279.838 311.949 280.258 311.426 280.566C310.913 280.874 310.273 281.028 309.508 281.028C308.528 281.028 307.735 280.776 307.128 280.272C306.521 279.768 306.153 279.096 306.022 278.256H307.268C307.389 278.788 307.646 279.203 308.038 279.502C308.43 279.801 308.925 279.95 309.522 279.95C310.259 279.95 310.815 279.731 311.188 279.292C311.561 278.844 311.748 278.256 311.748 277.528C311.748 276.8 311.561 276.24 311.188 275.848C310.815 275.447 310.264 275.246 309.536 275.246C309.041 275.246 308.607 275.367 308.234 275.61C307.87 275.843 307.604 276.165 307.436 276.576H306.232V270.864H312.322V271.984Z" fill="white"/>
<rect x="4" y="69" width="37" height="40" rx="18.5" fill="#BE3830"/>
<path d="M21.0476 85.04V83.878H23.6796V94H22.3916V85.04H21.0476Z" fill="white"/>
<rect width="24" height="3" transform="translate(41 87.5)" fill="#BE3830"/>
<rect x="4" y="176" width="41" height="40" rx="20" fill="#BE3830"/>
<path d="M22.884 195.736C22.3613 195.531 21.96 195.232 21.68 194.84C21.4 194.448 21.26 193.972 21.26 193.412C21.26 192.908 21.386 192.455 21.638 192.054C21.89 191.643 22.2633 191.321 22.758 191.088C23.262 190.845 23.8686 190.724 24.578 190.724C25.2873 190.724 25.8893 190.845 26.384 191.088C26.888 191.321 27.266 191.643 27.518 192.054C27.7793 192.455 27.91 192.908 27.91 193.412C27.91 193.953 27.7653 194.429 27.476 194.84C27.1866 195.241 26.79 195.54 26.286 195.736C26.8646 195.913 27.322 196.226 27.658 196.674C28.0033 197.113 28.176 197.645 28.176 198.27C28.176 198.877 28.0266 199.409 27.728 199.866C27.4293 200.314 27.0046 200.664 26.454 200.916C25.9126 201.159 25.2873 201.28 24.578 201.28C23.8686 201.28 23.2433 201.159 22.702 200.916C22.17 200.664 21.7546 200.314 21.456 199.866C21.1573 199.409 21.008 198.877 21.008 198.27C21.008 197.645 21.176 197.108 21.512 196.66C21.848 196.212 22.3053 195.904 22.884 195.736ZM26.678 193.566C26.678 192.997 26.4913 192.558 26.118 192.25C25.7446 191.942 25.2313 191.788 24.578 191.788C23.934 191.788 23.4253 191.942 23.052 192.25C22.6786 192.558 22.492 193.001 22.492 193.58C22.492 194.103 22.6833 194.523 23.066 194.84C23.458 195.157 23.962 195.316 24.578 195.316C25.2033 195.316 25.7073 195.157 26.09 194.84C26.482 194.513 26.678 194.089 26.678 193.566ZM24.578 196.296C23.8873 196.296 23.3226 196.459 22.884 196.786C22.4453 197.103 22.226 197.584 22.226 198.228C22.226 198.825 22.436 199.306 22.856 199.67C23.2853 200.034 23.8593 200.216 24.578 200.216C25.2966 200.216 25.866 200.034 26.286 199.67C26.706 199.306 26.916 198.825 26.916 198.228C26.916 197.603 26.7013 197.127 26.272 196.8C25.8426 196.464 25.278 196.296 24.578 196.296Z" fill="white"/>
<rect width="20" height="3" transform="translate(45 194.5)" fill="#BE3830"/>
<rect x="4" y="131" width="41" height="40" rx="20" fill="#BE3830"/>
<path d="M26.6233 148.286C26.4179 147.25 25.7786 146.732 24.7053 146.732C23.8746 146.732 23.2539 147.054 22.8433 147.698C22.4326 148.333 22.2319 149.383 22.2413 150.848C22.4559 150.363 22.8106 149.985 23.3053 149.714C23.8093 149.434 24.3693 149.294 24.9853 149.294C25.9466 149.294 26.7119 149.593 27.2813 150.19C27.8599 150.787 28.1493 151.613 28.1493 152.668C28.1493 153.303 28.0233 153.872 27.7713 154.376C27.5286 154.88 27.1553 155.281 26.6513 155.58C26.1566 155.879 25.5546 156.028 24.8453 156.028C23.8839 156.028 23.1326 155.813 22.5913 155.384C22.0499 154.955 21.6719 154.362 21.4573 153.606C21.2426 152.85 21.1353 151.917 21.1353 150.806C21.1353 147.381 22.3299 145.668 24.7193 145.668C25.6339 145.668 26.3526 145.915 26.8753 146.41C27.3979 146.905 27.7059 147.53 27.7993 148.286H26.6233ZM24.7193 150.372C24.3179 150.372 23.9399 150.456 23.5853 150.624C23.2306 150.783 22.9413 151.03 22.7173 151.366C22.5026 151.693 22.3953 152.094 22.3953 152.57C22.3953 153.279 22.6006 153.858 23.0113 154.306C23.4219 154.745 24.0099 154.964 24.7753 154.964C25.4286 154.964 25.9466 154.763 26.3293 154.362C26.7213 153.951 26.9173 153.401 26.9173 152.71C26.9173 151.982 26.7306 151.413 26.3573 151.002C25.9839 150.582 25.4379 150.372 24.7193 150.372Z" fill="white"/>
<rect width="20" height="3" transform="translate(45 149.5)" fill="#BE3830"/>
<rect width="21" height="3" transform="translate(399 149.5)" fill="#BE3830"/>
<rect x="420" y="131" width="40" height="40" rx="20" fill="#BE3830"/>
<path d="M443.455 146.872L439.563 156H438.275L442.223 146.998H436.819V145.906H443.455V146.872Z" fill="white"/>
<defs>
<filter id="filter0_dd_26483_5972" x="288.5" y="54" width="41" height="55.1716" filterUnits="userSpaceOnUse" color-interpolation-filters="sRGB">
<feFlood flood-opacity="0" result="BackgroundImageFix"/>
<feColorMatrix in="SourceAlpha" type="matrix" values="0 0 0 0 0 0 0 0 0 0 0 0 0 0 0 0 0 0 127 0" result="hardAlpha"/>
<feOffset dy="3"/>
<feGaussianBlur stdDeviation="4"/>
<feComposite in2="hardAlpha" operator="out"/>
<feColorMatrix type="matrix" values="0 0 0 0 0 0 0 0 0 0 0 0 0 0 0 0 0 0 0.16 0"/>
<feBlend mode="normal" in2="BackgroundImageFix" result="effect1_dropShadow_26483_5972"/>
<feColorMatrix in="SourceAlpha" type="matrix" values="0 0 0 0 0 0 0 0 0 0 0 0 0 0 0 0 0 0 127 0" result="hardAlpha"/>
<feOffset dy="3"/>
<feGaussianBlur stdDeviation="3"/>
<feComposite in2="hardAlpha" operator="out"/>
<feColorMatrix type="matrix" values="0 0 0 0 0 0 0 0 0 0 0 0 0 0 0 0 0 0 0.1 0"/>
<feBlend mode="normal" in2="effect1_dropShadow_26483_5972" result="effect2_dropShadow_26483_5972"/>
<feBlend mode="normal" in="SourceGraphic" in2="effect2_dropShadow_26483_5972" result="shape"/>
</filter>
<clipPath id="clip0_26483_5972">
<rect width="147" height="22" fill="white" transform="translate(77 185)"/>
</clipPath>
</defs>
</svg>
