<svg width="464" height="300" viewBox="0 0 464 300" fill="none" xmlns="http://www.w3.org/2000/svg">
<rect width="464" height="300" rx="8" fill="white"/>
<rect x="72.5" y="172.5" width="159" height="47" rx="3.5" fill="white"/>
<rect x="72.5" y="172.5" width="159" height="47" rx="3.5" stroke="#84848F"/>
<g clip-path="url(#clip0_4508_22170)">
<path d="M86.64 194.856C87.3653 195.112 87.9253 195.512 88.32 196.056C88.7147 196.589 88.912 197.213 88.912 197.928C88.912 198.557 88.7467 199.128 88.416 199.64C88.0853 200.141 87.6107 200.536 86.992 200.824C86.3733 201.112 85.6427 201.256 84.8 201.256C83.9573 201.256 83.2267 201.112 82.608 200.824C81.9893 200.536 81.5147 200.141 81.184 199.64C80.8533 199.128 80.688 198.557 80.688 197.928C80.688 197.213 80.8853 196.589 81.28 196.056C81.6747 195.512 82.2347 195.112 82.96 194.856C82.4373 194.621 82.0267 194.296 81.728 193.88C81.4293 193.453 81.28 192.952 81.28 192.376C81.28 191.8 81.4293 191.288 81.728 190.84C82.0267 190.392 82.4427 190.045 82.976 189.8C83.5093 189.544 84.1173 189.416 84.8 189.416C85.4827 189.416 86.0907 189.544 86.624 189.8C87.1573 190.045 87.5733 190.392 87.872 190.84C88.1707 191.288 88.32 191.8 88.32 192.376C88.32 192.952 88.1707 193.453 87.872 193.88C87.5733 194.296 87.1627 194.621 86.64 194.856ZM82.336 192.344C82.336 192.984 82.56 193.496 83.008 193.88C83.4667 194.264 84.064 194.456 84.8 194.456C85.536 194.456 86.128 194.264 86.576 193.88C87.0347 193.496 87.264 192.984 87.264 192.344C87.264 191.747 87.04 191.261 86.592 190.888C86.1547 190.504 85.5573 190.312 84.8 190.312C84.0427 190.312 83.44 190.504 82.992 190.888C82.5547 191.261 82.336 191.747 82.336 192.344ZM84.8 200.312C85.728 200.312 86.4587 200.088 86.992 199.64C87.536 199.181 87.808 198.6 87.808 197.896C87.808 197.139 87.536 196.525 86.992 196.056C86.448 195.587 85.7173 195.352 84.8 195.352C83.8827 195.352 83.152 195.587 82.608 196.056C82.064 196.525 81.792 197.139 81.792 197.896C81.792 198.6 82.0587 199.181 82.592 199.64C83.136 200.088 83.872 200.312 84.8 200.312ZM94.4719 201.24C93.7252 201.24 93.0692 201.059 92.5039 200.696C91.9492 200.333 91.5065 199.827 91.1759 199.176C90.6532 198.141 90.3919 196.856 90.3919 195.32C90.3919 193.773 90.6532 192.483 91.1759 191.448C91.5065 190.797 91.9492 190.296 92.5039 189.944C93.0692 189.581 93.7252 189.4 94.4719 189.4C95.2185 189.4 95.8692 189.581 96.4239 189.944C96.9892 190.296 97.4372 190.797 97.7679 191.448C98.2905 192.483 98.5519 193.773 98.5519 195.32C98.5519 196.856 98.2905 198.141 97.7679 199.176C97.4372 199.827 96.9892 200.333 96.4239 200.696C95.8692 201.059 95.2185 201.24 94.4719 201.24ZM94.4719 200.312C95.5172 200.312 96.3012 199.768 96.8239 198.68C97.2399 197.795 97.4479 196.675 97.4479 195.32C97.4479 193.944 97.2399 192.819 96.8239 191.944C96.3119 190.867 95.5279 190.328 94.4719 190.328C93.4159 190.328 92.6319 190.867 92.1199 191.944C91.7039 192.819 91.4959 193.944 91.4959 195.32C91.4959 196.685 91.7039 197.805 92.1199 198.68C92.6425 199.768 93.4265 200.312 94.4719 200.312Z" fill="#1B1B1F"/>
</g>
<path d="M76.2 156.21C75.5467 156.21 74.9727 156.051 74.478 155.734C73.9927 155.417 73.6053 154.973 73.316 154.404C72.8587 153.499 72.63 152.374 72.63 151.03C72.63 149.677 72.8587 148.547 73.316 147.642C73.6053 147.073 73.9927 146.634 74.478 146.326C74.9727 146.009 75.5467 145.85 76.2 145.85C76.8533 145.85 77.4227 146.009 77.908 146.326C78.4027 146.634 78.7947 147.073 79.084 147.642C79.5413 148.547 79.77 149.677 79.77 151.03C79.77 152.374 79.5413 153.499 79.084 154.404C78.7947 154.973 78.4027 155.417 77.908 155.734C77.4227 156.051 76.8533 156.21 76.2 156.21ZM76.2 155.398C77.1147 155.398 77.8007 154.922 78.258 153.97C78.622 153.195 78.804 152.215 78.804 151.03C78.804 149.826 78.622 148.841 78.258 148.076C77.81 147.133 77.124 146.662 76.2 146.662C75.276 146.662 74.59 147.133 74.142 148.076C73.778 148.841 73.596 149.826 73.596 151.03C73.596 152.225 73.778 153.205 74.142 153.97C74.5993 154.922 75.2853 155.398 76.2 155.398Z" fill="#5C5C66"/>
<path d="M371.997 146.172C372.1 146.097 372.217 146.06 372.347 146.06H372.571C372.758 146.06 372.851 146.153 372.851 146.34V155.72C372.851 155.907 372.758 156 372.571 156H372.193C372.007 156 371.913 155.907 371.913 155.72V147.264L369.799 148.776C369.734 148.823 369.673 148.846 369.617 148.846C369.533 148.846 369.463 148.804 369.407 148.72L369.267 148.51C369.23 148.463 369.211 148.407 369.211 148.342C369.211 148.258 369.253 148.183 369.337 148.118L371.997 146.172ZM379.22 156.21C378.566 156.21 377.992 156.051 377.498 155.734C377.012 155.417 376.625 154.973 376.336 154.404C375.878 153.499 375.65 152.374 375.65 151.03C375.65 149.677 375.878 148.547 376.336 147.642C376.625 147.073 377.012 146.634 377.498 146.326C377.992 146.009 378.566 145.85 379.22 145.85C379.873 145.85 380.442 146.009 380.928 146.326C381.422 146.634 381.814 147.073 382.104 147.642C382.561 148.547 382.79 149.677 382.79 151.03C382.79 152.374 382.561 153.499 382.104 154.404C381.814 154.973 381.422 155.417 380.928 155.734C380.442 156.051 379.873 156.21 379.22 156.21ZM379.22 155.398C380.134 155.398 380.82 154.922 381.278 153.97C381.642 153.195 381.824 152.215 381.824 151.03C381.824 149.826 381.642 148.841 381.278 148.076C380.83 147.133 380.144 146.662 379.22 146.662C378.296 146.662 377.61 147.133 377.162 148.076C376.798 148.841 376.616 149.826 376.616 151.03C376.616 152.225 376.798 153.205 377.162 153.97C377.619 154.922 378.305 155.398 379.22 155.398ZM387.805 156.21C387.152 156.21 386.578 156.051 386.083 155.734C385.598 155.417 385.211 154.973 384.921 154.404C384.464 153.499 384.235 152.374 384.235 151.03C384.235 149.677 384.464 148.547 384.921 147.642C385.211 147.073 385.598 146.634 386.083 146.326C386.578 146.009 387.152 145.85 387.805 145.85C388.459 145.85 389.028 146.009 389.513 146.326C390.008 146.634 390.4 147.073 390.689 147.642C391.147 148.547 391.375 149.677 391.375 151.03C391.375 152.374 391.147 153.499 390.689 154.404C390.4 154.973 390.008 155.417 389.513 155.734C389.028 156.051 388.459 156.21 387.805 156.21ZM387.805 155.398C388.72 155.398 389.406 154.922 389.863 153.97C390.227 153.195 390.409 152.215 390.409 151.03C390.409 149.826 390.227 148.841 389.863 148.076C389.415 147.133 388.729 146.662 387.805 146.662C386.881 146.662 386.195 147.133 385.747 148.076C385.383 148.841 385.201 149.826 385.201 151.03C385.201 152.225 385.383 153.205 385.747 153.97C386.205 154.922 386.891 155.398 387.805 155.398Z" fill="#5C5C66"/>
<path d="M73.568 94C73.4187 94 73.2973 93.958 73.204 93.874C73.12 93.7807 73.078 93.6593 73.078 93.51V84.55C73.078 84.3913 73.12 84.27 73.204 84.186C73.2973 84.102 73.4187 84.06 73.568 84.06H74.184C74.3427 84.06 74.464 84.102 74.548 84.186C74.632 84.27 74.674 84.3913 74.674 84.55V92.642H78.72C78.8787 92.642 79 92.684 79.084 92.768C79.168 92.852 79.21 92.9733 79.21 93.132V93.51C79.21 93.6593 79.168 93.7807 79.084 93.874C79 93.958 78.8787 94 78.72 94H73.568ZM83.5043 86.888C84.4376 86.888 85.1563 87.1073 85.6603 87.546C86.1643 87.9753 86.4163 88.5493 86.4163 89.268V93.51C86.4163 93.6593 86.3743 93.7807 86.2903 93.874C86.2063 93.958 86.0849 94 85.9263 94H85.5623C85.4129 94 85.2916 93.958 85.1983 93.874C85.1143 93.7807 85.0723 93.6593 85.0723 93.51V93.202C84.8483 93.5287 84.5403 93.7807 84.1483 93.958C83.7563 94.1353 83.2989 94.224 82.7763 94.224C82.0576 94.224 81.4649 94.0653 80.9983 93.748C80.5409 93.4213 80.3123 92.9313 80.3123 92.278C80.3123 91.55 80.5829 91.0133 81.1243 90.668C81.6749 90.3133 82.4356 90.0473 83.4063 89.87L84.9883 89.576V89.324C84.9883 88.9413 84.8529 88.6473 84.5823 88.442C84.3209 88.2273 83.9709 88.12 83.5323 88.12C83.1589 88.12 82.8323 88.1853 82.5523 88.316C82.2816 88.4373 81.9876 88.6427 81.6703 88.932C81.5489 89.0347 81.4323 89.086 81.3203 89.086C81.2083 89.086 81.0916 89.0347 80.9703 88.932L80.7463 88.736C80.6249 88.624 80.5643 88.5027 80.5643 88.372C80.5643 88.2507 80.6203 88.134 80.7323 88.022C81.1336 87.6393 81.5583 87.3547 82.0063 87.168C82.4543 86.9813 82.9536 86.888 83.5043 86.888ZM82.9863 93.034C83.5463 93.034 84.0176 92.8847 84.4003 92.586C84.7923 92.2873 84.9883 91.858 84.9883 91.298V90.654L83.7703 90.906C83.0889 91.046 82.5849 91.2047 82.2583 91.382C81.9316 91.5593 81.7683 91.83 81.7683 92.194C81.7683 92.4553 81.8756 92.6607 82.0903 92.81C82.3049 92.9593 82.6036 93.034 82.9863 93.034ZM91.7798 86.916C92.3678 86.916 92.8905 87.0653 93.3478 87.364C93.8145 87.6627 94.1785 88.0873 94.4398 88.638C94.7011 89.1887 94.8318 89.8233 94.8318 90.542C94.8318 91.27 94.7011 91.9093 94.4398 92.46C94.1785 93.0107 93.8145 93.4353 93.3478 93.734C92.8811 94.0327 92.3585 94.182 91.7798 94.182C90.7438 94.182 89.9831 93.7947 89.4978 93.02V93.51C89.4978 93.6593 89.4558 93.7807 89.3718 93.874C89.2878 93.958 89.1665 94 89.0078 94H88.6018C88.4525 94 88.3311 93.958 88.2378 93.874C88.1538 93.7807 88.1118 93.6593 88.1118 93.51V84.55C88.1118 84.3913 88.1538 84.27 88.2378 84.186C88.3311 84.102 88.4525 84.06 88.6018 84.06H89.1058C89.2645 84.06 89.3858 84.102 89.4698 84.186C89.5538 84.27 89.5958 84.3913 89.5958 84.55V87.966C90.0905 87.266 90.8185 86.916 91.7798 86.916ZM91.4718 92.894C92.0318 92.894 92.4798 92.684 92.8158 92.264C93.1518 91.8347 93.3198 91.2607 93.3198 90.542C93.3198 89.8327 93.1518 89.2633 92.8158 88.834C92.4891 88.4047 92.0458 88.19 91.4858 88.19C90.9165 88.19 90.4498 88.4047 90.0858 88.834C89.7218 89.254 89.5398 89.8233 89.5398 90.542C89.5398 91.2793 89.7218 91.858 90.0858 92.278C90.4498 92.6887 90.9118 92.894 91.4718 92.894ZM101.202 92.236C101.324 92.1333 101.44 92.082 101.552 92.082C101.664 92.082 101.781 92.1427 101.902 92.264L102.098 92.474C102.201 92.5953 102.252 92.712 102.252 92.824C102.252 92.9453 102.192 93.062 102.07 93.174C101.641 93.5473 101.212 93.8133 100.782 93.972C100.362 94.1307 99.8956 94.21 99.3823 94.21C98.6636 94.21 98.0383 94.0607 97.5063 93.762C96.9836 93.4633 96.5776 93.0433 96.2883 92.502C96.0083 91.9513 95.8682 91.3167 95.8682 90.598C95.8682 89.8887 96.0036 89.254 96.2743 88.694C96.5543 88.1247 96.9463 87.6813 97.4503 87.364C97.9636 87.0467 98.5609 86.888 99.2423 86.888C100.26 86.888 101.044 87.1913 101.594 87.798C102.145 88.3953 102.42 89.2213 102.42 90.276V90.402C102.411 90.5513 102.364 90.668 102.28 90.752C102.196 90.836 102.075 90.878 101.916 90.878H97.3243C97.3803 91.494 97.5809 91.998 97.9263 92.39C98.2809 92.7727 98.7756 92.964 99.4103 92.964C99.7556 92.964 100.059 92.9127 100.32 92.81C100.582 92.698 100.876 92.5067 101.202 92.236ZM99.2143 88.064C98.7009 88.064 98.2856 88.218 97.9683 88.526C97.6603 88.8247 97.4596 89.2493 97.3663 89.8H100.964C100.927 89.2587 100.759 88.834 100.46 88.526C100.162 88.218 99.7463 88.064 99.2143 88.064ZM104.326 94C104.176 94 104.055 93.958 103.962 93.874C103.878 93.7807 103.836 93.6593 103.836 93.51V84.55C103.836 84.3913 103.878 84.27 103.962 84.186C104.055 84.102 104.176 84.06 104.326 84.06H104.83C104.988 84.06 105.11 84.102 105.194 84.186C105.278 84.27 105.32 84.3913 105.32 84.55V93.51C105.32 93.6593 105.278 93.7807 105.194 93.874C105.11 93.958 104.988 94 104.83 94H104.326Z" fill="#1B1B1F"/>
<rect x="72" y="118" width="320" height="4" rx="2" fill="#DEDEE3"/>
<rect x="72" y="117" width="234" height="6" rx="3" fill="#0063FB"/>
<g filter="url(#filter0_dd_4508_22170)">
<rect x="289.5" y="59" width="33" height="32" rx="4" fill="#1B1B1F"/>
<path d="M303.31 74.624C303.945 74.848 304.435 75.198 304.78 75.674C305.125 76.1407 305.298 76.6867 305.298 77.312C305.298 77.8627 305.153 78.362 304.864 78.81C304.575 79.2487 304.159 79.594 303.618 79.846C303.077 80.098 302.437 80.224 301.7 80.224C300.963 80.224 300.323 80.098 299.782 79.846C299.241 79.594 298.825 79.2487 298.536 78.81C298.247 78.362 298.102 77.8627 298.102 77.312C298.102 76.6867 298.275 76.1407 298.62 75.674C298.965 75.198 299.455 74.848 300.09 74.624C299.633 74.4187 299.273 74.134 299.012 73.77C298.751 73.3967 298.62 72.958 298.62 72.454C298.62 71.95 298.751 71.502 299.012 71.11C299.273 70.718 299.637 70.4147 300.104 70.2C300.571 69.976 301.103 69.864 301.7 69.864C302.297 69.864 302.829 69.976 303.296 70.2C303.763 70.4147 304.127 70.718 304.388 71.11C304.649 71.502 304.78 71.95 304.78 72.454C304.78 72.958 304.649 73.3967 304.388 73.77C304.127 74.134 303.767 74.4187 303.31 74.624ZM299.544 72.426C299.544 72.986 299.74 73.434 300.132 73.77C300.533 74.106 301.056 74.274 301.7 74.274C302.344 74.274 302.862 74.106 303.254 73.77C303.655 73.434 303.856 72.986 303.856 72.426C303.856 71.9033 303.66 71.4787 303.268 71.152C302.885 70.816 302.363 70.648 301.7 70.648C301.037 70.648 300.51 70.816 300.118 71.152C299.735 71.4787 299.544 71.9033 299.544 72.426ZM301.7 79.398C302.512 79.398 303.151 79.202 303.618 78.81C304.094 78.4087 304.332 77.9 304.332 77.284C304.332 76.6213 304.094 76.0847 303.618 75.674C303.142 75.2633 302.503 75.058 301.7 75.058C300.897 75.058 300.258 75.2633 299.782 75.674C299.306 76.0847 299.068 76.6213 299.068 77.284C299.068 77.9 299.301 78.4087 299.768 78.81C300.244 79.202 300.888 79.398 301.7 79.398ZM310.163 80.21C309.51 80.21 308.936 80.0513 308.441 79.734C307.956 79.4167 307.568 78.9733 307.279 78.404C306.822 77.4987 306.593 76.374 306.593 75.03C306.593 73.6767 306.822 72.5473 307.279 71.642C307.568 71.0727 307.956 70.634 308.441 70.326C308.936 70.0087 309.51 69.85 310.163 69.85C310.816 69.85 311.386 70.0087 311.871 70.326C312.366 70.634 312.758 71.0727 313.047 71.642C313.504 72.5473 313.733 73.6767 313.733 75.03C313.733 76.374 313.504 77.4987 313.047 78.404C312.758 78.9733 312.366 79.4167 311.871 79.734C311.386 80.0513 310.816 80.21 310.163 80.21ZM310.163 79.398C311.078 79.398 311.764 78.922 312.221 77.97C312.585 77.1953 312.767 76.2153 312.767 75.03C312.767 73.826 312.585 72.8413 312.221 72.076C311.773 71.1333 311.087 70.662 310.163 70.662C309.239 70.662 308.553 71.1333 308.105 72.076C307.741 72.8413 307.559 73.826 307.559 75.03C307.559 76.2247 307.741 77.2047 308.105 77.97C308.562 78.922 309.248 79.398 310.163 79.398Z" fill="white"/>
<path d="M304.586 97.5858L300.343 93.3431C298.843 91.8429 296.808 91 294.686 91H317.314C315.192 91 313.157 91.8429 311.657 93.3431L307.414 97.5858C306.633 98.3668 305.367 98.3668 304.586 97.5858Z" fill="#1B1B1F"/>
</g>
<path d="M292 120C292 112.268 298.268 106 306 106C313.732 106 320 112.268 320 120C320 127.732 313.732 134 306 134C298.268 134 292 127.732 292 120Z" fill="#00337F"/>
<path d="M306 102C315.941 102 324 110.059 324 120C324 129.941 315.941 138 306 138C296.059 138 288 129.941 288 120C288 110.059 296.059 102 306 102Z" stroke="black" stroke-opacity="0.08" stroke-width="8"/>
<rect x="168" y="8" width="41" height="40" rx="20" fill="#BE3830"/>
<path d="M185.188 31.978C186.373 31.026 187.302 30.2467 187.974 29.64C188.646 29.024 189.21 28.3847 189.668 27.722C190.134 27.05 190.368 26.392 190.368 25.748C190.368 25.1413 190.218 24.6653 189.92 24.32C189.63 23.9653 189.159 23.788 188.506 23.788C187.871 23.788 187.376 23.9887 187.022 24.39C186.676 24.782 186.49 25.3093 186.462 25.972H185.23C185.267 24.9267 185.584 24.1193 186.182 23.55C186.779 22.9807 187.549 22.696 188.492 22.696C189.453 22.696 190.214 22.962 190.774 23.494C191.343 24.026 191.628 24.7587 191.628 25.692C191.628 26.4667 191.394 27.2227 190.928 27.96C190.47 28.688 189.948 29.332 189.36 29.892C188.772 30.4427 188.02 31.0867 187.106 31.824H191.922V32.888H185.188V31.978Z" fill="white"/>
<rect width="65" height="3" transform="translate(190 48) rotate(90)" fill="#BE3830"/>
<rect x="286" y="8" width="41" height="40" rx="20" fill="#BE3830"/>
<path d="M303.218 25.426C303.283 24.5673 303.615 23.8953 304.212 23.41C304.809 22.9247 305.584 22.682 306.536 22.682C307.171 22.682 307.717 22.7987 308.174 23.032C308.641 23.256 308.991 23.564 309.224 23.956C309.467 24.348 309.588 24.7913 309.588 25.286C309.588 25.8647 309.42 26.364 309.084 26.784C308.757 27.204 308.328 27.4747 307.796 27.596V27.666C308.403 27.8153 308.883 28.1093 309.238 28.548C309.593 28.9867 309.77 29.5607 309.77 30.27C309.77 30.802 309.649 31.2827 309.406 31.712C309.163 32.132 308.799 32.4633 308.314 32.706C307.829 32.9487 307.245 33.07 306.564 33.07C305.575 33.07 304.763 32.8133 304.128 32.3C303.493 31.7773 303.139 31.04 303.064 30.088H304.296C304.361 30.648 304.59 31.1053 304.982 31.46C305.374 31.8147 305.897 31.992 306.55 31.992C307.203 31.992 307.698 31.824 308.034 31.488C308.379 31.1427 308.552 30.6993 308.552 30.158C308.552 29.458 308.319 28.954 307.852 28.646C307.385 28.338 306.681 28.184 305.738 28.184H305.416V27.12H305.752C306.611 27.1107 307.259 26.9707 307.698 26.7C308.137 26.42 308.356 25.9907 308.356 25.412C308.356 24.9173 308.193 24.5207 307.866 24.222C307.549 23.9233 307.091 23.774 306.494 23.774C305.915 23.774 305.449 23.9233 305.094 24.222C304.739 24.5207 304.529 24.922 304.464 25.426H303.218Z" fill="white"/>
<rect width="7" height="3" transform="translate(308 48) rotate(90)" fill="#BE3830"/>
<rect x="337" y="8" width="41" height="40" rx="20" fill="#BE3830"/>
<path d="M353.658 30.746V29.78L358.572 22.976H360.098V29.64H361.498V30.746H360.098V33H358.838V30.746H353.658ZM358.894 24.306L355.128 29.64H358.894V24.306Z" fill="white"/>
<rect width="66" height="3" transform="translate(359 48) rotate(90)" fill="#BE3830"/>
<rect width="106" height="3" transform="translate(307 146) rotate(90)" fill="#BE3830"/>
<rect x="285" y="252" width="41" height="40" rx="20" fill="#BE3830"/>
<path d="M308.426 267.984H303.512V271.176C303.727 270.877 304.044 270.635 304.464 270.448C304.884 270.252 305.337 270.154 305.822 270.154C306.597 270.154 307.227 270.317 307.712 270.644C308.198 270.961 308.543 271.377 308.748 271.89C308.963 272.394 309.07 272.931 309.07 273.5C309.07 274.172 308.944 274.774 308.692 275.306C308.44 275.838 308.053 276.258 307.53 276.566C307.017 276.874 306.378 277.028 305.612 277.028C304.632 277.028 303.839 276.776 303.232 276.272C302.626 275.768 302.257 275.096 302.126 274.256H303.372C303.494 274.788 303.75 275.203 304.142 275.502C304.534 275.801 305.029 275.95 305.626 275.95C306.364 275.95 306.919 275.731 307.292 275.292C307.666 274.844 307.852 274.256 307.852 273.528C307.852 272.8 307.666 272.24 307.292 271.848C306.919 271.447 306.368 271.246 305.64 271.246C305.146 271.246 304.712 271.367 304.338 271.61C303.974 271.843 303.708 272.165 303.54 272.576H302.336V266.864H308.426V267.984Z" fill="white"/>
<rect x="7" y="69" width="40" height="40" rx="20" fill="#BE3830"/>
<path d="M25.2898 85.04V83.878H27.9218V94H26.6338V85.04H25.2898Z" fill="white"/>
<rect width="21" height="3" transform="translate(47 87.5)" fill="#BE3830"/>
<rect x="7" y="176" width="41" height="40" rx="20" fill="#BE3830"/>
<path d="M25.8 195.736C25.2773 195.531 24.876 195.232 24.596 194.84C24.316 194.448 24.176 193.972 24.176 193.412C24.176 192.908 24.302 192.455 24.554 192.054C24.806 191.643 25.1793 191.321 25.674 191.088C26.178 190.845 26.7847 190.724 27.494 190.724C28.2033 190.724 28.8053 190.845 29.3 191.088C29.804 191.321 30.182 191.643 30.434 192.054C30.6953 192.455 30.826 192.908 30.826 193.412C30.826 193.953 30.6813 194.429 30.392 194.84C30.1027 195.241 29.706 195.54 29.202 195.736C29.7807 195.913 30.238 196.226 30.574 196.674C30.9193 197.113 31.092 197.645 31.092 198.27C31.092 198.877 30.9427 199.409 30.644 199.866C30.3453 200.314 29.9207 200.664 29.37 200.916C28.8287 201.159 28.2033 201.28 27.494 201.28C26.7847 201.28 26.1593 201.159 25.618 200.916C25.086 200.664 24.6707 200.314 24.372 199.866C24.0733 199.409 23.924 198.877 23.924 198.27C23.924 197.645 24.092 197.108 24.428 196.66C24.764 196.212 25.2213 195.904 25.8 195.736ZM29.594 193.566C29.594 192.997 29.4073 192.558 29.034 192.25C28.6607 191.942 28.1473 191.788 27.494 191.788C26.85 191.788 26.3413 191.942 25.968 192.25C25.5947 192.558 25.408 193.001 25.408 193.58C25.408 194.103 25.5993 194.523 25.982 194.84C26.374 195.157 26.878 195.316 27.494 195.316C28.1193 195.316 28.6233 195.157 29.006 194.84C29.398 194.513 29.594 194.089 29.594 193.566ZM27.494 196.296C26.8033 196.296 26.2387 196.459 25.8 196.786C25.3613 197.103 25.142 197.584 25.142 198.228C25.142 198.825 25.352 199.306 25.772 199.67C26.2013 200.034 26.7753 200.216 27.494 200.216C28.2127 200.216 28.782 200.034 29.202 199.67C29.622 199.306 29.832 198.825 29.832 198.228C29.832 197.603 29.6173 197.127 29.188 196.8C28.7587 196.464 28.194 196.296 27.494 196.296Z" fill="white"/>
<rect width="20" height="3" transform="translate(48 194.5)" fill="#BE3830"/>
<rect x="7" y="131" width="41" height="40" rx="20" fill="#BE3830"/>
<path d="M29.5666 148.286C29.3613 147.25 28.722 146.732 27.6486 146.732C26.818 146.732 26.1973 147.054 25.7866 147.698C25.376 148.333 25.1753 149.383 25.1846 150.848C25.3993 150.363 25.754 149.985 26.2486 149.714C26.7526 149.434 27.3126 149.294 27.9286 149.294C28.89 149.294 29.6553 149.593 30.2246 150.19C30.8033 150.787 31.0926 151.613 31.0926 152.668C31.0926 153.303 30.9666 153.872 30.7146 154.376C30.472 154.88 30.0986 155.281 29.5946 155.58C29.1 155.879 28.498 156.028 27.7886 156.028C26.8273 156.028 26.076 155.813 25.5346 155.384C24.9933 154.955 24.6153 154.362 24.4006 153.606C24.186 152.85 24.0786 151.917 24.0786 150.806C24.0786 147.381 25.2733 145.668 27.6626 145.668C28.5773 145.668 29.296 145.915 29.8186 146.41C30.3413 146.905 30.6493 147.53 30.7426 148.286H29.5666ZM27.6626 150.372C27.2613 150.372 26.8833 150.456 26.5286 150.624C26.174 150.783 25.8846 151.03 25.6606 151.366C25.446 151.693 25.3386 152.094 25.3386 152.57C25.3386 153.279 25.544 153.858 25.9546 154.306C26.3653 154.745 26.9533 154.964 27.7186 154.964C28.372 154.964 28.89 154.763 29.2726 154.362C29.6646 153.951 29.8606 153.401 29.8606 152.71C29.8606 151.982 29.674 151.413 29.3006 151.002C28.9273 150.582 28.3813 150.372 27.6626 150.372Z" fill="white"/>
<rect width="20" height="3" transform="translate(48 149.5)" fill="#BE3830"/>
<rect width="21" height="3" transform="translate(396 149.5)" fill="#BE3830"/>
<rect x="417" y="131" width="40" height="40" rx="20" fill="#BE3830"/>
<path d="M440.277 146.872L436.385 156H435.097L439.045 146.998H433.641V145.906H440.277V146.872Z" fill="white"/>
<defs>
<filter id="filter0_dd_4508_22170" x="281.5" y="54" width="49" height="55.1716" filterUnits="userSpaceOnUse" color-interpolation-filters="sRGB">
<feFlood flood-opacity="0" result="BackgroundImageFix"/>
<feColorMatrix in="SourceAlpha" type="matrix" values="0 0 0 0 0 0 0 0 0 0 0 0 0 0 0 0 0 0 127 0" result="hardAlpha"/>
<feOffset dy="3"/>
<feGaussianBlur stdDeviation="4"/>
<feComposite in2="hardAlpha" operator="out"/>
<feColorMatrix type="matrix" values="0 0 0 0 0 0 0 0 0 0 0 0 0 0 0 0 0 0 0.16 0"/>
<feBlend mode="normal" in2="BackgroundImageFix" result="effect1_dropShadow_4508_22170"/>
<feColorMatrix in="SourceAlpha" type="matrix" values="0 0 0 0 0 0 0 0 0 0 0 0 0 0 0 0 0 0 127 0" result="hardAlpha"/>
<feOffset dy="3"/>
<feGaussianBlur stdDeviation="3"/>
<feComposite in2="hardAlpha" operator="out"/>
<feColorMatrix type="matrix" values="0 0 0 0 0 0 0 0 0 0 0 0 0 0 0 0 0 0 0.1 0"/>
<feBlend mode="normal" in2="effect1_dropShadow_4508_22170" result="effect2_dropShadow_4508_22170"/>
<feBlend mode="normal" in="SourceGraphic" in2="effect2_dropShadow_4508_22170" result="shape"/>
</filter>
<clipPath id="clip0_4508_22170">
<rect width="144" height="22" fill="white" transform="translate(80 185)"/>
</clipPath>
</defs>
</svg>
