<svg width="688" height="514" viewBox="0 0 688 514" fill="none" xmlns="http://www.w3.org/2000/svg">
<rect width="688" height="514" fill="#F6F6F6"/>
<rect x="112" y="80" width="464" height="320" rx="8" fill="white"/>
<rect x="181.5" y="252.5" width="162" height="47" rx="3.5" fill="white"/>
<rect x="181.5" y="252.5" width="162" height="47" rx="3.5" stroke="#D91F0A"/>
<g clip-path="url(#clip0_4508_22692)">
<path d="M193.608 274.248C194.739 274.248 195.656 274.536 196.36 275.112C197.064 275.688 197.416 276.509 197.416 277.576C197.416 278.173 197.267 278.755 196.968 279.32C196.68 279.885 196.248 280.349 195.672 280.712C195.096 281.064 194.403 281.24 193.592 281.24C192.92 281.24 192.275 281.144 191.656 280.952C191.048 280.749 190.424 280.445 189.784 280.04C189.677 279.976 189.624 279.891 189.624 279.784C189.624 279.709 189.645 279.645 189.688 279.592L189.896 279.304C189.96 279.208 190.04 279.16 190.136 279.16C190.221 279.16 190.291 279.181 190.344 279.224C190.973 279.619 191.528 279.901 192.008 280.072C192.499 280.232 193.016 280.312 193.56 280.312C194.115 280.312 194.6 280.195 195.016 279.96C195.432 279.715 195.752 279.389 195.976 278.984C196.211 278.568 196.328 278.104 196.328 277.592C196.328 276.824 196.083 276.221 195.592 275.784C195.101 275.347 194.371 275.128 193.4 275.128C192.995 275.128 192.637 275.171 192.328 275.256C192.296 275.267 192.253 275.272 192.2 275.272C192.083 275.272 191.987 275.219 191.912 275.112L191.736 274.872C191.683 274.787 191.656 274.712 191.656 274.648C191.656 274.563 191.693 274.488 191.768 274.424L195.8 270.568H190.392C190.179 270.568 190.072 270.461 190.072 270.248V269.96C190.072 269.747 190.179 269.64 190.392 269.64H196.824C197.037 269.64 197.144 269.747 197.144 269.96V270.312C197.144 270.461 197.085 270.595 196.968 270.712L193.224 274.264L193.608 274.248ZM203.175 281.24C202.428 281.24 201.772 281.059 201.207 280.696C200.652 280.333 200.21 279.827 199.879 279.176C199.356 278.141 199.095 276.856 199.095 275.32C199.095 273.773 199.356 272.483 199.879 271.448C200.21 270.797 200.652 270.296 201.207 269.944C201.772 269.581 202.428 269.4 203.175 269.4C203.922 269.4 204.572 269.581 205.127 269.944C205.692 270.296 206.14 270.797 206.471 271.448C206.994 272.483 207.255 273.773 207.255 275.32C207.255 276.856 206.994 278.141 206.471 279.176C206.14 279.827 205.692 280.333 205.127 280.696C204.572 281.059 203.922 281.24 203.175 281.24ZM203.175 280.312C204.22 280.312 205.004 279.768 205.527 278.68C205.943 277.795 206.151 276.675 206.151 275.32C206.151 273.944 205.943 272.819 205.527 271.944C205.015 270.867 204.231 270.328 203.175 270.328C202.119 270.328 201.335 270.867 200.823 271.944C200.407 272.819 200.199 273.944 200.199 275.32C200.199 276.685 200.407 277.805 200.823 278.68C201.346 279.768 202.13 280.312 203.175 280.312Z" fill="#D91F0A"/>
<path d="M327.05 273.93C327.797 273.93 328.366 274.145 328.758 274.574C329.159 274.994 329.36 275.535 329.36 276.198V280.72C329.36 280.907 329.267 281 329.08 281H328.716C328.529 281 328.436 280.907 328.436 280.72V276.45C328.436 275.89 328.305 275.461 328.044 275.162C327.792 274.863 327.414 274.714 326.91 274.714C326.378 274.714 325.953 274.891 325.636 275.246C325.319 275.601 325.16 276.058 325.16 276.618V280.72C325.16 280.907 325.067 281 324.88 281H324.516C324.329 281 324.236 280.907 324.236 280.72V276.45C324.236 275.89 324.105 275.461 323.844 275.162C323.592 274.863 323.209 274.714 322.696 274.714C322.22 274.714 321.823 274.863 321.506 275.162C321.198 275.461 321.016 275.853 320.96 276.338V280.72C320.96 280.907 320.867 281 320.68 281H320.316C320.129 281 320.036 280.907 320.036 280.72V274.378C320.036 274.191 320.129 274.098 320.316 274.098H320.624C320.811 274.098 320.904 274.191 320.904 274.378V274.952C321.324 274.271 321.991 273.93 322.906 273.93C323.382 273.93 323.788 274.037 324.124 274.252C324.469 274.457 324.726 274.737 324.894 275.092C325.389 274.317 326.107 273.93 327.05 273.93ZM334.637 275.513C334.749 275.513 334.805 275.569 334.805 275.681V275.832C334.805 275.944 334.749 276 334.637 276H330.907C330.795 276 330.739 275.944 330.739 275.832V275.798C330.739 275.39 330.809 275.045 330.949 274.765C331.095 274.48 331.283 274.239 331.512 274.043C331.747 273.847 332.069 273.623 332.478 273.371C332.517 273.343 332.663 273.256 332.915 273.11C333.212 272.942 333.444 272.797 333.612 272.674C333.78 272.55 333.92 272.399 334.032 272.22C334.144 272.035 334.2 271.82 334.2 271.573C334.2 271.198 334.074 270.91 333.822 270.708C333.57 270.506 333.265 270.406 332.907 270.406C332.559 270.406 332.271 270.478 332.041 270.624C331.812 270.77 331.546 271.022 331.243 271.38C331.204 271.43 331.157 271.456 331.101 271.456C331.073 271.456 331.039 271.442 331 271.414L330.857 271.304C330.807 271.26 330.781 271.215 330.781 271.17C330.781 271.142 330.795 271.108 330.823 271.069C331.12 270.694 331.428 270.408 331.747 270.212C332.072 270.016 332.453 269.918 332.89 269.918C333.254 269.918 333.579 269.988 333.864 270.128C334.15 270.263 334.371 270.456 334.528 270.708C334.69 270.954 334.771 271.234 334.771 271.548C334.771 271.878 334.701 272.164 334.561 272.405C334.427 272.64 334.256 272.836 334.049 272.993C333.842 273.144 333.562 273.323 333.209 273.53L332.789 273.782C332.436 274.001 332.167 274.18 331.983 274.32C331.798 274.454 331.644 274.62 331.521 274.816C331.397 275.006 331.325 275.238 331.302 275.513H334.637Z" fill="#5C5C66"/>
</g>
<path d="M182.272 316C182.112 316 182.032 315.92 182.032 315.76V307.72C182.032 307.56 182.112 307.48 182.272 307.48H187.312C187.472 307.48 187.552 307.56 187.552 307.72V307.948C187.552 308.108 187.472 308.188 187.312 308.188H182.884V311.272H186.976C187.136 311.272 187.216 311.352 187.216 311.512V311.728C187.216 311.888 187.136 311.968 186.976 311.968H182.884V315.292H187.408C187.568 315.292 187.648 315.372 187.648 315.532V315.76C187.648 315.92 187.568 316 187.408 316H182.272ZM191.723 309.94C192.419 309.94 192.943 310.132 193.295 310.516C193.655 310.9 193.835 311.38 193.835 311.956V315.76C193.835 315.92 193.755 316 193.595 316H193.283C193.123 316 193.043 315.92 193.043 315.76V312.22C193.043 311.692 192.915 311.292 192.659 311.02C192.403 310.748 192.035 310.612 191.555 310.612C191.251 310.612 190.971 310.688 190.715 310.84C190.459 310.984 190.255 311.184 190.103 311.44C189.951 311.696 189.875 311.976 189.875 312.28V315.76C189.875 315.92 189.795 316 189.635 316H189.323C189.163 316 189.083 315.92 189.083 315.76V310.324C189.083 310.164 189.163 310.084 189.323 310.084H189.587C189.747 310.084 189.827 310.164 189.827 310.324V310.9C190.027 310.58 190.291 310.34 190.619 310.18C190.947 310.02 191.315 309.94 191.723 309.94ZM198.087 315.34C198.111 315.332 198.143 315.328 198.183 315.328C198.231 315.328 198.275 315.344 198.315 315.376C198.355 315.408 198.379 315.452 198.387 315.508L198.423 315.676C198.431 315.692 198.435 315.72 198.435 315.76C198.435 315.872 198.375 315.94 198.255 315.964C197.967 316.052 197.659 316.096 197.331 316.096C196.811 316.096 196.439 315.98 196.215 315.748C195.999 315.508 195.891 315.164 195.891 314.716V310.684H195.003C194.843 310.684 194.763 310.604 194.763 310.444V310.324C194.763 310.164 194.843 310.084 195.003 310.084H195.891V308.26C195.891 308.1 195.971 308.02 196.131 308.02H196.443C196.603 308.02 196.683 308.1 196.683 308.26V310.084H198.123C198.283 310.084 198.363 310.164 198.363 310.324V310.444C198.363 310.604 198.283 310.684 198.123 310.684H196.683V314.62C196.683 314.916 196.739 315.124 196.851 315.244C196.963 315.364 197.155 315.424 197.427 315.424C197.619 315.424 197.839 315.396 198.087 315.34ZM203.657 314.596C203.713 314.54 203.773 314.512 203.837 314.512C203.893 314.512 203.945 314.536 203.993 314.584L204.149 314.728C204.205 314.784 204.233 314.844 204.233 314.908C204.233 314.956 204.209 315.012 204.161 315.076C203.769 315.468 203.389 315.748 203.021 315.916C202.653 316.076 202.241 316.156 201.785 316.156C201.209 316.156 200.709 316.028 200.285 315.772C199.861 315.516 199.533 315.16 199.301 314.704C199.069 314.24 198.953 313.704 198.953 313.096C198.953 312.48 199.065 311.936 199.289 311.464C199.521 310.984 199.845 310.612 200.261 310.348C200.677 310.076 201.157 309.94 201.701 309.94C202.509 309.94 203.145 310.192 203.609 310.696C204.073 311.2 204.305 311.88 204.305 312.736V312.88C204.297 312.952 204.269 313.008 204.221 313.048C204.181 313.088 204.125 313.108 204.053 313.108H199.757C199.781 313.78 199.957 314.348 200.285 314.812C200.621 315.268 201.121 315.496 201.785 315.496C202.145 315.496 202.461 315.432 202.733 315.304C203.013 315.168 203.321 314.932 203.657 314.596ZM201.701 310.6C201.173 310.6 200.737 310.764 200.393 311.092C200.057 311.412 199.853 311.884 199.781 312.508H203.513C203.497 311.924 203.329 311.46 203.009 311.116C202.689 310.772 202.253 310.6 201.701 310.6ZM207.932 310.036C208.132 310.036 208.368 310.068 208.64 310.132C208.784 310.18 208.84 310.28 208.808 310.432L208.76 310.624C208.72 310.776 208.62 310.832 208.46 310.792C208.268 310.744 208.092 310.72 207.932 310.72C207.524 310.72 207.184 310.896 206.912 311.248C206.648 311.6 206.516 312.088 206.516 312.712V315.76C206.516 315.92 206.436 316 206.276 316H205.964C205.804 316 205.724 315.92 205.724 315.76V310.324C205.724 310.164 205.804 310.084 205.964 310.084H206.228C206.388 310.084 206.468 310.164 206.468 310.324V310.984C206.604 310.688 206.796 310.456 207.044 310.288C207.3 310.12 207.596 310.036 207.932 310.036ZM214.93 309.94C215.658 309.94 216.226 310.116 216.634 310.468C217.042 310.812 217.246 311.268 217.246 311.836V315.76C217.246 315.92 217.166 316 217.006 316H216.766C216.606 316 216.526 315.92 216.526 315.76V315.22C216.326 315.54 216.042 315.78 215.674 315.94C215.314 316.1 214.91 316.18 214.462 316.18C213.838 316.18 213.33 316.048 212.938 315.784C212.546 315.52 212.35 315.112 212.35 314.56C212.35 314.12 212.474 313.768 212.722 313.504C212.97 313.232 213.294 313.028 213.694 312.892C214.094 312.748 214.594 312.62 215.194 312.508L216.49 312.28V311.896C216.49 311.488 216.35 311.172 216.07 310.948C215.79 310.716 215.422 310.6 214.966 310.6C214.622 310.6 214.31 310.664 214.03 310.792C213.75 310.92 213.45 311.14 213.13 311.452C213.074 311.508 213.014 311.536 212.95 311.536C212.894 311.536 212.842 311.512 212.794 311.464L212.638 311.32C212.582 311.264 212.554 311.204 212.554 311.14C212.554 311.068 212.582 311.004 212.638 310.948C212.974 310.596 213.326 310.34 213.694 310.18C214.07 310.02 214.482 309.94 214.93 309.94ZM214.498 315.52C215.074 315.52 215.55 315.368 215.926 315.064C216.302 314.76 216.49 314.372 216.49 313.9V312.892L215.374 313.108C214.854 313.212 214.442 313.312 214.138 313.408C213.834 313.504 213.59 313.644 213.406 313.828C213.222 314.012 213.13 314.252 213.13 314.548C213.13 314.852 213.25 315.092 213.49 315.268C213.738 315.436 214.074 315.52 214.498 315.52ZM225.415 310.276C225.463 310.148 225.555 310.084 225.691 310.084H226.003C226.067 310.084 226.119 310.1 226.159 310.132C226.199 310.164 226.219 310.208 226.219 310.264L226.195 310.36L224.287 315.808C224.239 315.936 224.147 316 224.011 316H223.375C223.239 316 223.147 315.936 223.099 315.808L221.203 310.36L221.179 310.264C221.179 310.208 221.199 310.164 221.239 310.132C221.279 310.1 221.331 310.084 221.395 310.084H221.719C221.855 310.084 221.947 310.148 221.995 310.276L222.727 312.388C223.031 313.268 223.355 314.28 223.699 315.424C223.715 315.376 223.759 315.24 223.831 315.016C224.159 313.936 224.443 313.06 224.683 312.388L225.415 310.276ZM229.613 309.94C230.341 309.94 230.909 310.116 231.317 310.468C231.725 310.812 231.929 311.268 231.929 311.836V315.76C231.929 315.92 231.849 316 231.689 316H231.449C231.289 316 231.209 315.92 231.209 315.76V315.22C231.009 315.54 230.725 315.78 230.357 315.94C229.997 316.1 229.593 316.18 229.145 316.18C228.521 316.18 228.013 316.048 227.621 315.784C227.229 315.52 227.033 315.112 227.033 314.56C227.033 314.12 227.157 313.768 227.405 313.504C227.653 313.232 227.977 313.028 228.377 312.892C228.777 312.748 229.277 312.62 229.877 312.508L231.173 312.28V311.896C231.173 311.488 231.033 311.172 230.753 310.948C230.473 310.716 230.105 310.6 229.649 310.6C229.305 310.6 228.993 310.664 228.713 310.792C228.433 310.92 228.133 311.14 227.813 311.452C227.757 311.508 227.697 311.536 227.633 311.536C227.577 311.536 227.525 311.512 227.477 311.464L227.321 311.32C227.265 311.264 227.237 311.204 227.237 311.14C227.237 311.068 227.265 311.004 227.321 310.948C227.657 310.596 228.009 310.34 228.377 310.18C228.753 310.02 229.165 309.94 229.613 309.94ZM229.181 315.52C229.757 315.52 230.233 315.368 230.609 315.064C230.985 314.76 231.173 314.372 231.173 313.9V312.892L230.057 313.108C229.537 313.212 229.125 313.312 228.821 313.408C228.517 313.504 228.273 313.644 228.089 313.828C227.905 314.012 227.813 314.252 227.813 314.548C227.813 314.852 227.933 315.092 228.173 315.268C228.421 315.436 228.757 315.52 229.181 315.52ZM233.937 316C233.777 316 233.697 315.92 233.697 315.76V307.72C233.697 307.56 233.777 307.48 233.937 307.48H234.249C234.409 307.48 234.489 307.56 234.489 307.72V315.76C234.489 315.92 234.409 316 234.249 316H233.937ZM240.115 310.324C240.115 310.164 240.195 310.084 240.355 310.084H240.667C240.827 310.084 240.907 310.164 240.907 310.324V315.76C240.907 315.92 240.827 316 240.667 316H240.415C240.255 316 240.175 315.92 240.175 315.76V315.22C239.999 315.532 239.747 315.768 239.419 315.928C239.099 316.08 238.747 316.156 238.363 316.156C237.643 316.156 237.111 315.976 236.767 315.616C236.423 315.248 236.251 314.776 236.251 314.2V310.324C236.251 310.164 236.331 310.084 236.491 310.084H236.803C236.963 310.084 237.043 310.164 237.043 310.324V314.032C237.043 314.504 237.159 314.864 237.391 315.112C237.631 315.352 237.971 315.472 238.411 315.472C238.907 315.472 239.315 315.32 239.635 315.016C239.955 314.712 240.115 314.28 240.115 313.72V310.324ZM246.993 314.596C247.049 314.54 247.109 314.512 247.173 314.512C247.229 314.512 247.281 314.536 247.329 314.584L247.485 314.728C247.541 314.784 247.569 314.844 247.569 314.908C247.569 314.956 247.545 315.012 247.497 315.076C247.105 315.468 246.725 315.748 246.357 315.916C245.989 316.076 245.577 316.156 245.121 316.156C244.545 316.156 244.045 316.028 243.621 315.772C243.197 315.516 242.869 315.16 242.637 314.704C242.405 314.24 242.289 313.704 242.289 313.096C242.289 312.48 242.401 311.936 242.625 311.464C242.857 310.984 243.181 310.612 243.597 310.348C244.013 310.076 244.493 309.94 245.037 309.94C245.845 309.94 246.481 310.192 246.945 310.696C247.409 311.2 247.641 311.88 247.641 312.736V312.88C247.633 312.952 247.605 313.008 247.557 313.048C247.517 313.088 247.461 313.108 247.389 313.108H243.093C243.117 313.78 243.293 314.348 243.621 314.812C243.957 315.268 244.457 315.496 245.121 315.496C245.481 315.496 245.797 315.432 246.069 315.304C246.349 315.168 246.657 314.932 246.993 314.596ZM245.037 310.6C244.509 310.6 244.073 310.764 243.729 311.092C243.393 311.412 243.189 311.884 243.117 312.508H246.849C246.833 311.924 246.665 311.46 246.345 311.116C246.025 310.772 245.589 310.6 245.037 310.6ZM258.426 310.288C258.458 310.152 258.55 310.084 258.702 310.084H259.026C259.114 310.084 259.174 310.108 259.206 310.156C259.246 310.204 259.254 310.268 259.23 310.348L257.682 315.796C257.65 315.932 257.558 316 257.406 316H256.866C256.73 316 256.642 315.932 256.602 315.796L256.05 313.96C255.762 313 255.494 312.016 255.246 311.008C255.006 311.984 254.742 312.976 254.454 313.984L253.926 315.796C253.894 315.932 253.802 316 253.65 316H253.134C252.982 316 252.89 315.932 252.858 315.796L251.31 310.348C251.302 310.332 251.298 310.304 251.298 310.264C251.298 310.208 251.318 310.164 251.358 310.132C251.398 310.1 251.45 310.084 251.514 310.084H251.838C251.99 310.084 252.082 310.152 252.114 310.288L252.69 312.412C252.954 313.38 253.198 314.344 253.422 315.304C253.598 314.592 253.858 313.628 254.202 312.412L254.814 310.288C254.846 310.152 254.938 310.084 255.09 310.084H255.45C255.594 310.084 255.682 310.152 255.714 310.288L256.338 312.412C256.61 313.396 256.866 314.364 257.105 315.316C257.289 314.516 257.538 313.548 257.85 312.412L258.426 310.288ZM260.882 308.584C260.722 308.584 260.586 308.528 260.474 308.416C260.37 308.304 260.318 308.168 260.318 308.008C260.318 307.848 260.37 307.716 260.474 307.612C260.586 307.508 260.722 307.456 260.882 307.456C261.05 307.456 261.186 307.508 261.29 307.612C261.402 307.716 261.458 307.848 261.458 308.008C261.458 308.168 261.402 308.304 261.29 308.416C261.186 308.528 261.05 308.584 260.882 308.584ZM260.726 316C260.566 316 260.486 315.92 260.486 315.76V310.324C260.486 310.164 260.566 310.084 260.726 310.084H261.038C261.198 310.084 261.278 310.164 261.278 310.324V315.76C261.278 315.92 261.198 316 261.038 316H260.726ZM265.704 315.34C265.728 315.332 265.76 315.328 265.8 315.328C265.848 315.328 265.892 315.344 265.932 315.376C265.972 315.408 265.996 315.452 266.004 315.508L266.04 315.676C266.048 315.692 266.052 315.72 266.052 315.76C266.052 315.872 265.992 315.94 265.872 315.964C265.584 316.052 265.276 316.096 264.948 316.096C264.428 316.096 264.056 315.98 263.832 315.748C263.616 315.508 263.508 315.164 263.508 314.716V310.684H262.62C262.46 310.684 262.38 310.604 262.38 310.444V310.324C262.38 310.164 262.46 310.084 262.62 310.084H263.508V308.26C263.508 308.1 263.588 308.02 263.748 308.02H264.06C264.22 308.02 264.3 308.1 264.3 308.26V310.084H265.74C265.9 310.084 265.98 310.164 265.98 310.324V310.444C265.98 310.604 265.9 310.684 265.74 310.684H264.3V314.62C264.3 314.916 264.356 315.124 264.468 315.244C264.58 315.364 264.772 315.424 265.044 315.424C265.236 315.424 265.456 315.396 265.704 315.34ZM269.829 309.94C270.517 309.94 271.041 310.136 271.401 310.528C271.761 310.912 271.941 311.388 271.941 311.956V315.76C271.941 315.92 271.861 316 271.701 316H271.389C271.229 316 271.149 315.92 271.149 315.76V312.22C271.149 311.692 271.021 311.292 270.765 311.02C270.509 310.748 270.141 310.612 269.661 310.612C269.357 310.612 269.077 310.688 268.821 310.84C268.565 310.984 268.361 311.184 268.209 311.44C268.057 311.696 267.981 311.976 267.981 312.28V315.76C267.981 315.92 267.901 316 267.741 316H267.429C267.269 316 267.189 315.92 267.189 315.76V307.72C267.189 307.56 267.269 307.48 267.429 307.48H267.741C267.901 307.48 267.981 307.56 267.981 307.72V310.852C268.173 310.548 268.429 310.32 268.749 310.168C269.077 310.016 269.437 309.94 269.829 309.94ZM274.089 308.584C273.929 308.584 273.793 308.528 273.681 308.416C273.577 308.304 273.525 308.168 273.525 308.008C273.525 307.848 273.577 307.716 273.681 307.612C273.793 307.508 273.929 307.456 274.089 307.456C274.257 307.456 274.393 307.508 274.497 307.612C274.609 307.716 274.665 307.848 274.665 308.008C274.665 308.168 274.609 308.304 274.497 308.416C274.393 308.528 274.257 308.584 274.089 308.584ZM273.933 316C273.773 316 273.693 315.92 273.693 315.76V310.324C273.693 310.164 273.773 310.084 273.933 310.084H274.245C274.405 310.084 274.485 310.164 274.485 310.324V315.76C274.485 315.92 274.405 316 274.245 316H273.933ZM278.887 309.94C279.583 309.94 280.107 310.132 280.459 310.516C280.819 310.9 280.999 311.38 280.999 311.956V315.76C280.999 315.92 280.919 316 280.759 316H280.447C280.287 316 280.207 315.92 280.207 315.76V312.22C280.207 311.692 280.079 311.292 279.823 311.02C279.567 310.748 279.199 310.612 278.719 310.612C278.415 310.612 278.135 310.688 277.879 310.84C277.623 310.984 277.419 311.184 277.267 311.44C277.115 311.696 277.039 311.976 277.039 312.28V315.76C277.039 315.92 276.959 316 276.799 316H276.487C276.327 316 276.247 315.92 276.247 315.76V310.324C276.247 310.164 276.327 310.084 276.487 310.084H276.751C276.911 310.084 276.991 310.164 276.991 310.324V310.9C277.191 310.58 277.455 310.34 277.783 310.18C278.111 310.02 278.479 309.94 278.887 309.94ZM288.181 315.34C288.205 315.332 288.237 315.328 288.277 315.328C288.325 315.328 288.369 315.344 288.409 315.376C288.449 315.408 288.473 315.452 288.481 315.508L288.517 315.676C288.525 315.692 288.529 315.72 288.529 315.76C288.529 315.872 288.469 315.94 288.349 315.964C288.061 316.052 287.753 316.096 287.425 316.096C286.905 316.096 286.533 315.98 286.309 315.748C286.093 315.508 285.985 315.164 285.985 314.716V310.684H285.097C284.937 310.684 284.857 310.604 284.857 310.444V310.324C284.857 310.164 284.937 310.084 285.097 310.084H285.985V308.26C285.985 308.1 286.065 308.02 286.225 308.02H286.537C286.697 308.02 286.777 308.1 286.777 308.26V310.084H288.217C288.377 310.084 288.457 310.164 288.457 310.324V310.444C288.457 310.604 288.377 310.684 288.217 310.684H286.777V314.62C286.777 314.916 286.833 315.124 286.945 315.244C287.057 315.364 287.249 315.424 287.521 315.424C287.713 315.424 287.933 315.396 288.181 315.34ZM292.305 309.94C292.993 309.94 293.517 310.136 293.877 310.528C294.237 310.912 294.417 311.388 294.417 311.956V315.76C294.417 315.92 294.337 316 294.177 316H293.865C293.705 316 293.625 315.92 293.625 315.76V312.22C293.625 311.692 293.497 311.292 293.241 311.02C292.985 310.748 292.617 310.612 292.137 310.612C291.833 310.612 291.553 310.688 291.297 310.84C291.041 310.984 290.837 311.184 290.685 311.44C290.533 311.696 290.457 311.976 290.457 312.28V315.76C290.457 315.92 290.377 316 290.217 316H289.905C289.745 316 289.665 315.92 289.665 315.76V307.72C289.665 307.56 289.745 307.48 289.905 307.48H290.217C290.377 307.48 290.457 307.56 290.457 307.72V310.852C290.649 310.548 290.905 310.32 291.225 310.168C291.553 310.016 291.913 309.94 292.305 309.94ZM300.477 314.596C300.533 314.54 300.593 314.512 300.657 314.512C300.713 314.512 300.765 314.536 300.813 314.584L300.969 314.728C301.025 314.784 301.053 314.844 301.053 314.908C301.053 314.956 301.029 315.012 300.981 315.076C300.589 315.468 300.209 315.748 299.841 315.916C299.473 316.076 299.061 316.156 298.605 316.156C298.029 316.156 297.529 316.028 297.105 315.772C296.681 315.516 296.353 315.16 296.121 314.704C295.889 314.24 295.773 313.704 295.773 313.096C295.773 312.48 295.885 311.936 296.109 311.464C296.341 310.984 296.665 310.612 297.081 310.348C297.497 310.076 297.977 309.94 298.521 309.94C299.329 309.94 299.965 310.192 300.429 310.696C300.893 311.2 301.125 311.88 301.125 312.736V312.88C301.117 312.952 301.089 313.008 301.041 313.048C301.001 313.088 300.945 313.108 300.873 313.108H296.577C296.601 313.78 296.777 314.348 297.105 314.812C297.441 315.268 297.941 315.496 298.605 315.496C298.965 315.496 299.281 315.432 299.553 315.304C299.833 315.168 300.141 314.932 300.477 314.596ZM298.521 310.6C297.993 310.6 297.557 310.764 297.213 311.092C296.877 311.412 296.673 311.884 296.601 312.508H300.333C300.317 311.924 300.149 311.46 299.829 311.116C299.509 310.772 299.073 310.6 298.521 310.6ZM307.518 310.036C307.718 310.036 307.954 310.068 308.226 310.132C308.37 310.18 308.426 310.28 308.394 310.432L308.346 310.624C308.306 310.776 308.206 310.832 308.046 310.792C307.854 310.744 307.678 310.72 307.518 310.72C307.11 310.72 306.77 310.896 306.498 311.248C306.234 311.6 306.102 312.088 306.102 312.712V315.76C306.102 315.92 306.022 316 305.862 316H305.55C305.39 316 305.31 315.92 305.31 315.76V310.324C305.31 310.164 305.39 310.084 305.55 310.084H305.814C305.974 310.084 306.054 310.164 306.054 310.324V310.984C306.19 310.688 306.382 310.456 306.63 310.288C306.886 310.12 307.182 310.036 307.518 310.036ZM311.598 309.94C312.326 309.94 312.894 310.116 313.302 310.468C313.71 310.812 313.914 311.268 313.914 311.836V315.76C313.914 315.92 313.834 316 313.674 316H313.434C313.274 316 313.194 315.92 313.194 315.76V315.22C312.994 315.54 312.71 315.78 312.342 315.94C311.982 316.1 311.578 316.18 311.13 316.18C310.506 316.18 309.998 316.048 309.606 315.784C309.214 315.52 309.018 315.112 309.018 314.56C309.018 314.12 309.142 313.768 309.39 313.504C309.638 313.232 309.962 313.028 310.362 312.892C310.762 312.748 311.262 312.62 311.862 312.508L313.158 312.28V311.896C313.158 311.488 313.018 311.172 312.738 310.948C312.458 310.716 312.09 310.6 311.634 310.6C311.29 310.6 310.978 310.664 310.698 310.792C310.418 310.92 310.118 311.14 309.798 311.452C309.742 311.508 309.682 311.536 309.618 311.536C309.562 311.536 309.51 311.512 309.462 311.464L309.306 311.32C309.25 311.264 309.222 311.204 309.222 311.14C309.222 311.068 309.25 311.004 309.306 310.948C309.642 310.596 309.994 310.34 310.362 310.18C310.738 310.02 311.15 309.94 311.598 309.94ZM311.166 315.52C311.742 315.52 312.218 315.368 312.594 315.064C312.97 314.76 313.158 314.372 313.158 313.9V312.892L312.042 313.108C311.522 313.212 311.11 313.312 310.806 313.408C310.502 313.504 310.258 313.644 310.074 313.828C309.89 314.012 309.798 314.252 309.798 314.548C309.798 314.852 309.918 315.092 310.158 315.268C310.406 315.436 310.742 315.52 311.166 315.52ZM318.309 309.94C319.005 309.94 319.529 310.132 319.881 310.516C320.241 310.9 320.421 311.38 320.421 311.956V315.76C320.421 315.92 320.341 316 320.181 316H319.869C319.709 316 319.629 315.92 319.629 315.76V312.22C319.629 311.692 319.501 311.292 319.245 311.02C318.989 310.748 318.621 310.612 318.141 310.612C317.837 310.612 317.557 310.688 317.301 310.84C317.045 310.984 316.841 311.184 316.689 311.44C316.537 311.696 316.461 311.976 316.461 312.28V315.76C316.461 315.92 316.381 316 316.221 316H315.909C315.749 316 315.669 315.92 315.669 315.76V310.324C315.669 310.164 315.749 310.084 315.909 310.084H316.173C316.333 310.084 316.413 310.164 316.413 310.324V310.9C316.613 310.58 316.877 310.34 317.205 310.18C317.533 310.02 317.901 309.94 318.309 309.94ZM326.421 310.324C326.421 310.164 326.501 310.084 326.661 310.084H326.913C327.073 310.084 327.153 310.164 327.153 310.324V315.94C327.153 316.684 326.929 317.268 326.481 317.692C326.033 318.124 325.405 318.34 324.597 318.34C323.725 318.34 322.921 318.092 322.185 317.596C322.105 317.548 322.065 317.488 322.065 317.416C322.065 317.36 322.081 317.312 322.113 317.272L322.257 317.068C322.305 316.988 322.369 316.948 322.449 316.948C322.481 316.948 322.529 316.964 322.593 316.996C322.945 317.22 323.273 317.388 323.577 317.5C323.889 317.612 324.229 317.668 324.597 317.668C325.125 317.668 325.553 317.52 325.881 317.224C326.209 316.936 326.373 316.488 326.373 315.88V314.92C325.941 315.616 325.285 315.964 324.405 315.964C323.893 315.964 323.441 315.836 323.049 315.58C322.657 315.316 322.353 314.956 322.137 314.5C321.929 314.044 321.825 313.528 321.825 312.952C321.825 312.376 321.929 311.86 322.137 311.404C322.353 310.948 322.657 310.592 323.049 310.336C323.441 310.072 323.893 309.94 324.405 309.94C324.869 309.94 325.269 310.04 325.605 310.24C325.949 310.432 326.221 310.708 326.421 311.068V310.324ZM324.489 315.292C325.065 315.292 325.525 315.076 325.869 314.644C326.213 314.204 326.385 313.64 326.385 312.952C326.385 312.264 326.213 311.704 325.869 311.272C325.525 310.832 325.065 310.612 324.489 310.612C323.905 310.612 323.449 310.828 323.121 311.26C322.801 311.692 322.641 312.256 322.641 312.952C322.641 313.648 322.801 314.212 323.121 314.644C323.449 315.076 323.905 315.292 324.489 315.292ZM333.243 314.596C333.299 314.54 333.359 314.512 333.423 314.512C333.479 314.512 333.531 314.536 333.579 314.584L333.735 314.728C333.791 314.784 333.819 314.844 333.819 314.908C333.819 314.956 333.795 315.012 333.747 315.076C333.355 315.468 332.975 315.748 332.607 315.916C332.239 316.076 331.827 316.156 331.371 316.156C330.795 316.156 330.295 316.028 329.871 315.772C329.447 315.516 329.119 315.16 328.887 314.704C328.655 314.24 328.539 313.704 328.539 313.096C328.539 312.48 328.651 311.936 328.875 311.464C329.107 310.984 329.431 310.612 329.847 310.348C330.263 310.076 330.743 309.94 331.287 309.94C332.095 309.94 332.731 310.192 333.195 310.696C333.659 311.2 333.891 311.88 333.891 312.736V312.88C333.883 312.952 333.855 313.008 333.807 313.048C333.767 313.088 333.711 313.108 333.639 313.108H329.343C329.367 313.78 329.543 314.348 329.871 314.812C330.207 315.268 330.707 315.496 331.371 315.496C331.731 315.496 332.047 315.432 332.319 315.304C332.599 315.168 332.907 314.932 333.243 314.596ZM331.287 310.6C330.759 310.6 330.323 310.764 329.979 311.092C329.643 311.412 329.439 311.884 329.367 312.508H333.099C333.083 311.924 332.915 311.46 332.595 311.116C332.275 310.772 331.839 310.6 331.287 310.6Z" fill="#D91F0A"/>
<path d="M185.032 230.092C186.021 230.092 186.824 230.344 187.44 230.848C188.056 231.352 188.364 232.071 188.364 233.004C188.364 233.527 188.233 234.035 187.972 234.53C187.72 235.025 187.342 235.431 186.838 235.748C186.334 236.056 185.727 236.21 185.018 236.21C184.43 236.21 183.865 236.126 183.324 235.958C182.792 235.781 182.246 235.515 181.686 235.16C181.593 235.104 181.546 235.029 181.546 234.936C181.546 234.871 181.565 234.815 181.602 234.768L181.784 234.516C181.84 234.432 181.91 234.39 181.994 234.39C182.069 234.39 182.129 234.409 182.176 234.446C182.727 234.791 183.212 235.039 183.632 235.188C184.061 235.328 184.514 235.398 184.99 235.398C185.475 235.398 185.9 235.295 186.264 235.09C186.628 234.875 186.908 234.591 187.104 234.236C187.309 233.872 187.412 233.466 187.412 233.018C187.412 232.346 187.197 231.819 186.768 231.436C186.339 231.053 185.699 230.862 184.85 230.862C184.495 230.862 184.183 230.899 183.912 230.974C183.884 230.983 183.847 230.988 183.8 230.988C183.697 230.988 183.613 230.941 183.548 230.848L183.394 230.638C183.347 230.563 183.324 230.498 183.324 230.442C183.324 230.367 183.357 230.302 183.422 230.246L186.95 226.872H182.218C182.031 226.872 181.938 226.779 181.938 226.592V226.34C181.938 226.153 182.031 226.06 182.218 226.06H187.846C188.033 226.06 188.126 226.153 188.126 226.34V226.648C188.126 226.779 188.075 226.895 187.972 226.998L184.696 230.106L185.032 230.092ZM193.544 229.588C194.188 229.588 194.752 229.723 195.238 229.994C195.732 230.255 196.115 230.629 196.386 231.114C196.656 231.599 196.792 232.159 196.792 232.794C196.792 233.363 196.656 233.909 196.386 234.432C196.115 234.955 195.723 235.379 195.21 235.706C194.696 236.033 194.094 236.196 193.404 236.196C192.732 236.196 192.148 236.112 191.654 235.944C191.168 235.776 190.618 235.487 190.002 235.076C189.908 235.02 189.862 234.945 189.862 234.852C189.862 234.787 189.88 234.731 189.918 234.684L190.1 234.432C190.156 234.348 190.221 234.306 190.296 234.306C190.352 234.306 190.417 234.329 190.492 234.376C191.061 234.759 191.546 235.025 191.948 235.174C192.358 235.323 192.811 235.398 193.306 235.398C193.828 235.398 194.281 235.281 194.664 235.048C195.046 234.805 195.336 234.488 195.532 234.096C195.737 233.695 195.84 233.261 195.84 232.794C195.84 232.047 195.63 231.464 195.21 231.044C194.799 230.624 194.206 230.414 193.432 230.414C192.601 230.414 191.906 230.666 191.346 231.17C191.243 231.263 191.122 231.301 190.982 231.282L190.674 231.24C190.59 231.231 190.524 231.198 190.478 231.142C190.431 231.086 190.412 231.016 190.422 230.932L190.8 226.326C190.809 226.242 190.837 226.177 190.884 226.13C190.94 226.083 191.01 226.06 191.094 226.06H196.078C196.264 226.06 196.358 226.153 196.358 226.34V226.592C196.358 226.779 196.264 226.872 196.078 226.872H191.626L191.332 230.316C191.593 230.101 191.91 229.929 192.284 229.798C192.666 229.658 193.086 229.588 193.544 229.588ZM208.847 228.93C209.594 228.93 210.163 229.145 210.555 229.574C210.956 229.994 211.157 230.535 211.157 231.198V235.72C211.157 235.907 211.064 236 210.877 236H210.513C210.326 236 210.233 235.907 210.233 235.72V231.45C210.233 230.89 210.102 230.461 209.841 230.162C209.589 229.863 209.211 229.714 208.707 229.714C208.175 229.714 207.75 229.891 207.433 230.246C207.116 230.601 206.957 231.058 206.957 231.618V235.72C206.957 235.907 206.864 236 206.677 236H206.313C206.126 236 206.033 235.907 206.033 235.72V231.45C206.033 230.89 205.902 230.461 205.641 230.162C205.389 229.863 205.006 229.714 204.493 229.714C204.017 229.714 203.62 229.863 203.303 230.162C202.995 230.461 202.813 230.853 202.757 231.338V235.72C202.757 235.907 202.664 236 202.477 236H202.113C201.926 236 201.833 235.907 201.833 235.72V229.378C201.833 229.191 201.926 229.098 202.113 229.098H202.421C202.608 229.098 202.701 229.191 202.701 229.378V229.952C203.121 229.271 203.788 228.93 204.703 228.93C205.179 228.93 205.585 229.037 205.921 229.252C206.266 229.457 206.523 229.737 206.691 230.092C207.186 229.317 207.904 228.93 208.847 228.93ZM216.434 230.513C216.546 230.513 216.602 230.569 216.602 230.681V230.832C216.602 230.944 216.546 231 216.434 231H212.704C212.592 231 212.536 230.944 212.536 230.832V230.798C212.536 230.39 212.606 230.045 212.746 229.765C212.892 229.48 213.079 229.239 213.309 229.043C213.544 228.847 213.866 228.623 214.275 228.371C214.314 228.343 214.46 228.256 214.712 228.11C215.009 227.942 215.241 227.797 215.409 227.674C215.577 227.55 215.717 227.399 215.829 227.22C215.941 227.035 215.997 226.82 215.997 226.573C215.997 226.198 215.871 225.91 215.619 225.708C215.367 225.506 215.062 225.406 214.703 225.406C214.356 225.406 214.068 225.478 213.838 225.624C213.609 225.77 213.343 226.022 213.04 226.38C213.001 226.43 212.953 226.456 212.897 226.456C212.869 226.456 212.836 226.442 212.797 226.414L212.654 226.304C212.603 226.26 212.578 226.215 212.578 226.17C212.578 226.142 212.592 226.108 212.62 226.069C212.917 225.694 213.225 225.408 213.544 225.212C213.869 225.016 214.25 224.918 214.687 224.918C215.051 224.918 215.375 224.988 215.661 225.128C215.947 225.263 216.168 225.456 216.325 225.708C216.487 225.954 216.568 226.234 216.568 226.548C216.568 226.878 216.498 227.164 216.358 227.405C216.224 227.64 216.053 227.836 215.846 227.993C215.639 228.144 215.359 228.323 215.006 228.53L214.586 228.782C214.233 229.001 213.964 229.18 213.779 229.32C213.595 229.454 213.441 229.62 213.317 229.816C213.194 230.006 213.121 230.238 213.099 230.513H216.434Z" fill="#5C5C66"/>
<path d="M469.979 232.794C470.166 232.794 470.259 232.887 470.259 233.074V233.312C470.259 233.499 470.166 233.592 469.979 233.592H468.733V235.72C468.733 235.907 468.64 236 468.453 236H468.089C467.902 236 467.809 235.907 467.809 235.72V233.592H462.993C462.806 233.592 462.713 233.499 462.713 233.312V232.948C462.713 232.845 462.746 232.733 462.811 232.612L466.815 226.242C466.89 226.121 467.002 226.06 467.151 226.06H467.599C467.674 226.06 467.734 226.079 467.781 226.116C467.828 226.144 467.851 226.186 467.851 226.242C467.851 226.27 467.832 226.321 467.795 226.396L463.749 232.794H467.809V230.68C467.809 230.493 467.902 230.4 468.089 230.4H468.453C468.64 230.4 468.733 230.493 468.733 230.68V232.794H469.979ZM474.833 236.21C474.179 236.21 473.605 236.051 473.111 235.734C472.625 235.417 472.238 234.973 471.949 234.404C471.491 233.499 471.263 232.374 471.263 231.03C471.263 229.677 471.491 228.547 471.949 227.642C472.238 227.073 472.625 226.634 473.111 226.326C473.605 226.009 474.179 225.85 474.833 225.85C475.486 225.85 476.055 226.009 476.541 226.326C477.035 226.634 477.427 227.073 477.717 227.642C478.174 228.547 478.403 229.677 478.403 231.03C478.403 232.374 478.174 233.499 477.717 234.404C477.427 234.973 477.035 235.417 476.541 235.734C476.055 236.051 475.486 236.21 474.833 236.21ZM474.833 235.398C475.747 235.398 476.433 234.922 476.891 233.97C477.255 233.195 477.437 232.215 477.437 231.03C477.437 229.826 477.255 228.841 476.891 228.076C476.443 227.133 475.757 226.662 474.833 226.662C473.909 226.662 473.223 227.133 472.775 228.076C472.411 228.841 472.229 229.826 472.229 231.03C472.229 232.225 472.411 233.205 472.775 233.97C473.232 234.922 473.918 235.398 474.833 235.398ZM483.419 236.21C482.765 236.21 482.191 236.051 481.697 235.734C481.211 235.417 480.824 234.973 480.535 234.404C480.077 233.499 479.849 232.374 479.849 231.03C479.849 229.677 480.077 228.547 480.535 227.642C480.824 227.073 481.211 226.634 481.697 226.326C482.191 226.009 482.765 225.85 483.419 225.85C484.072 225.85 484.641 226.009 485.127 226.326C485.621 226.634 486.013 227.073 486.303 227.642C486.76 228.547 486.989 229.677 486.989 231.03C486.989 232.374 486.76 233.499 486.303 234.404C486.013 234.973 485.621 235.417 485.127 235.734C484.641 236.051 484.072 236.21 483.419 236.21ZM483.419 235.398C484.333 235.398 485.019 234.922 485.477 233.97C485.841 233.195 486.023 232.215 486.023 231.03C486.023 229.826 485.841 228.841 485.477 228.076C485.029 227.133 484.343 226.662 483.419 226.662C482.495 226.662 481.809 227.133 481.361 228.076C480.997 228.841 480.815 229.826 480.815 231.03C480.815 232.225 480.997 233.205 481.361 233.97C481.818 234.922 482.504 235.398 483.419 235.398ZM498.89 228.93C499.637 228.93 500.206 229.145 500.598 229.574C500.999 229.994 501.2 230.535 501.2 231.198V235.72C501.2 235.907 501.107 236 500.92 236H500.556C500.369 236 500.276 235.907 500.276 235.72V231.45C500.276 230.89 500.145 230.461 499.884 230.162C499.632 229.863 499.254 229.714 498.75 229.714C498.218 229.714 497.793 229.891 497.476 230.246C497.159 230.601 497 231.058 497 231.618V235.72C497 235.907 496.907 236 496.72 236H496.356C496.169 236 496.076 235.907 496.076 235.72V231.45C496.076 230.89 495.945 230.461 495.684 230.162C495.432 229.863 495.049 229.714 494.536 229.714C494.06 229.714 493.663 229.863 493.346 230.162C493.038 230.461 492.856 230.853 492.8 231.338V235.72C492.8 235.907 492.707 236 492.52 236H492.156C491.969 236 491.876 235.907 491.876 235.72V229.378C491.876 229.191 491.969 229.098 492.156 229.098H492.464C492.651 229.098 492.744 229.191 492.744 229.378V229.952C493.164 229.271 493.831 228.93 494.746 228.93C495.222 228.93 495.628 229.037 495.964 229.252C496.309 229.457 496.566 229.737 496.734 230.092C497.229 229.317 497.947 228.93 498.89 228.93ZM506.477 230.513C506.589 230.513 506.645 230.569 506.645 230.681V230.832C506.645 230.944 506.589 231 506.477 231H502.747C502.635 231 502.579 230.944 502.579 230.832V230.798C502.579 230.39 502.649 230.045 502.789 229.765C502.935 229.48 503.122 229.239 503.352 229.043C503.587 228.847 503.909 228.623 504.318 228.371C504.357 228.343 504.503 228.256 504.755 228.11C505.052 227.942 505.284 227.797 505.452 227.674C505.62 227.55 505.76 227.399 505.872 227.22C505.984 227.035 506.04 226.82 506.04 226.573C506.04 226.198 505.914 225.91 505.662 225.708C505.41 225.506 505.105 225.406 504.746 225.406C504.399 225.406 504.111 225.478 503.881 225.624C503.652 225.77 503.386 226.022 503.083 226.38C503.044 226.43 502.996 226.456 502.94 226.456C502.912 226.456 502.879 226.442 502.84 226.414L502.697 226.304C502.646 226.26 502.621 226.215 502.621 226.17C502.621 226.142 502.635 226.108 502.663 226.069C502.96 225.694 503.268 225.408 503.587 225.212C503.912 225.016 504.293 224.918 504.73 224.918C505.094 224.918 505.418 224.988 505.704 225.128C505.99 225.263 506.211 225.456 506.368 225.708C506.53 225.954 506.611 226.234 506.611 226.548C506.611 226.878 506.541 227.164 506.401 227.405C506.267 227.64 506.096 227.836 505.889 227.993C505.682 228.144 505.402 228.323 505.049 228.53L504.629 228.782C504.276 229.001 504.007 229.18 503.822 229.32C503.638 229.454 503.484 229.62 503.36 229.816C503.237 230.006 503.164 230.238 503.142 230.513H506.477Z" fill="#5C5C66"/>
<path d="M189.218 174C188.938 174 188.751 173.869 188.658 173.608L188 171.718H183.604L182.946 173.608C182.853 173.869 182.666 174 182.386 174H181.798C181.658 174 181.546 173.972 181.462 173.916C181.387 173.851 181.35 173.762 181.35 173.65C181.35 173.594 181.364 173.524 181.392 173.44L184.64 164.452C184.733 164.191 184.92 164.06 185.2 164.06H186.446C186.726 164.06 186.913 164.191 187.006 164.452L190.254 173.44C190.282 173.524 190.296 173.594 190.296 173.65C190.296 173.762 190.254 173.851 190.17 173.916C190.095 173.972 189.988 174 189.848 174H189.218ZM187.552 170.388L187.118 169.156C187.109 169.137 187.006 168.843 186.81 168.274C186.315 166.874 185.979 165.875 185.802 165.278C185.531 166.137 185.172 167.201 184.724 168.47L184.486 169.17L184.066 170.388H187.552ZM195.174 166.916C195.762 166.916 196.285 167.065 196.742 167.364C197.209 167.663 197.573 168.087 197.834 168.638C198.096 169.189 198.226 169.823 198.226 170.542C198.226 171.27 198.096 171.909 197.834 172.46C197.573 173.011 197.209 173.435 196.742 173.734C196.276 174.033 195.753 174.182 195.174 174.182C194.204 174.182 193.476 173.846 192.99 173.174V175.988C192.99 176.147 192.948 176.268 192.864 176.352C192.78 176.436 192.659 176.478 192.5 176.478H191.996C191.847 176.478 191.726 176.436 191.632 176.352C191.548 176.268 191.506 176.147 191.506 175.988V167.588C191.506 167.429 191.548 167.308 191.632 167.224C191.726 167.14 191.847 167.098 191.996 167.098H192.402C192.561 167.098 192.682 167.14 192.766 167.224C192.85 167.308 192.892 167.429 192.892 167.588V168.106C193.387 167.313 194.148 166.916 195.174 166.916ZM194.866 172.894C195.426 172.894 195.874 172.684 196.21 172.264C196.546 171.835 196.714 171.261 196.714 170.542C196.714 169.833 196.546 169.263 196.21 168.834C195.884 168.405 195.44 168.19 194.88 168.19C194.311 168.19 193.844 168.4 193.48 168.82C193.116 169.24 192.934 169.814 192.934 170.542C192.934 171.27 193.116 171.844 193.48 172.264C193.844 172.684 194.306 172.894 194.866 172.894ZM202.485 166.888C203.418 166.888 204.137 167.107 204.641 167.546C205.145 167.975 205.397 168.549 205.397 169.268V173.51C205.397 173.659 205.355 173.781 205.271 173.874C205.187 173.958 205.065 174 204.907 174H204.543C204.393 174 204.272 173.958 204.179 173.874C204.095 173.781 204.053 173.659 204.053 173.51V173.202C203.829 173.529 203.521 173.781 203.129 173.958C202.737 174.135 202.279 174.224 201.757 174.224C201.038 174.224 200.445 174.065 199.979 173.748C199.521 173.421 199.293 172.931 199.293 172.278C199.293 171.55 199.563 171.013 200.105 170.668C200.655 170.313 201.416 170.047 202.387 169.87L203.969 169.576V169.324C203.969 168.941 203.833 168.647 203.563 168.442C203.301 168.227 202.951 168.12 202.513 168.12C202.139 168.12 201.813 168.185 201.533 168.316C201.262 168.437 200.968 168.643 200.651 168.932C200.529 169.035 200.413 169.086 200.301 169.086C200.189 169.086 200.072 169.035 199.951 168.932L199.727 168.736C199.605 168.624 199.545 168.503 199.545 168.372C199.545 168.251 199.601 168.134 199.713 168.022C200.114 167.639 200.539 167.355 200.987 167.168C201.435 166.981 201.934 166.888 202.485 166.888ZM201.967 173.034C202.527 173.034 202.998 172.885 203.381 172.586C203.773 172.287 203.969 171.858 203.969 171.298V170.654L202.751 170.906C202.069 171.046 201.565 171.205 201.239 171.382C200.912 171.559 200.749 171.83 200.749 172.194C200.749 172.455 200.856 172.661 201.071 172.81C201.285 172.959 201.584 173.034 201.967 173.034ZM210.2 167.028C210.406 167.028 210.616 167.051 210.83 167.098C211.082 167.154 211.208 167.303 211.208 167.546C211.208 167.611 211.204 167.658 211.194 167.686L211.124 168.022C211.068 168.283 210.928 168.414 210.704 168.414L210.578 168.4C210.41 168.372 210.261 168.358 210.13 168.358C209.664 168.358 209.286 168.545 208.996 168.918C208.716 169.282 208.576 169.791 208.576 170.444V173.51C208.576 173.659 208.534 173.781 208.45 173.874C208.366 173.958 208.245 174 208.086 174H207.582C207.433 174 207.312 173.958 207.218 173.874C207.134 173.781 207.092 173.659 207.092 173.51V167.588C207.092 167.429 207.134 167.308 207.218 167.224C207.312 167.14 207.433 167.098 207.582 167.098H207.988C208.147 167.098 208.268 167.14 208.352 167.224C208.436 167.308 208.478 167.429 208.478 167.588V168.134C208.646 167.789 208.875 167.518 209.164 167.322C209.454 167.126 209.799 167.028 210.2 167.028ZM215.784 172.824C215.812 172.815 215.854 172.81 215.91 172.81C216.143 172.81 216.283 172.945 216.33 173.216L216.372 173.44C216.381 173.468 216.386 173.515 216.386 173.58C216.386 173.813 216.255 173.963 215.994 174.028C215.62 174.112 215.28 174.154 214.972 174.154C214.309 174.154 213.828 174 213.53 173.692C213.24 173.384 213.096 172.922 213.096 172.306V168.232H212.326C212.176 168.232 212.055 168.19 211.962 168.106C211.878 168.013 211.836 167.891 211.836 167.742V167.588C211.836 167.429 211.878 167.308 211.962 167.224C212.055 167.14 212.176 167.098 212.326 167.098H213.096V165.362C213.096 165.203 213.138 165.082 213.222 164.998C213.315 164.914 213.436 164.872 213.586 164.872H214.09C214.248 164.872 214.37 164.914 214.454 164.998C214.538 165.082 214.58 165.203 214.58 165.362V167.098H215.84C215.998 167.098 216.12 167.14 216.204 167.224C216.288 167.308 216.33 167.429 216.33 167.588V167.742C216.33 167.891 216.288 168.013 216.204 168.106C216.12 168.19 215.998 168.232 215.84 168.232H214.58V172.124C214.58 172.395 214.636 172.586 214.748 172.698C214.869 172.81 215.06 172.866 215.322 172.866C215.434 172.866 215.588 172.852 215.784 172.824ZM224.957 166.888C225.695 166.888 226.264 167.098 226.665 167.518C227.067 167.929 227.267 168.484 227.267 169.184V173.51C227.267 173.659 227.225 173.781 227.141 173.874C227.057 173.958 226.936 174 226.777 174H226.273C226.124 174 226.003 173.958 225.909 173.874C225.825 173.781 225.783 173.659 225.783 173.51V169.632C225.783 169.175 225.681 168.815 225.475 168.554C225.27 168.293 224.957 168.162 224.537 168.162C224.108 168.162 223.767 168.307 223.515 168.596C223.273 168.885 223.151 169.259 223.151 169.716V173.51C223.151 173.659 223.109 173.781 223.025 173.874C222.941 173.958 222.82 174 222.661 174H222.157C222.008 174 221.887 173.958 221.793 173.874C221.709 173.781 221.667 173.659 221.667 173.51V169.632C221.667 169.175 221.565 168.815 221.359 168.554C221.163 168.293 220.855 168.162 220.435 168.162C220.025 168.162 219.693 168.297 219.441 168.568C219.189 168.839 219.054 169.189 219.035 169.618V173.51C219.035 173.659 218.993 173.781 218.909 173.874C218.825 173.958 218.704 174 218.545 174H218.041C217.892 174 217.771 173.958 217.677 173.874C217.593 173.781 217.551 173.659 217.551 173.51V167.588C217.551 167.429 217.593 167.308 217.677 167.224C217.771 167.14 217.892 167.098 218.041 167.098H218.447C218.606 167.098 218.727 167.14 218.811 167.224C218.895 167.308 218.937 167.429 218.937 167.588V167.896C219.367 167.224 220.029 166.888 220.925 166.888C221.373 166.888 221.765 166.981 222.101 167.168C222.437 167.355 222.694 167.616 222.871 167.952C223.347 167.243 224.043 166.888 224.957 166.888ZM233.909 172.236C234.031 172.133 234.147 172.082 234.259 172.082C234.371 172.082 234.488 172.143 234.609 172.264L234.805 172.474C234.908 172.595 234.959 172.712 234.959 172.824C234.959 172.945 234.899 173.062 234.777 173.174C234.348 173.547 233.919 173.813 233.489 173.972C233.069 174.131 232.603 174.21 232.089 174.21C231.371 174.21 230.745 174.061 230.213 173.762C229.691 173.463 229.285 173.043 228.995 172.502C228.715 171.951 228.575 171.317 228.575 170.598C228.575 169.889 228.711 169.254 228.981 168.694C229.261 168.125 229.653 167.681 230.157 167.364C230.671 167.047 231.268 166.888 231.949 166.888C232.967 166.888 233.751 167.191 234.301 167.798C234.852 168.395 235.127 169.221 235.127 170.276V170.402C235.118 170.551 235.071 170.668 234.987 170.752C234.903 170.836 234.782 170.878 234.623 170.878H230.031C230.087 171.494 230.288 171.998 230.633 172.39C230.988 172.773 231.483 172.964 232.117 172.964C232.463 172.964 232.766 172.913 233.027 172.81C233.289 172.698 233.583 172.507 233.909 172.236ZM231.921 168.064C231.408 168.064 230.993 168.218 230.675 168.526C230.367 168.825 230.167 169.249 230.073 169.8H233.671C233.634 169.259 233.466 168.834 233.167 168.526C232.869 168.218 232.453 168.064 231.921 168.064ZM240.001 166.888C240.794 166.888 241.401 167.112 241.821 167.56C242.25 167.999 242.465 168.568 242.465 169.268V173.51C242.465 173.659 242.423 173.781 242.339 173.874C242.255 173.958 242.133 174 241.975 174H241.471C241.321 174 241.2 173.958 241.107 173.874C241.023 173.781 240.981 173.659 240.981 173.51V169.73C240.981 169.226 240.855 168.839 240.603 168.568C240.36 168.297 240.01 168.162 239.553 168.162C239.105 168.162 238.727 168.316 238.419 168.624C238.12 168.932 237.971 169.319 237.971 169.786V173.51C237.971 173.659 237.929 173.781 237.845 173.874C237.761 173.958 237.639 174 237.481 174H236.977C236.827 174 236.706 173.958 236.613 173.874C236.529 173.781 236.487 173.659 236.487 173.51V167.588C236.487 167.429 236.529 167.308 236.613 167.224C236.706 167.14 236.827 167.098 236.977 167.098H237.383C237.541 167.098 237.663 167.14 237.747 167.224C237.831 167.308 237.873 167.429 237.873 167.588V167.952C238.097 167.607 238.391 167.345 238.755 167.168C239.119 166.981 239.534 166.888 240.001 166.888ZM247.352 172.824C247.38 172.815 247.422 172.81 247.478 172.81C247.711 172.81 247.851 172.945 247.898 173.216L247.94 173.44C247.949 173.468 247.954 173.515 247.954 173.58C247.954 173.813 247.823 173.963 247.562 174.028C247.189 174.112 246.848 174.154 246.54 174.154C245.877 174.154 245.397 174 245.098 173.692C244.809 173.384 244.664 172.922 244.664 172.306V168.232H243.894C243.745 168.232 243.623 168.19 243.53 168.106C243.446 168.013 243.404 167.891 243.404 167.742V167.588C243.404 167.429 243.446 167.308 243.53 167.224C243.623 167.14 243.745 167.098 243.894 167.098H244.664V165.362C244.664 165.203 244.706 165.082 244.79 164.998C244.883 164.914 245.005 164.872 245.154 164.872H245.658C245.817 164.872 245.938 164.914 246.022 164.998C246.106 165.082 246.148 165.203 246.148 165.362V167.098H247.408C247.567 167.098 247.688 167.14 247.772 167.224C247.856 167.308 247.898 167.429 247.898 167.588V167.742C247.898 167.891 247.856 168.013 247.772 168.106C247.688 168.19 247.567 168.232 247.408 168.232H246.148V172.124C246.148 172.395 246.204 172.586 246.316 172.698C246.437 172.81 246.629 172.866 246.89 172.866C247.002 172.866 247.156 172.852 247.352 172.824ZM254.91 174.21C254.341 174.21 253.832 174.14 253.384 174C252.946 173.851 252.498 173.594 252.04 173.23C251.9 173.127 251.83 173.011 251.83 172.88C251.83 172.777 251.882 172.665 251.984 172.544L252.194 172.306C252.306 172.175 252.428 172.11 252.558 172.11C252.661 172.11 252.773 172.157 252.894 172.25C253.286 172.539 253.632 172.74 253.93 172.852C254.229 172.955 254.565 173.006 254.938 173.006C255.34 173.006 255.666 172.927 255.918 172.768C256.18 172.6 256.31 172.376 256.31 172.096C256.31 171.881 256.236 171.713 256.086 171.592C255.946 171.461 255.76 171.363 255.526 171.298C255.293 171.223 254.948 171.139 254.49 171.046C253.846 170.906 253.342 170.757 252.978 170.598C252.624 170.43 252.367 170.22 252.208 169.968C252.05 169.716 251.97 169.394 251.97 169.002C251.97 168.601 252.082 168.241 252.306 167.924C252.54 167.607 252.862 167.355 253.272 167.168C253.692 166.981 254.182 166.888 254.742 166.888C255.246 166.888 255.694 166.944 256.086 167.056C256.488 167.168 256.88 167.359 257.262 167.63C257.412 167.742 257.486 167.868 257.486 168.008C257.486 168.101 257.44 168.209 257.346 168.33L257.164 168.554C257.062 168.685 256.936 168.75 256.786 168.75C256.674 168.75 256.567 168.713 256.464 168.638C256.156 168.433 255.872 168.293 255.61 168.218C255.349 168.134 255.055 168.092 254.728 168.092C254.327 168.092 254.005 168.171 253.762 168.33C253.52 168.489 253.398 168.694 253.398 168.946C253.398 169.114 253.454 169.249 253.566 169.352C253.688 169.445 253.856 169.529 254.07 169.604C254.294 169.669 254.644 169.753 255.12 169.856C255.764 169.996 256.273 170.155 256.646 170.332C257.029 170.5 257.309 170.719 257.486 170.99C257.673 171.251 257.766 171.592 257.766 172.012C257.766 172.665 257.505 173.197 256.982 173.608C256.469 174.009 255.778 174.21 254.91 174.21ZM259.801 165.754C259.531 165.754 259.302 165.665 259.115 165.488C258.929 165.301 258.835 165.082 258.835 164.83C258.835 164.569 258.929 164.349 259.115 164.172C259.302 163.995 259.531 163.906 259.801 163.906C260.072 163.906 260.301 163.995 260.487 164.172C260.674 164.349 260.767 164.569 260.767 164.83C260.767 165.082 260.674 165.301 260.487 165.488C260.301 165.665 260.072 165.754 259.801 165.754ZM259.535 174C259.386 174 259.265 173.958 259.171 173.874C259.087 173.781 259.045 173.659 259.045 173.51V167.588C259.045 167.429 259.087 167.308 259.171 167.224C259.265 167.14 259.386 167.098 259.535 167.098H260.039C260.198 167.098 260.319 167.14 260.403 167.224C260.487 167.308 260.529 167.429 260.529 167.588V173.51C260.529 173.659 260.487 173.781 260.403 173.874C260.319 173.958 260.198 174 260.039 174H259.535ZM267.033 167.098C267.191 167.098 267.313 167.14 267.397 167.224C267.481 167.308 267.523 167.429 267.523 167.588V167.854C267.523 168.087 267.448 168.293 267.299 168.47L263.715 172.782H267.033C267.191 172.782 267.313 172.824 267.397 172.908C267.481 172.992 267.523 173.113 267.523 173.272V173.51C267.523 173.659 267.481 173.781 267.397 173.874C267.313 173.958 267.191 174 267.033 174H262.371C262.221 174 262.1 173.958 262.007 173.874C261.923 173.781 261.881 173.659 261.881 173.51V173.23C261.881 172.997 261.955 172.791 262.105 172.614L265.703 168.302H262.609C262.459 168.302 262.338 168.26 262.245 168.176C262.161 168.083 262.119 167.961 262.119 167.812V167.588C262.119 167.429 262.161 167.308 262.245 167.224C262.338 167.14 262.459 167.098 262.609 167.098H267.033ZM273.653 172.236C273.775 172.133 273.891 172.082 274.003 172.082C274.115 172.082 274.232 172.143 274.353 172.264L274.549 172.474C274.652 172.595 274.703 172.712 274.703 172.824C274.703 172.945 274.643 173.062 274.521 173.174C274.092 173.547 273.663 173.813 273.233 173.972C272.813 174.131 272.347 174.21 271.833 174.21C271.115 174.21 270.489 174.061 269.957 173.762C269.435 173.463 269.029 173.043 268.739 172.502C268.459 171.951 268.319 171.317 268.319 170.598C268.319 169.889 268.455 169.254 268.725 168.694C269.005 168.125 269.397 167.681 269.901 167.364C270.415 167.047 271.012 166.888 271.693 166.888C272.711 166.888 273.495 167.191 274.045 167.798C274.596 168.395 274.871 169.221 274.871 170.276V170.402C274.862 170.551 274.815 170.668 274.731 170.752C274.647 170.836 274.526 170.878 274.367 170.878H269.775C269.831 171.494 270.032 171.998 270.377 172.39C270.732 172.773 271.227 172.964 271.861 172.964C272.207 172.964 272.51 172.913 272.771 172.81C273.033 172.698 273.327 172.507 273.653 172.236ZM271.665 168.064C271.152 168.064 270.737 168.218 270.419 168.526C270.111 168.825 269.911 169.249 269.817 169.8H273.415C273.378 169.259 273.21 168.834 272.911 168.526C272.613 168.218 272.197 168.064 271.665 168.064Z" fill="#1B1B1F"/>
<rect x="181" y="198" width="326" height="4" rx="2" fill="#DEDEE3"/>
<rect x="181" y="186" width="28" height="28" rx="14" fill="#0063FB"/>
<path d="M231.484 430C231.297 430 231.204 429.907 231.204 429.72V420.34C231.204 420.153 231.297 420.06 231.484 420.06H237.364C237.551 420.06 237.644 420.153 237.644 420.34V420.606C237.644 420.793 237.551 420.886 237.364 420.886H232.198V424.484H236.972C237.159 424.484 237.252 424.577 237.252 424.764V425.016C237.252 425.203 237.159 425.296 236.972 425.296H232.198V429.174H237.476C237.663 429.174 237.756 429.267 237.756 429.454V429.72C237.756 429.907 237.663 430 237.476 430H231.484ZM244.499 429.664C244.536 429.729 244.555 429.785 244.555 429.832C244.555 429.944 244.48 430 244.331 430H243.911C243.771 430 243.659 429.939 243.575 429.818L241.671 427.018L239.781 429.818C239.697 429.939 239.585 430 239.445 430H239.053C238.978 430 238.917 429.986 238.871 429.958C238.833 429.921 238.815 429.879 238.815 429.832C238.815 429.767 238.833 429.711 238.871 429.664L241.139 426.402L239.053 423.434C239.015 423.387 238.997 423.336 238.997 423.28C238.997 423.159 239.076 423.098 239.235 423.098H239.641C239.781 423.098 239.893 423.159 239.977 423.28L241.685 425.786L243.379 423.28C243.463 423.159 243.575 423.098 243.715 423.098H244.093C244.167 423.098 244.223 423.117 244.261 423.154C244.307 423.182 244.331 423.219 244.331 423.266C244.331 423.331 244.312 423.387 244.275 423.434L242.231 426.36L244.499 429.664ZM248.639 422.93C249.489 422.93 250.151 423.135 250.627 423.546C251.103 423.947 251.341 424.479 251.341 425.142V429.72C251.341 429.907 251.248 430 251.061 430H250.781C250.595 430 250.501 429.907 250.501 429.72V429.09C250.268 429.463 249.937 429.743 249.507 429.93C249.087 430.117 248.616 430.21 248.093 430.21C247.365 430.21 246.773 430.056 246.315 429.748C245.858 429.44 245.629 428.964 245.629 428.32C245.629 427.807 245.774 427.396 246.063 427.088C246.353 426.771 246.731 426.533 247.197 426.374C247.664 426.206 248.247 426.057 248.947 425.926L250.459 425.66V425.212C250.459 424.736 250.296 424.367 249.969 424.106C249.643 423.835 249.213 423.7 248.681 423.7C248.28 423.7 247.916 423.775 247.589 423.924C247.263 424.073 246.913 424.33 246.539 424.694C246.474 424.759 246.404 424.792 246.329 424.792C246.264 424.792 246.203 424.764 246.147 424.708L245.965 424.54C245.9 424.475 245.867 424.405 245.867 424.33C245.867 424.246 245.9 424.171 245.965 424.106C246.357 423.695 246.768 423.397 247.197 423.21C247.636 423.023 248.117 422.93 248.639 422.93ZM248.135 429.44C248.807 429.44 249.363 429.263 249.801 428.908C250.24 428.553 250.459 428.101 250.459 427.55V426.374L249.157 426.626C248.551 426.747 248.07 426.864 247.715 426.976C247.361 427.088 247.076 427.251 246.861 427.466C246.647 427.681 246.539 427.961 246.539 428.306C246.539 428.661 246.679 428.941 246.959 429.146C247.249 429.342 247.641 429.44 248.135 429.44ZM260.404 422.93C261.15 422.93 261.72 423.145 262.112 423.574C262.513 423.994 262.714 424.535 262.714 425.198V429.72C262.714 429.907 262.62 430 262.434 430H262.07C261.883 430 261.79 429.907 261.79 429.72V425.45C261.79 424.89 261.659 424.461 261.398 424.162C261.146 423.863 260.768 423.714 260.264 423.714C259.732 423.714 259.307 423.891 258.99 424.246C258.672 424.601 258.514 425.058 258.514 425.618V429.72C258.514 429.907 258.42 430 258.234 430H257.87C257.683 430 257.59 429.907 257.59 429.72V425.45C257.59 424.89 257.459 424.461 257.198 424.162C256.946 423.863 256.563 423.714 256.05 423.714C255.574 423.714 255.177 423.863 254.86 424.162C254.552 424.461 254.37 424.853 254.314 425.338V429.72C254.314 429.907 254.22 430 254.034 430H253.67C253.483 430 253.39 429.907 253.39 429.72V423.378C253.39 423.191 253.483 423.098 253.67 423.098H253.978C254.164 423.098 254.258 423.191 254.258 423.378V423.952C254.678 423.271 255.345 422.93 256.26 422.93C256.736 422.93 257.142 423.037 257.478 423.252C257.823 423.457 258.08 423.737 258.248 424.092C258.742 423.317 259.461 422.93 260.404 422.93ZM268.055 422.944C268.634 422.944 269.152 423.098 269.609 423.406C270.076 423.705 270.44 424.129 270.701 424.68C270.962 425.221 271.093 425.842 271.093 426.542C271.093 427.251 270.962 427.881 270.701 428.432C270.44 428.983 270.08 429.412 269.623 429.72C269.166 430.019 268.643 430.168 268.055 430.168C266.972 430.168 266.179 429.771 265.675 428.978V432.296C265.675 432.483 265.582 432.576 265.395 432.576H265.031C264.844 432.576 264.751 432.483 264.751 432.296V423.378C264.751 423.191 264.844 423.098 265.031 423.098H265.339C265.526 423.098 265.619 423.191 265.619 423.378V424.26C265.871 423.831 266.202 423.504 266.613 423.28C267.024 423.056 267.504 422.944 268.055 422.944ZM267.985 429.384C268.638 429.384 269.161 429.123 269.553 428.6C269.945 428.077 270.141 427.391 270.141 426.542C270.141 425.702 269.945 425.025 269.553 424.512C269.161 423.989 268.638 423.728 267.985 423.728C267.285 423.728 266.716 423.98 266.277 424.484C265.848 424.979 265.633 425.665 265.633 426.542C265.633 427.419 265.852 428.115 266.291 428.628C266.73 429.132 267.294 429.384 267.985 429.384ZM273.029 430C272.843 430 272.749 429.907 272.749 429.72V420.34C272.749 420.153 272.843 420.06 273.029 420.06H273.393C273.58 420.06 273.673 420.153 273.673 420.34V429.72C273.673 429.907 273.58 430 273.393 430H273.029ZM280.783 428.362C280.848 428.297 280.918 428.264 280.993 428.264C281.058 428.264 281.119 428.292 281.175 428.348L281.357 428.516C281.422 428.581 281.455 428.651 281.455 428.726C281.455 428.782 281.427 428.847 281.371 428.922C280.913 429.379 280.47 429.706 280.041 429.902C279.611 430.089 279.131 430.182 278.599 430.182C277.927 430.182 277.343 430.033 276.849 429.734C276.354 429.435 275.971 429.02 275.701 428.488C275.43 427.947 275.295 427.321 275.295 426.612C275.295 425.893 275.425 425.259 275.687 424.708C275.957 424.148 276.335 423.714 276.821 423.406C277.306 423.089 277.866 422.93 278.501 422.93C279.443 422.93 280.185 423.224 280.727 423.812C281.268 424.4 281.539 425.193 281.539 426.192V426.36C281.529 426.444 281.497 426.509 281.441 426.556C281.394 426.603 281.329 426.626 281.245 426.626H276.233C276.261 427.41 276.466 428.073 276.849 428.614C277.241 429.146 277.824 429.412 278.599 429.412C279.019 429.412 279.387 429.337 279.705 429.188C280.031 429.029 280.391 428.754 280.783 428.362ZM278.501 423.7C277.885 423.7 277.376 423.891 276.975 424.274C276.583 424.647 276.345 425.198 276.261 425.926H280.615C280.596 425.245 280.4 424.703 280.027 424.302C279.653 423.901 279.145 423.7 278.501 423.7ZM289.277 430.182C288.633 430.182 288.059 430.028 287.555 429.72C287.051 429.412 286.659 428.987 286.379 428.446C286.099 427.895 285.959 427.265 285.959 426.556C285.959 425.847 286.099 425.221 286.379 424.68C286.659 424.129 287.051 423.7 287.555 423.392C288.059 423.084 288.633 422.93 289.277 422.93C289.921 422.93 290.495 423.084 290.999 423.392C291.503 423.7 291.895 424.129 292.175 424.68C292.455 425.221 292.595 425.847 292.595 426.556C292.595 427.265 292.455 427.895 292.175 428.446C291.895 428.987 291.503 429.412 290.999 429.72C290.495 430.028 289.921 430.182 289.277 430.182ZM289.277 429.412C289.995 429.412 290.569 429.151 290.999 428.628C291.428 428.096 291.643 427.405 291.643 426.556C291.643 425.707 291.428 425.021 290.999 424.498C290.569 423.966 289.995 423.7 289.277 423.7C288.558 423.7 287.984 423.966 287.555 424.498C287.125 425.021 286.911 425.707 286.911 426.556C286.911 427.405 287.125 428.096 287.555 428.628C287.984 429.151 288.558 429.412 289.277 429.412ZM296.695 420.662C296.275 420.662 295.977 420.774 295.799 420.998C295.622 421.213 295.533 421.577 295.533 422.09V423.098H297.073C297.26 423.098 297.353 423.191 297.353 423.378V423.518C297.353 423.705 297.26 423.798 297.073 423.798H295.533V429.72C295.533 429.907 295.44 430 295.253 430H294.889C294.703 430 294.609 429.907 294.609 429.72V423.798H293.573C293.387 423.798 293.293 423.705 293.293 423.518V423.378C293.293 423.191 293.387 423.098 293.573 423.098H294.609V421.936C294.609 421.292 294.777 420.788 295.113 420.424C295.459 420.06 295.949 419.878 296.583 419.878C296.938 419.878 297.302 419.929 297.675 420.032C297.853 420.088 297.918 420.205 297.871 420.382L297.815 420.578C297.769 420.709 297.675 420.774 297.535 420.774C297.507 420.774 297.447 420.765 297.353 420.746C297.148 420.69 296.929 420.662 296.695 420.662ZM306.964 428.362C307.03 428.297 307.1 428.264 307.174 428.264C307.24 428.264 307.3 428.292 307.356 428.348L307.538 428.516C307.604 428.581 307.636 428.651 307.636 428.726C307.636 428.782 307.608 428.847 307.552 428.922C307.095 429.379 306.652 429.706 306.222 429.902C305.793 430.089 305.312 430.182 304.78 430.182C304.108 430.182 303.525 430.033 303.03 429.734C302.536 429.435 302.153 429.02 301.882 428.488C301.612 427.947 301.476 427.321 301.476 426.612C301.476 425.893 301.607 425.259 301.868 424.708C302.139 424.148 302.517 423.714 303.002 423.406C303.488 423.089 304.048 422.93 304.682 422.93C305.625 422.93 306.367 423.224 306.908 423.812C307.45 424.4 307.72 425.193 307.72 426.192V426.36C307.711 426.444 307.678 426.509 307.622 426.556C307.576 426.603 307.51 426.626 307.426 426.626H302.414C302.442 427.41 302.648 428.073 303.03 428.614C303.422 429.146 304.006 429.412 304.78 429.412C305.2 429.412 305.569 429.337 305.886 429.188C306.213 429.029 306.572 428.754 306.964 428.362ZM304.682 423.7C304.066 423.7 303.558 423.891 303.156 424.274C302.764 424.647 302.526 425.198 302.442 425.926H306.796C306.778 425.245 306.582 424.703 306.208 424.302C305.835 423.901 305.326 423.7 304.682 423.7ZM311.952 423.042C312.185 423.042 312.461 423.079 312.778 423.154C312.946 423.21 313.011 423.327 312.974 423.504L312.918 423.728C312.871 423.905 312.755 423.971 312.568 423.924C312.344 423.868 312.139 423.84 311.952 423.84C311.476 423.84 311.079 424.045 310.762 424.456C310.454 424.867 310.3 425.436 310.3 426.164V429.72C310.3 429.907 310.207 430 310.02 430H309.656C309.469 430 309.376 429.907 309.376 429.72V423.378C309.376 423.191 309.469 423.098 309.656 423.098H309.964C310.151 423.098 310.244 423.191 310.244 423.378V424.148C310.403 423.803 310.627 423.532 310.916 423.336C311.215 423.14 311.56 423.042 311.952 423.042ZM316.805 423.042C317.039 423.042 317.314 423.079 317.631 423.154C317.799 423.21 317.865 423.327 317.827 423.504L317.771 423.728C317.725 423.905 317.608 423.971 317.421 423.924C317.197 423.868 316.992 423.84 316.805 423.84C316.329 423.84 315.933 424.045 315.615 424.456C315.307 424.867 315.153 425.436 315.153 426.164V429.72C315.153 429.907 315.06 430 314.873 430H314.509C314.323 430 314.229 429.907 314.229 429.72V423.378C314.229 423.191 314.323 423.098 314.509 423.098H314.817C315.004 423.098 315.097 423.191 315.097 423.378V424.148C315.256 423.803 315.48 423.532 315.769 423.336C316.068 423.14 316.413 423.042 316.805 423.042ZM321.556 430.182C320.912 430.182 320.338 430.028 319.834 429.72C319.33 429.412 318.938 428.987 318.658 428.446C318.378 427.895 318.238 427.265 318.238 426.556C318.238 425.847 318.378 425.221 318.658 424.68C318.938 424.129 319.33 423.7 319.834 423.392C320.338 423.084 320.912 422.93 321.556 422.93C322.2 422.93 322.774 423.084 323.278 423.392C323.782 423.7 324.174 424.129 324.454 424.68C324.734 425.221 324.874 425.847 324.874 426.556C324.874 427.265 324.734 427.895 324.454 428.446C324.174 428.987 323.782 429.412 323.278 429.72C322.774 430.028 322.2 430.182 321.556 430.182ZM321.556 429.412C322.275 429.412 322.849 429.151 323.278 428.628C323.707 428.096 323.922 427.405 323.922 426.556C323.922 425.707 323.707 425.021 323.278 424.498C322.849 423.966 322.275 423.7 321.556 423.7C320.837 423.7 320.263 423.966 319.834 424.498C319.405 425.021 319.19 425.707 319.19 426.556C319.19 427.405 319.405 428.096 319.834 428.628C320.263 429.151 320.837 429.412 321.556 429.412ZM329.055 423.042C329.289 423.042 329.564 423.079 329.881 423.154C330.049 423.21 330.115 423.327 330.077 423.504L330.021 423.728C329.975 423.905 329.858 423.971 329.671 423.924C329.447 423.868 329.242 423.84 329.055 423.84C328.579 423.84 328.183 424.045 327.865 424.456C327.557 424.867 327.403 425.436 327.403 426.164V429.72C327.403 429.907 327.31 430 327.123 430H326.759C326.573 430 326.479 429.907 326.479 429.72V423.378C326.479 423.191 326.573 423.098 326.759 423.098H327.067C327.254 423.098 327.347 423.191 327.347 423.378V424.148C327.506 423.803 327.73 423.532 328.019 423.336C328.318 423.14 328.663 423.042 329.055 423.042ZM336.967 430.182C336.398 430.182 335.894 430.103 335.455 429.944C335.026 429.776 334.573 429.496 334.097 429.104C334.013 429.048 333.971 428.983 333.971 428.908C333.971 428.843 334.004 428.777 334.069 428.712L334.251 428.516C334.307 428.441 334.377 428.404 334.461 428.404C334.527 428.404 334.587 428.432 334.643 428.488C335.091 428.833 335.488 429.076 335.833 429.216C336.179 429.347 336.557 429.412 336.967 429.412C337.481 429.412 337.901 429.3 338.227 429.076C338.554 428.843 338.717 428.53 338.717 428.138C338.717 427.746 338.549 427.457 338.213 427.27C337.877 427.083 337.359 426.915 336.659 426.766C336.043 426.635 335.558 426.5 335.203 426.36C334.858 426.211 334.601 426.024 334.433 425.8C334.265 425.576 334.181 425.282 334.181 424.918C334.181 424.321 334.424 423.84 334.909 423.476C335.395 423.112 336.006 422.93 336.743 422.93C337.247 422.93 337.695 422.995 338.087 423.126C338.489 423.247 338.89 423.453 339.291 423.742C339.375 423.807 339.417 423.877 339.417 423.952C339.417 423.999 339.394 424.059 339.347 424.134L339.179 424.344C339.133 424.419 339.067 424.456 338.983 424.456C338.909 424.456 338.843 424.433 338.787 424.386C338.405 424.115 338.064 423.933 337.765 423.84C337.476 423.747 337.145 423.7 336.771 423.7C336.258 423.7 335.847 423.812 335.539 424.036C335.231 424.26 335.077 424.545 335.077 424.89C335.077 425.105 335.147 425.277 335.287 425.408C335.427 425.539 335.628 425.651 335.889 425.744C336.151 425.828 336.533 425.926 337.037 426.038C337.971 426.243 338.633 426.495 339.025 426.794C339.427 427.093 339.627 427.527 339.627 428.096C339.627 428.721 339.38 429.225 338.885 429.608C338.391 429.991 337.751 430.182 336.967 430.182ZM344.271 429.23C344.299 429.221 344.336 429.216 344.383 429.216C344.439 429.216 344.49 429.235 344.537 429.272C344.584 429.309 344.612 429.361 344.621 429.426L344.663 429.622C344.672 429.641 344.677 429.673 344.677 429.72C344.677 429.851 344.607 429.93 344.467 429.958C344.131 430.061 343.772 430.112 343.389 430.112C342.782 430.112 342.348 429.977 342.087 429.706C341.835 429.426 341.709 429.025 341.709 428.502V423.798H340.673C340.486 423.798 340.393 423.705 340.393 423.518V423.378C340.393 423.191 340.486 423.098 340.673 423.098H341.709V420.97C341.709 420.783 341.802 420.69 341.989 420.69H342.353C342.54 420.69 342.633 420.783 342.633 420.97V423.098H344.313C344.5 423.098 344.593 423.191 344.593 423.378V423.518C344.593 423.705 344.5 423.798 344.313 423.798H342.633V428.39C342.633 428.735 342.698 428.978 342.829 429.118C342.96 429.258 343.184 429.328 343.501 429.328C343.725 429.328 343.982 429.295 344.271 429.23ZM348.676 422.93C349.526 422.93 350.188 423.135 350.664 423.546C351.14 423.947 351.378 424.479 351.378 425.142V429.72C351.378 429.907 351.285 430 351.098 430H350.818C350.632 430 350.538 429.907 350.538 429.72V429.09C350.305 429.463 349.974 429.743 349.544 429.93C349.124 430.117 348.653 430.21 348.13 430.21C347.402 430.21 346.81 430.056 346.352 429.748C345.895 429.44 345.666 428.964 345.666 428.32C345.666 427.807 345.811 427.396 346.1 427.088C346.39 426.771 346.768 426.533 347.234 426.374C347.701 426.206 348.284 426.057 348.984 425.926L350.496 425.66V425.212C350.496 424.736 350.333 424.367 350.006 424.106C349.68 423.835 349.25 423.7 348.718 423.7C348.317 423.7 347.953 423.775 347.626 423.924C347.3 424.073 346.95 424.33 346.576 424.694C346.511 424.759 346.441 424.792 346.366 424.792C346.301 424.792 346.24 424.764 346.184 424.708L346.002 424.54C345.937 424.475 345.904 424.405 345.904 424.33C345.904 424.246 345.937 424.171 346.002 424.106C346.394 423.695 346.805 423.397 347.234 423.21C347.673 423.023 348.154 422.93 348.676 422.93ZM348.172 429.44C348.844 429.44 349.4 429.263 349.838 428.908C350.277 428.553 350.496 428.101 350.496 427.55V426.374L349.194 426.626C348.588 426.747 348.107 426.864 347.752 426.976C347.398 427.088 347.113 427.251 346.898 427.466C346.684 427.681 346.576 427.961 346.576 428.306C346.576 428.661 346.716 428.941 346.996 429.146C347.286 429.342 347.678 429.44 348.172 429.44ZM356.343 429.23C356.371 429.221 356.409 429.216 356.455 429.216C356.511 429.216 356.563 429.235 356.609 429.272C356.656 429.309 356.684 429.361 356.693 429.426L356.735 429.622C356.745 429.641 356.749 429.673 356.749 429.72C356.749 429.851 356.679 429.93 356.539 429.958C356.203 430.061 355.844 430.112 355.461 430.112C354.855 430.112 354.421 429.977 354.159 429.706C353.907 429.426 353.781 429.025 353.781 428.502V423.798H352.745C352.559 423.798 352.465 423.705 352.465 423.518V423.378C352.465 423.191 352.559 423.098 352.745 423.098H353.781V420.97C353.781 420.783 353.875 420.69 354.061 420.69H354.425C354.612 420.69 354.705 420.783 354.705 420.97V423.098H356.385C356.572 423.098 356.665 423.191 356.665 423.378V423.518C356.665 423.705 356.572 423.798 356.385 423.798H354.705V428.39C354.705 428.735 354.771 428.978 354.901 429.118C355.032 429.258 355.256 429.328 355.573 429.328C355.797 429.328 356.054 429.295 356.343 429.23ZM362.841 428.362C362.907 428.297 362.977 428.264 363.051 428.264C363.117 428.264 363.177 428.292 363.233 428.348L363.415 428.516C363.481 428.581 363.513 428.651 363.513 428.726C363.513 428.782 363.485 428.847 363.429 428.922C362.972 429.379 362.529 429.706 362.099 429.902C361.67 430.089 361.189 430.182 360.657 430.182C359.985 430.182 359.402 430.033 358.907 429.734C358.413 429.435 358.03 429.02 357.759 428.488C357.489 427.947 357.353 427.321 357.353 426.612C357.353 425.893 357.484 425.259 357.745 424.708C358.016 424.148 358.394 423.714 358.879 423.406C359.365 423.089 359.925 422.93 360.559 422.93C361.502 422.93 362.244 423.224 362.785 423.812C363.327 424.4 363.597 425.193 363.597 426.192V426.36C363.588 426.444 363.555 426.509 363.499 426.556C363.453 426.603 363.387 426.626 363.303 426.626H358.291C358.319 427.41 358.525 428.073 358.907 428.614C359.299 429.146 359.883 429.412 360.657 429.412C361.077 429.412 361.446 429.337 361.763 429.188C362.09 429.029 362.449 428.754 362.841 428.362ZM360.559 423.7C359.943 423.7 359.435 423.891 359.033 424.274C358.641 424.647 358.403 425.198 358.319 425.926H362.673C362.655 425.245 362.459 424.703 362.085 424.302C361.712 423.901 361.203 423.7 360.559 423.7ZM371.335 430.182C370.691 430.182 370.117 430.028 369.613 429.72C369.109 429.412 368.717 428.987 368.437 428.446C368.157 427.895 368.017 427.265 368.017 426.556C368.017 425.847 368.157 425.221 368.437 424.68C368.717 424.129 369.109 423.7 369.613 423.392C370.117 423.084 370.691 422.93 371.335 422.93C371.979 422.93 372.553 423.084 373.057 423.392C373.561 423.7 373.953 424.129 374.233 424.68C374.513 425.221 374.653 425.847 374.653 426.556C374.653 427.265 374.513 427.895 374.233 428.446C373.953 428.987 373.561 429.412 373.057 429.72C372.553 430.028 371.979 430.182 371.335 430.182ZM371.335 429.412C372.054 429.412 372.628 429.151 373.057 428.628C373.487 428.096 373.701 427.405 373.701 426.556C373.701 425.707 373.487 425.021 373.057 424.498C372.628 423.966 372.054 423.7 371.335 423.7C370.617 423.7 370.043 423.966 369.613 424.498C369.184 425.021 368.969 425.707 368.969 426.556C368.969 427.405 369.184 428.096 369.613 428.628C370.043 429.151 370.617 429.412 371.335 429.412ZM379.339 422.93C380.151 422.93 380.762 423.154 381.173 423.602C381.593 424.05 381.803 424.61 381.803 425.282V429.72C381.803 429.907 381.709 430 381.523 430H381.159C380.972 430 380.879 429.907 380.879 429.72V425.59C380.879 424.974 380.729 424.507 380.431 424.19C380.132 423.873 379.703 423.714 379.143 423.714C378.788 423.714 378.461 423.803 378.163 423.98C377.864 424.148 377.626 424.381 377.449 424.68C377.271 424.979 377.183 425.305 377.183 425.66V429.72C377.183 429.907 377.089 430 376.903 430H376.539C376.352 430 376.259 429.907 376.259 429.72V423.378C376.259 423.191 376.352 423.098 376.539 423.098H376.847C377.033 423.098 377.127 423.191 377.127 423.378V424.05C377.36 423.677 377.668 423.397 378.051 423.21C378.433 423.023 378.863 422.93 379.339 422.93ZM389.481 430.182C388.912 430.182 388.408 430.103 387.969 429.944C387.54 429.776 387.087 429.496 386.611 429.104C386.527 429.048 386.485 428.983 386.485 428.908C386.485 428.843 386.518 428.777 386.583 428.712L386.765 428.516C386.821 428.441 386.891 428.404 386.975 428.404C387.04 428.404 387.101 428.432 387.157 428.488C387.605 428.833 388.002 429.076 388.347 429.216C388.692 429.347 389.07 429.412 389.481 429.412C389.994 429.412 390.414 429.3 390.741 429.076C391.068 428.843 391.231 428.53 391.231 428.138C391.231 427.746 391.063 427.457 390.727 427.27C390.391 427.083 389.873 426.915 389.173 426.766C388.557 426.635 388.072 426.5 387.717 426.36C387.372 426.211 387.115 426.024 386.947 425.8C386.779 425.576 386.695 425.282 386.695 424.918C386.695 424.321 386.938 423.84 387.423 423.476C387.908 423.112 388.52 422.93 389.257 422.93C389.761 422.93 390.209 422.995 390.601 423.126C391.002 423.247 391.404 423.453 391.805 423.742C391.889 423.807 391.931 423.877 391.931 423.952C391.931 423.999 391.908 424.059 391.861 424.134L391.693 424.344C391.646 424.419 391.581 424.456 391.497 424.456C391.422 424.456 391.357 424.433 391.301 424.386C390.918 424.115 390.578 423.933 390.279 423.84C389.99 423.747 389.658 423.7 389.285 423.7C388.772 423.7 388.361 423.812 388.053 424.036C387.745 424.26 387.591 424.545 387.591 424.89C387.591 425.105 387.661 425.277 387.801 425.408C387.941 425.539 388.142 425.651 388.403 425.744C388.664 425.828 389.047 425.926 389.551 426.038C390.484 426.243 391.147 426.495 391.539 426.794C391.94 427.093 392.141 427.527 392.141 428.096C392.141 428.721 391.894 429.225 391.399 429.608C390.904 429.991 390.265 430.182 389.481 430.182ZM394.166 421.348C393.979 421.348 393.821 421.283 393.69 421.152C393.569 421.021 393.508 420.863 393.508 420.676C393.508 420.489 393.569 420.335 393.69 420.214C393.821 420.093 393.979 420.032 394.166 420.032C394.362 420.032 394.521 420.093 394.642 420.214C394.773 420.335 394.838 420.489 394.838 420.676C394.838 420.863 394.773 421.021 394.642 421.152C394.521 421.283 394.362 421.348 394.166 421.348ZM393.984 430C393.797 430 393.704 429.907 393.704 429.72V423.378C393.704 423.191 393.797 423.098 393.984 423.098H394.348C394.535 423.098 394.628 423.191 394.628 423.378V429.72C394.628 429.907 394.535 430 394.348 430H393.984ZM399.764 422.93C400.576 422.93 401.188 423.154 401.598 423.602C402.018 424.05 402.228 424.61 402.228 425.282V429.72C402.228 429.907 402.135 430 401.948 430H401.584C401.398 430 401.304 429.907 401.304 429.72V425.59C401.304 424.974 401.155 424.507 400.856 424.19C400.558 423.873 400.128 423.714 399.568 423.714C399.214 423.714 398.887 423.803 398.588 423.98C398.29 424.148 398.052 424.381 397.874 424.68C397.697 424.979 397.608 425.305 397.608 425.66V429.72C397.608 429.907 397.515 430 397.328 430H396.964C396.778 430 396.684 429.907 396.684 429.72V423.378C396.684 423.191 396.778 423.098 396.964 423.098H397.272C397.459 423.098 397.552 423.191 397.552 423.378V424.05C397.786 423.677 398.094 423.397 398.476 423.21C398.859 423.023 399.288 422.93 399.764 422.93ZM409.228 423.378C409.228 423.191 409.322 423.098 409.508 423.098H409.802C409.989 423.098 410.082 423.191 410.082 423.378V429.93C410.082 430.798 409.821 431.479 409.298 431.974C408.776 432.478 408.043 432.73 407.1 432.73C406.083 432.73 405.145 432.441 404.286 431.862C404.193 431.806 404.146 431.736 404.146 431.652C404.146 431.587 404.165 431.531 404.202 431.484L404.37 431.246C404.426 431.153 404.501 431.106 404.594 431.106C404.632 431.106 404.688 431.125 404.762 431.162C405.173 431.423 405.556 431.619 405.91 431.75C406.274 431.881 406.671 431.946 407.1 431.946C407.716 431.946 408.216 431.773 408.598 431.428C408.981 431.092 409.172 430.569 409.172 429.86V428.74C408.668 429.552 407.903 429.958 406.876 429.958C406.279 429.958 405.752 429.809 405.294 429.51C404.837 429.202 404.482 428.782 404.23 428.25C403.988 427.718 403.866 427.116 403.866 426.444C403.866 425.772 403.988 425.17 404.23 424.638C404.482 424.106 404.837 423.691 405.294 423.392C405.752 423.084 406.279 422.93 406.876 422.93C407.418 422.93 407.884 423.047 408.276 423.28C408.678 423.504 408.995 423.826 409.228 424.246V423.378ZM406.974 429.174C407.646 429.174 408.183 428.922 408.584 428.418C408.986 427.905 409.186 427.247 409.186 426.444C409.186 425.641 408.986 424.988 408.584 424.484C408.183 423.971 407.646 423.714 406.974 423.714C406.293 423.714 405.761 423.966 405.378 424.47C405.005 424.974 404.818 425.632 404.818 426.444C404.818 427.256 405.005 427.914 405.378 428.418C405.761 428.922 406.293 429.174 406.974 429.174ZM412.455 430C412.268 430 412.175 429.907 412.175 429.72V420.34C412.175 420.153 412.268 420.06 412.455 420.06H412.819C413.006 420.06 413.099 420.153 413.099 420.34V429.72C413.099 429.907 413.006 430 412.819 430H412.455ZM420.208 428.362C420.274 428.297 420.344 428.264 420.418 428.264C420.484 428.264 420.544 428.292 420.6 428.348L420.782 428.516C420.848 428.581 420.88 428.651 420.88 428.726C420.88 428.782 420.852 428.847 420.796 428.922C420.339 429.379 419.896 429.706 419.466 429.902C419.037 430.089 418.556 430.182 418.024 430.182C417.352 430.182 416.769 430.033 416.274 429.734C415.78 429.435 415.397 429.02 415.126 428.488C414.856 427.947 414.72 427.321 414.72 426.612C414.72 425.893 414.851 425.259 415.112 424.708C415.383 424.148 415.761 423.714 416.246 423.406C416.732 423.089 417.292 422.93 417.926 422.93C418.869 422.93 419.611 423.224 420.152 423.812C420.694 424.4 420.964 425.193 420.964 426.192V426.36C420.955 426.444 420.922 426.509 420.866 426.556C420.82 426.603 420.754 426.626 420.67 426.626H415.658C415.686 427.41 415.892 428.073 416.274 428.614C416.666 429.146 417.25 429.412 418.024 429.412C418.444 429.412 418.813 429.337 419.13 429.188C419.457 429.029 419.816 428.754 420.208 428.362ZM417.926 423.7C417.31 423.7 416.802 423.891 416.4 424.274C416.008 424.647 415.77 425.198 415.686 425.926H420.04C420.022 425.245 419.826 424.703 419.452 424.302C419.079 423.901 418.57 423.7 417.926 423.7ZM428.255 430.182C427.685 430.182 427.181 430.103 426.743 429.944C426.313 429.776 425.861 429.496 425.385 429.104C425.301 429.048 425.259 428.983 425.259 428.908C425.259 428.843 425.291 428.777 425.357 428.712L425.539 428.516C425.595 428.441 425.665 428.404 425.749 428.404C425.814 428.404 425.875 428.432 425.931 428.488C426.379 428.833 426.775 429.076 427.121 429.216C427.466 429.347 427.844 429.412 428.255 429.412C428.768 429.412 429.188 429.3 429.515 429.076C429.841 428.843 430.005 428.53 430.005 428.138C430.005 427.746 429.837 427.457 429.501 427.27C429.165 427.083 428.647 426.915 427.947 426.766C427.331 426.635 426.845 426.5 426.491 426.36C426.145 426.211 425.889 426.024 425.721 425.8C425.553 425.576 425.469 425.282 425.469 424.918C425.469 424.321 425.711 423.84 426.197 423.476C426.682 423.112 427.293 422.93 428.031 422.93C428.535 422.93 428.983 422.995 429.375 423.126C429.776 423.247 430.177 423.453 430.579 423.742C430.663 423.807 430.705 423.877 430.705 423.952C430.705 423.999 430.681 424.059 430.635 424.134L430.467 424.344C430.42 424.419 430.355 424.456 430.271 424.456C430.196 424.456 430.131 424.433 430.075 424.386C429.692 424.115 429.351 423.933 429.053 423.84C428.763 423.747 428.432 423.7 428.059 423.7C427.545 423.7 427.135 423.812 426.827 424.036C426.519 424.26 426.365 424.545 426.365 424.89C426.365 425.105 426.435 425.277 426.575 425.408C426.715 425.539 426.915 425.651 427.177 425.744C427.438 425.828 427.821 425.926 428.325 426.038C429.258 426.243 429.921 426.495 430.313 426.794C430.714 427.093 430.915 427.527 430.915 428.096C430.915 428.721 430.667 429.225 430.173 429.608C429.678 429.991 429.039 430.182 428.255 430.182ZM432.771 430C432.585 430 432.491 429.907 432.491 429.72V420.34C432.491 420.153 432.585 420.06 432.771 420.06H433.135C433.322 420.06 433.415 420.153 433.415 420.34V429.72C433.415 429.907 433.322 430 433.135 430H432.771ZM435.961 421.348C435.774 421.348 435.616 421.283 435.485 421.152C435.364 421.021 435.303 420.863 435.303 420.676C435.303 420.489 435.364 420.335 435.485 420.214C435.616 420.093 435.774 420.032 435.961 420.032C436.157 420.032 436.316 420.093 436.437 420.214C436.568 420.335 436.633 420.489 436.633 420.676C436.633 420.863 436.568 421.021 436.437 421.152C436.316 421.283 436.157 421.348 435.961 421.348ZM435.779 430C435.592 430 435.499 429.907 435.499 429.72V423.378C435.499 423.191 435.592 423.098 435.779 423.098H436.143C436.33 423.098 436.423 423.191 436.423 423.378V429.72C436.423 429.907 436.33 430 436.143 430H435.779ZM443.463 420.34C443.463 420.153 443.557 420.06 443.743 420.06H444.107C444.294 420.06 444.387 420.153 444.387 420.34V429.72C444.387 429.907 444.294 430 444.107 430H443.813C443.627 430 443.533 429.907 443.533 429.72V428.81C443.281 429.249 442.95 429.585 442.539 429.818C442.129 430.051 441.643 430.168 441.083 430.168C440.495 430.168 439.973 430.019 439.515 429.72C439.058 429.412 438.699 428.987 438.437 428.446C438.176 427.895 438.045 427.265 438.045 426.556C438.045 425.847 438.176 425.221 438.437 424.68C438.708 424.129 439.077 423.705 439.543 423.406C440.01 423.098 440.533 422.944 441.111 422.944C442.175 422.944 442.959 423.341 443.463 424.134V420.34ZM441.153 429.384C441.853 429.384 442.418 429.137 442.847 428.642C443.286 428.138 443.505 427.443 443.505 426.556C443.505 425.679 443.286 424.988 442.847 424.484C442.418 423.98 441.853 423.728 441.153 423.728C440.509 423.728 439.987 423.989 439.585 424.512C439.193 425.035 438.997 425.716 438.997 426.556C438.997 427.405 439.193 428.091 439.585 428.614C439.977 429.127 440.5 429.384 441.153 429.384ZM451.49 428.362C451.555 428.297 451.625 428.264 451.7 428.264C451.765 428.264 451.826 428.292 451.882 428.348L452.064 428.516C452.129 428.581 452.162 428.651 452.162 428.726C452.162 428.782 452.134 428.847 452.078 428.922C451.62 429.379 451.177 429.706 450.748 429.902C450.318 430.089 449.838 430.182 449.306 430.182C448.634 430.182 448.05 430.033 447.556 429.734C447.061 429.435 446.678 429.02 446.408 428.488C446.137 427.947 446.002 427.321 446.002 426.612C446.002 425.893 446.132 425.259 446.394 424.708C446.664 424.148 447.042 423.714 447.528 423.406C448.013 423.089 448.573 422.93 449.208 422.93C450.15 422.93 450.892 423.224 451.434 423.812C451.975 424.4 452.246 425.193 452.246 426.192V426.36C452.236 426.444 452.204 426.509 452.148 426.556C452.101 426.603 452.036 426.626 451.952 426.626H446.94C446.968 427.41 447.173 428.073 447.556 428.614C447.948 429.146 448.531 429.412 449.306 429.412C449.726 429.412 450.094 429.337 450.412 429.188C450.738 429.029 451.098 428.754 451.49 428.362ZM449.208 423.7C448.592 423.7 448.083 423.891 447.682 424.274C447.29 424.647 447.052 425.198 446.968 425.926H451.322C451.303 425.245 451.107 424.703 450.734 424.302C450.36 423.901 449.852 423.7 449.208 423.7ZM456.477 423.042C456.711 423.042 456.986 423.079 457.303 423.154C457.471 423.21 457.537 423.327 457.499 423.504L457.443 423.728C457.397 423.905 457.28 423.971 457.093 423.924C456.869 423.868 456.664 423.84 456.477 423.84C456.001 423.84 455.605 424.045 455.287 424.456C454.979 424.867 454.825 425.436 454.825 426.164V429.72C454.825 429.907 454.732 430 454.545 430H454.181C453.995 430 453.901 429.907 453.901 429.72V423.378C453.901 423.191 453.995 423.098 454.181 423.098H454.489C454.676 423.098 454.769 423.191 454.769 423.378V424.148C454.928 423.803 455.152 423.532 455.441 423.336C455.74 423.14 456.085 423.042 456.477 423.042Z" fill="#5C5C66"/>
<defs>
<clipPath id="clip0_4508_22692">
<rect width="147" height="22" fill="white" transform="translate(189 265)"/>
</clipPath>
</defs>
</svg>
