<svg width="332" height="220" viewBox="0 0 332 220" fill="none" xmlns="http://www.w3.org/2000/svg">
<path d="M44.2 146.21C43.5467 146.21 42.9727 146.051 42.478 145.734C41.9927 145.417 41.6053 144.973 41.316 144.404C40.8587 143.499 40.63 142.374 40.63 141.03C40.63 139.677 40.8587 138.547 41.316 137.642C41.6053 137.073 41.9927 136.634 42.478 136.326C42.9727 136.009 43.5467 135.85 44.2 135.85C44.8533 135.85 45.4227 136.009 45.908 136.326C46.4027 136.634 46.7947 137.073 47.084 137.642C47.5413 138.547 47.77 139.677 47.77 141.03C47.77 142.374 47.5413 143.499 47.084 144.404C46.7947 144.973 46.4027 145.417 45.908 145.734C45.4227 146.051 44.8533 146.21 44.2 146.21ZM44.2 145.398C45.1147 145.398 45.8007 144.922 46.258 143.97C46.622 143.195 46.804 142.215 46.804 141.03C46.804 139.826 46.622 138.841 46.258 138.076C45.81 137.133 45.124 136.662 44.2 136.662C43.276 136.662 42.59 137.133 42.142 138.076C41.778 138.841 41.596 139.826 41.596 141.03C41.596 142.225 41.778 143.205 42.142 143.97C42.5993 144.922 43.2853 145.398 44.2 145.398Z" fill="#5C5C66"/>
<path d="M250.437 136.172C250.54 136.097 250.656 136.06 250.787 136.06H251.011C251.198 136.06 251.291 136.153 251.291 136.34V145.72C251.291 145.907 251.198 146 251.011 146H250.633C250.446 146 250.353 145.907 250.353 145.72V137.264L248.239 138.776C248.174 138.823 248.113 138.846 248.057 138.846C247.973 138.846 247.903 138.804 247.847 138.72L247.707 138.51C247.67 138.463 247.651 138.407 247.651 138.342C247.651 138.258 247.693 138.183 247.777 138.118L250.437 136.172ZM257.659 146.21C257.006 146.21 256.432 146.051 255.937 145.734C255.452 145.417 255.064 144.973 254.775 144.404C254.318 143.499 254.089 142.374 254.089 141.03C254.089 139.677 254.318 138.547 254.775 137.642C255.064 137.073 255.452 136.634 255.937 136.326C256.432 136.009 257.006 135.85 257.659 135.85C258.312 135.85 258.882 136.009 259.367 136.326C259.862 136.634 260.254 137.073 260.543 137.642C261 138.547 261.229 139.677 261.229 141.03C261.229 142.374 261 143.499 260.543 144.404C260.254 144.973 259.862 145.417 259.367 145.734C258.882 146.051 258.312 146.21 257.659 146.21ZM257.659 145.398C258.574 145.398 259.26 144.922 259.717 143.97C260.081 143.195 260.263 142.215 260.263 141.03C260.263 139.826 260.081 138.841 259.717 138.076C259.269 137.133 258.583 136.662 257.659 136.662C256.735 136.662 256.049 137.133 255.601 138.076C255.237 138.841 255.055 139.826 255.055 141.03C255.055 142.225 255.237 143.205 255.601 143.97C256.058 144.922 256.744 145.398 257.659 145.398ZM266.245 146.21C265.592 146.21 265.018 146.051 264.523 145.734C264.038 145.417 263.65 144.973 263.361 144.404C262.904 143.499 262.675 142.374 262.675 141.03C262.675 139.677 262.904 138.547 263.361 137.642C263.65 137.073 264.038 136.634 264.523 136.326C265.018 136.009 265.592 135.85 266.245 135.85C266.898 135.85 267.468 136.009 267.953 136.326C268.448 136.634 268.84 137.073 269.129 137.642C269.586 138.547 269.815 139.677 269.815 141.03C269.815 142.374 269.586 143.499 269.129 144.404C268.84 144.973 268.448 145.417 267.953 145.734C267.468 146.051 266.898 146.21 266.245 146.21ZM266.245 145.398C267.16 145.398 267.846 144.922 268.303 143.97C268.667 143.195 268.849 142.215 268.849 141.03C268.849 139.826 268.667 138.841 268.303 138.076C267.855 137.133 267.169 136.662 266.245 136.662C265.321 136.662 264.635 137.133 264.187 138.076C263.823 138.841 263.641 139.826 263.641 141.03C263.641 142.225 263.823 143.205 264.187 143.97C264.644 144.922 265.33 145.398 266.245 145.398ZM279.686 146C279.546 146 279.434 145.939 279.35 145.818L276.984 142.374L275.626 143.76V145.72C275.626 145.907 275.533 146 275.346 146H274.982C274.795 146 274.702 145.907 274.702 145.72V136.34C274.702 136.153 274.795 136.06 274.982 136.06H275.346C275.533 136.06 275.626 136.153 275.626 136.34V142.71L278.986 139.224C279.07 139.131 279.187 139.084 279.336 139.084H279.728C279.803 139.084 279.859 139.103 279.896 139.14C279.943 139.168 279.966 139.205 279.966 139.252C279.966 139.299 279.938 139.359 279.882 139.434L277.628 141.786L280.274 145.664C280.311 145.729 280.33 145.785 280.33 145.832C280.33 145.944 280.255 146 280.106 146H279.686ZM288.689 138.93C289.435 138.93 290.005 139.145 290.397 139.574C290.798 139.994 290.999 140.535 290.999 141.198V145.72C290.999 145.907 290.905 146 290.719 146H290.355C290.168 146 290.075 145.907 290.075 145.72V141.45C290.075 140.89 289.944 140.461 289.683 140.162C289.431 139.863 289.053 139.714 288.549 139.714C288.017 139.714 287.592 139.891 287.275 140.246C286.957 140.601 286.799 141.058 286.799 141.618V145.72C286.799 145.907 286.705 146 286.519 146H286.155C285.968 146 285.875 145.907 285.875 145.72V141.45C285.875 140.89 285.744 140.461 285.483 140.162C285.231 139.863 284.848 139.714 284.335 139.714C283.859 139.714 283.462 139.863 283.145 140.162C282.837 140.461 282.655 140.853 282.599 141.338V145.72C282.599 145.907 282.505 146 282.319 146H281.955C281.768 146 281.675 145.907 281.675 145.72V139.378C281.675 139.191 281.768 139.098 281.955 139.098H282.263C282.449 139.098 282.543 139.191 282.543 139.378V139.952C282.963 139.271 283.63 138.93 284.545 138.93C285.021 138.93 285.427 139.037 285.763 139.252C286.108 139.457 286.365 139.737 286.533 140.092C287.027 139.317 287.746 138.93 288.689 138.93Z" fill="#5C5C66"/>
<path d="M41.568 84C41.4187 84 41.2973 83.958 41.204 83.874C41.12 83.7807 41.078 83.6593 41.078 83.51V74.55C41.078 74.3913 41.12 74.27 41.204 74.186C41.2973 74.102 41.4187 74.06 41.568 74.06H44.942C45.8753 74.06 46.6733 74.27 47.336 74.69C48.008 75.11 48.5167 75.698 48.862 76.454C49.2167 77.2007 49.394 78.0593 49.394 79.03C49.394 80.0007 49.2167 80.864 48.862 81.62C48.5167 82.3667 48.008 82.95 47.336 83.37C46.6733 83.79 45.8753 84 44.942 84H41.568ZM44.704 82.656C45.656 82.656 46.4027 82.3433 46.944 81.718C47.4947 81.0833 47.77 80.1873 47.77 79.03C47.77 77.8727 47.4947 76.9813 46.944 76.356C46.4027 75.7213 45.656 75.404 44.704 75.404H42.674V82.656H44.704ZM51.5358 75.754C51.2651 75.754 51.0364 75.6653 50.8498 75.488C50.6631 75.3013 50.5698 75.082 50.5698 74.83C50.5698 74.5687 50.6631 74.3493 50.8498 74.172C51.0364 73.9947 51.2651 73.906 51.5358 73.906C51.8064 73.906 52.0351 73.9947 52.2218 74.172C52.4084 74.3493 52.5018 74.5687 52.5018 74.83C52.5018 75.082 52.4084 75.3013 52.2218 75.488C52.0351 75.6653 51.8064 75.754 51.5358 75.754ZM51.2698 84C51.1204 84 50.9991 83.958 50.9058 83.874C50.8218 83.7807 50.7798 83.6593 50.7798 83.51V77.588C50.7798 77.4293 50.8218 77.308 50.9058 77.224C50.9991 77.14 51.1204 77.098 51.2698 77.098H51.7738C51.9324 77.098 52.0538 77.14 52.1378 77.224C52.2218 77.308 52.2638 77.4293 52.2638 77.588V83.51C52.2638 83.6593 52.2218 83.7807 52.1378 83.874C52.0538 83.958 51.9324 84 51.7738 84H51.2698ZM56.639 84.21C56.0697 84.21 55.561 84.14 55.113 84C54.6743 83.8507 54.2263 83.594 53.769 83.23C53.629 83.1273 53.559 83.0107 53.559 82.88C53.559 82.7773 53.6103 82.6653 53.713 82.544L53.923 82.306C54.035 82.1753 54.1563 82.11 54.287 82.11C54.3897 82.11 54.5017 82.1567 54.623 82.25C55.015 82.5393 55.3603 82.74 55.659 82.852C55.9577 82.9547 56.2937 83.006 56.667 83.006C57.0683 83.006 57.395 82.9267 57.647 82.768C57.9083 82.6 58.039 82.376 58.039 82.096C58.039 81.8813 57.9643 81.7133 57.815 81.592C57.675 81.4613 57.4883 81.3633 57.255 81.298C57.0217 81.2233 56.6763 81.1393 56.219 81.046C55.575 80.906 55.071 80.7567 54.707 80.598C54.3523 80.43 54.0957 80.22 53.937 79.968C53.7783 79.716 53.699 79.394 53.699 79.002C53.699 78.6007 53.811 78.2413 54.035 77.924C54.2683 77.6067 54.5903 77.3547 55.001 77.168C55.421 76.9813 55.911 76.888 56.471 76.888C56.975 76.888 57.423 76.944 57.815 77.056C58.2163 77.168 58.6083 77.3593 58.991 77.63C59.1403 77.742 59.215 77.868 59.215 78.008C59.215 78.1013 59.1683 78.2087 59.075 78.33L58.893 78.554C58.7903 78.6847 58.6643 78.75 58.515 78.75C58.403 78.75 58.2957 78.7127 58.193 78.638C57.885 78.4327 57.6003 78.2927 57.339 78.218C57.0777 78.134 56.7837 78.092 56.457 78.092C56.0557 78.092 55.7337 78.1713 55.491 78.33C55.2483 78.4887 55.127 78.694 55.127 78.946C55.127 79.114 55.183 79.2493 55.295 79.352C55.4163 79.4453 55.5843 79.5293 55.799 79.604C56.023 79.6693 56.373 79.7533 56.849 79.856C57.493 79.996 58.0017 80.1547 58.375 80.332C58.7577 80.5 59.0377 80.7193 59.215 80.99C59.4017 81.2513 59.495 81.592 59.495 82.012C59.495 82.6653 59.2337 83.1973 58.711 83.608C58.1977 84.0093 57.507 84.21 56.639 84.21ZM64.0786 82.824C64.1066 82.8147 64.1486 82.81 64.2046 82.81C64.4379 82.81 64.5779 82.9453 64.6246 83.216L64.6666 83.44C64.6759 83.468 64.6806 83.5147 64.6806 83.58C64.6806 83.8133 64.5499 83.9627 64.2886 84.028C63.9152 84.112 63.5746 84.154 63.2666 84.154C62.6039 84.154 62.1232 84 61.8246 83.692C61.5352 83.384 61.3906 82.922 61.3906 82.306V78.232H60.6206C60.4712 78.232 60.3499 78.19 60.2566 78.106C60.1726 78.0127 60.1306 77.8913 60.1306 77.742V77.588C60.1306 77.4293 60.1726 77.308 60.2566 77.224C60.3499 77.14 60.4712 77.098 60.6206 77.098H61.3906V75.362C61.3906 75.2033 61.4326 75.082 61.5166 74.998C61.6099 74.914 61.7312 74.872 61.8806 74.872H62.3846C62.5432 74.872 62.6646 74.914 62.7486 74.998C62.8326 75.082 62.8746 75.2033 62.8746 75.362V77.098H64.1346C64.2932 77.098 64.4146 77.14 64.4986 77.224C64.5826 77.308 64.6246 77.4293 64.6246 77.588V77.742C64.6246 77.8913 64.5826 78.0127 64.4986 78.106C64.4146 78.19 64.2932 78.232 64.1346 78.232H62.8746V82.124C62.8746 82.3947 62.9306 82.586 63.0426 82.698C63.1639 82.81 63.3552 82.866 63.6166 82.866C63.7286 82.866 63.8826 82.852 64.0786 82.824ZM68.7719 76.888C69.7052 76.888 70.4239 77.1073 70.9279 77.546C71.4319 77.9753 71.6839 78.5493 71.6839 79.268V83.51C71.6839 83.6593 71.6419 83.7807 71.5579 83.874C71.4739 83.958 71.3525 84 71.1939 84H70.8299C70.6805 84 70.5592 83.958 70.4659 83.874C70.3819 83.7807 70.3399 83.6593 70.3399 83.51V83.202C70.1159 83.5287 69.8079 83.7807 69.4159 83.958C69.0239 84.1353 68.5665 84.224 68.0439 84.224C67.3252 84.224 66.7325 84.0653 66.2659 83.748C65.8085 83.4213 65.5799 82.9313 65.5799 82.278C65.5799 81.55 65.8505 81.0133 66.3919 80.668C66.9425 80.3133 67.7032 80.0473 68.6739 79.87L70.2559 79.576V79.324C70.2559 78.9413 70.1205 78.6473 69.8499 78.442C69.5885 78.2273 69.2385 78.12 68.7999 78.12C68.4265 78.12 68.0999 78.1853 67.8199 78.316C67.5492 78.4373 67.2552 78.6427 66.9379 78.932C66.8165 79.0347 66.6999 79.086 66.5879 79.086C66.4759 79.086 66.3592 79.0347 66.2379 78.932L66.0139 78.736C65.8925 78.624 65.8319 78.5027 65.8319 78.372C65.8319 78.2507 65.8879 78.134 65.9999 78.022C66.4012 77.6393 66.8259 77.3547 67.2739 77.168C67.7219 76.9813 68.2212 76.888 68.7719 76.888ZM68.2539 83.034C68.8139 83.034 69.2852 82.8847 69.6679 82.586C70.0599 82.2873 70.2559 81.858 70.2559 81.298V80.654L69.0379 80.906C68.3565 81.046 67.8525 81.2047 67.5259 81.382C67.1992 81.5593 67.0359 81.83 67.0359 82.194C67.0359 82.4553 67.1432 82.6607 67.3579 82.81C67.5725 82.9593 67.8712 83.034 68.2539 83.034ZM76.8934 76.888C77.6867 76.888 78.2934 77.112 78.7134 77.56C79.1427 77.9987 79.3574 78.568 79.3574 79.268V83.51C79.3574 83.6593 79.3154 83.7807 79.2314 83.874C79.1474 83.958 79.0261 84 78.8674 84H78.3634C78.2141 84 78.0927 83.958 77.9994 83.874C77.9154 83.7807 77.8734 83.6593 77.8734 83.51V79.73C77.8734 79.226 77.7474 78.8387 77.4954 78.568C77.2527 78.2973 76.9027 78.162 76.4454 78.162C75.9974 78.162 75.6194 78.316 75.3114 78.624C75.0127 78.932 74.8634 79.3193 74.8634 79.786V83.51C74.8634 83.6593 74.8214 83.7807 74.7374 83.874C74.6534 83.958 74.5321 84 74.3734 84H73.8694C73.7201 84 73.5987 83.958 73.5054 83.874C73.4214 83.7807 73.3794 83.6593 73.3794 83.51V77.588C73.3794 77.4293 73.4214 77.308 73.5054 77.224C73.5987 77.14 73.7201 77.098 73.8694 77.098H74.2754C74.4341 77.098 74.5554 77.14 74.6394 77.224C74.7234 77.308 74.7654 77.4293 74.7654 77.588V77.952C74.9894 77.6067 75.2834 77.3453 75.6474 77.168C76.0114 76.9813 76.4267 76.888 76.8934 76.888ZM84.101 84.21C83.4197 84.21 82.8177 84.0607 82.295 83.762C81.7817 83.4633 81.3803 83.0387 81.091 82.488C80.811 81.928 80.671 81.2793 80.671 80.542C80.671 79.8047 80.8157 79.1607 81.105 78.61C81.3943 78.0593 81.8003 77.6347 82.323 77.336C82.8457 77.0373 83.4477 76.888 84.129 76.888C84.6237 76.888 85.067 76.9627 85.459 77.112C85.8603 77.252 86.243 77.4947 86.607 77.84C86.719 77.952 86.775 78.0687 86.775 78.19C86.775 78.302 86.7143 78.4187 86.593 78.54L86.355 78.778C86.2523 78.8807 86.1403 78.932 86.019 78.932C85.8977 78.932 85.7717 78.876 85.641 78.764C85.3703 78.5307 85.1137 78.372 84.871 78.288C84.6377 78.1947 84.3857 78.148 84.115 78.148C83.499 78.148 83.023 78.3767 82.687 78.834C82.351 79.2913 82.183 79.8607 82.183 80.542C82.183 81.2233 82.351 81.7973 82.687 82.264C83.023 82.7213 83.499 82.95 84.115 82.95C84.4137 82.95 84.689 82.894 84.941 82.782C85.193 82.6607 85.4637 82.46 85.753 82.18C85.8743 82.0587 86.0003 81.998 86.131 81.998C86.243 81.998 86.3503 82.0447 86.453 82.138L86.691 82.334C86.8123 82.4367 86.873 82.5533 86.873 82.684C86.873 82.824 86.803 82.9733 86.663 83.132C86.2803 83.524 85.8837 83.804 85.473 83.972C85.0717 84.1307 84.6143 84.21 84.101 84.21ZM92.9093 82.236C93.0306 82.1333 93.1473 82.082 93.2593 82.082C93.3713 82.082 93.4879 82.1427 93.6093 82.264L93.8053 82.474C93.9079 82.5953 93.9593 82.712 93.9593 82.824C93.9593 82.9453 93.8986 83.062 93.7773 83.174C93.3479 83.5473 92.9186 83.8133 92.4893 83.972C92.0693 84.1307 91.6026 84.21 91.0893 84.21C90.3706 84.21 89.7453 84.0607 89.2133 83.762C88.6906 83.4633 88.2846 83.0433 87.9953 82.502C87.7153 81.9513 87.5753 81.3167 87.5753 80.598C87.5753 79.8887 87.7106 79.254 87.9813 78.694C88.2613 78.1247 88.6533 77.6813 89.1573 77.364C89.6706 77.0467 90.2679 76.888 90.9493 76.888C91.9666 76.888 92.7506 77.1913 93.3013 77.798C93.8519 78.3953 94.1273 79.2213 94.1273 80.276V80.402C94.1179 80.5513 94.0713 80.668 93.9873 80.752C93.9033 80.836 93.7819 80.878 93.6233 80.878H89.0313C89.0873 81.494 89.2879 81.998 89.6333 82.39C89.9879 82.7727 90.4826 82.964 91.1173 82.964C91.4626 82.964 91.7659 82.9127 92.0273 82.81C92.2886 82.698 92.5826 82.5067 92.9093 82.236ZM90.9213 78.064C90.4079 78.064 89.9926 78.218 89.6753 78.526C89.3673 78.8247 89.1666 79.2493 89.0733 79.8H92.6713C92.6339 79.2587 92.4659 78.834 92.1673 78.526C91.8686 78.218 91.4533 78.064 90.9213 78.064ZM96.5508 78.946C96.2708 78.946 96.0281 78.848 95.8228 78.652C95.6268 78.4467 95.5288 78.1993 95.5288 77.91C95.5288 77.63 95.6268 77.392 95.8228 77.196C96.0281 76.9907 96.2708 76.888 96.5508 76.888C96.8308 76.888 97.0688 76.9907 97.2648 77.196C97.4701 77.392 97.5728 77.63 97.5728 77.91C97.5728 78.1993 97.4701 78.4467 97.2648 78.652C97.0688 78.848 96.8308 78.946 96.5508 78.946ZM96.5508 84.14C96.2708 84.14 96.0281 84.042 95.8228 83.846C95.6268 83.6407 95.5288 83.3933 95.5288 83.104C95.5288 82.8333 95.6268 82.6 95.8228 82.404C96.0281 82.1987 96.2708 82.096 96.5508 82.096C96.8308 82.096 97.0688 82.1987 97.2648 82.404C97.4701 82.6 97.5728 82.8333 97.5728 83.104C97.5728 83.3933 97.4701 83.6407 97.2648 83.846C97.0688 84.042 96.8308 84.14 96.5508 84.14ZM106.225 77.448C106.879 77.448 107.457 77.602 107.961 77.91C108.465 78.2087 108.853 78.6147 109.123 79.128C109.394 79.632 109.529 80.1873 109.529 80.794C109.529 81.3913 109.385 81.9513 109.095 82.474C108.806 82.9967 108.386 83.4213 107.835 83.748C107.294 84.0653 106.65 84.224 105.903 84.224C105.138 84.224 104.475 84.056 103.915 83.72C103.365 83.384 102.945 82.9173 102.655 82.32C102.366 81.7133 102.221 81.0273 102.221 80.262C102.221 79.226 102.478 78.2693 102.991 77.392C103.505 76.5147 104.237 75.6187 105.189 74.704L105.595 74.312C105.782 74.144 105.983 74.06 106.197 74.06H106.981C107.112 74.06 107.215 74.088 107.289 74.144C107.364 74.1907 107.401 74.2513 107.401 74.326C107.401 74.438 107.341 74.55 107.219 74.662L106.365 75.474C105.217 76.5473 104.447 77.4853 104.055 78.288C104.587 77.728 105.311 77.448 106.225 77.448ZM105.917 82.908C106.552 82.908 107.056 82.712 107.429 82.32C107.812 81.9187 108.003 81.4193 108.003 80.822C108.003 80.206 107.817 79.7067 107.443 79.324C107.079 78.932 106.58 78.736 105.945 78.736C105.301 78.736 104.779 78.932 104.377 79.324C103.976 79.716 103.775 80.2153 103.775 80.822C103.775 81.4193 103.971 81.9187 104.363 82.32C104.765 82.712 105.283 82.908 105.917 82.908ZM114.425 77.546C115.069 77.546 115.633 77.686 116.119 77.966C116.604 78.2367 116.977 78.6147 117.239 79.1C117.509 79.576 117.645 80.1127 117.645 80.71C117.645 81.354 117.495 81.9467 117.197 82.488C116.907 83.02 116.492 83.4447 115.951 83.762C115.409 84.07 114.789 84.224 114.089 84.224C113.435 84.224 112.861 84.1447 112.367 83.986C111.872 83.818 111.331 83.5473 110.743 83.174C110.575 83.062 110.491 82.9313 110.491 82.782C110.491 82.6887 110.528 82.5907 110.603 82.488L110.813 82.194C110.925 82.0447 111.051 81.97 111.191 81.97C111.293 81.97 111.396 82.0027 111.499 82.068C112.003 82.376 112.432 82.5953 112.787 82.726C113.151 82.8567 113.547 82.922 113.977 82.922C114.621 82.922 115.134 82.7213 115.517 82.32C115.909 81.9093 116.105 81.3913 116.105 80.766C116.105 80.1593 115.923 79.688 115.559 79.352C115.204 79.0067 114.709 78.834 114.075 78.834C113.477 78.834 112.969 78.9927 112.549 79.31C112.427 79.3847 112.32 79.4407 112.227 79.478C112.143 79.506 112.04 79.5153 111.919 79.506L111.415 79.45C111.256 79.4313 111.139 79.3753 111.065 79.282C110.99 79.1887 110.957 79.0673 110.967 78.918L111.317 74.536C111.345 74.2187 111.517 74.06 111.835 74.06H116.679C116.837 74.06 116.959 74.102 117.043 74.186C117.127 74.27 117.169 74.3913 117.169 74.55V74.858C117.169 75.0073 117.127 75.1287 117.043 75.222C116.959 75.306 116.837 75.348 116.679 75.348H112.661L112.437 78.162C112.978 77.7513 113.641 77.546 114.425 77.546ZM127.38 84C127.119 84 126.923 83.8927 126.792 83.678L124.86 80.682L123.754 81.802V83.51C123.754 83.6593 123.712 83.7807 123.628 83.874C123.544 83.958 123.423 84 123.264 84H122.76C122.611 84 122.489 83.958 122.396 83.874C122.312 83.7807 122.27 83.6593 122.27 83.51V74.55C122.27 74.3913 122.312 74.27 122.396 74.186C122.489 74.102 122.611 74.06 122.76 74.06H123.264C123.423 74.06 123.544 74.102 123.628 74.186C123.712 74.27 123.754 74.3913 123.754 74.55V80.164L126.4 77.364C126.568 77.1867 126.773 77.098 127.016 77.098H127.548C127.688 77.098 127.791 77.126 127.856 77.182C127.931 77.2287 127.968 77.294 127.968 77.378C127.968 77.49 127.917 77.5973 127.814 77.7L125.882 79.716L128.262 83.412C128.327 83.5147 128.36 83.608 128.36 83.692C128.36 83.7853 128.323 83.86 128.248 83.916C128.173 83.972 128.071 84 127.94 84H127.38ZM136.936 76.888C137.673 76.888 138.242 77.098 138.644 77.518C139.045 77.9287 139.246 78.484 139.246 79.184V83.51C139.246 83.6593 139.204 83.7807 139.12 83.874C139.036 83.958 138.914 84 138.756 84H138.252C138.102 84 137.981 83.958 137.888 83.874C137.804 83.7807 137.762 83.6593 137.762 83.51V79.632C137.762 79.1747 137.659 78.8153 137.454 78.554C137.248 78.2927 136.936 78.162 136.516 78.162C136.086 78.162 135.746 78.3067 135.494 78.596C135.251 78.8853 135.13 79.2587 135.13 79.716V83.51C135.13 83.6593 135.088 83.7807 135.004 83.874C134.92 83.958 134.798 84 134.64 84H134.136C133.986 84 133.865 83.958 133.772 83.874C133.688 83.7807 133.646 83.6593 133.646 83.51V79.632C133.646 79.1747 133.543 78.8153 133.338 78.554C133.142 78.2927 132.834 78.162 132.414 78.162C132.003 78.162 131.672 78.2973 131.42 78.568C131.168 78.8387 131.032 79.1887 131.014 79.618V83.51C131.014 83.6593 130.972 83.7807 130.888 83.874C130.804 83.958 130.682 84 130.524 84H130.02C129.87 84 129.749 83.958 129.656 83.874C129.572 83.7807 129.53 83.6593 129.53 83.51V77.588C129.53 77.4293 129.572 77.308 129.656 77.224C129.749 77.14 129.87 77.098 130.02 77.098H130.426C130.584 77.098 130.706 77.14 130.79 77.224C130.874 77.308 130.916 77.4293 130.916 77.588V77.896C131.345 77.224 132.008 76.888 132.904 76.888C133.352 76.888 133.744 76.9813 134.08 77.168C134.416 77.3547 134.672 77.616 134.85 77.952C135.326 77.2427 136.021 76.888 136.936 76.888Z" fill="#1B1B1F"/>
<rect x="40" y="108" width="252" height="4" rx="2" fill="#DEDEE3"/>
<rect x="40" y="107" width="166" height="6" rx="3" fill="#0063FB"/>
<g filter="url(#filter0_dd_5459_10710)">
<rect x="178.5" y="49" width="55" height="32" rx="4" fill="#1B1B1F"/>
<path d="M190.98 63.504C191.661 63.504 192.254 63.658 192.758 63.966C193.262 64.2647 193.645 64.6707 193.906 65.184C194.177 65.688 194.312 66.2433 194.312 66.85C194.312 67.4473 194.172 68.0027 193.892 68.516C193.612 69.0293 193.206 69.44 192.674 69.748C192.151 70.056 191.535 70.21 190.826 70.21C190.079 70.21 189.44 70.042 188.908 69.706C188.376 69.37 187.975 68.9173 187.704 68.348C187.433 67.7787 187.298 67.1393 187.298 66.43C187.298 65.3473 187.559 64.3767 188.082 63.518C188.614 62.65 189.375 61.74 190.364 60.788L190.994 60.2C191.087 60.1067 191.199 60.06 191.33 60.06H191.89C192.049 60.06 192.128 60.1113 192.128 60.214C192.128 60.27 192.091 60.3353 192.016 60.41L191.134 61.222C189.725 62.5287 188.819 63.6907 188.418 64.708C188.689 64.3347 189.043 64.0407 189.482 63.826C189.921 63.6113 190.42 63.504 190.98 63.504ZM190.826 69.398C191.339 69.398 191.787 69.286 192.17 69.062C192.553 68.838 192.842 68.5347 193.038 68.152C193.243 67.7693 193.346 67.34 193.346 66.864C193.346 66.1267 193.131 65.52 192.702 65.044C192.273 64.568 191.675 64.33 190.91 64.33C190.369 64.33 189.902 64.442 189.51 64.666C189.118 64.8807 188.815 65.184 188.6 65.576C188.395 65.9587 188.292 66.388 188.292 66.864C188.292 67.34 188.395 67.7693 188.6 68.152C188.805 68.5347 189.099 68.838 189.482 69.062C189.865 69.286 190.313 69.398 190.826 69.398ZM199.249 63.588C199.893 63.588 200.458 63.7233 200.943 63.994C201.438 64.2553 201.82 64.6287 202.091 65.114C202.362 65.5993 202.497 66.1593 202.497 66.794C202.497 67.3633 202.362 67.9093 202.091 68.432C201.82 68.9547 201.428 69.3793 200.915 69.706C200.402 70.0327 199.8 70.196 199.109 70.196C198.437 70.196 197.854 70.112 197.359 69.944C196.874 69.776 196.323 69.4867 195.707 69.076C195.614 69.02 195.567 68.9453 195.567 68.852C195.567 68.7867 195.586 68.7307 195.623 68.684L195.805 68.432C195.861 68.348 195.926 68.306 196.001 68.306C196.057 68.306 196.122 68.3293 196.197 68.376C196.766 68.7587 197.252 69.0247 197.653 69.174C198.064 69.3233 198.516 69.398 199.011 69.398C199.534 69.398 199.986 69.2813 200.369 69.048C200.752 68.8053 201.041 68.488 201.237 68.096C201.442 67.6947 201.545 67.2607 201.545 66.794C201.545 66.0473 201.335 65.464 200.915 65.044C200.504 64.624 199.912 64.414 199.137 64.414C198.306 64.414 197.611 64.666 197.051 65.17C196.948 65.2633 196.827 65.3007 196.687 65.282L196.379 65.24C196.295 65.2307 196.23 65.198 196.183 65.142C196.136 65.086 196.118 65.016 196.127 64.932L196.505 60.326C196.514 60.242 196.542 60.1767 196.589 60.13C196.645 60.0833 196.715 60.06 196.799 60.06H201.783C201.97 60.06 202.063 60.1533 202.063 60.34V60.592C202.063 60.7787 201.97 60.872 201.783 60.872H197.331L197.037 64.316C197.298 64.1013 197.616 63.9287 197.989 63.798C198.372 63.658 198.792 63.588 199.249 63.588ZM212.522 70C212.382 70 212.27 69.9393 212.186 69.818L209.82 66.374L208.462 67.76V69.72C208.462 69.9067 208.369 70 208.182 70H207.818C207.631 70 207.538 69.9067 207.538 69.72V60.34C207.538 60.1533 207.631 60.06 207.818 60.06H208.182C208.369 60.06 208.462 60.1533 208.462 60.34V66.71L211.822 63.224C211.906 63.1307 212.023 63.084 212.172 63.084H212.564C212.639 63.084 212.695 63.1027 212.732 63.14C212.779 63.168 212.802 63.2053 212.802 63.252C212.802 63.2987 212.774 63.3593 212.718 63.434L210.464 65.786L213.11 69.664C213.147 69.7293 213.166 69.7853 213.166 69.832C213.166 69.944 213.091 70 212.942 70H212.522ZM221.525 62.93C222.271 62.93 222.841 63.1447 223.233 63.574C223.634 63.994 223.835 64.5353 223.835 65.198V69.72C223.835 69.9067 223.741 70 223.555 70H223.191C223.004 70 222.911 69.9067 222.911 69.72V65.45C222.911 64.89 222.78 64.4607 222.519 64.162C222.267 63.8633 221.889 63.714 221.385 63.714C220.853 63.714 220.428 63.8913 220.111 64.246C219.793 64.6007 219.635 65.058 219.635 65.618V69.72C219.635 69.9067 219.541 70 219.355 70H218.991C218.804 70 218.711 69.9067 218.711 69.72V65.45C218.711 64.89 218.58 64.4607 218.319 64.162C218.067 63.8633 217.684 63.714 217.171 63.714C216.695 63.714 216.298 63.8633 215.981 64.162C215.673 64.4607 215.491 64.8527 215.435 65.338V69.72C215.435 69.9067 215.341 70 215.155 70H214.791C214.604 70 214.511 69.9067 214.511 69.72V63.378C214.511 63.1913 214.604 63.098 214.791 63.098H215.099C215.285 63.098 215.379 63.1913 215.379 63.378V63.952C215.799 63.2707 216.466 62.93 217.381 62.93C217.857 62.93 218.263 63.0373 218.599 63.252C218.944 63.4573 219.201 63.7373 219.369 64.092C219.863 63.3173 220.582 62.93 221.525 62.93Z" fill="white"/>
<path d="M204.586 87.5858L200.343 83.3431C198.843 81.8429 196.808 81 194.686 81H217.314C215.192 81 213.157 81.8429 211.657 83.3431L207.414 87.5858C206.633 88.3668 205.367 88.3668 204.586 87.5858Z" fill="#1B1B1F"/>
</g>
<path d="M192 110C192 102.268 198.268 96 206 96C213.732 96 220 102.268 220 110C220 117.732 213.732 124 206 124C198.268 124 192 117.732 192 110Z" fill="#00337F"/>
<path d="M192 110C192 102.268 198.268 96 206 96C213.732 96 220 102.268 220 110C220 117.732 213.732 124 206 124C198.268 124 192 117.732 192 110Z" stroke="black" stroke-opacity="0.08" stroke-width="16"/>
<defs>
<filter id="filter0_dd_5459_10710" x="170.5" y="44" width="71" height="55.1716" filterUnits="userSpaceOnUse" color-interpolation-filters="sRGB">
<feFlood flood-opacity="0" result="BackgroundImageFix"/>
<feColorMatrix in="SourceAlpha" type="matrix" values="0 0 0 0 0 0 0 0 0 0 0 0 0 0 0 0 0 0 127 0" result="hardAlpha"/>
<feOffset dy="3"/>
<feGaussianBlur stdDeviation="4"/>
<feComposite in2="hardAlpha" operator="out"/>
<feColorMatrix type="matrix" values="0 0 0 0 0 0 0 0 0 0 0 0 0 0 0 0 0 0 0.16 0"/>
<feBlend mode="normal" in2="BackgroundImageFix" result="effect1_dropShadow_5459_10710"/>
<feColorMatrix in="SourceAlpha" type="matrix" values="0 0 0 0 0 0 0 0 0 0 0 0 0 0 0 0 0 0 127 0" result="hardAlpha"/>
<feOffset dy="3"/>
<feGaussianBlur stdDeviation="3"/>
<feComposite in2="hardAlpha" operator="out"/>
<feColorMatrix type="matrix" values="0 0 0 0 0 0 0 0 0 0 0 0 0 0 0 0 0 0 0.1 0"/>
<feBlend mode="normal" in2="effect1_dropShadow_5459_10710" result="effect2_dropShadow_5459_10710"/>
<feBlend mode="normal" in="SourceGraphic" in2="effect2_dropShadow_5459_10710" result="shape"/>
</filter>
<filter id="filter1_d_5459_10710" x="184" y="88" width="44" height="44" filterUnits="userSpaceOnUse" color-interpolation-filters="sRGB">
<feFlood flood-opacity="0" result="BackgroundImageFix"/>
<feColorMatrix in="SourceAlpha" type="matrix" values="0 0 0 0 0 0 0 0 0 0 0 0 0 0 0 0 0 0 127 0" result="hardAlpha"/>
<feMorphology radius="8" operator="dilate" in="SourceAlpha" result="effect1_dropShadow_5459_10710"/>
<feOffset/>
<feColorMatrix type="matrix" values="0 0 0 0 0 0 0 0 0 0 0 0 0 0 0 0 0 0 0.08 0"/>
<feBlend mode="normal" in2="BackgroundImageFix" result="effect1_dropShadow_5459_10710"/>
<feBlend mode="normal" in="SourceGraphic" in2="effect1_dropShadow_5459_10710" result="shape"/>
</filter>
</defs>
</svg>
