<svg width="332" height="220" viewBox="0 0 332 220" fill="none" xmlns="http://www.w3.org/2000/svg">
<g clip-path="url(#clip0_5534_19031)">
<path d="M0 10C0 4.47716 4.47715 0 10 0H322C327.523 0 332 4.47715 332 10V210C332 215.523 327.523 220 322 220H10C4.47716 220 0 215.523 0 210V10Z" fill="#FAFAFA"/>
<rect x="40.5" y="132.5" width="125" height="47" rx="3.5" fill="white"/>
<rect x="40.5" y="132.5" width="125" height="47" rx="3.5" stroke="#84848F"/>
<g clip-path="url(#clip1_5534_19031)">
<path d="M53.12 153.576C53.8987 153.576 54.576 153.752 55.152 154.104C55.728 154.445 56.1653 154.909 56.464 155.496C56.7733 156.072 56.928 156.707 56.928 157.4C56.928 158.083 56.768 158.717 56.448 159.304C56.128 159.891 55.664 160.36 55.056 160.712C54.4587 161.064 53.7547 161.24 52.944 161.24C52.0907 161.24 51.36 161.048 50.752 160.664C50.144 160.28 49.6853 159.763 49.376 159.112C49.0667 158.461 48.912 157.731 48.912 156.92C48.912 155.683 49.2107 154.573 49.808 153.592C50.416 152.6 51.2853 151.56 52.416 150.472L53.136 149.8C53.2427 149.693 53.3707 149.64 53.52 149.64H54.16C54.3413 149.64 54.432 149.699 54.432 149.816C54.432 149.88 54.3893 149.955 54.304 150.04L53.296 150.968C51.6853 152.461 50.6507 153.789 50.192 154.952C50.5013 154.525 50.9067 154.189 51.408 153.944C51.9093 153.699 52.48 153.576 53.12 153.576ZM52.944 160.312C53.5307 160.312 54.0427 160.184 54.48 159.928C54.9173 159.672 55.248 159.325 55.472 158.888C55.7067 158.451 55.824 157.96 55.824 157.416C55.824 156.573 55.5787 155.88 55.088 155.336C54.5973 154.792 53.9147 154.52 53.04 154.52C52.4213 154.52 51.888 154.648 51.44 154.904C50.992 155.149 50.6453 155.496 50.4 155.944C50.1653 156.381 50.048 156.872 50.048 157.416C50.048 157.96 50.1653 158.451 50.4 158.888C50.6347 159.325 50.9707 159.672 51.408 159.928C51.8453 160.184 52.3573 160.312 52.944 160.312ZM62.5701 153.672C63.3061 153.672 63.9515 153.827 64.5061 154.136C65.0715 154.435 65.5088 154.861 65.8181 155.416C66.1275 155.971 66.2821 156.611 66.2821 157.336C66.2821 157.987 66.1275 158.611 65.8181 159.208C65.5088 159.805 65.0608 160.291 64.4741 160.664C63.8875 161.037 63.1995 161.224 62.4101 161.224C61.6421 161.224 60.9755 161.128 60.4101 160.936C59.8555 160.744 59.2261 160.413 58.5221 159.944C58.4155 159.88 58.3621 159.795 58.3621 159.688C58.3621 159.613 58.3835 159.549 58.4261 159.496L58.6341 159.208C58.6981 159.112 58.7728 159.064 58.8581 159.064C58.9221 159.064 58.9968 159.091 59.0821 159.144C59.7328 159.581 60.2875 159.885 60.7461 160.056C61.2155 160.227 61.7328 160.312 62.2981 160.312C62.8955 160.312 63.4128 160.179 63.8501 159.912C64.2875 159.635 64.6181 159.272 64.8421 158.824C65.0768 158.365 65.1941 157.869 65.1941 157.336C65.1941 156.483 64.9541 155.816 64.4741 155.336C64.0048 154.856 63.3275 154.616 62.4421 154.616C61.4928 154.616 60.6981 154.904 60.0581 155.48C59.9408 155.587 59.8021 155.629 59.6421 155.608L59.2901 155.56C59.1941 155.549 59.1195 155.512 59.0661 155.448C59.0128 155.384 58.9915 155.304 59.0021 155.208L59.4341 149.944C59.4448 149.848 59.4768 149.773 59.5301 149.72C59.5941 149.667 59.6741 149.64 59.7701 149.64H65.4661C65.6795 149.64 65.7861 149.747 65.7861 149.96V150.248C65.7861 150.461 65.6795 150.568 65.4661 150.568H60.3781L60.0421 154.504C60.3408 154.259 60.7035 154.061 61.1301 153.912C61.5675 153.752 62.0475 153.672 62.5701 153.672Z" fill="#1B1B1F"/>
<path d="M147.16 160C147.04 160 146.944 159.948 146.872 159.844L144.844 156.892L143.68 158.08V159.76C143.68 159.92 143.6 160 143.44 160H143.128C142.968 160 142.888 159.92 142.888 159.76V151.72C142.888 151.56 142.968 151.48 143.128 151.48H143.44C143.6 151.48 143.68 151.56 143.68 151.72V157.18L146.56 154.192C146.632 154.112 146.732 154.072 146.86 154.072H147.196C147.26 154.072 147.308 154.088 147.34 154.12C147.38 154.144 147.4 154.176 147.4 154.216C147.4 154.256 147.376 154.308 147.328 154.372L145.396 156.388L147.664 159.712C147.696 159.768 147.712 159.816 147.712 159.856C147.712 159.952 147.648 160 147.52 160H147.16ZM154.877 153.94C155.517 153.94 156.005 154.124 156.341 154.492C156.685 154.852 156.857 155.316 156.857 155.884V159.76C156.857 159.92 156.777 160 156.617 160H156.305C156.145 160 156.065 159.92 156.065 159.76V156.1C156.065 155.62 155.953 155.252 155.729 154.996C155.513 154.74 155.189 154.612 154.757 154.612C154.301 154.612 153.937 154.764 153.665 155.068C153.393 155.372 153.257 155.764 153.257 156.244V159.76C153.257 159.92 153.177 160 153.017 160H152.705C152.545 160 152.465 159.92 152.465 159.76V156.1C152.465 155.62 152.353 155.252 152.129 154.996C151.913 154.74 151.585 154.612 151.145 154.612C150.737 154.612 150.397 154.74 150.125 154.996C149.861 155.252 149.705 155.588 149.657 156.004V159.76C149.657 159.92 149.577 160 149.417 160H149.105C148.945 160 148.865 159.92 148.865 159.76V154.324C148.865 154.164 148.945 154.084 149.105 154.084H149.369C149.529 154.084 149.609 154.164 149.609 154.324V154.816C149.969 154.232 150.541 153.94 151.325 153.94C151.733 153.94 152.081 154.032 152.369 154.216C152.665 154.392 152.885 154.632 153.029 154.936C153.453 154.272 154.069 153.94 154.877 153.94Z" fill="#5C5C66"/>
</g>
<path d="M44.2 116.21C43.5467 116.21 42.9727 116.051 42.478 115.734C41.9927 115.417 41.6053 114.973 41.316 114.404C40.8587 113.499 40.63 112.374 40.63 111.03C40.63 109.677 40.8587 108.547 41.316 107.642C41.6053 107.073 41.9927 106.634 42.478 106.326C42.9727 106.009 43.5467 105.85 44.2 105.85C44.8533 105.85 45.4227 106.009 45.908 106.326C46.4027 106.634 46.7947 107.073 47.084 107.642C47.5413 108.547 47.77 109.677 47.77 111.03C47.77 112.374 47.5413 113.499 47.084 114.404C46.7947 114.973 46.4027 115.417 45.908 115.734C45.4227 116.051 44.8533 116.21 44.2 116.21ZM44.2 115.398C45.1147 115.398 45.8007 114.922 46.258 113.97C46.622 113.195 46.804 112.215 46.804 111.03C46.804 109.826 46.622 108.841 46.258 108.076C45.81 107.133 45.124 106.662 44.2 106.662C43.276 106.662 42.59 107.133 42.142 108.076C41.778 108.841 41.596 109.826 41.596 111.03C41.596 112.225 41.778 113.205 42.142 113.97C42.5993 114.922 43.2853 115.398 44.2 115.398Z" fill="#5C5C66"/>
<path d="M250.437 106.172C250.54 106.097 250.656 106.06 250.787 106.06H251.011C251.198 106.06 251.291 106.153 251.291 106.34V115.72C251.291 115.907 251.198 116 251.011 116H250.633C250.446 116 250.353 115.907 250.353 115.72V107.264L248.239 108.776C248.174 108.823 248.113 108.846 248.057 108.846C247.973 108.846 247.903 108.804 247.847 108.72L247.707 108.51C247.67 108.463 247.651 108.407 247.651 108.342C247.651 108.258 247.693 108.183 247.777 108.118L250.437 106.172ZM257.659 116.21C257.006 116.21 256.432 116.051 255.937 115.734C255.452 115.417 255.064 114.973 254.775 114.404C254.318 113.499 254.089 112.374 254.089 111.03C254.089 109.677 254.318 108.547 254.775 107.642C255.064 107.073 255.452 106.634 255.937 106.326C256.432 106.009 257.006 105.85 257.659 105.85C258.312 105.85 258.882 106.009 259.367 106.326C259.862 106.634 260.254 107.073 260.543 107.642C261 108.547 261.229 109.677 261.229 111.03C261.229 112.374 261 113.499 260.543 114.404C260.254 114.973 259.862 115.417 259.367 115.734C258.882 116.051 258.312 116.21 257.659 116.21ZM257.659 115.398C258.574 115.398 259.26 114.922 259.717 113.97C260.081 113.195 260.263 112.215 260.263 111.03C260.263 109.826 260.081 108.841 259.717 108.076C259.269 107.133 258.583 106.662 257.659 106.662C256.735 106.662 256.049 107.133 255.601 108.076C255.237 108.841 255.055 109.826 255.055 111.03C255.055 112.225 255.237 113.205 255.601 113.97C256.058 114.922 256.744 115.398 257.659 115.398ZM266.245 116.21C265.592 116.21 265.018 116.051 264.523 115.734C264.038 115.417 263.65 114.973 263.361 114.404C262.904 113.499 262.675 112.374 262.675 111.03C262.675 109.677 262.904 108.547 263.361 107.642C263.65 107.073 264.038 106.634 264.523 106.326C265.018 106.009 265.592 105.85 266.245 105.85C266.898 105.85 267.468 106.009 267.953 106.326C268.448 106.634 268.84 107.073 269.129 107.642C269.586 108.547 269.815 109.677 269.815 111.03C269.815 112.374 269.586 113.499 269.129 114.404C268.84 114.973 268.448 115.417 267.953 115.734C267.468 116.051 266.898 116.21 266.245 116.21ZM266.245 115.398C267.16 115.398 267.846 114.922 268.303 113.97C268.667 113.195 268.849 112.215 268.849 111.03C268.849 109.826 268.667 108.841 268.303 108.076C267.855 107.133 267.169 106.662 266.245 106.662C265.321 106.662 264.635 107.133 264.187 108.076C263.823 108.841 263.641 109.826 263.641 111.03C263.641 112.225 263.823 113.205 264.187 113.97C264.644 114.922 265.33 115.398 266.245 115.398ZM279.686 116C279.546 116 279.434 115.939 279.35 115.818L276.984 112.374L275.626 113.76V115.72C275.626 115.907 275.533 116 275.346 116H274.982C274.795 116 274.702 115.907 274.702 115.72V106.34C274.702 106.153 274.795 106.06 274.982 106.06H275.346C275.533 106.06 275.626 106.153 275.626 106.34V112.71L278.986 109.224C279.07 109.131 279.187 109.084 279.336 109.084H279.728C279.803 109.084 279.859 109.103 279.896 109.14C279.943 109.168 279.966 109.205 279.966 109.252C279.966 109.299 279.938 109.359 279.882 109.434L277.628 111.786L280.274 115.664C280.311 115.729 280.33 115.785 280.33 115.832C280.33 115.944 280.255 116 280.106 116H279.686ZM288.689 108.93C289.435 108.93 290.005 109.145 290.397 109.574C290.798 109.994 290.999 110.535 290.999 111.198V115.72C290.999 115.907 290.905 116 290.719 116H290.355C290.168 116 290.075 115.907 290.075 115.72V111.45C290.075 110.89 289.944 110.461 289.683 110.162C289.431 109.863 289.053 109.714 288.549 109.714C288.017 109.714 287.592 109.891 287.275 110.246C286.957 110.601 286.799 111.058 286.799 111.618V115.72C286.799 115.907 286.705 116 286.519 116H286.155C285.968 116 285.875 115.907 285.875 115.72V111.45C285.875 110.89 285.744 110.461 285.483 110.162C285.231 109.863 284.848 109.714 284.335 109.714C283.859 109.714 283.462 109.863 283.145 110.162C282.837 110.461 282.655 110.853 282.599 111.338V115.72C282.599 115.907 282.505 116 282.319 116H281.955C281.768 116 281.675 115.907 281.675 115.72V109.378C281.675 109.191 281.768 109.098 281.955 109.098H282.263C282.449 109.098 282.543 109.191 282.543 109.378V109.952C282.963 109.271 283.63 108.93 284.545 108.93C285.021 108.93 285.427 109.037 285.763 109.252C286.108 109.457 286.365 109.737 286.533 110.092C287.027 109.317 287.746 108.93 288.689 108.93Z" fill="#5C5C66"/>
<path d="M41.568 54C41.4187 54 41.2973 53.958 41.204 53.874C41.12 53.7807 41.078 53.6593 41.078 53.51V44.55C41.078 44.3913 41.12 44.27 41.204 44.186C41.2973 44.102 41.4187 44.06 41.568 44.06H44.942C45.8753 44.06 46.6733 44.27 47.336 44.69C48.008 45.11 48.5167 45.698 48.862 46.454C49.2167 47.2007 49.394 48.0593 49.394 49.03C49.394 50.0007 49.2167 50.864 48.862 51.62C48.5167 52.3667 48.008 52.95 47.336 53.37C46.6733 53.79 45.8753 54 44.942 54H41.568ZM44.704 52.656C45.656 52.656 46.4027 52.3433 46.944 51.718C47.4947 51.0833 47.77 50.1873 47.77 49.03C47.77 47.8727 47.4947 46.9813 46.944 46.356C46.4027 45.7213 45.656 45.404 44.704 45.404H42.674V52.656H44.704ZM51.5358 45.754C51.2651 45.754 51.0364 45.6653 50.8498 45.488C50.6631 45.3013 50.5698 45.082 50.5698 44.83C50.5698 44.5687 50.6631 44.3493 50.8498 44.172C51.0364 43.9947 51.2651 43.906 51.5358 43.906C51.8064 43.906 52.0351 43.9947 52.2218 44.172C52.4084 44.3493 52.5018 44.5687 52.5018 44.83C52.5018 45.082 52.4084 45.3013 52.2218 45.488C52.0351 45.6653 51.8064 45.754 51.5358 45.754ZM51.2698 54C51.1204 54 50.9991 53.958 50.9058 53.874C50.8218 53.7807 50.7798 53.6593 50.7798 53.51V47.588C50.7798 47.4293 50.8218 47.308 50.9058 47.224C50.9991 47.14 51.1204 47.098 51.2698 47.098H51.7738C51.9324 47.098 52.0538 47.14 52.1378 47.224C52.2218 47.308 52.2638 47.4293 52.2638 47.588V53.51C52.2638 53.6593 52.2218 53.7807 52.1378 53.874C52.0538 53.958 51.9324 54 51.7738 54H51.2698ZM56.639 54.21C56.0697 54.21 55.561 54.14 55.113 54C54.6743 53.8507 54.2263 53.594 53.769 53.23C53.629 53.1273 53.559 53.0107 53.559 52.88C53.559 52.7773 53.6103 52.6653 53.713 52.544L53.923 52.306C54.035 52.1753 54.1563 52.11 54.287 52.11C54.3897 52.11 54.5017 52.1567 54.623 52.25C55.015 52.5393 55.3603 52.74 55.659 52.852C55.9577 52.9547 56.2937 53.006 56.667 53.006C57.0683 53.006 57.395 52.9267 57.647 52.768C57.9083 52.6 58.039 52.376 58.039 52.096C58.039 51.8813 57.9643 51.7133 57.815 51.592C57.675 51.4613 57.4883 51.3633 57.255 51.298C57.0217 51.2233 56.6763 51.1393 56.219 51.046C55.575 50.906 55.071 50.7567 54.707 50.598C54.3523 50.43 54.0957 50.22 53.937 49.968C53.7783 49.716 53.699 49.394 53.699 49.002C53.699 48.6007 53.811 48.2413 54.035 47.924C54.2683 47.6067 54.5903 47.3547 55.001 47.168C55.421 46.9813 55.911 46.888 56.471 46.888C56.975 46.888 57.423 46.944 57.815 47.056C58.2163 47.168 58.6083 47.3593 58.991 47.63C59.1403 47.742 59.215 47.868 59.215 48.008C59.215 48.1013 59.1683 48.2087 59.075 48.33L58.893 48.554C58.7903 48.6847 58.6643 48.75 58.515 48.75C58.403 48.75 58.2957 48.7127 58.193 48.638C57.885 48.4327 57.6003 48.2927 57.339 48.218C57.0777 48.134 56.7837 48.092 56.457 48.092C56.0557 48.092 55.7337 48.1713 55.491 48.33C55.2483 48.4887 55.127 48.694 55.127 48.946C55.127 49.114 55.183 49.2493 55.295 49.352C55.4163 49.4453 55.5843 49.5293 55.799 49.604C56.023 49.6693 56.373 49.7533 56.849 49.856C57.493 49.996 58.0017 50.1547 58.375 50.332C58.7577 50.5 59.0377 50.7193 59.215 50.99C59.4017 51.2513 59.495 51.592 59.495 52.012C59.495 52.6653 59.2337 53.1973 58.711 53.608C58.1977 54.0093 57.507 54.21 56.639 54.21ZM64.0786 52.824C64.1066 52.8147 64.1486 52.81 64.2046 52.81C64.4379 52.81 64.5779 52.9453 64.6246 53.216L64.6666 53.44C64.6759 53.468 64.6806 53.5147 64.6806 53.58C64.6806 53.8133 64.5499 53.9627 64.2886 54.028C63.9152 54.112 63.5746 54.154 63.2666 54.154C62.6039 54.154 62.1232 54 61.8246 53.692C61.5352 53.384 61.3906 52.922 61.3906 52.306V48.232H60.6206C60.4712 48.232 60.3499 48.19 60.2566 48.106C60.1726 48.0127 60.1306 47.8913 60.1306 47.742V47.588C60.1306 47.4293 60.1726 47.308 60.2566 47.224C60.3499 47.14 60.4712 47.098 60.6206 47.098H61.3906V45.362C61.3906 45.2033 61.4326 45.082 61.5166 44.998C61.6099 44.914 61.7312 44.872 61.8806 44.872H62.3846C62.5432 44.872 62.6646 44.914 62.7486 44.998C62.8326 45.082 62.8746 45.2033 62.8746 45.362V47.098H64.1346C64.2932 47.098 64.4146 47.14 64.4986 47.224C64.5826 47.308 64.6246 47.4293 64.6246 47.588V47.742C64.6246 47.8913 64.5826 48.0127 64.4986 48.106C64.4146 48.19 64.2932 48.232 64.1346 48.232H62.8746V52.124C62.8746 52.3947 62.9306 52.586 63.0426 52.698C63.1639 52.81 63.3552 52.866 63.6166 52.866C63.7286 52.866 63.8826 52.852 64.0786 52.824ZM68.7719 46.888C69.7052 46.888 70.4239 47.1073 70.9279 47.546C71.4319 47.9753 71.6839 48.5493 71.6839 49.268V53.51C71.6839 53.6593 71.6419 53.7807 71.5579 53.874C71.4739 53.958 71.3525 54 71.1939 54H70.8299C70.6805 54 70.5592 53.958 70.4659 53.874C70.3819 53.7807 70.3399 53.6593 70.3399 53.51V53.202C70.1159 53.5287 69.8079 53.7807 69.4159 53.958C69.0239 54.1353 68.5665 54.224 68.0439 54.224C67.3252 54.224 66.7325 54.0653 66.2659 53.748C65.8085 53.4213 65.5799 52.9313 65.5799 52.278C65.5799 51.55 65.8505 51.0133 66.3919 50.668C66.9425 50.3133 67.7032 50.0473 68.6739 49.87L70.2559 49.576V49.324C70.2559 48.9413 70.1205 48.6473 69.8499 48.442C69.5885 48.2273 69.2385 48.12 68.7999 48.12C68.4265 48.12 68.0999 48.1853 67.8199 48.316C67.5492 48.4373 67.2552 48.6427 66.9379 48.932C66.8165 49.0347 66.6999 49.086 66.5879 49.086C66.4759 49.086 66.3592 49.0347 66.2379 48.932L66.0139 48.736C65.8925 48.624 65.8319 48.5027 65.8319 48.372C65.8319 48.2507 65.8879 48.134 65.9999 48.022C66.4012 47.6393 66.8259 47.3547 67.2739 47.168C67.7219 46.9813 68.2212 46.888 68.7719 46.888ZM68.2539 53.034C68.8139 53.034 69.2852 52.8847 69.6679 52.586C70.0599 52.2873 70.2559 51.858 70.2559 51.298V50.654L69.0379 50.906C68.3565 51.046 67.8525 51.2047 67.5259 51.382C67.1992 51.5593 67.0359 51.83 67.0359 52.194C67.0359 52.4553 67.1432 52.6607 67.3579 52.81C67.5725 52.9593 67.8712 53.034 68.2539 53.034ZM76.8934 46.888C77.6867 46.888 78.2934 47.112 78.7134 47.56C79.1427 47.9987 79.3574 48.568 79.3574 49.268V53.51C79.3574 53.6593 79.3154 53.7807 79.2314 53.874C79.1474 53.958 79.0261 54 78.8674 54H78.3634C78.2141 54 78.0927 53.958 77.9994 53.874C77.9154 53.7807 77.8734 53.6593 77.8734 53.51V49.73C77.8734 49.226 77.7474 48.8387 77.4954 48.568C77.2527 48.2973 76.9027 48.162 76.4454 48.162C75.9974 48.162 75.6194 48.316 75.3114 48.624C75.0127 48.932 74.8634 49.3193 74.8634 49.786V53.51C74.8634 53.6593 74.8214 53.7807 74.7374 53.874C74.6534 53.958 74.5321 54 74.3734 54H73.8694C73.7201 54 73.5987 53.958 73.5054 53.874C73.4214 53.7807 73.3794 53.6593 73.3794 53.51V47.588C73.3794 47.4293 73.4214 47.308 73.5054 47.224C73.5987 47.14 73.7201 47.098 73.8694 47.098H74.2754C74.4341 47.098 74.5554 47.14 74.6394 47.224C74.7234 47.308 74.7654 47.4293 74.7654 47.588V47.952C74.9894 47.6067 75.2834 47.3453 75.6474 47.168C76.0114 46.9813 76.4267 46.888 76.8934 46.888ZM84.101 54.21C83.4197 54.21 82.8177 54.0607 82.295 53.762C81.7817 53.4633 81.3803 53.0387 81.091 52.488C80.811 51.928 80.671 51.2793 80.671 50.542C80.671 49.8047 80.8157 49.1607 81.105 48.61C81.3943 48.0593 81.8003 47.6347 82.323 47.336C82.8457 47.0373 83.4477 46.888 84.129 46.888C84.6237 46.888 85.067 46.9627 85.459 47.112C85.8603 47.252 86.243 47.4947 86.607 47.84C86.719 47.952 86.775 48.0687 86.775 48.19C86.775 48.302 86.7143 48.4187 86.593 48.54L86.355 48.778C86.2523 48.8807 86.1403 48.932 86.019 48.932C85.8977 48.932 85.7717 48.876 85.641 48.764C85.3703 48.5307 85.1137 48.372 84.871 48.288C84.6377 48.1947 84.3857 48.148 84.115 48.148C83.499 48.148 83.023 48.3767 82.687 48.834C82.351 49.2913 82.183 49.8607 82.183 50.542C82.183 51.2233 82.351 51.7973 82.687 52.264C83.023 52.7213 83.499 52.95 84.115 52.95C84.4137 52.95 84.689 52.894 84.941 52.782C85.193 52.6607 85.4637 52.46 85.753 52.18C85.8743 52.0587 86.0003 51.998 86.131 51.998C86.243 51.998 86.3503 52.0447 86.453 52.138L86.691 52.334C86.8123 52.4367 86.873 52.5533 86.873 52.684C86.873 52.824 86.803 52.9733 86.663 53.132C86.2803 53.524 85.8837 53.804 85.473 53.972C85.0717 54.1307 84.6143 54.21 84.101 54.21ZM92.9093 52.236C93.0306 52.1333 93.1473 52.082 93.2593 52.082C93.3713 52.082 93.4879 52.1427 93.6093 52.264L93.8053 52.474C93.9079 52.5953 93.9593 52.712 93.9593 52.824C93.9593 52.9453 93.8986 53.062 93.7773 53.174C93.3479 53.5473 92.9186 53.8133 92.4893 53.972C92.0693 54.1307 91.6026 54.21 91.0893 54.21C90.3706 54.21 89.7453 54.0607 89.2133 53.762C88.6906 53.4633 88.2846 53.0433 87.9953 52.502C87.7153 51.9513 87.5753 51.3167 87.5753 50.598C87.5753 49.8887 87.7106 49.254 87.9813 48.694C88.2613 48.1247 88.6533 47.6813 89.1573 47.364C89.6706 47.0467 90.2679 46.888 90.9493 46.888C91.9666 46.888 92.7506 47.1913 93.3013 47.798C93.8519 48.3953 94.1273 49.2213 94.1273 50.276V50.402C94.1179 50.5513 94.0713 50.668 93.9873 50.752C93.9033 50.836 93.7819 50.878 93.6233 50.878H89.0313C89.0873 51.494 89.2879 51.998 89.6333 52.39C89.9879 52.7727 90.4826 52.964 91.1173 52.964C91.4626 52.964 91.7659 52.9127 92.0273 52.81C92.2886 52.698 92.5826 52.5067 92.9093 52.236ZM90.9213 48.064C90.4079 48.064 89.9926 48.218 89.6753 48.526C89.3673 48.8247 89.1666 49.2493 89.0733 49.8H92.6713C92.6339 49.2587 92.4659 48.834 92.1673 48.526C91.8686 48.218 91.4533 48.064 90.9213 48.064Z" fill="#1B1B1F"/>
<rect x="40" y="78" width="252" height="4" rx="2" fill="#DEDEE3"/>
<rect x="40" y="77" width="166" height="6" rx="3" fill="#0063FB"/>
<rect x="192" y="66" width="28" height="28" rx="14" fill="#0063FB"/>
</g>
<defs>
<clipPath id="clip0_5534_19031">
<path d="M0 10C0 4.47716 4.47715 0 10 0H322C327.523 0 332 4.47715 332 10V210C332 215.523 327.523 220 322 220H10C4.47716 220 0 215.523 0 210V10Z" fill="white"/>
</clipPath>
<clipPath id="clip1_5534_19031">
<rect width="110" height="22" fill="white" transform="translate(48 145)"/>
</clipPath>
</defs>
</svg>
