<svg width="464" height="250" viewBox="0 0 464 250" fill="none" xmlns="http://www.w3.org/2000/svg">
<rect width="464" height="250" rx="8" fill="white"/>
<path d="M81.568 94C81.4187 94 81.2973 93.958 81.204 93.874C81.12 93.7807 81.078 93.6593 81.078 93.51V84.55C81.078 84.3913 81.12 84.27 81.204 84.186C81.2973 84.102 81.4187 84.06 81.568 84.06H82.184C82.3427 84.06 82.464 84.102 82.548 84.186C82.632 84.27 82.674 84.3913 82.674 84.55V92.642H86.72C86.8787 92.642 87 92.684 87.084 92.768C87.168 92.852 87.21 92.9733 87.21 93.132V93.51C87.21 93.6593 87.168 93.7807 87.084 93.874C87 93.958 86.8787 94 86.72 94H81.568ZM91.5043 86.888C92.4376 86.888 93.1563 87.1073 93.6603 87.546C94.1643 87.9753 94.4163 88.5493 94.4163 89.268V93.51C94.4163 93.6593 94.3743 93.7807 94.2903 93.874C94.2063 93.958 94.0849 94 93.9263 94H93.5623C93.4129 94 93.2916 93.958 93.1983 93.874C93.1143 93.7807 93.0723 93.6593 93.0723 93.51V93.202C92.8483 93.5287 92.5403 93.7807 92.1483 93.958C91.7563 94.1353 91.2989 94.224 90.7763 94.224C90.0576 94.224 89.4649 94.0653 88.9983 93.748C88.5409 93.4213 88.3123 92.9313 88.3123 92.278C88.3123 91.55 88.5829 91.0133 89.1243 90.668C89.6749 90.3133 90.4356 90.0473 91.4063 89.87L92.9883 89.576V89.324C92.9883 88.9413 92.8529 88.6473 92.5823 88.442C92.3209 88.2273 91.9709 88.12 91.5323 88.12C91.1589 88.12 90.8323 88.1853 90.5523 88.316C90.2816 88.4373 89.9876 88.6427 89.6703 88.932C89.5489 89.0347 89.4323 89.086 89.3203 89.086C89.2083 89.086 89.0916 89.0347 88.9703 88.932L88.7463 88.736C88.6249 88.624 88.5643 88.5027 88.5643 88.372C88.5643 88.2507 88.6203 88.134 88.7323 88.022C89.1336 87.6393 89.5583 87.3547 90.0063 87.168C90.4543 86.9813 90.9536 86.888 91.5043 86.888ZM90.9863 93.034C91.5463 93.034 92.0176 92.8847 92.4003 92.586C92.7923 92.2873 92.9883 91.858 92.9883 91.298V90.654L91.7703 90.906C91.0889 91.046 90.5849 91.2047 90.2583 91.382C89.9316 91.5593 89.7683 91.83 89.7683 92.194C89.7683 92.4553 89.8756 92.6607 90.0903 92.81C90.3049 92.9593 90.6036 93.034 90.9863 93.034ZM99.7798 86.916C100.368 86.916 100.89 87.0653 101.348 87.364C101.814 87.6627 102.178 88.0873 102.44 88.638C102.701 89.1887 102.832 89.8233 102.832 90.542C102.832 91.27 102.701 91.9093 102.44 92.46C102.178 93.0107 101.814 93.4353 101.348 93.734C100.881 94.0327 100.358 94.182 99.7798 94.182C98.7438 94.182 97.9831 93.7947 97.4978 93.02V93.51C97.4978 93.6593 97.4558 93.7807 97.3718 93.874C97.2878 93.958 97.1665 94 97.0078 94H96.6018C96.4525 94 96.3311 93.958 96.2378 93.874C96.1538 93.7807 96.1118 93.6593 96.1118 93.51V84.55C96.1118 84.3913 96.1538 84.27 96.2378 84.186C96.3311 84.102 96.4525 84.06 96.6018 84.06H97.1058C97.2645 84.06 97.3858 84.102 97.4698 84.186C97.5538 84.27 97.5958 84.3913 97.5958 84.55V87.966C98.0905 87.266 98.8185 86.916 99.7798 86.916ZM99.4718 92.894C100.032 92.894 100.48 92.684 100.816 92.264C101.152 91.8347 101.32 91.2607 101.32 90.542C101.32 89.8327 101.152 89.2633 100.816 88.834C100.489 88.4047 100.046 88.19 99.4858 88.19C98.9165 88.19 98.4498 88.4047 98.0858 88.834C97.7218 89.254 97.5398 89.8233 97.5398 90.542C97.5398 91.2793 97.7218 91.858 98.0858 92.278C98.4498 92.6887 98.9118 92.894 99.4718 92.894ZM109.202 92.236C109.324 92.1333 109.44 92.082 109.552 92.082C109.664 92.082 109.781 92.1427 109.902 92.264L110.098 92.474C110.201 92.5953 110.252 92.712 110.252 92.824C110.252 92.9453 110.192 93.062 110.07 93.174C109.641 93.5473 109.212 93.8133 108.782 93.972C108.362 94.1307 107.896 94.21 107.382 94.21C106.664 94.21 106.038 94.0607 105.506 93.762C104.984 93.4633 104.578 93.0433 104.288 92.502C104.008 91.9513 103.868 91.3167 103.868 90.598C103.868 89.8887 104.004 89.254 104.274 88.694C104.554 88.1247 104.946 87.6813 105.45 87.364C105.964 87.0467 106.561 86.888 107.242 86.888C108.26 86.888 109.044 87.1913 109.594 87.798C110.145 88.3953 110.42 89.2213 110.42 90.276V90.402C110.411 90.5513 110.364 90.668 110.28 90.752C110.196 90.836 110.075 90.878 109.916 90.878H105.324C105.38 91.494 105.581 91.998 105.926 92.39C106.281 92.7727 106.776 92.964 107.41 92.964C107.756 92.964 108.059 92.9127 108.32 92.81C108.582 92.698 108.876 92.5067 109.202 92.236ZM107.214 88.064C106.701 88.064 106.286 88.218 105.968 88.526C105.66 88.8247 105.46 89.2493 105.366 89.8H108.964C108.927 89.2587 108.759 88.834 108.46 88.526C108.162 88.218 107.746 88.064 107.214 88.064ZM112.326 94C112.176 94 112.055 93.958 111.962 93.874C111.878 93.7807 111.836 93.6593 111.836 93.51V84.55C111.836 84.3913 111.878 84.27 111.962 84.186C112.055 84.102 112.176 84.06 112.326 84.06H112.83C112.988 84.06 113.11 84.102 113.194 84.186C113.278 84.27 113.32 84.3913 113.32 84.55V93.51C113.32 93.6593 113.278 93.7807 113.194 93.874C113.11 93.958 112.988 94 112.83 94H112.326Z" fill="#1B1B1F"/>
<path d="M123.512 94.18C122.704 94.18 122 93.992 121.4 93.616C120.8 93.232 120.34 92.704 120.02 92.032C119.7 91.36 119.54 90.596 119.54 89.74C119.54 88.884 119.7 88.12 120.02 87.448C120.34 86.776 120.8 86.252 121.4 85.876C122 85.492 122.704 85.3 123.512 85.3C124.32 85.3 125.024 85.492 125.624 85.876C126.224 86.252 126.684 86.776 127.004 87.448C127.324 88.12 127.484 88.884 127.484 89.74C127.484 90.596 127.324 91.36 127.004 92.032C126.684 92.704 126.224 93.232 125.624 93.616C125.024 93.992 124.32 94.18 123.512 94.18ZM123.512 93.448C124.128 93.448 124.672 93.292 125.144 92.98C125.616 92.66 125.98 92.22 126.236 91.66C126.5 91.092 126.632 90.452 126.632 89.74C126.632 89.028 126.5 88.392 126.236 87.832C125.98 87.264 125.616 86.824 125.144 86.512C124.672 86.192 124.128 86.032 123.512 86.032C122.896 86.032 122.352 86.192 121.88 86.512C121.408 86.824 121.04 87.264 120.776 87.832C120.52 88.392 120.392 89.028 120.392 89.74C120.392 90.452 120.52 91.092 120.776 91.66C121.04 92.22 121.408 92.66 121.88 92.98C122.352 93.292 122.896 93.448 123.512 93.448ZM131.732 87.952C132.228 87.952 132.672 88.084 133.064 88.348C133.464 88.604 133.776 88.968 134 89.44C134.224 89.904 134.336 90.436 134.336 91.036C134.336 91.644 134.224 92.184 134 92.656C133.776 93.128 133.468 93.496 133.076 93.76C132.684 94.016 132.236 94.144 131.732 94.144C130.804 94.144 130.124 93.804 129.692 93.124V95.968C129.692 96.128 129.612 96.208 129.452 96.208H129.14C128.98 96.208 128.9 96.128 128.9 95.968V88.324C128.9 88.164 128.98 88.084 129.14 88.084H129.404C129.564 88.084 129.644 88.164 129.644 88.324V89.08C129.86 88.712 130.144 88.432 130.496 88.24C130.848 88.048 131.26 87.952 131.732 87.952ZM131.672 93.472C132.232 93.472 132.68 93.248 133.016 92.8C133.352 92.352 133.52 91.764 133.52 91.036C133.52 90.316 133.352 89.736 133.016 89.296C132.68 88.848 132.232 88.624 131.672 88.624C131.072 88.624 130.584 88.84 130.208 89.272C129.84 89.696 129.656 90.284 129.656 91.036C129.656 91.788 129.844 92.384 130.22 92.824C130.596 93.256 131.08 93.472 131.672 93.472ZM138.232 93.34C138.256 93.332 138.288 93.328 138.328 93.328C138.376 93.328 138.42 93.344 138.46 93.376C138.5 93.408 138.524 93.452 138.532 93.508L138.568 93.676C138.576 93.692 138.58 93.72 138.58 93.76C138.58 93.872 138.52 93.94 138.4 93.964C138.112 94.052 137.804 94.096 137.476 94.096C136.956 94.096 136.584 93.98 136.36 93.748C136.144 93.508 136.036 93.164 136.036 92.716V88.684H135.148C134.988 88.684 134.908 88.604 134.908 88.444V88.324C134.908 88.164 134.988 88.084 135.148 88.084H136.036V86.26C136.036 86.1 136.116 86.02 136.276 86.02H136.588C136.748 86.02 136.828 86.1 136.828 86.26V88.084H138.268C138.428 88.084 138.508 88.164 138.508 88.324V88.444C138.508 88.604 138.428 88.684 138.268 88.684H136.828V92.62C136.828 92.916 136.884 93.124 136.996 93.244C137.108 93.364 137.3 93.424 137.572 93.424C137.764 93.424 137.984 93.396 138.232 93.34ZM140.112 86.584C139.952 86.584 139.816 86.528 139.704 86.416C139.6 86.304 139.548 86.168 139.548 86.008C139.548 85.848 139.6 85.716 139.704 85.612C139.816 85.508 139.952 85.456 140.112 85.456C140.28 85.456 140.416 85.508 140.52 85.612C140.632 85.716 140.688 85.848 140.688 86.008C140.688 86.168 140.632 86.304 140.52 86.416C140.416 86.528 140.28 86.584 140.112 86.584ZM139.956 94C139.796 94 139.716 93.92 139.716 93.76V88.324C139.716 88.164 139.796 88.084 139.956 88.084H140.268C140.428 88.084 140.508 88.164 140.508 88.324V93.76C140.508 93.92 140.428 94 140.268 94H139.956ZM144.719 94.156C144.167 94.156 143.675 94.024 143.243 93.76C142.811 93.496 142.475 93.132 142.235 92.668C141.995 92.196 141.875 91.656 141.875 91.048C141.875 90.44 141.995 89.904 142.235 89.44C142.475 88.968 142.811 88.6 143.243 88.336C143.675 88.072 144.167 87.94 144.719 87.94C145.271 87.94 145.763 88.072 146.195 88.336C146.627 88.6 146.963 88.968 147.203 89.44C147.443 89.904 147.563 90.44 147.563 91.048C147.563 91.656 147.443 92.196 147.203 92.668C146.963 93.132 146.627 93.496 146.195 93.76C145.763 94.024 145.271 94.156 144.719 94.156ZM144.719 93.496C145.335 93.496 145.827 93.272 146.195 92.824C146.563 92.368 146.747 91.776 146.747 91.048C146.747 90.32 146.563 89.732 146.195 89.284C145.827 88.828 145.335 88.6 144.719 88.6C144.103 88.6 143.611 88.828 143.243 89.284C142.875 89.732 142.691 90.32 142.691 91.048C142.691 91.776 142.875 92.368 143.243 92.824C143.611 93.272 144.103 93.496 144.719 93.496ZM151.579 87.94C152.275 87.94 152.799 88.132 153.151 88.516C153.511 88.9 153.691 89.38 153.691 89.956V93.76C153.691 93.92 153.611 94 153.451 94H153.139C152.979 94 152.899 93.92 152.899 93.76V90.22C152.899 89.692 152.771 89.292 152.515 89.02C152.259 88.748 151.891 88.612 151.411 88.612C151.107 88.612 150.827 88.688 150.571 88.84C150.315 88.984 150.111 89.184 149.959 89.44C149.807 89.696 149.731 89.976 149.731 90.28V93.76C149.731 93.92 149.651 94 149.491 94H149.179C149.019 94 148.939 93.92 148.939 93.76V88.324C148.939 88.164 149.019 88.084 149.179 88.084H149.443C149.603 88.084 149.683 88.164 149.683 88.324V88.9C149.883 88.58 150.147 88.34 150.475 88.18C150.803 88.02 151.171 87.94 151.579 87.94ZM157.723 87.94C158.451 87.94 159.019 88.116 159.427 88.468C159.835 88.812 160.039 89.268 160.039 89.836V93.76C160.039 93.92 159.959 94 159.799 94H159.559C159.399 94 159.319 93.92 159.319 93.76V93.22C159.119 93.54 158.835 93.78 158.467 93.94C158.107 94.1 157.703 94.18 157.255 94.18C156.631 94.18 156.123 94.048 155.731 93.784C155.339 93.52 155.143 93.112 155.143 92.56C155.143 92.12 155.267 91.768 155.515 91.504C155.763 91.232 156.087 91.028 156.487 90.892C156.887 90.748 157.387 90.62 157.987 90.508L159.283 90.28V89.896C159.283 89.488 159.143 89.172 158.863 88.948C158.583 88.716 158.215 88.6 157.759 88.6C157.415 88.6 157.103 88.664 156.823 88.792C156.543 88.92 156.243 89.14 155.923 89.452C155.867 89.508 155.807 89.536 155.743 89.536C155.687 89.536 155.635 89.512 155.587 89.464L155.431 89.32C155.375 89.264 155.347 89.204 155.347 89.14C155.347 89.068 155.375 89.004 155.431 88.948C155.767 88.596 156.119 88.34 156.487 88.18C156.863 88.02 157.275 87.94 157.723 87.94ZM157.291 93.52C157.867 93.52 158.343 93.368 158.719 93.064C159.095 92.76 159.283 92.372 159.283 91.9V90.892L158.167 91.108C157.647 91.212 157.235 91.312 156.931 91.408C156.627 91.504 156.383 91.644 156.199 91.828C156.015 92.012 155.923 92.252 155.923 92.548C155.923 92.852 156.043 93.092 156.283 93.268C156.531 93.436 156.867 93.52 157.291 93.52ZM162.046 94C161.886 94 161.806 93.92 161.806 93.76V85.72C161.806 85.56 161.886 85.48 162.046 85.48H162.358C162.518 85.48 162.598 85.56 162.598 85.72V93.76C162.598 93.92 162.518 94 162.358 94H162.046Z" fill="#5C5C66"/>
<path d="M176 86.5L176 86M176 88.5L176 92M182 89C182 92.3137 179.314 95 176 95C172.686 95 170 92.3137 170 89C170 85.6863 172.686 83 176 83C179.314 83 182 85.6863 182 89Z" stroke="#1B1B1F" stroke-linecap="round" stroke-linejoin="round"/>
<rect x="80.5" y="102.5" width="303" height="47" rx="3.5" fill="white"/>
<rect x="80.5" y="102.5" width="303" height="47" rx="3.5" stroke="#84848F"/>
<g clip-path="url(#clip0_4508_23794)">
<path d="M98.5356 128.536L102 132M100 125C100 127.761 97.7614 130 95 130C92.2386 130 90 127.761 90 125C90 122.239 92.2386 120 95 120C97.7614 120 100 122.239 100 125Z" stroke="#1B1B1F" stroke-linecap="round" stroke-linejoin="round"/>
<path d="M113.696 131C113.483 131 113.376 130.893 113.376 130.68V119.96C113.376 119.747 113.483 119.64 113.696 119.64H118C119.099 119.64 119.984 119.928 120.656 120.504C121.328 121.08 121.664 121.896 121.664 122.952C121.664 124.008 121.328 124.829 120.656 125.416C119.984 125.992 119.099 126.28 118 126.28H114.512V130.68C114.512 130.893 114.405 131 114.192 131H113.696ZM117.856 125.336C118.688 125.336 119.344 125.133 119.824 124.728C120.304 124.323 120.544 123.731 120.544 122.952C120.544 122.184 120.304 121.597 119.824 121.192C119.344 120.787 118.688 120.584 117.856 120.584H114.512V125.336H117.856ZM123.708 131C123.494 131 123.388 130.893 123.388 130.68V119.96C123.388 119.747 123.494 119.64 123.708 119.64H124.124C124.337 119.64 124.444 119.747 124.444 119.96V130.68C124.444 130.893 124.337 131 124.124 131H123.708ZM129.865 122.92C130.835 122.92 131.593 123.155 132.137 123.624C132.681 124.083 132.953 124.691 132.953 125.448V130.68C132.953 130.893 132.846 131 132.633 131H132.313C132.099 131 131.993 130.893 131.993 130.68V129.96C131.726 130.387 131.347 130.707 130.857 130.92C130.377 131.133 129.838 131.24 129.241 131.24C128.409 131.24 127.731 131.064 127.209 130.712C126.686 130.36 126.425 129.816 126.425 129.08C126.425 128.493 126.59 128.024 126.921 127.672C127.251 127.309 127.683 127.037 128.217 126.856C128.75 126.664 129.417 126.493 130.217 126.344L131.945 126.04V125.528C131.945 124.984 131.758 124.563 131.385 124.264C131.011 123.955 130.521 123.8 129.913 123.8C129.454 123.8 129.038 123.885 128.665 124.056C128.291 124.227 127.891 124.52 127.465 124.936C127.39 125.011 127.31 125.048 127.225 125.048C127.15 125.048 127.081 125.016 127.017 124.952L126.809 124.76C126.734 124.685 126.697 124.605 126.697 124.52C126.697 124.424 126.734 124.339 126.809 124.264C127.257 123.795 127.726 123.453 128.217 123.24C128.718 123.027 129.267 122.92 129.865 122.92ZM129.289 130.36C130.057 130.36 130.691 130.157 131.193 129.752C131.694 129.347 131.945 128.829 131.945 128.2V126.856L130.457 127.144C129.763 127.283 129.214 127.416 128.809 127.544C128.403 127.672 128.078 127.859 127.833 128.104C127.587 128.349 127.465 128.669 127.465 129.064C127.465 129.469 127.625 129.789 127.945 130.024C128.275 130.248 128.723 130.36 129.289 130.36ZM138.493 131.208C137.736 131.208 137.075 131.037 136.509 130.696C135.955 130.344 135.523 129.859 135.213 129.24C134.915 128.611 134.765 127.885 134.765 127.064C134.765 126.253 134.915 125.533 135.213 124.904C135.523 124.275 135.955 123.789 136.509 123.448C137.075 123.096 137.725 122.92 138.461 122.92C139.059 122.92 139.581 123.021 140.029 123.224C140.477 123.416 140.909 123.736 141.325 124.184C141.389 124.248 141.421 124.317 141.421 124.392C141.421 124.488 141.379 124.568 141.293 124.632L141.069 124.84C141.005 124.904 140.931 124.936 140.845 124.936C140.771 124.936 140.691 124.893 140.605 124.808C140.232 124.435 139.875 124.173 139.533 124.024C139.203 123.875 138.835 123.8 138.429 123.8C137.875 123.8 137.4 123.955 137.005 124.264C136.621 124.573 136.333 124.979 136.141 125.48C135.949 125.971 135.853 126.499 135.853 127.064C135.853 127.629 135.949 128.163 136.141 128.664C136.333 129.155 136.627 129.555 137.021 129.864C137.416 130.163 137.901 130.312 138.477 130.312C138.904 130.312 139.277 130.237 139.597 130.088C139.928 129.928 140.296 129.629 140.701 129.192C140.787 129.107 140.867 129.064 140.941 129.064C141.027 129.064 141.101 129.096 141.165 129.16L141.389 129.336C141.464 129.4 141.501 129.475 141.501 129.56C141.501 129.645 141.453 129.747 141.357 129.864C140.909 130.355 140.461 130.701 140.013 130.904C139.565 131.107 139.059 131.208 138.493 131.208ZM148.803 129.128C148.878 129.053 148.958 129.016 149.043 129.016C149.118 129.016 149.187 129.048 149.251 129.112L149.459 129.304C149.534 129.379 149.571 129.459 149.571 129.544C149.571 129.608 149.539 129.683 149.475 129.768C148.952 130.291 148.446 130.664 147.955 130.888C147.464 131.101 146.915 131.208 146.307 131.208C145.539 131.208 144.872 131.037 144.307 130.696C143.742 130.355 143.304 129.88 142.995 129.272C142.686 128.653 142.531 127.939 142.531 127.128C142.531 126.307 142.68 125.581 142.979 124.952C143.288 124.312 143.72 123.816 144.275 123.464C144.83 123.101 145.47 122.92 146.195 122.92C147.272 122.92 148.12 123.256 148.739 123.928C149.358 124.6 149.667 125.507 149.667 126.648V126.84C149.656 126.936 149.619 127.011 149.555 127.064C149.502 127.117 149.427 127.144 149.331 127.144H143.603C143.635 128.04 143.87 128.797 144.307 129.416C144.755 130.024 145.422 130.328 146.307 130.328C146.787 130.328 147.208 130.243 147.571 130.072C147.944 129.891 148.355 129.576 148.803 129.128ZM146.195 123.8C145.491 123.8 144.91 124.019 144.451 124.456C144.003 124.883 143.731 125.512 143.635 126.344H148.611C148.59 125.565 148.366 124.947 147.939 124.488C147.512 124.029 146.931 123.8 146.195 123.8ZM155.079 122.92C155.996 122.92 156.695 123.181 157.175 123.704C157.655 124.216 157.895 124.851 157.895 125.608V130.68C157.895 130.893 157.788 131 157.575 131H157.159C156.946 131 156.839 130.893 156.839 130.68V125.96C156.839 125.256 156.668 124.723 156.327 124.36C155.986 123.997 155.495 123.816 154.855 123.816C154.45 123.816 154.076 123.917 153.735 124.12C153.394 124.312 153.122 124.579 152.919 124.92C152.716 125.261 152.615 125.635 152.615 126.04V130.68C152.615 130.893 152.508 131 152.295 131H151.879C151.666 131 151.559 130.893 151.559 130.68V119.96C151.559 119.747 151.666 119.64 151.879 119.64H152.295C152.508 119.64 152.615 119.747 152.615 119.96V124.136C152.871 123.731 153.212 123.427 153.639 123.224C154.076 123.021 154.556 122.92 155.079 122.92ZM163.495 131.208C162.759 131.208 162.103 131.032 161.527 130.68C160.951 130.328 160.503 129.843 160.183 129.224C159.863 128.595 159.703 127.875 159.703 127.064C159.703 126.253 159.863 125.539 160.183 124.92C160.503 124.291 160.951 123.8 161.527 123.448C162.103 123.096 162.759 122.92 163.495 122.92C164.231 122.92 164.887 123.096 165.463 123.448C166.039 123.8 166.487 124.291 166.807 124.92C167.127 125.539 167.287 126.253 167.287 127.064C167.287 127.875 167.127 128.595 166.807 129.224C166.487 129.843 166.039 130.328 165.463 130.68C164.887 131.032 164.231 131.208 163.495 131.208ZM163.495 130.328C164.316 130.328 164.972 130.029 165.463 129.432C165.954 128.824 166.199 128.035 166.199 127.064C166.199 126.093 165.954 125.309 165.463 124.712C164.972 124.104 164.316 123.8 163.495 123.8C162.674 123.8 162.018 124.104 161.527 124.712C161.036 125.309 160.791 126.093 160.791 127.064C160.791 128.035 161.036 128.824 161.527 129.432C162.018 130.029 162.674 130.328 163.495 130.328ZM169.458 131C169.244 131 169.138 130.893 169.138 130.68V119.96C169.138 119.747 169.244 119.64 169.458 119.64H169.874C170.087 119.64 170.194 119.747 170.194 119.96V130.68C170.194 130.893 170.087 131 169.874 131H169.458ZM178.271 119.96C178.271 119.747 178.377 119.64 178.591 119.64H179.007C179.22 119.64 179.327 119.747 179.327 119.96V130.68C179.327 130.893 179.22 131 179.007 131H178.671C178.457 131 178.351 130.893 178.351 130.68V129.64C178.063 130.141 177.684 130.525 177.215 130.792C176.745 131.059 176.191 131.192 175.551 131.192C174.879 131.192 174.281 131.021 173.759 130.68C173.236 130.328 172.825 129.843 172.527 129.224C172.228 128.595 172.079 127.875 172.079 127.064C172.079 126.253 172.228 125.539 172.527 124.92C172.836 124.291 173.257 123.805 173.791 123.464C174.324 123.112 174.921 122.936 175.583 122.936C176.799 122.936 177.695 123.389 178.271 124.296V119.96ZM175.631 130.296C176.431 130.296 177.076 130.013 177.567 129.448C178.068 128.872 178.319 128.077 178.319 127.064C178.319 126.061 178.068 125.272 177.567 124.696C177.076 124.12 176.431 123.832 175.631 123.832C174.895 123.832 174.297 124.131 173.839 124.728C173.391 125.325 173.167 126.104 173.167 127.064C173.167 128.035 173.391 128.819 173.839 129.416C174.287 130.003 174.884 130.296 175.631 130.296ZM187.444 129.128C187.518 129.053 187.598 129.016 187.684 129.016C187.758 129.016 187.828 129.048 187.892 129.112L188.1 129.304C188.174 129.379 188.212 129.459 188.212 129.544C188.212 129.608 188.18 129.683 188.116 129.768C187.593 130.291 187.086 130.664 186.596 130.888C186.105 131.101 185.556 131.208 184.948 131.208C184.18 131.208 183.513 131.037 182.948 130.696C182.382 130.355 181.945 129.88 181.636 129.272C181.326 128.653 181.172 127.939 181.172 127.128C181.172 126.307 181.321 125.581 181.62 124.952C181.929 124.312 182.361 123.816 182.916 123.464C183.47 123.101 184.11 122.92 184.836 122.92C185.913 122.92 186.761 123.256 187.38 123.928C187.998 124.6 188.308 125.507 188.308 126.648V126.84C188.297 126.936 188.26 127.011 188.196 127.064C188.142 127.117 188.068 127.144 187.972 127.144H182.244C182.276 128.04 182.51 128.797 182.948 129.416C183.396 130.024 184.062 130.328 184.948 130.328C185.428 130.328 185.849 130.243 186.212 130.072C186.585 129.891 186.996 129.576 187.444 129.128ZM184.836 123.8C184.132 123.8 183.55 124.019 183.092 124.456C182.644 124.883 182.372 125.512 182.276 126.344H187.252C187.23 125.565 187.006 124.947 186.58 124.488C186.153 124.029 185.572 123.8 184.836 123.8ZM193.144 123.048C193.41 123.048 193.725 123.091 194.088 123.176C194.28 123.24 194.354 123.373 194.312 123.576L194.248 123.832C194.194 124.035 194.061 124.109 193.848 124.056C193.592 123.992 193.357 123.96 193.144 123.96C192.6 123.96 192.146 124.195 191.784 124.664C191.432 125.133 191.256 125.784 191.256 126.616V130.68C191.256 130.893 191.149 131 190.936 131H190.52C190.306 131 190.2 130.893 190.2 130.68V123.432C190.2 123.219 190.306 123.112 190.52 123.112H190.872C191.085 123.112 191.192 123.219 191.192 123.432V124.312C191.373 123.917 191.629 123.608 191.96 123.384C192.301 123.16 192.696 123.048 193.144 123.048Z" fill="#CACAD1"/>
<rect width="24" height="16" transform="translate(352 118)" fill="white"/>
<path d="M372.5 121.5L363.5 130.5M372.5 130.5L363.5 121.5" stroke="#1B1B1F" stroke-linecap="round" stroke-linejoin="round"/>
</g>
<path d="M81.272 166C81.112 166 81.032 165.92 81.032 165.76V157.72C81.032 157.56 81.112 157.48 81.272 157.48H81.644C81.804 157.48 81.884 157.56 81.884 157.72V161.248H86.804V157.72C86.804 157.56 86.884 157.48 87.044 157.48H87.416C87.576 157.48 87.656 157.56 87.656 157.72V165.76C87.656 165.92 87.576 166 87.416 166H87.044C86.884 166 86.804 165.92 86.804 165.76V161.956H81.884V165.76C81.884 165.92 81.804 166 81.644 166H81.272ZM93.8796 164.596C93.9356 164.54 93.9956 164.512 94.0596 164.512C94.1156 164.512 94.1676 164.536 94.2156 164.584L94.3716 164.728C94.4276 164.784 94.4556 164.844 94.4556 164.908C94.4556 164.956 94.4316 165.012 94.3836 165.076C93.9916 165.468 93.6116 165.748 93.2436 165.916C92.8756 166.076 92.4636 166.156 92.0076 166.156C91.4316 166.156 90.9316 166.028 90.5076 165.772C90.0836 165.516 89.7556 165.16 89.5236 164.704C89.2916 164.24 89.1756 163.704 89.1756 163.096C89.1756 162.48 89.2876 161.936 89.5116 161.464C89.7436 160.984 90.0676 160.612 90.4836 160.348C90.8996 160.076 91.3796 159.94 91.9236 159.94C92.7316 159.94 93.3676 160.192 93.8316 160.696C94.2956 161.2 94.5276 161.88 94.5276 162.736V162.88C94.5196 162.952 94.4916 163.008 94.4436 163.048C94.4036 163.088 94.3476 163.108 94.2756 163.108H89.9796C90.0036 163.78 90.1796 164.348 90.5076 164.812C90.8436 165.268 91.3436 165.496 92.0076 165.496C92.3676 165.496 92.6836 165.432 92.9556 165.304C93.2356 165.168 93.5436 164.932 93.8796 164.596ZM91.9236 160.6C91.3956 160.6 90.9596 160.764 90.6156 161.092C90.2796 161.412 90.0756 161.884 90.0036 162.508H93.7356C93.7196 161.924 93.5516 161.46 93.2316 161.116C92.9116 160.772 92.4756 160.6 91.9236 160.6ZM96.1986 166C96.0386 166 95.9586 165.92 95.9586 165.76V157.72C95.9586 157.56 96.0386 157.48 96.1986 157.48H96.5106C96.6706 157.48 96.7506 157.56 96.7506 157.72V165.76C96.7506 165.92 96.6706 166 96.5106 166H96.1986ZM101.368 159.952C101.864 159.952 102.308 160.084 102.7 160.348C103.1 160.604 103.412 160.968 103.636 161.44C103.86 161.904 103.972 162.436 103.972 163.036C103.972 163.644 103.86 164.184 103.636 164.656C103.412 165.128 103.104 165.496 102.712 165.76C102.32 166.016 101.872 166.144 101.368 166.144C100.44 166.144 99.7604 165.804 99.3284 165.124V167.968C99.3284 168.128 99.2484 168.208 99.0884 168.208H98.7764C98.6164 168.208 98.5364 168.128 98.5364 167.968V160.324C98.5364 160.164 98.6164 160.084 98.7764 160.084H99.0404C99.2004 160.084 99.2804 160.164 99.2804 160.324V161.08C99.4964 160.712 99.7804 160.432 100.132 160.24C100.484 160.048 100.896 159.952 101.368 159.952ZM101.308 165.472C101.868 165.472 102.316 165.248 102.652 164.8C102.988 164.352 103.156 163.764 103.156 163.036C103.156 162.316 102.988 161.736 102.652 161.296C102.316 160.848 101.868 160.624 101.308 160.624C100.708 160.624 100.22 160.84 99.8444 161.272C99.4764 161.696 99.2924 162.284 99.2924 163.036C99.2924 163.788 99.4804 164.384 99.8564 164.824C100.232 165.256 100.716 165.472 101.308 165.472ZM110.81 165.34C110.834 165.332 110.866 165.328 110.906 165.328C110.954 165.328 110.998 165.344 111.038 165.376C111.078 165.408 111.102 165.452 111.11 165.508L111.146 165.676C111.154 165.692 111.158 165.72 111.158 165.76C111.158 165.872 111.098 165.94 110.978 165.964C110.69 166.052 110.382 166.096 110.054 166.096C109.534 166.096 109.162 165.98 108.938 165.748C108.722 165.508 108.614 165.164 108.614 164.716V160.684H107.726C107.566 160.684 107.486 160.604 107.486 160.444V160.324C107.486 160.164 107.566 160.084 107.726 160.084H108.614V158.26C108.614 158.1 108.694 158.02 108.854 158.02H109.166C109.326 158.02 109.406 158.1 109.406 158.26V160.084H110.846C111.006 160.084 111.086 160.164 111.086 160.324V160.444C111.086 160.604 111.006 160.684 110.846 160.684H109.406V164.62C109.406 164.916 109.462 165.124 109.574 165.244C109.686 165.364 109.878 165.424 110.15 165.424C110.342 165.424 110.562 165.396 110.81 165.34ZM116.38 164.596C116.436 164.54 116.496 164.512 116.56 164.512C116.616 164.512 116.668 164.536 116.716 164.584L116.872 164.728C116.928 164.784 116.956 164.844 116.956 164.908C116.956 164.956 116.932 165.012 116.884 165.076C116.492 165.468 116.112 165.748 115.744 165.916C115.376 166.076 114.964 166.156 114.508 166.156C113.932 166.156 113.432 166.028 113.008 165.772C112.584 165.516 112.256 165.16 112.024 164.704C111.792 164.24 111.676 163.704 111.676 163.096C111.676 162.48 111.788 161.936 112.012 161.464C112.244 160.984 112.568 160.612 112.984 160.348C113.4 160.076 113.88 159.94 114.424 159.94C115.232 159.94 115.868 160.192 116.332 160.696C116.796 161.2 117.028 161.88 117.028 162.736V162.88C117.02 162.952 116.992 163.008 116.944 163.048C116.904 163.088 116.848 163.108 116.776 163.108H112.48C112.504 163.78 112.68 164.348 113.008 164.812C113.344 165.268 113.844 165.496 114.508 165.496C114.868 165.496 115.184 165.432 115.456 165.304C115.736 165.168 116.044 164.932 116.38 164.596ZM114.424 160.6C113.896 160.6 113.46 160.764 113.116 161.092C112.78 161.412 112.576 161.884 112.504 162.508H116.236C116.22 161.924 116.052 161.46 115.732 161.116C115.412 160.772 114.976 160.6 114.424 160.6ZM122.638 165.712C122.67 165.768 122.686 165.816 122.686 165.856C122.686 165.952 122.622 166 122.494 166H122.134C122.014 166 121.918 165.948 121.846 165.844L120.214 163.444L118.594 165.844C118.522 165.948 118.426 166 118.306 166H117.97C117.906 166 117.854 165.988 117.814 165.964C117.782 165.932 117.766 165.896 117.766 165.856C117.766 165.8 117.782 165.752 117.814 165.712L119.758 162.916L117.97 160.372C117.938 160.332 117.922 160.288 117.922 160.24C117.922 160.136 117.99 160.084 118.126 160.084H118.474C118.594 160.084 118.69 160.136 118.762 160.24L120.226 162.388L121.678 160.24C121.75 160.136 121.846 160.084 121.966 160.084H122.29C122.354 160.084 122.402 160.1 122.434 160.132C122.474 160.156 122.494 160.188 122.494 160.228C122.494 160.284 122.478 160.332 122.446 160.372L120.694 162.88L122.638 165.712ZM126.618 165.34C126.642 165.332 126.674 165.328 126.714 165.328C126.762 165.328 126.806 165.344 126.846 165.376C126.886 165.408 126.91 165.452 126.918 165.508L126.954 165.676C126.962 165.692 126.966 165.72 126.966 165.76C126.966 165.872 126.906 165.94 126.786 165.964C126.498 166.052 126.19 166.096 125.862 166.096C125.342 166.096 124.97 165.98 124.746 165.748C124.53 165.508 124.422 165.164 124.422 164.716V160.684H123.534C123.374 160.684 123.294 160.604 123.294 160.444V160.324C123.294 160.164 123.374 160.084 123.534 160.084H124.422V158.26C124.422 158.1 124.502 158.02 124.662 158.02H124.974C125.134 158.02 125.214 158.1 125.214 158.26V160.084H126.654C126.814 160.084 126.894 160.164 126.894 160.324V160.444C126.894 160.604 126.814 160.684 126.654 160.684H125.214V164.62C125.214 164.916 125.27 165.124 125.382 165.244C125.494 165.364 125.686 165.424 125.958 165.424C126.15 165.424 126.37 165.396 126.618 165.34Z" fill="#5C5C66"/>
<rect x="77" y="8" width="40" height="40" rx="20" fill="#BE3830"/>
<path d="M95.2898 24.04V22.878H97.9218V33H96.6338V24.04H95.2898Z" fill="white"/>
<rect width="28" height="3" transform="translate(98.5 48) rotate(90)" fill="#BE3830"/>
<rect x="120" y="8" width="41" height="40" rx="20" fill="#BE3830"/>
<path d="M137.218 25.426C137.283 24.5673 137.615 23.8953 138.212 23.41C138.809 22.9247 139.584 22.682 140.536 22.682C141.171 22.682 141.717 22.7987 142.174 23.032C142.641 23.256 142.991 23.564 143.224 23.956C143.467 24.348 143.588 24.7913 143.588 25.286C143.588 25.8647 143.42 26.364 143.084 26.784C142.757 27.204 142.328 27.4747 141.796 27.596V27.666C142.403 27.8153 142.883 28.1093 143.238 28.548C143.593 28.9867 143.77 29.5607 143.77 30.27C143.77 30.802 143.649 31.2827 143.406 31.712C143.163 32.132 142.799 32.4633 142.314 32.706C141.829 32.9487 141.245 33.07 140.564 33.07C139.575 33.07 138.763 32.8133 138.128 32.3C137.493 31.7773 137.139 31.04 137.064 30.088H138.296C138.361 30.648 138.59 31.1053 138.982 31.46C139.374 31.8147 139.897 31.992 140.55 31.992C141.203 31.992 141.698 31.824 142.034 31.488C142.379 31.1427 142.552 30.6993 142.552 30.158C142.552 29.458 142.319 28.954 141.852 28.646C141.385 28.338 140.681 28.184 139.738 28.184H139.416V27.12H139.752C140.611 27.1107 141.259 26.9707 141.698 26.7C142.137 26.42 142.356 25.9907 142.356 25.412C142.356 24.9173 142.193 24.5207 141.866 24.222C141.549 23.9233 141.091 23.774 140.494 23.774C139.915 23.774 139.449 23.9233 139.094 24.222C138.739 24.5207 138.529 24.922 138.464 25.426H137.218Z" fill="white"/>
<rect width="28" height="3" transform="translate(142 48) rotate(90)" fill="#BE3830"/>
<rect width="36" height="3" transform="translate(188 87.5)" fill="#BE3830"/>
<rect x="224" y="69" width="41" height="40" rx="20" fill="#BE3830"/>
<path d="M240.658 91.746V90.78L245.572 83.976H247.098V90.64H248.498V91.746H247.098V94H245.838V91.746H240.658ZM245.894 85.306L242.128 90.64H245.894V85.306Z" fill="white"/>
<rect width="35" height="3" transform="translate(381 124.5)" fill="#BE3830"/>
<rect x="416" y="106" width="40" height="40" rx="20" fill="#BE3830"/>
<path d="M439.277 121.872L435.385 131H434.097L438.045 121.998H432.641V120.906H439.277V121.872Z" fill="white"/>
<rect x="8" y="106" width="41" height="40" rx="20" fill="#BE3830"/>
<path d="M25.1876 129.978C26.373 129.026 27.3016 128.247 27.9736 127.64C28.6456 127.024 29.2103 126.385 29.6676 125.722C30.1343 125.05 30.3676 124.392 30.3676 123.748C30.3676 123.141 30.2183 122.665 29.9196 122.32C29.6303 121.965 29.159 121.788 28.5056 121.788C27.871 121.788 27.3763 121.989 27.0216 122.39C26.6763 122.782 26.4896 123.309 26.4616 123.972H25.2296C25.267 122.927 25.5843 122.119 26.1816 121.55C26.779 120.981 27.549 120.696 28.4916 120.696C29.453 120.696 30.2136 120.962 30.7736 121.494C31.343 122.026 31.6276 122.759 31.6276 123.692C31.6276 124.467 31.3943 125.223 30.9276 125.96C30.4703 126.688 29.9476 127.332 29.3596 127.892C28.7716 128.443 28.0203 129.087 27.1056 129.824H31.9216V130.888H25.1876V129.978Z" fill="white"/>
<rect width="27" height="3" transform="translate(49 124.5)" fill="#BE3830"/>
<rect width="64" height="3" transform="translate(99 138) rotate(90)" fill="#BE3830"/>
<rect x="77" y="202" width="41" height="40" rx="20" fill="#BE3830"/>
<path d="M99.5666 219.286C99.3613 218.25 98.722 217.732 97.6486 217.732C96.818 217.732 96.1973 218.054 95.7866 218.698C95.376 219.333 95.1753 220.383 95.1846 221.848C95.3993 221.363 95.754 220.985 96.2486 220.714C96.7526 220.434 97.3126 220.294 97.9286 220.294C98.89 220.294 99.6553 220.593 100.225 221.19C100.803 221.787 101.093 222.613 101.093 223.668C101.093 224.303 100.967 224.872 100.715 225.376C100.472 225.88 100.099 226.281 99.5946 226.58C99.1 226.879 98.498 227.028 97.7886 227.028C96.8273 227.028 96.076 226.813 95.5346 226.384C94.9933 225.955 94.6153 225.362 94.4006 224.606C94.186 223.85 94.0786 222.917 94.0786 221.806C94.0786 218.381 95.2733 216.668 97.6626 216.668C98.5773 216.668 99.296 216.915 99.8186 217.41C100.341 217.905 100.649 218.53 100.743 219.286H99.5666ZM97.6626 221.372C97.2613 221.372 96.8833 221.456 96.5286 221.624C96.174 221.783 95.8846 222.03 95.6606 222.366C95.446 222.693 95.3386 223.094 95.3386 223.57C95.3386 224.279 95.544 224.858 95.9546 225.306C96.3653 225.745 96.9533 225.964 97.7186 225.964C98.372 225.964 98.89 225.763 99.2726 225.362C99.6646 224.951 99.8606 224.401 99.8606 223.71C99.8606 222.982 99.674 222.413 99.3006 222.002C98.9273 221.582 98.3813 221.372 97.6626 221.372Z" fill="white"/>
<rect width="64" height="3" transform="translate(142 138) rotate(90)" fill="#BE3830"/>
<rect x="120" y="202" width="41" height="40" rx="20" fill="#BE3830"/>
<path d="M143.426 217.984H138.512V221.176C138.727 220.877 139.044 220.635 139.464 220.448C139.884 220.252 140.337 220.154 140.822 220.154C141.597 220.154 142.227 220.317 142.712 220.644C143.198 220.961 143.543 221.377 143.748 221.89C143.963 222.394 144.07 222.931 144.07 223.5C144.07 224.172 143.944 224.774 143.692 225.306C143.44 225.838 143.053 226.258 142.53 226.566C142.017 226.874 141.378 227.028 140.612 227.028C139.632 227.028 138.839 226.776 138.232 226.272C137.626 225.768 137.257 225.096 137.126 224.256H138.372C138.494 224.788 138.75 225.203 139.142 225.502C139.534 225.801 140.029 225.95 140.626 225.95C141.364 225.95 141.919 225.731 142.292 225.292C142.666 224.844 142.852 224.256 142.852 223.528C142.852 222.8 142.666 222.24 142.292 221.848C141.919 221.447 141.368 221.246 140.64 221.246C140.146 221.246 139.712 221.367 139.338 221.61C138.974 221.843 138.708 222.165 138.54 222.576H137.336V216.864H143.426V217.984Z" fill="white"/>
<defs>
<clipPath id="clip0_4508_23794">
<rect width="288" height="22" fill="white" transform="translate(88 115)"/>
</clipPath>
</defs>
</svg>
