<svg width="332" height="48" viewBox="0 0 332 48" fill="none" xmlns="http://www.w3.org/2000/svg">
<rect x="0.5" y="0.5" width="331" height="47" rx="3.5" fill="white"/>
<rect x="0.5" y="0.5" width="331" height="47" rx="3.5" stroke="#CACAD1"/>
<g clip-path="url(#clip0_28141_128941)">
<path d="M9.696 29C9.48267 29 9.376 28.8933 9.376 28.68V17.96C9.376 17.7467 9.48267 17.64 9.696 17.64H10.192C10.4053 17.64 10.512 17.7467 10.512 17.96V22.664H17.072V17.96C17.072 17.7467 17.1787 17.64 17.392 17.64H17.888C18.1013 17.64 18.208 17.7467 18.208 17.96V28.68C18.208 28.8933 18.1013 29 17.888 29H17.392C17.1787 29 17.072 28.8933 17.072 28.68V23.608H10.512V28.68C10.512 28.8933 10.4053 29 10.192 29H9.696ZM21.2901 19.112C21.0768 19.112 20.8955 19.0373 20.7461 18.888C20.6075 18.7387 20.5381 18.5573 20.5381 18.344C20.5381 18.1307 20.6075 17.9547 20.7461 17.816C20.8955 17.6773 21.0768 17.608 21.2901 17.608C21.5141 17.608 21.6955 17.6773 21.8341 17.816C21.9835 17.9547 22.0581 18.1307 22.0581 18.344C22.0581 18.5573 21.9835 18.7387 21.8341 18.888C21.6955 19.0373 21.5141 19.112 21.2901 19.112ZM21.0821 29C20.8688 29 20.7621 28.8933 20.7621 28.68V21.432C20.7621 21.2187 20.8688 21.112 21.0821 21.112H21.4981C21.7115 21.112 21.8181 21.2187 21.8181 21.432V28.68C21.8181 28.8933 21.7115 29 21.4981 29H21.0821ZM27.6884 20.92C28.6164 20.92 29.315 21.176 29.7844 21.688C30.2644 22.2 30.5044 22.84 30.5044 23.608V28.68C30.5044 28.8933 30.3977 29 30.1844 29H29.7684C29.555 29 29.4484 28.8933 29.4484 28.68V23.96C29.4484 23.256 29.2777 22.7227 28.9364 22.36C28.595 21.9973 28.1044 21.816 27.4644 21.816C27.059 21.816 26.6857 21.9173 26.3444 22.12C26.003 22.312 25.731 22.5787 25.5284 22.92C25.3257 23.2613 25.2244 23.6347 25.2244 24.04V28.68C25.2244 28.8933 25.1177 29 24.9044 29H24.4884C24.275 29 24.1684 28.8933 24.1684 28.68V21.432C24.1684 21.2187 24.275 21.112 24.4884 21.112H24.8404C25.0537 21.112 25.1604 21.2187 25.1604 21.432V22.2C25.427 21.7733 25.779 21.4533 26.2164 21.24C26.6537 21.0267 27.1444 20.92 27.6884 20.92ZM36.1735 28.12C36.2055 28.1093 36.2482 28.104 36.3015 28.104C36.3655 28.104 36.4242 28.1253 36.4775 28.168C36.5308 28.2107 36.5628 28.2693 36.5735 28.344L36.6215 28.568C36.6322 28.5893 36.6375 28.6267 36.6375 28.68C36.6375 28.8293 36.5575 28.92 36.3975 28.952C36.0135 29.0693 35.6028 29.128 35.1655 29.128C34.4722 29.128 33.9762 28.9733 33.6775 28.664C33.3895 28.344 33.2455 27.8853 33.2455 27.288V21.912H32.0615C31.8482 21.912 31.7415 21.8053 31.7415 21.592V21.432C31.7415 21.2187 31.8482 21.112 32.0615 21.112H33.2455V18.68C33.2455 18.4667 33.3522 18.36 33.5655 18.36H33.9815C34.1948 18.36 34.3015 18.4667 34.3015 18.68V21.112H36.2215C36.4348 21.112 36.5415 21.2187 36.5415 21.432V21.592C36.5415 21.8053 36.4348 21.912 36.2215 21.912H34.3015V27.16C34.3015 27.5547 34.3762 27.832 34.5255 27.992C34.6748 28.152 34.9308 28.232 35.2935 28.232C35.5495 28.232 35.8428 28.1947 36.1735 28.12Z" fill="#CACAD1"/>
</g>
<defs>
<clipPath id="clip0_28141_128941">
<rect width="316" height="22" fill="white" transform="translate(8 13)"/>
</clipPath>
</defs>
</svg>
