<svg width="332" height="128" viewBox="0 0 332 128" fill="none" xmlns="http://www.w3.org/2000/svg">
<rect width="332" height="128" fill="#F6F6F6"/>
<rect x="40.5" y="40.5" width="251" height="47" rx="3.5" fill="white"/>
<rect x="40.5" y="40.5" width="251" height="47" rx="3.5" stroke="#84848F"/>
<g clip-path="url(#clip0_4508_23658)">
<path d="M49.696 69C49.4827 69 49.376 68.8933 49.376 68.68V57.96C49.376 57.7467 49.4827 57.64 49.696 57.64H54C55.0987 57.64 55.984 57.928 56.656 58.504C57.328 59.08 57.664 59.896 57.664 60.952C57.664 62.008 57.328 62.8293 56.656 63.416C55.984 63.992 55.0987 64.28 54 64.28H50.512V68.68C50.512 68.8933 50.4053 69 50.192 69H49.696ZM53.856 63.336C54.688 63.336 55.344 63.1333 55.824 62.728C56.304 62.3227 56.544 61.7307 56.544 60.952C56.544 60.184 56.304 59.5973 55.824 59.192C55.344 58.7867 54.688 58.584 53.856 58.584H50.512V63.336H53.856ZM59.7075 69C59.4942 69 59.3875 68.8933 59.3875 68.68V57.96C59.3875 57.7467 59.4942 57.64 59.7075 57.64H60.1235C60.3368 57.64 60.4435 57.7467 60.4435 57.96V68.68C60.4435 68.8933 60.3368 69 60.1235 69H59.7075ZM65.8646 60.92C66.8353 60.92 67.5926 61.1547 68.1366 61.624C68.6806 62.0827 68.9526 62.6907 68.9526 63.448V68.68C68.9526 68.8933 68.846 69 68.6326 69H68.3126C68.0993 69 67.9926 68.8933 67.9926 68.68V67.96C67.726 68.3867 67.3473 68.7067 66.8566 68.92C66.3766 69.1333 65.838 69.24 65.2406 69.24C64.4086 69.24 63.7313 69.064 63.2086 68.712C62.686 68.36 62.4246 67.816 62.4246 67.08C62.4246 66.4933 62.59 66.024 62.9206 65.672C63.2513 65.3093 63.6833 65.0373 64.2166 64.856C64.75 64.664 65.4166 64.4933 66.2166 64.344L67.9446 64.04V63.528C67.9446 62.984 67.758 62.5627 67.3846 62.264C67.0113 61.9547 66.5206 61.8 65.9126 61.8C65.454 61.8 65.038 61.8853 64.6646 62.056C64.2913 62.2267 63.8913 62.52 63.4646 62.936C63.39 63.0107 63.31 63.048 63.2246 63.048C63.15 63.048 63.0806 63.016 63.0166 62.952L62.8086 62.76C62.734 62.6853 62.6966 62.6053 62.6966 62.52C62.6966 62.424 62.734 62.3387 62.8086 62.264C63.2566 61.7947 63.726 61.4533 64.2166 61.24C64.718 61.0267 65.2673 60.92 65.8646 60.92ZM65.2886 68.36C66.0566 68.36 66.6913 68.1573 67.1926 67.752C67.694 67.3467 67.9446 66.8293 67.9446 66.2V64.856L66.4566 65.144C65.7633 65.2827 65.214 65.416 64.8086 65.544C64.4033 65.672 64.078 65.8587 63.8326 66.104C63.5873 66.3493 63.4646 66.6693 63.4646 67.064C63.4646 67.4693 63.6246 67.7893 63.9446 68.024C64.2753 68.248 64.7233 68.36 65.2886 68.36ZM74.4934 69.208C73.736 69.208 73.0747 69.0373 72.5094 68.696C71.9547 68.344 71.5227 67.8587 71.2134 67.24C70.9147 66.6107 70.7654 65.8853 70.7654 65.064C70.7654 64.2533 70.9147 63.5333 71.2134 62.904C71.5227 62.2747 71.9547 61.7893 72.5094 61.448C73.0747 61.096 73.7254 60.92 74.4614 60.92C75.0587 60.92 75.5814 61.0213 76.0294 61.224C76.4774 61.416 76.9094 61.736 77.3254 62.184C77.3894 62.248 77.4214 62.3173 77.4214 62.392C77.4214 62.488 77.3787 62.568 77.2934 62.632L77.0694 62.84C77.0054 62.904 76.9307 62.936 76.8454 62.936C76.7707 62.936 76.6907 62.8933 76.6054 62.808C76.232 62.4347 75.8747 62.1733 75.5334 62.024C75.2027 61.8747 74.8347 61.8 74.4294 61.8C73.8747 61.8 73.4 61.9547 73.0054 62.264C72.6214 62.5733 72.3334 62.9787 72.1414 63.48C71.9494 63.9707 71.8534 64.4987 71.8534 65.064C71.8534 65.6293 71.9494 66.1627 72.1414 66.664C72.3334 67.1547 72.6267 67.5547 73.0214 67.864C73.416 68.1627 73.9014 68.312 74.4774 68.312C74.904 68.312 75.2774 68.2373 75.5974 68.088C75.928 67.928 76.296 67.6293 76.7014 67.192C76.7867 67.1067 76.8667 67.064 76.9414 67.064C77.0267 67.064 77.1014 67.096 77.1654 67.16L77.3894 67.336C77.464 67.4 77.5014 67.4747 77.5014 67.56C77.5014 67.6453 77.4534 67.7467 77.3574 67.864C76.9094 68.3547 76.4614 68.7013 76.0134 68.904C75.5654 69.1067 75.0587 69.208 74.4934 69.208ZM84.803 67.128C84.8777 67.0533 84.9577 67.016 85.043 67.016C85.1177 67.016 85.187 67.048 85.251 67.112L85.459 67.304C85.5337 67.3787 85.571 67.4587 85.571 67.544C85.571 67.608 85.539 67.6827 85.475 67.768C84.9523 68.2907 84.4457 68.664 83.955 68.888C83.4643 69.1013 82.915 69.208 82.307 69.208C81.539 69.208 80.8723 69.0373 80.307 68.696C79.7417 68.3547 79.3043 67.88 78.995 67.272C78.6857 66.6533 78.531 65.9387 78.531 65.128C78.531 64.3067 78.6803 63.5813 78.979 62.952C79.2883 62.312 79.7203 61.816 80.275 61.464C80.8297 61.1013 81.4697 60.92 82.195 60.92C83.2723 60.92 84.1203 61.256 84.739 61.928C85.3577 62.6 85.667 63.5067 85.667 64.648V64.84C85.6563 64.936 85.619 65.0107 85.555 65.064C85.5017 65.1173 85.427 65.144 85.331 65.144H79.603C79.635 66.04 79.8697 66.7973 80.307 67.416C80.755 68.024 81.4217 68.328 82.307 68.328C82.787 68.328 83.2083 68.2427 83.571 68.072C83.9443 67.8907 84.355 67.576 84.803 67.128ZM82.195 61.8C81.491 61.8 80.9097 62.0187 80.451 62.456C80.003 62.8827 79.731 63.512 79.635 64.344H84.611C84.5897 63.5653 84.3657 62.9467 83.939 62.488C83.5123 62.0293 82.931 61.8 82.195 61.8ZM91.079 60.92C91.9963 60.92 92.695 61.1813 93.175 61.704C93.655 62.216 93.895 62.8507 93.895 63.608V68.68C93.895 68.8933 93.7883 69 93.575 69H93.159C92.9457 69 92.839 68.8933 92.839 68.68V63.96C92.839 63.256 92.6683 62.7227 92.327 62.36C91.9857 61.9973 91.495 61.816 90.855 61.816C90.4497 61.816 90.0763 61.9173 89.735 62.12C89.3937 62.312 89.1217 62.5787 88.919 62.92C88.7163 63.2613 88.615 63.6347 88.615 64.04V68.68C88.615 68.8933 88.5083 69 88.295 69H87.879C87.6657 69 87.559 68.8933 87.559 68.68V57.96C87.559 57.7467 87.6657 57.64 87.879 57.64H88.295C88.5083 57.64 88.615 57.7467 88.615 57.96V62.136C88.871 61.7307 89.2123 61.4267 89.639 61.224C90.0763 61.0213 90.5563 60.92 91.079 60.92ZM99.4949 69.208C98.7589 69.208 98.1029 69.032 97.5269 68.68C96.9509 68.328 96.5029 67.8427 96.1829 67.224C95.8629 66.5947 95.7029 65.8747 95.7029 65.064C95.7029 64.2533 95.8629 63.5387 96.1829 62.92C96.5029 62.2907 96.9509 61.8 97.5269 61.448C98.1029 61.096 98.7589 60.92 99.4949 60.92C100.231 60.92 100.887 61.096 101.463 61.448C102.039 61.8 102.487 62.2907 102.807 62.92C103.127 63.5387 103.287 64.2533 103.287 65.064C103.287 65.8747 103.127 66.5947 102.807 67.224C102.487 67.8427 102.039 68.328 101.463 68.68C100.887 69.032 100.231 69.208 99.4949 69.208ZM99.4949 68.328C100.316 68.328 100.972 68.0293 101.463 67.432C101.954 66.824 102.199 66.0347 102.199 65.064C102.199 64.0933 101.954 63.3093 101.463 62.712C100.972 62.104 100.316 61.8 99.4949 61.8C98.6735 61.8 98.0175 62.104 97.5269 62.712C97.0362 63.3093 96.7909 64.0933 96.7909 65.064C96.7909 66.0347 97.0362 66.824 97.5269 67.432C98.0175 68.0293 98.6735 68.328 99.4949 68.328ZM105.458 69C105.244 69 105.138 68.8933 105.138 68.68V57.96C105.138 57.7467 105.244 57.64 105.458 57.64H105.874C106.087 57.64 106.194 57.7467 106.194 57.96V68.68C106.194 68.8933 106.087 69 105.874 69H105.458ZM114.271 57.96C114.271 57.7467 114.377 57.64 114.591 57.64H115.007C115.22 57.64 115.327 57.7467 115.327 57.96V68.68C115.327 68.8933 115.22 69 115.007 69H114.671C114.457 69 114.351 68.8933 114.351 68.68V67.64C114.063 68.1413 113.684 68.5253 113.215 68.792C112.745 69.0587 112.191 69.192 111.551 69.192C110.879 69.192 110.281 69.0213 109.759 68.68C109.236 68.328 108.825 67.8427 108.527 67.224C108.228 66.5947 108.079 65.8747 108.079 65.064C108.079 64.2533 108.228 63.5387 108.527 62.92C108.836 62.2907 109.257 61.8053 109.791 61.464C110.324 61.112 110.921 60.936 111.583 60.936C112.799 60.936 113.695 61.3893 114.271 62.296V57.96ZM111.631 68.296C112.431 68.296 113.076 68.0133 113.567 67.448C114.068 66.872 114.319 66.0773 114.319 65.064C114.319 64.0613 114.068 63.272 113.567 62.696C113.076 62.12 112.431 61.832 111.631 61.832C110.895 61.832 110.297 62.1307 109.839 62.728C109.391 63.3253 109.167 64.104 109.167 65.064C109.167 66.0347 109.391 66.8187 109.839 67.416C110.287 68.0027 110.884 68.296 111.631 68.296ZM123.444 67.128C123.518 67.0533 123.598 67.016 123.684 67.016C123.758 67.016 123.828 67.048 123.892 67.112L124.1 67.304C124.174 67.3787 124.212 67.4587 124.212 67.544C124.212 67.608 124.18 67.6827 124.116 67.768C123.593 68.2907 123.086 68.664 122.596 68.888C122.105 69.1013 121.556 69.208 120.948 69.208C120.18 69.208 119.513 69.0373 118.948 68.696C118.382 68.3547 117.945 67.88 117.636 67.272C117.326 66.6533 117.172 65.9387 117.172 65.128C117.172 64.3067 117.321 63.5813 117.62 62.952C117.929 62.312 118.361 61.816 118.916 61.464C119.47 61.1013 120.11 60.92 120.836 60.92C121.913 60.92 122.761 61.256 123.38 61.928C123.998 62.6 124.308 63.5067 124.308 64.648V64.84C124.297 64.936 124.26 65.0107 124.196 65.064C124.142 65.1173 124.068 65.144 123.972 65.144H118.244C118.276 66.04 118.51 66.7973 118.948 67.416C119.396 68.024 120.062 68.328 120.948 68.328C121.428 68.328 121.849 68.2427 122.212 68.072C122.585 67.8907 122.996 67.576 123.444 67.128ZM120.836 61.8C120.132 61.8 119.55 62.0187 119.092 62.456C118.644 62.8827 118.372 63.512 118.276 64.344H123.252C123.23 63.5653 123.006 62.9467 122.58 62.488C122.153 62.0293 121.572 61.8 120.836 61.8ZM129.144 61.048C129.41 61.048 129.725 61.0907 130.088 61.176C130.28 61.24 130.354 61.3733 130.312 61.576L130.248 61.832C130.194 62.0347 130.061 62.1093 129.848 62.056C129.592 61.992 129.357 61.96 129.144 61.96C128.6 61.96 128.146 62.1947 127.784 62.664C127.432 63.1333 127.256 63.784 127.256 64.616V68.68C127.256 68.8933 127.149 69 126.936 69H126.52C126.306 69 126.2 68.8933 126.2 68.68V61.432C126.2 61.2187 126.306 61.112 126.52 61.112H126.872C127.085 61.112 127.192 61.2187 127.192 61.432V62.312C127.373 61.9173 127.629 61.608 127.96 61.384C128.301 61.16 128.696 61.048 129.144 61.048Z" fill="#CACAD1"/>
</g>
<defs>
<clipPath id="clip0_4508_23658">
<rect width="236" height="22" fill="white" transform="translate(48 53)"/>
</clipPath>
</defs>
</svg>
