<svg width="332" height="170" viewBox="0 0 332 170" fill="none" xmlns="http://www.w3.org/2000/svg">
<rect width="332" height="170" fill="#F6F6F6"/>
<path d="M41.568 54C41.4187 54 41.2973 53.958 41.204 53.874C41.12 53.7807 41.078 53.6593 41.078 53.51V44.55C41.078 44.3913 41.12 44.27 41.204 44.186C41.2973 44.102 41.4187 44.06 41.568 44.06H42.184C42.3427 44.06 42.464 44.102 42.548 44.186C42.632 44.27 42.674 44.3913 42.674 44.55V52.642H46.72C46.8787 52.642 47 52.684 47.084 52.768C47.168 52.852 47.21 52.9733 47.21 53.132V53.51C47.21 53.6593 47.168 53.7807 47.084 53.874C47 53.958 46.8787 54 46.72 54H41.568ZM51.5043 46.888C52.4376 46.888 53.1563 47.1073 53.6603 47.546C54.1643 47.9753 54.4163 48.5493 54.4163 49.268V53.51C54.4163 53.6593 54.3743 53.7807 54.2903 53.874C54.2063 53.958 54.0849 54 53.9263 54H53.5623C53.4129 54 53.2916 53.958 53.1983 53.874C53.1143 53.7807 53.0723 53.6593 53.0723 53.51V53.202C52.8483 53.5287 52.5403 53.7807 52.1483 53.958C51.7563 54.1353 51.2989 54.224 50.7763 54.224C50.0576 54.224 49.4649 54.0653 48.9983 53.748C48.5409 53.4213 48.3123 52.9313 48.3123 52.278C48.3123 51.55 48.5829 51.0133 49.1243 50.668C49.6749 50.3133 50.4356 50.0473 51.4063 49.87L52.9883 49.576V49.324C52.9883 48.9413 52.8529 48.6473 52.5823 48.442C52.3209 48.2273 51.9709 48.12 51.5323 48.12C51.1589 48.12 50.8323 48.1853 50.5523 48.316C50.2816 48.4373 49.9876 48.6427 49.6703 48.932C49.5489 49.0347 49.4323 49.086 49.3203 49.086C49.2083 49.086 49.0916 49.0347 48.9703 48.932L48.7463 48.736C48.6249 48.624 48.5643 48.5027 48.5643 48.372C48.5643 48.2507 48.6203 48.134 48.7323 48.022C49.1336 47.6393 49.5583 47.3547 50.0063 47.168C50.4543 46.9813 50.9536 46.888 51.5043 46.888ZM50.9863 53.034C51.5463 53.034 52.0176 52.8847 52.4003 52.586C52.7923 52.2873 52.9883 51.858 52.9883 51.298V50.654L51.7703 50.906C51.0889 51.046 50.5849 51.2047 50.2583 51.382C49.9316 51.5593 49.7683 51.83 49.7683 52.194C49.7683 52.4553 49.8756 52.6607 50.0903 52.81C50.3049 52.9593 50.6036 53.034 50.9863 53.034ZM59.7798 46.916C60.3678 46.916 60.8905 47.0653 61.3478 47.364C61.8145 47.6627 62.1785 48.0873 62.4398 48.638C62.7011 49.1887 62.8318 49.8233 62.8318 50.542C62.8318 51.27 62.7011 51.9093 62.4398 52.46C62.1785 53.0107 61.8145 53.4353 61.3478 53.734C60.8811 54.0327 60.3585 54.182 59.7798 54.182C58.7438 54.182 57.9831 53.7947 57.4978 53.02V53.51C57.4978 53.6593 57.4558 53.7807 57.3718 53.874C57.2878 53.958 57.1665 54 57.0078 54H56.6018C56.4525 54 56.3311 53.958 56.2378 53.874C56.1538 53.7807 56.1118 53.6593 56.1118 53.51V44.55C56.1118 44.3913 56.1538 44.27 56.2378 44.186C56.3311 44.102 56.4525 44.06 56.6018 44.06H57.1058C57.2645 44.06 57.3858 44.102 57.4698 44.186C57.5538 44.27 57.5958 44.3913 57.5958 44.55V47.966C58.0905 47.266 58.8185 46.916 59.7798 46.916ZM59.4718 52.894C60.0318 52.894 60.4798 52.684 60.8158 52.264C61.1518 51.8347 61.3198 51.2607 61.3198 50.542C61.3198 49.8327 61.1518 49.2633 60.8158 48.834C60.4891 48.4047 60.0458 48.19 59.4858 48.19C58.9165 48.19 58.4498 48.4047 58.0858 48.834C57.7218 49.254 57.5398 49.8233 57.5398 50.542C57.5398 51.2793 57.7218 51.858 58.0858 52.278C58.4498 52.6887 58.9118 52.894 59.4718 52.894ZM69.2023 52.236C69.3236 52.1333 69.4403 52.082 69.5523 52.082C69.6643 52.082 69.7809 52.1427 69.9023 52.264L70.0983 52.474C70.2009 52.5953 70.2523 52.712 70.2523 52.824C70.2523 52.9453 70.1916 53.062 70.0703 53.174C69.6409 53.5473 69.2116 53.8133 68.7823 53.972C68.3623 54.1307 67.8956 54.21 67.3823 54.21C66.6636 54.21 66.0383 54.0607 65.5063 53.762C64.9836 53.4633 64.5776 53.0433 64.2883 52.502C64.0083 51.9513 63.8682 51.3167 63.8682 50.598C63.8682 49.8887 64.0036 49.254 64.2743 48.694C64.5543 48.1247 64.9463 47.6813 65.4503 47.364C65.9636 47.0467 66.5609 46.888 67.2423 46.888C68.2596 46.888 69.0436 47.1913 69.5943 47.798C70.1449 48.3953 70.4203 49.2213 70.4203 50.276V50.402C70.4109 50.5513 70.3643 50.668 70.2803 50.752C70.1963 50.836 70.0749 50.878 69.9163 50.878H65.3243C65.3803 51.494 65.5809 51.998 65.9263 52.39C66.2809 52.7727 66.7756 52.964 67.4103 52.964C67.7556 52.964 68.0589 52.9127 68.3203 52.81C68.5816 52.698 68.8756 52.5067 69.2023 52.236ZM67.2143 48.064C66.7009 48.064 66.2856 48.218 65.9683 48.526C65.6603 48.8247 65.4596 49.2493 65.3663 49.8H68.9643C68.9269 49.2587 68.7589 48.834 68.4603 48.526C68.1616 48.218 67.7463 48.064 67.2143 48.064ZM72.3258 54C72.1764 54 72.0551 53.958 71.9618 53.874C71.8778 53.7807 71.8358 53.6593 71.8358 53.51V44.55C71.8358 44.3913 71.8778 44.27 71.9618 44.186C72.0551 44.102 72.1764 44.06 72.3258 44.06H72.8298C72.9884 44.06 73.1098 44.102 73.1938 44.186C73.2778 44.27 73.3198 44.3913 73.3198 44.55V53.51C73.3198 53.6593 73.2778 53.7807 73.1938 53.874C73.1098 53.958 72.9884 54 72.8298 54H72.3258Z" fill="#1B1B1F"/>
<rect x="40.5" y="62.5" width="251" height="47" rx="3.5" fill="white"/>
<rect x="40.5" y="62.5" width="251" height="47" rx="3.5" stroke="#84848F"/>
<g clip-path="url(#clip0_4508_23755)">
<path d="M58.5356 88.5356L62 92M60 85C60 87.7614 57.7614 90 55 90C52.2386 90 50 87.7614 50 85C50 82.2386 52.2386 80 55 80C57.7614 80 60 82.2386 60 85Z" stroke="#1B1B1F" stroke-linecap="round" stroke-linejoin="round"/>
<path d="M73.696 91C73.4827 91 73.376 90.8933 73.376 90.68V79.96C73.376 79.7467 73.4827 79.64 73.696 79.64H78C79.0987 79.64 79.984 79.928 80.656 80.504C81.328 81.08 81.664 81.896 81.664 82.952C81.664 84.008 81.328 84.8293 80.656 85.416C79.984 85.992 79.0987 86.28 78 86.28H74.512V90.68C74.512 90.8933 74.4053 91 74.192 91H73.696ZM77.856 85.336C78.688 85.336 79.344 85.1333 79.824 84.728C80.304 84.3227 80.544 83.7307 80.544 82.952C80.544 82.184 80.304 81.5973 79.824 81.192C79.344 80.7867 78.688 80.584 77.856 80.584H74.512V85.336H77.856ZM83.7075 91C83.4942 91 83.3875 90.8933 83.3875 90.68V79.96C83.3875 79.7467 83.4942 79.64 83.7075 79.64H84.1235C84.3368 79.64 84.4435 79.7467 84.4435 79.96V90.68C84.4435 90.8933 84.3368 91 84.1235 91H83.7075ZM89.8646 82.92C90.8353 82.92 91.5926 83.1547 92.1366 83.624C92.6806 84.0827 92.9526 84.6907 92.9526 85.448V90.68C92.9526 90.8933 92.846 91 92.6326 91H92.3126C92.0993 91 91.9926 90.8933 91.9926 90.68V89.96C91.726 90.3867 91.3473 90.7067 90.8566 90.92C90.3766 91.1333 89.838 91.24 89.2406 91.24C88.4086 91.24 87.7313 91.064 87.2086 90.712C86.686 90.36 86.4246 89.816 86.4246 89.08C86.4246 88.4933 86.59 88.024 86.9206 87.672C87.2513 87.3093 87.6833 87.0373 88.2166 86.856C88.75 86.664 89.4166 86.4933 90.2166 86.344L91.9446 86.04V85.528C91.9446 84.984 91.758 84.5627 91.3846 84.264C91.0113 83.9547 90.5206 83.8 89.9126 83.8C89.454 83.8 89.038 83.8853 88.6646 84.056C88.2913 84.2267 87.8913 84.52 87.4646 84.936C87.39 85.0107 87.31 85.048 87.2246 85.048C87.15 85.048 87.0806 85.016 87.0166 84.952L86.8086 84.76C86.734 84.6853 86.6966 84.6053 86.6966 84.52C86.6966 84.424 86.734 84.3387 86.8086 84.264C87.2566 83.7947 87.726 83.4533 88.2166 83.24C88.718 83.0267 89.2673 82.92 89.8646 82.92ZM89.2886 90.36C90.0566 90.36 90.6913 90.1573 91.1926 89.752C91.694 89.3467 91.9446 88.8293 91.9446 88.2V86.856L90.4566 87.144C89.7633 87.2827 89.214 87.416 88.8086 87.544C88.4033 87.672 88.078 87.8587 87.8326 88.104C87.5873 88.3493 87.4646 88.6693 87.4646 89.064C87.4646 89.4693 87.6246 89.7893 87.9446 90.024C88.2753 90.248 88.7233 90.36 89.2886 90.36ZM98.4934 91.208C97.736 91.208 97.0747 91.0373 96.5094 90.696C95.9547 90.344 95.5227 89.8587 95.2134 89.24C94.9147 88.6107 94.7654 87.8853 94.7654 87.064C94.7654 86.2533 94.9147 85.5333 95.2134 84.904C95.5227 84.2747 95.9547 83.7893 96.5094 83.448C97.0747 83.096 97.7254 82.92 98.4614 82.92C99.0587 82.92 99.5814 83.0213 100.029 83.224C100.477 83.416 100.909 83.736 101.325 84.184C101.389 84.248 101.421 84.3173 101.421 84.392C101.421 84.488 101.379 84.568 101.293 84.632L101.069 84.84C101.005 84.904 100.931 84.936 100.845 84.936C100.771 84.936 100.691 84.8933 100.605 84.808C100.232 84.4347 99.8747 84.1733 99.5334 84.024C99.2027 83.8747 98.8347 83.8 98.4294 83.8C97.8747 83.8 97.4 83.9547 97.0054 84.264C96.6214 84.5733 96.3334 84.9787 96.1414 85.48C95.9494 85.9707 95.8534 86.4987 95.8534 87.064C95.8534 87.6293 95.9494 88.1627 96.1414 88.664C96.3334 89.1547 96.6267 89.5547 97.0214 89.864C97.416 90.1627 97.9014 90.312 98.4774 90.312C98.904 90.312 99.2774 90.2373 99.5974 90.088C99.928 89.928 100.296 89.6293 100.701 89.192C100.787 89.1067 100.867 89.064 100.941 89.064C101.027 89.064 101.101 89.096 101.165 89.16L101.389 89.336C101.464 89.4 101.501 89.4747 101.501 89.56C101.501 89.6453 101.453 89.7467 101.357 89.864C100.909 90.3547 100.461 90.7013 100.013 90.904C99.5654 91.1067 99.0587 91.208 98.4934 91.208ZM108.803 89.128C108.878 89.0533 108.958 89.016 109.043 89.016C109.118 89.016 109.187 89.048 109.251 89.112L109.459 89.304C109.534 89.3787 109.571 89.4587 109.571 89.544C109.571 89.608 109.539 89.6827 109.475 89.768C108.952 90.2907 108.446 90.664 107.955 90.888C107.464 91.1013 106.915 91.208 106.307 91.208C105.539 91.208 104.872 91.0373 104.307 90.696C103.742 90.3547 103.304 89.88 102.995 89.272C102.686 88.6533 102.531 87.9387 102.531 87.128C102.531 86.3067 102.68 85.5813 102.979 84.952C103.288 84.312 103.72 83.816 104.275 83.464C104.83 83.1013 105.47 82.92 106.195 82.92C107.272 82.92 108.12 83.256 108.739 83.928C109.358 84.6 109.667 85.5067 109.667 86.648V86.84C109.656 86.936 109.619 87.0107 109.555 87.064C109.502 87.1173 109.427 87.144 109.331 87.144H103.603C103.635 88.04 103.87 88.7973 104.307 89.416C104.755 90.024 105.422 90.328 106.307 90.328C106.787 90.328 107.208 90.2427 107.571 90.072C107.944 89.8907 108.355 89.576 108.803 89.128ZM106.195 83.8C105.491 83.8 104.91 84.0187 104.451 84.456C104.003 84.8827 103.731 85.512 103.635 86.344H108.611C108.59 85.5653 108.366 84.9467 107.939 84.488C107.512 84.0293 106.931 83.8 106.195 83.8ZM115.079 82.92C115.996 82.92 116.695 83.1813 117.175 83.704C117.655 84.216 117.895 84.8507 117.895 85.608V90.68C117.895 90.8933 117.788 91 117.575 91H117.159C116.946 91 116.839 90.8933 116.839 90.68V85.96C116.839 85.256 116.668 84.7227 116.327 84.36C115.986 83.9973 115.495 83.816 114.855 83.816C114.45 83.816 114.076 83.9173 113.735 84.12C113.394 84.312 113.122 84.5787 112.919 84.92C112.716 85.2613 112.615 85.6347 112.615 86.04V90.68C112.615 90.8933 112.508 91 112.295 91H111.879C111.666 91 111.559 90.8933 111.559 90.68V79.96C111.559 79.7467 111.666 79.64 111.879 79.64H112.295C112.508 79.64 112.615 79.7467 112.615 79.96V84.136C112.871 83.7307 113.212 83.4267 113.639 83.224C114.076 83.0213 114.556 82.92 115.079 82.92ZM123.495 91.208C122.759 91.208 122.103 91.032 121.527 90.68C120.951 90.328 120.503 89.8427 120.183 89.224C119.863 88.5947 119.703 87.8747 119.703 87.064C119.703 86.2533 119.863 85.5387 120.183 84.92C120.503 84.2907 120.951 83.8 121.527 83.448C122.103 83.096 122.759 82.92 123.495 82.92C124.231 82.92 124.887 83.096 125.463 83.448C126.039 83.8 126.487 84.2907 126.807 84.92C127.127 85.5387 127.287 86.2533 127.287 87.064C127.287 87.8747 127.127 88.5947 126.807 89.224C126.487 89.8427 126.039 90.328 125.463 90.68C124.887 91.032 124.231 91.208 123.495 91.208ZM123.495 90.328C124.316 90.328 124.972 90.0293 125.463 89.432C125.954 88.824 126.199 88.0347 126.199 87.064C126.199 86.0933 125.954 85.3093 125.463 84.712C124.972 84.104 124.316 83.8 123.495 83.8C122.674 83.8 122.018 84.104 121.527 84.712C121.036 85.3093 120.791 86.0933 120.791 87.064C120.791 88.0347 121.036 88.824 121.527 89.432C122.018 90.0293 122.674 90.328 123.495 90.328ZM129.458 91C129.244 91 129.138 90.8933 129.138 90.68V79.96C129.138 79.7467 129.244 79.64 129.458 79.64H129.874C130.087 79.64 130.194 79.7467 130.194 79.96V90.68C130.194 90.8933 130.087 91 129.874 91H129.458ZM138.271 79.96C138.271 79.7467 138.377 79.64 138.591 79.64H139.007C139.22 79.64 139.327 79.7467 139.327 79.96V90.68C139.327 90.8933 139.22 91 139.007 91H138.671C138.457 91 138.351 90.8933 138.351 90.68V89.64C138.063 90.1413 137.684 90.5253 137.215 90.792C136.745 91.0587 136.191 91.192 135.551 91.192C134.879 91.192 134.281 91.0213 133.759 90.68C133.236 90.328 132.825 89.8427 132.527 89.224C132.228 88.5947 132.079 87.8747 132.079 87.064C132.079 86.2533 132.228 85.5387 132.527 84.92C132.836 84.2907 133.257 83.8053 133.791 83.464C134.324 83.112 134.921 82.936 135.583 82.936C136.799 82.936 137.695 83.3893 138.271 84.296V79.96ZM135.631 90.296C136.431 90.296 137.076 90.0133 137.567 89.448C138.068 88.872 138.319 88.0773 138.319 87.064C138.319 86.0613 138.068 85.272 137.567 84.696C137.076 84.12 136.431 83.832 135.631 83.832C134.895 83.832 134.297 84.1307 133.839 84.728C133.391 85.3253 133.167 86.104 133.167 87.064C133.167 88.0347 133.391 88.8187 133.839 89.416C134.287 90.0027 134.884 90.296 135.631 90.296ZM147.444 89.128C147.518 89.0533 147.598 89.016 147.684 89.016C147.758 89.016 147.828 89.048 147.892 89.112L148.1 89.304C148.174 89.3787 148.212 89.4587 148.212 89.544C148.212 89.608 148.18 89.6827 148.116 89.768C147.593 90.2907 147.086 90.664 146.596 90.888C146.105 91.1013 145.556 91.208 144.948 91.208C144.18 91.208 143.513 91.0373 142.948 90.696C142.382 90.3547 141.945 89.88 141.636 89.272C141.326 88.6533 141.172 87.9387 141.172 87.128C141.172 86.3067 141.321 85.5813 141.62 84.952C141.929 84.312 142.361 83.816 142.916 83.464C143.47 83.1013 144.11 82.92 144.836 82.92C145.913 82.92 146.761 83.256 147.38 83.928C147.998 84.6 148.308 85.5067 148.308 86.648V86.84C148.297 86.936 148.26 87.0107 148.196 87.064C148.142 87.1173 148.068 87.144 147.972 87.144H142.244C142.276 88.04 142.51 88.7973 142.948 89.416C143.396 90.024 144.062 90.328 144.948 90.328C145.428 90.328 145.849 90.2427 146.212 90.072C146.585 89.8907 146.996 89.576 147.444 89.128ZM144.836 83.8C144.132 83.8 143.55 84.0187 143.092 84.456C142.644 84.8827 142.372 85.512 142.276 86.344H147.252C147.23 85.5653 147.006 84.9467 146.58 84.488C146.153 84.0293 145.572 83.8 144.836 83.8ZM153.144 83.048C153.41 83.048 153.725 83.0907 154.088 83.176C154.28 83.24 154.354 83.3733 154.312 83.576L154.248 83.832C154.194 84.0347 154.061 84.1093 153.848 84.056C153.592 83.992 153.357 83.96 153.144 83.96C152.6 83.96 152.146 84.1947 151.784 84.664C151.432 85.1333 151.256 85.784 151.256 86.616V90.68C151.256 90.8933 151.149 91 150.936 91H150.52C150.306 91 150.2 90.8933 150.2 90.68V83.432C150.2 83.2187 150.306 83.112 150.52 83.112H150.872C151.085 83.112 151.192 83.2187 151.192 83.432V84.312C151.373 83.9173 151.629 83.608 151.96 83.384C152.301 83.16 152.696 83.048 153.144 83.048Z" fill="#CACAD1"/>
<rect width="24" height="16" transform="translate(260 78)" fill="white"/>
<path d="M280.5 81.5L271.5 90.5M280.5 90.5L271.5 81.5" stroke="#1B1B1F" stroke-linecap="round" stroke-linejoin="round"/>
</g>
<path d="M41.272 126C41.112 126 41.032 125.92 41.032 125.76V117.72C41.032 117.56 41.112 117.48 41.272 117.48H41.644C41.804 117.48 41.884 117.56 41.884 117.72V121.248H46.804V117.72C46.804 117.56 46.884 117.48 47.044 117.48H47.416C47.576 117.48 47.656 117.56 47.656 117.72V125.76C47.656 125.92 47.576 126 47.416 126H47.044C46.884 126 46.804 125.92 46.804 125.76V121.956H41.884V125.76C41.884 125.92 41.804 126 41.644 126H41.272ZM53.8796 124.596C53.9356 124.54 53.9956 124.512 54.0596 124.512C54.1156 124.512 54.1676 124.536 54.2156 124.584L54.3716 124.728C54.4276 124.784 54.4556 124.844 54.4556 124.908C54.4556 124.956 54.4316 125.012 54.3836 125.076C53.9916 125.468 53.6116 125.748 53.2436 125.916C52.8756 126.076 52.4636 126.156 52.0076 126.156C51.4316 126.156 50.9316 126.028 50.5076 125.772C50.0836 125.516 49.7556 125.16 49.5236 124.704C49.2916 124.24 49.1756 123.704 49.1756 123.096C49.1756 122.48 49.2876 121.936 49.5116 121.464C49.7436 120.984 50.0676 120.612 50.4836 120.348C50.8996 120.076 51.3796 119.94 51.9236 119.94C52.7316 119.94 53.3676 120.192 53.8316 120.696C54.2956 121.2 54.5276 121.88 54.5276 122.736V122.88C54.5196 122.952 54.4916 123.008 54.4436 123.048C54.4036 123.088 54.3476 123.108 54.2756 123.108H49.9796C50.0036 123.78 50.1796 124.348 50.5076 124.812C50.8436 125.268 51.3436 125.496 52.0076 125.496C52.3676 125.496 52.6836 125.432 52.9556 125.304C53.2356 125.168 53.5436 124.932 53.8796 124.596ZM51.9236 120.6C51.3956 120.6 50.9596 120.764 50.6156 121.092C50.2796 121.412 50.0756 121.884 50.0036 122.508H53.7356C53.7196 121.924 53.5516 121.46 53.2316 121.116C52.9116 120.772 52.4756 120.6 51.9236 120.6ZM56.1986 126C56.0386 126 55.9586 125.92 55.9586 125.76V117.72C55.9586 117.56 56.0386 117.48 56.1986 117.48H56.5106C56.6706 117.48 56.7506 117.56 56.7506 117.72V125.76C56.7506 125.92 56.6706 126 56.5106 126H56.1986ZM61.3684 119.952C61.8644 119.952 62.3084 120.084 62.7004 120.348C63.1004 120.604 63.4124 120.968 63.6364 121.44C63.8604 121.904 63.9724 122.436 63.9724 123.036C63.9724 123.644 63.8604 124.184 63.6364 124.656C63.4124 125.128 63.1044 125.496 62.7124 125.76C62.3204 126.016 61.8724 126.144 61.3684 126.144C60.4404 126.144 59.7604 125.804 59.3284 125.124V127.968C59.3284 128.128 59.2484 128.208 59.0884 128.208H58.7764C58.6164 128.208 58.5364 128.128 58.5364 127.968V120.324C58.5364 120.164 58.6164 120.084 58.7764 120.084H59.0404C59.2004 120.084 59.2804 120.164 59.2804 120.324V121.08C59.4964 120.712 59.7804 120.432 60.1324 120.24C60.4844 120.048 60.8964 119.952 61.3684 119.952ZM61.3084 125.472C61.8684 125.472 62.3164 125.248 62.6524 124.8C62.9884 124.352 63.1564 123.764 63.1564 123.036C63.1564 122.316 62.9884 121.736 62.6524 121.296C62.3164 120.848 61.8684 120.624 61.3084 120.624C60.7084 120.624 60.2204 120.84 59.8444 121.272C59.4764 121.696 59.2924 122.284 59.2924 123.036C59.2924 123.788 59.4804 124.384 59.8564 124.824C60.2324 125.256 60.7164 125.472 61.3084 125.472ZM70.8098 125.34C70.8338 125.332 70.8658 125.328 70.9058 125.328C70.9538 125.328 70.9978 125.344 71.0378 125.376C71.0778 125.408 71.1018 125.452 71.1098 125.508L71.1458 125.676C71.1538 125.692 71.1578 125.72 71.1578 125.76C71.1578 125.872 71.0978 125.94 70.9778 125.964C70.6898 126.052 70.3818 126.096 70.0538 126.096C69.5338 126.096 69.1618 125.98 68.9378 125.748C68.7218 125.508 68.6138 125.164 68.6138 124.716V120.684H67.7258C67.5658 120.684 67.4858 120.604 67.4858 120.444V120.324C67.4858 120.164 67.5658 120.084 67.7258 120.084H68.6138V118.26C68.6138 118.1 68.6938 118.02 68.8538 118.02H69.1658C69.3258 118.02 69.4058 118.1 69.4058 118.26V120.084H70.8458C71.0058 120.084 71.0858 120.164 71.0858 120.324V120.444C71.0858 120.604 71.0058 120.684 70.8458 120.684H69.4058V124.62C69.4058 124.916 69.4618 125.124 69.5738 125.244C69.6858 125.364 69.8778 125.424 70.1498 125.424C70.3418 125.424 70.5618 125.396 70.8098 125.34ZM76.3796 124.596C76.4356 124.54 76.4956 124.512 76.5596 124.512C76.6156 124.512 76.6676 124.536 76.7156 124.584L76.8716 124.728C76.9276 124.784 76.9556 124.844 76.9556 124.908C76.9556 124.956 76.9316 125.012 76.8836 125.076C76.4916 125.468 76.1116 125.748 75.7436 125.916C75.3756 126.076 74.9636 126.156 74.5076 126.156C73.9316 126.156 73.4316 126.028 73.0076 125.772C72.5836 125.516 72.2556 125.16 72.0236 124.704C71.7916 124.24 71.6756 123.704 71.6756 123.096C71.6756 122.48 71.7876 121.936 72.0116 121.464C72.2436 120.984 72.5676 120.612 72.9836 120.348C73.3996 120.076 73.8796 119.94 74.4236 119.94C75.2316 119.94 75.8676 120.192 76.3316 120.696C76.7956 121.2 77.0276 121.88 77.0276 122.736V122.88C77.0196 122.952 76.9916 123.008 76.9436 123.048C76.9036 123.088 76.8476 123.108 76.7756 123.108H72.4796C72.5036 123.78 72.6796 124.348 73.0076 124.812C73.3436 125.268 73.8436 125.496 74.5076 125.496C74.8676 125.496 75.1836 125.432 75.4556 125.304C75.7356 125.168 76.0436 124.932 76.3796 124.596ZM74.4236 120.6C73.8956 120.6 73.4596 120.764 73.1156 121.092C72.7796 121.412 72.5756 121.884 72.5036 122.508H76.2356C76.2196 121.924 76.0516 121.46 75.7316 121.116C75.4116 120.772 74.9756 120.6 74.4236 120.6ZM82.6383 125.712C82.6703 125.768 82.6863 125.816 82.6863 125.856C82.6863 125.952 82.6223 126 82.4943 126H82.1343C82.0143 126 81.9183 125.948 81.8463 125.844L80.2143 123.444L78.5943 125.844C78.5223 125.948 78.4263 126 78.3063 126H77.9703C77.9063 126 77.8543 125.988 77.8143 125.964C77.7823 125.932 77.7663 125.896 77.7663 125.856C77.7663 125.8 77.7823 125.752 77.8143 125.712L79.7583 122.916L77.9703 120.372C77.9383 120.332 77.9223 120.288 77.9223 120.24C77.9223 120.136 77.9903 120.084 78.1263 120.084H78.4743C78.5943 120.084 78.6903 120.136 78.7623 120.24L80.2263 122.388L81.6783 120.24C81.7503 120.136 81.8463 120.084 81.9663 120.084H82.2903C82.3543 120.084 82.4023 120.1 82.4343 120.132C82.4743 120.156 82.4943 120.188 82.4943 120.228C82.4943 120.284 82.4783 120.332 82.4463 120.372L80.6943 122.88L82.6383 125.712ZM86.6184 125.34C86.6424 125.332 86.6744 125.328 86.7144 125.328C86.7624 125.328 86.8064 125.344 86.8464 125.376C86.8864 125.408 86.9104 125.452 86.9184 125.508L86.9544 125.676C86.9624 125.692 86.9664 125.72 86.9664 125.76C86.9664 125.872 86.9064 125.94 86.7864 125.964C86.4984 126.052 86.1904 126.096 85.8624 126.096C85.3424 126.096 84.9704 125.98 84.7464 125.748C84.5304 125.508 84.4224 125.164 84.4224 124.716V120.684H83.5344C83.3744 120.684 83.2944 120.604 83.2944 120.444V120.324C83.2944 120.164 83.3744 120.084 83.5344 120.084H84.4224V118.26C84.4224 118.1 84.5024 118.02 84.6624 118.02H84.9744C85.1344 118.02 85.2144 118.1 85.2144 118.26V120.084H86.6544C86.8144 120.084 86.8944 120.164 86.8944 120.324V120.444C86.8944 120.604 86.8144 120.684 86.6544 120.684H85.2144V124.62C85.2144 124.916 85.2704 125.124 85.3824 125.244C85.4944 125.364 85.6864 125.424 85.9584 125.424C86.1504 125.424 86.3704 125.396 86.6184 125.34Z" fill="#5C5C66"/>
<defs>
<clipPath id="clip0_4508_23755">
<rect width="236" height="22" fill="white" transform="translate(48 75)"/>
</clipPath>
</defs>
</svg>
