<svg width="464" height="250" viewBox="0 0 464 250" fill="none" xmlns="http://www.w3.org/2000/svg">
<rect width="464" height="250" rx="8" fill="white"/>
<path d="M81.568 94C81.4187 94 81.2973 93.958 81.204 93.874C81.12 93.7807 81.078 93.6593 81.078 93.51V84.55C81.078 84.3913 81.12 84.27 81.204 84.186C81.2973 84.102 81.4187 84.06 81.568 84.06H82.184C82.3427 84.06 82.464 84.102 82.548 84.186C82.632 84.27 82.674 84.3913 82.674 84.55V92.642H86.72C86.8787 92.642 87 92.684 87.084 92.768C87.168 92.852 87.21 92.9733 87.21 93.132V93.51C87.21 93.6593 87.168 93.7807 87.084 93.874C87 93.958 86.8787 94 86.72 94H81.568ZM91.5043 86.888C92.4376 86.888 93.1563 87.1073 93.6603 87.546C94.1643 87.9753 94.4163 88.5493 94.4163 89.268V93.51C94.4163 93.6593 94.3743 93.7807 94.2903 93.874C94.2063 93.958 94.0849 94 93.9263 94H93.5623C93.4129 94 93.2916 93.958 93.1983 93.874C93.1143 93.7807 93.0723 93.6593 93.0723 93.51V93.202C92.8483 93.5287 92.5403 93.7807 92.1483 93.958C91.7563 94.1353 91.2989 94.224 90.7763 94.224C90.0576 94.224 89.4649 94.0653 88.9983 93.748C88.5409 93.4213 88.3123 92.9313 88.3123 92.278C88.3123 91.55 88.5829 91.0133 89.1243 90.668C89.6749 90.3133 90.4356 90.0473 91.4063 89.87L92.9883 89.576V89.324C92.9883 88.9413 92.8529 88.6473 92.5823 88.442C92.3209 88.2273 91.9709 88.12 91.5323 88.12C91.1589 88.12 90.8323 88.1853 90.5523 88.316C90.2816 88.4373 89.9876 88.6427 89.6703 88.932C89.5489 89.0347 89.4323 89.086 89.3203 89.086C89.2083 89.086 89.0916 89.0347 88.9703 88.932L88.7463 88.736C88.6249 88.624 88.5643 88.5027 88.5643 88.372C88.5643 88.2507 88.6203 88.134 88.7323 88.022C89.1336 87.6393 89.5583 87.3547 90.0063 87.168C90.4543 86.9813 90.9536 86.888 91.5043 86.888ZM90.9863 93.034C91.5463 93.034 92.0176 92.8847 92.4003 92.586C92.7923 92.2873 92.9883 91.858 92.9883 91.298V90.654L91.7703 90.906C91.0889 91.046 90.5849 91.2047 90.2583 91.382C89.9316 91.5593 89.7683 91.83 89.7683 92.194C89.7683 92.4553 89.8756 92.6607 90.0903 92.81C90.3049 92.9593 90.6036 93.034 90.9863 93.034ZM99.7798 86.916C100.368 86.916 100.89 87.0653 101.348 87.364C101.814 87.6627 102.178 88.0873 102.44 88.638C102.701 89.1887 102.832 89.8233 102.832 90.542C102.832 91.27 102.701 91.9093 102.44 92.46C102.178 93.0107 101.814 93.4353 101.348 93.734C100.881 94.0327 100.358 94.182 99.7798 94.182C98.7438 94.182 97.9831 93.7947 97.4978 93.02V93.51C97.4978 93.6593 97.4558 93.7807 97.3718 93.874C97.2878 93.958 97.1665 94 97.0078 94H96.6018C96.4525 94 96.3311 93.958 96.2378 93.874C96.1538 93.7807 96.1118 93.6593 96.1118 93.51V84.55C96.1118 84.3913 96.1538 84.27 96.2378 84.186C96.3311 84.102 96.4525 84.06 96.6018 84.06H97.1058C97.2645 84.06 97.3858 84.102 97.4698 84.186C97.5538 84.27 97.5958 84.3913 97.5958 84.55V87.966C98.0905 87.266 98.8185 86.916 99.7798 86.916ZM99.4718 92.894C100.032 92.894 100.48 92.684 100.816 92.264C101.152 91.8347 101.32 91.2607 101.32 90.542C101.32 89.8327 101.152 89.2633 100.816 88.834C100.489 88.4047 100.046 88.19 99.4858 88.19C98.9165 88.19 98.4498 88.4047 98.0858 88.834C97.7218 89.254 97.5398 89.8233 97.5398 90.542C97.5398 91.2793 97.7218 91.858 98.0858 92.278C98.4498 92.6887 98.9118 92.894 99.4718 92.894ZM109.202 92.236C109.324 92.1333 109.44 92.082 109.552 92.082C109.664 92.082 109.781 92.1427 109.902 92.264L110.098 92.474C110.201 92.5953 110.252 92.712 110.252 92.824C110.252 92.9453 110.192 93.062 110.07 93.174C109.641 93.5473 109.212 93.8133 108.782 93.972C108.362 94.1307 107.896 94.21 107.382 94.21C106.664 94.21 106.038 94.0607 105.506 93.762C104.984 93.4633 104.578 93.0433 104.288 92.502C104.008 91.9513 103.868 91.3167 103.868 90.598C103.868 89.8887 104.004 89.254 104.274 88.694C104.554 88.1247 104.946 87.6813 105.45 87.364C105.964 87.0467 106.561 86.888 107.242 86.888C108.26 86.888 109.044 87.1913 109.594 87.798C110.145 88.3953 110.42 89.2213 110.42 90.276V90.402C110.411 90.5513 110.364 90.668 110.28 90.752C110.196 90.836 110.075 90.878 109.916 90.878H105.324C105.38 91.494 105.581 91.998 105.926 92.39C106.281 92.7727 106.776 92.964 107.41 92.964C107.756 92.964 108.059 92.9127 108.32 92.81C108.582 92.698 108.876 92.5067 109.202 92.236ZM107.214 88.064C106.701 88.064 106.286 88.218 105.968 88.526C105.66 88.8247 105.46 89.2493 105.366 89.8H108.964C108.927 89.2587 108.759 88.834 108.46 88.526C108.162 88.218 107.746 88.064 107.214 88.064ZM112.326 94C112.176 94 112.055 93.958 111.962 93.874C111.878 93.7807 111.836 93.6593 111.836 93.51V84.55C111.836 84.3913 111.878 84.27 111.962 84.186C112.055 84.102 112.176 84.06 112.326 84.06H112.83C112.988 84.06 113.11 84.102 113.194 84.186C113.278 84.27 113.32 84.3913 113.32 84.55V93.51C113.32 93.6593 113.278 93.7807 113.194 93.874C113.11 93.958 112.988 94 112.83 94H112.326Z" fill="#1B1B1F"/>
<rect x="80.5" y="102.5" width="303" height="47" rx="3.5" fill="white"/>
<rect x="80.5" y="102.5" width="303" height="47" rx="3.5" stroke="#CACAD1"/>
<g clip-path="url(#clip0_28141_129125)">
<path d="M93.16 130C93.04 130 92.944 129.948 92.872 129.844L90.844 126.892L89.68 128.08V129.76C89.68 129.92 89.6 130 89.44 130H89.128C88.968 130 88.888 129.92 88.888 129.76V121.72C88.888 121.56 88.968 121.48 89.128 121.48H89.44C89.6 121.48 89.68 121.56 89.68 121.72V127.18L92.56 124.192C92.632 124.112 92.732 124.072 92.86 124.072H93.196C93.26 124.072 93.308 124.088 93.34 124.12C93.38 124.144 93.4 124.176 93.4 124.216C93.4 124.256 93.376 124.308 93.328 124.372L91.396 126.388L93.664 129.712C93.696 129.768 93.712 129.816 93.712 129.856C93.712 129.952 93.648 130 93.52 130H93.16ZM97.0726 124.036C97.2726 124.036 97.5086 124.068 97.7806 124.132C97.9246 124.18 97.9806 124.28 97.9486 124.432L97.9006 124.624C97.8606 124.776 97.7606 124.832 97.6006 124.792C97.4086 124.744 97.2326 124.72 97.0726 124.72C96.6646 124.72 96.3246 124.896 96.0526 125.248C95.7886 125.6 95.6566 126.088 95.6566 126.712V129.76C95.6566 129.92 95.5766 130 95.4166 130H95.1046C94.9446 130 94.8646 129.92 94.8646 129.76V124.324C94.8646 124.164 94.9446 124.084 95.1046 124.084H95.3686C95.5286 124.084 95.6086 124.164 95.6086 124.324V124.984C95.7446 124.688 95.9366 124.456 96.1846 124.288C96.4406 124.12 96.7366 124.036 97.0726 124.036Z" fill="#5C5C66"/>
<path d="M108.696 131C108.483 131 108.376 130.893 108.376 130.68V119.96C108.376 119.747 108.483 119.64 108.696 119.64H109.192C109.405 119.64 109.512 119.747 109.512 119.96V124.664H116.072V119.96C116.072 119.747 116.179 119.64 116.392 119.64H116.888C117.101 119.64 117.208 119.747 117.208 119.96V130.68C117.208 130.893 117.101 131 116.888 131H116.392C116.179 131 116.072 130.893 116.072 130.68V125.608H109.512V130.68C109.512 130.893 109.405 131 109.192 131H108.696ZM120.29 121.112C120.077 121.112 119.895 121.037 119.746 120.888C119.607 120.739 119.538 120.557 119.538 120.344C119.538 120.131 119.607 119.955 119.746 119.816C119.895 119.677 120.077 119.608 120.29 119.608C120.514 119.608 120.695 119.677 120.834 119.816C120.983 119.955 121.058 120.131 121.058 120.344C121.058 120.557 120.983 120.739 120.834 120.888C120.695 121.037 120.514 121.112 120.29 121.112ZM120.082 131C119.869 131 119.762 130.893 119.762 130.68V123.432C119.762 123.219 119.869 123.112 120.082 123.112H120.498C120.711 123.112 120.818 123.219 120.818 123.432V130.68C120.818 130.893 120.711 131 120.498 131H120.082ZM126.688 122.92C127.616 122.92 128.315 123.176 128.784 123.688C129.264 124.2 129.504 124.84 129.504 125.608V130.68C129.504 130.893 129.398 131 129.184 131H128.768C128.555 131 128.448 130.893 128.448 130.68V125.96C128.448 125.256 128.278 124.723 127.936 124.36C127.595 123.997 127.104 123.816 126.464 123.816C126.059 123.816 125.686 123.917 125.344 124.12C125.003 124.312 124.731 124.579 124.528 124.92C124.326 125.261 124.224 125.635 124.224 126.04V130.68C124.224 130.893 124.118 131 123.904 131H123.488C123.275 131 123.168 130.893 123.168 130.68V123.432C123.168 123.219 123.275 123.112 123.488 123.112H123.84C124.054 123.112 124.16 123.219 124.16 123.432V124.2C124.427 123.773 124.779 123.453 125.216 123.24C125.654 123.027 126.144 122.92 126.688 122.92ZM135.174 130.12C135.206 130.109 135.248 130.104 135.302 130.104C135.366 130.104 135.424 130.125 135.478 130.168C135.531 130.211 135.563 130.269 135.574 130.344L135.622 130.568C135.632 130.589 135.638 130.627 135.638 130.68C135.638 130.829 135.558 130.92 135.398 130.952C135.014 131.069 134.603 131.128 134.166 131.128C133.472 131.128 132.976 130.973 132.678 130.664C132.39 130.344 132.246 129.885 132.246 129.288V123.912H131.062C130.848 123.912 130.742 123.805 130.742 123.592V123.432C130.742 123.219 130.848 123.112 131.062 123.112H132.246V120.68C132.246 120.467 132.352 120.36 132.566 120.36H132.982C133.195 120.36 133.302 120.467 133.302 120.68V123.112H135.222C135.435 123.112 135.542 123.219 135.542 123.432V123.592C135.542 123.805 135.435 123.912 135.222 123.912H133.302V129.16C133.302 129.555 133.376 129.832 133.526 129.992C133.675 130.152 133.931 130.232 134.294 130.232C134.55 130.232 134.843 130.195 135.174 130.12Z" fill="#CACAD1"/>
<path d="M370.16 130C370.04 130 369.944 129.948 369.872 129.844L367.844 126.892L366.68 128.08V129.76C366.68 129.92 366.6 130 366.44 130H366.128C365.968 130 365.888 129.92 365.888 129.76V121.72C365.888 121.56 365.968 121.48 366.128 121.48H366.44C366.6 121.48 366.68 121.56 366.68 121.72V127.18L369.56 124.192C369.632 124.112 369.732 124.072 369.86 124.072H370.196C370.26 124.072 370.308 124.088 370.34 124.12C370.38 124.144 370.4 124.176 370.4 124.216C370.4 124.256 370.376 124.308 370.328 124.372L368.396 126.388L370.664 129.712C370.696 129.768 370.712 129.816 370.712 129.856C370.712 129.952 370.648 130 370.52 130H370.16ZM374.073 124.036C374.273 124.036 374.509 124.068 374.781 124.132C374.925 124.18 374.981 124.28 374.949 124.432L374.901 124.624C374.861 124.776 374.761 124.832 374.601 124.792C374.409 124.744 374.233 124.72 374.073 124.72C373.665 124.72 373.325 124.896 373.053 125.248C372.789 125.6 372.657 126.088 372.657 126.712V129.76C372.657 129.92 372.577 130 372.417 130H372.105C371.945 130 371.865 129.92 371.865 129.76V124.324C371.865 124.164 371.945 124.084 372.105 124.084H372.369C372.529 124.084 372.609 124.164 372.609 124.324V124.984C372.745 124.688 372.937 124.456 373.185 124.288C373.441 124.12 373.737 124.036 374.073 124.036Z" fill="#5C5C66"/>
</g>
<path d="M81.272 166C81.112 166 81.032 165.92 81.032 165.76V157.72C81.032 157.56 81.112 157.48 81.272 157.48H81.644C81.804 157.48 81.884 157.56 81.884 157.72V161.248H86.804V157.72C86.804 157.56 86.884 157.48 87.044 157.48H87.416C87.576 157.48 87.656 157.56 87.656 157.72V165.76C87.656 165.92 87.576 166 87.416 166H87.044C86.884 166 86.804 165.92 86.804 165.76V161.956H81.884V165.76C81.884 165.92 81.804 166 81.644 166H81.272ZM93.8796 164.596C93.9356 164.54 93.9956 164.512 94.0596 164.512C94.1156 164.512 94.1676 164.536 94.2156 164.584L94.3716 164.728C94.4276 164.784 94.4556 164.844 94.4556 164.908C94.4556 164.956 94.4316 165.012 94.3836 165.076C93.9916 165.468 93.6116 165.748 93.2436 165.916C92.8756 166.076 92.4636 166.156 92.0076 166.156C91.4316 166.156 90.9316 166.028 90.5076 165.772C90.0836 165.516 89.7556 165.16 89.5236 164.704C89.2916 164.24 89.1756 163.704 89.1756 163.096C89.1756 162.48 89.2876 161.936 89.5116 161.464C89.7436 160.984 90.0676 160.612 90.4836 160.348C90.8996 160.076 91.3796 159.94 91.9236 159.94C92.7316 159.94 93.3676 160.192 93.8316 160.696C94.2956 161.2 94.5276 161.88 94.5276 162.736V162.88C94.5196 162.952 94.4916 163.008 94.4436 163.048C94.4036 163.088 94.3476 163.108 94.2756 163.108H89.9796C90.0036 163.78 90.1796 164.348 90.5076 164.812C90.8436 165.268 91.3436 165.496 92.0076 165.496C92.3676 165.496 92.6836 165.432 92.9556 165.304C93.2356 165.168 93.5436 164.932 93.8796 164.596ZM91.9236 160.6C91.3956 160.6 90.9596 160.764 90.6156 161.092C90.2796 161.412 90.0756 161.884 90.0036 162.508H93.7356C93.7196 161.924 93.5516 161.46 93.2316 161.116C92.9116 160.772 92.4756 160.6 91.9236 160.6ZM96.1986 166C96.0386 166 95.9586 165.92 95.9586 165.76V157.72C95.9586 157.56 96.0386 157.48 96.1986 157.48H96.5106C96.6706 157.48 96.7506 157.56 96.7506 157.72V165.76C96.7506 165.92 96.6706 166 96.5106 166H96.1986ZM101.368 159.952C101.864 159.952 102.308 160.084 102.7 160.348C103.1 160.604 103.412 160.968 103.636 161.44C103.86 161.904 103.972 162.436 103.972 163.036C103.972 163.644 103.86 164.184 103.636 164.656C103.412 165.128 103.104 165.496 102.712 165.76C102.32 166.016 101.872 166.144 101.368 166.144C100.44 166.144 99.7604 165.804 99.3284 165.124V167.968C99.3284 168.128 99.2484 168.208 99.0884 168.208H98.7764C98.6164 168.208 98.5364 168.128 98.5364 167.968V160.324C98.5364 160.164 98.6164 160.084 98.7764 160.084H99.0404C99.2004 160.084 99.2804 160.164 99.2804 160.324V161.08C99.4964 160.712 99.7804 160.432 100.132 160.24C100.484 160.048 100.896 159.952 101.368 159.952ZM101.308 165.472C101.868 165.472 102.316 165.248 102.652 164.8C102.988 164.352 103.156 163.764 103.156 163.036C103.156 162.316 102.988 161.736 102.652 161.296C102.316 160.848 101.868 160.624 101.308 160.624C100.708 160.624 100.22 160.84 99.8444 161.272C99.4764 161.696 99.2924 162.284 99.2924 163.036C99.2924 163.788 99.4804 164.384 99.8564 164.824C100.232 165.256 100.716 165.472 101.308 165.472ZM110.81 165.34C110.834 165.332 110.866 165.328 110.906 165.328C110.954 165.328 110.998 165.344 111.038 165.376C111.078 165.408 111.102 165.452 111.11 165.508L111.146 165.676C111.154 165.692 111.158 165.72 111.158 165.76C111.158 165.872 111.098 165.94 110.978 165.964C110.69 166.052 110.382 166.096 110.054 166.096C109.534 166.096 109.162 165.98 108.938 165.748C108.722 165.508 108.614 165.164 108.614 164.716V160.684H107.726C107.566 160.684 107.486 160.604 107.486 160.444V160.324C107.486 160.164 107.566 160.084 107.726 160.084H108.614V158.26C108.614 158.1 108.694 158.02 108.854 158.02H109.166C109.326 158.02 109.406 158.1 109.406 158.26V160.084H110.846C111.006 160.084 111.086 160.164 111.086 160.324V160.444C111.086 160.604 111.006 160.684 110.846 160.684H109.406V164.62C109.406 164.916 109.462 165.124 109.574 165.244C109.686 165.364 109.878 165.424 110.15 165.424C110.342 165.424 110.562 165.396 110.81 165.34ZM116.38 164.596C116.436 164.54 116.496 164.512 116.56 164.512C116.616 164.512 116.668 164.536 116.716 164.584L116.872 164.728C116.928 164.784 116.956 164.844 116.956 164.908C116.956 164.956 116.932 165.012 116.884 165.076C116.492 165.468 116.112 165.748 115.744 165.916C115.376 166.076 114.964 166.156 114.508 166.156C113.932 166.156 113.432 166.028 113.008 165.772C112.584 165.516 112.256 165.16 112.024 164.704C111.792 164.24 111.676 163.704 111.676 163.096C111.676 162.48 111.788 161.936 112.012 161.464C112.244 160.984 112.568 160.612 112.984 160.348C113.4 160.076 113.88 159.94 114.424 159.94C115.232 159.94 115.868 160.192 116.332 160.696C116.796 161.2 117.028 161.88 117.028 162.736V162.88C117.02 162.952 116.992 163.008 116.944 163.048C116.904 163.088 116.848 163.108 116.776 163.108H112.48C112.504 163.78 112.68 164.348 113.008 164.812C113.344 165.268 113.844 165.496 114.508 165.496C114.868 165.496 115.184 165.432 115.456 165.304C115.736 165.168 116.044 164.932 116.38 164.596ZM114.424 160.6C113.896 160.6 113.46 160.764 113.116 161.092C112.78 161.412 112.576 161.884 112.504 162.508H116.236C116.22 161.924 116.052 161.46 115.732 161.116C115.412 160.772 114.976 160.6 114.424 160.6ZM122.638 165.712C122.67 165.768 122.686 165.816 122.686 165.856C122.686 165.952 122.622 166 122.494 166H122.134C122.014 166 121.918 165.948 121.846 165.844L120.214 163.444L118.594 165.844C118.522 165.948 118.426 166 118.306 166H117.97C117.906 166 117.854 165.988 117.814 165.964C117.782 165.932 117.766 165.896 117.766 165.856C117.766 165.8 117.782 165.752 117.814 165.712L119.758 162.916L117.97 160.372C117.938 160.332 117.922 160.288 117.922 160.24C117.922 160.136 117.99 160.084 118.126 160.084H118.474C118.594 160.084 118.69 160.136 118.762 160.24L120.226 162.388L121.678 160.24C121.75 160.136 121.846 160.084 121.966 160.084H122.29C122.354 160.084 122.402 160.1 122.434 160.132C122.474 160.156 122.494 160.188 122.494 160.228C122.494 160.284 122.478 160.332 122.446 160.372L120.694 162.88L122.638 165.712ZM126.618 165.34C126.642 165.332 126.674 165.328 126.714 165.328C126.762 165.328 126.806 165.344 126.846 165.376C126.886 165.408 126.91 165.452 126.918 165.508L126.954 165.676C126.962 165.692 126.966 165.72 126.966 165.76C126.966 165.872 126.906 165.94 126.786 165.964C126.498 166.052 126.19 166.096 125.862 166.096C125.342 166.096 124.97 165.98 124.746 165.748C124.53 165.508 124.422 165.164 124.422 164.716V160.684H123.534C123.374 160.684 123.294 160.604 123.294 160.444V160.324C123.294 160.164 123.374 160.084 123.534 160.084H124.422V158.26C124.422 158.1 124.502 158.02 124.662 158.02H124.974C125.134 158.02 125.214 158.1 125.214 158.26V160.084H126.654C126.814 160.084 126.894 160.164 126.894 160.324V160.444C126.894 160.604 126.814 160.684 126.654 160.684H125.214V164.62C125.214 164.916 125.27 165.124 125.382 165.244C125.494 165.364 125.686 165.424 125.958 165.424C126.15 165.424 126.37 165.396 126.618 165.34Z" fill="#5C5C66"/>
<rect x="8" y="106" width="41" height="40" rx="20" fill="#BE3830"/>
<path d="M26.8 125.736C26.2773 125.531 25.876 125.232 25.596 124.84C25.316 124.448 25.176 123.972 25.176 123.412C25.176 122.908 25.302 122.455 25.554 122.054C25.806 121.643 26.1793 121.321 26.674 121.088C27.178 120.845 27.7847 120.724 28.494 120.724C29.2033 120.724 29.8053 120.845 30.3 121.088C30.804 121.321 31.182 121.643 31.434 122.054C31.6953 122.455 31.826 122.908 31.826 123.412C31.826 123.953 31.6813 124.429 31.392 124.84C31.1027 125.241 30.706 125.54 30.202 125.736C30.7807 125.913 31.238 126.226 31.574 126.674C31.9193 127.113 32.092 127.645 32.092 128.27C32.092 128.877 31.9427 129.409 31.644 129.866C31.3453 130.314 30.9207 130.664 30.37 130.916C29.8287 131.159 29.2033 131.28 28.494 131.28C27.7847 131.28 27.1593 131.159 26.618 130.916C26.086 130.664 25.6707 130.314 25.372 129.866C25.0733 129.409 24.924 128.877 24.924 128.27C24.924 127.645 25.092 127.108 25.428 126.66C25.764 126.212 26.2213 125.904 26.8 125.736ZM30.594 123.566C30.594 122.997 30.4073 122.558 30.034 122.25C29.6607 121.942 29.1473 121.788 28.494 121.788C27.85 121.788 27.3413 121.942 26.968 122.25C26.5947 122.558 26.408 123.001 26.408 123.58C26.408 124.103 26.5993 124.523 26.982 124.84C27.374 125.157 27.878 125.316 28.494 125.316C29.1193 125.316 29.6233 125.157 30.006 124.84C30.398 124.513 30.594 124.089 30.594 123.566ZM28.494 126.296C27.8033 126.296 27.2387 126.459 26.8 126.786C26.3613 127.103 26.142 127.584 26.142 128.228C26.142 128.825 26.352 129.306 26.772 129.67C27.2013 130.034 27.7753 130.216 28.494 130.216C29.2127 130.216 29.782 130.034 30.202 129.67C30.622 129.306 30.832 128.825 30.832 128.228C30.832 127.603 30.6173 127.127 30.188 126.8C29.7587 126.464 29.194 126.296 28.494 126.296Z" fill="white"/>
<rect width="35" height="3" transform="translate(49 124.5)" fill="#BE3830"/>
<rect width="34" height="3" transform="translate(380 124.5)" fill="#BE3830"/>
<rect x="414" y="106" width="41" height="40" rx="20" fill="#BE3830"/>
<path d="M432.597 128.284C432.69 128.816 432.905 129.227 433.241 129.516C433.586 129.805 434.048 129.95 434.627 129.95C435.401 129.95 435.971 129.647 436.335 129.04C436.708 128.433 436.885 127.411 436.867 125.974C436.671 126.394 436.344 126.725 435.887 126.968C435.429 127.201 434.921 127.318 434.361 127.318C433.735 127.318 433.175 127.192 432.681 126.94C432.195 126.679 431.813 126.301 431.533 125.806C431.253 125.311 431.113 124.714 431.113 124.014C431.113 123.015 431.402 122.213 431.981 121.606C432.559 120.99 433.381 120.682 434.445 120.682C435.751 120.682 436.666 121.107 437.189 121.956C437.721 122.805 437.987 124.07 437.987 125.75C437.987 126.926 437.879 127.897 437.665 128.662C437.459 129.427 437.105 130.011 436.601 130.412C436.106 130.813 435.425 131.014 434.557 131.014C433.605 131.014 432.863 130.757 432.331 130.244C431.799 129.731 431.495 129.077 431.421 128.284H432.597ZM434.571 126.24C435.196 126.24 435.709 126.049 436.111 125.666C436.512 125.274 436.713 124.747 436.713 124.084C436.713 123.384 436.517 122.819 436.125 122.39C435.733 121.961 435.182 121.746 434.473 121.746C433.819 121.746 433.297 121.951 432.905 122.362C432.522 122.773 432.331 123.314 432.331 123.986C432.331 124.667 432.522 125.213 432.905 125.624C433.287 126.035 433.843 126.24 434.571 126.24Z" fill="white"/>
<rect width="28" height="3" transform="translate(105.5 174) rotate(90)" fill="#BE3830"/>
<rect x="81" y="202" width="46" height="40" rx="20" fill="#BE3830"/>
<path d="M97.8943 218.04V216.878H100.526V227H99.2383V218.04H97.8943ZM102.715 221.834C102.715 220.229 102.976 218.978 103.499 218.082C104.021 217.177 104.936 216.724 106.243 216.724C107.54 216.724 108.45 217.177 108.973 218.082C109.495 218.978 109.757 220.229 109.757 221.834C109.757 223.467 109.495 224.737 108.973 225.642C108.45 226.547 107.54 227 106.243 227C104.936 227 104.021 226.547 103.499 225.642C102.976 224.737 102.715 223.467 102.715 221.834ZM108.497 221.834C108.497 221.022 108.441 220.336 108.329 219.776C108.226 219.207 108.007 218.749 107.671 218.404C107.344 218.059 106.868 217.886 106.243 217.886C105.608 217.886 105.123 218.059 104.787 218.404C104.46 218.749 104.241 219.207 104.129 219.776C104.026 220.336 103.975 221.022 103.975 221.834C103.975 222.674 104.026 223.379 104.129 223.948C104.241 224.517 104.46 224.975 104.787 225.32C105.123 225.665 105.608 225.838 106.243 225.838C106.868 225.838 107.344 225.665 107.671 225.32C108.007 224.975 108.226 224.517 108.329 223.948C108.441 223.379 108.497 222.674 108.497 221.834Z" fill="white"/>
<defs>
<clipPath id="clip0_28141_129125">
<rect width="288" height="22" fill="white" transform="translate(88 115)"/>
</clipPath>
</defs>
</svg>
