<svg width="332" height="70" viewBox="0 0 332 70" fill="none" xmlns="http://www.w3.org/2000/svg">
<path d="M1.568 14C1.41867 14 1.29733 13.958 1.204 13.874C1.12 13.7807 1.078 13.6593 1.078 13.51V4.55C1.078 4.39133 1.12 4.27 1.204 4.186C1.29733 4.102 1.41867 4.06 1.568 4.06H2.184C2.34267 4.06 2.464 4.102 2.548 4.186C2.632 4.27 2.674 4.39133 2.674 4.55V12.642H6.72C6.87867 12.642 7 12.684 7.084 12.768C7.168 12.852 7.21 12.9733 7.21 13.132V13.51C7.21 13.6593 7.168 13.7807 7.084 13.874C7 13.958 6.87867 14 6.72 14H1.568ZM11.5043 6.888C12.4376 6.888 13.1563 7.10733 13.6603 7.546C14.1643 7.97533 14.4163 8.54933 14.4163 9.268V13.51C14.4163 13.6593 14.3743 13.7807 14.2903 13.874C14.2063 13.958 14.0849 14 13.9263 14H13.5623C13.4129 14 13.2916 13.958 13.1983 13.874C13.1143 13.7807 13.0723 13.6593 13.0723 13.51V13.202C12.8483 13.5287 12.5403 13.7807 12.1483 13.958C11.7563 14.1353 11.2989 14.224 10.7763 14.224C10.0576 14.224 9.46495 14.0653 8.99828 13.748C8.54095 13.4213 8.31228 12.9313 8.31228 12.278C8.31228 11.55 8.58295 11.0133 9.12428 10.668C9.67495 10.3133 10.4356 10.0473 11.4063 9.87L12.9883 9.576V9.324C12.9883 8.94133 12.8529 8.64733 12.5823 8.442C12.3209 8.22733 11.9709 8.12 11.5323 8.12C11.1589 8.12 10.8323 8.18533 10.5523 8.316C10.2816 8.43733 9.98761 8.64267 9.67028 8.932C9.54895 9.03467 9.43228 9.086 9.32028 9.086C9.20828 9.086 9.09161 9.03467 8.97028 8.932L8.74628 8.736C8.62495 8.624 8.56428 8.50267 8.56428 8.372C8.56428 8.25067 8.62028 8.134 8.73228 8.022C9.13361 7.63933 9.55828 7.35467 10.0063 7.168C10.4543 6.98133 10.9536 6.888 11.5043 6.888ZM10.9863 13.034C11.5463 13.034 12.0176 12.8847 12.4003 12.586C12.7923 12.2873 12.9883 11.858 12.9883 11.298V10.654L11.7703 10.906C11.0889 11.046 10.5849 11.2047 10.2583 11.382C9.93161 11.5593 9.76828 11.83 9.76828 12.194C9.76828 12.4553 9.87561 12.6607 10.0903 12.81C10.3049 12.9593 10.6036 13.034 10.9863 13.034ZM19.7798 6.916C20.3678 6.916 20.8905 7.06533 21.3478 7.364C21.8145 7.66267 22.1785 8.08733 22.4398 8.638C22.7011 9.18867 22.8318 9.82333 22.8318 10.542C22.8318 11.27 22.7011 11.9093 22.4398 12.46C22.1785 13.0107 21.8145 13.4353 21.3478 13.734C20.8811 14.0327 20.3585 14.182 19.7798 14.182C18.7438 14.182 17.9831 13.7947 17.4978 13.02V13.51C17.4978 13.6593 17.4558 13.7807 17.3718 13.874C17.2878 13.958 17.1665 14 17.0078 14H16.6018C16.4525 14 16.3311 13.958 16.2378 13.874C16.1538 13.7807 16.1118 13.6593 16.1118 13.51V4.55C16.1118 4.39133 16.1538 4.27 16.2378 4.186C16.3311 4.102 16.4525 4.06 16.6018 4.06H17.1058C17.2645 4.06 17.3858 4.102 17.4698 4.186C17.5538 4.27 17.5958 4.39133 17.5958 4.55V7.966C18.0905 7.266 18.8185 6.916 19.7798 6.916ZM19.4718 12.894C20.0318 12.894 20.4798 12.684 20.8158 12.264C21.1518 11.8347 21.3198 11.2607 21.3198 10.542C21.3198 9.83267 21.1518 9.26333 20.8158 8.834C20.4891 8.40467 20.0458 8.19 19.4858 8.19C18.9165 8.19 18.4498 8.40467 18.0858 8.834C17.7218 9.254 17.5398 9.82333 17.5398 10.542C17.5398 11.2793 17.7218 11.858 18.0858 12.278C18.4498 12.6887 18.9118 12.894 19.4718 12.894ZM29.2023 12.236C29.3236 12.1333 29.4403 12.082 29.5523 12.082C29.6643 12.082 29.7809 12.1427 29.9023 12.264L30.0983 12.474C30.2009 12.5953 30.2523 12.712 30.2523 12.824C30.2523 12.9453 30.1916 13.062 30.0703 13.174C29.6409 13.5473 29.2116 13.8133 28.7823 13.972C28.3623 14.1307 27.8956 14.21 27.3823 14.21C26.6636 14.21 26.0383 14.0607 25.5063 13.762C24.9836 13.4633 24.5776 13.0433 24.2883 12.502C24.0083 11.9513 23.8682 11.3167 23.8682 10.598C23.8682 9.88867 24.0036 9.254 24.2743 8.694C24.5543 8.12467 24.9463 7.68133 25.4503 7.364C25.9636 7.04667 26.5609 6.888 27.2423 6.888C28.2596 6.888 29.0436 7.19133 29.5943 7.798C30.1449 8.39533 30.4203 9.22133 30.4203 10.276V10.402C30.4109 10.5513 30.3643 10.668 30.2803 10.752C30.1963 10.836 30.0749 10.878 29.9163 10.878H25.3243C25.3803 11.494 25.5809 11.998 25.9263 12.39C26.2809 12.7727 26.7756 12.964 27.4103 12.964C27.7556 12.964 28.0589 12.9127 28.3203 12.81C28.5816 12.698 28.8756 12.5067 29.2023 12.236ZM27.2143 8.064C26.7009 8.064 26.2856 8.218 25.9683 8.526C25.6603 8.82467 25.4596 9.24933 25.3663 9.8H28.9643C28.9269 9.25867 28.7589 8.834 28.4603 8.526C28.1616 8.218 27.7463 8.064 27.2143 8.064ZM32.3258 14C32.1764 14 32.0551 13.958 31.9618 13.874C31.8778 13.7807 31.8358 13.6593 31.8358 13.51V4.55C31.8358 4.39133 31.8778 4.27 31.9618 4.186C32.0551 4.102 32.1764 4.06 32.3258 4.06H32.8298C32.9884 4.06 33.1098 4.102 33.1938 4.186C33.2778 4.27 33.3198 4.39133 33.3198 4.55V13.51C33.3198 13.6593 33.2778 13.7807 33.1938 13.874C33.1098 13.958 32.9884 14 32.8298 14H32.3258Z" fill="#1B1B1F"/>
<rect x="0.5" y="22.5" width="331" height="47" rx="3.5" fill="white"/>
<rect x="0.5" y="22.5" width="331" height="47" rx="3.5" stroke="#CACAD1"/>
<g clip-path="url(#clip0_28141_128923)">
<path d="M9.696 51C9.48267 51 9.376 50.8933 9.376 50.68V39.96C9.376 39.7467 9.48267 39.64 9.696 39.64H10.192C10.4053 39.64 10.512 39.7467 10.512 39.96V44.664H17.072V39.96C17.072 39.7467 17.1787 39.64 17.392 39.64H17.888C18.1013 39.64 18.208 39.7467 18.208 39.96V50.68C18.208 50.8933 18.1013 51 17.888 51H17.392C17.1787 51 17.072 50.8933 17.072 50.68V45.608H10.512V50.68C10.512 50.8933 10.4053 51 10.192 51H9.696ZM21.2901 41.112C21.0768 41.112 20.8955 41.0373 20.7461 40.888C20.6075 40.7387 20.5381 40.5573 20.5381 40.344C20.5381 40.1307 20.6075 39.9547 20.7461 39.816C20.8955 39.6773 21.0768 39.608 21.2901 39.608C21.5141 39.608 21.6955 39.6773 21.8341 39.816C21.9835 39.9547 22.0581 40.1307 22.0581 40.344C22.0581 40.5573 21.9835 40.7387 21.8341 40.888C21.6955 41.0373 21.5141 41.112 21.2901 41.112ZM21.0821 51C20.8688 51 20.7621 50.8933 20.7621 50.68V43.432C20.7621 43.2187 20.8688 43.112 21.0821 43.112H21.4981C21.7115 43.112 21.8181 43.2187 21.8181 43.432V50.68C21.8181 50.8933 21.7115 51 21.4981 51H21.0821ZM27.6884 42.92C28.6164 42.92 29.315 43.176 29.7844 43.688C30.2644 44.2 30.5044 44.84 30.5044 45.608V50.68C30.5044 50.8933 30.3977 51 30.1844 51H29.7684C29.555 51 29.4484 50.8933 29.4484 50.68V45.96C29.4484 45.256 29.2777 44.7227 28.9364 44.36C28.595 43.9973 28.1044 43.816 27.4644 43.816C27.059 43.816 26.6857 43.9173 26.3444 44.12C26.003 44.312 25.731 44.5787 25.5284 44.92C25.3257 45.2613 25.2244 45.6347 25.2244 46.04V50.68C25.2244 50.8933 25.1177 51 24.9044 51H24.4884C24.275 51 24.1684 50.8933 24.1684 50.68V43.432C24.1684 43.2187 24.275 43.112 24.4884 43.112H24.8404C25.0537 43.112 25.1604 43.2187 25.1604 43.432V44.2C25.427 43.7733 25.779 43.4533 26.2164 43.24C26.6537 43.0267 27.1444 42.92 27.6884 42.92ZM36.1735 50.12C36.2055 50.1093 36.2482 50.104 36.3015 50.104C36.3655 50.104 36.4242 50.1253 36.4775 50.168C36.5308 50.2107 36.5628 50.2693 36.5735 50.344L36.6215 50.568C36.6322 50.5893 36.6375 50.6267 36.6375 50.68C36.6375 50.8293 36.5575 50.92 36.3975 50.952C36.0135 51.0693 35.6028 51.128 35.1655 51.128C34.4722 51.128 33.9762 50.9733 33.6775 50.664C33.3895 50.344 33.2455 49.8853 33.2455 49.288V43.912H32.0615C31.8482 43.912 31.7415 43.8053 31.7415 43.592V43.432C31.7415 43.2187 31.8482 43.112 32.0615 43.112H33.2455V40.68C33.2455 40.4667 33.3522 40.36 33.5655 40.36H33.9815C34.1948 40.36 34.3015 40.4667 34.3015 40.68V43.112H36.2215C36.4348 43.112 36.5415 43.2187 36.5415 43.432V43.592C36.5415 43.8053 36.4348 43.912 36.2215 43.912H34.3015V49.16C34.3015 49.5547 34.3762 49.832 34.5255 49.992C34.6748 50.152 34.9308 50.232 35.2935 50.232C35.5495 50.232 35.8428 50.1947 36.1735 50.12Z" fill="#CACAD1"/>
</g>
<defs>
<clipPath id="clip0_28141_128923">
<rect width="316" height="22" fill="white" transform="translate(8 35)"/>
</clipPath>
</defs>
</svg>
