<svg width="332" height="170" viewBox="0 0 332 170" fill="none" xmlns="http://www.w3.org/2000/svg">
<rect width="332" height="170" fill="#F6F6F6"/>
<path d="M41.568 54C41.4187 54 41.2973 53.958 41.204 53.874C41.12 53.7807 41.078 53.6593 41.078 53.51V44.55C41.078 44.3913 41.12 44.27 41.204 44.186C41.2973 44.102 41.4187 44.06 41.568 44.06H42.184C42.3427 44.06 42.464 44.102 42.548 44.186C42.632 44.27 42.674 44.3913 42.674 44.55V52.642H46.72C46.8787 52.642 47 52.684 47.084 52.768C47.168 52.852 47.21 52.9733 47.21 53.132V53.51C47.21 53.6593 47.168 53.7807 47.084 53.874C47 53.958 46.8787 54 46.72 54H41.568ZM51.5043 46.888C52.4376 46.888 53.1563 47.1073 53.6603 47.546C54.1643 47.9753 54.4163 48.5493 54.4163 49.268V53.51C54.4163 53.6593 54.3743 53.7807 54.2903 53.874C54.2063 53.958 54.0849 54 53.9263 54H53.5623C53.4129 54 53.2916 53.958 53.1983 53.874C53.1143 53.7807 53.0723 53.6593 53.0723 53.51V53.202C52.8483 53.5287 52.5403 53.7807 52.1483 53.958C51.7563 54.1353 51.2989 54.224 50.7763 54.224C50.0576 54.224 49.4649 54.0653 48.9983 53.748C48.5409 53.4213 48.3123 52.9313 48.3123 52.278C48.3123 51.55 48.5829 51.0133 49.1243 50.668C49.6749 50.3133 50.4356 50.0473 51.4063 49.87L52.9883 49.576V49.324C52.9883 48.9413 52.8529 48.6473 52.5823 48.442C52.3209 48.2273 51.9709 48.12 51.5323 48.12C51.1589 48.12 50.8323 48.1853 50.5523 48.316C50.2816 48.4373 49.9876 48.6427 49.6703 48.932C49.5489 49.0347 49.4323 49.086 49.3203 49.086C49.2083 49.086 49.0916 49.0347 48.9703 48.932L48.7463 48.736C48.6249 48.624 48.5643 48.5027 48.5643 48.372C48.5643 48.2507 48.6203 48.134 48.7323 48.022C49.1336 47.6393 49.5583 47.3547 50.0063 47.168C50.4543 46.9813 50.9536 46.888 51.5043 46.888ZM50.9863 53.034C51.5463 53.034 52.0176 52.8847 52.4003 52.586C52.7923 52.2873 52.9883 51.858 52.9883 51.298V50.654L51.7703 50.906C51.0889 51.046 50.5849 51.2047 50.2583 51.382C49.9316 51.5593 49.7683 51.83 49.7683 52.194C49.7683 52.4553 49.8756 52.6607 50.0903 52.81C50.3049 52.9593 50.6036 53.034 50.9863 53.034ZM59.7798 46.916C60.3678 46.916 60.8905 47.0653 61.3478 47.364C61.8145 47.6627 62.1785 48.0873 62.4398 48.638C62.7011 49.1887 62.8318 49.8233 62.8318 50.542C62.8318 51.27 62.7011 51.9093 62.4398 52.46C62.1785 53.0107 61.8145 53.4353 61.3478 53.734C60.8811 54.0327 60.3585 54.182 59.7798 54.182C58.7438 54.182 57.9831 53.7947 57.4978 53.02V53.51C57.4978 53.6593 57.4558 53.7807 57.3718 53.874C57.2878 53.958 57.1665 54 57.0078 54H56.6018C56.4525 54 56.3311 53.958 56.2378 53.874C56.1538 53.7807 56.1118 53.6593 56.1118 53.51V44.55C56.1118 44.3913 56.1538 44.27 56.2378 44.186C56.3311 44.102 56.4525 44.06 56.6018 44.06H57.1058C57.2645 44.06 57.3858 44.102 57.4698 44.186C57.5538 44.27 57.5958 44.3913 57.5958 44.55V47.966C58.0905 47.266 58.8185 46.916 59.7798 46.916ZM59.4718 52.894C60.0318 52.894 60.4798 52.684 60.8158 52.264C61.1518 51.8347 61.3198 51.2607 61.3198 50.542C61.3198 49.8327 61.1518 49.2633 60.8158 48.834C60.4891 48.4047 60.0458 48.19 59.4858 48.19C58.9165 48.19 58.4498 48.4047 58.0858 48.834C57.7218 49.254 57.5398 49.8233 57.5398 50.542C57.5398 51.2793 57.7218 51.858 58.0858 52.278C58.4498 52.6887 58.9118 52.894 59.4718 52.894ZM69.2023 52.236C69.3236 52.1333 69.4403 52.082 69.5523 52.082C69.6643 52.082 69.7809 52.1427 69.9023 52.264L70.0983 52.474C70.2009 52.5953 70.2523 52.712 70.2523 52.824C70.2523 52.9453 70.1916 53.062 70.0703 53.174C69.6409 53.5473 69.2116 53.8133 68.7823 53.972C68.3623 54.1307 67.8956 54.21 67.3823 54.21C66.6636 54.21 66.0383 54.0607 65.5063 53.762C64.9836 53.4633 64.5776 53.0433 64.2883 52.502C64.0083 51.9513 63.8682 51.3167 63.8682 50.598C63.8682 49.8887 64.0036 49.254 64.2743 48.694C64.5543 48.1247 64.9463 47.6813 65.4503 47.364C65.9636 47.0467 66.5609 46.888 67.2423 46.888C68.2596 46.888 69.0436 47.1913 69.5943 47.798C70.1449 48.3953 70.4203 49.2213 70.4203 50.276V50.402C70.4109 50.5513 70.3643 50.668 70.2803 50.752C70.1963 50.836 70.0749 50.878 69.9163 50.878H65.3243C65.3803 51.494 65.5809 51.998 65.9263 52.39C66.2809 52.7727 66.7756 52.964 67.4103 52.964C67.7556 52.964 68.0589 52.9127 68.3203 52.81C68.5816 52.698 68.8756 52.5067 69.2023 52.236ZM67.2143 48.064C66.7009 48.064 66.2856 48.218 65.9683 48.526C65.6603 48.8247 65.4596 49.2493 65.3663 49.8H68.9643C68.9269 49.2587 68.7589 48.834 68.4603 48.526C68.1616 48.218 67.7463 48.064 67.2143 48.064ZM72.3258 54C72.1764 54 72.0551 53.958 71.9618 53.874C71.8778 53.7807 71.8358 53.6593 71.8358 53.51V44.55C71.8358 44.3913 71.8778 44.27 71.9618 44.186C72.0551 44.102 72.1764 44.06 72.3258 44.06H72.8298C72.9884 44.06 73.1098 44.102 73.1938 44.186C73.2778 44.27 73.3198 44.3913 73.3198 44.55V53.51C73.3198 53.6593 73.2778 53.7807 73.1938 53.874C73.1098 53.958 72.9884 54 72.8298 54H72.3258Z" fill="#1B1B1F"/>
<rect x="40.5" y="62.5" width="251" height="47" rx="3.5" fill="white"/>
<rect x="40.5" y="62.5" width="251" height="47" rx="3.5" stroke="#84848F"/>
<g clip-path="url(#clip0_4508_23718)">
<path d="M53.16 90C53.04 90 52.944 89.948 52.872 89.844L50.844 86.892L49.68 88.08V89.76C49.68 89.92 49.6 90 49.44 90H49.128C48.968 90 48.888 89.92 48.888 89.76V81.72C48.888 81.56 48.968 81.48 49.128 81.48H49.44C49.6 81.48 49.68 81.56 49.68 81.72V87.18L52.56 84.192C52.632 84.112 52.732 84.072 52.86 84.072H53.196C53.26 84.072 53.308 84.088 53.34 84.12C53.38 84.144 53.4 84.176 53.4 84.216C53.4 84.256 53.376 84.308 53.328 84.372L51.396 86.388L53.664 89.712C53.696 89.768 53.712 89.816 53.712 89.856C53.712 89.952 53.648 90 53.52 90H53.16ZM57.0726 84.036C57.2726 84.036 57.5086 84.068 57.7806 84.132C57.9246 84.18 57.9806 84.28 57.9486 84.432L57.9006 84.624C57.8606 84.776 57.7606 84.832 57.6006 84.792C57.4086 84.744 57.2326 84.72 57.0726 84.72C56.6646 84.72 56.3246 84.896 56.0526 85.248C55.7886 85.6 55.6566 86.088 55.6566 86.712V89.76C55.6566 89.92 55.5766 90 55.4166 90H55.1046C54.9446 90 54.8646 89.92 54.8646 89.76V84.324C54.8646 84.164 54.9446 84.084 55.1046 84.084H55.3686C55.5286 84.084 55.6086 84.164 55.6086 84.324V84.984C55.7446 84.688 55.9366 84.456 56.1846 84.288C56.4406 84.12 56.7366 84.036 57.0726 84.036Z" fill="#5C5C66"/>
<path d="M68.696 91C68.4827 91 68.376 90.8933 68.376 90.68V79.96C68.376 79.7467 68.4827 79.64 68.696 79.64H73C74.0987 79.64 74.984 79.928 75.656 80.504C76.328 81.08 76.664 81.896 76.664 82.952C76.664 84.008 76.328 84.8293 75.656 85.416C74.984 85.992 74.0987 86.28 73 86.28H69.512V90.68C69.512 90.8933 69.4053 91 69.192 91H68.696ZM72.856 85.336C73.688 85.336 74.344 85.1333 74.824 84.728C75.304 84.3227 75.544 83.7307 75.544 82.952C75.544 82.184 75.304 81.5973 74.824 81.192C74.344 80.7867 73.688 80.584 72.856 80.584H69.512V85.336H72.856ZM78.7075 91C78.4942 91 78.3875 90.8933 78.3875 90.68V79.96C78.3875 79.7467 78.4942 79.64 78.7075 79.64H79.1235C79.3368 79.64 79.4435 79.7467 79.4435 79.96V90.68C79.4435 90.8933 79.3368 91 79.1235 91H78.7075ZM84.8646 82.92C85.8353 82.92 86.5926 83.1547 87.1366 83.624C87.6806 84.0827 87.9526 84.6907 87.9526 85.448V90.68C87.9526 90.8933 87.846 91 87.6326 91H87.3126C87.0993 91 86.9926 90.8933 86.9926 90.68V89.96C86.726 90.3867 86.3473 90.7067 85.8566 90.92C85.3766 91.1333 84.838 91.24 84.2406 91.24C83.4086 91.24 82.7313 91.064 82.2086 90.712C81.686 90.36 81.4246 89.816 81.4246 89.08C81.4246 88.4933 81.59 88.024 81.9206 87.672C82.2513 87.3093 82.6833 87.0373 83.2166 86.856C83.75 86.664 84.4166 86.4933 85.2166 86.344L86.9446 86.04V85.528C86.9446 84.984 86.758 84.5627 86.3846 84.264C86.0113 83.9547 85.5206 83.8 84.9126 83.8C84.454 83.8 84.038 83.8853 83.6646 84.056C83.2913 84.2267 82.8913 84.52 82.4646 84.936C82.39 85.0107 82.31 85.048 82.2246 85.048C82.15 85.048 82.0806 85.016 82.0166 84.952L81.8086 84.76C81.734 84.6853 81.6966 84.6053 81.6966 84.52C81.6966 84.424 81.734 84.3387 81.8086 84.264C82.2566 83.7947 82.726 83.4533 83.2166 83.24C83.718 83.0267 84.2673 82.92 84.8646 82.92ZM84.2886 90.36C85.0566 90.36 85.6913 90.1573 86.1926 89.752C86.694 89.3467 86.9446 88.8293 86.9446 88.2V86.856L85.4566 87.144C84.7633 87.2827 84.214 87.416 83.8086 87.544C83.4033 87.672 83.078 87.8587 82.8326 88.104C82.5873 88.3493 82.4646 88.6693 82.4646 89.064C82.4646 89.4693 82.6246 89.7893 82.9446 90.024C83.2753 90.248 83.7233 90.36 84.2886 90.36ZM93.4934 91.208C92.736 91.208 92.0747 91.0373 91.5094 90.696C90.9547 90.344 90.5227 89.8587 90.2134 89.24C89.9147 88.6107 89.7654 87.8853 89.7654 87.064C89.7654 86.2533 89.9147 85.5333 90.2134 84.904C90.5227 84.2747 90.9547 83.7893 91.5094 83.448C92.0747 83.096 92.7254 82.92 93.4614 82.92C94.0587 82.92 94.5814 83.0213 95.0294 83.224C95.4774 83.416 95.9094 83.736 96.3254 84.184C96.3894 84.248 96.4214 84.3173 96.4214 84.392C96.4214 84.488 96.3787 84.568 96.2934 84.632L96.0694 84.84C96.0054 84.904 95.9307 84.936 95.8454 84.936C95.7707 84.936 95.6907 84.8933 95.6054 84.808C95.232 84.4347 94.8747 84.1733 94.5334 84.024C94.2027 83.8747 93.8347 83.8 93.4294 83.8C92.8747 83.8 92.4 83.9547 92.0054 84.264C91.6214 84.5733 91.3334 84.9787 91.1414 85.48C90.9494 85.9707 90.8534 86.4987 90.8534 87.064C90.8534 87.6293 90.9494 88.1627 91.1414 88.664C91.3334 89.1547 91.6267 89.5547 92.0214 89.864C92.416 90.1627 92.9014 90.312 93.4774 90.312C93.904 90.312 94.2774 90.2373 94.5974 90.088C94.928 89.928 95.296 89.6293 95.7014 89.192C95.7867 89.1067 95.8667 89.064 95.9414 89.064C96.0267 89.064 96.1014 89.096 96.1654 89.16L96.3894 89.336C96.464 89.4 96.5014 89.4747 96.5014 89.56C96.5014 89.6453 96.4534 89.7467 96.3574 89.864C95.9094 90.3547 95.4614 90.7013 95.0134 90.904C94.5654 91.1067 94.0587 91.208 93.4934 91.208ZM103.803 89.128C103.878 89.0533 103.958 89.016 104.043 89.016C104.118 89.016 104.187 89.048 104.251 89.112L104.459 89.304C104.534 89.3787 104.571 89.4587 104.571 89.544C104.571 89.608 104.539 89.6827 104.475 89.768C103.952 90.2907 103.446 90.664 102.955 90.888C102.464 91.1013 101.915 91.208 101.307 91.208C100.539 91.208 99.8723 91.0373 99.307 90.696C98.7417 90.3547 98.3043 89.88 97.995 89.272C97.6857 88.6533 97.531 87.9387 97.531 87.128C97.531 86.3067 97.6803 85.5813 97.979 84.952C98.2883 84.312 98.7203 83.816 99.275 83.464C99.8297 83.1013 100.47 82.92 101.195 82.92C102.272 82.92 103.12 83.256 103.739 83.928C104.358 84.6 104.667 85.5067 104.667 86.648V86.84C104.656 86.936 104.619 87.0107 104.555 87.064C104.502 87.1173 104.427 87.144 104.331 87.144H98.603C98.635 88.04 98.8697 88.7973 99.307 89.416C99.755 90.024 100.422 90.328 101.307 90.328C101.787 90.328 102.208 90.2427 102.571 90.072C102.944 89.8907 103.355 89.576 103.803 89.128ZM101.195 83.8C100.491 83.8 99.9097 84.0187 99.451 84.456C99.003 84.8827 98.731 85.512 98.635 86.344H103.611C103.59 85.5653 103.366 84.9467 102.939 84.488C102.512 84.0293 101.931 83.8 101.195 83.8ZM110.079 82.92C110.996 82.92 111.695 83.1813 112.175 83.704C112.655 84.216 112.895 84.8507 112.895 85.608V90.68C112.895 90.8933 112.788 91 112.575 91H112.159C111.946 91 111.839 90.8933 111.839 90.68V85.96C111.839 85.256 111.668 84.7227 111.327 84.36C110.986 83.9973 110.495 83.816 109.855 83.816C109.45 83.816 109.076 83.9173 108.735 84.12C108.394 84.312 108.122 84.5787 107.919 84.92C107.716 85.2613 107.615 85.6347 107.615 86.04V90.68C107.615 90.8933 107.508 91 107.295 91H106.879C106.666 91 106.559 90.8933 106.559 90.68V79.96C106.559 79.7467 106.666 79.64 106.879 79.64H107.295C107.508 79.64 107.615 79.7467 107.615 79.96V84.136C107.871 83.7307 108.212 83.4267 108.639 83.224C109.076 83.0213 109.556 82.92 110.079 82.92ZM118.495 91.208C117.759 91.208 117.103 91.032 116.527 90.68C115.951 90.328 115.503 89.8427 115.183 89.224C114.863 88.5947 114.703 87.8747 114.703 87.064C114.703 86.2533 114.863 85.5387 115.183 84.92C115.503 84.2907 115.951 83.8 116.527 83.448C117.103 83.096 117.759 82.92 118.495 82.92C119.231 82.92 119.887 83.096 120.463 83.448C121.039 83.8 121.487 84.2907 121.807 84.92C122.127 85.5387 122.287 86.2533 122.287 87.064C122.287 87.8747 122.127 88.5947 121.807 89.224C121.487 89.8427 121.039 90.328 120.463 90.68C119.887 91.032 119.231 91.208 118.495 91.208ZM118.495 90.328C119.316 90.328 119.972 90.0293 120.463 89.432C120.954 88.824 121.199 88.0347 121.199 87.064C121.199 86.0933 120.954 85.3093 120.463 84.712C119.972 84.104 119.316 83.8 118.495 83.8C117.674 83.8 117.018 84.104 116.527 84.712C116.036 85.3093 115.791 86.0933 115.791 87.064C115.791 88.0347 116.036 88.824 116.527 89.432C117.018 90.0293 117.674 90.328 118.495 90.328ZM124.458 91C124.244 91 124.138 90.8933 124.138 90.68V79.96C124.138 79.7467 124.244 79.64 124.458 79.64H124.874C125.087 79.64 125.194 79.7467 125.194 79.96V90.68C125.194 90.8933 125.087 91 124.874 91H124.458ZM133.271 79.96C133.271 79.7467 133.377 79.64 133.591 79.64H134.007C134.22 79.64 134.327 79.7467 134.327 79.96V90.68C134.327 90.8933 134.22 91 134.007 91H133.671C133.457 91 133.351 90.8933 133.351 90.68V89.64C133.063 90.1413 132.684 90.5253 132.215 90.792C131.745 91.0587 131.191 91.192 130.551 91.192C129.879 91.192 129.281 91.0213 128.759 90.68C128.236 90.328 127.825 89.8427 127.527 89.224C127.228 88.5947 127.079 87.8747 127.079 87.064C127.079 86.2533 127.228 85.5387 127.527 84.92C127.836 84.2907 128.257 83.8053 128.791 83.464C129.324 83.112 129.921 82.936 130.583 82.936C131.799 82.936 132.695 83.3893 133.271 84.296V79.96ZM130.631 90.296C131.431 90.296 132.076 90.0133 132.567 89.448C133.068 88.872 133.319 88.0773 133.319 87.064C133.319 86.0613 133.068 85.272 132.567 84.696C132.076 84.12 131.431 83.832 130.631 83.832C129.895 83.832 129.297 84.1307 128.839 84.728C128.391 85.3253 128.167 86.104 128.167 87.064C128.167 88.0347 128.391 88.8187 128.839 89.416C129.287 90.0027 129.884 90.296 130.631 90.296ZM142.444 89.128C142.518 89.0533 142.598 89.016 142.684 89.016C142.758 89.016 142.828 89.048 142.892 89.112L143.1 89.304C143.174 89.3787 143.212 89.4587 143.212 89.544C143.212 89.608 143.18 89.6827 143.116 89.768C142.593 90.2907 142.086 90.664 141.596 90.888C141.105 91.1013 140.556 91.208 139.948 91.208C139.18 91.208 138.513 91.0373 137.948 90.696C137.382 90.3547 136.945 89.88 136.636 89.272C136.326 88.6533 136.172 87.9387 136.172 87.128C136.172 86.3067 136.321 85.5813 136.62 84.952C136.929 84.312 137.361 83.816 137.916 83.464C138.47 83.1013 139.11 82.92 139.836 82.92C140.913 82.92 141.761 83.256 142.38 83.928C142.998 84.6 143.308 85.5067 143.308 86.648V86.84C143.297 86.936 143.26 87.0107 143.196 87.064C143.142 87.1173 143.068 87.144 142.972 87.144H137.244C137.276 88.04 137.51 88.7973 137.948 89.416C138.396 90.024 139.062 90.328 139.948 90.328C140.428 90.328 140.849 90.2427 141.212 90.072C141.585 89.8907 141.996 89.576 142.444 89.128ZM139.836 83.8C139.132 83.8 138.55 84.0187 138.092 84.456C137.644 84.8827 137.372 85.512 137.276 86.344H142.252C142.23 85.5653 142.006 84.9467 141.58 84.488C141.153 84.0293 140.572 83.8 139.836 83.8ZM148.144 83.048C148.41 83.048 148.725 83.0907 149.088 83.176C149.28 83.24 149.354 83.3733 149.312 83.576L149.248 83.832C149.194 84.0347 149.061 84.1093 148.848 84.056C148.592 83.992 148.357 83.96 148.144 83.96C147.6 83.96 147.146 84.1947 146.784 84.664C146.432 85.1333 146.256 85.784 146.256 86.616V90.68C146.256 90.8933 146.149 91 145.936 91H145.52C145.306 91 145.2 90.8933 145.2 90.68V83.432C145.2 83.2187 145.306 83.112 145.52 83.112H145.872C146.085 83.112 146.192 83.2187 146.192 83.432V84.312C146.373 83.9173 146.629 83.608 146.96 83.384C147.301 83.16 147.696 83.048 148.144 83.048Z" fill="#CACAD1"/>
<path d="M278.16 90C278.04 90 277.944 89.948 277.872 89.844L275.844 86.892L274.68 88.08V89.76C274.68 89.92 274.6 90 274.44 90H274.128C273.968 90 273.888 89.92 273.888 89.76V81.72C273.888 81.56 273.968 81.48 274.128 81.48H274.44C274.6 81.48 274.68 81.56 274.68 81.72V87.18L277.56 84.192C277.632 84.112 277.732 84.072 277.86 84.072H278.196C278.26 84.072 278.308 84.088 278.34 84.12C278.38 84.144 278.4 84.176 278.4 84.216C278.4 84.256 278.376 84.308 278.328 84.372L276.396 86.388L278.664 89.712C278.696 89.768 278.712 89.816 278.712 89.856C278.712 89.952 278.648 90 278.52 90H278.16ZM282.073 84.036C282.273 84.036 282.509 84.068 282.781 84.132C282.925 84.18 282.981 84.28 282.949 84.432L282.901 84.624C282.861 84.776 282.761 84.832 282.601 84.792C282.409 84.744 282.233 84.72 282.073 84.72C281.665 84.72 281.325 84.896 281.053 85.248C280.789 85.6 280.657 86.088 280.657 86.712V89.76C280.657 89.92 280.577 90 280.417 90H280.105C279.945 90 279.865 89.92 279.865 89.76V84.324C279.865 84.164 279.945 84.084 280.105 84.084H280.369C280.529 84.084 280.609 84.164 280.609 84.324V84.984C280.745 84.688 280.937 84.456 281.185 84.288C281.441 84.12 281.737 84.036 282.073 84.036Z" fill="#5C5C66"/>
</g>
<path d="M41.272 126C41.112 126 41.032 125.92 41.032 125.76V117.72C41.032 117.56 41.112 117.48 41.272 117.48H41.644C41.804 117.48 41.884 117.56 41.884 117.72V121.248H46.804V117.72C46.804 117.56 46.884 117.48 47.044 117.48H47.416C47.576 117.48 47.656 117.56 47.656 117.72V125.76C47.656 125.92 47.576 126 47.416 126H47.044C46.884 126 46.804 125.92 46.804 125.76V121.956H41.884V125.76C41.884 125.92 41.804 126 41.644 126H41.272ZM53.8796 124.596C53.9356 124.54 53.9956 124.512 54.0596 124.512C54.1156 124.512 54.1676 124.536 54.2156 124.584L54.3716 124.728C54.4276 124.784 54.4556 124.844 54.4556 124.908C54.4556 124.956 54.4316 125.012 54.3836 125.076C53.9916 125.468 53.6116 125.748 53.2436 125.916C52.8756 126.076 52.4636 126.156 52.0076 126.156C51.4316 126.156 50.9316 126.028 50.5076 125.772C50.0836 125.516 49.7556 125.16 49.5236 124.704C49.2916 124.24 49.1756 123.704 49.1756 123.096C49.1756 122.48 49.2876 121.936 49.5116 121.464C49.7436 120.984 50.0676 120.612 50.4836 120.348C50.8996 120.076 51.3796 119.94 51.9236 119.94C52.7316 119.94 53.3676 120.192 53.8316 120.696C54.2956 121.2 54.5276 121.88 54.5276 122.736V122.88C54.5196 122.952 54.4916 123.008 54.4436 123.048C54.4036 123.088 54.3476 123.108 54.2756 123.108H49.9796C50.0036 123.78 50.1796 124.348 50.5076 124.812C50.8436 125.268 51.3436 125.496 52.0076 125.496C52.3676 125.496 52.6836 125.432 52.9556 125.304C53.2356 125.168 53.5436 124.932 53.8796 124.596ZM51.9236 120.6C51.3956 120.6 50.9596 120.764 50.6156 121.092C50.2796 121.412 50.0756 121.884 50.0036 122.508H53.7356C53.7196 121.924 53.5516 121.46 53.2316 121.116C52.9116 120.772 52.4756 120.6 51.9236 120.6ZM56.1986 126C56.0386 126 55.9586 125.92 55.9586 125.76V117.72C55.9586 117.56 56.0386 117.48 56.1986 117.48H56.5106C56.6706 117.48 56.7506 117.56 56.7506 117.72V125.76C56.7506 125.92 56.6706 126 56.5106 126H56.1986ZM61.3684 119.952C61.8644 119.952 62.3084 120.084 62.7004 120.348C63.1004 120.604 63.4124 120.968 63.6364 121.44C63.8604 121.904 63.9724 122.436 63.9724 123.036C63.9724 123.644 63.8604 124.184 63.6364 124.656C63.4124 125.128 63.1044 125.496 62.7124 125.76C62.3204 126.016 61.8724 126.144 61.3684 126.144C60.4404 126.144 59.7604 125.804 59.3284 125.124V127.968C59.3284 128.128 59.2484 128.208 59.0884 128.208H58.7764C58.6164 128.208 58.5364 128.128 58.5364 127.968V120.324C58.5364 120.164 58.6164 120.084 58.7764 120.084H59.0404C59.2004 120.084 59.2804 120.164 59.2804 120.324V121.08C59.4964 120.712 59.7804 120.432 60.1324 120.24C60.4844 120.048 60.8964 119.952 61.3684 119.952ZM61.3084 125.472C61.8684 125.472 62.3164 125.248 62.6524 124.8C62.9884 124.352 63.1564 123.764 63.1564 123.036C63.1564 122.316 62.9884 121.736 62.6524 121.296C62.3164 120.848 61.8684 120.624 61.3084 120.624C60.7084 120.624 60.2204 120.84 59.8444 121.272C59.4764 121.696 59.2924 122.284 59.2924 123.036C59.2924 123.788 59.4804 124.384 59.8564 124.824C60.2324 125.256 60.7164 125.472 61.3084 125.472ZM70.8098 125.34C70.8338 125.332 70.8658 125.328 70.9058 125.328C70.9538 125.328 70.9978 125.344 71.0378 125.376C71.0778 125.408 71.1018 125.452 71.1098 125.508L71.1458 125.676C71.1538 125.692 71.1578 125.72 71.1578 125.76C71.1578 125.872 71.0978 125.94 70.9778 125.964C70.6898 126.052 70.3818 126.096 70.0538 126.096C69.5338 126.096 69.1618 125.98 68.9378 125.748C68.7218 125.508 68.6138 125.164 68.6138 124.716V120.684H67.7258C67.5658 120.684 67.4858 120.604 67.4858 120.444V120.324C67.4858 120.164 67.5658 120.084 67.7258 120.084H68.6138V118.26C68.6138 118.1 68.6938 118.02 68.8538 118.02H69.1658C69.3258 118.02 69.4058 118.1 69.4058 118.26V120.084H70.8458C71.0058 120.084 71.0858 120.164 71.0858 120.324V120.444C71.0858 120.604 71.0058 120.684 70.8458 120.684H69.4058V124.62C69.4058 124.916 69.4618 125.124 69.5738 125.244C69.6858 125.364 69.8778 125.424 70.1498 125.424C70.3418 125.424 70.5618 125.396 70.8098 125.34ZM76.3796 124.596C76.4356 124.54 76.4956 124.512 76.5596 124.512C76.6156 124.512 76.6676 124.536 76.7156 124.584L76.8716 124.728C76.9276 124.784 76.9556 124.844 76.9556 124.908C76.9556 124.956 76.9316 125.012 76.8836 125.076C76.4916 125.468 76.1116 125.748 75.7436 125.916C75.3756 126.076 74.9636 126.156 74.5076 126.156C73.9316 126.156 73.4316 126.028 73.0076 125.772C72.5836 125.516 72.2556 125.16 72.0236 124.704C71.7916 124.24 71.6756 123.704 71.6756 123.096C71.6756 122.48 71.7876 121.936 72.0116 121.464C72.2436 120.984 72.5676 120.612 72.9836 120.348C73.3996 120.076 73.8796 119.94 74.4236 119.94C75.2316 119.94 75.8676 120.192 76.3316 120.696C76.7956 121.2 77.0276 121.88 77.0276 122.736V122.88C77.0196 122.952 76.9916 123.008 76.9436 123.048C76.9036 123.088 76.8476 123.108 76.7756 123.108H72.4796C72.5036 123.78 72.6796 124.348 73.0076 124.812C73.3436 125.268 73.8436 125.496 74.5076 125.496C74.8676 125.496 75.1836 125.432 75.4556 125.304C75.7356 125.168 76.0436 124.932 76.3796 124.596ZM74.4236 120.6C73.8956 120.6 73.4596 120.764 73.1156 121.092C72.7796 121.412 72.5756 121.884 72.5036 122.508H76.2356C76.2196 121.924 76.0516 121.46 75.7316 121.116C75.4116 120.772 74.9756 120.6 74.4236 120.6ZM82.6383 125.712C82.6703 125.768 82.6863 125.816 82.6863 125.856C82.6863 125.952 82.6223 126 82.4943 126H82.1343C82.0143 126 81.9183 125.948 81.8463 125.844L80.2143 123.444L78.5943 125.844C78.5223 125.948 78.4263 126 78.3063 126H77.9703C77.9063 126 77.8543 125.988 77.8143 125.964C77.7823 125.932 77.7663 125.896 77.7663 125.856C77.7663 125.8 77.7823 125.752 77.8143 125.712L79.7583 122.916L77.9703 120.372C77.9383 120.332 77.9223 120.288 77.9223 120.24C77.9223 120.136 77.9903 120.084 78.1263 120.084H78.4743C78.5943 120.084 78.6903 120.136 78.7623 120.24L80.2263 122.388L81.6783 120.24C81.7503 120.136 81.8463 120.084 81.9663 120.084H82.2903C82.3543 120.084 82.4023 120.1 82.4343 120.132C82.4743 120.156 82.4943 120.188 82.4943 120.228C82.4943 120.284 82.4783 120.332 82.4463 120.372L80.6943 122.88L82.6383 125.712ZM86.6184 125.34C86.6424 125.332 86.6744 125.328 86.7144 125.328C86.7624 125.328 86.8064 125.344 86.8464 125.376C86.8864 125.408 86.9104 125.452 86.9184 125.508L86.9544 125.676C86.9624 125.692 86.9664 125.72 86.9664 125.76C86.9664 125.872 86.9064 125.94 86.7864 125.964C86.4984 126.052 86.1904 126.096 85.8624 126.096C85.3424 126.096 84.9704 125.98 84.7464 125.748C84.5304 125.508 84.4224 125.164 84.4224 124.716V120.684H83.5344C83.3744 120.684 83.2944 120.604 83.2944 120.444V120.324C83.2944 120.164 83.3744 120.084 83.5344 120.084H84.4224V118.26C84.4224 118.1 84.5024 118.02 84.6624 118.02H84.9744C85.1344 118.02 85.2144 118.1 85.2144 118.26V120.084H86.6544C86.8144 120.084 86.8944 120.164 86.8944 120.324V120.444C86.8944 120.604 86.8144 120.684 86.6544 120.684H85.2144V124.62C85.2144 124.916 85.2704 125.124 85.3824 125.244C85.4944 125.364 85.6864 125.424 85.9584 125.424C86.1504 125.424 86.3704 125.396 86.6184 125.34Z" fill="#5C5C66"/>
<defs>
<clipPath id="clip0_4508_23718">
<rect width="236" height="22" fill="white" transform="translate(48 75)"/>
</clipPath>
</defs>
</svg>
