<svg width="332" height="170" viewBox="0 0 332 170" fill="none" xmlns="http://www.w3.org/2000/svg">
<rect width="332" height="170" fill="#F6F6F6"/>
<path d="M41.568 54C41.4187 54 41.2973 53.958 41.204 53.874C41.12 53.7807 41.078 53.6593 41.078 53.51V44.55C41.078 44.3913 41.12 44.27 41.204 44.186C41.2973 44.102 41.4187 44.06 41.568 44.06H42.184C42.3427 44.06 42.464 44.102 42.548 44.186C42.632 44.27 42.674 44.3913 42.674 44.55V52.642H46.72C46.8787 52.642 47 52.684 47.084 52.768C47.168 52.852 47.21 52.9733 47.21 53.132V53.51C47.21 53.6593 47.168 53.7807 47.084 53.874C47 53.958 46.8787 54 46.72 54H41.568ZM51.5043 46.888C52.4376 46.888 53.1563 47.1073 53.6603 47.546C54.1643 47.9753 54.4163 48.5493 54.4163 49.268V53.51C54.4163 53.6593 54.3743 53.7807 54.2903 53.874C54.2063 53.958 54.0849 54 53.9263 54H53.5623C53.4129 54 53.2916 53.958 53.1983 53.874C53.1143 53.7807 53.0723 53.6593 53.0723 53.51V53.202C52.8483 53.5287 52.5403 53.7807 52.1483 53.958C51.7563 54.1353 51.2989 54.224 50.7763 54.224C50.0576 54.224 49.4649 54.0653 48.9983 53.748C48.5409 53.4213 48.3123 52.9313 48.3123 52.278C48.3123 51.55 48.5829 51.0133 49.1243 50.668C49.6749 50.3133 50.4356 50.0473 51.4063 49.87L52.9883 49.576V49.324C52.9883 48.9413 52.8529 48.6473 52.5823 48.442C52.3209 48.2273 51.9709 48.12 51.5323 48.12C51.1589 48.12 50.8323 48.1853 50.5523 48.316C50.2816 48.4373 49.9876 48.6427 49.6703 48.932C49.5489 49.0347 49.4323 49.086 49.3203 49.086C49.2083 49.086 49.0916 49.0347 48.9703 48.932L48.7463 48.736C48.6249 48.624 48.5643 48.5027 48.5643 48.372C48.5643 48.2507 48.6203 48.134 48.7323 48.022C49.1336 47.6393 49.5583 47.3547 50.0063 47.168C50.4543 46.9813 50.9536 46.888 51.5043 46.888ZM50.9863 53.034C51.5463 53.034 52.0176 52.8847 52.4003 52.586C52.7923 52.2873 52.9883 51.858 52.9883 51.298V50.654L51.7703 50.906C51.0889 51.046 50.5849 51.2047 50.2583 51.382C49.9316 51.5593 49.7683 51.83 49.7683 52.194C49.7683 52.4553 49.8756 52.6607 50.0903 52.81C50.3049 52.9593 50.6036 53.034 50.9863 53.034ZM59.7798 46.916C60.3678 46.916 60.8905 47.0653 61.3478 47.364C61.8145 47.6627 62.1785 48.0873 62.4398 48.638C62.7011 49.1887 62.8318 49.8233 62.8318 50.542C62.8318 51.27 62.7011 51.9093 62.4398 52.46C62.1785 53.0107 61.8145 53.4353 61.3478 53.734C60.8811 54.0327 60.3585 54.182 59.7798 54.182C58.7438 54.182 57.9831 53.7947 57.4978 53.02V53.51C57.4978 53.6593 57.4558 53.7807 57.3718 53.874C57.2878 53.958 57.1665 54 57.0078 54H56.6018C56.4525 54 56.3311 53.958 56.2378 53.874C56.1538 53.7807 56.1118 53.6593 56.1118 53.51V44.55C56.1118 44.3913 56.1538 44.27 56.2378 44.186C56.3311 44.102 56.4525 44.06 56.6018 44.06H57.1058C57.2645 44.06 57.3858 44.102 57.4698 44.186C57.5538 44.27 57.5958 44.3913 57.5958 44.55V47.966C58.0905 47.266 58.8185 46.916 59.7798 46.916ZM59.4718 52.894C60.0318 52.894 60.4798 52.684 60.8158 52.264C61.1518 51.8347 61.3198 51.2607 61.3198 50.542C61.3198 49.8327 61.1518 49.2633 60.8158 48.834C60.4891 48.4047 60.0458 48.19 59.4858 48.19C58.9165 48.19 58.4498 48.4047 58.0858 48.834C57.7218 49.254 57.5398 49.8233 57.5398 50.542C57.5398 51.2793 57.7218 51.858 58.0858 52.278C58.4498 52.6887 58.9118 52.894 59.4718 52.894ZM69.2023 52.236C69.3236 52.1333 69.4403 52.082 69.5523 52.082C69.6643 52.082 69.7809 52.1427 69.9023 52.264L70.0983 52.474C70.2009 52.5953 70.2523 52.712 70.2523 52.824C70.2523 52.9453 70.1916 53.062 70.0703 53.174C69.6409 53.5473 69.2116 53.8133 68.7823 53.972C68.3623 54.1307 67.8956 54.21 67.3823 54.21C66.6636 54.21 66.0383 54.0607 65.5063 53.762C64.9836 53.4633 64.5776 53.0433 64.2883 52.502C64.0083 51.9513 63.8682 51.3167 63.8682 50.598C63.8682 49.8887 64.0036 49.254 64.2743 48.694C64.5543 48.1247 64.9463 47.6813 65.4503 47.364C65.9636 47.0467 66.5609 46.888 67.2423 46.888C68.2596 46.888 69.0436 47.1913 69.5943 47.798C70.1449 48.3953 70.4203 49.2213 70.4203 50.276V50.402C70.4109 50.5513 70.3643 50.668 70.2803 50.752C70.1963 50.836 70.0749 50.878 69.9163 50.878H65.3243C65.3803 51.494 65.5809 51.998 65.9263 52.39C66.2809 52.7727 66.7756 52.964 67.4103 52.964C67.7556 52.964 68.0589 52.9127 68.3203 52.81C68.5816 52.698 68.8756 52.5067 69.2023 52.236ZM67.2143 48.064C66.7009 48.064 66.2856 48.218 65.9683 48.526C65.6603 48.8247 65.4596 49.2493 65.3663 49.8H68.9643C68.9269 49.2587 68.7589 48.834 68.4603 48.526C68.1616 48.218 67.7463 48.064 67.2143 48.064ZM72.3258 54C72.1764 54 72.0551 53.958 71.9618 53.874C71.8778 53.7807 71.8358 53.6593 71.8358 53.51V44.55C71.8358 44.3913 71.8778 44.27 71.9618 44.186C72.0551 44.102 72.1764 44.06 72.3258 44.06H72.8298C72.9884 44.06 73.1098 44.102 73.1938 44.186C73.2778 44.27 73.3198 44.3913 73.3198 44.55V53.51C73.3198 53.6593 73.2778 53.7807 73.1938 53.874C73.1098 53.958 72.9884 54 72.8298 54H72.3258Z" fill="#1B1B1F"/>
<rect x="40.5" y="62.5" width="251" height="47" rx="3.5" fill="white"/>
<rect x="40.5" y="62.5" width="251" height="47" rx="3.5" stroke="#D91F0A"/>
<g clip-path="url(#clip0_4517_25838)">
<path d="M49.696 91C49.4827 91 49.376 90.8933 49.376 90.68V79.96C49.376 79.7467 49.4827 79.64 49.696 79.64H54C55.0987 79.64 55.984 79.928 56.656 80.504C57.328 81.08 57.664 81.896 57.664 82.952C57.664 84.008 57.328 84.8293 56.656 85.416C55.984 85.992 55.0987 86.28 54 86.28H50.512V90.68C50.512 90.8933 50.4053 91 50.192 91H49.696ZM53.856 85.336C54.688 85.336 55.344 85.1333 55.824 84.728C56.304 84.3227 56.544 83.7307 56.544 82.952C56.544 82.184 56.304 81.5973 55.824 81.192C55.344 80.7867 54.688 80.584 53.856 80.584H50.512V85.336H53.856ZM59.7075 91C59.4942 91 59.3875 90.8933 59.3875 90.68V79.96C59.3875 79.7467 59.4942 79.64 59.7075 79.64H60.1235C60.3368 79.64 60.4435 79.7467 60.4435 79.96V90.68C60.4435 90.8933 60.3368 91 60.1235 91H59.7075ZM65.8646 82.92C66.8353 82.92 67.5926 83.1547 68.1366 83.624C68.6806 84.0827 68.9526 84.6907 68.9526 85.448V90.68C68.9526 90.8933 68.846 91 68.6326 91H68.3126C68.0993 91 67.9926 90.8933 67.9926 90.68V89.96C67.726 90.3867 67.3473 90.7067 66.8566 90.92C66.3766 91.1333 65.838 91.24 65.2406 91.24C64.4086 91.24 63.7313 91.064 63.2086 90.712C62.686 90.36 62.4246 89.816 62.4246 89.08C62.4246 88.4933 62.59 88.024 62.9206 87.672C63.2513 87.3093 63.6833 87.0373 64.2166 86.856C64.75 86.664 65.4166 86.4933 66.2166 86.344L67.9446 86.04V85.528C67.9446 84.984 67.758 84.5627 67.3846 84.264C67.0113 83.9547 66.5206 83.8 65.9126 83.8C65.454 83.8 65.038 83.8853 64.6646 84.056C64.2913 84.2267 63.8913 84.52 63.4646 84.936C63.39 85.0107 63.31 85.048 63.2246 85.048C63.15 85.048 63.0806 85.016 63.0166 84.952L62.8086 84.76C62.734 84.6853 62.6966 84.6053 62.6966 84.52C62.6966 84.424 62.734 84.3387 62.8086 84.264C63.2566 83.7947 63.726 83.4533 64.2166 83.24C64.718 83.0267 65.2673 82.92 65.8646 82.92ZM65.2886 90.36C66.0566 90.36 66.6913 90.1573 67.1926 89.752C67.694 89.3467 67.9446 88.8293 67.9446 88.2V86.856L66.4566 87.144C65.7633 87.2827 65.214 87.416 64.8086 87.544C64.4033 87.672 64.078 87.8587 63.8326 88.104C63.5873 88.3493 63.4646 88.6693 63.4646 89.064C63.4646 89.4693 63.6246 89.7893 63.9446 90.024C64.2753 90.248 64.7233 90.36 65.2886 90.36ZM74.4934 91.208C73.736 91.208 73.0747 91.0373 72.5094 90.696C71.9547 90.344 71.5227 89.8587 71.2134 89.24C70.9147 88.6107 70.7654 87.8853 70.7654 87.064C70.7654 86.2533 70.9147 85.5333 71.2134 84.904C71.5227 84.2747 71.9547 83.7893 72.5094 83.448C73.0747 83.096 73.7254 82.92 74.4614 82.92C75.0587 82.92 75.5814 83.0213 76.0294 83.224C76.4774 83.416 76.9094 83.736 77.3254 84.184C77.3894 84.248 77.4214 84.3173 77.4214 84.392C77.4214 84.488 77.3787 84.568 77.2934 84.632L77.0694 84.84C77.0054 84.904 76.9307 84.936 76.8454 84.936C76.7707 84.936 76.6907 84.8933 76.6054 84.808C76.232 84.4347 75.8747 84.1733 75.5334 84.024C75.2027 83.8747 74.8347 83.8 74.4294 83.8C73.8747 83.8 73.4 83.9547 73.0054 84.264C72.6214 84.5733 72.3334 84.9787 72.1414 85.48C71.9494 85.9707 71.8534 86.4987 71.8534 87.064C71.8534 87.6293 71.9494 88.1627 72.1414 88.664C72.3334 89.1547 72.6267 89.5547 73.0214 89.864C73.416 90.1627 73.9014 90.312 74.4774 90.312C74.904 90.312 75.2774 90.2373 75.5974 90.088C75.928 89.928 76.296 89.6293 76.7014 89.192C76.7867 89.1067 76.8667 89.064 76.9414 89.064C77.0267 89.064 77.1014 89.096 77.1654 89.16L77.3894 89.336C77.464 89.4 77.5014 89.4747 77.5014 89.56C77.5014 89.6453 77.4534 89.7467 77.3574 89.864C76.9094 90.3547 76.4614 90.7013 76.0134 90.904C75.5654 91.1067 75.0587 91.208 74.4934 91.208ZM84.803 89.128C84.8777 89.0533 84.9577 89.016 85.043 89.016C85.1177 89.016 85.187 89.048 85.251 89.112L85.459 89.304C85.5337 89.3787 85.571 89.4587 85.571 89.544C85.571 89.608 85.539 89.6827 85.475 89.768C84.9523 90.2907 84.4457 90.664 83.955 90.888C83.4643 91.1013 82.915 91.208 82.307 91.208C81.539 91.208 80.8723 91.0373 80.307 90.696C79.7417 90.3547 79.3043 89.88 78.995 89.272C78.6857 88.6533 78.531 87.9387 78.531 87.128C78.531 86.3067 78.6803 85.5813 78.979 84.952C79.2883 84.312 79.7203 83.816 80.275 83.464C80.8297 83.1013 81.4697 82.92 82.195 82.92C83.2723 82.92 84.1203 83.256 84.739 83.928C85.3577 84.6 85.667 85.5067 85.667 86.648V86.84C85.6563 86.936 85.619 87.0107 85.555 87.064C85.5017 87.1173 85.427 87.144 85.331 87.144H79.603C79.635 88.04 79.8697 88.7973 80.307 89.416C80.755 90.024 81.4217 90.328 82.307 90.328C82.787 90.328 83.2083 90.2427 83.571 90.072C83.9443 89.8907 84.355 89.576 84.803 89.128ZM82.195 83.8C81.491 83.8 80.9097 84.0187 80.451 84.456C80.003 84.8827 79.731 85.512 79.635 86.344H84.611C84.5897 85.5653 84.3657 84.9467 83.939 84.488C83.5123 84.0293 82.931 83.8 82.195 83.8ZM91.079 82.92C91.9963 82.92 92.695 83.1813 93.175 83.704C93.655 84.216 93.895 84.8507 93.895 85.608V90.68C93.895 90.8933 93.7883 91 93.575 91H93.159C92.9457 91 92.839 90.8933 92.839 90.68V85.96C92.839 85.256 92.6683 84.7227 92.327 84.36C91.9857 83.9973 91.495 83.816 90.855 83.816C90.4497 83.816 90.0763 83.9173 89.735 84.12C89.3937 84.312 89.1217 84.5787 88.919 84.92C88.7163 85.2613 88.615 85.6347 88.615 86.04V90.68C88.615 90.8933 88.5083 91 88.295 91H87.879C87.6657 91 87.559 90.8933 87.559 90.68V79.96C87.559 79.7467 87.6657 79.64 87.879 79.64H88.295C88.5083 79.64 88.615 79.7467 88.615 79.96V84.136C88.871 83.7307 89.2123 83.4267 89.639 83.224C90.0763 83.0213 90.5563 82.92 91.079 82.92ZM99.4949 91.208C98.7589 91.208 98.1029 91.032 97.5269 90.68C96.9509 90.328 96.5029 89.8427 96.1829 89.224C95.8629 88.5947 95.7029 87.8747 95.7029 87.064C95.7029 86.2533 95.8629 85.5387 96.1829 84.92C96.5029 84.2907 96.9509 83.8 97.5269 83.448C98.1029 83.096 98.7589 82.92 99.4949 82.92C100.231 82.92 100.887 83.096 101.463 83.448C102.039 83.8 102.487 84.2907 102.807 84.92C103.127 85.5387 103.287 86.2533 103.287 87.064C103.287 87.8747 103.127 88.5947 102.807 89.224C102.487 89.8427 102.039 90.328 101.463 90.68C100.887 91.032 100.231 91.208 99.4949 91.208ZM99.4949 90.328C100.316 90.328 100.972 90.0293 101.463 89.432C101.954 88.824 102.199 88.0347 102.199 87.064C102.199 86.0933 101.954 85.3093 101.463 84.712C100.972 84.104 100.316 83.8 99.4949 83.8C98.6735 83.8 98.0175 84.104 97.5269 84.712C97.0362 85.3093 96.7909 86.0933 96.7909 87.064C96.7909 88.0347 97.0362 88.824 97.5269 89.432C98.0175 90.0293 98.6735 90.328 99.4949 90.328ZM105.458 91C105.244 91 105.138 90.8933 105.138 90.68V79.96C105.138 79.7467 105.244 79.64 105.458 79.64H105.874C106.087 79.64 106.194 79.7467 106.194 79.96V90.68C106.194 90.8933 106.087 91 105.874 91H105.458ZM114.271 79.96C114.271 79.7467 114.377 79.64 114.591 79.64H115.007C115.22 79.64 115.327 79.7467 115.327 79.96V90.68C115.327 90.8933 115.22 91 115.007 91H114.671C114.457 91 114.351 90.8933 114.351 90.68V89.64C114.063 90.1413 113.684 90.5253 113.215 90.792C112.745 91.0587 112.191 91.192 111.551 91.192C110.879 91.192 110.281 91.0213 109.759 90.68C109.236 90.328 108.825 89.8427 108.527 89.224C108.228 88.5947 108.079 87.8747 108.079 87.064C108.079 86.2533 108.228 85.5387 108.527 84.92C108.836 84.2907 109.257 83.8053 109.791 83.464C110.324 83.112 110.921 82.936 111.583 82.936C112.799 82.936 113.695 83.3893 114.271 84.296V79.96ZM111.631 90.296C112.431 90.296 113.076 90.0133 113.567 89.448C114.068 88.872 114.319 88.0773 114.319 87.064C114.319 86.0613 114.068 85.272 113.567 84.696C113.076 84.12 112.431 83.832 111.631 83.832C110.895 83.832 110.297 84.1307 109.839 84.728C109.391 85.3253 109.167 86.104 109.167 87.064C109.167 88.0347 109.391 88.8187 109.839 89.416C110.287 90.0027 110.884 90.296 111.631 90.296ZM123.444 89.128C123.518 89.0533 123.598 89.016 123.684 89.016C123.758 89.016 123.828 89.048 123.892 89.112L124.1 89.304C124.174 89.3787 124.212 89.4587 124.212 89.544C124.212 89.608 124.18 89.6827 124.116 89.768C123.593 90.2907 123.086 90.664 122.596 90.888C122.105 91.1013 121.556 91.208 120.948 91.208C120.18 91.208 119.513 91.0373 118.948 90.696C118.382 90.3547 117.945 89.88 117.636 89.272C117.326 88.6533 117.172 87.9387 117.172 87.128C117.172 86.3067 117.321 85.5813 117.62 84.952C117.929 84.312 118.361 83.816 118.916 83.464C119.47 83.1013 120.11 82.92 120.836 82.92C121.913 82.92 122.761 83.256 123.38 83.928C123.998 84.6 124.308 85.5067 124.308 86.648V86.84C124.297 86.936 124.26 87.0107 124.196 87.064C124.142 87.1173 124.068 87.144 123.972 87.144H118.244C118.276 88.04 118.51 88.7973 118.948 89.416C119.396 90.024 120.062 90.328 120.948 90.328C121.428 90.328 121.849 90.2427 122.212 90.072C122.585 89.8907 122.996 89.576 123.444 89.128ZM120.836 83.8C120.132 83.8 119.55 84.0187 119.092 84.456C118.644 84.8827 118.372 85.512 118.276 86.344H123.252C123.23 85.5653 123.006 84.9467 122.58 84.488C122.153 84.0293 121.572 83.8 120.836 83.8ZM129.144 83.048C129.41 83.048 129.725 83.0907 130.088 83.176C130.28 83.24 130.354 83.3733 130.312 83.576L130.248 83.832C130.194 84.0347 130.061 84.1093 129.848 84.056C129.592 83.992 129.357 83.96 129.144 83.96C128.6 83.96 128.146 84.1947 127.784 84.664C127.432 85.1333 127.256 85.784 127.256 86.616V90.68C127.256 90.8933 127.149 91 126.936 91H126.52C126.306 91 126.2 90.8933 126.2 90.68V83.432C126.2 83.2187 126.306 83.112 126.52 83.112H126.872C127.085 83.112 127.192 83.2187 127.192 83.432V84.312C127.373 83.9173 127.629 83.608 127.96 83.384C128.301 83.16 128.696 83.048 129.144 83.048Z" fill="#D91F0A"/>
</g>
<path d="M41.272 126C41.112 126 41.032 125.92 41.032 125.76V117.72C41.032 117.56 41.112 117.48 41.272 117.48H46.312C46.472 117.48 46.552 117.56 46.552 117.72V117.948C46.552 118.108 46.472 118.188 46.312 118.188H41.884V121.272H45.976C46.136 121.272 46.216 121.352 46.216 121.512V121.728C46.216 121.888 46.136 121.968 45.976 121.968H41.884V125.292H46.408C46.568 125.292 46.648 125.372 46.648 125.532V125.76C46.648 125.92 46.568 126 46.408 126H41.272ZM50.2913 120.036C50.4913 120.036 50.7273 120.068 50.9993 120.132C51.1433 120.18 51.1993 120.28 51.1673 120.432L51.1193 120.624C51.0793 120.776 50.9793 120.832 50.8193 120.792C50.6273 120.744 50.4513 120.72 50.2913 120.72C49.8833 120.72 49.5433 120.896 49.2713 121.248C49.0073 121.6 48.8753 122.088 48.8753 122.712V125.76C48.8753 125.92 48.7953 126 48.6353 126H48.3233C48.1633 126 48.0833 125.92 48.0833 125.76V120.324C48.0833 120.164 48.1633 120.084 48.3233 120.084H48.5873C48.7473 120.084 48.8273 120.164 48.8273 120.324V120.984C48.9633 120.688 49.1553 120.456 49.4033 120.288C49.6593 120.12 49.9553 120.036 50.2913 120.036ZM54.4515 120.036C54.6515 120.036 54.8875 120.068 55.1595 120.132C55.3035 120.18 55.3595 120.28 55.3275 120.432L55.2795 120.624C55.2395 120.776 55.1395 120.832 54.9795 120.792C54.7875 120.744 54.6115 120.72 54.4515 120.72C54.0435 120.72 53.7035 120.896 53.4315 121.248C53.1675 121.6 53.0355 122.088 53.0355 122.712V125.76C53.0355 125.92 52.9555 126 52.7955 126H52.4835C52.3235 126 52.2435 125.92 52.2435 125.76V120.324C52.2435 120.164 52.3235 120.084 52.4835 120.084H52.7475C52.9075 120.084 52.9875 120.164 52.9875 120.324V120.984C53.1235 120.688 53.3155 120.456 53.5635 120.288C53.8195 120.12 54.1155 120.036 54.4515 120.036ZM58.5235 126.156C57.9715 126.156 57.4795 126.024 57.0475 125.76C56.6155 125.496 56.2795 125.132 56.0395 124.668C55.7995 124.196 55.6795 123.656 55.6795 123.048C55.6795 122.44 55.7995 121.904 56.0395 121.44C56.2795 120.968 56.6155 120.6 57.0475 120.336C57.4795 120.072 57.9715 119.94 58.5235 119.94C59.0755 119.94 59.5675 120.072 59.9995 120.336C60.4315 120.6 60.7675 120.968 61.0075 121.44C61.2475 121.904 61.3675 122.44 61.3675 123.048C61.3675 123.656 61.2475 124.196 61.0075 124.668C60.7675 125.132 60.4315 125.496 59.9995 125.76C59.5675 126.024 59.0755 126.156 58.5235 126.156ZM58.5235 125.496C59.1395 125.496 59.6315 125.272 59.9995 124.824C60.3675 124.368 60.5515 123.776 60.5515 123.048C60.5515 122.32 60.3675 121.732 59.9995 121.284C59.6315 120.828 59.1395 120.6 58.5235 120.6C57.9075 120.6 57.4155 120.828 57.0475 121.284C56.6795 121.732 56.4955 122.32 56.4955 123.048C56.4955 123.776 56.6795 124.368 57.0475 124.824C57.4155 125.272 57.9075 125.496 58.5235 125.496ZM64.9515 120.036C65.1515 120.036 65.3875 120.068 65.6595 120.132C65.8035 120.18 65.8595 120.28 65.8275 120.432L65.7795 120.624C65.7395 120.776 65.6395 120.832 65.4795 120.792C65.2875 120.744 65.1115 120.72 64.9515 120.72C64.5435 120.72 64.2035 120.896 63.9315 121.248C63.6675 121.6 63.5355 122.088 63.5355 122.712V125.76C63.5355 125.92 63.4555 126 63.2955 126H62.9835C62.8235 126 62.7435 125.92 62.7435 125.76V120.324C62.7435 120.164 62.8235 120.084 62.9835 120.084H63.2475C63.4075 120.084 63.4875 120.164 63.4875 120.324V120.984C63.6235 120.688 63.8155 120.456 64.0635 120.288C64.3195 120.12 64.6155 120.036 64.9515 120.036ZM72.3333 125.34C72.3573 125.332 72.3893 125.328 72.4293 125.328C72.4773 125.328 72.5213 125.344 72.5613 125.376C72.6013 125.408 72.6253 125.452 72.6333 125.508L72.6693 125.676C72.6773 125.692 72.6813 125.72 72.6813 125.76C72.6813 125.872 72.6213 125.94 72.5013 125.964C72.2133 126.052 71.9053 126.096 71.5773 126.096C71.0573 126.096 70.6853 125.98 70.4613 125.748C70.2453 125.508 70.1373 125.164 70.1373 124.716V120.684H69.2493C69.0893 120.684 69.0093 120.604 69.0093 120.444V120.324C69.0093 120.164 69.0893 120.084 69.2493 120.084H70.1373V118.26C70.1373 118.1 70.2173 118.02 70.3773 118.02H70.6893C70.8493 118.02 70.9293 118.1 70.9293 118.26V120.084H72.3693C72.5293 120.084 72.6093 120.164 72.6093 120.324V120.444C72.6093 120.604 72.5293 120.684 72.3693 120.684H70.9293V124.62C70.9293 124.916 70.9853 125.124 71.0973 125.244C71.2093 125.364 71.4013 125.424 71.6733 125.424C71.8653 125.424 72.0853 125.396 72.3333 125.34ZM77.903 124.596C77.959 124.54 78.019 124.512 78.083 124.512C78.139 124.512 78.191 124.536 78.239 124.584L78.395 124.728C78.451 124.784 78.479 124.844 78.479 124.908C78.479 124.956 78.455 125.012 78.407 125.076C78.015 125.468 77.635 125.748 77.267 125.916C76.899 126.076 76.487 126.156 76.031 126.156C75.455 126.156 74.955 126.028 74.531 125.772C74.107 125.516 73.779 125.16 73.547 124.704C73.315 124.24 73.199 123.704 73.199 123.096C73.199 122.48 73.311 121.936 73.535 121.464C73.767 120.984 74.091 120.612 74.507 120.348C74.923 120.076 75.403 119.94 75.947 119.94C76.755 119.94 77.391 120.192 77.855 120.696C78.319 121.2 78.551 121.88 78.551 122.736V122.88C78.543 122.952 78.515 123.008 78.467 123.048C78.427 123.088 78.371 123.108 78.299 123.108H74.003C74.027 123.78 74.203 124.348 74.531 124.812C74.867 125.268 75.367 125.496 76.031 125.496C76.391 125.496 76.707 125.432 76.979 125.304C77.259 125.168 77.567 124.932 77.903 124.596ZM75.947 120.6C75.419 120.6 74.983 120.764 74.639 121.092C74.303 121.412 74.099 121.884 74.027 122.508H77.759C77.743 121.924 77.575 121.46 77.255 121.116C76.935 120.772 76.499 120.6 75.947 120.6ZM84.1617 125.712C84.1937 125.768 84.2097 125.816 84.2097 125.856C84.2097 125.952 84.1457 126 84.0177 126H83.6577C83.5377 126 83.4417 125.948 83.3697 125.844L81.7377 123.444L80.1177 125.844C80.0457 125.948 79.9497 126 79.8297 126H79.4937C79.4297 126 79.3777 125.988 79.3377 125.964C79.3057 125.932 79.2897 125.896 79.2897 125.856C79.2897 125.8 79.3057 125.752 79.3377 125.712L81.2817 122.916L79.4937 120.372C79.4617 120.332 79.4457 120.288 79.4457 120.24C79.4457 120.136 79.5137 120.084 79.6497 120.084H79.9977C80.1177 120.084 80.2137 120.136 80.2857 120.24L81.7497 122.388L83.2017 120.24C83.2737 120.136 83.3697 120.084 83.4897 120.084H83.8137C83.8777 120.084 83.9257 120.1 83.9577 120.132C83.9977 120.156 84.0177 120.188 84.0177 120.228C84.0177 120.284 84.0017 120.332 83.9697 120.372L82.2177 122.88L84.1617 125.712ZM88.1418 125.34C88.1658 125.332 88.1978 125.328 88.2378 125.328C88.2858 125.328 88.3298 125.344 88.3698 125.376C88.4098 125.408 88.4338 125.452 88.4418 125.508L88.4778 125.676C88.4858 125.692 88.4898 125.72 88.4898 125.76C88.4898 125.872 88.4298 125.94 88.3098 125.964C88.0218 126.052 87.7138 126.096 87.3858 126.096C86.8658 126.096 86.4938 125.98 86.2698 125.748C86.0538 125.508 85.9458 125.164 85.9458 124.716V120.684H85.0578C84.8978 120.684 84.8178 120.604 84.8178 120.444V120.324C84.8178 120.164 84.8978 120.084 85.0578 120.084H85.9458V118.26C85.9458 118.1 86.0258 118.02 86.1858 118.02H86.4978C86.6578 118.02 86.7378 118.1 86.7378 118.26V120.084H88.1778C88.3378 120.084 88.4178 120.164 88.4178 120.324V120.444C88.4178 120.604 88.3378 120.684 88.1778 120.684H86.7378V124.62C86.7378 124.916 86.7938 125.124 86.9058 125.244C87.0178 125.364 87.2098 125.424 87.4818 125.424C87.6738 125.424 87.8938 125.396 88.1418 125.34Z" fill="#D91F0A"/>
<defs>
<clipPath id="clip0_4517_25838">
<rect width="236" height="22" fill="white" transform="translate(48 75)"/>
</clipPath>
</defs>
</svg>
