<svg width="464" height="308" viewBox="0 0 464 308" fill="none" xmlns="http://www.w3.org/2000/svg">
<rect width="464" height="308" rx="8" fill="white"/>
<rect x="56" y="90" width="40" height="40" rx="20" fill="#BE3830"/>
<path d="M74.2898 106.04V104.878H76.9218V115H75.6338V106.04H74.2898Z" fill="white"/>
<rect width="31" height="3" transform="translate(96 108.5)" fill="#BE3830"/>
<rect x="56" y="200" width="41" height="40" rx="20" fill="#BE3830"/>
<path d="M73.1876 223.978C74.373 223.026 75.3016 222.247 75.9736 221.64C76.6456 221.024 77.2103 220.385 77.6676 219.722C78.1343 219.05 78.3676 218.392 78.3676 217.748C78.3676 217.141 78.2183 216.665 77.9196 216.32C77.6303 215.965 77.159 215.788 76.5056 215.788C75.871 215.788 75.3763 215.989 75.0216 216.39C74.6763 216.782 74.4896 217.309 74.4616 217.972H73.2296C73.267 216.927 73.5843 216.119 74.1816 215.55C74.779 214.981 75.549 214.696 76.4916 214.696C77.453 214.696 78.2136 214.962 78.7736 215.494C79.343 216.026 79.6276 216.759 79.6276 217.692C79.6276 218.467 79.3943 219.223 78.9276 219.96C78.4703 220.688 77.9476 221.332 77.3596 221.892C76.7716 222.443 76.0203 223.087 75.1056 223.824H79.9216V224.888H73.1876V223.978Z" fill="white"/>
<rect width="30" height="3" transform="translate(97 218.5)" fill="#BE3830"/>
<path d="M132.068 78C131.919 78 131.797 77.958 131.704 77.874C131.62 77.7807 131.578 77.6593 131.578 77.51V68.55C131.578 68.3913 131.62 68.27 131.704 68.186C131.797 68.102 131.919 68.06 132.068 68.06H135.442C136.375 68.06 137.173 68.27 137.836 68.69C138.508 69.11 139.017 69.698 139.362 70.454C139.717 71.2007 139.894 72.0593 139.894 73.03C139.894 74.0007 139.717 74.864 139.362 75.62C139.017 76.3667 138.508 76.95 137.836 77.37C137.173 77.79 136.375 78 135.442 78H132.068ZM135.204 76.656C136.156 76.656 136.903 76.3433 137.444 75.718C137.995 75.0833 138.27 74.1873 138.27 73.03C138.27 71.8727 137.995 70.9813 137.444 70.356C136.903 69.7213 136.156 69.404 135.204 69.404H133.174V76.656H135.204ZM144.192 70.888C145.125 70.888 145.844 71.1073 146.348 71.546C146.852 71.9753 147.104 72.5493 147.104 73.268V77.51C147.104 77.6593 147.062 77.7807 146.978 77.874C146.894 77.958 146.772 78 146.614 78H146.25C146.1 78 145.979 77.958 145.886 77.874C145.802 77.7807 145.76 77.6593 145.76 77.51V77.202C145.536 77.5287 145.228 77.7807 144.836 77.958C144.444 78.1353 143.986 78.224 143.464 78.224C142.745 78.224 142.152 78.0653 141.686 77.748C141.228 77.4213 141 76.9313 141 76.278C141 75.55 141.27 75.0133 141.812 74.668C142.362 74.3133 143.123 74.0473 144.094 73.87L145.676 73.576V73.324C145.676 72.9413 145.54 72.6473 145.27 72.442C145.008 72.2273 144.658 72.12 144.22 72.12C143.846 72.12 143.52 72.1853 143.24 72.316C142.969 72.4373 142.675 72.6427 142.358 72.932C142.236 73.0347 142.12 73.086 142.008 73.086C141.896 73.086 141.779 73.0347 141.658 72.932L141.434 72.736C141.312 72.624 141.252 72.5027 141.252 72.372C141.252 72.2507 141.308 72.134 141.42 72.022C141.821 71.6393 142.246 71.3547 142.694 71.168C143.142 70.9813 143.641 70.888 144.192 70.888ZM143.674 77.034C144.234 77.034 144.705 76.8847 145.088 76.586C145.48 76.2873 145.676 75.858 145.676 75.298V74.654L144.458 74.906C143.776 75.046 143.272 75.2047 142.946 75.382C142.619 75.5593 142.456 75.83 142.456 76.194C142.456 76.4553 142.563 76.6607 142.778 76.81C142.992 76.9593 143.291 77.034 143.674 77.034ZM151.981 76.824C152.009 76.8147 152.051 76.81 152.107 76.81C152.34 76.81 152.48 76.9453 152.527 77.216L152.569 77.44C152.578 77.468 152.583 77.5147 152.583 77.58C152.583 77.8133 152.452 77.9627 152.191 78.028C151.818 78.112 151.477 78.154 151.169 78.154C150.506 78.154 150.026 78 149.727 77.692C149.438 77.384 149.293 76.922 149.293 76.306V72.232H148.523C148.374 72.232 148.252 72.19 148.159 72.106C148.075 72.0127 148.033 71.8913 148.033 71.742V71.588C148.033 71.4293 148.075 71.308 148.159 71.224C148.252 71.14 148.374 71.098 148.523 71.098H149.293V69.362C149.293 69.2033 149.335 69.082 149.419 68.998C149.512 68.914 149.634 68.872 149.783 68.872H150.287C150.446 68.872 150.567 68.914 150.651 68.998C150.735 69.082 150.777 69.2033 150.777 69.362V71.098H152.037C152.196 71.098 152.317 71.14 152.401 71.224C152.485 71.308 152.527 71.4293 152.527 71.588V71.742C152.527 71.8913 152.485 72.0127 152.401 72.106C152.317 72.19 152.196 72.232 152.037 72.232H150.777V76.124C150.777 76.3947 150.833 76.586 150.945 76.698C151.066 76.81 151.258 76.866 151.519 76.866C151.631 76.866 151.785 76.852 151.981 76.824ZM158.472 76.236C158.593 76.1333 158.71 76.082 158.822 76.082C158.934 76.082 159.05 76.1427 159.172 76.264L159.368 76.474C159.47 76.5953 159.522 76.712 159.522 76.824C159.522 76.9453 159.461 77.062 159.34 77.174C158.91 77.5473 158.481 77.8133 158.052 77.972C157.632 78.1307 157.165 78.21 156.652 78.21C155.933 78.21 155.308 78.0607 154.776 77.762C154.253 77.4633 153.847 77.0433 153.558 76.502C153.278 75.9513 153.138 75.3167 153.138 74.598C153.138 73.8887 153.273 73.254 153.544 72.694C153.824 72.1247 154.216 71.6813 154.72 71.364C155.233 71.0467 155.83 70.888 156.512 70.888C157.529 70.888 158.313 71.1913 158.864 71.798C159.414 72.3953 159.69 73.2213 159.69 74.276V74.402C159.68 74.5513 159.634 74.668 159.55 74.752C159.466 74.836 159.344 74.878 159.186 74.878H154.594C154.65 75.494 154.85 75.998 155.196 76.39C155.55 76.7727 156.045 76.964 156.68 76.964C157.025 76.964 157.328 76.9127 157.59 76.81C157.851 76.698 158.145 76.5067 158.472 76.236ZM156.484 72.064C155.97 72.064 155.555 72.218 155.238 72.526C154.93 72.8247 154.729 73.2493 154.636 73.8H158.234C158.196 73.2587 158.028 72.834 157.73 72.526C157.431 72.218 157.016 72.064 156.484 72.064Z" fill="#1B1B1F"/>
<rect x="131" y="86.5" width="202" height="47" rx="3.5" fill="white"/>
<rect x="131" y="86.5" width="202" height="47" rx="3.5" stroke="#84848F"/>
<g clip-path="url(#clip0_4504_21313)">
<path d="M145.38 103.96C145.38 103.747 145.487 103.64 145.7 103.64H146.116C146.329 103.64 146.436 103.747 146.436 103.96V114.68C146.436 114.893 146.329 115 146.116 115H145.78C145.567 115 145.46 114.893 145.46 114.68V113.64C145.172 114.141 144.793 114.525 144.324 114.792C143.855 115.059 143.3 115.192 142.66 115.192C141.988 115.192 141.391 115.021 140.868 114.68C140.345 114.328 139.935 113.843 139.636 113.224C139.337 112.595 139.188 111.875 139.188 111.064C139.188 110.253 139.337 109.539 139.636 108.92C139.945 108.291 140.367 107.805 140.9 107.464C141.433 107.112 142.031 106.936 142.692 106.936C143.908 106.936 144.804 107.389 145.38 108.296V103.96ZM142.74 114.296C143.54 114.296 144.185 114.013 144.676 113.448C145.177 112.872 145.428 112.077 145.428 111.064C145.428 110.061 145.177 109.272 144.676 108.696C144.185 108.12 143.54 107.832 142.74 107.832C142.004 107.832 141.407 108.131 140.948 108.728C140.5 109.325 140.276 110.104 140.276 111.064C140.276 112.035 140.5 112.819 140.948 113.416C141.396 114.003 141.993 114.296 142.74 114.296ZM154.505 103.96C154.505 103.747 154.612 103.64 154.825 103.64H155.241C155.454 103.64 155.561 103.747 155.561 103.96V114.68C155.561 114.893 155.454 115 155.241 115H154.905C154.692 115 154.585 114.893 154.585 114.68V113.64C154.297 114.141 153.918 114.525 153.449 114.792C152.98 115.059 152.425 115.192 151.785 115.192C151.113 115.192 150.516 115.021 149.993 114.68C149.47 114.328 149.06 113.843 148.761 113.224C148.462 112.595 148.313 111.875 148.313 111.064C148.313 110.253 148.462 109.539 148.761 108.92C149.07 108.291 149.492 107.805 150.025 107.464C150.558 107.112 151.156 106.936 151.817 106.936C153.033 106.936 153.929 107.389 154.505 108.296V103.96ZM151.865 114.296C152.665 114.296 153.31 114.013 153.801 113.448C154.302 112.872 154.553 112.077 154.553 111.064C154.553 110.061 154.302 109.272 153.801 108.696C153.31 108.12 152.665 107.832 151.865 107.832C151.129 107.832 150.532 108.131 150.073 108.728C149.625 109.325 149.401 110.104 149.401 111.064C149.401 112.035 149.625 112.819 150.073 113.416C150.521 114.003 151.118 114.296 151.865 114.296ZM158.366 115.112C158.142 115.112 157.95 115.032 157.79 114.872C157.63 114.712 157.55 114.52 157.55 114.296C157.55 114.072 157.63 113.88 157.79 113.72C157.95 113.56 158.142 113.48 158.366 113.48C158.59 113.48 158.782 113.56 158.942 113.72C159.102 113.88 159.182 114.072 159.182 114.296C159.182 114.52 159.102 114.712 158.942 114.872C158.782 115.032 158.59 115.112 158.366 115.112ZM169.184 106.92C170.038 106.92 170.688 107.165 171.136 107.656C171.595 108.136 171.824 108.755 171.824 109.512V114.68C171.824 114.893 171.718 115 171.504 115H171.088C170.875 115 170.768 114.893 170.768 114.68V109.8C170.768 109.16 170.619 108.669 170.32 108.328C170.032 107.987 169.6 107.816 169.024 107.816C168.416 107.816 167.931 108.019 167.568 108.424C167.206 108.829 167.024 109.352 167.024 109.992V114.68C167.024 114.893 166.918 115 166.704 115H166.288C166.075 115 165.968 114.893 165.968 114.68V109.8C165.968 109.16 165.819 108.669 165.52 108.328C165.232 107.987 164.795 107.816 164.208 107.816C163.664 107.816 163.211 107.987 162.848 108.328C162.496 108.669 162.288 109.117 162.224 109.672V114.68C162.224 114.893 162.118 115 161.904 115H161.488C161.275 115 161.168 114.893 161.168 114.68V107.432C161.168 107.219 161.275 107.112 161.488 107.112H161.84C162.054 107.112 162.16 107.219 162.16 107.432V108.088C162.64 107.309 163.403 106.92 164.448 106.92C164.992 106.92 165.456 107.043 165.84 107.288C166.235 107.523 166.528 107.843 166.72 108.248C167.286 107.363 168.107 106.92 169.184 106.92ZM182.169 106.92C183.022 106.92 183.673 107.165 184.121 107.656C184.579 108.136 184.809 108.755 184.809 109.512V114.68C184.809 114.893 184.702 115 184.489 115H184.073C183.859 115 183.753 114.893 183.753 114.68V109.8C183.753 109.16 183.603 108.669 183.305 108.328C183.017 107.987 182.585 107.816 182.009 107.816C181.401 107.816 180.915 108.019 180.553 108.424C180.19 108.829 180.009 109.352 180.009 109.992V114.68C180.009 114.893 179.902 115 179.689 115H179.273C179.059 115 178.953 114.893 178.953 114.68V109.8C178.953 109.16 178.803 108.669 178.505 108.328C178.217 107.987 177.779 107.816 177.193 107.816C176.649 107.816 176.195 107.987 175.833 108.328C175.481 108.669 175.273 109.117 175.209 109.672V114.68C175.209 114.893 175.102 115 174.889 115H174.473C174.259 115 174.153 114.893 174.153 114.68V107.432C174.153 107.219 174.259 107.112 174.473 107.112H174.825C175.038 107.112 175.145 107.219 175.145 107.432V108.088C175.625 107.309 176.387 106.92 177.433 106.92C177.977 106.92 178.441 107.043 178.825 107.288C179.219 107.523 179.513 107.843 179.705 108.248C180.27 107.363 181.091 106.92 182.169 106.92ZM187.569 115.112C187.345 115.112 187.153 115.032 186.993 114.872C186.833 114.712 186.753 114.52 186.753 114.296C186.753 114.072 186.833 113.88 186.993 113.72C187.153 113.56 187.345 113.48 187.569 113.48C187.793 113.48 187.985 113.56 188.145 113.72C188.305 113.88 188.385 114.072 188.385 114.296C188.385 114.52 188.305 114.712 188.145 114.872C187.985 115.032 187.793 115.112 187.569 115.112ZM194.627 107.368C194.691 107.197 194.814 107.112 194.995 107.112H195.427C195.512 107.112 195.582 107.133 195.635 107.176C195.688 107.219 195.715 107.277 195.715 107.352L195.683 107.48L192.595 116.2C192.424 116.68 192.259 117.053 192.099 117.32C191.939 117.587 191.72 117.789 191.443 117.928C191.176 118.067 190.824 118.136 190.387 118.136C190.11 118.136 189.864 118.115 189.651 118.072C189.544 118.061 189.47 118.019 189.427 117.944C189.395 117.869 189.39 117.784 189.411 117.688L189.459 117.48C189.502 117.288 189.624 117.203 189.827 117.224C190.019 117.256 190.184 117.272 190.323 117.272C190.664 117.272 190.931 117.176 191.123 116.984C191.326 116.792 191.518 116.429 191.699 115.896L191.843 115.448L189.027 107.48L188.995 107.352C188.995 107.277 189.022 107.219 189.075 107.176C189.128 107.133 189.198 107.112 189.283 107.112H189.747C189.918 107.112 190.035 107.197 190.099 107.368L190.995 110.008C191.08 110.275 191.294 110.909 191.635 111.912L192.355 114.072C192.707 113.08 193.171 111.715 193.747 109.976L194.627 107.368ZM202.205 107.368C202.269 107.197 202.392 107.112 202.573 107.112H203.005C203.09 107.112 203.16 107.133 203.213 107.176C203.266 107.219 203.293 107.277 203.293 107.352L203.261 107.48L200.173 116.2C200.002 116.68 199.837 117.053 199.677 117.32C199.517 117.587 199.298 117.789 199.021 117.928C198.754 118.067 198.402 118.136 197.965 118.136C197.688 118.136 197.442 118.115 197.229 118.072C197.122 118.061 197.048 118.019 197.005 117.944C196.973 117.869 196.968 117.784 196.989 117.688L197.037 117.48C197.08 117.288 197.202 117.203 197.405 117.224C197.597 117.256 197.762 117.272 197.901 117.272C198.242 117.272 198.509 117.176 198.701 116.984C198.904 116.792 199.096 116.429 199.277 115.896L199.421 115.448L196.605 107.48L196.573 107.352C196.573 107.277 196.6 107.219 196.653 107.176C196.706 107.133 196.776 107.112 196.861 107.112H197.325C197.496 107.112 197.613 107.197 197.677 107.368L198.573 110.008C198.658 110.275 198.872 110.909 199.213 111.912L199.933 114.072C200.285 113.08 200.749 111.715 201.325 109.976L202.205 107.368ZM209.783 107.368C209.847 107.197 209.97 107.112 210.151 107.112H210.583C210.668 107.112 210.738 107.133 210.791 107.176C210.844 107.219 210.871 107.277 210.871 107.352L210.839 107.48L207.751 116.2C207.58 116.68 207.415 117.053 207.255 117.32C207.095 117.587 206.876 117.789 206.599 117.928C206.332 118.067 205.98 118.136 205.543 118.136C205.266 118.136 205.02 118.115 204.807 118.072C204.7 118.061 204.626 118.019 204.583 117.944C204.551 117.869 204.546 117.784 204.567 117.688L204.615 117.48C204.658 117.288 204.78 117.203 204.983 117.224C205.175 117.256 205.34 117.272 205.479 117.272C205.82 117.272 206.087 117.176 206.279 116.984C206.482 116.792 206.674 116.429 206.855 115.896L206.999 115.448L204.183 107.48L204.151 107.352C204.151 107.277 204.178 107.219 204.231 107.176C204.284 107.133 204.354 107.112 204.439 107.112H204.903C205.074 107.112 205.191 107.197 205.255 107.368L206.151 110.008C206.236 110.275 206.45 110.909 206.791 111.912L207.511 114.072C207.863 113.08 208.327 111.715 208.903 109.976L209.783 107.368ZM217.361 107.368C217.425 107.197 217.548 107.112 217.729 107.112H218.161C218.247 107.112 218.316 107.133 218.369 107.176C218.423 107.219 218.449 107.277 218.449 107.352L218.417 107.48L215.329 116.2C215.159 116.68 214.993 117.053 214.833 117.32C214.673 117.587 214.455 117.789 214.177 117.928C213.911 118.067 213.559 118.136 213.121 118.136C212.844 118.136 212.599 118.115 212.385 118.072C212.279 118.061 212.204 118.019 212.161 117.944C212.129 117.869 212.124 117.784 212.145 117.688L212.193 117.48C212.236 117.288 212.359 117.203 212.561 117.224C212.753 117.256 212.919 117.272 213.057 117.272C213.399 117.272 213.665 117.176 213.857 116.984C214.06 116.792 214.252 116.429 214.433 115.896L214.577 115.448L211.761 107.48L211.729 107.352C211.729 107.277 211.756 107.219 211.809 107.176C211.863 107.133 211.932 107.112 212.017 107.112H212.481C212.652 107.112 212.769 107.197 212.833 107.368L213.729 110.008C213.815 110.275 214.028 110.909 214.369 111.912L215.089 114.072C215.441 113.08 215.905 111.715 216.481 109.976L217.361 107.368Z" fill="#1B1B1F"/>
<rect width="24" height="16" transform="translate(301.5 102)" fill="white"/>
<path d="M320.5 103.5V105.5M314.5 103.5V105.5M312 107.5H323M315 110L316 109.5V113.5M318.134 110C318.202 109.882 318.294 109.78 318.403 109.699C318.513 109.617 318.638 109.56 318.771 109.529C318.903 109.498 319.041 109.494 319.175 109.518C319.309 109.542 319.437 109.593 319.55 109.668C319.664 109.743 319.761 109.841 319.836 109.955C319.91 110.069 319.961 110.197 319.984 110.332C320.007 110.466 320.003 110.603 319.971 110.736C319.939 110.868 319.88 110.993 319.799 111.102L318 113.5H320M312.5 104.5H322.5C322.776 104.5 323 104.724 323 105V115C323 115.276 322.776 115.5 322.5 115.5H312.5C312.224 115.5 312 115.276 312 115V105C312 104.724 312.224 104.5 312.5 104.5Z" stroke="#1B1B1F" stroke-linecap="round" stroke-linejoin="round"/>
</g>
<path d="M132.068 188C131.919 188 131.797 187.958 131.704 187.874C131.62 187.781 131.578 187.659 131.578 187.51V178.55C131.578 178.391 131.62 178.27 131.704 178.186C131.797 178.102 131.919 178.06 132.068 178.06H135.442C136.375 178.06 137.173 178.27 137.836 178.69C138.508 179.11 139.017 179.698 139.362 180.454C139.717 181.201 139.894 182.059 139.894 183.03C139.894 184.001 139.717 184.864 139.362 185.62C139.017 186.367 138.508 186.95 137.836 187.37C137.173 187.79 136.375 188 135.442 188H132.068ZM135.204 186.656C136.156 186.656 136.903 186.343 137.444 185.718C137.995 185.083 138.27 184.187 138.27 183.03C138.27 181.873 137.995 180.981 137.444 180.356C136.903 179.721 136.156 179.404 135.204 179.404H133.174V186.656H135.204ZM144.192 180.888C145.125 180.888 145.844 181.107 146.348 181.546C146.852 181.975 147.104 182.549 147.104 183.268V187.51C147.104 187.659 147.062 187.781 146.978 187.874C146.894 187.958 146.772 188 146.614 188H146.25C146.1 188 145.979 187.958 145.886 187.874C145.802 187.781 145.76 187.659 145.76 187.51V187.202C145.536 187.529 145.228 187.781 144.836 187.958C144.444 188.135 143.986 188.224 143.464 188.224C142.745 188.224 142.152 188.065 141.686 187.748C141.228 187.421 141 186.931 141 186.278C141 185.55 141.27 185.013 141.812 184.668C142.362 184.313 143.123 184.047 144.094 183.87L145.676 183.576V183.324C145.676 182.941 145.54 182.647 145.27 182.442C145.008 182.227 144.658 182.12 144.22 182.12C143.846 182.12 143.52 182.185 143.24 182.316C142.969 182.437 142.675 182.643 142.358 182.932C142.236 183.035 142.12 183.086 142.008 183.086C141.896 183.086 141.779 183.035 141.658 182.932L141.434 182.736C141.312 182.624 141.252 182.503 141.252 182.372C141.252 182.251 141.308 182.134 141.42 182.022C141.821 181.639 142.246 181.355 142.694 181.168C143.142 180.981 143.641 180.888 144.192 180.888ZM143.674 187.034C144.234 187.034 144.705 186.885 145.088 186.586C145.48 186.287 145.676 185.858 145.676 185.298V184.654L144.458 184.906C143.776 185.046 143.272 185.205 142.946 185.382C142.619 185.559 142.456 185.83 142.456 186.194C142.456 186.455 142.563 186.661 142.778 186.81C142.992 186.959 143.291 187.034 143.674 187.034ZM151.981 186.824C152.009 186.815 152.051 186.81 152.107 186.81C152.34 186.81 152.48 186.945 152.527 187.216L152.569 187.44C152.578 187.468 152.583 187.515 152.583 187.58C152.583 187.813 152.452 187.963 152.191 188.028C151.818 188.112 151.477 188.154 151.169 188.154C150.506 188.154 150.026 188 149.727 187.692C149.438 187.384 149.293 186.922 149.293 186.306V182.232H148.523C148.374 182.232 148.252 182.19 148.159 182.106C148.075 182.013 148.033 181.891 148.033 181.742V181.588C148.033 181.429 148.075 181.308 148.159 181.224C148.252 181.14 148.374 181.098 148.523 181.098H149.293V179.362C149.293 179.203 149.335 179.082 149.419 178.998C149.512 178.914 149.634 178.872 149.783 178.872H150.287C150.446 178.872 150.567 178.914 150.651 178.998C150.735 179.082 150.777 179.203 150.777 179.362V181.098H152.037C152.196 181.098 152.317 181.14 152.401 181.224C152.485 181.308 152.527 181.429 152.527 181.588V181.742C152.527 181.891 152.485 182.013 152.401 182.106C152.317 182.19 152.196 182.232 152.037 182.232H150.777V186.124C150.777 186.395 150.833 186.586 150.945 186.698C151.066 186.81 151.258 186.866 151.519 186.866C151.631 186.866 151.785 186.852 151.981 186.824ZM158.472 186.236C158.593 186.133 158.71 186.082 158.822 186.082C158.934 186.082 159.05 186.143 159.172 186.264L159.368 186.474C159.47 186.595 159.522 186.712 159.522 186.824C159.522 186.945 159.461 187.062 159.34 187.174C158.91 187.547 158.481 187.813 158.052 187.972C157.632 188.131 157.165 188.21 156.652 188.21C155.933 188.21 155.308 188.061 154.776 187.762C154.253 187.463 153.847 187.043 153.558 186.502C153.278 185.951 153.138 185.317 153.138 184.598C153.138 183.889 153.273 183.254 153.544 182.694C153.824 182.125 154.216 181.681 154.72 181.364C155.233 181.047 155.83 180.888 156.512 180.888C157.529 180.888 158.313 181.191 158.864 181.798C159.414 182.395 159.69 183.221 159.69 184.276V184.402C159.68 184.551 159.634 184.668 159.55 184.752C159.466 184.836 159.344 184.878 159.186 184.878H154.594C154.65 185.494 154.85 185.998 155.196 186.39C155.55 186.773 156.045 186.964 156.68 186.964C157.025 186.964 157.328 186.913 157.59 186.81C157.851 186.698 158.145 186.507 158.472 186.236ZM156.484 182.064C155.97 182.064 155.555 182.218 155.238 182.526C154.93 182.825 154.729 183.249 154.636 183.8H158.234C158.196 183.259 158.028 182.834 157.73 182.526C157.431 182.218 157.016 182.064 156.484 182.064Z" fill="#1B1B1F"/>
<rect x="131" y="196.5" width="202" height="47" rx="3.5" fill="white"/>
<rect x="131" y="196.5" width="202" height="47" rx="3.5" stroke="#84848F"/>
<g clip-path="url(#clip1_4504_21313)">
<path d="M145.38 213.96C145.38 213.747 145.487 213.64 145.7 213.64H146.116C146.329 213.64 146.436 213.747 146.436 213.96V224.68C146.436 224.893 146.329 225 146.116 225H145.78C145.567 225 145.46 224.893 145.46 224.68V223.64C145.172 224.141 144.793 224.525 144.324 224.792C143.855 225.059 143.3 225.192 142.66 225.192C141.988 225.192 141.391 225.021 140.868 224.68C140.345 224.328 139.935 223.843 139.636 223.224C139.337 222.595 139.188 221.875 139.188 221.064C139.188 220.253 139.337 219.539 139.636 218.92C139.945 218.291 140.367 217.805 140.9 217.464C141.433 217.112 142.031 216.936 142.692 216.936C143.908 216.936 144.804 217.389 145.38 218.296V213.96ZM142.74 224.296C143.54 224.296 144.185 224.013 144.676 223.448C145.177 222.872 145.428 222.077 145.428 221.064C145.428 220.061 145.177 219.272 144.676 218.696C144.185 218.12 143.54 217.832 142.74 217.832C142.004 217.832 141.407 218.131 140.948 218.728C140.5 219.325 140.276 220.104 140.276 221.064C140.276 222.035 140.5 222.819 140.948 223.416C141.396 224.003 141.993 224.296 142.74 224.296ZM154.505 213.96C154.505 213.747 154.612 213.64 154.825 213.64H155.241C155.454 213.64 155.561 213.747 155.561 213.96V224.68C155.561 224.893 155.454 225 155.241 225H154.905C154.692 225 154.585 224.893 154.585 224.68V223.64C154.297 224.141 153.918 224.525 153.449 224.792C152.98 225.059 152.425 225.192 151.785 225.192C151.113 225.192 150.516 225.021 149.993 224.68C149.47 224.328 149.06 223.843 148.761 223.224C148.462 222.595 148.313 221.875 148.313 221.064C148.313 220.253 148.462 219.539 148.761 218.92C149.07 218.291 149.492 217.805 150.025 217.464C150.558 217.112 151.156 216.936 151.817 216.936C153.033 216.936 153.929 217.389 154.505 218.296V213.96ZM151.865 224.296C152.665 224.296 153.31 224.013 153.801 223.448C154.302 222.872 154.553 222.077 154.553 221.064C154.553 220.061 154.302 219.272 153.801 218.696C153.31 218.12 152.665 217.832 151.865 217.832C151.129 217.832 150.532 218.131 150.073 218.728C149.625 219.325 149.401 220.104 149.401 221.064C149.401 222.035 149.625 222.819 150.073 223.416C150.521 224.003 151.118 224.296 151.865 224.296ZM157.566 225C157.374 225 157.278 224.925 157.278 224.776C157.278 224.744 157.289 224.696 157.31 224.632L161.998 213.88C162.062 213.72 162.19 213.64 162.382 213.64H162.718C162.91 213.64 163.006 213.715 163.006 213.864C163.006 213.896 162.995 213.944 162.974 214.008L158.286 224.76C158.222 224.92 158.094 225 157.902 225H157.566ZM172.013 216.92C172.866 216.92 173.517 217.165 173.965 217.656C174.423 218.136 174.653 218.755 174.653 219.512V224.68C174.653 224.893 174.546 225 174.333 225H173.917C173.703 225 173.597 224.893 173.597 224.68V219.8C173.597 219.16 173.447 218.669 173.149 218.328C172.861 217.987 172.429 217.816 171.852 217.816C171.245 217.816 170.759 218.019 170.397 218.424C170.034 218.829 169.853 219.352 169.853 219.992V224.68C169.853 224.893 169.746 225 169.533 225H169.117C168.903 225 168.797 224.893 168.797 224.68V219.8C168.797 219.16 168.647 218.669 168.349 218.328C168.061 217.987 167.623 217.816 167.036 217.816C166.493 217.816 166.039 217.987 165.677 218.328C165.325 218.669 165.117 219.117 165.053 219.672V224.68C165.053 224.893 164.946 225 164.733 225H164.317C164.103 225 163.997 224.893 163.997 224.68V217.432C163.997 217.219 164.103 217.112 164.317 217.112H164.669C164.882 217.112 164.989 217.219 164.989 217.432V218.088C165.469 217.309 166.231 216.92 167.277 216.92C167.821 216.92 168.285 217.043 168.669 217.288C169.063 217.523 169.357 217.843 169.549 218.248C170.114 217.363 170.935 216.92 172.013 216.92ZM184.997 216.92C185.85 216.92 186.501 217.165 186.949 217.656C187.408 218.136 187.637 218.755 187.637 219.512V224.68C187.637 224.893 187.53 225 187.317 225H186.901C186.688 225 186.581 224.893 186.581 224.68V219.8C186.581 219.16 186.432 218.669 186.133 218.328C185.845 217.987 185.413 217.816 184.837 217.816C184.229 217.816 183.744 218.019 183.381 218.424C183.018 218.829 182.837 219.352 182.837 219.992V224.68C182.837 224.893 182.73 225 182.517 225H182.101C181.888 225 181.781 224.893 181.781 224.68V219.8C181.781 219.16 181.632 218.669 181.333 218.328C181.045 217.987 180.608 217.816 180.021 217.816C179.477 217.816 179.024 217.987 178.661 218.328C178.309 218.669 178.101 219.117 178.037 219.672V224.68C178.037 224.893 177.93 225 177.717 225H177.301C177.088 225 176.981 224.893 176.981 224.68V217.432C176.981 217.219 177.088 217.112 177.301 217.112H177.653C177.866 217.112 177.973 217.219 177.973 217.432V218.088C178.453 217.309 179.216 216.92 180.261 216.92C180.805 216.92 181.269 217.043 181.653 217.288C182.048 217.523 182.341 217.843 182.533 218.248C183.098 217.363 183.92 216.92 184.997 216.92ZM189.597 225C189.405 225 189.309 224.925 189.309 224.776C189.309 224.744 189.32 224.696 189.341 224.632L194.029 213.88C194.093 213.72 194.221 213.64 194.413 213.64H194.749C194.941 213.64 195.037 213.715 195.037 213.864C195.037 213.896 195.027 213.944 195.005 214.008L190.317 224.76C190.253 224.92 190.125 225 189.933 225H189.597ZM201.486 217.368C201.55 217.197 201.673 217.112 201.854 217.112H202.286C202.372 217.112 202.441 217.133 202.494 217.176C202.548 217.219 202.574 217.277 202.574 217.352L202.542 217.48L199.454 226.2C199.284 226.68 199.118 227.053 198.958 227.32C198.798 227.587 198.58 227.789 198.302 227.928C198.036 228.067 197.684 228.136 197.246 228.136C196.969 228.136 196.724 228.115 196.51 228.072C196.404 228.061 196.329 228.019 196.286 227.944C196.254 227.869 196.249 227.784 196.27 227.688L196.318 227.48C196.361 227.288 196.484 227.203 196.686 227.224C196.878 227.256 197.044 227.272 197.182 227.272C197.524 227.272 197.79 227.176 197.982 226.984C198.185 226.792 198.377 226.429 198.558 225.896L198.702 225.448L195.886 217.48L195.854 217.352C195.854 217.277 195.881 217.219 195.934 217.176C195.988 217.133 196.057 217.112 196.142 217.112H196.606C196.777 217.112 196.894 217.197 196.958 217.368L197.854 220.008C197.94 220.275 198.153 220.909 198.494 221.912L199.214 224.072C199.566 223.08 200.03 221.715 200.606 219.976L201.486 217.368ZM209.064 217.368C209.128 217.197 209.251 217.112 209.432 217.112H209.864C209.95 217.112 210.019 217.133 210.072 217.176C210.126 217.219 210.152 217.277 210.152 217.352L210.12 217.48L207.032 226.2C206.862 226.68 206.696 227.053 206.536 227.32C206.376 227.587 206.158 227.789 205.88 227.928C205.614 228.067 205.262 228.136 204.824 228.136C204.547 228.136 204.302 228.115 204.088 228.072C203.982 228.061 203.907 228.019 203.864 227.944C203.832 227.869 203.827 227.784 203.848 227.688L203.896 227.48C203.939 227.288 204.062 227.203 204.264 227.224C204.456 227.256 204.622 227.272 204.76 227.272C205.102 227.272 205.368 227.176 205.56 226.984C205.763 226.792 205.955 226.429 206.136 225.896L206.28 225.448L203.464 217.48L203.432 217.352C203.432 217.277 203.459 217.219 203.512 217.176C203.566 217.133 203.635 217.112 203.72 217.112H204.184C204.355 217.112 204.472 217.197 204.536 217.368L205.432 220.008C205.518 220.275 205.731 220.909 206.072 221.912L206.792 224.072C207.144 223.08 207.608 221.715 208.184 219.976L209.064 217.368ZM216.643 217.368C216.707 217.197 216.829 217.112 217.011 217.112H217.443C217.528 217.112 217.597 217.133 217.651 217.176C217.704 217.219 217.731 217.277 217.731 217.352L217.699 217.48L214.611 226.2C214.44 226.68 214.275 227.053 214.115 227.32C213.955 227.587 213.736 227.789 213.459 227.928C213.192 228.067 212.84 228.136 212.403 228.136C212.125 228.136 211.88 228.115 211.667 228.072C211.56 228.061 211.485 228.019 211.443 227.944C211.411 227.869 211.405 227.784 211.427 227.688L211.475 227.48C211.517 227.288 211.64 227.203 211.843 227.224C212.035 227.256 212.2 227.272 212.339 227.272C212.68 227.272 212.947 227.176 213.139 226.984C213.341 226.792 213.533 226.429 213.715 225.896L213.859 225.448L211.043 217.48L211.011 217.352C211.011 217.277 211.037 217.219 211.09 217.176C211.144 217.133 211.213 217.112 211.299 217.112H211.763C211.933 217.112 212.051 217.197 212.115 217.368L213.011 220.008C213.096 220.275 213.309 220.909 213.651 221.912L214.371 224.072C214.723 223.08 215.187 221.715 215.763 219.976L216.643 217.368ZM224.221 217.368C224.285 217.197 224.407 217.112 224.589 217.112H225.021C225.106 217.112 225.175 217.133 225.229 217.176C225.282 217.219 225.309 217.277 225.309 217.352L225.277 217.48L222.189 226.2C222.018 226.68 221.853 227.053 221.693 227.32C221.533 227.587 221.314 227.789 221.037 227.928C220.77 228.067 220.418 228.136 219.981 228.136C219.703 228.136 219.458 228.115 219.245 228.072C219.138 228.061 219.063 228.019 219.021 227.944C218.989 227.869 218.983 227.784 219.005 227.688L219.053 227.48C219.095 227.288 219.218 227.203 219.421 227.224C219.613 227.256 219.778 227.272 219.917 227.272C220.258 227.272 220.525 227.176 220.717 226.984C220.919 226.792 221.111 226.429 221.293 225.896L221.437 225.448L218.621 217.48L218.589 217.352C218.589 217.277 218.615 217.219 218.669 217.176C218.722 217.133 218.791 217.112 218.877 217.112H219.341C219.511 217.112 219.629 217.197 219.693 217.368L220.589 220.008C220.674 220.275 220.887 220.909 221.229 221.912L221.949 224.072C222.301 223.08 222.765 221.715 223.341 219.976L224.221 217.368Z" fill="#1B1B1F"/>
<rect width="24" height="16" transform="translate(301.5 212)" fill="white"/>
<path d="M320.5 213.5V215.5M314.5 213.5V215.5M312 217.5H323M315 220L316 219.5V223.5M318.134 220C318.202 219.882 318.294 219.78 318.403 219.699C318.513 219.617 318.638 219.56 318.771 219.529C318.903 219.498 319.041 219.494 319.175 219.518C319.309 219.542 319.437 219.593 319.55 219.668C319.664 219.743 319.761 219.841 319.836 219.955C319.91 220.069 319.961 220.197 319.984 220.332C320.007 220.466 320.003 220.603 319.971 220.736C319.939 220.868 319.88 220.993 319.799 221.102L318 223.5H320M312.5 214.5H322.5C322.776 214.5 323 214.724 323 215V225C323 225.276 322.776 225.5 322.5 225.5H312.5C312.224 225.5 312 225.276 312 225V215C312 214.724 312.224 214.5 312.5 214.5Z" stroke="#1B1B1F" stroke-linecap="round" stroke-linejoin="round"/>
</g>
<defs>
<clipPath id="clip0_4504_21313">
<rect width="187" height="22" fill="white" transform="translate(138.5 99)"/>
</clipPath>
<clipPath id="clip1_4504_21313">
<rect width="187" height="22" fill="white" transform="translate(138.5 209)"/>
</clipPath>
</defs>
</svg>
