<svg width="464" height="348" viewBox="0 0 464 348" fill="none" xmlns="http://www.w3.org/2000/svg">
<rect width="464" height="348" rx="8" fill="white"/>
<path d="M132.068 78C131.919 78 131.797 77.958 131.704 77.874C131.62 77.7807 131.578 77.6593 131.578 77.51V68.55C131.578 68.3913 131.62 68.27 131.704 68.186C131.797 68.102 131.919 68.06 132.068 68.06H135.442C136.375 68.06 137.173 68.27 137.836 68.69C138.508 69.11 139.017 69.698 139.362 70.454C139.717 71.2007 139.894 72.0593 139.894 73.03C139.894 74.0007 139.717 74.864 139.362 75.62C139.017 76.3667 138.508 76.95 137.836 77.37C137.173 77.79 136.375 78 135.442 78H132.068ZM135.204 76.656C136.156 76.656 136.903 76.3433 137.444 75.718C137.995 75.0833 138.27 74.1873 138.27 73.03C138.27 71.8727 137.995 70.9813 137.444 70.356C136.903 69.7213 136.156 69.404 135.204 69.404H133.174V76.656H135.204ZM144.192 70.888C145.125 70.888 145.844 71.1073 146.348 71.546C146.852 71.9753 147.104 72.5493 147.104 73.268V77.51C147.104 77.6593 147.062 77.7807 146.978 77.874C146.894 77.958 146.772 78 146.614 78H146.25C146.1 78 145.979 77.958 145.886 77.874C145.802 77.7807 145.76 77.6593 145.76 77.51V77.202C145.536 77.5287 145.228 77.7807 144.836 77.958C144.444 78.1353 143.986 78.224 143.464 78.224C142.745 78.224 142.152 78.0653 141.686 77.748C141.228 77.4213 141 76.9313 141 76.278C141 75.55 141.27 75.0133 141.812 74.668C142.362 74.3133 143.123 74.0473 144.094 73.87L145.676 73.576V73.324C145.676 72.9413 145.54 72.6473 145.27 72.442C145.008 72.2273 144.658 72.12 144.22 72.12C143.846 72.12 143.52 72.1853 143.24 72.316C142.969 72.4373 142.675 72.6427 142.358 72.932C142.236 73.0347 142.12 73.086 142.008 73.086C141.896 73.086 141.779 73.0347 141.658 72.932L141.434 72.736C141.312 72.624 141.252 72.5027 141.252 72.372C141.252 72.2507 141.308 72.134 141.42 72.022C141.821 71.6393 142.246 71.3547 142.694 71.168C143.142 70.9813 143.641 70.888 144.192 70.888ZM143.674 77.034C144.234 77.034 144.705 76.8847 145.088 76.586C145.48 76.2873 145.676 75.858 145.676 75.298V74.654L144.458 74.906C143.776 75.046 143.272 75.2047 142.946 75.382C142.619 75.5593 142.456 75.83 142.456 76.194C142.456 76.4553 142.563 76.6607 142.778 76.81C142.992 76.9593 143.291 77.034 143.674 77.034ZM151.981 76.824C152.009 76.8147 152.051 76.81 152.107 76.81C152.34 76.81 152.48 76.9453 152.527 77.216L152.569 77.44C152.578 77.468 152.583 77.5147 152.583 77.58C152.583 77.8133 152.452 77.9627 152.191 78.028C151.818 78.112 151.477 78.154 151.169 78.154C150.506 78.154 150.026 78 149.727 77.692C149.438 77.384 149.293 76.922 149.293 76.306V72.232H148.523C148.374 72.232 148.252 72.19 148.159 72.106C148.075 72.0127 148.033 71.8913 148.033 71.742V71.588C148.033 71.4293 148.075 71.308 148.159 71.224C148.252 71.14 148.374 71.098 148.523 71.098H149.293V69.362C149.293 69.2033 149.335 69.082 149.419 68.998C149.512 68.914 149.634 68.872 149.783 68.872H150.287C150.446 68.872 150.567 68.914 150.651 68.998C150.735 69.082 150.777 69.2033 150.777 69.362V71.098H152.037C152.196 71.098 152.317 71.14 152.401 71.224C152.485 71.308 152.527 71.4293 152.527 71.588V71.742C152.527 71.8913 152.485 72.0127 152.401 72.106C152.317 72.19 152.196 72.232 152.037 72.232H150.777V76.124C150.777 76.3947 150.833 76.586 150.945 76.698C151.066 76.81 151.258 76.866 151.519 76.866C151.631 76.866 151.785 76.852 151.981 76.824ZM158.472 76.236C158.593 76.1333 158.71 76.082 158.822 76.082C158.934 76.082 159.05 76.1427 159.172 76.264L159.368 76.474C159.47 76.5953 159.522 76.712 159.522 76.824C159.522 76.9453 159.461 77.062 159.34 77.174C158.91 77.5473 158.481 77.8133 158.052 77.972C157.632 78.1307 157.165 78.21 156.652 78.21C155.933 78.21 155.308 78.0607 154.776 77.762C154.253 77.4633 153.847 77.0433 153.558 76.502C153.278 75.9513 153.138 75.3167 153.138 74.598C153.138 73.8887 153.273 73.254 153.544 72.694C153.824 72.1247 154.216 71.6813 154.72 71.364C155.233 71.0467 155.83 70.888 156.512 70.888C157.529 70.888 158.313 71.1913 158.864 71.798C159.414 72.3953 159.69 73.2213 159.69 74.276V74.402C159.68 74.5513 159.634 74.668 159.55 74.752C159.466 74.836 159.344 74.878 159.186 74.878H154.594C154.65 75.494 154.85 75.998 155.196 76.39C155.55 76.7727 156.045 76.964 156.68 76.964C157.025 76.964 157.328 76.9127 157.59 76.81C157.851 76.698 158.145 76.5067 158.472 76.236ZM156.484 72.064C155.97 72.064 155.555 72.218 155.238 72.526C154.93 72.8247 154.729 73.2493 154.636 73.8H158.234C158.196 73.2587 158.028 72.834 157.73 72.526C157.431 72.218 157.016 72.064 156.484 72.064Z" fill="#1B1B1F"/>
<rect x="131" y="86.5" width="202" height="47" rx="3.5" fill="white"/>
<rect x="131" y="86.5" width="202" height="47" rx="3.5" stroke="#D91F0A"/>
<g clip-path="url(#clip0_4517_26469)">
<path d="M145.38 103.96C145.38 103.747 145.487 103.64 145.7 103.64H146.116C146.329 103.64 146.436 103.747 146.436 103.96V114.68C146.436 114.893 146.329 115 146.116 115H145.78C145.567 115 145.46 114.893 145.46 114.68V113.64C145.172 114.141 144.793 114.525 144.324 114.792C143.855 115.059 143.3 115.192 142.66 115.192C141.988 115.192 141.391 115.021 140.868 114.68C140.345 114.328 139.935 113.843 139.636 113.224C139.337 112.595 139.188 111.875 139.188 111.064C139.188 110.253 139.337 109.539 139.636 108.92C139.945 108.291 140.367 107.805 140.9 107.464C141.433 107.112 142.031 106.936 142.692 106.936C143.908 106.936 144.804 107.389 145.38 108.296V103.96ZM142.74 114.296C143.54 114.296 144.185 114.013 144.676 113.448C145.177 112.872 145.428 112.077 145.428 111.064C145.428 110.061 145.177 109.272 144.676 108.696C144.185 108.12 143.54 107.832 142.74 107.832C142.004 107.832 141.407 108.131 140.948 108.728C140.5 109.325 140.276 110.104 140.276 111.064C140.276 112.035 140.5 112.819 140.948 113.416C141.396 114.003 141.993 114.296 142.74 114.296ZM154.505 103.96C154.505 103.747 154.612 103.64 154.825 103.64H155.241C155.454 103.64 155.561 103.747 155.561 103.96V114.68C155.561 114.893 155.454 115 155.241 115H154.905C154.692 115 154.585 114.893 154.585 114.68V113.64C154.297 114.141 153.918 114.525 153.449 114.792C152.98 115.059 152.425 115.192 151.785 115.192C151.113 115.192 150.516 115.021 149.993 114.68C149.47 114.328 149.06 113.843 148.761 113.224C148.462 112.595 148.313 111.875 148.313 111.064C148.313 110.253 148.462 109.539 148.761 108.92C149.07 108.291 149.492 107.805 150.025 107.464C150.558 107.112 151.156 106.936 151.817 106.936C153.033 106.936 153.929 107.389 154.505 108.296V103.96ZM151.865 114.296C152.665 114.296 153.31 114.013 153.801 113.448C154.302 112.872 154.553 112.077 154.553 111.064C154.553 110.061 154.302 109.272 153.801 108.696C153.31 108.12 152.665 107.832 151.865 107.832C151.129 107.832 150.532 108.131 150.073 108.728C149.625 109.325 149.401 110.104 149.401 111.064C149.401 112.035 149.625 112.819 150.073 113.416C150.521 114.003 151.118 114.296 151.865 114.296ZM158.366 115.112C158.142 115.112 157.95 115.032 157.79 114.872C157.63 114.712 157.55 114.52 157.55 114.296C157.55 114.072 157.63 113.88 157.79 113.72C157.95 113.56 158.142 113.48 158.366 113.48C158.59 113.48 158.782 113.56 158.942 113.72C159.102 113.88 159.182 114.072 159.182 114.296C159.182 114.52 159.102 114.712 158.942 114.872C158.782 115.032 158.59 115.112 158.366 115.112ZM169.184 106.92C170.038 106.92 170.688 107.165 171.136 107.656C171.595 108.136 171.824 108.755 171.824 109.512V114.68C171.824 114.893 171.718 115 171.504 115H171.088C170.875 115 170.768 114.893 170.768 114.68V109.8C170.768 109.16 170.619 108.669 170.32 108.328C170.032 107.987 169.6 107.816 169.024 107.816C168.416 107.816 167.931 108.019 167.568 108.424C167.206 108.829 167.024 109.352 167.024 109.992V114.68C167.024 114.893 166.918 115 166.704 115H166.288C166.075 115 165.968 114.893 165.968 114.68V109.8C165.968 109.16 165.819 108.669 165.52 108.328C165.232 107.987 164.795 107.816 164.208 107.816C163.664 107.816 163.211 107.987 162.848 108.328C162.496 108.669 162.288 109.117 162.224 109.672V114.68C162.224 114.893 162.118 115 161.904 115H161.488C161.275 115 161.168 114.893 161.168 114.68V107.432C161.168 107.219 161.275 107.112 161.488 107.112H161.84C162.054 107.112 162.16 107.219 162.16 107.432V108.088C162.64 107.309 163.403 106.92 164.448 106.92C164.992 106.92 165.456 107.043 165.84 107.288C166.235 107.523 166.528 107.843 166.72 108.248C167.286 107.363 168.107 106.92 169.184 106.92ZM182.169 106.92C183.022 106.92 183.673 107.165 184.121 107.656C184.579 108.136 184.809 108.755 184.809 109.512V114.68C184.809 114.893 184.702 115 184.489 115H184.073C183.859 115 183.753 114.893 183.753 114.68V109.8C183.753 109.16 183.603 108.669 183.305 108.328C183.017 107.987 182.585 107.816 182.009 107.816C181.401 107.816 180.915 108.019 180.553 108.424C180.19 108.829 180.009 109.352 180.009 109.992V114.68C180.009 114.893 179.902 115 179.689 115H179.273C179.059 115 178.953 114.893 178.953 114.68V109.8C178.953 109.16 178.803 108.669 178.505 108.328C178.217 107.987 177.779 107.816 177.193 107.816C176.649 107.816 176.195 107.987 175.833 108.328C175.481 108.669 175.273 109.117 175.209 109.672V114.68C175.209 114.893 175.102 115 174.889 115H174.473C174.259 115 174.153 114.893 174.153 114.68V107.432C174.153 107.219 174.259 107.112 174.473 107.112H174.825C175.038 107.112 175.145 107.219 175.145 107.432V108.088C175.625 107.309 176.387 106.92 177.433 106.92C177.977 106.92 178.441 107.043 178.825 107.288C179.219 107.523 179.513 107.843 179.705 108.248C180.27 107.363 181.091 106.92 182.169 106.92ZM187.569 115.112C187.345 115.112 187.153 115.032 186.993 114.872C186.833 114.712 186.753 114.52 186.753 114.296C186.753 114.072 186.833 113.88 186.993 113.72C187.153 113.56 187.345 113.48 187.569 113.48C187.793 113.48 187.985 113.56 188.145 113.72C188.305 113.88 188.385 114.072 188.385 114.296C188.385 114.52 188.305 114.712 188.145 114.872C187.985 115.032 187.793 115.112 187.569 115.112ZM194.627 107.368C194.691 107.197 194.814 107.112 194.995 107.112H195.427C195.512 107.112 195.582 107.133 195.635 107.176C195.688 107.219 195.715 107.277 195.715 107.352L195.683 107.48L192.595 116.2C192.424 116.68 192.259 117.053 192.099 117.32C191.939 117.587 191.72 117.789 191.443 117.928C191.176 118.067 190.824 118.136 190.387 118.136C190.11 118.136 189.864 118.115 189.651 118.072C189.544 118.061 189.47 118.019 189.427 117.944C189.395 117.869 189.39 117.784 189.411 117.688L189.459 117.48C189.502 117.288 189.624 117.203 189.827 117.224C190.019 117.256 190.184 117.272 190.323 117.272C190.664 117.272 190.931 117.176 191.123 116.984C191.326 116.792 191.518 116.429 191.699 115.896L191.843 115.448L189.027 107.48L188.995 107.352C188.995 107.277 189.022 107.219 189.075 107.176C189.128 107.133 189.198 107.112 189.283 107.112H189.747C189.918 107.112 190.035 107.197 190.099 107.368L190.995 110.008C191.08 110.275 191.294 110.909 191.635 111.912L192.355 114.072C192.707 113.08 193.171 111.715 193.747 109.976L194.627 107.368ZM202.205 107.368C202.269 107.197 202.392 107.112 202.573 107.112H203.005C203.09 107.112 203.16 107.133 203.213 107.176C203.266 107.219 203.293 107.277 203.293 107.352L203.261 107.48L200.173 116.2C200.002 116.68 199.837 117.053 199.677 117.32C199.517 117.587 199.298 117.789 199.021 117.928C198.754 118.067 198.402 118.136 197.965 118.136C197.688 118.136 197.442 118.115 197.229 118.072C197.122 118.061 197.048 118.019 197.005 117.944C196.973 117.869 196.968 117.784 196.989 117.688L197.037 117.48C197.08 117.288 197.202 117.203 197.405 117.224C197.597 117.256 197.762 117.272 197.901 117.272C198.242 117.272 198.509 117.176 198.701 116.984C198.904 116.792 199.096 116.429 199.277 115.896L199.421 115.448L196.605 107.48L196.573 107.352C196.573 107.277 196.6 107.219 196.653 107.176C196.706 107.133 196.776 107.112 196.861 107.112H197.325C197.496 107.112 197.613 107.197 197.677 107.368L198.573 110.008C198.658 110.275 198.872 110.909 199.213 111.912L199.933 114.072C200.285 113.08 200.749 111.715 201.325 109.976L202.205 107.368ZM209.783 107.368C209.847 107.197 209.97 107.112 210.151 107.112H210.583C210.668 107.112 210.738 107.133 210.791 107.176C210.844 107.219 210.871 107.277 210.871 107.352L210.839 107.48L207.751 116.2C207.58 116.68 207.415 117.053 207.255 117.32C207.095 117.587 206.876 117.789 206.599 117.928C206.332 118.067 205.98 118.136 205.543 118.136C205.266 118.136 205.02 118.115 204.807 118.072C204.7 118.061 204.626 118.019 204.583 117.944C204.551 117.869 204.546 117.784 204.567 117.688L204.615 117.48C204.658 117.288 204.78 117.203 204.983 117.224C205.175 117.256 205.34 117.272 205.479 117.272C205.82 117.272 206.087 117.176 206.279 116.984C206.482 116.792 206.674 116.429 206.855 115.896L206.999 115.448L204.183 107.48L204.151 107.352C204.151 107.277 204.178 107.219 204.231 107.176C204.284 107.133 204.354 107.112 204.439 107.112H204.903C205.074 107.112 205.191 107.197 205.255 107.368L206.151 110.008C206.236 110.275 206.45 110.909 206.791 111.912L207.511 114.072C207.863 113.08 208.327 111.715 208.903 109.976L209.783 107.368ZM217.361 107.368C217.425 107.197 217.548 107.112 217.729 107.112H218.161C218.247 107.112 218.316 107.133 218.369 107.176C218.423 107.219 218.449 107.277 218.449 107.352L218.417 107.48L215.329 116.2C215.159 116.68 214.993 117.053 214.833 117.32C214.673 117.587 214.455 117.789 214.177 117.928C213.911 118.067 213.559 118.136 213.121 118.136C212.844 118.136 212.599 118.115 212.385 118.072C212.279 118.061 212.204 118.019 212.161 117.944C212.129 117.869 212.124 117.784 212.145 117.688L212.193 117.48C212.236 117.288 212.359 117.203 212.561 117.224C212.753 117.256 212.919 117.272 213.057 117.272C213.399 117.272 213.665 117.176 213.857 116.984C214.06 116.792 214.252 116.429 214.433 115.896L214.577 115.448L211.761 107.48L211.729 107.352C211.729 107.277 211.756 107.219 211.809 107.176C211.863 107.133 211.932 107.112 212.017 107.112H212.481C212.652 107.112 212.769 107.197 212.833 107.368L213.729 110.008C213.815 110.275 214.028 110.909 214.369 111.912L215.089 114.072C215.441 113.08 215.905 111.715 216.481 109.976L217.361 107.368Z" fill="#D91F0A"/>
<rect width="24" height="16" transform="translate(301.5 102)" fill="white"/>
<path d="M320.5 103.5V105.5M314.5 103.5V105.5M312 107.5H323M315 110L316 109.5V113.5M318.134 110C318.202 109.882 318.294 109.78 318.403 109.699C318.513 109.617 318.638 109.56 318.771 109.529C318.903 109.498 319.041 109.494 319.175 109.518C319.309 109.542 319.437 109.593 319.55 109.668C319.664 109.743 319.761 109.841 319.836 109.955C319.91 110.069 319.961 110.197 319.984 110.332C320.007 110.466 320.003 110.603 319.971 110.736C319.939 110.868 319.88 110.993 319.799 111.102L318 113.5H320M312.5 104.5H322.5C322.776 104.5 323 104.724 323 105V115C323 115.276 322.776 115.5 322.5 115.5H312.5C312.224 115.5 312 115.276 312 115V105C312 104.724 312.224 104.5 312.5 104.5Z" stroke="#1B1B1F" stroke-linecap="round" stroke-linejoin="round"/>
</g>
<path d="M131.772 150C131.612 150 131.532 149.92 131.532 149.76V141.72C131.532 141.56 131.612 141.48 131.772 141.48H136.812C136.972 141.48 137.052 141.56 137.052 141.72V141.948C137.052 142.108 136.972 142.188 136.812 142.188H132.384V145.272H136.476C136.636 145.272 136.716 145.352 136.716 145.512V145.728C136.716 145.888 136.636 145.968 136.476 145.968H132.384V149.292H136.908C137.068 149.292 137.148 149.372 137.148 149.532V149.76C137.148 149.92 137.068 150 136.908 150H131.772ZM140.791 144.036C140.991 144.036 141.227 144.068 141.499 144.132C141.643 144.18 141.699 144.28 141.667 144.432L141.619 144.624C141.579 144.776 141.479 144.832 141.319 144.792C141.127 144.744 140.951 144.72 140.791 144.72C140.383 144.72 140.043 144.896 139.771 145.248C139.507 145.6 139.375 146.088 139.375 146.712V149.76C139.375 149.92 139.295 150 139.135 150H138.823C138.663 150 138.583 149.92 138.583 149.76V144.324C138.583 144.164 138.663 144.084 138.823 144.084H139.087C139.247 144.084 139.327 144.164 139.327 144.324V144.984C139.463 144.688 139.655 144.456 139.903 144.288C140.159 144.12 140.455 144.036 140.791 144.036ZM144.951 144.036C145.151 144.036 145.387 144.068 145.659 144.132C145.803 144.18 145.859 144.28 145.827 144.432L145.779 144.624C145.739 144.776 145.639 144.832 145.479 144.792C145.287 144.744 145.111 144.72 144.951 144.72C144.543 144.72 144.203 144.896 143.931 145.248C143.667 145.6 143.535 146.088 143.535 146.712V149.76C143.535 149.92 143.455 150 143.295 150H142.983C142.823 150 142.743 149.92 142.743 149.76V144.324C142.743 144.164 142.823 144.084 142.983 144.084H143.247C143.407 144.084 143.487 144.164 143.487 144.324V144.984C143.623 144.688 143.815 144.456 144.063 144.288C144.319 144.12 144.615 144.036 144.951 144.036ZM149.024 150.156C148.472 150.156 147.98 150.024 147.548 149.76C147.116 149.496 146.78 149.132 146.54 148.668C146.3 148.196 146.18 147.656 146.18 147.048C146.18 146.44 146.3 145.904 146.54 145.44C146.78 144.968 147.116 144.6 147.548 144.336C147.98 144.072 148.472 143.94 149.024 143.94C149.576 143.94 150.068 144.072 150.5 144.336C150.932 144.6 151.268 144.968 151.508 145.44C151.748 145.904 151.868 146.44 151.868 147.048C151.868 147.656 151.748 148.196 151.508 148.668C151.268 149.132 150.932 149.496 150.5 149.76C150.068 150.024 149.576 150.156 149.024 150.156ZM149.024 149.496C149.64 149.496 150.132 149.272 150.5 148.824C150.868 148.368 151.052 147.776 151.052 147.048C151.052 146.32 150.868 145.732 150.5 145.284C150.132 144.828 149.64 144.6 149.024 144.6C148.408 144.6 147.916 144.828 147.548 145.284C147.18 145.732 146.996 146.32 146.996 147.048C146.996 147.776 147.18 148.368 147.548 148.824C147.916 149.272 148.408 149.496 149.024 149.496ZM155.451 144.036C155.651 144.036 155.887 144.068 156.159 144.132C156.303 144.18 156.359 144.28 156.327 144.432L156.279 144.624C156.239 144.776 156.139 144.832 155.979 144.792C155.787 144.744 155.611 144.72 155.451 144.72C155.043 144.72 154.703 144.896 154.431 145.248C154.167 145.6 154.035 146.088 154.035 146.712V149.76C154.035 149.92 153.955 150 153.795 150H153.483C153.323 150 153.243 149.92 153.243 149.76V144.324C153.243 144.164 153.323 144.084 153.483 144.084H153.747C153.907 144.084 153.987 144.164 153.987 144.324V144.984C154.123 144.688 154.315 144.456 154.563 144.288C154.819 144.12 155.115 144.036 155.451 144.036ZM166.181 143.94C166.821 143.94 167.309 144.124 167.645 144.492C167.989 144.852 168.161 145.316 168.161 145.884V149.76C168.161 149.92 168.081 150 167.921 150H167.609C167.449 150 167.369 149.92 167.369 149.76V146.1C167.369 145.62 167.257 145.252 167.033 144.996C166.817 144.74 166.493 144.612 166.061 144.612C165.605 144.612 165.241 144.764 164.969 145.068C164.697 145.372 164.561 145.764 164.561 146.244V149.76C164.561 149.92 164.481 150 164.321 150H164.009C163.849 150 163.769 149.92 163.769 149.76V146.1C163.769 145.62 163.657 145.252 163.433 144.996C163.217 144.74 162.889 144.612 162.449 144.612C162.041 144.612 161.701 144.74 161.429 144.996C161.165 145.252 161.009 145.588 160.961 146.004V149.76C160.961 149.92 160.881 150 160.721 150H160.409C160.249 150 160.169 149.92 160.169 149.76V144.324C160.169 144.164 160.249 144.084 160.409 144.084H160.673C160.833 144.084 160.913 144.164 160.913 144.324V144.816C161.273 144.232 161.845 143.94 162.629 143.94C163.037 143.94 163.385 144.032 163.673 144.216C163.969 144.392 164.189 144.632 164.333 144.936C164.757 144.272 165.373 143.94 166.181 143.94ZM174.216 148.596C174.272 148.54 174.332 148.512 174.396 148.512C174.452 148.512 174.504 148.536 174.552 148.584L174.708 148.728C174.764 148.784 174.792 148.844 174.792 148.908C174.792 148.956 174.768 149.012 174.72 149.076C174.328 149.468 173.948 149.748 173.58 149.916C173.212 150.076 172.8 150.156 172.344 150.156C171.768 150.156 171.268 150.028 170.844 149.772C170.42 149.516 170.092 149.16 169.86 148.704C169.628 148.24 169.512 147.704 169.512 147.096C169.512 146.48 169.624 145.936 169.848 145.464C170.08 144.984 170.404 144.612 170.82 144.348C171.236 144.076 171.716 143.94 172.26 143.94C173.068 143.94 173.704 144.192 174.168 144.696C174.632 145.2 174.864 145.88 174.864 146.736V146.88C174.856 146.952 174.828 147.008 174.78 147.048C174.74 147.088 174.684 147.108 174.612 147.108H170.316C170.34 147.78 170.516 148.348 170.844 148.812C171.18 149.268 171.68 149.496 172.344 149.496C172.704 149.496 173.02 149.432 173.292 149.304C173.572 149.168 173.88 148.932 174.216 148.596ZM172.26 144.6C171.732 144.6 171.296 144.764 170.952 145.092C170.616 145.412 170.412 145.884 170.34 146.508H174.072C174.056 145.924 173.888 145.46 173.568 145.116C173.248 144.772 172.812 144.6 172.26 144.6ZM178.393 150.156C177.905 150.156 177.473 150.088 177.097 149.952C176.729 149.808 176.341 149.568 175.933 149.232C175.861 149.184 175.825 149.128 175.825 149.064C175.825 149.008 175.853 148.952 175.909 148.896L176.065 148.728C176.113 148.664 176.173 148.632 176.245 148.632C176.301 148.632 176.353 148.656 176.401 148.704C176.785 149 177.125 149.208 177.421 149.328C177.717 149.44 178.041 149.496 178.393 149.496C178.833 149.496 179.193 149.4 179.473 149.208C179.753 149.008 179.893 148.74 179.893 148.404C179.893 148.068 179.749 147.82 179.461 147.66C179.173 147.5 178.729 147.356 178.129 147.228C177.601 147.116 177.185 147 176.881 146.88C176.585 146.752 176.365 146.592 176.221 146.4C176.077 146.208 176.005 145.956 176.005 145.644C176.005 145.132 176.213 144.72 176.629 144.408C177.045 144.096 177.569 143.94 178.201 143.94C178.633 143.94 179.017 143.996 179.353 144.108C179.697 144.212 180.041 144.388 180.385 144.636C180.457 144.692 180.493 144.752 180.493 144.816C180.493 144.856 180.473 144.908 180.433 144.972L180.289 145.152C180.249 145.216 180.193 145.248 180.121 145.248C180.057 145.248 180.001 145.228 179.953 145.188C179.625 144.956 179.333 144.8 179.077 144.72C178.829 144.64 178.545 144.6 178.225 144.6C177.785 144.6 177.433 144.696 177.169 144.888C176.905 145.08 176.773 145.324 176.773 145.62C176.773 145.804 176.833 145.952 176.953 146.064C177.073 146.176 177.245 146.272 177.469 146.352C177.693 146.424 178.021 146.508 178.453 146.604C179.253 146.78 179.821 146.996 180.157 147.252C180.501 147.508 180.673 147.88 180.673 148.368C180.673 148.904 180.461 149.336 180.037 149.664C179.613 149.992 179.065 150.156 178.393 150.156ZM184.077 150.156C183.589 150.156 183.157 150.088 182.781 149.952C182.413 149.808 182.025 149.568 181.617 149.232C181.545 149.184 181.509 149.128 181.509 149.064C181.509 149.008 181.537 148.952 181.593 148.896L181.749 148.728C181.797 148.664 181.857 148.632 181.929 148.632C181.985 148.632 182.037 148.656 182.085 148.704C182.469 149 182.809 149.208 183.105 149.328C183.401 149.44 183.725 149.496 184.077 149.496C184.517 149.496 184.877 149.4 185.157 149.208C185.437 149.008 185.577 148.74 185.577 148.404C185.577 148.068 185.433 147.82 185.145 147.66C184.857 147.5 184.413 147.356 183.813 147.228C183.285 147.116 182.869 147 182.565 146.88C182.269 146.752 182.049 146.592 181.905 146.4C181.761 146.208 181.689 145.956 181.689 145.644C181.689 145.132 181.897 144.72 182.313 144.408C182.729 144.096 183.253 143.94 183.885 143.94C184.317 143.94 184.701 143.996 185.037 144.108C185.381 144.212 185.725 144.388 186.069 144.636C186.141 144.692 186.177 144.752 186.177 144.816C186.177 144.856 186.157 144.908 186.117 144.972L185.973 145.152C185.933 145.216 185.877 145.248 185.805 145.248C185.741 145.248 185.685 145.228 185.637 145.188C185.309 144.956 185.017 144.8 184.761 144.72C184.513 144.64 184.229 144.6 183.909 144.6C183.469 144.6 183.117 144.696 182.853 144.888C182.589 145.08 182.457 145.324 182.457 145.62C182.457 145.804 182.517 145.952 182.637 146.064C182.757 146.176 182.929 146.272 183.153 146.352C183.377 146.424 183.705 146.508 184.137 146.604C184.937 146.78 185.505 146.996 185.841 147.252C186.185 147.508 186.357 147.88 186.357 148.368C186.357 148.904 186.145 149.336 185.721 149.664C185.297 149.992 184.749 150.156 184.077 150.156ZM190.023 143.94C190.751 143.94 191.319 144.116 191.727 144.468C192.135 144.812 192.339 145.268 192.339 145.836V149.76C192.339 149.92 192.259 150 192.099 150H191.859C191.699 150 191.619 149.92 191.619 149.76V149.22C191.419 149.54 191.135 149.78 190.767 149.94C190.407 150.1 190.003 150.18 189.555 150.18C188.931 150.18 188.423 150.048 188.031 149.784C187.639 149.52 187.443 149.112 187.443 148.56C187.443 148.12 187.567 147.768 187.815 147.504C188.063 147.232 188.387 147.028 188.787 146.892C189.187 146.748 189.687 146.62 190.287 146.508L191.583 146.28V145.896C191.583 145.488 191.443 145.172 191.163 144.948C190.883 144.716 190.515 144.6 190.059 144.6C189.715 144.6 189.403 144.664 189.123 144.792C188.843 144.92 188.543 145.14 188.223 145.452C188.167 145.508 188.107 145.536 188.043 145.536C187.987 145.536 187.935 145.512 187.887 145.464L187.731 145.32C187.675 145.264 187.647 145.204 187.647 145.14C187.647 145.068 187.675 145.004 187.731 144.948C188.067 144.596 188.419 144.34 188.787 144.18C189.163 144.02 189.575 143.94 190.023 143.94ZM189.591 149.52C190.167 149.52 190.643 149.368 191.019 149.064C191.395 148.76 191.583 148.372 191.583 147.9V146.892L190.467 147.108C189.947 147.212 189.535 147.312 189.231 147.408C188.927 147.504 188.683 147.644 188.499 147.828C188.315 148.012 188.223 148.252 188.223 148.548C188.223 148.852 188.343 149.092 188.583 149.268C188.831 149.436 189.167 149.52 189.591 149.52ZM198.343 144.324C198.343 144.164 198.423 144.084 198.583 144.084H198.835C198.995 144.084 199.075 144.164 199.075 144.324V149.94C199.075 150.684 198.851 151.268 198.403 151.692C197.955 152.124 197.327 152.34 196.519 152.34C195.647 152.34 194.843 152.092 194.107 151.596C194.027 151.548 193.987 151.488 193.987 151.416C193.987 151.36 194.003 151.312 194.035 151.272L194.179 151.068C194.227 150.988 194.291 150.948 194.371 150.948C194.403 150.948 194.451 150.964 194.515 150.996C194.867 151.22 195.195 151.388 195.499 151.5C195.811 151.612 196.151 151.668 196.519 151.668C197.047 151.668 197.475 151.52 197.803 151.224C198.131 150.936 198.295 150.488 198.295 149.88V148.92C197.863 149.616 197.207 149.964 196.327 149.964C195.815 149.964 195.363 149.836 194.971 149.58C194.579 149.316 194.275 148.956 194.059 148.5C193.851 148.044 193.747 147.528 193.747 146.952C193.747 146.376 193.851 145.86 194.059 145.404C194.275 144.948 194.579 144.592 194.971 144.336C195.363 144.072 195.815 143.94 196.327 143.94C196.791 143.94 197.191 144.04 197.527 144.24C197.871 144.432 198.143 144.708 198.343 145.068V144.324ZM196.411 149.292C196.987 149.292 197.447 149.076 197.791 148.644C198.135 148.204 198.307 147.64 198.307 146.952C198.307 146.264 198.135 145.704 197.791 145.272C197.447 144.832 196.987 144.612 196.411 144.612C195.827 144.612 195.371 144.828 195.043 145.26C194.723 145.692 194.563 146.256 194.563 146.952C194.563 147.648 194.723 148.212 195.043 148.644C195.371 149.076 195.827 149.292 196.411 149.292ZM205.165 148.596C205.221 148.54 205.281 148.512 205.345 148.512C205.401 148.512 205.453 148.536 205.501 148.584L205.657 148.728C205.713 148.784 205.741 148.844 205.741 148.908C205.741 148.956 205.717 149.012 205.669 149.076C205.277 149.468 204.897 149.748 204.529 149.916C204.161 150.076 203.749 150.156 203.293 150.156C202.717 150.156 202.217 150.028 201.793 149.772C201.369 149.516 201.041 149.16 200.809 148.704C200.577 148.24 200.461 147.704 200.461 147.096C200.461 146.48 200.573 145.936 200.797 145.464C201.029 144.984 201.353 144.612 201.769 144.348C202.185 144.076 202.665 143.94 203.209 143.94C204.017 143.94 204.653 144.192 205.117 144.696C205.581 145.2 205.813 145.88 205.813 146.736V146.88C205.805 146.952 205.777 147.008 205.729 147.048C205.689 147.088 205.633 147.108 205.561 147.108H201.265C201.289 147.78 201.465 148.348 201.793 148.812C202.129 149.268 202.629 149.496 203.293 149.496C203.653 149.496 203.969 149.432 204.241 149.304C204.521 149.168 204.829 148.932 205.165 148.596ZM203.209 144.6C202.681 144.6 202.245 144.764 201.901 145.092C201.565 145.412 201.361 145.884 201.289 146.508H205.021C205.005 145.924 204.837 145.46 204.517 145.116C204.197 144.772 203.761 144.6 203.209 144.6ZM214.245 144.324C214.245 144.164 214.325 144.084 214.485 144.084H214.737C214.897 144.084 214.977 144.164 214.977 144.324V149.94C214.977 150.684 214.753 151.268 214.305 151.692C213.857 152.124 213.229 152.34 212.421 152.34C211.549 152.34 210.745 152.092 210.009 151.596C209.929 151.548 209.889 151.488 209.889 151.416C209.889 151.36 209.905 151.312 209.937 151.272L210.081 151.068C210.129 150.988 210.193 150.948 210.273 150.948C210.305 150.948 210.353 150.964 210.417 150.996C210.769 151.22 211.097 151.388 211.401 151.5C211.713 151.612 212.053 151.668 212.421 151.668C212.949 151.668 213.377 151.52 213.705 151.224C214.033 150.936 214.197 150.488 214.197 149.88V148.92C213.765 149.616 213.109 149.964 212.229 149.964C211.717 149.964 211.265 149.836 210.873 149.58C210.481 149.316 210.177 148.956 209.961 148.5C209.753 148.044 209.649 147.528 209.649 146.952C209.649 146.376 209.753 145.86 209.961 145.404C210.177 144.948 210.481 144.592 210.873 144.336C211.265 144.072 211.717 143.94 212.229 143.94C212.693 143.94 213.093 144.04 213.429 144.24C213.773 144.432 214.045 144.708 214.245 145.068V144.324ZM212.313 149.292C212.889 149.292 213.349 149.076 213.693 148.644C214.037 148.204 214.209 147.64 214.209 146.952C214.209 146.264 214.037 145.704 213.693 145.272C213.349 144.832 212.889 144.612 212.313 144.612C211.729 144.612 211.273 144.828 210.945 145.26C210.625 145.692 210.465 146.256 210.465 146.952C210.465 147.648 210.625 148.212 210.945 148.644C211.273 149.076 211.729 149.292 212.313 149.292ZM219.207 150.156C218.655 150.156 218.163 150.024 217.731 149.76C217.299 149.496 216.963 149.132 216.723 148.668C216.483 148.196 216.363 147.656 216.363 147.048C216.363 146.44 216.483 145.904 216.723 145.44C216.963 144.968 217.299 144.6 217.731 144.336C218.163 144.072 218.655 143.94 219.207 143.94C219.759 143.94 220.251 144.072 220.683 144.336C221.115 144.6 221.451 144.968 221.691 145.44C221.931 145.904 222.051 146.44 222.051 147.048C222.051 147.656 221.931 148.196 221.691 148.668C221.451 149.132 221.115 149.496 220.683 149.76C220.251 150.024 219.759 150.156 219.207 150.156ZM219.207 149.496C219.823 149.496 220.315 149.272 220.683 148.824C221.051 148.368 221.235 147.776 221.235 147.048C221.235 146.32 221.051 145.732 220.683 145.284C220.315 144.828 219.823 144.6 219.207 144.6C218.591 144.6 218.099 144.828 217.731 145.284C217.363 145.732 217.179 146.32 217.179 147.048C217.179 147.776 217.363 148.368 217.731 148.824C218.099 149.272 218.591 149.496 219.207 149.496ZM227.805 148.596C227.861 148.54 227.921 148.512 227.985 148.512C228.041 148.512 228.093 148.536 228.141 148.584L228.297 148.728C228.353 148.784 228.381 148.844 228.381 148.908C228.381 148.956 228.357 149.012 228.309 149.076C227.917 149.468 227.537 149.748 227.169 149.916C226.801 150.076 226.389 150.156 225.933 150.156C225.357 150.156 224.857 150.028 224.433 149.772C224.009 149.516 223.681 149.16 223.449 148.704C223.217 148.24 223.101 147.704 223.101 147.096C223.101 146.48 223.213 145.936 223.437 145.464C223.669 144.984 223.993 144.612 224.409 144.348C224.825 144.076 225.305 143.94 225.849 143.94C226.657 143.94 227.293 144.192 227.757 144.696C228.221 145.2 228.453 145.88 228.453 146.736V146.88C228.445 146.952 228.417 147.008 228.369 147.048C228.329 147.088 228.273 147.108 228.201 147.108H223.905C223.929 147.78 224.105 148.348 224.433 148.812C224.769 149.268 225.269 149.496 225.933 149.496C226.293 149.496 226.609 149.432 226.881 149.304C227.161 149.168 227.469 148.932 227.805 148.596ZM225.849 144.6C225.321 144.6 224.885 144.764 224.541 145.092C224.205 145.412 224.001 145.884 223.929 146.508H227.661C227.645 145.924 227.477 145.46 227.157 145.116C226.837 144.772 226.401 144.6 225.849 144.6ZM231.983 150.156C231.495 150.156 231.063 150.088 230.687 149.952C230.319 149.808 229.931 149.568 229.523 149.232C229.451 149.184 229.415 149.128 229.415 149.064C229.415 149.008 229.443 148.952 229.499 148.896L229.655 148.728C229.703 148.664 229.763 148.632 229.835 148.632C229.891 148.632 229.943 148.656 229.991 148.704C230.375 149 230.715 149.208 231.011 149.328C231.307 149.44 231.631 149.496 231.983 149.496C232.423 149.496 232.783 149.4 233.063 149.208C233.343 149.008 233.483 148.74 233.483 148.404C233.483 148.068 233.339 147.82 233.051 147.66C232.763 147.5 232.319 147.356 231.719 147.228C231.191 147.116 230.775 147 230.471 146.88C230.175 146.752 229.955 146.592 229.811 146.4C229.667 146.208 229.595 145.956 229.595 145.644C229.595 145.132 229.803 144.72 230.219 144.408C230.635 144.096 231.159 143.94 231.791 143.94C232.223 143.94 232.607 143.996 232.943 144.108C233.287 144.212 233.631 144.388 233.975 144.636C234.047 144.692 234.083 144.752 234.083 144.816C234.083 144.856 234.063 144.908 234.023 144.972L233.879 145.152C233.839 145.216 233.783 145.248 233.711 145.248C233.647 145.248 233.591 145.228 233.543 145.188C233.215 144.956 232.923 144.8 232.667 144.72C232.419 144.64 232.135 144.6 231.815 144.6C231.375 144.6 231.023 144.696 230.759 144.888C230.495 145.08 230.363 145.324 230.363 145.62C230.363 145.804 230.423 145.952 230.543 146.064C230.663 146.176 230.835 146.272 231.059 146.352C231.283 146.424 231.611 146.508 232.043 146.604C232.843 146.78 233.411 146.996 233.747 147.252C234.091 147.508 234.263 147.88 234.263 148.368C234.263 148.904 234.051 149.336 233.627 149.664C233.203 149.992 232.655 150.156 231.983 150.156ZM241.008 143.94C241.696 143.94 242.22 144.136 242.58 144.528C242.94 144.912 243.12 145.388 243.12 145.956V149.76C243.12 149.92 243.04 150 242.88 150H242.568C242.408 150 242.328 149.92 242.328 149.76V146.22C242.328 145.692 242.2 145.292 241.944 145.02C241.688 144.748 241.32 144.612 240.84 144.612C240.536 144.612 240.256 144.688 240 144.84C239.744 144.984 239.54 145.184 239.388 145.44C239.236 145.696 239.16 145.976 239.16 146.28V149.76C239.16 149.92 239.08 150 238.92 150H238.608C238.448 150 238.368 149.92 238.368 149.76V141.72C238.368 141.56 238.448 141.48 238.608 141.48H238.92C239.08 141.48 239.16 141.56 239.16 141.72V144.852C239.352 144.548 239.608 144.32 239.928 144.168C240.256 144.016 240.616 143.94 241.008 143.94ZM249.18 148.596C249.236 148.54 249.296 148.512 249.36 148.512C249.416 148.512 249.468 148.536 249.516 148.584L249.672 148.728C249.728 148.784 249.756 148.844 249.756 148.908C249.756 148.956 249.732 149.012 249.684 149.076C249.292 149.468 248.912 149.748 248.544 149.916C248.176 150.076 247.764 150.156 247.308 150.156C246.732 150.156 246.232 150.028 245.808 149.772C245.384 149.516 245.056 149.16 244.824 148.704C244.592 148.24 244.476 147.704 244.476 147.096C244.476 146.48 244.588 145.936 244.812 145.464C245.044 144.984 245.368 144.612 245.784 144.348C246.2 144.076 246.68 143.94 247.224 143.94C248.032 143.94 248.668 144.192 249.132 144.696C249.596 145.2 249.828 145.88 249.828 146.736V146.88C249.82 146.952 249.792 147.008 249.744 147.048C249.704 147.088 249.648 147.108 249.576 147.108H245.28C245.304 147.78 245.48 148.348 245.808 148.812C246.144 149.268 246.644 149.496 247.308 149.496C247.668 149.496 247.984 149.432 248.256 149.304C248.536 149.168 248.844 148.932 249.18 148.596ZM247.224 144.6C246.696 144.6 246.26 144.764 245.916 145.092C245.58 145.412 245.376 145.884 245.304 146.508H249.036C249.02 145.924 248.852 145.46 248.532 145.116C248.212 144.772 247.776 144.6 247.224 144.6ZM253.455 144.036C253.655 144.036 253.891 144.068 254.163 144.132C254.307 144.18 254.363 144.28 254.331 144.432L254.283 144.624C254.243 144.776 254.143 144.832 253.983 144.792C253.791 144.744 253.615 144.72 253.455 144.72C253.047 144.72 252.707 144.896 252.435 145.248C252.171 145.6 252.039 146.088 252.039 146.712V149.76C252.039 149.92 251.959 150 251.799 150H251.487C251.327 150 251.247 149.92 251.247 149.76V144.324C251.247 144.164 251.327 144.084 251.487 144.084H251.751C251.911 144.084 251.991 144.164 251.991 144.324V144.984C252.127 144.688 252.319 144.456 252.567 144.288C252.823 144.12 253.119 144.036 253.455 144.036ZM259.387 148.596C259.443 148.54 259.503 148.512 259.567 148.512C259.623 148.512 259.675 148.536 259.723 148.584L259.879 148.728C259.935 148.784 259.963 148.844 259.963 148.908C259.963 148.956 259.939 149.012 259.891 149.076C259.499 149.468 259.119 149.748 258.751 149.916C258.383 150.076 257.971 150.156 257.515 150.156C256.939 150.156 256.439 150.028 256.015 149.772C255.591 149.516 255.263 149.16 255.031 148.704C254.799 148.24 254.683 147.704 254.683 147.096C254.683 146.48 254.795 145.936 255.019 145.464C255.251 144.984 255.575 144.612 255.991 144.348C256.407 144.076 256.887 143.94 257.431 143.94C258.239 143.94 258.875 144.192 259.339 144.696C259.803 145.2 260.035 145.88 260.035 146.736V146.88C260.027 146.952 259.999 147.008 259.951 147.048C259.911 147.088 259.855 147.108 259.783 147.108H255.487C255.511 147.78 255.687 148.348 256.015 148.812C256.351 149.268 256.851 149.496 257.515 149.496C257.875 149.496 258.191 149.432 258.463 149.304C258.743 149.168 259.051 148.932 259.387 148.596ZM257.431 144.6C256.903 144.6 256.467 144.764 256.123 145.092C255.787 145.412 255.583 145.884 255.511 146.508H259.243C259.227 145.924 259.059 145.46 258.739 145.116C258.419 144.772 257.983 144.6 257.431 144.6Z" fill="#D91F0A"/>
<path d="M132.068 208C131.919 208 131.797 207.958 131.704 207.874C131.62 207.781 131.578 207.659 131.578 207.51V198.55C131.578 198.391 131.62 198.27 131.704 198.186C131.797 198.102 131.919 198.06 132.068 198.06H135.442C136.375 198.06 137.173 198.27 137.836 198.69C138.508 199.11 139.017 199.698 139.362 200.454C139.717 201.201 139.894 202.059 139.894 203.03C139.894 204.001 139.717 204.864 139.362 205.62C139.017 206.367 138.508 206.95 137.836 207.37C137.173 207.79 136.375 208 135.442 208H132.068ZM135.204 206.656C136.156 206.656 136.903 206.343 137.444 205.718C137.995 205.083 138.27 204.187 138.27 203.03C138.27 201.873 137.995 200.981 137.444 200.356C136.903 199.721 136.156 199.404 135.204 199.404H133.174V206.656H135.204ZM144.192 200.888C145.125 200.888 145.844 201.107 146.348 201.546C146.852 201.975 147.104 202.549 147.104 203.268V207.51C147.104 207.659 147.062 207.781 146.978 207.874C146.894 207.958 146.772 208 146.614 208H146.25C146.1 208 145.979 207.958 145.886 207.874C145.802 207.781 145.76 207.659 145.76 207.51V207.202C145.536 207.529 145.228 207.781 144.836 207.958C144.444 208.135 143.986 208.224 143.464 208.224C142.745 208.224 142.152 208.065 141.686 207.748C141.228 207.421 141 206.931 141 206.278C141 205.55 141.27 205.013 141.812 204.668C142.362 204.313 143.123 204.047 144.094 203.87L145.676 203.576V203.324C145.676 202.941 145.54 202.647 145.27 202.442C145.008 202.227 144.658 202.12 144.22 202.12C143.846 202.12 143.52 202.185 143.24 202.316C142.969 202.437 142.675 202.643 142.358 202.932C142.236 203.035 142.12 203.086 142.008 203.086C141.896 203.086 141.779 203.035 141.658 202.932L141.434 202.736C141.312 202.624 141.252 202.503 141.252 202.372C141.252 202.251 141.308 202.134 141.42 202.022C141.821 201.639 142.246 201.355 142.694 201.168C143.142 200.981 143.641 200.888 144.192 200.888ZM143.674 207.034C144.234 207.034 144.705 206.885 145.088 206.586C145.48 206.287 145.676 205.858 145.676 205.298V204.654L144.458 204.906C143.776 205.046 143.272 205.205 142.946 205.382C142.619 205.559 142.456 205.83 142.456 206.194C142.456 206.455 142.563 206.661 142.778 206.81C142.992 206.959 143.291 207.034 143.674 207.034ZM151.981 206.824C152.009 206.815 152.051 206.81 152.107 206.81C152.34 206.81 152.48 206.945 152.527 207.216L152.569 207.44C152.578 207.468 152.583 207.515 152.583 207.58C152.583 207.813 152.452 207.963 152.191 208.028C151.818 208.112 151.477 208.154 151.169 208.154C150.506 208.154 150.026 208 149.727 207.692C149.438 207.384 149.293 206.922 149.293 206.306V202.232H148.523C148.374 202.232 148.252 202.19 148.159 202.106C148.075 202.013 148.033 201.891 148.033 201.742V201.588C148.033 201.429 148.075 201.308 148.159 201.224C148.252 201.14 148.374 201.098 148.523 201.098H149.293V199.362C149.293 199.203 149.335 199.082 149.419 198.998C149.512 198.914 149.634 198.872 149.783 198.872H150.287C150.446 198.872 150.567 198.914 150.651 198.998C150.735 199.082 150.777 199.203 150.777 199.362V201.098H152.037C152.196 201.098 152.317 201.14 152.401 201.224C152.485 201.308 152.527 201.429 152.527 201.588V201.742C152.527 201.891 152.485 202.013 152.401 202.106C152.317 202.19 152.196 202.232 152.037 202.232H150.777V206.124C150.777 206.395 150.833 206.586 150.945 206.698C151.066 206.81 151.258 206.866 151.519 206.866C151.631 206.866 151.785 206.852 151.981 206.824ZM158.472 206.236C158.593 206.133 158.71 206.082 158.822 206.082C158.934 206.082 159.05 206.143 159.172 206.264L159.368 206.474C159.47 206.595 159.522 206.712 159.522 206.824C159.522 206.945 159.461 207.062 159.34 207.174C158.91 207.547 158.481 207.813 158.052 207.972C157.632 208.131 157.165 208.21 156.652 208.21C155.933 208.21 155.308 208.061 154.776 207.762C154.253 207.463 153.847 207.043 153.558 206.502C153.278 205.951 153.138 205.317 153.138 204.598C153.138 203.889 153.273 203.254 153.544 202.694C153.824 202.125 154.216 201.681 154.72 201.364C155.233 201.047 155.83 200.888 156.512 200.888C157.529 200.888 158.313 201.191 158.864 201.798C159.414 202.395 159.69 203.221 159.69 204.276V204.402C159.68 204.551 159.634 204.668 159.55 204.752C159.466 204.836 159.344 204.878 159.186 204.878H154.594C154.65 205.494 154.85 205.998 155.196 206.39C155.55 206.773 156.045 206.964 156.68 206.964C157.025 206.964 157.328 206.913 157.59 206.81C157.851 206.698 158.145 206.507 158.472 206.236ZM156.484 202.064C155.97 202.064 155.555 202.218 155.238 202.526C154.93 202.825 154.729 203.249 154.636 203.8H158.234C158.196 203.259 158.028 202.834 157.73 202.526C157.431 202.218 157.016 202.064 156.484 202.064Z" fill="#1B1B1F"/>
<rect x="131.5" y="217" width="201" height="46" rx="3" fill="white"/>
<rect x="131.5" y="217" width="201" height="46" rx="3" stroke="#D91F0A" stroke-width="2"/>
<g clip-path="url(#clip1_4517_26469)">
<path d="M146.644 244.072C146.857 244.072 146.964 244.179 146.964 244.392V244.68C146.964 244.893 146.857 245 146.644 245H139.54C139.327 245 139.22 244.893 139.22 244.68V244.616C139.22 243.837 139.353 243.181 139.62 242.648C139.897 242.104 140.255 241.645 140.692 241.272C141.14 240.899 141.753 240.472 142.532 239.992C142.607 239.939 142.884 239.773 143.364 239.496C143.929 239.176 144.372 238.899 144.692 238.664C145.012 238.429 145.279 238.141 145.492 237.8C145.705 237.448 145.812 237.037 145.812 236.568C145.812 235.853 145.572 235.304 145.092 234.92C144.612 234.536 144.031 234.344 143.348 234.344C142.687 234.344 142.137 234.483 141.7 234.76C141.263 235.037 140.756 235.517 140.18 236.2C140.105 236.296 140.015 236.344 139.908 236.344C139.855 236.344 139.791 236.317 139.716 236.264L139.444 236.056C139.348 235.971 139.3 235.885 139.3 235.8C139.3 235.747 139.327 235.683 139.38 235.608C139.945 234.893 140.532 234.349 141.14 233.976C141.759 233.603 142.484 233.416 143.316 233.416C144.009 233.416 144.628 233.549 145.172 233.816C145.716 234.072 146.137 234.44 146.436 234.92C146.745 235.389 146.9 235.923 146.9 236.52C146.9 237.149 146.767 237.693 146.5 238.152C146.244 238.6 145.919 238.973 145.524 239.272C145.129 239.56 144.596 239.901 143.924 240.296L143.124 240.776C142.452 241.192 141.94 241.533 141.588 241.8C141.236 242.056 140.943 242.371 140.708 242.744C140.473 243.107 140.335 243.549 140.292 244.072H146.644ZM152.566 245.24C151.819 245.24 151.163 245.059 150.598 244.696C150.043 244.333 149.6 243.827 149.27 243.176C148.747 242.141 148.486 240.856 148.486 239.32C148.486 237.773 148.747 236.483 149.27 235.448C149.6 234.797 150.043 234.296 150.598 233.944C151.163 233.581 151.819 233.4 152.566 233.4C153.312 233.4 153.963 233.581 154.518 233.944C155.083 234.296 155.531 234.797 155.862 235.448C156.384 236.483 156.646 237.773 156.646 239.32C156.646 240.856 156.384 242.141 155.862 243.176C155.531 243.827 155.083 244.333 154.518 244.696C153.963 245.059 153.312 245.24 152.566 245.24ZM152.566 244.312C153.611 244.312 154.395 243.768 154.918 242.68C155.334 241.795 155.542 240.675 155.542 239.32C155.542 237.944 155.334 236.819 154.918 235.944C154.406 234.867 153.622 234.328 152.566 234.328C151.51 234.328 150.726 234.867 150.214 235.944C149.798 236.819 149.59 237.944 149.59 239.32C149.59 240.685 149.798 241.805 150.214 242.68C150.736 243.768 151.52 244.312 152.566 244.312ZM158.819 245.112C158.595 245.112 158.403 245.032 158.243 244.872C158.083 244.712 158.003 244.52 158.003 244.296C158.003 244.072 158.083 243.88 158.243 243.72C158.403 243.56 158.595 243.48 158.819 243.48C159.043 243.48 159.235 243.56 159.395 243.72C159.555 243.88 159.635 244.072 159.635 244.296C159.635 244.52 159.555 244.712 159.395 244.872C159.235 245.032 159.043 245.112 158.819 245.112ZM164.437 233.4C165.29 233.4 166.021 233.592 166.629 233.976C167.237 234.349 167.696 234.861 168.005 235.512C168.314 236.163 168.469 236.893 168.469 237.704C168.469 238.557 168.32 239.352 168.021 240.088C167.722 240.824 167.322 241.507 166.821 242.136C166.33 242.765 165.712 243.437 164.965 244.152L164.245 244.84C164.138 244.947 164.01 245 163.861 245H163.221C163.04 245 162.949 244.941 162.949 244.824C162.949 244.76 162.992 244.685 163.077 244.6L164.085 243.672C165.706 242.189 166.741 240.851 167.189 239.656C166.88 240.083 166.474 240.424 165.973 240.68C165.472 240.925 164.901 241.048 164.261 241.048C163.482 241.048 162.805 240.877 162.229 240.536C161.653 240.184 161.21 239.72 160.901 239.144C160.602 238.557 160.453 237.923 160.453 237.24C160.453 236.557 160.613 235.923 160.933 235.336C161.253 234.749 161.712 234.28 162.309 233.928C162.917 233.576 163.626 233.4 164.437 233.4ZM164.341 240.12C164.949 240.12 165.477 239.992 165.925 239.736C166.384 239.48 166.73 239.133 166.965 238.696C167.21 238.259 167.333 237.768 167.333 237.224C167.333 236.68 167.216 236.189 166.981 235.752C166.746 235.304 166.41 234.957 165.973 234.712C165.536 234.456 165.024 234.328 164.437 234.328C163.552 234.328 162.848 234.6 162.325 235.144C161.813 235.688 161.557 236.381 161.557 237.224C161.557 238.067 161.802 238.76 162.293 239.304C162.784 239.848 163.466 240.12 164.341 240.12ZM173.89 233.4C174.743 233.4 175.474 233.592 176.082 233.976C176.69 234.349 177.149 234.861 177.458 235.512C177.767 236.163 177.922 236.893 177.922 237.704C177.922 238.557 177.773 239.352 177.474 240.088C177.175 240.824 176.775 241.507 176.274 242.136C175.783 242.765 175.165 243.437 174.418 244.152L173.698 244.84C173.591 244.947 173.463 245 173.314 245H172.674C172.493 245 172.402 244.941 172.402 244.824C172.402 244.76 172.445 244.685 172.53 244.6L173.538 243.672C175.159 242.189 176.194 240.851 176.642 239.656C176.333 240.083 175.927 240.424 175.426 240.68C174.925 240.925 174.354 241.048 173.714 241.048C172.935 241.048 172.258 240.877 171.682 240.536C171.106 240.184 170.663 239.72 170.354 239.144C170.055 238.557 169.906 237.923 169.906 237.24C169.906 236.557 170.066 235.923 170.386 235.336C170.706 234.749 171.165 234.28 171.762 233.928C172.37 233.576 173.079 233.4 173.89 233.4ZM173.794 240.12C174.402 240.12 174.93 239.992 175.378 239.736C175.837 239.48 176.183 239.133 176.418 238.696C176.663 238.259 176.786 237.768 176.786 237.224C176.786 236.68 176.669 236.189 176.434 235.752C176.199 235.304 175.863 234.957 175.426 234.712C174.989 234.456 174.477 234.328 173.89 234.328C173.005 234.328 172.301 234.6 171.778 235.144C171.266 235.688 171.01 236.381 171.01 237.224C171.01 238.067 171.255 238.76 171.746 239.304C172.237 239.848 172.919 240.12 173.794 240.12ZM180.288 245.112C180.064 245.112 179.872 245.032 179.712 244.872C179.552 244.712 179.472 244.52 179.472 244.296C179.472 244.072 179.552 243.88 179.712 243.72C179.872 243.56 180.064 243.48 180.288 243.48C180.512 243.48 180.704 243.56 180.864 243.72C181.024 243.88 181.104 244.072 181.104 244.296C181.104 244.52 181.024 244.712 180.864 244.872C180.704 245.032 180.512 245.112 180.288 245.112ZM190.363 244.072C190.576 244.072 190.683 244.179 190.683 244.392V244.68C190.683 244.893 190.576 245 190.363 245H183.259C183.045 245 182.939 244.893 182.939 244.68V244.616C182.939 243.837 183.072 243.181 183.339 242.648C183.616 242.104 183.973 241.645 184.411 241.272C184.859 240.899 185.472 240.472 186.251 239.992C186.325 239.939 186.603 239.773 187.083 239.496C187.648 239.176 188.091 238.899 188.411 238.664C188.731 238.429 188.997 238.141 189.211 237.8C189.424 237.448 189.531 237.037 189.531 236.568C189.531 235.853 189.291 235.304 188.811 234.92C188.331 234.536 187.749 234.344 187.067 234.344C186.405 234.344 185.856 234.483 185.419 234.76C184.981 235.037 184.475 235.517 183.899 236.2C183.824 236.296 183.733 236.344 183.627 236.344C183.573 236.344 183.509 236.317 183.435 236.264L183.163 236.056C183.067 235.971 183.019 235.885 183.019 235.8C183.019 235.747 183.045 235.683 183.099 235.608C183.664 234.893 184.251 234.349 184.859 233.976C185.477 233.603 186.203 233.416 187.035 233.416C187.728 233.416 188.347 233.549 188.891 233.816C189.435 234.072 189.856 234.44 190.155 234.92C190.464 235.389 190.619 235.923 190.619 236.52C190.619 237.149 190.485 237.693 190.219 238.152C189.963 238.6 189.637 238.973 189.243 239.272C188.848 239.56 188.315 239.901 187.643 240.296L186.843 240.776C186.171 241.192 185.659 241.533 185.307 241.8C184.955 242.056 184.661 242.371 184.427 242.744C184.192 243.107 184.053 243.549 184.011 244.072H190.363ZM196.284 245.24C195.538 245.24 194.882 245.059 194.316 244.696C193.762 244.333 193.319 243.827 192.988 243.176C192.466 242.141 192.204 240.856 192.204 239.32C192.204 237.773 192.466 236.483 192.988 235.448C193.319 234.797 193.762 234.296 194.316 233.944C194.882 233.581 195.538 233.4 196.284 233.4C197.031 233.4 197.682 233.581 198.236 233.944C198.802 234.296 199.25 234.797 199.58 235.448C200.103 236.483 200.364 237.773 200.364 239.32C200.364 240.856 200.103 242.141 199.58 243.176C199.25 243.827 198.802 244.333 198.236 244.696C197.682 245.059 197.031 245.24 196.284 245.24ZM196.284 244.312C197.33 244.312 198.114 243.768 198.636 242.68C199.052 241.795 199.26 240.675 199.26 239.32C199.26 237.944 199.052 236.819 198.636 235.944C198.124 234.867 197.34 234.328 196.284 234.328C195.228 234.328 194.444 234.867 193.932 235.944C193.516 236.819 193.308 237.944 193.308 239.32C193.308 240.685 193.516 241.805 193.932 242.68C194.455 243.768 195.239 244.312 196.284 244.312ZM209.253 244.072C209.467 244.072 209.573 244.179 209.573 244.392V244.68C209.573 244.893 209.467 245 209.253 245H202.149C201.936 245 201.829 244.893 201.829 244.68V244.616C201.829 243.837 201.963 243.181 202.229 242.648C202.507 242.104 202.864 241.645 203.301 241.272C203.749 240.899 204.363 240.472 205.141 239.992C205.216 239.939 205.493 239.773 205.973 239.496C206.539 239.176 206.981 238.899 207.301 238.664C207.621 238.429 207.888 238.141 208.101 237.8C208.315 237.448 208.421 237.037 208.421 236.568C208.421 235.853 208.181 235.304 207.701 234.92C207.221 234.536 206.64 234.344 205.957 234.344C205.296 234.344 204.747 234.483 204.309 234.76C203.872 235.037 203.365 235.517 202.789 236.2C202.715 236.296 202.624 236.344 202.517 236.344C202.464 236.344 202.4 236.317 202.325 236.264L202.053 236.056C201.957 235.971 201.909 235.885 201.909 235.8C201.909 235.747 201.936 235.683 201.989 235.608C202.555 234.893 203.141 234.349 203.749 233.976C204.368 233.603 205.093 233.416 205.925 233.416C206.619 233.416 207.237 233.549 207.781 233.816C208.325 234.072 208.747 234.44 209.045 234.92C209.355 235.389 209.509 235.923 209.509 236.52C209.509 237.149 209.376 237.693 209.109 238.152C208.853 238.6 208.528 238.973 208.133 239.272C207.739 239.56 207.205 239.901 206.533 240.296L205.733 240.776C205.061 241.192 204.549 241.533 204.197 241.8C203.845 242.056 203.552 242.371 203.317 242.744C203.083 243.107 202.944 243.549 202.901 244.072H209.253ZM215.18 237.672C215.916 237.672 216.561 237.827 217.116 238.136C217.681 238.435 218.118 238.861 218.428 239.416C218.737 239.971 218.892 240.611 218.892 241.336C218.892 241.987 218.737 242.611 218.428 243.208C218.118 243.805 217.67 244.291 217.084 244.664C216.497 245.037 215.809 245.224 215.02 245.224C214.252 245.224 213.585 245.128 213.02 244.936C212.465 244.744 211.836 244.413 211.132 243.944C211.025 243.88 210.972 243.795 210.972 243.688C210.972 243.613 210.993 243.549 211.036 243.496L211.243 243.208C211.308 243.112 211.382 243.064 211.468 243.064C211.532 243.064 211.606 243.091 211.692 243.144C212.342 243.581 212.897 243.885 213.356 244.056C213.825 244.227 214.342 244.312 214.908 244.312C215.505 244.312 216.022 244.179 216.46 243.912C216.897 243.635 217.228 243.272 217.452 242.824C217.686 242.365 217.804 241.869 217.804 241.336C217.804 240.483 217.564 239.816 217.084 239.336C216.614 238.856 215.937 238.616 215.052 238.616C214.102 238.616 213.308 238.904 212.668 239.48C212.55 239.587 212.412 239.629 212.252 239.608L211.9 239.56C211.804 239.549 211.729 239.512 211.676 239.448C211.622 239.384 211.601 239.304 211.612 239.208L212.044 233.944C212.054 233.848 212.086 233.773 212.14 233.72C212.204 233.667 212.284 233.64 212.38 233.64H218.076C218.289 233.64 218.396 233.747 218.396 233.96V234.248C218.396 234.461 218.289 234.568 218.076 234.568H212.988L212.652 238.504C212.95 238.259 213.313 238.061 213.74 237.912C214.177 237.752 214.657 237.672 215.18 237.672Z" fill="#1B1B1F"/>
<rect width="24" height="16" transform="translate(301.5 232)" fill="white"/>
<path d="M320.5 233.5V235.5M314.5 233.5V235.5M312 237.5H323M315 240L316 239.5V243.5M318.134 240C318.202 239.882 318.294 239.78 318.403 239.699C318.513 239.617 318.638 239.56 318.771 239.529C318.903 239.498 319.041 239.494 319.175 239.518C319.309 239.542 319.437 239.593 319.55 239.668C319.664 239.743 319.761 239.841 319.836 239.955C319.91 240.069 319.961 240.197 319.984 240.332C320.007 240.466 320.003 240.603 319.971 240.736C319.939 240.868 319.88 240.993 319.799 241.102L318 243.5H320M312.5 234.5H322.5C322.776 234.5 323 234.724 323 235V245C323 245.276 322.776 245.5 322.5 245.5H312.5C312.224 245.5 312 245.276 312 245V235C312 234.724 312.224 234.5 312.5 234.5Z" stroke="#1B1B1F" stroke-linecap="round" stroke-linejoin="round"/>
</g>
<path d="M131.772 280C131.612 280 131.532 279.92 131.532 279.76V271.72C131.532 271.56 131.612 271.48 131.772 271.48H136.812C136.972 271.48 137.052 271.56 137.052 271.72V271.948C137.052 272.108 136.972 272.188 136.812 272.188H132.384V275.272H136.476C136.636 275.272 136.716 275.352 136.716 275.512V275.728C136.716 275.888 136.636 275.968 136.476 275.968H132.384V279.292H136.908C137.068 279.292 137.148 279.372 137.148 279.532V279.76C137.148 279.92 137.068 280 136.908 280H131.772ZM140.791 274.036C140.991 274.036 141.227 274.068 141.499 274.132C141.643 274.18 141.699 274.28 141.667 274.432L141.619 274.624C141.579 274.776 141.479 274.832 141.319 274.792C141.127 274.744 140.951 274.72 140.791 274.72C140.383 274.72 140.043 274.896 139.771 275.248C139.507 275.6 139.375 276.088 139.375 276.712V279.76C139.375 279.92 139.295 280 139.135 280H138.823C138.663 280 138.583 279.92 138.583 279.76V274.324C138.583 274.164 138.663 274.084 138.823 274.084H139.087C139.247 274.084 139.327 274.164 139.327 274.324V274.984C139.463 274.688 139.655 274.456 139.903 274.288C140.159 274.12 140.455 274.036 140.791 274.036ZM144.951 274.036C145.151 274.036 145.387 274.068 145.659 274.132C145.803 274.18 145.859 274.28 145.827 274.432L145.779 274.624C145.739 274.776 145.639 274.832 145.479 274.792C145.287 274.744 145.111 274.72 144.951 274.72C144.543 274.72 144.203 274.896 143.931 275.248C143.667 275.6 143.535 276.088 143.535 276.712V279.76C143.535 279.92 143.455 280 143.295 280H142.983C142.823 280 142.743 279.92 142.743 279.76V274.324C142.743 274.164 142.823 274.084 142.983 274.084H143.247C143.407 274.084 143.487 274.164 143.487 274.324V274.984C143.623 274.688 143.815 274.456 144.063 274.288C144.319 274.12 144.615 274.036 144.951 274.036ZM149.024 280.156C148.472 280.156 147.98 280.024 147.548 279.76C147.116 279.496 146.78 279.132 146.54 278.668C146.3 278.196 146.18 277.656 146.18 277.048C146.18 276.44 146.3 275.904 146.54 275.44C146.78 274.968 147.116 274.6 147.548 274.336C147.98 274.072 148.472 273.94 149.024 273.94C149.576 273.94 150.068 274.072 150.5 274.336C150.932 274.6 151.268 274.968 151.508 275.44C151.748 275.904 151.868 276.44 151.868 277.048C151.868 277.656 151.748 278.196 151.508 278.668C151.268 279.132 150.932 279.496 150.5 279.76C150.068 280.024 149.576 280.156 149.024 280.156ZM149.024 279.496C149.64 279.496 150.132 279.272 150.5 278.824C150.868 278.368 151.052 277.776 151.052 277.048C151.052 276.32 150.868 275.732 150.5 275.284C150.132 274.828 149.64 274.6 149.024 274.6C148.408 274.6 147.916 274.828 147.548 275.284C147.18 275.732 146.996 276.32 146.996 277.048C146.996 277.776 147.18 278.368 147.548 278.824C147.916 279.272 148.408 279.496 149.024 279.496ZM155.451 274.036C155.651 274.036 155.887 274.068 156.159 274.132C156.303 274.18 156.359 274.28 156.327 274.432L156.279 274.624C156.239 274.776 156.139 274.832 155.979 274.792C155.787 274.744 155.611 274.72 155.451 274.72C155.043 274.72 154.703 274.896 154.431 275.248C154.167 275.6 154.035 276.088 154.035 276.712V279.76C154.035 279.92 153.955 280 153.795 280H153.483C153.323 280 153.243 279.92 153.243 279.76V274.324C153.243 274.164 153.323 274.084 153.483 274.084H153.747C153.907 274.084 153.987 274.164 153.987 274.324V274.984C154.123 274.688 154.315 274.456 154.563 274.288C154.819 274.12 155.115 274.036 155.451 274.036ZM166.181 273.94C166.821 273.94 167.309 274.124 167.645 274.492C167.989 274.852 168.161 275.316 168.161 275.884V279.76C168.161 279.92 168.081 280 167.921 280H167.609C167.449 280 167.369 279.92 167.369 279.76V276.1C167.369 275.62 167.257 275.252 167.033 274.996C166.817 274.74 166.493 274.612 166.061 274.612C165.605 274.612 165.241 274.764 164.969 275.068C164.697 275.372 164.561 275.764 164.561 276.244V279.76C164.561 279.92 164.481 280 164.321 280H164.009C163.849 280 163.769 279.92 163.769 279.76V276.1C163.769 275.62 163.657 275.252 163.433 274.996C163.217 274.74 162.889 274.612 162.449 274.612C162.041 274.612 161.701 274.74 161.429 274.996C161.165 275.252 161.009 275.588 160.961 276.004V279.76C160.961 279.92 160.881 280 160.721 280H160.409C160.249 280 160.169 279.92 160.169 279.76V274.324C160.169 274.164 160.249 274.084 160.409 274.084H160.673C160.833 274.084 160.913 274.164 160.913 274.324V274.816C161.273 274.232 161.845 273.94 162.629 273.94C163.037 273.94 163.385 274.032 163.673 274.216C163.969 274.392 164.189 274.632 164.333 274.936C164.757 274.272 165.373 273.94 166.181 273.94ZM174.216 278.596C174.272 278.54 174.332 278.512 174.396 278.512C174.452 278.512 174.504 278.536 174.552 278.584L174.708 278.728C174.764 278.784 174.792 278.844 174.792 278.908C174.792 278.956 174.768 279.012 174.72 279.076C174.328 279.468 173.948 279.748 173.58 279.916C173.212 280.076 172.8 280.156 172.344 280.156C171.768 280.156 171.268 280.028 170.844 279.772C170.42 279.516 170.092 279.16 169.86 278.704C169.628 278.24 169.512 277.704 169.512 277.096C169.512 276.48 169.624 275.936 169.848 275.464C170.08 274.984 170.404 274.612 170.82 274.348C171.236 274.076 171.716 273.94 172.26 273.94C173.068 273.94 173.704 274.192 174.168 274.696C174.632 275.2 174.864 275.88 174.864 276.736V276.88C174.856 276.952 174.828 277.008 174.78 277.048C174.74 277.088 174.684 277.108 174.612 277.108H170.316C170.34 277.78 170.516 278.348 170.844 278.812C171.18 279.268 171.68 279.496 172.344 279.496C172.704 279.496 173.02 279.432 173.292 279.304C173.572 279.168 173.88 278.932 174.216 278.596ZM172.26 274.6C171.732 274.6 171.296 274.764 170.952 275.092C170.616 275.412 170.412 275.884 170.34 276.508H174.072C174.056 275.924 173.888 275.46 173.568 275.116C173.248 274.772 172.812 274.6 172.26 274.6ZM178.393 280.156C177.905 280.156 177.473 280.088 177.097 279.952C176.729 279.808 176.341 279.568 175.933 279.232C175.861 279.184 175.825 279.128 175.825 279.064C175.825 279.008 175.853 278.952 175.909 278.896L176.065 278.728C176.113 278.664 176.173 278.632 176.245 278.632C176.301 278.632 176.353 278.656 176.401 278.704C176.785 279 177.125 279.208 177.421 279.328C177.717 279.44 178.041 279.496 178.393 279.496C178.833 279.496 179.193 279.4 179.473 279.208C179.753 279.008 179.893 278.74 179.893 278.404C179.893 278.068 179.749 277.82 179.461 277.66C179.173 277.5 178.729 277.356 178.129 277.228C177.601 277.116 177.185 277 176.881 276.88C176.585 276.752 176.365 276.592 176.221 276.4C176.077 276.208 176.005 275.956 176.005 275.644C176.005 275.132 176.213 274.72 176.629 274.408C177.045 274.096 177.569 273.94 178.201 273.94C178.633 273.94 179.017 273.996 179.353 274.108C179.697 274.212 180.041 274.388 180.385 274.636C180.457 274.692 180.493 274.752 180.493 274.816C180.493 274.856 180.473 274.908 180.433 274.972L180.289 275.152C180.249 275.216 180.193 275.248 180.121 275.248C180.057 275.248 180.001 275.228 179.953 275.188C179.625 274.956 179.333 274.8 179.077 274.72C178.829 274.64 178.545 274.6 178.225 274.6C177.785 274.6 177.433 274.696 177.169 274.888C176.905 275.08 176.773 275.324 176.773 275.62C176.773 275.804 176.833 275.952 176.953 276.064C177.073 276.176 177.245 276.272 177.469 276.352C177.693 276.424 178.021 276.508 178.453 276.604C179.253 276.78 179.821 276.996 180.157 277.252C180.501 277.508 180.673 277.88 180.673 278.368C180.673 278.904 180.461 279.336 180.037 279.664C179.613 279.992 179.065 280.156 178.393 280.156ZM184.077 280.156C183.589 280.156 183.157 280.088 182.781 279.952C182.413 279.808 182.025 279.568 181.617 279.232C181.545 279.184 181.509 279.128 181.509 279.064C181.509 279.008 181.537 278.952 181.593 278.896L181.749 278.728C181.797 278.664 181.857 278.632 181.929 278.632C181.985 278.632 182.037 278.656 182.085 278.704C182.469 279 182.809 279.208 183.105 279.328C183.401 279.44 183.725 279.496 184.077 279.496C184.517 279.496 184.877 279.4 185.157 279.208C185.437 279.008 185.577 278.74 185.577 278.404C185.577 278.068 185.433 277.82 185.145 277.66C184.857 277.5 184.413 277.356 183.813 277.228C183.285 277.116 182.869 277 182.565 276.88C182.269 276.752 182.049 276.592 181.905 276.4C181.761 276.208 181.689 275.956 181.689 275.644C181.689 275.132 181.897 274.72 182.313 274.408C182.729 274.096 183.253 273.94 183.885 273.94C184.317 273.94 184.701 273.996 185.037 274.108C185.381 274.212 185.725 274.388 186.069 274.636C186.141 274.692 186.177 274.752 186.177 274.816C186.177 274.856 186.157 274.908 186.117 274.972L185.973 275.152C185.933 275.216 185.877 275.248 185.805 275.248C185.741 275.248 185.685 275.228 185.637 275.188C185.309 274.956 185.017 274.8 184.761 274.72C184.513 274.64 184.229 274.6 183.909 274.6C183.469 274.6 183.117 274.696 182.853 274.888C182.589 275.08 182.457 275.324 182.457 275.62C182.457 275.804 182.517 275.952 182.637 276.064C182.757 276.176 182.929 276.272 183.153 276.352C183.377 276.424 183.705 276.508 184.137 276.604C184.937 276.78 185.505 276.996 185.841 277.252C186.185 277.508 186.357 277.88 186.357 278.368C186.357 278.904 186.145 279.336 185.721 279.664C185.297 279.992 184.749 280.156 184.077 280.156ZM190.023 273.94C190.751 273.94 191.319 274.116 191.727 274.468C192.135 274.812 192.339 275.268 192.339 275.836V279.76C192.339 279.92 192.259 280 192.099 280H191.859C191.699 280 191.619 279.92 191.619 279.76V279.22C191.419 279.54 191.135 279.78 190.767 279.94C190.407 280.1 190.003 280.18 189.555 280.18C188.931 280.18 188.423 280.048 188.031 279.784C187.639 279.52 187.443 279.112 187.443 278.56C187.443 278.12 187.567 277.768 187.815 277.504C188.063 277.232 188.387 277.028 188.787 276.892C189.187 276.748 189.687 276.62 190.287 276.508L191.583 276.28V275.896C191.583 275.488 191.443 275.172 191.163 274.948C190.883 274.716 190.515 274.6 190.059 274.6C189.715 274.6 189.403 274.664 189.123 274.792C188.843 274.92 188.543 275.14 188.223 275.452C188.167 275.508 188.107 275.536 188.043 275.536C187.987 275.536 187.935 275.512 187.887 275.464L187.731 275.32C187.675 275.264 187.647 275.204 187.647 275.14C187.647 275.068 187.675 275.004 187.731 274.948C188.067 274.596 188.419 274.34 188.787 274.18C189.163 274.02 189.575 273.94 190.023 273.94ZM189.591 279.52C190.167 279.52 190.643 279.368 191.019 279.064C191.395 278.76 191.583 278.372 191.583 277.9V276.892L190.467 277.108C189.947 277.212 189.535 277.312 189.231 277.408C188.927 277.504 188.683 277.644 188.499 277.828C188.315 278.012 188.223 278.252 188.223 278.548C188.223 278.852 188.343 279.092 188.583 279.268C188.831 279.436 189.167 279.52 189.591 279.52ZM198.343 274.324C198.343 274.164 198.423 274.084 198.583 274.084H198.835C198.995 274.084 199.075 274.164 199.075 274.324V279.94C199.075 280.684 198.851 281.268 198.403 281.692C197.955 282.124 197.327 282.34 196.519 282.34C195.647 282.34 194.843 282.092 194.107 281.596C194.027 281.548 193.987 281.488 193.987 281.416C193.987 281.36 194.003 281.312 194.035 281.272L194.179 281.068C194.227 280.988 194.291 280.948 194.371 280.948C194.403 280.948 194.451 280.964 194.515 280.996C194.867 281.22 195.195 281.388 195.499 281.5C195.811 281.612 196.151 281.668 196.519 281.668C197.047 281.668 197.475 281.52 197.803 281.224C198.131 280.936 198.295 280.488 198.295 279.88V278.92C197.863 279.616 197.207 279.964 196.327 279.964C195.815 279.964 195.363 279.836 194.971 279.58C194.579 279.316 194.275 278.956 194.059 278.5C193.851 278.044 193.747 277.528 193.747 276.952C193.747 276.376 193.851 275.86 194.059 275.404C194.275 274.948 194.579 274.592 194.971 274.336C195.363 274.072 195.815 273.94 196.327 273.94C196.791 273.94 197.191 274.04 197.527 274.24C197.871 274.432 198.143 274.708 198.343 275.068V274.324ZM196.411 279.292C196.987 279.292 197.447 279.076 197.791 278.644C198.135 278.204 198.307 277.64 198.307 276.952C198.307 276.264 198.135 275.704 197.791 275.272C197.447 274.832 196.987 274.612 196.411 274.612C195.827 274.612 195.371 274.828 195.043 275.26C194.723 275.692 194.563 276.256 194.563 276.952C194.563 277.648 194.723 278.212 195.043 278.644C195.371 279.076 195.827 279.292 196.411 279.292ZM205.165 278.596C205.221 278.54 205.281 278.512 205.345 278.512C205.401 278.512 205.453 278.536 205.501 278.584L205.657 278.728C205.713 278.784 205.741 278.844 205.741 278.908C205.741 278.956 205.717 279.012 205.669 279.076C205.277 279.468 204.897 279.748 204.529 279.916C204.161 280.076 203.749 280.156 203.293 280.156C202.717 280.156 202.217 280.028 201.793 279.772C201.369 279.516 201.041 279.16 200.809 278.704C200.577 278.24 200.461 277.704 200.461 277.096C200.461 276.48 200.573 275.936 200.797 275.464C201.029 274.984 201.353 274.612 201.769 274.348C202.185 274.076 202.665 273.94 203.209 273.94C204.017 273.94 204.653 274.192 205.117 274.696C205.581 275.2 205.813 275.88 205.813 276.736V276.88C205.805 276.952 205.777 277.008 205.729 277.048C205.689 277.088 205.633 277.108 205.561 277.108H201.265C201.289 277.78 201.465 278.348 201.793 278.812C202.129 279.268 202.629 279.496 203.293 279.496C203.653 279.496 203.969 279.432 204.241 279.304C204.521 279.168 204.829 278.932 205.165 278.596ZM203.209 274.6C202.681 274.6 202.245 274.764 201.901 275.092C201.565 275.412 201.361 275.884 201.289 276.508H205.021C205.005 275.924 204.837 275.46 204.517 275.116C204.197 274.772 203.761 274.6 203.209 274.6ZM214.245 274.324C214.245 274.164 214.325 274.084 214.485 274.084H214.737C214.897 274.084 214.977 274.164 214.977 274.324V279.94C214.977 280.684 214.753 281.268 214.305 281.692C213.857 282.124 213.229 282.34 212.421 282.34C211.549 282.34 210.745 282.092 210.009 281.596C209.929 281.548 209.889 281.488 209.889 281.416C209.889 281.36 209.905 281.312 209.937 281.272L210.081 281.068C210.129 280.988 210.193 280.948 210.273 280.948C210.305 280.948 210.353 280.964 210.417 280.996C210.769 281.22 211.097 281.388 211.401 281.5C211.713 281.612 212.053 281.668 212.421 281.668C212.949 281.668 213.377 281.52 213.705 281.224C214.033 280.936 214.197 280.488 214.197 279.88V278.92C213.765 279.616 213.109 279.964 212.229 279.964C211.717 279.964 211.265 279.836 210.873 279.58C210.481 279.316 210.177 278.956 209.961 278.5C209.753 278.044 209.649 277.528 209.649 276.952C209.649 276.376 209.753 275.86 209.961 275.404C210.177 274.948 210.481 274.592 210.873 274.336C211.265 274.072 211.717 273.94 212.229 273.94C212.693 273.94 213.093 274.04 213.429 274.24C213.773 274.432 214.045 274.708 214.245 275.068V274.324ZM212.313 279.292C212.889 279.292 213.349 279.076 213.693 278.644C214.037 278.204 214.209 277.64 214.209 276.952C214.209 276.264 214.037 275.704 213.693 275.272C213.349 274.832 212.889 274.612 212.313 274.612C211.729 274.612 211.273 274.828 210.945 275.26C210.625 275.692 210.465 276.256 210.465 276.952C210.465 277.648 210.625 278.212 210.945 278.644C211.273 279.076 211.729 279.292 212.313 279.292ZM219.207 280.156C218.655 280.156 218.163 280.024 217.731 279.76C217.299 279.496 216.963 279.132 216.723 278.668C216.483 278.196 216.363 277.656 216.363 277.048C216.363 276.44 216.483 275.904 216.723 275.44C216.963 274.968 217.299 274.6 217.731 274.336C218.163 274.072 218.655 273.94 219.207 273.94C219.759 273.94 220.251 274.072 220.683 274.336C221.115 274.6 221.451 274.968 221.691 275.44C221.931 275.904 222.051 276.44 222.051 277.048C222.051 277.656 221.931 278.196 221.691 278.668C221.451 279.132 221.115 279.496 220.683 279.76C220.251 280.024 219.759 280.156 219.207 280.156ZM219.207 279.496C219.823 279.496 220.315 279.272 220.683 278.824C221.051 278.368 221.235 277.776 221.235 277.048C221.235 276.32 221.051 275.732 220.683 275.284C220.315 274.828 219.823 274.6 219.207 274.6C218.591 274.6 218.099 274.828 217.731 275.284C217.363 275.732 217.179 276.32 217.179 277.048C217.179 277.776 217.363 278.368 217.731 278.824C218.099 279.272 218.591 279.496 219.207 279.496ZM227.805 278.596C227.861 278.54 227.921 278.512 227.985 278.512C228.041 278.512 228.093 278.536 228.141 278.584L228.297 278.728C228.353 278.784 228.381 278.844 228.381 278.908C228.381 278.956 228.357 279.012 228.309 279.076C227.917 279.468 227.537 279.748 227.169 279.916C226.801 280.076 226.389 280.156 225.933 280.156C225.357 280.156 224.857 280.028 224.433 279.772C224.009 279.516 223.681 279.16 223.449 278.704C223.217 278.24 223.101 277.704 223.101 277.096C223.101 276.48 223.213 275.936 223.437 275.464C223.669 274.984 223.993 274.612 224.409 274.348C224.825 274.076 225.305 273.94 225.849 273.94C226.657 273.94 227.293 274.192 227.757 274.696C228.221 275.2 228.453 275.88 228.453 276.736V276.88C228.445 276.952 228.417 277.008 228.369 277.048C228.329 277.088 228.273 277.108 228.201 277.108H223.905C223.929 277.78 224.105 278.348 224.433 278.812C224.769 279.268 225.269 279.496 225.933 279.496C226.293 279.496 226.609 279.432 226.881 279.304C227.161 279.168 227.469 278.932 227.805 278.596ZM225.849 274.6C225.321 274.6 224.885 274.764 224.541 275.092C224.205 275.412 224.001 275.884 223.929 276.508H227.661C227.645 275.924 227.477 275.46 227.157 275.116C226.837 274.772 226.401 274.6 225.849 274.6ZM231.983 280.156C231.495 280.156 231.063 280.088 230.687 279.952C230.319 279.808 229.931 279.568 229.523 279.232C229.451 279.184 229.415 279.128 229.415 279.064C229.415 279.008 229.443 278.952 229.499 278.896L229.655 278.728C229.703 278.664 229.763 278.632 229.835 278.632C229.891 278.632 229.943 278.656 229.991 278.704C230.375 279 230.715 279.208 231.011 279.328C231.307 279.44 231.631 279.496 231.983 279.496C232.423 279.496 232.783 279.4 233.063 279.208C233.343 279.008 233.483 278.74 233.483 278.404C233.483 278.068 233.339 277.82 233.051 277.66C232.763 277.5 232.319 277.356 231.719 277.228C231.191 277.116 230.775 277 230.471 276.88C230.175 276.752 229.955 276.592 229.811 276.4C229.667 276.208 229.595 275.956 229.595 275.644C229.595 275.132 229.803 274.72 230.219 274.408C230.635 274.096 231.159 273.94 231.791 273.94C232.223 273.94 232.607 273.996 232.943 274.108C233.287 274.212 233.631 274.388 233.975 274.636C234.047 274.692 234.083 274.752 234.083 274.816C234.083 274.856 234.063 274.908 234.023 274.972L233.879 275.152C233.839 275.216 233.783 275.248 233.711 275.248C233.647 275.248 233.591 275.228 233.543 275.188C233.215 274.956 232.923 274.8 232.667 274.72C232.419 274.64 232.135 274.6 231.815 274.6C231.375 274.6 231.023 274.696 230.759 274.888C230.495 275.08 230.363 275.324 230.363 275.62C230.363 275.804 230.423 275.952 230.543 276.064C230.663 276.176 230.835 276.272 231.059 276.352C231.283 276.424 231.611 276.508 232.043 276.604C232.843 276.78 233.411 276.996 233.747 277.252C234.091 277.508 234.263 277.88 234.263 278.368C234.263 278.904 234.051 279.336 233.627 279.664C233.203 279.992 232.655 280.156 231.983 280.156ZM241.008 273.94C241.696 273.94 242.22 274.136 242.58 274.528C242.94 274.912 243.12 275.388 243.12 275.956V279.76C243.12 279.92 243.04 280 242.88 280H242.568C242.408 280 242.328 279.92 242.328 279.76V276.22C242.328 275.692 242.2 275.292 241.944 275.02C241.688 274.748 241.32 274.612 240.84 274.612C240.536 274.612 240.256 274.688 240 274.84C239.744 274.984 239.54 275.184 239.388 275.44C239.236 275.696 239.16 275.976 239.16 276.28V279.76C239.16 279.92 239.08 280 238.92 280H238.608C238.448 280 238.368 279.92 238.368 279.76V271.72C238.368 271.56 238.448 271.48 238.608 271.48H238.92C239.08 271.48 239.16 271.56 239.16 271.72V274.852C239.352 274.548 239.608 274.32 239.928 274.168C240.256 274.016 240.616 273.94 241.008 273.94ZM249.18 278.596C249.236 278.54 249.296 278.512 249.36 278.512C249.416 278.512 249.468 278.536 249.516 278.584L249.672 278.728C249.728 278.784 249.756 278.844 249.756 278.908C249.756 278.956 249.732 279.012 249.684 279.076C249.292 279.468 248.912 279.748 248.544 279.916C248.176 280.076 247.764 280.156 247.308 280.156C246.732 280.156 246.232 280.028 245.808 279.772C245.384 279.516 245.056 279.16 244.824 278.704C244.592 278.24 244.476 277.704 244.476 277.096C244.476 276.48 244.588 275.936 244.812 275.464C245.044 274.984 245.368 274.612 245.784 274.348C246.2 274.076 246.68 273.94 247.224 273.94C248.032 273.94 248.668 274.192 249.132 274.696C249.596 275.2 249.828 275.88 249.828 276.736V276.88C249.82 276.952 249.792 277.008 249.744 277.048C249.704 277.088 249.648 277.108 249.576 277.108H245.28C245.304 277.78 245.48 278.348 245.808 278.812C246.144 279.268 246.644 279.496 247.308 279.496C247.668 279.496 247.984 279.432 248.256 279.304C248.536 279.168 248.844 278.932 249.18 278.596ZM247.224 274.6C246.696 274.6 246.26 274.764 245.916 275.092C245.58 275.412 245.376 275.884 245.304 276.508H249.036C249.02 275.924 248.852 275.46 248.532 275.116C248.212 274.772 247.776 274.6 247.224 274.6ZM253.455 274.036C253.655 274.036 253.891 274.068 254.163 274.132C254.307 274.18 254.363 274.28 254.331 274.432L254.283 274.624C254.243 274.776 254.143 274.832 253.983 274.792C253.791 274.744 253.615 274.72 253.455 274.72C253.047 274.72 252.707 274.896 252.435 275.248C252.171 275.6 252.039 276.088 252.039 276.712V279.76C252.039 279.92 251.959 280 251.799 280H251.487C251.327 280 251.247 279.92 251.247 279.76V274.324C251.247 274.164 251.327 274.084 251.487 274.084H251.751C251.911 274.084 251.991 274.164 251.991 274.324V274.984C252.127 274.688 252.319 274.456 252.567 274.288C252.823 274.12 253.119 274.036 253.455 274.036ZM259.387 278.596C259.443 278.54 259.503 278.512 259.567 278.512C259.623 278.512 259.675 278.536 259.723 278.584L259.879 278.728C259.935 278.784 259.963 278.844 259.963 278.908C259.963 278.956 259.939 279.012 259.891 279.076C259.499 279.468 259.119 279.748 258.751 279.916C258.383 280.076 257.971 280.156 257.515 280.156C256.939 280.156 256.439 280.028 256.015 279.772C255.591 279.516 255.263 279.16 255.031 278.704C254.799 278.24 254.683 277.704 254.683 277.096C254.683 276.48 254.795 275.936 255.019 275.464C255.251 274.984 255.575 274.612 255.991 274.348C256.407 274.076 256.887 273.94 257.431 273.94C258.239 273.94 258.875 274.192 259.339 274.696C259.803 275.2 260.035 275.88 260.035 276.736V276.88C260.027 276.952 259.999 277.008 259.951 277.048C259.911 277.088 259.855 277.108 259.783 277.108H255.487C255.511 277.78 255.687 278.348 256.015 278.812C256.351 279.268 256.851 279.496 257.515 279.496C257.875 279.496 258.191 279.432 258.463 279.304C258.743 279.168 259.051 278.932 259.387 278.596ZM257.431 274.6C256.903 274.6 256.467 274.764 256.123 275.092C255.787 275.412 255.583 275.884 255.511 276.508H259.243C259.227 275.924 259.059 275.46 258.739 275.116C258.419 274.772 257.983 274.6 257.431 274.6Z" fill="#D91F0A"/>
<defs>
<clipPath id="clip0_4517_26469">
<rect width="187" height="22" fill="white" transform="translate(138.5 99)"/>
</clipPath>
<clipPath id="clip1_4517_26469">
<rect width="187" height="22" fill="white" transform="translate(138.5 229)"/>
</clipPath>
</defs>
</svg>
